G75*
%MOIN*%
%OFA0B0*%
%FSLAX25Y25*%
%IPPOS*%
%LPD*%
%AMOC8*
5,1,8,0,0,1.08239X$1,22.5*
%
%ADD10R,0.04331X0.03937*%
%ADD11R,0.03937X0.04331*%
%ADD12R,0.05906X0.05118*%
%ADD13R,0.05118X0.05906*%
%ADD14R,0.03543X0.03543*%
%ADD15C,0.05000*%
%ADD16R,0.03937X0.01260*%
%ADD17R,0.01260X0.03937*%
%ADD18R,0.10630X0.10630*%
%ADD19R,0.23622X0.09843*%
%ADD20C,0.00000*%
%ADD21C,0.06000*%
%ADD22OC8,0.06000*%
%ADD23R,0.06000X0.06000*%
%ADD24C,0.01772*%
%ADD25R,0.06299X0.09843*%
%ADD26C,0.07600*%
%ADD27C,0.01000*%
%ADD28C,0.02400*%
%ADD29R,0.03562X0.03562*%
%ADD30C,0.01600*%
%ADD31R,0.03400X0.03400*%
%ADD32C,0.01400*%
D10*
X0053000Y0105154D03*
X0053000Y0111846D03*
X0062000Y0111846D03*
X0062000Y0105154D03*
X0086154Y0128500D03*
X0092846Y0128500D03*
X0094846Y0168000D03*
X0088154Y0168000D03*
X0126654Y0180500D03*
X0133346Y0180500D03*
X0134154Y0168000D03*
X0140846Y0168000D03*
X0143846Y0128500D03*
X0137154Y0128500D03*
X0137154Y0120500D03*
X0143846Y0120500D03*
X0143846Y0112500D03*
X0137154Y0112500D03*
D11*
X0137154Y0104500D03*
X0143846Y0104500D03*
X0143846Y0096500D03*
X0137154Y0096500D03*
X0119500Y0093654D03*
X0119500Y0100346D03*
X0137154Y0136500D03*
X0143846Y0136500D03*
X0092846Y0136500D03*
X0086154Y0136500D03*
D12*
X0071000Y0081740D03*
X0071000Y0074260D03*
D13*
X0085260Y0120500D03*
X0092740Y0120500D03*
D14*
X0059000Y0081150D03*
X0059000Y0074850D03*
D15*
X0046500Y0089500D03*
X0166000Y0096500D03*
X0166000Y0104500D03*
X0165500Y0136500D03*
D16*
X0123220Y0124421D03*
X0123220Y0122453D03*
X0123220Y0120484D03*
X0123220Y0118516D03*
X0123220Y0116547D03*
X0123220Y0114579D03*
X0105780Y0114579D03*
X0105780Y0116547D03*
X0105780Y0118516D03*
X0105780Y0120484D03*
X0105780Y0122453D03*
X0105780Y0124421D03*
D17*
X0109579Y0128220D03*
X0111547Y0128220D03*
X0113516Y0128220D03*
X0115484Y0128220D03*
X0117453Y0128220D03*
X0119421Y0128220D03*
X0119421Y0110780D03*
X0117453Y0110780D03*
X0115484Y0110780D03*
X0113516Y0110780D03*
X0111547Y0110780D03*
X0109579Y0110780D03*
D18*
X0114500Y0119500D03*
D19*
X0094815Y0152500D03*
X0134185Y0152500D03*
D20*
X0190803Y0202102D02*
X0190805Y0202260D01*
X0190811Y0202418D01*
X0190821Y0202576D01*
X0190835Y0202734D01*
X0190853Y0202891D01*
X0190874Y0203048D01*
X0190900Y0203204D01*
X0190930Y0203360D01*
X0190963Y0203515D01*
X0191001Y0203668D01*
X0191042Y0203821D01*
X0191087Y0203973D01*
X0191136Y0204124D01*
X0191189Y0204273D01*
X0191245Y0204421D01*
X0191305Y0204567D01*
X0191369Y0204712D01*
X0191437Y0204855D01*
X0191508Y0204997D01*
X0191582Y0205137D01*
X0191660Y0205274D01*
X0191742Y0205410D01*
X0191826Y0205544D01*
X0191915Y0205675D01*
X0192006Y0205804D01*
X0192101Y0205931D01*
X0192198Y0206056D01*
X0192299Y0206178D01*
X0192403Y0206297D01*
X0192510Y0206414D01*
X0192620Y0206528D01*
X0192733Y0206639D01*
X0192848Y0206748D01*
X0192966Y0206853D01*
X0193087Y0206955D01*
X0193210Y0207055D01*
X0193336Y0207151D01*
X0193464Y0207244D01*
X0193594Y0207334D01*
X0193727Y0207420D01*
X0193862Y0207504D01*
X0193998Y0207583D01*
X0194137Y0207660D01*
X0194278Y0207732D01*
X0194420Y0207802D01*
X0194564Y0207867D01*
X0194710Y0207929D01*
X0194857Y0207987D01*
X0195006Y0208042D01*
X0195156Y0208093D01*
X0195307Y0208140D01*
X0195459Y0208183D01*
X0195612Y0208222D01*
X0195767Y0208258D01*
X0195922Y0208289D01*
X0196078Y0208317D01*
X0196234Y0208341D01*
X0196391Y0208361D01*
X0196549Y0208377D01*
X0196706Y0208389D01*
X0196865Y0208397D01*
X0197023Y0208401D01*
X0197181Y0208401D01*
X0197339Y0208397D01*
X0197498Y0208389D01*
X0197655Y0208377D01*
X0197813Y0208361D01*
X0197970Y0208341D01*
X0198126Y0208317D01*
X0198282Y0208289D01*
X0198437Y0208258D01*
X0198592Y0208222D01*
X0198745Y0208183D01*
X0198897Y0208140D01*
X0199048Y0208093D01*
X0199198Y0208042D01*
X0199347Y0207987D01*
X0199494Y0207929D01*
X0199640Y0207867D01*
X0199784Y0207802D01*
X0199926Y0207732D01*
X0200067Y0207660D01*
X0200206Y0207583D01*
X0200342Y0207504D01*
X0200477Y0207420D01*
X0200610Y0207334D01*
X0200740Y0207244D01*
X0200868Y0207151D01*
X0200994Y0207055D01*
X0201117Y0206955D01*
X0201238Y0206853D01*
X0201356Y0206748D01*
X0201471Y0206639D01*
X0201584Y0206528D01*
X0201694Y0206414D01*
X0201801Y0206297D01*
X0201905Y0206178D01*
X0202006Y0206056D01*
X0202103Y0205931D01*
X0202198Y0205804D01*
X0202289Y0205675D01*
X0202378Y0205544D01*
X0202462Y0205410D01*
X0202544Y0205274D01*
X0202622Y0205137D01*
X0202696Y0204997D01*
X0202767Y0204855D01*
X0202835Y0204712D01*
X0202899Y0204567D01*
X0202959Y0204421D01*
X0203015Y0204273D01*
X0203068Y0204124D01*
X0203117Y0203973D01*
X0203162Y0203821D01*
X0203203Y0203668D01*
X0203241Y0203515D01*
X0203274Y0203360D01*
X0203304Y0203204D01*
X0203330Y0203048D01*
X0203351Y0202891D01*
X0203369Y0202734D01*
X0203383Y0202576D01*
X0203393Y0202418D01*
X0203399Y0202260D01*
X0203401Y0202102D01*
X0203399Y0201944D01*
X0203393Y0201786D01*
X0203383Y0201628D01*
X0203369Y0201470D01*
X0203351Y0201313D01*
X0203330Y0201156D01*
X0203304Y0201000D01*
X0203274Y0200844D01*
X0203241Y0200689D01*
X0203203Y0200536D01*
X0203162Y0200383D01*
X0203117Y0200231D01*
X0203068Y0200080D01*
X0203015Y0199931D01*
X0202959Y0199783D01*
X0202899Y0199637D01*
X0202835Y0199492D01*
X0202767Y0199349D01*
X0202696Y0199207D01*
X0202622Y0199067D01*
X0202544Y0198930D01*
X0202462Y0198794D01*
X0202378Y0198660D01*
X0202289Y0198529D01*
X0202198Y0198400D01*
X0202103Y0198273D01*
X0202006Y0198148D01*
X0201905Y0198026D01*
X0201801Y0197907D01*
X0201694Y0197790D01*
X0201584Y0197676D01*
X0201471Y0197565D01*
X0201356Y0197456D01*
X0201238Y0197351D01*
X0201117Y0197249D01*
X0200994Y0197149D01*
X0200868Y0197053D01*
X0200740Y0196960D01*
X0200610Y0196870D01*
X0200477Y0196784D01*
X0200342Y0196700D01*
X0200206Y0196621D01*
X0200067Y0196544D01*
X0199926Y0196472D01*
X0199784Y0196402D01*
X0199640Y0196337D01*
X0199494Y0196275D01*
X0199347Y0196217D01*
X0199198Y0196162D01*
X0199048Y0196111D01*
X0198897Y0196064D01*
X0198745Y0196021D01*
X0198592Y0195982D01*
X0198437Y0195946D01*
X0198282Y0195915D01*
X0198126Y0195887D01*
X0197970Y0195863D01*
X0197813Y0195843D01*
X0197655Y0195827D01*
X0197498Y0195815D01*
X0197339Y0195807D01*
X0197181Y0195803D01*
X0197023Y0195803D01*
X0196865Y0195807D01*
X0196706Y0195815D01*
X0196549Y0195827D01*
X0196391Y0195843D01*
X0196234Y0195863D01*
X0196078Y0195887D01*
X0195922Y0195915D01*
X0195767Y0195946D01*
X0195612Y0195982D01*
X0195459Y0196021D01*
X0195307Y0196064D01*
X0195156Y0196111D01*
X0195006Y0196162D01*
X0194857Y0196217D01*
X0194710Y0196275D01*
X0194564Y0196337D01*
X0194420Y0196402D01*
X0194278Y0196472D01*
X0194137Y0196544D01*
X0193998Y0196621D01*
X0193862Y0196700D01*
X0193727Y0196784D01*
X0193594Y0196870D01*
X0193464Y0196960D01*
X0193336Y0197053D01*
X0193210Y0197149D01*
X0193087Y0197249D01*
X0192966Y0197351D01*
X0192848Y0197456D01*
X0192733Y0197565D01*
X0192620Y0197676D01*
X0192510Y0197790D01*
X0192403Y0197907D01*
X0192299Y0198026D01*
X0192198Y0198148D01*
X0192101Y0198273D01*
X0192006Y0198400D01*
X0191915Y0198529D01*
X0191826Y0198660D01*
X0191742Y0198794D01*
X0191660Y0198930D01*
X0191582Y0199067D01*
X0191508Y0199207D01*
X0191437Y0199349D01*
X0191369Y0199492D01*
X0191305Y0199637D01*
X0191245Y0199783D01*
X0191189Y0199931D01*
X0191136Y0200080D01*
X0191087Y0200231D01*
X0191042Y0200383D01*
X0191001Y0200536D01*
X0190963Y0200689D01*
X0190930Y0200844D01*
X0190900Y0201000D01*
X0190874Y0201156D01*
X0190853Y0201313D01*
X0190835Y0201470D01*
X0190821Y0201628D01*
X0190811Y0201786D01*
X0190805Y0201944D01*
X0190803Y0202102D01*
X0201039Y0217850D02*
X0212850Y0206039D01*
X0212850Y0032811D01*
X0201039Y0021000D01*
X0027811Y0021000D01*
X0016000Y0032811D01*
X0016000Y0206039D01*
X0027811Y0217850D01*
X0201039Y0217850D01*
X0025449Y0202102D02*
X0025451Y0202260D01*
X0025457Y0202418D01*
X0025467Y0202576D01*
X0025481Y0202734D01*
X0025499Y0202891D01*
X0025520Y0203048D01*
X0025546Y0203204D01*
X0025576Y0203360D01*
X0025609Y0203515D01*
X0025647Y0203668D01*
X0025688Y0203821D01*
X0025733Y0203973D01*
X0025782Y0204124D01*
X0025835Y0204273D01*
X0025891Y0204421D01*
X0025951Y0204567D01*
X0026015Y0204712D01*
X0026083Y0204855D01*
X0026154Y0204997D01*
X0026228Y0205137D01*
X0026306Y0205274D01*
X0026388Y0205410D01*
X0026472Y0205544D01*
X0026561Y0205675D01*
X0026652Y0205804D01*
X0026747Y0205931D01*
X0026844Y0206056D01*
X0026945Y0206178D01*
X0027049Y0206297D01*
X0027156Y0206414D01*
X0027266Y0206528D01*
X0027379Y0206639D01*
X0027494Y0206748D01*
X0027612Y0206853D01*
X0027733Y0206955D01*
X0027856Y0207055D01*
X0027982Y0207151D01*
X0028110Y0207244D01*
X0028240Y0207334D01*
X0028373Y0207420D01*
X0028508Y0207504D01*
X0028644Y0207583D01*
X0028783Y0207660D01*
X0028924Y0207732D01*
X0029066Y0207802D01*
X0029210Y0207867D01*
X0029356Y0207929D01*
X0029503Y0207987D01*
X0029652Y0208042D01*
X0029802Y0208093D01*
X0029953Y0208140D01*
X0030105Y0208183D01*
X0030258Y0208222D01*
X0030413Y0208258D01*
X0030568Y0208289D01*
X0030724Y0208317D01*
X0030880Y0208341D01*
X0031037Y0208361D01*
X0031195Y0208377D01*
X0031352Y0208389D01*
X0031511Y0208397D01*
X0031669Y0208401D01*
X0031827Y0208401D01*
X0031985Y0208397D01*
X0032144Y0208389D01*
X0032301Y0208377D01*
X0032459Y0208361D01*
X0032616Y0208341D01*
X0032772Y0208317D01*
X0032928Y0208289D01*
X0033083Y0208258D01*
X0033238Y0208222D01*
X0033391Y0208183D01*
X0033543Y0208140D01*
X0033694Y0208093D01*
X0033844Y0208042D01*
X0033993Y0207987D01*
X0034140Y0207929D01*
X0034286Y0207867D01*
X0034430Y0207802D01*
X0034572Y0207732D01*
X0034713Y0207660D01*
X0034852Y0207583D01*
X0034988Y0207504D01*
X0035123Y0207420D01*
X0035256Y0207334D01*
X0035386Y0207244D01*
X0035514Y0207151D01*
X0035640Y0207055D01*
X0035763Y0206955D01*
X0035884Y0206853D01*
X0036002Y0206748D01*
X0036117Y0206639D01*
X0036230Y0206528D01*
X0036340Y0206414D01*
X0036447Y0206297D01*
X0036551Y0206178D01*
X0036652Y0206056D01*
X0036749Y0205931D01*
X0036844Y0205804D01*
X0036935Y0205675D01*
X0037024Y0205544D01*
X0037108Y0205410D01*
X0037190Y0205274D01*
X0037268Y0205137D01*
X0037342Y0204997D01*
X0037413Y0204855D01*
X0037481Y0204712D01*
X0037545Y0204567D01*
X0037605Y0204421D01*
X0037661Y0204273D01*
X0037714Y0204124D01*
X0037763Y0203973D01*
X0037808Y0203821D01*
X0037849Y0203668D01*
X0037887Y0203515D01*
X0037920Y0203360D01*
X0037950Y0203204D01*
X0037976Y0203048D01*
X0037997Y0202891D01*
X0038015Y0202734D01*
X0038029Y0202576D01*
X0038039Y0202418D01*
X0038045Y0202260D01*
X0038047Y0202102D01*
X0038045Y0201944D01*
X0038039Y0201786D01*
X0038029Y0201628D01*
X0038015Y0201470D01*
X0037997Y0201313D01*
X0037976Y0201156D01*
X0037950Y0201000D01*
X0037920Y0200844D01*
X0037887Y0200689D01*
X0037849Y0200536D01*
X0037808Y0200383D01*
X0037763Y0200231D01*
X0037714Y0200080D01*
X0037661Y0199931D01*
X0037605Y0199783D01*
X0037545Y0199637D01*
X0037481Y0199492D01*
X0037413Y0199349D01*
X0037342Y0199207D01*
X0037268Y0199067D01*
X0037190Y0198930D01*
X0037108Y0198794D01*
X0037024Y0198660D01*
X0036935Y0198529D01*
X0036844Y0198400D01*
X0036749Y0198273D01*
X0036652Y0198148D01*
X0036551Y0198026D01*
X0036447Y0197907D01*
X0036340Y0197790D01*
X0036230Y0197676D01*
X0036117Y0197565D01*
X0036002Y0197456D01*
X0035884Y0197351D01*
X0035763Y0197249D01*
X0035640Y0197149D01*
X0035514Y0197053D01*
X0035386Y0196960D01*
X0035256Y0196870D01*
X0035123Y0196784D01*
X0034988Y0196700D01*
X0034852Y0196621D01*
X0034713Y0196544D01*
X0034572Y0196472D01*
X0034430Y0196402D01*
X0034286Y0196337D01*
X0034140Y0196275D01*
X0033993Y0196217D01*
X0033844Y0196162D01*
X0033694Y0196111D01*
X0033543Y0196064D01*
X0033391Y0196021D01*
X0033238Y0195982D01*
X0033083Y0195946D01*
X0032928Y0195915D01*
X0032772Y0195887D01*
X0032616Y0195863D01*
X0032459Y0195843D01*
X0032301Y0195827D01*
X0032144Y0195815D01*
X0031985Y0195807D01*
X0031827Y0195803D01*
X0031669Y0195803D01*
X0031511Y0195807D01*
X0031352Y0195815D01*
X0031195Y0195827D01*
X0031037Y0195843D01*
X0030880Y0195863D01*
X0030724Y0195887D01*
X0030568Y0195915D01*
X0030413Y0195946D01*
X0030258Y0195982D01*
X0030105Y0196021D01*
X0029953Y0196064D01*
X0029802Y0196111D01*
X0029652Y0196162D01*
X0029503Y0196217D01*
X0029356Y0196275D01*
X0029210Y0196337D01*
X0029066Y0196402D01*
X0028924Y0196472D01*
X0028783Y0196544D01*
X0028644Y0196621D01*
X0028508Y0196700D01*
X0028373Y0196784D01*
X0028240Y0196870D01*
X0028110Y0196960D01*
X0027982Y0197053D01*
X0027856Y0197149D01*
X0027733Y0197249D01*
X0027612Y0197351D01*
X0027494Y0197456D01*
X0027379Y0197565D01*
X0027266Y0197676D01*
X0027156Y0197790D01*
X0027049Y0197907D01*
X0026945Y0198026D01*
X0026844Y0198148D01*
X0026747Y0198273D01*
X0026652Y0198400D01*
X0026561Y0198529D01*
X0026472Y0198660D01*
X0026388Y0198794D01*
X0026306Y0198930D01*
X0026228Y0199067D01*
X0026154Y0199207D01*
X0026083Y0199349D01*
X0026015Y0199492D01*
X0025951Y0199637D01*
X0025891Y0199783D01*
X0025835Y0199931D01*
X0025782Y0200080D01*
X0025733Y0200231D01*
X0025688Y0200383D01*
X0025647Y0200536D01*
X0025609Y0200689D01*
X0025576Y0200844D01*
X0025546Y0201000D01*
X0025520Y0201156D01*
X0025499Y0201313D01*
X0025481Y0201470D01*
X0025467Y0201628D01*
X0025457Y0201786D01*
X0025451Y0201944D01*
X0025449Y0202102D01*
X0025449Y0036748D02*
X0025451Y0036906D01*
X0025457Y0037064D01*
X0025467Y0037222D01*
X0025481Y0037380D01*
X0025499Y0037537D01*
X0025520Y0037694D01*
X0025546Y0037850D01*
X0025576Y0038006D01*
X0025609Y0038161D01*
X0025647Y0038314D01*
X0025688Y0038467D01*
X0025733Y0038619D01*
X0025782Y0038770D01*
X0025835Y0038919D01*
X0025891Y0039067D01*
X0025951Y0039213D01*
X0026015Y0039358D01*
X0026083Y0039501D01*
X0026154Y0039643D01*
X0026228Y0039783D01*
X0026306Y0039920D01*
X0026388Y0040056D01*
X0026472Y0040190D01*
X0026561Y0040321D01*
X0026652Y0040450D01*
X0026747Y0040577D01*
X0026844Y0040702D01*
X0026945Y0040824D01*
X0027049Y0040943D01*
X0027156Y0041060D01*
X0027266Y0041174D01*
X0027379Y0041285D01*
X0027494Y0041394D01*
X0027612Y0041499D01*
X0027733Y0041601D01*
X0027856Y0041701D01*
X0027982Y0041797D01*
X0028110Y0041890D01*
X0028240Y0041980D01*
X0028373Y0042066D01*
X0028508Y0042150D01*
X0028644Y0042229D01*
X0028783Y0042306D01*
X0028924Y0042378D01*
X0029066Y0042448D01*
X0029210Y0042513D01*
X0029356Y0042575D01*
X0029503Y0042633D01*
X0029652Y0042688D01*
X0029802Y0042739D01*
X0029953Y0042786D01*
X0030105Y0042829D01*
X0030258Y0042868D01*
X0030413Y0042904D01*
X0030568Y0042935D01*
X0030724Y0042963D01*
X0030880Y0042987D01*
X0031037Y0043007D01*
X0031195Y0043023D01*
X0031352Y0043035D01*
X0031511Y0043043D01*
X0031669Y0043047D01*
X0031827Y0043047D01*
X0031985Y0043043D01*
X0032144Y0043035D01*
X0032301Y0043023D01*
X0032459Y0043007D01*
X0032616Y0042987D01*
X0032772Y0042963D01*
X0032928Y0042935D01*
X0033083Y0042904D01*
X0033238Y0042868D01*
X0033391Y0042829D01*
X0033543Y0042786D01*
X0033694Y0042739D01*
X0033844Y0042688D01*
X0033993Y0042633D01*
X0034140Y0042575D01*
X0034286Y0042513D01*
X0034430Y0042448D01*
X0034572Y0042378D01*
X0034713Y0042306D01*
X0034852Y0042229D01*
X0034988Y0042150D01*
X0035123Y0042066D01*
X0035256Y0041980D01*
X0035386Y0041890D01*
X0035514Y0041797D01*
X0035640Y0041701D01*
X0035763Y0041601D01*
X0035884Y0041499D01*
X0036002Y0041394D01*
X0036117Y0041285D01*
X0036230Y0041174D01*
X0036340Y0041060D01*
X0036447Y0040943D01*
X0036551Y0040824D01*
X0036652Y0040702D01*
X0036749Y0040577D01*
X0036844Y0040450D01*
X0036935Y0040321D01*
X0037024Y0040190D01*
X0037108Y0040056D01*
X0037190Y0039920D01*
X0037268Y0039783D01*
X0037342Y0039643D01*
X0037413Y0039501D01*
X0037481Y0039358D01*
X0037545Y0039213D01*
X0037605Y0039067D01*
X0037661Y0038919D01*
X0037714Y0038770D01*
X0037763Y0038619D01*
X0037808Y0038467D01*
X0037849Y0038314D01*
X0037887Y0038161D01*
X0037920Y0038006D01*
X0037950Y0037850D01*
X0037976Y0037694D01*
X0037997Y0037537D01*
X0038015Y0037380D01*
X0038029Y0037222D01*
X0038039Y0037064D01*
X0038045Y0036906D01*
X0038047Y0036748D01*
X0038045Y0036590D01*
X0038039Y0036432D01*
X0038029Y0036274D01*
X0038015Y0036116D01*
X0037997Y0035959D01*
X0037976Y0035802D01*
X0037950Y0035646D01*
X0037920Y0035490D01*
X0037887Y0035335D01*
X0037849Y0035182D01*
X0037808Y0035029D01*
X0037763Y0034877D01*
X0037714Y0034726D01*
X0037661Y0034577D01*
X0037605Y0034429D01*
X0037545Y0034283D01*
X0037481Y0034138D01*
X0037413Y0033995D01*
X0037342Y0033853D01*
X0037268Y0033713D01*
X0037190Y0033576D01*
X0037108Y0033440D01*
X0037024Y0033306D01*
X0036935Y0033175D01*
X0036844Y0033046D01*
X0036749Y0032919D01*
X0036652Y0032794D01*
X0036551Y0032672D01*
X0036447Y0032553D01*
X0036340Y0032436D01*
X0036230Y0032322D01*
X0036117Y0032211D01*
X0036002Y0032102D01*
X0035884Y0031997D01*
X0035763Y0031895D01*
X0035640Y0031795D01*
X0035514Y0031699D01*
X0035386Y0031606D01*
X0035256Y0031516D01*
X0035123Y0031430D01*
X0034988Y0031346D01*
X0034852Y0031267D01*
X0034713Y0031190D01*
X0034572Y0031118D01*
X0034430Y0031048D01*
X0034286Y0030983D01*
X0034140Y0030921D01*
X0033993Y0030863D01*
X0033844Y0030808D01*
X0033694Y0030757D01*
X0033543Y0030710D01*
X0033391Y0030667D01*
X0033238Y0030628D01*
X0033083Y0030592D01*
X0032928Y0030561D01*
X0032772Y0030533D01*
X0032616Y0030509D01*
X0032459Y0030489D01*
X0032301Y0030473D01*
X0032144Y0030461D01*
X0031985Y0030453D01*
X0031827Y0030449D01*
X0031669Y0030449D01*
X0031511Y0030453D01*
X0031352Y0030461D01*
X0031195Y0030473D01*
X0031037Y0030489D01*
X0030880Y0030509D01*
X0030724Y0030533D01*
X0030568Y0030561D01*
X0030413Y0030592D01*
X0030258Y0030628D01*
X0030105Y0030667D01*
X0029953Y0030710D01*
X0029802Y0030757D01*
X0029652Y0030808D01*
X0029503Y0030863D01*
X0029356Y0030921D01*
X0029210Y0030983D01*
X0029066Y0031048D01*
X0028924Y0031118D01*
X0028783Y0031190D01*
X0028644Y0031267D01*
X0028508Y0031346D01*
X0028373Y0031430D01*
X0028240Y0031516D01*
X0028110Y0031606D01*
X0027982Y0031699D01*
X0027856Y0031795D01*
X0027733Y0031895D01*
X0027612Y0031997D01*
X0027494Y0032102D01*
X0027379Y0032211D01*
X0027266Y0032322D01*
X0027156Y0032436D01*
X0027049Y0032553D01*
X0026945Y0032672D01*
X0026844Y0032794D01*
X0026747Y0032919D01*
X0026652Y0033046D01*
X0026561Y0033175D01*
X0026472Y0033306D01*
X0026388Y0033440D01*
X0026306Y0033576D01*
X0026228Y0033713D01*
X0026154Y0033853D01*
X0026083Y0033995D01*
X0026015Y0034138D01*
X0025951Y0034283D01*
X0025891Y0034429D01*
X0025835Y0034577D01*
X0025782Y0034726D01*
X0025733Y0034877D01*
X0025688Y0035029D01*
X0025647Y0035182D01*
X0025609Y0035335D01*
X0025576Y0035490D01*
X0025546Y0035646D01*
X0025520Y0035802D01*
X0025499Y0035959D01*
X0025481Y0036116D01*
X0025467Y0036274D01*
X0025457Y0036432D01*
X0025451Y0036590D01*
X0025449Y0036748D01*
X0190803Y0036748D02*
X0190805Y0036906D01*
X0190811Y0037064D01*
X0190821Y0037222D01*
X0190835Y0037380D01*
X0190853Y0037537D01*
X0190874Y0037694D01*
X0190900Y0037850D01*
X0190930Y0038006D01*
X0190963Y0038161D01*
X0191001Y0038314D01*
X0191042Y0038467D01*
X0191087Y0038619D01*
X0191136Y0038770D01*
X0191189Y0038919D01*
X0191245Y0039067D01*
X0191305Y0039213D01*
X0191369Y0039358D01*
X0191437Y0039501D01*
X0191508Y0039643D01*
X0191582Y0039783D01*
X0191660Y0039920D01*
X0191742Y0040056D01*
X0191826Y0040190D01*
X0191915Y0040321D01*
X0192006Y0040450D01*
X0192101Y0040577D01*
X0192198Y0040702D01*
X0192299Y0040824D01*
X0192403Y0040943D01*
X0192510Y0041060D01*
X0192620Y0041174D01*
X0192733Y0041285D01*
X0192848Y0041394D01*
X0192966Y0041499D01*
X0193087Y0041601D01*
X0193210Y0041701D01*
X0193336Y0041797D01*
X0193464Y0041890D01*
X0193594Y0041980D01*
X0193727Y0042066D01*
X0193862Y0042150D01*
X0193998Y0042229D01*
X0194137Y0042306D01*
X0194278Y0042378D01*
X0194420Y0042448D01*
X0194564Y0042513D01*
X0194710Y0042575D01*
X0194857Y0042633D01*
X0195006Y0042688D01*
X0195156Y0042739D01*
X0195307Y0042786D01*
X0195459Y0042829D01*
X0195612Y0042868D01*
X0195767Y0042904D01*
X0195922Y0042935D01*
X0196078Y0042963D01*
X0196234Y0042987D01*
X0196391Y0043007D01*
X0196549Y0043023D01*
X0196706Y0043035D01*
X0196865Y0043043D01*
X0197023Y0043047D01*
X0197181Y0043047D01*
X0197339Y0043043D01*
X0197498Y0043035D01*
X0197655Y0043023D01*
X0197813Y0043007D01*
X0197970Y0042987D01*
X0198126Y0042963D01*
X0198282Y0042935D01*
X0198437Y0042904D01*
X0198592Y0042868D01*
X0198745Y0042829D01*
X0198897Y0042786D01*
X0199048Y0042739D01*
X0199198Y0042688D01*
X0199347Y0042633D01*
X0199494Y0042575D01*
X0199640Y0042513D01*
X0199784Y0042448D01*
X0199926Y0042378D01*
X0200067Y0042306D01*
X0200206Y0042229D01*
X0200342Y0042150D01*
X0200477Y0042066D01*
X0200610Y0041980D01*
X0200740Y0041890D01*
X0200868Y0041797D01*
X0200994Y0041701D01*
X0201117Y0041601D01*
X0201238Y0041499D01*
X0201356Y0041394D01*
X0201471Y0041285D01*
X0201584Y0041174D01*
X0201694Y0041060D01*
X0201801Y0040943D01*
X0201905Y0040824D01*
X0202006Y0040702D01*
X0202103Y0040577D01*
X0202198Y0040450D01*
X0202289Y0040321D01*
X0202378Y0040190D01*
X0202462Y0040056D01*
X0202544Y0039920D01*
X0202622Y0039783D01*
X0202696Y0039643D01*
X0202767Y0039501D01*
X0202835Y0039358D01*
X0202899Y0039213D01*
X0202959Y0039067D01*
X0203015Y0038919D01*
X0203068Y0038770D01*
X0203117Y0038619D01*
X0203162Y0038467D01*
X0203203Y0038314D01*
X0203241Y0038161D01*
X0203274Y0038006D01*
X0203304Y0037850D01*
X0203330Y0037694D01*
X0203351Y0037537D01*
X0203369Y0037380D01*
X0203383Y0037222D01*
X0203393Y0037064D01*
X0203399Y0036906D01*
X0203401Y0036748D01*
X0203399Y0036590D01*
X0203393Y0036432D01*
X0203383Y0036274D01*
X0203369Y0036116D01*
X0203351Y0035959D01*
X0203330Y0035802D01*
X0203304Y0035646D01*
X0203274Y0035490D01*
X0203241Y0035335D01*
X0203203Y0035182D01*
X0203162Y0035029D01*
X0203117Y0034877D01*
X0203068Y0034726D01*
X0203015Y0034577D01*
X0202959Y0034429D01*
X0202899Y0034283D01*
X0202835Y0034138D01*
X0202767Y0033995D01*
X0202696Y0033853D01*
X0202622Y0033713D01*
X0202544Y0033576D01*
X0202462Y0033440D01*
X0202378Y0033306D01*
X0202289Y0033175D01*
X0202198Y0033046D01*
X0202103Y0032919D01*
X0202006Y0032794D01*
X0201905Y0032672D01*
X0201801Y0032553D01*
X0201694Y0032436D01*
X0201584Y0032322D01*
X0201471Y0032211D01*
X0201356Y0032102D01*
X0201238Y0031997D01*
X0201117Y0031895D01*
X0200994Y0031795D01*
X0200868Y0031699D01*
X0200740Y0031606D01*
X0200610Y0031516D01*
X0200477Y0031430D01*
X0200342Y0031346D01*
X0200206Y0031267D01*
X0200067Y0031190D01*
X0199926Y0031118D01*
X0199784Y0031048D01*
X0199640Y0030983D01*
X0199494Y0030921D01*
X0199347Y0030863D01*
X0199198Y0030808D01*
X0199048Y0030757D01*
X0198897Y0030710D01*
X0198745Y0030667D01*
X0198592Y0030628D01*
X0198437Y0030592D01*
X0198282Y0030561D01*
X0198126Y0030533D01*
X0197970Y0030509D01*
X0197813Y0030489D01*
X0197655Y0030473D01*
X0197498Y0030461D01*
X0197339Y0030453D01*
X0197181Y0030449D01*
X0197023Y0030449D01*
X0196865Y0030453D01*
X0196706Y0030461D01*
X0196549Y0030473D01*
X0196391Y0030489D01*
X0196234Y0030509D01*
X0196078Y0030533D01*
X0195922Y0030561D01*
X0195767Y0030592D01*
X0195612Y0030628D01*
X0195459Y0030667D01*
X0195307Y0030710D01*
X0195156Y0030757D01*
X0195006Y0030808D01*
X0194857Y0030863D01*
X0194710Y0030921D01*
X0194564Y0030983D01*
X0194420Y0031048D01*
X0194278Y0031118D01*
X0194137Y0031190D01*
X0193998Y0031267D01*
X0193862Y0031346D01*
X0193727Y0031430D01*
X0193594Y0031516D01*
X0193464Y0031606D01*
X0193336Y0031699D01*
X0193210Y0031795D01*
X0193087Y0031895D01*
X0192966Y0031997D01*
X0192848Y0032102D01*
X0192733Y0032211D01*
X0192620Y0032322D01*
X0192510Y0032436D01*
X0192403Y0032553D01*
X0192299Y0032672D01*
X0192198Y0032794D01*
X0192101Y0032919D01*
X0192006Y0033046D01*
X0191915Y0033175D01*
X0191826Y0033306D01*
X0191742Y0033440D01*
X0191660Y0033576D01*
X0191582Y0033713D01*
X0191508Y0033853D01*
X0191437Y0033995D01*
X0191369Y0034138D01*
X0191305Y0034283D01*
X0191245Y0034429D01*
X0191189Y0034577D01*
X0191136Y0034726D01*
X0191087Y0034877D01*
X0191042Y0035029D01*
X0191001Y0035182D01*
X0190963Y0035335D01*
X0190930Y0035490D01*
X0190900Y0035646D01*
X0190874Y0035802D01*
X0190853Y0035959D01*
X0190835Y0036116D01*
X0190821Y0036274D01*
X0190811Y0036432D01*
X0190805Y0036590D01*
X0190803Y0036748D01*
D21*
X0028843Y0059425D02*
X0022843Y0059425D01*
X0022843Y0069425D02*
X0028843Y0069425D01*
X0028843Y0079425D02*
X0022843Y0079425D01*
X0022843Y0089425D02*
X0028843Y0089425D01*
X0028843Y0099425D02*
X0022843Y0099425D01*
X0022843Y0109425D02*
X0028843Y0109425D01*
X0028843Y0129425D02*
X0022843Y0129425D01*
X0022843Y0139425D02*
X0028843Y0139425D01*
X0028843Y0149425D02*
X0022843Y0149425D01*
X0022843Y0159425D02*
X0028843Y0159425D01*
X0028843Y0169425D02*
X0022843Y0169425D01*
X0022843Y0179425D02*
X0028843Y0179425D01*
D22*
X0182969Y0139425D03*
X0192969Y0139425D03*
X0202969Y0139425D03*
X0202969Y0149425D03*
X0192969Y0149425D03*
X0192969Y0129425D03*
X0202969Y0129425D03*
X0202969Y0119425D03*
X0202969Y0109425D03*
X0202969Y0099425D03*
X0192969Y0099425D03*
X0192969Y0109425D03*
X0192969Y0119425D03*
X0182969Y0119425D03*
X0182969Y0109425D03*
X0182969Y0099425D03*
X0182969Y0089425D03*
X0192969Y0089425D03*
X0202969Y0089425D03*
X0182969Y0129425D03*
D23*
X0182969Y0149425D03*
D24*
X0122184Y0168063D02*
X0120020Y0168063D01*
X0120020Y0172000D02*
X0122184Y0172000D01*
X0122184Y0175937D02*
X0120020Y0175937D01*
X0109980Y0175937D02*
X0107816Y0175937D01*
X0107816Y0172000D02*
X0109980Y0172000D01*
X0109980Y0168063D02*
X0107816Y0168063D01*
D25*
X0115000Y0172000D03*
D26*
X0113800Y0060900D03*
D27*
X0025938Y0024994D02*
X0202912Y0024994D01*
X0201914Y0023996D02*
X0026937Y0023996D01*
X0027935Y0022997D02*
X0200915Y0022997D01*
X0200418Y0022500D02*
X0028432Y0022500D01*
X0017500Y0033432D01*
X0017500Y0205418D01*
X0028432Y0216350D01*
X0200418Y0216350D01*
X0211350Y0205418D01*
X0211350Y0033432D01*
X0200418Y0022500D01*
X0203911Y0025993D02*
X0024940Y0025993D01*
X0023941Y0026991D02*
X0204909Y0026991D01*
X0205908Y0027990D02*
X0022943Y0027990D01*
X0021944Y0028988D02*
X0030102Y0028988D01*
X0030197Y0028949D02*
X0033299Y0028949D01*
X0036166Y0030136D01*
X0038360Y0032330D01*
X0039547Y0035197D01*
X0039547Y0038299D01*
X0038360Y0041166D01*
X0036166Y0043360D01*
X0033299Y0044547D01*
X0030197Y0044547D01*
X0027330Y0043360D01*
X0025136Y0041166D01*
X0023949Y0038299D01*
X0023949Y0035197D01*
X0025136Y0032330D01*
X0027330Y0030136D01*
X0030197Y0028949D01*
X0027691Y0029987D02*
X0020946Y0029987D01*
X0019947Y0030985D02*
X0026481Y0030985D01*
X0025483Y0031984D02*
X0018949Y0031984D01*
X0017950Y0032982D02*
X0024866Y0032982D01*
X0024452Y0033981D02*
X0017500Y0033981D01*
X0017500Y0034979D02*
X0024039Y0034979D01*
X0023949Y0035978D02*
X0017500Y0035978D01*
X0017500Y0036976D02*
X0023949Y0036976D01*
X0023949Y0037975D02*
X0017500Y0037975D01*
X0017500Y0038973D02*
X0024228Y0038973D01*
X0024642Y0039972D02*
X0017500Y0039972D01*
X0017500Y0040970D02*
X0025055Y0040970D01*
X0025939Y0041969D02*
X0017500Y0041969D01*
X0017500Y0042967D02*
X0026937Y0042967D01*
X0028793Y0043966D02*
X0017500Y0043966D01*
X0017500Y0044964D02*
X0211350Y0044964D01*
X0211350Y0043966D02*
X0200058Y0043966D01*
X0198654Y0044547D02*
X0195551Y0044547D01*
X0192684Y0043360D01*
X0190491Y0041166D01*
X0189303Y0038299D01*
X0189303Y0035197D01*
X0190491Y0032330D01*
X0192684Y0030136D01*
X0195551Y0028949D01*
X0198654Y0028949D01*
X0201520Y0030136D01*
X0203714Y0032330D01*
X0204902Y0035197D01*
X0204902Y0038299D01*
X0203714Y0041166D01*
X0201520Y0043360D01*
X0198654Y0044547D01*
X0201913Y0042967D02*
X0211350Y0042967D01*
X0211350Y0041969D02*
X0202911Y0041969D01*
X0203795Y0040970D02*
X0211350Y0040970D01*
X0211350Y0039972D02*
X0204209Y0039972D01*
X0204622Y0038973D02*
X0211350Y0038973D01*
X0211350Y0037975D02*
X0204902Y0037975D01*
X0204902Y0036976D02*
X0211350Y0036976D01*
X0211350Y0035978D02*
X0204902Y0035978D01*
X0204811Y0034979D02*
X0211350Y0034979D01*
X0211350Y0033981D02*
X0204398Y0033981D01*
X0203984Y0032982D02*
X0210900Y0032982D01*
X0209902Y0031984D02*
X0203368Y0031984D01*
X0202369Y0030985D02*
X0208903Y0030985D01*
X0207905Y0029987D02*
X0201159Y0029987D01*
X0198749Y0028988D02*
X0206906Y0028988D01*
X0195456Y0028988D02*
X0033394Y0028988D01*
X0035805Y0029987D02*
X0193046Y0029987D01*
X0191836Y0030985D02*
X0037015Y0030985D01*
X0038013Y0031984D02*
X0190837Y0031984D01*
X0190220Y0032982D02*
X0038630Y0032982D01*
X0039044Y0033981D02*
X0189807Y0033981D01*
X0189393Y0034979D02*
X0039457Y0034979D01*
X0039547Y0035978D02*
X0189303Y0035978D01*
X0189303Y0036976D02*
X0039547Y0036976D01*
X0039547Y0037975D02*
X0189303Y0037975D01*
X0189582Y0038973D02*
X0039268Y0038973D01*
X0038855Y0039972D02*
X0189996Y0039972D01*
X0190409Y0040970D02*
X0038441Y0040970D01*
X0037557Y0041969D02*
X0191293Y0041969D01*
X0192292Y0042967D02*
X0036559Y0042967D01*
X0034703Y0043966D02*
X0194147Y0043966D01*
X0211350Y0045963D02*
X0017500Y0045963D01*
X0017500Y0046961D02*
X0211350Y0046961D01*
X0211350Y0047960D02*
X0017500Y0047960D01*
X0017500Y0048958D02*
X0211350Y0048958D01*
X0211350Y0049957D02*
X0017500Y0049957D01*
X0017500Y0050955D02*
X0211350Y0050955D01*
X0211350Y0051954D02*
X0017500Y0051954D01*
X0017500Y0052952D02*
X0211350Y0052952D01*
X0211350Y0053951D02*
X0017500Y0053951D01*
X0017500Y0054949D02*
X0211350Y0054949D01*
X0211350Y0055948D02*
X0115710Y0055948D01*
X0115834Y0055988D02*
X0116578Y0056367D01*
X0117253Y0056857D01*
X0117843Y0057447D01*
X0118333Y0058122D01*
X0118712Y0058866D01*
X0118969Y0059659D01*
X0119089Y0060416D01*
X0114284Y0060416D01*
X0114284Y0055611D01*
X0115041Y0055730D01*
X0115834Y0055988D01*
X0114284Y0055948D02*
X0113316Y0055948D01*
X0113316Y0055611D02*
X0113316Y0060416D01*
X0114284Y0060416D01*
X0114284Y0061384D01*
X0119089Y0061384D01*
X0118969Y0062141D01*
X0118712Y0062934D01*
X0118333Y0063678D01*
X0117843Y0064353D01*
X0117253Y0064943D01*
X0116578Y0065433D01*
X0115834Y0065812D01*
X0115041Y0066069D01*
X0114284Y0066189D01*
X0114284Y0061384D01*
X0113316Y0061384D01*
X0113316Y0060416D01*
X0108511Y0060416D01*
X0108630Y0059659D01*
X0108888Y0058866D01*
X0109267Y0058122D01*
X0109757Y0057447D01*
X0110347Y0056857D01*
X0111022Y0056367D01*
X0111766Y0055988D01*
X0112559Y0055730D01*
X0113316Y0055611D01*
X0113316Y0056946D02*
X0114284Y0056946D01*
X0114284Y0057945D02*
X0113316Y0057945D01*
X0113316Y0058943D02*
X0114284Y0058943D01*
X0114284Y0059942D02*
X0113316Y0059942D01*
X0113316Y0060940D02*
X0032653Y0060940D01*
X0032943Y0060241D02*
X0032318Y0061748D01*
X0031165Y0062901D01*
X0029658Y0063525D01*
X0022027Y0063525D01*
X0020520Y0062901D01*
X0019367Y0061748D01*
X0018743Y0060241D01*
X0018743Y0058610D01*
X0019367Y0057103D01*
X0020520Y0055949D01*
X0022027Y0055325D01*
X0029658Y0055325D01*
X0031165Y0055949D01*
X0032318Y0057103D01*
X0032943Y0058610D01*
X0032943Y0060241D01*
X0032943Y0059942D02*
X0108586Y0059942D01*
X0108863Y0058943D02*
X0032943Y0058943D01*
X0032667Y0057945D02*
X0109396Y0057945D01*
X0110258Y0056946D02*
X0032162Y0056946D01*
X0031161Y0055948D02*
X0111890Y0055948D01*
X0114284Y0060940D02*
X0211350Y0060940D01*
X0211350Y0059942D02*
X0119014Y0059942D01*
X0118737Y0058943D02*
X0211350Y0058943D01*
X0211350Y0057945D02*
X0118204Y0057945D01*
X0117342Y0056946D02*
X0211350Y0056946D01*
X0211350Y0061939D02*
X0119002Y0061939D01*
X0118710Y0062937D02*
X0211350Y0062937D01*
X0211350Y0063936D02*
X0118145Y0063936D01*
X0117261Y0064934D02*
X0211350Y0064934D01*
X0211350Y0065933D02*
X0115461Y0065933D01*
X0114284Y0065933D02*
X0113316Y0065933D01*
X0113316Y0066189D02*
X0112559Y0066069D01*
X0111766Y0065812D01*
X0111022Y0065433D01*
X0110347Y0064943D01*
X0109757Y0064353D01*
X0109267Y0063678D01*
X0108888Y0062934D01*
X0108630Y0062141D01*
X0108511Y0061384D01*
X0113316Y0061384D01*
X0113316Y0066189D01*
X0112139Y0065933D02*
X0031125Y0065933D01*
X0031165Y0065949D02*
X0032318Y0067103D01*
X0032943Y0068610D01*
X0032943Y0070241D01*
X0032318Y0071748D01*
X0031165Y0072901D01*
X0029658Y0073525D01*
X0022027Y0073525D01*
X0020520Y0072901D01*
X0019367Y0071748D01*
X0018743Y0070241D01*
X0018743Y0068610D01*
X0019367Y0067103D01*
X0020520Y0065949D01*
X0022027Y0065325D01*
X0029658Y0065325D01*
X0031165Y0065949D01*
X0032147Y0066932D02*
X0211350Y0066932D01*
X0211350Y0067930D02*
X0032661Y0067930D01*
X0032943Y0068929D02*
X0211350Y0068929D01*
X0211350Y0069927D02*
X0032943Y0069927D01*
X0032659Y0070926D02*
X0066763Y0070926D01*
X0066847Y0070780D02*
X0066649Y0071122D01*
X0066547Y0071503D01*
X0066547Y0073760D01*
X0070500Y0073760D01*
X0070500Y0074760D01*
X0066547Y0074760D01*
X0066547Y0077016D01*
X0066649Y0077398D01*
X0066847Y0077740D01*
X0067126Y0078019D01*
X0067461Y0078212D01*
X0066947Y0078725D01*
X0066947Y0079600D01*
X0066787Y0079600D01*
X0065900Y0078713D01*
X0065900Y0075713D01*
X0064787Y0074600D01*
X0063137Y0072950D01*
X0061872Y0072950D01*
X0061872Y0072623D01*
X0061227Y0071979D01*
X0056773Y0071979D01*
X0056128Y0072623D01*
X0056128Y0077078D01*
X0056773Y0077722D01*
X0061227Y0077722D01*
X0061872Y0077078D01*
X0061872Y0077059D01*
X0062100Y0077287D01*
X0062100Y0080287D01*
X0064100Y0082287D01*
X0065213Y0083400D01*
X0066947Y0083400D01*
X0066947Y0084755D01*
X0067592Y0085399D01*
X0069100Y0085399D01*
X0069100Y0102619D01*
X0068763Y0102619D01*
X0068119Y0103263D01*
X0068119Y0106900D01*
X0065265Y0106900D01*
X0065265Y0102729D01*
X0064621Y0102085D01*
X0059379Y0102085D01*
X0058735Y0102729D01*
X0058735Y0103554D01*
X0056265Y0103554D01*
X0056265Y0102729D01*
X0055621Y0102085D01*
X0054600Y0102085D01*
X0054600Y0091325D01*
X0057862Y0091325D01*
X0059787Y0089400D01*
X0060900Y0088287D01*
X0060900Y0084021D01*
X0061227Y0084021D01*
X0061872Y0083377D01*
X0061872Y0078922D01*
X0061227Y0078278D01*
X0056773Y0078278D01*
X0056128Y0078922D01*
X0056128Y0083377D01*
X0056773Y0084021D01*
X0057100Y0084021D01*
X0057100Y0086713D01*
X0056288Y0087525D01*
X0049579Y0087525D01*
X0049552Y0087461D01*
X0048539Y0086448D01*
X0047216Y0085900D01*
X0045784Y0085900D01*
X0044461Y0086448D01*
X0043448Y0087461D01*
X0043421Y0087525D01*
X0032493Y0087525D01*
X0032318Y0087103D01*
X0031165Y0085949D01*
X0029658Y0085325D01*
X0022027Y0085325D01*
X0020520Y0085949D01*
X0019367Y0087103D01*
X0018743Y0088610D01*
X0018743Y0090241D01*
X0019367Y0091748D01*
X0020520Y0092901D01*
X0022027Y0093525D01*
X0029658Y0093525D01*
X0031165Y0092901D01*
X0032318Y0091748D01*
X0032493Y0091325D01*
X0043359Y0091325D01*
X0043448Y0091539D01*
X0044461Y0092552D01*
X0045784Y0093100D01*
X0047216Y0093100D01*
X0048539Y0092552D01*
X0049552Y0091539D01*
X0049641Y0091325D01*
X0051400Y0091325D01*
X0051400Y0102085D01*
X0050379Y0102085D01*
X0049735Y0102729D01*
X0049735Y0107578D01*
X0050379Y0108222D01*
X0051515Y0108222D01*
X0051400Y0108337D01*
X0051400Y0108778D01*
X0050379Y0108778D01*
X0049735Y0109422D01*
X0049735Y0114271D01*
X0050379Y0114915D01*
X0051400Y0114915D01*
X0051400Y0167900D01*
X0045653Y0167900D01*
X0044953Y0167200D01*
X0043047Y0167200D01*
X0041700Y0168547D01*
X0041700Y0170453D01*
X0043047Y0171800D01*
X0044953Y0171800D01*
X0045653Y0171100D01*
X0051400Y0171100D01*
X0051400Y0182763D01*
X0054237Y0185600D01*
X0120563Y0185600D01*
X0121500Y0184663D01*
X0121772Y0184391D01*
X0121773Y0184391D01*
X0122241Y0183922D01*
X0122709Y0183454D01*
X0122709Y0183453D01*
X0122709Y0183453D01*
X0122709Y0182797D01*
X0122709Y0182129D01*
X0122708Y0182128D01*
X0122704Y0177923D01*
X0123008Y0177923D01*
X0124171Y0176760D01*
X0124171Y0175114D01*
X0123025Y0173969D01*
X0123093Y0173900D01*
X0123713Y0173900D01*
X0124600Y0174787D01*
X0124600Y0177431D01*
X0124033Y0177431D01*
X0123388Y0178076D01*
X0123388Y0182924D01*
X0124033Y0183568D01*
X0124600Y0183568D01*
X0124600Y0185787D01*
X0125713Y0186900D01*
X0127713Y0188900D01*
X0148287Y0188900D01*
X0149400Y0187787D01*
X0156900Y0180287D01*
X0156900Y0144381D01*
X0157237Y0144381D01*
X0157881Y0143737D01*
X0157881Y0139263D01*
X0157237Y0138619D01*
X0152763Y0138619D01*
X0152119Y0139263D01*
X0152119Y0143737D01*
X0152763Y0144381D01*
X0153100Y0144381D01*
X0153100Y0178713D01*
X0146713Y0185100D01*
X0129287Y0185100D01*
X0128400Y0184213D01*
X0128400Y0183568D01*
X0129275Y0183568D01*
X0129788Y0183055D01*
X0129981Y0183390D01*
X0130260Y0183669D01*
X0130602Y0183866D01*
X0130984Y0183968D01*
X0132862Y0183968D01*
X0132862Y0180984D01*
X0133831Y0180984D01*
X0137012Y0180984D01*
X0137012Y0182666D01*
X0136910Y0183047D01*
X0136712Y0183390D01*
X0136433Y0183669D01*
X0136091Y0183866D01*
X0135709Y0183968D01*
X0133831Y0183968D01*
X0133831Y0180984D01*
X0133831Y0180016D01*
X0137012Y0180016D01*
X0137012Y0178334D01*
X0136910Y0177953D01*
X0136712Y0177610D01*
X0136433Y0177331D01*
X0136091Y0177134D01*
X0135709Y0177031D01*
X0133831Y0177031D01*
X0133831Y0180016D01*
X0132862Y0180016D01*
X0132862Y0177031D01*
X0130984Y0177031D01*
X0130602Y0177134D01*
X0130260Y0177331D01*
X0129981Y0177610D01*
X0129788Y0177945D01*
X0129275Y0177431D01*
X0128400Y0177431D01*
X0128400Y0173213D01*
X0126400Y0171213D01*
X0125287Y0170100D01*
X0123093Y0170100D01*
X0123025Y0170031D01*
X0124171Y0168886D01*
X0124171Y0167240D01*
X0123008Y0166077D01*
X0119197Y0166077D01*
X0118950Y0166324D01*
X0118605Y0165979D01*
X0111395Y0165979D01*
X0111050Y0166324D01*
X0110803Y0166077D01*
X0106992Y0166077D01*
X0105829Y0167240D01*
X0105829Y0168886D01*
X0106787Y0169843D01*
X0106685Y0169886D01*
X0106294Y0170147D01*
X0105962Y0170479D01*
X0105701Y0170870D01*
X0105521Y0171304D01*
X0105429Y0171765D01*
X0105429Y0172000D01*
X0108898Y0172000D01*
X0108898Y0172000D01*
X0105429Y0172000D01*
X0105429Y0172235D01*
X0105521Y0172696D01*
X0105701Y0173130D01*
X0105962Y0173521D01*
X0106294Y0173853D01*
X0106685Y0174114D01*
X0106787Y0174157D01*
X0106544Y0174400D01*
X0104837Y0174400D01*
X0101337Y0177900D01*
X0058653Y0177900D01*
X0058600Y0177847D01*
X0058600Y0123653D01*
X0059300Y0122953D01*
X0059300Y0121047D01*
X0057953Y0119700D01*
X0056047Y0119700D01*
X0054700Y0121047D01*
X0054700Y0122953D01*
X0055400Y0123653D01*
X0055400Y0177847D01*
X0054700Y0178547D01*
X0054700Y0180453D01*
X0056047Y0181800D01*
X0057953Y0181800D01*
X0058653Y0181100D01*
X0102663Y0181100D01*
X0103600Y0180163D01*
X0106163Y0177600D01*
X0106670Y0177600D01*
X0106992Y0177923D01*
X0110803Y0177923D01*
X0111050Y0177676D01*
X0111395Y0178021D01*
X0118605Y0178021D01*
X0118950Y0177676D01*
X0119197Y0177923D01*
X0119504Y0177923D01*
X0119508Y0182129D01*
X0119237Y0182400D01*
X0055563Y0182400D01*
X0054600Y0181437D01*
X0054600Y0114915D01*
X0055621Y0114915D01*
X0056265Y0114271D01*
X0056265Y0110100D01*
X0058735Y0110100D01*
X0058735Y0114271D01*
X0059379Y0114915D01*
X0060400Y0114915D01*
X0060400Y0120347D01*
X0059700Y0121047D01*
X0059700Y0122953D01*
X0061047Y0124300D01*
X0062953Y0124300D01*
X0064300Y0122953D01*
X0064300Y0121047D01*
X0063600Y0120347D01*
X0063600Y0114915D01*
X0064621Y0114915D01*
X0065265Y0114271D01*
X0065265Y0113446D01*
X0084684Y0113446D01*
X0086837Y0115600D01*
X0087847Y0115600D01*
X0088396Y0116149D01*
X0088016Y0116047D01*
X0085760Y0116047D01*
X0085760Y0120000D01*
X0084760Y0120000D01*
X0084760Y0116047D01*
X0082503Y0116047D01*
X0082122Y0116149D01*
X0081780Y0116347D01*
X0081500Y0116626D01*
X0081303Y0116968D01*
X0081201Y0117350D01*
X0081201Y0120000D01*
X0084760Y0120000D01*
X0084760Y0121000D01*
X0084760Y0124953D01*
X0082503Y0124953D01*
X0082122Y0124851D01*
X0081780Y0124653D01*
X0081500Y0124374D01*
X0081303Y0124032D01*
X0081201Y0123650D01*
X0081201Y0121000D01*
X0084760Y0121000D01*
X0085760Y0121000D01*
X0085760Y0124953D01*
X0088016Y0124953D01*
X0088398Y0124851D01*
X0088740Y0124653D01*
X0089019Y0124374D01*
X0089212Y0124039D01*
X0089725Y0124553D01*
X0091100Y0124553D01*
X0091100Y0125431D01*
X0090225Y0125431D01*
X0089712Y0125945D01*
X0089519Y0125610D01*
X0089240Y0125331D01*
X0088898Y0125134D01*
X0088516Y0125031D01*
X0086638Y0125031D01*
X0086638Y0128016D01*
X0085669Y0128016D01*
X0082488Y0128016D01*
X0082488Y0126334D01*
X0082590Y0125953D01*
X0082788Y0125610D01*
X0083067Y0125331D01*
X0083409Y0125134D01*
X0083791Y0125031D01*
X0085669Y0125031D01*
X0085669Y0128016D01*
X0085669Y0128984D01*
X0082488Y0128984D01*
X0082488Y0130666D01*
X0082590Y0131047D01*
X0082788Y0131390D01*
X0083067Y0131669D01*
X0083409Y0131866D01*
X0083791Y0131968D01*
X0085669Y0131968D01*
X0085669Y0128984D01*
X0086638Y0128984D01*
X0086638Y0131968D01*
X0088516Y0131968D01*
X0088898Y0131866D01*
X0089240Y0131669D01*
X0089519Y0131390D01*
X0089712Y0131055D01*
X0090225Y0131568D01*
X0090946Y0131568D01*
X0090946Y0133235D01*
X0090422Y0133235D01*
X0089778Y0133879D01*
X0089778Y0139121D01*
X0090422Y0139765D01*
X0095271Y0139765D01*
X0095915Y0139121D01*
X0095915Y0133879D01*
X0095271Y0133235D01*
X0094746Y0133235D01*
X0094746Y0131568D01*
X0095467Y0131568D01*
X0096112Y0130924D01*
X0096112Y0130400D01*
X0100713Y0130400D01*
X0104100Y0133787D01*
X0105213Y0134900D01*
X0108837Y0134900D01*
X0107337Y0136400D01*
X0100837Y0136400D01*
X0099900Y0137337D01*
X0093215Y0144022D01*
X0093215Y0146479D01*
X0082548Y0146479D01*
X0081904Y0147123D01*
X0081904Y0157877D01*
X0082548Y0158521D01*
X0093215Y0158521D01*
X0093215Y0164931D01*
X0092225Y0164931D01*
X0091712Y0165445D01*
X0091519Y0165110D01*
X0091240Y0164831D01*
X0090898Y0164634D01*
X0090516Y0164531D01*
X0088638Y0164531D01*
X0088638Y0167516D01*
X0087669Y0167516D01*
X0084488Y0167516D01*
X0084488Y0165834D01*
X0084590Y0165453D01*
X0084788Y0165110D01*
X0085067Y0164831D01*
X0085409Y0164634D01*
X0085791Y0164531D01*
X0087669Y0164531D01*
X0087669Y0167516D01*
X0087669Y0168484D01*
X0084488Y0168484D01*
X0084488Y0170166D01*
X0084590Y0170547D01*
X0084788Y0170890D01*
X0085067Y0171169D01*
X0085409Y0171366D01*
X0085791Y0171468D01*
X0087669Y0171468D01*
X0087669Y0168484D01*
X0088638Y0168484D01*
X0088638Y0171468D01*
X0090516Y0171468D01*
X0090898Y0171366D01*
X0091240Y0171169D01*
X0091519Y0170890D01*
X0091712Y0170555D01*
X0092225Y0171068D01*
X0097467Y0171068D01*
X0098112Y0170424D01*
X0098112Y0165576D01*
X0097467Y0164931D01*
X0096415Y0164931D01*
X0096415Y0158521D01*
X0107082Y0158521D01*
X0107726Y0157877D01*
X0107726Y0147123D01*
X0107082Y0146479D01*
X0096415Y0146479D01*
X0096415Y0145348D01*
X0102163Y0139600D01*
X0108663Y0139600D01*
X0114163Y0134100D01*
X0114500Y0133763D01*
X0114837Y0134100D01*
X0120337Y0139600D01*
X0127337Y0139600D01*
X0132585Y0144848D01*
X0132585Y0146479D01*
X0121918Y0146479D01*
X0121274Y0147123D01*
X0121274Y0157877D01*
X0121918Y0158521D01*
X0132585Y0158521D01*
X0132585Y0164931D01*
X0131533Y0164931D01*
X0130888Y0165576D01*
X0130888Y0170424D01*
X0131533Y0171068D01*
X0136775Y0171068D01*
X0137288Y0170555D01*
X0137481Y0170890D01*
X0137760Y0171169D01*
X0138102Y0171366D01*
X0138484Y0171468D01*
X0140362Y0171468D01*
X0140362Y0168484D01*
X0141331Y0168484D01*
X0144512Y0168484D01*
X0144512Y0170166D01*
X0144410Y0170547D01*
X0144212Y0170890D01*
X0143933Y0171169D01*
X0143591Y0171366D01*
X0143209Y0171468D01*
X0141331Y0171468D01*
X0141331Y0168484D01*
X0141331Y0167516D01*
X0144512Y0167516D01*
X0144512Y0165834D01*
X0144410Y0165453D01*
X0144212Y0165110D01*
X0143933Y0164831D01*
X0143591Y0164634D01*
X0143209Y0164531D01*
X0141331Y0164531D01*
X0141331Y0167516D01*
X0140362Y0167516D01*
X0140362Y0164531D01*
X0138484Y0164531D01*
X0138102Y0164634D01*
X0137760Y0164831D01*
X0137481Y0165110D01*
X0137288Y0165445D01*
X0136775Y0164931D01*
X0135785Y0164931D01*
X0135785Y0158521D01*
X0146452Y0158521D01*
X0147096Y0157877D01*
X0147096Y0147123D01*
X0146452Y0146479D01*
X0135785Y0146479D01*
X0135785Y0143522D01*
X0129600Y0137337D01*
X0128663Y0136400D01*
X0121663Y0136400D01*
X0117100Y0131837D01*
X0117100Y0131289D01*
X0120507Y0131289D01*
X0121151Y0130645D01*
X0121151Y0126151D01*
X0125645Y0126151D01*
X0125767Y0126029D01*
X0125900Y0126163D01*
X0125900Y0133163D01*
X0129900Y0137163D01*
X0130837Y0138100D01*
X0134085Y0138100D01*
X0134085Y0139121D01*
X0134729Y0139765D01*
X0139578Y0139765D01*
X0140222Y0139121D01*
X0140222Y0133879D01*
X0139578Y0133235D01*
X0134729Y0133235D01*
X0134085Y0133879D01*
X0134085Y0134900D01*
X0132163Y0134900D01*
X0129100Y0131837D01*
X0129100Y0127863D01*
X0130400Y0129163D01*
X0131337Y0130100D01*
X0133888Y0130100D01*
X0133888Y0130924D01*
X0134533Y0131568D01*
X0139775Y0131568D01*
X0140288Y0131055D01*
X0140481Y0131390D01*
X0140760Y0131669D01*
X0141102Y0131866D01*
X0141484Y0131968D01*
X0143362Y0131968D01*
X0143362Y0128984D01*
X0144331Y0128984D01*
X0147512Y0128984D01*
X0147512Y0130666D01*
X0147410Y0131047D01*
X0147212Y0131390D01*
X0146933Y0131669D01*
X0146591Y0131866D01*
X0146209Y0131968D01*
X0144331Y0131968D01*
X0144331Y0128984D01*
X0144331Y0128016D01*
X0147512Y0128016D01*
X0147512Y0126400D01*
X0153100Y0126400D01*
X0153100Y0129119D01*
X0152763Y0129119D01*
X0152119Y0129763D01*
X0152119Y0134237D01*
X0152763Y0134881D01*
X0157237Y0134881D01*
X0157881Y0134237D01*
X0157881Y0129763D01*
X0157237Y0129119D01*
X0156900Y0129119D01*
X0156900Y0111381D01*
X0157237Y0111381D01*
X0157881Y0110737D01*
X0157881Y0106263D01*
X0157718Y0106100D01*
X0162766Y0106100D01*
X0162948Y0106539D01*
X0163961Y0107552D01*
X0165284Y0108100D01*
X0166716Y0108100D01*
X0168039Y0107552D01*
X0169052Y0106539D01*
X0169234Y0106100D01*
X0170881Y0106100D01*
X0172400Y0107619D01*
X0172400Y0117163D01*
X0175325Y0120088D01*
X0176262Y0121025D01*
X0178869Y0121025D01*
X0178869Y0121123D01*
X0181270Y0123525D01*
X0184667Y0123525D01*
X0187068Y0121123D01*
X0187068Y0121025D01*
X0188869Y0121025D01*
X0188869Y0121123D01*
X0191270Y0123525D01*
X0194667Y0123525D01*
X0197068Y0121123D01*
X0197068Y0121025D01*
X0198869Y0121025D01*
X0198869Y0121123D01*
X0201270Y0123525D01*
X0204667Y0123525D01*
X0207068Y0121123D01*
X0207068Y0117727D01*
X0204667Y0115325D01*
X0201270Y0115325D01*
X0198869Y0117727D01*
X0198869Y0117825D01*
X0197068Y0117825D01*
X0197068Y0117727D01*
X0194667Y0115325D01*
X0191270Y0115325D01*
X0188869Y0117727D01*
X0188869Y0117825D01*
X0187068Y0117825D01*
X0187068Y0117727D01*
X0184667Y0115325D01*
X0181270Y0115325D01*
X0178869Y0117727D01*
X0178869Y0117825D01*
X0177588Y0117825D01*
X0175600Y0115837D01*
X0175600Y0106294D01*
X0174663Y0105357D01*
X0173143Y0103837D01*
X0172206Y0102900D01*
X0169234Y0102900D01*
X0169052Y0102461D01*
X0168039Y0101448D01*
X0166716Y0100900D01*
X0165284Y0100900D01*
X0163961Y0101448D01*
X0162948Y0102461D01*
X0162766Y0102900D01*
X0157718Y0102900D01*
X0157881Y0102737D01*
X0157881Y0098263D01*
X0157718Y0098100D01*
X0162766Y0098100D01*
X0162948Y0098539D01*
X0163961Y0099552D01*
X0165284Y0100100D01*
X0166716Y0100100D01*
X0168039Y0099552D01*
X0169052Y0098539D01*
X0169234Y0098100D01*
X0171337Y0098100D01*
X0173400Y0100163D01*
X0174337Y0101100D01*
X0178869Y0101100D01*
X0178869Y0101123D01*
X0181270Y0103525D01*
X0184667Y0103525D01*
X0187068Y0101123D01*
X0187068Y0101025D01*
X0188869Y0101025D01*
X0188869Y0101123D01*
X0191270Y0103525D01*
X0194667Y0103525D01*
X0197068Y0101123D01*
X0197068Y0101025D01*
X0198869Y0101025D01*
X0198869Y0101123D01*
X0201270Y0103525D01*
X0204667Y0103525D01*
X0207068Y0101123D01*
X0207068Y0097727D01*
X0204667Y0095325D01*
X0201270Y0095325D01*
X0198869Y0097727D01*
X0198869Y0097825D01*
X0197068Y0097825D01*
X0197068Y0097727D01*
X0194667Y0095325D01*
X0191270Y0095325D01*
X0188869Y0097727D01*
X0188869Y0097825D01*
X0187068Y0097825D01*
X0187068Y0097727D01*
X0184667Y0095325D01*
X0181270Y0095325D01*
X0178869Y0097727D01*
X0178869Y0097900D01*
X0175663Y0097900D01*
X0173600Y0095837D01*
X0172663Y0094900D01*
X0169234Y0094900D01*
X0169052Y0094461D01*
X0168039Y0093448D01*
X0166716Y0092900D01*
X0165284Y0092900D01*
X0163961Y0093448D01*
X0162948Y0094461D01*
X0162766Y0094900D01*
X0146915Y0094900D01*
X0146915Y0093879D01*
X0146271Y0093235D01*
X0141422Y0093235D01*
X0140778Y0093879D01*
X0140778Y0098600D01*
X0140222Y0098600D01*
X0140222Y0093879D01*
X0139578Y0093235D01*
X0134729Y0093235D01*
X0134085Y0093879D01*
X0134085Y0095400D01*
X0122968Y0095400D01*
X0122968Y0094138D01*
X0119984Y0094138D01*
X0119984Y0093169D01*
X0119984Y0089988D01*
X0121666Y0089988D01*
X0122047Y0090090D01*
X0122390Y0090288D01*
X0122669Y0090567D01*
X0122866Y0090909D01*
X0122968Y0091291D01*
X0122968Y0093169D01*
X0119984Y0093169D01*
X0119016Y0093169D01*
X0119016Y0089988D01*
X0117334Y0089988D01*
X0116953Y0090090D01*
X0116610Y0090288D01*
X0116331Y0090567D01*
X0116134Y0090909D01*
X0116031Y0091291D01*
X0116031Y0093169D01*
X0119016Y0093169D01*
X0119016Y0094138D01*
X0116031Y0094138D01*
X0116031Y0095400D01*
X0114837Y0095400D01*
X0113900Y0096337D01*
X0112900Y0097337D01*
X0112900Y0103213D01*
X0112287Y0102600D01*
X0092713Y0102600D01*
X0091600Y0103713D01*
X0091100Y0104213D01*
X0091100Y0106847D01*
X0090453Y0106200D01*
X0088547Y0106200D01*
X0087847Y0106900D01*
X0073881Y0106900D01*
X0073881Y0103263D01*
X0073237Y0102619D01*
X0072900Y0102619D01*
X0072900Y0085399D01*
X0074408Y0085399D01*
X0075053Y0084755D01*
X0075053Y0083900D01*
X0147213Y0083900D01*
X0152598Y0089285D01*
X0152119Y0089763D01*
X0152119Y0094237D01*
X0152763Y0094881D01*
X0157237Y0094881D01*
X0157881Y0094237D01*
X0157881Y0089763D01*
X0157237Y0089119D01*
X0156900Y0089119D01*
X0156900Y0088213D01*
X0155787Y0087100D01*
X0155787Y0087100D01*
X0149900Y0081213D01*
X0149900Y0081213D01*
X0148787Y0080100D01*
X0075053Y0080100D01*
X0075053Y0078725D01*
X0074539Y0078212D01*
X0074874Y0078019D01*
X0075153Y0077740D01*
X0075351Y0077398D01*
X0075453Y0077016D01*
X0075453Y0074760D01*
X0071500Y0074760D01*
X0071500Y0073760D01*
X0075453Y0073760D01*
X0075453Y0071503D01*
X0075351Y0071122D01*
X0075153Y0070780D01*
X0074874Y0070500D01*
X0074532Y0070303D01*
X0074150Y0070201D01*
X0071500Y0070201D01*
X0071500Y0073760D01*
X0070500Y0073760D01*
X0070500Y0070201D01*
X0067850Y0070201D01*
X0067468Y0070303D01*
X0067126Y0070500D01*
X0066847Y0070780D01*
X0066547Y0071924D02*
X0032142Y0071924D01*
X0031113Y0072923D02*
X0056128Y0072923D01*
X0056128Y0073921D02*
X0017500Y0073921D01*
X0017500Y0072923D02*
X0020572Y0072923D01*
X0019543Y0071924D02*
X0017500Y0071924D01*
X0017500Y0070926D02*
X0019026Y0070926D01*
X0018743Y0069927D02*
X0017500Y0069927D01*
X0017500Y0068929D02*
X0018743Y0068929D01*
X0019024Y0067930D02*
X0017500Y0067930D01*
X0017500Y0066932D02*
X0019538Y0066932D01*
X0020560Y0065933D02*
X0017500Y0065933D01*
X0017500Y0064934D02*
X0110339Y0064934D01*
X0109455Y0063936D02*
X0017500Y0063936D01*
X0017500Y0062937D02*
X0020608Y0062937D01*
X0019558Y0061939D02*
X0017500Y0061939D01*
X0017500Y0060940D02*
X0019032Y0060940D01*
X0018743Y0059942D02*
X0017500Y0059942D01*
X0017500Y0058943D02*
X0018743Y0058943D01*
X0019018Y0057945D02*
X0017500Y0057945D01*
X0017500Y0056946D02*
X0019523Y0056946D01*
X0020524Y0055948D02*
X0017500Y0055948D01*
X0031077Y0062937D02*
X0108890Y0062937D01*
X0108598Y0061939D02*
X0032127Y0061939D01*
X0029896Y0075036D02*
X0029197Y0074925D01*
X0026342Y0074925D01*
X0026342Y0078925D01*
X0025343Y0078925D01*
X0025343Y0074925D01*
X0022488Y0074925D01*
X0021789Y0075036D01*
X0021115Y0075255D01*
X0020484Y0075576D01*
X0019911Y0075993D01*
X0019410Y0076494D01*
X0018994Y0077067D01*
X0018672Y0077698D01*
X0018453Y0078371D01*
X0018366Y0078925D01*
X0025342Y0078925D01*
X0025342Y0079925D01*
X0018366Y0079925D01*
X0018453Y0080479D01*
X0018672Y0081153D01*
X0018994Y0081784D01*
X0019410Y0082357D01*
X0019911Y0082858D01*
X0020484Y0083274D01*
X0021115Y0083595D01*
X0021789Y0083814D01*
X0022488Y0083925D01*
X0025343Y0083925D01*
X0025343Y0079925D01*
X0026342Y0079925D01*
X0026342Y0083925D01*
X0029197Y0083925D01*
X0029896Y0083814D01*
X0030570Y0083595D01*
X0031201Y0083274D01*
X0031774Y0082858D01*
X0032275Y0082357D01*
X0032691Y0081784D01*
X0033013Y0081153D01*
X0033232Y0080479D01*
X0033319Y0079925D01*
X0026343Y0079925D01*
X0026343Y0078925D01*
X0033319Y0078925D01*
X0033232Y0078371D01*
X0033013Y0077698D01*
X0032691Y0077067D01*
X0032275Y0076494D01*
X0031774Y0075993D01*
X0031201Y0075576D01*
X0030570Y0075255D01*
X0029896Y0075036D01*
X0031671Y0075918D02*
X0056128Y0075918D01*
X0056128Y0074920D02*
X0017500Y0074920D01*
X0017500Y0075918D02*
X0020014Y0075918D01*
X0019103Y0076917D02*
X0017500Y0076917D01*
X0017500Y0077915D02*
X0018602Y0077915D01*
X0018367Y0078914D02*
X0017500Y0078914D01*
X0017500Y0079912D02*
X0025342Y0079912D01*
X0025343Y0078914D02*
X0026342Y0078914D01*
X0026343Y0079912D02*
X0056128Y0079912D01*
X0056137Y0078914D02*
X0033318Y0078914D01*
X0033083Y0077915D02*
X0062100Y0077915D01*
X0062100Y0078914D02*
X0061863Y0078914D01*
X0061872Y0079912D02*
X0062100Y0079912D01*
X0061872Y0080911D02*
X0062724Y0080911D01*
X0061872Y0081909D02*
X0063722Y0081909D01*
X0064721Y0082908D02*
X0061872Y0082908D01*
X0061342Y0083906D02*
X0066947Y0083906D01*
X0067097Y0084905D02*
X0060900Y0084905D01*
X0060900Y0085903D02*
X0069100Y0085903D01*
X0069100Y0086902D02*
X0060900Y0086902D01*
X0060900Y0087900D02*
X0069100Y0087900D01*
X0069100Y0088899D02*
X0060288Y0088899D01*
X0059290Y0089897D02*
X0069100Y0089897D01*
X0069100Y0090896D02*
X0058291Y0090896D01*
X0054600Y0091894D02*
X0069100Y0091894D01*
X0069100Y0092893D02*
X0054600Y0092893D01*
X0054600Y0093891D02*
X0069100Y0093891D01*
X0069100Y0094890D02*
X0054600Y0094890D01*
X0054600Y0095888D02*
X0069100Y0095888D01*
X0069100Y0096887D02*
X0054600Y0096887D01*
X0054600Y0097885D02*
X0069100Y0097885D01*
X0069100Y0098884D02*
X0054600Y0098884D01*
X0054600Y0099882D02*
X0069100Y0099882D01*
X0069100Y0100881D02*
X0054600Y0100881D01*
X0054600Y0101879D02*
X0069100Y0101879D01*
X0068504Y0102878D02*
X0065265Y0102878D01*
X0065265Y0103876D02*
X0068119Y0103876D01*
X0068119Y0104875D02*
X0065265Y0104875D01*
X0065265Y0105873D02*
X0068119Y0105873D01*
X0068119Y0106872D02*
X0065265Y0106872D01*
X0062000Y0105154D02*
X0053000Y0105154D01*
X0053000Y0089425D01*
X0046575Y0089425D01*
X0046500Y0089500D01*
X0048993Y0086902D02*
X0056911Y0086902D01*
X0057100Y0085903D02*
X0047224Y0085903D01*
X0045776Y0085903D02*
X0031054Y0085903D01*
X0032117Y0086902D02*
X0044007Y0086902D01*
X0043803Y0091894D02*
X0032172Y0091894D01*
X0031173Y0092893D02*
X0045284Y0092893D01*
X0047716Y0092893D02*
X0051400Y0092893D01*
X0051400Y0093891D02*
X0017500Y0093891D01*
X0017500Y0092893D02*
X0020512Y0092893D01*
X0019513Y0091894D02*
X0017500Y0091894D01*
X0017500Y0090896D02*
X0019014Y0090896D01*
X0018743Y0089897D02*
X0017500Y0089897D01*
X0017500Y0088899D02*
X0018743Y0088899D01*
X0019036Y0087900D02*
X0017500Y0087900D01*
X0017500Y0086902D02*
X0019568Y0086902D01*
X0020631Y0085903D02*
X0017500Y0085903D01*
X0017500Y0084905D02*
X0057100Y0084905D01*
X0056658Y0083906D02*
X0029316Y0083906D01*
X0031705Y0082908D02*
X0056128Y0082908D01*
X0056128Y0081909D02*
X0032600Y0081909D01*
X0033091Y0080911D02*
X0056128Y0080911D01*
X0056128Y0076917D02*
X0032582Y0076917D01*
X0026342Y0076917D02*
X0025343Y0076917D01*
X0025343Y0077915D02*
X0026342Y0077915D01*
X0026342Y0075918D02*
X0025343Y0075918D01*
X0025343Y0080911D02*
X0026342Y0080911D01*
X0026342Y0081909D02*
X0025343Y0081909D01*
X0025343Y0082908D02*
X0026342Y0082908D01*
X0026342Y0083906D02*
X0025343Y0083906D01*
X0022369Y0083906D02*
X0017500Y0083906D01*
X0017500Y0082908D02*
X0019980Y0082908D01*
X0019085Y0081909D02*
X0017500Y0081909D01*
X0017500Y0080911D02*
X0018594Y0080911D01*
X0017500Y0094890D02*
X0051400Y0094890D01*
X0051400Y0095888D02*
X0031018Y0095888D01*
X0031165Y0095949D02*
X0032318Y0097103D01*
X0032618Y0097825D01*
X0036588Y0097825D01*
X0037525Y0098762D01*
X0041600Y0102837D01*
X0041600Y0184837D01*
X0047663Y0190900D01*
X0165188Y0190900D01*
X0171325Y0184762D01*
X0171325Y0140088D01*
X0169337Y0138100D01*
X0168734Y0138100D01*
X0168552Y0138539D01*
X0167539Y0139552D01*
X0166216Y0140100D01*
X0164784Y0140100D01*
X0163461Y0139552D01*
X0162448Y0138539D01*
X0162266Y0138100D01*
X0146915Y0138100D01*
X0146915Y0139121D01*
X0146271Y0139765D01*
X0141422Y0139765D01*
X0140778Y0139121D01*
X0140778Y0133879D01*
X0141422Y0133235D01*
X0146271Y0133235D01*
X0146915Y0133879D01*
X0146915Y0134900D01*
X0162266Y0134900D01*
X0162448Y0134461D01*
X0163461Y0133448D01*
X0164784Y0132900D01*
X0166216Y0132900D01*
X0167539Y0133448D01*
X0168552Y0134461D01*
X0168734Y0134900D01*
X0170663Y0134900D01*
X0171600Y0135837D01*
X0171600Y0135837D01*
X0173588Y0137825D01*
X0178869Y0137825D01*
X0178869Y0137727D01*
X0181270Y0135325D01*
X0184667Y0135325D01*
X0187068Y0137727D01*
X0187068Y0137825D01*
X0188869Y0137825D01*
X0188869Y0137727D01*
X0191270Y0135325D01*
X0194667Y0135325D01*
X0197068Y0137727D01*
X0197068Y0137825D01*
X0198869Y0137825D01*
X0198869Y0137727D01*
X0201270Y0135325D01*
X0204667Y0135325D01*
X0207068Y0137727D01*
X0207068Y0141123D01*
X0204667Y0143525D01*
X0201270Y0143525D01*
X0198869Y0141123D01*
X0198869Y0141025D01*
X0197068Y0141025D01*
X0197068Y0141123D01*
X0194667Y0143525D01*
X0191270Y0143525D01*
X0188869Y0141123D01*
X0188869Y0141025D01*
X0187068Y0141025D01*
X0187068Y0141123D01*
X0184667Y0143525D01*
X0181270Y0143525D01*
X0178869Y0141123D01*
X0178869Y0141025D01*
X0174525Y0141025D01*
X0174525Y0186088D01*
X0166513Y0194100D01*
X0046337Y0194100D01*
X0039337Y0187100D01*
X0038400Y0186163D01*
X0038400Y0104163D01*
X0035262Y0101025D01*
X0032618Y0101025D01*
X0032318Y0101748D01*
X0031165Y0102901D01*
X0029658Y0103525D01*
X0022027Y0103525D01*
X0020520Y0102901D01*
X0019367Y0101748D01*
X0018743Y0100241D01*
X0018743Y0098610D01*
X0019367Y0097103D01*
X0020520Y0095949D01*
X0022027Y0095325D01*
X0029658Y0095325D01*
X0031165Y0095949D01*
X0032102Y0096887D02*
X0051400Y0096887D01*
X0051400Y0097885D02*
X0036648Y0097885D01*
X0037647Y0098884D02*
X0051400Y0098884D01*
X0051400Y0099882D02*
X0038645Y0099882D01*
X0039644Y0100881D02*
X0051400Y0100881D01*
X0051400Y0101879D02*
X0040642Y0101879D01*
X0041600Y0102878D02*
X0049735Y0102878D01*
X0049735Y0103876D02*
X0041600Y0103876D01*
X0041600Y0104875D02*
X0049735Y0104875D01*
X0049735Y0105873D02*
X0041600Y0105873D01*
X0041600Y0106872D02*
X0049735Y0106872D01*
X0050027Y0107870D02*
X0041600Y0107870D01*
X0041600Y0108869D02*
X0050288Y0108869D01*
X0049735Y0109868D02*
X0041600Y0109868D01*
X0041600Y0110866D02*
X0049735Y0110866D01*
X0049735Y0111865D02*
X0041600Y0111865D01*
X0041600Y0112863D02*
X0049735Y0112863D01*
X0049735Y0113862D02*
X0041600Y0113862D01*
X0041600Y0114860D02*
X0050324Y0114860D01*
X0051400Y0115859D02*
X0041600Y0115859D01*
X0041600Y0116857D02*
X0051400Y0116857D01*
X0051400Y0117856D02*
X0041600Y0117856D01*
X0041600Y0118854D02*
X0051400Y0118854D01*
X0051400Y0119853D02*
X0041600Y0119853D01*
X0041600Y0120851D02*
X0051400Y0120851D01*
X0051400Y0121850D02*
X0041600Y0121850D01*
X0041600Y0122848D02*
X0051400Y0122848D01*
X0051400Y0123847D02*
X0041600Y0123847D01*
X0041600Y0124845D02*
X0051400Y0124845D01*
X0051400Y0125844D02*
X0041600Y0125844D01*
X0041600Y0126842D02*
X0051400Y0126842D01*
X0051400Y0127841D02*
X0041600Y0127841D01*
X0041600Y0128839D02*
X0051400Y0128839D01*
X0051400Y0129838D02*
X0041600Y0129838D01*
X0041600Y0130836D02*
X0051400Y0130836D01*
X0051400Y0131835D02*
X0041600Y0131835D01*
X0041600Y0132833D02*
X0051400Y0132833D01*
X0051400Y0133832D02*
X0041600Y0133832D01*
X0041600Y0134830D02*
X0051400Y0134830D01*
X0051400Y0135829D02*
X0041600Y0135829D01*
X0041600Y0136827D02*
X0051400Y0136827D01*
X0051400Y0137826D02*
X0041600Y0137826D01*
X0041600Y0138824D02*
X0051400Y0138824D01*
X0051400Y0139823D02*
X0041600Y0139823D01*
X0041600Y0140821D02*
X0051400Y0140821D01*
X0051400Y0141820D02*
X0041600Y0141820D01*
X0041600Y0142818D02*
X0051400Y0142818D01*
X0051400Y0143817D02*
X0041600Y0143817D01*
X0041600Y0144815D02*
X0051400Y0144815D01*
X0051400Y0145814D02*
X0041600Y0145814D01*
X0041600Y0146812D02*
X0051400Y0146812D01*
X0051400Y0147811D02*
X0041600Y0147811D01*
X0041600Y0148809D02*
X0051400Y0148809D01*
X0051400Y0149808D02*
X0041600Y0149808D01*
X0041600Y0150806D02*
X0051400Y0150806D01*
X0051400Y0151805D02*
X0041600Y0151805D01*
X0041600Y0152803D02*
X0051400Y0152803D01*
X0051400Y0153802D02*
X0041600Y0153802D01*
X0041600Y0154801D02*
X0051400Y0154801D01*
X0051400Y0155799D02*
X0041600Y0155799D01*
X0041600Y0156798D02*
X0051400Y0156798D01*
X0051400Y0157796D02*
X0041600Y0157796D01*
X0041600Y0158795D02*
X0051400Y0158795D01*
X0051400Y0159793D02*
X0041600Y0159793D01*
X0041600Y0160792D02*
X0051400Y0160792D01*
X0051400Y0161790D02*
X0041600Y0161790D01*
X0041600Y0162789D02*
X0051400Y0162789D01*
X0051400Y0163787D02*
X0041600Y0163787D01*
X0041600Y0164786D02*
X0051400Y0164786D01*
X0051400Y0165784D02*
X0041600Y0165784D01*
X0041600Y0166783D02*
X0051400Y0166783D01*
X0051400Y0167781D02*
X0045534Y0167781D01*
X0044000Y0169500D02*
X0053000Y0169500D01*
X0053000Y0182100D01*
X0054900Y0184000D01*
X0119900Y0184000D01*
X0121109Y0182791D01*
X0121102Y0175937D01*
X0119041Y0177766D02*
X0118860Y0177766D01*
X0119505Y0178765D02*
X0104998Y0178765D01*
X0103999Y0179763D02*
X0119506Y0179763D01*
X0119507Y0180762D02*
X0103001Y0180762D01*
X0102000Y0179500D02*
X0057000Y0179500D01*
X0057000Y0122000D01*
X0059300Y0121850D02*
X0059700Y0121850D01*
X0059700Y0122848D02*
X0059300Y0122848D01*
X0058600Y0123847D02*
X0060594Y0123847D01*
X0058600Y0124845D02*
X0069100Y0124845D01*
X0069100Y0123847D02*
X0063406Y0123847D01*
X0064300Y0122848D02*
X0069100Y0122848D01*
X0069100Y0121850D02*
X0064300Y0121850D01*
X0064104Y0120851D02*
X0069100Y0120851D01*
X0069100Y0119853D02*
X0063600Y0119853D01*
X0063600Y0118854D02*
X0068236Y0118854D01*
X0068119Y0118737D02*
X0068119Y0114263D01*
X0068763Y0113619D01*
X0073237Y0113619D01*
X0073881Y0114263D01*
X0073881Y0118737D01*
X0073237Y0119381D01*
X0072900Y0119381D01*
X0072900Y0131713D01*
X0075787Y0134600D01*
X0083085Y0134600D01*
X0083085Y0133879D01*
X0083729Y0133235D01*
X0088578Y0133235D01*
X0089222Y0133879D01*
X0089222Y0139121D01*
X0088578Y0139765D01*
X0083729Y0139765D01*
X0083085Y0139121D01*
X0083085Y0138400D01*
X0074213Y0138400D01*
X0073100Y0137287D01*
X0073100Y0137287D01*
X0070213Y0134400D01*
X0069100Y0133287D01*
X0069100Y0119381D01*
X0068763Y0119381D01*
X0068119Y0118737D01*
X0068119Y0117856D02*
X0063600Y0117856D01*
X0063600Y0116857D02*
X0068119Y0116857D01*
X0068119Y0115859D02*
X0063600Y0115859D01*
X0064676Y0114860D02*
X0068119Y0114860D01*
X0068521Y0113862D02*
X0065265Y0113862D01*
X0062000Y0111846D02*
X0062000Y0122000D01*
X0059896Y0120851D02*
X0059104Y0120851D01*
X0058105Y0119853D02*
X0060400Y0119853D01*
X0060400Y0118854D02*
X0054600Y0118854D01*
X0054600Y0117856D02*
X0060400Y0117856D01*
X0060400Y0116857D02*
X0054600Y0116857D01*
X0054600Y0115859D02*
X0060400Y0115859D01*
X0059324Y0114860D02*
X0055676Y0114860D01*
X0056265Y0113862D02*
X0058735Y0113862D01*
X0058735Y0112863D02*
X0056265Y0112863D01*
X0056265Y0111865D02*
X0058735Y0111865D01*
X0058735Y0110866D02*
X0056265Y0110866D01*
X0053000Y0111846D02*
X0053000Y0109000D01*
X0053500Y0108500D01*
X0089500Y0108500D01*
X0087875Y0106872D02*
X0073881Y0106872D01*
X0073881Y0105873D02*
X0091100Y0105873D01*
X0091100Y0104875D02*
X0073881Y0104875D01*
X0073881Y0103876D02*
X0091437Y0103876D01*
X0092435Y0102878D02*
X0073496Y0102878D01*
X0072900Y0101879D02*
X0112900Y0101879D01*
X0112900Y0100881D02*
X0072900Y0100881D01*
X0072900Y0099882D02*
X0112900Y0099882D01*
X0112900Y0098884D02*
X0072900Y0098884D01*
X0072900Y0097885D02*
X0112900Y0097885D01*
X0113350Y0096887D02*
X0072900Y0096887D01*
X0072900Y0095888D02*
X0114349Y0095888D01*
X0115500Y0097000D02*
X0136654Y0097000D01*
X0137154Y0096500D01*
X0140222Y0096887D02*
X0140778Y0096887D01*
X0140778Y0097885D02*
X0140222Y0097885D01*
X0140222Y0095888D02*
X0140778Y0095888D01*
X0140778Y0094890D02*
X0140222Y0094890D01*
X0140222Y0093891D02*
X0140778Y0093891D01*
X0143846Y0096500D02*
X0166000Y0096500D01*
X0172000Y0096500D01*
X0175000Y0099500D01*
X0183043Y0099500D01*
X0182969Y0099425D01*
X0192969Y0099425D01*
X0202969Y0099425D01*
X0199709Y0096887D02*
X0196228Y0096887D01*
X0195230Y0095888D02*
X0200707Y0095888D01*
X0201105Y0093925D02*
X0198469Y0091289D01*
X0198469Y0089925D01*
X0202468Y0089925D01*
X0202468Y0088925D01*
X0198469Y0088925D01*
X0198469Y0087561D01*
X0201105Y0084925D01*
X0202469Y0084925D01*
X0202469Y0088925D01*
X0203468Y0088925D01*
X0203468Y0084925D01*
X0204832Y0084925D01*
X0207468Y0087561D01*
X0207468Y0088925D01*
X0203469Y0088925D01*
X0203469Y0089925D01*
X0207468Y0089925D01*
X0207468Y0091289D01*
X0204832Y0093925D01*
X0203468Y0093925D01*
X0203468Y0089925D01*
X0202469Y0089925D01*
X0202469Y0093925D01*
X0201105Y0093925D01*
X0201071Y0093891D02*
X0194866Y0093891D01*
X0194832Y0093925D02*
X0193468Y0093925D01*
X0193468Y0089925D01*
X0192469Y0089925D01*
X0192469Y0093925D01*
X0191105Y0093925D01*
X0188469Y0091289D01*
X0188469Y0089925D01*
X0192468Y0089925D01*
X0192468Y0088925D01*
X0188469Y0088925D01*
X0188469Y0087561D01*
X0191105Y0084925D01*
X0192469Y0084925D01*
X0192469Y0088925D01*
X0193468Y0088925D01*
X0193468Y0084925D01*
X0194832Y0084925D01*
X0197468Y0087561D01*
X0197468Y0088925D01*
X0193469Y0088925D01*
X0193469Y0089925D01*
X0197468Y0089925D01*
X0197468Y0091289D01*
X0194832Y0093925D01*
X0193468Y0093891D02*
X0192469Y0093891D01*
X0192469Y0092893D02*
X0193468Y0092893D01*
X0193468Y0091894D02*
X0192469Y0091894D01*
X0192469Y0090896D02*
X0193468Y0090896D01*
X0193469Y0089897D02*
X0202468Y0089897D01*
X0202469Y0088899D02*
X0203468Y0088899D01*
X0203469Y0089897D02*
X0211350Y0089897D01*
X0211350Y0088899D02*
X0207468Y0088899D01*
X0207468Y0087900D02*
X0211350Y0087900D01*
X0211350Y0086902D02*
X0206809Y0086902D01*
X0205810Y0085903D02*
X0211350Y0085903D01*
X0211350Y0084905D02*
X0153592Y0084905D01*
X0154590Y0085903D02*
X0180127Y0085903D01*
X0181105Y0084925D02*
X0178469Y0087561D01*
X0178469Y0088925D01*
X0182468Y0088925D01*
X0182468Y0089925D01*
X0178469Y0089925D01*
X0178469Y0091289D01*
X0181105Y0093925D01*
X0182469Y0093925D01*
X0182469Y0089925D01*
X0183468Y0089925D01*
X0183468Y0093925D01*
X0184832Y0093925D01*
X0187468Y0091289D01*
X0187468Y0089925D01*
X0183469Y0089925D01*
X0183469Y0088925D01*
X0187468Y0088925D01*
X0187468Y0087561D01*
X0184832Y0084925D01*
X0183468Y0084925D01*
X0183468Y0088925D01*
X0182469Y0088925D01*
X0182469Y0084925D01*
X0181105Y0084925D01*
X0182469Y0085903D02*
X0183468Y0085903D01*
X0183468Y0086902D02*
X0182469Y0086902D01*
X0182469Y0087900D02*
X0183468Y0087900D01*
X0183468Y0088899D02*
X0182469Y0088899D01*
X0182468Y0089897D02*
X0157881Y0089897D01*
X0157881Y0090896D02*
X0178469Y0090896D01*
X0179074Y0091894D02*
X0157881Y0091894D01*
X0157881Y0092893D02*
X0180072Y0092893D01*
X0181071Y0093891D02*
X0168482Y0093891D01*
X0169230Y0094890D02*
X0211350Y0094890D01*
X0211350Y0095888D02*
X0205230Y0095888D01*
X0206228Y0096887D02*
X0211350Y0096887D01*
X0211350Y0097885D02*
X0207068Y0097885D01*
X0207068Y0098884D02*
X0211350Y0098884D01*
X0211350Y0099882D02*
X0207068Y0099882D01*
X0207068Y0100881D02*
X0211350Y0100881D01*
X0211350Y0101879D02*
X0206313Y0101879D01*
X0205314Y0102878D02*
X0211350Y0102878D01*
X0211350Y0103876D02*
X0173182Y0103876D01*
X0174181Y0104875D02*
X0211350Y0104875D01*
X0211350Y0105873D02*
X0205781Y0105873D01*
X0204832Y0104925D02*
X0207468Y0107561D01*
X0207468Y0108925D01*
X0203469Y0108925D01*
X0203469Y0109925D01*
X0207468Y0109925D01*
X0207468Y0111289D01*
X0204832Y0113925D01*
X0203468Y0113925D01*
X0203468Y0109925D01*
X0202469Y0109925D01*
X0202469Y0113925D01*
X0201105Y0113925D01*
X0198469Y0111289D01*
X0198469Y0109925D01*
X0202468Y0109925D01*
X0202468Y0108925D01*
X0198469Y0108925D01*
X0198469Y0107561D01*
X0201105Y0104925D01*
X0202469Y0104925D01*
X0202469Y0108925D01*
X0203468Y0108925D01*
X0203468Y0104925D01*
X0204832Y0104925D01*
X0203468Y0105873D02*
X0202469Y0105873D01*
X0202469Y0106872D02*
X0203468Y0106872D01*
X0203468Y0107870D02*
X0202469Y0107870D01*
X0202469Y0108869D02*
X0203468Y0108869D01*
X0203469Y0109868D02*
X0211350Y0109868D01*
X0211350Y0110866D02*
X0207468Y0110866D01*
X0206893Y0111865D02*
X0211350Y0111865D01*
X0211350Y0112863D02*
X0205895Y0112863D01*
X0204896Y0113862D02*
X0211350Y0113862D01*
X0211350Y0114860D02*
X0175600Y0114860D01*
X0175600Y0113862D02*
X0181041Y0113862D01*
X0181105Y0113925D02*
X0178469Y0111289D01*
X0178469Y0109925D01*
X0182468Y0109925D01*
X0182468Y0108925D01*
X0178469Y0108925D01*
X0178469Y0107561D01*
X0181105Y0104925D01*
X0182469Y0104925D01*
X0182469Y0108925D01*
X0183468Y0108925D01*
X0183468Y0104925D01*
X0184832Y0104925D01*
X0187468Y0107561D01*
X0187468Y0108925D01*
X0183469Y0108925D01*
X0183469Y0109925D01*
X0187468Y0109925D01*
X0187468Y0111289D01*
X0184832Y0113925D01*
X0183468Y0113925D01*
X0183468Y0109925D01*
X0182469Y0109925D01*
X0182469Y0113925D01*
X0181105Y0113925D01*
X0182469Y0113862D02*
X0183468Y0113862D01*
X0183468Y0112863D02*
X0182469Y0112863D01*
X0182469Y0111865D02*
X0183468Y0111865D01*
X0183468Y0110866D02*
X0182469Y0110866D01*
X0182468Y0109868D02*
X0175600Y0109868D01*
X0175600Y0110866D02*
X0178469Y0110866D01*
X0179044Y0111865D02*
X0175600Y0111865D01*
X0175600Y0112863D02*
X0180042Y0112863D01*
X0178469Y0108869D02*
X0175600Y0108869D01*
X0175600Y0107870D02*
X0178469Y0107870D01*
X0179158Y0106872D02*
X0175600Y0106872D01*
X0175180Y0105873D02*
X0180156Y0105873D01*
X0182469Y0105873D02*
X0183468Y0105873D01*
X0183468Y0106872D02*
X0182469Y0106872D01*
X0182469Y0107870D02*
X0183468Y0107870D01*
X0183468Y0108869D02*
X0182469Y0108869D01*
X0183469Y0109868D02*
X0192468Y0109868D01*
X0192468Y0109925D02*
X0192468Y0108925D01*
X0188469Y0108925D01*
X0188469Y0107561D01*
X0191105Y0104925D01*
X0192469Y0104925D01*
X0192469Y0108925D01*
X0193468Y0108925D01*
X0193468Y0104925D01*
X0194832Y0104925D01*
X0197468Y0107561D01*
X0197468Y0108925D01*
X0193469Y0108925D01*
X0193469Y0109925D01*
X0197468Y0109925D01*
X0197468Y0111289D01*
X0194832Y0113925D01*
X0193468Y0113925D01*
X0193468Y0109925D01*
X0192469Y0109925D01*
X0192469Y0113925D01*
X0191105Y0113925D01*
X0188469Y0111289D01*
X0188469Y0109925D01*
X0192468Y0109925D01*
X0192469Y0110866D02*
X0193468Y0110866D01*
X0193469Y0109868D02*
X0202468Y0109868D01*
X0202469Y0110866D02*
X0203468Y0110866D01*
X0203468Y0111865D02*
X0202469Y0111865D01*
X0202469Y0112863D02*
X0203468Y0112863D01*
X0203468Y0113862D02*
X0202469Y0113862D01*
X0201041Y0113862D02*
X0194896Y0113862D01*
X0195895Y0112863D02*
X0200042Y0112863D01*
X0199044Y0111865D02*
X0196893Y0111865D01*
X0197468Y0110866D02*
X0198469Y0110866D01*
X0198469Y0108869D02*
X0197468Y0108869D01*
X0197468Y0107870D02*
X0198469Y0107870D01*
X0199158Y0106872D02*
X0196779Y0106872D01*
X0195781Y0105873D02*
X0200156Y0105873D01*
X0200623Y0102878D02*
X0195314Y0102878D01*
X0196313Y0101879D02*
X0199624Y0101879D01*
X0193468Y0105873D02*
X0192469Y0105873D01*
X0192469Y0106872D02*
X0193468Y0106872D01*
X0193468Y0107870D02*
X0192469Y0107870D01*
X0192469Y0108869D02*
X0193468Y0108869D01*
X0193468Y0111865D02*
X0192469Y0111865D01*
X0192469Y0112863D02*
X0193468Y0112863D01*
X0193468Y0113862D02*
X0192469Y0113862D01*
X0191041Y0113862D02*
X0184896Y0113862D01*
X0185895Y0112863D02*
X0190042Y0112863D01*
X0189044Y0111865D02*
X0186893Y0111865D01*
X0187468Y0110866D02*
X0188469Y0110866D01*
X0188469Y0108869D02*
X0187468Y0108869D01*
X0187468Y0107870D02*
X0188469Y0107870D01*
X0189158Y0106872D02*
X0186779Y0106872D01*
X0185781Y0105873D02*
X0190156Y0105873D01*
X0190623Y0102878D02*
X0185314Y0102878D01*
X0186313Y0101879D02*
X0189624Y0101879D01*
X0189709Y0096887D02*
X0186228Y0096887D01*
X0185230Y0095888D02*
X0190707Y0095888D01*
X0191071Y0093891D02*
X0184866Y0093891D01*
X0183468Y0093891D02*
X0182469Y0093891D01*
X0182469Y0092893D02*
X0183468Y0092893D01*
X0183468Y0091894D02*
X0182469Y0091894D01*
X0182469Y0090896D02*
X0183468Y0090896D01*
X0183469Y0089897D02*
X0192468Y0089897D01*
X0192469Y0088899D02*
X0193468Y0088899D01*
X0193468Y0087900D02*
X0192469Y0087900D01*
X0192469Y0086902D02*
X0193468Y0086902D01*
X0193468Y0085903D02*
X0192469Y0085903D01*
X0190127Y0085903D02*
X0185810Y0085903D01*
X0186809Y0086902D02*
X0189128Y0086902D01*
X0188469Y0087900D02*
X0187468Y0087900D01*
X0187468Y0088899D02*
X0188469Y0088899D01*
X0188469Y0090896D02*
X0187468Y0090896D01*
X0186863Y0091894D02*
X0189074Y0091894D01*
X0190072Y0092893D02*
X0185865Y0092893D01*
X0180707Y0095888D02*
X0173651Y0095888D01*
X0174650Y0096887D02*
X0179709Y0096887D01*
X0178869Y0097885D02*
X0175648Y0097885D01*
X0173120Y0099882D02*
X0167241Y0099882D01*
X0168707Y0098884D02*
X0172121Y0098884D01*
X0174118Y0100881D02*
X0157881Y0100881D01*
X0157881Y0101879D02*
X0163529Y0101879D01*
X0162775Y0102878D02*
X0157740Y0102878D01*
X0157881Y0099882D02*
X0164759Y0099882D01*
X0163293Y0098884D02*
X0157881Y0098884D01*
X0157881Y0093891D02*
X0163517Y0093891D01*
X0162770Y0094890D02*
X0146915Y0094890D01*
X0146915Y0093891D02*
X0152119Y0093891D01*
X0152119Y0092893D02*
X0122968Y0092893D01*
X0122968Y0091894D02*
X0152119Y0091894D01*
X0152119Y0090896D02*
X0122859Y0090896D01*
X0119984Y0090896D02*
X0119016Y0090896D01*
X0119016Y0091894D02*
X0119984Y0091894D01*
X0119984Y0092893D02*
X0119016Y0092893D01*
X0119016Y0093891D02*
X0072900Y0093891D01*
X0072900Y0092893D02*
X0116031Y0092893D01*
X0116031Y0091894D02*
X0072900Y0091894D01*
X0072900Y0090896D02*
X0116141Y0090896D01*
X0116031Y0094890D02*
X0072900Y0094890D01*
X0072900Y0089897D02*
X0152119Y0089897D01*
X0152212Y0088899D02*
X0072900Y0088899D01*
X0072900Y0087900D02*
X0151213Y0087900D01*
X0150215Y0086902D02*
X0072900Y0086902D01*
X0072900Y0085903D02*
X0149216Y0085903D01*
X0148218Y0084905D02*
X0074903Y0084905D01*
X0075053Y0083906D02*
X0147219Y0083906D01*
X0149598Y0080911D02*
X0211350Y0080911D01*
X0211350Y0081909D02*
X0150596Y0081909D01*
X0151595Y0082908D02*
X0211350Y0082908D01*
X0211350Y0083906D02*
X0152593Y0083906D01*
X0155589Y0086902D02*
X0179128Y0086902D01*
X0178469Y0087900D02*
X0156587Y0087900D01*
X0156900Y0088899D02*
X0178469Y0088899D01*
X0179624Y0101879D02*
X0168471Y0101879D01*
X0169225Y0102878D02*
X0180623Y0102878D01*
X0174000Y0106957D02*
X0174000Y0116500D01*
X0176925Y0119425D01*
X0182969Y0119425D01*
X0192969Y0119425D01*
X0202969Y0119425D01*
X0199738Y0116857D02*
X0196199Y0116857D01*
X0195200Y0115859D02*
X0200737Y0115859D01*
X0205200Y0115859D02*
X0211350Y0115859D01*
X0211350Y0116857D02*
X0206199Y0116857D01*
X0207068Y0117856D02*
X0211350Y0117856D01*
X0211350Y0118854D02*
X0207068Y0118854D01*
X0207068Y0119853D02*
X0211350Y0119853D01*
X0211350Y0120851D02*
X0207068Y0120851D01*
X0206342Y0121850D02*
X0211350Y0121850D01*
X0211350Y0122848D02*
X0205344Y0122848D01*
X0204832Y0124925D02*
X0207468Y0127561D01*
X0207468Y0128925D01*
X0203469Y0128925D01*
X0203469Y0129925D01*
X0207468Y0129925D01*
X0207468Y0131289D01*
X0204832Y0133925D01*
X0203468Y0133925D01*
X0203468Y0129925D01*
X0202469Y0129925D01*
X0202469Y0133925D01*
X0201105Y0133925D01*
X0198469Y0131289D01*
X0198469Y0129925D01*
X0202468Y0129925D01*
X0202468Y0128925D01*
X0198469Y0128925D01*
X0198469Y0127561D01*
X0201105Y0124925D01*
X0202469Y0124925D01*
X0202469Y0128925D01*
X0203468Y0128925D01*
X0203468Y0124925D01*
X0204832Y0124925D01*
X0205751Y0125844D02*
X0211350Y0125844D01*
X0211350Y0126842D02*
X0206749Y0126842D01*
X0207468Y0127841D02*
X0211350Y0127841D01*
X0211350Y0128839D02*
X0207468Y0128839D01*
X0207468Y0130836D02*
X0211350Y0130836D01*
X0211350Y0129838D02*
X0203469Y0129838D01*
X0203468Y0130836D02*
X0202469Y0130836D01*
X0202468Y0129838D02*
X0193469Y0129838D01*
X0193469Y0129925D02*
X0197468Y0129925D01*
X0197468Y0131289D01*
X0194832Y0133925D01*
X0193468Y0133925D01*
X0193468Y0129925D01*
X0192469Y0129925D01*
X0192469Y0133925D01*
X0191105Y0133925D01*
X0188469Y0131289D01*
X0188469Y0129925D01*
X0192468Y0129925D01*
X0192468Y0128925D01*
X0188469Y0128925D01*
X0188469Y0127561D01*
X0191105Y0124925D01*
X0192469Y0124925D01*
X0192469Y0128925D01*
X0193468Y0128925D01*
X0193468Y0124925D01*
X0194832Y0124925D01*
X0197468Y0127561D01*
X0197468Y0128925D01*
X0193469Y0128925D01*
X0193469Y0129925D01*
X0193468Y0130836D02*
X0192469Y0130836D01*
X0192468Y0129838D02*
X0183469Y0129838D01*
X0183469Y0129925D02*
X0187468Y0129925D01*
X0187468Y0131289D01*
X0184832Y0133925D01*
X0183468Y0133925D01*
X0183468Y0129925D01*
X0182469Y0129925D01*
X0182469Y0133925D01*
X0181105Y0133925D01*
X0178469Y0131289D01*
X0178469Y0129925D01*
X0182468Y0129925D01*
X0182468Y0128925D01*
X0178469Y0128925D01*
X0178469Y0127561D01*
X0181105Y0124925D01*
X0182469Y0124925D01*
X0182469Y0128925D01*
X0183468Y0128925D01*
X0183468Y0124925D01*
X0184832Y0124925D01*
X0187468Y0127561D01*
X0187468Y0128925D01*
X0183469Y0128925D01*
X0183469Y0129925D01*
X0183468Y0130836D02*
X0182469Y0130836D01*
X0182468Y0129838D02*
X0157881Y0129838D01*
X0157881Y0130836D02*
X0178469Y0130836D01*
X0179014Y0131835D02*
X0157881Y0131835D01*
X0157881Y0132833D02*
X0180013Y0132833D01*
X0181011Y0133832D02*
X0167923Y0133832D01*
X0168705Y0134830D02*
X0211350Y0134830D01*
X0211350Y0133832D02*
X0204926Y0133832D01*
X0205924Y0132833D02*
X0211350Y0132833D01*
X0211350Y0131835D02*
X0206923Y0131835D01*
X0203468Y0131835D02*
X0202469Y0131835D01*
X0202469Y0132833D02*
X0203468Y0132833D01*
X0203468Y0133832D02*
X0202469Y0133832D01*
X0201011Y0133832D02*
X0194926Y0133832D01*
X0195924Y0132833D02*
X0200013Y0132833D01*
X0199014Y0131835D02*
X0196923Y0131835D01*
X0197468Y0130836D02*
X0198469Y0130836D01*
X0198469Y0128839D02*
X0197468Y0128839D01*
X0197468Y0127841D02*
X0198469Y0127841D01*
X0199188Y0126842D02*
X0196749Y0126842D01*
X0195751Y0125844D02*
X0200186Y0125844D01*
X0202469Y0125844D02*
X0203468Y0125844D01*
X0203468Y0126842D02*
X0202469Y0126842D01*
X0202469Y0127841D02*
X0203468Y0127841D01*
X0203468Y0128839D02*
X0202469Y0128839D01*
X0200593Y0122848D02*
X0195344Y0122848D01*
X0196342Y0121850D02*
X0199595Y0121850D01*
X0193468Y0125844D02*
X0192469Y0125844D01*
X0192469Y0126842D02*
X0193468Y0126842D01*
X0193468Y0127841D02*
X0192469Y0127841D01*
X0192469Y0128839D02*
X0193468Y0128839D01*
X0193468Y0131835D02*
X0192469Y0131835D01*
X0192469Y0132833D02*
X0193468Y0132833D01*
X0193468Y0133832D02*
X0192469Y0133832D01*
X0191011Y0133832D02*
X0184926Y0133832D01*
X0185924Y0132833D02*
X0190013Y0132833D01*
X0189014Y0131835D02*
X0186923Y0131835D01*
X0187468Y0130836D02*
X0188469Y0130836D01*
X0188469Y0128839D02*
X0187468Y0128839D01*
X0187468Y0127841D02*
X0188469Y0127841D01*
X0189188Y0126842D02*
X0186749Y0126842D01*
X0185751Y0125844D02*
X0190186Y0125844D01*
X0190593Y0122848D02*
X0185344Y0122848D01*
X0186342Y0121850D02*
X0189595Y0121850D01*
X0189738Y0116857D02*
X0186199Y0116857D01*
X0185200Y0115859D02*
X0190737Y0115859D01*
X0180737Y0115859D02*
X0175621Y0115859D01*
X0176620Y0116857D02*
X0179738Y0116857D01*
X0179595Y0121850D02*
X0156900Y0121850D01*
X0156900Y0122848D02*
X0180593Y0122848D01*
X0180186Y0125844D02*
X0156900Y0125844D01*
X0156900Y0126842D02*
X0179188Y0126842D01*
X0178469Y0127841D02*
X0156900Y0127841D01*
X0156900Y0128839D02*
X0178469Y0128839D01*
X0182469Y0128839D02*
X0183468Y0128839D01*
X0183468Y0127841D02*
X0182469Y0127841D01*
X0182469Y0126842D02*
X0183468Y0126842D01*
X0183468Y0125844D02*
X0182469Y0125844D01*
X0182469Y0131835D02*
X0183468Y0131835D01*
X0183468Y0132833D02*
X0182469Y0132833D01*
X0182469Y0133832D02*
X0183468Y0133832D01*
X0185170Y0135829D02*
X0190767Y0135829D01*
X0189768Y0136827D02*
X0186169Y0136827D01*
X0182969Y0139425D02*
X0192969Y0139425D01*
X0202969Y0139425D01*
X0205374Y0142818D02*
X0211350Y0142818D01*
X0211350Y0141820D02*
X0206372Y0141820D01*
X0207068Y0140821D02*
X0211350Y0140821D01*
X0211350Y0139823D02*
X0207068Y0139823D01*
X0207068Y0138824D02*
X0211350Y0138824D01*
X0211350Y0137826D02*
X0207068Y0137826D01*
X0206169Y0136827D02*
X0211350Y0136827D01*
X0211350Y0135829D02*
X0205170Y0135829D01*
X0200767Y0135829D02*
X0195170Y0135829D01*
X0196169Y0136827D02*
X0199768Y0136827D01*
X0199565Y0141820D02*
X0196372Y0141820D01*
X0195374Y0142818D02*
X0200563Y0142818D01*
X0201105Y0144925D02*
X0198469Y0147561D01*
X0198469Y0148925D01*
X0202468Y0148925D01*
X0202468Y0149925D01*
X0198469Y0149925D01*
X0198469Y0151289D01*
X0201105Y0153925D01*
X0202469Y0153925D01*
X0202469Y0149925D01*
X0203468Y0149925D01*
X0203468Y0153925D01*
X0204832Y0153925D01*
X0207468Y0151289D01*
X0207468Y0149925D01*
X0203469Y0149925D01*
X0203469Y0148925D01*
X0207468Y0148925D01*
X0207468Y0147561D01*
X0204832Y0144925D01*
X0203468Y0144925D01*
X0203468Y0148925D01*
X0202469Y0148925D01*
X0202469Y0144925D01*
X0201105Y0144925D01*
X0200216Y0145814D02*
X0195721Y0145814D01*
X0194832Y0144925D02*
X0197468Y0147561D01*
X0197468Y0148925D01*
X0193469Y0148925D01*
X0193469Y0149925D01*
X0197468Y0149925D01*
X0197468Y0151289D01*
X0194832Y0153925D01*
X0193468Y0153925D01*
X0193468Y0149925D01*
X0192469Y0149925D01*
X0192469Y0153925D01*
X0191105Y0153925D01*
X0188469Y0151289D01*
X0188469Y0149925D01*
X0192468Y0149925D01*
X0192468Y0148925D01*
X0188469Y0148925D01*
X0188469Y0147561D01*
X0191105Y0144925D01*
X0192469Y0144925D01*
X0192469Y0148925D01*
X0193468Y0148925D01*
X0193468Y0144925D01*
X0194832Y0144925D01*
X0193468Y0145814D02*
X0192469Y0145814D01*
X0192469Y0146812D02*
X0193468Y0146812D01*
X0193468Y0147811D02*
X0192469Y0147811D01*
X0192469Y0148809D02*
X0193468Y0148809D01*
X0193469Y0149808D02*
X0202468Y0149808D01*
X0202469Y0150806D02*
X0203468Y0150806D01*
X0203469Y0149808D02*
X0211350Y0149808D01*
X0211350Y0150806D02*
X0207468Y0150806D01*
X0206953Y0151805D02*
X0211350Y0151805D01*
X0211350Y0152803D02*
X0205954Y0152803D01*
X0204956Y0153802D02*
X0211350Y0153802D01*
X0211350Y0154801D02*
X0174525Y0154801D01*
X0174525Y0155799D02*
X0211350Y0155799D01*
X0211350Y0156798D02*
X0174525Y0156798D01*
X0174525Y0157796D02*
X0211350Y0157796D01*
X0211350Y0158795D02*
X0174525Y0158795D01*
X0174525Y0159793D02*
X0211350Y0159793D01*
X0211350Y0160792D02*
X0174525Y0160792D01*
X0174525Y0161790D02*
X0211350Y0161790D01*
X0211350Y0162789D02*
X0174525Y0162789D01*
X0174525Y0163787D02*
X0211350Y0163787D01*
X0211350Y0164786D02*
X0174525Y0164786D01*
X0174525Y0165784D02*
X0211350Y0165784D01*
X0211350Y0166783D02*
X0174525Y0166783D01*
X0174525Y0167781D02*
X0211350Y0167781D01*
X0211350Y0168780D02*
X0174525Y0168780D01*
X0174525Y0169778D02*
X0211350Y0169778D01*
X0211350Y0170777D02*
X0174525Y0170777D01*
X0174525Y0171775D02*
X0211350Y0171775D01*
X0211350Y0172774D02*
X0174525Y0172774D01*
X0174525Y0173772D02*
X0211350Y0173772D01*
X0211350Y0174771D02*
X0174525Y0174771D01*
X0174525Y0175769D02*
X0211350Y0175769D01*
X0211350Y0176768D02*
X0174525Y0176768D01*
X0174525Y0177766D02*
X0211350Y0177766D01*
X0211350Y0178765D02*
X0174525Y0178765D01*
X0174525Y0179763D02*
X0211350Y0179763D01*
X0211350Y0180762D02*
X0174525Y0180762D01*
X0174525Y0181760D02*
X0211350Y0181760D01*
X0211350Y0182759D02*
X0174525Y0182759D01*
X0174525Y0183757D02*
X0211350Y0183757D01*
X0211350Y0184756D02*
X0174525Y0184756D01*
X0174525Y0185754D02*
X0211350Y0185754D01*
X0211350Y0186753D02*
X0173860Y0186753D01*
X0172862Y0187751D02*
X0211350Y0187751D01*
X0211350Y0188750D02*
X0171863Y0188750D01*
X0170865Y0189748D02*
X0211350Y0189748D01*
X0211350Y0190747D02*
X0169866Y0190747D01*
X0168868Y0191745D02*
X0211350Y0191745D01*
X0211350Y0192744D02*
X0167869Y0192744D01*
X0166871Y0193742D02*
X0211350Y0193742D01*
X0211350Y0194741D02*
X0199711Y0194741D01*
X0198654Y0194303D02*
X0201520Y0195491D01*
X0203714Y0197684D01*
X0204902Y0200551D01*
X0204902Y0203654D01*
X0203714Y0206520D01*
X0201520Y0208714D01*
X0198654Y0209902D01*
X0195551Y0209902D01*
X0192684Y0208714D01*
X0190491Y0206520D01*
X0189303Y0203654D01*
X0189303Y0200551D01*
X0190491Y0197684D01*
X0192684Y0195491D01*
X0195551Y0194303D01*
X0198654Y0194303D01*
X0201769Y0195739D02*
X0211350Y0195739D01*
X0211350Y0196738D02*
X0202768Y0196738D01*
X0203736Y0197737D02*
X0211350Y0197737D01*
X0211350Y0198735D02*
X0204149Y0198735D01*
X0204563Y0199734D02*
X0211350Y0199734D01*
X0211350Y0200732D02*
X0204902Y0200732D01*
X0204902Y0201731D02*
X0211350Y0201731D01*
X0211350Y0202729D02*
X0204902Y0202729D01*
X0204871Y0203728D02*
X0211350Y0203728D01*
X0211350Y0204726D02*
X0204457Y0204726D01*
X0204044Y0205725D02*
X0211044Y0205725D01*
X0210045Y0206723D02*
X0203511Y0206723D01*
X0202513Y0207722D02*
X0209047Y0207722D01*
X0208048Y0208720D02*
X0201506Y0208720D01*
X0199095Y0209719D02*
X0207050Y0209719D01*
X0206051Y0210717D02*
X0022799Y0210717D01*
X0021801Y0209719D02*
X0029755Y0209719D01*
X0030197Y0209902D02*
X0027330Y0208714D01*
X0025136Y0206520D01*
X0023949Y0203654D01*
X0023949Y0200551D01*
X0025136Y0197684D01*
X0027330Y0195491D01*
X0030197Y0194303D01*
X0033299Y0194303D01*
X0036166Y0195491D01*
X0038360Y0197684D01*
X0039547Y0200551D01*
X0039547Y0203654D01*
X0038360Y0206520D01*
X0036166Y0208714D01*
X0033299Y0209902D01*
X0030197Y0209902D01*
X0027344Y0208720D02*
X0020802Y0208720D01*
X0019804Y0207722D02*
X0026338Y0207722D01*
X0025339Y0206723D02*
X0018805Y0206723D01*
X0017807Y0205725D02*
X0024807Y0205725D01*
X0024393Y0204726D02*
X0017500Y0204726D01*
X0017500Y0203728D02*
X0023979Y0203728D01*
X0023949Y0202729D02*
X0017500Y0202729D01*
X0017500Y0201731D02*
X0023949Y0201731D01*
X0023949Y0200732D02*
X0017500Y0200732D01*
X0017500Y0199734D02*
X0024287Y0199734D01*
X0024701Y0198735D02*
X0017500Y0198735D01*
X0017500Y0197737D02*
X0025115Y0197737D01*
X0026083Y0196738D02*
X0017500Y0196738D01*
X0017500Y0195739D02*
X0027081Y0195739D01*
X0029140Y0194741D02*
X0017500Y0194741D01*
X0017500Y0193742D02*
X0045980Y0193742D01*
X0044981Y0192744D02*
X0017500Y0192744D01*
X0017500Y0191745D02*
X0043983Y0191745D01*
X0042984Y0190747D02*
X0017500Y0190747D01*
X0017500Y0189748D02*
X0041986Y0189748D01*
X0040987Y0188750D02*
X0017500Y0188750D01*
X0017500Y0187751D02*
X0039989Y0187751D01*
X0038990Y0186753D02*
X0017500Y0186753D01*
X0017500Y0185754D02*
X0038400Y0185754D01*
X0038400Y0184756D02*
X0017500Y0184756D01*
X0017500Y0183757D02*
X0038400Y0183757D01*
X0038400Y0182759D02*
X0031307Y0182759D01*
X0031165Y0182901D02*
X0029658Y0183525D01*
X0022027Y0183525D01*
X0020520Y0182901D01*
X0019367Y0181748D01*
X0018743Y0180241D01*
X0018743Y0178610D01*
X0019367Y0177103D01*
X0020520Y0175949D01*
X0022027Y0175325D01*
X0029658Y0175325D01*
X0031165Y0175949D01*
X0032318Y0177103D01*
X0032943Y0178610D01*
X0032943Y0180241D01*
X0032318Y0181748D01*
X0031165Y0182901D01*
X0032306Y0181760D02*
X0038400Y0181760D01*
X0038400Y0180762D02*
X0032727Y0180762D01*
X0032943Y0179763D02*
X0038400Y0179763D01*
X0038400Y0178765D02*
X0032943Y0178765D01*
X0032593Y0177766D02*
X0038400Y0177766D01*
X0038400Y0176768D02*
X0031983Y0176768D01*
X0030730Y0175769D02*
X0038400Y0175769D01*
X0038400Y0174771D02*
X0017500Y0174771D01*
X0017500Y0175769D02*
X0020955Y0175769D01*
X0019702Y0176768D02*
X0017500Y0176768D01*
X0017500Y0177766D02*
X0019092Y0177766D01*
X0018743Y0178765D02*
X0017500Y0178765D01*
X0017500Y0179763D02*
X0018743Y0179763D01*
X0018958Y0180762D02*
X0017500Y0180762D01*
X0017500Y0181760D02*
X0019379Y0181760D01*
X0020378Y0182759D02*
X0017500Y0182759D01*
X0017500Y0173772D02*
X0038400Y0173772D01*
X0038400Y0172774D02*
X0031292Y0172774D01*
X0031165Y0172901D02*
X0029658Y0173525D01*
X0022027Y0173525D01*
X0020520Y0172901D01*
X0019367Y0171748D01*
X0018743Y0170241D01*
X0018743Y0168610D01*
X0019367Y0167103D01*
X0020520Y0165949D01*
X0022027Y0165325D01*
X0029658Y0165325D01*
X0031165Y0165949D01*
X0032318Y0167103D01*
X0032943Y0168610D01*
X0032943Y0170241D01*
X0032318Y0171748D01*
X0031165Y0172901D01*
X0032291Y0171775D02*
X0038400Y0171775D01*
X0038400Y0170777D02*
X0032721Y0170777D01*
X0032943Y0169778D02*
X0038400Y0169778D01*
X0038400Y0168780D02*
X0032943Y0168780D01*
X0032599Y0167781D02*
X0038400Y0167781D01*
X0038400Y0166783D02*
X0031998Y0166783D01*
X0030766Y0165784D02*
X0038400Y0165784D01*
X0038400Y0164786D02*
X0017500Y0164786D01*
X0017500Y0165784D02*
X0020919Y0165784D01*
X0019687Y0166783D02*
X0017500Y0166783D01*
X0017500Y0167781D02*
X0019086Y0167781D01*
X0018743Y0168780D02*
X0017500Y0168780D01*
X0017500Y0169778D02*
X0018743Y0169778D01*
X0018965Y0170777D02*
X0017500Y0170777D01*
X0017500Y0171775D02*
X0019394Y0171775D01*
X0020393Y0172774D02*
X0017500Y0172774D01*
X0025843Y0169425D02*
X0025917Y0169500D01*
X0025902Y0169499D01*
X0025888Y0169494D01*
X0025875Y0169487D01*
X0025864Y0169478D01*
X0025855Y0169467D01*
X0025848Y0169454D01*
X0025843Y0169440D01*
X0025842Y0169425D01*
X0022027Y0163525D02*
X0020520Y0162901D01*
X0019367Y0161748D01*
X0018743Y0160241D01*
X0018743Y0158610D01*
X0019367Y0157103D01*
X0020520Y0155949D01*
X0022027Y0155325D01*
X0029658Y0155325D01*
X0031165Y0155949D01*
X0032318Y0157103D01*
X0032943Y0158610D01*
X0032943Y0160241D01*
X0032318Y0161748D01*
X0031165Y0162901D01*
X0029658Y0163525D01*
X0022027Y0163525D01*
X0020408Y0162789D02*
X0017500Y0162789D01*
X0017500Y0163787D02*
X0038400Y0163787D01*
X0038400Y0162789D02*
X0031277Y0162789D01*
X0032276Y0161790D02*
X0038400Y0161790D01*
X0038400Y0160792D02*
X0032714Y0160792D01*
X0032943Y0159793D02*
X0038400Y0159793D01*
X0038400Y0158795D02*
X0032943Y0158795D01*
X0032605Y0157796D02*
X0038400Y0157796D01*
X0038400Y0156798D02*
X0032013Y0156798D01*
X0030802Y0155799D02*
X0038400Y0155799D01*
X0038400Y0154801D02*
X0017500Y0154801D01*
X0017500Y0155799D02*
X0020883Y0155799D01*
X0019672Y0156798D02*
X0017500Y0156798D01*
X0017500Y0157796D02*
X0019080Y0157796D01*
X0018743Y0158795D02*
X0017500Y0158795D01*
X0017500Y0159793D02*
X0018743Y0159793D01*
X0018971Y0160792D02*
X0017500Y0160792D01*
X0017500Y0161790D02*
X0019409Y0161790D01*
X0017500Y0153802D02*
X0038400Y0153802D01*
X0038400Y0152803D02*
X0031262Y0152803D01*
X0031165Y0152901D02*
X0029658Y0153525D01*
X0022027Y0153525D01*
X0020520Y0152901D01*
X0019367Y0151748D01*
X0018743Y0150241D01*
X0018743Y0148610D01*
X0019367Y0147103D01*
X0020520Y0145949D01*
X0022027Y0145325D01*
X0029658Y0145325D01*
X0031165Y0145949D01*
X0032318Y0147103D01*
X0032943Y0148610D01*
X0032943Y0150241D01*
X0032318Y0151748D01*
X0031165Y0152901D01*
X0032261Y0151805D02*
X0038400Y0151805D01*
X0038400Y0150806D02*
X0032708Y0150806D01*
X0032943Y0149808D02*
X0038400Y0149808D01*
X0038400Y0148809D02*
X0032943Y0148809D01*
X0032612Y0147811D02*
X0038400Y0147811D01*
X0038400Y0146812D02*
X0032028Y0146812D01*
X0030838Y0145814D02*
X0038400Y0145814D01*
X0038400Y0144815D02*
X0017500Y0144815D01*
X0017500Y0143817D02*
X0021805Y0143817D01*
X0021789Y0143814D02*
X0021115Y0143595D01*
X0020484Y0143274D01*
X0019911Y0142858D01*
X0019410Y0142357D01*
X0018994Y0141784D01*
X0018672Y0141153D01*
X0018453Y0140479D01*
X0018366Y0139925D01*
X0025342Y0139925D01*
X0025342Y0138925D01*
X0018366Y0138925D01*
X0018453Y0138371D01*
X0018672Y0137698D01*
X0018994Y0137067D01*
X0019410Y0136494D01*
X0019911Y0135993D01*
X0020484Y0135576D01*
X0021115Y0135255D01*
X0021789Y0135036D01*
X0022488Y0134925D01*
X0025343Y0134925D01*
X0025343Y0138925D01*
X0026342Y0138925D01*
X0026342Y0134925D01*
X0029197Y0134925D01*
X0029896Y0135036D01*
X0030570Y0135255D01*
X0031201Y0135576D01*
X0031774Y0135993D01*
X0032275Y0136494D01*
X0032691Y0137067D01*
X0033013Y0137698D01*
X0033232Y0138371D01*
X0033319Y0138925D01*
X0026343Y0138925D01*
X0026343Y0139925D01*
X0033319Y0139925D01*
X0033232Y0140479D01*
X0033013Y0141153D01*
X0032691Y0141784D01*
X0032275Y0142357D01*
X0031774Y0142858D01*
X0031201Y0143274D01*
X0030570Y0143595D01*
X0029896Y0143814D01*
X0029197Y0143925D01*
X0026342Y0143925D01*
X0026342Y0139925D01*
X0025343Y0139925D01*
X0025343Y0143925D01*
X0022488Y0143925D01*
X0021789Y0143814D01*
X0019872Y0142818D02*
X0017500Y0142818D01*
X0017500Y0141820D02*
X0019020Y0141820D01*
X0018565Y0140821D02*
X0017500Y0140821D01*
X0017500Y0139823D02*
X0025342Y0139823D01*
X0025343Y0140821D02*
X0026342Y0140821D01*
X0026343Y0139823D02*
X0038400Y0139823D01*
X0038400Y0140821D02*
X0033120Y0140821D01*
X0032665Y0141820D02*
X0038400Y0141820D01*
X0038400Y0142818D02*
X0031813Y0142818D01*
X0029880Y0143817D02*
X0038400Y0143817D01*
X0038400Y0138824D02*
X0033303Y0138824D01*
X0033054Y0137826D02*
X0038400Y0137826D01*
X0038400Y0136827D02*
X0032517Y0136827D01*
X0031548Y0135829D02*
X0038400Y0135829D01*
X0038400Y0134830D02*
X0017500Y0134830D01*
X0017500Y0133832D02*
X0038400Y0133832D01*
X0038400Y0132833D02*
X0031233Y0132833D01*
X0031165Y0132901D02*
X0029658Y0133525D01*
X0022027Y0133525D01*
X0020520Y0132901D01*
X0019367Y0131748D01*
X0018743Y0130241D01*
X0018743Y0128610D01*
X0019367Y0127103D01*
X0020520Y0125949D01*
X0022027Y0125325D01*
X0029658Y0125325D01*
X0031165Y0125949D01*
X0032318Y0127103D01*
X0032943Y0128610D01*
X0032943Y0130241D01*
X0032318Y0131748D01*
X0031165Y0132901D01*
X0032231Y0131835D02*
X0038400Y0131835D01*
X0038400Y0130836D02*
X0032696Y0130836D01*
X0032943Y0129838D02*
X0038400Y0129838D01*
X0038400Y0128839D02*
X0032943Y0128839D01*
X0032624Y0127841D02*
X0038400Y0127841D01*
X0038400Y0126842D02*
X0032058Y0126842D01*
X0030910Y0125844D02*
X0038400Y0125844D01*
X0038400Y0124845D02*
X0017500Y0124845D01*
X0017500Y0123847D02*
X0038400Y0123847D01*
X0038400Y0122848D02*
X0017500Y0122848D01*
X0017500Y0121850D02*
X0038400Y0121850D01*
X0038400Y0120851D02*
X0017500Y0120851D01*
X0017500Y0119853D02*
X0038400Y0119853D01*
X0038400Y0118854D02*
X0017500Y0118854D01*
X0017500Y0117856D02*
X0038400Y0117856D01*
X0038400Y0116857D02*
X0017500Y0116857D01*
X0017500Y0115859D02*
X0038400Y0115859D01*
X0038400Y0114860D02*
X0017500Y0114860D01*
X0017500Y0113862D02*
X0038400Y0113862D01*
X0038400Y0112863D02*
X0031203Y0112863D01*
X0031165Y0112901D02*
X0029658Y0113525D01*
X0022027Y0113525D01*
X0020520Y0112901D01*
X0019367Y0111748D01*
X0018743Y0110241D01*
X0018743Y0108610D01*
X0019367Y0107103D01*
X0020520Y0105949D01*
X0022027Y0105325D01*
X0029658Y0105325D01*
X0031165Y0105949D01*
X0032318Y0107103D01*
X0032943Y0108610D01*
X0032943Y0110241D01*
X0032318Y0111748D01*
X0031165Y0112901D01*
X0032201Y0111865D02*
X0038400Y0111865D01*
X0038400Y0110866D02*
X0032684Y0110866D01*
X0032943Y0109868D02*
X0038400Y0109868D01*
X0038400Y0108869D02*
X0032943Y0108869D01*
X0032636Y0107870D02*
X0038400Y0107870D01*
X0038400Y0106872D02*
X0032088Y0106872D01*
X0030982Y0105873D02*
X0038400Y0105873D01*
X0038400Y0104875D02*
X0017500Y0104875D01*
X0017500Y0105873D02*
X0020703Y0105873D01*
X0019597Y0106872D02*
X0017500Y0106872D01*
X0017500Y0107870D02*
X0019049Y0107870D01*
X0018743Y0108869D02*
X0017500Y0108869D01*
X0017500Y0109868D02*
X0018743Y0109868D01*
X0019002Y0110866D02*
X0017500Y0110866D01*
X0017500Y0111865D02*
X0019484Y0111865D01*
X0020482Y0112863D02*
X0017500Y0112863D01*
X0017500Y0103876D02*
X0038114Y0103876D01*
X0037115Y0102878D02*
X0031188Y0102878D01*
X0032187Y0101879D02*
X0036117Y0101879D01*
X0035925Y0099425D02*
X0025843Y0099425D01*
X0025768Y0099500D01*
X0020667Y0095888D02*
X0017500Y0095888D01*
X0017500Y0096887D02*
X0019583Y0096887D01*
X0019043Y0097885D02*
X0017500Y0097885D01*
X0017500Y0098884D02*
X0018743Y0098884D01*
X0018743Y0099882D02*
X0017500Y0099882D01*
X0017500Y0100881D02*
X0019008Y0100881D01*
X0019498Y0101879D02*
X0017500Y0101879D01*
X0017500Y0102878D02*
X0020497Y0102878D01*
X0035925Y0099425D02*
X0040000Y0103500D01*
X0040000Y0185500D01*
X0047000Y0192500D01*
X0165850Y0192500D01*
X0172925Y0185425D01*
X0172925Y0139425D01*
X0170000Y0136500D01*
X0165500Y0136500D01*
X0143846Y0136500D01*
X0155000Y0136500D01*
X0157288Y0134830D02*
X0162295Y0134830D01*
X0163077Y0133832D02*
X0157881Y0133832D01*
X0157442Y0138824D02*
X0162733Y0138824D01*
X0164115Y0139823D02*
X0157881Y0139823D01*
X0157881Y0140821D02*
X0171325Y0140821D01*
X0171325Y0141820D02*
X0157881Y0141820D01*
X0157881Y0142818D02*
X0171325Y0142818D01*
X0171325Y0143817D02*
X0157801Y0143817D01*
X0156900Y0144815D02*
X0171325Y0144815D01*
X0171325Y0145814D02*
X0156900Y0145814D01*
X0156900Y0146812D02*
X0171325Y0146812D01*
X0171325Y0147811D02*
X0156900Y0147811D01*
X0156900Y0148809D02*
X0171325Y0148809D01*
X0171325Y0149808D02*
X0156900Y0149808D01*
X0156900Y0150806D02*
X0171325Y0150806D01*
X0171325Y0151805D02*
X0156900Y0151805D01*
X0156900Y0152803D02*
X0171325Y0152803D01*
X0171325Y0153802D02*
X0156900Y0153802D01*
X0156900Y0154801D02*
X0171325Y0154801D01*
X0171325Y0155799D02*
X0156900Y0155799D01*
X0156900Y0156798D02*
X0171325Y0156798D01*
X0171325Y0157796D02*
X0156900Y0157796D01*
X0156900Y0158795D02*
X0171325Y0158795D01*
X0171325Y0159793D02*
X0156900Y0159793D01*
X0156900Y0160792D02*
X0171325Y0160792D01*
X0171325Y0161790D02*
X0156900Y0161790D01*
X0156900Y0162789D02*
X0171325Y0162789D01*
X0171325Y0163787D02*
X0156900Y0163787D01*
X0156900Y0164786D02*
X0171325Y0164786D01*
X0171325Y0165784D02*
X0156900Y0165784D01*
X0156900Y0166783D02*
X0171325Y0166783D01*
X0171325Y0167781D02*
X0156900Y0167781D01*
X0156900Y0168780D02*
X0171325Y0168780D01*
X0171325Y0169778D02*
X0156900Y0169778D01*
X0156900Y0170777D02*
X0171325Y0170777D01*
X0171325Y0171775D02*
X0156900Y0171775D01*
X0156900Y0172774D02*
X0171325Y0172774D01*
X0171325Y0173772D02*
X0156900Y0173772D01*
X0156900Y0174771D02*
X0171325Y0174771D01*
X0171325Y0175769D02*
X0156900Y0175769D01*
X0156900Y0176768D02*
X0171325Y0176768D01*
X0171325Y0177766D02*
X0156900Y0177766D01*
X0156900Y0178765D02*
X0171325Y0178765D01*
X0171325Y0179763D02*
X0156900Y0179763D01*
X0156425Y0180762D02*
X0171325Y0180762D01*
X0171325Y0181760D02*
X0155427Y0181760D01*
X0154428Y0182759D02*
X0171325Y0182759D01*
X0171325Y0183757D02*
X0153430Y0183757D01*
X0152431Y0184756D02*
X0171325Y0184756D01*
X0170333Y0185754D02*
X0151433Y0185754D01*
X0150434Y0186753D02*
X0169335Y0186753D01*
X0168336Y0187751D02*
X0149436Y0187751D01*
X0148437Y0188750D02*
X0167338Y0188750D01*
X0166339Y0189748D02*
X0046511Y0189748D01*
X0045513Y0188750D02*
X0127563Y0188750D01*
X0126564Y0187751D02*
X0044514Y0187751D01*
X0043516Y0186753D02*
X0125566Y0186753D01*
X0124600Y0185754D02*
X0042517Y0185754D01*
X0041600Y0184756D02*
X0053393Y0184756D01*
X0052395Y0183757D02*
X0041600Y0183757D01*
X0041600Y0182759D02*
X0051400Y0182759D01*
X0051400Y0181760D02*
X0041600Y0181760D01*
X0041600Y0180762D02*
X0051400Y0180762D01*
X0051400Y0179763D02*
X0041600Y0179763D01*
X0041600Y0178765D02*
X0051400Y0178765D01*
X0051400Y0177766D02*
X0041600Y0177766D01*
X0041600Y0176768D02*
X0051400Y0176768D01*
X0051400Y0175769D02*
X0041600Y0175769D01*
X0041600Y0174771D02*
X0051400Y0174771D01*
X0051400Y0173772D02*
X0041600Y0173772D01*
X0041600Y0172774D02*
X0051400Y0172774D01*
X0051400Y0171775D02*
X0044977Y0171775D01*
X0043023Y0171775D02*
X0041600Y0171775D01*
X0041600Y0170777D02*
X0042024Y0170777D01*
X0041700Y0169778D02*
X0041600Y0169778D01*
X0041600Y0168780D02*
X0041700Y0168780D01*
X0041600Y0167781D02*
X0042466Y0167781D01*
X0053000Y0169500D02*
X0053000Y0112000D01*
X0054600Y0119853D02*
X0055895Y0119853D01*
X0054896Y0120851D02*
X0054600Y0120851D01*
X0054600Y0121850D02*
X0054700Y0121850D01*
X0054700Y0122848D02*
X0054600Y0122848D01*
X0054600Y0123847D02*
X0055400Y0123847D01*
X0055400Y0124845D02*
X0054600Y0124845D01*
X0054600Y0125844D02*
X0055400Y0125844D01*
X0055400Y0126842D02*
X0054600Y0126842D01*
X0054600Y0127841D02*
X0055400Y0127841D01*
X0055400Y0128839D02*
X0054600Y0128839D01*
X0054600Y0129838D02*
X0055400Y0129838D01*
X0055400Y0130836D02*
X0054600Y0130836D01*
X0054600Y0131835D02*
X0055400Y0131835D01*
X0055400Y0132833D02*
X0054600Y0132833D01*
X0054600Y0133832D02*
X0055400Y0133832D01*
X0055400Y0134830D02*
X0054600Y0134830D01*
X0054600Y0135829D02*
X0055400Y0135829D01*
X0055400Y0136827D02*
X0054600Y0136827D01*
X0054600Y0137826D02*
X0055400Y0137826D01*
X0055400Y0138824D02*
X0054600Y0138824D01*
X0054600Y0139823D02*
X0055400Y0139823D01*
X0055400Y0140821D02*
X0054600Y0140821D01*
X0054600Y0141820D02*
X0055400Y0141820D01*
X0055400Y0142818D02*
X0054600Y0142818D01*
X0054600Y0143817D02*
X0055400Y0143817D01*
X0055400Y0144815D02*
X0054600Y0144815D01*
X0054600Y0145814D02*
X0055400Y0145814D01*
X0055400Y0146812D02*
X0054600Y0146812D01*
X0054600Y0147811D02*
X0055400Y0147811D01*
X0055400Y0148809D02*
X0054600Y0148809D01*
X0054600Y0149808D02*
X0055400Y0149808D01*
X0055400Y0150806D02*
X0054600Y0150806D01*
X0054600Y0151805D02*
X0055400Y0151805D01*
X0055400Y0152803D02*
X0054600Y0152803D01*
X0054600Y0153802D02*
X0055400Y0153802D01*
X0055400Y0154801D02*
X0054600Y0154801D01*
X0054600Y0155799D02*
X0055400Y0155799D01*
X0055400Y0156798D02*
X0054600Y0156798D01*
X0054600Y0157796D02*
X0055400Y0157796D01*
X0055400Y0158795D02*
X0054600Y0158795D01*
X0054600Y0159793D02*
X0055400Y0159793D01*
X0055400Y0160792D02*
X0054600Y0160792D01*
X0054600Y0161790D02*
X0055400Y0161790D01*
X0055400Y0162789D02*
X0054600Y0162789D01*
X0054600Y0163787D02*
X0055400Y0163787D01*
X0055400Y0164786D02*
X0054600Y0164786D01*
X0054600Y0165784D02*
X0055400Y0165784D01*
X0055400Y0166783D02*
X0054600Y0166783D01*
X0054600Y0167781D02*
X0055400Y0167781D01*
X0055400Y0168780D02*
X0054600Y0168780D01*
X0054600Y0169778D02*
X0055400Y0169778D01*
X0055400Y0170777D02*
X0054600Y0170777D01*
X0054600Y0171775D02*
X0055400Y0171775D01*
X0055400Y0172774D02*
X0054600Y0172774D01*
X0054600Y0173772D02*
X0055400Y0173772D01*
X0055400Y0174771D02*
X0054600Y0174771D01*
X0054600Y0175769D02*
X0055400Y0175769D01*
X0055400Y0176768D02*
X0054600Y0176768D01*
X0054600Y0177766D02*
X0055400Y0177766D01*
X0054700Y0178765D02*
X0054600Y0178765D01*
X0054600Y0179763D02*
X0054700Y0179763D01*
X0054600Y0180762D02*
X0055009Y0180762D01*
X0054923Y0181760D02*
X0056008Y0181760D01*
X0057992Y0181760D02*
X0119508Y0181760D01*
X0122708Y0181760D02*
X0123388Y0181760D01*
X0123388Y0180762D02*
X0122707Y0180762D01*
X0122706Y0179763D02*
X0123388Y0179763D01*
X0123388Y0178765D02*
X0122705Y0178765D01*
X0123164Y0177766D02*
X0123698Y0177766D01*
X0124163Y0176768D02*
X0124600Y0176768D01*
X0124600Y0175769D02*
X0124171Y0175769D01*
X0123827Y0174771D02*
X0124584Y0174771D01*
X0128400Y0174771D02*
X0153100Y0174771D01*
X0153100Y0175769D02*
X0128400Y0175769D01*
X0128400Y0176768D02*
X0153100Y0176768D01*
X0153100Y0177766D02*
X0136802Y0177766D01*
X0137012Y0178765D02*
X0153048Y0178765D01*
X0152050Y0179763D02*
X0137012Y0179763D01*
X0137012Y0181760D02*
X0150053Y0181760D01*
X0151051Y0180762D02*
X0133831Y0180762D01*
X0133831Y0181760D02*
X0132862Y0181760D01*
X0132862Y0182759D02*
X0133831Y0182759D01*
X0133831Y0183757D02*
X0132862Y0183757D01*
X0130413Y0183757D02*
X0128400Y0183757D01*
X0128943Y0184756D02*
X0147057Y0184756D01*
X0148056Y0183757D02*
X0136279Y0183757D01*
X0136987Y0182759D02*
X0149054Y0182759D01*
X0153100Y0173772D02*
X0128400Y0173772D01*
X0127961Y0172774D02*
X0153100Y0172774D01*
X0153100Y0171775D02*
X0126962Y0171775D01*
X0125964Y0170777D02*
X0131241Y0170777D01*
X0130888Y0169778D02*
X0123278Y0169778D01*
X0124171Y0168780D02*
X0130888Y0168780D01*
X0130888Y0167781D02*
X0124171Y0167781D01*
X0123713Y0166783D02*
X0130888Y0166783D01*
X0130888Y0165784D02*
X0098112Y0165784D01*
X0098112Y0166783D02*
X0106287Y0166783D01*
X0105829Y0167781D02*
X0098112Y0167781D01*
X0098112Y0168780D02*
X0105829Y0168780D01*
X0106722Y0169778D02*
X0098112Y0169778D01*
X0097759Y0170777D02*
X0105763Y0170777D01*
X0105500Y0171500D02*
X0105500Y0172500D01*
X0109500Y0172500D01*
X0109500Y0171500D01*
X0105500Y0171500D01*
X0105500Y0171775D02*
X0109500Y0171775D01*
X0106213Y0173772D02*
X0058600Y0173772D01*
X0058600Y0172774D02*
X0105553Y0172774D01*
X0105429Y0171775D02*
X0058600Y0171775D01*
X0058600Y0170777D02*
X0084723Y0170777D01*
X0084488Y0169778D02*
X0058600Y0169778D01*
X0058600Y0168780D02*
X0084488Y0168780D01*
X0084488Y0166783D02*
X0058600Y0166783D01*
X0058600Y0167781D02*
X0087669Y0167781D01*
X0087669Y0166783D02*
X0088638Y0166783D01*
X0088638Y0165784D02*
X0087669Y0165784D01*
X0087669Y0164786D02*
X0088638Y0164786D01*
X0091161Y0164786D02*
X0093215Y0164786D01*
X0093215Y0163787D02*
X0058600Y0163787D01*
X0058600Y0162789D02*
X0093215Y0162789D01*
X0093215Y0161790D02*
X0058600Y0161790D01*
X0058600Y0160792D02*
X0093215Y0160792D01*
X0093215Y0159793D02*
X0058600Y0159793D01*
X0058600Y0158795D02*
X0093215Y0158795D01*
X0096415Y0158795D02*
X0132585Y0158795D01*
X0132585Y0159793D02*
X0096415Y0159793D01*
X0096415Y0160792D02*
X0132585Y0160792D01*
X0132585Y0161790D02*
X0096415Y0161790D01*
X0096415Y0162789D02*
X0132585Y0162789D01*
X0132585Y0163787D02*
X0096415Y0163787D01*
X0096415Y0164786D02*
X0132585Y0164786D01*
X0135785Y0164786D02*
X0137839Y0164786D01*
X0135785Y0163787D02*
X0153100Y0163787D01*
X0153100Y0162789D02*
X0135785Y0162789D01*
X0135785Y0161790D02*
X0153100Y0161790D01*
X0153100Y0160792D02*
X0135785Y0160792D01*
X0135785Y0159793D02*
X0153100Y0159793D01*
X0153100Y0158795D02*
X0135785Y0158795D01*
X0140362Y0164786D02*
X0141331Y0164786D01*
X0141331Y0165784D02*
X0140362Y0165784D01*
X0140362Y0166783D02*
X0141331Y0166783D01*
X0141331Y0167781D02*
X0153100Y0167781D01*
X0153100Y0166783D02*
X0144512Y0166783D01*
X0144498Y0165784D02*
X0153100Y0165784D01*
X0153100Y0164786D02*
X0143854Y0164786D01*
X0144512Y0168780D02*
X0153100Y0168780D01*
X0153100Y0169778D02*
X0144512Y0169778D01*
X0144277Y0170777D02*
X0153100Y0170777D01*
X0141331Y0170777D02*
X0140362Y0170777D01*
X0140362Y0169778D02*
X0141331Y0169778D01*
X0141331Y0168780D02*
X0140362Y0168780D01*
X0137416Y0170777D02*
X0137066Y0170777D01*
X0134185Y0167969D02*
X0134185Y0152500D01*
X0134000Y0152685D01*
X0134185Y0152500D02*
X0134185Y0144185D01*
X0128000Y0138000D01*
X0121000Y0138000D01*
X0115500Y0132500D01*
X0115500Y0128236D01*
X0115484Y0128220D01*
X0113516Y0128220D02*
X0113500Y0128236D01*
X0113500Y0132500D01*
X0108000Y0138000D01*
X0101500Y0138000D01*
X0094815Y0144685D01*
X0094815Y0152500D01*
X0094815Y0167969D01*
X0094846Y0168000D01*
X0091934Y0170777D02*
X0091584Y0170777D01*
X0088638Y0170777D02*
X0087669Y0170777D01*
X0087669Y0169778D02*
X0088638Y0169778D01*
X0088638Y0168780D02*
X0087669Y0168780D01*
X0084502Y0165784D02*
X0058600Y0165784D01*
X0058600Y0164786D02*
X0085146Y0164786D01*
X0081904Y0157796D02*
X0058600Y0157796D01*
X0058600Y0156798D02*
X0081904Y0156798D01*
X0081904Y0155799D02*
X0058600Y0155799D01*
X0058600Y0154801D02*
X0081904Y0154801D01*
X0081904Y0153802D02*
X0058600Y0153802D01*
X0058600Y0152803D02*
X0081904Y0152803D01*
X0081904Y0151805D02*
X0058600Y0151805D01*
X0058600Y0150806D02*
X0081904Y0150806D01*
X0081904Y0149808D02*
X0058600Y0149808D01*
X0058600Y0148809D02*
X0081904Y0148809D01*
X0081904Y0147811D02*
X0058600Y0147811D01*
X0058600Y0146812D02*
X0082215Y0146812D01*
X0083085Y0138824D02*
X0058600Y0138824D01*
X0058600Y0137826D02*
X0073639Y0137826D01*
X0072640Y0136827D02*
X0058600Y0136827D01*
X0058600Y0135829D02*
X0071642Y0135829D01*
X0070643Y0134830D02*
X0058600Y0134830D01*
X0058600Y0133832D02*
X0069645Y0133832D01*
X0070213Y0134400D02*
X0070213Y0134400D01*
X0069100Y0132833D02*
X0058600Y0132833D01*
X0058600Y0131835D02*
X0069100Y0131835D01*
X0069100Y0130836D02*
X0058600Y0130836D01*
X0058600Y0129838D02*
X0069100Y0129838D01*
X0069100Y0128839D02*
X0058600Y0128839D01*
X0058600Y0127841D02*
X0069100Y0127841D01*
X0069100Y0126842D02*
X0058600Y0126842D01*
X0058600Y0125844D02*
X0069100Y0125844D01*
X0072900Y0125844D02*
X0082653Y0125844D01*
X0082488Y0126842D02*
X0072900Y0126842D01*
X0072900Y0127841D02*
X0082488Y0127841D01*
X0082488Y0129838D02*
X0072900Y0129838D01*
X0072900Y0130836D02*
X0082534Y0130836D01*
X0083355Y0131835D02*
X0073022Y0131835D01*
X0074020Y0132833D02*
X0090946Y0132833D01*
X0090946Y0131835D02*
X0088952Y0131835D01*
X0089175Y0133832D02*
X0089825Y0133832D01*
X0089778Y0134830D02*
X0089222Y0134830D01*
X0089222Y0135829D02*
X0089778Y0135829D01*
X0089778Y0136827D02*
X0089222Y0136827D01*
X0089222Y0137826D02*
X0089778Y0137826D01*
X0089778Y0138824D02*
X0089222Y0138824D01*
X0093420Y0143817D02*
X0058600Y0143817D01*
X0058600Y0144815D02*
X0093215Y0144815D01*
X0093215Y0145814D02*
X0058600Y0145814D01*
X0058600Y0142818D02*
X0094419Y0142818D01*
X0095417Y0141820D02*
X0058600Y0141820D01*
X0058600Y0140821D02*
X0096416Y0140821D01*
X0097414Y0139823D02*
X0058600Y0139823D01*
X0072900Y0128839D02*
X0085669Y0128839D01*
X0085669Y0127841D02*
X0086638Y0127841D01*
X0086638Y0126842D02*
X0085669Y0126842D01*
X0085669Y0125844D02*
X0086638Y0125844D01*
X0085760Y0124845D02*
X0084760Y0124845D01*
X0084760Y0123847D02*
X0085760Y0123847D01*
X0085760Y0122848D02*
X0084760Y0122848D01*
X0084760Y0121850D02*
X0085760Y0121850D01*
X0084760Y0120851D02*
X0072900Y0120851D01*
X0072900Y0119853D02*
X0081201Y0119853D01*
X0081201Y0118854D02*
X0073764Y0118854D01*
X0073881Y0117856D02*
X0081201Y0117856D01*
X0081367Y0116857D02*
X0073881Y0116857D01*
X0073881Y0115859D02*
X0088106Y0115859D01*
X0087500Y0114000D02*
X0085346Y0111846D01*
X0062000Y0111846D01*
X0058735Y0102878D02*
X0056265Y0102878D01*
X0051400Y0091894D02*
X0049197Y0091894D01*
X0066101Y0078914D02*
X0066947Y0078914D01*
X0067022Y0077915D02*
X0065900Y0077915D01*
X0065900Y0076917D02*
X0066547Y0076917D01*
X0066547Y0075918D02*
X0065900Y0075918D01*
X0066547Y0074920D02*
X0065107Y0074920D01*
X0064108Y0073921D02*
X0070500Y0073921D01*
X0070500Y0072923D02*
X0071500Y0072923D01*
X0071500Y0073921D02*
X0211350Y0073921D01*
X0211350Y0072923D02*
X0075453Y0072923D01*
X0075453Y0071924D02*
X0211350Y0071924D01*
X0211350Y0070926D02*
X0075237Y0070926D01*
X0075453Y0074920D02*
X0211350Y0074920D01*
X0211350Y0075918D02*
X0075453Y0075918D01*
X0075453Y0076917D02*
X0211350Y0076917D01*
X0211350Y0077915D02*
X0074978Y0077915D01*
X0075053Y0078914D02*
X0211350Y0078914D01*
X0211350Y0079912D02*
X0075053Y0079912D01*
X0071500Y0071924D02*
X0070500Y0071924D01*
X0070500Y0070926D02*
X0071500Y0070926D01*
X0066547Y0072923D02*
X0061872Y0072923D01*
X0096500Y0108500D02*
X0099000Y0108500D01*
X0100000Y0109500D01*
X0100000Y0118500D01*
X0101984Y0120484D01*
X0105780Y0120484D01*
X0105780Y0122453D02*
X0099453Y0122453D01*
X0098000Y0121000D01*
X0098000Y0118000D01*
X0096500Y0116500D01*
X0096500Y0114000D01*
X0096399Y0118662D02*
X0096399Y0123908D01*
X0095755Y0124553D01*
X0094900Y0124553D01*
X0094900Y0125431D01*
X0095467Y0125431D01*
X0096112Y0126076D01*
X0096112Y0126600D01*
X0102287Y0126600D01*
X0103400Y0127713D01*
X0106787Y0131100D01*
X0108304Y0131100D01*
X0107849Y0130645D01*
X0107849Y0126551D01*
X0105780Y0126551D01*
X0105780Y0124421D01*
X0105779Y0124421D01*
X0102311Y0124421D01*
X0102311Y0124053D01*
X0098790Y0124053D01*
X0097337Y0122600D01*
X0096400Y0121663D01*
X0096400Y0118663D01*
X0096399Y0118662D01*
X0096399Y0118854D02*
X0096400Y0118854D01*
X0096399Y0119853D02*
X0096400Y0119853D01*
X0096399Y0120851D02*
X0096400Y0120851D01*
X0096399Y0121850D02*
X0096587Y0121850D01*
X0096399Y0122848D02*
X0097585Y0122848D01*
X0098584Y0123847D02*
X0096399Y0123847D01*
X0094900Y0124845D02*
X0102311Y0124845D01*
X0102300Y0124845D02*
X0107800Y0124845D01*
X0107800Y0124700D02*
X0102300Y0124700D01*
X0102300Y0126200D01*
X0107800Y0126200D01*
X0107800Y0124700D01*
X0108000Y0124500D02*
X0110000Y0122500D01*
X0111269Y0121654D01*
X0111615Y0122000D01*
X0112000Y0122000D01*
X0111269Y0121654D02*
X0114500Y0119500D01*
X0108000Y0124500D02*
X0105858Y0124500D01*
X0105843Y0124498D01*
X0105828Y0124494D01*
X0105814Y0124487D01*
X0105802Y0124477D01*
X0105792Y0124465D01*
X0105785Y0124451D01*
X0105781Y0124436D01*
X0105779Y0124421D01*
X0105779Y0124421D01*
X0102311Y0124421D01*
X0102311Y0125249D01*
X0102413Y0125630D01*
X0102611Y0125972D01*
X0102890Y0126251D01*
X0103232Y0126449D01*
X0103614Y0126551D01*
X0105779Y0126551D01*
X0105779Y0124421D01*
X0105779Y0124845D02*
X0105780Y0124845D01*
X0105779Y0125844D02*
X0105780Y0125844D01*
X0107800Y0125844D02*
X0102300Y0125844D01*
X0102537Y0125844D02*
X0095880Y0125844D01*
X0092846Y0128500D02*
X0092846Y0120606D01*
X0092740Y0120500D01*
X0091100Y0124845D02*
X0088407Y0124845D01*
X0089654Y0125844D02*
X0089813Y0125844D01*
X0086638Y0129838D02*
X0085669Y0129838D01*
X0085669Y0130836D02*
X0086638Y0130836D01*
X0086638Y0131835D02*
X0085669Y0131835D01*
X0083132Y0133832D02*
X0075019Y0133832D01*
X0072900Y0124845D02*
X0082113Y0124845D01*
X0081253Y0123847D02*
X0072900Y0123847D01*
X0072900Y0122848D02*
X0081201Y0122848D01*
X0081201Y0121850D02*
X0072900Y0121850D01*
X0073881Y0114860D02*
X0086097Y0114860D01*
X0085099Y0113862D02*
X0073479Y0113862D01*
X0084760Y0116857D02*
X0085760Y0116857D01*
X0085760Y0117856D02*
X0084760Y0117856D01*
X0084760Y0118854D02*
X0085760Y0118854D01*
X0085760Y0119853D02*
X0084760Y0119853D01*
X0087500Y0114000D02*
X0089500Y0114000D01*
X0102529Y0126842D02*
X0107849Y0126842D01*
X0107849Y0127841D02*
X0103528Y0127841D01*
X0103400Y0127713D02*
X0103400Y0127713D01*
X0104526Y0128839D02*
X0107849Y0128839D01*
X0107849Y0129838D02*
X0105525Y0129838D01*
X0106523Y0130836D02*
X0108040Y0130836D01*
X0104145Y0133832D02*
X0095868Y0133832D01*
X0095915Y0134830D02*
X0105143Y0134830D01*
X0103146Y0132833D02*
X0094746Y0132833D01*
X0094746Y0131835D02*
X0102148Y0131835D01*
X0101149Y0130836D02*
X0096112Y0130836D01*
X0095915Y0135829D02*
X0107908Y0135829D01*
X0110437Y0137826D02*
X0118563Y0137826D01*
X0119562Y0138824D02*
X0109438Y0138824D01*
X0111435Y0136827D02*
X0117565Y0136827D01*
X0116566Y0135829D02*
X0112434Y0135829D01*
X0113432Y0134830D02*
X0115568Y0134830D01*
X0114569Y0133832D02*
X0114431Y0133832D01*
X0117100Y0131835D02*
X0125900Y0131835D01*
X0125900Y0132833D02*
X0118096Y0132833D01*
X0119095Y0133832D02*
X0126569Y0133832D01*
X0127568Y0134830D02*
X0120093Y0134830D01*
X0121092Y0135829D02*
X0128566Y0135829D01*
X0129090Y0136827D02*
X0129565Y0136827D01*
X0130089Y0137826D02*
X0130563Y0137826D01*
X0131087Y0138824D02*
X0134085Y0138824D01*
X0133084Y0140821D02*
X0152119Y0140821D01*
X0152119Y0139823D02*
X0132086Y0139823D01*
X0134083Y0141820D02*
X0152119Y0141820D01*
X0152119Y0142818D02*
X0135081Y0142818D01*
X0135785Y0143817D02*
X0152199Y0143817D01*
X0153100Y0144815D02*
X0135785Y0144815D01*
X0135785Y0145814D02*
X0153100Y0145814D01*
X0153100Y0146812D02*
X0146785Y0146812D01*
X0147096Y0147811D02*
X0153100Y0147811D01*
X0153100Y0148809D02*
X0147096Y0148809D01*
X0147096Y0149808D02*
X0153100Y0149808D01*
X0153100Y0150806D02*
X0147096Y0150806D01*
X0147096Y0151805D02*
X0153100Y0151805D01*
X0153100Y0152803D02*
X0147096Y0152803D01*
X0147096Y0153802D02*
X0153100Y0153802D01*
X0153100Y0154801D02*
X0147096Y0154801D01*
X0147096Y0155799D02*
X0153100Y0155799D01*
X0153100Y0156798D02*
X0147096Y0156798D01*
X0147096Y0157796D02*
X0153100Y0157796D01*
X0134185Y0167969D02*
X0134154Y0168000D01*
X0133831Y0177766D02*
X0132862Y0177766D01*
X0132862Y0178765D02*
X0133831Y0178765D01*
X0133831Y0179763D02*
X0132862Y0179763D01*
X0129891Y0177766D02*
X0129609Y0177766D01*
X0126654Y0180500D02*
X0126654Y0184846D01*
X0126500Y0185000D01*
X0124600Y0184756D02*
X0121407Y0184756D01*
X0122405Y0183757D02*
X0124600Y0183757D01*
X0123388Y0182759D02*
X0122709Y0182759D01*
X0111140Y0177766D02*
X0110959Y0177766D01*
X0109228Y0176000D02*
X0108898Y0175937D01*
X0109228Y0176000D02*
X0105500Y0176000D01*
X0102000Y0179500D01*
X0101471Y0177766D02*
X0058600Y0177766D01*
X0058600Y0176768D02*
X0102469Y0176768D01*
X0103468Y0175769D02*
X0058600Y0175769D01*
X0058600Y0174771D02*
X0104467Y0174771D01*
X0105996Y0177766D02*
X0106836Y0177766D01*
X0107726Y0157796D02*
X0121274Y0157796D01*
X0121274Y0156798D02*
X0107726Y0156798D01*
X0107726Y0155799D02*
X0121274Y0155799D01*
X0121274Y0154801D02*
X0107726Y0154801D01*
X0107726Y0153802D02*
X0121274Y0153802D01*
X0121274Y0152803D02*
X0107726Y0152803D01*
X0107726Y0151805D02*
X0121274Y0151805D01*
X0121274Y0150806D02*
X0107726Y0150806D01*
X0107726Y0149808D02*
X0121274Y0149808D01*
X0121274Y0148809D02*
X0107726Y0148809D01*
X0107726Y0147811D02*
X0121274Y0147811D01*
X0121585Y0146812D02*
X0107415Y0146812D01*
X0100941Y0140821D02*
X0128559Y0140821D01*
X0129557Y0141820D02*
X0099943Y0141820D01*
X0098944Y0142818D02*
X0130556Y0142818D01*
X0131554Y0143817D02*
X0097946Y0143817D01*
X0096947Y0144815D02*
X0132553Y0144815D01*
X0132585Y0145814D02*
X0096415Y0145814D01*
X0094815Y0152500D02*
X0095000Y0152685D01*
X0101940Y0139823D02*
X0127560Y0139823D01*
X0131500Y0136500D02*
X0137154Y0136500D01*
X0140222Y0136827D02*
X0140778Y0136827D01*
X0140778Y0135829D02*
X0140222Y0135829D01*
X0140222Y0134830D02*
X0140778Y0134830D01*
X0140825Y0133832D02*
X0140175Y0133832D01*
X0141048Y0131835D02*
X0129100Y0131835D01*
X0129100Y0130836D02*
X0133888Y0130836D01*
X0131075Y0129838D02*
X0129100Y0129838D01*
X0129100Y0128839D02*
X0130077Y0128839D01*
X0130500Y0127000D02*
X0132000Y0128500D01*
X0137000Y0128500D01*
X0137000Y0126000D01*
X0138500Y0124500D01*
X0137154Y0120500D02*
X0123236Y0120500D01*
X0123220Y0120484D01*
X0123220Y0118516D02*
X0128484Y0118516D01*
X0130500Y0116500D01*
X0130500Y0114000D01*
X0132000Y0112500D01*
X0137000Y0112500D01*
X0137154Y0112500D01*
X0144331Y0112863D02*
X0153100Y0112863D01*
X0153100Y0111865D02*
X0147512Y0111865D01*
X0147512Y0112016D02*
X0147512Y0110400D01*
X0152119Y0110400D01*
X0152119Y0110737D01*
X0152763Y0111381D01*
X0153100Y0111381D01*
X0153100Y0114600D01*
X0147512Y0114600D01*
X0147512Y0112984D01*
X0144331Y0112984D01*
X0144331Y0112016D01*
X0147512Y0112016D01*
X0147512Y0110866D02*
X0152248Y0110866D01*
X0153100Y0113862D02*
X0147512Y0113862D01*
X0147512Y0118400D02*
X0153100Y0118400D01*
X0153100Y0122600D01*
X0147512Y0122600D01*
X0147512Y0120984D01*
X0144331Y0120984D01*
X0144331Y0120016D01*
X0147512Y0120016D01*
X0147512Y0118400D01*
X0147512Y0118854D02*
X0153100Y0118854D01*
X0153100Y0119853D02*
X0147512Y0119853D01*
X0147512Y0121850D02*
X0153100Y0121850D01*
X0153100Y0120851D02*
X0144331Y0120851D01*
X0147512Y0126842D02*
X0153100Y0126842D01*
X0153100Y0127841D02*
X0147512Y0127841D01*
X0147512Y0129838D02*
X0152119Y0129838D01*
X0152119Y0130836D02*
X0147466Y0130836D01*
X0146645Y0131835D02*
X0152119Y0131835D01*
X0152119Y0132833D02*
X0130096Y0132833D01*
X0131095Y0133832D02*
X0134132Y0133832D01*
X0134085Y0134830D02*
X0132093Y0134830D01*
X0131500Y0136500D02*
X0127500Y0132500D01*
X0127500Y0125500D01*
X0126421Y0124421D01*
X0123220Y0124421D01*
X0123220Y0122453D02*
X0128453Y0122453D01*
X0130500Y0124500D01*
X0130500Y0127000D01*
X0125900Y0126842D02*
X0121151Y0126842D01*
X0121151Y0127841D02*
X0125900Y0127841D01*
X0125900Y0128839D02*
X0121151Y0128839D01*
X0121151Y0129838D02*
X0125900Y0129838D01*
X0125900Y0130836D02*
X0120960Y0130836D01*
X0123220Y0116547D02*
X0126453Y0116547D01*
X0127500Y0115500D01*
X0127500Y0109000D01*
X0132000Y0104500D01*
X0137154Y0104500D01*
X0143846Y0104500D02*
X0166000Y0104500D01*
X0171543Y0104500D01*
X0174000Y0106957D01*
X0172400Y0107870D02*
X0167270Y0107870D01*
X0168719Y0106872D02*
X0171653Y0106872D01*
X0172400Y0108869D02*
X0157881Y0108869D01*
X0157881Y0109868D02*
X0172400Y0109868D01*
X0172400Y0110866D02*
X0157752Y0110866D01*
X0156900Y0111865D02*
X0172400Y0111865D01*
X0172400Y0112863D02*
X0156900Y0112863D01*
X0156900Y0113862D02*
X0172400Y0113862D01*
X0172400Y0114860D02*
X0156900Y0114860D01*
X0156900Y0115859D02*
X0172400Y0115859D01*
X0172400Y0116857D02*
X0156900Y0116857D01*
X0156900Y0117856D02*
X0173093Y0117856D01*
X0174091Y0118854D02*
X0156900Y0118854D01*
X0156900Y0119853D02*
X0175090Y0119853D01*
X0176088Y0120851D02*
X0156900Y0120851D01*
X0156900Y0123847D02*
X0211350Y0123847D01*
X0211350Y0124845D02*
X0156900Y0124845D01*
X0153100Y0128839D02*
X0144331Y0128839D01*
X0144331Y0129838D02*
X0143362Y0129838D01*
X0143362Y0130836D02*
X0144331Y0130836D01*
X0144331Y0131835D02*
X0143362Y0131835D01*
X0146868Y0133832D02*
X0152119Y0133832D01*
X0152712Y0134830D02*
X0146915Y0134830D01*
X0146915Y0138824D02*
X0152558Y0138824D01*
X0140778Y0138824D02*
X0140222Y0138824D01*
X0140222Y0137826D02*
X0140778Y0137826D01*
X0137154Y0128500D02*
X0137000Y0128500D01*
X0117453Y0110780D02*
X0117453Y0105953D01*
X0114500Y0103000D01*
X0114500Y0098000D01*
X0115500Y0097000D01*
X0119984Y0093891D02*
X0134085Y0093891D01*
X0134085Y0094890D02*
X0122968Y0094890D01*
X0112900Y0102878D02*
X0112565Y0102878D01*
X0100410Y0136827D02*
X0095915Y0136827D01*
X0095915Y0137826D02*
X0099411Y0137826D01*
X0098413Y0138824D02*
X0095915Y0138824D01*
X0047510Y0190747D02*
X0165341Y0190747D01*
X0189642Y0199734D02*
X0039209Y0199734D01*
X0039547Y0200732D02*
X0189303Y0200732D01*
X0189303Y0201731D02*
X0039547Y0201731D01*
X0039547Y0202729D02*
X0189303Y0202729D01*
X0189334Y0203728D02*
X0039517Y0203728D01*
X0039103Y0204726D02*
X0189747Y0204726D01*
X0190161Y0205725D02*
X0038689Y0205725D01*
X0038157Y0206723D02*
X0190693Y0206723D01*
X0191692Y0207722D02*
X0037159Y0207722D01*
X0036152Y0208720D02*
X0192699Y0208720D01*
X0195109Y0209719D02*
X0033741Y0209719D01*
X0027792Y0215710D02*
X0201059Y0215710D01*
X0202057Y0214711D02*
X0026793Y0214711D01*
X0025795Y0213713D02*
X0203056Y0213713D01*
X0204054Y0212714D02*
X0024796Y0212714D01*
X0023798Y0211716D02*
X0205053Y0211716D01*
X0190055Y0198735D02*
X0038795Y0198735D01*
X0038381Y0197737D02*
X0190469Y0197737D01*
X0191437Y0196738D02*
X0037413Y0196738D01*
X0036415Y0195739D02*
X0192435Y0195739D01*
X0194494Y0194741D02*
X0034356Y0194741D01*
X0020423Y0152803D02*
X0017500Y0152803D01*
X0017500Y0151805D02*
X0019424Y0151805D01*
X0018977Y0150806D02*
X0017500Y0150806D01*
X0017500Y0149808D02*
X0018743Y0149808D01*
X0018743Y0148809D02*
X0017500Y0148809D01*
X0017500Y0147811D02*
X0019073Y0147811D01*
X0019657Y0146812D02*
X0017500Y0146812D01*
X0017500Y0145814D02*
X0020847Y0145814D01*
X0025343Y0143817D02*
X0026342Y0143817D01*
X0026342Y0142818D02*
X0025343Y0142818D01*
X0025343Y0141820D02*
X0026342Y0141820D01*
X0026342Y0138824D02*
X0025343Y0138824D01*
X0025343Y0137826D02*
X0026342Y0137826D01*
X0026342Y0136827D02*
X0025343Y0136827D01*
X0025343Y0135829D02*
X0026342Y0135829D01*
X0020137Y0135829D02*
X0017500Y0135829D01*
X0017500Y0136827D02*
X0019168Y0136827D01*
X0018631Y0137826D02*
X0017500Y0137826D01*
X0017500Y0138824D02*
X0018382Y0138824D01*
X0017500Y0132833D02*
X0020452Y0132833D01*
X0019454Y0131835D02*
X0017500Y0131835D01*
X0017500Y0130836D02*
X0018989Y0130836D01*
X0018743Y0129838D02*
X0017500Y0129838D01*
X0017500Y0128839D02*
X0018743Y0128839D01*
X0019061Y0127841D02*
X0017500Y0127841D01*
X0017500Y0126842D02*
X0019627Y0126842D01*
X0020775Y0125844D02*
X0017500Y0125844D01*
X0113316Y0064934D02*
X0114284Y0064934D01*
X0114284Y0063936D02*
X0113316Y0063936D01*
X0113316Y0062937D02*
X0114284Y0062937D01*
X0114284Y0061939D02*
X0113316Y0061939D01*
X0157881Y0106872D02*
X0163281Y0106872D01*
X0164730Y0107870D02*
X0157881Y0107870D01*
X0171592Y0135829D02*
X0180767Y0135829D01*
X0179768Y0136827D02*
X0172590Y0136827D01*
X0170062Y0138824D02*
X0168267Y0138824D01*
X0166885Y0139823D02*
X0171060Y0139823D01*
X0172925Y0139425D02*
X0182969Y0139425D01*
X0185374Y0142818D02*
X0190563Y0142818D01*
X0189565Y0141820D02*
X0186372Y0141820D01*
X0186166Y0144925D02*
X0186547Y0145027D01*
X0186890Y0145225D01*
X0187169Y0145504D01*
X0187366Y0145846D01*
X0187468Y0146228D01*
X0187468Y0148925D01*
X0183469Y0148925D01*
X0183469Y0149925D01*
X0187468Y0149925D01*
X0187468Y0152623D01*
X0187366Y0153004D01*
X0187169Y0153346D01*
X0186890Y0153625D01*
X0186547Y0153823D01*
X0186166Y0153925D01*
X0183468Y0153925D01*
X0183468Y0149925D01*
X0182469Y0149925D01*
X0182469Y0153925D01*
X0179771Y0153925D01*
X0179390Y0153823D01*
X0179047Y0153625D01*
X0178768Y0153346D01*
X0178571Y0153004D01*
X0178469Y0152623D01*
X0178469Y0149925D01*
X0182468Y0149925D01*
X0182468Y0148925D01*
X0178469Y0148925D01*
X0178469Y0146228D01*
X0178571Y0145846D01*
X0178768Y0145504D01*
X0179047Y0145225D01*
X0179390Y0145027D01*
X0179771Y0144925D01*
X0182469Y0144925D01*
X0182469Y0148925D01*
X0183468Y0148925D01*
X0183468Y0144925D01*
X0186166Y0144925D01*
X0187348Y0145814D02*
X0190216Y0145814D01*
X0189217Y0146812D02*
X0187468Y0146812D01*
X0187468Y0147811D02*
X0188469Y0147811D01*
X0188469Y0148809D02*
X0187468Y0148809D01*
X0187468Y0150806D02*
X0188469Y0150806D01*
X0188984Y0151805D02*
X0187468Y0151805D01*
X0187420Y0152803D02*
X0189983Y0152803D01*
X0190981Y0153802D02*
X0186584Y0153802D01*
X0183468Y0153802D02*
X0182469Y0153802D01*
X0182469Y0152803D02*
X0183468Y0152803D01*
X0183468Y0151805D02*
X0182469Y0151805D01*
X0182469Y0150806D02*
X0183468Y0150806D01*
X0183469Y0149808D02*
X0192468Y0149808D01*
X0192469Y0150806D02*
X0193468Y0150806D01*
X0193468Y0151805D02*
X0192469Y0151805D01*
X0192469Y0152803D02*
X0193468Y0152803D01*
X0193468Y0153802D02*
X0192469Y0153802D01*
X0194956Y0153802D02*
X0200981Y0153802D01*
X0199983Y0152803D02*
X0195954Y0152803D01*
X0196953Y0151805D02*
X0198984Y0151805D01*
X0198469Y0150806D02*
X0197468Y0150806D01*
X0197468Y0148809D02*
X0198469Y0148809D01*
X0198469Y0147811D02*
X0197468Y0147811D01*
X0196720Y0146812D02*
X0199217Y0146812D01*
X0202469Y0146812D02*
X0203468Y0146812D01*
X0203468Y0145814D02*
X0202469Y0145814D01*
X0202469Y0147811D02*
X0203468Y0147811D01*
X0203468Y0148809D02*
X0202469Y0148809D01*
X0202469Y0151805D02*
X0203468Y0151805D01*
X0203468Y0152803D02*
X0202469Y0152803D01*
X0202469Y0153802D02*
X0203468Y0153802D01*
X0207468Y0148809D02*
X0211350Y0148809D01*
X0211350Y0147811D02*
X0207468Y0147811D01*
X0206720Y0146812D02*
X0211350Y0146812D01*
X0211350Y0145814D02*
X0205721Y0145814D01*
X0211350Y0144815D02*
X0174525Y0144815D01*
X0174525Y0143817D02*
X0211350Y0143817D01*
X0183468Y0145814D02*
X0182469Y0145814D01*
X0182469Y0146812D02*
X0183468Y0146812D01*
X0183468Y0147811D02*
X0182469Y0147811D01*
X0182469Y0148809D02*
X0183468Y0148809D01*
X0182468Y0149808D02*
X0174525Y0149808D01*
X0174525Y0150806D02*
X0178469Y0150806D01*
X0178469Y0151805D02*
X0174525Y0151805D01*
X0174525Y0152803D02*
X0178517Y0152803D01*
X0179353Y0153802D02*
X0174525Y0153802D01*
X0174525Y0148809D02*
X0178469Y0148809D01*
X0178469Y0147811D02*
X0174525Y0147811D01*
X0174525Y0146812D02*
X0178469Y0146812D01*
X0178589Y0145814D02*
X0174525Y0145814D01*
X0174525Y0142818D02*
X0180563Y0142818D01*
X0179565Y0141820D02*
X0174525Y0141820D01*
X0207468Y0108869D02*
X0211350Y0108869D01*
X0211350Y0107870D02*
X0207468Y0107870D01*
X0206779Y0106872D02*
X0211350Y0106872D01*
X0211350Y0093891D02*
X0204866Y0093891D01*
X0203468Y0093891D02*
X0202469Y0093891D01*
X0202469Y0092893D02*
X0203468Y0092893D01*
X0203468Y0091894D02*
X0202469Y0091894D01*
X0202469Y0090896D02*
X0203468Y0090896D01*
X0203468Y0087900D02*
X0202469Y0087900D01*
X0202469Y0086902D02*
X0203468Y0086902D01*
X0203468Y0085903D02*
X0202469Y0085903D01*
X0200127Y0085903D02*
X0195810Y0085903D01*
X0196809Y0086902D02*
X0199128Y0086902D01*
X0198469Y0087900D02*
X0197468Y0087900D01*
X0197468Y0088899D02*
X0198469Y0088899D01*
X0198469Y0090896D02*
X0197468Y0090896D01*
X0196863Y0091894D02*
X0199074Y0091894D01*
X0200072Y0092893D02*
X0195865Y0092893D01*
X0205865Y0092893D02*
X0211350Y0092893D01*
X0211350Y0091894D02*
X0206863Y0091894D01*
X0207468Y0090896D02*
X0211350Y0090896D01*
D28*
X0096500Y0108500D03*
X0089500Y0108500D03*
X0089500Y0114000D03*
X0096500Y0114000D03*
X0062000Y0122000D03*
X0057000Y0122000D03*
X0044000Y0169500D03*
X0057000Y0179500D03*
D29*
X0066000Y0188000D03*
X0083000Y0168000D03*
X0103700Y0172100D03*
X0110500Y0188000D03*
X0138000Y0180500D03*
X0146000Y0168000D03*
X0164000Y0165000D03*
X0155000Y0141500D03*
X0155000Y0132000D03*
X0149000Y0128500D03*
X0149000Y0120500D03*
X0149000Y0112500D03*
X0155000Y0108500D03*
X0155000Y0100500D03*
X0155000Y0092000D03*
X0119500Y0088500D03*
X0117000Y0117000D03*
X0117000Y0122000D03*
X0112000Y0122000D03*
X0112000Y0117000D03*
X0081000Y0128500D03*
X0079000Y0120500D03*
X0071000Y0116500D03*
X0071000Y0105500D03*
X0046500Y0125000D03*
X0046500Y0155000D03*
X0069000Y0068500D03*
X0073100Y0068500D03*
D30*
X0064000Y0076500D02*
X0064000Y0079500D01*
X0066000Y0081500D01*
X0070760Y0081500D01*
X0071000Y0081740D01*
X0071260Y0082000D01*
X0148000Y0082000D01*
X0155000Y0089000D01*
X0155000Y0092000D01*
X0155000Y0100500D02*
X0120154Y0100500D01*
X0119500Y0100346D01*
X0119421Y0100346D01*
X0119500Y0093654D02*
X0119500Y0088500D01*
X0111500Y0104500D02*
X0102000Y0104500D01*
X0102000Y0117500D01*
X0103000Y0118500D01*
X0101500Y0128500D02*
X0093000Y0128500D01*
X0093000Y0105000D01*
X0093500Y0104500D01*
X0102000Y0104500D01*
X0111500Y0104500D02*
X0113516Y0106516D01*
X0101500Y0128500D02*
X0106000Y0133000D01*
X0110000Y0133000D01*
X0111547Y0131453D01*
X0093000Y0128500D02*
X0092846Y0128500D01*
X0092846Y0136500D01*
X0086154Y0136500D02*
X0075000Y0136500D01*
X0071000Y0132500D01*
X0071000Y0116500D01*
X0079000Y0120500D02*
X0085260Y0120500D01*
X0086154Y0128500D02*
X0081000Y0128500D01*
X0071000Y0105500D02*
X0071000Y0081740D01*
X0064000Y0076500D02*
X0062350Y0074850D01*
X0059000Y0074850D01*
X0059000Y0081150D02*
X0059000Y0087500D01*
X0057075Y0089425D01*
X0053000Y0089425D01*
X0025843Y0089425D01*
X0083000Y0168000D02*
X0088154Y0168000D01*
X0121102Y0172000D02*
X0124500Y0172000D01*
X0126500Y0174000D01*
X0126500Y0185000D01*
X0128500Y0187000D01*
X0147500Y0187000D01*
X0155000Y0179500D01*
X0155000Y0141500D01*
X0155000Y0132000D02*
X0155000Y0124500D01*
X0155000Y0116500D01*
X0138000Y0116500D01*
X0137000Y0117500D01*
X0137000Y0120346D01*
X0137154Y0120500D01*
X0138500Y0124500D02*
X0137154Y0125846D01*
X0137154Y0128500D01*
X0138500Y0124500D02*
X0155000Y0124500D01*
X0149000Y0128500D02*
X0143846Y0128500D01*
X0143846Y0120500D02*
X0149000Y0120500D01*
X0155000Y0116500D02*
X0155000Y0108500D01*
X0138500Y0108500D01*
X0137000Y0110000D01*
X0137000Y0112500D01*
X0143846Y0112500D02*
X0149000Y0112500D01*
X0146000Y0168000D02*
X0140846Y0168000D01*
D31*
X0106200Y0127500D03*
D32*
X0111547Y0128220D02*
X0111547Y0131453D01*
X0105764Y0118500D02*
X0103000Y0118500D01*
X0113516Y0110780D02*
X0113516Y0106516D01*
X0119421Y0110780D02*
X0119421Y0100346D01*
M02*
