%
M48
M72
T01C0.01200
T02C0.02200
T03C0.02362
T04C0.03937
T05C0.04000
T06C0.12598
%
T01
X89500Y108500
X96500Y108500
X96500Y114000
X89500Y114000
X62000Y122000
X57000Y122000
X44000Y169500
X57000Y179500
T02
X106200Y127500
T03
X69000Y68500
X73100Y68500
X71000Y105500
X71000Y116500
X79000Y120500
X81000Y128500
X112000Y122000
X112000Y117000
X117000Y117000
X117000Y122000
X149000Y120500
X149000Y128500
X155000Y132000
X155000Y141500
X164000Y165000
X146000Y168000
X138000Y180500
X110500Y188000
X103700Y172100
X83000Y168000
X66000Y188000
X46500Y155000
X46500Y125000
X119500Y88500
X149000Y112500
X155000Y108500
X155000Y100500
X155000Y92000
T04
X113800Y60900
T05
X25843Y59425
X25843Y69425
X25843Y79425
X25843Y89425
X25843Y99425
X25843Y109425
X25843Y129425
X25843Y139425
X25843Y149425
X25843Y159425
X25843Y169425
X25843Y179425
X182969Y149425
X192969Y149425
X202969Y149425
X202969Y139425
X192969Y139425
X182969Y139425
X182969Y129425
X192969Y129425
X202969Y129425
X202969Y119425
X202969Y109425
X202969Y99425
X192969Y99425
X192969Y109425
X192969Y119425
X182969Y119425
X182969Y109425
X182969Y99425
X182969Y89425
X192969Y89425
X202969Y89425
T06
X31748Y36748
X197102Y36748
X197102Y202102
X31748Y202102
M30
