G75*
%MOIN*%
%OFA0B0*%
%FSLAX25Y25*%
%IPPOS*%
%LPD*%
%AMOC8*
5,1,8,0,0,1.08239X$1,22.5*
%
%ADD10C,0.00000*%
%ADD11C,0.06000*%
%ADD12OC8,0.06000*%
%ADD13R,0.06000X0.06000*%
%ADD14C,0.07600*%
%ADD15C,0.02400*%
%ADD16C,0.01000*%
%ADD17R,0.03562X0.03562*%
%ADD18R,0.03400X0.03400*%
%ADD19C,0.01600*%
D10*
X0027811Y0021000D02*
X0016000Y0032811D01*
X0016000Y0206039D01*
X0027811Y0217850D01*
X0201039Y0217850D01*
X0212850Y0206039D01*
X0212850Y0032811D01*
X0201039Y0021000D01*
X0027811Y0021000D01*
X0025449Y0036748D02*
X0025451Y0036906D01*
X0025457Y0037064D01*
X0025467Y0037222D01*
X0025481Y0037380D01*
X0025499Y0037537D01*
X0025520Y0037694D01*
X0025546Y0037850D01*
X0025576Y0038006D01*
X0025609Y0038161D01*
X0025647Y0038314D01*
X0025688Y0038467D01*
X0025733Y0038619D01*
X0025782Y0038770D01*
X0025835Y0038919D01*
X0025891Y0039067D01*
X0025951Y0039213D01*
X0026015Y0039358D01*
X0026083Y0039501D01*
X0026154Y0039643D01*
X0026228Y0039783D01*
X0026306Y0039920D01*
X0026388Y0040056D01*
X0026472Y0040190D01*
X0026561Y0040321D01*
X0026652Y0040450D01*
X0026747Y0040577D01*
X0026844Y0040702D01*
X0026945Y0040824D01*
X0027049Y0040943D01*
X0027156Y0041060D01*
X0027266Y0041174D01*
X0027379Y0041285D01*
X0027494Y0041394D01*
X0027612Y0041499D01*
X0027733Y0041601D01*
X0027856Y0041701D01*
X0027982Y0041797D01*
X0028110Y0041890D01*
X0028240Y0041980D01*
X0028373Y0042066D01*
X0028508Y0042150D01*
X0028644Y0042229D01*
X0028783Y0042306D01*
X0028924Y0042378D01*
X0029066Y0042448D01*
X0029210Y0042513D01*
X0029356Y0042575D01*
X0029503Y0042633D01*
X0029652Y0042688D01*
X0029802Y0042739D01*
X0029953Y0042786D01*
X0030105Y0042829D01*
X0030258Y0042868D01*
X0030413Y0042904D01*
X0030568Y0042935D01*
X0030724Y0042963D01*
X0030880Y0042987D01*
X0031037Y0043007D01*
X0031195Y0043023D01*
X0031352Y0043035D01*
X0031511Y0043043D01*
X0031669Y0043047D01*
X0031827Y0043047D01*
X0031985Y0043043D01*
X0032144Y0043035D01*
X0032301Y0043023D01*
X0032459Y0043007D01*
X0032616Y0042987D01*
X0032772Y0042963D01*
X0032928Y0042935D01*
X0033083Y0042904D01*
X0033238Y0042868D01*
X0033391Y0042829D01*
X0033543Y0042786D01*
X0033694Y0042739D01*
X0033844Y0042688D01*
X0033993Y0042633D01*
X0034140Y0042575D01*
X0034286Y0042513D01*
X0034430Y0042448D01*
X0034572Y0042378D01*
X0034713Y0042306D01*
X0034852Y0042229D01*
X0034988Y0042150D01*
X0035123Y0042066D01*
X0035256Y0041980D01*
X0035386Y0041890D01*
X0035514Y0041797D01*
X0035640Y0041701D01*
X0035763Y0041601D01*
X0035884Y0041499D01*
X0036002Y0041394D01*
X0036117Y0041285D01*
X0036230Y0041174D01*
X0036340Y0041060D01*
X0036447Y0040943D01*
X0036551Y0040824D01*
X0036652Y0040702D01*
X0036749Y0040577D01*
X0036844Y0040450D01*
X0036935Y0040321D01*
X0037024Y0040190D01*
X0037108Y0040056D01*
X0037190Y0039920D01*
X0037268Y0039783D01*
X0037342Y0039643D01*
X0037413Y0039501D01*
X0037481Y0039358D01*
X0037545Y0039213D01*
X0037605Y0039067D01*
X0037661Y0038919D01*
X0037714Y0038770D01*
X0037763Y0038619D01*
X0037808Y0038467D01*
X0037849Y0038314D01*
X0037887Y0038161D01*
X0037920Y0038006D01*
X0037950Y0037850D01*
X0037976Y0037694D01*
X0037997Y0037537D01*
X0038015Y0037380D01*
X0038029Y0037222D01*
X0038039Y0037064D01*
X0038045Y0036906D01*
X0038047Y0036748D01*
X0038045Y0036590D01*
X0038039Y0036432D01*
X0038029Y0036274D01*
X0038015Y0036116D01*
X0037997Y0035959D01*
X0037976Y0035802D01*
X0037950Y0035646D01*
X0037920Y0035490D01*
X0037887Y0035335D01*
X0037849Y0035182D01*
X0037808Y0035029D01*
X0037763Y0034877D01*
X0037714Y0034726D01*
X0037661Y0034577D01*
X0037605Y0034429D01*
X0037545Y0034283D01*
X0037481Y0034138D01*
X0037413Y0033995D01*
X0037342Y0033853D01*
X0037268Y0033713D01*
X0037190Y0033576D01*
X0037108Y0033440D01*
X0037024Y0033306D01*
X0036935Y0033175D01*
X0036844Y0033046D01*
X0036749Y0032919D01*
X0036652Y0032794D01*
X0036551Y0032672D01*
X0036447Y0032553D01*
X0036340Y0032436D01*
X0036230Y0032322D01*
X0036117Y0032211D01*
X0036002Y0032102D01*
X0035884Y0031997D01*
X0035763Y0031895D01*
X0035640Y0031795D01*
X0035514Y0031699D01*
X0035386Y0031606D01*
X0035256Y0031516D01*
X0035123Y0031430D01*
X0034988Y0031346D01*
X0034852Y0031267D01*
X0034713Y0031190D01*
X0034572Y0031118D01*
X0034430Y0031048D01*
X0034286Y0030983D01*
X0034140Y0030921D01*
X0033993Y0030863D01*
X0033844Y0030808D01*
X0033694Y0030757D01*
X0033543Y0030710D01*
X0033391Y0030667D01*
X0033238Y0030628D01*
X0033083Y0030592D01*
X0032928Y0030561D01*
X0032772Y0030533D01*
X0032616Y0030509D01*
X0032459Y0030489D01*
X0032301Y0030473D01*
X0032144Y0030461D01*
X0031985Y0030453D01*
X0031827Y0030449D01*
X0031669Y0030449D01*
X0031511Y0030453D01*
X0031352Y0030461D01*
X0031195Y0030473D01*
X0031037Y0030489D01*
X0030880Y0030509D01*
X0030724Y0030533D01*
X0030568Y0030561D01*
X0030413Y0030592D01*
X0030258Y0030628D01*
X0030105Y0030667D01*
X0029953Y0030710D01*
X0029802Y0030757D01*
X0029652Y0030808D01*
X0029503Y0030863D01*
X0029356Y0030921D01*
X0029210Y0030983D01*
X0029066Y0031048D01*
X0028924Y0031118D01*
X0028783Y0031190D01*
X0028644Y0031267D01*
X0028508Y0031346D01*
X0028373Y0031430D01*
X0028240Y0031516D01*
X0028110Y0031606D01*
X0027982Y0031699D01*
X0027856Y0031795D01*
X0027733Y0031895D01*
X0027612Y0031997D01*
X0027494Y0032102D01*
X0027379Y0032211D01*
X0027266Y0032322D01*
X0027156Y0032436D01*
X0027049Y0032553D01*
X0026945Y0032672D01*
X0026844Y0032794D01*
X0026747Y0032919D01*
X0026652Y0033046D01*
X0026561Y0033175D01*
X0026472Y0033306D01*
X0026388Y0033440D01*
X0026306Y0033576D01*
X0026228Y0033713D01*
X0026154Y0033853D01*
X0026083Y0033995D01*
X0026015Y0034138D01*
X0025951Y0034283D01*
X0025891Y0034429D01*
X0025835Y0034577D01*
X0025782Y0034726D01*
X0025733Y0034877D01*
X0025688Y0035029D01*
X0025647Y0035182D01*
X0025609Y0035335D01*
X0025576Y0035490D01*
X0025546Y0035646D01*
X0025520Y0035802D01*
X0025499Y0035959D01*
X0025481Y0036116D01*
X0025467Y0036274D01*
X0025457Y0036432D01*
X0025451Y0036590D01*
X0025449Y0036748D01*
X0190803Y0036748D02*
X0190805Y0036906D01*
X0190811Y0037064D01*
X0190821Y0037222D01*
X0190835Y0037380D01*
X0190853Y0037537D01*
X0190874Y0037694D01*
X0190900Y0037850D01*
X0190930Y0038006D01*
X0190963Y0038161D01*
X0191001Y0038314D01*
X0191042Y0038467D01*
X0191087Y0038619D01*
X0191136Y0038770D01*
X0191189Y0038919D01*
X0191245Y0039067D01*
X0191305Y0039213D01*
X0191369Y0039358D01*
X0191437Y0039501D01*
X0191508Y0039643D01*
X0191582Y0039783D01*
X0191660Y0039920D01*
X0191742Y0040056D01*
X0191826Y0040190D01*
X0191915Y0040321D01*
X0192006Y0040450D01*
X0192101Y0040577D01*
X0192198Y0040702D01*
X0192299Y0040824D01*
X0192403Y0040943D01*
X0192510Y0041060D01*
X0192620Y0041174D01*
X0192733Y0041285D01*
X0192848Y0041394D01*
X0192966Y0041499D01*
X0193087Y0041601D01*
X0193210Y0041701D01*
X0193336Y0041797D01*
X0193464Y0041890D01*
X0193594Y0041980D01*
X0193727Y0042066D01*
X0193862Y0042150D01*
X0193998Y0042229D01*
X0194137Y0042306D01*
X0194278Y0042378D01*
X0194420Y0042448D01*
X0194564Y0042513D01*
X0194710Y0042575D01*
X0194857Y0042633D01*
X0195006Y0042688D01*
X0195156Y0042739D01*
X0195307Y0042786D01*
X0195459Y0042829D01*
X0195612Y0042868D01*
X0195767Y0042904D01*
X0195922Y0042935D01*
X0196078Y0042963D01*
X0196234Y0042987D01*
X0196391Y0043007D01*
X0196549Y0043023D01*
X0196706Y0043035D01*
X0196865Y0043043D01*
X0197023Y0043047D01*
X0197181Y0043047D01*
X0197339Y0043043D01*
X0197498Y0043035D01*
X0197655Y0043023D01*
X0197813Y0043007D01*
X0197970Y0042987D01*
X0198126Y0042963D01*
X0198282Y0042935D01*
X0198437Y0042904D01*
X0198592Y0042868D01*
X0198745Y0042829D01*
X0198897Y0042786D01*
X0199048Y0042739D01*
X0199198Y0042688D01*
X0199347Y0042633D01*
X0199494Y0042575D01*
X0199640Y0042513D01*
X0199784Y0042448D01*
X0199926Y0042378D01*
X0200067Y0042306D01*
X0200206Y0042229D01*
X0200342Y0042150D01*
X0200477Y0042066D01*
X0200610Y0041980D01*
X0200740Y0041890D01*
X0200868Y0041797D01*
X0200994Y0041701D01*
X0201117Y0041601D01*
X0201238Y0041499D01*
X0201356Y0041394D01*
X0201471Y0041285D01*
X0201584Y0041174D01*
X0201694Y0041060D01*
X0201801Y0040943D01*
X0201905Y0040824D01*
X0202006Y0040702D01*
X0202103Y0040577D01*
X0202198Y0040450D01*
X0202289Y0040321D01*
X0202378Y0040190D01*
X0202462Y0040056D01*
X0202544Y0039920D01*
X0202622Y0039783D01*
X0202696Y0039643D01*
X0202767Y0039501D01*
X0202835Y0039358D01*
X0202899Y0039213D01*
X0202959Y0039067D01*
X0203015Y0038919D01*
X0203068Y0038770D01*
X0203117Y0038619D01*
X0203162Y0038467D01*
X0203203Y0038314D01*
X0203241Y0038161D01*
X0203274Y0038006D01*
X0203304Y0037850D01*
X0203330Y0037694D01*
X0203351Y0037537D01*
X0203369Y0037380D01*
X0203383Y0037222D01*
X0203393Y0037064D01*
X0203399Y0036906D01*
X0203401Y0036748D01*
X0203399Y0036590D01*
X0203393Y0036432D01*
X0203383Y0036274D01*
X0203369Y0036116D01*
X0203351Y0035959D01*
X0203330Y0035802D01*
X0203304Y0035646D01*
X0203274Y0035490D01*
X0203241Y0035335D01*
X0203203Y0035182D01*
X0203162Y0035029D01*
X0203117Y0034877D01*
X0203068Y0034726D01*
X0203015Y0034577D01*
X0202959Y0034429D01*
X0202899Y0034283D01*
X0202835Y0034138D01*
X0202767Y0033995D01*
X0202696Y0033853D01*
X0202622Y0033713D01*
X0202544Y0033576D01*
X0202462Y0033440D01*
X0202378Y0033306D01*
X0202289Y0033175D01*
X0202198Y0033046D01*
X0202103Y0032919D01*
X0202006Y0032794D01*
X0201905Y0032672D01*
X0201801Y0032553D01*
X0201694Y0032436D01*
X0201584Y0032322D01*
X0201471Y0032211D01*
X0201356Y0032102D01*
X0201238Y0031997D01*
X0201117Y0031895D01*
X0200994Y0031795D01*
X0200868Y0031699D01*
X0200740Y0031606D01*
X0200610Y0031516D01*
X0200477Y0031430D01*
X0200342Y0031346D01*
X0200206Y0031267D01*
X0200067Y0031190D01*
X0199926Y0031118D01*
X0199784Y0031048D01*
X0199640Y0030983D01*
X0199494Y0030921D01*
X0199347Y0030863D01*
X0199198Y0030808D01*
X0199048Y0030757D01*
X0198897Y0030710D01*
X0198745Y0030667D01*
X0198592Y0030628D01*
X0198437Y0030592D01*
X0198282Y0030561D01*
X0198126Y0030533D01*
X0197970Y0030509D01*
X0197813Y0030489D01*
X0197655Y0030473D01*
X0197498Y0030461D01*
X0197339Y0030453D01*
X0197181Y0030449D01*
X0197023Y0030449D01*
X0196865Y0030453D01*
X0196706Y0030461D01*
X0196549Y0030473D01*
X0196391Y0030489D01*
X0196234Y0030509D01*
X0196078Y0030533D01*
X0195922Y0030561D01*
X0195767Y0030592D01*
X0195612Y0030628D01*
X0195459Y0030667D01*
X0195307Y0030710D01*
X0195156Y0030757D01*
X0195006Y0030808D01*
X0194857Y0030863D01*
X0194710Y0030921D01*
X0194564Y0030983D01*
X0194420Y0031048D01*
X0194278Y0031118D01*
X0194137Y0031190D01*
X0193998Y0031267D01*
X0193862Y0031346D01*
X0193727Y0031430D01*
X0193594Y0031516D01*
X0193464Y0031606D01*
X0193336Y0031699D01*
X0193210Y0031795D01*
X0193087Y0031895D01*
X0192966Y0031997D01*
X0192848Y0032102D01*
X0192733Y0032211D01*
X0192620Y0032322D01*
X0192510Y0032436D01*
X0192403Y0032553D01*
X0192299Y0032672D01*
X0192198Y0032794D01*
X0192101Y0032919D01*
X0192006Y0033046D01*
X0191915Y0033175D01*
X0191826Y0033306D01*
X0191742Y0033440D01*
X0191660Y0033576D01*
X0191582Y0033713D01*
X0191508Y0033853D01*
X0191437Y0033995D01*
X0191369Y0034138D01*
X0191305Y0034283D01*
X0191245Y0034429D01*
X0191189Y0034577D01*
X0191136Y0034726D01*
X0191087Y0034877D01*
X0191042Y0035029D01*
X0191001Y0035182D01*
X0190963Y0035335D01*
X0190930Y0035490D01*
X0190900Y0035646D01*
X0190874Y0035802D01*
X0190853Y0035959D01*
X0190835Y0036116D01*
X0190821Y0036274D01*
X0190811Y0036432D01*
X0190805Y0036590D01*
X0190803Y0036748D01*
X0190803Y0202102D02*
X0190805Y0202260D01*
X0190811Y0202418D01*
X0190821Y0202576D01*
X0190835Y0202734D01*
X0190853Y0202891D01*
X0190874Y0203048D01*
X0190900Y0203204D01*
X0190930Y0203360D01*
X0190963Y0203515D01*
X0191001Y0203668D01*
X0191042Y0203821D01*
X0191087Y0203973D01*
X0191136Y0204124D01*
X0191189Y0204273D01*
X0191245Y0204421D01*
X0191305Y0204567D01*
X0191369Y0204712D01*
X0191437Y0204855D01*
X0191508Y0204997D01*
X0191582Y0205137D01*
X0191660Y0205274D01*
X0191742Y0205410D01*
X0191826Y0205544D01*
X0191915Y0205675D01*
X0192006Y0205804D01*
X0192101Y0205931D01*
X0192198Y0206056D01*
X0192299Y0206178D01*
X0192403Y0206297D01*
X0192510Y0206414D01*
X0192620Y0206528D01*
X0192733Y0206639D01*
X0192848Y0206748D01*
X0192966Y0206853D01*
X0193087Y0206955D01*
X0193210Y0207055D01*
X0193336Y0207151D01*
X0193464Y0207244D01*
X0193594Y0207334D01*
X0193727Y0207420D01*
X0193862Y0207504D01*
X0193998Y0207583D01*
X0194137Y0207660D01*
X0194278Y0207732D01*
X0194420Y0207802D01*
X0194564Y0207867D01*
X0194710Y0207929D01*
X0194857Y0207987D01*
X0195006Y0208042D01*
X0195156Y0208093D01*
X0195307Y0208140D01*
X0195459Y0208183D01*
X0195612Y0208222D01*
X0195767Y0208258D01*
X0195922Y0208289D01*
X0196078Y0208317D01*
X0196234Y0208341D01*
X0196391Y0208361D01*
X0196549Y0208377D01*
X0196706Y0208389D01*
X0196865Y0208397D01*
X0197023Y0208401D01*
X0197181Y0208401D01*
X0197339Y0208397D01*
X0197498Y0208389D01*
X0197655Y0208377D01*
X0197813Y0208361D01*
X0197970Y0208341D01*
X0198126Y0208317D01*
X0198282Y0208289D01*
X0198437Y0208258D01*
X0198592Y0208222D01*
X0198745Y0208183D01*
X0198897Y0208140D01*
X0199048Y0208093D01*
X0199198Y0208042D01*
X0199347Y0207987D01*
X0199494Y0207929D01*
X0199640Y0207867D01*
X0199784Y0207802D01*
X0199926Y0207732D01*
X0200067Y0207660D01*
X0200206Y0207583D01*
X0200342Y0207504D01*
X0200477Y0207420D01*
X0200610Y0207334D01*
X0200740Y0207244D01*
X0200868Y0207151D01*
X0200994Y0207055D01*
X0201117Y0206955D01*
X0201238Y0206853D01*
X0201356Y0206748D01*
X0201471Y0206639D01*
X0201584Y0206528D01*
X0201694Y0206414D01*
X0201801Y0206297D01*
X0201905Y0206178D01*
X0202006Y0206056D01*
X0202103Y0205931D01*
X0202198Y0205804D01*
X0202289Y0205675D01*
X0202378Y0205544D01*
X0202462Y0205410D01*
X0202544Y0205274D01*
X0202622Y0205137D01*
X0202696Y0204997D01*
X0202767Y0204855D01*
X0202835Y0204712D01*
X0202899Y0204567D01*
X0202959Y0204421D01*
X0203015Y0204273D01*
X0203068Y0204124D01*
X0203117Y0203973D01*
X0203162Y0203821D01*
X0203203Y0203668D01*
X0203241Y0203515D01*
X0203274Y0203360D01*
X0203304Y0203204D01*
X0203330Y0203048D01*
X0203351Y0202891D01*
X0203369Y0202734D01*
X0203383Y0202576D01*
X0203393Y0202418D01*
X0203399Y0202260D01*
X0203401Y0202102D01*
X0203399Y0201944D01*
X0203393Y0201786D01*
X0203383Y0201628D01*
X0203369Y0201470D01*
X0203351Y0201313D01*
X0203330Y0201156D01*
X0203304Y0201000D01*
X0203274Y0200844D01*
X0203241Y0200689D01*
X0203203Y0200536D01*
X0203162Y0200383D01*
X0203117Y0200231D01*
X0203068Y0200080D01*
X0203015Y0199931D01*
X0202959Y0199783D01*
X0202899Y0199637D01*
X0202835Y0199492D01*
X0202767Y0199349D01*
X0202696Y0199207D01*
X0202622Y0199067D01*
X0202544Y0198930D01*
X0202462Y0198794D01*
X0202378Y0198660D01*
X0202289Y0198529D01*
X0202198Y0198400D01*
X0202103Y0198273D01*
X0202006Y0198148D01*
X0201905Y0198026D01*
X0201801Y0197907D01*
X0201694Y0197790D01*
X0201584Y0197676D01*
X0201471Y0197565D01*
X0201356Y0197456D01*
X0201238Y0197351D01*
X0201117Y0197249D01*
X0200994Y0197149D01*
X0200868Y0197053D01*
X0200740Y0196960D01*
X0200610Y0196870D01*
X0200477Y0196784D01*
X0200342Y0196700D01*
X0200206Y0196621D01*
X0200067Y0196544D01*
X0199926Y0196472D01*
X0199784Y0196402D01*
X0199640Y0196337D01*
X0199494Y0196275D01*
X0199347Y0196217D01*
X0199198Y0196162D01*
X0199048Y0196111D01*
X0198897Y0196064D01*
X0198745Y0196021D01*
X0198592Y0195982D01*
X0198437Y0195946D01*
X0198282Y0195915D01*
X0198126Y0195887D01*
X0197970Y0195863D01*
X0197813Y0195843D01*
X0197655Y0195827D01*
X0197498Y0195815D01*
X0197339Y0195807D01*
X0197181Y0195803D01*
X0197023Y0195803D01*
X0196865Y0195807D01*
X0196706Y0195815D01*
X0196549Y0195827D01*
X0196391Y0195843D01*
X0196234Y0195863D01*
X0196078Y0195887D01*
X0195922Y0195915D01*
X0195767Y0195946D01*
X0195612Y0195982D01*
X0195459Y0196021D01*
X0195307Y0196064D01*
X0195156Y0196111D01*
X0195006Y0196162D01*
X0194857Y0196217D01*
X0194710Y0196275D01*
X0194564Y0196337D01*
X0194420Y0196402D01*
X0194278Y0196472D01*
X0194137Y0196544D01*
X0193998Y0196621D01*
X0193862Y0196700D01*
X0193727Y0196784D01*
X0193594Y0196870D01*
X0193464Y0196960D01*
X0193336Y0197053D01*
X0193210Y0197149D01*
X0193087Y0197249D01*
X0192966Y0197351D01*
X0192848Y0197456D01*
X0192733Y0197565D01*
X0192620Y0197676D01*
X0192510Y0197790D01*
X0192403Y0197907D01*
X0192299Y0198026D01*
X0192198Y0198148D01*
X0192101Y0198273D01*
X0192006Y0198400D01*
X0191915Y0198529D01*
X0191826Y0198660D01*
X0191742Y0198794D01*
X0191660Y0198930D01*
X0191582Y0199067D01*
X0191508Y0199207D01*
X0191437Y0199349D01*
X0191369Y0199492D01*
X0191305Y0199637D01*
X0191245Y0199783D01*
X0191189Y0199931D01*
X0191136Y0200080D01*
X0191087Y0200231D01*
X0191042Y0200383D01*
X0191001Y0200536D01*
X0190963Y0200689D01*
X0190930Y0200844D01*
X0190900Y0201000D01*
X0190874Y0201156D01*
X0190853Y0201313D01*
X0190835Y0201470D01*
X0190821Y0201628D01*
X0190811Y0201786D01*
X0190805Y0201944D01*
X0190803Y0202102D01*
X0025449Y0202102D02*
X0025451Y0202260D01*
X0025457Y0202418D01*
X0025467Y0202576D01*
X0025481Y0202734D01*
X0025499Y0202891D01*
X0025520Y0203048D01*
X0025546Y0203204D01*
X0025576Y0203360D01*
X0025609Y0203515D01*
X0025647Y0203668D01*
X0025688Y0203821D01*
X0025733Y0203973D01*
X0025782Y0204124D01*
X0025835Y0204273D01*
X0025891Y0204421D01*
X0025951Y0204567D01*
X0026015Y0204712D01*
X0026083Y0204855D01*
X0026154Y0204997D01*
X0026228Y0205137D01*
X0026306Y0205274D01*
X0026388Y0205410D01*
X0026472Y0205544D01*
X0026561Y0205675D01*
X0026652Y0205804D01*
X0026747Y0205931D01*
X0026844Y0206056D01*
X0026945Y0206178D01*
X0027049Y0206297D01*
X0027156Y0206414D01*
X0027266Y0206528D01*
X0027379Y0206639D01*
X0027494Y0206748D01*
X0027612Y0206853D01*
X0027733Y0206955D01*
X0027856Y0207055D01*
X0027982Y0207151D01*
X0028110Y0207244D01*
X0028240Y0207334D01*
X0028373Y0207420D01*
X0028508Y0207504D01*
X0028644Y0207583D01*
X0028783Y0207660D01*
X0028924Y0207732D01*
X0029066Y0207802D01*
X0029210Y0207867D01*
X0029356Y0207929D01*
X0029503Y0207987D01*
X0029652Y0208042D01*
X0029802Y0208093D01*
X0029953Y0208140D01*
X0030105Y0208183D01*
X0030258Y0208222D01*
X0030413Y0208258D01*
X0030568Y0208289D01*
X0030724Y0208317D01*
X0030880Y0208341D01*
X0031037Y0208361D01*
X0031195Y0208377D01*
X0031352Y0208389D01*
X0031511Y0208397D01*
X0031669Y0208401D01*
X0031827Y0208401D01*
X0031985Y0208397D01*
X0032144Y0208389D01*
X0032301Y0208377D01*
X0032459Y0208361D01*
X0032616Y0208341D01*
X0032772Y0208317D01*
X0032928Y0208289D01*
X0033083Y0208258D01*
X0033238Y0208222D01*
X0033391Y0208183D01*
X0033543Y0208140D01*
X0033694Y0208093D01*
X0033844Y0208042D01*
X0033993Y0207987D01*
X0034140Y0207929D01*
X0034286Y0207867D01*
X0034430Y0207802D01*
X0034572Y0207732D01*
X0034713Y0207660D01*
X0034852Y0207583D01*
X0034988Y0207504D01*
X0035123Y0207420D01*
X0035256Y0207334D01*
X0035386Y0207244D01*
X0035514Y0207151D01*
X0035640Y0207055D01*
X0035763Y0206955D01*
X0035884Y0206853D01*
X0036002Y0206748D01*
X0036117Y0206639D01*
X0036230Y0206528D01*
X0036340Y0206414D01*
X0036447Y0206297D01*
X0036551Y0206178D01*
X0036652Y0206056D01*
X0036749Y0205931D01*
X0036844Y0205804D01*
X0036935Y0205675D01*
X0037024Y0205544D01*
X0037108Y0205410D01*
X0037190Y0205274D01*
X0037268Y0205137D01*
X0037342Y0204997D01*
X0037413Y0204855D01*
X0037481Y0204712D01*
X0037545Y0204567D01*
X0037605Y0204421D01*
X0037661Y0204273D01*
X0037714Y0204124D01*
X0037763Y0203973D01*
X0037808Y0203821D01*
X0037849Y0203668D01*
X0037887Y0203515D01*
X0037920Y0203360D01*
X0037950Y0203204D01*
X0037976Y0203048D01*
X0037997Y0202891D01*
X0038015Y0202734D01*
X0038029Y0202576D01*
X0038039Y0202418D01*
X0038045Y0202260D01*
X0038047Y0202102D01*
X0038045Y0201944D01*
X0038039Y0201786D01*
X0038029Y0201628D01*
X0038015Y0201470D01*
X0037997Y0201313D01*
X0037976Y0201156D01*
X0037950Y0201000D01*
X0037920Y0200844D01*
X0037887Y0200689D01*
X0037849Y0200536D01*
X0037808Y0200383D01*
X0037763Y0200231D01*
X0037714Y0200080D01*
X0037661Y0199931D01*
X0037605Y0199783D01*
X0037545Y0199637D01*
X0037481Y0199492D01*
X0037413Y0199349D01*
X0037342Y0199207D01*
X0037268Y0199067D01*
X0037190Y0198930D01*
X0037108Y0198794D01*
X0037024Y0198660D01*
X0036935Y0198529D01*
X0036844Y0198400D01*
X0036749Y0198273D01*
X0036652Y0198148D01*
X0036551Y0198026D01*
X0036447Y0197907D01*
X0036340Y0197790D01*
X0036230Y0197676D01*
X0036117Y0197565D01*
X0036002Y0197456D01*
X0035884Y0197351D01*
X0035763Y0197249D01*
X0035640Y0197149D01*
X0035514Y0197053D01*
X0035386Y0196960D01*
X0035256Y0196870D01*
X0035123Y0196784D01*
X0034988Y0196700D01*
X0034852Y0196621D01*
X0034713Y0196544D01*
X0034572Y0196472D01*
X0034430Y0196402D01*
X0034286Y0196337D01*
X0034140Y0196275D01*
X0033993Y0196217D01*
X0033844Y0196162D01*
X0033694Y0196111D01*
X0033543Y0196064D01*
X0033391Y0196021D01*
X0033238Y0195982D01*
X0033083Y0195946D01*
X0032928Y0195915D01*
X0032772Y0195887D01*
X0032616Y0195863D01*
X0032459Y0195843D01*
X0032301Y0195827D01*
X0032144Y0195815D01*
X0031985Y0195807D01*
X0031827Y0195803D01*
X0031669Y0195803D01*
X0031511Y0195807D01*
X0031352Y0195815D01*
X0031195Y0195827D01*
X0031037Y0195843D01*
X0030880Y0195863D01*
X0030724Y0195887D01*
X0030568Y0195915D01*
X0030413Y0195946D01*
X0030258Y0195982D01*
X0030105Y0196021D01*
X0029953Y0196064D01*
X0029802Y0196111D01*
X0029652Y0196162D01*
X0029503Y0196217D01*
X0029356Y0196275D01*
X0029210Y0196337D01*
X0029066Y0196402D01*
X0028924Y0196472D01*
X0028783Y0196544D01*
X0028644Y0196621D01*
X0028508Y0196700D01*
X0028373Y0196784D01*
X0028240Y0196870D01*
X0028110Y0196960D01*
X0027982Y0197053D01*
X0027856Y0197149D01*
X0027733Y0197249D01*
X0027612Y0197351D01*
X0027494Y0197456D01*
X0027379Y0197565D01*
X0027266Y0197676D01*
X0027156Y0197790D01*
X0027049Y0197907D01*
X0026945Y0198026D01*
X0026844Y0198148D01*
X0026747Y0198273D01*
X0026652Y0198400D01*
X0026561Y0198529D01*
X0026472Y0198660D01*
X0026388Y0198794D01*
X0026306Y0198930D01*
X0026228Y0199067D01*
X0026154Y0199207D01*
X0026083Y0199349D01*
X0026015Y0199492D01*
X0025951Y0199637D01*
X0025891Y0199783D01*
X0025835Y0199931D01*
X0025782Y0200080D01*
X0025733Y0200231D01*
X0025688Y0200383D01*
X0025647Y0200536D01*
X0025609Y0200689D01*
X0025576Y0200844D01*
X0025546Y0201000D01*
X0025520Y0201156D01*
X0025499Y0201313D01*
X0025481Y0201470D01*
X0025467Y0201628D01*
X0025457Y0201786D01*
X0025451Y0201944D01*
X0025449Y0202102D01*
D11*
X0022843Y0179425D02*
X0028843Y0179425D01*
X0028843Y0169425D02*
X0022843Y0169425D01*
X0022843Y0159425D02*
X0028843Y0159425D01*
X0028843Y0149425D02*
X0022843Y0149425D01*
X0022843Y0139425D02*
X0028843Y0139425D01*
X0028843Y0129425D02*
X0022843Y0129425D01*
X0022843Y0109425D02*
X0028843Y0109425D01*
X0028843Y0099425D02*
X0022843Y0099425D01*
X0022843Y0089425D02*
X0028843Y0089425D01*
X0028843Y0079425D02*
X0022843Y0079425D01*
X0022843Y0069425D02*
X0028843Y0069425D01*
X0028843Y0059425D02*
X0022843Y0059425D01*
D12*
X0182969Y0089425D03*
X0192969Y0089425D03*
X0202969Y0089425D03*
X0202969Y0099425D03*
X0202969Y0109425D03*
X0202969Y0119425D03*
X0202969Y0129425D03*
X0192969Y0129425D03*
X0192969Y0119425D03*
X0192969Y0109425D03*
X0192969Y0099425D03*
X0182969Y0099425D03*
X0182969Y0109425D03*
X0182969Y0119425D03*
X0182969Y0129425D03*
X0182969Y0139425D03*
X0192969Y0139425D03*
X0202969Y0139425D03*
X0202969Y0149425D03*
X0192969Y0149425D03*
D13*
X0182969Y0149425D03*
D14*
X0113800Y0060900D03*
D15*
X0096500Y0108500D03*
X0089500Y0108500D03*
X0089500Y0114000D03*
X0096500Y0114000D03*
X0062000Y0122000D03*
X0057000Y0122000D03*
X0044000Y0169500D03*
X0057000Y0179500D03*
D16*
X0025938Y0024994D02*
X0202912Y0024994D01*
X0201914Y0023996D02*
X0026937Y0023996D01*
X0027935Y0022997D02*
X0200915Y0022997D01*
X0200418Y0022500D02*
X0028432Y0022500D01*
X0017500Y0033432D01*
X0017500Y0205418D01*
X0028432Y0216350D01*
X0200418Y0216350D01*
X0211350Y0205418D01*
X0211350Y0033432D01*
X0200418Y0022500D01*
X0203911Y0025993D02*
X0024940Y0025993D01*
X0023941Y0026991D02*
X0204909Y0026991D01*
X0205908Y0027990D02*
X0022943Y0027990D01*
X0021944Y0028988D02*
X0030102Y0028988D01*
X0030197Y0028949D02*
X0033299Y0028949D01*
X0036166Y0030136D01*
X0038360Y0032330D01*
X0039547Y0035197D01*
X0039547Y0038299D01*
X0038360Y0041166D01*
X0036166Y0043360D01*
X0033299Y0044547D01*
X0030197Y0044547D01*
X0027330Y0043360D01*
X0025136Y0041166D01*
X0023949Y0038299D01*
X0023949Y0035197D01*
X0025136Y0032330D01*
X0027330Y0030136D01*
X0030197Y0028949D01*
X0027691Y0029987D02*
X0020946Y0029987D01*
X0019947Y0030985D02*
X0026481Y0030985D01*
X0025483Y0031984D02*
X0018949Y0031984D01*
X0017950Y0032982D02*
X0024866Y0032982D01*
X0024452Y0033981D02*
X0017500Y0033981D01*
X0017500Y0034979D02*
X0024039Y0034979D01*
X0023949Y0035978D02*
X0017500Y0035978D01*
X0017500Y0036976D02*
X0023949Y0036976D01*
X0023949Y0037975D02*
X0017500Y0037975D01*
X0017500Y0038973D02*
X0024228Y0038973D01*
X0024642Y0039972D02*
X0017500Y0039972D01*
X0017500Y0040970D02*
X0025055Y0040970D01*
X0025939Y0041969D02*
X0017500Y0041969D01*
X0017500Y0042967D02*
X0026937Y0042967D01*
X0028793Y0043966D02*
X0017500Y0043966D01*
X0017500Y0044964D02*
X0211350Y0044964D01*
X0211350Y0043966D02*
X0200058Y0043966D01*
X0198654Y0044547D02*
X0195551Y0044547D01*
X0192684Y0043360D01*
X0190491Y0041166D01*
X0189303Y0038299D01*
X0189303Y0035197D01*
X0190491Y0032330D01*
X0192684Y0030136D01*
X0195551Y0028949D01*
X0198654Y0028949D01*
X0201520Y0030136D01*
X0203714Y0032330D01*
X0204902Y0035197D01*
X0204902Y0038299D01*
X0203714Y0041166D01*
X0201520Y0043360D01*
X0198654Y0044547D01*
X0201913Y0042967D02*
X0211350Y0042967D01*
X0211350Y0041969D02*
X0202911Y0041969D01*
X0203795Y0040970D02*
X0211350Y0040970D01*
X0211350Y0039972D02*
X0204209Y0039972D01*
X0204622Y0038973D02*
X0211350Y0038973D01*
X0211350Y0037975D02*
X0204902Y0037975D01*
X0204902Y0036976D02*
X0211350Y0036976D01*
X0211350Y0035978D02*
X0204902Y0035978D01*
X0204811Y0034979D02*
X0211350Y0034979D01*
X0211350Y0033981D02*
X0204398Y0033981D01*
X0203984Y0032982D02*
X0210900Y0032982D01*
X0209902Y0031984D02*
X0203368Y0031984D01*
X0202369Y0030985D02*
X0208903Y0030985D01*
X0207905Y0029987D02*
X0201159Y0029987D01*
X0198749Y0028988D02*
X0206906Y0028988D01*
X0195456Y0028988D02*
X0033394Y0028988D01*
X0035805Y0029987D02*
X0193046Y0029987D01*
X0191836Y0030985D02*
X0037015Y0030985D01*
X0038013Y0031984D02*
X0190837Y0031984D01*
X0190220Y0032982D02*
X0038630Y0032982D01*
X0039044Y0033981D02*
X0189807Y0033981D01*
X0189393Y0034979D02*
X0039457Y0034979D01*
X0039547Y0035978D02*
X0189303Y0035978D01*
X0189303Y0036976D02*
X0039547Y0036976D01*
X0039547Y0037975D02*
X0189303Y0037975D01*
X0189582Y0038973D02*
X0039268Y0038973D01*
X0038855Y0039972D02*
X0189996Y0039972D01*
X0190409Y0040970D02*
X0038441Y0040970D01*
X0037557Y0041969D02*
X0191293Y0041969D01*
X0192292Y0042967D02*
X0036559Y0042967D01*
X0034703Y0043966D02*
X0194147Y0043966D01*
X0211350Y0045963D02*
X0017500Y0045963D01*
X0017500Y0046961D02*
X0211350Y0046961D01*
X0211350Y0047960D02*
X0017500Y0047960D01*
X0017500Y0048958D02*
X0211350Y0048958D01*
X0211350Y0049957D02*
X0017500Y0049957D01*
X0017500Y0050955D02*
X0211350Y0050955D01*
X0211350Y0051954D02*
X0017500Y0051954D01*
X0017500Y0052952D02*
X0211350Y0052952D01*
X0211350Y0053951D02*
X0017500Y0053951D01*
X0017500Y0054949D02*
X0211350Y0054949D01*
X0211350Y0055948D02*
X0115710Y0055948D01*
X0115834Y0055988D02*
X0116578Y0056367D01*
X0117253Y0056857D01*
X0117843Y0057447D01*
X0118333Y0058122D01*
X0118712Y0058866D01*
X0118969Y0059659D01*
X0119089Y0060416D01*
X0114284Y0060416D01*
X0114284Y0055611D01*
X0115041Y0055730D01*
X0115834Y0055988D01*
X0114284Y0055948D02*
X0113316Y0055948D01*
X0113316Y0055611D02*
X0113316Y0060416D01*
X0114284Y0060416D01*
X0114284Y0061384D01*
X0119089Y0061384D01*
X0118969Y0062141D01*
X0118712Y0062934D01*
X0118333Y0063678D01*
X0117843Y0064353D01*
X0117253Y0064943D01*
X0116578Y0065433D01*
X0115834Y0065812D01*
X0115041Y0066069D01*
X0114284Y0066189D01*
X0114284Y0061384D01*
X0113316Y0061384D01*
X0113316Y0060416D01*
X0108511Y0060416D01*
X0108630Y0059659D01*
X0108888Y0058866D01*
X0109267Y0058122D01*
X0109757Y0057447D01*
X0110347Y0056857D01*
X0111022Y0056367D01*
X0111766Y0055988D01*
X0112559Y0055730D01*
X0113316Y0055611D01*
X0113316Y0056946D02*
X0114284Y0056946D01*
X0114284Y0057945D02*
X0113316Y0057945D01*
X0113316Y0058943D02*
X0114284Y0058943D01*
X0114284Y0059942D02*
X0113316Y0059942D01*
X0113316Y0060940D02*
X0032653Y0060940D01*
X0032943Y0060241D02*
X0032318Y0061748D01*
X0031165Y0062901D01*
X0029658Y0063525D01*
X0022027Y0063525D01*
X0020520Y0062901D01*
X0019367Y0061748D01*
X0018743Y0060241D01*
X0018743Y0058610D01*
X0019367Y0057103D01*
X0020520Y0055949D01*
X0022027Y0055325D01*
X0029658Y0055325D01*
X0031165Y0055949D01*
X0032318Y0057103D01*
X0032943Y0058610D01*
X0032943Y0060241D01*
X0032943Y0059942D02*
X0108586Y0059942D01*
X0108863Y0058943D02*
X0032943Y0058943D01*
X0032667Y0057945D02*
X0109396Y0057945D01*
X0110258Y0056946D02*
X0032162Y0056946D01*
X0031161Y0055948D02*
X0111890Y0055948D01*
X0114284Y0060940D02*
X0211350Y0060940D01*
X0211350Y0059942D02*
X0119014Y0059942D01*
X0118737Y0058943D02*
X0211350Y0058943D01*
X0211350Y0057945D02*
X0118204Y0057945D01*
X0117342Y0056946D02*
X0211350Y0056946D01*
X0211350Y0061939D02*
X0119002Y0061939D01*
X0118710Y0062937D02*
X0211350Y0062937D01*
X0211350Y0063936D02*
X0118145Y0063936D01*
X0117261Y0064934D02*
X0211350Y0064934D01*
X0211350Y0065933D02*
X0115461Y0065933D01*
X0114284Y0065933D02*
X0113316Y0065933D01*
X0113316Y0066189D02*
X0112559Y0066069D01*
X0111766Y0065812D01*
X0111022Y0065433D01*
X0110347Y0064943D01*
X0109757Y0064353D01*
X0109267Y0063678D01*
X0108888Y0062934D01*
X0108630Y0062141D01*
X0108511Y0061384D01*
X0113316Y0061384D01*
X0113316Y0066189D01*
X0112139Y0065933D02*
X0031125Y0065933D01*
X0031165Y0065949D02*
X0032318Y0067103D01*
X0032943Y0068610D01*
X0032943Y0070241D01*
X0032318Y0071748D01*
X0031165Y0072901D01*
X0029658Y0073525D01*
X0022027Y0073525D01*
X0020520Y0072901D01*
X0019367Y0071748D01*
X0018743Y0070241D01*
X0018743Y0068610D01*
X0019367Y0067103D01*
X0020520Y0065949D01*
X0022027Y0065325D01*
X0029658Y0065325D01*
X0031165Y0065949D01*
X0032147Y0066932D02*
X0211350Y0066932D01*
X0211350Y0067930D02*
X0032661Y0067930D01*
X0032943Y0068929D02*
X0211350Y0068929D01*
X0211350Y0069927D02*
X0032943Y0069927D01*
X0032659Y0070926D02*
X0211350Y0070926D01*
X0211350Y0071924D02*
X0032142Y0071924D01*
X0031113Y0072923D02*
X0211350Y0072923D01*
X0211350Y0073921D02*
X0017500Y0073921D01*
X0017500Y0072923D02*
X0020572Y0072923D01*
X0019543Y0071924D02*
X0017500Y0071924D01*
X0017500Y0070926D02*
X0019026Y0070926D01*
X0018743Y0069927D02*
X0017500Y0069927D01*
X0017500Y0068929D02*
X0018743Y0068929D01*
X0019024Y0067930D02*
X0017500Y0067930D01*
X0017500Y0066932D02*
X0019538Y0066932D01*
X0020560Y0065933D02*
X0017500Y0065933D01*
X0017500Y0064934D02*
X0110339Y0064934D01*
X0109455Y0063936D02*
X0017500Y0063936D01*
X0017500Y0062937D02*
X0020608Y0062937D01*
X0019558Y0061939D02*
X0017500Y0061939D01*
X0017500Y0060940D02*
X0019032Y0060940D01*
X0018743Y0059942D02*
X0017500Y0059942D01*
X0017500Y0058943D02*
X0018743Y0058943D01*
X0019018Y0057945D02*
X0017500Y0057945D01*
X0017500Y0056946D02*
X0019523Y0056946D01*
X0020524Y0055948D02*
X0017500Y0055948D01*
X0031077Y0062937D02*
X0108890Y0062937D01*
X0108598Y0061939D02*
X0032127Y0061939D01*
X0029896Y0075036D02*
X0029197Y0074925D01*
X0026342Y0074925D01*
X0026342Y0078925D01*
X0025343Y0078925D01*
X0025343Y0074925D01*
X0022488Y0074925D01*
X0021789Y0075036D01*
X0021115Y0075255D01*
X0020484Y0075576D01*
X0019911Y0075993D01*
X0019410Y0076494D01*
X0018994Y0077067D01*
X0018672Y0077698D01*
X0018453Y0078371D01*
X0018366Y0078925D01*
X0025342Y0078925D01*
X0025342Y0079925D01*
X0018366Y0079925D01*
X0018453Y0080479D01*
X0018672Y0081153D01*
X0018994Y0081784D01*
X0019410Y0082357D01*
X0019911Y0082858D01*
X0020484Y0083274D01*
X0021115Y0083595D01*
X0021789Y0083814D01*
X0022488Y0083925D01*
X0025343Y0083925D01*
X0025343Y0079925D01*
X0026342Y0079925D01*
X0026342Y0083925D01*
X0029197Y0083925D01*
X0029896Y0083814D01*
X0030570Y0083595D01*
X0031201Y0083274D01*
X0031774Y0082858D01*
X0032275Y0082357D01*
X0032691Y0081784D01*
X0033013Y0081153D01*
X0033232Y0080479D01*
X0033319Y0079925D01*
X0026343Y0079925D01*
X0026343Y0078925D01*
X0033319Y0078925D01*
X0033232Y0078371D01*
X0033013Y0077698D01*
X0032691Y0077067D01*
X0032275Y0076494D01*
X0031774Y0075993D01*
X0031201Y0075576D01*
X0030570Y0075255D01*
X0029896Y0075036D01*
X0031671Y0075918D02*
X0211350Y0075918D01*
X0211350Y0074920D02*
X0017500Y0074920D01*
X0017500Y0075918D02*
X0020014Y0075918D01*
X0019103Y0076917D02*
X0017500Y0076917D01*
X0017500Y0077915D02*
X0018602Y0077915D01*
X0018367Y0078914D02*
X0017500Y0078914D01*
X0017500Y0079912D02*
X0025342Y0079912D01*
X0025343Y0078914D02*
X0026342Y0078914D01*
X0026343Y0079912D02*
X0211350Y0079912D01*
X0211350Y0078914D02*
X0033318Y0078914D01*
X0033083Y0077915D02*
X0211350Y0077915D01*
X0211350Y0076917D02*
X0032582Y0076917D01*
X0033091Y0080911D02*
X0211350Y0080911D01*
X0211350Y0081909D02*
X0032600Y0081909D01*
X0031705Y0082908D02*
X0211350Y0082908D01*
X0211350Y0083906D02*
X0029316Y0083906D01*
X0029658Y0085325D02*
X0031165Y0085949D01*
X0032318Y0087103D01*
X0032943Y0088610D01*
X0032943Y0090241D01*
X0032318Y0091748D01*
X0031165Y0092901D01*
X0029658Y0093525D01*
X0022027Y0093525D01*
X0020520Y0092901D01*
X0019367Y0091748D01*
X0018743Y0090241D01*
X0018743Y0088610D01*
X0019367Y0087103D01*
X0020520Y0085949D01*
X0022027Y0085325D01*
X0029658Y0085325D01*
X0031054Y0085903D02*
X0180127Y0085903D01*
X0181105Y0084925D02*
X0178469Y0087561D01*
X0178469Y0088925D01*
X0182468Y0088925D01*
X0182468Y0089925D01*
X0178469Y0089925D01*
X0178469Y0091289D01*
X0181105Y0093925D01*
X0182469Y0093925D01*
X0182469Y0089925D01*
X0183468Y0089925D01*
X0183468Y0093925D01*
X0184832Y0093925D01*
X0187468Y0091289D01*
X0187468Y0089925D01*
X0183469Y0089925D01*
X0183469Y0088925D01*
X0187468Y0088925D01*
X0187468Y0087561D01*
X0184832Y0084925D01*
X0183468Y0084925D01*
X0183468Y0088925D01*
X0182469Y0088925D01*
X0182469Y0084925D01*
X0181105Y0084925D01*
X0182469Y0085903D02*
X0183468Y0085903D01*
X0183468Y0086902D02*
X0182469Y0086902D01*
X0182469Y0087900D02*
X0183468Y0087900D01*
X0183468Y0088899D02*
X0182469Y0088899D01*
X0182468Y0089897D02*
X0157881Y0089897D01*
X0157881Y0089763D02*
X0157881Y0094237D01*
X0157237Y0094881D01*
X0156900Y0094881D01*
X0156900Y0097619D01*
X0157237Y0097619D01*
X0157881Y0098263D01*
X0157881Y0102737D01*
X0157237Y0103381D01*
X0156900Y0103381D01*
X0156900Y0105619D01*
X0157237Y0105619D01*
X0157881Y0106263D01*
X0157881Y0110737D01*
X0157237Y0111381D01*
X0152763Y0111381D01*
X0152119Y0110737D01*
X0152119Y0106263D01*
X0152763Y0105619D01*
X0153100Y0105619D01*
X0153100Y0103381D01*
X0152763Y0103381D01*
X0152119Y0102737D01*
X0152119Y0098263D01*
X0152763Y0097619D01*
X0153100Y0097619D01*
X0153100Y0094881D01*
X0152763Y0094881D01*
X0152119Y0094237D01*
X0152119Y0089763D01*
X0152763Y0089119D01*
X0157237Y0089119D01*
X0157881Y0089763D01*
X0157881Y0090896D02*
X0178469Y0090896D01*
X0179074Y0091894D02*
X0157881Y0091894D01*
X0157881Y0092893D02*
X0180072Y0092893D01*
X0181071Y0093891D02*
X0157881Y0093891D01*
X0156900Y0094890D02*
X0211350Y0094890D01*
X0211350Y0095888D02*
X0205230Y0095888D01*
X0204667Y0095325D02*
X0207068Y0097727D01*
X0207068Y0101123D01*
X0204667Y0103525D01*
X0201270Y0103525D01*
X0198869Y0101123D01*
X0198869Y0097727D01*
X0201270Y0095325D01*
X0204667Y0095325D01*
X0204832Y0093925D02*
X0203468Y0093925D01*
X0203468Y0089925D01*
X0202469Y0089925D01*
X0202469Y0093925D01*
X0201105Y0093925D01*
X0198469Y0091289D01*
X0198469Y0089925D01*
X0202468Y0089925D01*
X0202468Y0088925D01*
X0198469Y0088925D01*
X0198469Y0087561D01*
X0201105Y0084925D01*
X0202469Y0084925D01*
X0202469Y0088925D01*
X0203468Y0088925D01*
X0203468Y0084925D01*
X0204832Y0084925D01*
X0207468Y0087561D01*
X0207468Y0088925D01*
X0203469Y0088925D01*
X0203469Y0089925D01*
X0207468Y0089925D01*
X0207468Y0091289D01*
X0204832Y0093925D01*
X0204866Y0093891D02*
X0211350Y0093891D01*
X0211350Y0092893D02*
X0205865Y0092893D01*
X0206863Y0091894D02*
X0211350Y0091894D01*
X0211350Y0090896D02*
X0207468Y0090896D01*
X0207468Y0088899D02*
X0211350Y0088899D01*
X0211350Y0089897D02*
X0203469Y0089897D01*
X0203468Y0088899D02*
X0202469Y0088899D01*
X0202468Y0089897D02*
X0193469Y0089897D01*
X0193469Y0089925D02*
X0197468Y0089925D01*
X0197468Y0091289D01*
X0194832Y0093925D01*
X0193468Y0093925D01*
X0193468Y0089925D01*
X0192469Y0089925D01*
X0192469Y0093925D01*
X0191105Y0093925D01*
X0188469Y0091289D01*
X0188469Y0089925D01*
X0192468Y0089925D01*
X0192468Y0088925D01*
X0188469Y0088925D01*
X0188469Y0087561D01*
X0191105Y0084925D01*
X0192469Y0084925D01*
X0192469Y0088925D01*
X0193468Y0088925D01*
X0193468Y0084925D01*
X0194832Y0084925D01*
X0197468Y0087561D01*
X0197468Y0088925D01*
X0193469Y0088925D01*
X0193469Y0089925D01*
X0193468Y0090896D02*
X0192469Y0090896D01*
X0192469Y0091894D02*
X0193468Y0091894D01*
X0193468Y0092893D02*
X0192469Y0092893D01*
X0192469Y0093891D02*
X0193468Y0093891D01*
X0194866Y0093891D02*
X0201071Y0093891D01*
X0202469Y0093891D02*
X0203468Y0093891D01*
X0203468Y0092893D02*
X0202469Y0092893D01*
X0202469Y0091894D02*
X0203468Y0091894D01*
X0203468Y0090896D02*
X0202469Y0090896D01*
X0202469Y0087900D02*
X0203468Y0087900D01*
X0203468Y0086902D02*
X0202469Y0086902D01*
X0202469Y0085903D02*
X0203468Y0085903D01*
X0205810Y0085903D02*
X0211350Y0085903D01*
X0211350Y0084905D02*
X0017500Y0084905D01*
X0017500Y0085903D02*
X0020631Y0085903D01*
X0019568Y0086902D02*
X0017500Y0086902D01*
X0017500Y0087900D02*
X0019036Y0087900D01*
X0018743Y0088899D02*
X0017500Y0088899D01*
X0017500Y0089897D02*
X0018743Y0089897D01*
X0019014Y0090896D02*
X0017500Y0090896D01*
X0017500Y0091894D02*
X0019513Y0091894D01*
X0020512Y0092893D02*
X0017500Y0092893D01*
X0017500Y0093891D02*
X0152119Y0093891D01*
X0152119Y0092893D02*
X0031173Y0092893D01*
X0032172Y0091894D02*
X0152119Y0091894D01*
X0152119Y0090896D02*
X0032671Y0090896D01*
X0032943Y0089897D02*
X0152119Y0089897D01*
X0153100Y0094890D02*
X0017500Y0094890D01*
X0017500Y0095888D02*
X0020667Y0095888D01*
X0020520Y0095949D02*
X0022027Y0095325D01*
X0029658Y0095325D01*
X0031165Y0095949D01*
X0032318Y0097103D01*
X0032943Y0098610D01*
X0032943Y0100241D01*
X0032318Y0101748D01*
X0031165Y0102901D01*
X0029658Y0103525D01*
X0022027Y0103525D01*
X0020520Y0102901D01*
X0019367Y0101748D01*
X0018743Y0100241D01*
X0018743Y0098610D01*
X0019367Y0097103D01*
X0020520Y0095949D01*
X0019583Y0096887D02*
X0017500Y0096887D01*
X0017500Y0097885D02*
X0019043Y0097885D01*
X0018743Y0098884D02*
X0017500Y0098884D01*
X0017500Y0099882D02*
X0018743Y0099882D01*
X0019008Y0100881D02*
X0017500Y0100881D01*
X0017500Y0101879D02*
X0019498Y0101879D01*
X0020497Y0102878D02*
X0017500Y0102878D01*
X0017500Y0103876D02*
X0068119Y0103876D01*
X0068119Y0103263D02*
X0068763Y0102619D01*
X0073237Y0102619D01*
X0073881Y0103263D01*
X0073881Y0107737D01*
X0073237Y0108381D01*
X0072900Y0108381D01*
X0072900Y0113619D01*
X0073237Y0113619D01*
X0073881Y0114263D01*
X0073881Y0118737D01*
X0073237Y0119381D01*
X0068763Y0119381D01*
X0068119Y0118737D01*
X0068119Y0114263D01*
X0068763Y0113619D01*
X0069100Y0113619D01*
X0069100Y0108381D01*
X0068763Y0108381D01*
X0068119Y0107737D01*
X0068119Y0103263D01*
X0068504Y0102878D02*
X0031188Y0102878D01*
X0032187Y0101879D02*
X0152119Y0101879D01*
X0152119Y0100881D02*
X0032677Y0100881D01*
X0032943Y0099882D02*
X0152119Y0099882D01*
X0152119Y0098884D02*
X0032943Y0098884D01*
X0032642Y0097885D02*
X0152497Y0097885D01*
X0153100Y0096887D02*
X0032102Y0096887D01*
X0031018Y0095888D02*
X0153100Y0095888D01*
X0156900Y0095888D02*
X0180707Y0095888D01*
X0181270Y0095325D02*
X0178869Y0097727D01*
X0178869Y0101123D01*
X0181270Y0103525D01*
X0184667Y0103525D01*
X0187068Y0101123D01*
X0187068Y0097727D01*
X0184667Y0095325D01*
X0181270Y0095325D01*
X0182469Y0093891D02*
X0183468Y0093891D01*
X0183468Y0092893D02*
X0182469Y0092893D01*
X0182469Y0091894D02*
X0183468Y0091894D01*
X0183468Y0090896D02*
X0182469Y0090896D01*
X0183469Y0089897D02*
X0192468Y0089897D01*
X0192469Y0088899D02*
X0193468Y0088899D01*
X0193468Y0087900D02*
X0192469Y0087900D01*
X0192469Y0086902D02*
X0193468Y0086902D01*
X0193468Y0085903D02*
X0192469Y0085903D01*
X0190127Y0085903D02*
X0185810Y0085903D01*
X0186809Y0086902D02*
X0189128Y0086902D01*
X0188469Y0087900D02*
X0187468Y0087900D01*
X0187468Y0088899D02*
X0188469Y0088899D01*
X0188469Y0090896D02*
X0187468Y0090896D01*
X0186863Y0091894D02*
X0189074Y0091894D01*
X0190072Y0092893D02*
X0185865Y0092893D01*
X0184866Y0093891D02*
X0191071Y0093891D01*
X0191270Y0095325D02*
X0194667Y0095325D01*
X0197068Y0097727D01*
X0197068Y0101123D01*
X0194667Y0103525D01*
X0191270Y0103525D01*
X0188869Y0101123D01*
X0188869Y0097727D01*
X0191270Y0095325D01*
X0190707Y0095888D02*
X0185230Y0095888D01*
X0186228Y0096887D02*
X0189709Y0096887D01*
X0188869Y0097885D02*
X0187068Y0097885D01*
X0187068Y0098884D02*
X0188869Y0098884D01*
X0188869Y0099882D02*
X0187068Y0099882D01*
X0187068Y0100881D02*
X0188869Y0100881D01*
X0189624Y0101879D02*
X0186313Y0101879D01*
X0185314Y0102878D02*
X0190623Y0102878D01*
X0191105Y0104925D02*
X0188469Y0107561D01*
X0188469Y0108925D01*
X0192468Y0108925D01*
X0192468Y0109925D01*
X0188469Y0109925D01*
X0188469Y0111289D01*
X0191105Y0113925D01*
X0192469Y0113925D01*
X0192469Y0109925D01*
X0193468Y0109925D01*
X0193468Y0113925D01*
X0194832Y0113925D01*
X0197468Y0111289D01*
X0197468Y0109925D01*
X0193469Y0109925D01*
X0193469Y0108925D01*
X0197468Y0108925D01*
X0197468Y0107561D01*
X0194832Y0104925D01*
X0193468Y0104925D01*
X0193468Y0108925D01*
X0192469Y0108925D01*
X0192469Y0104925D01*
X0191105Y0104925D01*
X0190156Y0105873D02*
X0185781Y0105873D01*
X0184832Y0104925D02*
X0187468Y0107561D01*
X0187468Y0108925D01*
X0183469Y0108925D01*
X0183469Y0109925D01*
X0187468Y0109925D01*
X0187468Y0111289D01*
X0184832Y0113925D01*
X0183468Y0113925D01*
X0183468Y0109925D01*
X0182469Y0109925D01*
X0182469Y0113925D01*
X0181105Y0113925D01*
X0178469Y0111289D01*
X0178469Y0109925D01*
X0182468Y0109925D01*
X0182468Y0108925D01*
X0178469Y0108925D01*
X0178469Y0107561D01*
X0181105Y0104925D01*
X0182469Y0104925D01*
X0182469Y0108925D01*
X0183468Y0108925D01*
X0183468Y0104925D01*
X0184832Y0104925D01*
X0183468Y0105873D02*
X0182469Y0105873D01*
X0182469Y0106872D02*
X0183468Y0106872D01*
X0183468Y0107870D02*
X0182469Y0107870D01*
X0182469Y0108869D02*
X0183468Y0108869D01*
X0183469Y0109868D02*
X0192468Y0109868D01*
X0192469Y0110866D02*
X0193468Y0110866D01*
X0193469Y0109868D02*
X0202468Y0109868D01*
X0202468Y0109925D02*
X0202468Y0108925D01*
X0198469Y0108925D01*
X0198469Y0107561D01*
X0201105Y0104925D01*
X0202469Y0104925D01*
X0202469Y0108925D01*
X0203468Y0108925D01*
X0203468Y0104925D01*
X0204832Y0104925D01*
X0207468Y0107561D01*
X0207468Y0108925D01*
X0203469Y0108925D01*
X0203469Y0109925D01*
X0207468Y0109925D01*
X0207468Y0111289D01*
X0204832Y0113925D01*
X0203468Y0113925D01*
X0203468Y0109925D01*
X0202469Y0109925D01*
X0202469Y0113925D01*
X0201105Y0113925D01*
X0198469Y0111289D01*
X0198469Y0109925D01*
X0202468Y0109925D01*
X0202469Y0110866D02*
X0203468Y0110866D01*
X0203469Y0109868D02*
X0211350Y0109868D01*
X0211350Y0110866D02*
X0207468Y0110866D01*
X0206893Y0111865D02*
X0211350Y0111865D01*
X0211350Y0112863D02*
X0205895Y0112863D01*
X0204896Y0113862D02*
X0211350Y0113862D01*
X0211350Y0114860D02*
X0098800Y0114860D01*
X0098800Y0114953D02*
X0097453Y0116300D01*
X0095547Y0116300D01*
X0094847Y0115600D01*
X0091153Y0115600D01*
X0090453Y0116300D01*
X0088547Y0116300D01*
X0087200Y0114953D01*
X0087200Y0113047D01*
X0088547Y0111700D01*
X0090453Y0111700D01*
X0091153Y0112400D01*
X0094847Y0112400D01*
X0095547Y0111700D01*
X0097453Y0111700D01*
X0098800Y0113047D01*
X0098800Y0114953D01*
X0098800Y0113862D02*
X0181041Y0113862D01*
X0180042Y0112863D02*
X0098616Y0112863D01*
X0097617Y0111865D02*
X0179044Y0111865D01*
X0178469Y0110866D02*
X0157752Y0110866D01*
X0157881Y0109868D02*
X0182468Y0109868D01*
X0182469Y0110866D02*
X0183468Y0110866D01*
X0183468Y0111865D02*
X0182469Y0111865D01*
X0182469Y0112863D02*
X0183468Y0112863D01*
X0183468Y0113862D02*
X0182469Y0113862D01*
X0181270Y0115325D02*
X0184667Y0115325D01*
X0187068Y0117727D01*
X0187068Y0121123D01*
X0184667Y0123525D01*
X0181270Y0123525D01*
X0178869Y0121123D01*
X0178869Y0117727D01*
X0181270Y0115325D01*
X0180737Y0115859D02*
X0097894Y0115859D01*
X0096500Y0114000D02*
X0089500Y0114000D01*
X0087200Y0113862D02*
X0073479Y0113862D01*
X0073881Y0114860D02*
X0087200Y0114860D01*
X0088106Y0115859D02*
X0073881Y0115859D01*
X0073881Y0116857D02*
X0179738Y0116857D01*
X0178869Y0117856D02*
X0073881Y0117856D01*
X0073764Y0118854D02*
X0178869Y0118854D01*
X0178869Y0119853D02*
X0063105Y0119853D01*
X0062953Y0119700D02*
X0064300Y0121047D01*
X0064300Y0122953D01*
X0062953Y0124300D01*
X0061047Y0124300D01*
X0060347Y0123600D01*
X0058653Y0123600D01*
X0057953Y0124300D01*
X0056047Y0124300D01*
X0054700Y0122953D01*
X0054700Y0121047D01*
X0056047Y0119700D01*
X0057953Y0119700D01*
X0058653Y0120400D01*
X0060347Y0120400D01*
X0061047Y0119700D01*
X0062953Y0119700D01*
X0064104Y0120851D02*
X0178869Y0120851D01*
X0179595Y0121850D02*
X0064300Y0121850D01*
X0064300Y0122848D02*
X0180593Y0122848D01*
X0181105Y0124925D02*
X0178469Y0127561D01*
X0178469Y0128925D01*
X0182468Y0128925D01*
X0182468Y0129925D01*
X0178469Y0129925D01*
X0178469Y0131289D01*
X0181105Y0133925D01*
X0182469Y0133925D01*
X0182469Y0129925D01*
X0183468Y0129925D01*
X0183468Y0133925D01*
X0184832Y0133925D01*
X0187468Y0131289D01*
X0187468Y0129925D01*
X0183469Y0129925D01*
X0183469Y0128925D01*
X0187468Y0128925D01*
X0187468Y0127561D01*
X0184832Y0124925D01*
X0183468Y0124925D01*
X0183468Y0128925D01*
X0182469Y0128925D01*
X0182469Y0124925D01*
X0181105Y0124925D01*
X0180186Y0125844D02*
X0030910Y0125844D01*
X0031165Y0125949D02*
X0032318Y0127103D01*
X0032943Y0128610D01*
X0032943Y0130241D01*
X0032318Y0131748D01*
X0031165Y0132901D01*
X0029658Y0133525D01*
X0022027Y0133525D01*
X0020520Y0132901D01*
X0019367Y0131748D01*
X0018743Y0130241D01*
X0018743Y0128610D01*
X0019367Y0127103D01*
X0020520Y0125949D01*
X0022027Y0125325D01*
X0029658Y0125325D01*
X0031165Y0125949D01*
X0032058Y0126842D02*
X0179188Y0126842D01*
X0178469Y0127841D02*
X0032624Y0127841D01*
X0032943Y0128839D02*
X0178469Y0128839D01*
X0178469Y0130836D02*
X0157881Y0130836D01*
X0157881Y0129838D02*
X0182468Y0129838D01*
X0182469Y0130836D02*
X0183468Y0130836D01*
X0183469Y0129838D02*
X0192468Y0129838D01*
X0192468Y0129925D02*
X0192468Y0128925D01*
X0188469Y0128925D01*
X0188469Y0127561D01*
X0191105Y0124925D01*
X0192469Y0124925D01*
X0192469Y0128925D01*
X0193468Y0128925D01*
X0193468Y0124925D01*
X0194832Y0124925D01*
X0197468Y0127561D01*
X0197468Y0128925D01*
X0193469Y0128925D01*
X0193469Y0129925D01*
X0197468Y0129925D01*
X0197468Y0131289D01*
X0194832Y0133925D01*
X0193468Y0133925D01*
X0193468Y0129925D01*
X0192469Y0129925D01*
X0192469Y0133925D01*
X0191105Y0133925D01*
X0188469Y0131289D01*
X0188469Y0129925D01*
X0192468Y0129925D01*
X0192469Y0130836D02*
X0193468Y0130836D01*
X0193469Y0129838D02*
X0202468Y0129838D01*
X0202468Y0129925D02*
X0202468Y0128925D01*
X0198469Y0128925D01*
X0198469Y0127561D01*
X0201105Y0124925D01*
X0202469Y0124925D01*
X0202469Y0128925D01*
X0203468Y0128925D01*
X0203468Y0124925D01*
X0204832Y0124925D01*
X0207468Y0127561D01*
X0207468Y0128925D01*
X0203469Y0128925D01*
X0203469Y0129925D01*
X0207468Y0129925D01*
X0207468Y0131289D01*
X0204832Y0133925D01*
X0203468Y0133925D01*
X0203468Y0129925D01*
X0202469Y0129925D01*
X0202469Y0133925D01*
X0201105Y0133925D01*
X0198469Y0131289D01*
X0198469Y0129925D01*
X0202468Y0129925D01*
X0202469Y0130836D02*
X0203468Y0130836D01*
X0203469Y0129838D02*
X0211350Y0129838D01*
X0211350Y0130836D02*
X0207468Y0130836D01*
X0206923Y0131835D02*
X0211350Y0131835D01*
X0211350Y0132833D02*
X0205924Y0132833D01*
X0204926Y0133832D02*
X0211350Y0133832D01*
X0211350Y0134830D02*
X0157288Y0134830D01*
X0157237Y0134881D02*
X0156900Y0134881D01*
X0156900Y0138619D01*
X0157237Y0138619D01*
X0157881Y0139263D01*
X0157881Y0143737D01*
X0157237Y0144381D01*
X0152763Y0144381D01*
X0152119Y0143737D01*
X0152119Y0139263D01*
X0152763Y0138619D01*
X0153100Y0138619D01*
X0153100Y0134881D01*
X0152763Y0134881D01*
X0152119Y0134237D01*
X0152119Y0129763D01*
X0152763Y0129119D01*
X0157237Y0129119D01*
X0157881Y0129763D01*
X0157881Y0134237D01*
X0157237Y0134881D01*
X0156900Y0135829D02*
X0180767Y0135829D01*
X0181270Y0135325D02*
X0178869Y0137727D01*
X0178869Y0141123D01*
X0181270Y0143525D01*
X0184667Y0143525D01*
X0187068Y0141123D01*
X0187068Y0137727D01*
X0184667Y0135325D01*
X0181270Y0135325D01*
X0181011Y0133832D02*
X0157881Y0133832D01*
X0157881Y0132833D02*
X0180013Y0132833D01*
X0179014Y0131835D02*
X0157881Y0131835D01*
X0156900Y0136827D02*
X0179768Y0136827D01*
X0178869Y0137826D02*
X0156900Y0137826D01*
X0157442Y0138824D02*
X0178869Y0138824D01*
X0178869Y0139823D02*
X0157881Y0139823D01*
X0157881Y0140821D02*
X0178869Y0140821D01*
X0179565Y0141820D02*
X0157881Y0141820D01*
X0157881Y0142818D02*
X0180563Y0142818D01*
X0179771Y0144925D02*
X0182469Y0144925D01*
X0182469Y0148925D01*
X0183468Y0148925D01*
X0183468Y0144925D01*
X0186166Y0144925D01*
X0186547Y0145027D01*
X0186890Y0145225D01*
X0187169Y0145504D01*
X0187366Y0145846D01*
X0187468Y0146228D01*
X0187468Y0148925D01*
X0183469Y0148925D01*
X0183469Y0149925D01*
X0187468Y0149925D01*
X0187468Y0152623D01*
X0187366Y0153004D01*
X0187169Y0153346D01*
X0186890Y0153625D01*
X0186547Y0153823D01*
X0186166Y0153925D01*
X0183468Y0153925D01*
X0183468Y0149925D01*
X0182469Y0149925D01*
X0182469Y0153925D01*
X0179771Y0153925D01*
X0179390Y0153823D01*
X0179047Y0153625D01*
X0178768Y0153346D01*
X0178571Y0153004D01*
X0178469Y0152623D01*
X0178469Y0149925D01*
X0182468Y0149925D01*
X0182468Y0148925D01*
X0178469Y0148925D01*
X0178469Y0146228D01*
X0178571Y0145846D01*
X0178768Y0145504D01*
X0179047Y0145225D01*
X0179390Y0145027D01*
X0179771Y0144925D01*
X0178589Y0145814D02*
X0030838Y0145814D01*
X0031165Y0145949D02*
X0032318Y0147103D01*
X0032943Y0148610D01*
X0032943Y0150241D01*
X0032318Y0151748D01*
X0031165Y0152901D01*
X0029658Y0153525D01*
X0022027Y0153525D01*
X0020520Y0152901D01*
X0019367Y0151748D01*
X0018743Y0150241D01*
X0018743Y0148610D01*
X0019367Y0147103D01*
X0020520Y0145949D01*
X0022027Y0145325D01*
X0029658Y0145325D01*
X0031165Y0145949D01*
X0032028Y0146812D02*
X0178469Y0146812D01*
X0178469Y0147811D02*
X0032612Y0147811D01*
X0032943Y0148809D02*
X0178469Y0148809D01*
X0178469Y0150806D02*
X0032708Y0150806D01*
X0032943Y0149808D02*
X0182468Y0149808D01*
X0182469Y0150806D02*
X0183468Y0150806D01*
X0183469Y0149808D02*
X0192468Y0149808D01*
X0192468Y0149925D02*
X0192468Y0148925D01*
X0188469Y0148925D01*
X0188469Y0147561D01*
X0191105Y0144925D01*
X0192469Y0144925D01*
X0192469Y0148925D01*
X0193468Y0148925D01*
X0193468Y0144925D01*
X0194832Y0144925D01*
X0197468Y0147561D01*
X0197468Y0148925D01*
X0193469Y0148925D01*
X0193469Y0149925D01*
X0197468Y0149925D01*
X0197468Y0151289D01*
X0194832Y0153925D01*
X0193468Y0153925D01*
X0193468Y0149925D01*
X0192469Y0149925D01*
X0192469Y0153925D01*
X0191105Y0153925D01*
X0188469Y0151289D01*
X0188469Y0149925D01*
X0192468Y0149925D01*
X0192469Y0150806D02*
X0193468Y0150806D01*
X0193469Y0149808D02*
X0202468Y0149808D01*
X0202468Y0149925D02*
X0202468Y0148925D01*
X0198469Y0148925D01*
X0198469Y0147561D01*
X0201105Y0144925D01*
X0202469Y0144925D01*
X0202469Y0148925D01*
X0203468Y0148925D01*
X0203468Y0144925D01*
X0204832Y0144925D01*
X0207468Y0147561D01*
X0207468Y0148925D01*
X0203469Y0148925D01*
X0203469Y0149925D01*
X0207468Y0149925D01*
X0207468Y0151289D01*
X0204832Y0153925D01*
X0203468Y0153925D01*
X0203468Y0149925D01*
X0202469Y0149925D01*
X0202469Y0153925D01*
X0201105Y0153925D01*
X0198469Y0151289D01*
X0198469Y0149925D01*
X0202468Y0149925D01*
X0202469Y0150806D02*
X0203468Y0150806D01*
X0203469Y0149808D02*
X0211350Y0149808D01*
X0211350Y0150806D02*
X0207468Y0150806D01*
X0206953Y0151805D02*
X0211350Y0151805D01*
X0211350Y0152803D02*
X0205954Y0152803D01*
X0204956Y0153802D02*
X0211350Y0153802D01*
X0211350Y0154801D02*
X0017500Y0154801D01*
X0017500Y0155799D02*
X0020883Y0155799D01*
X0020520Y0155949D02*
X0022027Y0155325D01*
X0029658Y0155325D01*
X0031165Y0155949D01*
X0032318Y0157103D01*
X0032943Y0158610D01*
X0032943Y0160241D01*
X0032318Y0161748D01*
X0031165Y0162901D01*
X0029658Y0163525D01*
X0022027Y0163525D01*
X0020520Y0162901D01*
X0019367Y0161748D01*
X0018743Y0160241D01*
X0018743Y0158610D01*
X0019367Y0157103D01*
X0020520Y0155949D01*
X0019672Y0156798D02*
X0017500Y0156798D01*
X0017500Y0157796D02*
X0019080Y0157796D01*
X0018743Y0158795D02*
X0017500Y0158795D01*
X0017500Y0159793D02*
X0018743Y0159793D01*
X0018971Y0160792D02*
X0017500Y0160792D01*
X0017500Y0161790D02*
X0019409Y0161790D01*
X0020408Y0162789D02*
X0017500Y0162789D01*
X0017500Y0163787D02*
X0211350Y0163787D01*
X0211350Y0162789D02*
X0031277Y0162789D01*
X0032276Y0161790D02*
X0211350Y0161790D01*
X0211350Y0160792D02*
X0032714Y0160792D01*
X0032943Y0159793D02*
X0211350Y0159793D01*
X0211350Y0158795D02*
X0032943Y0158795D01*
X0032605Y0157796D02*
X0211350Y0157796D01*
X0211350Y0156798D02*
X0032013Y0156798D01*
X0030802Y0155799D02*
X0211350Y0155799D01*
X0211350Y0148809D02*
X0207468Y0148809D01*
X0207468Y0147811D02*
X0211350Y0147811D01*
X0211350Y0146812D02*
X0206720Y0146812D01*
X0205721Y0145814D02*
X0211350Y0145814D01*
X0211350Y0144815D02*
X0017500Y0144815D01*
X0017500Y0143817D02*
X0021805Y0143817D01*
X0021789Y0143814D02*
X0021115Y0143595D01*
X0020484Y0143274D01*
X0019911Y0142858D01*
X0019410Y0142357D01*
X0018994Y0141784D01*
X0018672Y0141153D01*
X0018453Y0140479D01*
X0018366Y0139925D01*
X0025342Y0139925D01*
X0025342Y0138925D01*
X0018366Y0138925D01*
X0018453Y0138371D01*
X0018672Y0137698D01*
X0018994Y0137067D01*
X0019410Y0136494D01*
X0019911Y0135993D01*
X0020484Y0135576D01*
X0021115Y0135255D01*
X0021789Y0135036D01*
X0022488Y0134925D01*
X0025343Y0134925D01*
X0025343Y0138925D01*
X0026342Y0138925D01*
X0026342Y0134925D01*
X0029197Y0134925D01*
X0029896Y0135036D01*
X0030570Y0135255D01*
X0031201Y0135576D01*
X0031774Y0135993D01*
X0032275Y0136494D01*
X0032691Y0137067D01*
X0033013Y0137698D01*
X0033232Y0138371D01*
X0033319Y0138925D01*
X0026343Y0138925D01*
X0026343Y0139925D01*
X0033319Y0139925D01*
X0033232Y0140479D01*
X0033013Y0141153D01*
X0032691Y0141784D01*
X0032275Y0142357D01*
X0031774Y0142858D01*
X0031201Y0143274D01*
X0030570Y0143595D01*
X0029896Y0143814D01*
X0029197Y0143925D01*
X0026342Y0143925D01*
X0026342Y0139925D01*
X0025343Y0139925D01*
X0025343Y0143925D01*
X0022488Y0143925D01*
X0021789Y0143814D01*
X0019872Y0142818D02*
X0017500Y0142818D01*
X0017500Y0141820D02*
X0019020Y0141820D01*
X0018565Y0140821D02*
X0017500Y0140821D01*
X0017500Y0139823D02*
X0025342Y0139823D01*
X0025343Y0140821D02*
X0026342Y0140821D01*
X0026343Y0139823D02*
X0152119Y0139823D01*
X0152119Y0140821D02*
X0033120Y0140821D01*
X0032665Y0141820D02*
X0152119Y0141820D01*
X0152119Y0142818D02*
X0031813Y0142818D01*
X0029880Y0143817D02*
X0152199Y0143817D01*
X0152558Y0138824D02*
X0033303Y0138824D01*
X0033054Y0137826D02*
X0153100Y0137826D01*
X0153100Y0136827D02*
X0032517Y0136827D01*
X0031548Y0135829D02*
X0153100Y0135829D01*
X0152712Y0134830D02*
X0017500Y0134830D01*
X0017500Y0133832D02*
X0152119Y0133832D01*
X0152119Y0132833D02*
X0031233Y0132833D01*
X0032231Y0131835D02*
X0152119Y0131835D01*
X0152119Y0130836D02*
X0032696Y0130836D01*
X0032943Y0129838D02*
X0152119Y0129838D01*
X0157801Y0143817D02*
X0211350Y0143817D01*
X0211350Y0142818D02*
X0205374Y0142818D01*
X0204667Y0143525D02*
X0201270Y0143525D01*
X0198869Y0141123D01*
X0198869Y0137727D01*
X0201270Y0135325D01*
X0204667Y0135325D01*
X0207068Y0137727D01*
X0207068Y0141123D01*
X0204667Y0143525D01*
X0206372Y0141820D02*
X0211350Y0141820D01*
X0211350Y0140821D02*
X0207068Y0140821D01*
X0207068Y0139823D02*
X0211350Y0139823D01*
X0211350Y0138824D02*
X0207068Y0138824D01*
X0207068Y0137826D02*
X0211350Y0137826D01*
X0211350Y0136827D02*
X0206169Y0136827D01*
X0205170Y0135829D02*
X0211350Y0135829D01*
X0211350Y0128839D02*
X0207468Y0128839D01*
X0207468Y0127841D02*
X0211350Y0127841D01*
X0211350Y0126842D02*
X0206749Y0126842D01*
X0205751Y0125844D02*
X0211350Y0125844D01*
X0211350Y0124845D02*
X0017500Y0124845D01*
X0017500Y0123847D02*
X0055594Y0123847D01*
X0054700Y0122848D02*
X0017500Y0122848D01*
X0017500Y0121850D02*
X0054700Y0121850D01*
X0054896Y0120851D02*
X0017500Y0120851D01*
X0017500Y0119853D02*
X0055895Y0119853D01*
X0058105Y0119853D02*
X0060895Y0119853D01*
X0062000Y0122000D02*
X0057000Y0122000D01*
X0058406Y0123847D02*
X0060594Y0123847D01*
X0063406Y0123847D02*
X0211350Y0123847D01*
X0211350Y0122848D02*
X0205344Y0122848D01*
X0204667Y0123525D02*
X0201270Y0123525D01*
X0198869Y0121123D01*
X0198869Y0117727D01*
X0201270Y0115325D01*
X0204667Y0115325D01*
X0207068Y0117727D01*
X0207068Y0121123D01*
X0204667Y0123525D01*
X0206342Y0121850D02*
X0211350Y0121850D01*
X0211350Y0120851D02*
X0207068Y0120851D01*
X0207068Y0119853D02*
X0211350Y0119853D01*
X0211350Y0118854D02*
X0207068Y0118854D01*
X0207068Y0117856D02*
X0211350Y0117856D01*
X0211350Y0116857D02*
X0206199Y0116857D01*
X0205200Y0115859D02*
X0211350Y0115859D01*
X0211350Y0108869D02*
X0207468Y0108869D01*
X0207468Y0107870D02*
X0211350Y0107870D01*
X0211350Y0106872D02*
X0206779Y0106872D01*
X0205781Y0105873D02*
X0211350Y0105873D01*
X0211350Y0104875D02*
X0156900Y0104875D01*
X0156900Y0103876D02*
X0211350Y0103876D01*
X0211350Y0102878D02*
X0205314Y0102878D01*
X0206313Y0101879D02*
X0211350Y0101879D01*
X0211350Y0100881D02*
X0207068Y0100881D01*
X0207068Y0099882D02*
X0211350Y0099882D01*
X0211350Y0098884D02*
X0207068Y0098884D01*
X0207068Y0097885D02*
X0211350Y0097885D01*
X0211350Y0096887D02*
X0206228Y0096887D01*
X0200707Y0095888D02*
X0195230Y0095888D01*
X0196228Y0096887D02*
X0199709Y0096887D01*
X0198869Y0097885D02*
X0197068Y0097885D01*
X0197068Y0098884D02*
X0198869Y0098884D01*
X0198869Y0099882D02*
X0197068Y0099882D01*
X0197068Y0100881D02*
X0198869Y0100881D01*
X0199624Y0101879D02*
X0196313Y0101879D01*
X0195314Y0102878D02*
X0200623Y0102878D01*
X0200156Y0105873D02*
X0195781Y0105873D01*
X0196779Y0106872D02*
X0199158Y0106872D01*
X0198469Y0107870D02*
X0197468Y0107870D01*
X0197468Y0108869D02*
X0198469Y0108869D01*
X0198469Y0110866D02*
X0197468Y0110866D01*
X0196893Y0111865D02*
X0199044Y0111865D01*
X0200042Y0112863D02*
X0195895Y0112863D01*
X0194896Y0113862D02*
X0201041Y0113862D01*
X0202469Y0113862D02*
X0203468Y0113862D01*
X0203468Y0112863D02*
X0202469Y0112863D01*
X0202469Y0111865D02*
X0203468Y0111865D01*
X0203468Y0108869D02*
X0202469Y0108869D01*
X0202469Y0107870D02*
X0203468Y0107870D01*
X0203468Y0106872D02*
X0202469Y0106872D01*
X0202469Y0105873D02*
X0203468Y0105873D01*
X0193468Y0105873D02*
X0192469Y0105873D01*
X0192469Y0106872D02*
X0193468Y0106872D01*
X0193468Y0107870D02*
X0192469Y0107870D01*
X0192469Y0108869D02*
X0193468Y0108869D01*
X0193468Y0111865D02*
X0192469Y0111865D01*
X0192469Y0112863D02*
X0193468Y0112863D01*
X0193468Y0113862D02*
X0192469Y0113862D01*
X0191041Y0113862D02*
X0184896Y0113862D01*
X0185895Y0112863D02*
X0190042Y0112863D01*
X0189044Y0111865D02*
X0186893Y0111865D01*
X0187468Y0110866D02*
X0188469Y0110866D01*
X0188469Y0108869D02*
X0187468Y0108869D01*
X0187468Y0107870D02*
X0188469Y0107870D01*
X0189158Y0106872D02*
X0186779Y0106872D01*
X0180156Y0105873D02*
X0157491Y0105873D01*
X0157881Y0106872D02*
X0179158Y0106872D01*
X0178469Y0107870D02*
X0157881Y0107870D01*
X0157881Y0108869D02*
X0178469Y0108869D01*
X0180623Y0102878D02*
X0157740Y0102878D01*
X0157881Y0101879D02*
X0179624Y0101879D01*
X0178869Y0100881D02*
X0157881Y0100881D01*
X0157881Y0099882D02*
X0178869Y0099882D01*
X0178869Y0098884D02*
X0157881Y0098884D01*
X0157503Y0097885D02*
X0178869Y0097885D01*
X0179709Y0096887D02*
X0156900Y0096887D01*
X0152260Y0102878D02*
X0073496Y0102878D01*
X0073881Y0103876D02*
X0153100Y0103876D01*
X0153100Y0104875D02*
X0073881Y0104875D01*
X0073881Y0105873D02*
X0152509Y0105873D01*
X0152119Y0106872D02*
X0098125Y0106872D01*
X0097453Y0106200D02*
X0098800Y0107547D01*
X0098800Y0109453D01*
X0097453Y0110800D01*
X0095547Y0110800D01*
X0094847Y0110100D01*
X0091153Y0110100D01*
X0090453Y0110800D01*
X0088547Y0110800D01*
X0087200Y0109453D01*
X0087200Y0107547D01*
X0088547Y0106200D01*
X0090453Y0106200D01*
X0091153Y0106900D01*
X0094847Y0106900D01*
X0095547Y0106200D01*
X0097453Y0106200D01*
X0098800Y0107870D02*
X0152119Y0107870D01*
X0152119Y0108869D02*
X0098800Y0108869D01*
X0098385Y0109868D02*
X0152119Y0109868D01*
X0152248Y0110866D02*
X0072900Y0110866D01*
X0072900Y0109868D02*
X0087615Y0109868D01*
X0087200Y0108869D02*
X0072900Y0108869D01*
X0073747Y0107870D02*
X0087200Y0107870D01*
X0087875Y0106872D02*
X0073881Y0106872D01*
X0072900Y0111865D02*
X0088383Y0111865D01*
X0087384Y0112863D02*
X0072900Y0112863D01*
X0069100Y0112863D02*
X0031203Y0112863D01*
X0031165Y0112901D02*
X0029658Y0113525D01*
X0022027Y0113525D01*
X0020520Y0112901D01*
X0019367Y0111748D01*
X0018743Y0110241D01*
X0018743Y0108610D01*
X0019367Y0107103D01*
X0020520Y0105949D01*
X0022027Y0105325D01*
X0029658Y0105325D01*
X0031165Y0105949D01*
X0032318Y0107103D01*
X0032943Y0108610D01*
X0032943Y0110241D01*
X0032318Y0111748D01*
X0031165Y0112901D01*
X0032201Y0111865D02*
X0069100Y0111865D01*
X0069100Y0110866D02*
X0032684Y0110866D01*
X0032943Y0109868D02*
X0069100Y0109868D01*
X0069100Y0108869D02*
X0032943Y0108869D01*
X0032636Y0107870D02*
X0068253Y0107870D01*
X0068119Y0106872D02*
X0032088Y0106872D01*
X0030982Y0105873D02*
X0068119Y0105873D01*
X0068119Y0104875D02*
X0017500Y0104875D01*
X0017500Y0105873D02*
X0020703Y0105873D01*
X0019597Y0106872D02*
X0017500Y0106872D01*
X0017500Y0107870D02*
X0019049Y0107870D01*
X0018743Y0108869D02*
X0017500Y0108869D01*
X0017500Y0109868D02*
X0018743Y0109868D01*
X0019002Y0110866D02*
X0017500Y0110866D01*
X0017500Y0111865D02*
X0019484Y0111865D01*
X0020482Y0112863D02*
X0017500Y0112863D01*
X0017500Y0113862D02*
X0068521Y0113862D01*
X0068119Y0114860D02*
X0017500Y0114860D01*
X0017500Y0115859D02*
X0068119Y0115859D01*
X0068119Y0116857D02*
X0017500Y0116857D01*
X0017500Y0117856D02*
X0068119Y0117856D01*
X0068236Y0118854D02*
X0017500Y0118854D01*
X0017500Y0125844D02*
X0020775Y0125844D01*
X0019627Y0126842D02*
X0017500Y0126842D01*
X0017500Y0127841D02*
X0019061Y0127841D01*
X0018743Y0128839D02*
X0017500Y0128839D01*
X0017500Y0129838D02*
X0018743Y0129838D01*
X0018989Y0130836D02*
X0017500Y0130836D01*
X0017500Y0131835D02*
X0019454Y0131835D01*
X0020452Y0132833D02*
X0017500Y0132833D01*
X0017500Y0135829D02*
X0020137Y0135829D01*
X0019168Y0136827D02*
X0017500Y0136827D01*
X0017500Y0137826D02*
X0018631Y0137826D01*
X0018382Y0138824D02*
X0017500Y0138824D01*
X0017500Y0145814D02*
X0020847Y0145814D01*
X0019657Y0146812D02*
X0017500Y0146812D01*
X0017500Y0147811D02*
X0019073Y0147811D01*
X0018743Y0148809D02*
X0017500Y0148809D01*
X0017500Y0149808D02*
X0018743Y0149808D01*
X0018977Y0150806D02*
X0017500Y0150806D01*
X0017500Y0151805D02*
X0019424Y0151805D01*
X0020423Y0152803D02*
X0017500Y0152803D01*
X0017500Y0153802D02*
X0179353Y0153802D01*
X0178517Y0152803D02*
X0031262Y0152803D01*
X0032261Y0151805D02*
X0178469Y0151805D01*
X0182469Y0151805D02*
X0183468Y0151805D01*
X0183468Y0152803D02*
X0182469Y0152803D01*
X0182469Y0153802D02*
X0183468Y0153802D01*
X0186584Y0153802D02*
X0190981Y0153802D01*
X0189983Y0152803D02*
X0187420Y0152803D01*
X0187468Y0151805D02*
X0188984Y0151805D01*
X0188469Y0150806D02*
X0187468Y0150806D01*
X0187468Y0148809D02*
X0188469Y0148809D01*
X0188469Y0147811D02*
X0187468Y0147811D01*
X0187468Y0146812D02*
X0189217Y0146812D01*
X0190216Y0145814D02*
X0187348Y0145814D01*
X0185374Y0142818D02*
X0190563Y0142818D01*
X0191270Y0143525D02*
X0188869Y0141123D01*
X0188869Y0137727D01*
X0191270Y0135325D01*
X0194667Y0135325D01*
X0197068Y0137727D01*
X0197068Y0141123D01*
X0194667Y0143525D01*
X0191270Y0143525D01*
X0189565Y0141820D02*
X0186372Y0141820D01*
X0187068Y0140821D02*
X0188869Y0140821D01*
X0188869Y0139823D02*
X0187068Y0139823D01*
X0187068Y0138824D02*
X0188869Y0138824D01*
X0188869Y0137826D02*
X0187068Y0137826D01*
X0186169Y0136827D02*
X0189768Y0136827D01*
X0190767Y0135829D02*
X0185170Y0135829D01*
X0184926Y0133832D02*
X0191011Y0133832D01*
X0190013Y0132833D02*
X0185924Y0132833D01*
X0186923Y0131835D02*
X0189014Y0131835D01*
X0188469Y0130836D02*
X0187468Y0130836D01*
X0187468Y0128839D02*
X0188469Y0128839D01*
X0188469Y0127841D02*
X0187468Y0127841D01*
X0186749Y0126842D02*
X0189188Y0126842D01*
X0190186Y0125844D02*
X0185751Y0125844D01*
X0183468Y0125844D02*
X0182469Y0125844D01*
X0182469Y0126842D02*
X0183468Y0126842D01*
X0183468Y0127841D02*
X0182469Y0127841D01*
X0182469Y0128839D02*
X0183468Y0128839D01*
X0183468Y0131835D02*
X0182469Y0131835D01*
X0182469Y0132833D02*
X0183468Y0132833D01*
X0183468Y0133832D02*
X0182469Y0133832D01*
X0192469Y0133832D02*
X0193468Y0133832D01*
X0193468Y0132833D02*
X0192469Y0132833D01*
X0192469Y0131835D02*
X0193468Y0131835D01*
X0194926Y0133832D02*
X0201011Y0133832D01*
X0200013Y0132833D02*
X0195924Y0132833D01*
X0196923Y0131835D02*
X0199014Y0131835D01*
X0198469Y0130836D02*
X0197468Y0130836D01*
X0197468Y0128839D02*
X0198469Y0128839D01*
X0198469Y0127841D02*
X0197468Y0127841D01*
X0196749Y0126842D02*
X0199188Y0126842D01*
X0200186Y0125844D02*
X0195751Y0125844D01*
X0193468Y0125844D02*
X0192469Y0125844D01*
X0192469Y0126842D02*
X0193468Y0126842D01*
X0193468Y0127841D02*
X0192469Y0127841D01*
X0192469Y0128839D02*
X0193468Y0128839D01*
X0194667Y0123525D02*
X0191270Y0123525D01*
X0188869Y0121123D01*
X0188869Y0117727D01*
X0191270Y0115325D01*
X0194667Y0115325D01*
X0197068Y0117727D01*
X0197068Y0121123D01*
X0194667Y0123525D01*
X0195344Y0122848D02*
X0200593Y0122848D01*
X0199595Y0121850D02*
X0196342Y0121850D01*
X0197068Y0120851D02*
X0198869Y0120851D01*
X0198869Y0119853D02*
X0197068Y0119853D01*
X0197068Y0118854D02*
X0198869Y0118854D01*
X0198869Y0117856D02*
X0197068Y0117856D01*
X0196199Y0116857D02*
X0199738Y0116857D01*
X0200737Y0115859D02*
X0195200Y0115859D01*
X0190737Y0115859D02*
X0185200Y0115859D01*
X0186199Y0116857D02*
X0189738Y0116857D01*
X0188869Y0117856D02*
X0187068Y0117856D01*
X0187068Y0118854D02*
X0188869Y0118854D01*
X0188869Y0119853D02*
X0187068Y0119853D01*
X0187068Y0120851D02*
X0188869Y0120851D01*
X0189595Y0121850D02*
X0186342Y0121850D01*
X0185344Y0122848D02*
X0190593Y0122848D01*
X0202469Y0125844D02*
X0203468Y0125844D01*
X0203468Y0126842D02*
X0202469Y0126842D01*
X0202469Y0127841D02*
X0203468Y0127841D01*
X0203468Y0128839D02*
X0202469Y0128839D01*
X0202469Y0131835D02*
X0203468Y0131835D01*
X0203468Y0132833D02*
X0202469Y0132833D01*
X0202469Y0133832D02*
X0203468Y0133832D01*
X0200767Y0135829D02*
X0195170Y0135829D01*
X0196169Y0136827D02*
X0199768Y0136827D01*
X0198869Y0137826D02*
X0197068Y0137826D01*
X0197068Y0138824D02*
X0198869Y0138824D01*
X0198869Y0139823D02*
X0197068Y0139823D01*
X0197068Y0140821D02*
X0198869Y0140821D01*
X0199565Y0141820D02*
X0196372Y0141820D01*
X0195374Y0142818D02*
X0200563Y0142818D01*
X0200216Y0145814D02*
X0195721Y0145814D01*
X0196720Y0146812D02*
X0199217Y0146812D01*
X0198469Y0147811D02*
X0197468Y0147811D01*
X0197468Y0148809D02*
X0198469Y0148809D01*
X0198469Y0150806D02*
X0197468Y0150806D01*
X0196953Y0151805D02*
X0198984Y0151805D01*
X0199983Y0152803D02*
X0195954Y0152803D01*
X0194956Y0153802D02*
X0200981Y0153802D01*
X0202469Y0153802D02*
X0203468Y0153802D01*
X0203468Y0152803D02*
X0202469Y0152803D01*
X0202469Y0151805D02*
X0203468Y0151805D01*
X0203468Y0148809D02*
X0202469Y0148809D01*
X0202469Y0147811D02*
X0203468Y0147811D01*
X0203468Y0146812D02*
X0202469Y0146812D01*
X0202469Y0145814D02*
X0203468Y0145814D01*
X0193468Y0145814D02*
X0192469Y0145814D01*
X0192469Y0146812D02*
X0193468Y0146812D01*
X0193468Y0147811D02*
X0192469Y0147811D01*
X0192469Y0148809D02*
X0193468Y0148809D01*
X0193468Y0151805D02*
X0192469Y0151805D01*
X0192469Y0152803D02*
X0193468Y0152803D01*
X0193468Y0153802D02*
X0192469Y0153802D01*
X0183468Y0148809D02*
X0182469Y0148809D01*
X0182469Y0147811D02*
X0183468Y0147811D01*
X0183468Y0146812D02*
X0182469Y0146812D01*
X0182469Y0145814D02*
X0183468Y0145814D01*
X0211350Y0164786D02*
X0017500Y0164786D01*
X0017500Y0165784D02*
X0020919Y0165784D01*
X0020520Y0165949D02*
X0022027Y0165325D01*
X0029658Y0165325D01*
X0031165Y0165949D01*
X0032318Y0167103D01*
X0032649Y0167900D01*
X0042347Y0167900D01*
X0043047Y0167200D01*
X0044953Y0167200D01*
X0046300Y0168547D01*
X0046300Y0170453D01*
X0044953Y0171800D01*
X0043047Y0171800D01*
X0042347Y0171100D01*
X0032587Y0171100D01*
X0032318Y0171748D01*
X0031165Y0172901D01*
X0029658Y0173525D01*
X0022027Y0173525D01*
X0020520Y0172901D01*
X0019367Y0171748D01*
X0018743Y0170241D01*
X0018743Y0168610D01*
X0019367Y0167103D01*
X0020520Y0165949D01*
X0019687Y0166783D02*
X0017500Y0166783D01*
X0017500Y0167781D02*
X0019086Y0167781D01*
X0018743Y0168780D02*
X0017500Y0168780D01*
X0017500Y0169778D02*
X0018743Y0169778D01*
X0018965Y0170777D02*
X0017500Y0170777D01*
X0017500Y0171775D02*
X0019394Y0171775D01*
X0020393Y0172774D02*
X0017500Y0172774D01*
X0017500Y0173772D02*
X0211350Y0173772D01*
X0211350Y0172774D02*
X0031292Y0172774D01*
X0032291Y0171775D02*
X0043023Y0171775D01*
X0044977Y0171775D02*
X0211350Y0171775D01*
X0211350Y0170777D02*
X0045976Y0170777D01*
X0046300Y0169778D02*
X0211350Y0169778D01*
X0211350Y0168780D02*
X0046300Y0168780D01*
X0045534Y0167781D02*
X0211350Y0167781D01*
X0211350Y0166783D02*
X0031998Y0166783D01*
X0032599Y0167781D02*
X0042466Y0167781D01*
X0044000Y0169500D02*
X0025917Y0169500D01*
X0025843Y0169425D01*
X0030766Y0165784D02*
X0211350Y0165784D01*
X0211350Y0174771D02*
X0017500Y0174771D01*
X0017500Y0175769D02*
X0020955Y0175769D01*
X0020520Y0175949D02*
X0022027Y0175325D01*
X0029658Y0175325D01*
X0031165Y0175949D01*
X0032318Y0177103D01*
X0032649Y0177900D01*
X0055347Y0177900D01*
X0056047Y0177200D01*
X0057953Y0177200D01*
X0059300Y0178547D01*
X0059300Y0180453D01*
X0057953Y0181800D01*
X0056047Y0181800D01*
X0055347Y0181100D01*
X0032587Y0181100D01*
X0032318Y0181748D01*
X0031165Y0182901D01*
X0029658Y0183525D01*
X0022027Y0183525D01*
X0020520Y0182901D01*
X0019367Y0181748D01*
X0018743Y0180241D01*
X0018743Y0178610D01*
X0019367Y0177103D01*
X0020520Y0175949D01*
X0019702Y0176768D02*
X0017500Y0176768D01*
X0017500Y0177766D02*
X0019092Y0177766D01*
X0018743Y0178765D02*
X0017500Y0178765D01*
X0017500Y0179763D02*
X0018743Y0179763D01*
X0018958Y0180762D02*
X0017500Y0180762D01*
X0017500Y0181760D02*
X0019379Y0181760D01*
X0020378Y0182759D02*
X0017500Y0182759D01*
X0017500Y0183757D02*
X0211350Y0183757D01*
X0211350Y0182759D02*
X0031307Y0182759D01*
X0032306Y0181760D02*
X0056008Y0181760D01*
X0057992Y0181760D02*
X0211350Y0181760D01*
X0211350Y0180762D02*
X0058991Y0180762D01*
X0059300Y0179763D02*
X0211350Y0179763D01*
X0211350Y0178765D02*
X0059300Y0178765D01*
X0058519Y0177766D02*
X0211350Y0177766D01*
X0211350Y0176768D02*
X0031983Y0176768D01*
X0032593Y0177766D02*
X0055481Y0177766D01*
X0057000Y0179500D02*
X0025917Y0179500D01*
X0025843Y0179425D01*
X0030730Y0175769D02*
X0211350Y0175769D01*
X0211350Y0184756D02*
X0017500Y0184756D01*
X0017500Y0185754D02*
X0211350Y0185754D01*
X0211350Y0186753D02*
X0017500Y0186753D01*
X0017500Y0187751D02*
X0211350Y0187751D01*
X0211350Y0188750D02*
X0017500Y0188750D01*
X0017500Y0189748D02*
X0211350Y0189748D01*
X0211350Y0190747D02*
X0017500Y0190747D01*
X0017500Y0191745D02*
X0211350Y0191745D01*
X0211350Y0192744D02*
X0017500Y0192744D01*
X0017500Y0193742D02*
X0211350Y0193742D01*
X0211350Y0194741D02*
X0199711Y0194741D01*
X0198654Y0194303D02*
X0201520Y0195491D01*
X0203714Y0197684D01*
X0204902Y0200551D01*
X0204902Y0203654D01*
X0203714Y0206520D01*
X0201520Y0208714D01*
X0198654Y0209902D01*
X0195551Y0209902D01*
X0192684Y0208714D01*
X0190491Y0206520D01*
X0189303Y0203654D01*
X0189303Y0200551D01*
X0190491Y0197684D01*
X0192684Y0195491D01*
X0195551Y0194303D01*
X0198654Y0194303D01*
X0201769Y0195739D02*
X0211350Y0195739D01*
X0211350Y0196738D02*
X0202768Y0196738D01*
X0203736Y0197737D02*
X0211350Y0197737D01*
X0211350Y0198735D02*
X0204149Y0198735D01*
X0204563Y0199734D02*
X0211350Y0199734D01*
X0211350Y0200732D02*
X0204902Y0200732D01*
X0204902Y0201731D02*
X0211350Y0201731D01*
X0211350Y0202729D02*
X0204902Y0202729D01*
X0204871Y0203728D02*
X0211350Y0203728D01*
X0211350Y0204726D02*
X0204457Y0204726D01*
X0204044Y0205725D02*
X0211044Y0205725D01*
X0210045Y0206723D02*
X0203511Y0206723D01*
X0202513Y0207722D02*
X0209047Y0207722D01*
X0208048Y0208720D02*
X0201506Y0208720D01*
X0199095Y0209719D02*
X0207050Y0209719D01*
X0206051Y0210717D02*
X0022799Y0210717D01*
X0021801Y0209719D02*
X0029755Y0209719D01*
X0030197Y0209902D02*
X0027330Y0208714D01*
X0025136Y0206520D01*
X0023949Y0203654D01*
X0023949Y0200551D01*
X0025136Y0197684D01*
X0027330Y0195491D01*
X0030197Y0194303D01*
X0033299Y0194303D01*
X0036166Y0195491D01*
X0038360Y0197684D01*
X0039547Y0200551D01*
X0039547Y0203654D01*
X0038360Y0206520D01*
X0036166Y0208714D01*
X0033299Y0209902D01*
X0030197Y0209902D01*
X0027344Y0208720D02*
X0020802Y0208720D01*
X0019804Y0207722D02*
X0026338Y0207722D01*
X0025339Y0206723D02*
X0018805Y0206723D01*
X0017807Y0205725D02*
X0024807Y0205725D01*
X0024393Y0204726D02*
X0017500Y0204726D01*
X0017500Y0203728D02*
X0023979Y0203728D01*
X0023949Y0202729D02*
X0017500Y0202729D01*
X0017500Y0201731D02*
X0023949Y0201731D01*
X0023949Y0200732D02*
X0017500Y0200732D01*
X0017500Y0199734D02*
X0024287Y0199734D01*
X0024701Y0198735D02*
X0017500Y0198735D01*
X0017500Y0197737D02*
X0025115Y0197737D01*
X0026083Y0196738D02*
X0017500Y0196738D01*
X0017500Y0195739D02*
X0027081Y0195739D01*
X0029140Y0194741D02*
X0017500Y0194741D01*
X0034356Y0194741D02*
X0194494Y0194741D01*
X0192435Y0195739D02*
X0036415Y0195739D01*
X0037413Y0196738D02*
X0191437Y0196738D01*
X0190469Y0197737D02*
X0038381Y0197737D01*
X0038795Y0198735D02*
X0190055Y0198735D01*
X0189642Y0199734D02*
X0039209Y0199734D01*
X0039547Y0200732D02*
X0189303Y0200732D01*
X0189303Y0201731D02*
X0039547Y0201731D01*
X0039547Y0202729D02*
X0189303Y0202729D01*
X0189334Y0203728D02*
X0039517Y0203728D01*
X0039103Y0204726D02*
X0189747Y0204726D01*
X0190161Y0205725D02*
X0038689Y0205725D01*
X0038157Y0206723D02*
X0190693Y0206723D01*
X0191692Y0207722D02*
X0037159Y0207722D01*
X0036152Y0208720D02*
X0192699Y0208720D01*
X0195109Y0209719D02*
X0033741Y0209719D01*
X0027792Y0215710D02*
X0201059Y0215710D01*
X0202057Y0214711D02*
X0026793Y0214711D01*
X0025795Y0213713D02*
X0203056Y0213713D01*
X0204054Y0212714D02*
X0024796Y0212714D01*
X0023798Y0211716D02*
X0205053Y0211716D01*
X0095106Y0115859D02*
X0090894Y0115859D01*
X0090617Y0111865D02*
X0095383Y0111865D01*
X0096500Y0108500D02*
X0089500Y0108500D01*
X0091125Y0106872D02*
X0094875Y0106872D01*
X0113316Y0064934D02*
X0114284Y0064934D01*
X0114284Y0063936D02*
X0113316Y0063936D01*
X0113316Y0062937D02*
X0114284Y0062937D01*
X0114284Y0061939D02*
X0113316Y0061939D01*
X0178469Y0087900D02*
X0032649Y0087900D01*
X0032943Y0088899D02*
X0178469Y0088899D01*
X0179128Y0086902D02*
X0032117Y0086902D01*
X0026342Y0083906D02*
X0025343Y0083906D01*
X0025343Y0082908D02*
X0026342Y0082908D01*
X0026342Y0081909D02*
X0025343Y0081909D01*
X0025343Y0080911D02*
X0026342Y0080911D01*
X0026342Y0077915D02*
X0025343Y0077915D01*
X0025343Y0076917D02*
X0026342Y0076917D01*
X0026342Y0075918D02*
X0025343Y0075918D01*
X0018594Y0080911D02*
X0017500Y0080911D01*
X0017500Y0081909D02*
X0019085Y0081909D01*
X0019980Y0082908D02*
X0017500Y0082908D01*
X0017500Y0083906D02*
X0022369Y0083906D01*
X0025343Y0135829D02*
X0026342Y0135829D01*
X0026342Y0136827D02*
X0025343Y0136827D01*
X0025343Y0137826D02*
X0026342Y0137826D01*
X0026342Y0138824D02*
X0025343Y0138824D01*
X0025343Y0141820D02*
X0026342Y0141820D01*
X0026342Y0142818D02*
X0025343Y0142818D01*
X0025343Y0143817D02*
X0026342Y0143817D01*
X0195865Y0092893D02*
X0200072Y0092893D01*
X0199074Y0091894D02*
X0196863Y0091894D01*
X0197468Y0090896D02*
X0198469Y0090896D01*
X0198469Y0088899D02*
X0197468Y0088899D01*
X0197468Y0087900D02*
X0198469Y0087900D01*
X0199128Y0086902D02*
X0196809Y0086902D01*
X0195810Y0085903D02*
X0200127Y0085903D01*
X0206809Y0086902D02*
X0211350Y0086902D01*
X0211350Y0087900D02*
X0207468Y0087900D01*
D17*
X0155000Y0092000D03*
X0155000Y0100500D03*
X0155000Y0108500D03*
X0149000Y0112500D03*
X0149000Y0120500D03*
X0149000Y0128500D03*
X0155000Y0132000D03*
X0155000Y0141500D03*
X0164000Y0165000D03*
X0146000Y0168000D03*
X0138000Y0180500D03*
X0110500Y0188000D03*
X0103700Y0172100D03*
X0083000Y0168000D03*
X0066000Y0188000D03*
X0046500Y0155000D03*
X0046500Y0125000D03*
X0071000Y0116500D03*
X0079000Y0120500D03*
X0081000Y0128500D03*
X0071000Y0105500D03*
X0069000Y0068500D03*
X0073100Y0068500D03*
X0119500Y0088500D03*
X0117000Y0117000D03*
X0117000Y0122000D03*
X0112000Y0122000D03*
X0112000Y0117000D03*
D18*
X0106200Y0127500D03*
D19*
X0071000Y0116500D02*
X0071000Y0105500D01*
X0155000Y0108500D02*
X0155000Y0100500D01*
X0155000Y0092000D01*
X0155000Y0132000D02*
X0155000Y0141500D01*
M02*
