G75*
%MOIN*%
%OFA0B0*%
%FSLAX25Y25*%
%IPPOS*%
%LPD*%
%AMOC8*
5,1,8,0,0,1.08239X$1,22.5*
%
%ADD10C,0.00000*%
%ADD11C,0.06000*%
%ADD12OC8,0.06000*%
%ADD13C,0.01600*%
%ADD14C,0.02400*%
%ADD15C,0.01000*%
%ADD16C,0.04000*%
%ADD17R,0.03562X0.03562*%
D10*
X0010300Y0020311D02*
X0022111Y0008500D01*
X0195339Y0008500D01*
X0207150Y0020311D01*
X0207150Y0193539D01*
X0195339Y0205350D01*
X0022111Y0205350D01*
X0010300Y0193539D01*
X0010300Y0020311D01*
X0019749Y0024248D02*
X0019751Y0024406D01*
X0019757Y0024564D01*
X0019767Y0024722D01*
X0019781Y0024880D01*
X0019799Y0025037D01*
X0019820Y0025194D01*
X0019846Y0025350D01*
X0019876Y0025506D01*
X0019909Y0025661D01*
X0019947Y0025814D01*
X0019988Y0025967D01*
X0020033Y0026119D01*
X0020082Y0026270D01*
X0020135Y0026419D01*
X0020191Y0026567D01*
X0020251Y0026713D01*
X0020315Y0026858D01*
X0020383Y0027001D01*
X0020454Y0027143D01*
X0020528Y0027283D01*
X0020606Y0027420D01*
X0020688Y0027556D01*
X0020772Y0027690D01*
X0020861Y0027821D01*
X0020952Y0027950D01*
X0021047Y0028077D01*
X0021144Y0028202D01*
X0021245Y0028324D01*
X0021349Y0028443D01*
X0021456Y0028560D01*
X0021566Y0028674D01*
X0021679Y0028785D01*
X0021794Y0028894D01*
X0021912Y0028999D01*
X0022033Y0029101D01*
X0022156Y0029201D01*
X0022282Y0029297D01*
X0022410Y0029390D01*
X0022540Y0029480D01*
X0022673Y0029566D01*
X0022808Y0029650D01*
X0022944Y0029729D01*
X0023083Y0029806D01*
X0023224Y0029878D01*
X0023366Y0029948D01*
X0023510Y0030013D01*
X0023656Y0030075D01*
X0023803Y0030133D01*
X0023952Y0030188D01*
X0024102Y0030239D01*
X0024253Y0030286D01*
X0024405Y0030329D01*
X0024558Y0030368D01*
X0024713Y0030404D01*
X0024868Y0030435D01*
X0025024Y0030463D01*
X0025180Y0030487D01*
X0025337Y0030507D01*
X0025495Y0030523D01*
X0025652Y0030535D01*
X0025811Y0030543D01*
X0025969Y0030547D01*
X0026127Y0030547D01*
X0026285Y0030543D01*
X0026444Y0030535D01*
X0026601Y0030523D01*
X0026759Y0030507D01*
X0026916Y0030487D01*
X0027072Y0030463D01*
X0027228Y0030435D01*
X0027383Y0030404D01*
X0027538Y0030368D01*
X0027691Y0030329D01*
X0027843Y0030286D01*
X0027994Y0030239D01*
X0028144Y0030188D01*
X0028293Y0030133D01*
X0028440Y0030075D01*
X0028586Y0030013D01*
X0028730Y0029948D01*
X0028872Y0029878D01*
X0029013Y0029806D01*
X0029152Y0029729D01*
X0029288Y0029650D01*
X0029423Y0029566D01*
X0029556Y0029480D01*
X0029686Y0029390D01*
X0029814Y0029297D01*
X0029940Y0029201D01*
X0030063Y0029101D01*
X0030184Y0028999D01*
X0030302Y0028894D01*
X0030417Y0028785D01*
X0030530Y0028674D01*
X0030640Y0028560D01*
X0030747Y0028443D01*
X0030851Y0028324D01*
X0030952Y0028202D01*
X0031049Y0028077D01*
X0031144Y0027950D01*
X0031235Y0027821D01*
X0031324Y0027690D01*
X0031408Y0027556D01*
X0031490Y0027420D01*
X0031568Y0027283D01*
X0031642Y0027143D01*
X0031713Y0027001D01*
X0031781Y0026858D01*
X0031845Y0026713D01*
X0031905Y0026567D01*
X0031961Y0026419D01*
X0032014Y0026270D01*
X0032063Y0026119D01*
X0032108Y0025967D01*
X0032149Y0025814D01*
X0032187Y0025661D01*
X0032220Y0025506D01*
X0032250Y0025350D01*
X0032276Y0025194D01*
X0032297Y0025037D01*
X0032315Y0024880D01*
X0032329Y0024722D01*
X0032339Y0024564D01*
X0032345Y0024406D01*
X0032347Y0024248D01*
X0032345Y0024090D01*
X0032339Y0023932D01*
X0032329Y0023774D01*
X0032315Y0023616D01*
X0032297Y0023459D01*
X0032276Y0023302D01*
X0032250Y0023146D01*
X0032220Y0022990D01*
X0032187Y0022835D01*
X0032149Y0022682D01*
X0032108Y0022529D01*
X0032063Y0022377D01*
X0032014Y0022226D01*
X0031961Y0022077D01*
X0031905Y0021929D01*
X0031845Y0021783D01*
X0031781Y0021638D01*
X0031713Y0021495D01*
X0031642Y0021353D01*
X0031568Y0021213D01*
X0031490Y0021076D01*
X0031408Y0020940D01*
X0031324Y0020806D01*
X0031235Y0020675D01*
X0031144Y0020546D01*
X0031049Y0020419D01*
X0030952Y0020294D01*
X0030851Y0020172D01*
X0030747Y0020053D01*
X0030640Y0019936D01*
X0030530Y0019822D01*
X0030417Y0019711D01*
X0030302Y0019602D01*
X0030184Y0019497D01*
X0030063Y0019395D01*
X0029940Y0019295D01*
X0029814Y0019199D01*
X0029686Y0019106D01*
X0029556Y0019016D01*
X0029423Y0018930D01*
X0029288Y0018846D01*
X0029152Y0018767D01*
X0029013Y0018690D01*
X0028872Y0018618D01*
X0028730Y0018548D01*
X0028586Y0018483D01*
X0028440Y0018421D01*
X0028293Y0018363D01*
X0028144Y0018308D01*
X0027994Y0018257D01*
X0027843Y0018210D01*
X0027691Y0018167D01*
X0027538Y0018128D01*
X0027383Y0018092D01*
X0027228Y0018061D01*
X0027072Y0018033D01*
X0026916Y0018009D01*
X0026759Y0017989D01*
X0026601Y0017973D01*
X0026444Y0017961D01*
X0026285Y0017953D01*
X0026127Y0017949D01*
X0025969Y0017949D01*
X0025811Y0017953D01*
X0025652Y0017961D01*
X0025495Y0017973D01*
X0025337Y0017989D01*
X0025180Y0018009D01*
X0025024Y0018033D01*
X0024868Y0018061D01*
X0024713Y0018092D01*
X0024558Y0018128D01*
X0024405Y0018167D01*
X0024253Y0018210D01*
X0024102Y0018257D01*
X0023952Y0018308D01*
X0023803Y0018363D01*
X0023656Y0018421D01*
X0023510Y0018483D01*
X0023366Y0018548D01*
X0023224Y0018618D01*
X0023083Y0018690D01*
X0022944Y0018767D01*
X0022808Y0018846D01*
X0022673Y0018930D01*
X0022540Y0019016D01*
X0022410Y0019106D01*
X0022282Y0019199D01*
X0022156Y0019295D01*
X0022033Y0019395D01*
X0021912Y0019497D01*
X0021794Y0019602D01*
X0021679Y0019711D01*
X0021566Y0019822D01*
X0021456Y0019936D01*
X0021349Y0020053D01*
X0021245Y0020172D01*
X0021144Y0020294D01*
X0021047Y0020419D01*
X0020952Y0020546D01*
X0020861Y0020675D01*
X0020772Y0020806D01*
X0020688Y0020940D01*
X0020606Y0021076D01*
X0020528Y0021213D01*
X0020454Y0021353D01*
X0020383Y0021495D01*
X0020315Y0021638D01*
X0020251Y0021783D01*
X0020191Y0021929D01*
X0020135Y0022077D01*
X0020082Y0022226D01*
X0020033Y0022377D01*
X0019988Y0022529D01*
X0019947Y0022682D01*
X0019909Y0022835D01*
X0019876Y0022990D01*
X0019846Y0023146D01*
X0019820Y0023302D01*
X0019799Y0023459D01*
X0019781Y0023616D01*
X0019767Y0023774D01*
X0019757Y0023932D01*
X0019751Y0024090D01*
X0019749Y0024248D01*
X0019749Y0189602D02*
X0019751Y0189760D01*
X0019757Y0189918D01*
X0019767Y0190076D01*
X0019781Y0190234D01*
X0019799Y0190391D01*
X0019820Y0190548D01*
X0019846Y0190704D01*
X0019876Y0190860D01*
X0019909Y0191015D01*
X0019947Y0191168D01*
X0019988Y0191321D01*
X0020033Y0191473D01*
X0020082Y0191624D01*
X0020135Y0191773D01*
X0020191Y0191921D01*
X0020251Y0192067D01*
X0020315Y0192212D01*
X0020383Y0192355D01*
X0020454Y0192497D01*
X0020528Y0192637D01*
X0020606Y0192774D01*
X0020688Y0192910D01*
X0020772Y0193044D01*
X0020861Y0193175D01*
X0020952Y0193304D01*
X0021047Y0193431D01*
X0021144Y0193556D01*
X0021245Y0193678D01*
X0021349Y0193797D01*
X0021456Y0193914D01*
X0021566Y0194028D01*
X0021679Y0194139D01*
X0021794Y0194248D01*
X0021912Y0194353D01*
X0022033Y0194455D01*
X0022156Y0194555D01*
X0022282Y0194651D01*
X0022410Y0194744D01*
X0022540Y0194834D01*
X0022673Y0194920D01*
X0022808Y0195004D01*
X0022944Y0195083D01*
X0023083Y0195160D01*
X0023224Y0195232D01*
X0023366Y0195302D01*
X0023510Y0195367D01*
X0023656Y0195429D01*
X0023803Y0195487D01*
X0023952Y0195542D01*
X0024102Y0195593D01*
X0024253Y0195640D01*
X0024405Y0195683D01*
X0024558Y0195722D01*
X0024713Y0195758D01*
X0024868Y0195789D01*
X0025024Y0195817D01*
X0025180Y0195841D01*
X0025337Y0195861D01*
X0025495Y0195877D01*
X0025652Y0195889D01*
X0025811Y0195897D01*
X0025969Y0195901D01*
X0026127Y0195901D01*
X0026285Y0195897D01*
X0026444Y0195889D01*
X0026601Y0195877D01*
X0026759Y0195861D01*
X0026916Y0195841D01*
X0027072Y0195817D01*
X0027228Y0195789D01*
X0027383Y0195758D01*
X0027538Y0195722D01*
X0027691Y0195683D01*
X0027843Y0195640D01*
X0027994Y0195593D01*
X0028144Y0195542D01*
X0028293Y0195487D01*
X0028440Y0195429D01*
X0028586Y0195367D01*
X0028730Y0195302D01*
X0028872Y0195232D01*
X0029013Y0195160D01*
X0029152Y0195083D01*
X0029288Y0195004D01*
X0029423Y0194920D01*
X0029556Y0194834D01*
X0029686Y0194744D01*
X0029814Y0194651D01*
X0029940Y0194555D01*
X0030063Y0194455D01*
X0030184Y0194353D01*
X0030302Y0194248D01*
X0030417Y0194139D01*
X0030530Y0194028D01*
X0030640Y0193914D01*
X0030747Y0193797D01*
X0030851Y0193678D01*
X0030952Y0193556D01*
X0031049Y0193431D01*
X0031144Y0193304D01*
X0031235Y0193175D01*
X0031324Y0193044D01*
X0031408Y0192910D01*
X0031490Y0192774D01*
X0031568Y0192637D01*
X0031642Y0192497D01*
X0031713Y0192355D01*
X0031781Y0192212D01*
X0031845Y0192067D01*
X0031905Y0191921D01*
X0031961Y0191773D01*
X0032014Y0191624D01*
X0032063Y0191473D01*
X0032108Y0191321D01*
X0032149Y0191168D01*
X0032187Y0191015D01*
X0032220Y0190860D01*
X0032250Y0190704D01*
X0032276Y0190548D01*
X0032297Y0190391D01*
X0032315Y0190234D01*
X0032329Y0190076D01*
X0032339Y0189918D01*
X0032345Y0189760D01*
X0032347Y0189602D01*
X0032345Y0189444D01*
X0032339Y0189286D01*
X0032329Y0189128D01*
X0032315Y0188970D01*
X0032297Y0188813D01*
X0032276Y0188656D01*
X0032250Y0188500D01*
X0032220Y0188344D01*
X0032187Y0188189D01*
X0032149Y0188036D01*
X0032108Y0187883D01*
X0032063Y0187731D01*
X0032014Y0187580D01*
X0031961Y0187431D01*
X0031905Y0187283D01*
X0031845Y0187137D01*
X0031781Y0186992D01*
X0031713Y0186849D01*
X0031642Y0186707D01*
X0031568Y0186567D01*
X0031490Y0186430D01*
X0031408Y0186294D01*
X0031324Y0186160D01*
X0031235Y0186029D01*
X0031144Y0185900D01*
X0031049Y0185773D01*
X0030952Y0185648D01*
X0030851Y0185526D01*
X0030747Y0185407D01*
X0030640Y0185290D01*
X0030530Y0185176D01*
X0030417Y0185065D01*
X0030302Y0184956D01*
X0030184Y0184851D01*
X0030063Y0184749D01*
X0029940Y0184649D01*
X0029814Y0184553D01*
X0029686Y0184460D01*
X0029556Y0184370D01*
X0029423Y0184284D01*
X0029288Y0184200D01*
X0029152Y0184121D01*
X0029013Y0184044D01*
X0028872Y0183972D01*
X0028730Y0183902D01*
X0028586Y0183837D01*
X0028440Y0183775D01*
X0028293Y0183717D01*
X0028144Y0183662D01*
X0027994Y0183611D01*
X0027843Y0183564D01*
X0027691Y0183521D01*
X0027538Y0183482D01*
X0027383Y0183446D01*
X0027228Y0183415D01*
X0027072Y0183387D01*
X0026916Y0183363D01*
X0026759Y0183343D01*
X0026601Y0183327D01*
X0026444Y0183315D01*
X0026285Y0183307D01*
X0026127Y0183303D01*
X0025969Y0183303D01*
X0025811Y0183307D01*
X0025652Y0183315D01*
X0025495Y0183327D01*
X0025337Y0183343D01*
X0025180Y0183363D01*
X0025024Y0183387D01*
X0024868Y0183415D01*
X0024713Y0183446D01*
X0024558Y0183482D01*
X0024405Y0183521D01*
X0024253Y0183564D01*
X0024102Y0183611D01*
X0023952Y0183662D01*
X0023803Y0183717D01*
X0023656Y0183775D01*
X0023510Y0183837D01*
X0023366Y0183902D01*
X0023224Y0183972D01*
X0023083Y0184044D01*
X0022944Y0184121D01*
X0022808Y0184200D01*
X0022673Y0184284D01*
X0022540Y0184370D01*
X0022410Y0184460D01*
X0022282Y0184553D01*
X0022156Y0184649D01*
X0022033Y0184749D01*
X0021912Y0184851D01*
X0021794Y0184956D01*
X0021679Y0185065D01*
X0021566Y0185176D01*
X0021456Y0185290D01*
X0021349Y0185407D01*
X0021245Y0185526D01*
X0021144Y0185648D01*
X0021047Y0185773D01*
X0020952Y0185900D01*
X0020861Y0186029D01*
X0020772Y0186160D01*
X0020688Y0186294D01*
X0020606Y0186430D01*
X0020528Y0186567D01*
X0020454Y0186707D01*
X0020383Y0186849D01*
X0020315Y0186992D01*
X0020251Y0187137D01*
X0020191Y0187283D01*
X0020135Y0187431D01*
X0020082Y0187580D01*
X0020033Y0187731D01*
X0019988Y0187883D01*
X0019947Y0188036D01*
X0019909Y0188189D01*
X0019876Y0188344D01*
X0019846Y0188500D01*
X0019820Y0188656D01*
X0019799Y0188813D01*
X0019781Y0188970D01*
X0019767Y0189128D01*
X0019757Y0189286D01*
X0019751Y0189444D01*
X0019749Y0189602D01*
X0185103Y0189602D02*
X0185105Y0189760D01*
X0185111Y0189918D01*
X0185121Y0190076D01*
X0185135Y0190234D01*
X0185153Y0190391D01*
X0185174Y0190548D01*
X0185200Y0190704D01*
X0185230Y0190860D01*
X0185263Y0191015D01*
X0185301Y0191168D01*
X0185342Y0191321D01*
X0185387Y0191473D01*
X0185436Y0191624D01*
X0185489Y0191773D01*
X0185545Y0191921D01*
X0185605Y0192067D01*
X0185669Y0192212D01*
X0185737Y0192355D01*
X0185808Y0192497D01*
X0185882Y0192637D01*
X0185960Y0192774D01*
X0186042Y0192910D01*
X0186126Y0193044D01*
X0186215Y0193175D01*
X0186306Y0193304D01*
X0186401Y0193431D01*
X0186498Y0193556D01*
X0186599Y0193678D01*
X0186703Y0193797D01*
X0186810Y0193914D01*
X0186920Y0194028D01*
X0187033Y0194139D01*
X0187148Y0194248D01*
X0187266Y0194353D01*
X0187387Y0194455D01*
X0187510Y0194555D01*
X0187636Y0194651D01*
X0187764Y0194744D01*
X0187894Y0194834D01*
X0188027Y0194920D01*
X0188162Y0195004D01*
X0188298Y0195083D01*
X0188437Y0195160D01*
X0188578Y0195232D01*
X0188720Y0195302D01*
X0188864Y0195367D01*
X0189010Y0195429D01*
X0189157Y0195487D01*
X0189306Y0195542D01*
X0189456Y0195593D01*
X0189607Y0195640D01*
X0189759Y0195683D01*
X0189912Y0195722D01*
X0190067Y0195758D01*
X0190222Y0195789D01*
X0190378Y0195817D01*
X0190534Y0195841D01*
X0190691Y0195861D01*
X0190849Y0195877D01*
X0191006Y0195889D01*
X0191165Y0195897D01*
X0191323Y0195901D01*
X0191481Y0195901D01*
X0191639Y0195897D01*
X0191798Y0195889D01*
X0191955Y0195877D01*
X0192113Y0195861D01*
X0192270Y0195841D01*
X0192426Y0195817D01*
X0192582Y0195789D01*
X0192737Y0195758D01*
X0192892Y0195722D01*
X0193045Y0195683D01*
X0193197Y0195640D01*
X0193348Y0195593D01*
X0193498Y0195542D01*
X0193647Y0195487D01*
X0193794Y0195429D01*
X0193940Y0195367D01*
X0194084Y0195302D01*
X0194226Y0195232D01*
X0194367Y0195160D01*
X0194506Y0195083D01*
X0194642Y0195004D01*
X0194777Y0194920D01*
X0194910Y0194834D01*
X0195040Y0194744D01*
X0195168Y0194651D01*
X0195294Y0194555D01*
X0195417Y0194455D01*
X0195538Y0194353D01*
X0195656Y0194248D01*
X0195771Y0194139D01*
X0195884Y0194028D01*
X0195994Y0193914D01*
X0196101Y0193797D01*
X0196205Y0193678D01*
X0196306Y0193556D01*
X0196403Y0193431D01*
X0196498Y0193304D01*
X0196589Y0193175D01*
X0196678Y0193044D01*
X0196762Y0192910D01*
X0196844Y0192774D01*
X0196922Y0192637D01*
X0196996Y0192497D01*
X0197067Y0192355D01*
X0197135Y0192212D01*
X0197199Y0192067D01*
X0197259Y0191921D01*
X0197315Y0191773D01*
X0197368Y0191624D01*
X0197417Y0191473D01*
X0197462Y0191321D01*
X0197503Y0191168D01*
X0197541Y0191015D01*
X0197574Y0190860D01*
X0197604Y0190704D01*
X0197630Y0190548D01*
X0197651Y0190391D01*
X0197669Y0190234D01*
X0197683Y0190076D01*
X0197693Y0189918D01*
X0197699Y0189760D01*
X0197701Y0189602D01*
X0197699Y0189444D01*
X0197693Y0189286D01*
X0197683Y0189128D01*
X0197669Y0188970D01*
X0197651Y0188813D01*
X0197630Y0188656D01*
X0197604Y0188500D01*
X0197574Y0188344D01*
X0197541Y0188189D01*
X0197503Y0188036D01*
X0197462Y0187883D01*
X0197417Y0187731D01*
X0197368Y0187580D01*
X0197315Y0187431D01*
X0197259Y0187283D01*
X0197199Y0187137D01*
X0197135Y0186992D01*
X0197067Y0186849D01*
X0196996Y0186707D01*
X0196922Y0186567D01*
X0196844Y0186430D01*
X0196762Y0186294D01*
X0196678Y0186160D01*
X0196589Y0186029D01*
X0196498Y0185900D01*
X0196403Y0185773D01*
X0196306Y0185648D01*
X0196205Y0185526D01*
X0196101Y0185407D01*
X0195994Y0185290D01*
X0195884Y0185176D01*
X0195771Y0185065D01*
X0195656Y0184956D01*
X0195538Y0184851D01*
X0195417Y0184749D01*
X0195294Y0184649D01*
X0195168Y0184553D01*
X0195040Y0184460D01*
X0194910Y0184370D01*
X0194777Y0184284D01*
X0194642Y0184200D01*
X0194506Y0184121D01*
X0194367Y0184044D01*
X0194226Y0183972D01*
X0194084Y0183902D01*
X0193940Y0183837D01*
X0193794Y0183775D01*
X0193647Y0183717D01*
X0193498Y0183662D01*
X0193348Y0183611D01*
X0193197Y0183564D01*
X0193045Y0183521D01*
X0192892Y0183482D01*
X0192737Y0183446D01*
X0192582Y0183415D01*
X0192426Y0183387D01*
X0192270Y0183363D01*
X0192113Y0183343D01*
X0191955Y0183327D01*
X0191798Y0183315D01*
X0191639Y0183307D01*
X0191481Y0183303D01*
X0191323Y0183303D01*
X0191165Y0183307D01*
X0191006Y0183315D01*
X0190849Y0183327D01*
X0190691Y0183343D01*
X0190534Y0183363D01*
X0190378Y0183387D01*
X0190222Y0183415D01*
X0190067Y0183446D01*
X0189912Y0183482D01*
X0189759Y0183521D01*
X0189607Y0183564D01*
X0189456Y0183611D01*
X0189306Y0183662D01*
X0189157Y0183717D01*
X0189010Y0183775D01*
X0188864Y0183837D01*
X0188720Y0183902D01*
X0188578Y0183972D01*
X0188437Y0184044D01*
X0188298Y0184121D01*
X0188162Y0184200D01*
X0188027Y0184284D01*
X0187894Y0184370D01*
X0187764Y0184460D01*
X0187636Y0184553D01*
X0187510Y0184649D01*
X0187387Y0184749D01*
X0187266Y0184851D01*
X0187148Y0184956D01*
X0187033Y0185065D01*
X0186920Y0185176D01*
X0186810Y0185290D01*
X0186703Y0185407D01*
X0186599Y0185526D01*
X0186498Y0185648D01*
X0186401Y0185773D01*
X0186306Y0185900D01*
X0186215Y0186029D01*
X0186126Y0186160D01*
X0186042Y0186294D01*
X0185960Y0186430D01*
X0185882Y0186567D01*
X0185808Y0186707D01*
X0185737Y0186849D01*
X0185669Y0186992D01*
X0185605Y0187137D01*
X0185545Y0187283D01*
X0185489Y0187431D01*
X0185436Y0187580D01*
X0185387Y0187731D01*
X0185342Y0187883D01*
X0185301Y0188036D01*
X0185263Y0188189D01*
X0185230Y0188344D01*
X0185200Y0188500D01*
X0185174Y0188656D01*
X0185153Y0188813D01*
X0185135Y0188970D01*
X0185121Y0189128D01*
X0185111Y0189286D01*
X0185105Y0189444D01*
X0185103Y0189602D01*
X0185103Y0024248D02*
X0185105Y0024406D01*
X0185111Y0024564D01*
X0185121Y0024722D01*
X0185135Y0024880D01*
X0185153Y0025037D01*
X0185174Y0025194D01*
X0185200Y0025350D01*
X0185230Y0025506D01*
X0185263Y0025661D01*
X0185301Y0025814D01*
X0185342Y0025967D01*
X0185387Y0026119D01*
X0185436Y0026270D01*
X0185489Y0026419D01*
X0185545Y0026567D01*
X0185605Y0026713D01*
X0185669Y0026858D01*
X0185737Y0027001D01*
X0185808Y0027143D01*
X0185882Y0027283D01*
X0185960Y0027420D01*
X0186042Y0027556D01*
X0186126Y0027690D01*
X0186215Y0027821D01*
X0186306Y0027950D01*
X0186401Y0028077D01*
X0186498Y0028202D01*
X0186599Y0028324D01*
X0186703Y0028443D01*
X0186810Y0028560D01*
X0186920Y0028674D01*
X0187033Y0028785D01*
X0187148Y0028894D01*
X0187266Y0028999D01*
X0187387Y0029101D01*
X0187510Y0029201D01*
X0187636Y0029297D01*
X0187764Y0029390D01*
X0187894Y0029480D01*
X0188027Y0029566D01*
X0188162Y0029650D01*
X0188298Y0029729D01*
X0188437Y0029806D01*
X0188578Y0029878D01*
X0188720Y0029948D01*
X0188864Y0030013D01*
X0189010Y0030075D01*
X0189157Y0030133D01*
X0189306Y0030188D01*
X0189456Y0030239D01*
X0189607Y0030286D01*
X0189759Y0030329D01*
X0189912Y0030368D01*
X0190067Y0030404D01*
X0190222Y0030435D01*
X0190378Y0030463D01*
X0190534Y0030487D01*
X0190691Y0030507D01*
X0190849Y0030523D01*
X0191006Y0030535D01*
X0191165Y0030543D01*
X0191323Y0030547D01*
X0191481Y0030547D01*
X0191639Y0030543D01*
X0191798Y0030535D01*
X0191955Y0030523D01*
X0192113Y0030507D01*
X0192270Y0030487D01*
X0192426Y0030463D01*
X0192582Y0030435D01*
X0192737Y0030404D01*
X0192892Y0030368D01*
X0193045Y0030329D01*
X0193197Y0030286D01*
X0193348Y0030239D01*
X0193498Y0030188D01*
X0193647Y0030133D01*
X0193794Y0030075D01*
X0193940Y0030013D01*
X0194084Y0029948D01*
X0194226Y0029878D01*
X0194367Y0029806D01*
X0194506Y0029729D01*
X0194642Y0029650D01*
X0194777Y0029566D01*
X0194910Y0029480D01*
X0195040Y0029390D01*
X0195168Y0029297D01*
X0195294Y0029201D01*
X0195417Y0029101D01*
X0195538Y0028999D01*
X0195656Y0028894D01*
X0195771Y0028785D01*
X0195884Y0028674D01*
X0195994Y0028560D01*
X0196101Y0028443D01*
X0196205Y0028324D01*
X0196306Y0028202D01*
X0196403Y0028077D01*
X0196498Y0027950D01*
X0196589Y0027821D01*
X0196678Y0027690D01*
X0196762Y0027556D01*
X0196844Y0027420D01*
X0196922Y0027283D01*
X0196996Y0027143D01*
X0197067Y0027001D01*
X0197135Y0026858D01*
X0197199Y0026713D01*
X0197259Y0026567D01*
X0197315Y0026419D01*
X0197368Y0026270D01*
X0197417Y0026119D01*
X0197462Y0025967D01*
X0197503Y0025814D01*
X0197541Y0025661D01*
X0197574Y0025506D01*
X0197604Y0025350D01*
X0197630Y0025194D01*
X0197651Y0025037D01*
X0197669Y0024880D01*
X0197683Y0024722D01*
X0197693Y0024564D01*
X0197699Y0024406D01*
X0197701Y0024248D01*
X0197699Y0024090D01*
X0197693Y0023932D01*
X0197683Y0023774D01*
X0197669Y0023616D01*
X0197651Y0023459D01*
X0197630Y0023302D01*
X0197604Y0023146D01*
X0197574Y0022990D01*
X0197541Y0022835D01*
X0197503Y0022682D01*
X0197462Y0022529D01*
X0197417Y0022377D01*
X0197368Y0022226D01*
X0197315Y0022077D01*
X0197259Y0021929D01*
X0197199Y0021783D01*
X0197135Y0021638D01*
X0197067Y0021495D01*
X0196996Y0021353D01*
X0196922Y0021213D01*
X0196844Y0021076D01*
X0196762Y0020940D01*
X0196678Y0020806D01*
X0196589Y0020675D01*
X0196498Y0020546D01*
X0196403Y0020419D01*
X0196306Y0020294D01*
X0196205Y0020172D01*
X0196101Y0020053D01*
X0195994Y0019936D01*
X0195884Y0019822D01*
X0195771Y0019711D01*
X0195656Y0019602D01*
X0195538Y0019497D01*
X0195417Y0019395D01*
X0195294Y0019295D01*
X0195168Y0019199D01*
X0195040Y0019106D01*
X0194910Y0019016D01*
X0194777Y0018930D01*
X0194642Y0018846D01*
X0194506Y0018767D01*
X0194367Y0018690D01*
X0194226Y0018618D01*
X0194084Y0018548D01*
X0193940Y0018483D01*
X0193794Y0018421D01*
X0193647Y0018363D01*
X0193498Y0018308D01*
X0193348Y0018257D01*
X0193197Y0018210D01*
X0193045Y0018167D01*
X0192892Y0018128D01*
X0192737Y0018092D01*
X0192582Y0018061D01*
X0192426Y0018033D01*
X0192270Y0018009D01*
X0192113Y0017989D01*
X0191955Y0017973D01*
X0191798Y0017961D01*
X0191639Y0017953D01*
X0191481Y0017949D01*
X0191323Y0017949D01*
X0191165Y0017953D01*
X0191006Y0017961D01*
X0190849Y0017973D01*
X0190691Y0017989D01*
X0190534Y0018009D01*
X0190378Y0018033D01*
X0190222Y0018061D01*
X0190067Y0018092D01*
X0189912Y0018128D01*
X0189759Y0018167D01*
X0189607Y0018210D01*
X0189456Y0018257D01*
X0189306Y0018308D01*
X0189157Y0018363D01*
X0189010Y0018421D01*
X0188864Y0018483D01*
X0188720Y0018548D01*
X0188578Y0018618D01*
X0188437Y0018690D01*
X0188298Y0018767D01*
X0188162Y0018846D01*
X0188027Y0018930D01*
X0187894Y0019016D01*
X0187764Y0019106D01*
X0187636Y0019199D01*
X0187510Y0019295D01*
X0187387Y0019395D01*
X0187266Y0019497D01*
X0187148Y0019602D01*
X0187033Y0019711D01*
X0186920Y0019822D01*
X0186810Y0019936D01*
X0186703Y0020053D01*
X0186599Y0020172D01*
X0186498Y0020294D01*
X0186401Y0020419D01*
X0186306Y0020546D01*
X0186215Y0020675D01*
X0186126Y0020806D01*
X0186042Y0020940D01*
X0185960Y0021076D01*
X0185882Y0021213D01*
X0185808Y0021353D01*
X0185737Y0021495D01*
X0185669Y0021638D01*
X0185605Y0021783D01*
X0185545Y0021929D01*
X0185489Y0022077D01*
X0185436Y0022226D01*
X0185387Y0022377D01*
X0185342Y0022529D01*
X0185301Y0022682D01*
X0185263Y0022835D01*
X0185230Y0022990D01*
X0185200Y0023146D01*
X0185174Y0023302D01*
X0185153Y0023459D01*
X0185135Y0023616D01*
X0185121Y0023774D01*
X0185111Y0023932D01*
X0185105Y0024090D01*
X0185103Y0024248D01*
D11*
X0169100Y0021900D02*
X0169100Y0015900D01*
X0159100Y0015900D02*
X0159100Y0021900D01*
X0149100Y0021900D02*
X0149100Y0015900D01*
X0119500Y0015900D02*
X0119500Y0021900D01*
X0109500Y0021900D02*
X0109500Y0015900D01*
X0099500Y0015900D02*
X0099500Y0021900D01*
X0023143Y0046925D02*
X0017143Y0046925D01*
X0017143Y0056925D02*
X0023143Y0056925D01*
X0023143Y0066925D02*
X0017143Y0066925D01*
X0017143Y0076925D02*
X0023143Y0076925D01*
X0023143Y0086925D02*
X0017143Y0086925D01*
X0017143Y0096925D02*
X0023143Y0096925D01*
X0023143Y0116925D02*
X0017143Y0116925D01*
X0017143Y0126925D02*
X0023143Y0126925D01*
X0023143Y0136925D02*
X0017143Y0136925D01*
X0017143Y0146925D02*
X0023143Y0146925D01*
X0023143Y0156925D02*
X0017143Y0156925D01*
X0017143Y0166925D02*
X0023143Y0166925D01*
X0051700Y0191400D02*
X0051700Y0197400D01*
X0061700Y0197400D02*
X0061700Y0191400D01*
X0071700Y0191400D02*
X0071700Y0197400D01*
X0081700Y0197400D02*
X0081700Y0191400D01*
X0149100Y0191400D02*
X0149100Y0197400D01*
X0159100Y0197400D02*
X0159100Y0191400D01*
X0169100Y0191400D02*
X0169100Y0197400D01*
D12*
X0106600Y0162500D03*
X0106900Y0152500D03*
X0079500Y0169700D03*
X0069500Y0169700D03*
X0056500Y0169700D03*
X0046500Y0169700D03*
X0107000Y0111900D03*
X0107000Y0101900D03*
X0107000Y0061200D03*
X0107000Y0051200D03*
X0079500Y0044000D03*
X0069500Y0044000D03*
X0056500Y0044000D03*
X0046500Y0044000D03*
D13*
X0040500Y0056300D02*
X0036300Y0060500D01*
X0040500Y0056300D02*
X0086500Y0056300D01*
X0098200Y0044600D01*
X0119800Y0044600D01*
X0140600Y0044600D01*
X0161800Y0044600D01*
X0199200Y0044600D01*
X0197700Y0047500D02*
X0200900Y0050700D01*
X0200900Y0060600D01*
X0197700Y0047500D02*
X0166500Y0047500D01*
X0166500Y0055600D01*
X0168600Y0057700D01*
X0166500Y0047500D02*
X0139400Y0047500D01*
X0139400Y0054600D01*
X0134100Y0059900D01*
X0130300Y0083100D02*
X0119800Y0083100D01*
X0130300Y0083100D02*
X0173100Y0083100D01*
X0173100Y0130000D02*
X0130300Y0130000D01*
X0117200Y0130000D01*
X0100300Y0131900D02*
X0035600Y0131900D01*
X0035600Y0148300D01*
X0100300Y0148300D01*
X0100300Y0131900D01*
X0100300Y0133184D02*
X0035600Y0133184D01*
X0035600Y0134782D02*
X0100300Y0134782D01*
X0100300Y0136381D02*
X0035600Y0136381D01*
X0035600Y0137979D02*
X0100300Y0137979D01*
X0100300Y0139578D02*
X0035600Y0139578D01*
X0035600Y0141176D02*
X0100300Y0141176D01*
X0100300Y0142775D02*
X0035600Y0142775D01*
X0035600Y0144373D02*
X0100300Y0144373D01*
X0100300Y0145972D02*
X0035600Y0145972D01*
X0035600Y0147570D02*
X0100300Y0147570D01*
X0088300Y0140100D02*
X0079200Y0140100D01*
X0065200Y0140100D01*
X0038100Y0140100D01*
X0052700Y0095400D02*
X0090700Y0096300D01*
X0090500Y0106700D01*
X0117200Y0106700D01*
X0100300Y0080700D02*
X0100300Y0065800D01*
X0035600Y0065800D01*
X0035600Y0080700D01*
X0100300Y0080700D01*
X0100300Y0080433D02*
X0035600Y0080433D01*
X0035600Y0078834D02*
X0100300Y0078834D01*
X0100300Y0077236D02*
X0035600Y0077236D01*
X0035600Y0075637D02*
X0100300Y0075637D01*
X0100300Y0074039D02*
X0035600Y0074039D01*
X0035600Y0072440D02*
X0100300Y0072440D01*
X0100300Y0070842D02*
X0035600Y0070842D01*
X0035600Y0069243D02*
X0100300Y0069243D01*
X0100300Y0067645D02*
X0035600Y0067645D01*
X0035600Y0066046D02*
X0100300Y0066046D01*
X0098300Y0073100D02*
X0082800Y0073100D01*
X0069300Y0073100D01*
X0055300Y0073100D01*
X0041300Y0073100D01*
X0136800Y0155400D02*
X0136800Y0166300D01*
X0117200Y0166300D01*
X0119800Y0168900D02*
X0119800Y0194400D01*
X0081700Y0194400D01*
X0119800Y0168900D02*
X0135900Y0168900D01*
X0168600Y0168900D01*
X0203300Y0168900D01*
X0201000Y0166300D02*
X0202000Y0165300D01*
X0202000Y0161000D01*
X0197400Y0156400D01*
X0189400Y0156400D01*
X0201000Y0166300D02*
X0167600Y0166300D01*
X0167600Y0157100D01*
X0166800Y0156300D01*
X0161800Y0156300D01*
X0167600Y0166300D02*
X0136800Y0166300D01*
D14*
X0135900Y0168900D03*
X0144700Y0158500D03*
X0144700Y0153900D03*
X0136800Y0155400D03*
X0119800Y0168900D03*
X0088300Y0140100D03*
X0079200Y0140100D03*
X0065200Y0140100D03*
X0041400Y0154600D03*
X0041400Y0159300D03*
X0038100Y0140100D03*
X0045200Y0098800D03*
X0046500Y0095400D03*
X0049700Y0095400D03*
X0052700Y0095400D03*
X0055700Y0095400D03*
X0044000Y0085500D03*
X0033600Y0085500D03*
X0041300Y0073100D03*
X0036300Y0060500D03*
X0055300Y0073100D03*
X0069300Y0073100D03*
X0082800Y0073100D03*
X0098300Y0073100D03*
X0109900Y0085700D03*
X0102400Y0088000D03*
X0093800Y0093400D03*
X0093800Y0096300D03*
X0090700Y0096300D03*
X0090700Y0093400D03*
X0093700Y0115700D03*
X0104500Y0125100D03*
X0107400Y0127400D03*
X0109800Y0125100D03*
X0104500Y0130000D03*
X0109800Y0118300D03*
X0117300Y0118300D03*
X0127000Y0127400D03*
X0130300Y0130000D03*
X0134300Y0109400D03*
X0130300Y0083100D03*
X0119800Y0083100D03*
X0114600Y0061200D03*
X0119800Y0044600D03*
X0114600Y0042000D03*
X0109900Y0042000D03*
X0134100Y0059900D03*
X0140600Y0044600D03*
X0161800Y0044600D03*
X0168600Y0057700D03*
X0175100Y0059400D03*
X0172600Y0064600D03*
X0173100Y0083100D03*
X0169800Y0085700D03*
X0177100Y0104400D03*
X0173100Y0130000D03*
X0186200Y0149500D03*
X0185800Y0156200D03*
X0189400Y0156400D03*
X0203300Y0168900D03*
X0168600Y0168900D03*
X0161800Y0156300D03*
X0158100Y0156100D03*
X0158100Y0149600D03*
X0201300Y0067900D03*
X0200900Y0060600D03*
X0204500Y0059800D03*
X0199200Y0044600D03*
D15*
X0024402Y0016488D02*
X0016244Y0016488D01*
X0015246Y0017487D02*
X0021991Y0017487D01*
X0021630Y0017636D02*
X0024497Y0016449D01*
X0027599Y0016449D01*
X0030466Y0017636D01*
X0032660Y0019830D01*
X0033847Y0022697D01*
X0033847Y0025799D01*
X0032660Y0028666D01*
X0030466Y0030860D01*
X0027599Y0032047D01*
X0024497Y0032047D01*
X0021630Y0030860D01*
X0019436Y0028666D01*
X0018249Y0025799D01*
X0018249Y0022697D01*
X0019436Y0019830D01*
X0021630Y0017636D01*
X0020781Y0018485D02*
X0014247Y0018485D01*
X0013249Y0019484D02*
X0019783Y0019484D01*
X0019166Y0020482D02*
X0012250Y0020482D01*
X0011800Y0020932D02*
X0011800Y0192918D01*
X0022732Y0203850D01*
X0194718Y0203850D01*
X0205650Y0192918D01*
X0205650Y0163200D01*
X0123186Y0163200D01*
X0122600Y0162614D01*
X0122600Y0161786D01*
X0122600Y0134714D01*
X0122600Y0133886D01*
X0123186Y0133300D01*
X0205650Y0133300D01*
X0205650Y0129000D01*
X0128653Y0129000D01*
X0127953Y0129700D01*
X0126047Y0129700D01*
X0125347Y0129000D01*
X0109053Y0129000D01*
X0108353Y0129700D01*
X0106800Y0129700D01*
X0106800Y0130953D01*
X0105453Y0132300D01*
X0103547Y0132300D01*
X0102200Y0130953D01*
X0102200Y0129047D01*
X0102900Y0128347D01*
X0102900Y0126753D01*
X0102200Y0126053D01*
X0102200Y0124147D01*
X0103547Y0122800D01*
X0105453Y0122800D01*
X0106800Y0124147D01*
X0106800Y0125100D01*
X0107500Y0125100D01*
X0107500Y0124147D01*
X0108847Y0122800D01*
X0110753Y0122800D01*
X0111453Y0123500D01*
X0122600Y0123500D01*
X0122600Y0089600D01*
X0104053Y0089600D01*
X0103353Y0090300D01*
X0101447Y0090300D01*
X0100100Y0088953D01*
X0100100Y0087047D01*
X0101447Y0085700D01*
X0103353Y0085700D01*
X0104053Y0086400D01*
X0107600Y0086400D01*
X0107600Y0084747D01*
X0108947Y0083400D01*
X0110853Y0083400D01*
X0111561Y0084108D01*
X0117555Y0084107D01*
X0117500Y0084053D01*
X0117500Y0082147D01*
X0118847Y0080800D01*
X0120753Y0080800D01*
X0121153Y0081200D01*
X0122600Y0081200D01*
X0122600Y0078986D01*
X0122636Y0078950D01*
X0122600Y0078914D01*
X0122600Y0050986D01*
X0123186Y0050400D01*
X0205650Y0050400D01*
X0205650Y0020932D01*
X0194718Y0010000D01*
X0022732Y0010000D01*
X0011800Y0020932D01*
X0011800Y0021481D02*
X0018752Y0021481D01*
X0018339Y0022479D02*
X0011800Y0022479D01*
X0011800Y0023478D02*
X0018249Y0023478D01*
X0018249Y0024476D02*
X0011800Y0024476D01*
X0011800Y0025475D02*
X0018249Y0025475D01*
X0018528Y0026473D02*
X0011800Y0026473D01*
X0011800Y0027472D02*
X0018942Y0027472D01*
X0019355Y0028470D02*
X0011800Y0028470D01*
X0011800Y0029469D02*
X0020239Y0029469D01*
X0021238Y0030467D02*
X0011800Y0030467D01*
X0011800Y0031466D02*
X0023093Y0031466D01*
X0029003Y0031466D02*
X0188447Y0031466D01*
X0189851Y0032047D02*
X0186984Y0030860D01*
X0184791Y0028666D01*
X0183603Y0025799D01*
X0183603Y0022697D01*
X0184791Y0019830D01*
X0186984Y0017636D01*
X0189851Y0016449D01*
X0192954Y0016449D01*
X0195820Y0017636D01*
X0198014Y0019830D01*
X0199202Y0022697D01*
X0199202Y0025799D01*
X0198014Y0028666D01*
X0195820Y0030860D01*
X0192954Y0032047D01*
X0189851Y0032047D01*
X0186592Y0030467D02*
X0030859Y0030467D01*
X0031857Y0029469D02*
X0185593Y0029469D01*
X0184709Y0028470D02*
X0032741Y0028470D01*
X0033155Y0027472D02*
X0184296Y0027472D01*
X0183882Y0026473D02*
X0033568Y0026473D01*
X0033847Y0025475D02*
X0096764Y0025475D01*
X0096568Y0025332D02*
X0096068Y0024832D01*
X0095651Y0024259D01*
X0095330Y0023627D01*
X0095111Y0022954D01*
X0095000Y0022254D01*
X0095000Y0019400D01*
X0099000Y0019400D01*
X0099000Y0026377D01*
X0098446Y0026289D01*
X0097773Y0026070D01*
X0097141Y0025749D01*
X0096568Y0025332D01*
X0095809Y0024476D02*
X0033847Y0024476D01*
X0033847Y0023478D02*
X0095281Y0023478D01*
X0095036Y0022479D02*
X0033757Y0022479D01*
X0033344Y0021481D02*
X0095000Y0021481D01*
X0095000Y0020482D02*
X0032930Y0020482D01*
X0032313Y0019484D02*
X0095000Y0019484D01*
X0095000Y0018400D02*
X0095000Y0015546D01*
X0095111Y0014846D01*
X0095330Y0014173D01*
X0095651Y0013541D01*
X0096068Y0012968D01*
X0096568Y0012468D01*
X0097141Y0012051D01*
X0097773Y0011730D01*
X0098446Y0011511D01*
X0099000Y0011423D01*
X0099000Y0018400D01*
X0100000Y0018400D01*
X0100000Y0019400D01*
X0104000Y0019400D01*
X0104000Y0022254D01*
X0103889Y0022954D01*
X0103670Y0023627D01*
X0103349Y0024259D01*
X0102932Y0024832D01*
X0102432Y0025332D01*
X0101859Y0025749D01*
X0101227Y0026070D01*
X0100554Y0026289D01*
X0100000Y0026377D01*
X0100000Y0019400D01*
X0099000Y0019400D01*
X0099000Y0018400D01*
X0095000Y0018400D01*
X0095000Y0017487D02*
X0030105Y0017487D01*
X0031315Y0018485D02*
X0099000Y0018485D01*
X0099000Y0017487D02*
X0100000Y0017487D01*
X0100000Y0018400D02*
X0100000Y0011423D01*
X0100554Y0011511D01*
X0101227Y0011730D01*
X0101859Y0012051D01*
X0102432Y0012468D01*
X0102932Y0012968D01*
X0103349Y0013541D01*
X0103670Y0014173D01*
X0103889Y0014846D01*
X0104000Y0015546D01*
X0104000Y0018400D01*
X0100000Y0018400D01*
X0100000Y0018485D02*
X0109000Y0018485D01*
X0109000Y0018400D02*
X0105000Y0018400D01*
X0105000Y0015546D01*
X0105111Y0014846D01*
X0105330Y0014173D01*
X0105651Y0013541D01*
X0106068Y0012968D01*
X0106568Y0012468D01*
X0107141Y0012051D01*
X0107773Y0011730D01*
X0108446Y0011511D01*
X0109000Y0011423D01*
X0109000Y0018400D01*
X0110000Y0018400D01*
X0110000Y0019400D01*
X0114000Y0019400D01*
X0114000Y0022254D01*
X0113889Y0022954D01*
X0113670Y0023627D01*
X0113349Y0024259D01*
X0112932Y0024832D01*
X0112432Y0025332D01*
X0111859Y0025749D01*
X0111227Y0026070D01*
X0110554Y0026289D01*
X0110000Y0026377D01*
X0110000Y0019400D01*
X0109000Y0019400D01*
X0109000Y0026377D01*
X0108446Y0026289D01*
X0107773Y0026070D01*
X0107141Y0025749D01*
X0106568Y0025332D01*
X0106068Y0024832D01*
X0105651Y0024259D01*
X0105330Y0023627D01*
X0105111Y0022954D01*
X0105000Y0022254D01*
X0105000Y0019400D01*
X0109000Y0019400D01*
X0109000Y0018400D01*
X0109000Y0017487D02*
X0110000Y0017487D01*
X0110000Y0018400D02*
X0110000Y0011423D01*
X0110554Y0011511D01*
X0111227Y0011730D01*
X0111859Y0012051D01*
X0112432Y0012468D01*
X0112932Y0012968D01*
X0113349Y0013541D01*
X0113670Y0014173D01*
X0113889Y0014846D01*
X0114000Y0015546D01*
X0114000Y0018400D01*
X0110000Y0018400D01*
X0110000Y0018485D02*
X0119000Y0018485D01*
X0119000Y0018400D02*
X0115000Y0018400D01*
X0115000Y0015546D01*
X0115111Y0014846D01*
X0115330Y0014173D01*
X0115651Y0013541D01*
X0116068Y0012968D01*
X0116568Y0012468D01*
X0117141Y0012051D01*
X0117773Y0011730D01*
X0118446Y0011511D01*
X0119000Y0011423D01*
X0119000Y0018400D01*
X0120000Y0018400D01*
X0120000Y0019400D01*
X0124000Y0019400D01*
X0124000Y0022254D01*
X0123889Y0022954D01*
X0123670Y0023627D01*
X0123349Y0024259D01*
X0122932Y0024832D01*
X0122432Y0025332D01*
X0121859Y0025749D01*
X0121227Y0026070D01*
X0120554Y0026289D01*
X0120000Y0026377D01*
X0120000Y0019400D01*
X0119000Y0019400D01*
X0119000Y0026377D01*
X0118446Y0026289D01*
X0117773Y0026070D01*
X0117141Y0025749D01*
X0116568Y0025332D01*
X0116068Y0024832D01*
X0115651Y0024259D01*
X0115330Y0023627D01*
X0115111Y0022954D01*
X0115000Y0022254D01*
X0115000Y0019400D01*
X0119000Y0019400D01*
X0119000Y0018400D01*
X0119000Y0017487D02*
X0120000Y0017487D01*
X0120000Y0018400D02*
X0120000Y0011423D01*
X0120554Y0011511D01*
X0121227Y0011730D01*
X0121859Y0012051D01*
X0122432Y0012468D01*
X0122932Y0012968D01*
X0123349Y0013541D01*
X0123670Y0014173D01*
X0123889Y0014846D01*
X0124000Y0015546D01*
X0124000Y0018400D01*
X0120000Y0018400D01*
X0120000Y0018485D02*
X0145000Y0018485D01*
X0145000Y0017487D02*
X0124000Y0017487D01*
X0124000Y0016488D02*
X0145000Y0016488D01*
X0145000Y0015490D02*
X0123991Y0015490D01*
X0123774Y0014491D02*
X0145246Y0014491D01*
X0145000Y0015084D02*
X0145624Y0013578D01*
X0146778Y0012424D01*
X0148284Y0011800D01*
X0149916Y0011800D01*
X0151422Y0012424D01*
X0152576Y0013578D01*
X0153200Y0015084D01*
X0153200Y0022716D01*
X0152576Y0024222D01*
X0151422Y0025376D01*
X0149916Y0026000D01*
X0148284Y0026000D01*
X0146778Y0025376D01*
X0145624Y0024222D01*
X0145000Y0022716D01*
X0145000Y0015084D01*
X0145709Y0013493D02*
X0123313Y0013493D01*
X0122458Y0012494D02*
X0146708Y0012494D01*
X0151492Y0012494D02*
X0156708Y0012494D01*
X0156778Y0012424D02*
X0158284Y0011800D01*
X0159916Y0011800D01*
X0161422Y0012424D01*
X0162576Y0013578D01*
X0163200Y0015084D01*
X0163200Y0022716D01*
X0162576Y0024222D01*
X0161422Y0025376D01*
X0159916Y0026000D01*
X0158284Y0026000D01*
X0156778Y0025376D01*
X0155624Y0024222D01*
X0155000Y0022716D01*
X0155000Y0015084D01*
X0155624Y0013578D01*
X0156778Y0012424D01*
X0155709Y0013493D02*
X0152491Y0013493D01*
X0152954Y0014491D02*
X0155246Y0014491D01*
X0155000Y0015490D02*
X0153200Y0015490D01*
X0153200Y0016488D02*
X0155000Y0016488D01*
X0155000Y0017487D02*
X0153200Y0017487D01*
X0153200Y0018485D02*
X0155000Y0018485D01*
X0155000Y0019484D02*
X0153200Y0019484D01*
X0153200Y0020482D02*
X0155000Y0020482D01*
X0155000Y0021481D02*
X0153200Y0021481D01*
X0153200Y0022479D02*
X0155000Y0022479D01*
X0155316Y0023478D02*
X0152884Y0023478D01*
X0152322Y0024476D02*
X0155878Y0024476D01*
X0157016Y0025475D02*
X0151184Y0025475D01*
X0147016Y0025475D02*
X0122236Y0025475D01*
X0123191Y0024476D02*
X0145878Y0024476D01*
X0145316Y0023478D02*
X0123719Y0023478D01*
X0123964Y0022479D02*
X0145000Y0022479D01*
X0145000Y0021481D02*
X0124000Y0021481D01*
X0124000Y0020482D02*
X0145000Y0020482D01*
X0145000Y0019484D02*
X0124000Y0019484D01*
X0120000Y0019484D02*
X0119000Y0019484D01*
X0119000Y0020482D02*
X0120000Y0020482D01*
X0120000Y0021481D02*
X0119000Y0021481D01*
X0119000Y0022479D02*
X0120000Y0022479D01*
X0120000Y0023478D02*
X0119000Y0023478D01*
X0119000Y0024476D02*
X0120000Y0024476D01*
X0120000Y0025475D02*
X0119000Y0025475D01*
X0116764Y0025475D02*
X0112236Y0025475D01*
X0113191Y0024476D02*
X0115809Y0024476D01*
X0115281Y0023478D02*
X0113719Y0023478D01*
X0113964Y0022479D02*
X0115036Y0022479D01*
X0115000Y0021481D02*
X0114000Y0021481D01*
X0114000Y0020482D02*
X0115000Y0020482D01*
X0115000Y0019484D02*
X0114000Y0019484D01*
X0114000Y0017487D02*
X0115000Y0017487D01*
X0115000Y0016488D02*
X0114000Y0016488D01*
X0113991Y0015490D02*
X0115009Y0015490D01*
X0115226Y0014491D02*
X0113774Y0014491D01*
X0113313Y0013493D02*
X0115687Y0013493D01*
X0116542Y0012494D02*
X0112458Y0012494D01*
X0110457Y0011496D02*
X0118543Y0011496D01*
X0119000Y0011496D02*
X0120000Y0011496D01*
X0120457Y0011496D02*
X0196214Y0011496D01*
X0197212Y0012494D02*
X0171492Y0012494D01*
X0171422Y0012424D02*
X0172576Y0013578D01*
X0173200Y0015084D01*
X0173200Y0022716D01*
X0172576Y0024222D01*
X0171422Y0025376D01*
X0169916Y0026000D01*
X0168284Y0026000D01*
X0166778Y0025376D01*
X0165624Y0024222D01*
X0165000Y0022716D01*
X0165000Y0015084D01*
X0165624Y0013578D01*
X0166778Y0012424D01*
X0168284Y0011800D01*
X0169916Y0011800D01*
X0171422Y0012424D01*
X0172491Y0013493D02*
X0198211Y0013493D01*
X0199209Y0014491D02*
X0172954Y0014491D01*
X0173200Y0015490D02*
X0200208Y0015490D01*
X0201206Y0016488D02*
X0193049Y0016488D01*
X0189756Y0016488D02*
X0173200Y0016488D01*
X0173200Y0017487D02*
X0187346Y0017487D01*
X0186136Y0018485D02*
X0173200Y0018485D01*
X0173200Y0019484D02*
X0185137Y0019484D01*
X0184520Y0020482D02*
X0173200Y0020482D01*
X0173200Y0021481D02*
X0184107Y0021481D01*
X0183693Y0022479D02*
X0173200Y0022479D01*
X0172884Y0023478D02*
X0183603Y0023478D01*
X0183603Y0024476D02*
X0172322Y0024476D01*
X0171184Y0025475D02*
X0183603Y0025475D01*
X0194358Y0031466D02*
X0205650Y0031466D01*
X0205650Y0032464D02*
X0011800Y0032464D01*
X0011800Y0033463D02*
X0205650Y0033463D01*
X0205650Y0034461D02*
X0011800Y0034461D01*
X0011800Y0035460D02*
X0205650Y0035460D01*
X0205650Y0036458D02*
X0011800Y0036458D01*
X0011800Y0037457D02*
X0205650Y0037457D01*
X0205650Y0038455D02*
X0011800Y0038455D01*
X0011800Y0039454D02*
X0205650Y0039454D01*
X0205650Y0040452D02*
X0116305Y0040452D01*
X0116900Y0041047D02*
X0116900Y0042700D01*
X0118447Y0042700D01*
X0118847Y0042300D01*
X0120753Y0042300D01*
X0121153Y0042700D01*
X0139247Y0042700D01*
X0139647Y0042300D01*
X0141553Y0042300D01*
X0141953Y0042700D01*
X0160447Y0042700D01*
X0160847Y0042300D01*
X0162753Y0042300D01*
X0163153Y0042700D01*
X0197847Y0042700D01*
X0198247Y0042300D01*
X0200153Y0042300D01*
X0201500Y0043647D01*
X0201500Y0045553D01*
X0200153Y0046900D01*
X0198247Y0046900D01*
X0197847Y0046500D01*
X0163153Y0046500D01*
X0162753Y0046900D01*
X0160847Y0046900D01*
X0160447Y0046500D01*
X0141953Y0046500D01*
X0141553Y0046900D01*
X0139647Y0046900D01*
X0139247Y0046500D01*
X0121153Y0046500D01*
X0120753Y0046900D01*
X0118847Y0046900D01*
X0118447Y0046500D01*
X0098987Y0046500D01*
X0087287Y0058200D01*
X0085713Y0058200D01*
X0041287Y0058200D01*
X0038600Y0060887D01*
X0038600Y0061453D01*
X0037253Y0062800D01*
X0035347Y0062800D01*
X0034000Y0061453D01*
X0034000Y0059547D01*
X0035347Y0058200D01*
X0035913Y0058200D01*
X0039713Y0054400D01*
X0085713Y0054400D01*
X0097413Y0042700D01*
X0107600Y0042700D01*
X0107600Y0041047D01*
X0108947Y0039700D01*
X0110853Y0039700D01*
X0111553Y0040400D01*
X0112947Y0040400D01*
X0113647Y0039700D01*
X0115553Y0039700D01*
X0116900Y0041047D01*
X0116900Y0041451D02*
X0205650Y0041451D01*
X0205650Y0042449D02*
X0200302Y0042449D01*
X0201301Y0043448D02*
X0205650Y0043448D01*
X0205650Y0044446D02*
X0201500Y0044446D01*
X0201500Y0045445D02*
X0205650Y0045445D01*
X0205650Y0046443D02*
X0200609Y0046443D01*
X0198098Y0042449D02*
X0162902Y0042449D01*
X0160698Y0042449D02*
X0141702Y0042449D01*
X0139498Y0042449D02*
X0120902Y0042449D01*
X0118698Y0042449D02*
X0116900Y0042449D01*
X0114600Y0042000D02*
X0109900Y0042000D01*
X0108195Y0040452D02*
X0081751Y0040452D01*
X0081198Y0039900D02*
X0083600Y0042302D01*
X0083600Y0045698D01*
X0081198Y0048100D01*
X0077802Y0048100D01*
X0075400Y0045698D01*
X0075400Y0042302D01*
X0077802Y0039900D01*
X0081198Y0039900D01*
X0082749Y0041451D02*
X0107600Y0041451D01*
X0107600Y0042449D02*
X0083600Y0042449D01*
X0083600Y0043448D02*
X0096665Y0043448D01*
X0095667Y0044446D02*
X0083600Y0044446D01*
X0083600Y0045445D02*
X0094668Y0045445D01*
X0093670Y0046443D02*
X0082855Y0046443D01*
X0081856Y0047442D02*
X0092671Y0047442D01*
X0091673Y0048440D02*
X0026953Y0048440D01*
X0027243Y0047741D02*
X0026618Y0049248D01*
X0025465Y0050401D01*
X0023958Y0051025D01*
X0016327Y0051025D01*
X0014820Y0050401D01*
X0013667Y0049248D01*
X0013043Y0047741D01*
X0013043Y0046110D01*
X0013667Y0044603D01*
X0014820Y0043449D01*
X0016327Y0042825D01*
X0023958Y0042825D01*
X0025465Y0043449D01*
X0026618Y0044603D01*
X0027243Y0046110D01*
X0027243Y0047741D01*
X0027243Y0047442D02*
X0044144Y0047442D01*
X0044802Y0048100D02*
X0042400Y0045698D01*
X0042400Y0042302D01*
X0044802Y0039900D01*
X0048198Y0039900D01*
X0050600Y0042302D01*
X0050600Y0045698D01*
X0048198Y0048100D01*
X0044802Y0048100D01*
X0043145Y0046443D02*
X0027243Y0046443D01*
X0026967Y0045445D02*
X0042400Y0045445D01*
X0042400Y0044446D02*
X0026462Y0044446D01*
X0025461Y0043448D02*
X0042400Y0043448D01*
X0042400Y0042449D02*
X0011800Y0042449D01*
X0011800Y0041451D02*
X0043251Y0041451D01*
X0044249Y0040452D02*
X0011800Y0040452D01*
X0011800Y0043448D02*
X0014824Y0043448D01*
X0013823Y0044446D02*
X0011800Y0044446D01*
X0011800Y0045445D02*
X0013318Y0045445D01*
X0013043Y0046443D02*
X0011800Y0046443D01*
X0011800Y0047442D02*
X0013043Y0047442D01*
X0013332Y0048440D02*
X0011800Y0048440D01*
X0011800Y0049439D02*
X0013858Y0049439D01*
X0014908Y0050437D02*
X0011800Y0050437D01*
X0011800Y0051436D02*
X0088677Y0051436D01*
X0087678Y0052434D02*
X0011800Y0052434D01*
X0011800Y0053433D02*
X0014860Y0053433D01*
X0014820Y0053449D02*
X0016327Y0052825D01*
X0023958Y0052825D01*
X0025465Y0053449D01*
X0026618Y0054603D01*
X0027243Y0056110D01*
X0027243Y0057741D01*
X0026618Y0059248D01*
X0025465Y0060401D01*
X0023958Y0061025D01*
X0016327Y0061025D01*
X0014820Y0060401D01*
X0013667Y0059248D01*
X0013043Y0057741D01*
X0013043Y0056110D01*
X0013667Y0054603D01*
X0014820Y0053449D01*
X0013838Y0054432D02*
X0011800Y0054432D01*
X0011800Y0055430D02*
X0013324Y0055430D01*
X0013043Y0056429D02*
X0011800Y0056429D01*
X0011800Y0057427D02*
X0013043Y0057427D01*
X0013326Y0058426D02*
X0011800Y0058426D01*
X0011800Y0059424D02*
X0013843Y0059424D01*
X0014872Y0060423D02*
X0011800Y0060423D01*
X0011800Y0061421D02*
X0034000Y0061421D01*
X0034000Y0060423D02*
X0025413Y0060423D01*
X0026442Y0059424D02*
X0034123Y0059424D01*
X0035122Y0058426D02*
X0026959Y0058426D01*
X0027243Y0057427D02*
X0036686Y0057427D01*
X0037684Y0056429D02*
X0027243Y0056429D01*
X0026961Y0055430D02*
X0038683Y0055430D01*
X0039681Y0054432D02*
X0026447Y0054432D01*
X0025425Y0053433D02*
X0086680Y0053433D01*
X0089058Y0056429D02*
X0122600Y0056429D01*
X0122600Y0057427D02*
X0109025Y0057427D01*
X0108698Y0057100D02*
X0111100Y0059502D01*
X0111100Y0059600D01*
X0112947Y0059600D01*
X0113647Y0058900D01*
X0115553Y0058900D01*
X0116900Y0060247D01*
X0116900Y0062153D01*
X0115553Y0063500D01*
X0113647Y0063500D01*
X0112947Y0062800D01*
X0111100Y0062800D01*
X0111100Y0062898D01*
X0108698Y0065300D01*
X0105302Y0065300D01*
X0102900Y0062898D01*
X0102900Y0059502D01*
X0105302Y0057100D01*
X0108698Y0057100D01*
X0108698Y0055300D02*
X0105302Y0055300D01*
X0102900Y0052898D01*
X0102900Y0049502D01*
X0105302Y0047100D01*
X0108698Y0047100D01*
X0111100Y0049502D01*
X0111100Y0052898D01*
X0108698Y0055300D01*
X0109567Y0054432D02*
X0122600Y0054432D01*
X0122600Y0055430D02*
X0090057Y0055430D01*
X0091055Y0054432D02*
X0104433Y0054432D01*
X0103435Y0053433D02*
X0092054Y0053433D01*
X0093052Y0052434D02*
X0102900Y0052434D01*
X0102900Y0051436D02*
X0094051Y0051436D01*
X0095050Y0050437D02*
X0102900Y0050437D01*
X0102963Y0049439D02*
X0096048Y0049439D01*
X0097047Y0048440D02*
X0103961Y0048440D01*
X0104960Y0047442D02*
X0098045Y0047442D01*
X0090674Y0049439D02*
X0026427Y0049439D01*
X0025377Y0050437D02*
X0089676Y0050437D01*
X0088060Y0057427D02*
X0104975Y0057427D01*
X0103976Y0058426D02*
X0041061Y0058426D01*
X0040063Y0059424D02*
X0102978Y0059424D01*
X0102900Y0060423D02*
X0039064Y0060423D01*
X0038600Y0061421D02*
X0102900Y0061421D01*
X0102900Y0062420D02*
X0037633Y0062420D01*
X0034967Y0062420D02*
X0011800Y0062420D01*
X0011800Y0063418D02*
X0014314Y0063418D01*
X0014211Y0063493D02*
X0014784Y0063076D01*
X0015415Y0062755D01*
X0016089Y0062536D01*
X0016788Y0062425D01*
X0019643Y0062425D01*
X0019643Y0066425D01*
X0020642Y0066425D01*
X0020642Y0062425D01*
X0023497Y0062425D01*
X0024196Y0062536D01*
X0024870Y0062755D01*
X0025501Y0063076D01*
X0026074Y0063493D01*
X0026575Y0063994D01*
X0026991Y0064567D01*
X0027313Y0065198D01*
X0027532Y0065871D01*
X0027619Y0066425D01*
X0020643Y0066425D01*
X0020643Y0067425D01*
X0027619Y0067425D01*
X0027532Y0067979D01*
X0027313Y0068653D01*
X0026991Y0069284D01*
X0026575Y0069857D01*
X0026074Y0070358D01*
X0025501Y0070774D01*
X0024870Y0071095D01*
X0024196Y0071314D01*
X0023497Y0071425D01*
X0020642Y0071425D01*
X0020642Y0067425D01*
X0019643Y0067425D01*
X0019643Y0071425D01*
X0016788Y0071425D01*
X0016089Y0071314D01*
X0015415Y0071095D01*
X0014784Y0070774D01*
X0014211Y0070358D01*
X0013710Y0069857D01*
X0013294Y0069284D01*
X0012972Y0068653D01*
X0012753Y0067979D01*
X0012666Y0067425D01*
X0019642Y0067425D01*
X0019642Y0066425D01*
X0012666Y0066425D01*
X0012753Y0065871D01*
X0012972Y0065198D01*
X0013294Y0064567D01*
X0013710Y0063994D01*
X0014211Y0063493D01*
X0013403Y0064417D02*
X0011800Y0064417D01*
X0011800Y0065415D02*
X0012902Y0065415D01*
X0012667Y0066414D02*
X0011800Y0066414D01*
X0011800Y0067412D02*
X0019642Y0067412D01*
X0019643Y0066414D02*
X0020642Y0066414D01*
X0020643Y0067412D02*
X0033700Y0067412D01*
X0033700Y0066587D02*
X0033700Y0079913D01*
X0033700Y0081487D01*
X0034813Y0082600D01*
X0101087Y0082600D01*
X0102200Y0081487D01*
X0102200Y0065013D01*
X0101087Y0063900D01*
X0034813Y0063900D01*
X0033700Y0065013D01*
X0033700Y0066587D01*
X0033700Y0066414D02*
X0027618Y0066414D01*
X0027383Y0065415D02*
X0033700Y0065415D01*
X0034296Y0064417D02*
X0026882Y0064417D01*
X0025971Y0063418D02*
X0103420Y0063418D01*
X0104418Y0064417D02*
X0101604Y0064417D01*
X0102200Y0065415D02*
X0122600Y0065415D01*
X0122600Y0064417D02*
X0109582Y0064417D01*
X0110580Y0063418D02*
X0113565Y0063418D01*
X0115635Y0063418D02*
X0122600Y0063418D01*
X0122600Y0062420D02*
X0116633Y0062420D01*
X0116900Y0061421D02*
X0122600Y0061421D01*
X0122600Y0060423D02*
X0116900Y0060423D01*
X0116077Y0059424D02*
X0122600Y0059424D01*
X0122600Y0058426D02*
X0110024Y0058426D01*
X0111022Y0059424D02*
X0113123Y0059424D01*
X0114600Y0061200D02*
X0107000Y0061200D01*
X0102200Y0066414D02*
X0122600Y0066414D01*
X0122600Y0067412D02*
X0102200Y0067412D01*
X0102200Y0068411D02*
X0122600Y0068411D01*
X0122600Y0069409D02*
X0102200Y0069409D01*
X0102200Y0070408D02*
X0122600Y0070408D01*
X0122600Y0071406D02*
X0102200Y0071406D01*
X0102200Y0072405D02*
X0122600Y0072405D01*
X0122600Y0073403D02*
X0102200Y0073403D01*
X0102200Y0074402D02*
X0122600Y0074402D01*
X0122600Y0075400D02*
X0102200Y0075400D01*
X0102200Y0076399D02*
X0122600Y0076399D01*
X0122600Y0077397D02*
X0102200Y0077397D01*
X0102200Y0078396D02*
X0122600Y0078396D01*
X0122600Y0079394D02*
X0102200Y0079394D01*
X0102200Y0080393D02*
X0122600Y0080393D01*
X0118256Y0081391D02*
X0102200Y0081391D01*
X0101297Y0082390D02*
X0117500Y0082390D01*
X0117500Y0083388D02*
X0045141Y0083388D01*
X0044953Y0083200D02*
X0046300Y0084547D01*
X0046300Y0086453D01*
X0044953Y0087800D01*
X0043047Y0087800D01*
X0042347Y0087100D01*
X0035253Y0087100D01*
X0034553Y0087800D01*
X0032647Y0087800D01*
X0031300Y0086453D01*
X0031300Y0084547D01*
X0032647Y0083200D01*
X0034553Y0083200D01*
X0035253Y0083900D01*
X0042347Y0083900D01*
X0043047Y0083200D01*
X0044953Y0083200D01*
X0046140Y0084387D02*
X0107960Y0084387D01*
X0107600Y0085385D02*
X0046300Y0085385D01*
X0046300Y0086384D02*
X0100763Y0086384D01*
X0100100Y0087382D02*
X0045370Y0087382D01*
X0044000Y0085500D02*
X0033600Y0085500D01*
X0031300Y0085385D02*
X0026942Y0085385D01*
X0027243Y0086110D02*
X0027243Y0087741D01*
X0026618Y0089248D01*
X0025465Y0090401D01*
X0023958Y0091025D01*
X0016327Y0091025D01*
X0014820Y0090401D01*
X0013667Y0089248D01*
X0013043Y0087741D01*
X0013043Y0086110D01*
X0013667Y0084603D01*
X0014820Y0083449D01*
X0016327Y0082825D01*
X0023958Y0082825D01*
X0025465Y0083449D01*
X0026618Y0084603D01*
X0027243Y0086110D01*
X0027243Y0086384D02*
X0031300Y0086384D01*
X0032230Y0087382D02*
X0027243Y0087382D01*
X0026977Y0088381D02*
X0100100Y0088381D01*
X0100527Y0089379D02*
X0026487Y0089379D01*
X0025488Y0090378D02*
X0034463Y0090378D01*
X0034544Y0090297D02*
X0035683Y0089825D01*
X0041342Y0089825D01*
X0041870Y0090044D01*
X0042962Y0090044D01*
X0043606Y0090688D01*
X0043606Y0091780D01*
X0043825Y0092309D01*
X0043825Y0093542D01*
X0043606Y0094070D01*
X0043606Y0095162D01*
X0042962Y0095806D01*
X0041870Y0095806D01*
X0041342Y0096025D01*
X0037584Y0096025D01*
X0034928Y0098681D01*
X0034056Y0099553D01*
X0032917Y0100025D01*
X0025841Y0100025D01*
X0025465Y0100401D01*
X0023958Y0101025D01*
X0016327Y0101025D01*
X0014820Y0100401D01*
X0013667Y0099248D01*
X0013043Y0097741D01*
X0013043Y0096110D01*
X0013667Y0094603D01*
X0014820Y0093449D01*
X0016327Y0092825D01*
X0023958Y0092825D01*
X0025465Y0093449D01*
X0025841Y0093825D01*
X0031016Y0093825D01*
X0034544Y0090297D01*
X0033465Y0091376D02*
X0011800Y0091376D01*
X0011800Y0090378D02*
X0014797Y0090378D01*
X0013798Y0089379D02*
X0011800Y0089379D01*
X0011800Y0088381D02*
X0013308Y0088381D01*
X0013043Y0087382D02*
X0011800Y0087382D01*
X0011800Y0086384D02*
X0013043Y0086384D01*
X0013343Y0085385D02*
X0011800Y0085385D01*
X0011800Y0084387D02*
X0013883Y0084387D01*
X0014967Y0083388D02*
X0011800Y0083388D01*
X0011800Y0082390D02*
X0034603Y0082390D01*
X0034741Y0083388D02*
X0042859Y0083388D01*
X0042630Y0087382D02*
X0034970Y0087382D01*
X0031460Y0084387D02*
X0026402Y0084387D01*
X0025318Y0083388D02*
X0032459Y0083388D01*
X0033700Y0081391D02*
X0011800Y0081391D01*
X0011800Y0080393D02*
X0014812Y0080393D01*
X0014820Y0080401D02*
X0013667Y0079248D01*
X0013043Y0077741D01*
X0013043Y0076110D01*
X0013667Y0074603D01*
X0014820Y0073449D01*
X0016327Y0072825D01*
X0023958Y0072825D01*
X0025465Y0073449D01*
X0026618Y0074603D01*
X0027243Y0076110D01*
X0027243Y0077741D01*
X0026618Y0079248D01*
X0025465Y0080401D01*
X0023958Y0081025D01*
X0016327Y0081025D01*
X0014820Y0080401D01*
X0013813Y0079394D02*
X0011800Y0079394D01*
X0011800Y0078396D02*
X0013314Y0078396D01*
X0013043Y0077397D02*
X0011800Y0077397D01*
X0011800Y0076399D02*
X0013043Y0076399D01*
X0013336Y0075400D02*
X0011800Y0075400D01*
X0011800Y0074402D02*
X0013868Y0074402D01*
X0014931Y0073403D02*
X0011800Y0073403D01*
X0011800Y0072405D02*
X0033700Y0072405D01*
X0033700Y0073403D02*
X0025354Y0073403D01*
X0026417Y0074402D02*
X0033700Y0074402D01*
X0033700Y0075400D02*
X0026949Y0075400D01*
X0027243Y0076399D02*
X0033700Y0076399D01*
X0033700Y0077397D02*
X0027243Y0077397D01*
X0026971Y0078396D02*
X0033700Y0078396D01*
X0033700Y0079394D02*
X0026472Y0079394D01*
X0025473Y0080393D02*
X0033700Y0080393D01*
X0043296Y0090378D02*
X0122600Y0090378D01*
X0122600Y0091376D02*
X0043606Y0091376D01*
X0043825Y0092375D02*
X0122600Y0092375D01*
X0122600Y0093373D02*
X0043825Y0093373D01*
X0043606Y0094372D02*
X0122600Y0094372D01*
X0122600Y0095370D02*
X0043398Y0095370D01*
X0037240Y0096369D02*
X0122600Y0096369D01*
X0122600Y0097368D02*
X0036242Y0097368D01*
X0035243Y0098366D02*
X0104736Y0098366D01*
X0105302Y0097800D02*
X0108698Y0097800D01*
X0111100Y0100202D01*
X0111100Y0103598D01*
X0108698Y0106000D01*
X0105302Y0106000D01*
X0102900Y0103598D01*
X0102900Y0100202D01*
X0105302Y0097800D01*
X0103737Y0099365D02*
X0034245Y0099365D01*
X0031468Y0093373D02*
X0025282Y0093373D01*
X0025503Y0100363D02*
X0102900Y0100363D01*
X0102900Y0101362D02*
X0011800Y0101362D01*
X0011800Y0102360D02*
X0102900Y0102360D01*
X0102900Y0103359D02*
X0011800Y0103359D01*
X0011800Y0104357D02*
X0103659Y0104357D01*
X0104657Y0105356D02*
X0011800Y0105356D01*
X0011800Y0106354D02*
X0122600Y0106354D01*
X0122600Y0105356D02*
X0109343Y0105356D01*
X0110341Y0104357D02*
X0122600Y0104357D01*
X0122600Y0103359D02*
X0111100Y0103359D01*
X0111100Y0102360D02*
X0122600Y0102360D01*
X0122600Y0101362D02*
X0111100Y0101362D01*
X0111100Y0100363D02*
X0122600Y0100363D01*
X0122600Y0099365D02*
X0110263Y0099365D01*
X0109264Y0098366D02*
X0122600Y0098366D01*
X0122600Y0107353D02*
X0011800Y0107353D01*
X0011800Y0108351D02*
X0104751Y0108351D01*
X0105302Y0107800D02*
X0108698Y0107800D01*
X0111100Y0110202D01*
X0111100Y0113598D01*
X0108698Y0116000D01*
X0105302Y0116000D01*
X0102900Y0113598D01*
X0102900Y0110202D01*
X0105302Y0107800D01*
X0103752Y0109350D02*
X0011800Y0109350D01*
X0011800Y0110348D02*
X0102900Y0110348D01*
X0102900Y0111347D02*
X0011800Y0111347D01*
X0011800Y0112345D02*
X0102900Y0112345D01*
X0102900Y0113344D02*
X0025210Y0113344D01*
X0025465Y0113449D02*
X0026618Y0114603D01*
X0027243Y0116110D01*
X0027243Y0117741D01*
X0026618Y0119248D01*
X0025465Y0120401D01*
X0023958Y0121025D01*
X0016327Y0121025D01*
X0014820Y0120401D01*
X0013667Y0119248D01*
X0013043Y0117741D01*
X0013043Y0116110D01*
X0013667Y0114603D01*
X0014820Y0113449D01*
X0016327Y0112825D01*
X0023958Y0112825D01*
X0025465Y0113449D01*
X0026358Y0114342D02*
X0103644Y0114342D01*
X0104642Y0115341D02*
X0026924Y0115341D01*
X0027243Y0116339D02*
X0108508Y0116339D01*
X0108847Y0116000D02*
X0107500Y0117347D01*
X0107500Y0119253D01*
X0108847Y0120600D01*
X0110753Y0120600D01*
X0111453Y0119900D01*
X0115647Y0119900D01*
X0116347Y0120600D01*
X0118253Y0120600D01*
X0119600Y0119253D01*
X0119600Y0117347D01*
X0118253Y0116000D01*
X0116347Y0116000D01*
X0115647Y0116700D01*
X0111453Y0116700D01*
X0110753Y0116000D01*
X0108847Y0116000D01*
X0109358Y0115341D02*
X0122600Y0115341D01*
X0122600Y0116339D02*
X0118592Y0116339D01*
X0119590Y0117338D02*
X0122600Y0117338D01*
X0122600Y0118336D02*
X0119600Y0118336D01*
X0119518Y0119335D02*
X0122600Y0119335D01*
X0122600Y0120333D02*
X0118519Y0120333D01*
X0117300Y0118300D02*
X0109800Y0118300D01*
X0107500Y0118336D02*
X0026996Y0118336D01*
X0027243Y0117338D02*
X0107510Y0117338D01*
X0107582Y0119335D02*
X0026531Y0119335D01*
X0025533Y0120333D02*
X0108581Y0120333D01*
X0111019Y0120333D02*
X0116081Y0120333D01*
X0116008Y0116339D02*
X0111092Y0116339D01*
X0110356Y0114342D02*
X0122600Y0114342D01*
X0122600Y0113344D02*
X0111100Y0113344D01*
X0111100Y0112345D02*
X0122600Y0112345D01*
X0122600Y0111347D02*
X0111100Y0111347D01*
X0111100Y0110348D02*
X0122600Y0110348D01*
X0122600Y0109350D02*
X0110248Y0109350D01*
X0109249Y0108351D02*
X0122600Y0108351D01*
X0133300Y0113100D02*
X0133300Y0124000D01*
X0132200Y0125100D01*
X0109800Y0125100D01*
X0111281Y0123329D02*
X0122600Y0123329D01*
X0122600Y0122330D02*
X0011800Y0122330D01*
X0011800Y0121332D02*
X0122600Y0121332D01*
X0127000Y0127400D02*
X0107400Y0127400D01*
X0108733Y0129320D02*
X0125667Y0129320D01*
X0128333Y0129320D02*
X0205650Y0129320D01*
X0205650Y0130318D02*
X0106800Y0130318D01*
X0106436Y0131317D02*
X0205650Y0131317D01*
X0205650Y0132315D02*
X0102200Y0132315D01*
X0102200Y0131317D02*
X0102564Y0131317D01*
X0102200Y0131113D02*
X0102200Y0149087D01*
X0101087Y0150200D01*
X0034813Y0150200D01*
X0033700Y0149087D01*
X0033700Y0147513D01*
X0033700Y0132687D01*
X0033700Y0131113D01*
X0034813Y0130000D01*
X0101087Y0130000D01*
X0102200Y0131113D01*
X0102200Y0130318D02*
X0101405Y0130318D01*
X0102200Y0129320D02*
X0026965Y0129320D01*
X0026991Y0129284D02*
X0026575Y0129857D01*
X0026074Y0130358D01*
X0025501Y0130774D01*
X0024870Y0131095D01*
X0024196Y0131314D01*
X0023497Y0131425D01*
X0020642Y0131425D01*
X0020642Y0127425D01*
X0019643Y0127425D01*
X0019643Y0131425D01*
X0016788Y0131425D01*
X0016089Y0131314D01*
X0015415Y0131095D01*
X0014784Y0130774D01*
X0014211Y0130358D01*
X0013710Y0129857D01*
X0013294Y0129284D01*
X0012972Y0128653D01*
X0012753Y0127979D01*
X0012666Y0127425D01*
X0019642Y0127425D01*
X0019642Y0126425D01*
X0012666Y0126425D01*
X0012753Y0125871D01*
X0012972Y0125198D01*
X0013294Y0124567D01*
X0013710Y0123994D01*
X0014211Y0123493D01*
X0014784Y0123076D01*
X0015415Y0122755D01*
X0016089Y0122536D01*
X0016788Y0122425D01*
X0019643Y0122425D01*
X0019643Y0126425D01*
X0020642Y0126425D01*
X0020642Y0122425D01*
X0023497Y0122425D01*
X0024196Y0122536D01*
X0024870Y0122755D01*
X0025501Y0123076D01*
X0026074Y0123493D01*
X0026575Y0123994D01*
X0026991Y0124567D01*
X0027313Y0125198D01*
X0027532Y0125871D01*
X0027619Y0126425D01*
X0020643Y0126425D01*
X0020643Y0127425D01*
X0027619Y0127425D01*
X0027532Y0127979D01*
X0027313Y0128653D01*
X0026991Y0129284D01*
X0027420Y0128321D02*
X0102900Y0128321D01*
X0102900Y0127323D02*
X0020643Y0127323D01*
X0020642Y0128321D02*
X0019643Y0128321D01*
X0019642Y0127323D02*
X0011800Y0127323D01*
X0011800Y0128321D02*
X0012865Y0128321D01*
X0013320Y0129320D02*
X0011800Y0129320D01*
X0011800Y0130318D02*
X0014172Y0130318D01*
X0016105Y0131317D02*
X0011800Y0131317D01*
X0011800Y0132315D02*
X0033700Y0132315D01*
X0033700Y0131317D02*
X0024180Y0131317D01*
X0023958Y0132825D02*
X0025465Y0133449D01*
X0026618Y0134603D01*
X0027243Y0136110D01*
X0027243Y0137741D01*
X0026618Y0139248D01*
X0025465Y0140401D01*
X0023958Y0141025D01*
X0016327Y0141025D01*
X0014820Y0140401D01*
X0013667Y0139248D01*
X0013043Y0137741D01*
X0013043Y0136110D01*
X0013667Y0134603D01*
X0014820Y0133449D01*
X0016327Y0132825D01*
X0023958Y0132825D01*
X0025138Y0133314D02*
X0033700Y0133314D01*
X0033700Y0134312D02*
X0026328Y0134312D01*
X0026912Y0135311D02*
X0033700Y0135311D01*
X0033700Y0136309D02*
X0027243Y0136309D01*
X0027243Y0137308D02*
X0033700Y0137308D01*
X0033700Y0138306D02*
X0027008Y0138306D01*
X0026561Y0139305D02*
X0033700Y0139305D01*
X0033700Y0140303D02*
X0025562Y0140303D01*
X0023958Y0142825D02*
X0025465Y0143449D01*
X0026618Y0144603D01*
X0027243Y0146110D01*
X0027243Y0147741D01*
X0026618Y0149248D01*
X0025465Y0150401D01*
X0023958Y0151025D01*
X0016327Y0151025D01*
X0014820Y0150401D01*
X0013667Y0149248D01*
X0013043Y0147741D01*
X0013043Y0146110D01*
X0013667Y0144603D01*
X0014820Y0143449D01*
X0016327Y0142825D01*
X0023958Y0142825D01*
X0025102Y0143299D02*
X0033700Y0143299D01*
X0033700Y0142301D02*
X0011800Y0142301D01*
X0011800Y0143299D02*
X0015183Y0143299D01*
X0013972Y0144298D02*
X0011800Y0144298D01*
X0011800Y0145296D02*
X0013380Y0145296D01*
X0013043Y0146295D02*
X0011800Y0146295D01*
X0011800Y0147293D02*
X0013043Y0147293D01*
X0013271Y0148292D02*
X0011800Y0148292D01*
X0011800Y0149290D02*
X0013709Y0149290D01*
X0014708Y0150289D02*
X0011800Y0150289D01*
X0011800Y0151287D02*
X0102800Y0151287D01*
X0102800Y0150802D02*
X0105202Y0148400D01*
X0108598Y0148400D01*
X0111000Y0150802D01*
X0111000Y0154198D01*
X0108598Y0156600D01*
X0105202Y0156600D01*
X0102800Y0154198D01*
X0102800Y0150802D01*
X0103313Y0150289D02*
X0025577Y0150289D01*
X0026576Y0149290D02*
X0033903Y0149290D01*
X0033700Y0148292D02*
X0027014Y0148292D01*
X0027243Y0147293D02*
X0033700Y0147293D01*
X0033700Y0146295D02*
X0027243Y0146295D01*
X0026905Y0145296D02*
X0033700Y0145296D01*
X0033700Y0144298D02*
X0026313Y0144298D01*
X0033700Y0141302D02*
X0011800Y0141302D01*
X0011800Y0140303D02*
X0014723Y0140303D01*
X0013724Y0139305D02*
X0011800Y0139305D01*
X0011800Y0138306D02*
X0013277Y0138306D01*
X0013043Y0137308D02*
X0011800Y0137308D01*
X0011800Y0136309D02*
X0013043Y0136309D01*
X0013373Y0135311D02*
X0011800Y0135311D01*
X0011800Y0134312D02*
X0013957Y0134312D01*
X0015147Y0133314D02*
X0011800Y0133314D01*
X0011800Y0126324D02*
X0012682Y0126324D01*
X0012931Y0125326D02*
X0011800Y0125326D01*
X0011800Y0124327D02*
X0013468Y0124327D01*
X0014437Y0123329D02*
X0011800Y0123329D01*
X0011800Y0120333D02*
X0014752Y0120333D01*
X0013754Y0119335D02*
X0011800Y0119335D01*
X0011800Y0118336D02*
X0013289Y0118336D01*
X0013043Y0117338D02*
X0011800Y0117338D01*
X0011800Y0116339D02*
X0013043Y0116339D01*
X0013361Y0115341D02*
X0011800Y0115341D01*
X0011800Y0114342D02*
X0013927Y0114342D01*
X0015075Y0113344D02*
X0011800Y0113344D01*
X0019643Y0123329D02*
X0020642Y0123329D01*
X0020642Y0124327D02*
X0019643Y0124327D01*
X0019643Y0125326D02*
X0020642Y0125326D01*
X0020642Y0126324D02*
X0019643Y0126324D01*
X0019643Y0129320D02*
X0020642Y0129320D01*
X0020642Y0130318D02*
X0019643Y0130318D01*
X0019643Y0131317D02*
X0020642Y0131317D01*
X0026113Y0130318D02*
X0034495Y0130318D01*
X0027603Y0126324D02*
X0102472Y0126324D01*
X0102200Y0125326D02*
X0027354Y0125326D01*
X0026817Y0124327D02*
X0102200Y0124327D01*
X0103019Y0123329D02*
X0025848Y0123329D01*
X0014782Y0100363D02*
X0011800Y0100363D01*
X0011800Y0099365D02*
X0013784Y0099365D01*
X0013302Y0098366D02*
X0011800Y0098366D01*
X0011800Y0097368D02*
X0013043Y0097368D01*
X0013043Y0096369D02*
X0011800Y0096369D01*
X0011800Y0095370D02*
X0013349Y0095370D01*
X0013897Y0094372D02*
X0011800Y0094372D01*
X0011800Y0093373D02*
X0015003Y0093373D01*
X0011800Y0092375D02*
X0032466Y0092375D01*
X0033700Y0071406D02*
X0023616Y0071406D01*
X0026005Y0070408D02*
X0033700Y0070408D01*
X0033700Y0069409D02*
X0026900Y0069409D01*
X0027391Y0068411D02*
X0033700Y0068411D01*
X0020642Y0068411D02*
X0019643Y0068411D01*
X0019643Y0069409D02*
X0020642Y0069409D01*
X0020642Y0070408D02*
X0019643Y0070408D01*
X0019643Y0071406D02*
X0020642Y0071406D01*
X0016669Y0071406D02*
X0011800Y0071406D01*
X0011800Y0070408D02*
X0014280Y0070408D01*
X0013385Y0069409D02*
X0011800Y0069409D01*
X0011800Y0068411D02*
X0012894Y0068411D01*
X0019643Y0065415D02*
X0020642Y0065415D01*
X0020642Y0064417D02*
X0019643Y0064417D01*
X0019643Y0063418D02*
X0020642Y0063418D01*
X0048856Y0047442D02*
X0054144Y0047442D01*
X0054802Y0048100D02*
X0052400Y0045698D01*
X0052400Y0042302D01*
X0054802Y0039900D01*
X0058198Y0039900D01*
X0060600Y0042302D01*
X0060600Y0045698D01*
X0058198Y0048100D01*
X0054802Y0048100D01*
X0053145Y0046443D02*
X0049855Y0046443D01*
X0050600Y0045445D02*
X0052400Y0045445D01*
X0052400Y0044446D02*
X0050600Y0044446D01*
X0050600Y0043448D02*
X0052400Y0043448D01*
X0052400Y0042449D02*
X0050600Y0042449D01*
X0049749Y0041451D02*
X0053251Y0041451D01*
X0054249Y0040452D02*
X0048751Y0040452D01*
X0058751Y0040452D02*
X0067249Y0040452D01*
X0067802Y0039900D02*
X0065400Y0042302D01*
X0065400Y0045698D01*
X0067802Y0048100D01*
X0071198Y0048100D01*
X0073600Y0045698D01*
X0073600Y0042302D01*
X0071198Y0039900D01*
X0067802Y0039900D01*
X0066251Y0041451D02*
X0059749Y0041451D01*
X0060600Y0042449D02*
X0065400Y0042449D01*
X0065400Y0043448D02*
X0060600Y0043448D01*
X0060600Y0044446D02*
X0065400Y0044446D01*
X0065400Y0045445D02*
X0060600Y0045445D01*
X0059855Y0046443D02*
X0066145Y0046443D01*
X0067144Y0047442D02*
X0058856Y0047442D01*
X0071856Y0047442D02*
X0077144Y0047442D01*
X0076145Y0046443D02*
X0072855Y0046443D01*
X0073600Y0045445D02*
X0075400Y0045445D01*
X0075400Y0044446D02*
X0073600Y0044446D01*
X0073600Y0043448D02*
X0075400Y0043448D01*
X0075400Y0042449D02*
X0073600Y0042449D01*
X0072749Y0041451D02*
X0076251Y0041451D01*
X0077249Y0040452D02*
X0071751Y0040452D01*
X0099000Y0025475D02*
X0100000Y0025475D01*
X0100000Y0024476D02*
X0099000Y0024476D01*
X0099000Y0023478D02*
X0100000Y0023478D01*
X0100000Y0022479D02*
X0099000Y0022479D01*
X0099000Y0021481D02*
X0100000Y0021481D01*
X0100000Y0020482D02*
X0099000Y0020482D01*
X0099000Y0019484D02*
X0100000Y0019484D01*
X0104000Y0019484D02*
X0105000Y0019484D01*
X0105000Y0020482D02*
X0104000Y0020482D01*
X0104000Y0021481D02*
X0105000Y0021481D01*
X0105036Y0022479D02*
X0103964Y0022479D01*
X0103719Y0023478D02*
X0105281Y0023478D01*
X0105809Y0024476D02*
X0103191Y0024476D01*
X0102236Y0025475D02*
X0106764Y0025475D01*
X0109000Y0025475D02*
X0110000Y0025475D01*
X0110000Y0024476D02*
X0109000Y0024476D01*
X0109000Y0023478D02*
X0110000Y0023478D01*
X0110000Y0022479D02*
X0109000Y0022479D01*
X0109000Y0021481D02*
X0110000Y0021481D01*
X0110000Y0020482D02*
X0109000Y0020482D01*
X0109000Y0019484D02*
X0110000Y0019484D01*
X0110000Y0016488D02*
X0109000Y0016488D01*
X0109000Y0015490D02*
X0110000Y0015490D01*
X0110000Y0014491D02*
X0109000Y0014491D01*
X0109000Y0013493D02*
X0110000Y0013493D01*
X0110000Y0012494D02*
X0109000Y0012494D01*
X0109000Y0011496D02*
X0110000Y0011496D01*
X0108543Y0011496D02*
X0100457Y0011496D01*
X0100000Y0011496D02*
X0099000Y0011496D01*
X0098543Y0011496D02*
X0021237Y0011496D01*
X0020238Y0012494D02*
X0096542Y0012494D01*
X0095687Y0013493D02*
X0019240Y0013493D01*
X0018241Y0014491D02*
X0095226Y0014491D01*
X0095009Y0015490D02*
X0017243Y0015490D01*
X0022235Y0010497D02*
X0195215Y0010497D01*
X0195459Y0017487D02*
X0202205Y0017487D01*
X0203203Y0018485D02*
X0196669Y0018485D01*
X0197668Y0019484D02*
X0204202Y0019484D01*
X0205200Y0020482D02*
X0198284Y0020482D01*
X0198698Y0021481D02*
X0205650Y0021481D01*
X0205650Y0022479D02*
X0199111Y0022479D01*
X0199202Y0023478D02*
X0205650Y0023478D01*
X0205650Y0024476D02*
X0199202Y0024476D01*
X0199202Y0025475D02*
X0205650Y0025475D01*
X0205650Y0026473D02*
X0198922Y0026473D01*
X0198509Y0027472D02*
X0205650Y0027472D01*
X0205650Y0028470D02*
X0198095Y0028470D01*
X0197211Y0029469D02*
X0205650Y0029469D01*
X0205650Y0030467D02*
X0196213Y0030467D01*
X0205650Y0047442D02*
X0109040Y0047442D01*
X0110039Y0048440D02*
X0205650Y0048440D01*
X0205650Y0049439D02*
X0111037Y0049439D01*
X0111100Y0050437D02*
X0123148Y0050437D01*
X0122600Y0051436D02*
X0111100Y0051436D01*
X0111100Y0052434D02*
X0122600Y0052434D01*
X0122600Y0053433D02*
X0110565Y0053433D01*
X0109900Y0085700D02*
X0110597Y0085708D01*
X0169800Y0085700D01*
X0175000Y0088000D02*
X0102400Y0088000D01*
X0104037Y0086384D02*
X0107600Y0086384D01*
X0134300Y0109400D02*
X0134300Y0112100D01*
X0133300Y0113100D01*
X0123172Y0133314D02*
X0102200Y0133314D01*
X0102200Y0134312D02*
X0122600Y0134312D01*
X0122600Y0135311D02*
X0102200Y0135311D01*
X0102200Y0136309D02*
X0122600Y0136309D01*
X0122600Y0137308D02*
X0102200Y0137308D01*
X0102200Y0138306D02*
X0122600Y0138306D01*
X0122600Y0139305D02*
X0102200Y0139305D01*
X0102200Y0140303D02*
X0122600Y0140303D01*
X0122600Y0141302D02*
X0102200Y0141302D01*
X0102200Y0142301D02*
X0122600Y0142301D01*
X0122600Y0143299D02*
X0102200Y0143299D01*
X0102200Y0144298D02*
X0122600Y0144298D01*
X0122600Y0145296D02*
X0102200Y0145296D01*
X0102200Y0146295D02*
X0122600Y0146295D01*
X0122600Y0147293D02*
X0102200Y0147293D01*
X0102200Y0148292D02*
X0122600Y0148292D01*
X0122600Y0149290D02*
X0109488Y0149290D01*
X0110487Y0150289D02*
X0122600Y0150289D01*
X0122600Y0151287D02*
X0111000Y0151287D01*
X0111000Y0152286D02*
X0122600Y0152286D01*
X0122600Y0153284D02*
X0111000Y0153284D01*
X0110916Y0154283D02*
X0122600Y0154283D01*
X0122600Y0155281D02*
X0109917Y0155281D01*
X0108919Y0156280D02*
X0122600Y0156280D01*
X0122600Y0157278D02*
X0043000Y0157278D01*
X0043000Y0157647D02*
X0043700Y0158347D01*
X0043700Y0160253D01*
X0042353Y0161600D01*
X0040447Y0161600D01*
X0039100Y0160253D01*
X0039100Y0158347D01*
X0039800Y0157647D01*
X0039800Y0156253D01*
X0039100Y0155553D01*
X0039100Y0153647D01*
X0040447Y0152300D01*
X0042353Y0152300D01*
X0043700Y0153647D01*
X0043700Y0155553D01*
X0043000Y0156253D01*
X0043000Y0157647D01*
X0043629Y0158277D02*
X0122600Y0158277D01*
X0122600Y0159275D02*
X0109173Y0159275D01*
X0108298Y0158400D02*
X0110700Y0160802D01*
X0110700Y0164198D01*
X0108298Y0166600D01*
X0104902Y0166600D01*
X0102500Y0164198D01*
X0102500Y0160802D01*
X0104902Y0158400D01*
X0108298Y0158400D01*
X0110172Y0160274D02*
X0122600Y0160274D01*
X0122600Y0161272D02*
X0110700Y0161272D01*
X0110700Y0162271D02*
X0122600Y0162271D01*
X0120753Y0166600D02*
X0118847Y0166600D01*
X0117500Y0167947D01*
X0117500Y0169853D01*
X0117900Y0170253D01*
X0117900Y0192500D01*
X0085800Y0192500D01*
X0085800Y0190584D01*
X0085176Y0189078D01*
X0084022Y0187924D01*
X0082516Y0187300D01*
X0080884Y0187300D01*
X0079378Y0187924D01*
X0078224Y0189078D01*
X0077600Y0190584D01*
X0077600Y0198216D01*
X0078224Y0199722D01*
X0079378Y0200876D01*
X0080884Y0201500D01*
X0082516Y0201500D01*
X0084022Y0200876D01*
X0085176Y0199722D01*
X0085800Y0198216D01*
X0085800Y0196300D01*
X0120587Y0196300D01*
X0121700Y0195187D01*
X0121700Y0170800D01*
X0134547Y0170800D01*
X0134947Y0171200D01*
X0136853Y0171200D01*
X0137253Y0170800D01*
X0167247Y0170800D01*
X0167647Y0171200D01*
X0169553Y0171200D01*
X0169953Y0170800D01*
X0201947Y0170800D01*
X0202347Y0171200D01*
X0204253Y0171200D01*
X0205600Y0169853D01*
X0205600Y0167947D01*
X0204253Y0166600D01*
X0202347Y0166600D01*
X0201947Y0167000D01*
X0169953Y0167000D01*
X0169553Y0166600D01*
X0167647Y0166600D01*
X0167247Y0167000D01*
X0137253Y0167000D01*
X0136853Y0166600D01*
X0134947Y0166600D01*
X0134547Y0167000D01*
X0121153Y0167000D01*
X0120753Y0166600D01*
X0118184Y0167263D02*
X0082862Y0167263D01*
X0083600Y0168002D02*
X0081198Y0165600D01*
X0077802Y0165600D01*
X0075400Y0168002D01*
X0075400Y0171398D01*
X0077802Y0173800D01*
X0081198Y0173800D01*
X0083600Y0171398D01*
X0083600Y0168002D01*
X0083600Y0168262D02*
X0117500Y0168262D01*
X0117500Y0169260D02*
X0083600Y0169260D01*
X0083600Y0170259D02*
X0117900Y0170259D01*
X0117900Y0171257D02*
X0083600Y0171257D01*
X0082742Y0172256D02*
X0117900Y0172256D01*
X0117900Y0173254D02*
X0081744Y0173254D01*
X0077256Y0173254D02*
X0071744Y0173254D01*
X0071198Y0173800D02*
X0073600Y0171398D01*
X0073600Y0168002D01*
X0071198Y0165600D01*
X0067802Y0165600D01*
X0065400Y0168002D01*
X0065400Y0171398D01*
X0067802Y0173800D01*
X0071198Y0173800D01*
X0072742Y0172256D02*
X0076258Y0172256D01*
X0075400Y0171257D02*
X0073600Y0171257D01*
X0073600Y0170259D02*
X0075400Y0170259D01*
X0075400Y0169260D02*
X0073600Y0169260D01*
X0073600Y0168262D02*
X0075400Y0168262D01*
X0076138Y0167263D02*
X0072862Y0167263D01*
X0071863Y0166265D02*
X0077137Y0166265D01*
X0081863Y0166265D02*
X0104567Y0166265D01*
X0103568Y0165266D02*
X0026893Y0165266D01*
X0026618Y0164603D02*
X0027243Y0166110D01*
X0027243Y0167741D01*
X0026618Y0169248D01*
X0025465Y0170401D01*
X0023958Y0171025D01*
X0016327Y0171025D01*
X0014820Y0170401D01*
X0013667Y0169248D01*
X0013043Y0167741D01*
X0013043Y0166110D01*
X0013667Y0164603D01*
X0014820Y0163449D01*
X0016327Y0162825D01*
X0023958Y0162825D01*
X0025465Y0163449D01*
X0026618Y0164603D01*
X0026283Y0164268D02*
X0102570Y0164268D01*
X0102500Y0163269D02*
X0025030Y0163269D01*
X0023958Y0161025D02*
X0016327Y0161025D01*
X0014820Y0160401D01*
X0013667Y0159248D01*
X0013043Y0157741D01*
X0013043Y0156110D01*
X0013667Y0154603D01*
X0014820Y0153449D01*
X0016327Y0152825D01*
X0023958Y0152825D01*
X0025465Y0153449D01*
X0026618Y0154603D01*
X0027243Y0156110D01*
X0027243Y0157741D01*
X0026618Y0159248D01*
X0025465Y0160401D01*
X0023958Y0161025D01*
X0025592Y0160274D02*
X0039121Y0160274D01*
X0039100Y0159275D02*
X0026591Y0159275D01*
X0027021Y0158277D02*
X0039171Y0158277D01*
X0039800Y0157278D02*
X0027243Y0157278D01*
X0027243Y0156280D02*
X0039800Y0156280D01*
X0039100Y0155281D02*
X0026899Y0155281D01*
X0026298Y0154283D02*
X0039100Y0154283D01*
X0039463Y0153284D02*
X0025066Y0153284D01*
X0015219Y0153284D02*
X0011800Y0153284D01*
X0011800Y0152286D02*
X0102800Y0152286D01*
X0102800Y0153284D02*
X0043337Y0153284D01*
X0043700Y0154283D02*
X0102884Y0154283D01*
X0103883Y0155281D02*
X0043700Y0155281D01*
X0043000Y0156280D02*
X0104881Y0156280D01*
X0104027Y0159275D02*
X0043700Y0159275D01*
X0043679Y0160274D02*
X0103028Y0160274D01*
X0102500Y0161272D02*
X0042680Y0161272D01*
X0041400Y0159300D02*
X0041400Y0154600D01*
X0040120Y0161272D02*
X0011800Y0161272D01*
X0011800Y0160274D02*
X0014693Y0160274D01*
X0013694Y0159275D02*
X0011800Y0159275D01*
X0011800Y0158277D02*
X0013265Y0158277D01*
X0013043Y0157278D02*
X0011800Y0157278D01*
X0011800Y0156280D02*
X0013043Y0156280D01*
X0013386Y0155281D02*
X0011800Y0155281D01*
X0011800Y0154283D02*
X0013987Y0154283D01*
X0011800Y0162271D02*
X0102500Y0162271D01*
X0108633Y0166265D02*
X0205650Y0166265D01*
X0205650Y0167263D02*
X0204916Y0167263D01*
X0205600Y0168262D02*
X0205650Y0168262D01*
X0205650Y0169260D02*
X0205600Y0169260D01*
X0205650Y0170259D02*
X0205194Y0170259D01*
X0205650Y0171257D02*
X0121700Y0171257D01*
X0121700Y0172256D02*
X0205650Y0172256D01*
X0205650Y0173254D02*
X0121700Y0173254D01*
X0121700Y0174253D02*
X0205650Y0174253D01*
X0205650Y0175251D02*
X0121700Y0175251D01*
X0121700Y0176250D02*
X0205650Y0176250D01*
X0205650Y0177248D02*
X0121700Y0177248D01*
X0121700Y0178247D02*
X0205650Y0178247D01*
X0205650Y0179245D02*
X0121700Y0179245D01*
X0121700Y0180244D02*
X0205650Y0180244D01*
X0205650Y0181242D02*
X0121700Y0181242D01*
X0121700Y0182241D02*
X0188794Y0182241D01*
X0189851Y0181803D02*
X0186984Y0182991D01*
X0184791Y0185184D01*
X0183603Y0188051D01*
X0183603Y0191154D01*
X0184791Y0194020D01*
X0186984Y0196214D01*
X0189851Y0197402D01*
X0192954Y0197402D01*
X0195820Y0196214D01*
X0198014Y0194020D01*
X0199202Y0191154D01*
X0199202Y0188051D01*
X0198014Y0185184D01*
X0195820Y0182991D01*
X0192954Y0181803D01*
X0189851Y0181803D01*
X0186735Y0183239D02*
X0121700Y0183239D01*
X0121700Y0184238D02*
X0185737Y0184238D01*
X0184769Y0185237D02*
X0121700Y0185237D01*
X0121700Y0186235D02*
X0184355Y0186235D01*
X0183942Y0187234D02*
X0121700Y0187234D01*
X0121700Y0188232D02*
X0146470Y0188232D01*
X0146778Y0187924D02*
X0148284Y0187300D01*
X0149916Y0187300D01*
X0151422Y0187924D01*
X0152576Y0189078D01*
X0153200Y0190584D01*
X0153200Y0198216D01*
X0152576Y0199722D01*
X0151422Y0200876D01*
X0149916Y0201500D01*
X0148284Y0201500D01*
X0146778Y0200876D01*
X0145624Y0199722D01*
X0145000Y0198216D01*
X0145000Y0190584D01*
X0145624Y0189078D01*
X0146778Y0187924D01*
X0145561Y0189231D02*
X0121700Y0189231D01*
X0121700Y0190229D02*
X0145147Y0190229D01*
X0145000Y0191228D02*
X0121700Y0191228D01*
X0121700Y0192226D02*
X0145000Y0192226D01*
X0145000Y0193225D02*
X0121700Y0193225D01*
X0121700Y0194223D02*
X0145000Y0194223D01*
X0145000Y0195222D02*
X0121665Y0195222D01*
X0120667Y0196220D02*
X0145000Y0196220D01*
X0145000Y0197219D02*
X0085800Y0197219D01*
X0085799Y0198217D02*
X0145001Y0198217D01*
X0145414Y0199216D02*
X0085386Y0199216D01*
X0084684Y0200214D02*
X0146116Y0200214D01*
X0147591Y0201213D02*
X0083209Y0201213D01*
X0080191Y0201213D02*
X0073209Y0201213D01*
X0072516Y0201500D02*
X0070884Y0201500D01*
X0069378Y0200876D01*
X0068224Y0199722D01*
X0067600Y0198216D01*
X0067600Y0190584D01*
X0068224Y0189078D01*
X0069378Y0187924D01*
X0070884Y0187300D01*
X0072516Y0187300D01*
X0074022Y0187924D01*
X0075176Y0189078D01*
X0075800Y0190584D01*
X0075800Y0198216D01*
X0075176Y0199722D01*
X0074022Y0200876D01*
X0072516Y0201500D01*
X0070191Y0201213D02*
X0063209Y0201213D01*
X0062516Y0201500D02*
X0064022Y0200876D01*
X0065176Y0199722D01*
X0065800Y0198216D01*
X0065800Y0190584D01*
X0065176Y0189078D01*
X0064022Y0187924D01*
X0062516Y0187300D01*
X0060884Y0187300D01*
X0059378Y0187924D01*
X0058224Y0189078D01*
X0057600Y0190584D01*
X0057600Y0198216D01*
X0058224Y0199722D01*
X0059378Y0200876D01*
X0060884Y0201500D01*
X0062516Y0201500D01*
X0060191Y0201213D02*
X0054108Y0201213D01*
X0054059Y0201249D02*
X0053427Y0201570D01*
X0052754Y0201789D01*
X0052200Y0201877D01*
X0052200Y0194900D01*
X0056200Y0194900D01*
X0056200Y0197754D01*
X0056089Y0198454D01*
X0055870Y0199127D01*
X0055549Y0199759D01*
X0055132Y0200332D01*
X0054632Y0200832D01*
X0054059Y0201249D01*
X0055218Y0200214D02*
X0058716Y0200214D01*
X0058014Y0199216D02*
X0055825Y0199216D01*
X0056127Y0198217D02*
X0057601Y0198217D01*
X0057600Y0197219D02*
X0056200Y0197219D01*
X0056200Y0196220D02*
X0057600Y0196220D01*
X0057600Y0195222D02*
X0056200Y0195222D01*
X0056200Y0193900D02*
X0052200Y0193900D01*
X0052200Y0194900D01*
X0051200Y0194900D01*
X0051200Y0201877D01*
X0050646Y0201789D01*
X0049973Y0201570D01*
X0049341Y0201249D01*
X0048768Y0200832D01*
X0048268Y0200332D01*
X0047851Y0199759D01*
X0047530Y0199127D01*
X0047311Y0198454D01*
X0047200Y0197754D01*
X0047200Y0194900D01*
X0051200Y0194900D01*
X0051200Y0193900D01*
X0052200Y0193900D01*
X0052200Y0186923D01*
X0052754Y0187011D01*
X0053427Y0187230D01*
X0054059Y0187551D01*
X0054632Y0187968D01*
X0055132Y0188468D01*
X0055549Y0189041D01*
X0055870Y0189673D01*
X0056089Y0190346D01*
X0056200Y0191046D01*
X0056200Y0193900D01*
X0056200Y0193225D02*
X0057600Y0193225D01*
X0057600Y0194223D02*
X0052200Y0194223D01*
X0052200Y0193225D02*
X0051200Y0193225D01*
X0051200Y0193900D02*
X0051200Y0186923D01*
X0050646Y0187011D01*
X0049973Y0187230D01*
X0049341Y0187551D01*
X0048768Y0187968D01*
X0048268Y0188468D01*
X0047851Y0189041D01*
X0047530Y0189673D01*
X0047311Y0190346D01*
X0047200Y0191046D01*
X0047200Y0193900D01*
X0051200Y0193900D01*
X0051200Y0194223D02*
X0032457Y0194223D01*
X0032660Y0194020D02*
X0030466Y0196214D01*
X0027599Y0197402D01*
X0024497Y0197402D01*
X0021630Y0196214D01*
X0019436Y0194020D01*
X0018249Y0191154D01*
X0018249Y0188051D01*
X0019436Y0185184D01*
X0021630Y0182991D01*
X0024497Y0181803D01*
X0027599Y0181803D01*
X0030466Y0182991D01*
X0032660Y0185184D01*
X0033847Y0188051D01*
X0033847Y0191154D01*
X0032660Y0194020D01*
X0032989Y0193225D02*
X0047200Y0193225D01*
X0047200Y0192226D02*
X0033403Y0192226D01*
X0033817Y0191228D02*
X0047200Y0191228D01*
X0047349Y0190229D02*
X0033847Y0190229D01*
X0033847Y0189231D02*
X0047755Y0189231D01*
X0048504Y0188232D02*
X0033847Y0188232D01*
X0033509Y0187234D02*
X0049965Y0187234D01*
X0051200Y0187234D02*
X0052200Y0187234D01*
X0052200Y0188232D02*
X0051200Y0188232D01*
X0051200Y0189231D02*
X0052200Y0189231D01*
X0052200Y0190229D02*
X0051200Y0190229D01*
X0051200Y0191228D02*
X0052200Y0191228D01*
X0052200Y0192226D02*
X0051200Y0192226D01*
X0051200Y0195222D02*
X0052200Y0195222D01*
X0052200Y0196220D02*
X0051200Y0196220D01*
X0051200Y0197219D02*
X0052200Y0197219D01*
X0052200Y0198217D02*
X0051200Y0198217D01*
X0051200Y0199216D02*
X0052200Y0199216D01*
X0052200Y0200214D02*
X0051200Y0200214D01*
X0051200Y0201213D02*
X0052200Y0201213D01*
X0049292Y0201213D02*
X0020095Y0201213D01*
X0021093Y0202211D02*
X0196357Y0202211D01*
X0195359Y0203210D02*
X0022092Y0203210D01*
X0019096Y0200214D02*
X0048182Y0200214D01*
X0047575Y0199216D02*
X0018098Y0199216D01*
X0017099Y0198217D02*
X0047273Y0198217D01*
X0047200Y0197219D02*
X0028041Y0197219D01*
X0024055Y0197219D02*
X0016101Y0197219D01*
X0015102Y0196220D02*
X0021644Y0196220D01*
X0020638Y0195222D02*
X0014104Y0195222D01*
X0013105Y0194223D02*
X0019639Y0194223D01*
X0019107Y0193225D02*
X0012107Y0193225D01*
X0011800Y0192226D02*
X0018693Y0192226D01*
X0018279Y0191228D02*
X0011800Y0191228D01*
X0011800Y0190229D02*
X0018249Y0190229D01*
X0018249Y0189231D02*
X0011800Y0189231D01*
X0011800Y0188232D02*
X0018249Y0188232D01*
X0018587Y0187234D02*
X0011800Y0187234D01*
X0011800Y0186235D02*
X0019001Y0186235D01*
X0019415Y0185237D02*
X0011800Y0185237D01*
X0011800Y0184238D02*
X0020383Y0184238D01*
X0021381Y0183239D02*
X0011800Y0183239D01*
X0011800Y0182241D02*
X0023440Y0182241D01*
X0028656Y0182241D02*
X0117900Y0182241D01*
X0117900Y0183239D02*
X0030715Y0183239D01*
X0031713Y0184238D02*
X0117900Y0184238D01*
X0117900Y0185237D02*
X0032681Y0185237D01*
X0033095Y0186235D02*
X0117900Y0186235D01*
X0117900Y0187234D02*
X0053435Y0187234D01*
X0054896Y0188232D02*
X0059070Y0188232D01*
X0058161Y0189231D02*
X0055645Y0189231D01*
X0056051Y0190229D02*
X0057747Y0190229D01*
X0057600Y0191228D02*
X0056200Y0191228D01*
X0056200Y0192226D02*
X0057600Y0192226D01*
X0064330Y0188232D02*
X0069070Y0188232D01*
X0068161Y0189231D02*
X0065239Y0189231D01*
X0065653Y0190229D02*
X0067747Y0190229D01*
X0067600Y0191228D02*
X0065800Y0191228D01*
X0065800Y0192226D02*
X0067600Y0192226D01*
X0067600Y0193225D02*
X0065800Y0193225D01*
X0065800Y0194223D02*
X0067600Y0194223D01*
X0067600Y0195222D02*
X0065800Y0195222D01*
X0065800Y0196220D02*
X0067600Y0196220D01*
X0067600Y0197219D02*
X0065800Y0197219D01*
X0065799Y0198217D02*
X0067601Y0198217D01*
X0068014Y0199216D02*
X0065386Y0199216D01*
X0064684Y0200214D02*
X0068716Y0200214D01*
X0074684Y0200214D02*
X0078716Y0200214D01*
X0078014Y0199216D02*
X0075386Y0199216D01*
X0075799Y0198217D02*
X0077601Y0198217D01*
X0077600Y0197219D02*
X0075800Y0197219D01*
X0075800Y0196220D02*
X0077600Y0196220D01*
X0077600Y0195222D02*
X0075800Y0195222D01*
X0075800Y0194223D02*
X0077600Y0194223D01*
X0077600Y0193225D02*
X0075800Y0193225D01*
X0075800Y0192226D02*
X0077600Y0192226D01*
X0077600Y0191228D02*
X0075800Y0191228D01*
X0075653Y0190229D02*
X0077747Y0190229D01*
X0078161Y0189231D02*
X0075239Y0189231D01*
X0074330Y0188232D02*
X0079070Y0188232D01*
X0084330Y0188232D02*
X0117900Y0188232D01*
X0117900Y0189231D02*
X0085239Y0189231D01*
X0085653Y0190229D02*
X0117900Y0190229D01*
X0117900Y0191228D02*
X0085800Y0191228D01*
X0085800Y0192226D02*
X0117900Y0192226D01*
X0117900Y0181242D02*
X0011800Y0181242D01*
X0011800Y0180244D02*
X0117900Y0180244D01*
X0117900Y0179245D02*
X0011800Y0179245D01*
X0011800Y0178247D02*
X0117900Y0178247D01*
X0117900Y0177248D02*
X0011800Y0177248D01*
X0011800Y0176250D02*
X0117900Y0176250D01*
X0117900Y0175251D02*
X0011800Y0175251D01*
X0011800Y0174253D02*
X0117900Y0174253D01*
X0109632Y0165266D02*
X0205650Y0165266D01*
X0205650Y0164268D02*
X0110630Y0164268D01*
X0110700Y0163269D02*
X0205650Y0163269D01*
X0205650Y0182241D02*
X0194011Y0182241D01*
X0196069Y0183239D02*
X0205650Y0183239D01*
X0205650Y0184238D02*
X0197068Y0184238D01*
X0198036Y0185237D02*
X0205650Y0185237D01*
X0205650Y0186235D02*
X0198449Y0186235D01*
X0198863Y0187234D02*
X0205650Y0187234D01*
X0205650Y0188232D02*
X0199202Y0188232D01*
X0199202Y0189231D02*
X0205650Y0189231D01*
X0205650Y0190229D02*
X0199202Y0190229D01*
X0199171Y0191228D02*
X0205650Y0191228D01*
X0205650Y0192226D02*
X0198757Y0192226D01*
X0198344Y0193225D02*
X0205344Y0193225D01*
X0204345Y0194223D02*
X0197811Y0194223D01*
X0196813Y0195222D02*
X0203347Y0195222D01*
X0202348Y0196220D02*
X0195806Y0196220D01*
X0193395Y0197219D02*
X0201350Y0197219D01*
X0200351Y0198217D02*
X0173199Y0198217D01*
X0173200Y0198216D02*
X0172576Y0199722D01*
X0171422Y0200876D01*
X0169916Y0201500D01*
X0168284Y0201500D01*
X0166778Y0200876D01*
X0165624Y0199722D01*
X0165000Y0198216D01*
X0165000Y0190584D01*
X0165624Y0189078D01*
X0166778Y0187924D01*
X0168284Y0187300D01*
X0169916Y0187300D01*
X0171422Y0187924D01*
X0172576Y0189078D01*
X0173200Y0190584D01*
X0173200Y0198216D01*
X0173200Y0197219D02*
X0189409Y0197219D01*
X0186999Y0196220D02*
X0173200Y0196220D01*
X0173200Y0195222D02*
X0185992Y0195222D01*
X0184993Y0194223D02*
X0173200Y0194223D01*
X0173200Y0193225D02*
X0184461Y0193225D01*
X0184047Y0192226D02*
X0173200Y0192226D01*
X0173200Y0191228D02*
X0183634Y0191228D01*
X0183603Y0190229D02*
X0173053Y0190229D01*
X0172639Y0189231D02*
X0183603Y0189231D01*
X0183603Y0188232D02*
X0171730Y0188232D01*
X0166470Y0188232D02*
X0161730Y0188232D01*
X0161422Y0187924D02*
X0162576Y0189078D01*
X0163200Y0190584D01*
X0163200Y0198216D01*
X0162576Y0199722D01*
X0161422Y0200876D01*
X0159916Y0201500D01*
X0158284Y0201500D01*
X0156778Y0200876D01*
X0155624Y0199722D01*
X0155000Y0198216D01*
X0155000Y0190584D01*
X0155624Y0189078D01*
X0156778Y0187924D01*
X0158284Y0187300D01*
X0159916Y0187300D01*
X0161422Y0187924D01*
X0162639Y0189231D02*
X0165561Y0189231D01*
X0165147Y0190229D02*
X0163053Y0190229D01*
X0163200Y0191228D02*
X0165000Y0191228D01*
X0165000Y0192226D02*
X0163200Y0192226D01*
X0163200Y0193225D02*
X0165000Y0193225D01*
X0165000Y0194223D02*
X0163200Y0194223D01*
X0163200Y0195222D02*
X0165000Y0195222D01*
X0165000Y0196220D02*
X0163200Y0196220D01*
X0163200Y0197219D02*
X0165000Y0197219D01*
X0165001Y0198217D02*
X0163199Y0198217D01*
X0162786Y0199216D02*
X0165414Y0199216D01*
X0166116Y0200214D02*
X0162084Y0200214D01*
X0160609Y0201213D02*
X0167591Y0201213D01*
X0170609Y0201213D02*
X0197356Y0201213D01*
X0198354Y0200214D02*
X0172084Y0200214D01*
X0172786Y0199216D02*
X0199353Y0199216D01*
X0157591Y0201213D02*
X0150609Y0201213D01*
X0152084Y0200214D02*
X0156116Y0200214D01*
X0155414Y0199216D02*
X0152786Y0199216D01*
X0153199Y0198217D02*
X0155001Y0198217D01*
X0155000Y0197219D02*
X0153200Y0197219D01*
X0153200Y0196220D02*
X0155000Y0196220D01*
X0155000Y0195222D02*
X0153200Y0195222D01*
X0153200Y0194223D02*
X0155000Y0194223D01*
X0155000Y0193225D02*
X0153200Y0193225D01*
X0153200Y0192226D02*
X0155000Y0192226D01*
X0155000Y0191228D02*
X0153200Y0191228D01*
X0153053Y0190229D02*
X0155147Y0190229D01*
X0155561Y0189231D02*
X0152639Y0189231D01*
X0151730Y0188232D02*
X0156470Y0188232D01*
X0144700Y0158500D02*
X0144700Y0153900D01*
X0158100Y0156100D02*
X0158100Y0149600D01*
X0185800Y0150200D02*
X0185800Y0156200D01*
X0185800Y0150200D02*
X0186200Y0149500D01*
X0177100Y0104400D02*
X0177100Y0102100D01*
X0176000Y0101000D01*
X0176000Y0089000D01*
X0175000Y0088000D01*
X0172600Y0064600D02*
X0175100Y0062100D01*
X0175100Y0059400D01*
X0201300Y0067900D02*
X0204500Y0064700D01*
X0204500Y0059800D01*
X0167016Y0025475D02*
X0161184Y0025475D01*
X0162322Y0024476D02*
X0165878Y0024476D01*
X0165316Y0023478D02*
X0162884Y0023478D01*
X0163200Y0022479D02*
X0165000Y0022479D01*
X0165000Y0021481D02*
X0163200Y0021481D01*
X0163200Y0020482D02*
X0165000Y0020482D01*
X0165000Y0019484D02*
X0163200Y0019484D01*
X0163200Y0018485D02*
X0165000Y0018485D01*
X0165000Y0017487D02*
X0163200Y0017487D01*
X0163200Y0016488D02*
X0165000Y0016488D01*
X0165000Y0015490D02*
X0163200Y0015490D01*
X0162954Y0014491D02*
X0165246Y0014491D01*
X0165709Y0013493D02*
X0162491Y0013493D01*
X0161492Y0012494D02*
X0166708Y0012494D01*
X0120000Y0012494D02*
X0119000Y0012494D01*
X0119000Y0013493D02*
X0120000Y0013493D01*
X0120000Y0014491D02*
X0119000Y0014491D01*
X0119000Y0015490D02*
X0120000Y0015490D01*
X0120000Y0016488D02*
X0119000Y0016488D01*
X0106542Y0012494D02*
X0102458Y0012494D01*
X0103313Y0013493D02*
X0105687Y0013493D01*
X0105226Y0014491D02*
X0103774Y0014491D01*
X0103991Y0015490D02*
X0105009Y0015490D01*
X0105000Y0016488D02*
X0104000Y0016488D01*
X0104000Y0017487D02*
X0105000Y0017487D01*
X0100000Y0016488D02*
X0099000Y0016488D01*
X0099000Y0015490D02*
X0100000Y0015490D01*
X0100000Y0014491D02*
X0099000Y0014491D01*
X0099000Y0013493D02*
X0100000Y0013493D01*
X0100000Y0012494D02*
X0099000Y0012494D01*
X0095000Y0016488D02*
X0027694Y0016488D01*
X0093700Y0114300D02*
X0093700Y0115700D01*
X0104500Y0125100D02*
X0104500Y0130000D01*
X0106800Y0124327D02*
X0107500Y0124327D01*
X0108319Y0123329D02*
X0105981Y0123329D01*
X0104312Y0149290D02*
X0101997Y0149290D01*
X0067137Y0166265D02*
X0058863Y0166265D01*
X0058198Y0165600D02*
X0060600Y0168002D01*
X0060600Y0171398D01*
X0058198Y0173800D01*
X0054802Y0173800D01*
X0052400Y0171398D01*
X0052400Y0168002D01*
X0054802Y0165600D01*
X0058198Y0165600D01*
X0059862Y0167263D02*
X0066138Y0167263D01*
X0065400Y0168262D02*
X0060600Y0168262D01*
X0060600Y0169260D02*
X0065400Y0169260D01*
X0065400Y0170259D02*
X0060600Y0170259D01*
X0060600Y0171257D02*
X0065400Y0171257D01*
X0066258Y0172256D02*
X0059742Y0172256D01*
X0058744Y0173254D02*
X0067256Y0173254D01*
X0054256Y0173254D02*
X0048744Y0173254D01*
X0048198Y0173800D02*
X0044802Y0173800D01*
X0042400Y0171398D01*
X0042400Y0168002D01*
X0044802Y0165600D01*
X0048198Y0165600D01*
X0050600Y0168002D01*
X0050600Y0171398D01*
X0048198Y0173800D01*
X0049742Y0172256D02*
X0053258Y0172256D01*
X0052400Y0171257D02*
X0050600Y0171257D01*
X0050600Y0170259D02*
X0052400Y0170259D01*
X0052400Y0169260D02*
X0050600Y0169260D01*
X0050600Y0168262D02*
X0052400Y0168262D01*
X0053138Y0167263D02*
X0049862Y0167263D01*
X0048863Y0166265D02*
X0054137Y0166265D01*
X0044137Y0166265D02*
X0027243Y0166265D01*
X0027243Y0167263D02*
X0043138Y0167263D01*
X0042400Y0168262D02*
X0027027Y0168262D01*
X0026606Y0169260D02*
X0042400Y0169260D01*
X0042400Y0170259D02*
X0025607Y0170259D01*
X0015255Y0163269D02*
X0011800Y0163269D01*
X0011800Y0164268D02*
X0014002Y0164268D01*
X0013392Y0165266D02*
X0011800Y0165266D01*
X0011800Y0166265D02*
X0013043Y0166265D01*
X0013043Y0167263D02*
X0011800Y0167263D01*
X0011800Y0168262D02*
X0013258Y0168262D01*
X0013679Y0169260D02*
X0011800Y0169260D01*
X0011800Y0170259D02*
X0014678Y0170259D01*
X0011800Y0171257D02*
X0042400Y0171257D01*
X0043258Y0172256D02*
X0011800Y0172256D01*
X0011800Y0173254D02*
X0044256Y0173254D01*
X0047200Y0195222D02*
X0031459Y0195222D01*
X0030452Y0196220D02*
X0047200Y0196220D01*
D16*
X0032300Y0096925D02*
X0020143Y0096925D01*
X0032300Y0096925D02*
X0036300Y0092925D01*
X0040725Y0092925D01*
D17*
X0040725Y0092925D03*
M02*
