%
M48
M72
T01C0.01200
T02C0.02362
T03C0.04000
T04C0.12598
%
T01
X36300Y60500
X41300Y73100
X44000Y85500
X46500Y95400
X49700Y95400
X52700Y95400
X55700Y95400
X45200Y98800
X33600Y85500
X55300Y73100
X69300Y73100
X82800Y73100
X98300Y73100
X109900Y85700
X102400Y88000
X93800Y93400
X93800Y96300
X90700Y96300
X90700Y93400
X93700Y115700
X104500Y125100
X107400Y127400
X109800Y125100
X104500Y130000
X109800Y118300
X117300Y118300
X127000Y127400
X130300Y130000
X134300Y109400
X130300Y83100
X119800Y83100
X114600Y61200
X119800Y44600
X114600Y42000
X109900Y42000
X134100Y59900
X140600Y44600
X161800Y44600
X168600Y57700
X175100Y59400
X172600Y64600
X173100Y83100
X169800Y85700
X177100Y104400
X173100Y130000
X186200Y149500
X185800Y156200
X189400Y156400
X203300Y168900
X168600Y168900
X161800Y156300
X158100Y156100
X158100Y149600
X144700Y153900
X144700Y158500
X136800Y155400
X135900Y168900
X119800Y168900
X88300Y140100
X79200Y140100
X65200Y140100
X41400Y154600
X41400Y159300
X38100Y140100
X199200Y44600
X200900Y60600
X204500Y59800
X201300Y67900
T02
X40725Y92925
T03
X20143Y46925
X20143Y56925
X20143Y66925
X20143Y76925
X20143Y86925
X20143Y96925
X20143Y116925
X20143Y126925
X20143Y136925
X20143Y146925
X20143Y156925
X20143Y166925
X46500Y169700
X56500Y169700
X69500Y169700
X79500Y169700
X81700Y194400
X71700Y194400
X61700Y194400
X51700Y194400
X106600Y162500
X106900Y152500
X107000Y111900
X107000Y101900
X107000Y61200
X107000Y51200
X79500Y44000
X69500Y44000
X56500Y44000
X46500Y44000
X99500Y18900
X109500Y18900
X119500Y18900
X149100Y18900
X159100Y18900
X169100Y18900
X169100Y194400
X159100Y194400
X149100Y194400
T04
X26048Y24248
X26048Y189602
X191402Y189602
X191402Y24248
M30
