G75*
%MOIN*%
%OFA0B0*%
%FSLAX25Y25*%
%IPPOS*%
%LPD*%
%AMOC8*
5,1,8,0,0,1.08239X$1,22.5*
%
%ADD10C,0.00600*%
%ADD11C,0.01200*%
%ADD12C,0.01600*%
%ADD13C,0.00500*%
%ADD14C,0.00000*%
%ADD15C,0.01000*%
%ADD16C,0.00800*%
D10*
X0016143Y0043325D02*
X0017643Y0041925D01*
X0022643Y0041925D01*
X0024343Y0043425D01*
X0026497Y0042934D02*
X0027631Y0041800D01*
X0026497Y0042934D02*
X0029900Y0042934D01*
X0029900Y0041800D02*
X0029900Y0044069D01*
X0024143Y0050525D02*
X0022643Y0051925D01*
X0024143Y0053325D01*
X0022643Y0051925D02*
X0017643Y0051925D01*
X0016243Y0053325D01*
X0017643Y0051925D02*
X0016143Y0050525D01*
X0016143Y0060525D02*
X0017643Y0061925D01*
X0022643Y0061925D01*
X0024143Y0060525D01*
X0022643Y0061925D02*
X0024243Y0063325D01*
X0017643Y0061925D02*
X0016143Y0063325D01*
X0015943Y0070525D02*
X0017643Y0071925D01*
X0016243Y0073325D01*
X0017643Y0071925D02*
X0022643Y0071925D01*
X0024143Y0073325D01*
X0022643Y0071925D02*
X0024143Y0070525D01*
X0024143Y0080525D02*
X0022643Y0081925D01*
X0024143Y0083325D01*
X0022643Y0081925D02*
X0017643Y0081925D01*
X0016043Y0083325D01*
X0017643Y0081925D02*
X0016043Y0080525D01*
X0016043Y0090525D02*
X0017643Y0091925D01*
X0022643Y0091925D01*
X0024143Y0090525D01*
X0022643Y0091925D02*
X0024143Y0093325D01*
X0017643Y0091925D02*
X0016143Y0093325D01*
X0016143Y0100525D02*
X0017643Y0101925D01*
X0022643Y0101925D01*
X0024043Y0100525D01*
X0032250Y0104926D02*
X0032250Y0107195D01*
X0032818Y0107762D01*
X0033952Y0107762D01*
X0034519Y0107195D01*
X0035934Y0106628D02*
X0037068Y0107762D01*
X0037068Y0104359D01*
X0035934Y0104359D02*
X0038202Y0104359D01*
X0039617Y0104359D02*
X0041885Y0104359D01*
X0040751Y0104359D02*
X0040751Y0107762D01*
X0039617Y0106628D01*
X0034519Y0104926D02*
X0033952Y0104359D01*
X0032818Y0104359D01*
X0032250Y0104926D01*
X0028900Y0110200D02*
X0028333Y0110200D01*
X0026064Y0112469D01*
X0025497Y0112469D01*
X0025497Y0110200D01*
X0022725Y0111925D02*
X0017725Y0111925D01*
X0016143Y0113325D01*
X0022725Y0111925D02*
X0024043Y0113325D01*
X0024043Y0120525D02*
X0022643Y0121925D01*
X0024043Y0123325D01*
X0022643Y0121925D02*
X0017643Y0121925D01*
X0016343Y0123225D01*
X0017643Y0121925D02*
X0016143Y0120525D01*
X0016143Y0130525D02*
X0017643Y0131925D01*
X0022643Y0131925D01*
X0024043Y0130525D01*
X0022643Y0131925D02*
X0024043Y0133325D01*
X0017643Y0131925D02*
X0016243Y0133325D01*
X0016143Y0140525D02*
X0017643Y0141925D01*
X0016343Y0143225D01*
X0017643Y0141925D02*
X0022643Y0141925D01*
X0024043Y0143325D01*
X0022643Y0141925D02*
X0024043Y0140525D01*
X0023943Y0150625D02*
X0022643Y0151925D01*
X0024043Y0153325D01*
X0022643Y0151925D02*
X0017643Y0151925D01*
X0016243Y0153325D01*
X0017643Y0151925D02*
X0016343Y0150625D01*
X0016243Y0160625D02*
X0017643Y0161925D01*
X0016143Y0163325D01*
X0017643Y0161925D02*
X0022643Y0161925D01*
X0023943Y0163225D01*
X0022643Y0161925D02*
X0024043Y0160525D01*
X0028400Y0161169D02*
X0028967Y0160601D01*
X0030101Y0160601D01*
X0030669Y0160034D01*
X0030669Y0159467D01*
X0030101Y0158900D01*
X0028967Y0158900D01*
X0028400Y0159467D01*
X0028400Y0161169D02*
X0028400Y0161736D01*
X0028967Y0162303D01*
X0030101Y0162303D01*
X0030669Y0161736D01*
X0032083Y0161736D02*
X0032083Y0159467D01*
X0032650Y0158900D01*
X0033785Y0158900D01*
X0034352Y0159467D01*
X0035766Y0158900D02*
X0038035Y0158900D01*
X0035766Y0158900D02*
X0035766Y0162303D01*
X0034352Y0161736D02*
X0033785Y0162303D01*
X0032650Y0162303D01*
X0032083Y0161736D01*
X0031883Y0168800D02*
X0033585Y0168800D01*
X0034152Y0169367D01*
X0034152Y0171636D01*
X0033585Y0172203D01*
X0031883Y0172203D01*
X0031883Y0168800D01*
X0030469Y0169367D02*
X0029901Y0168800D01*
X0028767Y0168800D01*
X0028200Y0169367D01*
X0028767Y0170501D02*
X0028200Y0171069D01*
X0028200Y0171636D01*
X0028767Y0172203D01*
X0029901Y0172203D01*
X0030469Y0171636D01*
X0029901Y0170501D02*
X0030469Y0169934D01*
X0030469Y0169367D01*
X0029901Y0170501D02*
X0028767Y0170501D01*
X0024043Y0170525D02*
X0022643Y0171925D01*
X0017643Y0171925D01*
X0016143Y0170525D01*
X0016200Y0173300D02*
X0016200Y0175569D01*
X0016200Y0174434D02*
X0012797Y0174434D01*
X0013931Y0173300D01*
X0013364Y0176983D02*
X0012797Y0177550D01*
X0012797Y0178685D01*
X0013364Y0179252D01*
X0013931Y0179252D01*
X0016200Y0176983D01*
X0016200Y0179252D01*
X0035566Y0171069D02*
X0035566Y0168800D01*
X0035566Y0170501D02*
X0037835Y0170501D01*
X0037835Y0171069D02*
X0037835Y0168800D01*
X0037835Y0171069D02*
X0036701Y0172203D01*
X0035566Y0171069D01*
X0041500Y0172200D02*
X0041500Y0167200D01*
X0044000Y0164700D01*
X0049000Y0164700D01*
X0051500Y0167200D01*
X0054000Y0164700D01*
X0059000Y0164700D01*
X0061500Y0167200D01*
X0061500Y0172200D01*
X0059000Y0174700D01*
X0054000Y0174700D01*
X0051500Y0172200D01*
X0051500Y0167200D01*
X0051500Y0172200D01*
X0049000Y0174700D01*
X0044000Y0174700D01*
X0041500Y0172200D01*
X0044267Y0163403D02*
X0045401Y0163403D01*
X0045969Y0162836D01*
X0043700Y0160567D01*
X0044267Y0160000D01*
X0045401Y0160000D01*
X0045969Y0160567D01*
X0045969Y0162836D01*
X0047383Y0162836D02*
X0047383Y0160567D01*
X0047950Y0160000D01*
X0049085Y0160000D01*
X0049652Y0160567D01*
X0049652Y0162836D02*
X0049085Y0163403D01*
X0047950Y0163403D01*
X0047383Y0162836D01*
X0044267Y0163403D02*
X0043700Y0162836D01*
X0043700Y0160567D01*
X0053600Y0160467D02*
X0054167Y0159900D01*
X0055301Y0159900D01*
X0055869Y0160467D01*
X0055869Y0162736D01*
X0053600Y0160467D01*
X0053600Y0162736D01*
X0054167Y0163303D01*
X0055301Y0163303D01*
X0055869Y0162736D01*
X0057283Y0163303D02*
X0058985Y0163303D01*
X0059552Y0162736D01*
X0059552Y0160467D01*
X0058985Y0159900D01*
X0057283Y0159900D01*
X0057283Y0163303D01*
X0064500Y0167200D02*
X0067000Y0164700D01*
X0072000Y0164700D01*
X0074500Y0167200D01*
X0077000Y0164700D01*
X0082000Y0164700D01*
X0084500Y0167200D01*
X0084500Y0172200D01*
X0082000Y0174700D01*
X0077000Y0174700D01*
X0074500Y0172200D01*
X0074500Y0167200D01*
X0074500Y0172200D01*
X0072000Y0174700D01*
X0067000Y0174700D01*
X0064500Y0172200D01*
X0064500Y0167200D01*
X0067267Y0175800D02*
X0066700Y0176367D01*
X0067267Y0175800D02*
X0068401Y0175800D01*
X0068969Y0176367D01*
X0068969Y0176934D01*
X0068401Y0177501D01*
X0067834Y0177501D01*
X0068401Y0177501D02*
X0068969Y0178069D01*
X0068969Y0178636D01*
X0068401Y0179203D01*
X0067267Y0179203D01*
X0066700Y0178636D01*
X0070383Y0178636D02*
X0070383Y0176367D01*
X0070950Y0175800D01*
X0072085Y0175800D01*
X0072652Y0176367D01*
X0072652Y0178636D02*
X0072085Y0179203D01*
X0070950Y0179203D01*
X0070383Y0178636D01*
X0068900Y0183400D02*
X0068900Y0183967D01*
X0071169Y0186236D01*
X0071169Y0186803D01*
X0068900Y0186803D01*
X0072583Y0186803D02*
X0072583Y0183400D01*
X0074285Y0183400D01*
X0074852Y0183967D01*
X0074852Y0186236D01*
X0074285Y0186803D01*
X0072583Y0186803D01*
X0075300Y0190500D02*
X0076700Y0191900D01*
X0078100Y0190500D01*
X0076700Y0191900D02*
X0076700Y0196900D01*
X0078100Y0198300D01*
X0076700Y0196900D02*
X0075300Y0198300D01*
X0068100Y0198300D02*
X0066700Y0196900D01*
X0066700Y0191900D01*
X0065300Y0190500D01*
X0066700Y0191900D02*
X0068100Y0190500D01*
X0064385Y0186903D02*
X0063250Y0186903D01*
X0062683Y0186336D01*
X0062683Y0184067D01*
X0063250Y0183500D01*
X0064385Y0183500D01*
X0064952Y0184067D01*
X0064952Y0186336D02*
X0064385Y0186903D01*
X0061269Y0186903D02*
X0061269Y0186336D01*
X0059000Y0184067D01*
X0059000Y0183500D01*
X0056735Y0184067D02*
X0056735Y0186336D01*
X0056168Y0186903D01*
X0054466Y0186903D01*
X0054466Y0183500D01*
X0056168Y0183500D01*
X0056735Y0184067D01*
X0059000Y0186903D02*
X0061269Y0186903D01*
X0058100Y0190500D02*
X0056700Y0191900D01*
X0055300Y0190500D01*
X0056700Y0191900D02*
X0056700Y0196900D01*
X0058100Y0198300D01*
X0056700Y0196900D02*
X0055300Y0198300D01*
X0048100Y0198300D02*
X0046700Y0196900D01*
X0046700Y0191900D01*
X0048100Y0190500D01*
X0047667Y0186903D02*
X0047100Y0186336D01*
X0047100Y0184067D01*
X0047667Y0183500D01*
X0048801Y0183500D01*
X0049369Y0184067D01*
X0049369Y0185201D01*
X0048234Y0185201D01*
X0049369Y0186336D02*
X0048801Y0186903D01*
X0047667Y0186903D01*
X0050783Y0186903D02*
X0050783Y0183500D01*
X0053052Y0183500D02*
X0050783Y0186903D01*
X0053052Y0186903D02*
X0053052Y0183500D01*
X0066700Y0196900D02*
X0065300Y0198300D01*
X0077200Y0186803D02*
X0077200Y0184534D01*
X0078334Y0183400D01*
X0079469Y0184534D01*
X0079469Y0186803D01*
X0080883Y0186236D02*
X0080883Y0183967D01*
X0081450Y0183400D01*
X0082585Y0183400D01*
X0083152Y0183967D01*
X0084566Y0183967D02*
X0085133Y0183400D01*
X0086268Y0183400D01*
X0086835Y0183967D01*
X0084566Y0183967D02*
X0084566Y0186236D01*
X0085133Y0186803D01*
X0086268Y0186803D01*
X0086835Y0186236D01*
X0083152Y0186236D02*
X0082585Y0186803D01*
X0081450Y0186803D01*
X0080883Y0186236D01*
X0085300Y0190500D02*
X0086700Y0191900D01*
X0086700Y0196900D01*
X0085300Y0198300D01*
X0089834Y0195703D02*
X0090969Y0195703D01*
X0090401Y0195703D02*
X0090401Y0192867D01*
X0089834Y0192300D01*
X0089267Y0192300D01*
X0088700Y0192867D01*
X0092383Y0192300D02*
X0092383Y0195703D01*
X0094085Y0195703D01*
X0094652Y0195136D01*
X0094652Y0194001D01*
X0094085Y0193434D01*
X0092383Y0193434D01*
X0096066Y0192867D02*
X0096633Y0192300D01*
X0097768Y0192300D01*
X0098335Y0192867D01*
X0096066Y0192867D02*
X0096066Y0195136D01*
X0096633Y0195703D01*
X0097768Y0195703D01*
X0098335Y0195136D01*
X0081885Y0179103D02*
X0082452Y0178536D01*
X0082452Y0176267D01*
X0081885Y0175700D01*
X0080183Y0175700D01*
X0080183Y0179103D01*
X0081885Y0179103D01*
X0078769Y0178536D02*
X0078769Y0177969D01*
X0078201Y0177401D01*
X0078769Y0176834D01*
X0078769Y0176267D01*
X0078201Y0175700D01*
X0077067Y0175700D01*
X0076500Y0176267D01*
X0077634Y0177401D02*
X0078201Y0177401D01*
X0078769Y0178536D02*
X0078201Y0179103D01*
X0077067Y0179103D01*
X0076500Y0178536D01*
X0094800Y0164103D02*
X0094800Y0162401D01*
X0095934Y0162969D01*
X0096501Y0162969D01*
X0097069Y0162401D01*
X0097069Y0161267D01*
X0096501Y0160700D01*
X0095367Y0160700D01*
X0094800Y0161267D01*
X0094800Y0164103D02*
X0097069Y0164103D01*
X0098483Y0163536D02*
X0098483Y0161267D01*
X0099050Y0160700D01*
X0100185Y0160700D01*
X0100752Y0161267D01*
X0101600Y0160000D02*
X0104100Y0157500D01*
X0109100Y0157500D01*
X0111600Y0160000D01*
X0111600Y0165000D01*
X0109100Y0167500D01*
X0104100Y0167500D01*
X0101600Y0165000D01*
X0101600Y0160000D01*
X0100752Y0163536D02*
X0100185Y0164103D01*
X0099050Y0164103D01*
X0098483Y0163536D01*
X0104400Y0157500D02*
X0101900Y0155000D01*
X0101900Y0150000D01*
X0104400Y0147500D01*
X0109400Y0147500D01*
X0111900Y0150000D01*
X0111900Y0155000D01*
X0109400Y0157500D01*
X0104400Y0157500D01*
X0100952Y0153536D02*
X0100385Y0154103D01*
X0098683Y0154103D01*
X0098683Y0150700D01*
X0100385Y0150700D01*
X0100952Y0151267D01*
X0100952Y0153536D01*
X0097269Y0154103D02*
X0095000Y0154103D01*
X0095000Y0152401D01*
X0096134Y0152969D01*
X0096701Y0152969D01*
X0097269Y0152401D01*
X0097269Y0151267D01*
X0096701Y0150700D01*
X0095567Y0150700D01*
X0095000Y0151267D01*
X0095169Y0142837D02*
X0095169Y0139434D01*
X0094035Y0139434D02*
X0096304Y0139434D01*
X0097718Y0139434D02*
X0099987Y0139434D01*
X0098853Y0139434D02*
X0098853Y0142837D01*
X0097718Y0141702D01*
X0095169Y0142837D02*
X0094035Y0141702D01*
X0092621Y0141135D02*
X0092053Y0140568D01*
X0090352Y0140568D01*
X0090352Y0139434D02*
X0090352Y0142837D01*
X0092053Y0142837D01*
X0092621Y0142270D01*
X0092621Y0141135D01*
X0091486Y0140568D02*
X0092621Y0139434D01*
X0083726Y0132102D02*
X0083726Y0131535D01*
X0083159Y0130968D01*
X0082024Y0130968D01*
X0081457Y0131535D01*
X0081457Y0132102D01*
X0082024Y0132669D01*
X0083159Y0132669D01*
X0083726Y0132102D01*
X0083159Y0130968D02*
X0083726Y0130400D01*
X0083726Y0129833D01*
X0083159Y0129266D01*
X0082024Y0129266D01*
X0081457Y0129833D01*
X0081457Y0130400D01*
X0082024Y0130968D01*
X0080043Y0130968D02*
X0079475Y0130400D01*
X0077774Y0130400D01*
X0077774Y0129266D02*
X0077774Y0132669D01*
X0079475Y0132669D01*
X0080043Y0132102D01*
X0080043Y0130968D01*
X0078908Y0130400D02*
X0080043Y0129266D01*
X0071452Y0131201D02*
X0069183Y0131201D01*
X0070885Y0132903D01*
X0070885Y0129500D01*
X0067769Y0129500D02*
X0066634Y0130634D01*
X0067201Y0130634D02*
X0065500Y0130634D01*
X0065500Y0129500D02*
X0065500Y0132903D01*
X0067201Y0132903D01*
X0067769Y0132336D01*
X0067769Y0131201D01*
X0067201Y0130634D01*
X0068700Y0122900D02*
X0070200Y0122900D01*
X0070200Y0121900D01*
X0068700Y0121900D01*
X0057636Y0119366D02*
X0057069Y0119934D01*
X0055934Y0119934D01*
X0055367Y0119366D01*
X0057636Y0119366D02*
X0057636Y0118799D01*
X0055367Y0116531D01*
X0057636Y0116531D01*
X0057700Y0114100D02*
X0057700Y0107700D01*
X0057700Y0105300D01*
X0057700Y0098900D01*
X0057569Y0093636D02*
X0055300Y0091367D01*
X0056434Y0091367D02*
X0056434Y0093636D01*
X0055300Y0093636D02*
X0057569Y0091367D01*
X0057569Y0092501D02*
X0055300Y0092501D01*
X0056104Y0090073D02*
X0056104Y0087237D01*
X0056671Y0086670D01*
X0057805Y0086670D01*
X0058373Y0087237D01*
X0058373Y0090073D01*
X0059787Y0089506D02*
X0059787Y0088939D01*
X0060354Y0088372D01*
X0061489Y0088372D01*
X0062056Y0087804D01*
X0062056Y0087237D01*
X0061489Y0086670D01*
X0060354Y0086670D01*
X0059787Y0087237D01*
X0059787Y0087804D01*
X0060354Y0088372D01*
X0061489Y0088372D02*
X0062056Y0088939D01*
X0062056Y0089506D01*
X0061489Y0090073D01*
X0060354Y0090073D01*
X0059787Y0089506D01*
X0057852Y0083603D02*
X0056717Y0083036D01*
X0055583Y0081901D01*
X0057285Y0081901D01*
X0057852Y0081334D01*
X0057852Y0080767D01*
X0057285Y0080200D01*
X0056150Y0080200D01*
X0055583Y0080767D01*
X0055583Y0081901D01*
X0054169Y0081901D02*
X0054169Y0083036D01*
X0053601Y0083603D01*
X0051900Y0083603D01*
X0051900Y0080200D01*
X0051900Y0081334D02*
X0053601Y0081334D01*
X0054169Y0081901D01*
X0053034Y0081334D02*
X0054169Y0080200D01*
X0065100Y0080200D02*
X0065100Y0083603D01*
X0066801Y0083603D01*
X0067369Y0083036D01*
X0067369Y0081901D01*
X0066801Y0081334D01*
X0065100Y0081334D01*
X0066234Y0081334D02*
X0067369Y0080200D01*
X0068783Y0080200D02*
X0071052Y0082469D01*
X0071052Y0083036D01*
X0070485Y0083603D01*
X0069350Y0083603D01*
X0068783Y0083036D01*
X0068783Y0080200D02*
X0071052Y0080200D01*
X0076900Y0080200D02*
X0076900Y0083603D01*
X0078601Y0083603D01*
X0079169Y0083036D01*
X0079169Y0081901D01*
X0078601Y0081334D01*
X0076900Y0081334D01*
X0078034Y0081334D02*
X0079169Y0080200D01*
X0080583Y0080200D02*
X0082852Y0080200D01*
X0081717Y0080200D02*
X0081717Y0083603D01*
X0080583Y0082469D01*
X0084266Y0083036D02*
X0084266Y0080767D01*
X0086535Y0083036D01*
X0086535Y0080767D01*
X0085968Y0080200D01*
X0084833Y0080200D01*
X0084266Y0080767D01*
X0084266Y0083036D02*
X0084833Y0083603D01*
X0085968Y0083603D01*
X0086535Y0083036D01*
X0089700Y0083603D02*
X0089700Y0080200D01*
X0089700Y0081334D02*
X0091401Y0081334D01*
X0091969Y0081901D01*
X0091969Y0083036D01*
X0091401Y0083603D01*
X0089700Y0083603D01*
X0090834Y0081334D02*
X0091969Y0080200D01*
X0093383Y0080200D02*
X0095652Y0080200D01*
X0094517Y0080200D02*
X0094517Y0083603D01*
X0093383Y0082469D01*
X0097066Y0083036D02*
X0097633Y0083603D01*
X0098768Y0083603D01*
X0099335Y0083036D01*
X0099335Y0082469D01*
X0097066Y0080200D01*
X0099335Y0080200D01*
X0104500Y0066200D02*
X0102000Y0063700D01*
X0102000Y0058700D01*
X0104500Y0056200D01*
X0102000Y0053700D01*
X0102000Y0048700D01*
X0104500Y0046200D01*
X0109500Y0046200D01*
X0112000Y0048700D01*
X0112000Y0053700D01*
X0109500Y0056200D01*
X0104500Y0056200D01*
X0109500Y0056200D01*
X0112000Y0058700D01*
X0112000Y0063700D01*
X0109500Y0066200D01*
X0104500Y0066200D01*
X0101152Y0062436D02*
X0100585Y0063003D01*
X0099450Y0063003D01*
X0098883Y0062436D01*
X0098883Y0060167D01*
X0099450Y0059600D01*
X0100585Y0059600D01*
X0101152Y0060167D01*
X0097469Y0061301D02*
X0095200Y0061301D01*
X0096901Y0063003D01*
X0096901Y0059600D01*
X0096801Y0052703D02*
X0095100Y0051001D01*
X0097369Y0051001D01*
X0096801Y0049300D02*
X0096801Y0052703D01*
X0098783Y0052703D02*
X0100485Y0052703D01*
X0101052Y0052136D01*
X0101052Y0049867D01*
X0100485Y0049300D01*
X0098783Y0049300D01*
X0098783Y0052703D01*
X0087952Y0062467D02*
X0087952Y0064736D01*
X0087385Y0065303D01*
X0086250Y0065303D01*
X0085683Y0064736D01*
X0085683Y0064169D01*
X0086250Y0063601D01*
X0087952Y0063601D01*
X0087952Y0062467D02*
X0087385Y0061900D01*
X0086250Y0061900D01*
X0085683Y0062467D01*
X0084269Y0061900D02*
X0083134Y0063034D01*
X0083701Y0063034D02*
X0082000Y0063034D01*
X0082000Y0061900D02*
X0082000Y0065303D01*
X0083701Y0065303D01*
X0084269Y0064736D01*
X0084269Y0063601D01*
X0083701Y0063034D01*
X0074652Y0061900D02*
X0072383Y0061900D01*
X0073517Y0061900D02*
X0073517Y0065303D01*
X0072383Y0064169D01*
X0070969Y0064736D02*
X0070401Y0065303D01*
X0068700Y0065303D01*
X0068700Y0061900D01*
X0068700Y0063034D02*
X0070401Y0063034D01*
X0070969Y0063601D01*
X0070969Y0064736D01*
X0069834Y0063034D02*
X0070969Y0061900D01*
X0071785Y0053603D02*
X0070083Y0053603D01*
X0070083Y0050200D01*
X0071785Y0050200D01*
X0072352Y0050767D01*
X0072352Y0053036D01*
X0071785Y0053603D01*
X0067534Y0053603D02*
X0067534Y0050200D01*
X0066400Y0050200D02*
X0068669Y0050200D01*
X0067000Y0049000D02*
X0064500Y0046500D01*
X0064500Y0041500D01*
X0067000Y0039000D01*
X0072000Y0039000D01*
X0074500Y0041500D01*
X0074500Y0046500D01*
X0072000Y0049000D01*
X0067000Y0049000D01*
X0066400Y0052469D02*
X0067534Y0053603D01*
X0061500Y0046500D02*
X0061500Y0041500D01*
X0059000Y0039000D01*
X0054000Y0039000D01*
X0051500Y0041500D01*
X0049000Y0039000D01*
X0044000Y0039000D01*
X0041500Y0041500D01*
X0041500Y0046500D01*
X0044000Y0049000D01*
X0049000Y0049000D01*
X0051500Y0046500D01*
X0051500Y0041500D01*
X0051500Y0046500D01*
X0054000Y0049000D01*
X0059000Y0049000D01*
X0061500Y0046500D01*
X0059085Y0037603D02*
X0057950Y0037603D01*
X0057383Y0037036D01*
X0057383Y0034767D01*
X0057950Y0034200D01*
X0059085Y0034200D01*
X0059652Y0034767D01*
X0059652Y0037036D02*
X0059085Y0037603D01*
X0055969Y0037036D02*
X0055401Y0037603D01*
X0054267Y0037603D01*
X0053700Y0037036D01*
X0055969Y0037036D02*
X0055969Y0036469D01*
X0053700Y0034200D01*
X0055969Y0034200D01*
X0049652Y0034867D02*
X0049652Y0037136D01*
X0049085Y0037703D01*
X0047383Y0037703D01*
X0047383Y0034300D01*
X0049085Y0034300D01*
X0049652Y0034867D01*
X0045969Y0034300D02*
X0043700Y0034300D01*
X0045969Y0036569D01*
X0045969Y0037136D01*
X0045401Y0037703D01*
X0044267Y0037703D01*
X0043700Y0037136D01*
X0048434Y0015103D02*
X0048434Y0011700D01*
X0047300Y0011700D02*
X0049569Y0011700D01*
X0050983Y0012267D02*
X0050983Y0013401D01*
X0052685Y0013401D01*
X0053252Y0012834D01*
X0053252Y0012267D01*
X0052685Y0011700D01*
X0051550Y0011700D01*
X0050983Y0012267D01*
X0050983Y0013401D02*
X0052117Y0014536D01*
X0053252Y0015103D01*
X0054666Y0012267D02*
X0055233Y0012267D01*
X0055233Y0011700D01*
X0054666Y0011700D01*
X0054666Y0012267D01*
X0056508Y0012267D02*
X0056508Y0014536D01*
X0057075Y0015103D01*
X0058209Y0015103D01*
X0058776Y0014536D01*
X0056508Y0012267D01*
X0057075Y0011700D01*
X0058209Y0011700D01*
X0058776Y0012267D01*
X0058776Y0014536D01*
X0060191Y0015103D02*
X0060191Y0013401D01*
X0061325Y0013969D01*
X0061892Y0013969D01*
X0062460Y0013401D01*
X0062460Y0012267D01*
X0061892Y0011700D01*
X0060758Y0011700D01*
X0060191Y0012267D01*
X0060191Y0015103D02*
X0062460Y0015103D01*
X0063874Y0012267D02*
X0064441Y0012267D01*
X0064441Y0011700D01*
X0063874Y0011700D01*
X0063874Y0012267D01*
X0065716Y0012267D02*
X0065716Y0014536D01*
X0066283Y0015103D01*
X0067417Y0015103D01*
X0067984Y0014536D01*
X0065716Y0012267D01*
X0066283Y0011700D01*
X0067417Y0011700D01*
X0067984Y0012267D01*
X0067984Y0014536D01*
X0069399Y0014536D02*
X0069399Y0013969D01*
X0069966Y0013401D01*
X0071667Y0013401D01*
X0071667Y0012267D02*
X0071667Y0014536D01*
X0071100Y0015103D01*
X0069966Y0015103D01*
X0069399Y0014536D01*
X0069399Y0012267D02*
X0069966Y0011700D01*
X0071100Y0011700D01*
X0071667Y0012267D01*
X0073082Y0012267D02*
X0073649Y0012267D01*
X0073649Y0011700D01*
X0073082Y0011700D01*
X0073082Y0012267D01*
X0074924Y0011700D02*
X0074924Y0013969D01*
X0076058Y0015103D01*
X0077192Y0013969D01*
X0077192Y0011700D01*
X0077192Y0013401D02*
X0074924Y0013401D01*
X0083000Y0017767D02*
X0083567Y0017200D01*
X0084701Y0017200D01*
X0085269Y0017767D01*
X0085269Y0018901D01*
X0084134Y0018901D01*
X0083000Y0017767D02*
X0083000Y0020036D01*
X0083567Y0020603D01*
X0084701Y0020603D01*
X0085269Y0020036D01*
X0086683Y0020603D02*
X0088952Y0017200D01*
X0088952Y0020603D01*
X0090366Y0020603D02*
X0090366Y0017200D01*
X0092068Y0017200D01*
X0092635Y0017767D01*
X0092635Y0020036D01*
X0092068Y0020603D01*
X0090366Y0020603D01*
X0086683Y0020603D02*
X0086683Y0017200D01*
X0094500Y0016400D02*
X0095800Y0015100D01*
X0094500Y0016400D02*
X0094500Y0021400D01*
X0095800Y0022700D01*
X0103200Y0022700D02*
X0104500Y0021400D01*
X0105800Y0022700D01*
X0104500Y0021400D02*
X0104500Y0016400D01*
X0105800Y0015100D01*
X0104500Y0016400D02*
X0103200Y0015100D01*
X0113200Y0015200D02*
X0114500Y0016400D01*
X0115800Y0015100D01*
X0114500Y0016400D02*
X0114500Y0021400D01*
X0115800Y0022600D01*
X0114500Y0021400D02*
X0113200Y0022700D01*
X0123200Y0022800D02*
X0124500Y0021400D01*
X0124500Y0016400D01*
X0123200Y0015100D01*
X0133000Y0017867D02*
X0133567Y0017300D01*
X0134134Y0017300D01*
X0134701Y0017867D01*
X0134701Y0020703D01*
X0134134Y0020703D02*
X0135269Y0020703D01*
X0136683Y0020703D02*
X0138385Y0020703D01*
X0138952Y0020136D01*
X0138952Y0019001D01*
X0138385Y0018434D01*
X0136683Y0018434D01*
X0136683Y0017300D02*
X0136683Y0020703D01*
X0140366Y0019569D02*
X0140366Y0017300D01*
X0140366Y0019001D02*
X0142635Y0019001D01*
X0142635Y0019569D02*
X0142635Y0017300D01*
X0144100Y0016400D02*
X0145400Y0015100D01*
X0144100Y0016400D02*
X0144100Y0021400D01*
X0145400Y0022700D01*
X0142635Y0019569D02*
X0141501Y0020703D01*
X0140366Y0019569D01*
X0152800Y0022700D02*
X0154100Y0021400D01*
X0155400Y0022700D01*
X0154100Y0021400D02*
X0154100Y0016400D01*
X0155400Y0015100D01*
X0154100Y0016400D02*
X0152800Y0015100D01*
X0162800Y0015200D02*
X0164100Y0016400D01*
X0165400Y0015100D01*
X0164100Y0016400D02*
X0164100Y0021400D01*
X0165400Y0022600D01*
X0164100Y0021400D02*
X0162800Y0022700D01*
X0172800Y0022800D02*
X0174100Y0021400D01*
X0174100Y0016400D01*
X0172800Y0015100D01*
X0168680Y0053733D02*
X0166411Y0053733D01*
X0167546Y0053733D02*
X0167546Y0057136D01*
X0166411Y0056002D01*
X0164997Y0056569D02*
X0164430Y0057136D01*
X0163295Y0057136D01*
X0162728Y0056569D01*
X0162728Y0054300D01*
X0163295Y0053733D01*
X0164430Y0053733D01*
X0164997Y0054300D01*
X0171856Y0062467D02*
X0174125Y0064736D01*
X0172991Y0064736D02*
X0172991Y0062467D01*
X0174125Y0062467D02*
X0171856Y0064736D01*
X0171856Y0063601D02*
X0174125Y0063601D01*
X0177942Y0060279D02*
X0177942Y0057444D01*
X0178509Y0056876D01*
X0179643Y0056876D01*
X0180210Y0057444D01*
X0180210Y0060279D01*
X0181625Y0059712D02*
X0182192Y0060279D01*
X0183326Y0060279D01*
X0183893Y0059712D01*
X0183893Y0059145D01*
X0181625Y0056876D01*
X0183893Y0056876D01*
X0190676Y0057569D02*
X0190676Y0055300D01*
X0191244Y0054733D01*
X0192378Y0054733D01*
X0192945Y0055300D01*
X0194360Y0055300D02*
X0194927Y0054733D01*
X0196061Y0054733D01*
X0196628Y0055300D01*
X0196628Y0055867D01*
X0196061Y0056435D01*
X0195494Y0056435D01*
X0196061Y0056435D02*
X0196628Y0057002D01*
X0196628Y0057569D01*
X0196061Y0058136D01*
X0194927Y0058136D01*
X0194360Y0057569D01*
X0192945Y0057569D02*
X0192378Y0058136D01*
X0191244Y0058136D01*
X0190676Y0057569D01*
X0199656Y0062467D02*
X0201925Y0064736D01*
X0200791Y0064736D02*
X0200791Y0062467D01*
X0201925Y0062467D02*
X0199656Y0064736D01*
X0199656Y0063601D02*
X0201925Y0063601D01*
X0155893Y0056976D02*
X0153625Y0056976D01*
X0154759Y0056976D02*
X0154759Y0060379D01*
X0153625Y0059245D01*
X0152210Y0060379D02*
X0152210Y0057544D01*
X0151643Y0056976D01*
X0150509Y0056976D01*
X0149942Y0057544D01*
X0149942Y0060379D01*
X0139935Y0058244D02*
X0137666Y0058244D01*
X0137666Y0056542D01*
X0138801Y0057110D01*
X0139368Y0057110D01*
X0139935Y0056542D01*
X0139935Y0055408D01*
X0139368Y0054841D01*
X0138234Y0054841D01*
X0137666Y0055408D01*
X0136252Y0055408D02*
X0135685Y0054841D01*
X0134550Y0054841D01*
X0133983Y0055408D01*
X0133983Y0057677D01*
X0134550Y0058244D01*
X0135685Y0058244D01*
X0136252Y0057677D01*
X0127390Y0057507D02*
X0126822Y0056940D01*
X0125688Y0056940D01*
X0125121Y0057507D01*
X0125121Y0058642D02*
X0126255Y0059209D01*
X0126822Y0059209D01*
X0127390Y0058642D01*
X0127390Y0057507D01*
X0125121Y0058642D02*
X0125121Y0060343D01*
X0127390Y0060343D01*
X0123706Y0060343D02*
X0123706Y0057507D01*
X0123139Y0056940D01*
X0122005Y0056940D01*
X0121438Y0057507D01*
X0121438Y0060343D01*
X0128251Y0065593D02*
X0130519Y0067862D01*
X0129385Y0067862D02*
X0129385Y0065593D01*
X0130519Y0065593D02*
X0128251Y0067862D01*
X0128251Y0066727D02*
X0130519Y0066727D01*
X0109500Y0096900D02*
X0104500Y0096900D01*
X0102000Y0099400D01*
X0102000Y0104400D01*
X0104500Y0106900D01*
X0109500Y0106900D01*
X0112000Y0109400D01*
X0112000Y0114400D01*
X0109500Y0116900D01*
X0104500Y0116900D01*
X0102000Y0114400D01*
X0102000Y0109400D01*
X0104500Y0106900D01*
X0109500Y0106900D01*
X0112000Y0104400D01*
X0112000Y0099400D01*
X0109500Y0096900D01*
X0113600Y0100867D02*
X0113600Y0102001D01*
X0115301Y0102001D01*
X0115869Y0101434D01*
X0115869Y0100867D01*
X0115301Y0100300D01*
X0114167Y0100300D01*
X0113600Y0100867D01*
X0113600Y0102001D02*
X0114734Y0103136D01*
X0115869Y0103703D01*
X0117283Y0103703D02*
X0118985Y0103703D01*
X0119552Y0103136D01*
X0119552Y0100867D01*
X0118985Y0100300D01*
X0117283Y0100300D01*
X0117283Y0103703D01*
X0117950Y0110600D02*
X0119085Y0110600D01*
X0119652Y0111167D01*
X0117950Y0110600D02*
X0117383Y0111167D01*
X0117383Y0113436D01*
X0117950Y0114003D01*
X0119085Y0114003D01*
X0119652Y0113436D01*
X0115969Y0114003D02*
X0114834Y0113436D01*
X0113700Y0112301D01*
X0115401Y0112301D01*
X0115969Y0111734D01*
X0115969Y0111167D01*
X0115401Y0110600D01*
X0114267Y0110600D01*
X0113700Y0111167D01*
X0113700Y0112301D01*
X0101300Y0111677D02*
X0101300Y0109408D01*
X0099031Y0111677D01*
X0098464Y0111677D01*
X0097897Y0111110D01*
X0097897Y0109975D01*
X0098464Y0109408D01*
X0099031Y0107994D02*
X0101300Y0107994D01*
X0099599Y0107994D02*
X0099599Y0105725D01*
X0099031Y0105725D02*
X0097897Y0106859D01*
X0099031Y0107994D01*
X0099031Y0105725D02*
X0101300Y0105725D01*
X0095400Y0105725D02*
X0093131Y0105725D01*
X0091997Y0106859D01*
X0093131Y0107994D01*
X0095400Y0107994D01*
X0095400Y0109408D02*
X0093131Y0111677D01*
X0092564Y0111677D01*
X0091997Y0111110D01*
X0091997Y0109975D01*
X0092564Y0109408D01*
X0093699Y0107994D02*
X0093699Y0105725D01*
X0095400Y0109408D02*
X0095400Y0111677D01*
X0095400Y0113091D02*
X0095400Y0115360D01*
X0095400Y0114226D02*
X0091997Y0114226D01*
X0093131Y0113091D01*
X0088900Y0114100D02*
X0088900Y0098900D01*
X0083000Y0091100D02*
X0081500Y0091100D01*
X0081500Y0090100D02*
X0083000Y0090100D01*
X0083000Y0091100D01*
X0098464Y0113091D02*
X0097897Y0113659D01*
X0097897Y0114793D01*
X0098464Y0115360D01*
X0100733Y0113091D01*
X0101300Y0113659D01*
X0101300Y0114793D01*
X0100733Y0115360D01*
X0098464Y0115360D01*
X0098464Y0113091D02*
X0100733Y0113091D01*
X0101166Y0125900D02*
X0101166Y0126467D01*
X0101166Y0127601D02*
X0101166Y0129870D01*
X0099752Y0128736D02*
X0099752Y0127601D01*
X0099185Y0127034D01*
X0097483Y0127034D01*
X0097483Y0125900D02*
X0097483Y0129303D01*
X0099185Y0129303D01*
X0099752Y0128736D01*
X0098617Y0127034D02*
X0099752Y0125900D01*
X0096069Y0126467D02*
X0096069Y0128736D01*
X0095501Y0129303D01*
X0094367Y0129303D01*
X0093800Y0128736D01*
X0093800Y0126467D01*
X0094367Y0125900D01*
X0095501Y0125900D01*
X0096069Y0126467D01*
X0079194Y0147400D02*
X0079194Y0147967D01*
X0081463Y0150236D01*
X0081463Y0150803D01*
X0079194Y0150803D01*
X0077780Y0150236D02*
X0077780Y0149101D01*
X0077212Y0148534D01*
X0075511Y0148534D01*
X0075511Y0147400D02*
X0075511Y0150803D01*
X0077212Y0150803D01*
X0077780Y0150236D01*
X0076645Y0148534D02*
X0077780Y0147400D01*
X0067804Y0148101D02*
X0067237Y0147534D01*
X0066102Y0147534D01*
X0065535Y0148101D01*
X0064121Y0147534D02*
X0062986Y0148668D01*
X0063553Y0148668D02*
X0061852Y0148668D01*
X0061852Y0147534D02*
X0061852Y0150937D01*
X0063553Y0150937D01*
X0064121Y0150370D01*
X0064121Y0149235D01*
X0063553Y0148668D01*
X0065535Y0150370D02*
X0066102Y0150937D01*
X0067237Y0150937D01*
X0067804Y0150370D01*
X0067804Y0149802D01*
X0067237Y0149235D01*
X0067804Y0148668D01*
X0067804Y0148101D01*
X0067237Y0149235D02*
X0066669Y0149235D01*
X0057335Y0145636D02*
X0057335Y0145069D01*
X0056768Y0144501D01*
X0057335Y0143934D01*
X0057335Y0143367D01*
X0056768Y0142800D01*
X0055633Y0142800D01*
X0055066Y0143367D01*
X0053652Y0142800D02*
X0051383Y0142800D01*
X0052517Y0142800D02*
X0052517Y0146203D01*
X0051383Y0145069D01*
X0049969Y0145636D02*
X0049969Y0144501D01*
X0049401Y0143934D01*
X0047700Y0143934D01*
X0047700Y0142800D02*
X0047700Y0146203D01*
X0049401Y0146203D01*
X0049969Y0145636D01*
X0048834Y0143934D02*
X0049969Y0142800D01*
X0049401Y0136996D02*
X0047700Y0136996D01*
X0047700Y0133593D01*
X0047700Y0134727D02*
X0049401Y0134727D01*
X0049969Y0135294D01*
X0049969Y0136429D01*
X0049401Y0136996D01*
X0051383Y0135862D02*
X0052517Y0136996D01*
X0052517Y0133593D01*
X0051383Y0133593D02*
X0053652Y0133593D01*
X0055066Y0135294D02*
X0057335Y0135294D01*
X0056768Y0133593D02*
X0056768Y0136996D01*
X0055066Y0135294D01*
X0049969Y0133593D02*
X0048834Y0134727D01*
X0049401Y0127503D02*
X0047700Y0127503D01*
X0047700Y0124100D01*
X0047700Y0125234D02*
X0049401Y0125234D01*
X0049969Y0125801D01*
X0049969Y0126936D01*
X0049401Y0127503D01*
X0051383Y0126369D02*
X0052517Y0127503D01*
X0052517Y0124100D01*
X0051383Y0124100D02*
X0053652Y0124100D01*
X0055066Y0124667D02*
X0055633Y0124100D01*
X0056768Y0124100D01*
X0057335Y0124667D01*
X0057335Y0125801D01*
X0056768Y0126369D01*
X0056201Y0126369D01*
X0055066Y0125801D01*
X0055066Y0127503D01*
X0057335Y0127503D01*
X0049969Y0124100D02*
X0048834Y0125234D01*
X0048568Y0119934D02*
X0048001Y0119366D01*
X0048001Y0117098D01*
X0048568Y0116531D01*
X0049702Y0116531D01*
X0050269Y0117098D01*
X0051684Y0116531D02*
X0053953Y0116531D01*
X0052818Y0116531D02*
X0052818Y0119934D01*
X0051684Y0118799D01*
X0050269Y0119366D02*
X0049702Y0119934D01*
X0048568Y0119934D01*
X0056201Y0144501D02*
X0056768Y0144501D01*
X0057335Y0145636D02*
X0056768Y0146203D01*
X0055633Y0146203D01*
X0055066Y0145636D01*
X0015433Y0105269D02*
X0014866Y0105269D01*
X0014299Y0104701D01*
X0014299Y0103000D01*
X0015433Y0103000D01*
X0016000Y0103567D01*
X0016000Y0104701D01*
X0015433Y0105269D01*
X0014299Y0103000D02*
X0013164Y0104134D01*
X0012597Y0105269D01*
X0055400Y0065303D02*
X0057101Y0065303D01*
X0057669Y0064736D01*
X0057669Y0063601D01*
X0057101Y0063034D01*
X0055400Y0063034D01*
X0055400Y0061900D02*
X0055400Y0065303D01*
X0056534Y0063034D02*
X0057669Y0061900D01*
X0059083Y0062467D02*
X0059650Y0061900D01*
X0060785Y0061900D01*
X0061352Y0062467D01*
X0061352Y0063601D01*
X0060785Y0064169D01*
X0060217Y0064169D01*
X0059083Y0063601D01*
X0059083Y0065303D01*
X0061352Y0065303D01*
X0076600Y0052369D02*
X0077734Y0053503D01*
X0077734Y0050100D01*
X0076600Y0050100D02*
X0078869Y0050100D01*
X0080283Y0050667D02*
X0080850Y0050100D01*
X0081985Y0050100D01*
X0082552Y0050667D01*
X0082000Y0049000D02*
X0084500Y0046500D01*
X0084500Y0041500D01*
X0082000Y0039000D01*
X0077000Y0039000D01*
X0074500Y0041500D01*
X0074500Y0046500D01*
X0077000Y0049000D01*
X0082000Y0049000D01*
X0080283Y0050667D02*
X0080283Y0052936D01*
X0080850Y0053503D01*
X0081985Y0053503D01*
X0082552Y0052936D01*
X0048434Y0015103D02*
X0047300Y0013969D01*
X0128905Y0114050D02*
X0131174Y0114050D01*
X0131741Y0114618D01*
X0131741Y0115752D01*
X0131174Y0116319D01*
X0131174Y0117734D02*
X0131741Y0118301D01*
X0131741Y0119435D01*
X0131174Y0120002D01*
X0128905Y0120002D01*
X0128338Y0119435D01*
X0128338Y0118301D01*
X0128905Y0117734D01*
X0129472Y0117734D01*
X0130039Y0118301D01*
X0130039Y0120002D01*
X0128905Y0116319D02*
X0128338Y0115752D01*
X0128338Y0114618D01*
X0128905Y0114050D01*
X0135920Y0118397D02*
X0138189Y0120666D01*
X0137055Y0120666D02*
X0137055Y0118397D01*
X0138189Y0118397D02*
X0135920Y0120666D01*
X0135920Y0119531D02*
X0138189Y0119531D01*
X0146531Y0123352D02*
X0147098Y0122785D01*
X0148232Y0122785D01*
X0148799Y0123352D01*
X0148799Y0126188D01*
X0150214Y0126188D02*
X0152482Y0126188D01*
X0152482Y0125621D01*
X0150214Y0123352D01*
X0150214Y0122785D01*
X0146531Y0123352D02*
X0146531Y0126188D01*
X0145835Y0146441D02*
X0143566Y0148710D01*
X0144700Y0148710D02*
X0144700Y0146441D01*
X0143566Y0146441D02*
X0145835Y0148710D01*
X0145835Y0147575D02*
X0143566Y0147575D01*
X0139134Y0154159D02*
X0139134Y0154726D01*
X0141402Y0156995D01*
X0141402Y0157562D01*
X0139134Y0157562D01*
X0137719Y0156995D02*
X0137152Y0157562D01*
X0136018Y0157562D01*
X0135450Y0156995D01*
X0135450Y0154726D01*
X0136018Y0154159D01*
X0137152Y0154159D01*
X0137719Y0154726D01*
X0128327Y0156105D02*
X0126058Y0156105D01*
X0127759Y0157806D01*
X0127759Y0154403D01*
X0124643Y0154970D02*
X0124643Y0157806D01*
X0122375Y0157806D02*
X0122375Y0154970D01*
X0122942Y0154403D01*
X0124076Y0154403D01*
X0124643Y0154970D01*
X0149542Y0154944D02*
X0150109Y0154376D01*
X0151243Y0154376D01*
X0151810Y0154944D01*
X0151810Y0157779D01*
X0153225Y0157212D02*
X0153792Y0157779D01*
X0154926Y0157779D01*
X0155493Y0157212D01*
X0155493Y0156645D01*
X0154926Y0156078D01*
X0155493Y0155511D01*
X0155493Y0154944D01*
X0154926Y0154376D01*
X0153792Y0154376D01*
X0153225Y0154944D01*
X0154359Y0156078D02*
X0154926Y0156078D01*
X0155461Y0151736D02*
X0157729Y0149467D01*
X0156595Y0149467D02*
X0156595Y0151736D01*
X0157729Y0151736D02*
X0155461Y0149467D01*
X0155461Y0150601D02*
X0157729Y0150601D01*
X0162718Y0156059D02*
X0163852Y0156059D01*
X0164419Y0156626D01*
X0162718Y0156059D02*
X0162150Y0156626D01*
X0162150Y0158895D01*
X0162718Y0159462D01*
X0163852Y0159462D01*
X0164419Y0158895D01*
X0165834Y0157761D02*
X0168102Y0157761D01*
X0167535Y0156059D02*
X0167535Y0159462D01*
X0165834Y0157761D01*
X0177242Y0157979D02*
X0177242Y0155144D01*
X0177809Y0154576D01*
X0178943Y0154576D01*
X0179510Y0155144D01*
X0179510Y0157979D01*
X0180925Y0157412D02*
X0181492Y0157979D01*
X0182626Y0157979D01*
X0183193Y0157412D01*
X0180925Y0155144D01*
X0181492Y0154576D01*
X0182626Y0154576D01*
X0183193Y0155144D01*
X0183193Y0157412D01*
X0180925Y0157412D02*
X0180925Y0155144D01*
X0183161Y0151636D02*
X0185429Y0149367D01*
X0184295Y0149367D02*
X0184295Y0151636D01*
X0185429Y0151636D02*
X0183161Y0149367D01*
X0183161Y0150501D02*
X0185429Y0150501D01*
X0190618Y0155959D02*
X0191752Y0155959D01*
X0192319Y0156526D01*
X0193734Y0155959D02*
X0196002Y0158228D01*
X0196002Y0158795D01*
X0195435Y0159362D01*
X0194301Y0159362D01*
X0193734Y0158795D01*
X0192319Y0158795D02*
X0191752Y0159362D01*
X0190618Y0159362D01*
X0190050Y0158795D01*
X0190050Y0156526D01*
X0190618Y0155959D01*
X0193734Y0155959D02*
X0196002Y0155959D01*
X0194922Y0126349D02*
X0193788Y0125782D01*
X0192653Y0124648D01*
X0194355Y0124648D01*
X0194922Y0124081D01*
X0194922Y0123514D01*
X0194355Y0122946D01*
X0193220Y0122946D01*
X0192653Y0123514D01*
X0192653Y0124648D01*
X0191239Y0123514D02*
X0190672Y0122946D01*
X0189537Y0122946D01*
X0188970Y0123514D01*
X0188970Y0126349D01*
X0191239Y0126349D02*
X0191239Y0123514D01*
X0180889Y0120666D02*
X0178620Y0118397D01*
X0178620Y0119531D02*
X0180889Y0119531D01*
X0180889Y0118397D02*
X0178620Y0120666D01*
X0179755Y0120666D02*
X0179755Y0118397D01*
X0174341Y0118368D02*
X0170938Y0118368D01*
X0172072Y0117234D01*
X0171505Y0115819D02*
X0170938Y0115252D01*
X0170938Y0114118D01*
X0171505Y0113550D01*
X0173774Y0113550D01*
X0174341Y0114118D01*
X0174341Y0115252D01*
X0173774Y0115819D01*
X0174341Y0117234D02*
X0174341Y0119502D01*
X0173774Y0120917D02*
X0171505Y0123185D01*
X0173774Y0123185D01*
X0174341Y0122618D01*
X0174341Y0121484D01*
X0173774Y0120917D01*
X0171505Y0120917D01*
X0170938Y0121484D01*
X0170938Y0122618D01*
X0171505Y0123185D01*
X0149542Y0154944D02*
X0149542Y0157779D01*
X0152800Y0190600D02*
X0154100Y0191900D01*
X0155400Y0190600D01*
X0154100Y0191900D02*
X0154100Y0196900D01*
X0155400Y0198200D01*
X0154100Y0196900D02*
X0152800Y0198200D01*
X0145400Y0198200D02*
X0144100Y0196900D01*
X0144100Y0191900D01*
X0145400Y0190600D01*
X0142735Y0193167D02*
X0142168Y0192600D01*
X0140466Y0192600D01*
X0140466Y0196003D01*
X0142168Y0196003D01*
X0142735Y0195436D01*
X0142735Y0194869D01*
X0142168Y0194301D01*
X0140466Y0194301D01*
X0139052Y0194301D02*
X0138485Y0193734D01*
X0136783Y0193734D01*
X0136783Y0192600D02*
X0136783Y0196003D01*
X0138485Y0196003D01*
X0139052Y0195436D01*
X0139052Y0194301D01*
X0142168Y0194301D02*
X0142735Y0193734D01*
X0142735Y0193167D01*
X0135369Y0196003D02*
X0134234Y0196003D01*
X0134801Y0196003D02*
X0134801Y0193167D01*
X0134234Y0192600D01*
X0133667Y0192600D01*
X0133100Y0193167D01*
X0162800Y0190700D02*
X0164100Y0191900D01*
X0165400Y0190600D01*
X0164100Y0191900D02*
X0164100Y0196900D01*
X0165400Y0198100D01*
X0164100Y0196900D02*
X0162800Y0198200D01*
X0172800Y0198300D02*
X0174100Y0196900D01*
X0174100Y0191900D01*
X0172800Y0190600D01*
D11*
X0061803Y0025506D02*
X0057266Y0025506D01*
X0057266Y0022103D01*
X0059535Y0023237D01*
X0060669Y0023237D01*
X0061803Y0022103D01*
X0061803Y0019834D01*
X0060669Y0018700D01*
X0058401Y0018700D01*
X0057266Y0019834D01*
X0054437Y0018700D02*
X0049900Y0018700D01*
X0054437Y0023237D01*
X0054437Y0024372D01*
X0053303Y0025506D01*
X0051034Y0025506D01*
X0049900Y0024372D01*
D12*
X0065100Y0024485D02*
X0071700Y0024485D01*
X0071700Y0025300D02*
X0071700Y0018900D01*
X0065100Y0018900D01*
X0065100Y0025300D01*
X0071700Y0025300D01*
X0071700Y0022887D02*
X0065100Y0022887D01*
X0065100Y0021288D02*
X0071700Y0021288D01*
X0071700Y0019690D02*
X0065100Y0019690D01*
D13*
X0135179Y0066679D02*
X0139821Y0066679D01*
X0139821Y0076521D02*
X0135179Y0076521D01*
X0139557Y0092195D02*
X0139557Y0096998D01*
X0143494Y0101979D02*
X0143494Y0118120D01*
X0155306Y0118120D01*
X0155306Y0101979D01*
X0159243Y0096998D02*
X0159243Y0092195D01*
X0139557Y0092195D01*
X0143494Y0101979D02*
X0143496Y0101827D01*
X0143502Y0101675D01*
X0143512Y0101523D01*
X0143525Y0101372D01*
X0143543Y0101221D01*
X0143564Y0101070D01*
X0143590Y0100920D01*
X0143619Y0100771D01*
X0143652Y0100622D01*
X0143689Y0100475D01*
X0143729Y0100328D01*
X0143774Y0100183D01*
X0143822Y0100039D01*
X0143874Y0099896D01*
X0143929Y0099754D01*
X0143988Y0099614D01*
X0144051Y0099475D01*
X0144117Y0099338D01*
X0144187Y0099203D01*
X0144260Y0099070D01*
X0144337Y0098939D01*
X0144417Y0098809D01*
X0144500Y0098682D01*
X0144586Y0098557D01*
X0144676Y0098434D01*
X0144769Y0098314D01*
X0144865Y0098196D01*
X0144964Y0098080D01*
X0145066Y0097967D01*
X0145170Y0097857D01*
X0145278Y0097749D01*
X0145388Y0097645D01*
X0145501Y0097543D01*
X0145617Y0097444D01*
X0145735Y0097348D01*
X0145855Y0097255D01*
X0145978Y0097165D01*
X0146103Y0097079D01*
X0146230Y0096996D01*
X0146360Y0096916D01*
X0146491Y0096839D01*
X0146624Y0096766D01*
X0146759Y0096696D01*
X0146896Y0096630D01*
X0147035Y0096567D01*
X0147175Y0096508D01*
X0147317Y0096453D01*
X0147460Y0096401D01*
X0147604Y0096353D01*
X0147749Y0096308D01*
X0147896Y0096268D01*
X0148043Y0096231D01*
X0148192Y0096198D01*
X0148341Y0096169D01*
X0148491Y0096143D01*
X0148642Y0096122D01*
X0148793Y0096104D01*
X0148944Y0096091D01*
X0149096Y0096081D01*
X0149248Y0096075D01*
X0149400Y0096073D01*
X0149552Y0096075D01*
X0149704Y0096081D01*
X0149856Y0096091D01*
X0150007Y0096104D01*
X0150158Y0096122D01*
X0150309Y0096143D01*
X0150459Y0096169D01*
X0150608Y0096198D01*
X0150757Y0096231D01*
X0150904Y0096268D01*
X0151051Y0096308D01*
X0151196Y0096353D01*
X0151340Y0096401D01*
X0151483Y0096453D01*
X0151625Y0096508D01*
X0151765Y0096567D01*
X0151904Y0096630D01*
X0152041Y0096696D01*
X0152176Y0096766D01*
X0152309Y0096839D01*
X0152440Y0096916D01*
X0152570Y0096996D01*
X0152697Y0097079D01*
X0152822Y0097165D01*
X0152945Y0097255D01*
X0153065Y0097348D01*
X0153183Y0097444D01*
X0153299Y0097543D01*
X0153412Y0097645D01*
X0153522Y0097749D01*
X0153630Y0097857D01*
X0153734Y0097967D01*
X0153836Y0098080D01*
X0153935Y0098196D01*
X0154031Y0098314D01*
X0154124Y0098434D01*
X0154214Y0098557D01*
X0154300Y0098682D01*
X0154383Y0098809D01*
X0154463Y0098939D01*
X0154540Y0099070D01*
X0154613Y0099203D01*
X0154683Y0099338D01*
X0154749Y0099475D01*
X0154812Y0099614D01*
X0154871Y0099754D01*
X0154926Y0099896D01*
X0154978Y0100039D01*
X0155026Y0100183D01*
X0155071Y0100328D01*
X0155111Y0100475D01*
X0155148Y0100622D01*
X0155181Y0100771D01*
X0155210Y0100920D01*
X0155236Y0101070D01*
X0155257Y0101221D01*
X0155275Y0101372D01*
X0155288Y0101523D01*
X0155298Y0101675D01*
X0155304Y0101827D01*
X0155306Y0101979D01*
X0159243Y0116939D02*
X0159243Y0121605D01*
X0139557Y0121605D01*
X0139557Y0116939D01*
X0139721Y0137779D02*
X0135079Y0137779D01*
X0135079Y0147621D02*
X0139721Y0147621D01*
X0159294Y0149112D02*
X0159294Y0149506D01*
X0171106Y0149506D01*
X0171106Y0149112D01*
X0171106Y0145962D02*
X0171106Y0145175D01*
X0171106Y0142025D02*
X0171106Y0141238D01*
X0171106Y0138088D02*
X0171106Y0137694D01*
X0159294Y0137694D01*
X0159294Y0138088D01*
X0159294Y0141238D02*
X0159294Y0142025D01*
X0159294Y0145175D02*
X0159294Y0145962D01*
X0182257Y0121605D02*
X0182257Y0116939D01*
X0186194Y0118120D02*
X0186194Y0101979D01*
X0182257Y0096998D02*
X0182257Y0092195D01*
X0201943Y0092195D01*
X0201943Y0096998D01*
X0198006Y0101979D02*
X0198006Y0118120D01*
X0186194Y0118120D01*
X0182257Y0121605D02*
X0201943Y0121605D01*
X0201943Y0116939D01*
X0198006Y0101979D02*
X0198004Y0101827D01*
X0197998Y0101675D01*
X0197988Y0101523D01*
X0197975Y0101372D01*
X0197957Y0101221D01*
X0197936Y0101070D01*
X0197910Y0100920D01*
X0197881Y0100771D01*
X0197848Y0100622D01*
X0197811Y0100475D01*
X0197771Y0100328D01*
X0197726Y0100183D01*
X0197678Y0100039D01*
X0197626Y0099896D01*
X0197571Y0099754D01*
X0197512Y0099614D01*
X0197449Y0099475D01*
X0197383Y0099338D01*
X0197313Y0099203D01*
X0197240Y0099070D01*
X0197163Y0098939D01*
X0197083Y0098809D01*
X0197000Y0098682D01*
X0196914Y0098557D01*
X0196824Y0098434D01*
X0196731Y0098314D01*
X0196635Y0098196D01*
X0196536Y0098080D01*
X0196434Y0097967D01*
X0196330Y0097857D01*
X0196222Y0097749D01*
X0196112Y0097645D01*
X0195999Y0097543D01*
X0195883Y0097444D01*
X0195765Y0097348D01*
X0195645Y0097255D01*
X0195522Y0097165D01*
X0195397Y0097079D01*
X0195270Y0096996D01*
X0195140Y0096916D01*
X0195009Y0096839D01*
X0194876Y0096766D01*
X0194741Y0096696D01*
X0194604Y0096630D01*
X0194465Y0096567D01*
X0194325Y0096508D01*
X0194183Y0096453D01*
X0194040Y0096401D01*
X0193896Y0096353D01*
X0193751Y0096308D01*
X0193604Y0096268D01*
X0193457Y0096231D01*
X0193308Y0096198D01*
X0193159Y0096169D01*
X0193009Y0096143D01*
X0192858Y0096122D01*
X0192707Y0096104D01*
X0192556Y0096091D01*
X0192404Y0096081D01*
X0192252Y0096075D01*
X0192100Y0096073D01*
X0191948Y0096075D01*
X0191796Y0096081D01*
X0191644Y0096091D01*
X0191493Y0096104D01*
X0191342Y0096122D01*
X0191191Y0096143D01*
X0191041Y0096169D01*
X0190892Y0096198D01*
X0190743Y0096231D01*
X0190596Y0096268D01*
X0190449Y0096308D01*
X0190304Y0096353D01*
X0190160Y0096401D01*
X0190017Y0096453D01*
X0189875Y0096508D01*
X0189735Y0096567D01*
X0189596Y0096630D01*
X0189459Y0096696D01*
X0189324Y0096766D01*
X0189191Y0096839D01*
X0189060Y0096916D01*
X0188930Y0096996D01*
X0188803Y0097079D01*
X0188678Y0097165D01*
X0188555Y0097255D01*
X0188435Y0097348D01*
X0188317Y0097444D01*
X0188201Y0097543D01*
X0188088Y0097645D01*
X0187978Y0097749D01*
X0187870Y0097857D01*
X0187766Y0097967D01*
X0187664Y0098080D01*
X0187565Y0098196D01*
X0187469Y0098314D01*
X0187376Y0098434D01*
X0187286Y0098557D01*
X0187200Y0098682D01*
X0187117Y0098809D01*
X0187037Y0098939D01*
X0186960Y0099070D01*
X0186887Y0099203D01*
X0186817Y0099338D01*
X0186751Y0099475D01*
X0186688Y0099614D01*
X0186629Y0099754D01*
X0186574Y0099896D01*
X0186522Y0100039D01*
X0186474Y0100183D01*
X0186429Y0100328D01*
X0186389Y0100475D01*
X0186352Y0100622D01*
X0186319Y0100771D01*
X0186290Y0100920D01*
X0186264Y0101070D01*
X0186243Y0101221D01*
X0186225Y0101372D01*
X0186212Y0101523D01*
X0186202Y0101675D01*
X0186196Y0101827D01*
X0186194Y0101979D01*
X0187094Y0076506D02*
X0187094Y0076112D01*
X0187094Y0076506D02*
X0198906Y0076506D01*
X0198906Y0076112D01*
X0198906Y0072962D02*
X0198906Y0072175D01*
X0198906Y0069025D02*
X0198906Y0068238D01*
X0198906Y0065088D02*
X0198906Y0064694D01*
X0187094Y0064694D01*
X0187094Y0065088D01*
X0187094Y0068238D02*
X0187094Y0069025D01*
X0187094Y0072175D02*
X0187094Y0072962D01*
X0171106Y0072962D02*
X0171106Y0072175D01*
X0171106Y0069025D02*
X0171106Y0068238D01*
X0171106Y0065088D02*
X0171106Y0064694D01*
X0159294Y0064694D01*
X0159294Y0065088D01*
X0159294Y0068238D02*
X0159294Y0069025D01*
X0159294Y0072175D02*
X0159294Y0072962D01*
X0159294Y0076112D02*
X0159294Y0076506D01*
X0171106Y0076506D01*
X0171106Y0076112D01*
X0186994Y0137594D02*
X0198806Y0137594D01*
X0198806Y0137988D01*
X0198806Y0141138D02*
X0198806Y0141925D01*
X0198806Y0145075D02*
X0198806Y0145862D01*
X0198806Y0149012D02*
X0198806Y0149406D01*
X0186994Y0149406D01*
X0186994Y0149012D01*
X0186994Y0145862D02*
X0186994Y0145075D01*
X0186994Y0141925D02*
X0186994Y0141138D01*
X0186994Y0137988D02*
X0186994Y0137594D01*
X0056200Y0108600D02*
X0056200Y0104600D01*
X0049200Y0104600D02*
X0049200Y0108600D01*
D14*
X0010300Y0020311D02*
X0022111Y0008500D01*
X0195339Y0008500D01*
X0207150Y0020311D01*
X0207150Y0193539D01*
X0195339Y0205350D01*
X0022111Y0205350D01*
X0010300Y0193539D01*
X0010300Y0020311D01*
X0019749Y0024248D02*
X0019751Y0024406D01*
X0019757Y0024564D01*
X0019767Y0024722D01*
X0019781Y0024880D01*
X0019799Y0025037D01*
X0019820Y0025194D01*
X0019846Y0025350D01*
X0019876Y0025506D01*
X0019909Y0025661D01*
X0019947Y0025814D01*
X0019988Y0025967D01*
X0020033Y0026119D01*
X0020082Y0026270D01*
X0020135Y0026419D01*
X0020191Y0026567D01*
X0020251Y0026713D01*
X0020315Y0026858D01*
X0020383Y0027001D01*
X0020454Y0027143D01*
X0020528Y0027283D01*
X0020606Y0027420D01*
X0020688Y0027556D01*
X0020772Y0027690D01*
X0020861Y0027821D01*
X0020952Y0027950D01*
X0021047Y0028077D01*
X0021144Y0028202D01*
X0021245Y0028324D01*
X0021349Y0028443D01*
X0021456Y0028560D01*
X0021566Y0028674D01*
X0021679Y0028785D01*
X0021794Y0028894D01*
X0021912Y0028999D01*
X0022033Y0029101D01*
X0022156Y0029201D01*
X0022282Y0029297D01*
X0022410Y0029390D01*
X0022540Y0029480D01*
X0022673Y0029566D01*
X0022808Y0029650D01*
X0022944Y0029729D01*
X0023083Y0029806D01*
X0023224Y0029878D01*
X0023366Y0029948D01*
X0023510Y0030013D01*
X0023656Y0030075D01*
X0023803Y0030133D01*
X0023952Y0030188D01*
X0024102Y0030239D01*
X0024253Y0030286D01*
X0024405Y0030329D01*
X0024558Y0030368D01*
X0024713Y0030404D01*
X0024868Y0030435D01*
X0025024Y0030463D01*
X0025180Y0030487D01*
X0025337Y0030507D01*
X0025495Y0030523D01*
X0025652Y0030535D01*
X0025811Y0030543D01*
X0025969Y0030547D01*
X0026127Y0030547D01*
X0026285Y0030543D01*
X0026444Y0030535D01*
X0026601Y0030523D01*
X0026759Y0030507D01*
X0026916Y0030487D01*
X0027072Y0030463D01*
X0027228Y0030435D01*
X0027383Y0030404D01*
X0027538Y0030368D01*
X0027691Y0030329D01*
X0027843Y0030286D01*
X0027994Y0030239D01*
X0028144Y0030188D01*
X0028293Y0030133D01*
X0028440Y0030075D01*
X0028586Y0030013D01*
X0028730Y0029948D01*
X0028872Y0029878D01*
X0029013Y0029806D01*
X0029152Y0029729D01*
X0029288Y0029650D01*
X0029423Y0029566D01*
X0029556Y0029480D01*
X0029686Y0029390D01*
X0029814Y0029297D01*
X0029940Y0029201D01*
X0030063Y0029101D01*
X0030184Y0028999D01*
X0030302Y0028894D01*
X0030417Y0028785D01*
X0030530Y0028674D01*
X0030640Y0028560D01*
X0030747Y0028443D01*
X0030851Y0028324D01*
X0030952Y0028202D01*
X0031049Y0028077D01*
X0031144Y0027950D01*
X0031235Y0027821D01*
X0031324Y0027690D01*
X0031408Y0027556D01*
X0031490Y0027420D01*
X0031568Y0027283D01*
X0031642Y0027143D01*
X0031713Y0027001D01*
X0031781Y0026858D01*
X0031845Y0026713D01*
X0031905Y0026567D01*
X0031961Y0026419D01*
X0032014Y0026270D01*
X0032063Y0026119D01*
X0032108Y0025967D01*
X0032149Y0025814D01*
X0032187Y0025661D01*
X0032220Y0025506D01*
X0032250Y0025350D01*
X0032276Y0025194D01*
X0032297Y0025037D01*
X0032315Y0024880D01*
X0032329Y0024722D01*
X0032339Y0024564D01*
X0032345Y0024406D01*
X0032347Y0024248D01*
X0032345Y0024090D01*
X0032339Y0023932D01*
X0032329Y0023774D01*
X0032315Y0023616D01*
X0032297Y0023459D01*
X0032276Y0023302D01*
X0032250Y0023146D01*
X0032220Y0022990D01*
X0032187Y0022835D01*
X0032149Y0022682D01*
X0032108Y0022529D01*
X0032063Y0022377D01*
X0032014Y0022226D01*
X0031961Y0022077D01*
X0031905Y0021929D01*
X0031845Y0021783D01*
X0031781Y0021638D01*
X0031713Y0021495D01*
X0031642Y0021353D01*
X0031568Y0021213D01*
X0031490Y0021076D01*
X0031408Y0020940D01*
X0031324Y0020806D01*
X0031235Y0020675D01*
X0031144Y0020546D01*
X0031049Y0020419D01*
X0030952Y0020294D01*
X0030851Y0020172D01*
X0030747Y0020053D01*
X0030640Y0019936D01*
X0030530Y0019822D01*
X0030417Y0019711D01*
X0030302Y0019602D01*
X0030184Y0019497D01*
X0030063Y0019395D01*
X0029940Y0019295D01*
X0029814Y0019199D01*
X0029686Y0019106D01*
X0029556Y0019016D01*
X0029423Y0018930D01*
X0029288Y0018846D01*
X0029152Y0018767D01*
X0029013Y0018690D01*
X0028872Y0018618D01*
X0028730Y0018548D01*
X0028586Y0018483D01*
X0028440Y0018421D01*
X0028293Y0018363D01*
X0028144Y0018308D01*
X0027994Y0018257D01*
X0027843Y0018210D01*
X0027691Y0018167D01*
X0027538Y0018128D01*
X0027383Y0018092D01*
X0027228Y0018061D01*
X0027072Y0018033D01*
X0026916Y0018009D01*
X0026759Y0017989D01*
X0026601Y0017973D01*
X0026444Y0017961D01*
X0026285Y0017953D01*
X0026127Y0017949D01*
X0025969Y0017949D01*
X0025811Y0017953D01*
X0025652Y0017961D01*
X0025495Y0017973D01*
X0025337Y0017989D01*
X0025180Y0018009D01*
X0025024Y0018033D01*
X0024868Y0018061D01*
X0024713Y0018092D01*
X0024558Y0018128D01*
X0024405Y0018167D01*
X0024253Y0018210D01*
X0024102Y0018257D01*
X0023952Y0018308D01*
X0023803Y0018363D01*
X0023656Y0018421D01*
X0023510Y0018483D01*
X0023366Y0018548D01*
X0023224Y0018618D01*
X0023083Y0018690D01*
X0022944Y0018767D01*
X0022808Y0018846D01*
X0022673Y0018930D01*
X0022540Y0019016D01*
X0022410Y0019106D01*
X0022282Y0019199D01*
X0022156Y0019295D01*
X0022033Y0019395D01*
X0021912Y0019497D01*
X0021794Y0019602D01*
X0021679Y0019711D01*
X0021566Y0019822D01*
X0021456Y0019936D01*
X0021349Y0020053D01*
X0021245Y0020172D01*
X0021144Y0020294D01*
X0021047Y0020419D01*
X0020952Y0020546D01*
X0020861Y0020675D01*
X0020772Y0020806D01*
X0020688Y0020940D01*
X0020606Y0021076D01*
X0020528Y0021213D01*
X0020454Y0021353D01*
X0020383Y0021495D01*
X0020315Y0021638D01*
X0020251Y0021783D01*
X0020191Y0021929D01*
X0020135Y0022077D01*
X0020082Y0022226D01*
X0020033Y0022377D01*
X0019988Y0022529D01*
X0019947Y0022682D01*
X0019909Y0022835D01*
X0019876Y0022990D01*
X0019846Y0023146D01*
X0019820Y0023302D01*
X0019799Y0023459D01*
X0019781Y0023616D01*
X0019767Y0023774D01*
X0019757Y0023932D01*
X0019751Y0024090D01*
X0019749Y0024248D01*
X0057700Y0105300D02*
X0057769Y0105302D01*
X0057837Y0105308D01*
X0057905Y0105318D01*
X0057972Y0105331D01*
X0058038Y0105349D01*
X0058103Y0105370D01*
X0058167Y0105395D01*
X0058229Y0105423D01*
X0058290Y0105455D01*
X0058349Y0105490D01*
X0058405Y0105529D01*
X0058460Y0105571D01*
X0058511Y0105616D01*
X0058561Y0105664D01*
X0058607Y0105714D01*
X0058650Y0105767D01*
X0058691Y0105823D01*
X0058728Y0105880D01*
X0058761Y0105940D01*
X0058792Y0106002D01*
X0058818Y0106065D01*
X0058841Y0106129D01*
X0058861Y0106195D01*
X0058876Y0106262D01*
X0058888Y0106329D01*
X0058896Y0106397D01*
X0058900Y0106466D01*
X0058900Y0106534D01*
X0058896Y0106603D01*
X0058888Y0106671D01*
X0058876Y0106738D01*
X0058861Y0106805D01*
X0058841Y0106871D01*
X0058818Y0106935D01*
X0058792Y0106998D01*
X0058761Y0107060D01*
X0058728Y0107120D01*
X0058691Y0107177D01*
X0058650Y0107233D01*
X0058607Y0107286D01*
X0058561Y0107336D01*
X0058511Y0107384D01*
X0058460Y0107429D01*
X0058405Y0107471D01*
X0058349Y0107510D01*
X0058290Y0107545D01*
X0058229Y0107577D01*
X0058167Y0107605D01*
X0058103Y0107630D01*
X0058038Y0107651D01*
X0057972Y0107669D01*
X0057905Y0107682D01*
X0057837Y0107692D01*
X0057769Y0107698D01*
X0057700Y0107700D01*
X0019749Y0189602D02*
X0019751Y0189760D01*
X0019757Y0189918D01*
X0019767Y0190076D01*
X0019781Y0190234D01*
X0019799Y0190391D01*
X0019820Y0190548D01*
X0019846Y0190704D01*
X0019876Y0190860D01*
X0019909Y0191015D01*
X0019947Y0191168D01*
X0019988Y0191321D01*
X0020033Y0191473D01*
X0020082Y0191624D01*
X0020135Y0191773D01*
X0020191Y0191921D01*
X0020251Y0192067D01*
X0020315Y0192212D01*
X0020383Y0192355D01*
X0020454Y0192497D01*
X0020528Y0192637D01*
X0020606Y0192774D01*
X0020688Y0192910D01*
X0020772Y0193044D01*
X0020861Y0193175D01*
X0020952Y0193304D01*
X0021047Y0193431D01*
X0021144Y0193556D01*
X0021245Y0193678D01*
X0021349Y0193797D01*
X0021456Y0193914D01*
X0021566Y0194028D01*
X0021679Y0194139D01*
X0021794Y0194248D01*
X0021912Y0194353D01*
X0022033Y0194455D01*
X0022156Y0194555D01*
X0022282Y0194651D01*
X0022410Y0194744D01*
X0022540Y0194834D01*
X0022673Y0194920D01*
X0022808Y0195004D01*
X0022944Y0195083D01*
X0023083Y0195160D01*
X0023224Y0195232D01*
X0023366Y0195302D01*
X0023510Y0195367D01*
X0023656Y0195429D01*
X0023803Y0195487D01*
X0023952Y0195542D01*
X0024102Y0195593D01*
X0024253Y0195640D01*
X0024405Y0195683D01*
X0024558Y0195722D01*
X0024713Y0195758D01*
X0024868Y0195789D01*
X0025024Y0195817D01*
X0025180Y0195841D01*
X0025337Y0195861D01*
X0025495Y0195877D01*
X0025652Y0195889D01*
X0025811Y0195897D01*
X0025969Y0195901D01*
X0026127Y0195901D01*
X0026285Y0195897D01*
X0026444Y0195889D01*
X0026601Y0195877D01*
X0026759Y0195861D01*
X0026916Y0195841D01*
X0027072Y0195817D01*
X0027228Y0195789D01*
X0027383Y0195758D01*
X0027538Y0195722D01*
X0027691Y0195683D01*
X0027843Y0195640D01*
X0027994Y0195593D01*
X0028144Y0195542D01*
X0028293Y0195487D01*
X0028440Y0195429D01*
X0028586Y0195367D01*
X0028730Y0195302D01*
X0028872Y0195232D01*
X0029013Y0195160D01*
X0029152Y0195083D01*
X0029288Y0195004D01*
X0029423Y0194920D01*
X0029556Y0194834D01*
X0029686Y0194744D01*
X0029814Y0194651D01*
X0029940Y0194555D01*
X0030063Y0194455D01*
X0030184Y0194353D01*
X0030302Y0194248D01*
X0030417Y0194139D01*
X0030530Y0194028D01*
X0030640Y0193914D01*
X0030747Y0193797D01*
X0030851Y0193678D01*
X0030952Y0193556D01*
X0031049Y0193431D01*
X0031144Y0193304D01*
X0031235Y0193175D01*
X0031324Y0193044D01*
X0031408Y0192910D01*
X0031490Y0192774D01*
X0031568Y0192637D01*
X0031642Y0192497D01*
X0031713Y0192355D01*
X0031781Y0192212D01*
X0031845Y0192067D01*
X0031905Y0191921D01*
X0031961Y0191773D01*
X0032014Y0191624D01*
X0032063Y0191473D01*
X0032108Y0191321D01*
X0032149Y0191168D01*
X0032187Y0191015D01*
X0032220Y0190860D01*
X0032250Y0190704D01*
X0032276Y0190548D01*
X0032297Y0190391D01*
X0032315Y0190234D01*
X0032329Y0190076D01*
X0032339Y0189918D01*
X0032345Y0189760D01*
X0032347Y0189602D01*
X0032345Y0189444D01*
X0032339Y0189286D01*
X0032329Y0189128D01*
X0032315Y0188970D01*
X0032297Y0188813D01*
X0032276Y0188656D01*
X0032250Y0188500D01*
X0032220Y0188344D01*
X0032187Y0188189D01*
X0032149Y0188036D01*
X0032108Y0187883D01*
X0032063Y0187731D01*
X0032014Y0187580D01*
X0031961Y0187431D01*
X0031905Y0187283D01*
X0031845Y0187137D01*
X0031781Y0186992D01*
X0031713Y0186849D01*
X0031642Y0186707D01*
X0031568Y0186567D01*
X0031490Y0186430D01*
X0031408Y0186294D01*
X0031324Y0186160D01*
X0031235Y0186029D01*
X0031144Y0185900D01*
X0031049Y0185773D01*
X0030952Y0185648D01*
X0030851Y0185526D01*
X0030747Y0185407D01*
X0030640Y0185290D01*
X0030530Y0185176D01*
X0030417Y0185065D01*
X0030302Y0184956D01*
X0030184Y0184851D01*
X0030063Y0184749D01*
X0029940Y0184649D01*
X0029814Y0184553D01*
X0029686Y0184460D01*
X0029556Y0184370D01*
X0029423Y0184284D01*
X0029288Y0184200D01*
X0029152Y0184121D01*
X0029013Y0184044D01*
X0028872Y0183972D01*
X0028730Y0183902D01*
X0028586Y0183837D01*
X0028440Y0183775D01*
X0028293Y0183717D01*
X0028144Y0183662D01*
X0027994Y0183611D01*
X0027843Y0183564D01*
X0027691Y0183521D01*
X0027538Y0183482D01*
X0027383Y0183446D01*
X0027228Y0183415D01*
X0027072Y0183387D01*
X0026916Y0183363D01*
X0026759Y0183343D01*
X0026601Y0183327D01*
X0026444Y0183315D01*
X0026285Y0183307D01*
X0026127Y0183303D01*
X0025969Y0183303D01*
X0025811Y0183307D01*
X0025652Y0183315D01*
X0025495Y0183327D01*
X0025337Y0183343D01*
X0025180Y0183363D01*
X0025024Y0183387D01*
X0024868Y0183415D01*
X0024713Y0183446D01*
X0024558Y0183482D01*
X0024405Y0183521D01*
X0024253Y0183564D01*
X0024102Y0183611D01*
X0023952Y0183662D01*
X0023803Y0183717D01*
X0023656Y0183775D01*
X0023510Y0183837D01*
X0023366Y0183902D01*
X0023224Y0183972D01*
X0023083Y0184044D01*
X0022944Y0184121D01*
X0022808Y0184200D01*
X0022673Y0184284D01*
X0022540Y0184370D01*
X0022410Y0184460D01*
X0022282Y0184553D01*
X0022156Y0184649D01*
X0022033Y0184749D01*
X0021912Y0184851D01*
X0021794Y0184956D01*
X0021679Y0185065D01*
X0021566Y0185176D01*
X0021456Y0185290D01*
X0021349Y0185407D01*
X0021245Y0185526D01*
X0021144Y0185648D01*
X0021047Y0185773D01*
X0020952Y0185900D01*
X0020861Y0186029D01*
X0020772Y0186160D01*
X0020688Y0186294D01*
X0020606Y0186430D01*
X0020528Y0186567D01*
X0020454Y0186707D01*
X0020383Y0186849D01*
X0020315Y0186992D01*
X0020251Y0187137D01*
X0020191Y0187283D01*
X0020135Y0187431D01*
X0020082Y0187580D01*
X0020033Y0187731D01*
X0019988Y0187883D01*
X0019947Y0188036D01*
X0019909Y0188189D01*
X0019876Y0188344D01*
X0019846Y0188500D01*
X0019820Y0188656D01*
X0019799Y0188813D01*
X0019781Y0188970D01*
X0019767Y0189128D01*
X0019757Y0189286D01*
X0019751Y0189444D01*
X0019749Y0189602D01*
X0185103Y0189602D02*
X0185105Y0189760D01*
X0185111Y0189918D01*
X0185121Y0190076D01*
X0185135Y0190234D01*
X0185153Y0190391D01*
X0185174Y0190548D01*
X0185200Y0190704D01*
X0185230Y0190860D01*
X0185263Y0191015D01*
X0185301Y0191168D01*
X0185342Y0191321D01*
X0185387Y0191473D01*
X0185436Y0191624D01*
X0185489Y0191773D01*
X0185545Y0191921D01*
X0185605Y0192067D01*
X0185669Y0192212D01*
X0185737Y0192355D01*
X0185808Y0192497D01*
X0185882Y0192637D01*
X0185960Y0192774D01*
X0186042Y0192910D01*
X0186126Y0193044D01*
X0186215Y0193175D01*
X0186306Y0193304D01*
X0186401Y0193431D01*
X0186498Y0193556D01*
X0186599Y0193678D01*
X0186703Y0193797D01*
X0186810Y0193914D01*
X0186920Y0194028D01*
X0187033Y0194139D01*
X0187148Y0194248D01*
X0187266Y0194353D01*
X0187387Y0194455D01*
X0187510Y0194555D01*
X0187636Y0194651D01*
X0187764Y0194744D01*
X0187894Y0194834D01*
X0188027Y0194920D01*
X0188162Y0195004D01*
X0188298Y0195083D01*
X0188437Y0195160D01*
X0188578Y0195232D01*
X0188720Y0195302D01*
X0188864Y0195367D01*
X0189010Y0195429D01*
X0189157Y0195487D01*
X0189306Y0195542D01*
X0189456Y0195593D01*
X0189607Y0195640D01*
X0189759Y0195683D01*
X0189912Y0195722D01*
X0190067Y0195758D01*
X0190222Y0195789D01*
X0190378Y0195817D01*
X0190534Y0195841D01*
X0190691Y0195861D01*
X0190849Y0195877D01*
X0191006Y0195889D01*
X0191165Y0195897D01*
X0191323Y0195901D01*
X0191481Y0195901D01*
X0191639Y0195897D01*
X0191798Y0195889D01*
X0191955Y0195877D01*
X0192113Y0195861D01*
X0192270Y0195841D01*
X0192426Y0195817D01*
X0192582Y0195789D01*
X0192737Y0195758D01*
X0192892Y0195722D01*
X0193045Y0195683D01*
X0193197Y0195640D01*
X0193348Y0195593D01*
X0193498Y0195542D01*
X0193647Y0195487D01*
X0193794Y0195429D01*
X0193940Y0195367D01*
X0194084Y0195302D01*
X0194226Y0195232D01*
X0194367Y0195160D01*
X0194506Y0195083D01*
X0194642Y0195004D01*
X0194777Y0194920D01*
X0194910Y0194834D01*
X0195040Y0194744D01*
X0195168Y0194651D01*
X0195294Y0194555D01*
X0195417Y0194455D01*
X0195538Y0194353D01*
X0195656Y0194248D01*
X0195771Y0194139D01*
X0195884Y0194028D01*
X0195994Y0193914D01*
X0196101Y0193797D01*
X0196205Y0193678D01*
X0196306Y0193556D01*
X0196403Y0193431D01*
X0196498Y0193304D01*
X0196589Y0193175D01*
X0196678Y0193044D01*
X0196762Y0192910D01*
X0196844Y0192774D01*
X0196922Y0192637D01*
X0196996Y0192497D01*
X0197067Y0192355D01*
X0197135Y0192212D01*
X0197199Y0192067D01*
X0197259Y0191921D01*
X0197315Y0191773D01*
X0197368Y0191624D01*
X0197417Y0191473D01*
X0197462Y0191321D01*
X0197503Y0191168D01*
X0197541Y0191015D01*
X0197574Y0190860D01*
X0197604Y0190704D01*
X0197630Y0190548D01*
X0197651Y0190391D01*
X0197669Y0190234D01*
X0197683Y0190076D01*
X0197693Y0189918D01*
X0197699Y0189760D01*
X0197701Y0189602D01*
X0197699Y0189444D01*
X0197693Y0189286D01*
X0197683Y0189128D01*
X0197669Y0188970D01*
X0197651Y0188813D01*
X0197630Y0188656D01*
X0197604Y0188500D01*
X0197574Y0188344D01*
X0197541Y0188189D01*
X0197503Y0188036D01*
X0197462Y0187883D01*
X0197417Y0187731D01*
X0197368Y0187580D01*
X0197315Y0187431D01*
X0197259Y0187283D01*
X0197199Y0187137D01*
X0197135Y0186992D01*
X0197067Y0186849D01*
X0196996Y0186707D01*
X0196922Y0186567D01*
X0196844Y0186430D01*
X0196762Y0186294D01*
X0196678Y0186160D01*
X0196589Y0186029D01*
X0196498Y0185900D01*
X0196403Y0185773D01*
X0196306Y0185648D01*
X0196205Y0185526D01*
X0196101Y0185407D01*
X0195994Y0185290D01*
X0195884Y0185176D01*
X0195771Y0185065D01*
X0195656Y0184956D01*
X0195538Y0184851D01*
X0195417Y0184749D01*
X0195294Y0184649D01*
X0195168Y0184553D01*
X0195040Y0184460D01*
X0194910Y0184370D01*
X0194777Y0184284D01*
X0194642Y0184200D01*
X0194506Y0184121D01*
X0194367Y0184044D01*
X0194226Y0183972D01*
X0194084Y0183902D01*
X0193940Y0183837D01*
X0193794Y0183775D01*
X0193647Y0183717D01*
X0193498Y0183662D01*
X0193348Y0183611D01*
X0193197Y0183564D01*
X0193045Y0183521D01*
X0192892Y0183482D01*
X0192737Y0183446D01*
X0192582Y0183415D01*
X0192426Y0183387D01*
X0192270Y0183363D01*
X0192113Y0183343D01*
X0191955Y0183327D01*
X0191798Y0183315D01*
X0191639Y0183307D01*
X0191481Y0183303D01*
X0191323Y0183303D01*
X0191165Y0183307D01*
X0191006Y0183315D01*
X0190849Y0183327D01*
X0190691Y0183343D01*
X0190534Y0183363D01*
X0190378Y0183387D01*
X0190222Y0183415D01*
X0190067Y0183446D01*
X0189912Y0183482D01*
X0189759Y0183521D01*
X0189607Y0183564D01*
X0189456Y0183611D01*
X0189306Y0183662D01*
X0189157Y0183717D01*
X0189010Y0183775D01*
X0188864Y0183837D01*
X0188720Y0183902D01*
X0188578Y0183972D01*
X0188437Y0184044D01*
X0188298Y0184121D01*
X0188162Y0184200D01*
X0188027Y0184284D01*
X0187894Y0184370D01*
X0187764Y0184460D01*
X0187636Y0184553D01*
X0187510Y0184649D01*
X0187387Y0184749D01*
X0187266Y0184851D01*
X0187148Y0184956D01*
X0187033Y0185065D01*
X0186920Y0185176D01*
X0186810Y0185290D01*
X0186703Y0185407D01*
X0186599Y0185526D01*
X0186498Y0185648D01*
X0186401Y0185773D01*
X0186306Y0185900D01*
X0186215Y0186029D01*
X0186126Y0186160D01*
X0186042Y0186294D01*
X0185960Y0186430D01*
X0185882Y0186567D01*
X0185808Y0186707D01*
X0185737Y0186849D01*
X0185669Y0186992D01*
X0185605Y0187137D01*
X0185545Y0187283D01*
X0185489Y0187431D01*
X0185436Y0187580D01*
X0185387Y0187731D01*
X0185342Y0187883D01*
X0185301Y0188036D01*
X0185263Y0188189D01*
X0185230Y0188344D01*
X0185200Y0188500D01*
X0185174Y0188656D01*
X0185153Y0188813D01*
X0185135Y0188970D01*
X0185121Y0189128D01*
X0185111Y0189286D01*
X0185105Y0189444D01*
X0185103Y0189602D01*
X0185103Y0024248D02*
X0185105Y0024406D01*
X0185111Y0024564D01*
X0185121Y0024722D01*
X0185135Y0024880D01*
X0185153Y0025037D01*
X0185174Y0025194D01*
X0185200Y0025350D01*
X0185230Y0025506D01*
X0185263Y0025661D01*
X0185301Y0025814D01*
X0185342Y0025967D01*
X0185387Y0026119D01*
X0185436Y0026270D01*
X0185489Y0026419D01*
X0185545Y0026567D01*
X0185605Y0026713D01*
X0185669Y0026858D01*
X0185737Y0027001D01*
X0185808Y0027143D01*
X0185882Y0027283D01*
X0185960Y0027420D01*
X0186042Y0027556D01*
X0186126Y0027690D01*
X0186215Y0027821D01*
X0186306Y0027950D01*
X0186401Y0028077D01*
X0186498Y0028202D01*
X0186599Y0028324D01*
X0186703Y0028443D01*
X0186810Y0028560D01*
X0186920Y0028674D01*
X0187033Y0028785D01*
X0187148Y0028894D01*
X0187266Y0028999D01*
X0187387Y0029101D01*
X0187510Y0029201D01*
X0187636Y0029297D01*
X0187764Y0029390D01*
X0187894Y0029480D01*
X0188027Y0029566D01*
X0188162Y0029650D01*
X0188298Y0029729D01*
X0188437Y0029806D01*
X0188578Y0029878D01*
X0188720Y0029948D01*
X0188864Y0030013D01*
X0189010Y0030075D01*
X0189157Y0030133D01*
X0189306Y0030188D01*
X0189456Y0030239D01*
X0189607Y0030286D01*
X0189759Y0030329D01*
X0189912Y0030368D01*
X0190067Y0030404D01*
X0190222Y0030435D01*
X0190378Y0030463D01*
X0190534Y0030487D01*
X0190691Y0030507D01*
X0190849Y0030523D01*
X0191006Y0030535D01*
X0191165Y0030543D01*
X0191323Y0030547D01*
X0191481Y0030547D01*
X0191639Y0030543D01*
X0191798Y0030535D01*
X0191955Y0030523D01*
X0192113Y0030507D01*
X0192270Y0030487D01*
X0192426Y0030463D01*
X0192582Y0030435D01*
X0192737Y0030404D01*
X0192892Y0030368D01*
X0193045Y0030329D01*
X0193197Y0030286D01*
X0193348Y0030239D01*
X0193498Y0030188D01*
X0193647Y0030133D01*
X0193794Y0030075D01*
X0193940Y0030013D01*
X0194084Y0029948D01*
X0194226Y0029878D01*
X0194367Y0029806D01*
X0194506Y0029729D01*
X0194642Y0029650D01*
X0194777Y0029566D01*
X0194910Y0029480D01*
X0195040Y0029390D01*
X0195168Y0029297D01*
X0195294Y0029201D01*
X0195417Y0029101D01*
X0195538Y0028999D01*
X0195656Y0028894D01*
X0195771Y0028785D01*
X0195884Y0028674D01*
X0195994Y0028560D01*
X0196101Y0028443D01*
X0196205Y0028324D01*
X0196306Y0028202D01*
X0196403Y0028077D01*
X0196498Y0027950D01*
X0196589Y0027821D01*
X0196678Y0027690D01*
X0196762Y0027556D01*
X0196844Y0027420D01*
X0196922Y0027283D01*
X0196996Y0027143D01*
X0197067Y0027001D01*
X0197135Y0026858D01*
X0197199Y0026713D01*
X0197259Y0026567D01*
X0197315Y0026419D01*
X0197368Y0026270D01*
X0197417Y0026119D01*
X0197462Y0025967D01*
X0197503Y0025814D01*
X0197541Y0025661D01*
X0197574Y0025506D01*
X0197604Y0025350D01*
X0197630Y0025194D01*
X0197651Y0025037D01*
X0197669Y0024880D01*
X0197683Y0024722D01*
X0197693Y0024564D01*
X0197699Y0024406D01*
X0197701Y0024248D01*
X0197699Y0024090D01*
X0197693Y0023932D01*
X0197683Y0023774D01*
X0197669Y0023616D01*
X0197651Y0023459D01*
X0197630Y0023302D01*
X0197604Y0023146D01*
X0197574Y0022990D01*
X0197541Y0022835D01*
X0197503Y0022682D01*
X0197462Y0022529D01*
X0197417Y0022377D01*
X0197368Y0022226D01*
X0197315Y0022077D01*
X0197259Y0021929D01*
X0197199Y0021783D01*
X0197135Y0021638D01*
X0197067Y0021495D01*
X0196996Y0021353D01*
X0196922Y0021213D01*
X0196844Y0021076D01*
X0196762Y0020940D01*
X0196678Y0020806D01*
X0196589Y0020675D01*
X0196498Y0020546D01*
X0196403Y0020419D01*
X0196306Y0020294D01*
X0196205Y0020172D01*
X0196101Y0020053D01*
X0195994Y0019936D01*
X0195884Y0019822D01*
X0195771Y0019711D01*
X0195656Y0019602D01*
X0195538Y0019497D01*
X0195417Y0019395D01*
X0195294Y0019295D01*
X0195168Y0019199D01*
X0195040Y0019106D01*
X0194910Y0019016D01*
X0194777Y0018930D01*
X0194642Y0018846D01*
X0194506Y0018767D01*
X0194367Y0018690D01*
X0194226Y0018618D01*
X0194084Y0018548D01*
X0193940Y0018483D01*
X0193794Y0018421D01*
X0193647Y0018363D01*
X0193498Y0018308D01*
X0193348Y0018257D01*
X0193197Y0018210D01*
X0193045Y0018167D01*
X0192892Y0018128D01*
X0192737Y0018092D01*
X0192582Y0018061D01*
X0192426Y0018033D01*
X0192270Y0018009D01*
X0192113Y0017989D01*
X0191955Y0017973D01*
X0191798Y0017961D01*
X0191639Y0017953D01*
X0191481Y0017949D01*
X0191323Y0017949D01*
X0191165Y0017953D01*
X0191006Y0017961D01*
X0190849Y0017973D01*
X0190691Y0017989D01*
X0190534Y0018009D01*
X0190378Y0018033D01*
X0190222Y0018061D01*
X0190067Y0018092D01*
X0189912Y0018128D01*
X0189759Y0018167D01*
X0189607Y0018210D01*
X0189456Y0018257D01*
X0189306Y0018308D01*
X0189157Y0018363D01*
X0189010Y0018421D01*
X0188864Y0018483D01*
X0188720Y0018548D01*
X0188578Y0018618D01*
X0188437Y0018690D01*
X0188298Y0018767D01*
X0188162Y0018846D01*
X0188027Y0018930D01*
X0187894Y0019016D01*
X0187764Y0019106D01*
X0187636Y0019199D01*
X0187510Y0019295D01*
X0187387Y0019395D01*
X0187266Y0019497D01*
X0187148Y0019602D01*
X0187033Y0019711D01*
X0186920Y0019822D01*
X0186810Y0019936D01*
X0186703Y0020053D01*
X0186599Y0020172D01*
X0186498Y0020294D01*
X0186401Y0020419D01*
X0186306Y0020546D01*
X0186215Y0020675D01*
X0186126Y0020806D01*
X0186042Y0020940D01*
X0185960Y0021076D01*
X0185882Y0021213D01*
X0185808Y0021353D01*
X0185737Y0021495D01*
X0185669Y0021638D01*
X0185605Y0021783D01*
X0185545Y0021929D01*
X0185489Y0022077D01*
X0185436Y0022226D01*
X0185387Y0022377D01*
X0185342Y0022529D01*
X0185301Y0022682D01*
X0185263Y0022835D01*
X0185230Y0022990D01*
X0185200Y0023146D01*
X0185174Y0023302D01*
X0185153Y0023459D01*
X0185135Y0023616D01*
X0185121Y0023774D01*
X0185111Y0023932D01*
X0185105Y0024090D01*
X0185103Y0024248D01*
D15*
X0179610Y0024229D02*
X0179614Y0024519D01*
X0179624Y0024809D01*
X0179642Y0025098D01*
X0179667Y0025387D01*
X0179699Y0025675D01*
X0179738Y0025962D01*
X0179784Y0026248D01*
X0179837Y0026533D01*
X0179897Y0026817D01*
X0179964Y0027099D01*
X0180038Y0027379D01*
X0180119Y0027658D01*
X0180206Y0027934D01*
X0180300Y0028208D01*
X0180401Y0028480D01*
X0180509Y0028749D01*
X0180623Y0029015D01*
X0180744Y0029279D01*
X0180871Y0029539D01*
X0181005Y0029797D01*
X0181144Y0030051D01*
X0181290Y0030301D01*
X0181442Y0030548D01*
X0181601Y0030791D01*
X0181765Y0031030D01*
X0181934Y0031265D01*
X0182110Y0031496D01*
X0182291Y0031722D01*
X0182478Y0031944D01*
X0182670Y0032161D01*
X0182867Y0032373D01*
X0183069Y0032581D01*
X0183277Y0032783D01*
X0183489Y0032980D01*
X0183706Y0033172D01*
X0183928Y0033359D01*
X0184154Y0033540D01*
X0184385Y0033716D01*
X0184620Y0033885D01*
X0184859Y0034049D01*
X0185102Y0034208D01*
X0185349Y0034360D01*
X0185599Y0034506D01*
X0185853Y0034645D01*
X0186111Y0034779D01*
X0186371Y0034906D01*
X0186635Y0035027D01*
X0186901Y0035141D01*
X0187170Y0035249D01*
X0187442Y0035350D01*
X0187716Y0035444D01*
X0187992Y0035531D01*
X0188271Y0035612D01*
X0188551Y0035686D01*
X0188833Y0035753D01*
X0189117Y0035813D01*
X0189402Y0035866D01*
X0189688Y0035912D01*
X0189975Y0035951D01*
X0190263Y0035983D01*
X0190552Y0036008D01*
X0190841Y0036026D01*
X0191131Y0036036D01*
X0191421Y0036040D01*
X0191711Y0036036D01*
X0192001Y0036026D01*
X0192290Y0036008D01*
X0192579Y0035983D01*
X0192867Y0035951D01*
X0193154Y0035912D01*
X0193440Y0035866D01*
X0193725Y0035813D01*
X0194009Y0035753D01*
X0194291Y0035686D01*
X0194571Y0035612D01*
X0194850Y0035531D01*
X0195126Y0035444D01*
X0195400Y0035350D01*
X0195672Y0035249D01*
X0195941Y0035141D01*
X0196207Y0035027D01*
X0196471Y0034906D01*
X0196731Y0034779D01*
X0196989Y0034645D01*
X0197243Y0034506D01*
X0197493Y0034360D01*
X0197740Y0034208D01*
X0197983Y0034049D01*
X0198222Y0033885D01*
X0198457Y0033716D01*
X0198688Y0033540D01*
X0198914Y0033359D01*
X0199136Y0033172D01*
X0199353Y0032980D01*
X0199565Y0032783D01*
X0199773Y0032581D01*
X0199975Y0032373D01*
X0200172Y0032161D01*
X0200364Y0031944D01*
X0200551Y0031722D01*
X0200732Y0031496D01*
X0200908Y0031265D01*
X0201077Y0031030D01*
X0201241Y0030791D01*
X0201400Y0030548D01*
X0201552Y0030301D01*
X0201698Y0030051D01*
X0201837Y0029797D01*
X0201971Y0029539D01*
X0202098Y0029279D01*
X0202219Y0029015D01*
X0202333Y0028749D01*
X0202441Y0028480D01*
X0202542Y0028208D01*
X0202636Y0027934D01*
X0202723Y0027658D01*
X0202804Y0027379D01*
X0202878Y0027099D01*
X0202945Y0026817D01*
X0203005Y0026533D01*
X0203058Y0026248D01*
X0203104Y0025962D01*
X0203143Y0025675D01*
X0203175Y0025387D01*
X0203200Y0025098D01*
X0203218Y0024809D01*
X0203228Y0024519D01*
X0203232Y0024229D01*
X0203228Y0023939D01*
X0203218Y0023649D01*
X0203200Y0023360D01*
X0203175Y0023071D01*
X0203143Y0022783D01*
X0203104Y0022496D01*
X0203058Y0022210D01*
X0203005Y0021925D01*
X0202945Y0021641D01*
X0202878Y0021359D01*
X0202804Y0021079D01*
X0202723Y0020800D01*
X0202636Y0020524D01*
X0202542Y0020250D01*
X0202441Y0019978D01*
X0202333Y0019709D01*
X0202219Y0019443D01*
X0202098Y0019179D01*
X0201971Y0018919D01*
X0201837Y0018661D01*
X0201698Y0018407D01*
X0201552Y0018157D01*
X0201400Y0017910D01*
X0201241Y0017667D01*
X0201077Y0017428D01*
X0200908Y0017193D01*
X0200732Y0016962D01*
X0200551Y0016736D01*
X0200364Y0016514D01*
X0200172Y0016297D01*
X0199975Y0016085D01*
X0199773Y0015877D01*
X0199565Y0015675D01*
X0199353Y0015478D01*
X0199136Y0015286D01*
X0198914Y0015099D01*
X0198688Y0014918D01*
X0198457Y0014742D01*
X0198222Y0014573D01*
X0197983Y0014409D01*
X0197740Y0014250D01*
X0197493Y0014098D01*
X0197243Y0013952D01*
X0196989Y0013813D01*
X0196731Y0013679D01*
X0196471Y0013552D01*
X0196207Y0013431D01*
X0195941Y0013317D01*
X0195672Y0013209D01*
X0195400Y0013108D01*
X0195126Y0013014D01*
X0194850Y0012927D01*
X0194571Y0012846D01*
X0194291Y0012772D01*
X0194009Y0012705D01*
X0193725Y0012645D01*
X0193440Y0012592D01*
X0193154Y0012546D01*
X0192867Y0012507D01*
X0192579Y0012475D01*
X0192290Y0012450D01*
X0192001Y0012432D01*
X0191711Y0012422D01*
X0191421Y0012418D01*
X0191131Y0012422D01*
X0190841Y0012432D01*
X0190552Y0012450D01*
X0190263Y0012475D01*
X0189975Y0012507D01*
X0189688Y0012546D01*
X0189402Y0012592D01*
X0189117Y0012645D01*
X0188833Y0012705D01*
X0188551Y0012772D01*
X0188271Y0012846D01*
X0187992Y0012927D01*
X0187716Y0013014D01*
X0187442Y0013108D01*
X0187170Y0013209D01*
X0186901Y0013317D01*
X0186635Y0013431D01*
X0186371Y0013552D01*
X0186111Y0013679D01*
X0185853Y0013813D01*
X0185599Y0013952D01*
X0185349Y0014098D01*
X0185102Y0014250D01*
X0184859Y0014409D01*
X0184620Y0014573D01*
X0184385Y0014742D01*
X0184154Y0014918D01*
X0183928Y0015099D01*
X0183706Y0015286D01*
X0183489Y0015478D01*
X0183277Y0015675D01*
X0183069Y0015877D01*
X0182867Y0016085D01*
X0182670Y0016297D01*
X0182478Y0016514D01*
X0182291Y0016736D01*
X0182110Y0016962D01*
X0181934Y0017193D01*
X0181765Y0017428D01*
X0181601Y0017667D01*
X0181442Y0017910D01*
X0181290Y0018157D01*
X0181144Y0018407D01*
X0181005Y0018661D01*
X0180871Y0018919D01*
X0180744Y0019179D01*
X0180623Y0019443D01*
X0180509Y0019709D01*
X0180401Y0019978D01*
X0180300Y0020250D01*
X0180206Y0020524D01*
X0180119Y0020800D01*
X0180038Y0021079D01*
X0179964Y0021359D01*
X0179897Y0021641D01*
X0179837Y0021925D01*
X0179784Y0022210D01*
X0179738Y0022496D01*
X0179699Y0022783D01*
X0179667Y0023071D01*
X0179642Y0023360D01*
X0179624Y0023649D01*
X0179614Y0023939D01*
X0179610Y0024229D01*
X0014256Y0024229D02*
X0014260Y0024519D01*
X0014270Y0024809D01*
X0014288Y0025098D01*
X0014313Y0025387D01*
X0014345Y0025675D01*
X0014384Y0025962D01*
X0014430Y0026248D01*
X0014483Y0026533D01*
X0014543Y0026817D01*
X0014610Y0027099D01*
X0014684Y0027379D01*
X0014765Y0027658D01*
X0014852Y0027934D01*
X0014946Y0028208D01*
X0015047Y0028480D01*
X0015155Y0028749D01*
X0015269Y0029015D01*
X0015390Y0029279D01*
X0015517Y0029539D01*
X0015651Y0029797D01*
X0015790Y0030051D01*
X0015936Y0030301D01*
X0016088Y0030548D01*
X0016247Y0030791D01*
X0016411Y0031030D01*
X0016580Y0031265D01*
X0016756Y0031496D01*
X0016937Y0031722D01*
X0017124Y0031944D01*
X0017316Y0032161D01*
X0017513Y0032373D01*
X0017715Y0032581D01*
X0017923Y0032783D01*
X0018135Y0032980D01*
X0018352Y0033172D01*
X0018574Y0033359D01*
X0018800Y0033540D01*
X0019031Y0033716D01*
X0019266Y0033885D01*
X0019505Y0034049D01*
X0019748Y0034208D01*
X0019995Y0034360D01*
X0020245Y0034506D01*
X0020499Y0034645D01*
X0020757Y0034779D01*
X0021017Y0034906D01*
X0021281Y0035027D01*
X0021547Y0035141D01*
X0021816Y0035249D01*
X0022088Y0035350D01*
X0022362Y0035444D01*
X0022638Y0035531D01*
X0022917Y0035612D01*
X0023197Y0035686D01*
X0023479Y0035753D01*
X0023763Y0035813D01*
X0024048Y0035866D01*
X0024334Y0035912D01*
X0024621Y0035951D01*
X0024909Y0035983D01*
X0025198Y0036008D01*
X0025487Y0036026D01*
X0025777Y0036036D01*
X0026067Y0036040D01*
X0026357Y0036036D01*
X0026647Y0036026D01*
X0026936Y0036008D01*
X0027225Y0035983D01*
X0027513Y0035951D01*
X0027800Y0035912D01*
X0028086Y0035866D01*
X0028371Y0035813D01*
X0028655Y0035753D01*
X0028937Y0035686D01*
X0029217Y0035612D01*
X0029496Y0035531D01*
X0029772Y0035444D01*
X0030046Y0035350D01*
X0030318Y0035249D01*
X0030587Y0035141D01*
X0030853Y0035027D01*
X0031117Y0034906D01*
X0031377Y0034779D01*
X0031635Y0034645D01*
X0031889Y0034506D01*
X0032139Y0034360D01*
X0032386Y0034208D01*
X0032629Y0034049D01*
X0032868Y0033885D01*
X0033103Y0033716D01*
X0033334Y0033540D01*
X0033560Y0033359D01*
X0033782Y0033172D01*
X0033999Y0032980D01*
X0034211Y0032783D01*
X0034419Y0032581D01*
X0034621Y0032373D01*
X0034818Y0032161D01*
X0035010Y0031944D01*
X0035197Y0031722D01*
X0035378Y0031496D01*
X0035554Y0031265D01*
X0035723Y0031030D01*
X0035887Y0030791D01*
X0036046Y0030548D01*
X0036198Y0030301D01*
X0036344Y0030051D01*
X0036483Y0029797D01*
X0036617Y0029539D01*
X0036744Y0029279D01*
X0036865Y0029015D01*
X0036979Y0028749D01*
X0037087Y0028480D01*
X0037188Y0028208D01*
X0037282Y0027934D01*
X0037369Y0027658D01*
X0037450Y0027379D01*
X0037524Y0027099D01*
X0037591Y0026817D01*
X0037651Y0026533D01*
X0037704Y0026248D01*
X0037750Y0025962D01*
X0037789Y0025675D01*
X0037821Y0025387D01*
X0037846Y0025098D01*
X0037864Y0024809D01*
X0037874Y0024519D01*
X0037878Y0024229D01*
X0037874Y0023939D01*
X0037864Y0023649D01*
X0037846Y0023360D01*
X0037821Y0023071D01*
X0037789Y0022783D01*
X0037750Y0022496D01*
X0037704Y0022210D01*
X0037651Y0021925D01*
X0037591Y0021641D01*
X0037524Y0021359D01*
X0037450Y0021079D01*
X0037369Y0020800D01*
X0037282Y0020524D01*
X0037188Y0020250D01*
X0037087Y0019978D01*
X0036979Y0019709D01*
X0036865Y0019443D01*
X0036744Y0019179D01*
X0036617Y0018919D01*
X0036483Y0018661D01*
X0036344Y0018407D01*
X0036198Y0018157D01*
X0036046Y0017910D01*
X0035887Y0017667D01*
X0035723Y0017428D01*
X0035554Y0017193D01*
X0035378Y0016962D01*
X0035197Y0016736D01*
X0035010Y0016514D01*
X0034818Y0016297D01*
X0034621Y0016085D01*
X0034419Y0015877D01*
X0034211Y0015675D01*
X0033999Y0015478D01*
X0033782Y0015286D01*
X0033560Y0015099D01*
X0033334Y0014918D01*
X0033103Y0014742D01*
X0032868Y0014573D01*
X0032629Y0014409D01*
X0032386Y0014250D01*
X0032139Y0014098D01*
X0031889Y0013952D01*
X0031635Y0013813D01*
X0031377Y0013679D01*
X0031117Y0013552D01*
X0030853Y0013431D01*
X0030587Y0013317D01*
X0030318Y0013209D01*
X0030046Y0013108D01*
X0029772Y0013014D01*
X0029496Y0012927D01*
X0029217Y0012846D01*
X0028937Y0012772D01*
X0028655Y0012705D01*
X0028371Y0012645D01*
X0028086Y0012592D01*
X0027800Y0012546D01*
X0027513Y0012507D01*
X0027225Y0012475D01*
X0026936Y0012450D01*
X0026647Y0012432D01*
X0026357Y0012422D01*
X0026067Y0012418D01*
X0025777Y0012422D01*
X0025487Y0012432D01*
X0025198Y0012450D01*
X0024909Y0012475D01*
X0024621Y0012507D01*
X0024334Y0012546D01*
X0024048Y0012592D01*
X0023763Y0012645D01*
X0023479Y0012705D01*
X0023197Y0012772D01*
X0022917Y0012846D01*
X0022638Y0012927D01*
X0022362Y0013014D01*
X0022088Y0013108D01*
X0021816Y0013209D01*
X0021547Y0013317D01*
X0021281Y0013431D01*
X0021017Y0013552D01*
X0020757Y0013679D01*
X0020499Y0013813D01*
X0020245Y0013952D01*
X0019995Y0014098D01*
X0019748Y0014250D01*
X0019505Y0014409D01*
X0019266Y0014573D01*
X0019031Y0014742D01*
X0018800Y0014918D01*
X0018574Y0015099D01*
X0018352Y0015286D01*
X0018135Y0015478D01*
X0017923Y0015675D01*
X0017715Y0015877D01*
X0017513Y0016085D01*
X0017316Y0016297D01*
X0017124Y0016514D01*
X0016937Y0016736D01*
X0016756Y0016962D01*
X0016580Y0017193D01*
X0016411Y0017428D01*
X0016247Y0017667D01*
X0016088Y0017910D01*
X0015936Y0018157D01*
X0015790Y0018407D01*
X0015651Y0018661D01*
X0015517Y0018919D01*
X0015390Y0019179D01*
X0015269Y0019443D01*
X0015155Y0019709D01*
X0015047Y0019978D01*
X0014946Y0020250D01*
X0014852Y0020524D01*
X0014765Y0020800D01*
X0014684Y0021079D01*
X0014610Y0021359D01*
X0014543Y0021641D01*
X0014483Y0021925D01*
X0014430Y0022210D01*
X0014384Y0022496D01*
X0014345Y0022783D01*
X0014313Y0023071D01*
X0014288Y0023360D01*
X0014270Y0023649D01*
X0014260Y0023939D01*
X0014256Y0024229D01*
X0014256Y0189583D02*
X0014260Y0189873D01*
X0014270Y0190163D01*
X0014288Y0190452D01*
X0014313Y0190741D01*
X0014345Y0191029D01*
X0014384Y0191316D01*
X0014430Y0191602D01*
X0014483Y0191887D01*
X0014543Y0192171D01*
X0014610Y0192453D01*
X0014684Y0192733D01*
X0014765Y0193012D01*
X0014852Y0193288D01*
X0014946Y0193562D01*
X0015047Y0193834D01*
X0015155Y0194103D01*
X0015269Y0194369D01*
X0015390Y0194633D01*
X0015517Y0194893D01*
X0015651Y0195151D01*
X0015790Y0195405D01*
X0015936Y0195655D01*
X0016088Y0195902D01*
X0016247Y0196145D01*
X0016411Y0196384D01*
X0016580Y0196619D01*
X0016756Y0196850D01*
X0016937Y0197076D01*
X0017124Y0197298D01*
X0017316Y0197515D01*
X0017513Y0197727D01*
X0017715Y0197935D01*
X0017923Y0198137D01*
X0018135Y0198334D01*
X0018352Y0198526D01*
X0018574Y0198713D01*
X0018800Y0198894D01*
X0019031Y0199070D01*
X0019266Y0199239D01*
X0019505Y0199403D01*
X0019748Y0199562D01*
X0019995Y0199714D01*
X0020245Y0199860D01*
X0020499Y0199999D01*
X0020757Y0200133D01*
X0021017Y0200260D01*
X0021281Y0200381D01*
X0021547Y0200495D01*
X0021816Y0200603D01*
X0022088Y0200704D01*
X0022362Y0200798D01*
X0022638Y0200885D01*
X0022917Y0200966D01*
X0023197Y0201040D01*
X0023479Y0201107D01*
X0023763Y0201167D01*
X0024048Y0201220D01*
X0024334Y0201266D01*
X0024621Y0201305D01*
X0024909Y0201337D01*
X0025198Y0201362D01*
X0025487Y0201380D01*
X0025777Y0201390D01*
X0026067Y0201394D01*
X0026357Y0201390D01*
X0026647Y0201380D01*
X0026936Y0201362D01*
X0027225Y0201337D01*
X0027513Y0201305D01*
X0027800Y0201266D01*
X0028086Y0201220D01*
X0028371Y0201167D01*
X0028655Y0201107D01*
X0028937Y0201040D01*
X0029217Y0200966D01*
X0029496Y0200885D01*
X0029772Y0200798D01*
X0030046Y0200704D01*
X0030318Y0200603D01*
X0030587Y0200495D01*
X0030853Y0200381D01*
X0031117Y0200260D01*
X0031377Y0200133D01*
X0031635Y0199999D01*
X0031889Y0199860D01*
X0032139Y0199714D01*
X0032386Y0199562D01*
X0032629Y0199403D01*
X0032868Y0199239D01*
X0033103Y0199070D01*
X0033334Y0198894D01*
X0033560Y0198713D01*
X0033782Y0198526D01*
X0033999Y0198334D01*
X0034211Y0198137D01*
X0034419Y0197935D01*
X0034621Y0197727D01*
X0034818Y0197515D01*
X0035010Y0197298D01*
X0035197Y0197076D01*
X0035378Y0196850D01*
X0035554Y0196619D01*
X0035723Y0196384D01*
X0035887Y0196145D01*
X0036046Y0195902D01*
X0036198Y0195655D01*
X0036344Y0195405D01*
X0036483Y0195151D01*
X0036617Y0194893D01*
X0036744Y0194633D01*
X0036865Y0194369D01*
X0036979Y0194103D01*
X0037087Y0193834D01*
X0037188Y0193562D01*
X0037282Y0193288D01*
X0037369Y0193012D01*
X0037450Y0192733D01*
X0037524Y0192453D01*
X0037591Y0192171D01*
X0037651Y0191887D01*
X0037704Y0191602D01*
X0037750Y0191316D01*
X0037789Y0191029D01*
X0037821Y0190741D01*
X0037846Y0190452D01*
X0037864Y0190163D01*
X0037874Y0189873D01*
X0037878Y0189583D01*
X0037874Y0189293D01*
X0037864Y0189003D01*
X0037846Y0188714D01*
X0037821Y0188425D01*
X0037789Y0188137D01*
X0037750Y0187850D01*
X0037704Y0187564D01*
X0037651Y0187279D01*
X0037591Y0186995D01*
X0037524Y0186713D01*
X0037450Y0186433D01*
X0037369Y0186154D01*
X0037282Y0185878D01*
X0037188Y0185604D01*
X0037087Y0185332D01*
X0036979Y0185063D01*
X0036865Y0184797D01*
X0036744Y0184533D01*
X0036617Y0184273D01*
X0036483Y0184015D01*
X0036344Y0183761D01*
X0036198Y0183511D01*
X0036046Y0183264D01*
X0035887Y0183021D01*
X0035723Y0182782D01*
X0035554Y0182547D01*
X0035378Y0182316D01*
X0035197Y0182090D01*
X0035010Y0181868D01*
X0034818Y0181651D01*
X0034621Y0181439D01*
X0034419Y0181231D01*
X0034211Y0181029D01*
X0033999Y0180832D01*
X0033782Y0180640D01*
X0033560Y0180453D01*
X0033334Y0180272D01*
X0033103Y0180096D01*
X0032868Y0179927D01*
X0032629Y0179763D01*
X0032386Y0179604D01*
X0032139Y0179452D01*
X0031889Y0179306D01*
X0031635Y0179167D01*
X0031377Y0179033D01*
X0031117Y0178906D01*
X0030853Y0178785D01*
X0030587Y0178671D01*
X0030318Y0178563D01*
X0030046Y0178462D01*
X0029772Y0178368D01*
X0029496Y0178281D01*
X0029217Y0178200D01*
X0028937Y0178126D01*
X0028655Y0178059D01*
X0028371Y0177999D01*
X0028086Y0177946D01*
X0027800Y0177900D01*
X0027513Y0177861D01*
X0027225Y0177829D01*
X0026936Y0177804D01*
X0026647Y0177786D01*
X0026357Y0177776D01*
X0026067Y0177772D01*
X0025777Y0177776D01*
X0025487Y0177786D01*
X0025198Y0177804D01*
X0024909Y0177829D01*
X0024621Y0177861D01*
X0024334Y0177900D01*
X0024048Y0177946D01*
X0023763Y0177999D01*
X0023479Y0178059D01*
X0023197Y0178126D01*
X0022917Y0178200D01*
X0022638Y0178281D01*
X0022362Y0178368D01*
X0022088Y0178462D01*
X0021816Y0178563D01*
X0021547Y0178671D01*
X0021281Y0178785D01*
X0021017Y0178906D01*
X0020757Y0179033D01*
X0020499Y0179167D01*
X0020245Y0179306D01*
X0019995Y0179452D01*
X0019748Y0179604D01*
X0019505Y0179763D01*
X0019266Y0179927D01*
X0019031Y0180096D01*
X0018800Y0180272D01*
X0018574Y0180453D01*
X0018352Y0180640D01*
X0018135Y0180832D01*
X0017923Y0181029D01*
X0017715Y0181231D01*
X0017513Y0181439D01*
X0017316Y0181651D01*
X0017124Y0181868D01*
X0016937Y0182090D01*
X0016756Y0182316D01*
X0016580Y0182547D01*
X0016411Y0182782D01*
X0016247Y0183021D01*
X0016088Y0183264D01*
X0015936Y0183511D01*
X0015790Y0183761D01*
X0015651Y0184015D01*
X0015517Y0184273D01*
X0015390Y0184533D01*
X0015269Y0184797D01*
X0015155Y0185063D01*
X0015047Y0185332D01*
X0014946Y0185604D01*
X0014852Y0185878D01*
X0014765Y0186154D01*
X0014684Y0186433D01*
X0014610Y0186713D01*
X0014543Y0186995D01*
X0014483Y0187279D01*
X0014430Y0187564D01*
X0014384Y0187850D01*
X0014345Y0188137D01*
X0014313Y0188425D01*
X0014288Y0188714D01*
X0014270Y0189003D01*
X0014260Y0189293D01*
X0014256Y0189583D01*
X0179610Y0189583D02*
X0179614Y0189873D01*
X0179624Y0190163D01*
X0179642Y0190452D01*
X0179667Y0190741D01*
X0179699Y0191029D01*
X0179738Y0191316D01*
X0179784Y0191602D01*
X0179837Y0191887D01*
X0179897Y0192171D01*
X0179964Y0192453D01*
X0180038Y0192733D01*
X0180119Y0193012D01*
X0180206Y0193288D01*
X0180300Y0193562D01*
X0180401Y0193834D01*
X0180509Y0194103D01*
X0180623Y0194369D01*
X0180744Y0194633D01*
X0180871Y0194893D01*
X0181005Y0195151D01*
X0181144Y0195405D01*
X0181290Y0195655D01*
X0181442Y0195902D01*
X0181601Y0196145D01*
X0181765Y0196384D01*
X0181934Y0196619D01*
X0182110Y0196850D01*
X0182291Y0197076D01*
X0182478Y0197298D01*
X0182670Y0197515D01*
X0182867Y0197727D01*
X0183069Y0197935D01*
X0183277Y0198137D01*
X0183489Y0198334D01*
X0183706Y0198526D01*
X0183928Y0198713D01*
X0184154Y0198894D01*
X0184385Y0199070D01*
X0184620Y0199239D01*
X0184859Y0199403D01*
X0185102Y0199562D01*
X0185349Y0199714D01*
X0185599Y0199860D01*
X0185853Y0199999D01*
X0186111Y0200133D01*
X0186371Y0200260D01*
X0186635Y0200381D01*
X0186901Y0200495D01*
X0187170Y0200603D01*
X0187442Y0200704D01*
X0187716Y0200798D01*
X0187992Y0200885D01*
X0188271Y0200966D01*
X0188551Y0201040D01*
X0188833Y0201107D01*
X0189117Y0201167D01*
X0189402Y0201220D01*
X0189688Y0201266D01*
X0189975Y0201305D01*
X0190263Y0201337D01*
X0190552Y0201362D01*
X0190841Y0201380D01*
X0191131Y0201390D01*
X0191421Y0201394D01*
X0191711Y0201390D01*
X0192001Y0201380D01*
X0192290Y0201362D01*
X0192579Y0201337D01*
X0192867Y0201305D01*
X0193154Y0201266D01*
X0193440Y0201220D01*
X0193725Y0201167D01*
X0194009Y0201107D01*
X0194291Y0201040D01*
X0194571Y0200966D01*
X0194850Y0200885D01*
X0195126Y0200798D01*
X0195400Y0200704D01*
X0195672Y0200603D01*
X0195941Y0200495D01*
X0196207Y0200381D01*
X0196471Y0200260D01*
X0196731Y0200133D01*
X0196989Y0199999D01*
X0197243Y0199860D01*
X0197493Y0199714D01*
X0197740Y0199562D01*
X0197983Y0199403D01*
X0198222Y0199239D01*
X0198457Y0199070D01*
X0198688Y0198894D01*
X0198914Y0198713D01*
X0199136Y0198526D01*
X0199353Y0198334D01*
X0199565Y0198137D01*
X0199773Y0197935D01*
X0199975Y0197727D01*
X0200172Y0197515D01*
X0200364Y0197298D01*
X0200551Y0197076D01*
X0200732Y0196850D01*
X0200908Y0196619D01*
X0201077Y0196384D01*
X0201241Y0196145D01*
X0201400Y0195902D01*
X0201552Y0195655D01*
X0201698Y0195405D01*
X0201837Y0195151D01*
X0201971Y0194893D01*
X0202098Y0194633D01*
X0202219Y0194369D01*
X0202333Y0194103D01*
X0202441Y0193834D01*
X0202542Y0193562D01*
X0202636Y0193288D01*
X0202723Y0193012D01*
X0202804Y0192733D01*
X0202878Y0192453D01*
X0202945Y0192171D01*
X0203005Y0191887D01*
X0203058Y0191602D01*
X0203104Y0191316D01*
X0203143Y0191029D01*
X0203175Y0190741D01*
X0203200Y0190452D01*
X0203218Y0190163D01*
X0203228Y0189873D01*
X0203232Y0189583D01*
X0203228Y0189293D01*
X0203218Y0189003D01*
X0203200Y0188714D01*
X0203175Y0188425D01*
X0203143Y0188137D01*
X0203104Y0187850D01*
X0203058Y0187564D01*
X0203005Y0187279D01*
X0202945Y0186995D01*
X0202878Y0186713D01*
X0202804Y0186433D01*
X0202723Y0186154D01*
X0202636Y0185878D01*
X0202542Y0185604D01*
X0202441Y0185332D01*
X0202333Y0185063D01*
X0202219Y0184797D01*
X0202098Y0184533D01*
X0201971Y0184273D01*
X0201837Y0184015D01*
X0201698Y0183761D01*
X0201552Y0183511D01*
X0201400Y0183264D01*
X0201241Y0183021D01*
X0201077Y0182782D01*
X0200908Y0182547D01*
X0200732Y0182316D01*
X0200551Y0182090D01*
X0200364Y0181868D01*
X0200172Y0181651D01*
X0199975Y0181439D01*
X0199773Y0181231D01*
X0199565Y0181029D01*
X0199353Y0180832D01*
X0199136Y0180640D01*
X0198914Y0180453D01*
X0198688Y0180272D01*
X0198457Y0180096D01*
X0198222Y0179927D01*
X0197983Y0179763D01*
X0197740Y0179604D01*
X0197493Y0179452D01*
X0197243Y0179306D01*
X0196989Y0179167D01*
X0196731Y0179033D01*
X0196471Y0178906D01*
X0196207Y0178785D01*
X0195941Y0178671D01*
X0195672Y0178563D01*
X0195400Y0178462D01*
X0195126Y0178368D01*
X0194850Y0178281D01*
X0194571Y0178200D01*
X0194291Y0178126D01*
X0194009Y0178059D01*
X0193725Y0177999D01*
X0193440Y0177946D01*
X0193154Y0177900D01*
X0192867Y0177861D01*
X0192579Y0177829D01*
X0192290Y0177804D01*
X0192001Y0177786D01*
X0191711Y0177776D01*
X0191421Y0177772D01*
X0191131Y0177776D01*
X0190841Y0177786D01*
X0190552Y0177804D01*
X0190263Y0177829D01*
X0189975Y0177861D01*
X0189688Y0177900D01*
X0189402Y0177946D01*
X0189117Y0177999D01*
X0188833Y0178059D01*
X0188551Y0178126D01*
X0188271Y0178200D01*
X0187992Y0178281D01*
X0187716Y0178368D01*
X0187442Y0178462D01*
X0187170Y0178563D01*
X0186901Y0178671D01*
X0186635Y0178785D01*
X0186371Y0178906D01*
X0186111Y0179033D01*
X0185853Y0179167D01*
X0185599Y0179306D01*
X0185349Y0179452D01*
X0185102Y0179604D01*
X0184859Y0179763D01*
X0184620Y0179927D01*
X0184385Y0180096D01*
X0184154Y0180272D01*
X0183928Y0180453D01*
X0183706Y0180640D01*
X0183489Y0180832D01*
X0183277Y0181029D01*
X0183069Y0181231D01*
X0182867Y0181439D01*
X0182670Y0181651D01*
X0182478Y0181868D01*
X0182291Y0182090D01*
X0182110Y0182316D01*
X0181934Y0182547D01*
X0181765Y0182782D01*
X0181601Y0183021D01*
X0181442Y0183264D01*
X0181290Y0183511D01*
X0181144Y0183761D01*
X0181005Y0184015D01*
X0180871Y0184273D01*
X0180744Y0184533D01*
X0180623Y0184797D01*
X0180509Y0185063D01*
X0180401Y0185332D01*
X0180300Y0185604D01*
X0180206Y0185878D01*
X0180119Y0186154D01*
X0180038Y0186433D01*
X0179964Y0186713D01*
X0179897Y0186995D01*
X0179837Y0187279D01*
X0179784Y0187564D01*
X0179738Y0187850D01*
X0179699Y0188137D01*
X0179667Y0188425D01*
X0179642Y0188714D01*
X0179624Y0189003D01*
X0179614Y0189293D01*
X0179610Y0189583D01*
D16*
X0104837Y0123250D02*
X0104837Y0116950D01*
X0104838Y0116950D02*
X0104824Y0116891D01*
X0104807Y0116833D01*
X0104786Y0116776D01*
X0104762Y0116720D01*
X0104734Y0116666D01*
X0104704Y0116614D01*
X0104670Y0116563D01*
X0104633Y0116515D01*
X0104594Y0116469D01*
X0104551Y0116426D01*
X0104507Y0116385D01*
X0104459Y0116347D01*
X0104410Y0116312D01*
X0104358Y0116280D01*
X0104305Y0116251D01*
X0104250Y0116225D01*
X0104194Y0116203D01*
X0104136Y0116184D01*
X0104077Y0116168D01*
X0104018Y0116157D01*
X0103958Y0116148D01*
X0103897Y0116144D01*
X0103837Y0116143D01*
X0103776Y0116146D01*
X0103716Y0116152D01*
X0103656Y0116162D01*
X0098144Y0116162D02*
X0098082Y0116152D01*
X0098019Y0116146D01*
X0097956Y0116143D01*
X0097893Y0116144D01*
X0097830Y0116150D01*
X0097768Y0116159D01*
X0097706Y0116172D01*
X0097645Y0116189D01*
X0097586Y0116210D01*
X0097528Y0116235D01*
X0097471Y0116263D01*
X0097417Y0116295D01*
X0097364Y0116330D01*
X0097314Y0116368D01*
X0097266Y0116409D01*
X0097221Y0116453D01*
X0097179Y0116500D01*
X0097140Y0116550D01*
X0097104Y0116602D01*
X0097072Y0116656D01*
X0097042Y0116711D01*
X0097017Y0116769D01*
X0096995Y0116828D01*
X0096977Y0116889D01*
X0096962Y0116950D01*
X0096963Y0116950D02*
X0096963Y0123250D01*
X0097638Y0123250D02*
X0097624Y0123309D01*
X0097607Y0123367D01*
X0097586Y0123424D01*
X0097562Y0123480D01*
X0097534Y0123534D01*
X0097504Y0123586D01*
X0097470Y0123637D01*
X0097433Y0123685D01*
X0097394Y0123731D01*
X0097351Y0123774D01*
X0097307Y0123815D01*
X0097259Y0123853D01*
X0097210Y0123888D01*
X0097158Y0123920D01*
X0097105Y0123949D01*
X0097050Y0123975D01*
X0096994Y0123997D01*
X0096936Y0124016D01*
X0096877Y0124032D01*
X0096818Y0124043D01*
X0096758Y0124052D01*
X0096697Y0124056D01*
X0096637Y0124057D01*
X0096576Y0124054D01*
X0096516Y0124048D01*
X0096456Y0124038D01*
X0097637Y0123250D02*
X0097637Y0116950D01*
X0097638Y0116950D02*
X0097624Y0116891D01*
X0097607Y0116833D01*
X0097586Y0116776D01*
X0097562Y0116720D01*
X0097534Y0116666D01*
X0097504Y0116614D01*
X0097470Y0116563D01*
X0097433Y0116515D01*
X0097394Y0116469D01*
X0097351Y0116426D01*
X0097307Y0116385D01*
X0097259Y0116347D01*
X0097210Y0116312D01*
X0097158Y0116280D01*
X0097105Y0116251D01*
X0097050Y0116225D01*
X0096994Y0116203D01*
X0096936Y0116184D01*
X0096877Y0116168D01*
X0096818Y0116157D01*
X0096758Y0116148D01*
X0096697Y0116144D01*
X0096637Y0116143D01*
X0096576Y0116146D01*
X0096516Y0116152D01*
X0096456Y0116162D01*
X0090944Y0116162D02*
X0090882Y0116152D01*
X0090819Y0116146D01*
X0090756Y0116143D01*
X0090693Y0116144D01*
X0090630Y0116150D01*
X0090568Y0116159D01*
X0090506Y0116172D01*
X0090445Y0116189D01*
X0090386Y0116210D01*
X0090328Y0116235D01*
X0090271Y0116263D01*
X0090217Y0116295D01*
X0090164Y0116330D01*
X0090114Y0116368D01*
X0090066Y0116409D01*
X0090021Y0116453D01*
X0089979Y0116500D01*
X0089940Y0116550D01*
X0089904Y0116602D01*
X0089872Y0116656D01*
X0089842Y0116711D01*
X0089817Y0116769D01*
X0089795Y0116828D01*
X0089777Y0116889D01*
X0089762Y0116950D01*
X0089763Y0116950D02*
X0089763Y0123250D01*
X0089762Y0123250D02*
X0089777Y0123311D01*
X0089795Y0123372D01*
X0089817Y0123431D01*
X0089842Y0123489D01*
X0089872Y0123544D01*
X0089904Y0123598D01*
X0089940Y0123650D01*
X0089979Y0123700D01*
X0090021Y0123747D01*
X0090066Y0123791D01*
X0090114Y0123832D01*
X0090164Y0123870D01*
X0090217Y0123905D01*
X0090271Y0123937D01*
X0090328Y0123965D01*
X0090386Y0123990D01*
X0090445Y0124011D01*
X0090506Y0124028D01*
X0090568Y0124041D01*
X0090630Y0124050D01*
X0090693Y0124056D01*
X0090756Y0124057D01*
X0090819Y0124054D01*
X0090882Y0124048D01*
X0090944Y0124038D01*
X0096962Y0123250D02*
X0096977Y0123311D01*
X0096995Y0123372D01*
X0097017Y0123431D01*
X0097042Y0123489D01*
X0097072Y0123544D01*
X0097104Y0123598D01*
X0097140Y0123650D01*
X0097179Y0123700D01*
X0097221Y0123747D01*
X0097266Y0123791D01*
X0097314Y0123832D01*
X0097364Y0123870D01*
X0097417Y0123905D01*
X0097471Y0123937D01*
X0097528Y0123965D01*
X0097586Y0123990D01*
X0097645Y0124011D01*
X0097706Y0124028D01*
X0097768Y0124041D01*
X0097830Y0124050D01*
X0097893Y0124056D01*
X0097956Y0124057D01*
X0098019Y0124054D01*
X0098082Y0124048D01*
X0098144Y0124038D01*
X0103656Y0124038D02*
X0103716Y0124048D01*
X0103776Y0124054D01*
X0103837Y0124057D01*
X0103897Y0124056D01*
X0103958Y0124052D01*
X0104018Y0124043D01*
X0104077Y0124032D01*
X0104136Y0124016D01*
X0104194Y0123997D01*
X0104250Y0123975D01*
X0104305Y0123949D01*
X0104358Y0123920D01*
X0104410Y0123888D01*
X0104459Y0123853D01*
X0104507Y0123815D01*
X0104551Y0123774D01*
X0104594Y0123731D01*
X0104633Y0123685D01*
X0104670Y0123637D01*
X0104704Y0123586D01*
X0104734Y0123534D01*
X0104762Y0123480D01*
X0104786Y0123424D01*
X0104807Y0123367D01*
X0104824Y0123309D01*
X0104838Y0123250D01*
M02*
