G75*
%MOIN*%
%OFA0B0*%
%FSLAX25Y25*%
%IPPOS*%
%LPD*%
%AMOC8*
5,1,8,0,0,1.08239X$1,22.5*
%
%ADD10C,0.01772*%
%ADD11R,0.06299X0.09843*%
%ADD12C,0.00000*%
%ADD13C,0.06000*%
%ADD14R,0.01969X0.01378*%
%ADD15R,0.01400X0.05800*%
%ADD16R,0.07087X0.03150*%
%ADD17R,0.04134X0.04252*%
%ADD18R,0.03937X0.04331*%
%ADD19R,0.04252X0.04134*%
%ADD20R,0.07874X0.05906*%
%ADD21OC8,0.06000*%
%ADD22R,0.05000X0.02500*%
%ADD23C,0.01600*%
%ADD24C,0.02400*%
%ADD25C,0.01000*%
%ADD26C,0.01500*%
%ADD27R,0.03562X0.03562*%
D10*
X0158704Y0066663D02*
X0160278Y0066663D01*
X0160278Y0070600D02*
X0158704Y0070600D01*
X0158704Y0074537D02*
X0160278Y0074537D01*
X0170122Y0074537D02*
X0171696Y0074537D01*
X0171696Y0070600D02*
X0170122Y0070600D01*
X0170122Y0066663D02*
X0171696Y0066663D01*
X0186504Y0066663D02*
X0188078Y0066663D01*
X0188078Y0070600D02*
X0186504Y0070600D01*
X0186504Y0074537D02*
X0188078Y0074537D01*
X0197922Y0074537D02*
X0199496Y0074537D01*
X0199496Y0070600D02*
X0197922Y0070600D01*
X0197922Y0066663D02*
X0199496Y0066663D01*
X0199396Y0139563D02*
X0197822Y0139563D01*
X0197822Y0143500D02*
X0199396Y0143500D01*
X0199396Y0147437D02*
X0197822Y0147437D01*
X0187978Y0147437D02*
X0186404Y0147437D01*
X0186404Y0143500D02*
X0187978Y0143500D01*
X0187978Y0139563D02*
X0186404Y0139563D01*
X0171696Y0139663D02*
X0170122Y0139663D01*
X0170122Y0143600D02*
X0171696Y0143600D01*
X0171696Y0147537D02*
X0170122Y0147537D01*
X0160278Y0147537D02*
X0158704Y0147537D01*
X0158704Y0143600D02*
X0160278Y0143600D01*
X0160278Y0139663D02*
X0158704Y0139663D01*
D11*
X0165200Y0143600D03*
X0192900Y0143500D03*
X0193000Y0070600D03*
X0165200Y0070600D03*
D12*
X0022111Y0008500D02*
X0010300Y0020311D01*
X0010300Y0193539D01*
X0022111Y0205350D01*
X0195339Y0205350D01*
X0207150Y0193539D01*
X0207150Y0020311D01*
X0195339Y0008500D01*
X0022111Y0008500D01*
X0019749Y0024248D02*
X0019751Y0024406D01*
X0019757Y0024564D01*
X0019767Y0024722D01*
X0019781Y0024880D01*
X0019799Y0025037D01*
X0019820Y0025194D01*
X0019846Y0025350D01*
X0019876Y0025506D01*
X0019909Y0025661D01*
X0019947Y0025814D01*
X0019988Y0025967D01*
X0020033Y0026119D01*
X0020082Y0026270D01*
X0020135Y0026419D01*
X0020191Y0026567D01*
X0020251Y0026713D01*
X0020315Y0026858D01*
X0020383Y0027001D01*
X0020454Y0027143D01*
X0020528Y0027283D01*
X0020606Y0027420D01*
X0020688Y0027556D01*
X0020772Y0027690D01*
X0020861Y0027821D01*
X0020952Y0027950D01*
X0021047Y0028077D01*
X0021144Y0028202D01*
X0021245Y0028324D01*
X0021349Y0028443D01*
X0021456Y0028560D01*
X0021566Y0028674D01*
X0021679Y0028785D01*
X0021794Y0028894D01*
X0021912Y0028999D01*
X0022033Y0029101D01*
X0022156Y0029201D01*
X0022282Y0029297D01*
X0022410Y0029390D01*
X0022540Y0029480D01*
X0022673Y0029566D01*
X0022808Y0029650D01*
X0022944Y0029729D01*
X0023083Y0029806D01*
X0023224Y0029878D01*
X0023366Y0029948D01*
X0023510Y0030013D01*
X0023656Y0030075D01*
X0023803Y0030133D01*
X0023952Y0030188D01*
X0024102Y0030239D01*
X0024253Y0030286D01*
X0024405Y0030329D01*
X0024558Y0030368D01*
X0024713Y0030404D01*
X0024868Y0030435D01*
X0025024Y0030463D01*
X0025180Y0030487D01*
X0025337Y0030507D01*
X0025495Y0030523D01*
X0025652Y0030535D01*
X0025811Y0030543D01*
X0025969Y0030547D01*
X0026127Y0030547D01*
X0026285Y0030543D01*
X0026444Y0030535D01*
X0026601Y0030523D01*
X0026759Y0030507D01*
X0026916Y0030487D01*
X0027072Y0030463D01*
X0027228Y0030435D01*
X0027383Y0030404D01*
X0027538Y0030368D01*
X0027691Y0030329D01*
X0027843Y0030286D01*
X0027994Y0030239D01*
X0028144Y0030188D01*
X0028293Y0030133D01*
X0028440Y0030075D01*
X0028586Y0030013D01*
X0028730Y0029948D01*
X0028872Y0029878D01*
X0029013Y0029806D01*
X0029152Y0029729D01*
X0029288Y0029650D01*
X0029423Y0029566D01*
X0029556Y0029480D01*
X0029686Y0029390D01*
X0029814Y0029297D01*
X0029940Y0029201D01*
X0030063Y0029101D01*
X0030184Y0028999D01*
X0030302Y0028894D01*
X0030417Y0028785D01*
X0030530Y0028674D01*
X0030640Y0028560D01*
X0030747Y0028443D01*
X0030851Y0028324D01*
X0030952Y0028202D01*
X0031049Y0028077D01*
X0031144Y0027950D01*
X0031235Y0027821D01*
X0031324Y0027690D01*
X0031408Y0027556D01*
X0031490Y0027420D01*
X0031568Y0027283D01*
X0031642Y0027143D01*
X0031713Y0027001D01*
X0031781Y0026858D01*
X0031845Y0026713D01*
X0031905Y0026567D01*
X0031961Y0026419D01*
X0032014Y0026270D01*
X0032063Y0026119D01*
X0032108Y0025967D01*
X0032149Y0025814D01*
X0032187Y0025661D01*
X0032220Y0025506D01*
X0032250Y0025350D01*
X0032276Y0025194D01*
X0032297Y0025037D01*
X0032315Y0024880D01*
X0032329Y0024722D01*
X0032339Y0024564D01*
X0032345Y0024406D01*
X0032347Y0024248D01*
X0032345Y0024090D01*
X0032339Y0023932D01*
X0032329Y0023774D01*
X0032315Y0023616D01*
X0032297Y0023459D01*
X0032276Y0023302D01*
X0032250Y0023146D01*
X0032220Y0022990D01*
X0032187Y0022835D01*
X0032149Y0022682D01*
X0032108Y0022529D01*
X0032063Y0022377D01*
X0032014Y0022226D01*
X0031961Y0022077D01*
X0031905Y0021929D01*
X0031845Y0021783D01*
X0031781Y0021638D01*
X0031713Y0021495D01*
X0031642Y0021353D01*
X0031568Y0021213D01*
X0031490Y0021076D01*
X0031408Y0020940D01*
X0031324Y0020806D01*
X0031235Y0020675D01*
X0031144Y0020546D01*
X0031049Y0020419D01*
X0030952Y0020294D01*
X0030851Y0020172D01*
X0030747Y0020053D01*
X0030640Y0019936D01*
X0030530Y0019822D01*
X0030417Y0019711D01*
X0030302Y0019602D01*
X0030184Y0019497D01*
X0030063Y0019395D01*
X0029940Y0019295D01*
X0029814Y0019199D01*
X0029686Y0019106D01*
X0029556Y0019016D01*
X0029423Y0018930D01*
X0029288Y0018846D01*
X0029152Y0018767D01*
X0029013Y0018690D01*
X0028872Y0018618D01*
X0028730Y0018548D01*
X0028586Y0018483D01*
X0028440Y0018421D01*
X0028293Y0018363D01*
X0028144Y0018308D01*
X0027994Y0018257D01*
X0027843Y0018210D01*
X0027691Y0018167D01*
X0027538Y0018128D01*
X0027383Y0018092D01*
X0027228Y0018061D01*
X0027072Y0018033D01*
X0026916Y0018009D01*
X0026759Y0017989D01*
X0026601Y0017973D01*
X0026444Y0017961D01*
X0026285Y0017953D01*
X0026127Y0017949D01*
X0025969Y0017949D01*
X0025811Y0017953D01*
X0025652Y0017961D01*
X0025495Y0017973D01*
X0025337Y0017989D01*
X0025180Y0018009D01*
X0025024Y0018033D01*
X0024868Y0018061D01*
X0024713Y0018092D01*
X0024558Y0018128D01*
X0024405Y0018167D01*
X0024253Y0018210D01*
X0024102Y0018257D01*
X0023952Y0018308D01*
X0023803Y0018363D01*
X0023656Y0018421D01*
X0023510Y0018483D01*
X0023366Y0018548D01*
X0023224Y0018618D01*
X0023083Y0018690D01*
X0022944Y0018767D01*
X0022808Y0018846D01*
X0022673Y0018930D01*
X0022540Y0019016D01*
X0022410Y0019106D01*
X0022282Y0019199D01*
X0022156Y0019295D01*
X0022033Y0019395D01*
X0021912Y0019497D01*
X0021794Y0019602D01*
X0021679Y0019711D01*
X0021566Y0019822D01*
X0021456Y0019936D01*
X0021349Y0020053D01*
X0021245Y0020172D01*
X0021144Y0020294D01*
X0021047Y0020419D01*
X0020952Y0020546D01*
X0020861Y0020675D01*
X0020772Y0020806D01*
X0020688Y0020940D01*
X0020606Y0021076D01*
X0020528Y0021213D01*
X0020454Y0021353D01*
X0020383Y0021495D01*
X0020315Y0021638D01*
X0020251Y0021783D01*
X0020191Y0021929D01*
X0020135Y0022077D01*
X0020082Y0022226D01*
X0020033Y0022377D01*
X0019988Y0022529D01*
X0019947Y0022682D01*
X0019909Y0022835D01*
X0019876Y0022990D01*
X0019846Y0023146D01*
X0019820Y0023302D01*
X0019799Y0023459D01*
X0019781Y0023616D01*
X0019767Y0023774D01*
X0019757Y0023932D01*
X0019751Y0024090D01*
X0019749Y0024248D01*
X0019749Y0189602D02*
X0019751Y0189760D01*
X0019757Y0189918D01*
X0019767Y0190076D01*
X0019781Y0190234D01*
X0019799Y0190391D01*
X0019820Y0190548D01*
X0019846Y0190704D01*
X0019876Y0190860D01*
X0019909Y0191015D01*
X0019947Y0191168D01*
X0019988Y0191321D01*
X0020033Y0191473D01*
X0020082Y0191624D01*
X0020135Y0191773D01*
X0020191Y0191921D01*
X0020251Y0192067D01*
X0020315Y0192212D01*
X0020383Y0192355D01*
X0020454Y0192497D01*
X0020528Y0192637D01*
X0020606Y0192774D01*
X0020688Y0192910D01*
X0020772Y0193044D01*
X0020861Y0193175D01*
X0020952Y0193304D01*
X0021047Y0193431D01*
X0021144Y0193556D01*
X0021245Y0193678D01*
X0021349Y0193797D01*
X0021456Y0193914D01*
X0021566Y0194028D01*
X0021679Y0194139D01*
X0021794Y0194248D01*
X0021912Y0194353D01*
X0022033Y0194455D01*
X0022156Y0194555D01*
X0022282Y0194651D01*
X0022410Y0194744D01*
X0022540Y0194834D01*
X0022673Y0194920D01*
X0022808Y0195004D01*
X0022944Y0195083D01*
X0023083Y0195160D01*
X0023224Y0195232D01*
X0023366Y0195302D01*
X0023510Y0195367D01*
X0023656Y0195429D01*
X0023803Y0195487D01*
X0023952Y0195542D01*
X0024102Y0195593D01*
X0024253Y0195640D01*
X0024405Y0195683D01*
X0024558Y0195722D01*
X0024713Y0195758D01*
X0024868Y0195789D01*
X0025024Y0195817D01*
X0025180Y0195841D01*
X0025337Y0195861D01*
X0025495Y0195877D01*
X0025652Y0195889D01*
X0025811Y0195897D01*
X0025969Y0195901D01*
X0026127Y0195901D01*
X0026285Y0195897D01*
X0026444Y0195889D01*
X0026601Y0195877D01*
X0026759Y0195861D01*
X0026916Y0195841D01*
X0027072Y0195817D01*
X0027228Y0195789D01*
X0027383Y0195758D01*
X0027538Y0195722D01*
X0027691Y0195683D01*
X0027843Y0195640D01*
X0027994Y0195593D01*
X0028144Y0195542D01*
X0028293Y0195487D01*
X0028440Y0195429D01*
X0028586Y0195367D01*
X0028730Y0195302D01*
X0028872Y0195232D01*
X0029013Y0195160D01*
X0029152Y0195083D01*
X0029288Y0195004D01*
X0029423Y0194920D01*
X0029556Y0194834D01*
X0029686Y0194744D01*
X0029814Y0194651D01*
X0029940Y0194555D01*
X0030063Y0194455D01*
X0030184Y0194353D01*
X0030302Y0194248D01*
X0030417Y0194139D01*
X0030530Y0194028D01*
X0030640Y0193914D01*
X0030747Y0193797D01*
X0030851Y0193678D01*
X0030952Y0193556D01*
X0031049Y0193431D01*
X0031144Y0193304D01*
X0031235Y0193175D01*
X0031324Y0193044D01*
X0031408Y0192910D01*
X0031490Y0192774D01*
X0031568Y0192637D01*
X0031642Y0192497D01*
X0031713Y0192355D01*
X0031781Y0192212D01*
X0031845Y0192067D01*
X0031905Y0191921D01*
X0031961Y0191773D01*
X0032014Y0191624D01*
X0032063Y0191473D01*
X0032108Y0191321D01*
X0032149Y0191168D01*
X0032187Y0191015D01*
X0032220Y0190860D01*
X0032250Y0190704D01*
X0032276Y0190548D01*
X0032297Y0190391D01*
X0032315Y0190234D01*
X0032329Y0190076D01*
X0032339Y0189918D01*
X0032345Y0189760D01*
X0032347Y0189602D01*
X0032345Y0189444D01*
X0032339Y0189286D01*
X0032329Y0189128D01*
X0032315Y0188970D01*
X0032297Y0188813D01*
X0032276Y0188656D01*
X0032250Y0188500D01*
X0032220Y0188344D01*
X0032187Y0188189D01*
X0032149Y0188036D01*
X0032108Y0187883D01*
X0032063Y0187731D01*
X0032014Y0187580D01*
X0031961Y0187431D01*
X0031905Y0187283D01*
X0031845Y0187137D01*
X0031781Y0186992D01*
X0031713Y0186849D01*
X0031642Y0186707D01*
X0031568Y0186567D01*
X0031490Y0186430D01*
X0031408Y0186294D01*
X0031324Y0186160D01*
X0031235Y0186029D01*
X0031144Y0185900D01*
X0031049Y0185773D01*
X0030952Y0185648D01*
X0030851Y0185526D01*
X0030747Y0185407D01*
X0030640Y0185290D01*
X0030530Y0185176D01*
X0030417Y0185065D01*
X0030302Y0184956D01*
X0030184Y0184851D01*
X0030063Y0184749D01*
X0029940Y0184649D01*
X0029814Y0184553D01*
X0029686Y0184460D01*
X0029556Y0184370D01*
X0029423Y0184284D01*
X0029288Y0184200D01*
X0029152Y0184121D01*
X0029013Y0184044D01*
X0028872Y0183972D01*
X0028730Y0183902D01*
X0028586Y0183837D01*
X0028440Y0183775D01*
X0028293Y0183717D01*
X0028144Y0183662D01*
X0027994Y0183611D01*
X0027843Y0183564D01*
X0027691Y0183521D01*
X0027538Y0183482D01*
X0027383Y0183446D01*
X0027228Y0183415D01*
X0027072Y0183387D01*
X0026916Y0183363D01*
X0026759Y0183343D01*
X0026601Y0183327D01*
X0026444Y0183315D01*
X0026285Y0183307D01*
X0026127Y0183303D01*
X0025969Y0183303D01*
X0025811Y0183307D01*
X0025652Y0183315D01*
X0025495Y0183327D01*
X0025337Y0183343D01*
X0025180Y0183363D01*
X0025024Y0183387D01*
X0024868Y0183415D01*
X0024713Y0183446D01*
X0024558Y0183482D01*
X0024405Y0183521D01*
X0024253Y0183564D01*
X0024102Y0183611D01*
X0023952Y0183662D01*
X0023803Y0183717D01*
X0023656Y0183775D01*
X0023510Y0183837D01*
X0023366Y0183902D01*
X0023224Y0183972D01*
X0023083Y0184044D01*
X0022944Y0184121D01*
X0022808Y0184200D01*
X0022673Y0184284D01*
X0022540Y0184370D01*
X0022410Y0184460D01*
X0022282Y0184553D01*
X0022156Y0184649D01*
X0022033Y0184749D01*
X0021912Y0184851D01*
X0021794Y0184956D01*
X0021679Y0185065D01*
X0021566Y0185176D01*
X0021456Y0185290D01*
X0021349Y0185407D01*
X0021245Y0185526D01*
X0021144Y0185648D01*
X0021047Y0185773D01*
X0020952Y0185900D01*
X0020861Y0186029D01*
X0020772Y0186160D01*
X0020688Y0186294D01*
X0020606Y0186430D01*
X0020528Y0186567D01*
X0020454Y0186707D01*
X0020383Y0186849D01*
X0020315Y0186992D01*
X0020251Y0187137D01*
X0020191Y0187283D01*
X0020135Y0187431D01*
X0020082Y0187580D01*
X0020033Y0187731D01*
X0019988Y0187883D01*
X0019947Y0188036D01*
X0019909Y0188189D01*
X0019876Y0188344D01*
X0019846Y0188500D01*
X0019820Y0188656D01*
X0019799Y0188813D01*
X0019781Y0188970D01*
X0019767Y0189128D01*
X0019757Y0189286D01*
X0019751Y0189444D01*
X0019749Y0189602D01*
X0185103Y0189602D02*
X0185105Y0189760D01*
X0185111Y0189918D01*
X0185121Y0190076D01*
X0185135Y0190234D01*
X0185153Y0190391D01*
X0185174Y0190548D01*
X0185200Y0190704D01*
X0185230Y0190860D01*
X0185263Y0191015D01*
X0185301Y0191168D01*
X0185342Y0191321D01*
X0185387Y0191473D01*
X0185436Y0191624D01*
X0185489Y0191773D01*
X0185545Y0191921D01*
X0185605Y0192067D01*
X0185669Y0192212D01*
X0185737Y0192355D01*
X0185808Y0192497D01*
X0185882Y0192637D01*
X0185960Y0192774D01*
X0186042Y0192910D01*
X0186126Y0193044D01*
X0186215Y0193175D01*
X0186306Y0193304D01*
X0186401Y0193431D01*
X0186498Y0193556D01*
X0186599Y0193678D01*
X0186703Y0193797D01*
X0186810Y0193914D01*
X0186920Y0194028D01*
X0187033Y0194139D01*
X0187148Y0194248D01*
X0187266Y0194353D01*
X0187387Y0194455D01*
X0187510Y0194555D01*
X0187636Y0194651D01*
X0187764Y0194744D01*
X0187894Y0194834D01*
X0188027Y0194920D01*
X0188162Y0195004D01*
X0188298Y0195083D01*
X0188437Y0195160D01*
X0188578Y0195232D01*
X0188720Y0195302D01*
X0188864Y0195367D01*
X0189010Y0195429D01*
X0189157Y0195487D01*
X0189306Y0195542D01*
X0189456Y0195593D01*
X0189607Y0195640D01*
X0189759Y0195683D01*
X0189912Y0195722D01*
X0190067Y0195758D01*
X0190222Y0195789D01*
X0190378Y0195817D01*
X0190534Y0195841D01*
X0190691Y0195861D01*
X0190849Y0195877D01*
X0191006Y0195889D01*
X0191165Y0195897D01*
X0191323Y0195901D01*
X0191481Y0195901D01*
X0191639Y0195897D01*
X0191798Y0195889D01*
X0191955Y0195877D01*
X0192113Y0195861D01*
X0192270Y0195841D01*
X0192426Y0195817D01*
X0192582Y0195789D01*
X0192737Y0195758D01*
X0192892Y0195722D01*
X0193045Y0195683D01*
X0193197Y0195640D01*
X0193348Y0195593D01*
X0193498Y0195542D01*
X0193647Y0195487D01*
X0193794Y0195429D01*
X0193940Y0195367D01*
X0194084Y0195302D01*
X0194226Y0195232D01*
X0194367Y0195160D01*
X0194506Y0195083D01*
X0194642Y0195004D01*
X0194777Y0194920D01*
X0194910Y0194834D01*
X0195040Y0194744D01*
X0195168Y0194651D01*
X0195294Y0194555D01*
X0195417Y0194455D01*
X0195538Y0194353D01*
X0195656Y0194248D01*
X0195771Y0194139D01*
X0195884Y0194028D01*
X0195994Y0193914D01*
X0196101Y0193797D01*
X0196205Y0193678D01*
X0196306Y0193556D01*
X0196403Y0193431D01*
X0196498Y0193304D01*
X0196589Y0193175D01*
X0196678Y0193044D01*
X0196762Y0192910D01*
X0196844Y0192774D01*
X0196922Y0192637D01*
X0196996Y0192497D01*
X0197067Y0192355D01*
X0197135Y0192212D01*
X0197199Y0192067D01*
X0197259Y0191921D01*
X0197315Y0191773D01*
X0197368Y0191624D01*
X0197417Y0191473D01*
X0197462Y0191321D01*
X0197503Y0191168D01*
X0197541Y0191015D01*
X0197574Y0190860D01*
X0197604Y0190704D01*
X0197630Y0190548D01*
X0197651Y0190391D01*
X0197669Y0190234D01*
X0197683Y0190076D01*
X0197693Y0189918D01*
X0197699Y0189760D01*
X0197701Y0189602D01*
X0197699Y0189444D01*
X0197693Y0189286D01*
X0197683Y0189128D01*
X0197669Y0188970D01*
X0197651Y0188813D01*
X0197630Y0188656D01*
X0197604Y0188500D01*
X0197574Y0188344D01*
X0197541Y0188189D01*
X0197503Y0188036D01*
X0197462Y0187883D01*
X0197417Y0187731D01*
X0197368Y0187580D01*
X0197315Y0187431D01*
X0197259Y0187283D01*
X0197199Y0187137D01*
X0197135Y0186992D01*
X0197067Y0186849D01*
X0196996Y0186707D01*
X0196922Y0186567D01*
X0196844Y0186430D01*
X0196762Y0186294D01*
X0196678Y0186160D01*
X0196589Y0186029D01*
X0196498Y0185900D01*
X0196403Y0185773D01*
X0196306Y0185648D01*
X0196205Y0185526D01*
X0196101Y0185407D01*
X0195994Y0185290D01*
X0195884Y0185176D01*
X0195771Y0185065D01*
X0195656Y0184956D01*
X0195538Y0184851D01*
X0195417Y0184749D01*
X0195294Y0184649D01*
X0195168Y0184553D01*
X0195040Y0184460D01*
X0194910Y0184370D01*
X0194777Y0184284D01*
X0194642Y0184200D01*
X0194506Y0184121D01*
X0194367Y0184044D01*
X0194226Y0183972D01*
X0194084Y0183902D01*
X0193940Y0183837D01*
X0193794Y0183775D01*
X0193647Y0183717D01*
X0193498Y0183662D01*
X0193348Y0183611D01*
X0193197Y0183564D01*
X0193045Y0183521D01*
X0192892Y0183482D01*
X0192737Y0183446D01*
X0192582Y0183415D01*
X0192426Y0183387D01*
X0192270Y0183363D01*
X0192113Y0183343D01*
X0191955Y0183327D01*
X0191798Y0183315D01*
X0191639Y0183307D01*
X0191481Y0183303D01*
X0191323Y0183303D01*
X0191165Y0183307D01*
X0191006Y0183315D01*
X0190849Y0183327D01*
X0190691Y0183343D01*
X0190534Y0183363D01*
X0190378Y0183387D01*
X0190222Y0183415D01*
X0190067Y0183446D01*
X0189912Y0183482D01*
X0189759Y0183521D01*
X0189607Y0183564D01*
X0189456Y0183611D01*
X0189306Y0183662D01*
X0189157Y0183717D01*
X0189010Y0183775D01*
X0188864Y0183837D01*
X0188720Y0183902D01*
X0188578Y0183972D01*
X0188437Y0184044D01*
X0188298Y0184121D01*
X0188162Y0184200D01*
X0188027Y0184284D01*
X0187894Y0184370D01*
X0187764Y0184460D01*
X0187636Y0184553D01*
X0187510Y0184649D01*
X0187387Y0184749D01*
X0187266Y0184851D01*
X0187148Y0184956D01*
X0187033Y0185065D01*
X0186920Y0185176D01*
X0186810Y0185290D01*
X0186703Y0185407D01*
X0186599Y0185526D01*
X0186498Y0185648D01*
X0186401Y0185773D01*
X0186306Y0185900D01*
X0186215Y0186029D01*
X0186126Y0186160D01*
X0186042Y0186294D01*
X0185960Y0186430D01*
X0185882Y0186567D01*
X0185808Y0186707D01*
X0185737Y0186849D01*
X0185669Y0186992D01*
X0185605Y0187137D01*
X0185545Y0187283D01*
X0185489Y0187431D01*
X0185436Y0187580D01*
X0185387Y0187731D01*
X0185342Y0187883D01*
X0185301Y0188036D01*
X0185263Y0188189D01*
X0185230Y0188344D01*
X0185200Y0188500D01*
X0185174Y0188656D01*
X0185153Y0188813D01*
X0185135Y0188970D01*
X0185121Y0189128D01*
X0185111Y0189286D01*
X0185105Y0189444D01*
X0185103Y0189602D01*
X0185103Y0024248D02*
X0185105Y0024406D01*
X0185111Y0024564D01*
X0185121Y0024722D01*
X0185135Y0024880D01*
X0185153Y0025037D01*
X0185174Y0025194D01*
X0185200Y0025350D01*
X0185230Y0025506D01*
X0185263Y0025661D01*
X0185301Y0025814D01*
X0185342Y0025967D01*
X0185387Y0026119D01*
X0185436Y0026270D01*
X0185489Y0026419D01*
X0185545Y0026567D01*
X0185605Y0026713D01*
X0185669Y0026858D01*
X0185737Y0027001D01*
X0185808Y0027143D01*
X0185882Y0027283D01*
X0185960Y0027420D01*
X0186042Y0027556D01*
X0186126Y0027690D01*
X0186215Y0027821D01*
X0186306Y0027950D01*
X0186401Y0028077D01*
X0186498Y0028202D01*
X0186599Y0028324D01*
X0186703Y0028443D01*
X0186810Y0028560D01*
X0186920Y0028674D01*
X0187033Y0028785D01*
X0187148Y0028894D01*
X0187266Y0028999D01*
X0187387Y0029101D01*
X0187510Y0029201D01*
X0187636Y0029297D01*
X0187764Y0029390D01*
X0187894Y0029480D01*
X0188027Y0029566D01*
X0188162Y0029650D01*
X0188298Y0029729D01*
X0188437Y0029806D01*
X0188578Y0029878D01*
X0188720Y0029948D01*
X0188864Y0030013D01*
X0189010Y0030075D01*
X0189157Y0030133D01*
X0189306Y0030188D01*
X0189456Y0030239D01*
X0189607Y0030286D01*
X0189759Y0030329D01*
X0189912Y0030368D01*
X0190067Y0030404D01*
X0190222Y0030435D01*
X0190378Y0030463D01*
X0190534Y0030487D01*
X0190691Y0030507D01*
X0190849Y0030523D01*
X0191006Y0030535D01*
X0191165Y0030543D01*
X0191323Y0030547D01*
X0191481Y0030547D01*
X0191639Y0030543D01*
X0191798Y0030535D01*
X0191955Y0030523D01*
X0192113Y0030507D01*
X0192270Y0030487D01*
X0192426Y0030463D01*
X0192582Y0030435D01*
X0192737Y0030404D01*
X0192892Y0030368D01*
X0193045Y0030329D01*
X0193197Y0030286D01*
X0193348Y0030239D01*
X0193498Y0030188D01*
X0193647Y0030133D01*
X0193794Y0030075D01*
X0193940Y0030013D01*
X0194084Y0029948D01*
X0194226Y0029878D01*
X0194367Y0029806D01*
X0194506Y0029729D01*
X0194642Y0029650D01*
X0194777Y0029566D01*
X0194910Y0029480D01*
X0195040Y0029390D01*
X0195168Y0029297D01*
X0195294Y0029201D01*
X0195417Y0029101D01*
X0195538Y0028999D01*
X0195656Y0028894D01*
X0195771Y0028785D01*
X0195884Y0028674D01*
X0195994Y0028560D01*
X0196101Y0028443D01*
X0196205Y0028324D01*
X0196306Y0028202D01*
X0196403Y0028077D01*
X0196498Y0027950D01*
X0196589Y0027821D01*
X0196678Y0027690D01*
X0196762Y0027556D01*
X0196844Y0027420D01*
X0196922Y0027283D01*
X0196996Y0027143D01*
X0197067Y0027001D01*
X0197135Y0026858D01*
X0197199Y0026713D01*
X0197259Y0026567D01*
X0197315Y0026419D01*
X0197368Y0026270D01*
X0197417Y0026119D01*
X0197462Y0025967D01*
X0197503Y0025814D01*
X0197541Y0025661D01*
X0197574Y0025506D01*
X0197604Y0025350D01*
X0197630Y0025194D01*
X0197651Y0025037D01*
X0197669Y0024880D01*
X0197683Y0024722D01*
X0197693Y0024564D01*
X0197699Y0024406D01*
X0197701Y0024248D01*
X0197699Y0024090D01*
X0197693Y0023932D01*
X0197683Y0023774D01*
X0197669Y0023616D01*
X0197651Y0023459D01*
X0197630Y0023302D01*
X0197604Y0023146D01*
X0197574Y0022990D01*
X0197541Y0022835D01*
X0197503Y0022682D01*
X0197462Y0022529D01*
X0197417Y0022377D01*
X0197368Y0022226D01*
X0197315Y0022077D01*
X0197259Y0021929D01*
X0197199Y0021783D01*
X0197135Y0021638D01*
X0197067Y0021495D01*
X0196996Y0021353D01*
X0196922Y0021213D01*
X0196844Y0021076D01*
X0196762Y0020940D01*
X0196678Y0020806D01*
X0196589Y0020675D01*
X0196498Y0020546D01*
X0196403Y0020419D01*
X0196306Y0020294D01*
X0196205Y0020172D01*
X0196101Y0020053D01*
X0195994Y0019936D01*
X0195884Y0019822D01*
X0195771Y0019711D01*
X0195656Y0019602D01*
X0195538Y0019497D01*
X0195417Y0019395D01*
X0195294Y0019295D01*
X0195168Y0019199D01*
X0195040Y0019106D01*
X0194910Y0019016D01*
X0194777Y0018930D01*
X0194642Y0018846D01*
X0194506Y0018767D01*
X0194367Y0018690D01*
X0194226Y0018618D01*
X0194084Y0018548D01*
X0193940Y0018483D01*
X0193794Y0018421D01*
X0193647Y0018363D01*
X0193498Y0018308D01*
X0193348Y0018257D01*
X0193197Y0018210D01*
X0193045Y0018167D01*
X0192892Y0018128D01*
X0192737Y0018092D01*
X0192582Y0018061D01*
X0192426Y0018033D01*
X0192270Y0018009D01*
X0192113Y0017989D01*
X0191955Y0017973D01*
X0191798Y0017961D01*
X0191639Y0017953D01*
X0191481Y0017949D01*
X0191323Y0017949D01*
X0191165Y0017953D01*
X0191006Y0017961D01*
X0190849Y0017973D01*
X0190691Y0017989D01*
X0190534Y0018009D01*
X0190378Y0018033D01*
X0190222Y0018061D01*
X0190067Y0018092D01*
X0189912Y0018128D01*
X0189759Y0018167D01*
X0189607Y0018210D01*
X0189456Y0018257D01*
X0189306Y0018308D01*
X0189157Y0018363D01*
X0189010Y0018421D01*
X0188864Y0018483D01*
X0188720Y0018548D01*
X0188578Y0018618D01*
X0188437Y0018690D01*
X0188298Y0018767D01*
X0188162Y0018846D01*
X0188027Y0018930D01*
X0187894Y0019016D01*
X0187764Y0019106D01*
X0187636Y0019199D01*
X0187510Y0019295D01*
X0187387Y0019395D01*
X0187266Y0019497D01*
X0187148Y0019602D01*
X0187033Y0019711D01*
X0186920Y0019822D01*
X0186810Y0019936D01*
X0186703Y0020053D01*
X0186599Y0020172D01*
X0186498Y0020294D01*
X0186401Y0020419D01*
X0186306Y0020546D01*
X0186215Y0020675D01*
X0186126Y0020806D01*
X0186042Y0020940D01*
X0185960Y0021076D01*
X0185882Y0021213D01*
X0185808Y0021353D01*
X0185737Y0021495D01*
X0185669Y0021638D01*
X0185605Y0021783D01*
X0185545Y0021929D01*
X0185489Y0022077D01*
X0185436Y0022226D01*
X0185387Y0022377D01*
X0185342Y0022529D01*
X0185301Y0022682D01*
X0185263Y0022835D01*
X0185230Y0022990D01*
X0185200Y0023146D01*
X0185174Y0023302D01*
X0185153Y0023459D01*
X0185135Y0023616D01*
X0185121Y0023774D01*
X0185111Y0023932D01*
X0185105Y0024090D01*
X0185103Y0024248D01*
D13*
X0169100Y0021900D02*
X0169100Y0015900D01*
X0159100Y0015900D02*
X0159100Y0021900D01*
X0149100Y0021900D02*
X0149100Y0015900D01*
X0119500Y0015900D02*
X0119500Y0021900D01*
X0109500Y0021900D02*
X0109500Y0015900D01*
X0099500Y0015900D02*
X0099500Y0021900D01*
X0023143Y0046925D02*
X0017143Y0046925D01*
X0017143Y0056925D02*
X0023143Y0056925D01*
X0023143Y0066925D02*
X0017143Y0066925D01*
X0017143Y0076925D02*
X0023143Y0076925D01*
X0023143Y0086925D02*
X0017143Y0086925D01*
X0017143Y0096925D02*
X0023143Y0096925D01*
X0023143Y0116925D02*
X0017143Y0116925D01*
X0017143Y0126925D02*
X0023143Y0126925D01*
X0023143Y0136925D02*
X0017143Y0136925D01*
X0017143Y0146925D02*
X0023143Y0146925D01*
X0023143Y0156925D02*
X0017143Y0156925D01*
X0017143Y0166925D02*
X0023143Y0166925D01*
X0051700Y0191400D02*
X0051700Y0197400D01*
X0061700Y0197400D02*
X0061700Y0191400D01*
X0071700Y0191400D02*
X0071700Y0197400D01*
X0081700Y0197400D02*
X0081700Y0191400D01*
X0149100Y0191400D02*
X0149100Y0197400D01*
X0159100Y0197400D02*
X0159100Y0191400D01*
X0169100Y0191400D02*
X0169100Y0197400D01*
D14*
X0141386Y0146539D03*
X0141386Y0143980D03*
X0141386Y0141420D03*
X0141386Y0138861D03*
X0133414Y0138861D03*
X0133414Y0141420D03*
X0133414Y0143980D03*
X0133414Y0146539D03*
X0133514Y0075439D03*
X0133514Y0072880D03*
X0133514Y0070320D03*
X0133514Y0067761D03*
X0141486Y0067761D03*
X0141486Y0070320D03*
X0141486Y0072880D03*
X0141486Y0075439D03*
D15*
X0087400Y0095000D03*
X0084800Y0095000D03*
X0082300Y0095000D03*
X0079700Y0095000D03*
X0077100Y0095000D03*
X0074600Y0095000D03*
X0072000Y0095000D03*
X0069500Y0095000D03*
X0066900Y0095000D03*
X0064300Y0095000D03*
X0061800Y0095000D03*
X0059200Y0095000D03*
X0059200Y0118000D03*
X0061800Y0118000D03*
X0064300Y0118000D03*
X0066900Y0118000D03*
X0069500Y0118000D03*
X0072000Y0118000D03*
X0074600Y0118000D03*
X0077100Y0118000D03*
X0079700Y0118000D03*
X0082300Y0118000D03*
X0084800Y0118000D03*
X0087400Y0118000D03*
D16*
X0139006Y0114400D03*
X0139006Y0109400D03*
X0139006Y0104400D03*
X0139006Y0099400D03*
X0159794Y0099400D03*
X0159794Y0104400D03*
X0159794Y0109400D03*
X0159794Y0114400D03*
X0181706Y0114400D03*
X0181706Y0109400D03*
X0181706Y0104400D03*
X0181706Y0099400D03*
X0202494Y0099400D03*
X0202494Y0104400D03*
X0202494Y0109400D03*
X0202494Y0114400D03*
D17*
X0196345Y0153000D03*
X0189455Y0153000D03*
X0168645Y0153100D03*
X0161755Y0153100D03*
X0140845Y0151200D03*
X0133955Y0151200D03*
X0134055Y0063300D03*
X0140945Y0063300D03*
X0161755Y0061000D03*
X0168645Y0061000D03*
X0189555Y0061200D03*
X0196445Y0061200D03*
D18*
X0097746Y0077000D03*
X0091054Y0077000D03*
X0084546Y0077000D03*
X0077854Y0077000D03*
X0071346Y0077000D03*
X0064654Y0077000D03*
X0058146Y0077000D03*
X0051454Y0077000D03*
X0054654Y0068700D03*
X0061346Y0068700D03*
X0067954Y0068700D03*
X0074646Y0068700D03*
X0081154Y0068700D03*
X0087846Y0068700D03*
X0044646Y0125600D03*
X0037954Y0125600D03*
X0037954Y0135093D03*
X0044646Y0135093D03*
X0044746Y0144300D03*
X0038054Y0144300D03*
X0061254Y0144300D03*
X0067946Y0144300D03*
X0074654Y0144300D03*
X0081346Y0144300D03*
X0084546Y0136000D03*
X0077854Y0136000D03*
X0071346Y0136000D03*
X0064654Y0136000D03*
X0091354Y0136000D03*
X0098046Y0136000D03*
D19*
X0130300Y0110345D03*
X0130300Y0103455D03*
X0173100Y0103455D03*
X0173100Y0110345D03*
X0045200Y0110045D03*
X0045200Y0103155D03*
D20*
X0052700Y0100694D03*
X0052700Y0112506D03*
D21*
X0107000Y0111900D03*
X0107000Y0101900D03*
X0107000Y0061200D03*
X0107000Y0051200D03*
X0079500Y0044000D03*
X0069500Y0044000D03*
X0056500Y0044000D03*
X0046500Y0044000D03*
X0106900Y0152500D03*
X0106600Y0162500D03*
X0079500Y0169700D03*
X0069500Y0169700D03*
X0056500Y0169700D03*
X0046500Y0169700D03*
D22*
X0093700Y0121872D03*
X0093700Y0118328D03*
X0100900Y0118328D03*
X0100900Y0121872D03*
D23*
X0091354Y0136000D02*
X0091300Y0136054D01*
X0091300Y0138600D01*
X0089800Y0140100D01*
X0088300Y0140100D01*
X0081946Y0142846D02*
X0079200Y0140100D01*
X0078700Y0139600D01*
X0078700Y0136446D01*
X0067946Y0142846D02*
X0065200Y0140100D01*
X0065200Y0136046D01*
X0059100Y0118100D02*
X0054700Y0118100D01*
X0052700Y0116100D01*
X0052700Y0112506D01*
X0051194Y0112506D01*
X0049400Y0114300D01*
X0045100Y0114300D01*
X0045100Y0110145D01*
X0045200Y0110045D01*
X0045100Y0114300D02*
X0042600Y0114300D01*
X0040725Y0112425D01*
X0040725Y0092925D01*
X0041300Y0093500D01*
X0036300Y0098500D01*
X0036300Y0117700D01*
X0041300Y0122700D01*
X0041300Y0129200D02*
X0041300Y0132300D01*
X0038100Y0135239D02*
X0038100Y0140100D01*
X0038054Y0140146D01*
X0038054Y0144300D01*
X0038100Y0140100D02*
X0039100Y0140100D01*
X0041300Y0137900D01*
X0038100Y0135239D02*
X0037954Y0135093D01*
X0059100Y0118100D02*
X0059200Y0118000D01*
X0056600Y0104600D02*
X0043600Y0104600D01*
X0043600Y0095800D01*
X0047700Y0091700D01*
X0056600Y0091700D01*
X0056600Y0104600D01*
X0056600Y0104411D02*
X0043600Y0104411D01*
X0043600Y0102812D02*
X0056600Y0102812D01*
X0056600Y0101214D02*
X0043600Y0101214D01*
X0043600Y0099615D02*
X0056600Y0099615D01*
X0056600Y0098017D02*
X0043600Y0098017D01*
X0043600Y0096418D02*
X0056600Y0096418D01*
X0056600Y0094820D02*
X0044580Y0094820D01*
X0046179Y0093221D02*
X0056600Y0093221D01*
X0052700Y0095400D02*
X0052700Y0100694D01*
X0045200Y0098800D02*
X0045200Y0103155D01*
X0041300Y0093500D02*
X0041300Y0092800D01*
X0036300Y0087800D01*
X0036300Y0060500D01*
X0041300Y0073100D02*
X0041300Y0092800D01*
X0057446Y0075246D02*
X0055300Y0073100D01*
X0054800Y0072600D01*
X0054800Y0069046D01*
X0068300Y0069346D02*
X0068300Y0072100D01*
X0069300Y0073100D01*
X0071346Y0075146D01*
X0082300Y0072600D02*
X0082300Y0069546D01*
X0082300Y0072600D02*
X0082800Y0073100D01*
X0084946Y0075246D01*
X0098300Y0076854D02*
X0098300Y0073100D01*
X0095800Y0091500D02*
X0087100Y0091500D01*
X0087100Y0098500D01*
X0095800Y0098500D01*
X0095800Y0091500D01*
X0095800Y0091623D02*
X0087100Y0091623D01*
X0087100Y0093221D02*
X0095800Y0093221D01*
X0095800Y0094820D02*
X0087100Y0094820D01*
X0087400Y0095000D02*
X0087402Y0095039D01*
X0087408Y0095078D01*
X0087417Y0095116D01*
X0087430Y0095153D01*
X0087447Y0095189D01*
X0087467Y0095222D01*
X0087491Y0095254D01*
X0087517Y0095283D01*
X0087546Y0095309D01*
X0087578Y0095333D01*
X0087611Y0095353D01*
X0087647Y0095370D01*
X0087684Y0095383D01*
X0087722Y0095392D01*
X0087761Y0095398D01*
X0087800Y0095400D01*
X0090700Y0096300D01*
X0087100Y0096418D02*
X0095800Y0096418D01*
X0095800Y0098017D02*
X0087100Y0098017D01*
X0119800Y0083100D02*
X0119800Y0044600D01*
X0134100Y0059900D02*
X0134100Y0063145D01*
X0134000Y0063245D01*
X0134055Y0063300D01*
X0133514Y0063841D01*
X0133514Y0067761D01*
X0140600Y0062900D02*
X0140600Y0044600D01*
X0140600Y0062900D02*
X0141000Y0063300D01*
X0140945Y0063300D01*
X0141486Y0063841D01*
X0141486Y0067761D01*
X0141548Y0067700D01*
X0141500Y0067700D01*
X0141000Y0063300D02*
X0144800Y0063300D01*
X0145500Y0064000D01*
X0145500Y0071100D01*
X0143700Y0072900D01*
X0141507Y0072900D01*
X0141486Y0072880D01*
X0140945Y0063300D02*
X0141000Y0063245D01*
X0155800Y0062400D02*
X0155800Y0068800D01*
X0157600Y0070600D01*
X0159491Y0070600D01*
X0155800Y0062400D02*
X0155800Y0062300D01*
X0157100Y0061000D01*
X0161755Y0061000D01*
X0161800Y0061000D02*
X0161800Y0044600D01*
X0168600Y0057700D02*
X0168600Y0060955D01*
X0168645Y0061000D01*
X0173000Y0061000D01*
X0175200Y0063200D01*
X0175200Y0069400D01*
X0174000Y0070600D01*
X0170909Y0070600D01*
X0173100Y0083100D02*
X0173100Y0103300D01*
X0174800Y0103000D01*
X0178700Y0099100D01*
X0181706Y0099400D01*
X0174500Y0110500D02*
X0173100Y0110300D01*
X0173100Y0130000D01*
X0173600Y0143600D02*
X0170909Y0143600D01*
X0173600Y0143600D02*
X0174200Y0144200D01*
X0174200Y0151700D01*
X0172900Y0153000D01*
X0172800Y0153100D01*
X0168645Y0153100D01*
X0168600Y0153100D01*
X0168600Y0153400D01*
X0168600Y0168900D01*
X0161800Y0156300D02*
X0161800Y0153000D01*
X0161755Y0153100D02*
X0157600Y0153100D01*
X0157300Y0153100D01*
X0155500Y0151300D01*
X0155500Y0145300D01*
X0157200Y0143600D01*
X0159491Y0143600D01*
X0161755Y0152600D02*
X0161755Y0153100D01*
X0141400Y0151200D02*
X0141400Y0146552D01*
X0141386Y0146539D01*
X0141400Y0151200D02*
X0140845Y0151200D01*
X0140800Y0151245D01*
X0140800Y0154000D01*
X0139400Y0155400D01*
X0136800Y0155400D01*
X0134000Y0157400D02*
X0134000Y0151245D01*
X0133955Y0151200D01*
X0133414Y0150659D01*
X0133414Y0146539D01*
X0133855Y0151100D02*
X0131000Y0151100D01*
X0129800Y0149900D01*
X0129800Y0143320D01*
X0131700Y0141420D01*
X0133414Y0141420D01*
X0133855Y0151100D02*
X0133955Y0151200D01*
X0133955Y0151955D01*
X0134000Y0157400D02*
X0135900Y0159300D01*
X0135900Y0168900D01*
X0119800Y0168900D02*
X0119800Y0118500D01*
X0119800Y0083100D01*
X0130300Y0083100D02*
X0130300Y0103455D01*
X0131545Y0103455D01*
X0135600Y0099400D01*
X0139006Y0099400D01*
X0131645Y0110445D02*
X0135700Y0114500D01*
X0139006Y0114400D01*
X0131645Y0110445D02*
X0130300Y0110345D01*
X0130300Y0130000D01*
X0174500Y0110500D02*
X0178600Y0114600D01*
X0181706Y0114400D01*
X0185000Y0143500D02*
X0183600Y0144900D01*
X0183600Y0151000D01*
X0185600Y0153000D01*
X0189455Y0153000D01*
X0189400Y0156400D01*
X0196345Y0153000D02*
X0198845Y0155500D01*
X0200500Y0155500D01*
X0203300Y0158300D01*
X0203300Y0168900D01*
X0200300Y0153000D02*
X0196345Y0153000D01*
X0197200Y0152900D01*
X0200300Y0153000D02*
X0201700Y0151600D01*
X0201700Y0144400D01*
X0200800Y0143500D01*
X0198609Y0143500D01*
X0187191Y0143500D02*
X0185000Y0143500D01*
X0185900Y0070600D02*
X0187291Y0070600D01*
X0185900Y0070600D02*
X0183700Y0068400D01*
X0183700Y0064200D01*
X0186900Y0061000D01*
X0189555Y0061200D01*
X0189500Y0060900D02*
X0189700Y0060700D01*
X0189700Y0056200D01*
X0190800Y0055100D01*
X0197300Y0055100D01*
X0199200Y0053200D01*
X0199200Y0044600D01*
X0200900Y0060600D02*
X0200300Y0061200D01*
X0196445Y0061200D01*
X0198745Y0063500D01*
X0202000Y0063500D01*
X0204000Y0065500D01*
X0204000Y0069000D01*
X0202400Y0070600D01*
X0198709Y0070600D01*
X0198809Y0070500D01*
X0196445Y0061200D02*
X0195900Y0060455D01*
D24*
X0200900Y0060600D03*
X0204500Y0059800D03*
X0201300Y0067900D03*
X0199200Y0044600D03*
X0175100Y0059400D03*
X0172600Y0064600D03*
X0168600Y0057700D03*
X0161800Y0044600D03*
X0140600Y0044600D03*
X0134100Y0059900D03*
X0119800Y0044600D03*
X0114600Y0042000D03*
X0109900Y0042000D03*
X0114600Y0061200D03*
X0098300Y0073100D03*
X0109900Y0085700D03*
X0102400Y0088000D03*
X0093800Y0093400D03*
X0093800Y0096300D03*
X0090700Y0096300D03*
X0090700Y0093400D03*
X0082800Y0073100D03*
X0069300Y0073100D03*
X0055300Y0073100D03*
X0041300Y0073100D03*
X0044000Y0085500D03*
X0046500Y0095400D03*
X0049700Y0095400D03*
X0052700Y0095400D03*
X0055700Y0095400D03*
X0045200Y0098800D03*
X0033600Y0085500D03*
X0036300Y0060500D03*
X0093700Y0115700D03*
X0104500Y0125100D03*
X0107400Y0127400D03*
X0109800Y0125100D03*
X0104500Y0130000D03*
X0109800Y0118300D03*
X0117300Y0118300D03*
X0127000Y0127400D03*
X0130300Y0130000D03*
X0134300Y0109400D03*
X0130300Y0083100D03*
X0119800Y0083100D03*
X0169800Y0085700D03*
X0173100Y0083100D03*
X0177100Y0104400D03*
X0173100Y0130000D03*
X0186200Y0149500D03*
X0185800Y0156200D03*
X0189400Y0156400D03*
X0203300Y0168900D03*
X0168600Y0168900D03*
X0161800Y0156300D03*
X0158100Y0156100D03*
X0158100Y0149600D03*
X0144700Y0153900D03*
X0144700Y0158500D03*
X0136800Y0155400D03*
X0135900Y0168900D03*
X0119800Y0168900D03*
X0088300Y0140100D03*
X0079200Y0140100D03*
X0065200Y0140100D03*
X0041400Y0154600D03*
X0041400Y0159300D03*
X0038100Y0140100D03*
D25*
X0041400Y0141900D02*
X0044700Y0138600D01*
X0044700Y0135146D01*
X0044646Y0135093D01*
X0044654Y0135100D01*
X0047700Y0135100D01*
X0050500Y0132300D01*
X0050500Y0124800D01*
X0051900Y0123400D01*
X0060000Y0123400D01*
X0061800Y0121600D01*
X0061800Y0118000D01*
X0064300Y0118000D02*
X0064300Y0122000D01*
X0061200Y0125100D01*
X0053000Y0125100D01*
X0052200Y0125900D01*
X0052200Y0133600D01*
X0049600Y0136200D01*
X0049600Y0142800D01*
X0048100Y0144300D01*
X0044746Y0144300D01*
X0044701Y0144299D02*
X0044700Y0154900D01*
X0042700Y0156900D01*
X0042668Y0156900D01*
X0020143Y0156925D01*
X0020143Y0166925D02*
X0033775Y0166925D01*
X0041400Y0159300D01*
X0041400Y0154600D02*
X0041400Y0141900D01*
X0046800Y0151100D02*
X0046800Y0158500D01*
X0037300Y0168000D01*
X0037300Y0177600D01*
X0043300Y0183600D01*
X0059600Y0183600D01*
X0061700Y0185700D01*
X0061700Y0194400D01*
X0071700Y0194400D02*
X0071700Y0189200D01*
X0062900Y0180400D01*
X0046300Y0180400D01*
X0040400Y0174500D01*
X0040400Y0168200D01*
X0048700Y0159900D01*
X0048700Y0155500D01*
X0055800Y0148400D01*
X0055800Y0139500D01*
X0057600Y0137700D01*
X0057600Y0130500D01*
X0058700Y0129400D01*
X0068000Y0129400D01*
X0072000Y0125400D01*
X0072000Y0118000D01*
X0069500Y0118000D02*
X0069500Y0124200D01*
X0066700Y0127000D01*
X0056500Y0127000D01*
X0054400Y0129100D01*
X0054400Y0135800D01*
X0052300Y0137900D01*
X0052300Y0145600D01*
X0046800Y0151100D01*
X0051054Y0161146D02*
X0061300Y0150900D01*
X0061300Y0144346D01*
X0061254Y0144300D01*
X0061254Y0133446D01*
X0062700Y0132100D01*
X0069900Y0132100D01*
X0074600Y0127400D01*
X0074600Y0118000D01*
X0077100Y0118000D02*
X0077100Y0130000D01*
X0076300Y0130800D01*
X0073800Y0130800D01*
X0071346Y0133254D01*
X0071346Y0136000D01*
X0071300Y0136300D01*
X0071300Y0150600D01*
X0062900Y0159000D01*
X0062900Y0169800D01*
X0062900Y0171600D01*
X0072800Y0181500D01*
X0172300Y0181500D01*
X0183400Y0170400D01*
X0195700Y0170400D01*
X0199100Y0167000D01*
X0199100Y0160300D01*
X0197800Y0159000D01*
X0187800Y0159000D01*
X0185800Y0157000D01*
X0185800Y0156200D01*
X0185800Y0156400D01*
X0186200Y0149500D02*
X0186200Y0147928D01*
X0187191Y0147437D01*
X0192900Y0150600D02*
X0192900Y0155900D01*
X0194400Y0157400D01*
X0198900Y0157400D01*
X0201200Y0159700D01*
X0201200Y0167600D01*
X0196200Y0172600D01*
X0184200Y0172600D01*
X0173300Y0183500D01*
X0071000Y0183500D01*
X0065000Y0177500D01*
X0053700Y0177500D01*
X0051054Y0174854D01*
X0051054Y0169800D01*
X0050954Y0169700D01*
X0046500Y0169700D01*
X0051054Y0169800D02*
X0051054Y0161146D01*
X0056500Y0169700D02*
X0062800Y0169700D01*
X0062900Y0169800D01*
X0069500Y0169700D02*
X0074500Y0169700D01*
X0074600Y0169600D01*
X0074600Y0175700D01*
X0078100Y0179200D01*
X0151600Y0179200D01*
X0166700Y0164100D01*
X0166700Y0157100D01*
X0165200Y0155600D01*
X0165200Y0150700D01*
X0166100Y0149800D01*
X0168646Y0149800D01*
X0170909Y0147537D01*
X0169000Y0153000D02*
X0168600Y0153400D01*
X0169000Y0153000D02*
X0172900Y0153000D01*
X0165100Y0160100D02*
X0163600Y0158600D01*
X0160100Y0158600D01*
X0158100Y0156600D01*
X0158100Y0156100D01*
X0157600Y0153100D02*
X0157700Y0153000D01*
X0157600Y0153100D02*
X0157200Y0153100D01*
X0158100Y0149600D02*
X0159491Y0147909D01*
X0159491Y0147537D01*
X0159600Y0147646D01*
X0165100Y0160100D02*
X0165100Y0163300D01*
X0151000Y0177400D01*
X0090000Y0177400D01*
X0084600Y0172000D01*
X0084600Y0169600D01*
X0084500Y0169700D01*
X0079500Y0169700D01*
X0074600Y0169600D02*
X0074600Y0145054D01*
X0074654Y0144300D01*
X0074654Y0133146D01*
X0075300Y0132500D01*
X0078700Y0132500D01*
X0079800Y0131400D01*
X0079800Y0118100D01*
X0079700Y0118000D01*
X0082300Y0118000D02*
X0082300Y0130500D01*
X0084546Y0132746D01*
X0084546Y0136000D01*
X0084600Y0138154D01*
X0084600Y0169600D01*
X0102600Y0158500D02*
X0106600Y0162500D01*
X0102600Y0158500D02*
X0102600Y0148900D01*
X0107400Y0144100D01*
X0107400Y0127400D01*
X0086900Y0127400D01*
X0084800Y0125300D01*
X0084800Y0118000D01*
X0087400Y0118000D02*
X0087400Y0123300D01*
X0089200Y0125100D01*
X0102500Y0125100D01*
X0104500Y0125100D01*
X0109800Y0125100D01*
X0109800Y0149600D01*
X0106900Y0152500D01*
X0103400Y0136000D02*
X0098046Y0136000D01*
X0103400Y0136000D02*
X0104500Y0134900D01*
X0104500Y0130000D01*
X0100900Y0121872D02*
X0093700Y0121872D01*
X0093628Y0121800D01*
X0090600Y0121800D01*
X0089800Y0121000D01*
X0089800Y0114100D01*
X0088500Y0112800D01*
X0067900Y0112800D01*
X0067000Y0113700D01*
X0067000Y0118000D01*
X0066900Y0118000D01*
X0065200Y0136046D02*
X0064654Y0136000D01*
X0065200Y0140100D02*
X0065700Y0140100D01*
X0067946Y0142846D02*
X0067946Y0144300D01*
X0077854Y0136000D02*
X0078700Y0136446D01*
X0081946Y0142846D02*
X0081346Y0144300D01*
X0093700Y0118328D02*
X0093700Y0115700D01*
X0100900Y0118328D02*
X0109772Y0118328D01*
X0109800Y0118300D01*
X0107000Y0111900D02*
X0102400Y0107300D01*
X0102400Y0088000D01*
X0086400Y0088000D01*
X0084800Y0089600D01*
X0084800Y0095000D01*
X0082300Y0095000D02*
X0082300Y0086100D01*
X0084300Y0084100D01*
X0089300Y0084100D01*
X0091054Y0082346D01*
X0091054Y0077000D01*
X0091100Y0077000D01*
X0091100Y0069400D01*
X0092500Y0068000D01*
X0109200Y0068000D01*
X0109900Y0068700D01*
X0109900Y0085700D01*
X0109900Y0099000D01*
X0107000Y0101900D01*
X0117300Y0118300D02*
X0119600Y0118300D01*
X0119800Y0118500D01*
X0127000Y0127400D02*
X0127000Y0107300D01*
X0127400Y0106900D01*
X0133100Y0106900D01*
X0135600Y0104400D01*
X0139006Y0104400D01*
X0139006Y0109400D02*
X0134300Y0109400D01*
X0141386Y0138861D02*
X0145061Y0138861D01*
X0147200Y0141000D01*
X0147200Y0155100D01*
X0146100Y0156200D01*
X0142900Y0156200D01*
X0138300Y0160800D01*
X0138300Y0171300D01*
X0137300Y0172300D01*
X0116800Y0172300D01*
X0114600Y0170100D01*
X0114600Y0061200D01*
X0114600Y0042000D01*
X0129900Y0042000D01*
X0136100Y0048200D01*
X0136100Y0053500D01*
X0134500Y0055300D01*
X0131400Y0055300D01*
X0128400Y0058300D01*
X0128400Y0074700D01*
X0129100Y0075400D01*
X0133475Y0075400D01*
X0133514Y0075439D01*
X0133514Y0072880D02*
X0131420Y0072880D01*
X0130800Y0072259D01*
X0130800Y0058500D01*
X0132100Y0057200D01*
X0136300Y0057200D01*
X0138300Y0055200D01*
X0138300Y0046900D01*
X0131000Y0039600D01*
X0112200Y0039600D01*
X0085500Y0039600D01*
X0084000Y0041100D01*
X0084000Y0052600D01*
X0077900Y0058700D01*
X0077900Y0074800D01*
X0077854Y0077000D01*
X0077800Y0077454D01*
X0077800Y0081600D01*
X0077100Y0082300D01*
X0077100Y0095000D01*
X0074600Y0095000D02*
X0074600Y0068746D01*
X0074602Y0068734D01*
X0074606Y0068723D01*
X0074613Y0068713D01*
X0074623Y0068706D01*
X0074634Y0068702D01*
X0074646Y0068700D01*
X0074646Y0044000D01*
X0079500Y0044000D01*
X0074646Y0044000D02*
X0074646Y0039954D01*
X0078800Y0035800D01*
X0159100Y0035800D01*
X0165100Y0041800D01*
X0165100Y0063600D01*
X0164300Y0064400D01*
X0160300Y0064400D01*
X0159491Y0065209D01*
X0159491Y0066663D01*
X0159491Y0066609D01*
X0155800Y0062400D02*
X0157200Y0061000D01*
X0161800Y0061000D01*
X0168400Y0052700D02*
X0175100Y0059400D01*
X0172600Y0064600D02*
X0170909Y0066291D01*
X0170909Y0066663D01*
X0183900Y0068600D02*
X0183900Y0064100D01*
X0187100Y0060900D01*
X0189500Y0060900D01*
X0193000Y0058300D02*
X0193900Y0057400D01*
X0199000Y0057400D01*
X0201700Y0054700D01*
X0201700Y0043000D01*
X0200300Y0041600D01*
X0184000Y0041600D01*
X0172300Y0029900D01*
X0065700Y0029900D01*
X0065700Y0030000D01*
X0061346Y0034354D01*
X0061346Y0044000D01*
X0056500Y0044000D01*
X0061346Y0044000D02*
X0061346Y0068700D01*
X0061400Y0069500D01*
X0061400Y0081200D01*
X0062300Y0082100D01*
X0068600Y0082100D01*
X0069500Y0083000D01*
X0069500Y0095000D01*
X0072000Y0095000D02*
X0072000Y0082300D01*
X0070100Y0080400D01*
X0065800Y0080400D01*
X0064800Y0079400D01*
X0064800Y0077346D01*
X0064654Y0077000D01*
X0064600Y0076746D01*
X0064600Y0044000D01*
X0069500Y0044000D01*
X0064600Y0044000D02*
X0064600Y0039100D01*
X0069700Y0034000D01*
X0160200Y0034000D01*
X0168400Y0042200D01*
X0168400Y0052700D01*
X0183900Y0068600D02*
X0185900Y0070600D01*
X0187291Y0066663D02*
X0187291Y0065909D01*
X0188800Y0064500D01*
X0192600Y0064500D01*
X0193000Y0064000D01*
X0193000Y0058300D01*
X0198709Y0066663D02*
X0199946Y0067900D01*
X0201300Y0067900D01*
X0204500Y0059800D02*
X0204500Y0042800D01*
X0200800Y0039100D01*
X0185600Y0039100D01*
X0174700Y0028200D01*
X0058800Y0028200D01*
X0051454Y0035546D01*
X0051454Y0044000D01*
X0046500Y0044000D01*
X0051454Y0044000D02*
X0051454Y0077000D01*
X0051454Y0080754D01*
X0054500Y0083800D01*
X0065700Y0083800D01*
X0066900Y0085000D01*
X0066900Y0095000D01*
X0064300Y0095000D02*
X0064300Y0086600D01*
X0063200Y0085500D01*
X0044000Y0085500D01*
X0033600Y0085500D02*
X0033600Y0116900D01*
X0033600Y0124700D01*
X0034500Y0125600D01*
X0037954Y0125600D01*
X0041300Y0125400D02*
X0041500Y0125600D01*
X0044646Y0125600D01*
X0033600Y0116900D02*
X0020168Y0116900D01*
X0020143Y0116925D01*
X0052700Y0095400D02*
X0053100Y0095000D01*
X0059200Y0095000D01*
X0061800Y0095000D01*
X0079700Y0095000D02*
X0079700Y0083200D01*
X0081300Y0081600D01*
X0086800Y0081600D01*
X0087800Y0080600D01*
X0087800Y0069146D01*
X0087846Y0068700D01*
X0087846Y0045354D01*
X0091200Y0042000D01*
X0109900Y0042000D01*
X0112200Y0039600D02*
X0112200Y0051200D01*
X0107000Y0051200D01*
X0112200Y0051200D02*
X0112200Y0170900D01*
X0115500Y0174200D01*
X0139500Y0174200D01*
X0140300Y0173400D01*
X0140400Y0161400D01*
X0143400Y0158400D01*
X0144600Y0158400D01*
X0144700Y0158500D01*
X0144700Y0153900D02*
X0144700Y0142600D01*
X0143520Y0141420D01*
X0141386Y0141420D01*
X0141386Y0143980D02*
X0139780Y0143980D01*
X0137300Y0141500D01*
X0133493Y0141500D01*
X0133414Y0141420D01*
X0133434Y0144000D02*
X0137100Y0144000D01*
X0139639Y0146539D01*
X0141386Y0146539D01*
X0140886Y0150759D02*
X0140845Y0151200D01*
X0178300Y0109400D02*
X0175800Y0106900D01*
X0170700Y0106900D01*
X0169800Y0106000D01*
X0169800Y0085700D01*
X0177100Y0104400D02*
X0181706Y0104400D01*
X0181706Y0109400D02*
X0178300Y0109400D01*
X0141486Y0075439D02*
X0141486Y0072880D01*
X0141407Y0072800D01*
X0138300Y0072800D01*
X0135820Y0070320D01*
X0133514Y0070320D01*
X0133552Y0067800D02*
X0136200Y0067800D01*
X0138720Y0070320D01*
X0141486Y0070320D01*
X0133552Y0067800D02*
X0133514Y0067761D01*
X0098300Y0076854D02*
X0097746Y0077000D01*
X0084946Y0075246D02*
X0084546Y0077000D01*
X0082300Y0069546D02*
X0081154Y0068700D01*
X0071346Y0075146D02*
X0071346Y0077000D01*
X0068300Y0069346D02*
X0067954Y0068700D01*
X0057446Y0075246D02*
X0058146Y0077000D01*
X0054800Y0069046D02*
X0054654Y0068700D01*
X0020143Y0166925D02*
X0020068Y0167000D01*
X0192900Y0150600D02*
X0193900Y0149600D01*
X0196900Y0149600D01*
X0198609Y0147891D01*
X0198609Y0147437D01*
D26*
X0041300Y0137900D02*
X0041300Y0132300D01*
X0041300Y0129200D02*
X0041300Y0125400D01*
X0041300Y0122700D01*
D27*
X0040725Y0092925D03*
M02*
