G75*
%MOIN*%
%OFA0B0*%
%FSLAX25Y25*%
%IPPOS*%
%LPD*%
%AMOC8*
5,1,8,0,0,1.08239X$1,22.5*
%
%ADD10C,0.00000*%
%ADD11C,0.01200*%
%ADD12C,0.01600*%
%ADD13C,0.00600*%
%ADD14C,0.00500*%
D10*
X0065100Y0041600D02*
X0065100Y0064000D01*
X0049100Y0080000D01*
X0049100Y0211100D01*
X0141900Y0211100D01*
X0141900Y0080000D01*
X0125900Y0064000D01*
X0125900Y0041600D01*
X0065100Y0041600D01*
D11*
X0130794Y0087034D02*
X0131928Y0085900D01*
X0130794Y0087034D02*
X0130794Y0089303D01*
X0131928Y0090437D01*
X0133063Y0090437D01*
X0137600Y0085900D01*
X0137600Y0090437D01*
X0136466Y0093266D02*
X0137600Y0094401D01*
X0137600Y0096669D01*
X0136466Y0097803D01*
X0134197Y0097803D01*
X0133063Y0096669D01*
X0133063Y0095535D01*
X0134197Y0093266D01*
X0130794Y0093266D01*
X0130794Y0097803D01*
D12*
X0131000Y0100100D02*
X0131000Y0106700D01*
X0137400Y0106700D01*
X0137400Y0100100D01*
X0131000Y0100100D01*
X0131000Y0100745D02*
X0137400Y0100745D01*
X0137400Y0102343D02*
X0131000Y0102343D01*
X0131000Y0103942D02*
X0137400Y0103942D01*
X0137400Y0105540D02*
X0131000Y0105540D01*
D13*
X0134870Y0112187D02*
X0134870Y0113400D01*
X0134870Y0112187D02*
X0111600Y0112187D01*
X0114518Y0107203D02*
X0113950Y0106636D01*
X0113950Y0104367D01*
X0114518Y0103800D01*
X0115652Y0103800D01*
X0116219Y0104367D01*
X0117634Y0104367D02*
X0118201Y0103800D01*
X0119335Y0103800D01*
X0119902Y0104367D01*
X0119902Y0104934D01*
X0119335Y0105501D01*
X0118768Y0105501D01*
X0119335Y0105501D02*
X0119902Y0106069D01*
X0119902Y0106636D01*
X0119335Y0107203D01*
X0118201Y0107203D01*
X0117634Y0106636D01*
X0116219Y0106636D02*
X0115652Y0107203D01*
X0114518Y0107203D01*
X0109468Y0103800D02*
X0107200Y0103800D01*
X0108334Y0103800D02*
X0108334Y0107203D01*
X0107200Y0106069D01*
X0105785Y0103800D02*
X0103517Y0103800D01*
X0103517Y0107203D01*
X0093452Y0106636D02*
X0092885Y0107203D01*
X0091750Y0107203D01*
X0091183Y0106636D01*
X0089769Y0106636D02*
X0089769Y0105501D01*
X0089201Y0104934D01*
X0087500Y0104934D01*
X0087500Y0103800D02*
X0087500Y0107203D01*
X0089201Y0107203D01*
X0089769Y0106636D01*
X0088634Y0104934D02*
X0089769Y0103800D01*
X0091183Y0103800D02*
X0093452Y0106069D01*
X0093452Y0106636D01*
X0093452Y0103800D02*
X0091183Y0103800D01*
X0091802Y0098001D02*
X0091802Y0096599D01*
X0088998Y0096599D02*
X0088998Y0098001D01*
X0096018Y0090262D02*
X0095450Y0089695D01*
X0095450Y0087426D01*
X0096018Y0086859D01*
X0097152Y0086859D01*
X0097719Y0087426D01*
X0099134Y0086859D02*
X0101402Y0089128D01*
X0101402Y0089695D01*
X0100835Y0090262D01*
X0099701Y0090262D01*
X0099134Y0089695D01*
X0097719Y0089695D02*
X0097152Y0090262D01*
X0096018Y0090262D01*
X0099134Y0086859D02*
X0101402Y0086859D01*
X0109700Y0083200D02*
X0111000Y0084500D01*
X0116000Y0084500D01*
X0117300Y0083200D01*
X0114201Y0086598D02*
X0112799Y0086598D01*
X0112799Y0089402D02*
X0114201Y0089402D01*
X0120700Y0089803D02*
X0120700Y0086400D01*
X0120700Y0087534D02*
X0122401Y0087534D01*
X0122969Y0088101D01*
X0122969Y0089236D01*
X0122401Y0089803D01*
X0120700Y0089803D01*
X0121834Y0087534D02*
X0122969Y0086400D01*
X0124383Y0086400D02*
X0126652Y0086400D01*
X0125517Y0086400D02*
X0125517Y0089803D01*
X0124383Y0088669D01*
X0117300Y0075800D02*
X0116000Y0074500D01*
X0117300Y0073200D01*
X0116000Y0074500D02*
X0111000Y0074500D01*
X0109700Y0075800D01*
X0111000Y0074500D02*
X0109700Y0073200D01*
X0106535Y0073400D02*
X0104266Y0073400D01*
X0105401Y0073400D02*
X0105401Y0076803D01*
X0104266Y0075669D01*
X0102852Y0076236D02*
X0102852Y0075101D01*
X0102285Y0074534D01*
X0100583Y0074534D01*
X0100583Y0073400D02*
X0100583Y0076803D01*
X0102285Y0076803D01*
X0102852Y0076236D01*
X0099169Y0076803D02*
X0098034Y0076803D01*
X0098601Y0076803D02*
X0098601Y0073967D01*
X0098034Y0073400D01*
X0097467Y0073400D01*
X0096900Y0073967D01*
X0095885Y0067903D02*
X0094183Y0067903D01*
X0094183Y0064500D01*
X0094183Y0065634D02*
X0095885Y0065634D01*
X0096452Y0066201D01*
X0096452Y0067336D01*
X0095885Y0067903D01*
X0097866Y0067336D02*
X0098433Y0067903D01*
X0099568Y0067903D01*
X0100135Y0067336D01*
X0100135Y0066769D01*
X0097866Y0064500D01*
X0100135Y0064500D01*
X0098000Y0062800D02*
X0103000Y0062800D01*
X0105500Y0060300D01*
X0105500Y0045300D01*
X0103000Y0042800D01*
X0098000Y0042800D01*
X0095500Y0045300D01*
X0095500Y0060300D01*
X0093000Y0062800D01*
X0088000Y0062800D01*
X0085500Y0060300D01*
X0085500Y0045300D01*
X0083000Y0042800D01*
X0078000Y0042800D01*
X0075500Y0045300D01*
X0073000Y0042800D01*
X0068000Y0042800D01*
X0065500Y0045300D01*
X0065500Y0060300D01*
X0068000Y0062800D01*
X0073000Y0062800D01*
X0075500Y0060300D01*
X0075500Y0045300D01*
X0085500Y0045300D02*
X0088000Y0042800D01*
X0093000Y0042800D01*
X0095500Y0045300D01*
X0105500Y0045300D02*
X0108000Y0042800D01*
X0113000Y0042800D01*
X0115500Y0045300D01*
X0115500Y0060300D01*
X0113000Y0062800D01*
X0108000Y0062800D01*
X0105500Y0060300D01*
X0111000Y0064500D02*
X0109800Y0065800D01*
X0111000Y0064500D02*
X0116000Y0064500D01*
X0117400Y0065800D01*
X0118000Y0062800D02*
X0123000Y0062800D01*
X0125500Y0060300D01*
X0125500Y0045300D01*
X0123000Y0042800D01*
X0118000Y0042800D01*
X0115500Y0045300D01*
X0115500Y0060300D02*
X0118000Y0062800D01*
X0098000Y0062800D02*
X0095500Y0060300D01*
X0091634Y0064500D02*
X0092201Y0065067D01*
X0092201Y0067903D01*
X0091634Y0067903D02*
X0092769Y0067903D01*
X0091634Y0064500D02*
X0091067Y0064500D01*
X0090500Y0065067D01*
X0085500Y0060300D02*
X0083000Y0062800D01*
X0078000Y0062800D01*
X0075500Y0060300D01*
X0055400Y0080200D02*
X0055400Y0082469D01*
X0055400Y0081334D02*
X0051997Y0081334D01*
X0053131Y0080200D01*
X0053699Y0083883D02*
X0053699Y0085585D01*
X0054266Y0086152D01*
X0054833Y0086152D01*
X0055400Y0085585D01*
X0055400Y0084450D01*
X0054833Y0083883D01*
X0053699Y0083883D01*
X0052564Y0085017D01*
X0051997Y0086152D01*
X0054833Y0087566D02*
X0054833Y0088133D01*
X0055400Y0088133D01*
X0055400Y0087566D01*
X0054833Y0087566D01*
X0054833Y0089408D02*
X0052564Y0089408D01*
X0051997Y0089975D01*
X0051997Y0091109D01*
X0052564Y0091676D01*
X0054833Y0089408D01*
X0055400Y0089975D01*
X0055400Y0091109D01*
X0054833Y0091676D01*
X0052564Y0091676D01*
X0053699Y0093091D02*
X0051997Y0094792D01*
X0055400Y0094792D01*
X0053699Y0095360D02*
X0053699Y0093091D01*
X0054833Y0096774D02*
X0054833Y0097341D01*
X0055400Y0097341D01*
X0055400Y0096774D01*
X0054833Y0096774D01*
X0055400Y0098616D02*
X0053131Y0100884D01*
X0052564Y0100884D01*
X0051997Y0100317D01*
X0051997Y0099183D01*
X0052564Y0098616D01*
X0053699Y0102299D02*
X0053699Y0104567D01*
X0055400Y0104000D02*
X0051997Y0104000D01*
X0053699Y0102299D01*
X0055400Y0100884D02*
X0055400Y0098616D01*
X0055400Y0105982D02*
X0054833Y0105982D01*
X0054833Y0106549D01*
X0055400Y0106549D01*
X0055400Y0105982D01*
X0055400Y0107824D02*
X0053131Y0107824D01*
X0051997Y0108958D01*
X0053131Y0110092D01*
X0055400Y0110092D01*
X0053699Y0110092D02*
X0053699Y0107824D01*
X0056130Y0112187D02*
X0056130Y0113400D01*
X0056130Y0112187D02*
X0079500Y0112187D01*
X0074799Y0102769D02*
X0074799Y0100500D01*
X0075933Y0101634D02*
X0073664Y0101634D01*
X0072202Y0097434D02*
X0071068Y0097434D01*
X0070501Y0096866D01*
X0070501Y0094598D01*
X0071068Y0094031D01*
X0072202Y0094031D01*
X0072769Y0094598D01*
X0074184Y0094031D02*
X0076453Y0094031D01*
X0075318Y0094031D02*
X0075318Y0097434D01*
X0074184Y0096299D01*
X0072769Y0096866D02*
X0072202Y0097434D01*
X0072218Y0089603D02*
X0069949Y0089603D01*
X0069949Y0086200D01*
X0072218Y0086200D01*
X0071084Y0087901D02*
X0069949Y0087901D01*
X0068535Y0087334D02*
X0068535Y0086767D01*
X0067968Y0086200D01*
X0066833Y0086200D01*
X0066266Y0086767D01*
X0066833Y0087901D02*
X0067968Y0087901D01*
X0068535Y0087334D01*
X0068535Y0089036D02*
X0067968Y0089603D01*
X0066833Y0089603D01*
X0066266Y0089036D01*
X0066266Y0088469D01*
X0066833Y0087901D01*
X0064852Y0086200D02*
X0062583Y0086200D01*
X0062583Y0089603D01*
X0064852Y0089603D01*
X0063717Y0087901D02*
X0062583Y0087901D01*
X0061169Y0087901D02*
X0061169Y0089036D01*
X0060601Y0089603D01*
X0058900Y0089603D01*
X0058900Y0086200D01*
X0058900Y0087334D02*
X0060601Y0087334D01*
X0061169Y0087901D01*
X0060034Y0087334D02*
X0061169Y0086200D01*
X0073633Y0089603D02*
X0075901Y0089603D01*
X0074767Y0089603D02*
X0074767Y0086200D01*
X0074002Y0170645D02*
X0074002Y0174048D01*
X0072868Y0174048D02*
X0075137Y0174048D01*
X0076551Y0174048D02*
X0078820Y0174048D01*
X0078820Y0173481D01*
X0076551Y0171212D01*
X0076551Y0170645D01*
X0078820Y0170645D01*
X0080234Y0170645D02*
X0080234Y0174048D01*
X0081936Y0174048D01*
X0082503Y0173481D01*
X0082503Y0172913D01*
X0081936Y0172346D01*
X0080234Y0172346D01*
X0080234Y0170645D02*
X0081936Y0170645D01*
X0082503Y0171212D01*
X0082503Y0171779D01*
X0081936Y0172346D01*
X0083918Y0172346D02*
X0086186Y0172346D01*
X0087601Y0171779D02*
X0089302Y0171779D01*
X0089869Y0172346D01*
X0089869Y0173481D01*
X0089302Y0174048D01*
X0087601Y0174048D01*
X0087601Y0170645D01*
X0088735Y0171779D02*
X0089869Y0170645D01*
X0091284Y0170645D02*
X0091284Y0174048D01*
X0093553Y0174048D01*
X0092418Y0172346D02*
X0091284Y0172346D01*
X0094967Y0172346D02*
X0097236Y0172346D01*
X0098650Y0173481D02*
X0099217Y0174048D01*
X0100352Y0174048D01*
X0100919Y0173481D01*
X0100919Y0172913D01*
X0098650Y0170645D01*
X0100919Y0170645D01*
X0102333Y0171212D02*
X0102900Y0170645D01*
X0104035Y0170645D01*
X0104602Y0171212D01*
X0104602Y0171779D01*
X0104035Y0172346D01*
X0103468Y0172346D01*
X0104035Y0172346D02*
X0104602Y0172913D01*
X0104602Y0173481D01*
X0104035Y0174048D01*
X0102900Y0174048D01*
X0102333Y0173481D01*
X0106016Y0173481D02*
X0106584Y0174048D01*
X0107718Y0174048D01*
X0108285Y0173481D01*
X0108285Y0172913D01*
X0107718Y0172346D01*
X0108285Y0171779D01*
X0108285Y0171212D01*
X0107718Y0170645D01*
X0106584Y0170645D01*
X0106016Y0171212D01*
X0107151Y0172346D02*
X0107718Y0172346D01*
X0109700Y0172346D02*
X0111968Y0172346D01*
X0113383Y0172913D02*
X0114517Y0174048D01*
X0114517Y0170645D01*
X0113383Y0170645D02*
X0115651Y0170645D01*
X0117066Y0172346D02*
X0119335Y0172346D01*
X0120749Y0171212D02*
X0121316Y0170645D01*
X0122451Y0170645D01*
X0123018Y0171212D01*
X0123018Y0173481D02*
X0122451Y0174048D01*
X0121316Y0174048D01*
X0120749Y0173481D01*
X0120749Y0171212D01*
X0134870Y0181400D02*
X0134870Y0210613D01*
X0056130Y0210613D01*
X0056130Y0181100D01*
X0069185Y0172913D02*
X0069185Y0170645D01*
X0069185Y0172346D02*
X0071454Y0172346D01*
X0071454Y0172913D02*
X0071454Y0170645D01*
X0071454Y0172913D02*
X0070319Y0174048D01*
X0069185Y0172913D01*
D14*
X0060909Y0068926D02*
X0084531Y0068926D01*
X0084531Y0073257D01*
X0084531Y0080343D02*
X0084531Y0084674D01*
X0060909Y0084674D01*
X0060909Y0080343D01*
X0060909Y0073257D02*
X0060909Y0068926D01*
X0068783Y0076800D02*
X0068785Y0076925D01*
X0068791Y0077050D01*
X0068801Y0077174D01*
X0068815Y0077298D01*
X0068832Y0077422D01*
X0068854Y0077545D01*
X0068880Y0077667D01*
X0068909Y0077789D01*
X0068942Y0077909D01*
X0068980Y0078028D01*
X0069020Y0078147D01*
X0069065Y0078263D01*
X0069113Y0078378D01*
X0069165Y0078492D01*
X0069221Y0078604D01*
X0069280Y0078714D01*
X0069342Y0078822D01*
X0069408Y0078929D01*
X0069477Y0079033D01*
X0069550Y0079134D01*
X0069625Y0079234D01*
X0069704Y0079331D01*
X0069786Y0079425D01*
X0069871Y0079517D01*
X0069958Y0079606D01*
X0070049Y0079692D01*
X0070142Y0079775D01*
X0070238Y0079856D01*
X0070336Y0079933D01*
X0070436Y0080007D01*
X0070539Y0080078D01*
X0070644Y0080145D01*
X0070752Y0080210D01*
X0070861Y0080270D01*
X0070972Y0080328D01*
X0071085Y0080381D01*
X0071199Y0080431D01*
X0071315Y0080478D01*
X0071432Y0080520D01*
X0071551Y0080559D01*
X0071671Y0080595D01*
X0071792Y0080626D01*
X0071914Y0080654D01*
X0072036Y0080677D01*
X0072160Y0080697D01*
X0072284Y0080713D01*
X0072408Y0080725D01*
X0072533Y0080733D01*
X0072658Y0080737D01*
X0072782Y0080737D01*
X0072907Y0080733D01*
X0073032Y0080725D01*
X0073156Y0080713D01*
X0073280Y0080697D01*
X0073404Y0080677D01*
X0073526Y0080654D01*
X0073648Y0080626D01*
X0073769Y0080595D01*
X0073889Y0080559D01*
X0074008Y0080520D01*
X0074125Y0080478D01*
X0074241Y0080431D01*
X0074355Y0080381D01*
X0074468Y0080328D01*
X0074579Y0080270D01*
X0074689Y0080210D01*
X0074796Y0080145D01*
X0074901Y0080078D01*
X0075004Y0080007D01*
X0075104Y0079933D01*
X0075202Y0079856D01*
X0075298Y0079775D01*
X0075391Y0079692D01*
X0075482Y0079606D01*
X0075569Y0079517D01*
X0075654Y0079425D01*
X0075736Y0079331D01*
X0075815Y0079234D01*
X0075890Y0079134D01*
X0075963Y0079033D01*
X0076032Y0078929D01*
X0076098Y0078822D01*
X0076160Y0078714D01*
X0076219Y0078604D01*
X0076275Y0078492D01*
X0076327Y0078378D01*
X0076375Y0078263D01*
X0076420Y0078147D01*
X0076460Y0078028D01*
X0076498Y0077909D01*
X0076531Y0077789D01*
X0076560Y0077667D01*
X0076586Y0077545D01*
X0076608Y0077422D01*
X0076625Y0077298D01*
X0076639Y0077174D01*
X0076649Y0077050D01*
X0076655Y0076925D01*
X0076657Y0076800D01*
X0076655Y0076675D01*
X0076649Y0076550D01*
X0076639Y0076426D01*
X0076625Y0076302D01*
X0076608Y0076178D01*
X0076586Y0076055D01*
X0076560Y0075933D01*
X0076531Y0075811D01*
X0076498Y0075691D01*
X0076460Y0075572D01*
X0076420Y0075453D01*
X0076375Y0075337D01*
X0076327Y0075222D01*
X0076275Y0075108D01*
X0076219Y0074996D01*
X0076160Y0074886D01*
X0076098Y0074778D01*
X0076032Y0074671D01*
X0075963Y0074567D01*
X0075890Y0074466D01*
X0075815Y0074366D01*
X0075736Y0074269D01*
X0075654Y0074175D01*
X0075569Y0074083D01*
X0075482Y0073994D01*
X0075391Y0073908D01*
X0075298Y0073825D01*
X0075202Y0073744D01*
X0075104Y0073667D01*
X0075004Y0073593D01*
X0074901Y0073522D01*
X0074796Y0073455D01*
X0074688Y0073390D01*
X0074579Y0073330D01*
X0074468Y0073272D01*
X0074355Y0073219D01*
X0074241Y0073169D01*
X0074125Y0073122D01*
X0074008Y0073080D01*
X0073889Y0073041D01*
X0073769Y0073005D01*
X0073648Y0072974D01*
X0073526Y0072946D01*
X0073404Y0072923D01*
X0073280Y0072903D01*
X0073156Y0072887D01*
X0073032Y0072875D01*
X0072907Y0072867D01*
X0072782Y0072863D01*
X0072658Y0072863D01*
X0072533Y0072867D01*
X0072408Y0072875D01*
X0072284Y0072887D01*
X0072160Y0072903D01*
X0072036Y0072923D01*
X0071914Y0072946D01*
X0071792Y0072974D01*
X0071671Y0073005D01*
X0071551Y0073041D01*
X0071432Y0073080D01*
X0071315Y0073122D01*
X0071199Y0073169D01*
X0071085Y0073219D01*
X0070972Y0073272D01*
X0070861Y0073330D01*
X0070751Y0073390D01*
X0070644Y0073455D01*
X0070539Y0073522D01*
X0070436Y0073593D01*
X0070336Y0073667D01*
X0070238Y0073744D01*
X0070142Y0073825D01*
X0070049Y0073908D01*
X0069958Y0073994D01*
X0069871Y0074083D01*
X0069786Y0074175D01*
X0069704Y0074269D01*
X0069625Y0074366D01*
X0069550Y0074466D01*
X0069477Y0074567D01*
X0069408Y0074671D01*
X0069342Y0074778D01*
X0069280Y0074886D01*
X0069221Y0074996D01*
X0069165Y0075108D01*
X0069113Y0075222D01*
X0069065Y0075337D01*
X0069020Y0075453D01*
X0068980Y0075572D01*
X0068942Y0075691D01*
X0068909Y0075811D01*
X0068880Y0075933D01*
X0068854Y0076055D01*
X0068832Y0076178D01*
X0068815Y0076302D01*
X0068801Y0076426D01*
X0068791Y0076550D01*
X0068785Y0076675D01*
X0068783Y0076800D01*
X0077400Y0093600D02*
X0077400Y0097600D01*
X0084400Y0097600D02*
X0084400Y0093600D01*
M02*
