G75*
%MOIN*%
%OFA0B0*%
%FSLAX25Y25*%
%IPPOS*%
%LPD*%
%AMOC8*
5,1,8,0,0,1.08239X$1,22.5*
%
%ADD10C,0.00000*%
%ADD11C,0.04600*%
%ADD12C,0.01500*%
D10*
X0065100Y0041600D02*
X0065100Y0064000D01*
X0049100Y0080000D01*
X0049100Y0211100D01*
X0141900Y0211100D01*
X0141900Y0080000D01*
X0125900Y0064000D01*
X0125900Y0041600D01*
X0065100Y0041600D01*
D11*
X0084374Y0071519D02*
X0096651Y0083796D01*
X0099720Y0083796D01*
X0102790Y0080726D01*
X0102790Y0074588D01*
X0099720Y0071519D01*
X0084374Y0071519D02*
X0084374Y0083796D01*
X0087443Y0092697D02*
X0084374Y0095766D01*
X0084374Y0101905D01*
X0087443Y0104974D01*
X0093582Y0104974D01*
X0096651Y0101905D01*
X0096651Y0098835D01*
X0093582Y0092697D01*
X0102790Y0092697D01*
X0102790Y0104974D01*
X0093582Y0113875D02*
X0096651Y0116944D01*
X0096651Y0126152D01*
X0096651Y0135053D02*
X0096651Y0138122D01*
X0093582Y0141191D01*
X0096651Y0144261D01*
X0093582Y0147330D01*
X0084374Y0147330D01*
X0084374Y0141191D02*
X0093582Y0141191D01*
X0096651Y0135053D02*
X0084374Y0135053D01*
X0084374Y0126152D02*
X0084374Y0116944D01*
X0087443Y0113875D01*
X0093582Y0113875D01*
D12*
X0100876Y0149483D02*
X0100876Y0152536D01*
X0101894Y0153553D01*
X0102911Y0152536D01*
X0102911Y0150501D01*
X0103929Y0149483D01*
X0104946Y0150501D01*
X0104946Y0153553D01*
X0103929Y0156481D02*
X0101894Y0156481D01*
X0100876Y0157499D01*
X0100876Y0160551D01*
X0098841Y0160551D02*
X0104946Y0160551D01*
X0104946Y0157499D01*
X0103929Y0156481D01*
X0104946Y0163479D02*
X0101894Y0163479D01*
X0100876Y0164497D01*
X0100876Y0167549D01*
X0104946Y0167549D01*
X0104946Y0171495D02*
X0104946Y0173530D01*
X0103929Y0174547D01*
X0100876Y0174547D01*
X0100876Y0171495D01*
X0101894Y0170477D01*
X0102911Y0171495D01*
X0102911Y0174547D01*
X0102911Y0177475D02*
X0104946Y0179510D01*
X0104946Y0180528D01*
X0103929Y0183307D02*
X0104946Y0184324D01*
X0104946Y0186359D01*
X0103929Y0187377D01*
X0102911Y0187377D01*
X0102911Y0183307D01*
X0101894Y0183307D02*
X0103929Y0183307D01*
X0101894Y0183307D02*
X0100876Y0184324D01*
X0100876Y0186359D01*
X0100876Y0190305D02*
X0100876Y0191322D01*
X0101894Y0191322D01*
X0101894Y0190305D01*
X0100876Y0190305D01*
X0100876Y0193804D02*
X0100876Y0195839D01*
X0100876Y0194821D02*
X0104946Y0194821D01*
X0104946Y0193804D01*
X0106981Y0194821D02*
X0107999Y0194821D01*
X0103929Y0198469D02*
X0101894Y0198469D01*
X0100876Y0199487D01*
X0100876Y0201522D01*
X0101894Y0202539D01*
X0103929Y0202539D01*
X0104946Y0201522D01*
X0104946Y0199487D01*
X0103929Y0198469D01*
X0104946Y0177475D02*
X0100876Y0177475D01*
M02*
