G75*
%MOIN*%
%OFA0B0*%
%FSLAX25Y25*%
%IPPOS*%
%LPD*%
%AMOC8*
5,1,8,0,0,1.08239X$1,22.5*
%
%ADD10C,0.00000*%
%ADD11R,0.07874X0.05906*%
%ADD12R,0.04252X0.04134*%
%ADD13C,0.06000*%
%ADD14OC8,0.06000*%
%ADD15R,0.03543X0.03543*%
%ADD16R,0.03937X0.04331*%
%ADD17R,0.04331X0.03937*%
%ADD18R,0.03937X0.05512*%
%ADD19R,0.06693X0.02756*%
%ADD20R,0.02756X0.06693*%
%ADD21C,0.01600*%
%ADD22C,0.02400*%
%ADD23C,0.01000*%
%ADD24C,0.01500*%
D10*
X0065100Y0041600D02*
X0065100Y0064000D01*
X0049100Y0080000D01*
X0049100Y0211100D01*
X0141900Y0211100D01*
X0141900Y0080000D01*
X0125900Y0064000D01*
X0125900Y0041600D01*
X0065100Y0041600D01*
D11*
X0080900Y0089694D03*
X0080900Y0101506D03*
D12*
X0098500Y0100745D03*
X0098500Y0093855D03*
X0116700Y0093855D03*
X0116700Y0100745D03*
D13*
X0116500Y0079500D02*
X0110500Y0079500D01*
X0110500Y0069500D02*
X0116500Y0069500D01*
D14*
X0120500Y0057800D03*
X0120500Y0047800D03*
X0110500Y0047800D03*
X0110500Y0057800D03*
X0100500Y0057800D03*
X0100500Y0047800D03*
X0090500Y0047800D03*
X0090500Y0057800D03*
X0080500Y0057800D03*
X0080500Y0047800D03*
X0070500Y0047800D03*
X0070500Y0057800D03*
D15*
X0105900Y0094150D03*
X0105900Y0100450D03*
D16*
X0110154Y0088000D03*
X0116846Y0088000D03*
D17*
X0090400Y0093954D03*
X0090400Y0100646D03*
D18*
X0086500Y0076800D03*
X0058941Y0076800D03*
D19*
X0056130Y0115731D03*
X0056130Y0119668D03*
X0056130Y0123605D03*
X0056130Y0127542D03*
X0056130Y0131479D03*
X0056130Y0135416D03*
X0056130Y0139353D03*
X0056130Y0143290D03*
X0056130Y0147227D03*
X0056130Y0151164D03*
X0056130Y0155101D03*
X0056130Y0159038D03*
X0056130Y0162975D03*
X0056130Y0166912D03*
X0056130Y0170849D03*
X0056130Y0174786D03*
X0056130Y0178723D03*
X0134870Y0178723D03*
X0134870Y0174786D03*
X0134870Y0170849D03*
X0134870Y0166912D03*
X0134870Y0162975D03*
X0134870Y0159038D03*
X0134870Y0155101D03*
X0134870Y0151164D03*
X0134870Y0147227D03*
X0134870Y0143290D03*
X0134870Y0139353D03*
X0134870Y0135416D03*
X0134870Y0131479D03*
X0134870Y0127542D03*
X0134870Y0123605D03*
X0134870Y0119668D03*
X0134870Y0115731D03*
D20*
X0109280Y0112187D03*
X0105343Y0112187D03*
X0101406Y0112187D03*
X0097469Y0112187D03*
X0093531Y0112187D03*
X0089594Y0112187D03*
X0085657Y0112187D03*
X0081720Y0112187D03*
D21*
X0059401Y0072244D02*
X0065846Y0065800D01*
X0066900Y0064746D01*
X0066900Y0060988D01*
X0068512Y0062600D01*
X0070300Y0062600D01*
X0070300Y0058000D01*
X0070700Y0058000D01*
X0070700Y0062600D01*
X0072488Y0062600D01*
X0075300Y0059788D01*
X0075300Y0058000D01*
X0070700Y0058000D01*
X0070700Y0057600D01*
X0075300Y0057600D01*
X0075300Y0055812D01*
X0072488Y0053000D01*
X0070700Y0053000D01*
X0070700Y0057600D01*
X0070300Y0057600D01*
X0070300Y0053000D01*
X0068512Y0053000D01*
X0066900Y0054612D01*
X0066900Y0050423D01*
X0068677Y0052200D01*
X0072323Y0052200D01*
X0074900Y0049623D01*
X0074900Y0045977D01*
X0072323Y0043400D01*
X0068677Y0043400D01*
X0066900Y0045177D01*
X0066900Y0043400D01*
X0098112Y0043400D01*
X0095700Y0045812D01*
X0095700Y0047600D01*
X0100300Y0047600D01*
X0100300Y0048000D01*
X0095700Y0048000D01*
X0095700Y0049788D01*
X0095912Y0050000D01*
X0095387Y0050000D01*
X0094900Y0049513D01*
X0094900Y0045977D01*
X0092323Y0043400D01*
X0088677Y0043400D01*
X0086100Y0045977D01*
X0086100Y0049623D01*
X0088277Y0051800D01*
X0087187Y0051800D01*
X0084900Y0049513D01*
X0084900Y0045977D01*
X0082323Y0043400D01*
X0078677Y0043400D01*
X0076100Y0045977D01*
X0076100Y0049623D01*
X0078677Y0052200D01*
X0082213Y0052200D01*
X0084500Y0054487D01*
X0085613Y0055600D01*
X0086477Y0055600D01*
X0086100Y0055977D01*
X0086100Y0059623D01*
X0088595Y0062118D01*
X0086713Y0064000D01*
X0082400Y0064000D01*
X0082400Y0062123D01*
X0084900Y0059623D01*
X0084900Y0055977D01*
X0082323Y0053400D01*
X0078677Y0053400D01*
X0076100Y0055977D01*
X0076100Y0059623D01*
X0078600Y0062123D01*
X0078600Y0064113D01*
X0065613Y0077100D01*
X0064500Y0078213D01*
X0064500Y0142540D01*
X0061713Y0145327D01*
X0060876Y0145327D01*
X0060876Y0145269D01*
X0060866Y0145258D01*
X0060876Y0145248D01*
X0060876Y0141332D01*
X0060866Y0141321D01*
X0060876Y0141311D01*
X0060876Y0137395D01*
X0060866Y0137384D01*
X0060876Y0137374D01*
X0060876Y0133458D01*
X0060866Y0133447D01*
X0060876Y0133437D01*
X0060876Y0129521D01*
X0060866Y0129510D01*
X0060876Y0129500D01*
X0060876Y0125584D01*
X0060866Y0125573D01*
X0060876Y0125563D01*
X0060876Y0121647D01*
X0060866Y0121636D01*
X0060876Y0121626D01*
X0060876Y0117710D01*
X0060866Y0117699D01*
X0060876Y0117689D01*
X0060876Y0113773D01*
X0060056Y0112953D01*
X0052204Y0112953D01*
X0051383Y0113773D01*
X0051383Y0117689D01*
X0051394Y0117699D01*
X0051383Y0117710D01*
X0051383Y0121626D01*
X0051394Y0121636D01*
X0051383Y0121647D01*
X0051383Y0125563D01*
X0051394Y0125573D01*
X0051383Y0125584D01*
X0051383Y0129500D01*
X0051394Y0129510D01*
X0051383Y0129521D01*
X0051383Y0133437D01*
X0051394Y0133447D01*
X0051383Y0133458D01*
X0051383Y0137374D01*
X0051394Y0137384D01*
X0051383Y0137395D01*
X0051383Y0141311D01*
X0051394Y0141321D01*
X0051383Y0141332D01*
X0051383Y0145248D01*
X0051394Y0145258D01*
X0051383Y0145269D01*
X0051383Y0149185D01*
X0051394Y0149195D01*
X0051383Y0149206D01*
X0051383Y0153122D01*
X0051394Y0153132D01*
X0051383Y0153143D01*
X0051383Y0157059D01*
X0051394Y0157069D01*
X0051383Y0157080D01*
X0051383Y0160996D01*
X0051394Y0161006D01*
X0051383Y0161017D01*
X0051383Y0164933D01*
X0051394Y0164943D01*
X0051383Y0164954D01*
X0051383Y0168870D01*
X0051394Y0168880D01*
X0051383Y0168891D01*
X0051383Y0172262D01*
X0051343Y0172303D01*
X0051106Y0172713D01*
X0050983Y0173171D01*
X0050983Y0174786D01*
X0056130Y0174786D01*
X0056130Y0174786D01*
X0056130Y0175545D01*
X0056130Y0178723D01*
X0061276Y0178723D01*
X0061276Y0179248D01*
X0119557Y0179248D01*
X0120172Y0179863D01*
X0120172Y0209300D01*
X0140100Y0209300D01*
X0140100Y0080746D01*
X0127200Y0067846D01*
X0127200Y0071900D01*
X0128117Y0071900D01*
X0129073Y0072296D01*
X0129804Y0073027D01*
X0130200Y0073983D01*
X0130200Y0075017D01*
X0129804Y0075973D01*
X0129073Y0076704D01*
X0128800Y0076817D01*
X0128800Y0148713D01*
X0129351Y0149264D01*
X0130124Y0149264D01*
X0130124Y0149206D01*
X0130134Y0149195D01*
X0130124Y0149185D01*
X0130124Y0145269D01*
X0130134Y0145258D01*
X0130124Y0145248D01*
X0130124Y0141332D01*
X0130134Y0141321D01*
X0130124Y0141311D01*
X0130124Y0137395D01*
X0130134Y0137384D01*
X0130124Y0137374D01*
X0130124Y0133458D01*
X0130134Y0133447D01*
X0130124Y0133437D01*
X0130124Y0129521D01*
X0130134Y0129510D01*
X0130124Y0129500D01*
X0130124Y0125584D01*
X0130134Y0125573D01*
X0130124Y0125563D01*
X0130124Y0121647D01*
X0130134Y0121636D01*
X0130124Y0121626D01*
X0130124Y0117710D01*
X0130134Y0117699D01*
X0130124Y0117689D01*
X0130124Y0113773D01*
X0130944Y0112953D01*
X0138796Y0112953D01*
X0139617Y0113773D01*
X0139617Y0117689D01*
X0139606Y0117699D01*
X0139617Y0117710D01*
X0139617Y0121626D01*
X0139606Y0121636D01*
X0139617Y0121647D01*
X0139617Y0125563D01*
X0139606Y0125573D01*
X0139617Y0125584D01*
X0139617Y0129500D01*
X0139606Y0129510D01*
X0139617Y0129521D01*
X0139617Y0133437D01*
X0139606Y0133447D01*
X0139617Y0133458D01*
X0139617Y0137374D01*
X0139606Y0137384D01*
X0139617Y0137395D01*
X0139617Y0141311D01*
X0139606Y0141321D01*
X0139617Y0141332D01*
X0139617Y0145248D01*
X0139606Y0145258D01*
X0139617Y0145269D01*
X0139617Y0149185D01*
X0139606Y0149195D01*
X0139617Y0149206D01*
X0139617Y0153122D01*
X0139606Y0153132D01*
X0139617Y0153143D01*
X0139617Y0157059D01*
X0139606Y0157069D01*
X0139617Y0157080D01*
X0139617Y0160996D01*
X0139606Y0161006D01*
X0139617Y0161017D01*
X0139617Y0164933D01*
X0139606Y0164943D01*
X0139617Y0164954D01*
X0139617Y0168870D01*
X0139606Y0168880D01*
X0139617Y0168891D01*
X0139617Y0172262D01*
X0139657Y0172303D01*
X0139894Y0172713D01*
X0140017Y0173171D01*
X0140017Y0174786D01*
X0140017Y0176401D01*
X0139922Y0176754D01*
X0140017Y0177108D01*
X0140017Y0178723D01*
X0140017Y0180338D01*
X0139894Y0180796D01*
X0139657Y0181206D01*
X0139322Y0181541D01*
X0138911Y0181778D01*
X0138454Y0181901D01*
X0134870Y0181901D01*
X0131287Y0181901D01*
X0130829Y0181778D01*
X0130418Y0181541D01*
X0130083Y0181206D01*
X0129846Y0180796D01*
X0129724Y0180338D01*
X0129724Y0178723D01*
X0134870Y0178723D01*
X0134870Y0181901D01*
X0134870Y0178723D01*
X0134870Y0178723D01*
X0134870Y0178723D01*
X0140017Y0178723D01*
X0134870Y0178723D01*
X0134870Y0178723D01*
X0129724Y0178723D01*
X0129724Y0177108D01*
X0129818Y0176754D01*
X0129724Y0176401D01*
X0129724Y0174786D01*
X0134870Y0174786D01*
X0134870Y0178723D01*
X0134870Y0178723D01*
X0134870Y0175545D01*
X0134870Y0174786D01*
X0134870Y0174786D01*
X0134870Y0174786D01*
X0140017Y0174786D01*
X0134870Y0174786D01*
X0134870Y0174786D01*
X0129724Y0174786D01*
X0129724Y0173171D01*
X0129846Y0172713D01*
X0130083Y0172303D01*
X0130124Y0172262D01*
X0130124Y0172111D01*
X0129649Y0171636D01*
X0128500Y0170487D01*
X0128500Y0156087D01*
X0123400Y0150987D01*
X0123400Y0098187D01*
X0122387Y0099200D01*
X0120626Y0099200D01*
X0120626Y0100511D01*
X0116934Y0100511D01*
X0116934Y0100978D01*
X0120626Y0100978D01*
X0120626Y0103049D01*
X0120503Y0103507D01*
X0120266Y0103917D01*
X0119931Y0104252D01*
X0119521Y0104489D01*
X0119063Y0104612D01*
X0116933Y0104612D01*
X0116933Y0100978D01*
X0116467Y0100978D01*
X0116467Y0104612D01*
X0114337Y0104612D01*
X0113879Y0104489D01*
X0113469Y0104252D01*
X0113134Y0103917D01*
X0112897Y0103507D01*
X0112774Y0103049D01*
X0112774Y0100978D01*
X0116466Y0100978D01*
X0116466Y0100511D01*
X0112774Y0100511D01*
X0112774Y0099200D01*
X0109072Y0099200D01*
X0109072Y0102801D01*
X0108252Y0103621D01*
X0103548Y0103621D01*
X0102728Y0102801D01*
X0102728Y0102650D01*
X0102026Y0102650D01*
X0102026Y0103392D01*
X0101206Y0104212D01*
X0095794Y0104212D01*
X0094974Y0103392D01*
X0094974Y0102945D01*
X0093965Y0102945D01*
X0093965Y0103195D01*
X0093145Y0104015D01*
X0087655Y0104015D01*
X0086835Y0103195D01*
X0086835Y0103000D01*
X0086237Y0103000D01*
X0086237Y0105038D01*
X0085417Y0105858D01*
X0077000Y0105858D01*
X0077000Y0164811D01*
X0075711Y0166100D01*
X0072100Y0169711D01*
X0072100Y0169711D01*
X0070811Y0171000D01*
X0065211Y0171000D01*
X0064711Y0171500D01*
X0063162Y0173049D01*
X0061244Y0173049D01*
X0061276Y0173171D01*
X0061276Y0174786D01*
X0061276Y0176401D01*
X0061182Y0176754D01*
X0061276Y0177108D01*
X0061276Y0178723D01*
X0056130Y0178723D01*
X0056130Y0178723D01*
X0056130Y0178723D01*
X0050983Y0178723D01*
X0050983Y0179248D01*
X0050900Y0179248D01*
X0050900Y0080746D01*
X0055172Y0076473D01*
X0055172Y0076616D01*
X0058757Y0076616D01*
X0058757Y0076984D01*
X0055172Y0076984D01*
X0055172Y0079793D01*
X0055295Y0080251D01*
X0055532Y0080661D01*
X0055867Y0080996D01*
X0056278Y0081233D01*
X0056735Y0081356D01*
X0058757Y0081356D01*
X0058757Y0076984D01*
X0059125Y0076984D01*
X0062709Y0076984D01*
X0062709Y0079793D01*
X0062587Y0080251D01*
X0062350Y0080661D01*
X0062015Y0080996D01*
X0061604Y0081233D01*
X0061146Y0081356D01*
X0059125Y0081356D01*
X0059125Y0076984D01*
X0059125Y0076616D01*
X0062709Y0076616D01*
X0062709Y0073807D01*
X0062587Y0073349D01*
X0062350Y0072939D01*
X0062015Y0072604D01*
X0061604Y0072367D01*
X0061146Y0072244D01*
X0059401Y0072244D01*
X0059674Y0071972D02*
X0070741Y0071972D01*
X0069143Y0073570D02*
X0062646Y0073570D01*
X0062709Y0075169D02*
X0067544Y0075169D01*
X0065946Y0076767D02*
X0059125Y0076767D01*
X0058757Y0076767D02*
X0054878Y0076767D01*
X0055172Y0078366D02*
X0053280Y0078366D01*
X0051681Y0079964D02*
X0055218Y0079964D01*
X0058757Y0079964D02*
X0059125Y0079964D01*
X0059125Y0078366D02*
X0058757Y0078366D01*
X0062709Y0078366D02*
X0064500Y0078366D01*
X0064500Y0079964D02*
X0062664Y0079964D01*
X0064500Y0081563D02*
X0050900Y0081563D01*
X0050900Y0083161D02*
X0064500Y0083161D01*
X0064500Y0084760D02*
X0050900Y0084760D01*
X0050900Y0086358D02*
X0064500Y0086358D01*
X0064500Y0087957D02*
X0050900Y0087957D01*
X0050900Y0089555D02*
X0064500Y0089555D01*
X0064500Y0091154D02*
X0050900Y0091154D01*
X0050900Y0092752D02*
X0064500Y0092752D01*
X0064500Y0094351D02*
X0050900Y0094351D01*
X0050900Y0095949D02*
X0064500Y0095949D01*
X0064500Y0097548D02*
X0050900Y0097548D01*
X0050900Y0099146D02*
X0064500Y0099146D01*
X0064500Y0100745D02*
X0050900Y0100745D01*
X0050900Y0102343D02*
X0064500Y0102343D01*
X0064500Y0103942D02*
X0050900Y0103942D01*
X0050900Y0105540D02*
X0064500Y0105540D01*
X0064500Y0107139D02*
X0050900Y0107139D01*
X0050900Y0108737D02*
X0064500Y0108737D01*
X0064500Y0110336D02*
X0050900Y0110336D01*
X0050900Y0111934D02*
X0064500Y0111934D01*
X0064500Y0113533D02*
X0060637Y0113533D01*
X0060876Y0115132D02*
X0064500Y0115132D01*
X0064500Y0116730D02*
X0060876Y0116730D01*
X0060876Y0118329D02*
X0064500Y0118329D01*
X0064500Y0119927D02*
X0060876Y0119927D01*
X0060876Y0121526D02*
X0064500Y0121526D01*
X0064500Y0123124D02*
X0060876Y0123124D01*
X0060876Y0124723D02*
X0064500Y0124723D01*
X0064500Y0126321D02*
X0060876Y0126321D01*
X0060876Y0127920D02*
X0064500Y0127920D01*
X0064500Y0129518D02*
X0060874Y0129518D01*
X0060876Y0131117D02*
X0064500Y0131117D01*
X0064500Y0132715D02*
X0060876Y0132715D01*
X0060876Y0134314D02*
X0064500Y0134314D01*
X0064500Y0135912D02*
X0060876Y0135912D01*
X0060876Y0137511D02*
X0064500Y0137511D01*
X0064500Y0139109D02*
X0060876Y0139109D01*
X0060876Y0140708D02*
X0064500Y0140708D01*
X0064500Y0142306D02*
X0060876Y0142306D01*
X0060876Y0143905D02*
X0063135Y0143905D01*
X0051383Y0143905D02*
X0050900Y0143905D01*
X0050900Y0145503D02*
X0051383Y0145503D01*
X0051383Y0147102D02*
X0050900Y0147102D01*
X0050900Y0148700D02*
X0051383Y0148700D01*
X0051383Y0150299D02*
X0050900Y0150299D01*
X0050900Y0151897D02*
X0051383Y0151897D01*
X0051383Y0153496D02*
X0050900Y0153496D01*
X0050900Y0155094D02*
X0051383Y0155094D01*
X0051383Y0156693D02*
X0050900Y0156693D01*
X0050900Y0158291D02*
X0051383Y0158291D01*
X0051383Y0159890D02*
X0050900Y0159890D01*
X0050900Y0161488D02*
X0051383Y0161488D01*
X0051383Y0163087D02*
X0050900Y0163087D01*
X0050900Y0164685D02*
X0051383Y0164685D01*
X0051383Y0166284D02*
X0050900Y0166284D01*
X0050900Y0167882D02*
X0051383Y0167882D01*
X0051383Y0169481D02*
X0050900Y0169481D01*
X0050900Y0171079D02*
X0051383Y0171079D01*
X0051126Y0172678D02*
X0050900Y0172678D01*
X0050900Y0174276D02*
X0050983Y0174276D01*
X0050983Y0174786D02*
X0056130Y0174786D01*
X0061276Y0174786D01*
X0056130Y0174786D01*
X0056130Y0174786D01*
X0056130Y0178723D01*
X0056130Y0178723D01*
X0050983Y0178723D01*
X0050983Y0177108D01*
X0051078Y0176754D01*
X0050983Y0176401D01*
X0050983Y0174786D01*
X0050983Y0175875D02*
X0050900Y0175875D01*
X0050900Y0177473D02*
X0050983Y0177473D01*
X0050983Y0179072D02*
X0050900Y0179072D01*
X0056130Y0177473D02*
X0056130Y0177473D01*
X0056130Y0175875D02*
X0056130Y0175875D01*
X0056130Y0174786D02*
X0056130Y0174786D01*
X0056130Y0170849D02*
X0062251Y0170849D01*
X0063800Y0169300D01*
X0063800Y0168800D01*
X0069900Y0168800D01*
X0074800Y0163900D01*
X0074800Y0102200D01*
X0075800Y0101200D01*
X0081006Y0101200D01*
X0080900Y0101506D01*
X0083394Y0101506D01*
X0084100Y0100800D01*
X0089635Y0100800D01*
X0089941Y0101106D01*
X0090400Y0100646D01*
X0090498Y0100745D01*
X0098500Y0100745D01*
X0098795Y0100450D01*
X0105900Y0100450D01*
X0109072Y0100745D02*
X0116466Y0100745D01*
X0116934Y0100745D02*
X0123400Y0100745D01*
X0123400Y0102343D02*
X0120626Y0102343D01*
X0120241Y0103942D02*
X0123400Y0103942D01*
X0123400Y0105540D02*
X0085735Y0105540D01*
X0086237Y0103942D02*
X0087582Y0103942D01*
X0087615Y0107441D02*
X0083700Y0107441D01*
X0083689Y0107452D01*
X0083678Y0107441D01*
X0079763Y0107441D01*
X0078943Y0108261D01*
X0078943Y0116114D01*
X0079763Y0116934D01*
X0083678Y0116934D01*
X0083689Y0116923D01*
X0083700Y0116934D01*
X0087615Y0116934D01*
X0087626Y0116923D01*
X0087637Y0116934D01*
X0091552Y0116934D01*
X0091563Y0116923D01*
X0091574Y0116934D01*
X0095489Y0116934D01*
X0095500Y0116923D01*
X0095511Y0116934D01*
X0099426Y0116934D01*
X0099437Y0116923D01*
X0099448Y0116934D01*
X0103363Y0116934D01*
X0103374Y0116923D01*
X0103385Y0116934D01*
X0107300Y0116934D01*
X0107311Y0116923D01*
X0107322Y0116934D01*
X0111237Y0116934D01*
X0112057Y0116114D01*
X0112057Y0108261D01*
X0111237Y0107441D01*
X0107322Y0107441D01*
X0107311Y0107452D01*
X0107300Y0107441D01*
X0103385Y0107441D01*
X0103374Y0107452D01*
X0103363Y0107441D01*
X0099448Y0107441D01*
X0099437Y0107452D01*
X0099426Y0107441D01*
X0095511Y0107441D01*
X0095500Y0107452D01*
X0095489Y0107441D01*
X0091574Y0107441D01*
X0091563Y0107452D01*
X0091552Y0107441D01*
X0087637Y0107441D01*
X0087626Y0107452D01*
X0087615Y0107441D01*
X0093218Y0103942D02*
X0095524Y0103942D01*
X0090400Y0100646D02*
X0090400Y0100345D01*
X0086835Y0095400D02*
X0086835Y0091405D01*
X0087655Y0090585D01*
X0093145Y0090585D01*
X0093965Y0091405D01*
X0093965Y0095400D01*
X0094574Y0095400D01*
X0094574Y0094089D01*
X0098266Y0094089D01*
X0098266Y0093622D01*
X0094574Y0093622D01*
X0094574Y0091551D01*
X0094697Y0091093D01*
X0094934Y0090683D01*
X0095269Y0090348D01*
X0095679Y0090111D01*
X0096137Y0089988D01*
X0098267Y0089988D01*
X0098267Y0093622D01*
X0098733Y0093622D01*
X0098733Y0089988D01*
X0100863Y0089988D01*
X0101321Y0090111D01*
X0101731Y0090348D01*
X0102066Y0090683D01*
X0102303Y0091093D01*
X0102426Y0091551D01*
X0102426Y0093622D01*
X0098734Y0093622D01*
X0098734Y0094089D01*
X0102426Y0094089D01*
X0102426Y0095400D01*
X0102728Y0095400D01*
X0102728Y0091799D01*
X0103548Y0090979D01*
X0107019Y0090979D01*
X0106785Y0090745D01*
X0106785Y0089900D01*
X0106213Y0089900D01*
X0105100Y0088787D01*
X0095013Y0078700D01*
X0089868Y0078700D01*
X0089868Y0080136D01*
X0089048Y0080956D01*
X0083952Y0080956D01*
X0083131Y0080136D01*
X0083131Y0073464D01*
X0083952Y0072644D01*
X0089048Y0072644D01*
X0089868Y0073464D01*
X0089868Y0074900D01*
X0096587Y0074900D01*
X0106863Y0085176D01*
X0107605Y0084435D01*
X0111350Y0084435D01*
X0111350Y0083900D01*
X0109625Y0083900D01*
X0108008Y0083230D01*
X0106770Y0081992D01*
X0106100Y0080375D01*
X0106100Y0078625D01*
X0106770Y0077008D01*
X0107995Y0075782D01*
X0107500Y0075287D01*
X0104500Y0072287D01*
X0104500Y0062687D01*
X0096300Y0070887D01*
X0095187Y0072000D01*
X0084187Y0072000D01*
X0073100Y0083087D01*
X0073100Y0096813D01*
X0074513Y0095400D01*
X0086835Y0095400D01*
X0086835Y0094351D02*
X0085434Y0094351D01*
X0085532Y0094325D02*
X0085074Y0094447D01*
X0081576Y0094447D01*
X0081576Y0090371D01*
X0080224Y0090371D01*
X0080224Y0094447D01*
X0076726Y0094447D01*
X0076268Y0094325D01*
X0075858Y0094088D01*
X0075523Y0093752D01*
X0075286Y0093342D01*
X0075163Y0092884D01*
X0075163Y0090371D01*
X0080224Y0090371D01*
X0080224Y0089018D01*
X0081576Y0089018D01*
X0081576Y0084942D01*
X0085074Y0084942D01*
X0085532Y0085064D01*
X0085942Y0085301D01*
X0086277Y0085637D01*
X0086514Y0086047D01*
X0086637Y0086505D01*
X0086637Y0089018D01*
X0081576Y0089018D01*
X0081576Y0090371D01*
X0086637Y0090371D01*
X0086637Y0092884D01*
X0086514Y0093342D01*
X0086277Y0093752D01*
X0085942Y0094088D01*
X0085532Y0094325D01*
X0086637Y0092752D02*
X0086835Y0092752D01*
X0086637Y0091154D02*
X0087086Y0091154D01*
X0086637Y0087957D02*
X0104270Y0087957D01*
X0105868Y0089555D02*
X0081576Y0089555D01*
X0080224Y0089555D02*
X0073100Y0089555D01*
X0073100Y0087957D02*
X0075163Y0087957D01*
X0075163Y0089018D02*
X0075163Y0086505D01*
X0075286Y0086047D01*
X0075523Y0085637D01*
X0075858Y0085301D01*
X0076268Y0085064D01*
X0076726Y0084942D01*
X0080224Y0084942D01*
X0080224Y0089018D01*
X0075163Y0089018D01*
X0075163Y0091154D02*
X0073100Y0091154D01*
X0073100Y0092752D02*
X0075163Y0092752D01*
X0076366Y0094351D02*
X0073100Y0094351D01*
X0073100Y0095949D02*
X0073964Y0095949D01*
X0080224Y0094351D02*
X0081576Y0094351D01*
X0081576Y0092752D02*
X0080224Y0092752D01*
X0080224Y0091154D02*
X0081576Y0091154D01*
X0081576Y0087957D02*
X0080224Y0087957D01*
X0080224Y0086358D02*
X0081576Y0086358D01*
X0086598Y0086358D02*
X0102671Y0086358D01*
X0101073Y0084760D02*
X0073100Y0084760D01*
X0073100Y0086358D02*
X0075202Y0086358D01*
X0073100Y0083161D02*
X0099474Y0083161D01*
X0097876Y0081563D02*
X0074624Y0081563D01*
X0076223Y0079964D02*
X0083131Y0079964D01*
X0083131Y0078366D02*
X0077821Y0078366D01*
X0079420Y0076767D02*
X0083131Y0076767D01*
X0083131Y0075169D02*
X0081018Y0075169D01*
X0082617Y0073570D02*
X0083131Y0073570D01*
X0089868Y0073570D02*
X0105783Y0073570D01*
X0104500Y0071972D02*
X0095215Y0071972D01*
X0096814Y0070373D02*
X0104500Y0070373D01*
X0104500Y0068775D02*
X0098412Y0068775D01*
X0100011Y0067176D02*
X0104500Y0067176D01*
X0104500Y0065578D02*
X0101609Y0065578D01*
X0103208Y0063979D02*
X0104500Y0063979D01*
X0110500Y0061100D02*
X0110500Y0057800D01*
X0108132Y0053945D02*
X0108677Y0053400D01*
X0112323Y0053400D01*
X0112700Y0053777D01*
X0112700Y0053479D01*
X0111651Y0052200D01*
X0108677Y0052200D01*
X0106100Y0049623D01*
X0106100Y0045977D01*
X0108677Y0043400D01*
X0112323Y0043400D01*
X0114900Y0045977D01*
X0114900Y0049623D01*
X0114654Y0049869D01*
X0115500Y0050901D01*
X0116346Y0049869D01*
X0116100Y0049623D01*
X0116100Y0045977D01*
X0118677Y0043400D01*
X0122323Y0043400D01*
X0124100Y0045177D01*
X0124100Y0043400D01*
X0102888Y0043400D01*
X0105300Y0045812D01*
X0105300Y0047600D01*
X0100700Y0047600D01*
X0100700Y0048000D01*
X0105300Y0048000D01*
X0105300Y0049788D01*
X0104638Y0050451D01*
X0107187Y0053000D01*
X0108132Y0053945D01*
X0106977Y0052790D02*
X0112134Y0052790D01*
X0114900Y0049593D02*
X0116100Y0049593D01*
X0116100Y0047994D02*
X0114900Y0047994D01*
X0114900Y0046396D02*
X0116100Y0046396D01*
X0117280Y0044797D02*
X0113720Y0044797D01*
X0107280Y0044797D02*
X0104285Y0044797D01*
X0105300Y0046396D02*
X0106100Y0046396D01*
X0106100Y0047994D02*
X0100700Y0047994D01*
X0100300Y0047994D02*
X0094900Y0047994D01*
X0094900Y0046396D02*
X0095700Y0046396D01*
X0096715Y0044797D02*
X0093720Y0044797D01*
X0094980Y0049593D02*
X0095700Y0049593D01*
X0087669Y0051191D02*
X0086578Y0051191D01*
X0086100Y0049593D02*
X0084980Y0049593D01*
X0084900Y0047994D02*
X0086100Y0047994D01*
X0086100Y0046396D02*
X0084900Y0046396D01*
X0083720Y0044797D02*
X0087280Y0044797D01*
X0082803Y0052790D02*
X0066900Y0052790D01*
X0066900Y0054388D02*
X0067124Y0054388D01*
X0070300Y0054388D02*
X0070700Y0054388D01*
X0070700Y0055987D02*
X0070300Y0055987D01*
X0070300Y0057585D02*
X0070700Y0057585D01*
X0070700Y0059184D02*
X0070300Y0059184D01*
X0070300Y0060782D02*
X0070700Y0060782D01*
X0070700Y0062381D02*
X0070300Y0062381D01*
X0068292Y0062381D02*
X0066900Y0062381D01*
X0066900Y0063979D02*
X0078600Y0063979D01*
X0078600Y0062381D02*
X0072708Y0062381D01*
X0074306Y0060782D02*
X0077260Y0060782D01*
X0076100Y0059184D02*
X0075300Y0059184D01*
X0075300Y0057585D02*
X0076100Y0057585D01*
X0076100Y0055987D02*
X0075300Y0055987D01*
X0073876Y0054388D02*
X0077689Y0054388D01*
X0077669Y0051191D02*
X0073331Y0051191D01*
X0074900Y0049593D02*
X0076100Y0049593D01*
X0076100Y0047994D02*
X0074900Y0047994D01*
X0074900Y0046396D02*
X0076100Y0046396D01*
X0077280Y0044797D02*
X0073720Y0044797D01*
X0067669Y0051191D02*
X0066900Y0051191D01*
X0066900Y0044797D02*
X0067280Y0044797D01*
X0083311Y0054388D02*
X0084401Y0054388D01*
X0084900Y0055987D02*
X0086100Y0055987D01*
X0086100Y0057585D02*
X0084900Y0057585D01*
X0084900Y0059184D02*
X0086100Y0059184D01*
X0087260Y0060782D02*
X0083740Y0060782D01*
X0082400Y0062381D02*
X0088332Y0062381D01*
X0086734Y0063979D02*
X0082400Y0063979D01*
X0077135Y0065578D02*
X0066068Y0065578D01*
X0064469Y0067176D02*
X0075537Y0067176D01*
X0073938Y0068775D02*
X0062871Y0068775D01*
X0061272Y0070373D02*
X0072340Y0070373D01*
X0089868Y0079964D02*
X0096277Y0079964D01*
X0098454Y0076767D02*
X0107010Y0076767D01*
X0107382Y0075169D02*
X0096856Y0075169D01*
X0100053Y0078366D02*
X0106207Y0078366D01*
X0106100Y0079964D02*
X0101651Y0079964D01*
X0103250Y0081563D02*
X0106592Y0081563D01*
X0107939Y0083161D02*
X0104848Y0083161D01*
X0106447Y0084760D02*
X0107280Y0084760D01*
X0103373Y0091154D02*
X0102320Y0091154D01*
X0102426Y0092752D02*
X0102728Y0092752D01*
X0102728Y0094351D02*
X0102426Y0094351D01*
X0098733Y0092752D02*
X0098267Y0092752D01*
X0098267Y0091154D02*
X0098733Y0091154D01*
X0094680Y0091154D02*
X0093714Y0091154D01*
X0093965Y0092752D02*
X0094574Y0092752D01*
X0094574Y0094351D02*
X0093965Y0094351D01*
X0101476Y0103942D02*
X0113159Y0103942D01*
X0112774Y0102343D02*
X0109072Y0102343D01*
X0112057Y0108737D02*
X0123400Y0108737D01*
X0123400Y0107139D02*
X0077000Y0107139D01*
X0077000Y0108737D02*
X0078943Y0108737D01*
X0078943Y0110336D02*
X0077000Y0110336D01*
X0077000Y0111934D02*
X0078943Y0111934D01*
X0078943Y0113533D02*
X0077000Y0113533D01*
X0077000Y0115132D02*
X0078943Y0115132D01*
X0079559Y0116730D02*
X0077000Y0116730D01*
X0077000Y0118329D02*
X0123400Y0118329D01*
X0123400Y0119927D02*
X0077000Y0119927D01*
X0077000Y0121526D02*
X0123400Y0121526D01*
X0123400Y0123124D02*
X0077000Y0123124D01*
X0077000Y0124723D02*
X0123400Y0124723D01*
X0123400Y0126321D02*
X0077000Y0126321D01*
X0077000Y0127920D02*
X0123400Y0127920D01*
X0123400Y0129518D02*
X0077000Y0129518D01*
X0077000Y0131117D02*
X0123400Y0131117D01*
X0123400Y0132715D02*
X0077000Y0132715D01*
X0077000Y0134314D02*
X0123400Y0134314D01*
X0123400Y0135912D02*
X0077000Y0135912D01*
X0077000Y0137511D02*
X0123400Y0137511D01*
X0123400Y0139109D02*
X0077000Y0139109D01*
X0077000Y0140708D02*
X0123400Y0140708D01*
X0123400Y0142306D02*
X0077000Y0142306D01*
X0077000Y0143905D02*
X0123400Y0143905D01*
X0123400Y0145503D02*
X0077000Y0145503D01*
X0077000Y0147102D02*
X0123400Y0147102D01*
X0123400Y0148700D02*
X0077000Y0148700D01*
X0077000Y0150299D02*
X0123400Y0150299D01*
X0124310Y0151897D02*
X0077000Y0151897D01*
X0077000Y0153496D02*
X0125909Y0153496D01*
X0127507Y0155094D02*
X0077000Y0155094D01*
X0077000Y0156693D02*
X0128500Y0156693D01*
X0128500Y0158291D02*
X0077000Y0158291D01*
X0077000Y0159890D02*
X0128500Y0159890D01*
X0128500Y0161488D02*
X0077000Y0161488D01*
X0077000Y0163087D02*
X0128500Y0163087D01*
X0128500Y0164685D02*
X0077000Y0164685D01*
X0075711Y0166100D02*
X0075711Y0166100D01*
X0075527Y0166284D02*
X0128500Y0166284D01*
X0128500Y0167882D02*
X0073929Y0167882D01*
X0072330Y0169481D02*
X0128500Y0169481D01*
X0129092Y0171079D02*
X0065132Y0171079D01*
X0063533Y0172678D02*
X0129867Y0172678D01*
X0129724Y0174276D02*
X0061276Y0174276D01*
X0061276Y0175875D02*
X0129724Y0175875D01*
X0129724Y0177473D02*
X0061276Y0177473D01*
X0061276Y0179072D02*
X0129724Y0179072D01*
X0129813Y0180670D02*
X0120172Y0180670D01*
X0120172Y0182269D02*
X0140100Y0182269D01*
X0140100Y0183868D02*
X0120172Y0183868D01*
X0120172Y0185466D02*
X0140100Y0185466D01*
X0140100Y0187065D02*
X0120172Y0187065D01*
X0120172Y0188663D02*
X0140100Y0188663D01*
X0140100Y0190262D02*
X0120172Y0190262D01*
X0120172Y0191860D02*
X0140100Y0191860D01*
X0140100Y0193459D02*
X0120172Y0193459D01*
X0120172Y0195057D02*
X0140100Y0195057D01*
X0140100Y0196656D02*
X0120172Y0196656D01*
X0120172Y0198254D02*
X0140100Y0198254D01*
X0140100Y0199853D02*
X0120172Y0199853D01*
X0120172Y0201451D02*
X0140100Y0201451D01*
X0140100Y0203050D02*
X0120172Y0203050D01*
X0120172Y0204648D02*
X0140100Y0204648D01*
X0140100Y0206247D02*
X0120172Y0206247D01*
X0120172Y0207845D02*
X0140100Y0207845D01*
X0139927Y0180670D02*
X0140100Y0180670D01*
X0140100Y0179072D02*
X0140017Y0179072D01*
X0140017Y0177473D02*
X0140100Y0177473D01*
X0140100Y0175875D02*
X0140017Y0175875D01*
X0140017Y0174276D02*
X0140100Y0174276D01*
X0140100Y0172678D02*
X0139874Y0172678D01*
X0140100Y0171079D02*
X0139617Y0171079D01*
X0139617Y0169481D02*
X0140100Y0169481D01*
X0140100Y0167882D02*
X0139617Y0167882D01*
X0139617Y0166284D02*
X0140100Y0166284D01*
X0140100Y0164685D02*
X0139617Y0164685D01*
X0139617Y0163087D02*
X0140100Y0163087D01*
X0140100Y0161488D02*
X0139617Y0161488D01*
X0139617Y0159890D02*
X0140100Y0159890D01*
X0140100Y0158291D02*
X0139617Y0158291D01*
X0139617Y0156693D02*
X0140100Y0156693D01*
X0140100Y0155094D02*
X0139617Y0155094D01*
X0139617Y0153496D02*
X0140100Y0153496D01*
X0140100Y0151897D02*
X0139617Y0151897D01*
X0139617Y0150299D02*
X0140100Y0150299D01*
X0140100Y0148700D02*
X0139617Y0148700D01*
X0139617Y0147102D02*
X0140100Y0147102D01*
X0140100Y0145503D02*
X0139617Y0145503D01*
X0139617Y0143905D02*
X0140100Y0143905D01*
X0140100Y0142306D02*
X0139617Y0142306D01*
X0139617Y0140708D02*
X0140100Y0140708D01*
X0140100Y0139109D02*
X0139617Y0139109D01*
X0139617Y0137511D02*
X0140100Y0137511D01*
X0140100Y0135912D02*
X0139617Y0135912D01*
X0139617Y0134314D02*
X0140100Y0134314D01*
X0140100Y0132715D02*
X0139617Y0132715D01*
X0139617Y0131117D02*
X0140100Y0131117D01*
X0140100Y0129518D02*
X0139614Y0129518D01*
X0139617Y0127920D02*
X0140100Y0127920D01*
X0140100Y0126321D02*
X0139617Y0126321D01*
X0139617Y0124723D02*
X0140100Y0124723D01*
X0140100Y0123124D02*
X0139617Y0123124D01*
X0139617Y0121526D02*
X0140100Y0121526D01*
X0140100Y0119927D02*
X0139617Y0119927D01*
X0139617Y0118329D02*
X0140100Y0118329D01*
X0140100Y0116730D02*
X0139617Y0116730D01*
X0139617Y0115132D02*
X0140100Y0115132D01*
X0140100Y0113533D02*
X0139377Y0113533D01*
X0140100Y0111934D02*
X0128800Y0111934D01*
X0128800Y0110336D02*
X0140100Y0110336D01*
X0140100Y0108737D02*
X0128800Y0108737D01*
X0128800Y0107139D02*
X0140100Y0107139D01*
X0140100Y0105540D02*
X0128800Y0105540D01*
X0128800Y0103942D02*
X0140100Y0103942D01*
X0140100Y0102343D02*
X0128800Y0102343D01*
X0128800Y0100745D02*
X0140100Y0100745D01*
X0140100Y0099146D02*
X0128800Y0099146D01*
X0128800Y0097548D02*
X0140100Y0097548D01*
X0140100Y0095949D02*
X0128800Y0095949D01*
X0128800Y0094351D02*
X0140100Y0094351D01*
X0140100Y0092752D02*
X0128800Y0092752D01*
X0128800Y0091154D02*
X0140100Y0091154D01*
X0140100Y0089555D02*
X0128800Y0089555D01*
X0128800Y0087957D02*
X0140100Y0087957D01*
X0140100Y0086358D02*
X0128800Y0086358D01*
X0128800Y0084760D02*
X0140100Y0084760D01*
X0140100Y0083161D02*
X0128800Y0083161D01*
X0128800Y0081563D02*
X0140100Y0081563D01*
X0139319Y0079964D02*
X0128800Y0079964D01*
X0128800Y0078366D02*
X0137720Y0078366D01*
X0136122Y0076767D02*
X0128920Y0076767D01*
X0130137Y0075169D02*
X0134523Y0075169D01*
X0132925Y0073570D02*
X0130029Y0073570D01*
X0131326Y0071972D02*
X0128290Y0071972D01*
X0127200Y0070373D02*
X0129728Y0070373D01*
X0128129Y0068775D02*
X0127200Y0068775D01*
X0113600Y0069400D02*
X0113600Y0064200D01*
X0110500Y0061100D01*
X0113600Y0069400D02*
X0113500Y0069500D01*
X0107669Y0051191D02*
X0105378Y0051191D01*
X0105300Y0049593D02*
X0106100Y0049593D01*
X0123720Y0044797D02*
X0124100Y0044797D01*
X0113500Y0090700D02*
X0113500Y0090800D01*
X0110200Y0094100D01*
X0105950Y0094100D01*
X0105900Y0094150D01*
X0116467Y0102343D02*
X0116933Y0102343D01*
X0116933Y0103942D02*
X0116467Y0103942D01*
X0122441Y0099146D02*
X0123400Y0099146D01*
X0123400Y0110336D02*
X0112057Y0110336D01*
X0112057Y0111934D02*
X0123400Y0111934D01*
X0123400Y0113533D02*
X0112057Y0113533D01*
X0112057Y0115132D02*
X0123400Y0115132D01*
X0123400Y0116730D02*
X0111441Y0116730D01*
X0128800Y0116730D02*
X0130124Y0116730D01*
X0130124Y0115132D02*
X0128800Y0115132D01*
X0128800Y0113533D02*
X0130363Y0113533D01*
X0130124Y0118329D02*
X0128800Y0118329D01*
X0128800Y0119927D02*
X0130124Y0119927D01*
X0130124Y0121526D02*
X0128800Y0121526D01*
X0128800Y0123124D02*
X0130124Y0123124D01*
X0130124Y0124723D02*
X0128800Y0124723D01*
X0128800Y0126321D02*
X0130124Y0126321D01*
X0130124Y0127920D02*
X0128800Y0127920D01*
X0128800Y0129518D02*
X0130126Y0129518D01*
X0130124Y0131117D02*
X0128800Y0131117D01*
X0128800Y0132715D02*
X0130124Y0132715D01*
X0130124Y0134314D02*
X0128800Y0134314D01*
X0128800Y0135912D02*
X0130124Y0135912D01*
X0130124Y0137511D02*
X0128800Y0137511D01*
X0128800Y0139109D02*
X0130124Y0139109D01*
X0130124Y0140708D02*
X0128800Y0140708D01*
X0128800Y0142306D02*
X0130124Y0142306D01*
X0130124Y0143905D02*
X0128800Y0143905D01*
X0128800Y0145503D02*
X0130124Y0145503D01*
X0130124Y0147102D02*
X0128800Y0147102D01*
X0128800Y0148700D02*
X0130124Y0148700D01*
X0134870Y0175875D02*
X0134870Y0175875D01*
X0134870Y0177473D02*
X0134870Y0177473D01*
X0134870Y0179072D02*
X0134870Y0179072D01*
X0134870Y0180670D02*
X0134870Y0180670D01*
X0063800Y0168800D02*
X0062100Y0167100D01*
X0062100Y0167000D01*
X0056500Y0167000D01*
X0056400Y0167100D01*
X0056142Y0166900D02*
X0056130Y0166912D01*
X0056130Y0170849D01*
X0062100Y0167000D02*
X0063800Y0168700D01*
X0063800Y0168800D01*
X0051383Y0142306D02*
X0050900Y0142306D01*
X0050900Y0140708D02*
X0051383Y0140708D01*
X0051383Y0139109D02*
X0050900Y0139109D01*
X0050900Y0137511D02*
X0051383Y0137511D01*
X0051383Y0135912D02*
X0050900Y0135912D01*
X0050900Y0134314D02*
X0051383Y0134314D01*
X0051383Y0132715D02*
X0050900Y0132715D01*
X0050900Y0131117D02*
X0051383Y0131117D01*
X0051386Y0129518D02*
X0050900Y0129518D01*
X0050900Y0127920D02*
X0051383Y0127920D01*
X0051383Y0126321D02*
X0050900Y0126321D01*
X0050900Y0124723D02*
X0051383Y0124723D01*
X0051383Y0123124D02*
X0050900Y0123124D01*
X0050900Y0121526D02*
X0051383Y0121526D01*
X0051383Y0119927D02*
X0050900Y0119927D01*
X0050900Y0118329D02*
X0051383Y0118329D01*
X0051383Y0116730D02*
X0050900Y0116730D01*
X0050900Y0115132D02*
X0051383Y0115132D01*
X0051623Y0113533D02*
X0050900Y0113533D01*
D22*
X0074300Y0089600D03*
X0080900Y0084000D03*
X0088000Y0085800D03*
X0088000Y0088800D03*
X0091000Y0088800D03*
X0094000Y0088800D03*
X0094000Y0085800D03*
X0091000Y0085800D03*
X0112300Y0100800D03*
X0116700Y0105500D03*
X0121200Y0100800D03*
X0121400Y0074500D03*
X0127600Y0074500D03*
X0111700Y0166600D03*
X0103600Y0176300D03*
X0096800Y0166600D03*
X0090200Y0176300D03*
X0083400Y0166600D03*
X0075900Y0176300D03*
X0062000Y0174600D03*
X0062000Y0178700D03*
X0119800Y0176300D03*
X0129100Y0174800D03*
X0129100Y0178800D03*
X0121600Y0185600D03*
X0130600Y0192300D03*
X0121600Y0197900D03*
X0130600Y0204200D03*
X0121600Y0208200D03*
D23*
X0131549Y0170849D02*
X0134870Y0170849D01*
X0131549Y0170849D02*
X0130400Y0169700D01*
X0130400Y0155300D01*
X0125300Y0150200D01*
X0125300Y0065600D01*
X0121600Y0061900D01*
X0118800Y0061900D01*
X0116400Y0059500D01*
X0116400Y0052800D01*
X0120500Y0047800D01*
X0114600Y0052800D02*
X0114600Y0060300D01*
X0116100Y0061900D01*
X0117700Y0063500D01*
X0120700Y0063500D01*
X0123700Y0066500D01*
X0123700Y0095200D01*
X0121600Y0097300D01*
X0116700Y0097300D01*
X0116700Y0093855D01*
X0116700Y0088000D01*
X0116846Y0088000D01*
X0110154Y0088000D02*
X0107000Y0088000D01*
X0095800Y0076800D01*
X0086500Y0076800D01*
X0083400Y0070100D02*
X0071200Y0082300D01*
X0071200Y0148000D01*
X0060100Y0159100D01*
X0056192Y0159100D01*
X0056130Y0159038D01*
X0056130Y0162975D02*
X0060125Y0162975D01*
X0072800Y0150300D01*
X0072800Y0099800D01*
X0075300Y0097300D01*
X0090400Y0097300D01*
X0090400Y0093954D01*
X0090454Y0093400D01*
X0091400Y0093200D01*
X0090598Y0093355D02*
X0090400Y0093954D01*
X0090400Y0097300D02*
X0116700Y0097300D01*
X0126900Y0075200D02*
X0127600Y0074500D01*
X0126900Y0075200D02*
X0126900Y0149500D01*
X0128564Y0151164D01*
X0134870Y0151164D01*
X0069600Y0145301D02*
X0069600Y0081000D01*
X0082500Y0068100D01*
X0090200Y0068100D01*
X0100500Y0057800D01*
X0102300Y0053700D02*
X0104600Y0056000D01*
X0104600Y0060000D01*
X0104500Y0060000D01*
X0094400Y0070100D01*
X0083400Y0070100D01*
X0081800Y0065900D02*
X0087500Y0065900D01*
X0090500Y0062900D01*
X0090500Y0057800D01*
X0086400Y0053700D02*
X0102300Y0053700D01*
X0103400Y0051900D02*
X0106400Y0054900D01*
X0106400Y0071500D01*
X0109400Y0074500D01*
X0121400Y0074500D01*
X0114600Y0052800D02*
X0110500Y0047800D01*
X0103400Y0051900D02*
X0094600Y0051900D01*
X0090500Y0047800D01*
X0086400Y0053700D02*
X0080500Y0047800D01*
X0080500Y0057800D02*
X0080500Y0064900D01*
X0066400Y0079000D01*
X0066400Y0143327D01*
X0062500Y0147227D01*
X0056130Y0147227D01*
X0056130Y0151164D02*
X0061300Y0151164D01*
X0068000Y0144464D01*
X0068000Y0079700D01*
X0081800Y0065900D01*
X0081000Y0057800D02*
X0080500Y0057800D01*
X0069600Y0145301D02*
X0059800Y0155101D01*
X0056130Y0155101D01*
D24*
X0113500Y0090700D02*
X0113500Y0079500D01*
M02*
