%
M48
M72
T01C0.01200
T02C0.04000
%
T01
X80900Y84000
X88000Y85800
X88000Y88800
X91000Y88800
X94000Y88800
X94000Y85800
X91000Y85800
X74300Y89600
X112300Y100800
X116700Y105500
X121200Y100800
X121400Y74500
X127600Y74500
X111700Y166600
X103600Y176300
X96800Y166600
X90200Y176300
X83400Y166600
X75900Y176300
X62000Y174600
X62000Y178700
X119800Y176300
X129100Y174800
X129100Y178800
X121600Y185600
X130600Y192300
X121600Y197900
X130600Y204200
X121600Y208200
T02
X70500Y57800
X70500Y47800
X80500Y47800
X80500Y57800
X90500Y57800
X90500Y47800
X100500Y47800
X100500Y57800
X110500Y57800
X110500Y47800
X120500Y47800
X120500Y57800
X113500Y69500
X113500Y79500
M30
