G75*
%MOIN*%
%OFA0B0*%
%FSLAX25Y25*%
%IPPOS*%
%LPD*%
%AMOC8*
5,1,8,0,0,1.08239X$1,22.5*
%
%ADD10C,0.00000*%
%ADD11R,0.08274X0.06306*%
%ADD12R,0.04652X0.04534*%
%ADD13C,0.06400*%
%ADD14OC8,0.06400*%
%ADD15R,0.03943X0.03943*%
%ADD16R,0.04337X0.04731*%
%ADD17R,0.04731X0.04337*%
%ADD18R,0.04337X0.05912*%
%ADD19R,0.07093X0.03156*%
%ADD20R,0.03156X0.07093*%
D10*
X0065100Y0041600D02*
X0065100Y0064000D01*
X0049100Y0080000D01*
X0049100Y0211100D01*
X0141900Y0211100D01*
X0141900Y0080000D01*
X0125900Y0064000D01*
X0125900Y0041600D01*
X0065100Y0041600D01*
D11*
X0080900Y0089694D03*
X0080900Y0101506D03*
D12*
X0098500Y0100745D03*
X0098500Y0093855D03*
X0116700Y0093855D03*
X0116700Y0100745D03*
D13*
X0116500Y0079500D02*
X0110500Y0079500D01*
X0110500Y0069500D02*
X0116500Y0069500D01*
D14*
X0120500Y0057800D03*
X0120500Y0047800D03*
X0110500Y0047800D03*
X0110500Y0057800D03*
X0100500Y0057800D03*
X0100500Y0047800D03*
X0090500Y0047800D03*
X0090500Y0057800D03*
X0080500Y0057800D03*
X0080500Y0047800D03*
X0070500Y0047800D03*
X0070500Y0057800D03*
D15*
X0105900Y0094150D03*
X0105900Y0100450D03*
D16*
X0110154Y0088000D03*
X0116846Y0088000D03*
D17*
X0090400Y0093954D03*
X0090400Y0100646D03*
D18*
X0086500Y0076800D03*
X0058941Y0076800D03*
D19*
X0056130Y0115731D03*
X0056130Y0119668D03*
X0056130Y0123605D03*
X0056130Y0127542D03*
X0056130Y0131479D03*
X0056130Y0135416D03*
X0056130Y0139353D03*
X0056130Y0143290D03*
X0056130Y0147227D03*
X0056130Y0151164D03*
X0056130Y0155101D03*
X0056130Y0159038D03*
X0056130Y0162975D03*
X0056130Y0166912D03*
X0056130Y0170849D03*
X0056130Y0174786D03*
X0056130Y0178723D03*
X0134870Y0178723D03*
X0134870Y0174786D03*
X0134870Y0170849D03*
X0134870Y0166912D03*
X0134870Y0162975D03*
X0134870Y0159038D03*
X0134870Y0155101D03*
X0134870Y0151164D03*
X0134870Y0147227D03*
X0134870Y0143290D03*
X0134870Y0139353D03*
X0134870Y0135416D03*
X0134870Y0131479D03*
X0134870Y0127542D03*
X0134870Y0123605D03*
X0134870Y0119668D03*
X0134870Y0115731D03*
D20*
X0109280Y0112187D03*
X0105343Y0112187D03*
X0101406Y0112187D03*
X0097469Y0112187D03*
X0093531Y0112187D03*
X0089594Y0112187D03*
X0085657Y0112187D03*
X0081720Y0112187D03*
M02*
