%
M48
M72
T01C0.01200
T02C0.01772
T03C0.02362
T04C0.03937
T05C0.04000
T06C0.12598
%
T01
X122300Y147300
X122300Y160300
X185300Y160300
X185300Y147300
T02
X132347Y235674
X113253Y235674
T03
X101300Y102300
X110800Y92800
X137800Y74300
X142800Y74300
X147800Y74300
X142800Y87800
X160800Y92800
X165800Y92800
X165800Y97800
X160800Y97800
X160800Y110800
X159300Y147300
X164300Y147300
X169300Y147300
X144800Y166800
X138800Y147300
X133800Y147300
X128800Y147300
X132300Y192300
X153800Y191300
X163050Y193800
X162300Y230800
X167300Y230800
X166800Y237800
X166800Y246300
X143300Y230800
X138300Y230800
X116300Y227800
X116300Y222800
X111300Y222800
X111300Y227800
X111800Y193300
X203300Y127300
X208300Y127300
X213300Y127300
X234300Y127300
X239300Y127300
X244300Y127300
T04
X214300Y202800
X136973Y247091
X108627Y247091
T05
X73717Y94300
X73717Y104300
X73717Y114300
X73717Y124300
X73717Y134300
X73717Y144300
X73717Y164300
X73717Y174300
X73717Y184300
X73717Y194300
X73717Y204300
X73717Y214300
X190300Y241800
X200300Y241800
T06
X79623Y71623
X244977Y71623
X244977Y236977
X79623Y236977
M30
