G75*
%MOIN*%
%OFA0B0*%
%FSLAX25Y25*%
%IPPOS*%
%LPD*%
%AMOC8*
5,1,8,0,0,1.08239X$1,22.5*
%
%ADD10C,0.00600*%
%ADD11C,0.01200*%
%ADD12C,0.01600*%
%ADD13C,0.00000*%
%ADD14C,0.01000*%
%ADD15C,0.00500*%
D10*
X0069717Y0090700D02*
X0071217Y0089300D01*
X0076217Y0089300D01*
X0077917Y0090800D01*
X0083100Y0092600D02*
X0085369Y0094869D01*
X0085369Y0095436D01*
X0084801Y0096003D01*
X0083667Y0096003D01*
X0083100Y0095436D01*
X0083100Y0092600D02*
X0085369Y0092600D01*
X0086783Y0093734D02*
X0086783Y0096003D01*
X0086783Y0093734D02*
X0087917Y0092600D01*
X0089052Y0093734D01*
X0089052Y0096003D01*
X0090466Y0096003D02*
X0090466Y0094301D01*
X0091601Y0094869D01*
X0092168Y0094869D01*
X0092735Y0094301D01*
X0092735Y0093167D01*
X0092168Y0092600D01*
X0091033Y0092600D01*
X0090466Y0093167D01*
X0090466Y0096003D02*
X0092735Y0096003D01*
X0092168Y0102600D02*
X0091033Y0102600D01*
X0090466Y0103167D01*
X0092735Y0105436D01*
X0092735Y0103167D01*
X0092168Y0102600D01*
X0090466Y0103167D02*
X0090466Y0105436D01*
X0091033Y0106003D01*
X0092168Y0106003D01*
X0092735Y0105436D01*
X0089052Y0106003D02*
X0089052Y0103734D01*
X0087917Y0102600D01*
X0086783Y0103734D01*
X0086783Y0106003D01*
X0084234Y0106003D02*
X0084234Y0102600D01*
X0083100Y0102600D02*
X0085369Y0102600D01*
X0083100Y0104869D02*
X0084234Y0106003D01*
X0077717Y0107900D02*
X0076217Y0109300D01*
X0071217Y0109300D01*
X0069717Y0107900D01*
X0071217Y0109300D02*
X0069717Y0110700D01*
X0076217Y0109300D02*
X0077817Y0110700D01*
X0077717Y0117900D02*
X0076217Y0119300D01*
X0077717Y0120700D01*
X0076217Y0119300D02*
X0071217Y0119300D01*
X0069817Y0120700D01*
X0071217Y0119300D02*
X0069517Y0117900D01*
X0069617Y0127900D02*
X0071217Y0129300D01*
X0069617Y0130700D01*
X0071217Y0129300D02*
X0076217Y0129300D01*
X0077717Y0130700D01*
X0076217Y0129300D02*
X0077717Y0127900D01*
X0083100Y0125436D02*
X0083667Y0126003D01*
X0084801Y0126003D01*
X0085369Y0125436D01*
X0085369Y0124869D01*
X0084801Y0124301D01*
X0085369Y0123734D01*
X0085369Y0123167D01*
X0084801Y0122600D01*
X0083667Y0122600D01*
X0083100Y0123167D01*
X0084234Y0124301D02*
X0084801Y0124301D01*
X0086783Y0123734D02*
X0087917Y0122600D01*
X0089052Y0123734D01*
X0089052Y0126003D01*
X0090466Y0125436D02*
X0091033Y0126003D01*
X0092168Y0126003D01*
X0092735Y0125436D01*
X0092735Y0124869D01*
X0092168Y0124301D01*
X0092735Y0123734D01*
X0092735Y0123167D01*
X0092168Y0122600D01*
X0091033Y0122600D01*
X0090466Y0123167D01*
X0091601Y0124301D02*
X0092168Y0124301D01*
X0086783Y0123734D02*
X0086783Y0126003D01*
X0077717Y0137900D02*
X0076217Y0139300D01*
X0071217Y0139300D01*
X0069617Y0137900D01*
X0071217Y0139300D02*
X0069717Y0140700D01*
X0076217Y0139300D02*
X0077717Y0140700D01*
X0083100Y0143167D02*
X0083667Y0142600D01*
X0084801Y0142600D01*
X0085369Y0143167D01*
X0085369Y0144301D01*
X0084801Y0144869D01*
X0084234Y0144869D01*
X0083100Y0144301D01*
X0083100Y0146003D01*
X0085369Y0146003D01*
X0086783Y0146003D02*
X0086783Y0143734D01*
X0087917Y0142600D01*
X0089052Y0143734D01*
X0089052Y0146003D01*
X0090466Y0145436D02*
X0090466Y0143167D01*
X0092735Y0145436D01*
X0092735Y0143167D01*
X0092168Y0142600D01*
X0091033Y0142600D01*
X0090466Y0143167D01*
X0090466Y0145436D02*
X0091033Y0146003D01*
X0092168Y0146003D01*
X0092735Y0145436D01*
X0102344Y0145620D02*
X0102911Y0145053D01*
X0104046Y0145053D01*
X0104613Y0145620D01*
X0104613Y0146187D01*
X0104046Y0146755D01*
X0103478Y0146755D01*
X0104046Y0146755D02*
X0104613Y0147322D01*
X0104613Y0147889D01*
X0104046Y0148456D01*
X0102911Y0148456D01*
X0102344Y0147889D01*
X0106027Y0148456D02*
X0106027Y0146187D01*
X0107162Y0145053D01*
X0108296Y0146187D01*
X0108296Y0148456D01*
X0109710Y0147889D02*
X0110278Y0148456D01*
X0111412Y0148456D01*
X0111979Y0147889D01*
X0111979Y0147322D01*
X0111412Y0146755D01*
X0111979Y0146187D01*
X0111979Y0145620D01*
X0111412Y0145053D01*
X0110278Y0145053D01*
X0109710Y0145620D01*
X0110845Y0146755D02*
X0111412Y0146755D01*
X0092735Y0162600D02*
X0091601Y0163734D01*
X0092168Y0163734D02*
X0090466Y0163734D01*
X0090466Y0162600D02*
X0090466Y0166003D01*
X0092168Y0166003D01*
X0092735Y0165436D01*
X0092735Y0164301D01*
X0092168Y0163734D01*
X0089052Y0163167D02*
X0089052Y0165436D01*
X0088485Y0166003D01*
X0087350Y0166003D01*
X0086783Y0165436D01*
X0086783Y0163167D01*
X0087350Y0162600D01*
X0088485Y0162600D01*
X0089052Y0163167D01*
X0085369Y0164301D02*
X0084801Y0163734D01*
X0083100Y0163734D01*
X0083100Y0162600D02*
X0083100Y0166003D01*
X0084801Y0166003D01*
X0085369Y0165436D01*
X0085369Y0164301D01*
X0077617Y0167900D02*
X0076217Y0169300D01*
X0077617Y0170700D01*
X0076217Y0169300D02*
X0071217Y0169300D01*
X0069917Y0170600D01*
X0071217Y0169300D02*
X0069717Y0167900D01*
X0069717Y0160700D02*
X0071300Y0159300D01*
X0076300Y0159300D01*
X0077617Y0160700D01*
X0076217Y0149300D02*
X0071217Y0149300D01*
X0069717Y0147900D01*
X0076217Y0149300D02*
X0077617Y0147900D01*
X0101100Y0168100D02*
X0101100Y0171503D01*
X0102801Y0171503D01*
X0103369Y0170936D01*
X0103369Y0169801D01*
X0102801Y0169234D01*
X0101100Y0169234D01*
X0102234Y0169234D02*
X0103369Y0168100D01*
X0104783Y0168667D02*
X0105350Y0168100D01*
X0106485Y0168100D01*
X0107052Y0168667D01*
X0107052Y0169801D01*
X0106485Y0170369D01*
X0105917Y0170369D01*
X0104783Y0169801D01*
X0104783Y0171503D01*
X0107052Y0171503D01*
X0106485Y0181600D02*
X0105350Y0181600D01*
X0104783Y0182167D01*
X0104783Y0183301D01*
X0106485Y0183301D01*
X0107052Y0182734D01*
X0107052Y0182167D01*
X0106485Y0181600D01*
X0104783Y0183301D02*
X0105917Y0184436D01*
X0107052Y0185003D01*
X0103369Y0184436D02*
X0103369Y0183301D01*
X0102801Y0182734D01*
X0101100Y0182734D01*
X0101100Y0181600D02*
X0101100Y0185003D01*
X0102801Y0185003D01*
X0103369Y0184436D01*
X0102234Y0182734D02*
X0103369Y0181600D01*
X0092735Y0182600D02*
X0092735Y0186003D01*
X0090466Y0186003D02*
X0092735Y0182600D01*
X0090466Y0182600D02*
X0090466Y0186003D01*
X0089052Y0182033D02*
X0086783Y0182033D01*
X0085369Y0183167D02*
X0085369Y0185436D01*
X0084801Y0186003D01*
X0083100Y0186003D01*
X0083100Y0182600D01*
X0084801Y0182600D01*
X0085369Y0183167D01*
X0077617Y0180700D02*
X0076217Y0179300D01*
X0077617Y0177900D01*
X0076217Y0179300D02*
X0071217Y0179300D01*
X0069717Y0177900D01*
X0071217Y0179300D02*
X0069817Y0180700D01*
X0069717Y0187900D02*
X0071217Y0189300D01*
X0069917Y0190600D01*
X0071217Y0189300D02*
X0076217Y0189300D01*
X0077617Y0190700D01*
X0076217Y0189300D02*
X0077617Y0187900D01*
X0083100Y0192600D02*
X0084801Y0192600D01*
X0085369Y0193167D01*
X0085369Y0195436D01*
X0084801Y0196003D01*
X0083100Y0196003D01*
X0083100Y0192600D01*
X0086783Y0192033D02*
X0089052Y0192033D01*
X0090466Y0192600D02*
X0090466Y0196003D01*
X0092168Y0196003D01*
X0092735Y0195436D01*
X0092735Y0194301D01*
X0092168Y0193734D01*
X0090466Y0193734D01*
X0077517Y0198000D02*
X0076217Y0199300D01*
X0077617Y0200700D01*
X0076217Y0199300D02*
X0071217Y0199300D01*
X0069817Y0200700D01*
X0071217Y0199300D02*
X0069917Y0198000D01*
X0069817Y0208000D02*
X0071217Y0209300D01*
X0069717Y0210700D01*
X0071217Y0209300D02*
X0076217Y0209300D01*
X0077517Y0210600D01*
X0076217Y0209300D02*
X0077617Y0207900D01*
X0077617Y0217900D02*
X0076217Y0219300D01*
X0071217Y0219300D01*
X0069717Y0217900D01*
X0116844Y0178956D02*
X0116844Y0175553D01*
X0116844Y0176687D02*
X0118546Y0176687D01*
X0119113Y0177255D01*
X0119113Y0178389D01*
X0118546Y0178956D01*
X0116844Y0178956D01*
X0120527Y0178389D02*
X0120527Y0176120D01*
X0121094Y0175553D01*
X0122229Y0175553D01*
X0122796Y0176120D01*
X0122796Y0178389D01*
X0122229Y0178956D01*
X0121094Y0178956D01*
X0120527Y0178389D01*
X0124210Y0178956D02*
X0124210Y0175553D01*
X0124210Y0176687D02*
X0125912Y0176687D01*
X0126479Y0177255D01*
X0126479Y0178389D01*
X0125912Y0178956D01*
X0124210Y0178956D01*
X0125345Y0176687D02*
X0126479Y0175553D01*
X0128000Y0181200D02*
X0128000Y0183400D01*
X0136600Y0183400D02*
X0136600Y0181200D01*
X0135500Y0181800D02*
X0135473Y0181863D01*
X0135450Y0181928D01*
X0135430Y0181994D01*
X0135415Y0182061D01*
X0135403Y0182129D01*
X0135395Y0182197D01*
X0135391Y0182266D01*
X0135391Y0182334D01*
X0135395Y0182403D01*
X0135403Y0182471D01*
X0135415Y0182539D01*
X0135430Y0182606D01*
X0135450Y0182672D01*
X0135473Y0182737D01*
X0135500Y0182800D01*
X0137567Y0191100D02*
X0138701Y0191100D01*
X0139269Y0191667D01*
X0139269Y0194503D01*
X0140683Y0192801D02*
X0142952Y0192801D01*
X0142385Y0191100D02*
X0142385Y0194503D01*
X0140683Y0192801D01*
X0137567Y0191100D02*
X0137000Y0191667D01*
X0137000Y0194503D01*
X0149417Y0208100D02*
X0151685Y0208100D01*
X0153100Y0208667D02*
X0153667Y0208100D01*
X0154801Y0208100D01*
X0155369Y0208667D01*
X0155369Y0209234D01*
X0154801Y0209801D01*
X0154234Y0209801D01*
X0154801Y0209801D02*
X0155369Y0210369D01*
X0155369Y0210936D01*
X0154801Y0211503D01*
X0153667Y0211503D01*
X0153100Y0210936D01*
X0149417Y0211503D02*
X0149417Y0208100D01*
X0149850Y0222100D02*
X0150985Y0222100D01*
X0151552Y0222667D01*
X0151552Y0223234D01*
X0150985Y0223801D01*
X0149283Y0223801D01*
X0149283Y0222667D01*
X0149850Y0222100D01*
X0149283Y0223801D02*
X0150417Y0224936D01*
X0151552Y0225503D01*
X0147869Y0224936D02*
X0147301Y0225503D01*
X0146167Y0225503D01*
X0145600Y0224936D01*
X0145600Y0222667D01*
X0146167Y0222100D01*
X0147301Y0222100D01*
X0147869Y0222667D01*
X0170100Y0222667D02*
X0170667Y0222100D01*
X0171801Y0222100D01*
X0172369Y0222667D01*
X0173783Y0222100D02*
X0176052Y0222100D01*
X0174917Y0222100D02*
X0174917Y0225503D01*
X0173783Y0224369D01*
X0172369Y0224936D02*
X0171801Y0225503D01*
X0170667Y0225503D01*
X0170100Y0224936D01*
X0170100Y0222667D01*
X0177466Y0222667D02*
X0178033Y0222100D01*
X0179168Y0222100D01*
X0179735Y0222667D01*
X0179735Y0223801D01*
X0179168Y0224369D01*
X0178601Y0224369D01*
X0177466Y0223801D01*
X0177466Y0225503D01*
X0179735Y0225503D01*
X0174985Y0236100D02*
X0173850Y0236100D01*
X0173283Y0236667D01*
X0173283Y0237234D01*
X0173850Y0237801D01*
X0174985Y0237801D01*
X0175552Y0237234D01*
X0175552Y0236667D01*
X0174985Y0236100D01*
X0174985Y0237801D02*
X0175552Y0238369D01*
X0175552Y0238936D01*
X0174985Y0239503D01*
X0173850Y0239503D01*
X0173283Y0238936D01*
X0173283Y0238369D01*
X0173850Y0237801D01*
X0171869Y0237801D02*
X0171301Y0237234D01*
X0169600Y0237234D01*
X0169600Y0236100D02*
X0169600Y0239503D01*
X0171301Y0239503D01*
X0171869Y0238936D01*
X0171869Y0237801D01*
X0170734Y0237234D02*
X0171869Y0236100D01*
X0171301Y0244600D02*
X0170167Y0244600D01*
X0169600Y0245167D01*
X0169600Y0247436D01*
X0170167Y0248003D01*
X0171301Y0248003D01*
X0171869Y0247436D01*
X0173283Y0247436D02*
X0173283Y0246869D01*
X0173850Y0246301D01*
X0175552Y0246301D01*
X0175552Y0245167D02*
X0175552Y0247436D01*
X0174985Y0248003D01*
X0173850Y0248003D01*
X0173283Y0247436D01*
X0173283Y0245167D02*
X0173850Y0244600D01*
X0174985Y0244600D01*
X0175552Y0245167D01*
X0171869Y0245167D02*
X0171301Y0244600D01*
X0185300Y0244300D02*
X0185300Y0239300D01*
X0186600Y0238000D01*
X0185300Y0244300D02*
X0186600Y0245600D01*
X0194000Y0245600D02*
X0195300Y0244300D01*
X0196600Y0245600D01*
X0195300Y0244300D02*
X0195300Y0239300D01*
X0194000Y0238000D01*
X0195300Y0239300D02*
X0196600Y0238000D01*
X0204000Y0238100D02*
X0205300Y0239300D01*
X0205300Y0244300D01*
X0204000Y0245700D01*
X0207934Y0243703D02*
X0209069Y0243703D01*
X0208501Y0243703D02*
X0208501Y0240867D01*
X0207934Y0240300D01*
X0207367Y0240300D01*
X0206800Y0240867D01*
X0210483Y0240300D02*
X0210483Y0243703D01*
X0212185Y0243703D01*
X0212752Y0243136D01*
X0212752Y0242001D01*
X0212185Y0241434D01*
X0210483Y0241434D01*
X0214166Y0240300D02*
X0216435Y0240300D01*
X0215301Y0240300D02*
X0215301Y0243703D01*
X0214166Y0242569D01*
X0220844Y0218456D02*
X0220844Y0216755D01*
X0221978Y0217322D01*
X0222546Y0217322D01*
X0223113Y0216755D01*
X0223113Y0215620D01*
X0222546Y0215053D01*
X0221411Y0215053D01*
X0220844Y0215620D01*
X0220844Y0218456D02*
X0223113Y0218456D01*
X0224527Y0218456D02*
X0224527Y0216187D01*
X0225662Y0215053D01*
X0226796Y0216187D01*
X0226796Y0218456D01*
X0228210Y0217889D02*
X0228210Y0215620D01*
X0230479Y0217889D01*
X0230479Y0215620D01*
X0229912Y0215053D01*
X0228778Y0215053D01*
X0228210Y0215620D01*
X0228210Y0217889D02*
X0228778Y0218456D01*
X0229912Y0218456D01*
X0230479Y0217889D01*
X0229643Y0204503D02*
X0227942Y0204503D01*
X0227942Y0201100D01*
X0229643Y0201100D01*
X0230210Y0201667D01*
X0230210Y0203936D01*
X0229643Y0204503D01*
X0226527Y0204503D02*
X0226527Y0201100D01*
X0224258Y0204503D01*
X0224258Y0201100D01*
X0222844Y0201667D02*
X0222844Y0202801D01*
X0221710Y0202801D01*
X0222844Y0201667D02*
X0222277Y0201100D01*
X0221142Y0201100D01*
X0220575Y0201667D01*
X0220575Y0203936D01*
X0221142Y0204503D01*
X0222277Y0204503D01*
X0222844Y0203936D01*
X0209379Y0202800D02*
X0209381Y0202940D01*
X0209387Y0203080D01*
X0209397Y0203219D01*
X0209411Y0203358D01*
X0209429Y0203497D01*
X0209450Y0203635D01*
X0209476Y0203773D01*
X0209506Y0203910D01*
X0209539Y0204045D01*
X0209577Y0204180D01*
X0209618Y0204314D01*
X0209663Y0204447D01*
X0209711Y0204578D01*
X0209764Y0204707D01*
X0209820Y0204836D01*
X0209879Y0204962D01*
X0209943Y0205087D01*
X0210009Y0205210D01*
X0210080Y0205331D01*
X0210153Y0205450D01*
X0210230Y0205567D01*
X0210311Y0205681D01*
X0210394Y0205793D01*
X0210481Y0205903D01*
X0210571Y0206011D01*
X0210663Y0206115D01*
X0210759Y0206217D01*
X0210858Y0206317D01*
X0210959Y0206413D01*
X0211063Y0206507D01*
X0211170Y0206597D01*
X0211279Y0206684D01*
X0211391Y0206769D01*
X0211505Y0206850D01*
X0211621Y0206928D01*
X0211739Y0207002D01*
X0211860Y0207073D01*
X0211982Y0207141D01*
X0212107Y0207205D01*
X0212233Y0207266D01*
X0212360Y0207323D01*
X0212490Y0207376D01*
X0212621Y0207426D01*
X0212753Y0207471D01*
X0212886Y0207514D01*
X0213021Y0207552D01*
X0213156Y0207586D01*
X0213293Y0207617D01*
X0213430Y0207644D01*
X0213568Y0207666D01*
X0213707Y0207685D01*
X0213846Y0207700D01*
X0213985Y0207711D01*
X0214125Y0207718D01*
X0214265Y0207721D01*
X0214405Y0207720D01*
X0214545Y0207715D01*
X0214684Y0207706D01*
X0214824Y0207693D01*
X0214963Y0207676D01*
X0215101Y0207655D01*
X0215239Y0207631D01*
X0215376Y0207602D01*
X0215512Y0207570D01*
X0215647Y0207533D01*
X0215781Y0207493D01*
X0215914Y0207449D01*
X0216045Y0207401D01*
X0216175Y0207350D01*
X0216304Y0207295D01*
X0216431Y0207236D01*
X0216556Y0207173D01*
X0216679Y0207108D01*
X0216801Y0207038D01*
X0216920Y0206965D01*
X0217038Y0206889D01*
X0217153Y0206810D01*
X0217266Y0206727D01*
X0217376Y0206641D01*
X0217484Y0206552D01*
X0217589Y0206460D01*
X0217692Y0206365D01*
X0217792Y0206267D01*
X0217889Y0206167D01*
X0217983Y0206063D01*
X0218075Y0205957D01*
X0218163Y0205849D01*
X0218248Y0205738D01*
X0218330Y0205624D01*
X0218409Y0205508D01*
X0218484Y0205391D01*
X0218556Y0205271D01*
X0218624Y0205149D01*
X0218689Y0205025D01*
X0218751Y0204899D01*
X0218809Y0204772D01*
X0218863Y0204643D01*
X0218914Y0204512D01*
X0218960Y0204380D01*
X0219003Y0204247D01*
X0219043Y0204113D01*
X0219078Y0203978D01*
X0219110Y0203841D01*
X0219137Y0203704D01*
X0219161Y0203566D01*
X0219181Y0203428D01*
X0219197Y0203289D01*
X0219209Y0203149D01*
X0219217Y0203010D01*
X0219221Y0202870D01*
X0219221Y0202730D01*
X0219217Y0202590D01*
X0219209Y0202451D01*
X0219197Y0202311D01*
X0219181Y0202172D01*
X0219161Y0202034D01*
X0219137Y0201896D01*
X0219110Y0201759D01*
X0219078Y0201622D01*
X0219043Y0201487D01*
X0219003Y0201353D01*
X0218960Y0201220D01*
X0218914Y0201088D01*
X0218863Y0200957D01*
X0218809Y0200828D01*
X0218751Y0200701D01*
X0218689Y0200575D01*
X0218624Y0200451D01*
X0218556Y0200329D01*
X0218484Y0200209D01*
X0218409Y0200092D01*
X0218330Y0199976D01*
X0218248Y0199862D01*
X0218163Y0199751D01*
X0218075Y0199643D01*
X0217983Y0199537D01*
X0217889Y0199433D01*
X0217792Y0199333D01*
X0217692Y0199235D01*
X0217589Y0199140D01*
X0217484Y0199048D01*
X0217376Y0198959D01*
X0217266Y0198873D01*
X0217153Y0198790D01*
X0217038Y0198711D01*
X0216920Y0198635D01*
X0216801Y0198562D01*
X0216679Y0198492D01*
X0216556Y0198427D01*
X0216431Y0198364D01*
X0216304Y0198305D01*
X0216175Y0198250D01*
X0216045Y0198199D01*
X0215914Y0198151D01*
X0215781Y0198107D01*
X0215647Y0198067D01*
X0215512Y0198030D01*
X0215376Y0197998D01*
X0215239Y0197969D01*
X0215101Y0197945D01*
X0214963Y0197924D01*
X0214824Y0197907D01*
X0214684Y0197894D01*
X0214545Y0197885D01*
X0214405Y0197880D01*
X0214265Y0197879D01*
X0214125Y0197882D01*
X0213985Y0197889D01*
X0213846Y0197900D01*
X0213707Y0197915D01*
X0213568Y0197934D01*
X0213430Y0197956D01*
X0213293Y0197983D01*
X0213156Y0198014D01*
X0213021Y0198048D01*
X0212886Y0198086D01*
X0212753Y0198129D01*
X0212621Y0198174D01*
X0212490Y0198224D01*
X0212360Y0198277D01*
X0212233Y0198334D01*
X0212107Y0198395D01*
X0211982Y0198459D01*
X0211860Y0198527D01*
X0211739Y0198598D01*
X0211621Y0198672D01*
X0211505Y0198750D01*
X0211391Y0198831D01*
X0211279Y0198916D01*
X0211170Y0199003D01*
X0211063Y0199093D01*
X0210959Y0199187D01*
X0210858Y0199283D01*
X0210759Y0199383D01*
X0210663Y0199485D01*
X0210571Y0199589D01*
X0210481Y0199697D01*
X0210394Y0199807D01*
X0210311Y0199919D01*
X0210230Y0200033D01*
X0210153Y0200150D01*
X0210080Y0200269D01*
X0210009Y0200390D01*
X0209943Y0200513D01*
X0209879Y0200638D01*
X0209820Y0200764D01*
X0209764Y0200893D01*
X0209711Y0201022D01*
X0209663Y0201153D01*
X0209618Y0201286D01*
X0209577Y0201420D01*
X0209539Y0201555D01*
X0209506Y0201690D01*
X0209476Y0201827D01*
X0209450Y0201965D01*
X0209429Y0202103D01*
X0209411Y0202242D01*
X0209397Y0202381D01*
X0209387Y0202520D01*
X0209381Y0202660D01*
X0209379Y0202800D01*
X0187028Y0202889D02*
X0187028Y0202322D01*
X0186461Y0201755D01*
X0187028Y0201187D01*
X0187028Y0200620D01*
X0186461Y0200053D01*
X0185327Y0200053D01*
X0184760Y0200620D01*
X0183345Y0201187D02*
X0183345Y0203456D01*
X0184760Y0202889D02*
X0185327Y0203456D01*
X0186461Y0203456D01*
X0187028Y0202889D01*
X0186461Y0201755D02*
X0185894Y0201755D01*
X0183345Y0201187D02*
X0182211Y0200053D01*
X0181077Y0201187D01*
X0181077Y0203456D01*
X0179662Y0202889D02*
X0179662Y0202322D01*
X0179095Y0201755D01*
X0179662Y0201187D01*
X0179662Y0200620D01*
X0179095Y0200053D01*
X0177961Y0200053D01*
X0177394Y0200620D01*
X0178528Y0201755D02*
X0179095Y0201755D01*
X0179662Y0202889D02*
X0179095Y0203456D01*
X0177961Y0203456D01*
X0177394Y0202889D01*
X0175979Y0199486D02*
X0173710Y0199486D01*
X0172296Y0200620D02*
X0172296Y0201755D01*
X0171162Y0201755D01*
X0172296Y0202889D02*
X0171729Y0203456D01*
X0170594Y0203456D01*
X0170027Y0202889D01*
X0170027Y0200620D01*
X0170594Y0200053D01*
X0171729Y0200053D01*
X0172296Y0200620D01*
X0168613Y0201755D02*
X0168613Y0202889D01*
X0168046Y0203456D01*
X0166344Y0203456D01*
X0166344Y0200053D01*
X0166344Y0201187D02*
X0168046Y0201187D01*
X0168613Y0201755D01*
X0168769Y0185450D02*
X0164831Y0185450D01*
X0161288Y0185450D02*
X0161288Y0179150D01*
X0165028Y0179150D01*
X0168572Y0179150D02*
X0172312Y0179150D01*
X0172312Y0185450D01*
X0169485Y0173503D02*
X0170052Y0172936D01*
X0170052Y0172369D01*
X0169485Y0171801D01*
X0170052Y0171234D01*
X0170052Y0170667D01*
X0169485Y0170100D01*
X0168350Y0170100D01*
X0167783Y0170667D01*
X0166369Y0170667D02*
X0166369Y0173503D01*
X0167783Y0172936D02*
X0168350Y0173503D01*
X0169485Y0173503D01*
X0169485Y0171801D02*
X0168917Y0171801D01*
X0166369Y0170667D02*
X0165801Y0170100D01*
X0164667Y0170100D01*
X0164100Y0170667D01*
X0164100Y0173503D01*
X0159235Y0170100D02*
X0156966Y0170100D01*
X0158101Y0170100D02*
X0158101Y0173503D01*
X0156966Y0172369D01*
X0155552Y0170100D02*
X0153283Y0170100D01*
X0154417Y0170100D02*
X0154417Y0173503D01*
X0153283Y0172369D01*
X0151869Y0172936D02*
X0151301Y0173503D01*
X0150167Y0173503D01*
X0149600Y0172936D01*
X0149600Y0170667D01*
X0150167Y0170100D01*
X0151301Y0170100D01*
X0151869Y0170667D01*
X0146268Y0162003D02*
X0145133Y0162003D01*
X0144566Y0161436D01*
X0146268Y0162003D02*
X0146835Y0161436D01*
X0146835Y0160869D01*
X0144566Y0158600D01*
X0146835Y0158600D01*
X0143152Y0158600D02*
X0140883Y0158600D01*
X0142017Y0158600D02*
X0142017Y0162003D01*
X0140883Y0160869D01*
X0139469Y0161436D02*
X0138901Y0162003D01*
X0137767Y0162003D01*
X0137200Y0161436D01*
X0137200Y0159167D01*
X0137767Y0158600D01*
X0138901Y0158600D01*
X0139469Y0159167D01*
X0146600Y0149003D02*
X0146600Y0146167D01*
X0147167Y0145600D01*
X0148301Y0145600D01*
X0148869Y0146167D01*
X0148869Y0149003D01*
X0150283Y0147869D02*
X0151417Y0149003D01*
X0151417Y0145600D01*
X0150283Y0145600D02*
X0152552Y0145600D01*
X0152450Y0142312D02*
X0146150Y0142312D01*
X0146150Y0138855D02*
X0146150Y0134745D01*
X0146150Y0131288D02*
X0152450Y0131288D01*
X0152450Y0134745D02*
X0152450Y0135115D01*
X0152450Y0138485D02*
X0152450Y0138855D01*
X0162167Y0129503D02*
X0161600Y0128936D01*
X0161600Y0126667D01*
X0162167Y0126100D01*
X0163301Y0126100D01*
X0163869Y0126667D01*
X0165283Y0126667D02*
X0165283Y0126100D01*
X0165283Y0126667D02*
X0167552Y0128936D01*
X0167552Y0129503D01*
X0165283Y0129503D01*
X0163869Y0128936D02*
X0163301Y0129503D01*
X0162167Y0129503D01*
X0153485Y0119003D02*
X0152350Y0119003D01*
X0151783Y0118436D01*
X0150369Y0118436D02*
X0150369Y0117301D01*
X0149801Y0116734D01*
X0148100Y0116734D01*
X0148100Y0115600D02*
X0148100Y0119003D01*
X0149801Y0119003D01*
X0150369Y0118436D01*
X0149234Y0116734D02*
X0150369Y0115600D01*
X0151783Y0115600D02*
X0154052Y0117869D01*
X0154052Y0118436D01*
X0153485Y0119003D01*
X0154052Y0115600D02*
X0151783Y0115600D01*
X0138735Y0125667D02*
X0138735Y0127936D01*
X0136466Y0125667D01*
X0137033Y0125100D01*
X0138168Y0125100D01*
X0138735Y0125667D01*
X0136466Y0125667D02*
X0136466Y0127936D01*
X0137033Y0128503D01*
X0138168Y0128503D01*
X0138735Y0127936D01*
X0135052Y0125100D02*
X0132783Y0125100D01*
X0133917Y0125100D02*
X0133917Y0128503D01*
X0132783Y0127369D01*
X0131369Y0127936D02*
X0130801Y0128503D01*
X0129667Y0128503D01*
X0129100Y0127936D01*
X0129100Y0125667D01*
X0129667Y0125100D01*
X0130801Y0125100D01*
X0131369Y0125667D01*
X0124552Y0120936D02*
X0124552Y0120369D01*
X0123985Y0119801D01*
X0124552Y0119234D01*
X0124552Y0118667D01*
X0123985Y0118100D01*
X0122850Y0118100D01*
X0122283Y0118667D01*
X0120869Y0118667D02*
X0120301Y0118100D01*
X0119167Y0118100D01*
X0118600Y0118667D01*
X0118600Y0120936D01*
X0119167Y0121503D01*
X0120301Y0121503D01*
X0120869Y0120936D01*
X0122283Y0120936D02*
X0122850Y0121503D01*
X0123985Y0121503D01*
X0124552Y0120936D01*
X0123985Y0119801D02*
X0123417Y0119801D01*
X0123417Y0112503D02*
X0123417Y0109100D01*
X0122283Y0109100D02*
X0124552Y0109100D01*
X0122283Y0111369D02*
X0123417Y0112503D01*
X0120869Y0111936D02*
X0120869Y0110801D01*
X0120301Y0110234D01*
X0118600Y0110234D01*
X0118600Y0109100D02*
X0118600Y0112503D01*
X0120301Y0112503D01*
X0120869Y0111936D01*
X0119734Y0110234D02*
X0120869Y0109100D01*
X0113827Y0102238D02*
X0113025Y0103040D01*
X0112223Y0103040D01*
X0111223Y0104040D02*
X0110421Y0103238D01*
X0109619Y0103238D01*
X0108415Y0104441D01*
X0107613Y0103639D02*
X0110020Y0106045D01*
X0111223Y0104842D01*
X0111223Y0104040D01*
X0109217Y0103639D02*
X0109217Y0102035D01*
X0110619Y0101435D02*
X0110619Y0100633D01*
X0111421Y0099831D01*
X0112223Y0099831D01*
X0112624Y0100232D01*
X0112624Y0101034D01*
X0112223Y0101435D01*
X0112624Y0101034D02*
X0113426Y0101034D01*
X0113827Y0101435D01*
X0113827Y0102238D01*
X0126600Y0089003D02*
X0126600Y0085600D01*
X0128869Y0085600D01*
X0130283Y0085600D02*
X0132552Y0085600D01*
X0131417Y0085600D02*
X0131417Y0089003D01*
X0130283Y0087869D01*
X0129417Y0076003D02*
X0128283Y0074869D01*
X0126869Y0075436D02*
X0126301Y0076003D01*
X0125167Y0076003D01*
X0124600Y0075436D01*
X0124600Y0073167D01*
X0125167Y0072600D01*
X0126301Y0072600D01*
X0126869Y0073167D01*
X0128283Y0072600D02*
X0130552Y0072600D01*
X0129417Y0072600D02*
X0129417Y0076003D01*
X0131966Y0074301D02*
X0134235Y0074301D01*
X0133668Y0072600D02*
X0133668Y0076003D01*
X0131966Y0074301D01*
X0146150Y0089788D02*
X0152450Y0089788D01*
X0152450Y0093245D02*
X0152450Y0093615D01*
X0157100Y0089503D02*
X0157100Y0086667D01*
X0157667Y0086100D01*
X0158801Y0086100D01*
X0159369Y0086667D01*
X0159369Y0089503D01*
X0160783Y0089503D02*
X0160783Y0087801D01*
X0161917Y0088369D01*
X0162485Y0088369D01*
X0163052Y0087801D01*
X0163052Y0086667D01*
X0162485Y0086100D01*
X0161350Y0086100D01*
X0160783Y0086667D01*
X0160783Y0089503D02*
X0163052Y0089503D01*
X0152450Y0096985D02*
X0152450Y0097355D01*
X0152450Y0100812D02*
X0146150Y0100812D01*
X0146150Y0097355D02*
X0146150Y0093245D01*
X0154167Y0076003D02*
X0153600Y0075436D01*
X0153600Y0073167D01*
X0154167Y0072600D01*
X0155301Y0072600D01*
X0155869Y0073167D01*
X0157283Y0072600D02*
X0159552Y0072600D01*
X0158417Y0072600D02*
X0158417Y0076003D01*
X0157283Y0074869D01*
X0155869Y0075436D02*
X0155301Y0076003D01*
X0154167Y0076003D01*
X0160966Y0075436D02*
X0161533Y0076003D01*
X0162668Y0076003D01*
X0163235Y0075436D01*
X0163235Y0074869D01*
X0162668Y0074301D01*
X0163235Y0073734D01*
X0163235Y0073167D01*
X0162668Y0072600D01*
X0161533Y0072600D01*
X0160966Y0073167D01*
X0162101Y0074301D02*
X0162668Y0074301D01*
X0205600Y0105167D02*
X0206167Y0104600D01*
X0207301Y0104600D01*
X0207869Y0105167D01*
X0209283Y0104600D02*
X0211552Y0106869D01*
X0211552Y0107436D01*
X0210985Y0108003D01*
X0209850Y0108003D01*
X0209283Y0107436D01*
X0207869Y0107436D02*
X0207301Y0108003D01*
X0206167Y0108003D01*
X0205600Y0107436D01*
X0205600Y0105167D01*
X0209283Y0104600D02*
X0211552Y0104600D01*
X0213911Y0099956D02*
X0213344Y0099389D01*
X0213911Y0099956D02*
X0215046Y0099956D01*
X0215613Y0099389D01*
X0215613Y0098822D01*
X0213344Y0096553D01*
X0215613Y0096553D01*
X0217027Y0097687D02*
X0218162Y0096553D01*
X0219296Y0097687D01*
X0219296Y0099956D01*
X0220710Y0099956D02*
X0220710Y0098255D01*
X0221845Y0098822D01*
X0222412Y0098822D01*
X0222979Y0098255D01*
X0222979Y0097120D01*
X0222412Y0096553D01*
X0221278Y0096553D01*
X0220710Y0097120D01*
X0220710Y0099956D02*
X0222979Y0099956D01*
X0222301Y0105600D02*
X0221167Y0105600D01*
X0220600Y0106167D01*
X0220600Y0109003D01*
X0222869Y0109003D02*
X0222869Y0106167D01*
X0222301Y0105600D01*
X0224283Y0105600D02*
X0226552Y0107869D01*
X0226552Y0108436D01*
X0225985Y0109003D01*
X0224850Y0109003D01*
X0224283Y0108436D01*
X0224283Y0105600D02*
X0226552Y0105600D01*
X0226450Y0111788D02*
X0220150Y0111788D01*
X0220150Y0115245D02*
X0220150Y0119355D01*
X0220150Y0122812D02*
X0226450Y0122812D01*
X0226450Y0119355D02*
X0226450Y0118985D01*
X0226450Y0115615D02*
X0226450Y0115245D01*
X0236600Y0107936D02*
X0236600Y0105667D01*
X0237167Y0105100D01*
X0238301Y0105100D01*
X0238869Y0105667D01*
X0240283Y0105100D02*
X0242552Y0105100D01*
X0241417Y0105100D02*
X0241417Y0108503D01*
X0240283Y0107369D01*
X0238869Y0107936D02*
X0238301Y0108503D01*
X0237167Y0108503D01*
X0236600Y0107936D01*
X0217027Y0099956D02*
X0217027Y0097687D01*
X0181985Y0170100D02*
X0181985Y0173503D01*
X0180283Y0171801D01*
X0182552Y0171801D01*
X0178869Y0171801D02*
X0178869Y0172936D01*
X0178301Y0173503D01*
X0176600Y0173503D01*
X0176600Y0170100D01*
X0176600Y0171234D02*
X0178301Y0171234D01*
X0178869Y0171801D01*
X0177734Y0171234D02*
X0178869Y0170100D01*
X0077717Y0100700D02*
X0076217Y0099300D01*
X0077717Y0097900D01*
X0076217Y0099300D02*
X0071217Y0099300D01*
X0069817Y0100700D01*
X0071217Y0099300D02*
X0069717Y0097900D01*
X0105344Y0075822D02*
X0106478Y0076956D01*
X0106478Y0073553D01*
X0105344Y0073553D02*
X0107613Y0073553D01*
X0109027Y0074687D02*
X0110162Y0073553D01*
X0111296Y0074687D01*
X0111296Y0076956D01*
X0112710Y0076389D02*
X0112710Y0074120D01*
X0114979Y0076389D01*
X0114979Y0074120D01*
X0114412Y0073553D01*
X0113278Y0073553D01*
X0112710Y0074120D01*
X0112710Y0076389D02*
X0113278Y0076956D01*
X0114412Y0076956D01*
X0114979Y0076389D01*
X0109027Y0076956D02*
X0109027Y0074687D01*
D11*
X0111034Y0064706D02*
X0109900Y0063572D01*
X0111034Y0064706D02*
X0113303Y0064706D01*
X0114437Y0063572D01*
X0114437Y0062437D01*
X0109900Y0057900D01*
X0114437Y0057900D01*
X0117266Y0059034D02*
X0118401Y0057900D01*
X0120669Y0057900D01*
X0121803Y0059034D01*
X0121803Y0061303D01*
X0120669Y0062437D01*
X0119535Y0062437D01*
X0117266Y0061303D01*
X0117266Y0064706D01*
X0121803Y0064706D01*
X0144093Y0062437D02*
X0146362Y0064706D01*
X0146362Y0057900D01*
X0148630Y0057900D02*
X0144093Y0057900D01*
X0151460Y0059034D02*
X0152594Y0057900D01*
X0154862Y0057900D01*
X0155997Y0059034D01*
X0155997Y0060169D01*
X0154862Y0061303D01*
X0151460Y0061303D01*
X0151460Y0059034D01*
X0151460Y0061303D02*
X0153728Y0063572D01*
X0155997Y0064706D01*
X0158826Y0059034D02*
X0159960Y0059034D01*
X0159960Y0057900D01*
X0158826Y0057900D01*
X0158826Y0059034D01*
X0162509Y0057900D02*
X0167046Y0057900D01*
X0164778Y0057900D02*
X0164778Y0064706D01*
X0162509Y0062437D01*
X0169875Y0063572D02*
X0169875Y0059034D01*
X0174412Y0063572D01*
X0174412Y0059034D01*
X0173278Y0057900D01*
X0171010Y0057900D01*
X0169875Y0059034D01*
X0169875Y0063572D02*
X0171010Y0064706D01*
X0173278Y0064706D01*
X0174412Y0063572D01*
X0177242Y0059034D02*
X0178376Y0059034D01*
X0178376Y0057900D01*
X0177242Y0057900D01*
X0177242Y0059034D01*
X0180925Y0057900D02*
X0185462Y0062437D01*
X0185462Y0063572D01*
X0184328Y0064706D01*
X0182059Y0064706D01*
X0180925Y0063572D01*
X0180925Y0057900D02*
X0185462Y0057900D01*
X0188291Y0057900D02*
X0192828Y0062437D01*
X0192828Y0063572D01*
X0191694Y0064706D01*
X0189425Y0064706D01*
X0188291Y0063572D01*
X0188291Y0057900D02*
X0192828Y0057900D01*
X0195657Y0057900D02*
X0196792Y0057900D01*
X0196792Y0059034D01*
X0195657Y0059034D01*
X0195657Y0057900D01*
X0199340Y0057900D02*
X0199340Y0062437D01*
X0201609Y0064706D01*
X0203878Y0062437D01*
X0203878Y0057900D01*
X0203878Y0061303D02*
X0199340Y0061303D01*
D12*
X0131700Y0060596D02*
X0125100Y0060596D01*
X0125100Y0062194D02*
X0131700Y0062194D01*
X0131700Y0063793D02*
X0125100Y0063793D01*
X0125100Y0064000D02*
X0131700Y0064000D01*
X0131700Y0057600D01*
X0125100Y0057600D01*
X0125100Y0064000D01*
X0125100Y0058997D02*
X0131700Y0058997D01*
D13*
X0075686Y0055875D02*
X0063875Y0067686D01*
X0063875Y0240914D01*
X0075686Y0252725D01*
X0248914Y0252725D01*
X0260725Y0240914D01*
X0260725Y0067686D01*
X0248914Y0055875D01*
X0075686Y0055875D01*
X0073324Y0071623D02*
X0073326Y0071781D01*
X0073332Y0071939D01*
X0073342Y0072097D01*
X0073356Y0072255D01*
X0073374Y0072412D01*
X0073395Y0072569D01*
X0073421Y0072725D01*
X0073451Y0072881D01*
X0073484Y0073036D01*
X0073522Y0073189D01*
X0073563Y0073342D01*
X0073608Y0073494D01*
X0073657Y0073645D01*
X0073710Y0073794D01*
X0073766Y0073942D01*
X0073826Y0074088D01*
X0073890Y0074233D01*
X0073958Y0074376D01*
X0074029Y0074518D01*
X0074103Y0074658D01*
X0074181Y0074795D01*
X0074263Y0074931D01*
X0074347Y0075065D01*
X0074436Y0075196D01*
X0074527Y0075325D01*
X0074622Y0075452D01*
X0074719Y0075577D01*
X0074820Y0075699D01*
X0074924Y0075818D01*
X0075031Y0075935D01*
X0075141Y0076049D01*
X0075254Y0076160D01*
X0075369Y0076269D01*
X0075487Y0076374D01*
X0075608Y0076476D01*
X0075731Y0076576D01*
X0075857Y0076672D01*
X0075985Y0076765D01*
X0076115Y0076855D01*
X0076248Y0076941D01*
X0076383Y0077025D01*
X0076519Y0077104D01*
X0076658Y0077181D01*
X0076799Y0077253D01*
X0076941Y0077323D01*
X0077085Y0077388D01*
X0077231Y0077450D01*
X0077378Y0077508D01*
X0077527Y0077563D01*
X0077677Y0077614D01*
X0077828Y0077661D01*
X0077980Y0077704D01*
X0078133Y0077743D01*
X0078288Y0077779D01*
X0078443Y0077810D01*
X0078599Y0077838D01*
X0078755Y0077862D01*
X0078912Y0077882D01*
X0079070Y0077898D01*
X0079227Y0077910D01*
X0079386Y0077918D01*
X0079544Y0077922D01*
X0079702Y0077922D01*
X0079860Y0077918D01*
X0080019Y0077910D01*
X0080176Y0077898D01*
X0080334Y0077882D01*
X0080491Y0077862D01*
X0080647Y0077838D01*
X0080803Y0077810D01*
X0080958Y0077779D01*
X0081113Y0077743D01*
X0081266Y0077704D01*
X0081418Y0077661D01*
X0081569Y0077614D01*
X0081719Y0077563D01*
X0081868Y0077508D01*
X0082015Y0077450D01*
X0082161Y0077388D01*
X0082305Y0077323D01*
X0082447Y0077253D01*
X0082588Y0077181D01*
X0082727Y0077104D01*
X0082863Y0077025D01*
X0082998Y0076941D01*
X0083131Y0076855D01*
X0083261Y0076765D01*
X0083389Y0076672D01*
X0083515Y0076576D01*
X0083638Y0076476D01*
X0083759Y0076374D01*
X0083877Y0076269D01*
X0083992Y0076160D01*
X0084105Y0076049D01*
X0084215Y0075935D01*
X0084322Y0075818D01*
X0084426Y0075699D01*
X0084527Y0075577D01*
X0084624Y0075452D01*
X0084719Y0075325D01*
X0084810Y0075196D01*
X0084899Y0075065D01*
X0084983Y0074931D01*
X0085065Y0074795D01*
X0085143Y0074658D01*
X0085217Y0074518D01*
X0085288Y0074376D01*
X0085356Y0074233D01*
X0085420Y0074088D01*
X0085480Y0073942D01*
X0085536Y0073794D01*
X0085589Y0073645D01*
X0085638Y0073494D01*
X0085683Y0073342D01*
X0085724Y0073189D01*
X0085762Y0073036D01*
X0085795Y0072881D01*
X0085825Y0072725D01*
X0085851Y0072569D01*
X0085872Y0072412D01*
X0085890Y0072255D01*
X0085904Y0072097D01*
X0085914Y0071939D01*
X0085920Y0071781D01*
X0085922Y0071623D01*
X0085920Y0071465D01*
X0085914Y0071307D01*
X0085904Y0071149D01*
X0085890Y0070991D01*
X0085872Y0070834D01*
X0085851Y0070677D01*
X0085825Y0070521D01*
X0085795Y0070365D01*
X0085762Y0070210D01*
X0085724Y0070057D01*
X0085683Y0069904D01*
X0085638Y0069752D01*
X0085589Y0069601D01*
X0085536Y0069452D01*
X0085480Y0069304D01*
X0085420Y0069158D01*
X0085356Y0069013D01*
X0085288Y0068870D01*
X0085217Y0068728D01*
X0085143Y0068588D01*
X0085065Y0068451D01*
X0084983Y0068315D01*
X0084899Y0068181D01*
X0084810Y0068050D01*
X0084719Y0067921D01*
X0084624Y0067794D01*
X0084527Y0067669D01*
X0084426Y0067547D01*
X0084322Y0067428D01*
X0084215Y0067311D01*
X0084105Y0067197D01*
X0083992Y0067086D01*
X0083877Y0066977D01*
X0083759Y0066872D01*
X0083638Y0066770D01*
X0083515Y0066670D01*
X0083389Y0066574D01*
X0083261Y0066481D01*
X0083131Y0066391D01*
X0082998Y0066305D01*
X0082863Y0066221D01*
X0082727Y0066142D01*
X0082588Y0066065D01*
X0082447Y0065993D01*
X0082305Y0065923D01*
X0082161Y0065858D01*
X0082015Y0065796D01*
X0081868Y0065738D01*
X0081719Y0065683D01*
X0081569Y0065632D01*
X0081418Y0065585D01*
X0081266Y0065542D01*
X0081113Y0065503D01*
X0080958Y0065467D01*
X0080803Y0065436D01*
X0080647Y0065408D01*
X0080491Y0065384D01*
X0080334Y0065364D01*
X0080176Y0065348D01*
X0080019Y0065336D01*
X0079860Y0065328D01*
X0079702Y0065324D01*
X0079544Y0065324D01*
X0079386Y0065328D01*
X0079227Y0065336D01*
X0079070Y0065348D01*
X0078912Y0065364D01*
X0078755Y0065384D01*
X0078599Y0065408D01*
X0078443Y0065436D01*
X0078288Y0065467D01*
X0078133Y0065503D01*
X0077980Y0065542D01*
X0077828Y0065585D01*
X0077677Y0065632D01*
X0077527Y0065683D01*
X0077378Y0065738D01*
X0077231Y0065796D01*
X0077085Y0065858D01*
X0076941Y0065923D01*
X0076799Y0065993D01*
X0076658Y0066065D01*
X0076519Y0066142D01*
X0076383Y0066221D01*
X0076248Y0066305D01*
X0076115Y0066391D01*
X0075985Y0066481D01*
X0075857Y0066574D01*
X0075731Y0066670D01*
X0075608Y0066770D01*
X0075487Y0066872D01*
X0075369Y0066977D01*
X0075254Y0067086D01*
X0075141Y0067197D01*
X0075031Y0067311D01*
X0074924Y0067428D01*
X0074820Y0067547D01*
X0074719Y0067669D01*
X0074622Y0067794D01*
X0074527Y0067921D01*
X0074436Y0068050D01*
X0074347Y0068181D01*
X0074263Y0068315D01*
X0074181Y0068451D01*
X0074103Y0068588D01*
X0074029Y0068728D01*
X0073958Y0068870D01*
X0073890Y0069013D01*
X0073826Y0069158D01*
X0073766Y0069304D01*
X0073710Y0069452D01*
X0073657Y0069601D01*
X0073608Y0069752D01*
X0073563Y0069904D01*
X0073522Y0070057D01*
X0073484Y0070210D01*
X0073451Y0070365D01*
X0073421Y0070521D01*
X0073395Y0070677D01*
X0073374Y0070834D01*
X0073356Y0070991D01*
X0073342Y0071149D01*
X0073332Y0071307D01*
X0073326Y0071465D01*
X0073324Y0071623D01*
X0238678Y0071623D02*
X0238680Y0071781D01*
X0238686Y0071939D01*
X0238696Y0072097D01*
X0238710Y0072255D01*
X0238728Y0072412D01*
X0238749Y0072569D01*
X0238775Y0072725D01*
X0238805Y0072881D01*
X0238838Y0073036D01*
X0238876Y0073189D01*
X0238917Y0073342D01*
X0238962Y0073494D01*
X0239011Y0073645D01*
X0239064Y0073794D01*
X0239120Y0073942D01*
X0239180Y0074088D01*
X0239244Y0074233D01*
X0239312Y0074376D01*
X0239383Y0074518D01*
X0239457Y0074658D01*
X0239535Y0074795D01*
X0239617Y0074931D01*
X0239701Y0075065D01*
X0239790Y0075196D01*
X0239881Y0075325D01*
X0239976Y0075452D01*
X0240073Y0075577D01*
X0240174Y0075699D01*
X0240278Y0075818D01*
X0240385Y0075935D01*
X0240495Y0076049D01*
X0240608Y0076160D01*
X0240723Y0076269D01*
X0240841Y0076374D01*
X0240962Y0076476D01*
X0241085Y0076576D01*
X0241211Y0076672D01*
X0241339Y0076765D01*
X0241469Y0076855D01*
X0241602Y0076941D01*
X0241737Y0077025D01*
X0241873Y0077104D01*
X0242012Y0077181D01*
X0242153Y0077253D01*
X0242295Y0077323D01*
X0242439Y0077388D01*
X0242585Y0077450D01*
X0242732Y0077508D01*
X0242881Y0077563D01*
X0243031Y0077614D01*
X0243182Y0077661D01*
X0243334Y0077704D01*
X0243487Y0077743D01*
X0243642Y0077779D01*
X0243797Y0077810D01*
X0243953Y0077838D01*
X0244109Y0077862D01*
X0244266Y0077882D01*
X0244424Y0077898D01*
X0244581Y0077910D01*
X0244740Y0077918D01*
X0244898Y0077922D01*
X0245056Y0077922D01*
X0245214Y0077918D01*
X0245373Y0077910D01*
X0245530Y0077898D01*
X0245688Y0077882D01*
X0245845Y0077862D01*
X0246001Y0077838D01*
X0246157Y0077810D01*
X0246312Y0077779D01*
X0246467Y0077743D01*
X0246620Y0077704D01*
X0246772Y0077661D01*
X0246923Y0077614D01*
X0247073Y0077563D01*
X0247222Y0077508D01*
X0247369Y0077450D01*
X0247515Y0077388D01*
X0247659Y0077323D01*
X0247801Y0077253D01*
X0247942Y0077181D01*
X0248081Y0077104D01*
X0248217Y0077025D01*
X0248352Y0076941D01*
X0248485Y0076855D01*
X0248615Y0076765D01*
X0248743Y0076672D01*
X0248869Y0076576D01*
X0248992Y0076476D01*
X0249113Y0076374D01*
X0249231Y0076269D01*
X0249346Y0076160D01*
X0249459Y0076049D01*
X0249569Y0075935D01*
X0249676Y0075818D01*
X0249780Y0075699D01*
X0249881Y0075577D01*
X0249978Y0075452D01*
X0250073Y0075325D01*
X0250164Y0075196D01*
X0250253Y0075065D01*
X0250337Y0074931D01*
X0250419Y0074795D01*
X0250497Y0074658D01*
X0250571Y0074518D01*
X0250642Y0074376D01*
X0250710Y0074233D01*
X0250774Y0074088D01*
X0250834Y0073942D01*
X0250890Y0073794D01*
X0250943Y0073645D01*
X0250992Y0073494D01*
X0251037Y0073342D01*
X0251078Y0073189D01*
X0251116Y0073036D01*
X0251149Y0072881D01*
X0251179Y0072725D01*
X0251205Y0072569D01*
X0251226Y0072412D01*
X0251244Y0072255D01*
X0251258Y0072097D01*
X0251268Y0071939D01*
X0251274Y0071781D01*
X0251276Y0071623D01*
X0251274Y0071465D01*
X0251268Y0071307D01*
X0251258Y0071149D01*
X0251244Y0070991D01*
X0251226Y0070834D01*
X0251205Y0070677D01*
X0251179Y0070521D01*
X0251149Y0070365D01*
X0251116Y0070210D01*
X0251078Y0070057D01*
X0251037Y0069904D01*
X0250992Y0069752D01*
X0250943Y0069601D01*
X0250890Y0069452D01*
X0250834Y0069304D01*
X0250774Y0069158D01*
X0250710Y0069013D01*
X0250642Y0068870D01*
X0250571Y0068728D01*
X0250497Y0068588D01*
X0250419Y0068451D01*
X0250337Y0068315D01*
X0250253Y0068181D01*
X0250164Y0068050D01*
X0250073Y0067921D01*
X0249978Y0067794D01*
X0249881Y0067669D01*
X0249780Y0067547D01*
X0249676Y0067428D01*
X0249569Y0067311D01*
X0249459Y0067197D01*
X0249346Y0067086D01*
X0249231Y0066977D01*
X0249113Y0066872D01*
X0248992Y0066770D01*
X0248869Y0066670D01*
X0248743Y0066574D01*
X0248615Y0066481D01*
X0248485Y0066391D01*
X0248352Y0066305D01*
X0248217Y0066221D01*
X0248081Y0066142D01*
X0247942Y0066065D01*
X0247801Y0065993D01*
X0247659Y0065923D01*
X0247515Y0065858D01*
X0247369Y0065796D01*
X0247222Y0065738D01*
X0247073Y0065683D01*
X0246923Y0065632D01*
X0246772Y0065585D01*
X0246620Y0065542D01*
X0246467Y0065503D01*
X0246312Y0065467D01*
X0246157Y0065436D01*
X0246001Y0065408D01*
X0245845Y0065384D01*
X0245688Y0065364D01*
X0245530Y0065348D01*
X0245373Y0065336D01*
X0245214Y0065328D01*
X0245056Y0065324D01*
X0244898Y0065324D01*
X0244740Y0065328D01*
X0244581Y0065336D01*
X0244424Y0065348D01*
X0244266Y0065364D01*
X0244109Y0065384D01*
X0243953Y0065408D01*
X0243797Y0065436D01*
X0243642Y0065467D01*
X0243487Y0065503D01*
X0243334Y0065542D01*
X0243182Y0065585D01*
X0243031Y0065632D01*
X0242881Y0065683D01*
X0242732Y0065738D01*
X0242585Y0065796D01*
X0242439Y0065858D01*
X0242295Y0065923D01*
X0242153Y0065993D01*
X0242012Y0066065D01*
X0241873Y0066142D01*
X0241737Y0066221D01*
X0241602Y0066305D01*
X0241469Y0066391D01*
X0241339Y0066481D01*
X0241211Y0066574D01*
X0241085Y0066670D01*
X0240962Y0066770D01*
X0240841Y0066872D01*
X0240723Y0066977D01*
X0240608Y0067086D01*
X0240495Y0067197D01*
X0240385Y0067311D01*
X0240278Y0067428D01*
X0240174Y0067547D01*
X0240073Y0067669D01*
X0239976Y0067794D01*
X0239881Y0067921D01*
X0239790Y0068050D01*
X0239701Y0068181D01*
X0239617Y0068315D01*
X0239535Y0068451D01*
X0239457Y0068588D01*
X0239383Y0068728D01*
X0239312Y0068870D01*
X0239244Y0069013D01*
X0239180Y0069158D01*
X0239120Y0069304D01*
X0239064Y0069452D01*
X0239011Y0069601D01*
X0238962Y0069752D01*
X0238917Y0069904D01*
X0238876Y0070057D01*
X0238838Y0070210D01*
X0238805Y0070365D01*
X0238775Y0070521D01*
X0238749Y0070677D01*
X0238728Y0070834D01*
X0238710Y0070991D01*
X0238696Y0071149D01*
X0238686Y0071307D01*
X0238680Y0071465D01*
X0238678Y0071623D01*
X0238678Y0236977D02*
X0238680Y0237135D01*
X0238686Y0237293D01*
X0238696Y0237451D01*
X0238710Y0237609D01*
X0238728Y0237766D01*
X0238749Y0237923D01*
X0238775Y0238079D01*
X0238805Y0238235D01*
X0238838Y0238390D01*
X0238876Y0238543D01*
X0238917Y0238696D01*
X0238962Y0238848D01*
X0239011Y0238999D01*
X0239064Y0239148D01*
X0239120Y0239296D01*
X0239180Y0239442D01*
X0239244Y0239587D01*
X0239312Y0239730D01*
X0239383Y0239872D01*
X0239457Y0240012D01*
X0239535Y0240149D01*
X0239617Y0240285D01*
X0239701Y0240419D01*
X0239790Y0240550D01*
X0239881Y0240679D01*
X0239976Y0240806D01*
X0240073Y0240931D01*
X0240174Y0241053D01*
X0240278Y0241172D01*
X0240385Y0241289D01*
X0240495Y0241403D01*
X0240608Y0241514D01*
X0240723Y0241623D01*
X0240841Y0241728D01*
X0240962Y0241830D01*
X0241085Y0241930D01*
X0241211Y0242026D01*
X0241339Y0242119D01*
X0241469Y0242209D01*
X0241602Y0242295D01*
X0241737Y0242379D01*
X0241873Y0242458D01*
X0242012Y0242535D01*
X0242153Y0242607D01*
X0242295Y0242677D01*
X0242439Y0242742D01*
X0242585Y0242804D01*
X0242732Y0242862D01*
X0242881Y0242917D01*
X0243031Y0242968D01*
X0243182Y0243015D01*
X0243334Y0243058D01*
X0243487Y0243097D01*
X0243642Y0243133D01*
X0243797Y0243164D01*
X0243953Y0243192D01*
X0244109Y0243216D01*
X0244266Y0243236D01*
X0244424Y0243252D01*
X0244581Y0243264D01*
X0244740Y0243272D01*
X0244898Y0243276D01*
X0245056Y0243276D01*
X0245214Y0243272D01*
X0245373Y0243264D01*
X0245530Y0243252D01*
X0245688Y0243236D01*
X0245845Y0243216D01*
X0246001Y0243192D01*
X0246157Y0243164D01*
X0246312Y0243133D01*
X0246467Y0243097D01*
X0246620Y0243058D01*
X0246772Y0243015D01*
X0246923Y0242968D01*
X0247073Y0242917D01*
X0247222Y0242862D01*
X0247369Y0242804D01*
X0247515Y0242742D01*
X0247659Y0242677D01*
X0247801Y0242607D01*
X0247942Y0242535D01*
X0248081Y0242458D01*
X0248217Y0242379D01*
X0248352Y0242295D01*
X0248485Y0242209D01*
X0248615Y0242119D01*
X0248743Y0242026D01*
X0248869Y0241930D01*
X0248992Y0241830D01*
X0249113Y0241728D01*
X0249231Y0241623D01*
X0249346Y0241514D01*
X0249459Y0241403D01*
X0249569Y0241289D01*
X0249676Y0241172D01*
X0249780Y0241053D01*
X0249881Y0240931D01*
X0249978Y0240806D01*
X0250073Y0240679D01*
X0250164Y0240550D01*
X0250253Y0240419D01*
X0250337Y0240285D01*
X0250419Y0240149D01*
X0250497Y0240012D01*
X0250571Y0239872D01*
X0250642Y0239730D01*
X0250710Y0239587D01*
X0250774Y0239442D01*
X0250834Y0239296D01*
X0250890Y0239148D01*
X0250943Y0238999D01*
X0250992Y0238848D01*
X0251037Y0238696D01*
X0251078Y0238543D01*
X0251116Y0238390D01*
X0251149Y0238235D01*
X0251179Y0238079D01*
X0251205Y0237923D01*
X0251226Y0237766D01*
X0251244Y0237609D01*
X0251258Y0237451D01*
X0251268Y0237293D01*
X0251274Y0237135D01*
X0251276Y0236977D01*
X0251274Y0236819D01*
X0251268Y0236661D01*
X0251258Y0236503D01*
X0251244Y0236345D01*
X0251226Y0236188D01*
X0251205Y0236031D01*
X0251179Y0235875D01*
X0251149Y0235719D01*
X0251116Y0235564D01*
X0251078Y0235411D01*
X0251037Y0235258D01*
X0250992Y0235106D01*
X0250943Y0234955D01*
X0250890Y0234806D01*
X0250834Y0234658D01*
X0250774Y0234512D01*
X0250710Y0234367D01*
X0250642Y0234224D01*
X0250571Y0234082D01*
X0250497Y0233942D01*
X0250419Y0233805D01*
X0250337Y0233669D01*
X0250253Y0233535D01*
X0250164Y0233404D01*
X0250073Y0233275D01*
X0249978Y0233148D01*
X0249881Y0233023D01*
X0249780Y0232901D01*
X0249676Y0232782D01*
X0249569Y0232665D01*
X0249459Y0232551D01*
X0249346Y0232440D01*
X0249231Y0232331D01*
X0249113Y0232226D01*
X0248992Y0232124D01*
X0248869Y0232024D01*
X0248743Y0231928D01*
X0248615Y0231835D01*
X0248485Y0231745D01*
X0248352Y0231659D01*
X0248217Y0231575D01*
X0248081Y0231496D01*
X0247942Y0231419D01*
X0247801Y0231347D01*
X0247659Y0231277D01*
X0247515Y0231212D01*
X0247369Y0231150D01*
X0247222Y0231092D01*
X0247073Y0231037D01*
X0246923Y0230986D01*
X0246772Y0230939D01*
X0246620Y0230896D01*
X0246467Y0230857D01*
X0246312Y0230821D01*
X0246157Y0230790D01*
X0246001Y0230762D01*
X0245845Y0230738D01*
X0245688Y0230718D01*
X0245530Y0230702D01*
X0245373Y0230690D01*
X0245214Y0230682D01*
X0245056Y0230678D01*
X0244898Y0230678D01*
X0244740Y0230682D01*
X0244581Y0230690D01*
X0244424Y0230702D01*
X0244266Y0230718D01*
X0244109Y0230738D01*
X0243953Y0230762D01*
X0243797Y0230790D01*
X0243642Y0230821D01*
X0243487Y0230857D01*
X0243334Y0230896D01*
X0243182Y0230939D01*
X0243031Y0230986D01*
X0242881Y0231037D01*
X0242732Y0231092D01*
X0242585Y0231150D01*
X0242439Y0231212D01*
X0242295Y0231277D01*
X0242153Y0231347D01*
X0242012Y0231419D01*
X0241873Y0231496D01*
X0241737Y0231575D01*
X0241602Y0231659D01*
X0241469Y0231745D01*
X0241339Y0231835D01*
X0241211Y0231928D01*
X0241085Y0232024D01*
X0240962Y0232124D01*
X0240841Y0232226D01*
X0240723Y0232331D01*
X0240608Y0232440D01*
X0240495Y0232551D01*
X0240385Y0232665D01*
X0240278Y0232782D01*
X0240174Y0232901D01*
X0240073Y0233023D01*
X0239976Y0233148D01*
X0239881Y0233275D01*
X0239790Y0233404D01*
X0239701Y0233535D01*
X0239617Y0233669D01*
X0239535Y0233805D01*
X0239457Y0233942D01*
X0239383Y0234082D01*
X0239312Y0234224D01*
X0239244Y0234367D01*
X0239180Y0234512D01*
X0239120Y0234658D01*
X0239064Y0234806D01*
X0239011Y0234955D01*
X0238962Y0235106D01*
X0238917Y0235258D01*
X0238876Y0235411D01*
X0238838Y0235564D01*
X0238805Y0235719D01*
X0238775Y0235875D01*
X0238749Y0236031D01*
X0238728Y0236188D01*
X0238710Y0236345D01*
X0238696Y0236503D01*
X0238686Y0236661D01*
X0238680Y0236819D01*
X0238678Y0236977D01*
X0073324Y0236977D02*
X0073326Y0237135D01*
X0073332Y0237293D01*
X0073342Y0237451D01*
X0073356Y0237609D01*
X0073374Y0237766D01*
X0073395Y0237923D01*
X0073421Y0238079D01*
X0073451Y0238235D01*
X0073484Y0238390D01*
X0073522Y0238543D01*
X0073563Y0238696D01*
X0073608Y0238848D01*
X0073657Y0238999D01*
X0073710Y0239148D01*
X0073766Y0239296D01*
X0073826Y0239442D01*
X0073890Y0239587D01*
X0073958Y0239730D01*
X0074029Y0239872D01*
X0074103Y0240012D01*
X0074181Y0240149D01*
X0074263Y0240285D01*
X0074347Y0240419D01*
X0074436Y0240550D01*
X0074527Y0240679D01*
X0074622Y0240806D01*
X0074719Y0240931D01*
X0074820Y0241053D01*
X0074924Y0241172D01*
X0075031Y0241289D01*
X0075141Y0241403D01*
X0075254Y0241514D01*
X0075369Y0241623D01*
X0075487Y0241728D01*
X0075608Y0241830D01*
X0075731Y0241930D01*
X0075857Y0242026D01*
X0075985Y0242119D01*
X0076115Y0242209D01*
X0076248Y0242295D01*
X0076383Y0242379D01*
X0076519Y0242458D01*
X0076658Y0242535D01*
X0076799Y0242607D01*
X0076941Y0242677D01*
X0077085Y0242742D01*
X0077231Y0242804D01*
X0077378Y0242862D01*
X0077527Y0242917D01*
X0077677Y0242968D01*
X0077828Y0243015D01*
X0077980Y0243058D01*
X0078133Y0243097D01*
X0078288Y0243133D01*
X0078443Y0243164D01*
X0078599Y0243192D01*
X0078755Y0243216D01*
X0078912Y0243236D01*
X0079070Y0243252D01*
X0079227Y0243264D01*
X0079386Y0243272D01*
X0079544Y0243276D01*
X0079702Y0243276D01*
X0079860Y0243272D01*
X0080019Y0243264D01*
X0080176Y0243252D01*
X0080334Y0243236D01*
X0080491Y0243216D01*
X0080647Y0243192D01*
X0080803Y0243164D01*
X0080958Y0243133D01*
X0081113Y0243097D01*
X0081266Y0243058D01*
X0081418Y0243015D01*
X0081569Y0242968D01*
X0081719Y0242917D01*
X0081868Y0242862D01*
X0082015Y0242804D01*
X0082161Y0242742D01*
X0082305Y0242677D01*
X0082447Y0242607D01*
X0082588Y0242535D01*
X0082727Y0242458D01*
X0082863Y0242379D01*
X0082998Y0242295D01*
X0083131Y0242209D01*
X0083261Y0242119D01*
X0083389Y0242026D01*
X0083515Y0241930D01*
X0083638Y0241830D01*
X0083759Y0241728D01*
X0083877Y0241623D01*
X0083992Y0241514D01*
X0084105Y0241403D01*
X0084215Y0241289D01*
X0084322Y0241172D01*
X0084426Y0241053D01*
X0084527Y0240931D01*
X0084624Y0240806D01*
X0084719Y0240679D01*
X0084810Y0240550D01*
X0084899Y0240419D01*
X0084983Y0240285D01*
X0085065Y0240149D01*
X0085143Y0240012D01*
X0085217Y0239872D01*
X0085288Y0239730D01*
X0085356Y0239587D01*
X0085420Y0239442D01*
X0085480Y0239296D01*
X0085536Y0239148D01*
X0085589Y0238999D01*
X0085638Y0238848D01*
X0085683Y0238696D01*
X0085724Y0238543D01*
X0085762Y0238390D01*
X0085795Y0238235D01*
X0085825Y0238079D01*
X0085851Y0237923D01*
X0085872Y0237766D01*
X0085890Y0237609D01*
X0085904Y0237451D01*
X0085914Y0237293D01*
X0085920Y0237135D01*
X0085922Y0236977D01*
X0085920Y0236819D01*
X0085914Y0236661D01*
X0085904Y0236503D01*
X0085890Y0236345D01*
X0085872Y0236188D01*
X0085851Y0236031D01*
X0085825Y0235875D01*
X0085795Y0235719D01*
X0085762Y0235564D01*
X0085724Y0235411D01*
X0085683Y0235258D01*
X0085638Y0235106D01*
X0085589Y0234955D01*
X0085536Y0234806D01*
X0085480Y0234658D01*
X0085420Y0234512D01*
X0085356Y0234367D01*
X0085288Y0234224D01*
X0085217Y0234082D01*
X0085143Y0233942D01*
X0085065Y0233805D01*
X0084983Y0233669D01*
X0084899Y0233535D01*
X0084810Y0233404D01*
X0084719Y0233275D01*
X0084624Y0233148D01*
X0084527Y0233023D01*
X0084426Y0232901D01*
X0084322Y0232782D01*
X0084215Y0232665D01*
X0084105Y0232551D01*
X0083992Y0232440D01*
X0083877Y0232331D01*
X0083759Y0232226D01*
X0083638Y0232124D01*
X0083515Y0232024D01*
X0083389Y0231928D01*
X0083261Y0231835D01*
X0083131Y0231745D01*
X0082998Y0231659D01*
X0082863Y0231575D01*
X0082727Y0231496D01*
X0082588Y0231419D01*
X0082447Y0231347D01*
X0082305Y0231277D01*
X0082161Y0231212D01*
X0082015Y0231150D01*
X0081868Y0231092D01*
X0081719Y0231037D01*
X0081569Y0230986D01*
X0081418Y0230939D01*
X0081266Y0230896D01*
X0081113Y0230857D01*
X0080958Y0230821D01*
X0080803Y0230790D01*
X0080647Y0230762D01*
X0080491Y0230738D01*
X0080334Y0230718D01*
X0080176Y0230702D01*
X0080019Y0230690D01*
X0079860Y0230682D01*
X0079702Y0230678D01*
X0079544Y0230678D01*
X0079386Y0230682D01*
X0079227Y0230690D01*
X0079070Y0230702D01*
X0078912Y0230718D01*
X0078755Y0230738D01*
X0078599Y0230762D01*
X0078443Y0230790D01*
X0078288Y0230821D01*
X0078133Y0230857D01*
X0077980Y0230896D01*
X0077828Y0230939D01*
X0077677Y0230986D01*
X0077527Y0231037D01*
X0077378Y0231092D01*
X0077231Y0231150D01*
X0077085Y0231212D01*
X0076941Y0231277D01*
X0076799Y0231347D01*
X0076658Y0231419D01*
X0076519Y0231496D01*
X0076383Y0231575D01*
X0076248Y0231659D01*
X0076115Y0231745D01*
X0075985Y0231835D01*
X0075857Y0231928D01*
X0075731Y0232024D01*
X0075608Y0232124D01*
X0075487Y0232226D01*
X0075369Y0232331D01*
X0075254Y0232440D01*
X0075141Y0232551D01*
X0075031Y0232665D01*
X0074924Y0232782D01*
X0074820Y0232901D01*
X0074719Y0233023D01*
X0074622Y0233148D01*
X0074527Y0233275D01*
X0074436Y0233404D01*
X0074347Y0233535D01*
X0074263Y0233669D01*
X0074181Y0233805D01*
X0074103Y0233942D01*
X0074029Y0234082D01*
X0073958Y0234224D01*
X0073890Y0234367D01*
X0073826Y0234512D01*
X0073766Y0234658D01*
X0073710Y0234806D01*
X0073657Y0234955D01*
X0073608Y0235106D01*
X0073563Y0235258D01*
X0073522Y0235411D01*
X0073484Y0235564D01*
X0073451Y0235719D01*
X0073421Y0235875D01*
X0073395Y0236031D01*
X0073374Y0236188D01*
X0073356Y0236345D01*
X0073342Y0236503D01*
X0073332Y0236661D01*
X0073326Y0236819D01*
X0073324Y0236977D01*
D14*
X0067831Y0236958D02*
X0067835Y0237248D01*
X0067845Y0237538D01*
X0067863Y0237827D01*
X0067888Y0238116D01*
X0067920Y0238404D01*
X0067959Y0238691D01*
X0068005Y0238977D01*
X0068058Y0239262D01*
X0068118Y0239546D01*
X0068185Y0239828D01*
X0068259Y0240108D01*
X0068340Y0240387D01*
X0068427Y0240663D01*
X0068521Y0240937D01*
X0068622Y0241209D01*
X0068730Y0241478D01*
X0068844Y0241744D01*
X0068965Y0242008D01*
X0069092Y0242268D01*
X0069226Y0242526D01*
X0069365Y0242780D01*
X0069511Y0243030D01*
X0069663Y0243277D01*
X0069822Y0243520D01*
X0069986Y0243759D01*
X0070155Y0243994D01*
X0070331Y0244225D01*
X0070512Y0244451D01*
X0070699Y0244673D01*
X0070891Y0244890D01*
X0071088Y0245102D01*
X0071290Y0245310D01*
X0071498Y0245512D01*
X0071710Y0245709D01*
X0071927Y0245901D01*
X0072149Y0246088D01*
X0072375Y0246269D01*
X0072606Y0246445D01*
X0072841Y0246614D01*
X0073080Y0246778D01*
X0073323Y0246937D01*
X0073570Y0247089D01*
X0073820Y0247235D01*
X0074074Y0247374D01*
X0074332Y0247508D01*
X0074592Y0247635D01*
X0074856Y0247756D01*
X0075122Y0247870D01*
X0075391Y0247978D01*
X0075663Y0248079D01*
X0075937Y0248173D01*
X0076213Y0248260D01*
X0076492Y0248341D01*
X0076772Y0248415D01*
X0077054Y0248482D01*
X0077338Y0248542D01*
X0077623Y0248595D01*
X0077909Y0248641D01*
X0078196Y0248680D01*
X0078484Y0248712D01*
X0078773Y0248737D01*
X0079062Y0248755D01*
X0079352Y0248765D01*
X0079642Y0248769D01*
X0079932Y0248765D01*
X0080222Y0248755D01*
X0080511Y0248737D01*
X0080800Y0248712D01*
X0081088Y0248680D01*
X0081375Y0248641D01*
X0081661Y0248595D01*
X0081946Y0248542D01*
X0082230Y0248482D01*
X0082512Y0248415D01*
X0082792Y0248341D01*
X0083071Y0248260D01*
X0083347Y0248173D01*
X0083621Y0248079D01*
X0083893Y0247978D01*
X0084162Y0247870D01*
X0084428Y0247756D01*
X0084692Y0247635D01*
X0084952Y0247508D01*
X0085210Y0247374D01*
X0085464Y0247235D01*
X0085714Y0247089D01*
X0085961Y0246937D01*
X0086204Y0246778D01*
X0086443Y0246614D01*
X0086678Y0246445D01*
X0086909Y0246269D01*
X0087135Y0246088D01*
X0087357Y0245901D01*
X0087574Y0245709D01*
X0087786Y0245512D01*
X0087994Y0245310D01*
X0088196Y0245102D01*
X0088393Y0244890D01*
X0088585Y0244673D01*
X0088772Y0244451D01*
X0088953Y0244225D01*
X0089129Y0243994D01*
X0089298Y0243759D01*
X0089462Y0243520D01*
X0089621Y0243277D01*
X0089773Y0243030D01*
X0089919Y0242780D01*
X0090058Y0242526D01*
X0090192Y0242268D01*
X0090319Y0242008D01*
X0090440Y0241744D01*
X0090554Y0241478D01*
X0090662Y0241209D01*
X0090763Y0240937D01*
X0090857Y0240663D01*
X0090944Y0240387D01*
X0091025Y0240108D01*
X0091099Y0239828D01*
X0091166Y0239546D01*
X0091226Y0239262D01*
X0091279Y0238977D01*
X0091325Y0238691D01*
X0091364Y0238404D01*
X0091396Y0238116D01*
X0091421Y0237827D01*
X0091439Y0237538D01*
X0091449Y0237248D01*
X0091453Y0236958D01*
X0091449Y0236668D01*
X0091439Y0236378D01*
X0091421Y0236089D01*
X0091396Y0235800D01*
X0091364Y0235512D01*
X0091325Y0235225D01*
X0091279Y0234939D01*
X0091226Y0234654D01*
X0091166Y0234370D01*
X0091099Y0234088D01*
X0091025Y0233808D01*
X0090944Y0233529D01*
X0090857Y0233253D01*
X0090763Y0232979D01*
X0090662Y0232707D01*
X0090554Y0232438D01*
X0090440Y0232172D01*
X0090319Y0231908D01*
X0090192Y0231648D01*
X0090058Y0231390D01*
X0089919Y0231136D01*
X0089773Y0230886D01*
X0089621Y0230639D01*
X0089462Y0230396D01*
X0089298Y0230157D01*
X0089129Y0229922D01*
X0088953Y0229691D01*
X0088772Y0229465D01*
X0088585Y0229243D01*
X0088393Y0229026D01*
X0088196Y0228814D01*
X0087994Y0228606D01*
X0087786Y0228404D01*
X0087574Y0228207D01*
X0087357Y0228015D01*
X0087135Y0227828D01*
X0086909Y0227647D01*
X0086678Y0227471D01*
X0086443Y0227302D01*
X0086204Y0227138D01*
X0085961Y0226979D01*
X0085714Y0226827D01*
X0085464Y0226681D01*
X0085210Y0226542D01*
X0084952Y0226408D01*
X0084692Y0226281D01*
X0084428Y0226160D01*
X0084162Y0226046D01*
X0083893Y0225938D01*
X0083621Y0225837D01*
X0083347Y0225743D01*
X0083071Y0225656D01*
X0082792Y0225575D01*
X0082512Y0225501D01*
X0082230Y0225434D01*
X0081946Y0225374D01*
X0081661Y0225321D01*
X0081375Y0225275D01*
X0081088Y0225236D01*
X0080800Y0225204D01*
X0080511Y0225179D01*
X0080222Y0225161D01*
X0079932Y0225151D01*
X0079642Y0225147D01*
X0079352Y0225151D01*
X0079062Y0225161D01*
X0078773Y0225179D01*
X0078484Y0225204D01*
X0078196Y0225236D01*
X0077909Y0225275D01*
X0077623Y0225321D01*
X0077338Y0225374D01*
X0077054Y0225434D01*
X0076772Y0225501D01*
X0076492Y0225575D01*
X0076213Y0225656D01*
X0075937Y0225743D01*
X0075663Y0225837D01*
X0075391Y0225938D01*
X0075122Y0226046D01*
X0074856Y0226160D01*
X0074592Y0226281D01*
X0074332Y0226408D01*
X0074074Y0226542D01*
X0073820Y0226681D01*
X0073570Y0226827D01*
X0073323Y0226979D01*
X0073080Y0227138D01*
X0072841Y0227302D01*
X0072606Y0227471D01*
X0072375Y0227647D01*
X0072149Y0227828D01*
X0071927Y0228015D01*
X0071710Y0228207D01*
X0071498Y0228404D01*
X0071290Y0228606D01*
X0071088Y0228814D01*
X0070891Y0229026D01*
X0070699Y0229243D01*
X0070512Y0229465D01*
X0070331Y0229691D01*
X0070155Y0229922D01*
X0069986Y0230157D01*
X0069822Y0230396D01*
X0069663Y0230639D01*
X0069511Y0230886D01*
X0069365Y0231136D01*
X0069226Y0231390D01*
X0069092Y0231648D01*
X0068965Y0231908D01*
X0068844Y0232172D01*
X0068730Y0232438D01*
X0068622Y0232707D01*
X0068521Y0232979D01*
X0068427Y0233253D01*
X0068340Y0233529D01*
X0068259Y0233808D01*
X0068185Y0234088D01*
X0068118Y0234370D01*
X0068058Y0234654D01*
X0068005Y0234939D01*
X0067959Y0235225D01*
X0067920Y0235512D01*
X0067888Y0235800D01*
X0067863Y0236089D01*
X0067845Y0236378D01*
X0067835Y0236668D01*
X0067831Y0236958D01*
X0233185Y0236958D02*
X0233189Y0237248D01*
X0233199Y0237538D01*
X0233217Y0237827D01*
X0233242Y0238116D01*
X0233274Y0238404D01*
X0233313Y0238691D01*
X0233359Y0238977D01*
X0233412Y0239262D01*
X0233472Y0239546D01*
X0233539Y0239828D01*
X0233613Y0240108D01*
X0233694Y0240387D01*
X0233781Y0240663D01*
X0233875Y0240937D01*
X0233976Y0241209D01*
X0234084Y0241478D01*
X0234198Y0241744D01*
X0234319Y0242008D01*
X0234446Y0242268D01*
X0234580Y0242526D01*
X0234719Y0242780D01*
X0234865Y0243030D01*
X0235017Y0243277D01*
X0235176Y0243520D01*
X0235340Y0243759D01*
X0235509Y0243994D01*
X0235685Y0244225D01*
X0235866Y0244451D01*
X0236053Y0244673D01*
X0236245Y0244890D01*
X0236442Y0245102D01*
X0236644Y0245310D01*
X0236852Y0245512D01*
X0237064Y0245709D01*
X0237281Y0245901D01*
X0237503Y0246088D01*
X0237729Y0246269D01*
X0237960Y0246445D01*
X0238195Y0246614D01*
X0238434Y0246778D01*
X0238677Y0246937D01*
X0238924Y0247089D01*
X0239174Y0247235D01*
X0239428Y0247374D01*
X0239686Y0247508D01*
X0239946Y0247635D01*
X0240210Y0247756D01*
X0240476Y0247870D01*
X0240745Y0247978D01*
X0241017Y0248079D01*
X0241291Y0248173D01*
X0241567Y0248260D01*
X0241846Y0248341D01*
X0242126Y0248415D01*
X0242408Y0248482D01*
X0242692Y0248542D01*
X0242977Y0248595D01*
X0243263Y0248641D01*
X0243550Y0248680D01*
X0243838Y0248712D01*
X0244127Y0248737D01*
X0244416Y0248755D01*
X0244706Y0248765D01*
X0244996Y0248769D01*
X0245286Y0248765D01*
X0245576Y0248755D01*
X0245865Y0248737D01*
X0246154Y0248712D01*
X0246442Y0248680D01*
X0246729Y0248641D01*
X0247015Y0248595D01*
X0247300Y0248542D01*
X0247584Y0248482D01*
X0247866Y0248415D01*
X0248146Y0248341D01*
X0248425Y0248260D01*
X0248701Y0248173D01*
X0248975Y0248079D01*
X0249247Y0247978D01*
X0249516Y0247870D01*
X0249782Y0247756D01*
X0250046Y0247635D01*
X0250306Y0247508D01*
X0250564Y0247374D01*
X0250818Y0247235D01*
X0251068Y0247089D01*
X0251315Y0246937D01*
X0251558Y0246778D01*
X0251797Y0246614D01*
X0252032Y0246445D01*
X0252263Y0246269D01*
X0252489Y0246088D01*
X0252711Y0245901D01*
X0252928Y0245709D01*
X0253140Y0245512D01*
X0253348Y0245310D01*
X0253550Y0245102D01*
X0253747Y0244890D01*
X0253939Y0244673D01*
X0254126Y0244451D01*
X0254307Y0244225D01*
X0254483Y0243994D01*
X0254652Y0243759D01*
X0254816Y0243520D01*
X0254975Y0243277D01*
X0255127Y0243030D01*
X0255273Y0242780D01*
X0255412Y0242526D01*
X0255546Y0242268D01*
X0255673Y0242008D01*
X0255794Y0241744D01*
X0255908Y0241478D01*
X0256016Y0241209D01*
X0256117Y0240937D01*
X0256211Y0240663D01*
X0256298Y0240387D01*
X0256379Y0240108D01*
X0256453Y0239828D01*
X0256520Y0239546D01*
X0256580Y0239262D01*
X0256633Y0238977D01*
X0256679Y0238691D01*
X0256718Y0238404D01*
X0256750Y0238116D01*
X0256775Y0237827D01*
X0256793Y0237538D01*
X0256803Y0237248D01*
X0256807Y0236958D01*
X0256803Y0236668D01*
X0256793Y0236378D01*
X0256775Y0236089D01*
X0256750Y0235800D01*
X0256718Y0235512D01*
X0256679Y0235225D01*
X0256633Y0234939D01*
X0256580Y0234654D01*
X0256520Y0234370D01*
X0256453Y0234088D01*
X0256379Y0233808D01*
X0256298Y0233529D01*
X0256211Y0233253D01*
X0256117Y0232979D01*
X0256016Y0232707D01*
X0255908Y0232438D01*
X0255794Y0232172D01*
X0255673Y0231908D01*
X0255546Y0231648D01*
X0255412Y0231390D01*
X0255273Y0231136D01*
X0255127Y0230886D01*
X0254975Y0230639D01*
X0254816Y0230396D01*
X0254652Y0230157D01*
X0254483Y0229922D01*
X0254307Y0229691D01*
X0254126Y0229465D01*
X0253939Y0229243D01*
X0253747Y0229026D01*
X0253550Y0228814D01*
X0253348Y0228606D01*
X0253140Y0228404D01*
X0252928Y0228207D01*
X0252711Y0228015D01*
X0252489Y0227828D01*
X0252263Y0227647D01*
X0252032Y0227471D01*
X0251797Y0227302D01*
X0251558Y0227138D01*
X0251315Y0226979D01*
X0251068Y0226827D01*
X0250818Y0226681D01*
X0250564Y0226542D01*
X0250306Y0226408D01*
X0250046Y0226281D01*
X0249782Y0226160D01*
X0249516Y0226046D01*
X0249247Y0225938D01*
X0248975Y0225837D01*
X0248701Y0225743D01*
X0248425Y0225656D01*
X0248146Y0225575D01*
X0247866Y0225501D01*
X0247584Y0225434D01*
X0247300Y0225374D01*
X0247015Y0225321D01*
X0246729Y0225275D01*
X0246442Y0225236D01*
X0246154Y0225204D01*
X0245865Y0225179D01*
X0245576Y0225161D01*
X0245286Y0225151D01*
X0244996Y0225147D01*
X0244706Y0225151D01*
X0244416Y0225161D01*
X0244127Y0225179D01*
X0243838Y0225204D01*
X0243550Y0225236D01*
X0243263Y0225275D01*
X0242977Y0225321D01*
X0242692Y0225374D01*
X0242408Y0225434D01*
X0242126Y0225501D01*
X0241846Y0225575D01*
X0241567Y0225656D01*
X0241291Y0225743D01*
X0241017Y0225837D01*
X0240745Y0225938D01*
X0240476Y0226046D01*
X0240210Y0226160D01*
X0239946Y0226281D01*
X0239686Y0226408D01*
X0239428Y0226542D01*
X0239174Y0226681D01*
X0238924Y0226827D01*
X0238677Y0226979D01*
X0238434Y0227138D01*
X0238195Y0227302D01*
X0237960Y0227471D01*
X0237729Y0227647D01*
X0237503Y0227828D01*
X0237281Y0228015D01*
X0237064Y0228207D01*
X0236852Y0228404D01*
X0236644Y0228606D01*
X0236442Y0228814D01*
X0236245Y0229026D01*
X0236053Y0229243D01*
X0235866Y0229465D01*
X0235685Y0229691D01*
X0235509Y0229922D01*
X0235340Y0230157D01*
X0235176Y0230396D01*
X0235017Y0230639D01*
X0234865Y0230886D01*
X0234719Y0231136D01*
X0234580Y0231390D01*
X0234446Y0231648D01*
X0234319Y0231908D01*
X0234198Y0232172D01*
X0234084Y0232438D01*
X0233976Y0232707D01*
X0233875Y0232979D01*
X0233781Y0233253D01*
X0233694Y0233529D01*
X0233613Y0233808D01*
X0233539Y0234088D01*
X0233472Y0234370D01*
X0233412Y0234654D01*
X0233359Y0234939D01*
X0233313Y0235225D01*
X0233274Y0235512D01*
X0233242Y0235800D01*
X0233217Y0236089D01*
X0233199Y0236378D01*
X0233189Y0236668D01*
X0233185Y0236958D01*
X0233185Y0071604D02*
X0233189Y0071894D01*
X0233199Y0072184D01*
X0233217Y0072473D01*
X0233242Y0072762D01*
X0233274Y0073050D01*
X0233313Y0073337D01*
X0233359Y0073623D01*
X0233412Y0073908D01*
X0233472Y0074192D01*
X0233539Y0074474D01*
X0233613Y0074754D01*
X0233694Y0075033D01*
X0233781Y0075309D01*
X0233875Y0075583D01*
X0233976Y0075855D01*
X0234084Y0076124D01*
X0234198Y0076390D01*
X0234319Y0076654D01*
X0234446Y0076914D01*
X0234580Y0077172D01*
X0234719Y0077426D01*
X0234865Y0077676D01*
X0235017Y0077923D01*
X0235176Y0078166D01*
X0235340Y0078405D01*
X0235509Y0078640D01*
X0235685Y0078871D01*
X0235866Y0079097D01*
X0236053Y0079319D01*
X0236245Y0079536D01*
X0236442Y0079748D01*
X0236644Y0079956D01*
X0236852Y0080158D01*
X0237064Y0080355D01*
X0237281Y0080547D01*
X0237503Y0080734D01*
X0237729Y0080915D01*
X0237960Y0081091D01*
X0238195Y0081260D01*
X0238434Y0081424D01*
X0238677Y0081583D01*
X0238924Y0081735D01*
X0239174Y0081881D01*
X0239428Y0082020D01*
X0239686Y0082154D01*
X0239946Y0082281D01*
X0240210Y0082402D01*
X0240476Y0082516D01*
X0240745Y0082624D01*
X0241017Y0082725D01*
X0241291Y0082819D01*
X0241567Y0082906D01*
X0241846Y0082987D01*
X0242126Y0083061D01*
X0242408Y0083128D01*
X0242692Y0083188D01*
X0242977Y0083241D01*
X0243263Y0083287D01*
X0243550Y0083326D01*
X0243838Y0083358D01*
X0244127Y0083383D01*
X0244416Y0083401D01*
X0244706Y0083411D01*
X0244996Y0083415D01*
X0245286Y0083411D01*
X0245576Y0083401D01*
X0245865Y0083383D01*
X0246154Y0083358D01*
X0246442Y0083326D01*
X0246729Y0083287D01*
X0247015Y0083241D01*
X0247300Y0083188D01*
X0247584Y0083128D01*
X0247866Y0083061D01*
X0248146Y0082987D01*
X0248425Y0082906D01*
X0248701Y0082819D01*
X0248975Y0082725D01*
X0249247Y0082624D01*
X0249516Y0082516D01*
X0249782Y0082402D01*
X0250046Y0082281D01*
X0250306Y0082154D01*
X0250564Y0082020D01*
X0250818Y0081881D01*
X0251068Y0081735D01*
X0251315Y0081583D01*
X0251558Y0081424D01*
X0251797Y0081260D01*
X0252032Y0081091D01*
X0252263Y0080915D01*
X0252489Y0080734D01*
X0252711Y0080547D01*
X0252928Y0080355D01*
X0253140Y0080158D01*
X0253348Y0079956D01*
X0253550Y0079748D01*
X0253747Y0079536D01*
X0253939Y0079319D01*
X0254126Y0079097D01*
X0254307Y0078871D01*
X0254483Y0078640D01*
X0254652Y0078405D01*
X0254816Y0078166D01*
X0254975Y0077923D01*
X0255127Y0077676D01*
X0255273Y0077426D01*
X0255412Y0077172D01*
X0255546Y0076914D01*
X0255673Y0076654D01*
X0255794Y0076390D01*
X0255908Y0076124D01*
X0256016Y0075855D01*
X0256117Y0075583D01*
X0256211Y0075309D01*
X0256298Y0075033D01*
X0256379Y0074754D01*
X0256453Y0074474D01*
X0256520Y0074192D01*
X0256580Y0073908D01*
X0256633Y0073623D01*
X0256679Y0073337D01*
X0256718Y0073050D01*
X0256750Y0072762D01*
X0256775Y0072473D01*
X0256793Y0072184D01*
X0256803Y0071894D01*
X0256807Y0071604D01*
X0256803Y0071314D01*
X0256793Y0071024D01*
X0256775Y0070735D01*
X0256750Y0070446D01*
X0256718Y0070158D01*
X0256679Y0069871D01*
X0256633Y0069585D01*
X0256580Y0069300D01*
X0256520Y0069016D01*
X0256453Y0068734D01*
X0256379Y0068454D01*
X0256298Y0068175D01*
X0256211Y0067899D01*
X0256117Y0067625D01*
X0256016Y0067353D01*
X0255908Y0067084D01*
X0255794Y0066818D01*
X0255673Y0066554D01*
X0255546Y0066294D01*
X0255412Y0066036D01*
X0255273Y0065782D01*
X0255127Y0065532D01*
X0254975Y0065285D01*
X0254816Y0065042D01*
X0254652Y0064803D01*
X0254483Y0064568D01*
X0254307Y0064337D01*
X0254126Y0064111D01*
X0253939Y0063889D01*
X0253747Y0063672D01*
X0253550Y0063460D01*
X0253348Y0063252D01*
X0253140Y0063050D01*
X0252928Y0062853D01*
X0252711Y0062661D01*
X0252489Y0062474D01*
X0252263Y0062293D01*
X0252032Y0062117D01*
X0251797Y0061948D01*
X0251558Y0061784D01*
X0251315Y0061625D01*
X0251068Y0061473D01*
X0250818Y0061327D01*
X0250564Y0061188D01*
X0250306Y0061054D01*
X0250046Y0060927D01*
X0249782Y0060806D01*
X0249516Y0060692D01*
X0249247Y0060584D01*
X0248975Y0060483D01*
X0248701Y0060389D01*
X0248425Y0060302D01*
X0248146Y0060221D01*
X0247866Y0060147D01*
X0247584Y0060080D01*
X0247300Y0060020D01*
X0247015Y0059967D01*
X0246729Y0059921D01*
X0246442Y0059882D01*
X0246154Y0059850D01*
X0245865Y0059825D01*
X0245576Y0059807D01*
X0245286Y0059797D01*
X0244996Y0059793D01*
X0244706Y0059797D01*
X0244416Y0059807D01*
X0244127Y0059825D01*
X0243838Y0059850D01*
X0243550Y0059882D01*
X0243263Y0059921D01*
X0242977Y0059967D01*
X0242692Y0060020D01*
X0242408Y0060080D01*
X0242126Y0060147D01*
X0241846Y0060221D01*
X0241567Y0060302D01*
X0241291Y0060389D01*
X0241017Y0060483D01*
X0240745Y0060584D01*
X0240476Y0060692D01*
X0240210Y0060806D01*
X0239946Y0060927D01*
X0239686Y0061054D01*
X0239428Y0061188D01*
X0239174Y0061327D01*
X0238924Y0061473D01*
X0238677Y0061625D01*
X0238434Y0061784D01*
X0238195Y0061948D01*
X0237960Y0062117D01*
X0237729Y0062293D01*
X0237503Y0062474D01*
X0237281Y0062661D01*
X0237064Y0062853D01*
X0236852Y0063050D01*
X0236644Y0063252D01*
X0236442Y0063460D01*
X0236245Y0063672D01*
X0236053Y0063889D01*
X0235866Y0064111D01*
X0235685Y0064337D01*
X0235509Y0064568D01*
X0235340Y0064803D01*
X0235176Y0065042D01*
X0235017Y0065285D01*
X0234865Y0065532D01*
X0234719Y0065782D01*
X0234580Y0066036D01*
X0234446Y0066294D01*
X0234319Y0066554D01*
X0234198Y0066818D01*
X0234084Y0067084D01*
X0233976Y0067353D01*
X0233875Y0067625D01*
X0233781Y0067899D01*
X0233694Y0068175D01*
X0233613Y0068454D01*
X0233539Y0068734D01*
X0233472Y0069016D01*
X0233412Y0069300D01*
X0233359Y0069585D01*
X0233313Y0069871D01*
X0233274Y0070158D01*
X0233242Y0070446D01*
X0233217Y0070735D01*
X0233199Y0071024D01*
X0233189Y0071314D01*
X0233185Y0071604D01*
X0067831Y0071604D02*
X0067835Y0071894D01*
X0067845Y0072184D01*
X0067863Y0072473D01*
X0067888Y0072762D01*
X0067920Y0073050D01*
X0067959Y0073337D01*
X0068005Y0073623D01*
X0068058Y0073908D01*
X0068118Y0074192D01*
X0068185Y0074474D01*
X0068259Y0074754D01*
X0068340Y0075033D01*
X0068427Y0075309D01*
X0068521Y0075583D01*
X0068622Y0075855D01*
X0068730Y0076124D01*
X0068844Y0076390D01*
X0068965Y0076654D01*
X0069092Y0076914D01*
X0069226Y0077172D01*
X0069365Y0077426D01*
X0069511Y0077676D01*
X0069663Y0077923D01*
X0069822Y0078166D01*
X0069986Y0078405D01*
X0070155Y0078640D01*
X0070331Y0078871D01*
X0070512Y0079097D01*
X0070699Y0079319D01*
X0070891Y0079536D01*
X0071088Y0079748D01*
X0071290Y0079956D01*
X0071498Y0080158D01*
X0071710Y0080355D01*
X0071927Y0080547D01*
X0072149Y0080734D01*
X0072375Y0080915D01*
X0072606Y0081091D01*
X0072841Y0081260D01*
X0073080Y0081424D01*
X0073323Y0081583D01*
X0073570Y0081735D01*
X0073820Y0081881D01*
X0074074Y0082020D01*
X0074332Y0082154D01*
X0074592Y0082281D01*
X0074856Y0082402D01*
X0075122Y0082516D01*
X0075391Y0082624D01*
X0075663Y0082725D01*
X0075937Y0082819D01*
X0076213Y0082906D01*
X0076492Y0082987D01*
X0076772Y0083061D01*
X0077054Y0083128D01*
X0077338Y0083188D01*
X0077623Y0083241D01*
X0077909Y0083287D01*
X0078196Y0083326D01*
X0078484Y0083358D01*
X0078773Y0083383D01*
X0079062Y0083401D01*
X0079352Y0083411D01*
X0079642Y0083415D01*
X0079932Y0083411D01*
X0080222Y0083401D01*
X0080511Y0083383D01*
X0080800Y0083358D01*
X0081088Y0083326D01*
X0081375Y0083287D01*
X0081661Y0083241D01*
X0081946Y0083188D01*
X0082230Y0083128D01*
X0082512Y0083061D01*
X0082792Y0082987D01*
X0083071Y0082906D01*
X0083347Y0082819D01*
X0083621Y0082725D01*
X0083893Y0082624D01*
X0084162Y0082516D01*
X0084428Y0082402D01*
X0084692Y0082281D01*
X0084952Y0082154D01*
X0085210Y0082020D01*
X0085464Y0081881D01*
X0085714Y0081735D01*
X0085961Y0081583D01*
X0086204Y0081424D01*
X0086443Y0081260D01*
X0086678Y0081091D01*
X0086909Y0080915D01*
X0087135Y0080734D01*
X0087357Y0080547D01*
X0087574Y0080355D01*
X0087786Y0080158D01*
X0087994Y0079956D01*
X0088196Y0079748D01*
X0088393Y0079536D01*
X0088585Y0079319D01*
X0088772Y0079097D01*
X0088953Y0078871D01*
X0089129Y0078640D01*
X0089298Y0078405D01*
X0089462Y0078166D01*
X0089621Y0077923D01*
X0089773Y0077676D01*
X0089919Y0077426D01*
X0090058Y0077172D01*
X0090192Y0076914D01*
X0090319Y0076654D01*
X0090440Y0076390D01*
X0090554Y0076124D01*
X0090662Y0075855D01*
X0090763Y0075583D01*
X0090857Y0075309D01*
X0090944Y0075033D01*
X0091025Y0074754D01*
X0091099Y0074474D01*
X0091166Y0074192D01*
X0091226Y0073908D01*
X0091279Y0073623D01*
X0091325Y0073337D01*
X0091364Y0073050D01*
X0091396Y0072762D01*
X0091421Y0072473D01*
X0091439Y0072184D01*
X0091449Y0071894D01*
X0091453Y0071604D01*
X0091449Y0071314D01*
X0091439Y0071024D01*
X0091421Y0070735D01*
X0091396Y0070446D01*
X0091364Y0070158D01*
X0091325Y0069871D01*
X0091279Y0069585D01*
X0091226Y0069300D01*
X0091166Y0069016D01*
X0091099Y0068734D01*
X0091025Y0068454D01*
X0090944Y0068175D01*
X0090857Y0067899D01*
X0090763Y0067625D01*
X0090662Y0067353D01*
X0090554Y0067084D01*
X0090440Y0066818D01*
X0090319Y0066554D01*
X0090192Y0066294D01*
X0090058Y0066036D01*
X0089919Y0065782D01*
X0089773Y0065532D01*
X0089621Y0065285D01*
X0089462Y0065042D01*
X0089298Y0064803D01*
X0089129Y0064568D01*
X0088953Y0064337D01*
X0088772Y0064111D01*
X0088585Y0063889D01*
X0088393Y0063672D01*
X0088196Y0063460D01*
X0087994Y0063252D01*
X0087786Y0063050D01*
X0087574Y0062853D01*
X0087357Y0062661D01*
X0087135Y0062474D01*
X0086909Y0062293D01*
X0086678Y0062117D01*
X0086443Y0061948D01*
X0086204Y0061784D01*
X0085961Y0061625D01*
X0085714Y0061473D01*
X0085464Y0061327D01*
X0085210Y0061188D01*
X0084952Y0061054D01*
X0084692Y0060927D01*
X0084428Y0060806D01*
X0084162Y0060692D01*
X0083893Y0060584D01*
X0083621Y0060483D01*
X0083347Y0060389D01*
X0083071Y0060302D01*
X0082792Y0060221D01*
X0082512Y0060147D01*
X0082230Y0060080D01*
X0081946Y0060020D01*
X0081661Y0059967D01*
X0081375Y0059921D01*
X0081088Y0059882D01*
X0080800Y0059850D01*
X0080511Y0059825D01*
X0080222Y0059807D01*
X0079932Y0059797D01*
X0079642Y0059793D01*
X0079352Y0059797D01*
X0079062Y0059807D01*
X0078773Y0059825D01*
X0078484Y0059850D01*
X0078196Y0059882D01*
X0077909Y0059921D01*
X0077623Y0059967D01*
X0077338Y0060020D01*
X0077054Y0060080D01*
X0076772Y0060147D01*
X0076492Y0060221D01*
X0076213Y0060302D01*
X0075937Y0060389D01*
X0075663Y0060483D01*
X0075391Y0060584D01*
X0075122Y0060692D01*
X0074856Y0060806D01*
X0074592Y0060927D01*
X0074332Y0061054D01*
X0074074Y0061188D01*
X0073820Y0061327D01*
X0073570Y0061473D01*
X0073323Y0061625D01*
X0073080Y0061784D01*
X0072841Y0061948D01*
X0072606Y0062117D01*
X0072375Y0062293D01*
X0072149Y0062474D01*
X0071927Y0062661D01*
X0071710Y0062853D01*
X0071498Y0063050D01*
X0071290Y0063252D01*
X0071088Y0063460D01*
X0070891Y0063672D01*
X0070699Y0063889D01*
X0070512Y0064111D01*
X0070331Y0064337D01*
X0070155Y0064568D01*
X0069986Y0064803D01*
X0069822Y0065042D01*
X0069663Y0065285D01*
X0069511Y0065532D01*
X0069365Y0065782D01*
X0069226Y0066036D01*
X0069092Y0066294D01*
X0068965Y0066554D01*
X0068844Y0066818D01*
X0068730Y0067084D01*
X0068622Y0067353D01*
X0068521Y0067625D01*
X0068427Y0067899D01*
X0068340Y0068175D01*
X0068259Y0068454D01*
X0068185Y0068734D01*
X0068118Y0069016D01*
X0068058Y0069300D01*
X0068005Y0069585D01*
X0067959Y0069871D01*
X0067920Y0070158D01*
X0067888Y0070446D01*
X0067863Y0070735D01*
X0067845Y0071024D01*
X0067835Y0071314D01*
X0067831Y0071604D01*
D15*
X0126300Y0090200D02*
X0132300Y0090200D01*
X0132300Y0102400D02*
X0126300Y0102400D01*
X0134750Y0235400D02*
X0138450Y0235400D01*
X0138548Y0235576D02*
X0138548Y0242620D01*
X0138500Y0251576D02*
X0138500Y0257920D01*
X0138450Y0257918D02*
X0107150Y0257918D01*
X0107100Y0257920D02*
X0107100Y0251576D01*
X0108784Y0252800D02*
X0104690Y0252800D01*
X0112721Y0252800D02*
X0116816Y0252800D01*
X0120753Y0252800D02*
X0124847Y0252800D01*
X0128784Y0252800D02*
X0132879Y0252800D01*
X0136816Y0252800D02*
X0140910Y0252800D01*
X0110850Y0235400D02*
X0107150Y0235400D01*
X0107100Y0235476D02*
X0107100Y0242620D01*
M02*
