G75*
%MOIN*%
%OFA0B0*%
%FSLAX25Y25*%
%IPPOS*%
%LPD*%
%AMOC8*
5,1,8,0,0,1.08239X$1,22.5*
%
%ADD10C,0.00000*%
%ADD11C,0.06000*%
%ADD12C,0.07600*%
%ADD13R,0.03772X0.03772*%
%ADD14R,0.07600X0.07600*%
%ADD15R,0.03562X0.03562*%
%ADD16C,0.01600*%
%ADD17C,0.02400*%
%ADD18C,0.01000*%
D10*
X0063875Y0067686D02*
X0075686Y0055875D01*
X0248914Y0055875D01*
X0260725Y0067686D01*
X0260725Y0240914D01*
X0248914Y0252725D01*
X0075686Y0252725D01*
X0063875Y0240914D01*
X0063875Y0067686D01*
X0073324Y0071623D02*
X0073326Y0071781D01*
X0073332Y0071939D01*
X0073342Y0072097D01*
X0073356Y0072255D01*
X0073374Y0072412D01*
X0073395Y0072569D01*
X0073421Y0072725D01*
X0073451Y0072881D01*
X0073484Y0073036D01*
X0073522Y0073189D01*
X0073563Y0073342D01*
X0073608Y0073494D01*
X0073657Y0073645D01*
X0073710Y0073794D01*
X0073766Y0073942D01*
X0073826Y0074088D01*
X0073890Y0074233D01*
X0073958Y0074376D01*
X0074029Y0074518D01*
X0074103Y0074658D01*
X0074181Y0074795D01*
X0074263Y0074931D01*
X0074347Y0075065D01*
X0074436Y0075196D01*
X0074527Y0075325D01*
X0074622Y0075452D01*
X0074719Y0075577D01*
X0074820Y0075699D01*
X0074924Y0075818D01*
X0075031Y0075935D01*
X0075141Y0076049D01*
X0075254Y0076160D01*
X0075369Y0076269D01*
X0075487Y0076374D01*
X0075608Y0076476D01*
X0075731Y0076576D01*
X0075857Y0076672D01*
X0075985Y0076765D01*
X0076115Y0076855D01*
X0076248Y0076941D01*
X0076383Y0077025D01*
X0076519Y0077104D01*
X0076658Y0077181D01*
X0076799Y0077253D01*
X0076941Y0077323D01*
X0077085Y0077388D01*
X0077231Y0077450D01*
X0077378Y0077508D01*
X0077527Y0077563D01*
X0077677Y0077614D01*
X0077828Y0077661D01*
X0077980Y0077704D01*
X0078133Y0077743D01*
X0078288Y0077779D01*
X0078443Y0077810D01*
X0078599Y0077838D01*
X0078755Y0077862D01*
X0078912Y0077882D01*
X0079070Y0077898D01*
X0079227Y0077910D01*
X0079386Y0077918D01*
X0079544Y0077922D01*
X0079702Y0077922D01*
X0079860Y0077918D01*
X0080019Y0077910D01*
X0080176Y0077898D01*
X0080334Y0077882D01*
X0080491Y0077862D01*
X0080647Y0077838D01*
X0080803Y0077810D01*
X0080958Y0077779D01*
X0081113Y0077743D01*
X0081266Y0077704D01*
X0081418Y0077661D01*
X0081569Y0077614D01*
X0081719Y0077563D01*
X0081868Y0077508D01*
X0082015Y0077450D01*
X0082161Y0077388D01*
X0082305Y0077323D01*
X0082447Y0077253D01*
X0082588Y0077181D01*
X0082727Y0077104D01*
X0082863Y0077025D01*
X0082998Y0076941D01*
X0083131Y0076855D01*
X0083261Y0076765D01*
X0083389Y0076672D01*
X0083515Y0076576D01*
X0083638Y0076476D01*
X0083759Y0076374D01*
X0083877Y0076269D01*
X0083992Y0076160D01*
X0084105Y0076049D01*
X0084215Y0075935D01*
X0084322Y0075818D01*
X0084426Y0075699D01*
X0084527Y0075577D01*
X0084624Y0075452D01*
X0084719Y0075325D01*
X0084810Y0075196D01*
X0084899Y0075065D01*
X0084983Y0074931D01*
X0085065Y0074795D01*
X0085143Y0074658D01*
X0085217Y0074518D01*
X0085288Y0074376D01*
X0085356Y0074233D01*
X0085420Y0074088D01*
X0085480Y0073942D01*
X0085536Y0073794D01*
X0085589Y0073645D01*
X0085638Y0073494D01*
X0085683Y0073342D01*
X0085724Y0073189D01*
X0085762Y0073036D01*
X0085795Y0072881D01*
X0085825Y0072725D01*
X0085851Y0072569D01*
X0085872Y0072412D01*
X0085890Y0072255D01*
X0085904Y0072097D01*
X0085914Y0071939D01*
X0085920Y0071781D01*
X0085922Y0071623D01*
X0085920Y0071465D01*
X0085914Y0071307D01*
X0085904Y0071149D01*
X0085890Y0070991D01*
X0085872Y0070834D01*
X0085851Y0070677D01*
X0085825Y0070521D01*
X0085795Y0070365D01*
X0085762Y0070210D01*
X0085724Y0070057D01*
X0085683Y0069904D01*
X0085638Y0069752D01*
X0085589Y0069601D01*
X0085536Y0069452D01*
X0085480Y0069304D01*
X0085420Y0069158D01*
X0085356Y0069013D01*
X0085288Y0068870D01*
X0085217Y0068728D01*
X0085143Y0068588D01*
X0085065Y0068451D01*
X0084983Y0068315D01*
X0084899Y0068181D01*
X0084810Y0068050D01*
X0084719Y0067921D01*
X0084624Y0067794D01*
X0084527Y0067669D01*
X0084426Y0067547D01*
X0084322Y0067428D01*
X0084215Y0067311D01*
X0084105Y0067197D01*
X0083992Y0067086D01*
X0083877Y0066977D01*
X0083759Y0066872D01*
X0083638Y0066770D01*
X0083515Y0066670D01*
X0083389Y0066574D01*
X0083261Y0066481D01*
X0083131Y0066391D01*
X0082998Y0066305D01*
X0082863Y0066221D01*
X0082727Y0066142D01*
X0082588Y0066065D01*
X0082447Y0065993D01*
X0082305Y0065923D01*
X0082161Y0065858D01*
X0082015Y0065796D01*
X0081868Y0065738D01*
X0081719Y0065683D01*
X0081569Y0065632D01*
X0081418Y0065585D01*
X0081266Y0065542D01*
X0081113Y0065503D01*
X0080958Y0065467D01*
X0080803Y0065436D01*
X0080647Y0065408D01*
X0080491Y0065384D01*
X0080334Y0065364D01*
X0080176Y0065348D01*
X0080019Y0065336D01*
X0079860Y0065328D01*
X0079702Y0065324D01*
X0079544Y0065324D01*
X0079386Y0065328D01*
X0079227Y0065336D01*
X0079070Y0065348D01*
X0078912Y0065364D01*
X0078755Y0065384D01*
X0078599Y0065408D01*
X0078443Y0065436D01*
X0078288Y0065467D01*
X0078133Y0065503D01*
X0077980Y0065542D01*
X0077828Y0065585D01*
X0077677Y0065632D01*
X0077527Y0065683D01*
X0077378Y0065738D01*
X0077231Y0065796D01*
X0077085Y0065858D01*
X0076941Y0065923D01*
X0076799Y0065993D01*
X0076658Y0066065D01*
X0076519Y0066142D01*
X0076383Y0066221D01*
X0076248Y0066305D01*
X0076115Y0066391D01*
X0075985Y0066481D01*
X0075857Y0066574D01*
X0075731Y0066670D01*
X0075608Y0066770D01*
X0075487Y0066872D01*
X0075369Y0066977D01*
X0075254Y0067086D01*
X0075141Y0067197D01*
X0075031Y0067311D01*
X0074924Y0067428D01*
X0074820Y0067547D01*
X0074719Y0067669D01*
X0074622Y0067794D01*
X0074527Y0067921D01*
X0074436Y0068050D01*
X0074347Y0068181D01*
X0074263Y0068315D01*
X0074181Y0068451D01*
X0074103Y0068588D01*
X0074029Y0068728D01*
X0073958Y0068870D01*
X0073890Y0069013D01*
X0073826Y0069158D01*
X0073766Y0069304D01*
X0073710Y0069452D01*
X0073657Y0069601D01*
X0073608Y0069752D01*
X0073563Y0069904D01*
X0073522Y0070057D01*
X0073484Y0070210D01*
X0073451Y0070365D01*
X0073421Y0070521D01*
X0073395Y0070677D01*
X0073374Y0070834D01*
X0073356Y0070991D01*
X0073342Y0071149D01*
X0073332Y0071307D01*
X0073326Y0071465D01*
X0073324Y0071623D01*
X0238678Y0071623D02*
X0238680Y0071781D01*
X0238686Y0071939D01*
X0238696Y0072097D01*
X0238710Y0072255D01*
X0238728Y0072412D01*
X0238749Y0072569D01*
X0238775Y0072725D01*
X0238805Y0072881D01*
X0238838Y0073036D01*
X0238876Y0073189D01*
X0238917Y0073342D01*
X0238962Y0073494D01*
X0239011Y0073645D01*
X0239064Y0073794D01*
X0239120Y0073942D01*
X0239180Y0074088D01*
X0239244Y0074233D01*
X0239312Y0074376D01*
X0239383Y0074518D01*
X0239457Y0074658D01*
X0239535Y0074795D01*
X0239617Y0074931D01*
X0239701Y0075065D01*
X0239790Y0075196D01*
X0239881Y0075325D01*
X0239976Y0075452D01*
X0240073Y0075577D01*
X0240174Y0075699D01*
X0240278Y0075818D01*
X0240385Y0075935D01*
X0240495Y0076049D01*
X0240608Y0076160D01*
X0240723Y0076269D01*
X0240841Y0076374D01*
X0240962Y0076476D01*
X0241085Y0076576D01*
X0241211Y0076672D01*
X0241339Y0076765D01*
X0241469Y0076855D01*
X0241602Y0076941D01*
X0241737Y0077025D01*
X0241873Y0077104D01*
X0242012Y0077181D01*
X0242153Y0077253D01*
X0242295Y0077323D01*
X0242439Y0077388D01*
X0242585Y0077450D01*
X0242732Y0077508D01*
X0242881Y0077563D01*
X0243031Y0077614D01*
X0243182Y0077661D01*
X0243334Y0077704D01*
X0243487Y0077743D01*
X0243642Y0077779D01*
X0243797Y0077810D01*
X0243953Y0077838D01*
X0244109Y0077862D01*
X0244266Y0077882D01*
X0244424Y0077898D01*
X0244581Y0077910D01*
X0244740Y0077918D01*
X0244898Y0077922D01*
X0245056Y0077922D01*
X0245214Y0077918D01*
X0245373Y0077910D01*
X0245530Y0077898D01*
X0245688Y0077882D01*
X0245845Y0077862D01*
X0246001Y0077838D01*
X0246157Y0077810D01*
X0246312Y0077779D01*
X0246467Y0077743D01*
X0246620Y0077704D01*
X0246772Y0077661D01*
X0246923Y0077614D01*
X0247073Y0077563D01*
X0247222Y0077508D01*
X0247369Y0077450D01*
X0247515Y0077388D01*
X0247659Y0077323D01*
X0247801Y0077253D01*
X0247942Y0077181D01*
X0248081Y0077104D01*
X0248217Y0077025D01*
X0248352Y0076941D01*
X0248485Y0076855D01*
X0248615Y0076765D01*
X0248743Y0076672D01*
X0248869Y0076576D01*
X0248992Y0076476D01*
X0249113Y0076374D01*
X0249231Y0076269D01*
X0249346Y0076160D01*
X0249459Y0076049D01*
X0249569Y0075935D01*
X0249676Y0075818D01*
X0249780Y0075699D01*
X0249881Y0075577D01*
X0249978Y0075452D01*
X0250073Y0075325D01*
X0250164Y0075196D01*
X0250253Y0075065D01*
X0250337Y0074931D01*
X0250419Y0074795D01*
X0250497Y0074658D01*
X0250571Y0074518D01*
X0250642Y0074376D01*
X0250710Y0074233D01*
X0250774Y0074088D01*
X0250834Y0073942D01*
X0250890Y0073794D01*
X0250943Y0073645D01*
X0250992Y0073494D01*
X0251037Y0073342D01*
X0251078Y0073189D01*
X0251116Y0073036D01*
X0251149Y0072881D01*
X0251179Y0072725D01*
X0251205Y0072569D01*
X0251226Y0072412D01*
X0251244Y0072255D01*
X0251258Y0072097D01*
X0251268Y0071939D01*
X0251274Y0071781D01*
X0251276Y0071623D01*
X0251274Y0071465D01*
X0251268Y0071307D01*
X0251258Y0071149D01*
X0251244Y0070991D01*
X0251226Y0070834D01*
X0251205Y0070677D01*
X0251179Y0070521D01*
X0251149Y0070365D01*
X0251116Y0070210D01*
X0251078Y0070057D01*
X0251037Y0069904D01*
X0250992Y0069752D01*
X0250943Y0069601D01*
X0250890Y0069452D01*
X0250834Y0069304D01*
X0250774Y0069158D01*
X0250710Y0069013D01*
X0250642Y0068870D01*
X0250571Y0068728D01*
X0250497Y0068588D01*
X0250419Y0068451D01*
X0250337Y0068315D01*
X0250253Y0068181D01*
X0250164Y0068050D01*
X0250073Y0067921D01*
X0249978Y0067794D01*
X0249881Y0067669D01*
X0249780Y0067547D01*
X0249676Y0067428D01*
X0249569Y0067311D01*
X0249459Y0067197D01*
X0249346Y0067086D01*
X0249231Y0066977D01*
X0249113Y0066872D01*
X0248992Y0066770D01*
X0248869Y0066670D01*
X0248743Y0066574D01*
X0248615Y0066481D01*
X0248485Y0066391D01*
X0248352Y0066305D01*
X0248217Y0066221D01*
X0248081Y0066142D01*
X0247942Y0066065D01*
X0247801Y0065993D01*
X0247659Y0065923D01*
X0247515Y0065858D01*
X0247369Y0065796D01*
X0247222Y0065738D01*
X0247073Y0065683D01*
X0246923Y0065632D01*
X0246772Y0065585D01*
X0246620Y0065542D01*
X0246467Y0065503D01*
X0246312Y0065467D01*
X0246157Y0065436D01*
X0246001Y0065408D01*
X0245845Y0065384D01*
X0245688Y0065364D01*
X0245530Y0065348D01*
X0245373Y0065336D01*
X0245214Y0065328D01*
X0245056Y0065324D01*
X0244898Y0065324D01*
X0244740Y0065328D01*
X0244581Y0065336D01*
X0244424Y0065348D01*
X0244266Y0065364D01*
X0244109Y0065384D01*
X0243953Y0065408D01*
X0243797Y0065436D01*
X0243642Y0065467D01*
X0243487Y0065503D01*
X0243334Y0065542D01*
X0243182Y0065585D01*
X0243031Y0065632D01*
X0242881Y0065683D01*
X0242732Y0065738D01*
X0242585Y0065796D01*
X0242439Y0065858D01*
X0242295Y0065923D01*
X0242153Y0065993D01*
X0242012Y0066065D01*
X0241873Y0066142D01*
X0241737Y0066221D01*
X0241602Y0066305D01*
X0241469Y0066391D01*
X0241339Y0066481D01*
X0241211Y0066574D01*
X0241085Y0066670D01*
X0240962Y0066770D01*
X0240841Y0066872D01*
X0240723Y0066977D01*
X0240608Y0067086D01*
X0240495Y0067197D01*
X0240385Y0067311D01*
X0240278Y0067428D01*
X0240174Y0067547D01*
X0240073Y0067669D01*
X0239976Y0067794D01*
X0239881Y0067921D01*
X0239790Y0068050D01*
X0239701Y0068181D01*
X0239617Y0068315D01*
X0239535Y0068451D01*
X0239457Y0068588D01*
X0239383Y0068728D01*
X0239312Y0068870D01*
X0239244Y0069013D01*
X0239180Y0069158D01*
X0239120Y0069304D01*
X0239064Y0069452D01*
X0239011Y0069601D01*
X0238962Y0069752D01*
X0238917Y0069904D01*
X0238876Y0070057D01*
X0238838Y0070210D01*
X0238805Y0070365D01*
X0238775Y0070521D01*
X0238749Y0070677D01*
X0238728Y0070834D01*
X0238710Y0070991D01*
X0238696Y0071149D01*
X0238686Y0071307D01*
X0238680Y0071465D01*
X0238678Y0071623D01*
X0238678Y0236977D02*
X0238680Y0237135D01*
X0238686Y0237293D01*
X0238696Y0237451D01*
X0238710Y0237609D01*
X0238728Y0237766D01*
X0238749Y0237923D01*
X0238775Y0238079D01*
X0238805Y0238235D01*
X0238838Y0238390D01*
X0238876Y0238543D01*
X0238917Y0238696D01*
X0238962Y0238848D01*
X0239011Y0238999D01*
X0239064Y0239148D01*
X0239120Y0239296D01*
X0239180Y0239442D01*
X0239244Y0239587D01*
X0239312Y0239730D01*
X0239383Y0239872D01*
X0239457Y0240012D01*
X0239535Y0240149D01*
X0239617Y0240285D01*
X0239701Y0240419D01*
X0239790Y0240550D01*
X0239881Y0240679D01*
X0239976Y0240806D01*
X0240073Y0240931D01*
X0240174Y0241053D01*
X0240278Y0241172D01*
X0240385Y0241289D01*
X0240495Y0241403D01*
X0240608Y0241514D01*
X0240723Y0241623D01*
X0240841Y0241728D01*
X0240962Y0241830D01*
X0241085Y0241930D01*
X0241211Y0242026D01*
X0241339Y0242119D01*
X0241469Y0242209D01*
X0241602Y0242295D01*
X0241737Y0242379D01*
X0241873Y0242458D01*
X0242012Y0242535D01*
X0242153Y0242607D01*
X0242295Y0242677D01*
X0242439Y0242742D01*
X0242585Y0242804D01*
X0242732Y0242862D01*
X0242881Y0242917D01*
X0243031Y0242968D01*
X0243182Y0243015D01*
X0243334Y0243058D01*
X0243487Y0243097D01*
X0243642Y0243133D01*
X0243797Y0243164D01*
X0243953Y0243192D01*
X0244109Y0243216D01*
X0244266Y0243236D01*
X0244424Y0243252D01*
X0244581Y0243264D01*
X0244740Y0243272D01*
X0244898Y0243276D01*
X0245056Y0243276D01*
X0245214Y0243272D01*
X0245373Y0243264D01*
X0245530Y0243252D01*
X0245688Y0243236D01*
X0245845Y0243216D01*
X0246001Y0243192D01*
X0246157Y0243164D01*
X0246312Y0243133D01*
X0246467Y0243097D01*
X0246620Y0243058D01*
X0246772Y0243015D01*
X0246923Y0242968D01*
X0247073Y0242917D01*
X0247222Y0242862D01*
X0247369Y0242804D01*
X0247515Y0242742D01*
X0247659Y0242677D01*
X0247801Y0242607D01*
X0247942Y0242535D01*
X0248081Y0242458D01*
X0248217Y0242379D01*
X0248352Y0242295D01*
X0248485Y0242209D01*
X0248615Y0242119D01*
X0248743Y0242026D01*
X0248869Y0241930D01*
X0248992Y0241830D01*
X0249113Y0241728D01*
X0249231Y0241623D01*
X0249346Y0241514D01*
X0249459Y0241403D01*
X0249569Y0241289D01*
X0249676Y0241172D01*
X0249780Y0241053D01*
X0249881Y0240931D01*
X0249978Y0240806D01*
X0250073Y0240679D01*
X0250164Y0240550D01*
X0250253Y0240419D01*
X0250337Y0240285D01*
X0250419Y0240149D01*
X0250497Y0240012D01*
X0250571Y0239872D01*
X0250642Y0239730D01*
X0250710Y0239587D01*
X0250774Y0239442D01*
X0250834Y0239296D01*
X0250890Y0239148D01*
X0250943Y0238999D01*
X0250992Y0238848D01*
X0251037Y0238696D01*
X0251078Y0238543D01*
X0251116Y0238390D01*
X0251149Y0238235D01*
X0251179Y0238079D01*
X0251205Y0237923D01*
X0251226Y0237766D01*
X0251244Y0237609D01*
X0251258Y0237451D01*
X0251268Y0237293D01*
X0251274Y0237135D01*
X0251276Y0236977D01*
X0251274Y0236819D01*
X0251268Y0236661D01*
X0251258Y0236503D01*
X0251244Y0236345D01*
X0251226Y0236188D01*
X0251205Y0236031D01*
X0251179Y0235875D01*
X0251149Y0235719D01*
X0251116Y0235564D01*
X0251078Y0235411D01*
X0251037Y0235258D01*
X0250992Y0235106D01*
X0250943Y0234955D01*
X0250890Y0234806D01*
X0250834Y0234658D01*
X0250774Y0234512D01*
X0250710Y0234367D01*
X0250642Y0234224D01*
X0250571Y0234082D01*
X0250497Y0233942D01*
X0250419Y0233805D01*
X0250337Y0233669D01*
X0250253Y0233535D01*
X0250164Y0233404D01*
X0250073Y0233275D01*
X0249978Y0233148D01*
X0249881Y0233023D01*
X0249780Y0232901D01*
X0249676Y0232782D01*
X0249569Y0232665D01*
X0249459Y0232551D01*
X0249346Y0232440D01*
X0249231Y0232331D01*
X0249113Y0232226D01*
X0248992Y0232124D01*
X0248869Y0232024D01*
X0248743Y0231928D01*
X0248615Y0231835D01*
X0248485Y0231745D01*
X0248352Y0231659D01*
X0248217Y0231575D01*
X0248081Y0231496D01*
X0247942Y0231419D01*
X0247801Y0231347D01*
X0247659Y0231277D01*
X0247515Y0231212D01*
X0247369Y0231150D01*
X0247222Y0231092D01*
X0247073Y0231037D01*
X0246923Y0230986D01*
X0246772Y0230939D01*
X0246620Y0230896D01*
X0246467Y0230857D01*
X0246312Y0230821D01*
X0246157Y0230790D01*
X0246001Y0230762D01*
X0245845Y0230738D01*
X0245688Y0230718D01*
X0245530Y0230702D01*
X0245373Y0230690D01*
X0245214Y0230682D01*
X0245056Y0230678D01*
X0244898Y0230678D01*
X0244740Y0230682D01*
X0244581Y0230690D01*
X0244424Y0230702D01*
X0244266Y0230718D01*
X0244109Y0230738D01*
X0243953Y0230762D01*
X0243797Y0230790D01*
X0243642Y0230821D01*
X0243487Y0230857D01*
X0243334Y0230896D01*
X0243182Y0230939D01*
X0243031Y0230986D01*
X0242881Y0231037D01*
X0242732Y0231092D01*
X0242585Y0231150D01*
X0242439Y0231212D01*
X0242295Y0231277D01*
X0242153Y0231347D01*
X0242012Y0231419D01*
X0241873Y0231496D01*
X0241737Y0231575D01*
X0241602Y0231659D01*
X0241469Y0231745D01*
X0241339Y0231835D01*
X0241211Y0231928D01*
X0241085Y0232024D01*
X0240962Y0232124D01*
X0240841Y0232226D01*
X0240723Y0232331D01*
X0240608Y0232440D01*
X0240495Y0232551D01*
X0240385Y0232665D01*
X0240278Y0232782D01*
X0240174Y0232901D01*
X0240073Y0233023D01*
X0239976Y0233148D01*
X0239881Y0233275D01*
X0239790Y0233404D01*
X0239701Y0233535D01*
X0239617Y0233669D01*
X0239535Y0233805D01*
X0239457Y0233942D01*
X0239383Y0234082D01*
X0239312Y0234224D01*
X0239244Y0234367D01*
X0239180Y0234512D01*
X0239120Y0234658D01*
X0239064Y0234806D01*
X0239011Y0234955D01*
X0238962Y0235106D01*
X0238917Y0235258D01*
X0238876Y0235411D01*
X0238838Y0235564D01*
X0238805Y0235719D01*
X0238775Y0235875D01*
X0238749Y0236031D01*
X0238728Y0236188D01*
X0238710Y0236345D01*
X0238696Y0236503D01*
X0238686Y0236661D01*
X0238680Y0236819D01*
X0238678Y0236977D01*
X0073324Y0236977D02*
X0073326Y0237135D01*
X0073332Y0237293D01*
X0073342Y0237451D01*
X0073356Y0237609D01*
X0073374Y0237766D01*
X0073395Y0237923D01*
X0073421Y0238079D01*
X0073451Y0238235D01*
X0073484Y0238390D01*
X0073522Y0238543D01*
X0073563Y0238696D01*
X0073608Y0238848D01*
X0073657Y0238999D01*
X0073710Y0239148D01*
X0073766Y0239296D01*
X0073826Y0239442D01*
X0073890Y0239587D01*
X0073958Y0239730D01*
X0074029Y0239872D01*
X0074103Y0240012D01*
X0074181Y0240149D01*
X0074263Y0240285D01*
X0074347Y0240419D01*
X0074436Y0240550D01*
X0074527Y0240679D01*
X0074622Y0240806D01*
X0074719Y0240931D01*
X0074820Y0241053D01*
X0074924Y0241172D01*
X0075031Y0241289D01*
X0075141Y0241403D01*
X0075254Y0241514D01*
X0075369Y0241623D01*
X0075487Y0241728D01*
X0075608Y0241830D01*
X0075731Y0241930D01*
X0075857Y0242026D01*
X0075985Y0242119D01*
X0076115Y0242209D01*
X0076248Y0242295D01*
X0076383Y0242379D01*
X0076519Y0242458D01*
X0076658Y0242535D01*
X0076799Y0242607D01*
X0076941Y0242677D01*
X0077085Y0242742D01*
X0077231Y0242804D01*
X0077378Y0242862D01*
X0077527Y0242917D01*
X0077677Y0242968D01*
X0077828Y0243015D01*
X0077980Y0243058D01*
X0078133Y0243097D01*
X0078288Y0243133D01*
X0078443Y0243164D01*
X0078599Y0243192D01*
X0078755Y0243216D01*
X0078912Y0243236D01*
X0079070Y0243252D01*
X0079227Y0243264D01*
X0079386Y0243272D01*
X0079544Y0243276D01*
X0079702Y0243276D01*
X0079860Y0243272D01*
X0080019Y0243264D01*
X0080176Y0243252D01*
X0080334Y0243236D01*
X0080491Y0243216D01*
X0080647Y0243192D01*
X0080803Y0243164D01*
X0080958Y0243133D01*
X0081113Y0243097D01*
X0081266Y0243058D01*
X0081418Y0243015D01*
X0081569Y0242968D01*
X0081719Y0242917D01*
X0081868Y0242862D01*
X0082015Y0242804D01*
X0082161Y0242742D01*
X0082305Y0242677D01*
X0082447Y0242607D01*
X0082588Y0242535D01*
X0082727Y0242458D01*
X0082863Y0242379D01*
X0082998Y0242295D01*
X0083131Y0242209D01*
X0083261Y0242119D01*
X0083389Y0242026D01*
X0083515Y0241930D01*
X0083638Y0241830D01*
X0083759Y0241728D01*
X0083877Y0241623D01*
X0083992Y0241514D01*
X0084105Y0241403D01*
X0084215Y0241289D01*
X0084322Y0241172D01*
X0084426Y0241053D01*
X0084527Y0240931D01*
X0084624Y0240806D01*
X0084719Y0240679D01*
X0084810Y0240550D01*
X0084899Y0240419D01*
X0084983Y0240285D01*
X0085065Y0240149D01*
X0085143Y0240012D01*
X0085217Y0239872D01*
X0085288Y0239730D01*
X0085356Y0239587D01*
X0085420Y0239442D01*
X0085480Y0239296D01*
X0085536Y0239148D01*
X0085589Y0238999D01*
X0085638Y0238848D01*
X0085683Y0238696D01*
X0085724Y0238543D01*
X0085762Y0238390D01*
X0085795Y0238235D01*
X0085825Y0238079D01*
X0085851Y0237923D01*
X0085872Y0237766D01*
X0085890Y0237609D01*
X0085904Y0237451D01*
X0085914Y0237293D01*
X0085920Y0237135D01*
X0085922Y0236977D01*
X0085920Y0236819D01*
X0085914Y0236661D01*
X0085904Y0236503D01*
X0085890Y0236345D01*
X0085872Y0236188D01*
X0085851Y0236031D01*
X0085825Y0235875D01*
X0085795Y0235719D01*
X0085762Y0235564D01*
X0085724Y0235411D01*
X0085683Y0235258D01*
X0085638Y0235106D01*
X0085589Y0234955D01*
X0085536Y0234806D01*
X0085480Y0234658D01*
X0085420Y0234512D01*
X0085356Y0234367D01*
X0085288Y0234224D01*
X0085217Y0234082D01*
X0085143Y0233942D01*
X0085065Y0233805D01*
X0084983Y0233669D01*
X0084899Y0233535D01*
X0084810Y0233404D01*
X0084719Y0233275D01*
X0084624Y0233148D01*
X0084527Y0233023D01*
X0084426Y0232901D01*
X0084322Y0232782D01*
X0084215Y0232665D01*
X0084105Y0232551D01*
X0083992Y0232440D01*
X0083877Y0232331D01*
X0083759Y0232226D01*
X0083638Y0232124D01*
X0083515Y0232024D01*
X0083389Y0231928D01*
X0083261Y0231835D01*
X0083131Y0231745D01*
X0082998Y0231659D01*
X0082863Y0231575D01*
X0082727Y0231496D01*
X0082588Y0231419D01*
X0082447Y0231347D01*
X0082305Y0231277D01*
X0082161Y0231212D01*
X0082015Y0231150D01*
X0081868Y0231092D01*
X0081719Y0231037D01*
X0081569Y0230986D01*
X0081418Y0230939D01*
X0081266Y0230896D01*
X0081113Y0230857D01*
X0080958Y0230821D01*
X0080803Y0230790D01*
X0080647Y0230762D01*
X0080491Y0230738D01*
X0080334Y0230718D01*
X0080176Y0230702D01*
X0080019Y0230690D01*
X0079860Y0230682D01*
X0079702Y0230678D01*
X0079544Y0230678D01*
X0079386Y0230682D01*
X0079227Y0230690D01*
X0079070Y0230702D01*
X0078912Y0230718D01*
X0078755Y0230738D01*
X0078599Y0230762D01*
X0078443Y0230790D01*
X0078288Y0230821D01*
X0078133Y0230857D01*
X0077980Y0230896D01*
X0077828Y0230939D01*
X0077677Y0230986D01*
X0077527Y0231037D01*
X0077378Y0231092D01*
X0077231Y0231150D01*
X0077085Y0231212D01*
X0076941Y0231277D01*
X0076799Y0231347D01*
X0076658Y0231419D01*
X0076519Y0231496D01*
X0076383Y0231575D01*
X0076248Y0231659D01*
X0076115Y0231745D01*
X0075985Y0231835D01*
X0075857Y0231928D01*
X0075731Y0232024D01*
X0075608Y0232124D01*
X0075487Y0232226D01*
X0075369Y0232331D01*
X0075254Y0232440D01*
X0075141Y0232551D01*
X0075031Y0232665D01*
X0074924Y0232782D01*
X0074820Y0232901D01*
X0074719Y0233023D01*
X0074622Y0233148D01*
X0074527Y0233275D01*
X0074436Y0233404D01*
X0074347Y0233535D01*
X0074263Y0233669D01*
X0074181Y0233805D01*
X0074103Y0233942D01*
X0074029Y0234082D01*
X0073958Y0234224D01*
X0073890Y0234367D01*
X0073826Y0234512D01*
X0073766Y0234658D01*
X0073710Y0234806D01*
X0073657Y0234955D01*
X0073608Y0235106D01*
X0073563Y0235258D01*
X0073522Y0235411D01*
X0073484Y0235564D01*
X0073451Y0235719D01*
X0073421Y0235875D01*
X0073395Y0236031D01*
X0073374Y0236188D01*
X0073356Y0236345D01*
X0073342Y0236503D01*
X0073332Y0236661D01*
X0073326Y0236819D01*
X0073324Y0236977D01*
D11*
X0070717Y0214300D02*
X0076717Y0214300D01*
X0076717Y0204300D02*
X0070717Y0204300D01*
X0070717Y0194300D02*
X0076717Y0194300D01*
X0076717Y0184300D02*
X0070717Y0184300D01*
X0070717Y0174300D02*
X0076717Y0174300D01*
X0076717Y0164300D02*
X0070717Y0164300D01*
X0070717Y0144300D02*
X0076717Y0144300D01*
X0076717Y0134300D02*
X0070717Y0134300D01*
X0070717Y0124300D02*
X0076717Y0124300D01*
X0076717Y0114300D02*
X0070717Y0114300D01*
X0070717Y0104300D02*
X0076717Y0104300D01*
X0076717Y0094300D02*
X0070717Y0094300D01*
X0190300Y0238800D02*
X0190300Y0244800D01*
X0200300Y0244800D02*
X0200300Y0238800D01*
D12*
X0214300Y0202800D03*
D13*
X0132347Y0235674D03*
X0113253Y0235674D03*
D14*
X0108627Y0247091D03*
X0136973Y0247091D03*
D15*
X0138300Y0230800D03*
X0143300Y0230800D03*
X0162300Y0230800D03*
X0167300Y0230800D03*
X0166800Y0237800D03*
X0166800Y0246300D03*
X0116300Y0227800D03*
X0116300Y0222800D03*
X0111300Y0222800D03*
X0111300Y0227800D03*
X0111800Y0193300D03*
X0132300Y0192300D03*
X0153800Y0191300D03*
X0163050Y0193800D03*
X0144800Y0166800D03*
X0138800Y0147300D03*
X0133800Y0147300D03*
X0128800Y0147300D03*
X0159300Y0147300D03*
X0164300Y0147300D03*
X0169300Y0147300D03*
X0203300Y0127300D03*
X0208300Y0127300D03*
X0213300Y0127300D03*
X0234300Y0127300D03*
X0239300Y0127300D03*
X0244300Y0127300D03*
X0165800Y0097800D03*
X0160800Y0097800D03*
X0160800Y0092800D03*
X0165800Y0092800D03*
X0160800Y0110800D03*
X0142800Y0087800D03*
X0142800Y0074300D03*
X0137800Y0074300D03*
X0147800Y0074300D03*
X0110800Y0092800D03*
X0101300Y0102300D03*
D16*
X0077363Y0063793D02*
X0070314Y0063793D01*
X0068715Y0065391D02*
X0074401Y0065391D01*
X0075035Y0064757D02*
X0078012Y0063524D01*
X0081234Y0063524D01*
X0084211Y0064757D01*
X0086489Y0067035D01*
X0087722Y0070012D01*
X0087722Y0073234D01*
X0086489Y0076211D01*
X0084211Y0078489D01*
X0081234Y0079722D01*
X0078012Y0079722D01*
X0075035Y0078489D01*
X0072757Y0076211D01*
X0071524Y0073234D01*
X0071524Y0070012D01*
X0072757Y0067035D01*
X0075035Y0064757D01*
X0072802Y0066990D02*
X0067117Y0066990D01*
X0065675Y0068431D02*
X0065675Y0240169D01*
X0076431Y0250925D01*
X0103427Y0250925D01*
X0103427Y0242711D01*
X0104247Y0241891D01*
X0113007Y0241891D01*
X0113827Y0242711D01*
X0113827Y0250925D01*
X0131773Y0250925D01*
X0131773Y0242711D01*
X0132593Y0241891D01*
X0141353Y0241891D01*
X0142173Y0242711D01*
X0142173Y0250925D01*
X0248169Y0250925D01*
X0258925Y0240169D01*
X0258925Y0068431D01*
X0248169Y0057675D01*
X0076431Y0057675D01*
X0065675Y0068431D01*
X0065675Y0068588D02*
X0072113Y0068588D01*
X0071524Y0070187D02*
X0065675Y0070187D01*
X0065675Y0071785D02*
X0071524Y0071785D01*
X0071586Y0073384D02*
X0065675Y0073384D01*
X0065675Y0074982D02*
X0072248Y0074982D01*
X0073127Y0076581D02*
X0065675Y0076581D01*
X0065675Y0078179D02*
X0074725Y0078179D01*
X0065675Y0079778D02*
X0258925Y0079778D01*
X0258925Y0081376D02*
X0065675Y0081376D01*
X0065675Y0082975D02*
X0122287Y0082975D01*
X0122762Y0082500D02*
X0123838Y0082500D01*
X0135838Y0082500D01*
X0136600Y0083262D01*
X0136600Y0089000D01*
X0147338Y0089000D01*
X0148100Y0089762D01*
X0148100Y0093262D01*
X0151338Y0096500D01*
X0154838Y0096500D01*
X0155600Y0097262D01*
X0155600Y0101338D01*
X0154838Y0102100D01*
X0145100Y0102100D01*
X0145100Y0103838D01*
X0144338Y0104600D01*
X0144100Y0104838D01*
X0144100Y0107338D01*
X0143338Y0108100D01*
X0117762Y0108100D01*
X0117000Y0107338D01*
X0117000Y0088262D01*
X0122762Y0082500D01*
X0120688Y0084573D02*
X0065675Y0084573D01*
X0065675Y0086172D02*
X0119090Y0086172D01*
X0117491Y0087770D02*
X0065675Y0087770D01*
X0065675Y0089369D02*
X0117000Y0089369D01*
X0117000Y0090967D02*
X0079607Y0090967D01*
X0079210Y0090570D02*
X0080447Y0091808D01*
X0081117Y0093425D01*
X0081117Y0095175D01*
X0080447Y0096792D01*
X0079210Y0098030D01*
X0077593Y0098700D01*
X0069842Y0098700D01*
X0068225Y0098030D01*
X0066987Y0096792D01*
X0066317Y0095175D01*
X0066317Y0093425D01*
X0066987Y0091808D01*
X0068225Y0090570D01*
X0069842Y0089900D01*
X0077593Y0089900D01*
X0079210Y0090570D01*
X0080761Y0092566D02*
X0117000Y0092566D01*
X0117000Y0094164D02*
X0081117Y0094164D01*
X0080874Y0095763D02*
X0117000Y0095763D01*
X0117000Y0097361D02*
X0079879Y0097361D01*
X0079182Y0100558D02*
X0117000Y0100558D01*
X0117000Y0098960D02*
X0065675Y0098960D01*
X0065675Y0100558D02*
X0068253Y0100558D01*
X0068225Y0100570D02*
X0069842Y0099900D01*
X0077593Y0099900D01*
X0079210Y0100570D01*
X0080447Y0101808D01*
X0081117Y0103425D01*
X0081117Y0105175D01*
X0080447Y0106792D01*
X0079210Y0108030D01*
X0077593Y0108700D01*
X0069842Y0108700D01*
X0068225Y0108030D01*
X0066987Y0106792D01*
X0066317Y0105175D01*
X0066317Y0103425D01*
X0066987Y0101808D01*
X0068225Y0100570D01*
X0066843Y0102157D02*
X0065675Y0102157D01*
X0065675Y0103755D02*
X0066317Y0103755D01*
X0066391Y0105354D02*
X0065675Y0105354D01*
X0065675Y0106952D02*
X0067147Y0106952D01*
X0065675Y0108551D02*
X0069482Y0108551D01*
X0069593Y0109618D02*
X0070340Y0109500D01*
X0073517Y0109500D01*
X0073517Y0114100D01*
X0065917Y0114100D01*
X0065917Y0113922D01*
X0066036Y0113176D01*
X0066269Y0112457D01*
X0066612Y0111784D01*
X0067056Y0111173D01*
X0067590Y0110639D01*
X0068202Y0110195D01*
X0068875Y0109852D01*
X0069593Y0109618D01*
X0068290Y0110149D02*
X0065675Y0110149D01*
X0065675Y0111748D02*
X0066638Y0111748D01*
X0066009Y0113346D02*
X0065675Y0113346D01*
X0065917Y0114500D02*
X0073517Y0114500D01*
X0073517Y0114100D01*
X0073917Y0114100D01*
X0073917Y0109500D01*
X0077095Y0109500D01*
X0077841Y0109618D01*
X0078560Y0109852D01*
X0079233Y0110195D01*
X0079844Y0110639D01*
X0080379Y0111173D01*
X0080823Y0111784D01*
X0081166Y0112457D01*
X0081399Y0113176D01*
X0081517Y0113922D01*
X0081517Y0114100D01*
X0073917Y0114100D01*
X0073917Y0114500D01*
X0073517Y0114500D01*
X0073517Y0119100D01*
X0070340Y0119100D01*
X0069593Y0118982D01*
X0068875Y0118748D01*
X0068202Y0118405D01*
X0067590Y0117961D01*
X0067056Y0117427D01*
X0066612Y0116816D01*
X0066269Y0116143D01*
X0066036Y0115424D01*
X0065917Y0114678D01*
X0065917Y0114500D01*
X0065960Y0114945D02*
X0065675Y0114945D01*
X0065675Y0116543D02*
X0066473Y0116543D01*
X0065675Y0118142D02*
X0067839Y0118142D01*
X0068225Y0120570D02*
X0069842Y0119900D01*
X0077593Y0119900D01*
X0079210Y0120570D01*
X0080447Y0121808D01*
X0081117Y0123425D01*
X0081117Y0125175D01*
X0080447Y0126792D01*
X0079210Y0128030D01*
X0077593Y0128700D01*
X0069842Y0128700D01*
X0068225Y0128030D01*
X0066987Y0126792D01*
X0066317Y0125175D01*
X0066317Y0123425D01*
X0066987Y0121808D01*
X0068225Y0120570D01*
X0067456Y0121339D02*
X0065675Y0121339D01*
X0065675Y0122937D02*
X0066519Y0122937D01*
X0066317Y0124536D02*
X0065675Y0124536D01*
X0065675Y0126134D02*
X0066715Y0126134D01*
X0065675Y0127733D02*
X0067928Y0127733D01*
X0065675Y0129332D02*
X0258925Y0129332D01*
X0258925Y0130930D02*
X0079570Y0130930D01*
X0079210Y0130570D02*
X0080447Y0131808D01*
X0081117Y0133425D01*
X0081117Y0135175D01*
X0080447Y0136792D01*
X0079210Y0138030D01*
X0077593Y0138700D01*
X0069842Y0138700D01*
X0068225Y0138030D01*
X0066987Y0136792D01*
X0066317Y0135175D01*
X0066317Y0133425D01*
X0066987Y0131808D01*
X0068225Y0130570D01*
X0069842Y0129900D01*
X0077593Y0129900D01*
X0079210Y0130570D01*
X0080746Y0132529D02*
X0258925Y0132529D01*
X0258925Y0134127D02*
X0081117Y0134127D01*
X0080889Y0135726D02*
X0258925Y0135726D01*
X0258925Y0137324D02*
X0079916Y0137324D01*
X0079092Y0140521D02*
X0258925Y0140521D01*
X0258925Y0138923D02*
X0065675Y0138923D01*
X0065675Y0140521D02*
X0068343Y0140521D01*
X0068225Y0140570D02*
X0069842Y0139900D01*
X0077593Y0139900D01*
X0079210Y0140570D01*
X0080447Y0141808D01*
X0081117Y0143425D01*
X0081117Y0145175D01*
X0080447Y0146792D01*
X0079210Y0148030D01*
X0077593Y0148700D01*
X0069842Y0148700D01*
X0068225Y0148030D01*
X0066987Y0146792D01*
X0066317Y0145175D01*
X0066317Y0143425D01*
X0066987Y0141808D01*
X0068225Y0140570D01*
X0066858Y0142120D02*
X0065675Y0142120D01*
X0065675Y0143718D02*
X0066317Y0143718D01*
X0066376Y0145317D02*
X0065675Y0145317D01*
X0065675Y0146915D02*
X0067110Y0146915D01*
X0065675Y0148514D02*
X0069392Y0148514D01*
X0065675Y0150112D02*
X0120400Y0150112D01*
X0120400Y0149077D02*
X0120096Y0148773D01*
X0119700Y0147817D01*
X0119700Y0146783D01*
X0120096Y0145827D01*
X0120827Y0145096D01*
X0121783Y0144700D01*
X0122817Y0144700D01*
X0123773Y0145096D01*
X0124504Y0145827D01*
X0124900Y0146783D01*
X0124900Y0147817D01*
X0124504Y0148773D01*
X0124200Y0149077D01*
X0124200Y0158523D01*
X0124504Y0158827D01*
X0124900Y0159783D01*
X0124900Y0160817D01*
X0124504Y0161773D01*
X0123773Y0162504D01*
X0122817Y0162900D01*
X0121783Y0162900D01*
X0120827Y0162504D01*
X0120096Y0161773D01*
X0119700Y0160817D01*
X0119700Y0159783D01*
X0120096Y0158827D01*
X0120400Y0158523D01*
X0120400Y0149077D01*
X0119989Y0148514D02*
X0078042Y0148514D01*
X0080325Y0146915D02*
X0119700Y0146915D01*
X0120606Y0145317D02*
X0081059Y0145317D01*
X0081117Y0143718D02*
X0258925Y0143718D01*
X0258925Y0142120D02*
X0080577Y0142120D01*
X0067519Y0137324D02*
X0065675Y0137324D01*
X0065675Y0135726D02*
X0066545Y0135726D01*
X0066317Y0134127D02*
X0065675Y0134127D01*
X0065675Y0132529D02*
X0066689Y0132529D01*
X0065675Y0130930D02*
X0067865Y0130930D01*
X0079507Y0127733D02*
X0258925Y0127733D01*
X0258925Y0126134D02*
X0080720Y0126134D01*
X0081117Y0124536D02*
X0258925Y0124536D01*
X0258925Y0122937D02*
X0080915Y0122937D01*
X0079979Y0121339D02*
X0258925Y0121339D01*
X0258925Y0119740D02*
X0065675Y0119740D01*
X0073517Y0118142D02*
X0073917Y0118142D01*
X0073917Y0119100D02*
X0073917Y0114500D01*
X0081517Y0114500D01*
X0081517Y0114678D01*
X0081399Y0115424D01*
X0081166Y0116143D01*
X0080823Y0116816D01*
X0080379Y0117427D01*
X0079844Y0117961D01*
X0079233Y0118405D01*
X0078560Y0118748D01*
X0077841Y0118982D01*
X0077095Y0119100D01*
X0073917Y0119100D01*
X0073917Y0116543D02*
X0073517Y0116543D01*
X0073517Y0114945D02*
X0073917Y0114945D01*
X0073917Y0113346D02*
X0073517Y0113346D01*
X0073517Y0111748D02*
X0073917Y0111748D01*
X0073917Y0110149D02*
X0073517Y0110149D01*
X0077953Y0108551D02*
X0258925Y0108551D01*
X0258925Y0110149D02*
X0079144Y0110149D01*
X0080796Y0111748D02*
X0258925Y0111748D01*
X0258925Y0113346D02*
X0081426Y0113346D01*
X0081475Y0114945D02*
X0258925Y0114945D01*
X0258925Y0116543D02*
X0080961Y0116543D01*
X0079596Y0118142D02*
X0258925Y0118142D01*
X0258925Y0106952D02*
X0144100Y0106952D01*
X0144100Y0105354D02*
X0258925Y0105354D01*
X0258925Y0103755D02*
X0145100Y0103755D01*
X0145100Y0102157D02*
X0258925Y0102157D01*
X0258925Y0100558D02*
X0155600Y0100558D01*
X0155600Y0098960D02*
X0258925Y0098960D01*
X0258925Y0097361D02*
X0155600Y0097361D01*
X0150601Y0095763D02*
X0258925Y0095763D01*
X0258925Y0094164D02*
X0149003Y0094164D01*
X0148100Y0092566D02*
X0258925Y0092566D01*
X0258925Y0090967D02*
X0148100Y0090967D01*
X0147707Y0089369D02*
X0258925Y0089369D01*
X0258925Y0087770D02*
X0136600Y0087770D01*
X0136600Y0086172D02*
X0258925Y0086172D01*
X0258925Y0084573D02*
X0136600Y0084573D01*
X0136313Y0082975D02*
X0258925Y0082975D01*
X0258925Y0078179D02*
X0249875Y0078179D01*
X0249565Y0078489D02*
X0246588Y0079722D01*
X0243366Y0079722D01*
X0240389Y0078489D01*
X0238111Y0076211D01*
X0236878Y0073234D01*
X0236878Y0070012D01*
X0238111Y0067035D01*
X0240389Y0064757D01*
X0243366Y0063524D01*
X0246588Y0063524D01*
X0249565Y0064757D01*
X0251843Y0067035D01*
X0253076Y0070012D01*
X0253076Y0073234D01*
X0251843Y0076211D01*
X0249565Y0078489D01*
X0251473Y0076581D02*
X0258925Y0076581D01*
X0258925Y0074982D02*
X0252352Y0074982D01*
X0253014Y0073384D02*
X0258925Y0073384D01*
X0258925Y0071785D02*
X0253076Y0071785D01*
X0253076Y0070187D02*
X0258925Y0070187D01*
X0258925Y0068588D02*
X0252487Y0068588D01*
X0251798Y0066990D02*
X0257483Y0066990D01*
X0255885Y0065391D02*
X0250199Y0065391D01*
X0247237Y0063793D02*
X0254286Y0063793D01*
X0252688Y0062194D02*
X0071912Y0062194D01*
X0073511Y0060596D02*
X0251089Y0060596D01*
X0249491Y0058997D02*
X0075109Y0058997D01*
X0081883Y0063793D02*
X0242717Y0063793D01*
X0239755Y0065391D02*
X0084845Y0065391D01*
X0086444Y0066990D02*
X0238156Y0066990D01*
X0237468Y0068588D02*
X0087132Y0068588D01*
X0087722Y0070187D02*
X0236878Y0070187D01*
X0236878Y0071785D02*
X0087722Y0071785D01*
X0087660Y0073384D02*
X0236940Y0073384D01*
X0237602Y0074982D02*
X0086998Y0074982D01*
X0086119Y0076581D02*
X0238481Y0076581D01*
X0240079Y0078179D02*
X0084521Y0078179D01*
X0067828Y0090967D02*
X0065675Y0090967D01*
X0065675Y0092566D02*
X0066673Y0092566D01*
X0066317Y0094164D02*
X0065675Y0094164D01*
X0065675Y0095763D02*
X0066561Y0095763D01*
X0065675Y0097361D02*
X0067556Y0097361D01*
X0080592Y0102157D02*
X0117000Y0102157D01*
X0117000Y0103755D02*
X0081117Y0103755D01*
X0081043Y0105354D02*
X0117000Y0105354D01*
X0117000Y0106952D02*
X0080287Y0106952D01*
X0123994Y0145317D02*
X0183606Y0145317D01*
X0183827Y0145096D02*
X0184783Y0144700D01*
X0185817Y0144700D01*
X0186773Y0145096D01*
X0187504Y0145827D01*
X0187900Y0146783D01*
X0187900Y0147817D01*
X0187504Y0148773D01*
X0187200Y0149077D01*
X0187200Y0158523D01*
X0187504Y0158827D01*
X0187900Y0159783D01*
X0187900Y0160817D01*
X0187504Y0161773D01*
X0186773Y0162504D01*
X0185817Y0162900D01*
X0184783Y0162900D01*
X0183827Y0162504D01*
X0183096Y0161773D01*
X0182700Y0160817D01*
X0182700Y0159783D01*
X0183096Y0158827D01*
X0183400Y0158523D01*
X0183400Y0149077D01*
X0183096Y0148773D01*
X0182700Y0147817D01*
X0182700Y0146783D01*
X0183096Y0145827D01*
X0183827Y0145096D01*
X0182700Y0146915D02*
X0124900Y0146915D01*
X0124611Y0148514D02*
X0182989Y0148514D01*
X0183400Y0150112D02*
X0124200Y0150112D01*
X0124200Y0151711D02*
X0183400Y0151711D01*
X0183400Y0153309D02*
X0124200Y0153309D01*
X0124200Y0154908D02*
X0183400Y0154908D01*
X0183400Y0156506D02*
X0124200Y0156506D01*
X0124200Y0158105D02*
X0183400Y0158105D01*
X0182733Y0159703D02*
X0124867Y0159703D01*
X0124699Y0161302D02*
X0182901Y0161302D01*
X0187699Y0161302D02*
X0258925Y0161302D01*
X0258925Y0162900D02*
X0080900Y0162900D01*
X0081117Y0163425D02*
X0081117Y0165175D01*
X0080447Y0166792D01*
X0079210Y0168030D01*
X0077593Y0168700D01*
X0069842Y0168700D01*
X0068225Y0168030D01*
X0066987Y0166792D01*
X0066317Y0165175D01*
X0066317Y0163425D01*
X0066987Y0161808D01*
X0068225Y0160570D01*
X0069842Y0159900D01*
X0077593Y0159900D01*
X0079210Y0160570D01*
X0080447Y0161808D01*
X0081117Y0163425D01*
X0081117Y0164499D02*
X0258925Y0164499D01*
X0258925Y0166097D02*
X0080735Y0166097D01*
X0079544Y0167696D02*
X0258925Y0167696D01*
X0258925Y0169294D02*
X0065675Y0169294D01*
X0065675Y0167696D02*
X0067891Y0167696D01*
X0066699Y0166097D02*
X0065675Y0166097D01*
X0065675Y0164499D02*
X0066317Y0164499D01*
X0066535Y0162900D02*
X0065675Y0162900D01*
X0065675Y0161302D02*
X0067493Y0161302D01*
X0065675Y0159703D02*
X0119733Y0159703D01*
X0119901Y0161302D02*
X0079942Y0161302D01*
X0077841Y0169618D02*
X0078560Y0169852D01*
X0079233Y0170195D01*
X0079844Y0170639D01*
X0080379Y0171173D01*
X0080823Y0171784D01*
X0081166Y0172457D01*
X0081399Y0173176D01*
X0081517Y0173922D01*
X0081517Y0174100D01*
X0073917Y0174100D01*
X0073917Y0169500D01*
X0077095Y0169500D01*
X0077841Y0169618D01*
X0080098Y0170893D02*
X0258925Y0170893D01*
X0258925Y0172491D02*
X0081177Y0172491D01*
X0081517Y0174090D02*
X0258925Y0174090D01*
X0258925Y0175688D02*
X0081313Y0175688D01*
X0081399Y0175424D02*
X0081166Y0176143D01*
X0080823Y0176816D01*
X0080379Y0177427D01*
X0079844Y0177961D01*
X0079233Y0178405D01*
X0078560Y0178748D01*
X0077841Y0178982D01*
X0077095Y0179100D01*
X0073917Y0179100D01*
X0073917Y0174500D01*
X0073517Y0174500D01*
X0073517Y0174100D01*
X0065917Y0174100D01*
X0065917Y0173922D01*
X0066036Y0173176D01*
X0066269Y0172457D01*
X0066612Y0171784D01*
X0067056Y0171173D01*
X0067590Y0170639D01*
X0068202Y0170195D01*
X0068875Y0169852D01*
X0069593Y0169618D01*
X0070340Y0169500D01*
X0073517Y0169500D01*
X0073517Y0174100D01*
X0073917Y0174100D01*
X0073917Y0174500D01*
X0081517Y0174500D01*
X0081517Y0174678D01*
X0081399Y0175424D01*
X0080480Y0177287D02*
X0258925Y0177287D01*
X0258925Y0178885D02*
X0078138Y0178885D01*
X0077593Y0179900D02*
X0079210Y0180570D01*
X0080447Y0181808D01*
X0081117Y0183425D01*
X0081117Y0185175D01*
X0080447Y0186792D01*
X0079210Y0188030D01*
X0077593Y0188700D01*
X0069842Y0188700D01*
X0068225Y0188030D01*
X0066987Y0186792D01*
X0066317Y0185175D01*
X0066317Y0183425D01*
X0066987Y0181808D01*
X0068225Y0180570D01*
X0069842Y0179900D01*
X0077593Y0179900D01*
X0079002Y0180484D02*
X0258925Y0180484D01*
X0258925Y0182082D02*
X0080561Y0182082D01*
X0081117Y0183681D02*
X0258925Y0183681D01*
X0258925Y0185279D02*
X0081074Y0185279D01*
X0080362Y0186878D02*
X0258925Y0186878D01*
X0258925Y0188476D02*
X0078132Y0188476D01*
X0077593Y0189900D02*
X0079210Y0190570D01*
X0080447Y0191808D01*
X0081117Y0193425D01*
X0081117Y0195175D01*
X0080447Y0196792D01*
X0079210Y0198030D01*
X0077593Y0198700D01*
X0069842Y0198700D01*
X0068225Y0198030D01*
X0066987Y0196792D01*
X0066317Y0195175D01*
X0066317Y0193425D01*
X0066987Y0191808D01*
X0068225Y0190570D01*
X0069842Y0189900D01*
X0077593Y0189900D01*
X0078015Y0190075D02*
X0258925Y0190075D01*
X0258925Y0191673D02*
X0080313Y0191673D01*
X0081054Y0193272D02*
X0258925Y0193272D01*
X0258925Y0194870D02*
X0081117Y0194870D01*
X0080581Y0196469D02*
X0258925Y0196469D01*
X0258925Y0198068D02*
X0217314Y0198068D01*
X0217235Y0198010D02*
X0217948Y0198529D01*
X0218571Y0199152D01*
X0219090Y0199865D01*
X0219490Y0200650D01*
X0219762Y0201489D01*
X0219900Y0202359D01*
X0219900Y0202616D01*
X0214484Y0202616D01*
X0214484Y0197200D01*
X0214741Y0197200D01*
X0215611Y0197338D01*
X0216450Y0197610D01*
X0217235Y0198010D01*
X0218945Y0199666D02*
X0258925Y0199666D01*
X0258925Y0201265D02*
X0219689Y0201265D01*
X0219900Y0202984D02*
X0219900Y0203241D01*
X0219762Y0204111D01*
X0219490Y0204950D01*
X0219090Y0205735D01*
X0218571Y0206448D01*
X0217948Y0207071D01*
X0217235Y0207590D01*
X0216450Y0207990D01*
X0215611Y0208262D01*
X0214741Y0208400D01*
X0214484Y0208400D01*
X0214484Y0202984D01*
X0219900Y0202984D01*
X0219648Y0204462D02*
X0258925Y0204462D01*
X0258925Y0206060D02*
X0218853Y0206060D01*
X0217100Y0207659D02*
X0258925Y0207659D01*
X0258925Y0209257D02*
X0065675Y0209257D01*
X0065675Y0207659D02*
X0067853Y0207659D01*
X0068225Y0208030D02*
X0066987Y0206792D01*
X0066317Y0205175D01*
X0066317Y0203425D01*
X0066987Y0201808D01*
X0068225Y0200570D01*
X0069842Y0199900D01*
X0077593Y0199900D01*
X0079210Y0200570D01*
X0080447Y0201808D01*
X0081117Y0203425D01*
X0081117Y0205175D01*
X0080447Y0206792D01*
X0079210Y0208030D01*
X0077593Y0208700D01*
X0069842Y0208700D01*
X0068225Y0208030D01*
X0069842Y0209900D02*
X0068225Y0210570D01*
X0066987Y0211808D01*
X0066317Y0213425D01*
X0066317Y0215175D01*
X0066987Y0216792D01*
X0068225Y0218030D01*
X0069842Y0218700D01*
X0077593Y0218700D01*
X0079210Y0218030D01*
X0080447Y0216792D01*
X0081117Y0215175D01*
X0081117Y0213425D01*
X0080447Y0211808D01*
X0079210Y0210570D01*
X0077593Y0209900D01*
X0069842Y0209900D01*
X0067939Y0210856D02*
X0065675Y0210856D01*
X0065675Y0212454D02*
X0066719Y0212454D01*
X0066317Y0214053D02*
X0065675Y0214053D01*
X0065675Y0215651D02*
X0066514Y0215651D01*
X0065675Y0217250D02*
X0067444Y0217250D01*
X0065675Y0218848D02*
X0258925Y0218848D01*
X0258925Y0217250D02*
X0079990Y0217250D01*
X0080920Y0215651D02*
X0258925Y0215651D01*
X0258925Y0214053D02*
X0081117Y0214053D01*
X0080715Y0212454D02*
X0258925Y0212454D01*
X0258925Y0210856D02*
X0079495Y0210856D01*
X0079581Y0207659D02*
X0211500Y0207659D01*
X0211365Y0207590D02*
X0210652Y0207071D01*
X0210029Y0206448D01*
X0209510Y0205735D01*
X0209110Y0204950D01*
X0208838Y0204111D01*
X0208700Y0203241D01*
X0208700Y0202984D01*
X0214116Y0202984D01*
X0214116Y0202616D01*
X0214484Y0202616D01*
X0214484Y0202984D01*
X0214116Y0202984D01*
X0214116Y0208400D01*
X0213859Y0208400D01*
X0212989Y0208262D01*
X0212150Y0207990D01*
X0211365Y0207590D01*
X0209747Y0206060D02*
X0080751Y0206060D01*
X0081117Y0204462D02*
X0208952Y0204462D01*
X0208700Y0202616D02*
X0208700Y0202359D01*
X0208838Y0201489D01*
X0209110Y0200650D01*
X0209510Y0199865D01*
X0210029Y0199152D01*
X0210652Y0198529D01*
X0211365Y0198010D01*
X0212150Y0197610D01*
X0212989Y0197338D01*
X0213859Y0197200D01*
X0214116Y0197200D01*
X0214116Y0202616D01*
X0208700Y0202616D01*
X0208911Y0201265D02*
X0079904Y0201265D01*
X0080885Y0202863D02*
X0214116Y0202863D01*
X0214484Y0202863D02*
X0258925Y0202863D01*
X0258925Y0220447D02*
X0065675Y0220447D01*
X0065675Y0222045D02*
X0258925Y0222045D01*
X0258925Y0223644D02*
X0065675Y0223644D01*
X0065675Y0225242D02*
X0258925Y0225242D01*
X0258925Y0226841D02*
X0065675Y0226841D01*
X0065675Y0228439D02*
X0258925Y0228439D01*
X0258925Y0230038D02*
X0249388Y0230038D01*
X0249565Y0230111D02*
X0251843Y0232389D01*
X0253076Y0235366D01*
X0253076Y0238588D01*
X0251843Y0241565D01*
X0249565Y0243843D01*
X0246588Y0245076D01*
X0243366Y0245076D01*
X0240389Y0243843D01*
X0238111Y0241565D01*
X0236878Y0238588D01*
X0236878Y0235366D01*
X0238111Y0232389D01*
X0240389Y0230111D01*
X0243366Y0228878D01*
X0246588Y0228878D01*
X0249565Y0230111D01*
X0251090Y0231636D02*
X0258925Y0231636D01*
X0258925Y0233235D02*
X0252194Y0233235D01*
X0252856Y0234833D02*
X0258925Y0234833D01*
X0258925Y0236432D02*
X0253076Y0236432D01*
X0253076Y0238030D02*
X0258925Y0238030D01*
X0258925Y0239629D02*
X0252645Y0239629D01*
X0251983Y0241227D02*
X0257866Y0241227D01*
X0256268Y0242826D02*
X0250583Y0242826D01*
X0248162Y0244424D02*
X0254669Y0244424D01*
X0253071Y0246023D02*
X0204950Y0246023D01*
X0204982Y0245924D02*
X0204748Y0246643D01*
X0204405Y0247316D01*
X0203961Y0247927D01*
X0203427Y0248461D01*
X0202816Y0248905D01*
X0202143Y0249248D01*
X0201424Y0249482D01*
X0200678Y0249600D01*
X0200500Y0249600D01*
X0200500Y0242000D01*
X0200100Y0242000D01*
X0200100Y0249600D01*
X0199922Y0249600D01*
X0199176Y0249482D01*
X0198457Y0249248D01*
X0197784Y0248905D01*
X0197173Y0248461D01*
X0196639Y0247927D01*
X0196195Y0247316D01*
X0195852Y0246643D01*
X0195618Y0245924D01*
X0195500Y0245178D01*
X0195500Y0242000D01*
X0200100Y0242000D01*
X0200100Y0241600D01*
X0195500Y0241600D01*
X0195500Y0238422D01*
X0195618Y0237676D01*
X0195852Y0236957D01*
X0196195Y0236284D01*
X0196639Y0235673D01*
X0197173Y0235139D01*
X0197784Y0234695D01*
X0198457Y0234352D01*
X0199176Y0234118D01*
X0199922Y0234000D01*
X0200100Y0234000D01*
X0200100Y0241600D01*
X0200500Y0241600D01*
X0200500Y0242000D01*
X0205100Y0242000D01*
X0205100Y0245178D01*
X0204982Y0245924D01*
X0205100Y0244424D02*
X0241792Y0244424D01*
X0239372Y0242826D02*
X0205100Y0242826D01*
X0205100Y0241600D02*
X0200500Y0241600D01*
X0200500Y0234000D01*
X0200678Y0234000D01*
X0201424Y0234118D01*
X0202143Y0234352D01*
X0202816Y0234695D01*
X0203427Y0235139D01*
X0203961Y0235673D01*
X0204405Y0236284D01*
X0204748Y0236957D01*
X0204982Y0237676D01*
X0205100Y0238422D01*
X0205100Y0241600D01*
X0205100Y0241227D02*
X0237971Y0241227D01*
X0237309Y0239629D02*
X0205100Y0239629D01*
X0205038Y0238030D02*
X0236878Y0238030D01*
X0236878Y0236432D02*
X0204480Y0236432D01*
X0203006Y0234833D02*
X0237099Y0234833D01*
X0237761Y0233235D02*
X0135633Y0233235D01*
X0135633Y0233208D02*
X0134813Y0232388D01*
X0129882Y0232388D01*
X0129061Y0233208D01*
X0129061Y0238140D01*
X0129882Y0238960D01*
X0134813Y0238960D01*
X0135633Y0238140D01*
X0135633Y0233208D01*
X0135633Y0234833D02*
X0188379Y0234833D01*
X0187808Y0235070D02*
X0189425Y0234400D01*
X0191175Y0234400D01*
X0192792Y0235070D01*
X0194030Y0236308D01*
X0194700Y0237925D01*
X0194700Y0245675D01*
X0194030Y0247292D01*
X0192792Y0248530D01*
X0191175Y0249200D01*
X0189425Y0249200D01*
X0187808Y0248530D01*
X0186570Y0247292D01*
X0185900Y0245675D01*
X0185900Y0237925D01*
X0186570Y0236308D01*
X0187808Y0235070D01*
X0186518Y0236432D02*
X0135633Y0236432D01*
X0135633Y0238030D02*
X0185900Y0238030D01*
X0185900Y0239629D02*
X0087291Y0239629D01*
X0087722Y0238588D02*
X0086489Y0241565D01*
X0084211Y0243843D01*
X0081234Y0245076D01*
X0078012Y0245076D01*
X0075035Y0243843D01*
X0072757Y0241565D01*
X0071524Y0238588D01*
X0071524Y0235366D01*
X0072757Y0232389D01*
X0075035Y0230111D01*
X0078012Y0228878D01*
X0081234Y0228878D01*
X0084211Y0230111D01*
X0086489Y0232389D01*
X0087722Y0235366D01*
X0087722Y0238588D01*
X0087722Y0238030D02*
X0109967Y0238030D01*
X0109967Y0238140D02*
X0109967Y0233208D01*
X0110787Y0232388D01*
X0115718Y0232388D01*
X0116539Y0233208D01*
X0116539Y0238140D01*
X0115718Y0238960D01*
X0110787Y0238960D01*
X0109967Y0238140D01*
X0109967Y0236432D02*
X0087722Y0236432D01*
X0087501Y0234833D02*
X0109967Y0234833D01*
X0109967Y0233235D02*
X0086839Y0233235D01*
X0085736Y0231636D02*
X0238864Y0231636D01*
X0240566Y0230038D02*
X0084034Y0230038D01*
X0075212Y0230038D02*
X0065675Y0230038D01*
X0065675Y0231636D02*
X0073510Y0231636D01*
X0072406Y0233235D02*
X0065675Y0233235D01*
X0065675Y0234833D02*
X0071744Y0234833D01*
X0071524Y0236432D02*
X0065675Y0236432D01*
X0065675Y0238030D02*
X0071524Y0238030D01*
X0071955Y0239629D02*
X0065675Y0239629D01*
X0066734Y0241227D02*
X0072617Y0241227D01*
X0074017Y0242826D02*
X0068332Y0242826D01*
X0069931Y0244424D02*
X0076438Y0244424D01*
X0073128Y0247621D02*
X0103427Y0247621D01*
X0103427Y0246023D02*
X0071529Y0246023D01*
X0074726Y0249220D02*
X0103427Y0249220D01*
X0103427Y0250818D02*
X0076325Y0250818D01*
X0082808Y0244424D02*
X0103427Y0244424D01*
X0103427Y0242826D02*
X0085228Y0242826D01*
X0086629Y0241227D02*
X0185900Y0241227D01*
X0185900Y0242826D02*
X0142173Y0242826D01*
X0142173Y0244424D02*
X0185900Y0244424D01*
X0186044Y0246023D02*
X0142173Y0246023D01*
X0142173Y0247621D02*
X0186899Y0247621D01*
X0193701Y0247621D02*
X0196417Y0247621D01*
X0195650Y0246023D02*
X0194556Y0246023D01*
X0194700Y0244424D02*
X0195500Y0244424D01*
X0195500Y0242826D02*
X0194700Y0242826D01*
X0194700Y0241227D02*
X0195500Y0241227D01*
X0195500Y0239629D02*
X0194700Y0239629D01*
X0194700Y0238030D02*
X0195562Y0238030D01*
X0196120Y0236432D02*
X0194082Y0236432D01*
X0192221Y0234833D02*
X0197593Y0234833D01*
X0200100Y0234833D02*
X0200500Y0234833D01*
X0200500Y0236432D02*
X0200100Y0236432D01*
X0200100Y0238030D02*
X0200500Y0238030D01*
X0200500Y0239629D02*
X0200100Y0239629D01*
X0200100Y0241227D02*
X0200500Y0241227D01*
X0200500Y0242826D02*
X0200100Y0242826D01*
X0200100Y0244424D02*
X0200500Y0244424D01*
X0200500Y0246023D02*
X0200100Y0246023D01*
X0200100Y0247621D02*
X0200500Y0247621D01*
X0200500Y0249220D02*
X0200100Y0249220D01*
X0198402Y0249220D02*
X0142173Y0249220D01*
X0142173Y0250818D02*
X0248275Y0250818D01*
X0249874Y0249220D02*
X0202198Y0249220D01*
X0204183Y0247621D02*
X0251472Y0247621D01*
X0214484Y0207659D02*
X0214116Y0207659D01*
X0214116Y0206060D02*
X0214484Y0206060D01*
X0214484Y0204462D02*
X0214116Y0204462D01*
X0214116Y0201265D02*
X0214484Y0201265D01*
X0214484Y0199666D02*
X0214116Y0199666D01*
X0214116Y0198068D02*
X0214484Y0198068D01*
X0211286Y0198068D02*
X0079119Y0198068D01*
X0068315Y0198068D02*
X0065675Y0198068D01*
X0065675Y0199666D02*
X0209655Y0199666D01*
X0187867Y0159703D02*
X0258925Y0159703D01*
X0258925Y0158105D02*
X0187200Y0158105D01*
X0187200Y0156506D02*
X0258925Y0156506D01*
X0258925Y0154908D02*
X0187200Y0154908D01*
X0187200Y0153309D02*
X0258925Y0153309D01*
X0258925Y0151711D02*
X0187200Y0151711D01*
X0187200Y0150112D02*
X0258925Y0150112D01*
X0258925Y0148514D02*
X0187611Y0148514D01*
X0187900Y0146915D02*
X0258925Y0146915D01*
X0258925Y0145317D02*
X0186994Y0145317D01*
X0120400Y0151711D02*
X0065675Y0151711D01*
X0065675Y0153309D02*
X0120400Y0153309D01*
X0120400Y0154908D02*
X0065675Y0154908D01*
X0065675Y0156506D02*
X0120400Y0156506D01*
X0120400Y0158105D02*
X0065675Y0158105D01*
X0065675Y0170893D02*
X0067336Y0170893D01*
X0066258Y0172491D02*
X0065675Y0172491D01*
X0065675Y0174090D02*
X0065917Y0174090D01*
X0065917Y0174500D02*
X0073517Y0174500D01*
X0073517Y0179100D01*
X0070340Y0179100D01*
X0069593Y0178982D01*
X0068875Y0178748D01*
X0068202Y0178405D01*
X0067590Y0177961D01*
X0067056Y0177427D01*
X0066612Y0176816D01*
X0066269Y0176143D01*
X0066036Y0175424D01*
X0065917Y0174678D01*
X0065917Y0174500D01*
X0066121Y0175688D02*
X0065675Y0175688D01*
X0065675Y0177287D02*
X0066954Y0177287D01*
X0065675Y0178885D02*
X0069297Y0178885D01*
X0068432Y0180484D02*
X0065675Y0180484D01*
X0065675Y0182082D02*
X0066873Y0182082D01*
X0066317Y0183681D02*
X0065675Y0183681D01*
X0065675Y0185279D02*
X0066360Y0185279D01*
X0065675Y0186878D02*
X0067073Y0186878D01*
X0065675Y0188476D02*
X0069302Y0188476D01*
X0069420Y0190075D02*
X0065675Y0190075D01*
X0065675Y0191673D02*
X0067121Y0191673D01*
X0066381Y0193272D02*
X0065675Y0193272D01*
X0065675Y0194870D02*
X0066317Y0194870D01*
X0066853Y0196469D02*
X0065675Y0196469D01*
X0065675Y0201265D02*
X0067530Y0201265D01*
X0066550Y0202863D02*
X0065675Y0202863D01*
X0065675Y0204462D02*
X0066317Y0204462D01*
X0066684Y0206060D02*
X0065675Y0206060D01*
X0073517Y0178885D02*
X0073917Y0178885D01*
X0073917Y0177287D02*
X0073517Y0177287D01*
X0073517Y0175688D02*
X0073917Y0175688D01*
X0073917Y0174090D02*
X0073517Y0174090D01*
X0073517Y0172491D02*
X0073917Y0172491D01*
X0073917Y0170893D02*
X0073517Y0170893D01*
X0116539Y0233235D02*
X0129061Y0233235D01*
X0129061Y0234833D02*
X0116539Y0234833D01*
X0116539Y0236432D02*
X0129061Y0236432D01*
X0129061Y0238030D02*
X0116539Y0238030D01*
X0113827Y0242826D02*
X0131773Y0242826D01*
X0131773Y0244424D02*
X0113827Y0244424D01*
X0113827Y0246023D02*
X0131773Y0246023D01*
X0131773Y0247621D02*
X0113827Y0247621D01*
X0113827Y0249220D02*
X0131773Y0249220D01*
X0131773Y0250818D02*
X0113827Y0250818D01*
D17*
X0122300Y0160300D03*
X0122300Y0147300D03*
X0185300Y0147300D03*
X0185300Y0160300D03*
D18*
X0185300Y0147300D01*
X0122300Y0147300D02*
X0122300Y0160300D01*
M02*
