G75*
%MOIN*%
%OFA0B0*%
%FSLAX25Y25*%
%IPPOS*%
%LPD*%
%AMOC8*
5,1,8,0,0,1.08239X$1,22.5*
%
%ADD10R,0.03400X0.10100*%
%ADD11R,0.03156X0.09455*%
%ADD12R,0.09455X0.03156*%
%ADD13R,0.04731X0.04337*%
%ADD14R,0.04652X0.04534*%
%ADD15R,0.03400X0.16400*%
%ADD16R,0.04337X0.04731*%
%ADD17R,0.03943X0.03943*%
%ADD18C,0.00000*%
%ADD19C,0.12998*%
%ADD20OC8,0.06400*%
%ADD21R,0.06400X0.06400*%
%ADD22C,0.09258*%
%ADD23C,0.06400*%
%ADD24R,0.04337X0.01187*%
%ADD25R,0.01187X0.04337*%
%ADD26R,0.05400X0.02600*%
%ADD27C,0.08000*%
%ADD28C,0.05912*%
D10*
X0121600Y0191000D03*
X0121600Y0204200D03*
X0190000Y0146200D03*
X0190000Y0133000D03*
X0220800Y0186100D03*
X0220800Y0199300D03*
D11*
X0168700Y0146687D03*
X0168700Y0132513D03*
D12*
X0244213Y0149700D03*
X0258387Y0149700D03*
X0258387Y0172700D03*
X0244213Y0172700D03*
X0244213Y0212700D03*
X0258387Y0212700D03*
X0258387Y0235700D03*
X0244213Y0235700D03*
X0244213Y0275700D03*
X0258387Y0275700D03*
X0258387Y0298700D03*
X0244213Y0298700D03*
X0244213Y0109700D03*
X0258387Y0109700D03*
X0258387Y0086700D03*
X0244213Y0086700D03*
D13*
X0268900Y0088854D03*
X0268900Y0095546D03*
X0268900Y0100854D03*
X0268900Y0107546D03*
X0292654Y0125700D03*
X0299346Y0125700D03*
X0299346Y0133700D03*
X0292654Y0133700D03*
X0268900Y0151854D03*
X0268900Y0158546D03*
X0268900Y0163854D03*
X0268900Y0170546D03*
X0292554Y0188700D03*
X0299246Y0188700D03*
X0299246Y0196700D03*
X0292554Y0196700D03*
X0268900Y0214854D03*
X0268900Y0221546D03*
X0268900Y0226854D03*
X0268900Y0233546D03*
X0292554Y0251800D03*
X0299246Y0251800D03*
X0299246Y0259800D03*
X0292554Y0259800D03*
X0268900Y0277954D03*
X0268900Y0284646D03*
X0268900Y0289854D03*
X0268900Y0296546D03*
X0292654Y0314700D03*
X0299346Y0314700D03*
X0199146Y0195600D03*
X0192454Y0195600D03*
X0141346Y0197600D03*
X0134654Y0197600D03*
X0115900Y0152846D03*
X0115900Y0146154D03*
X0292654Y0070700D03*
X0299346Y0070700D03*
D14*
X0165800Y0217055D03*
X0165800Y0223945D03*
X0081200Y0195945D03*
X0081200Y0189055D03*
X0073000Y0189055D03*
X0073000Y0195945D03*
X0053300Y0195845D03*
X0053300Y0188955D03*
X0054100Y0167145D03*
X0054100Y0160255D03*
X0075000Y0160155D03*
X0075000Y0167045D03*
D15*
X0075100Y0142700D03*
X0075100Y0120100D03*
X0075000Y0217900D03*
X0075000Y0240500D03*
D16*
X0163700Y0165246D03*
X0163700Y0158554D03*
X0171700Y0158554D03*
X0171700Y0165246D03*
X0179700Y0165246D03*
X0179700Y0158554D03*
X0099000Y0138246D03*
X0099000Y0131554D03*
X0268954Y0145200D03*
X0275646Y0145200D03*
X0275646Y0114200D03*
X0268954Y0114200D03*
X0268954Y0082200D03*
X0275646Y0082200D03*
X0275646Y0177200D03*
X0268954Y0177200D03*
X0268954Y0208200D03*
X0275646Y0208200D03*
X0275646Y0240200D03*
X0268954Y0240200D03*
X0268954Y0271200D03*
X0275646Y0271200D03*
X0275646Y0303200D03*
X0268954Y0303200D03*
D17*
X0068450Y0160300D03*
X0062150Y0160300D03*
X0059350Y0195900D03*
X0065650Y0195900D03*
D18*
X0009300Y0047011D02*
X0021111Y0035200D01*
X0312450Y0035200D01*
X0324261Y0047011D01*
X0324261Y0338350D01*
X0312450Y0350161D01*
X0021111Y0350161D01*
X0009300Y0338350D01*
X0009300Y0047011D01*
X0018749Y0050948D02*
X0018751Y0051106D01*
X0018757Y0051264D01*
X0018767Y0051422D01*
X0018781Y0051580D01*
X0018799Y0051737D01*
X0018820Y0051894D01*
X0018846Y0052050D01*
X0018876Y0052206D01*
X0018909Y0052361D01*
X0018947Y0052514D01*
X0018988Y0052667D01*
X0019033Y0052819D01*
X0019082Y0052970D01*
X0019135Y0053119D01*
X0019191Y0053267D01*
X0019251Y0053413D01*
X0019315Y0053558D01*
X0019383Y0053701D01*
X0019454Y0053843D01*
X0019528Y0053983D01*
X0019606Y0054120D01*
X0019688Y0054256D01*
X0019772Y0054390D01*
X0019861Y0054521D01*
X0019952Y0054650D01*
X0020047Y0054777D01*
X0020144Y0054902D01*
X0020245Y0055024D01*
X0020349Y0055143D01*
X0020456Y0055260D01*
X0020566Y0055374D01*
X0020679Y0055485D01*
X0020794Y0055594D01*
X0020912Y0055699D01*
X0021033Y0055801D01*
X0021156Y0055901D01*
X0021282Y0055997D01*
X0021410Y0056090D01*
X0021540Y0056180D01*
X0021673Y0056266D01*
X0021808Y0056350D01*
X0021944Y0056429D01*
X0022083Y0056506D01*
X0022224Y0056578D01*
X0022366Y0056648D01*
X0022510Y0056713D01*
X0022656Y0056775D01*
X0022803Y0056833D01*
X0022952Y0056888D01*
X0023102Y0056939D01*
X0023253Y0056986D01*
X0023405Y0057029D01*
X0023558Y0057068D01*
X0023713Y0057104D01*
X0023868Y0057135D01*
X0024024Y0057163D01*
X0024180Y0057187D01*
X0024337Y0057207D01*
X0024495Y0057223D01*
X0024652Y0057235D01*
X0024811Y0057243D01*
X0024969Y0057247D01*
X0025127Y0057247D01*
X0025285Y0057243D01*
X0025444Y0057235D01*
X0025601Y0057223D01*
X0025759Y0057207D01*
X0025916Y0057187D01*
X0026072Y0057163D01*
X0026228Y0057135D01*
X0026383Y0057104D01*
X0026538Y0057068D01*
X0026691Y0057029D01*
X0026843Y0056986D01*
X0026994Y0056939D01*
X0027144Y0056888D01*
X0027293Y0056833D01*
X0027440Y0056775D01*
X0027586Y0056713D01*
X0027730Y0056648D01*
X0027872Y0056578D01*
X0028013Y0056506D01*
X0028152Y0056429D01*
X0028288Y0056350D01*
X0028423Y0056266D01*
X0028556Y0056180D01*
X0028686Y0056090D01*
X0028814Y0055997D01*
X0028940Y0055901D01*
X0029063Y0055801D01*
X0029184Y0055699D01*
X0029302Y0055594D01*
X0029417Y0055485D01*
X0029530Y0055374D01*
X0029640Y0055260D01*
X0029747Y0055143D01*
X0029851Y0055024D01*
X0029952Y0054902D01*
X0030049Y0054777D01*
X0030144Y0054650D01*
X0030235Y0054521D01*
X0030324Y0054390D01*
X0030408Y0054256D01*
X0030490Y0054120D01*
X0030568Y0053983D01*
X0030642Y0053843D01*
X0030713Y0053701D01*
X0030781Y0053558D01*
X0030845Y0053413D01*
X0030905Y0053267D01*
X0030961Y0053119D01*
X0031014Y0052970D01*
X0031063Y0052819D01*
X0031108Y0052667D01*
X0031149Y0052514D01*
X0031187Y0052361D01*
X0031220Y0052206D01*
X0031250Y0052050D01*
X0031276Y0051894D01*
X0031297Y0051737D01*
X0031315Y0051580D01*
X0031329Y0051422D01*
X0031339Y0051264D01*
X0031345Y0051106D01*
X0031347Y0050948D01*
X0031345Y0050790D01*
X0031339Y0050632D01*
X0031329Y0050474D01*
X0031315Y0050316D01*
X0031297Y0050159D01*
X0031276Y0050002D01*
X0031250Y0049846D01*
X0031220Y0049690D01*
X0031187Y0049535D01*
X0031149Y0049382D01*
X0031108Y0049229D01*
X0031063Y0049077D01*
X0031014Y0048926D01*
X0030961Y0048777D01*
X0030905Y0048629D01*
X0030845Y0048483D01*
X0030781Y0048338D01*
X0030713Y0048195D01*
X0030642Y0048053D01*
X0030568Y0047913D01*
X0030490Y0047776D01*
X0030408Y0047640D01*
X0030324Y0047506D01*
X0030235Y0047375D01*
X0030144Y0047246D01*
X0030049Y0047119D01*
X0029952Y0046994D01*
X0029851Y0046872D01*
X0029747Y0046753D01*
X0029640Y0046636D01*
X0029530Y0046522D01*
X0029417Y0046411D01*
X0029302Y0046302D01*
X0029184Y0046197D01*
X0029063Y0046095D01*
X0028940Y0045995D01*
X0028814Y0045899D01*
X0028686Y0045806D01*
X0028556Y0045716D01*
X0028423Y0045630D01*
X0028288Y0045546D01*
X0028152Y0045467D01*
X0028013Y0045390D01*
X0027872Y0045318D01*
X0027730Y0045248D01*
X0027586Y0045183D01*
X0027440Y0045121D01*
X0027293Y0045063D01*
X0027144Y0045008D01*
X0026994Y0044957D01*
X0026843Y0044910D01*
X0026691Y0044867D01*
X0026538Y0044828D01*
X0026383Y0044792D01*
X0026228Y0044761D01*
X0026072Y0044733D01*
X0025916Y0044709D01*
X0025759Y0044689D01*
X0025601Y0044673D01*
X0025444Y0044661D01*
X0025285Y0044653D01*
X0025127Y0044649D01*
X0024969Y0044649D01*
X0024811Y0044653D01*
X0024652Y0044661D01*
X0024495Y0044673D01*
X0024337Y0044689D01*
X0024180Y0044709D01*
X0024024Y0044733D01*
X0023868Y0044761D01*
X0023713Y0044792D01*
X0023558Y0044828D01*
X0023405Y0044867D01*
X0023253Y0044910D01*
X0023102Y0044957D01*
X0022952Y0045008D01*
X0022803Y0045063D01*
X0022656Y0045121D01*
X0022510Y0045183D01*
X0022366Y0045248D01*
X0022224Y0045318D01*
X0022083Y0045390D01*
X0021944Y0045467D01*
X0021808Y0045546D01*
X0021673Y0045630D01*
X0021540Y0045716D01*
X0021410Y0045806D01*
X0021282Y0045899D01*
X0021156Y0045995D01*
X0021033Y0046095D01*
X0020912Y0046197D01*
X0020794Y0046302D01*
X0020679Y0046411D01*
X0020566Y0046522D01*
X0020456Y0046636D01*
X0020349Y0046753D01*
X0020245Y0046872D01*
X0020144Y0046994D01*
X0020047Y0047119D01*
X0019952Y0047246D01*
X0019861Y0047375D01*
X0019772Y0047506D01*
X0019688Y0047640D01*
X0019606Y0047776D01*
X0019528Y0047913D01*
X0019454Y0048053D01*
X0019383Y0048195D01*
X0019315Y0048338D01*
X0019251Y0048483D01*
X0019191Y0048629D01*
X0019135Y0048777D01*
X0019082Y0048926D01*
X0019033Y0049077D01*
X0018988Y0049229D01*
X0018947Y0049382D01*
X0018909Y0049535D01*
X0018876Y0049690D01*
X0018846Y0049846D01*
X0018820Y0050002D01*
X0018799Y0050159D01*
X0018781Y0050316D01*
X0018767Y0050474D01*
X0018757Y0050632D01*
X0018751Y0050790D01*
X0018749Y0050948D01*
X0018749Y0334413D02*
X0018751Y0334571D01*
X0018757Y0334729D01*
X0018767Y0334887D01*
X0018781Y0335045D01*
X0018799Y0335202D01*
X0018820Y0335359D01*
X0018846Y0335515D01*
X0018876Y0335671D01*
X0018909Y0335826D01*
X0018947Y0335979D01*
X0018988Y0336132D01*
X0019033Y0336284D01*
X0019082Y0336435D01*
X0019135Y0336584D01*
X0019191Y0336732D01*
X0019251Y0336878D01*
X0019315Y0337023D01*
X0019383Y0337166D01*
X0019454Y0337308D01*
X0019528Y0337448D01*
X0019606Y0337585D01*
X0019688Y0337721D01*
X0019772Y0337855D01*
X0019861Y0337986D01*
X0019952Y0338115D01*
X0020047Y0338242D01*
X0020144Y0338367D01*
X0020245Y0338489D01*
X0020349Y0338608D01*
X0020456Y0338725D01*
X0020566Y0338839D01*
X0020679Y0338950D01*
X0020794Y0339059D01*
X0020912Y0339164D01*
X0021033Y0339266D01*
X0021156Y0339366D01*
X0021282Y0339462D01*
X0021410Y0339555D01*
X0021540Y0339645D01*
X0021673Y0339731D01*
X0021808Y0339815D01*
X0021944Y0339894D01*
X0022083Y0339971D01*
X0022224Y0340043D01*
X0022366Y0340113D01*
X0022510Y0340178D01*
X0022656Y0340240D01*
X0022803Y0340298D01*
X0022952Y0340353D01*
X0023102Y0340404D01*
X0023253Y0340451D01*
X0023405Y0340494D01*
X0023558Y0340533D01*
X0023713Y0340569D01*
X0023868Y0340600D01*
X0024024Y0340628D01*
X0024180Y0340652D01*
X0024337Y0340672D01*
X0024495Y0340688D01*
X0024652Y0340700D01*
X0024811Y0340708D01*
X0024969Y0340712D01*
X0025127Y0340712D01*
X0025285Y0340708D01*
X0025444Y0340700D01*
X0025601Y0340688D01*
X0025759Y0340672D01*
X0025916Y0340652D01*
X0026072Y0340628D01*
X0026228Y0340600D01*
X0026383Y0340569D01*
X0026538Y0340533D01*
X0026691Y0340494D01*
X0026843Y0340451D01*
X0026994Y0340404D01*
X0027144Y0340353D01*
X0027293Y0340298D01*
X0027440Y0340240D01*
X0027586Y0340178D01*
X0027730Y0340113D01*
X0027872Y0340043D01*
X0028013Y0339971D01*
X0028152Y0339894D01*
X0028288Y0339815D01*
X0028423Y0339731D01*
X0028556Y0339645D01*
X0028686Y0339555D01*
X0028814Y0339462D01*
X0028940Y0339366D01*
X0029063Y0339266D01*
X0029184Y0339164D01*
X0029302Y0339059D01*
X0029417Y0338950D01*
X0029530Y0338839D01*
X0029640Y0338725D01*
X0029747Y0338608D01*
X0029851Y0338489D01*
X0029952Y0338367D01*
X0030049Y0338242D01*
X0030144Y0338115D01*
X0030235Y0337986D01*
X0030324Y0337855D01*
X0030408Y0337721D01*
X0030490Y0337585D01*
X0030568Y0337448D01*
X0030642Y0337308D01*
X0030713Y0337166D01*
X0030781Y0337023D01*
X0030845Y0336878D01*
X0030905Y0336732D01*
X0030961Y0336584D01*
X0031014Y0336435D01*
X0031063Y0336284D01*
X0031108Y0336132D01*
X0031149Y0335979D01*
X0031187Y0335826D01*
X0031220Y0335671D01*
X0031250Y0335515D01*
X0031276Y0335359D01*
X0031297Y0335202D01*
X0031315Y0335045D01*
X0031329Y0334887D01*
X0031339Y0334729D01*
X0031345Y0334571D01*
X0031347Y0334413D01*
X0031345Y0334255D01*
X0031339Y0334097D01*
X0031329Y0333939D01*
X0031315Y0333781D01*
X0031297Y0333624D01*
X0031276Y0333467D01*
X0031250Y0333311D01*
X0031220Y0333155D01*
X0031187Y0333000D01*
X0031149Y0332847D01*
X0031108Y0332694D01*
X0031063Y0332542D01*
X0031014Y0332391D01*
X0030961Y0332242D01*
X0030905Y0332094D01*
X0030845Y0331948D01*
X0030781Y0331803D01*
X0030713Y0331660D01*
X0030642Y0331518D01*
X0030568Y0331378D01*
X0030490Y0331241D01*
X0030408Y0331105D01*
X0030324Y0330971D01*
X0030235Y0330840D01*
X0030144Y0330711D01*
X0030049Y0330584D01*
X0029952Y0330459D01*
X0029851Y0330337D01*
X0029747Y0330218D01*
X0029640Y0330101D01*
X0029530Y0329987D01*
X0029417Y0329876D01*
X0029302Y0329767D01*
X0029184Y0329662D01*
X0029063Y0329560D01*
X0028940Y0329460D01*
X0028814Y0329364D01*
X0028686Y0329271D01*
X0028556Y0329181D01*
X0028423Y0329095D01*
X0028288Y0329011D01*
X0028152Y0328932D01*
X0028013Y0328855D01*
X0027872Y0328783D01*
X0027730Y0328713D01*
X0027586Y0328648D01*
X0027440Y0328586D01*
X0027293Y0328528D01*
X0027144Y0328473D01*
X0026994Y0328422D01*
X0026843Y0328375D01*
X0026691Y0328332D01*
X0026538Y0328293D01*
X0026383Y0328257D01*
X0026228Y0328226D01*
X0026072Y0328198D01*
X0025916Y0328174D01*
X0025759Y0328154D01*
X0025601Y0328138D01*
X0025444Y0328126D01*
X0025285Y0328118D01*
X0025127Y0328114D01*
X0024969Y0328114D01*
X0024811Y0328118D01*
X0024652Y0328126D01*
X0024495Y0328138D01*
X0024337Y0328154D01*
X0024180Y0328174D01*
X0024024Y0328198D01*
X0023868Y0328226D01*
X0023713Y0328257D01*
X0023558Y0328293D01*
X0023405Y0328332D01*
X0023253Y0328375D01*
X0023102Y0328422D01*
X0022952Y0328473D01*
X0022803Y0328528D01*
X0022656Y0328586D01*
X0022510Y0328648D01*
X0022366Y0328713D01*
X0022224Y0328783D01*
X0022083Y0328855D01*
X0021944Y0328932D01*
X0021808Y0329011D01*
X0021673Y0329095D01*
X0021540Y0329181D01*
X0021410Y0329271D01*
X0021282Y0329364D01*
X0021156Y0329460D01*
X0021033Y0329560D01*
X0020912Y0329662D01*
X0020794Y0329767D01*
X0020679Y0329876D01*
X0020566Y0329987D01*
X0020456Y0330101D01*
X0020349Y0330218D01*
X0020245Y0330337D01*
X0020144Y0330459D01*
X0020047Y0330584D01*
X0019952Y0330711D01*
X0019861Y0330840D01*
X0019772Y0330971D01*
X0019688Y0331105D01*
X0019606Y0331241D01*
X0019528Y0331378D01*
X0019454Y0331518D01*
X0019383Y0331660D01*
X0019315Y0331803D01*
X0019251Y0331948D01*
X0019191Y0332094D01*
X0019135Y0332242D01*
X0019082Y0332391D01*
X0019033Y0332542D01*
X0018988Y0332694D01*
X0018947Y0332847D01*
X0018909Y0333000D01*
X0018876Y0333155D01*
X0018846Y0333311D01*
X0018820Y0333467D01*
X0018799Y0333624D01*
X0018781Y0333781D01*
X0018767Y0333939D01*
X0018757Y0334097D01*
X0018751Y0334255D01*
X0018749Y0334413D01*
X0302214Y0334413D02*
X0302216Y0334571D01*
X0302222Y0334729D01*
X0302232Y0334887D01*
X0302246Y0335045D01*
X0302264Y0335202D01*
X0302285Y0335359D01*
X0302311Y0335515D01*
X0302341Y0335671D01*
X0302374Y0335826D01*
X0302412Y0335979D01*
X0302453Y0336132D01*
X0302498Y0336284D01*
X0302547Y0336435D01*
X0302600Y0336584D01*
X0302656Y0336732D01*
X0302716Y0336878D01*
X0302780Y0337023D01*
X0302848Y0337166D01*
X0302919Y0337308D01*
X0302993Y0337448D01*
X0303071Y0337585D01*
X0303153Y0337721D01*
X0303237Y0337855D01*
X0303326Y0337986D01*
X0303417Y0338115D01*
X0303512Y0338242D01*
X0303609Y0338367D01*
X0303710Y0338489D01*
X0303814Y0338608D01*
X0303921Y0338725D01*
X0304031Y0338839D01*
X0304144Y0338950D01*
X0304259Y0339059D01*
X0304377Y0339164D01*
X0304498Y0339266D01*
X0304621Y0339366D01*
X0304747Y0339462D01*
X0304875Y0339555D01*
X0305005Y0339645D01*
X0305138Y0339731D01*
X0305273Y0339815D01*
X0305409Y0339894D01*
X0305548Y0339971D01*
X0305689Y0340043D01*
X0305831Y0340113D01*
X0305975Y0340178D01*
X0306121Y0340240D01*
X0306268Y0340298D01*
X0306417Y0340353D01*
X0306567Y0340404D01*
X0306718Y0340451D01*
X0306870Y0340494D01*
X0307023Y0340533D01*
X0307178Y0340569D01*
X0307333Y0340600D01*
X0307489Y0340628D01*
X0307645Y0340652D01*
X0307802Y0340672D01*
X0307960Y0340688D01*
X0308117Y0340700D01*
X0308276Y0340708D01*
X0308434Y0340712D01*
X0308592Y0340712D01*
X0308750Y0340708D01*
X0308909Y0340700D01*
X0309066Y0340688D01*
X0309224Y0340672D01*
X0309381Y0340652D01*
X0309537Y0340628D01*
X0309693Y0340600D01*
X0309848Y0340569D01*
X0310003Y0340533D01*
X0310156Y0340494D01*
X0310308Y0340451D01*
X0310459Y0340404D01*
X0310609Y0340353D01*
X0310758Y0340298D01*
X0310905Y0340240D01*
X0311051Y0340178D01*
X0311195Y0340113D01*
X0311337Y0340043D01*
X0311478Y0339971D01*
X0311617Y0339894D01*
X0311753Y0339815D01*
X0311888Y0339731D01*
X0312021Y0339645D01*
X0312151Y0339555D01*
X0312279Y0339462D01*
X0312405Y0339366D01*
X0312528Y0339266D01*
X0312649Y0339164D01*
X0312767Y0339059D01*
X0312882Y0338950D01*
X0312995Y0338839D01*
X0313105Y0338725D01*
X0313212Y0338608D01*
X0313316Y0338489D01*
X0313417Y0338367D01*
X0313514Y0338242D01*
X0313609Y0338115D01*
X0313700Y0337986D01*
X0313789Y0337855D01*
X0313873Y0337721D01*
X0313955Y0337585D01*
X0314033Y0337448D01*
X0314107Y0337308D01*
X0314178Y0337166D01*
X0314246Y0337023D01*
X0314310Y0336878D01*
X0314370Y0336732D01*
X0314426Y0336584D01*
X0314479Y0336435D01*
X0314528Y0336284D01*
X0314573Y0336132D01*
X0314614Y0335979D01*
X0314652Y0335826D01*
X0314685Y0335671D01*
X0314715Y0335515D01*
X0314741Y0335359D01*
X0314762Y0335202D01*
X0314780Y0335045D01*
X0314794Y0334887D01*
X0314804Y0334729D01*
X0314810Y0334571D01*
X0314812Y0334413D01*
X0314810Y0334255D01*
X0314804Y0334097D01*
X0314794Y0333939D01*
X0314780Y0333781D01*
X0314762Y0333624D01*
X0314741Y0333467D01*
X0314715Y0333311D01*
X0314685Y0333155D01*
X0314652Y0333000D01*
X0314614Y0332847D01*
X0314573Y0332694D01*
X0314528Y0332542D01*
X0314479Y0332391D01*
X0314426Y0332242D01*
X0314370Y0332094D01*
X0314310Y0331948D01*
X0314246Y0331803D01*
X0314178Y0331660D01*
X0314107Y0331518D01*
X0314033Y0331378D01*
X0313955Y0331241D01*
X0313873Y0331105D01*
X0313789Y0330971D01*
X0313700Y0330840D01*
X0313609Y0330711D01*
X0313514Y0330584D01*
X0313417Y0330459D01*
X0313316Y0330337D01*
X0313212Y0330218D01*
X0313105Y0330101D01*
X0312995Y0329987D01*
X0312882Y0329876D01*
X0312767Y0329767D01*
X0312649Y0329662D01*
X0312528Y0329560D01*
X0312405Y0329460D01*
X0312279Y0329364D01*
X0312151Y0329271D01*
X0312021Y0329181D01*
X0311888Y0329095D01*
X0311753Y0329011D01*
X0311617Y0328932D01*
X0311478Y0328855D01*
X0311337Y0328783D01*
X0311195Y0328713D01*
X0311051Y0328648D01*
X0310905Y0328586D01*
X0310758Y0328528D01*
X0310609Y0328473D01*
X0310459Y0328422D01*
X0310308Y0328375D01*
X0310156Y0328332D01*
X0310003Y0328293D01*
X0309848Y0328257D01*
X0309693Y0328226D01*
X0309537Y0328198D01*
X0309381Y0328174D01*
X0309224Y0328154D01*
X0309066Y0328138D01*
X0308909Y0328126D01*
X0308750Y0328118D01*
X0308592Y0328114D01*
X0308434Y0328114D01*
X0308276Y0328118D01*
X0308117Y0328126D01*
X0307960Y0328138D01*
X0307802Y0328154D01*
X0307645Y0328174D01*
X0307489Y0328198D01*
X0307333Y0328226D01*
X0307178Y0328257D01*
X0307023Y0328293D01*
X0306870Y0328332D01*
X0306718Y0328375D01*
X0306567Y0328422D01*
X0306417Y0328473D01*
X0306268Y0328528D01*
X0306121Y0328586D01*
X0305975Y0328648D01*
X0305831Y0328713D01*
X0305689Y0328783D01*
X0305548Y0328855D01*
X0305409Y0328932D01*
X0305273Y0329011D01*
X0305138Y0329095D01*
X0305005Y0329181D01*
X0304875Y0329271D01*
X0304747Y0329364D01*
X0304621Y0329460D01*
X0304498Y0329560D01*
X0304377Y0329662D01*
X0304259Y0329767D01*
X0304144Y0329876D01*
X0304031Y0329987D01*
X0303921Y0330101D01*
X0303814Y0330218D01*
X0303710Y0330337D01*
X0303609Y0330459D01*
X0303512Y0330584D01*
X0303417Y0330711D01*
X0303326Y0330840D01*
X0303237Y0330971D01*
X0303153Y0331105D01*
X0303071Y0331241D01*
X0302993Y0331378D01*
X0302919Y0331518D01*
X0302848Y0331660D01*
X0302780Y0331803D01*
X0302716Y0331948D01*
X0302656Y0332094D01*
X0302600Y0332242D01*
X0302547Y0332391D01*
X0302498Y0332542D01*
X0302453Y0332694D01*
X0302412Y0332847D01*
X0302374Y0333000D01*
X0302341Y0333155D01*
X0302311Y0333311D01*
X0302285Y0333467D01*
X0302264Y0333624D01*
X0302246Y0333781D01*
X0302232Y0333939D01*
X0302222Y0334097D01*
X0302216Y0334255D01*
X0302214Y0334413D01*
X0302214Y0050948D02*
X0302216Y0051106D01*
X0302222Y0051264D01*
X0302232Y0051422D01*
X0302246Y0051580D01*
X0302264Y0051737D01*
X0302285Y0051894D01*
X0302311Y0052050D01*
X0302341Y0052206D01*
X0302374Y0052361D01*
X0302412Y0052514D01*
X0302453Y0052667D01*
X0302498Y0052819D01*
X0302547Y0052970D01*
X0302600Y0053119D01*
X0302656Y0053267D01*
X0302716Y0053413D01*
X0302780Y0053558D01*
X0302848Y0053701D01*
X0302919Y0053843D01*
X0302993Y0053983D01*
X0303071Y0054120D01*
X0303153Y0054256D01*
X0303237Y0054390D01*
X0303326Y0054521D01*
X0303417Y0054650D01*
X0303512Y0054777D01*
X0303609Y0054902D01*
X0303710Y0055024D01*
X0303814Y0055143D01*
X0303921Y0055260D01*
X0304031Y0055374D01*
X0304144Y0055485D01*
X0304259Y0055594D01*
X0304377Y0055699D01*
X0304498Y0055801D01*
X0304621Y0055901D01*
X0304747Y0055997D01*
X0304875Y0056090D01*
X0305005Y0056180D01*
X0305138Y0056266D01*
X0305273Y0056350D01*
X0305409Y0056429D01*
X0305548Y0056506D01*
X0305689Y0056578D01*
X0305831Y0056648D01*
X0305975Y0056713D01*
X0306121Y0056775D01*
X0306268Y0056833D01*
X0306417Y0056888D01*
X0306567Y0056939D01*
X0306718Y0056986D01*
X0306870Y0057029D01*
X0307023Y0057068D01*
X0307178Y0057104D01*
X0307333Y0057135D01*
X0307489Y0057163D01*
X0307645Y0057187D01*
X0307802Y0057207D01*
X0307960Y0057223D01*
X0308117Y0057235D01*
X0308276Y0057243D01*
X0308434Y0057247D01*
X0308592Y0057247D01*
X0308750Y0057243D01*
X0308909Y0057235D01*
X0309066Y0057223D01*
X0309224Y0057207D01*
X0309381Y0057187D01*
X0309537Y0057163D01*
X0309693Y0057135D01*
X0309848Y0057104D01*
X0310003Y0057068D01*
X0310156Y0057029D01*
X0310308Y0056986D01*
X0310459Y0056939D01*
X0310609Y0056888D01*
X0310758Y0056833D01*
X0310905Y0056775D01*
X0311051Y0056713D01*
X0311195Y0056648D01*
X0311337Y0056578D01*
X0311478Y0056506D01*
X0311617Y0056429D01*
X0311753Y0056350D01*
X0311888Y0056266D01*
X0312021Y0056180D01*
X0312151Y0056090D01*
X0312279Y0055997D01*
X0312405Y0055901D01*
X0312528Y0055801D01*
X0312649Y0055699D01*
X0312767Y0055594D01*
X0312882Y0055485D01*
X0312995Y0055374D01*
X0313105Y0055260D01*
X0313212Y0055143D01*
X0313316Y0055024D01*
X0313417Y0054902D01*
X0313514Y0054777D01*
X0313609Y0054650D01*
X0313700Y0054521D01*
X0313789Y0054390D01*
X0313873Y0054256D01*
X0313955Y0054120D01*
X0314033Y0053983D01*
X0314107Y0053843D01*
X0314178Y0053701D01*
X0314246Y0053558D01*
X0314310Y0053413D01*
X0314370Y0053267D01*
X0314426Y0053119D01*
X0314479Y0052970D01*
X0314528Y0052819D01*
X0314573Y0052667D01*
X0314614Y0052514D01*
X0314652Y0052361D01*
X0314685Y0052206D01*
X0314715Y0052050D01*
X0314741Y0051894D01*
X0314762Y0051737D01*
X0314780Y0051580D01*
X0314794Y0051422D01*
X0314804Y0051264D01*
X0314810Y0051106D01*
X0314812Y0050948D01*
X0314810Y0050790D01*
X0314804Y0050632D01*
X0314794Y0050474D01*
X0314780Y0050316D01*
X0314762Y0050159D01*
X0314741Y0050002D01*
X0314715Y0049846D01*
X0314685Y0049690D01*
X0314652Y0049535D01*
X0314614Y0049382D01*
X0314573Y0049229D01*
X0314528Y0049077D01*
X0314479Y0048926D01*
X0314426Y0048777D01*
X0314370Y0048629D01*
X0314310Y0048483D01*
X0314246Y0048338D01*
X0314178Y0048195D01*
X0314107Y0048053D01*
X0314033Y0047913D01*
X0313955Y0047776D01*
X0313873Y0047640D01*
X0313789Y0047506D01*
X0313700Y0047375D01*
X0313609Y0047246D01*
X0313514Y0047119D01*
X0313417Y0046994D01*
X0313316Y0046872D01*
X0313212Y0046753D01*
X0313105Y0046636D01*
X0312995Y0046522D01*
X0312882Y0046411D01*
X0312767Y0046302D01*
X0312649Y0046197D01*
X0312528Y0046095D01*
X0312405Y0045995D01*
X0312279Y0045899D01*
X0312151Y0045806D01*
X0312021Y0045716D01*
X0311888Y0045630D01*
X0311753Y0045546D01*
X0311617Y0045467D01*
X0311478Y0045390D01*
X0311337Y0045318D01*
X0311195Y0045248D01*
X0311051Y0045183D01*
X0310905Y0045121D01*
X0310758Y0045063D01*
X0310609Y0045008D01*
X0310459Y0044957D01*
X0310308Y0044910D01*
X0310156Y0044867D01*
X0310003Y0044828D01*
X0309848Y0044792D01*
X0309693Y0044761D01*
X0309537Y0044733D01*
X0309381Y0044709D01*
X0309224Y0044689D01*
X0309066Y0044673D01*
X0308909Y0044661D01*
X0308750Y0044653D01*
X0308592Y0044649D01*
X0308434Y0044649D01*
X0308276Y0044653D01*
X0308117Y0044661D01*
X0307960Y0044673D01*
X0307802Y0044689D01*
X0307645Y0044709D01*
X0307489Y0044733D01*
X0307333Y0044761D01*
X0307178Y0044792D01*
X0307023Y0044828D01*
X0306870Y0044867D01*
X0306718Y0044910D01*
X0306567Y0044957D01*
X0306417Y0045008D01*
X0306268Y0045063D01*
X0306121Y0045121D01*
X0305975Y0045183D01*
X0305831Y0045248D01*
X0305689Y0045318D01*
X0305548Y0045390D01*
X0305409Y0045467D01*
X0305273Y0045546D01*
X0305138Y0045630D01*
X0305005Y0045716D01*
X0304875Y0045806D01*
X0304747Y0045899D01*
X0304621Y0045995D01*
X0304498Y0046095D01*
X0304377Y0046197D01*
X0304259Y0046302D01*
X0304144Y0046411D01*
X0304031Y0046522D01*
X0303921Y0046636D01*
X0303814Y0046753D01*
X0303710Y0046872D01*
X0303609Y0046994D01*
X0303512Y0047119D01*
X0303417Y0047246D01*
X0303326Y0047375D01*
X0303237Y0047506D01*
X0303153Y0047640D01*
X0303071Y0047776D01*
X0302993Y0047913D01*
X0302919Y0048053D01*
X0302848Y0048195D01*
X0302780Y0048338D01*
X0302716Y0048483D01*
X0302656Y0048629D01*
X0302600Y0048777D01*
X0302547Y0048926D01*
X0302498Y0049077D01*
X0302453Y0049229D01*
X0302412Y0049382D01*
X0302374Y0049535D01*
X0302341Y0049690D01*
X0302311Y0049846D01*
X0302285Y0050002D01*
X0302264Y0050159D01*
X0302246Y0050316D01*
X0302232Y0050474D01*
X0302222Y0050632D01*
X0302216Y0050790D01*
X0302214Y0050948D01*
D19*
X0308513Y0050948D03*
X0308513Y0334413D03*
X0025048Y0334413D03*
X0025048Y0050948D03*
D20*
X0019261Y0092661D03*
X0019261Y0102661D03*
X0019261Y0112661D03*
X0019261Y0122661D03*
X0019261Y0132661D03*
X0019261Y0142661D03*
X0019261Y0152661D03*
X0019261Y0162661D03*
X0019261Y0172661D03*
X0019261Y0182661D03*
X0029261Y0182661D03*
X0029261Y0172661D03*
X0029261Y0162661D03*
X0029261Y0152661D03*
X0029261Y0142661D03*
X0029261Y0132661D03*
X0029261Y0122661D03*
X0029261Y0112661D03*
X0029261Y0102661D03*
X0019261Y0202661D03*
X0019261Y0212661D03*
X0019261Y0222661D03*
X0019261Y0232661D03*
X0019261Y0242661D03*
X0019261Y0252661D03*
X0019261Y0262661D03*
X0019261Y0272661D03*
X0019261Y0282661D03*
X0019261Y0292661D03*
X0029261Y0292661D03*
X0029261Y0282661D03*
X0029261Y0272661D03*
X0029261Y0262661D03*
X0029261Y0252661D03*
X0029261Y0242661D03*
X0029261Y0232661D03*
X0029261Y0222661D03*
X0029261Y0212661D03*
X0060800Y0256400D03*
X0060800Y0274200D03*
X0146600Y0330200D03*
X0146600Y0340200D03*
X0156600Y0340200D03*
X0156600Y0330200D03*
X0156600Y0320200D03*
X0166600Y0320200D03*
X0166600Y0330200D03*
X0166600Y0340200D03*
X0176600Y0340200D03*
X0176600Y0330200D03*
X0176600Y0320200D03*
X0186600Y0320200D03*
X0186600Y0330200D03*
X0186600Y0340200D03*
X0228900Y0280400D03*
X0229000Y0257900D03*
X0229200Y0241800D03*
X0229000Y0219000D03*
X0271200Y0197700D03*
X0271200Y0187700D03*
X0229300Y0166500D03*
X0229300Y0143400D03*
X0229300Y0103300D03*
X0229400Y0080400D03*
X0271200Y0071100D03*
X0271200Y0124800D03*
X0271200Y0134800D03*
X0186700Y0055100D03*
X0186700Y0045100D03*
X0176700Y0045100D03*
X0176700Y0055100D03*
X0176700Y0065100D03*
X0166700Y0065100D03*
X0166700Y0055100D03*
X0166700Y0045100D03*
X0156700Y0045100D03*
X0156700Y0055100D03*
X0156700Y0065100D03*
X0146700Y0065100D03*
X0146700Y0055100D03*
X0146700Y0045100D03*
X0134400Y0117100D03*
X0124400Y0117100D03*
X0136400Y0150800D03*
X0128900Y0158300D03*
X0143800Y0158400D03*
X0151300Y0150900D03*
X0271200Y0250800D03*
X0271200Y0260800D03*
X0271200Y0313700D03*
D21*
X0146600Y0320200D03*
X0029261Y0202661D03*
X0029261Y0092661D03*
X0186700Y0065100D03*
D22*
X0288186Y0078483D02*
X0297044Y0078483D01*
X0312300Y0093739D02*
X0312300Y0102598D01*
X0297044Y0117854D02*
X0288186Y0117854D01*
X0288186Y0141491D02*
X0297044Y0141491D01*
X0312300Y0156747D02*
X0312300Y0165606D01*
X0297044Y0180861D02*
X0288186Y0180861D01*
X0288186Y0204499D02*
X0297044Y0204499D01*
X0312300Y0219755D02*
X0312300Y0228613D01*
X0297044Y0243869D02*
X0288186Y0243869D01*
X0288186Y0267507D02*
X0297044Y0267507D01*
X0312300Y0282763D02*
X0312300Y0291621D01*
X0297044Y0306877D02*
X0288186Y0306877D01*
D23*
X0235800Y0337100D02*
X0235800Y0343100D01*
X0225800Y0343100D02*
X0225800Y0337100D01*
X0120400Y0099200D02*
X0120400Y0093200D01*
X0110400Y0093200D02*
X0110400Y0099200D01*
X0100400Y0099200D02*
X0100400Y0093200D01*
X0225800Y0048000D02*
X0225800Y0042000D01*
X0235800Y0042000D02*
X0235800Y0048000D01*
D24*
X0183513Y0181854D03*
X0183513Y0183822D03*
X0183513Y0185791D03*
X0183513Y0187759D03*
X0183513Y0189728D03*
X0183513Y0191696D03*
X0183513Y0193665D03*
X0183513Y0195633D03*
X0183513Y0197602D03*
X0183513Y0199570D03*
X0183513Y0201539D03*
X0183513Y0203507D03*
X0150048Y0203507D03*
X0150048Y0201539D03*
X0150048Y0199570D03*
X0150048Y0197602D03*
X0150048Y0195633D03*
X0150048Y0193665D03*
X0150048Y0191696D03*
X0150048Y0189728D03*
X0150048Y0187759D03*
X0150048Y0185791D03*
X0150048Y0183822D03*
X0150048Y0181854D03*
D25*
X0155954Y0175948D03*
X0157922Y0175948D03*
X0159891Y0175948D03*
X0161859Y0175948D03*
X0163828Y0175948D03*
X0165796Y0175948D03*
X0167765Y0175948D03*
X0169733Y0175948D03*
X0171702Y0175948D03*
X0173670Y0175948D03*
X0175639Y0175948D03*
X0177607Y0175948D03*
X0177607Y0209413D03*
X0175639Y0209413D03*
X0173670Y0209413D03*
X0171702Y0209413D03*
X0169733Y0209413D03*
X0167765Y0209413D03*
X0165796Y0209413D03*
X0163828Y0209413D03*
X0161859Y0209413D03*
X0159891Y0209413D03*
X0157922Y0209413D03*
X0155954Y0209413D03*
D26*
X0115900Y0131600D03*
X0115900Y0124200D03*
X0105700Y0124200D03*
X0105700Y0127900D03*
X0105700Y0131600D03*
D27*
X0092300Y0055500D03*
X0062800Y0055500D03*
X0251400Y0055500D03*
X0277700Y0055500D03*
X0277700Y0328900D03*
X0251400Y0328900D03*
D28*
X0126300Y0298400D03*
X0107100Y0298500D03*
X0046600Y0202300D03*
X0088700Y0169900D03*
X0103200Y0154700D03*
X0072600Y0094700D03*
M02*
