G75*
%MOIN*%
%OFA0B0*%
%FSLAX25Y25*%
%IPPOS*%
%LPD*%
%AMOC8*
5,1,8,0,0,1.08239X$1,22.5*
%
%ADD10C,0.01200*%
%ADD11C,0.00600*%
%ADD12C,0.01600*%
%ADD13C,0.00000*%
%ADD14C,0.01000*%
%ADD15C,0.00500*%
%ADD16C,0.01100*%
%ADD17C,0.00800*%
%ADD18C,0.03000*%
%ADD19R,0.03000X0.02000*%
%ADD20R,0.03000X0.04000*%
%ADD21R,0.03000X0.03000*%
D10*
X0067400Y0037500D02*
X0071937Y0042037D01*
X0071937Y0043172D01*
X0070803Y0044306D01*
X0068534Y0044306D01*
X0067400Y0043172D01*
X0067400Y0037500D02*
X0071937Y0037500D01*
X0074766Y0038634D02*
X0075901Y0037500D01*
X0078169Y0037500D01*
X0079303Y0038634D01*
X0079303Y0040903D01*
X0078169Y0042037D01*
X0077035Y0042037D01*
X0074766Y0040903D01*
X0074766Y0044306D01*
X0079303Y0044306D01*
X0079376Y0329000D02*
X0078242Y0329000D01*
X0078242Y0330134D01*
X0079376Y0330134D01*
X0079376Y0329000D01*
X0081925Y0329000D02*
X0086462Y0333537D01*
X0086462Y0334672D01*
X0085328Y0335806D01*
X0083059Y0335806D01*
X0081925Y0334672D01*
X0081925Y0329000D02*
X0086462Y0329000D01*
X0089291Y0329000D02*
X0089291Y0330134D01*
X0093828Y0334672D01*
X0093828Y0335806D01*
X0089291Y0335806D01*
X0096657Y0330134D02*
X0097792Y0330134D01*
X0097792Y0329000D01*
X0096657Y0329000D01*
X0096657Y0330134D01*
X0100340Y0329000D02*
X0100340Y0333537D01*
X0102609Y0335806D01*
X0104878Y0333537D01*
X0104878Y0329000D01*
X0104878Y0332403D02*
X0100340Y0332403D01*
X0075412Y0331269D02*
X0075412Y0330134D01*
X0074278Y0329000D01*
X0072010Y0329000D01*
X0070875Y0330134D01*
X0068046Y0330134D02*
X0066912Y0329000D01*
X0064643Y0329000D01*
X0063509Y0330134D01*
X0068046Y0334672D01*
X0068046Y0330134D01*
X0068046Y0334672D02*
X0066912Y0335806D01*
X0064643Y0335806D01*
X0063509Y0334672D01*
X0063509Y0330134D01*
X0060960Y0330134D02*
X0060960Y0329000D01*
X0059826Y0329000D01*
X0059826Y0330134D01*
X0060960Y0330134D01*
X0056997Y0334672D02*
X0052460Y0330134D01*
X0052460Y0329000D01*
X0049630Y0329000D02*
X0045093Y0329000D01*
X0047362Y0329000D02*
X0047362Y0335806D01*
X0045093Y0333537D01*
X0052460Y0335806D02*
X0056997Y0335806D01*
X0056997Y0334672D01*
X0070875Y0334672D02*
X0072010Y0335806D01*
X0074278Y0335806D01*
X0075412Y0334672D01*
X0075412Y0333537D01*
X0074278Y0332403D01*
X0075412Y0331269D01*
X0074278Y0332403D02*
X0073144Y0332403D01*
D11*
X0101344Y0293356D02*
X0101344Y0291655D01*
X0102478Y0292222D01*
X0103046Y0292222D01*
X0103613Y0291655D01*
X0103613Y0290520D01*
X0103046Y0289953D01*
X0101911Y0289953D01*
X0101344Y0290520D01*
X0101344Y0293356D02*
X0103613Y0293356D01*
X0105027Y0293356D02*
X0105027Y0291087D01*
X0106162Y0289953D01*
X0107296Y0291087D01*
X0107296Y0293356D01*
X0108710Y0292222D02*
X0109845Y0293356D01*
X0110979Y0292222D01*
X0110979Y0289953D01*
X0110979Y0291655D02*
X0108710Y0291655D01*
X0108710Y0292222D02*
X0108710Y0289953D01*
X0121675Y0290067D02*
X0122242Y0289500D01*
X0123377Y0289500D01*
X0123944Y0290067D01*
X0123944Y0291201D01*
X0122810Y0291201D01*
X0121675Y0290067D02*
X0121675Y0292336D01*
X0122242Y0292903D01*
X0123377Y0292903D01*
X0123944Y0292336D01*
X0125358Y0292903D02*
X0125358Y0289500D01*
X0127627Y0289500D02*
X0125358Y0292903D01*
X0127627Y0292903D02*
X0127627Y0289500D01*
X0129042Y0289500D02*
X0129042Y0292903D01*
X0130743Y0292903D01*
X0131310Y0292336D01*
X0131310Y0290067D01*
X0130743Y0289500D01*
X0129042Y0289500D01*
X0140700Y0298200D02*
X0189700Y0298200D01*
X0188600Y0300567D02*
X0185197Y0300567D01*
X0185197Y0302269D01*
X0185764Y0302836D01*
X0188033Y0302836D01*
X0188600Y0302269D01*
X0188600Y0300567D01*
X0188033Y0304251D02*
X0188600Y0304818D01*
X0188600Y0305952D01*
X0188033Y0306519D01*
X0188600Y0307934D02*
X0188600Y0310202D01*
X0188600Y0311617D02*
X0185197Y0311617D01*
X0186899Y0312184D02*
X0188600Y0313885D01*
X0187466Y0311617D02*
X0185197Y0313885D01*
X0185197Y0307934D02*
X0188600Y0307934D01*
X0185764Y0306519D02*
X0185197Y0305952D01*
X0185197Y0304818D01*
X0185764Y0304251D01*
X0188033Y0304251D01*
X0178400Y0304818D02*
X0177833Y0304251D01*
X0178400Y0304818D02*
X0178400Y0305952D01*
X0177833Y0306519D01*
X0177266Y0306519D01*
X0176699Y0305952D01*
X0176699Y0304818D01*
X0176131Y0304251D01*
X0175564Y0304251D01*
X0174997Y0304818D01*
X0174997Y0305952D01*
X0175564Y0306519D01*
X0174997Y0307934D02*
X0174997Y0309635D01*
X0175564Y0310202D01*
X0177833Y0310202D01*
X0178400Y0309635D01*
X0178400Y0307934D01*
X0174997Y0307934D01*
X0174997Y0311617D02*
X0174997Y0313885D01*
X0175564Y0313885D01*
X0177833Y0311617D01*
X0178400Y0311617D01*
X0177833Y0302836D02*
X0175564Y0302836D01*
X0174997Y0302269D01*
X0174997Y0300567D01*
X0178400Y0300567D01*
X0178400Y0302269D01*
X0177833Y0302836D01*
X0177833Y0295585D02*
X0178400Y0295018D01*
X0178400Y0293884D01*
X0177833Y0293317D01*
X0177266Y0293317D01*
X0176699Y0293884D01*
X0176699Y0295018D01*
X0177266Y0295585D01*
X0177833Y0295585D01*
X0176699Y0295018D02*
X0176131Y0295585D01*
X0175564Y0295585D01*
X0174997Y0295018D01*
X0174997Y0293884D01*
X0175564Y0293317D01*
X0176131Y0293317D01*
X0176699Y0293884D01*
X0177833Y0291902D02*
X0175564Y0291902D01*
X0174997Y0291335D01*
X0174997Y0289634D01*
X0178400Y0289634D01*
X0178400Y0291335D01*
X0177833Y0291902D01*
X0177833Y0288219D02*
X0178400Y0287652D01*
X0178400Y0286518D01*
X0177833Y0285951D01*
X0176699Y0286518D02*
X0176699Y0287652D01*
X0177266Y0288219D01*
X0177833Y0288219D01*
X0176699Y0286518D02*
X0176131Y0285951D01*
X0175564Y0285951D01*
X0174997Y0286518D01*
X0174997Y0287652D01*
X0175564Y0288219D01*
X0175564Y0284536D02*
X0174997Y0283969D01*
X0174997Y0282267D01*
X0178400Y0282267D01*
X0178400Y0283969D01*
X0177833Y0284536D01*
X0175564Y0284536D01*
X0168300Y0283969D02*
X0167733Y0284536D01*
X0165464Y0284536D01*
X0164897Y0283969D01*
X0164897Y0282267D01*
X0168300Y0282267D01*
X0168300Y0283969D01*
X0167733Y0285951D02*
X0168300Y0286518D01*
X0168300Y0287652D01*
X0167733Y0288219D01*
X0167166Y0288219D01*
X0166599Y0287652D01*
X0166599Y0286518D01*
X0166031Y0285951D01*
X0165464Y0285951D01*
X0164897Y0286518D01*
X0164897Y0287652D01*
X0165464Y0288219D01*
X0164897Y0289634D02*
X0164897Y0291335D01*
X0165464Y0291902D01*
X0167733Y0291902D01*
X0168300Y0291335D01*
X0168300Y0289634D01*
X0164897Y0289634D01*
X0166599Y0293317D02*
X0165464Y0294451D01*
X0164897Y0295585D01*
X0166599Y0295018D02*
X0166599Y0293317D01*
X0167733Y0293317D01*
X0168300Y0293884D01*
X0168300Y0295018D01*
X0167733Y0295585D01*
X0167166Y0295585D01*
X0166599Y0295018D01*
X0168300Y0300567D02*
X0164897Y0300567D01*
X0164897Y0302269D01*
X0165464Y0302836D01*
X0167733Y0302836D01*
X0168300Y0302269D01*
X0168300Y0300567D01*
X0167733Y0304251D02*
X0168300Y0304818D01*
X0168300Y0305952D01*
X0167733Y0306519D01*
X0167166Y0306519D01*
X0166599Y0305952D01*
X0166599Y0304818D01*
X0166031Y0304251D01*
X0165464Y0304251D01*
X0164897Y0304818D01*
X0164897Y0305952D01*
X0165464Y0306519D01*
X0164897Y0307934D02*
X0164897Y0309635D01*
X0165464Y0310202D01*
X0167733Y0310202D01*
X0168300Y0309635D01*
X0168300Y0307934D01*
X0164897Y0307934D01*
X0164897Y0311617D02*
X0166599Y0311617D01*
X0166031Y0312751D01*
X0166031Y0313318D01*
X0166599Y0313885D01*
X0167733Y0313885D01*
X0168300Y0313318D01*
X0168300Y0312184D01*
X0167733Y0311617D01*
X0164897Y0311617D02*
X0164897Y0313885D01*
X0158300Y0313418D02*
X0158300Y0312284D01*
X0157733Y0311717D01*
X0157733Y0310302D02*
X0155464Y0310302D01*
X0154897Y0309735D01*
X0154897Y0308034D01*
X0158300Y0308034D01*
X0158300Y0309735D01*
X0157733Y0310302D01*
X0155464Y0311717D02*
X0154897Y0312284D01*
X0154897Y0313418D01*
X0155464Y0313985D01*
X0156031Y0313985D01*
X0156599Y0313418D01*
X0157166Y0313985D01*
X0157733Y0313985D01*
X0158300Y0313418D01*
X0156599Y0313418D02*
X0156599Y0312851D01*
X0157166Y0306619D02*
X0157733Y0306619D01*
X0158300Y0306052D01*
X0158300Y0304918D01*
X0157733Y0304351D01*
X0156599Y0304918D02*
X0156599Y0306052D01*
X0157166Y0306619D01*
X0155464Y0306619D02*
X0154897Y0306052D01*
X0154897Y0304918D01*
X0155464Y0304351D01*
X0156031Y0304351D01*
X0156599Y0304918D01*
X0157733Y0302936D02*
X0155464Y0302936D01*
X0154897Y0302369D01*
X0154897Y0300667D01*
X0158300Y0300667D01*
X0158300Y0302369D01*
X0157733Y0302936D01*
X0156599Y0295585D02*
X0156599Y0293317D01*
X0154897Y0295018D01*
X0158300Y0295018D01*
X0157733Y0291902D02*
X0155464Y0291902D01*
X0154897Y0291335D01*
X0154897Y0289634D01*
X0158300Y0289634D01*
X0158300Y0291335D01*
X0157733Y0291902D01*
X0157733Y0288219D02*
X0158300Y0287652D01*
X0158300Y0286518D01*
X0157733Y0285951D01*
X0156599Y0286518D02*
X0156599Y0287652D01*
X0157166Y0288219D01*
X0157733Y0288219D01*
X0156599Y0286518D02*
X0156031Y0285951D01*
X0155464Y0285951D01*
X0154897Y0286518D01*
X0154897Y0287652D01*
X0155464Y0288219D01*
X0155464Y0284536D02*
X0154897Y0283969D01*
X0154897Y0282267D01*
X0158300Y0282267D01*
X0158300Y0283969D01*
X0157733Y0284536D01*
X0155464Y0284536D01*
X0148300Y0284069D02*
X0147733Y0284636D01*
X0145464Y0284636D01*
X0144897Y0284069D01*
X0144897Y0282367D01*
X0148300Y0282367D01*
X0148300Y0284069D01*
X0147733Y0286051D02*
X0148300Y0286618D01*
X0148300Y0287752D01*
X0147733Y0288319D01*
X0147166Y0288319D01*
X0146599Y0287752D01*
X0146599Y0286618D01*
X0146031Y0286051D01*
X0145464Y0286051D01*
X0144897Y0286618D01*
X0144897Y0287752D01*
X0145464Y0288319D01*
X0144897Y0289734D02*
X0144897Y0291435D01*
X0145464Y0292002D01*
X0147733Y0292002D01*
X0148300Y0291435D01*
X0148300Y0289734D01*
X0144897Y0289734D01*
X0145464Y0293417D02*
X0144897Y0293984D01*
X0144897Y0295118D01*
X0145464Y0295685D01*
X0146031Y0295685D01*
X0148300Y0293417D01*
X0148300Y0295685D01*
X0148300Y0300667D02*
X0144897Y0300667D01*
X0144897Y0302369D01*
X0145464Y0302936D01*
X0147733Y0302936D01*
X0148300Y0302369D01*
X0148300Y0300667D01*
X0147733Y0304351D02*
X0148300Y0304918D01*
X0148300Y0306052D01*
X0147733Y0306619D01*
X0147166Y0306619D01*
X0146599Y0306052D01*
X0146599Y0304918D01*
X0146031Y0304351D01*
X0145464Y0304351D01*
X0144897Y0304918D01*
X0144897Y0306052D01*
X0145464Y0306619D01*
X0144897Y0308034D02*
X0144897Y0309735D01*
X0145464Y0310302D01*
X0147733Y0310302D01*
X0148300Y0309735D01*
X0148300Y0308034D01*
X0144897Y0308034D01*
X0146031Y0311717D02*
X0144897Y0312851D01*
X0148300Y0312851D01*
X0148300Y0311717D02*
X0148300Y0313985D01*
X0138352Y0341500D02*
X0136083Y0341500D01*
X0138352Y0343769D01*
X0138352Y0344336D01*
X0137785Y0344903D01*
X0136650Y0344903D01*
X0136083Y0344336D01*
X0134669Y0344903D02*
X0133534Y0344903D01*
X0134101Y0344903D02*
X0134101Y0342067D01*
X0133534Y0341500D01*
X0132967Y0341500D01*
X0132400Y0342067D01*
X0141600Y0347700D02*
X0141600Y0357700D01*
X0151600Y0357700D01*
X0161600Y0357700D01*
X0171600Y0357700D01*
X0181600Y0357700D01*
X0191600Y0357700D01*
X0191600Y0347700D01*
X0181600Y0347700D01*
X0181600Y0357700D01*
X0181600Y0347700D02*
X0171600Y0347700D01*
X0171600Y0357700D01*
X0171600Y0347700D02*
X0161600Y0347700D01*
X0161600Y0357700D01*
X0161600Y0347700D02*
X0151600Y0347700D01*
X0151600Y0357700D01*
X0151600Y0347700D02*
X0141600Y0347700D01*
X0074966Y0276503D02*
X0074966Y0273100D01*
X0077235Y0273100D01*
X0073552Y0273667D02*
X0072985Y0273100D01*
X0071850Y0273100D01*
X0071283Y0273667D01*
X0071283Y0275936D01*
X0071850Y0276503D01*
X0072985Y0276503D01*
X0073552Y0275936D01*
X0069869Y0275936D02*
X0069301Y0276503D01*
X0068167Y0276503D01*
X0067600Y0275936D01*
X0067600Y0275369D01*
X0068167Y0274801D01*
X0069301Y0274801D01*
X0069869Y0274234D01*
X0069869Y0273667D01*
X0069301Y0273100D01*
X0068167Y0273100D01*
X0067600Y0273667D01*
X0065800Y0271700D02*
X0065800Y0276700D01*
X0063300Y0279200D01*
X0058300Y0279200D01*
X0055800Y0276700D01*
X0055800Y0271700D01*
X0058300Y0269200D01*
X0063300Y0269200D01*
X0065800Y0271700D01*
X0063300Y0261400D02*
X0058300Y0261400D01*
X0055800Y0258900D01*
X0055800Y0253900D01*
X0058300Y0251400D01*
X0063300Y0251400D01*
X0065800Y0253900D01*
X0065800Y0258900D01*
X0063300Y0261400D01*
X0067400Y0258336D02*
X0067400Y0257769D01*
X0067967Y0257201D01*
X0069101Y0257201D01*
X0069669Y0256634D01*
X0069669Y0256067D01*
X0069101Y0255500D01*
X0067967Y0255500D01*
X0067400Y0256067D01*
X0067400Y0258336D02*
X0067967Y0258903D01*
X0069101Y0258903D01*
X0069669Y0258336D01*
X0071083Y0258903D02*
X0072785Y0258903D01*
X0073352Y0258336D01*
X0073352Y0256067D01*
X0072785Y0255500D01*
X0071083Y0255500D01*
X0071083Y0258903D01*
X0074766Y0257769D02*
X0075901Y0258903D01*
X0077035Y0257769D01*
X0077035Y0255500D01*
X0077035Y0257201D02*
X0074766Y0257201D01*
X0074766Y0257769D02*
X0074766Y0255500D01*
X0072200Y0245900D02*
X0058300Y0245900D01*
X0058300Y0212500D01*
X0072200Y0212500D01*
X0077800Y0212500D02*
X0083400Y0212500D01*
X0091700Y0220800D01*
X0091700Y0212500D02*
X0091700Y0245900D01*
X0077800Y0245900D01*
X0056135Y0230036D02*
X0053866Y0227767D01*
X0054433Y0227200D01*
X0055568Y0227200D01*
X0056135Y0227767D01*
X0056135Y0230036D01*
X0055568Y0230603D01*
X0054433Y0230603D01*
X0053866Y0230036D01*
X0053866Y0227767D01*
X0052452Y0227767D02*
X0051885Y0227200D01*
X0050750Y0227200D01*
X0050183Y0227767D01*
X0048769Y0227767D02*
X0048201Y0227200D01*
X0047067Y0227200D01*
X0046500Y0227767D01*
X0046500Y0230036D01*
X0047067Y0230603D01*
X0048201Y0230603D01*
X0048769Y0230036D01*
X0050183Y0230036D02*
X0050750Y0230603D01*
X0051885Y0230603D01*
X0052452Y0230036D01*
X0052452Y0229469D01*
X0051885Y0228901D01*
X0052452Y0228334D01*
X0052452Y0227767D01*
X0051885Y0228901D02*
X0051317Y0228901D01*
X0058300Y0220800D02*
X0066600Y0212500D01*
X0073500Y0205500D02*
X0076500Y0205500D01*
X0075000Y0207000D02*
X0075000Y0204000D01*
X0075135Y0203162D02*
X0074001Y0203162D01*
X0073434Y0202595D01*
X0072019Y0202595D02*
X0071452Y0203162D01*
X0070318Y0203162D01*
X0069750Y0202595D01*
X0069750Y0200326D01*
X0070318Y0199759D01*
X0071452Y0199759D01*
X0072019Y0200326D01*
X0073434Y0199759D02*
X0075702Y0202028D01*
X0075702Y0202595D01*
X0075135Y0203162D01*
X0077117Y0202595D02*
X0077117Y0202028D01*
X0077684Y0201461D01*
X0078818Y0201461D01*
X0079385Y0200893D01*
X0079385Y0200326D01*
X0078818Y0199759D01*
X0077684Y0199759D01*
X0077117Y0200326D01*
X0077117Y0200893D01*
X0077684Y0201461D01*
X0078818Y0201461D02*
X0079385Y0202028D01*
X0079385Y0202595D01*
X0078818Y0203162D01*
X0077684Y0203162D01*
X0077117Y0202595D01*
X0075702Y0199759D02*
X0073434Y0199759D01*
X0067651Y0199753D02*
X0065383Y0199753D01*
X0066517Y0199753D02*
X0066517Y0203156D01*
X0065383Y0202021D01*
X0063968Y0202021D02*
X0063401Y0201454D01*
X0061700Y0201454D01*
X0063401Y0201454D02*
X0063968Y0200887D01*
X0063968Y0200320D01*
X0063401Y0199753D01*
X0061700Y0199753D01*
X0061700Y0203156D01*
X0063401Y0203156D01*
X0063968Y0202589D01*
X0063968Y0202021D01*
X0060285Y0203156D02*
X0058017Y0203156D01*
X0058017Y0199753D01*
X0058017Y0201454D02*
X0059151Y0201454D01*
X0051879Y0207187D02*
X0051879Y0209456D01*
X0051879Y0207187D02*
X0050745Y0206053D01*
X0049610Y0207187D01*
X0049610Y0209456D01*
X0048196Y0209456D02*
X0045927Y0209456D01*
X0045927Y0207755D01*
X0047062Y0208322D01*
X0047629Y0208322D01*
X0048196Y0207755D01*
X0048196Y0206620D01*
X0047629Y0206053D01*
X0046494Y0206053D01*
X0045927Y0206620D01*
X0044513Y0207755D02*
X0042244Y0207755D01*
X0043378Y0208889D02*
X0043378Y0206620D01*
X0034261Y0205161D02*
X0034261Y0200161D01*
X0031761Y0197661D01*
X0016761Y0197661D01*
X0014261Y0200161D01*
X0014261Y0205161D01*
X0016761Y0207661D01*
X0031761Y0207661D01*
X0034261Y0205161D01*
X0031761Y0207661D02*
X0034261Y0210161D01*
X0034261Y0215161D01*
X0031761Y0217661D01*
X0016761Y0217661D01*
X0014261Y0220161D01*
X0014261Y0225161D01*
X0016761Y0227661D01*
X0031761Y0227661D01*
X0034261Y0225161D01*
X0034261Y0220161D01*
X0031761Y0217661D01*
X0031761Y0227661D02*
X0034261Y0230161D01*
X0034261Y0235161D01*
X0031761Y0237661D01*
X0016761Y0237661D01*
X0014261Y0235161D01*
X0014261Y0230161D01*
X0016761Y0227661D01*
X0016761Y0237661D02*
X0014261Y0240161D01*
X0014261Y0245161D01*
X0016761Y0247661D01*
X0031761Y0247661D01*
X0034261Y0245161D01*
X0034261Y0240161D01*
X0031761Y0237661D01*
X0031761Y0247661D02*
X0034261Y0250161D01*
X0034261Y0255161D01*
X0031761Y0257661D01*
X0016761Y0257661D01*
X0014261Y0255161D01*
X0014261Y0250161D01*
X0016761Y0247661D01*
X0016761Y0257661D02*
X0014261Y0260161D01*
X0014261Y0265161D01*
X0016761Y0267661D01*
X0031761Y0267661D01*
X0034261Y0265161D01*
X0034261Y0260161D01*
X0031761Y0257661D01*
X0031761Y0267661D02*
X0034261Y0270161D01*
X0034261Y0275161D01*
X0031761Y0277661D01*
X0016761Y0277661D01*
X0014261Y0275161D01*
X0014261Y0270161D01*
X0016761Y0267661D01*
X0016761Y0277661D02*
X0014261Y0280161D01*
X0014261Y0285161D01*
X0016761Y0287661D01*
X0031761Y0287661D01*
X0034261Y0285161D01*
X0034261Y0280161D01*
X0031761Y0277661D01*
X0031761Y0287661D02*
X0034261Y0290161D01*
X0034261Y0295161D01*
X0031761Y0297661D01*
X0016761Y0297661D01*
X0014261Y0295161D01*
X0014261Y0290161D01*
X0016761Y0287661D01*
X0016761Y0217661D02*
X0014261Y0215161D01*
X0014261Y0210161D01*
X0016761Y0207661D01*
X0016761Y0187661D02*
X0031761Y0187661D01*
X0034261Y0185161D01*
X0034261Y0180161D01*
X0031761Y0177661D01*
X0016761Y0177661D01*
X0014261Y0175161D01*
X0014261Y0170161D01*
X0016761Y0167661D01*
X0031761Y0167661D01*
X0034261Y0165161D01*
X0034261Y0160161D01*
X0031761Y0157661D01*
X0016761Y0157661D01*
X0014261Y0155161D01*
X0014261Y0150161D01*
X0016761Y0147661D01*
X0031761Y0147661D01*
X0034261Y0145161D01*
X0034261Y0140161D01*
X0031761Y0137661D01*
X0016761Y0137661D01*
X0014261Y0135161D01*
X0014261Y0130161D01*
X0016761Y0127661D01*
X0031761Y0127661D01*
X0034261Y0125161D01*
X0034261Y0120161D01*
X0031761Y0117661D01*
X0016761Y0117661D01*
X0014261Y0120161D01*
X0014261Y0125161D01*
X0016761Y0127661D01*
X0016761Y0137661D02*
X0014261Y0140161D01*
X0014261Y0145161D01*
X0016761Y0147661D01*
X0016761Y0157661D02*
X0014261Y0160161D01*
X0014261Y0165161D01*
X0016761Y0167661D01*
X0016761Y0177661D02*
X0014261Y0180161D01*
X0014261Y0185161D01*
X0016761Y0187661D01*
X0031761Y0177661D02*
X0034261Y0175161D01*
X0034261Y0170161D01*
X0031761Y0167661D01*
X0036634Y0171467D02*
X0036634Y0173736D01*
X0035500Y0172601D02*
X0037769Y0172601D01*
X0039183Y0171467D02*
X0039750Y0170900D01*
X0040885Y0170900D01*
X0041452Y0171467D01*
X0041452Y0172034D01*
X0040885Y0172601D01*
X0040317Y0172601D01*
X0040885Y0172601D02*
X0041452Y0173169D01*
X0041452Y0173736D01*
X0040885Y0174303D01*
X0039750Y0174303D01*
X0039183Y0173736D01*
X0042866Y0174303D02*
X0042866Y0172034D01*
X0044001Y0170900D01*
X0045135Y0172034D01*
X0045135Y0174303D01*
X0046549Y0173736D02*
X0047117Y0174303D01*
X0048251Y0174303D01*
X0048818Y0173736D01*
X0048818Y0173169D01*
X0048251Y0172601D01*
X0048818Y0172034D01*
X0048818Y0171467D01*
X0048251Y0170900D01*
X0047117Y0170900D01*
X0046549Y0171467D01*
X0047684Y0172601D02*
X0048251Y0172601D01*
X0048718Y0164103D02*
X0046449Y0164103D01*
X0046449Y0162401D01*
X0047584Y0162969D01*
X0048151Y0162969D01*
X0048718Y0162401D01*
X0048718Y0161267D01*
X0048151Y0160700D01*
X0047017Y0160700D01*
X0046449Y0161267D01*
X0045035Y0161834D02*
X0045035Y0164103D01*
X0045035Y0161834D02*
X0043901Y0160700D01*
X0042766Y0161834D01*
X0042766Y0164103D01*
X0041352Y0163536D02*
X0040785Y0164103D01*
X0039650Y0164103D01*
X0039083Y0163536D01*
X0037669Y0162401D02*
X0035400Y0162401D01*
X0036534Y0161267D02*
X0036534Y0163536D01*
X0039083Y0160700D02*
X0041352Y0162969D01*
X0041352Y0163536D01*
X0041352Y0160700D02*
X0039083Y0160700D01*
X0034261Y0155161D02*
X0034261Y0150161D01*
X0031761Y0147661D01*
X0034261Y0155161D02*
X0031761Y0157661D01*
X0046050Y0155895D02*
X0046050Y0153626D01*
X0046618Y0153059D01*
X0047752Y0153059D01*
X0048319Y0153626D01*
X0049734Y0153626D02*
X0050301Y0153059D01*
X0051435Y0153059D01*
X0052002Y0153626D01*
X0052002Y0154193D01*
X0051435Y0154761D01*
X0050868Y0154761D01*
X0051435Y0154761D02*
X0052002Y0155328D01*
X0052002Y0155895D01*
X0051435Y0156462D01*
X0050301Y0156462D01*
X0049734Y0155895D01*
X0048319Y0155895D02*
X0047752Y0156462D01*
X0046618Y0156462D01*
X0046050Y0155895D01*
X0053417Y0155328D02*
X0054551Y0156462D01*
X0054551Y0153059D01*
X0053417Y0153059D02*
X0055685Y0153059D01*
X0059617Y0153353D02*
X0059617Y0156756D01*
X0061885Y0156756D01*
X0063300Y0156756D02*
X0065001Y0156756D01*
X0065568Y0156189D01*
X0065568Y0155621D01*
X0065001Y0155054D01*
X0063300Y0155054D01*
X0065001Y0155054D02*
X0065568Y0154487D01*
X0065568Y0153920D01*
X0065001Y0153353D01*
X0063300Y0153353D01*
X0063300Y0156756D01*
X0060751Y0155054D02*
X0059617Y0155054D01*
X0058400Y0148100D02*
X0058400Y0114700D01*
X0072300Y0114700D01*
X0077900Y0114700D02*
X0091800Y0114700D01*
X0091800Y0148100D01*
X0077900Y0148100D01*
X0072300Y0148100D02*
X0066700Y0148100D01*
X0058400Y0139800D01*
X0056268Y0143800D02*
X0056268Y0147203D01*
X0054566Y0145501D01*
X0056835Y0145501D01*
X0058400Y0148100D02*
X0066700Y0148100D01*
X0066983Y0153353D02*
X0069251Y0155621D01*
X0069251Y0156189D01*
X0068684Y0156756D01*
X0067550Y0156756D01*
X0066983Y0156189D01*
X0066983Y0153353D02*
X0069251Y0153353D01*
X0073600Y0155100D02*
X0076600Y0155100D01*
X0075100Y0153600D02*
X0075100Y0156600D01*
X0079850Y0159526D02*
X0080418Y0158959D01*
X0081552Y0158959D01*
X0082119Y0159526D01*
X0083534Y0159526D02*
X0084101Y0158959D01*
X0085235Y0158959D01*
X0085802Y0159526D01*
X0085802Y0160093D01*
X0085235Y0160661D01*
X0084668Y0160661D01*
X0085235Y0160661D02*
X0085802Y0161228D01*
X0085802Y0161795D01*
X0085235Y0162362D01*
X0084101Y0162362D01*
X0083534Y0161795D01*
X0082119Y0161795D02*
X0081552Y0162362D01*
X0080418Y0162362D01*
X0079850Y0161795D01*
X0079850Y0159526D01*
X0087217Y0158959D02*
X0089485Y0161228D01*
X0089485Y0161795D01*
X0088918Y0162362D01*
X0087784Y0162362D01*
X0087217Y0161795D01*
X0087217Y0158959D02*
X0089485Y0158959D01*
X0096844Y0159320D02*
X0097411Y0158753D01*
X0098546Y0158753D01*
X0099113Y0159320D01*
X0099113Y0159887D01*
X0098546Y0160455D01*
X0097978Y0160455D01*
X0098546Y0160455D02*
X0099113Y0161022D01*
X0099113Y0161589D01*
X0098546Y0162156D01*
X0097411Y0162156D01*
X0096844Y0161589D01*
X0100527Y0162156D02*
X0100527Y0159887D01*
X0101662Y0158753D01*
X0102796Y0159887D01*
X0102796Y0162156D01*
X0104210Y0161589D02*
X0104778Y0162156D01*
X0105912Y0162156D01*
X0106479Y0161589D01*
X0106479Y0161022D01*
X0105912Y0160455D01*
X0106479Y0159887D01*
X0106479Y0159320D01*
X0105912Y0158753D01*
X0104778Y0158753D01*
X0104210Y0159320D01*
X0105345Y0160455D02*
X0105912Y0160455D01*
X0107894Y0160455D02*
X0110162Y0160455D01*
X0110162Y0161022D02*
X0110162Y0158753D01*
X0107894Y0158753D02*
X0107894Y0161022D01*
X0109028Y0162156D01*
X0110162Y0161022D01*
X0109883Y0151603D02*
X0112152Y0151603D01*
X0112152Y0151036D01*
X0109883Y0148767D01*
X0109883Y0148200D01*
X0108469Y0148200D02*
X0107334Y0149334D01*
X0107901Y0149334D02*
X0106200Y0149334D01*
X0106200Y0148200D02*
X0106200Y0151603D01*
X0107901Y0151603D01*
X0108469Y0151036D01*
X0108469Y0149901D01*
X0107901Y0149334D01*
X0113000Y0138903D02*
X0113000Y0136067D01*
X0113567Y0135500D01*
X0114701Y0135500D01*
X0115269Y0136067D01*
X0115269Y0138903D01*
X0116683Y0138336D02*
X0117250Y0138903D01*
X0118385Y0138903D01*
X0118952Y0138336D01*
X0118952Y0137769D01*
X0118385Y0137201D01*
X0118952Y0136634D01*
X0118952Y0136067D01*
X0118385Y0135500D01*
X0117250Y0135500D01*
X0116683Y0136067D01*
X0117817Y0137201D02*
X0118385Y0137201D01*
X0112700Y0133800D02*
X0112000Y0133800D01*
X0109600Y0133800D01*
X0108900Y0133800D01*
X0109600Y0133800D02*
X0109602Y0133731D01*
X0109608Y0133663D01*
X0109618Y0133595D01*
X0109631Y0133528D01*
X0109649Y0133462D01*
X0109670Y0133397D01*
X0109695Y0133333D01*
X0109723Y0133271D01*
X0109755Y0133210D01*
X0109790Y0133151D01*
X0109829Y0133095D01*
X0109871Y0133040D01*
X0109916Y0132989D01*
X0109964Y0132939D01*
X0110014Y0132893D01*
X0110067Y0132850D01*
X0110123Y0132809D01*
X0110180Y0132772D01*
X0110240Y0132739D01*
X0110302Y0132708D01*
X0110365Y0132682D01*
X0110429Y0132659D01*
X0110495Y0132639D01*
X0110562Y0132624D01*
X0110629Y0132612D01*
X0110697Y0132604D01*
X0110766Y0132600D01*
X0110834Y0132600D01*
X0110903Y0132604D01*
X0110971Y0132612D01*
X0111038Y0132624D01*
X0111105Y0132639D01*
X0111171Y0132659D01*
X0111235Y0132682D01*
X0111298Y0132708D01*
X0111360Y0132739D01*
X0111420Y0132772D01*
X0111477Y0132809D01*
X0111533Y0132850D01*
X0111586Y0132893D01*
X0111636Y0132939D01*
X0111684Y0132989D01*
X0111729Y0133040D01*
X0111771Y0133095D01*
X0111810Y0133151D01*
X0111845Y0133210D01*
X0111877Y0133271D01*
X0111905Y0133333D01*
X0111930Y0133397D01*
X0111951Y0133462D01*
X0111969Y0133528D01*
X0111982Y0133595D01*
X0111992Y0133663D01*
X0111998Y0133731D01*
X0112000Y0133800D01*
X0114100Y0129200D02*
X0114100Y0126600D01*
X0112700Y0122000D02*
X0108900Y0122000D01*
X0102335Y0121634D02*
X0102335Y0121067D01*
X0101768Y0120500D01*
X0100633Y0120500D01*
X0100066Y0121067D01*
X0098652Y0121067D02*
X0098085Y0120500D01*
X0096950Y0120500D01*
X0096383Y0121067D01*
X0094969Y0121067D02*
X0094401Y0120500D01*
X0093267Y0120500D01*
X0092700Y0121067D01*
X0092700Y0123336D01*
X0093267Y0123903D01*
X0094401Y0123903D01*
X0094969Y0123336D01*
X0096383Y0123336D02*
X0096950Y0123903D01*
X0098085Y0123903D01*
X0098652Y0123336D01*
X0098652Y0122769D01*
X0098085Y0122201D01*
X0098652Y0121634D01*
X0098652Y0121067D01*
X0098085Y0122201D02*
X0097517Y0122201D01*
X0100066Y0123336D02*
X0100633Y0123903D01*
X0101768Y0123903D01*
X0102335Y0123336D01*
X0102335Y0122769D01*
X0101768Y0122201D01*
X0102335Y0121634D01*
X0101768Y0122201D02*
X0101201Y0122201D01*
X0104700Y0134167D02*
X0106969Y0136436D01*
X0106969Y0135301D02*
X0104700Y0135301D01*
X0104700Y0136436D02*
X0106969Y0134167D01*
X0105834Y0134167D02*
X0105834Y0136436D01*
X0091800Y0139800D02*
X0083500Y0148100D01*
X0092844Y0168553D02*
X0095113Y0170822D01*
X0095113Y0171389D01*
X0094546Y0171956D01*
X0093411Y0171956D01*
X0092844Y0171389D01*
X0092844Y0168553D02*
X0095113Y0168553D01*
X0096527Y0169687D02*
X0097662Y0168553D01*
X0098796Y0169687D01*
X0098796Y0171956D01*
X0100210Y0171956D02*
X0100210Y0170255D01*
X0101345Y0170822D01*
X0101912Y0170822D01*
X0102479Y0170255D01*
X0102479Y0169120D01*
X0101912Y0168553D01*
X0100778Y0168553D01*
X0100210Y0169120D01*
X0100210Y0171956D02*
X0102479Y0171956D01*
X0096527Y0171956D02*
X0096527Y0169687D01*
X0094718Y0192459D02*
X0095285Y0193026D01*
X0095285Y0195295D01*
X0094718Y0195862D01*
X0093584Y0195862D01*
X0093017Y0195295D01*
X0093017Y0194728D01*
X0093584Y0194161D01*
X0095285Y0194161D01*
X0094718Y0192459D02*
X0093584Y0192459D01*
X0093017Y0193026D01*
X0091602Y0192459D02*
X0089334Y0192459D01*
X0091602Y0194728D01*
X0091602Y0195295D01*
X0091035Y0195862D01*
X0089901Y0195862D01*
X0089334Y0195295D01*
X0087919Y0195295D02*
X0087352Y0195862D01*
X0086218Y0195862D01*
X0085650Y0195295D01*
X0085650Y0193026D01*
X0086218Y0192459D01*
X0087352Y0192459D01*
X0087919Y0193026D01*
X0091700Y0212500D02*
X0083400Y0212500D01*
X0112200Y0211836D02*
X0112200Y0209567D01*
X0112767Y0209000D01*
X0113901Y0209000D01*
X0114469Y0209567D01*
X0115883Y0209000D02*
X0118152Y0209000D01*
X0117017Y0209000D02*
X0117017Y0212403D01*
X0115883Y0211269D01*
X0114469Y0211836D02*
X0113901Y0212403D01*
X0112767Y0212403D01*
X0112200Y0211836D01*
X0112700Y0206500D02*
X0112700Y0188700D01*
X0118800Y0188700D01*
X0124400Y0188700D02*
X0130500Y0188700D01*
X0130500Y0206500D01*
X0124400Y0206500D01*
X0126000Y0206500D02*
X0130500Y0202000D01*
X0135150Y0201926D02*
X0135150Y0204195D01*
X0135718Y0204762D01*
X0136852Y0204762D01*
X0137419Y0204195D01*
X0138834Y0204195D02*
X0139401Y0204762D01*
X0140535Y0204762D01*
X0141102Y0204195D01*
X0141102Y0203628D01*
X0138834Y0201359D01*
X0141102Y0201359D01*
X0137419Y0201926D02*
X0136852Y0201359D01*
X0135718Y0201359D01*
X0135150Y0201926D01*
X0145420Y0210647D02*
X0145420Y0213483D01*
X0147688Y0213483D02*
X0147688Y0210647D01*
X0147121Y0210080D01*
X0145987Y0210080D01*
X0145420Y0210647D01*
X0149103Y0210080D02*
X0151371Y0212349D01*
X0151371Y0212916D01*
X0150804Y0213483D01*
X0149670Y0213483D01*
X0149103Y0212916D01*
X0149103Y0210080D02*
X0151371Y0210080D01*
X0154576Y0205968D02*
X0178985Y0205968D01*
X0180068Y0204885D01*
X0180068Y0180476D01*
X0178985Y0179393D01*
X0154576Y0179393D01*
X0153493Y0180476D01*
X0153493Y0204885D01*
X0154576Y0205968D01*
X0169250Y0220426D02*
X0169818Y0219859D01*
X0170952Y0219859D01*
X0171519Y0220426D01*
X0172934Y0220426D02*
X0173501Y0219859D01*
X0174635Y0219859D01*
X0175202Y0220426D01*
X0175202Y0220993D01*
X0174635Y0221561D01*
X0172934Y0221561D01*
X0172934Y0220426D01*
X0172934Y0221561D02*
X0174068Y0222695D01*
X0175202Y0223262D01*
X0171519Y0222695D02*
X0170952Y0223262D01*
X0169818Y0223262D01*
X0169250Y0222695D01*
X0169250Y0220426D01*
X0182100Y0210436D02*
X0182100Y0208167D01*
X0182667Y0207600D01*
X0183801Y0207600D01*
X0184369Y0208167D01*
X0185783Y0208167D02*
X0186350Y0207600D01*
X0187485Y0207600D01*
X0188052Y0208167D01*
X0188052Y0208734D01*
X0187485Y0209301D01*
X0186350Y0209301D01*
X0185783Y0209869D01*
X0185783Y0210436D01*
X0186350Y0211003D01*
X0187485Y0211003D01*
X0188052Y0210436D01*
X0189466Y0209301D02*
X0191735Y0209301D01*
X0191168Y0207600D02*
X0191168Y0211003D01*
X0189466Y0209301D01*
X0193149Y0208167D02*
X0193717Y0207600D01*
X0194851Y0207600D01*
X0195418Y0208167D01*
X0195418Y0208734D01*
X0194851Y0209301D01*
X0194284Y0209301D01*
X0194851Y0209301D02*
X0195418Y0209869D01*
X0195418Y0210436D01*
X0194851Y0211003D01*
X0193717Y0211003D01*
X0193149Y0210436D01*
X0196833Y0210436D02*
X0196833Y0209869D01*
X0197400Y0209301D01*
X0198534Y0209301D01*
X0199101Y0208734D01*
X0199101Y0208167D01*
X0198534Y0207600D01*
X0197400Y0207600D01*
X0196833Y0208167D01*
X0196833Y0208734D01*
X0197400Y0209301D01*
X0198534Y0209301D02*
X0199101Y0209869D01*
X0199101Y0210436D01*
X0198534Y0211003D01*
X0197400Y0211003D01*
X0196833Y0210436D01*
X0200516Y0209301D02*
X0202784Y0209301D01*
X0202217Y0207600D02*
X0202217Y0211003D01*
X0200516Y0209301D01*
X0198735Y0201662D02*
X0197034Y0199961D01*
X0199302Y0199961D01*
X0198735Y0198259D02*
X0198735Y0201662D01*
X0195619Y0201095D02*
X0195052Y0201662D01*
X0193918Y0201662D01*
X0193350Y0201095D01*
X0193350Y0198826D01*
X0193918Y0198259D01*
X0195052Y0198259D01*
X0195619Y0198826D01*
X0184369Y0210436D02*
X0183801Y0211003D01*
X0182667Y0211003D01*
X0182100Y0210436D01*
X0211900Y0201600D02*
X0211900Y0183800D01*
X0218000Y0183800D01*
X0216400Y0183800D02*
X0211900Y0188300D01*
X0223600Y0183800D02*
X0225200Y0183800D01*
X0229700Y0188300D01*
X0229700Y0183800D02*
X0225200Y0183800D01*
X0229700Y0183800D02*
X0229700Y0201600D01*
X0223600Y0201600D01*
X0218000Y0201600D02*
X0211900Y0201600D01*
X0226500Y0214000D02*
X0224000Y0216500D01*
X0224000Y0221500D01*
X0226500Y0224000D01*
X0231500Y0224000D01*
X0234000Y0221500D01*
X0234000Y0216500D01*
X0231500Y0214000D01*
X0226500Y0214000D01*
X0236362Y0208369D02*
X0239362Y0208369D01*
X0240670Y0209944D02*
X0240670Y0205613D01*
X0244213Y0202070D01*
X0261930Y0202070D01*
X0261930Y0209900D01*
X0261930Y0215500D02*
X0261930Y0223330D01*
X0244213Y0223330D01*
X0240670Y0219787D01*
X0240670Y0215456D01*
X0237862Y0209869D02*
X0237862Y0206869D01*
X0237285Y0199703D02*
X0237852Y0199136D01*
X0237852Y0198569D01*
X0237285Y0198001D01*
X0237852Y0197434D01*
X0237852Y0196867D01*
X0237285Y0196300D01*
X0236150Y0196300D01*
X0235583Y0196867D01*
X0234169Y0196867D02*
X0233601Y0196300D01*
X0232467Y0196300D01*
X0231900Y0196867D01*
X0231900Y0199136D01*
X0232467Y0199703D01*
X0233601Y0199703D01*
X0234169Y0199136D01*
X0235583Y0199136D02*
X0236150Y0199703D01*
X0237285Y0199703D01*
X0237285Y0198001D02*
X0236717Y0198001D01*
X0247200Y0187236D02*
X0247200Y0184967D01*
X0247767Y0184400D01*
X0248901Y0184400D01*
X0249469Y0184967D01*
X0250883Y0184400D02*
X0253152Y0184400D01*
X0252017Y0184400D02*
X0252017Y0187803D01*
X0250883Y0186669D01*
X0249469Y0187236D02*
X0248901Y0187803D01*
X0247767Y0187803D01*
X0247200Y0187236D01*
X0244213Y0183330D02*
X0240670Y0179787D01*
X0240670Y0175456D01*
X0240670Y0169944D02*
X0240670Y0165613D01*
X0244213Y0162070D01*
X0261930Y0162070D01*
X0261930Y0169900D01*
X0261930Y0175500D02*
X0261930Y0183330D01*
X0244213Y0183330D01*
X0254566Y0184400D02*
X0254566Y0184967D01*
X0256835Y0187236D01*
X0256835Y0187803D01*
X0254566Y0187803D01*
X0262400Y0187601D02*
X0263534Y0188169D01*
X0264101Y0188169D01*
X0264669Y0187601D01*
X0264669Y0186467D01*
X0264101Y0185900D01*
X0262967Y0185900D01*
X0262400Y0186467D01*
X0262400Y0187601D02*
X0262400Y0189303D01*
X0264669Y0189303D01*
X0266200Y0190200D02*
X0268700Y0192700D01*
X0273700Y0192700D01*
X0276200Y0190200D01*
X0276200Y0185200D01*
X0273700Y0182700D01*
X0268700Y0182700D01*
X0266200Y0185200D01*
X0266200Y0190200D01*
X0268700Y0192700D02*
X0266200Y0195200D01*
X0266200Y0200200D01*
X0268700Y0202700D01*
X0273700Y0202700D01*
X0276200Y0200200D01*
X0276200Y0195200D01*
X0273700Y0192700D01*
X0268700Y0192700D01*
X0264669Y0197401D02*
X0262400Y0197401D01*
X0264101Y0199103D01*
X0264101Y0195700D01*
X0256768Y0197700D02*
X0256768Y0201103D01*
X0255066Y0199401D01*
X0257335Y0199401D01*
X0253652Y0197700D02*
X0251383Y0197700D01*
X0252517Y0197700D02*
X0252517Y0201103D01*
X0251383Y0199969D01*
X0249969Y0200536D02*
X0249401Y0201103D01*
X0248267Y0201103D01*
X0247700Y0200536D01*
X0247700Y0198267D01*
X0248267Y0197700D01*
X0249401Y0197700D01*
X0249969Y0198267D01*
X0272100Y0211500D02*
X0272100Y0214903D01*
X0273801Y0214903D01*
X0274369Y0214336D01*
X0274369Y0213201D01*
X0273801Y0212634D01*
X0272100Y0212634D01*
X0273234Y0212634D02*
X0274369Y0211500D01*
X0275783Y0211500D02*
X0278052Y0211500D01*
X0276917Y0211500D02*
X0276917Y0214903D01*
X0275783Y0213769D01*
X0275783Y0216900D02*
X0278052Y0216900D01*
X0276917Y0216900D02*
X0276917Y0220303D01*
X0275783Y0219169D01*
X0274369Y0219736D02*
X0274369Y0218601D01*
X0273801Y0218034D01*
X0272100Y0218034D01*
X0272100Y0216900D02*
X0272100Y0220303D01*
X0273801Y0220303D01*
X0274369Y0219736D01*
X0273234Y0218034D02*
X0274369Y0216900D01*
X0279466Y0217467D02*
X0280033Y0216900D01*
X0281168Y0216900D01*
X0281735Y0217467D01*
X0281735Y0219736D01*
X0281168Y0220303D01*
X0280033Y0220303D01*
X0279466Y0219736D01*
X0279466Y0219169D01*
X0280033Y0218601D01*
X0281735Y0218601D01*
X0281735Y0214903D02*
X0279466Y0214903D01*
X0281735Y0214903D02*
X0281735Y0214336D01*
X0279466Y0212067D01*
X0279466Y0211500D01*
X0279767Y0198403D02*
X0279200Y0197836D01*
X0279200Y0195567D01*
X0279767Y0195000D01*
X0280901Y0195000D01*
X0281469Y0195567D01*
X0282883Y0195000D02*
X0285152Y0195000D01*
X0284017Y0195000D02*
X0284017Y0198403D01*
X0282883Y0197269D01*
X0281469Y0197836D02*
X0280901Y0198403D01*
X0279767Y0198403D01*
X0286566Y0196701D02*
X0286566Y0195567D01*
X0287133Y0195000D01*
X0288268Y0195000D01*
X0288835Y0195567D01*
X0288835Y0196134D01*
X0288268Y0196701D01*
X0286566Y0196701D01*
X0287701Y0197836D01*
X0288835Y0198403D01*
X0288101Y0190503D02*
X0288101Y0187100D01*
X0289235Y0187100D02*
X0286966Y0187100D01*
X0285552Y0187100D02*
X0283283Y0187100D01*
X0285552Y0189369D01*
X0285552Y0189936D01*
X0284985Y0190503D01*
X0283850Y0190503D01*
X0283283Y0189936D01*
X0281869Y0189936D02*
X0281301Y0190503D01*
X0280167Y0190503D01*
X0279600Y0189936D01*
X0279600Y0187667D01*
X0280167Y0187100D01*
X0281301Y0187100D01*
X0281869Y0187667D01*
X0286966Y0189369D02*
X0288101Y0190503D01*
X0281168Y0173803D02*
X0281735Y0173236D01*
X0279466Y0170967D01*
X0280033Y0170400D01*
X0281168Y0170400D01*
X0281735Y0170967D01*
X0281735Y0173236D01*
X0281168Y0173803D02*
X0280033Y0173803D01*
X0279466Y0173236D01*
X0279466Y0170967D01*
X0278052Y0170400D02*
X0275783Y0170400D01*
X0278052Y0172669D01*
X0278052Y0173236D01*
X0277485Y0173803D01*
X0276350Y0173803D01*
X0275783Y0173236D01*
X0274369Y0173236D02*
X0273801Y0173803D01*
X0272100Y0173803D01*
X0272100Y0170400D01*
X0272100Y0171534D02*
X0273801Y0171534D01*
X0274369Y0172101D01*
X0274369Y0173236D01*
X0273234Y0171534D02*
X0274369Y0170400D01*
X0273801Y0168803D02*
X0274369Y0168236D01*
X0274369Y0167101D01*
X0273801Y0166534D01*
X0272100Y0166534D01*
X0272100Y0165400D02*
X0272100Y0168803D01*
X0273801Y0168803D01*
X0275783Y0168236D02*
X0276350Y0168803D01*
X0277485Y0168803D01*
X0278052Y0168236D01*
X0278052Y0167669D01*
X0275783Y0165400D01*
X0278052Y0165400D01*
X0279466Y0165400D02*
X0281735Y0167669D01*
X0281735Y0168236D01*
X0281168Y0168803D01*
X0280033Y0168803D01*
X0279466Y0168236D01*
X0279466Y0165400D02*
X0281735Y0165400D01*
X0281168Y0156803D02*
X0281735Y0156236D01*
X0281735Y0155669D01*
X0281168Y0155101D01*
X0281735Y0154534D01*
X0281735Y0153967D01*
X0281168Y0153400D01*
X0280033Y0153400D01*
X0279466Y0153967D01*
X0278052Y0153400D02*
X0275783Y0153400D01*
X0278052Y0155669D01*
X0278052Y0156236D01*
X0277485Y0156803D01*
X0276350Y0156803D01*
X0275783Y0156236D01*
X0274369Y0156236D02*
X0274369Y0155101D01*
X0273801Y0154534D01*
X0272100Y0154534D01*
X0272100Y0153400D02*
X0272100Y0156803D01*
X0273801Y0156803D01*
X0274369Y0156236D01*
X0273234Y0154534D02*
X0274369Y0153400D01*
X0273801Y0152003D02*
X0274369Y0151436D01*
X0274369Y0150301D01*
X0273801Y0149734D01*
X0272100Y0149734D01*
X0272100Y0148600D02*
X0272100Y0152003D01*
X0273801Y0152003D01*
X0275783Y0151436D02*
X0276350Y0152003D01*
X0277485Y0152003D01*
X0278052Y0151436D01*
X0278052Y0150869D01*
X0275783Y0148600D01*
X0278052Y0148600D01*
X0279466Y0148600D02*
X0281735Y0148600D01*
X0280601Y0148600D02*
X0280601Y0152003D01*
X0279466Y0150869D01*
X0280601Y0155101D02*
X0281168Y0155101D01*
X0281168Y0156803D02*
X0280033Y0156803D01*
X0279466Y0156236D01*
X0273234Y0149734D02*
X0274369Y0148600D01*
X0273700Y0139800D02*
X0268700Y0139800D01*
X0266200Y0137300D01*
X0266200Y0132300D01*
X0268700Y0129800D01*
X0266200Y0127300D01*
X0266200Y0122300D01*
X0268700Y0119800D01*
X0273700Y0119800D01*
X0276200Y0122300D01*
X0276200Y0127300D01*
X0273700Y0129800D01*
X0268700Y0129800D01*
X0273700Y0129800D01*
X0276200Y0132300D01*
X0276200Y0137300D01*
X0273700Y0139800D01*
X0279700Y0134836D02*
X0279700Y0132567D01*
X0280267Y0132000D01*
X0281401Y0132000D01*
X0281969Y0132567D01*
X0283383Y0132000D02*
X0285652Y0134269D01*
X0285652Y0134836D01*
X0285085Y0135403D01*
X0283950Y0135403D01*
X0283383Y0134836D01*
X0281969Y0134836D02*
X0281401Y0135403D01*
X0280267Y0135403D01*
X0279700Y0134836D01*
X0283383Y0132000D02*
X0285652Y0132000D01*
X0287066Y0132000D02*
X0289335Y0134269D01*
X0289335Y0134836D01*
X0288768Y0135403D01*
X0287633Y0135403D01*
X0287066Y0134836D01*
X0287066Y0132000D02*
X0289335Y0132000D01*
X0289335Y0127403D02*
X0287066Y0127403D01*
X0287066Y0125701D01*
X0288201Y0126269D01*
X0288768Y0126269D01*
X0289335Y0125701D01*
X0289335Y0124567D01*
X0288768Y0124000D01*
X0287633Y0124000D01*
X0287066Y0124567D01*
X0285652Y0124000D02*
X0283383Y0124000D01*
X0285652Y0126269D01*
X0285652Y0126836D01*
X0285085Y0127403D01*
X0283950Y0127403D01*
X0283383Y0126836D01*
X0281969Y0126836D02*
X0281401Y0127403D01*
X0280267Y0127403D01*
X0279700Y0126836D01*
X0279700Y0124567D01*
X0280267Y0124000D01*
X0281401Y0124000D01*
X0281969Y0124567D01*
X0281168Y0110803D02*
X0279466Y0109101D01*
X0281735Y0109101D01*
X0281168Y0107400D02*
X0281168Y0110803D01*
X0278052Y0110236D02*
X0277485Y0110803D01*
X0276350Y0110803D01*
X0275783Y0110236D01*
X0274369Y0110236D02*
X0274369Y0109101D01*
X0273801Y0108534D01*
X0272100Y0108534D01*
X0272100Y0107400D02*
X0272100Y0110803D01*
X0273801Y0110803D01*
X0274369Y0110236D01*
X0273234Y0108534D02*
X0274369Y0107400D01*
X0275783Y0107400D02*
X0278052Y0109669D01*
X0278052Y0110236D01*
X0278052Y0107400D02*
X0275783Y0107400D01*
X0276350Y0105803D02*
X0275783Y0105236D01*
X0276350Y0105803D02*
X0277485Y0105803D01*
X0278052Y0105236D01*
X0278052Y0104669D01*
X0275783Y0102400D01*
X0278052Y0102400D01*
X0279466Y0102967D02*
X0279466Y0104101D01*
X0281168Y0104101D01*
X0281735Y0103534D01*
X0281735Y0102967D01*
X0281168Y0102400D01*
X0280033Y0102400D01*
X0279466Y0102967D01*
X0279466Y0104101D02*
X0280601Y0105236D01*
X0281735Y0105803D01*
X0274369Y0105236D02*
X0274369Y0104101D01*
X0273801Y0103534D01*
X0272100Y0103534D01*
X0272100Y0102400D02*
X0272100Y0105803D01*
X0273801Y0105803D01*
X0274369Y0105236D01*
X0273234Y0103534D02*
X0274369Y0102400D01*
X0273801Y0093803D02*
X0274369Y0093236D01*
X0274369Y0092101D01*
X0273801Y0091534D01*
X0272100Y0091534D01*
X0272100Y0090400D02*
X0272100Y0093803D01*
X0273801Y0093803D01*
X0275783Y0093236D02*
X0276350Y0093803D01*
X0277485Y0093803D01*
X0278052Y0093236D01*
X0278052Y0092669D01*
X0275783Y0090400D01*
X0278052Y0090400D01*
X0279466Y0090400D02*
X0279466Y0090967D01*
X0281735Y0093236D01*
X0281735Y0093803D01*
X0279466Y0093803D01*
X0279466Y0089003D02*
X0279466Y0087301D01*
X0280601Y0087869D01*
X0281168Y0087869D01*
X0281735Y0087301D01*
X0281735Y0086167D01*
X0281168Y0085600D01*
X0280033Y0085600D01*
X0279466Y0086167D01*
X0278052Y0085600D02*
X0275783Y0085600D01*
X0278052Y0087869D01*
X0278052Y0088436D01*
X0277485Y0089003D01*
X0276350Y0089003D01*
X0275783Y0088436D01*
X0274369Y0088436D02*
X0273801Y0089003D01*
X0272100Y0089003D01*
X0272100Y0085600D01*
X0272100Y0086734D02*
X0273801Y0086734D01*
X0274369Y0087301D01*
X0274369Y0088436D01*
X0274369Y0090400D02*
X0273234Y0091534D01*
X0273234Y0086734D02*
X0274369Y0085600D01*
X0279466Y0089003D02*
X0281735Y0089003D01*
X0273700Y0076100D02*
X0268700Y0076100D01*
X0266200Y0073600D01*
X0266200Y0068600D01*
X0268700Y0066100D01*
X0273700Y0066100D01*
X0276200Y0068600D01*
X0276200Y0073600D01*
X0273700Y0076100D01*
X0279700Y0071736D02*
X0279700Y0069467D01*
X0280267Y0068900D01*
X0281401Y0068900D01*
X0281969Y0069467D01*
X0283383Y0068900D02*
X0285652Y0071169D01*
X0285652Y0071736D01*
X0285085Y0072303D01*
X0283950Y0072303D01*
X0283383Y0071736D01*
X0281969Y0071736D02*
X0281401Y0072303D01*
X0280267Y0072303D01*
X0279700Y0071736D01*
X0283383Y0068900D02*
X0285652Y0068900D01*
X0287066Y0069467D02*
X0287633Y0068900D01*
X0288768Y0068900D01*
X0289335Y0069467D01*
X0289335Y0070034D01*
X0288768Y0070601D01*
X0287066Y0070601D01*
X0287066Y0069467D01*
X0287066Y0070601D02*
X0288201Y0071736D01*
X0289335Y0072303D01*
X0272779Y0055500D02*
X0272781Y0055640D01*
X0272787Y0055780D01*
X0272797Y0055919D01*
X0272811Y0056058D01*
X0272829Y0056197D01*
X0272850Y0056335D01*
X0272876Y0056473D01*
X0272906Y0056610D01*
X0272939Y0056745D01*
X0272977Y0056880D01*
X0273018Y0057014D01*
X0273063Y0057147D01*
X0273111Y0057278D01*
X0273164Y0057407D01*
X0273220Y0057536D01*
X0273279Y0057662D01*
X0273343Y0057787D01*
X0273409Y0057910D01*
X0273480Y0058031D01*
X0273553Y0058150D01*
X0273630Y0058267D01*
X0273711Y0058381D01*
X0273794Y0058493D01*
X0273881Y0058603D01*
X0273971Y0058711D01*
X0274063Y0058815D01*
X0274159Y0058917D01*
X0274258Y0059017D01*
X0274359Y0059113D01*
X0274463Y0059207D01*
X0274570Y0059297D01*
X0274679Y0059384D01*
X0274791Y0059469D01*
X0274905Y0059550D01*
X0275021Y0059628D01*
X0275139Y0059702D01*
X0275260Y0059773D01*
X0275382Y0059841D01*
X0275507Y0059905D01*
X0275633Y0059966D01*
X0275760Y0060023D01*
X0275890Y0060076D01*
X0276021Y0060126D01*
X0276153Y0060171D01*
X0276286Y0060214D01*
X0276421Y0060252D01*
X0276556Y0060286D01*
X0276693Y0060317D01*
X0276830Y0060344D01*
X0276968Y0060366D01*
X0277107Y0060385D01*
X0277246Y0060400D01*
X0277385Y0060411D01*
X0277525Y0060418D01*
X0277665Y0060421D01*
X0277805Y0060420D01*
X0277945Y0060415D01*
X0278084Y0060406D01*
X0278224Y0060393D01*
X0278363Y0060376D01*
X0278501Y0060355D01*
X0278639Y0060331D01*
X0278776Y0060302D01*
X0278912Y0060270D01*
X0279047Y0060233D01*
X0279181Y0060193D01*
X0279314Y0060149D01*
X0279445Y0060101D01*
X0279575Y0060050D01*
X0279704Y0059995D01*
X0279831Y0059936D01*
X0279956Y0059873D01*
X0280079Y0059808D01*
X0280201Y0059738D01*
X0280320Y0059665D01*
X0280438Y0059589D01*
X0280553Y0059510D01*
X0280666Y0059427D01*
X0280776Y0059341D01*
X0280884Y0059252D01*
X0280989Y0059160D01*
X0281092Y0059065D01*
X0281192Y0058967D01*
X0281289Y0058867D01*
X0281383Y0058763D01*
X0281475Y0058657D01*
X0281563Y0058549D01*
X0281648Y0058438D01*
X0281730Y0058324D01*
X0281809Y0058208D01*
X0281884Y0058091D01*
X0281956Y0057971D01*
X0282024Y0057849D01*
X0282089Y0057725D01*
X0282151Y0057599D01*
X0282209Y0057472D01*
X0282263Y0057343D01*
X0282314Y0057212D01*
X0282360Y0057080D01*
X0282403Y0056947D01*
X0282443Y0056813D01*
X0282478Y0056678D01*
X0282510Y0056541D01*
X0282537Y0056404D01*
X0282561Y0056266D01*
X0282581Y0056128D01*
X0282597Y0055989D01*
X0282609Y0055849D01*
X0282617Y0055710D01*
X0282621Y0055570D01*
X0282621Y0055430D01*
X0282617Y0055290D01*
X0282609Y0055151D01*
X0282597Y0055011D01*
X0282581Y0054872D01*
X0282561Y0054734D01*
X0282537Y0054596D01*
X0282510Y0054459D01*
X0282478Y0054322D01*
X0282443Y0054187D01*
X0282403Y0054053D01*
X0282360Y0053920D01*
X0282314Y0053788D01*
X0282263Y0053657D01*
X0282209Y0053528D01*
X0282151Y0053401D01*
X0282089Y0053275D01*
X0282024Y0053151D01*
X0281956Y0053029D01*
X0281884Y0052909D01*
X0281809Y0052792D01*
X0281730Y0052676D01*
X0281648Y0052562D01*
X0281563Y0052451D01*
X0281475Y0052343D01*
X0281383Y0052237D01*
X0281289Y0052133D01*
X0281192Y0052033D01*
X0281092Y0051935D01*
X0280989Y0051840D01*
X0280884Y0051748D01*
X0280776Y0051659D01*
X0280666Y0051573D01*
X0280553Y0051490D01*
X0280438Y0051411D01*
X0280320Y0051335D01*
X0280201Y0051262D01*
X0280079Y0051192D01*
X0279956Y0051127D01*
X0279831Y0051064D01*
X0279704Y0051005D01*
X0279575Y0050950D01*
X0279445Y0050899D01*
X0279314Y0050851D01*
X0279181Y0050807D01*
X0279047Y0050767D01*
X0278912Y0050730D01*
X0278776Y0050698D01*
X0278639Y0050669D01*
X0278501Y0050645D01*
X0278363Y0050624D01*
X0278224Y0050607D01*
X0278084Y0050594D01*
X0277945Y0050585D01*
X0277805Y0050580D01*
X0277665Y0050579D01*
X0277525Y0050582D01*
X0277385Y0050589D01*
X0277246Y0050600D01*
X0277107Y0050615D01*
X0276968Y0050634D01*
X0276830Y0050656D01*
X0276693Y0050683D01*
X0276556Y0050714D01*
X0276421Y0050748D01*
X0276286Y0050786D01*
X0276153Y0050829D01*
X0276021Y0050874D01*
X0275890Y0050924D01*
X0275760Y0050977D01*
X0275633Y0051034D01*
X0275507Y0051095D01*
X0275382Y0051159D01*
X0275260Y0051227D01*
X0275139Y0051298D01*
X0275021Y0051372D01*
X0274905Y0051450D01*
X0274791Y0051531D01*
X0274679Y0051616D01*
X0274570Y0051703D01*
X0274463Y0051793D01*
X0274359Y0051887D01*
X0274258Y0051983D01*
X0274159Y0052083D01*
X0274063Y0052185D01*
X0273971Y0052289D01*
X0273881Y0052397D01*
X0273794Y0052507D01*
X0273711Y0052619D01*
X0273630Y0052733D01*
X0273553Y0052850D01*
X0273480Y0052969D01*
X0273409Y0053090D01*
X0273343Y0053213D01*
X0273279Y0053338D01*
X0273220Y0053464D01*
X0273164Y0053593D01*
X0273111Y0053722D01*
X0273063Y0053853D01*
X0273018Y0053986D01*
X0272977Y0054120D01*
X0272939Y0054255D01*
X0272906Y0054390D01*
X0272876Y0054527D01*
X0272850Y0054665D01*
X0272829Y0054803D01*
X0272811Y0054942D01*
X0272797Y0055081D01*
X0272787Y0055220D01*
X0272781Y0055360D01*
X0272779Y0055500D01*
X0269310Y0056136D02*
X0269310Y0053867D01*
X0268743Y0053300D01*
X0267042Y0053300D01*
X0267042Y0056703D01*
X0268743Y0056703D01*
X0269310Y0056136D01*
X0265627Y0056703D02*
X0265627Y0053300D01*
X0263358Y0056703D01*
X0263358Y0053300D01*
X0261944Y0053867D02*
X0261944Y0055001D01*
X0260810Y0055001D01*
X0261944Y0053867D02*
X0261377Y0053300D01*
X0260242Y0053300D01*
X0259675Y0053867D01*
X0259675Y0056136D01*
X0260242Y0056703D01*
X0261377Y0056703D01*
X0261944Y0056136D01*
X0246479Y0055500D02*
X0246481Y0055640D01*
X0246487Y0055780D01*
X0246497Y0055919D01*
X0246511Y0056058D01*
X0246529Y0056197D01*
X0246550Y0056335D01*
X0246576Y0056473D01*
X0246606Y0056610D01*
X0246639Y0056745D01*
X0246677Y0056880D01*
X0246718Y0057014D01*
X0246763Y0057147D01*
X0246811Y0057278D01*
X0246864Y0057407D01*
X0246920Y0057536D01*
X0246979Y0057662D01*
X0247043Y0057787D01*
X0247109Y0057910D01*
X0247180Y0058031D01*
X0247253Y0058150D01*
X0247330Y0058267D01*
X0247411Y0058381D01*
X0247494Y0058493D01*
X0247581Y0058603D01*
X0247671Y0058711D01*
X0247763Y0058815D01*
X0247859Y0058917D01*
X0247958Y0059017D01*
X0248059Y0059113D01*
X0248163Y0059207D01*
X0248270Y0059297D01*
X0248379Y0059384D01*
X0248491Y0059469D01*
X0248605Y0059550D01*
X0248721Y0059628D01*
X0248839Y0059702D01*
X0248960Y0059773D01*
X0249082Y0059841D01*
X0249207Y0059905D01*
X0249333Y0059966D01*
X0249460Y0060023D01*
X0249590Y0060076D01*
X0249721Y0060126D01*
X0249853Y0060171D01*
X0249986Y0060214D01*
X0250121Y0060252D01*
X0250256Y0060286D01*
X0250393Y0060317D01*
X0250530Y0060344D01*
X0250668Y0060366D01*
X0250807Y0060385D01*
X0250946Y0060400D01*
X0251085Y0060411D01*
X0251225Y0060418D01*
X0251365Y0060421D01*
X0251505Y0060420D01*
X0251645Y0060415D01*
X0251784Y0060406D01*
X0251924Y0060393D01*
X0252063Y0060376D01*
X0252201Y0060355D01*
X0252339Y0060331D01*
X0252476Y0060302D01*
X0252612Y0060270D01*
X0252747Y0060233D01*
X0252881Y0060193D01*
X0253014Y0060149D01*
X0253145Y0060101D01*
X0253275Y0060050D01*
X0253404Y0059995D01*
X0253531Y0059936D01*
X0253656Y0059873D01*
X0253779Y0059808D01*
X0253901Y0059738D01*
X0254020Y0059665D01*
X0254138Y0059589D01*
X0254253Y0059510D01*
X0254366Y0059427D01*
X0254476Y0059341D01*
X0254584Y0059252D01*
X0254689Y0059160D01*
X0254792Y0059065D01*
X0254892Y0058967D01*
X0254989Y0058867D01*
X0255083Y0058763D01*
X0255175Y0058657D01*
X0255263Y0058549D01*
X0255348Y0058438D01*
X0255430Y0058324D01*
X0255509Y0058208D01*
X0255584Y0058091D01*
X0255656Y0057971D01*
X0255724Y0057849D01*
X0255789Y0057725D01*
X0255851Y0057599D01*
X0255909Y0057472D01*
X0255963Y0057343D01*
X0256014Y0057212D01*
X0256060Y0057080D01*
X0256103Y0056947D01*
X0256143Y0056813D01*
X0256178Y0056678D01*
X0256210Y0056541D01*
X0256237Y0056404D01*
X0256261Y0056266D01*
X0256281Y0056128D01*
X0256297Y0055989D01*
X0256309Y0055849D01*
X0256317Y0055710D01*
X0256321Y0055570D01*
X0256321Y0055430D01*
X0256317Y0055290D01*
X0256309Y0055151D01*
X0256297Y0055011D01*
X0256281Y0054872D01*
X0256261Y0054734D01*
X0256237Y0054596D01*
X0256210Y0054459D01*
X0256178Y0054322D01*
X0256143Y0054187D01*
X0256103Y0054053D01*
X0256060Y0053920D01*
X0256014Y0053788D01*
X0255963Y0053657D01*
X0255909Y0053528D01*
X0255851Y0053401D01*
X0255789Y0053275D01*
X0255724Y0053151D01*
X0255656Y0053029D01*
X0255584Y0052909D01*
X0255509Y0052792D01*
X0255430Y0052676D01*
X0255348Y0052562D01*
X0255263Y0052451D01*
X0255175Y0052343D01*
X0255083Y0052237D01*
X0254989Y0052133D01*
X0254892Y0052033D01*
X0254792Y0051935D01*
X0254689Y0051840D01*
X0254584Y0051748D01*
X0254476Y0051659D01*
X0254366Y0051573D01*
X0254253Y0051490D01*
X0254138Y0051411D01*
X0254020Y0051335D01*
X0253901Y0051262D01*
X0253779Y0051192D01*
X0253656Y0051127D01*
X0253531Y0051064D01*
X0253404Y0051005D01*
X0253275Y0050950D01*
X0253145Y0050899D01*
X0253014Y0050851D01*
X0252881Y0050807D01*
X0252747Y0050767D01*
X0252612Y0050730D01*
X0252476Y0050698D01*
X0252339Y0050669D01*
X0252201Y0050645D01*
X0252063Y0050624D01*
X0251924Y0050607D01*
X0251784Y0050594D01*
X0251645Y0050585D01*
X0251505Y0050580D01*
X0251365Y0050579D01*
X0251225Y0050582D01*
X0251085Y0050589D01*
X0250946Y0050600D01*
X0250807Y0050615D01*
X0250668Y0050634D01*
X0250530Y0050656D01*
X0250393Y0050683D01*
X0250256Y0050714D01*
X0250121Y0050748D01*
X0249986Y0050786D01*
X0249853Y0050829D01*
X0249721Y0050874D01*
X0249590Y0050924D01*
X0249460Y0050977D01*
X0249333Y0051034D01*
X0249207Y0051095D01*
X0249082Y0051159D01*
X0248960Y0051227D01*
X0248839Y0051298D01*
X0248721Y0051372D01*
X0248605Y0051450D01*
X0248491Y0051531D01*
X0248379Y0051616D01*
X0248270Y0051703D01*
X0248163Y0051793D01*
X0248059Y0051887D01*
X0247958Y0051983D01*
X0247859Y0052083D01*
X0247763Y0052185D01*
X0247671Y0052289D01*
X0247581Y0052397D01*
X0247494Y0052507D01*
X0247411Y0052619D01*
X0247330Y0052733D01*
X0247253Y0052850D01*
X0247180Y0052969D01*
X0247109Y0053090D01*
X0247043Y0053213D01*
X0246979Y0053338D01*
X0246920Y0053464D01*
X0246864Y0053593D01*
X0246811Y0053722D01*
X0246763Y0053853D01*
X0246718Y0053986D01*
X0246677Y0054120D01*
X0246639Y0054255D01*
X0246606Y0054390D01*
X0246576Y0054527D01*
X0246550Y0054665D01*
X0246529Y0054803D01*
X0246511Y0054942D01*
X0246497Y0055081D01*
X0246487Y0055220D01*
X0246481Y0055360D01*
X0246479Y0055500D01*
X0246069Y0042903D02*
X0244934Y0042903D01*
X0245501Y0042903D02*
X0245501Y0040067D01*
X0244934Y0039500D01*
X0244367Y0039500D01*
X0243800Y0040067D01*
X0247483Y0039500D02*
X0247483Y0042903D01*
X0249185Y0042903D01*
X0249752Y0042336D01*
X0249752Y0041201D01*
X0249185Y0040634D01*
X0247483Y0040634D01*
X0240800Y0037500D02*
X0240800Y0027500D01*
X0230800Y0027500D01*
X0220800Y0027500D01*
X0220800Y0037500D01*
X0230800Y0037500D01*
X0230800Y0027500D01*
X0230800Y0037500D02*
X0240800Y0037500D01*
X0251166Y0039500D02*
X0253435Y0039500D01*
X0252301Y0039500D02*
X0252301Y0042903D01*
X0251166Y0041769D01*
X0250201Y0071700D02*
X0250769Y0072267D01*
X0250201Y0071700D02*
X0249067Y0071700D01*
X0248500Y0072267D01*
X0248500Y0074536D01*
X0249067Y0075103D01*
X0250201Y0075103D01*
X0250769Y0074536D01*
X0252183Y0074536D02*
X0252750Y0075103D01*
X0253885Y0075103D01*
X0254452Y0074536D01*
X0254452Y0073969D01*
X0252183Y0071700D01*
X0254452Y0071700D01*
X0255866Y0073401D02*
X0258135Y0073401D01*
X0257568Y0071700D02*
X0257568Y0075103D01*
X0255866Y0073401D01*
X0261930Y0076070D02*
X0261930Y0083900D01*
X0261930Y0089500D02*
X0261930Y0097330D01*
X0244213Y0097330D01*
X0240670Y0093787D01*
X0240670Y0089456D01*
X0240670Y0083944D02*
X0240670Y0079613D01*
X0244213Y0076070D01*
X0261930Y0076070D01*
X0263167Y0073303D02*
X0264301Y0073303D01*
X0264869Y0072736D01*
X0264869Y0072169D01*
X0264301Y0071601D01*
X0263167Y0071601D01*
X0262600Y0072169D01*
X0262600Y0072736D01*
X0263167Y0073303D01*
X0263167Y0071601D02*
X0262600Y0071034D01*
X0262600Y0070467D01*
X0263167Y0069900D01*
X0264301Y0069900D01*
X0264869Y0070467D01*
X0264869Y0071034D01*
X0264301Y0071601D01*
X0239362Y0082369D02*
X0236362Y0082369D01*
X0234400Y0082900D02*
X0234400Y0077900D01*
X0231900Y0075400D01*
X0226900Y0075400D01*
X0224400Y0077900D01*
X0224400Y0082900D01*
X0226900Y0085400D01*
X0231900Y0085400D01*
X0234400Y0082900D01*
X0237862Y0083869D02*
X0237862Y0080869D01*
X0231885Y0074003D02*
X0232452Y0073436D01*
X0232452Y0072869D01*
X0231885Y0072301D01*
X0230750Y0072301D01*
X0230183Y0072869D01*
X0230183Y0073436D01*
X0230750Y0074003D01*
X0231885Y0074003D01*
X0231885Y0072301D02*
X0232452Y0071734D01*
X0232452Y0071167D01*
X0231885Y0070600D01*
X0230750Y0070600D01*
X0230183Y0071167D01*
X0230183Y0071734D01*
X0230750Y0072301D01*
X0228769Y0072301D02*
X0226500Y0072301D01*
X0226500Y0072869D02*
X0227634Y0074003D01*
X0228769Y0072869D01*
X0228769Y0070600D01*
X0226500Y0070600D02*
X0226500Y0072869D01*
X0220900Y0070667D02*
X0217497Y0070667D01*
X0219199Y0068965D01*
X0219199Y0071234D01*
X0219766Y0067551D02*
X0220333Y0067551D01*
X0220900Y0066983D01*
X0220900Y0065849D01*
X0220333Y0065282D01*
X0220900Y0063867D02*
X0220900Y0061599D01*
X0218631Y0063867D01*
X0218064Y0063867D01*
X0217497Y0063300D01*
X0217497Y0062166D01*
X0218064Y0061599D01*
X0218064Y0065282D02*
X0217497Y0065849D01*
X0217497Y0066983D01*
X0218064Y0067551D01*
X0218631Y0067551D01*
X0219199Y0066983D01*
X0219766Y0067551D01*
X0219199Y0066983D02*
X0219199Y0066416D01*
X0221467Y0060184D02*
X0221467Y0057916D01*
X0220333Y0056501D02*
X0220900Y0055934D01*
X0220900Y0054800D01*
X0220333Y0054233D01*
X0218064Y0054233D01*
X0217497Y0054800D01*
X0217497Y0055934D01*
X0218064Y0056501D01*
X0217497Y0052818D02*
X0217497Y0050549D01*
X0220900Y0050549D01*
X0220900Y0052818D01*
X0219199Y0051684D02*
X0219199Y0050549D01*
X0217497Y0049135D02*
X0217497Y0046866D01*
X0217497Y0048001D02*
X0220900Y0048001D01*
X0220333Y0045452D02*
X0217497Y0045452D01*
X0217497Y0043183D02*
X0220333Y0043183D01*
X0220900Y0043750D01*
X0220900Y0044885D01*
X0220333Y0045452D01*
X0220900Y0041769D02*
X0217497Y0041769D01*
X0218631Y0040634D01*
X0217497Y0039500D01*
X0220900Y0039500D01*
X0200452Y0040767D02*
X0199885Y0040200D01*
X0198750Y0040200D01*
X0198183Y0040767D01*
X0199317Y0041901D02*
X0199885Y0041901D01*
X0200452Y0041334D01*
X0200452Y0040767D01*
X0199885Y0041901D02*
X0200452Y0042469D01*
X0200452Y0043036D01*
X0199885Y0043603D01*
X0198750Y0043603D01*
X0198183Y0043036D01*
X0196769Y0043603D02*
X0195634Y0043603D01*
X0196201Y0043603D02*
X0196201Y0040767D01*
X0195634Y0040200D01*
X0195067Y0040200D01*
X0194500Y0040767D01*
X0191700Y0037600D02*
X0191700Y0027600D01*
X0181700Y0027600D01*
X0171700Y0027600D01*
X0161700Y0027600D01*
X0151700Y0027600D01*
X0141700Y0027600D01*
X0141700Y0037600D01*
X0151700Y0037600D01*
X0151700Y0027600D01*
X0151700Y0037600D02*
X0161700Y0037600D01*
X0161700Y0027600D01*
X0161700Y0037600D02*
X0171700Y0037600D01*
X0171700Y0027600D01*
X0171700Y0037600D02*
X0181700Y0037600D01*
X0181700Y0027600D01*
X0181700Y0037600D02*
X0191700Y0037600D01*
X0188300Y0069900D02*
X0184897Y0069900D01*
X0184897Y0071601D01*
X0185464Y0072169D01*
X0186599Y0072169D01*
X0187166Y0071601D01*
X0187166Y0069900D01*
X0187166Y0071034D02*
X0188300Y0072169D01*
X0187733Y0073583D02*
X0188300Y0074150D01*
X0188300Y0075285D01*
X0187733Y0075852D01*
X0187166Y0075852D01*
X0186599Y0075285D01*
X0186599Y0074150D01*
X0186031Y0073583D01*
X0185464Y0073583D01*
X0184897Y0074150D01*
X0184897Y0075285D01*
X0185464Y0075852D01*
X0184897Y0077266D02*
X0184897Y0079535D01*
X0184897Y0078401D02*
X0188300Y0078401D01*
X0188300Y0080949D02*
X0184897Y0080949D01*
X0188300Y0083218D01*
X0184897Y0083218D01*
X0184897Y0087300D02*
X0184897Y0088434D01*
X0184897Y0087867D02*
X0188300Y0087867D01*
X0188300Y0087300D02*
X0188300Y0088434D01*
X0188300Y0089755D02*
X0184897Y0089755D01*
X0188300Y0092024D01*
X0184897Y0092024D01*
X0186599Y0093439D02*
X0184897Y0095140D01*
X0188300Y0095140D01*
X0186599Y0095707D02*
X0186599Y0093439D01*
X0192800Y0085200D02*
X0143800Y0085200D01*
X0155097Y0087300D02*
X0158500Y0087300D01*
X0158500Y0089569D01*
X0158500Y0090983D02*
X0155097Y0090983D01*
X0155097Y0092685D01*
X0155664Y0093252D01*
X0156799Y0093252D01*
X0157366Y0092685D01*
X0157366Y0090983D01*
X0157366Y0092117D02*
X0158500Y0093252D01*
X0157933Y0094666D02*
X0158500Y0095233D01*
X0158500Y0096368D01*
X0157933Y0096935D01*
X0158500Y0098349D02*
X0158500Y0100618D01*
X0158500Y0102033D02*
X0155097Y0102033D01*
X0156799Y0102600D02*
X0158500Y0104301D01*
X0157366Y0102033D02*
X0155097Y0104301D01*
X0155097Y0098349D02*
X0158500Y0098349D01*
X0155664Y0096935D02*
X0155097Y0096368D01*
X0155097Y0095233D01*
X0155664Y0094666D01*
X0157933Y0094666D01*
X0164997Y0094666D02*
X0168400Y0094666D01*
X0168400Y0096935D01*
X0168400Y0098349D02*
X0164997Y0098349D01*
X0166699Y0098917D02*
X0168400Y0100618D01*
X0167266Y0098349D02*
X0164997Y0100618D01*
X0165564Y0093252D02*
X0164997Y0092685D01*
X0164997Y0091550D01*
X0165564Y0090983D01*
X0167833Y0090983D01*
X0168400Y0091550D01*
X0168400Y0092685D01*
X0167833Y0093252D01*
X0167833Y0089569D02*
X0168400Y0089001D01*
X0168400Y0087867D01*
X0167833Y0087300D01*
X0166699Y0087867D02*
X0166699Y0089001D01*
X0167266Y0089569D01*
X0167833Y0089569D01*
X0166699Y0087867D02*
X0166131Y0087300D01*
X0165564Y0087300D01*
X0164997Y0087867D01*
X0164997Y0089001D01*
X0165564Y0089569D01*
X0168400Y0083007D02*
X0168400Y0080739D01*
X0168400Y0081873D02*
X0164997Y0081873D01*
X0166131Y0080739D01*
X0164997Y0079324D02*
X0168400Y0079324D01*
X0164997Y0077055D01*
X0168400Y0077055D01*
X0168400Y0075734D02*
X0168400Y0074600D01*
X0168400Y0075167D02*
X0164997Y0075167D01*
X0164997Y0074600D02*
X0164997Y0075734D01*
X0174997Y0075734D02*
X0174997Y0074600D01*
X0174997Y0075167D02*
X0178400Y0075167D01*
X0178400Y0074600D02*
X0178400Y0075734D01*
X0178400Y0077055D02*
X0174997Y0077055D01*
X0178400Y0079324D01*
X0174997Y0079324D01*
X0175564Y0080739D02*
X0174997Y0081306D01*
X0174997Y0082440D01*
X0175564Y0083007D01*
X0176131Y0083007D01*
X0178400Y0080739D01*
X0178400Y0083007D01*
X0178400Y0087300D02*
X0178400Y0088434D01*
X0178400Y0087867D02*
X0174997Y0087867D01*
X0174997Y0087300D02*
X0174997Y0088434D01*
X0174997Y0089755D02*
X0178400Y0092024D01*
X0174997Y0092024D01*
X0175564Y0093439D02*
X0174997Y0094006D01*
X0174997Y0095140D01*
X0175564Y0095707D01*
X0176131Y0095707D01*
X0176699Y0095140D01*
X0177266Y0095707D01*
X0177833Y0095707D01*
X0178400Y0095140D01*
X0178400Y0094006D01*
X0177833Y0093439D01*
X0176699Y0094573D02*
X0176699Y0095140D01*
X0178400Y0089755D02*
X0174997Y0089755D01*
X0175483Y0123100D02*
X0177752Y0123100D01*
X0176617Y0123100D02*
X0176617Y0126503D01*
X0175483Y0125369D01*
X0174069Y0125936D02*
X0173501Y0126503D01*
X0172367Y0126503D01*
X0171800Y0125936D01*
X0171800Y0123667D01*
X0172367Y0123100D01*
X0173501Y0123100D01*
X0174069Y0123667D01*
X0179166Y0123667D02*
X0179733Y0123100D01*
X0180868Y0123100D01*
X0181435Y0123667D01*
X0181435Y0125936D01*
X0179166Y0123667D01*
X0179166Y0125936D01*
X0179733Y0126503D01*
X0180868Y0126503D01*
X0181435Y0125936D01*
X0179330Y0128970D02*
X0179330Y0146687D01*
X0175787Y0150230D01*
X0171456Y0150230D01*
X0165944Y0150230D02*
X0161613Y0150230D01*
X0158070Y0146687D01*
X0158070Y0128970D01*
X0165900Y0128970D01*
X0171500Y0128970D02*
X0179330Y0128970D01*
X0181100Y0130700D02*
X0187200Y0130700D01*
X0192800Y0130700D02*
X0198900Y0130700D01*
X0198900Y0148500D01*
X0192800Y0148500D01*
X0194400Y0148500D02*
X0198900Y0144000D01*
X0190000Y0153900D02*
X0190000Y0156900D01*
X0191500Y0155400D02*
X0188500Y0155400D01*
X0187200Y0148500D02*
X0185600Y0148500D01*
X0181100Y0144000D01*
X0181100Y0148500D02*
X0181100Y0130700D01*
X0194800Y0125936D02*
X0194800Y0123667D01*
X0195367Y0123100D01*
X0196501Y0123100D01*
X0197069Y0123667D01*
X0198483Y0123667D02*
X0198483Y0123100D01*
X0198483Y0123667D02*
X0200752Y0125936D01*
X0200752Y0126503D01*
X0198483Y0126503D01*
X0197069Y0125936D02*
X0196501Y0126503D01*
X0195367Y0126503D01*
X0194800Y0125936D01*
X0185600Y0148500D02*
X0181100Y0148500D01*
X0165869Y0153038D02*
X0162869Y0153038D01*
X0164369Y0151538D02*
X0164369Y0154538D01*
X0156300Y0153400D02*
X0156300Y0148400D01*
X0153800Y0145900D01*
X0148800Y0145900D01*
X0146300Y0148400D01*
X0146300Y0153400D01*
X0148800Y0155900D01*
X0153800Y0155900D01*
X0156300Y0153400D01*
X0153000Y0143706D02*
X0149597Y0143706D01*
X0151299Y0142005D01*
X0151299Y0144273D01*
X0153000Y0140590D02*
X0149597Y0140590D01*
X0149597Y0138322D02*
X0153000Y0140590D01*
X0153000Y0138322D02*
X0149597Y0138322D01*
X0149597Y0137001D02*
X0149597Y0135866D01*
X0149597Y0136433D02*
X0153000Y0136433D01*
X0153000Y0135866D02*
X0153000Y0137001D01*
X0152433Y0134452D02*
X0150164Y0134452D01*
X0149597Y0133885D01*
X0149597Y0132183D01*
X0153000Y0132183D01*
X0153000Y0133885D01*
X0152433Y0134452D01*
X0152433Y0130769D02*
X0153000Y0130201D01*
X0153000Y0129067D01*
X0152433Y0128500D01*
X0151299Y0129067D02*
X0151299Y0130201D01*
X0151866Y0130769D01*
X0152433Y0130769D01*
X0151299Y0129067D02*
X0150731Y0128500D01*
X0150164Y0128500D01*
X0149597Y0129067D01*
X0149597Y0130201D01*
X0150164Y0130769D01*
X0145500Y0130301D02*
X0145500Y0129167D01*
X0144933Y0128600D01*
X0143799Y0129167D02*
X0143799Y0130301D01*
X0144366Y0130869D01*
X0144933Y0130869D01*
X0145500Y0130301D01*
X0145500Y0132283D02*
X0142097Y0132283D01*
X0142097Y0133985D01*
X0142664Y0134552D01*
X0144933Y0134552D01*
X0145500Y0133985D01*
X0145500Y0132283D01*
X0142664Y0130869D02*
X0142097Y0130301D01*
X0142097Y0129167D01*
X0142664Y0128600D01*
X0143231Y0128600D01*
X0143799Y0129167D01*
X0138200Y0129267D02*
X0137633Y0128700D01*
X0138200Y0129267D02*
X0138200Y0130401D01*
X0137633Y0130969D01*
X0137066Y0130969D01*
X0136499Y0130401D01*
X0136499Y0129267D01*
X0135931Y0128700D01*
X0135364Y0128700D01*
X0134797Y0129267D01*
X0134797Y0130401D01*
X0135364Y0130969D01*
X0134797Y0132383D02*
X0134797Y0134085D01*
X0135364Y0134652D01*
X0137633Y0134652D01*
X0138200Y0134085D01*
X0138200Y0132383D01*
X0134797Y0132383D01*
X0134797Y0136066D02*
X0134797Y0137201D01*
X0134797Y0136633D02*
X0138200Y0136633D01*
X0138200Y0136066D02*
X0138200Y0137201D01*
X0138200Y0138522D02*
X0134797Y0138522D01*
X0138200Y0140790D01*
X0134797Y0140790D01*
X0135364Y0142205D02*
X0134797Y0142772D01*
X0134797Y0143906D01*
X0135364Y0144473D01*
X0135931Y0144473D01*
X0138200Y0142205D01*
X0138200Y0144473D01*
X0138900Y0145800D02*
X0133900Y0145800D01*
X0131400Y0148300D01*
X0131400Y0153300D01*
X0133900Y0155800D01*
X0138900Y0155800D01*
X0141400Y0153300D01*
X0141400Y0148300D01*
X0138900Y0145800D01*
X0142097Y0143806D02*
X0142664Y0144373D01*
X0143231Y0144373D01*
X0143799Y0143806D01*
X0144366Y0144373D01*
X0144933Y0144373D01*
X0145500Y0143806D01*
X0145500Y0142672D01*
X0144933Y0142105D01*
X0145500Y0140690D02*
X0142097Y0140690D01*
X0142664Y0142105D02*
X0142097Y0142672D01*
X0142097Y0143806D01*
X0143799Y0143806D02*
X0143799Y0143239D01*
X0145500Y0140690D02*
X0142097Y0138422D01*
X0145500Y0138422D01*
X0145500Y0137101D02*
X0145500Y0135966D01*
X0145500Y0136533D02*
X0142097Y0136533D01*
X0142097Y0135966D02*
X0142097Y0137101D01*
X0130200Y0136933D02*
X0126797Y0136933D01*
X0126797Y0136366D02*
X0126797Y0137501D01*
X0126797Y0138822D02*
X0130200Y0141090D01*
X0126797Y0141090D01*
X0127931Y0142505D02*
X0126797Y0143639D01*
X0130200Y0143639D01*
X0130200Y0142505D02*
X0130200Y0144773D01*
X0130200Y0138822D02*
X0126797Y0138822D01*
X0130200Y0137501D02*
X0130200Y0136366D01*
X0129633Y0134952D02*
X0127364Y0134952D01*
X0126797Y0134385D01*
X0126797Y0132683D01*
X0130200Y0132683D01*
X0130200Y0134385D01*
X0129633Y0134952D01*
X0129633Y0131269D02*
X0130200Y0130701D01*
X0130200Y0129567D01*
X0129633Y0129000D01*
X0128499Y0129567D02*
X0128499Y0130701D01*
X0129066Y0131269D01*
X0129633Y0131269D01*
X0128499Y0129567D02*
X0127931Y0129000D01*
X0127364Y0129000D01*
X0126797Y0129567D01*
X0126797Y0130701D01*
X0127364Y0131269D01*
X0126900Y0122100D02*
X0121900Y0122100D01*
X0119400Y0119600D01*
X0119400Y0114600D01*
X0121900Y0112100D01*
X0126900Y0112100D01*
X0129400Y0114600D01*
X0129400Y0119600D01*
X0126900Y0122100D01*
X0129400Y0119600D02*
X0131900Y0122100D01*
X0136900Y0122100D01*
X0139400Y0119600D01*
X0139400Y0114600D01*
X0136900Y0112100D01*
X0131900Y0112100D01*
X0129400Y0114600D01*
X0129400Y0119600D01*
X0125701Y0110603D02*
X0123433Y0108334D01*
X0124000Y0108901D02*
X0125701Y0107200D01*
X0123433Y0107200D02*
X0123433Y0110603D01*
X0119749Y0110603D02*
X0119749Y0107200D01*
X0122018Y0107200D01*
X0118335Y0107767D02*
X0117768Y0107200D01*
X0116633Y0107200D01*
X0116066Y0107767D01*
X0116066Y0110036D01*
X0116633Y0110603D01*
X0117768Y0110603D01*
X0118335Y0110036D01*
X0114652Y0110036D02*
X0114652Y0108901D01*
X0114085Y0108334D01*
X0112383Y0108334D01*
X0112383Y0107200D02*
X0112383Y0110603D01*
X0114085Y0110603D01*
X0114652Y0110036D01*
X0113517Y0108334D02*
X0114652Y0107200D01*
X0110969Y0107200D02*
X0108700Y0107200D01*
X0108700Y0110603D01*
X0106700Y0099900D02*
X0105400Y0098700D01*
X0104100Y0100000D01*
X0105400Y0098700D02*
X0105400Y0093700D01*
X0104100Y0092500D01*
X0105400Y0093700D02*
X0106700Y0092400D01*
X0106169Y0087903D02*
X0105034Y0086769D01*
X0103900Y0087903D01*
X0103900Y0084500D01*
X0106169Y0084500D02*
X0106169Y0087903D01*
X0107583Y0087336D02*
X0107583Y0085067D01*
X0108150Y0084500D01*
X0109285Y0084500D01*
X0109852Y0085067D01*
X0111266Y0084500D02*
X0111266Y0087903D01*
X0109852Y0087336D02*
X0109285Y0087903D01*
X0108150Y0087903D01*
X0107583Y0087336D01*
X0111266Y0084500D02*
X0113535Y0084500D01*
X0114949Y0084500D02*
X0114949Y0087903D01*
X0115517Y0086201D02*
X0117218Y0084500D01*
X0114949Y0085634D02*
X0117218Y0087903D01*
X0116700Y0092400D02*
X0115400Y0093700D01*
X0114100Y0092400D01*
X0115400Y0093700D02*
X0115400Y0098700D01*
X0114100Y0100000D01*
X0115400Y0098700D02*
X0116700Y0100000D01*
X0124100Y0100000D02*
X0125400Y0098700D01*
X0125400Y0093700D01*
X0124100Y0092400D01*
X0133767Y0107400D02*
X0133200Y0107967D01*
X0133767Y0107400D02*
X0134901Y0107400D01*
X0135469Y0107967D01*
X0135469Y0108534D01*
X0134901Y0109101D01*
X0133767Y0109101D01*
X0133200Y0109669D01*
X0133200Y0110236D01*
X0133767Y0110803D01*
X0134901Y0110803D01*
X0135469Y0110236D01*
X0136883Y0110236D02*
X0136883Y0107967D01*
X0137450Y0107400D01*
X0138585Y0107400D01*
X0139152Y0107967D01*
X0140566Y0107400D02*
X0140566Y0110803D01*
X0139152Y0110236D02*
X0138585Y0110803D01*
X0137450Y0110803D01*
X0136883Y0110236D01*
X0140566Y0107400D02*
X0142835Y0107400D01*
X0144249Y0107400D02*
X0144249Y0110803D01*
X0144817Y0109101D02*
X0146518Y0107400D01*
X0144249Y0108534D02*
X0146518Y0110803D01*
X0146300Y0153400D02*
X0141300Y0153400D01*
X0138800Y0155900D01*
X0138800Y0160900D01*
X0141300Y0163400D01*
X0146300Y0163400D01*
X0148800Y0160900D01*
X0148800Y0155900D01*
X0146300Y0153400D01*
X0133900Y0155800D02*
X0131400Y0153300D01*
X0126400Y0153300D01*
X0123900Y0155800D01*
X0123900Y0160800D01*
X0126400Y0163300D01*
X0131400Y0163300D01*
X0133900Y0160800D01*
X0133900Y0155800D01*
X0161050Y0168926D02*
X0161618Y0168359D01*
X0162752Y0168359D01*
X0163319Y0168926D01*
X0164734Y0168926D02*
X0165301Y0168359D01*
X0166435Y0168359D01*
X0167002Y0168926D01*
X0167002Y0170061D01*
X0166435Y0170628D01*
X0165868Y0170628D01*
X0164734Y0170061D01*
X0164734Y0171762D01*
X0167002Y0171762D01*
X0169050Y0171195D02*
X0169050Y0168926D01*
X0169618Y0168359D01*
X0170752Y0168359D01*
X0171319Y0168926D01*
X0172734Y0168926D02*
X0173301Y0168359D01*
X0174435Y0168359D01*
X0175002Y0168926D01*
X0175002Y0171195D01*
X0174435Y0171762D01*
X0173301Y0171762D01*
X0172734Y0171195D01*
X0172734Y0170628D01*
X0173301Y0170061D01*
X0175002Y0170061D01*
X0177350Y0171195D02*
X0177350Y0168926D01*
X0177918Y0168359D01*
X0179052Y0168359D01*
X0179619Y0168926D01*
X0181034Y0168926D02*
X0181034Y0169493D01*
X0181601Y0170061D01*
X0182735Y0170061D01*
X0183302Y0169493D01*
X0183302Y0168926D01*
X0182735Y0168359D01*
X0181601Y0168359D01*
X0181034Y0168926D01*
X0181601Y0170061D02*
X0181034Y0170628D01*
X0181034Y0171195D01*
X0181601Y0171762D01*
X0182735Y0171762D01*
X0183302Y0171195D01*
X0183302Y0170628D01*
X0182735Y0170061D01*
X0179619Y0171195D02*
X0179052Y0171762D01*
X0177918Y0171762D01*
X0177350Y0171195D01*
X0171319Y0171195D02*
X0170752Y0171762D01*
X0169618Y0171762D01*
X0169050Y0171195D01*
X0163319Y0171195D02*
X0162752Y0171762D01*
X0161618Y0171762D01*
X0161050Y0171195D01*
X0161050Y0168926D01*
X0118800Y0206500D02*
X0117200Y0206500D01*
X0112700Y0202000D01*
X0112700Y0206500D02*
X0117200Y0206500D01*
X0121600Y0211900D02*
X0121600Y0214900D01*
X0123100Y0213400D02*
X0120100Y0213400D01*
X0053152Y0146636D02*
X0053152Y0146069D01*
X0052585Y0145501D01*
X0053152Y0144934D01*
X0053152Y0144367D01*
X0052585Y0143800D01*
X0051450Y0143800D01*
X0050883Y0144367D01*
X0049469Y0144367D02*
X0048901Y0143800D01*
X0047767Y0143800D01*
X0047200Y0144367D01*
X0047200Y0146636D01*
X0047767Y0147203D01*
X0048901Y0147203D01*
X0049469Y0146636D01*
X0050883Y0146636D02*
X0051450Y0147203D01*
X0052585Y0147203D01*
X0053152Y0146636D01*
X0052585Y0145501D02*
X0052017Y0145501D01*
X0034261Y0135161D02*
X0034261Y0130161D01*
X0031761Y0127661D01*
X0034261Y0135161D02*
X0031761Y0137661D01*
X0031761Y0117661D02*
X0034261Y0115161D01*
X0034261Y0110161D01*
X0031761Y0107661D01*
X0016761Y0107661D01*
X0014261Y0110161D01*
X0014261Y0115161D01*
X0016761Y0117661D01*
X0016761Y0107661D02*
X0014261Y0105161D01*
X0014261Y0100161D01*
X0016761Y0097661D01*
X0014261Y0095161D01*
X0014261Y0090161D01*
X0016761Y0087661D01*
X0031761Y0087661D01*
X0034261Y0090161D01*
X0034261Y0095161D01*
X0031761Y0097661D01*
X0016761Y0097661D01*
X0031761Y0097661D02*
X0034261Y0100161D01*
X0034261Y0105161D01*
X0031761Y0107661D01*
X0067644Y0089989D02*
X0068211Y0090556D01*
X0069346Y0090556D01*
X0069913Y0089989D01*
X0069913Y0089422D01*
X0069346Y0088855D01*
X0069913Y0088287D01*
X0069913Y0087720D01*
X0069346Y0087153D01*
X0068211Y0087153D01*
X0067644Y0087720D01*
X0068778Y0088855D02*
X0069346Y0088855D01*
X0071327Y0088287D02*
X0072462Y0087153D01*
X0073596Y0088287D01*
X0073596Y0090556D01*
X0075010Y0089989D02*
X0075578Y0090556D01*
X0076712Y0090556D01*
X0077279Y0089989D01*
X0077279Y0089422D01*
X0076712Y0088855D01*
X0077279Y0088287D01*
X0077279Y0087720D01*
X0076712Y0087153D01*
X0075578Y0087153D01*
X0075010Y0087720D01*
X0076145Y0088855D02*
X0076712Y0088855D01*
X0071327Y0088287D02*
X0071327Y0090556D01*
X0095400Y0093700D02*
X0096700Y0092300D01*
X0095400Y0093700D02*
X0095400Y0098700D01*
X0096700Y0100000D01*
X0087379Y0055500D02*
X0087381Y0055640D01*
X0087387Y0055780D01*
X0087397Y0055919D01*
X0087411Y0056058D01*
X0087429Y0056197D01*
X0087450Y0056335D01*
X0087476Y0056473D01*
X0087506Y0056610D01*
X0087539Y0056745D01*
X0087577Y0056880D01*
X0087618Y0057014D01*
X0087663Y0057147D01*
X0087711Y0057278D01*
X0087764Y0057407D01*
X0087820Y0057536D01*
X0087879Y0057662D01*
X0087943Y0057787D01*
X0088009Y0057910D01*
X0088080Y0058031D01*
X0088153Y0058150D01*
X0088230Y0058267D01*
X0088311Y0058381D01*
X0088394Y0058493D01*
X0088481Y0058603D01*
X0088571Y0058711D01*
X0088663Y0058815D01*
X0088759Y0058917D01*
X0088858Y0059017D01*
X0088959Y0059113D01*
X0089063Y0059207D01*
X0089170Y0059297D01*
X0089279Y0059384D01*
X0089391Y0059469D01*
X0089505Y0059550D01*
X0089621Y0059628D01*
X0089739Y0059702D01*
X0089860Y0059773D01*
X0089982Y0059841D01*
X0090107Y0059905D01*
X0090233Y0059966D01*
X0090360Y0060023D01*
X0090490Y0060076D01*
X0090621Y0060126D01*
X0090753Y0060171D01*
X0090886Y0060214D01*
X0091021Y0060252D01*
X0091156Y0060286D01*
X0091293Y0060317D01*
X0091430Y0060344D01*
X0091568Y0060366D01*
X0091707Y0060385D01*
X0091846Y0060400D01*
X0091985Y0060411D01*
X0092125Y0060418D01*
X0092265Y0060421D01*
X0092405Y0060420D01*
X0092545Y0060415D01*
X0092684Y0060406D01*
X0092824Y0060393D01*
X0092963Y0060376D01*
X0093101Y0060355D01*
X0093239Y0060331D01*
X0093376Y0060302D01*
X0093512Y0060270D01*
X0093647Y0060233D01*
X0093781Y0060193D01*
X0093914Y0060149D01*
X0094045Y0060101D01*
X0094175Y0060050D01*
X0094304Y0059995D01*
X0094431Y0059936D01*
X0094556Y0059873D01*
X0094679Y0059808D01*
X0094801Y0059738D01*
X0094920Y0059665D01*
X0095038Y0059589D01*
X0095153Y0059510D01*
X0095266Y0059427D01*
X0095376Y0059341D01*
X0095484Y0059252D01*
X0095589Y0059160D01*
X0095692Y0059065D01*
X0095792Y0058967D01*
X0095889Y0058867D01*
X0095983Y0058763D01*
X0096075Y0058657D01*
X0096163Y0058549D01*
X0096248Y0058438D01*
X0096330Y0058324D01*
X0096409Y0058208D01*
X0096484Y0058091D01*
X0096556Y0057971D01*
X0096624Y0057849D01*
X0096689Y0057725D01*
X0096751Y0057599D01*
X0096809Y0057472D01*
X0096863Y0057343D01*
X0096914Y0057212D01*
X0096960Y0057080D01*
X0097003Y0056947D01*
X0097043Y0056813D01*
X0097078Y0056678D01*
X0097110Y0056541D01*
X0097137Y0056404D01*
X0097161Y0056266D01*
X0097181Y0056128D01*
X0097197Y0055989D01*
X0097209Y0055849D01*
X0097217Y0055710D01*
X0097221Y0055570D01*
X0097221Y0055430D01*
X0097217Y0055290D01*
X0097209Y0055151D01*
X0097197Y0055011D01*
X0097181Y0054872D01*
X0097161Y0054734D01*
X0097137Y0054596D01*
X0097110Y0054459D01*
X0097078Y0054322D01*
X0097043Y0054187D01*
X0097003Y0054053D01*
X0096960Y0053920D01*
X0096914Y0053788D01*
X0096863Y0053657D01*
X0096809Y0053528D01*
X0096751Y0053401D01*
X0096689Y0053275D01*
X0096624Y0053151D01*
X0096556Y0053029D01*
X0096484Y0052909D01*
X0096409Y0052792D01*
X0096330Y0052676D01*
X0096248Y0052562D01*
X0096163Y0052451D01*
X0096075Y0052343D01*
X0095983Y0052237D01*
X0095889Y0052133D01*
X0095792Y0052033D01*
X0095692Y0051935D01*
X0095589Y0051840D01*
X0095484Y0051748D01*
X0095376Y0051659D01*
X0095266Y0051573D01*
X0095153Y0051490D01*
X0095038Y0051411D01*
X0094920Y0051335D01*
X0094801Y0051262D01*
X0094679Y0051192D01*
X0094556Y0051127D01*
X0094431Y0051064D01*
X0094304Y0051005D01*
X0094175Y0050950D01*
X0094045Y0050899D01*
X0093914Y0050851D01*
X0093781Y0050807D01*
X0093647Y0050767D01*
X0093512Y0050730D01*
X0093376Y0050698D01*
X0093239Y0050669D01*
X0093101Y0050645D01*
X0092963Y0050624D01*
X0092824Y0050607D01*
X0092684Y0050594D01*
X0092545Y0050585D01*
X0092405Y0050580D01*
X0092265Y0050579D01*
X0092125Y0050582D01*
X0091985Y0050589D01*
X0091846Y0050600D01*
X0091707Y0050615D01*
X0091568Y0050634D01*
X0091430Y0050656D01*
X0091293Y0050683D01*
X0091156Y0050714D01*
X0091021Y0050748D01*
X0090886Y0050786D01*
X0090753Y0050829D01*
X0090621Y0050874D01*
X0090490Y0050924D01*
X0090360Y0050977D01*
X0090233Y0051034D01*
X0090107Y0051095D01*
X0089982Y0051159D01*
X0089860Y0051227D01*
X0089739Y0051298D01*
X0089621Y0051372D01*
X0089505Y0051450D01*
X0089391Y0051531D01*
X0089279Y0051616D01*
X0089170Y0051703D01*
X0089063Y0051793D01*
X0088959Y0051887D01*
X0088858Y0051983D01*
X0088759Y0052083D01*
X0088663Y0052185D01*
X0088571Y0052289D01*
X0088481Y0052397D01*
X0088394Y0052507D01*
X0088311Y0052619D01*
X0088230Y0052733D01*
X0088153Y0052850D01*
X0088080Y0052969D01*
X0088009Y0053090D01*
X0087943Y0053213D01*
X0087879Y0053338D01*
X0087820Y0053464D01*
X0087764Y0053593D01*
X0087711Y0053722D01*
X0087663Y0053853D01*
X0087618Y0053986D01*
X0087577Y0054120D01*
X0087539Y0054255D01*
X0087506Y0054390D01*
X0087476Y0054527D01*
X0087450Y0054665D01*
X0087429Y0054803D01*
X0087411Y0054942D01*
X0087397Y0055081D01*
X0087387Y0055220D01*
X0087381Y0055360D01*
X0087379Y0055500D01*
X0082310Y0056136D02*
X0082310Y0053867D01*
X0081743Y0053300D01*
X0080042Y0053300D01*
X0080042Y0056703D01*
X0081743Y0056703D01*
X0082310Y0056136D01*
X0078627Y0056703D02*
X0078627Y0053300D01*
X0076358Y0056703D01*
X0076358Y0053300D01*
X0074944Y0053867D02*
X0074944Y0055001D01*
X0073810Y0055001D01*
X0074944Y0053867D02*
X0074377Y0053300D01*
X0073242Y0053300D01*
X0072675Y0053867D01*
X0072675Y0056136D01*
X0073242Y0056703D01*
X0074377Y0056703D01*
X0074944Y0056136D01*
X0057879Y0055500D02*
X0057881Y0055640D01*
X0057887Y0055780D01*
X0057897Y0055919D01*
X0057911Y0056058D01*
X0057929Y0056197D01*
X0057950Y0056335D01*
X0057976Y0056473D01*
X0058006Y0056610D01*
X0058039Y0056745D01*
X0058077Y0056880D01*
X0058118Y0057014D01*
X0058163Y0057147D01*
X0058211Y0057278D01*
X0058264Y0057407D01*
X0058320Y0057536D01*
X0058379Y0057662D01*
X0058443Y0057787D01*
X0058509Y0057910D01*
X0058580Y0058031D01*
X0058653Y0058150D01*
X0058730Y0058267D01*
X0058811Y0058381D01*
X0058894Y0058493D01*
X0058981Y0058603D01*
X0059071Y0058711D01*
X0059163Y0058815D01*
X0059259Y0058917D01*
X0059358Y0059017D01*
X0059459Y0059113D01*
X0059563Y0059207D01*
X0059670Y0059297D01*
X0059779Y0059384D01*
X0059891Y0059469D01*
X0060005Y0059550D01*
X0060121Y0059628D01*
X0060239Y0059702D01*
X0060360Y0059773D01*
X0060482Y0059841D01*
X0060607Y0059905D01*
X0060733Y0059966D01*
X0060860Y0060023D01*
X0060990Y0060076D01*
X0061121Y0060126D01*
X0061253Y0060171D01*
X0061386Y0060214D01*
X0061521Y0060252D01*
X0061656Y0060286D01*
X0061793Y0060317D01*
X0061930Y0060344D01*
X0062068Y0060366D01*
X0062207Y0060385D01*
X0062346Y0060400D01*
X0062485Y0060411D01*
X0062625Y0060418D01*
X0062765Y0060421D01*
X0062905Y0060420D01*
X0063045Y0060415D01*
X0063184Y0060406D01*
X0063324Y0060393D01*
X0063463Y0060376D01*
X0063601Y0060355D01*
X0063739Y0060331D01*
X0063876Y0060302D01*
X0064012Y0060270D01*
X0064147Y0060233D01*
X0064281Y0060193D01*
X0064414Y0060149D01*
X0064545Y0060101D01*
X0064675Y0060050D01*
X0064804Y0059995D01*
X0064931Y0059936D01*
X0065056Y0059873D01*
X0065179Y0059808D01*
X0065301Y0059738D01*
X0065420Y0059665D01*
X0065538Y0059589D01*
X0065653Y0059510D01*
X0065766Y0059427D01*
X0065876Y0059341D01*
X0065984Y0059252D01*
X0066089Y0059160D01*
X0066192Y0059065D01*
X0066292Y0058967D01*
X0066389Y0058867D01*
X0066483Y0058763D01*
X0066575Y0058657D01*
X0066663Y0058549D01*
X0066748Y0058438D01*
X0066830Y0058324D01*
X0066909Y0058208D01*
X0066984Y0058091D01*
X0067056Y0057971D01*
X0067124Y0057849D01*
X0067189Y0057725D01*
X0067251Y0057599D01*
X0067309Y0057472D01*
X0067363Y0057343D01*
X0067414Y0057212D01*
X0067460Y0057080D01*
X0067503Y0056947D01*
X0067543Y0056813D01*
X0067578Y0056678D01*
X0067610Y0056541D01*
X0067637Y0056404D01*
X0067661Y0056266D01*
X0067681Y0056128D01*
X0067697Y0055989D01*
X0067709Y0055849D01*
X0067717Y0055710D01*
X0067721Y0055570D01*
X0067721Y0055430D01*
X0067717Y0055290D01*
X0067709Y0055151D01*
X0067697Y0055011D01*
X0067681Y0054872D01*
X0067661Y0054734D01*
X0067637Y0054596D01*
X0067610Y0054459D01*
X0067578Y0054322D01*
X0067543Y0054187D01*
X0067503Y0054053D01*
X0067460Y0053920D01*
X0067414Y0053788D01*
X0067363Y0053657D01*
X0067309Y0053528D01*
X0067251Y0053401D01*
X0067189Y0053275D01*
X0067124Y0053151D01*
X0067056Y0053029D01*
X0066984Y0052909D01*
X0066909Y0052792D01*
X0066830Y0052676D01*
X0066748Y0052562D01*
X0066663Y0052451D01*
X0066575Y0052343D01*
X0066483Y0052237D01*
X0066389Y0052133D01*
X0066292Y0052033D01*
X0066192Y0051935D01*
X0066089Y0051840D01*
X0065984Y0051748D01*
X0065876Y0051659D01*
X0065766Y0051573D01*
X0065653Y0051490D01*
X0065538Y0051411D01*
X0065420Y0051335D01*
X0065301Y0051262D01*
X0065179Y0051192D01*
X0065056Y0051127D01*
X0064931Y0051064D01*
X0064804Y0051005D01*
X0064675Y0050950D01*
X0064545Y0050899D01*
X0064414Y0050851D01*
X0064281Y0050807D01*
X0064147Y0050767D01*
X0064012Y0050730D01*
X0063876Y0050698D01*
X0063739Y0050669D01*
X0063601Y0050645D01*
X0063463Y0050624D01*
X0063324Y0050607D01*
X0063184Y0050594D01*
X0063045Y0050585D01*
X0062905Y0050580D01*
X0062765Y0050579D01*
X0062625Y0050582D01*
X0062485Y0050589D01*
X0062346Y0050600D01*
X0062207Y0050615D01*
X0062068Y0050634D01*
X0061930Y0050656D01*
X0061793Y0050683D01*
X0061656Y0050714D01*
X0061521Y0050748D01*
X0061386Y0050786D01*
X0061253Y0050829D01*
X0061121Y0050874D01*
X0060990Y0050924D01*
X0060860Y0050977D01*
X0060733Y0051034D01*
X0060607Y0051095D01*
X0060482Y0051159D01*
X0060360Y0051227D01*
X0060239Y0051298D01*
X0060121Y0051372D01*
X0060005Y0051450D01*
X0059891Y0051531D01*
X0059779Y0051616D01*
X0059670Y0051703D01*
X0059563Y0051793D01*
X0059459Y0051887D01*
X0059358Y0051983D01*
X0059259Y0052083D01*
X0059163Y0052185D01*
X0059071Y0052289D01*
X0058981Y0052397D01*
X0058894Y0052507D01*
X0058811Y0052619D01*
X0058730Y0052733D01*
X0058653Y0052850D01*
X0058580Y0052969D01*
X0058509Y0053090D01*
X0058443Y0053213D01*
X0058379Y0053338D01*
X0058320Y0053464D01*
X0058264Y0053593D01*
X0058211Y0053722D01*
X0058163Y0053853D01*
X0058118Y0053986D01*
X0058077Y0054120D01*
X0058039Y0054255D01*
X0058006Y0054390D01*
X0057976Y0054527D01*
X0057950Y0054665D01*
X0057929Y0054803D01*
X0057911Y0054942D01*
X0057897Y0055081D01*
X0057887Y0055220D01*
X0057881Y0055360D01*
X0057879Y0055500D01*
X0044001Y0180900D02*
X0045135Y0182034D01*
X0045135Y0184303D01*
X0042866Y0184303D02*
X0042866Y0182034D01*
X0044001Y0180900D01*
X0041452Y0181467D02*
X0040885Y0180900D01*
X0039750Y0180900D01*
X0039183Y0181467D01*
X0039183Y0182601D02*
X0040317Y0183169D01*
X0040885Y0183169D01*
X0041452Y0182601D01*
X0041452Y0181467D01*
X0039183Y0182601D02*
X0039183Y0184303D01*
X0041452Y0184303D01*
X0037769Y0182601D02*
X0035500Y0182601D01*
X0036634Y0181467D02*
X0036634Y0183736D01*
X0040318Y0192759D02*
X0041452Y0192759D01*
X0042019Y0193326D01*
X0043434Y0192759D02*
X0045702Y0195028D01*
X0045702Y0195595D01*
X0045135Y0196162D01*
X0044001Y0196162D01*
X0043434Y0195595D01*
X0042019Y0195595D02*
X0041452Y0196162D01*
X0040318Y0196162D01*
X0039750Y0195595D01*
X0039750Y0193326D01*
X0040318Y0192759D01*
X0043434Y0192759D02*
X0045702Y0192759D01*
X0047117Y0192759D02*
X0047117Y0193326D01*
X0049385Y0195595D01*
X0049385Y0196162D01*
X0047117Y0196162D01*
X0210400Y0341667D02*
X0210967Y0341100D01*
X0211534Y0341100D01*
X0212101Y0341667D01*
X0212101Y0344503D01*
X0211534Y0344503D02*
X0212669Y0344503D01*
X0214083Y0344503D02*
X0214083Y0341100D01*
X0214083Y0342234D02*
X0215785Y0342234D01*
X0216352Y0342801D01*
X0216352Y0343936D01*
X0215785Y0344503D01*
X0214083Y0344503D01*
X0217766Y0343936D02*
X0218333Y0344503D01*
X0219468Y0344503D01*
X0220035Y0343936D01*
X0220035Y0343369D01*
X0219468Y0342801D01*
X0220035Y0342234D01*
X0220035Y0341667D01*
X0219468Y0341100D01*
X0218333Y0341100D01*
X0217766Y0341667D01*
X0218901Y0342801D02*
X0219468Y0342801D01*
X0220800Y0347600D02*
X0220800Y0357600D01*
X0230800Y0357600D01*
X0240800Y0357600D01*
X0240800Y0347600D01*
X0230800Y0347600D01*
X0230800Y0357600D01*
X0230800Y0347600D02*
X0220800Y0347600D01*
X0241097Y0345433D02*
X0244500Y0345433D01*
X0244500Y0344299D02*
X0244500Y0346567D01*
X0242231Y0344299D02*
X0241097Y0345433D01*
X0245067Y0342884D02*
X0245067Y0340616D01*
X0243933Y0339201D02*
X0244500Y0338634D01*
X0244500Y0337500D01*
X0243933Y0336933D01*
X0241664Y0336933D01*
X0241097Y0337500D01*
X0241097Y0338634D01*
X0241664Y0339201D01*
X0241097Y0335518D02*
X0241097Y0333249D01*
X0244500Y0333249D01*
X0244500Y0335518D01*
X0242799Y0334384D02*
X0242799Y0333249D01*
X0241097Y0331835D02*
X0241097Y0329566D01*
X0241097Y0330701D02*
X0244500Y0330701D01*
X0243933Y0328152D02*
X0244500Y0327585D01*
X0244500Y0326450D01*
X0243933Y0325883D01*
X0241097Y0325883D01*
X0241097Y0324469D02*
X0244500Y0324469D01*
X0244500Y0322200D02*
X0241097Y0322200D01*
X0242231Y0323334D01*
X0241097Y0324469D01*
X0241097Y0328152D02*
X0243933Y0328152D01*
X0246479Y0328900D02*
X0246481Y0329040D01*
X0246487Y0329180D01*
X0246497Y0329319D01*
X0246511Y0329458D01*
X0246529Y0329597D01*
X0246550Y0329735D01*
X0246576Y0329873D01*
X0246606Y0330010D01*
X0246639Y0330145D01*
X0246677Y0330280D01*
X0246718Y0330414D01*
X0246763Y0330547D01*
X0246811Y0330678D01*
X0246864Y0330807D01*
X0246920Y0330936D01*
X0246979Y0331062D01*
X0247043Y0331187D01*
X0247109Y0331310D01*
X0247180Y0331431D01*
X0247253Y0331550D01*
X0247330Y0331667D01*
X0247411Y0331781D01*
X0247494Y0331893D01*
X0247581Y0332003D01*
X0247671Y0332111D01*
X0247763Y0332215D01*
X0247859Y0332317D01*
X0247958Y0332417D01*
X0248059Y0332513D01*
X0248163Y0332607D01*
X0248270Y0332697D01*
X0248379Y0332784D01*
X0248491Y0332869D01*
X0248605Y0332950D01*
X0248721Y0333028D01*
X0248839Y0333102D01*
X0248960Y0333173D01*
X0249082Y0333241D01*
X0249207Y0333305D01*
X0249333Y0333366D01*
X0249460Y0333423D01*
X0249590Y0333476D01*
X0249721Y0333526D01*
X0249853Y0333571D01*
X0249986Y0333614D01*
X0250121Y0333652D01*
X0250256Y0333686D01*
X0250393Y0333717D01*
X0250530Y0333744D01*
X0250668Y0333766D01*
X0250807Y0333785D01*
X0250946Y0333800D01*
X0251085Y0333811D01*
X0251225Y0333818D01*
X0251365Y0333821D01*
X0251505Y0333820D01*
X0251645Y0333815D01*
X0251784Y0333806D01*
X0251924Y0333793D01*
X0252063Y0333776D01*
X0252201Y0333755D01*
X0252339Y0333731D01*
X0252476Y0333702D01*
X0252612Y0333670D01*
X0252747Y0333633D01*
X0252881Y0333593D01*
X0253014Y0333549D01*
X0253145Y0333501D01*
X0253275Y0333450D01*
X0253404Y0333395D01*
X0253531Y0333336D01*
X0253656Y0333273D01*
X0253779Y0333208D01*
X0253901Y0333138D01*
X0254020Y0333065D01*
X0254138Y0332989D01*
X0254253Y0332910D01*
X0254366Y0332827D01*
X0254476Y0332741D01*
X0254584Y0332652D01*
X0254689Y0332560D01*
X0254792Y0332465D01*
X0254892Y0332367D01*
X0254989Y0332267D01*
X0255083Y0332163D01*
X0255175Y0332057D01*
X0255263Y0331949D01*
X0255348Y0331838D01*
X0255430Y0331724D01*
X0255509Y0331608D01*
X0255584Y0331491D01*
X0255656Y0331371D01*
X0255724Y0331249D01*
X0255789Y0331125D01*
X0255851Y0330999D01*
X0255909Y0330872D01*
X0255963Y0330743D01*
X0256014Y0330612D01*
X0256060Y0330480D01*
X0256103Y0330347D01*
X0256143Y0330213D01*
X0256178Y0330078D01*
X0256210Y0329941D01*
X0256237Y0329804D01*
X0256261Y0329666D01*
X0256281Y0329528D01*
X0256297Y0329389D01*
X0256309Y0329249D01*
X0256317Y0329110D01*
X0256321Y0328970D01*
X0256321Y0328830D01*
X0256317Y0328690D01*
X0256309Y0328551D01*
X0256297Y0328411D01*
X0256281Y0328272D01*
X0256261Y0328134D01*
X0256237Y0327996D01*
X0256210Y0327859D01*
X0256178Y0327722D01*
X0256143Y0327587D01*
X0256103Y0327453D01*
X0256060Y0327320D01*
X0256014Y0327188D01*
X0255963Y0327057D01*
X0255909Y0326928D01*
X0255851Y0326801D01*
X0255789Y0326675D01*
X0255724Y0326551D01*
X0255656Y0326429D01*
X0255584Y0326309D01*
X0255509Y0326192D01*
X0255430Y0326076D01*
X0255348Y0325962D01*
X0255263Y0325851D01*
X0255175Y0325743D01*
X0255083Y0325637D01*
X0254989Y0325533D01*
X0254892Y0325433D01*
X0254792Y0325335D01*
X0254689Y0325240D01*
X0254584Y0325148D01*
X0254476Y0325059D01*
X0254366Y0324973D01*
X0254253Y0324890D01*
X0254138Y0324811D01*
X0254020Y0324735D01*
X0253901Y0324662D01*
X0253779Y0324592D01*
X0253656Y0324527D01*
X0253531Y0324464D01*
X0253404Y0324405D01*
X0253275Y0324350D01*
X0253145Y0324299D01*
X0253014Y0324251D01*
X0252881Y0324207D01*
X0252747Y0324167D01*
X0252612Y0324130D01*
X0252476Y0324098D01*
X0252339Y0324069D01*
X0252201Y0324045D01*
X0252063Y0324024D01*
X0251924Y0324007D01*
X0251784Y0323994D01*
X0251645Y0323985D01*
X0251505Y0323980D01*
X0251365Y0323979D01*
X0251225Y0323982D01*
X0251085Y0323989D01*
X0250946Y0324000D01*
X0250807Y0324015D01*
X0250668Y0324034D01*
X0250530Y0324056D01*
X0250393Y0324083D01*
X0250256Y0324114D01*
X0250121Y0324148D01*
X0249986Y0324186D01*
X0249853Y0324229D01*
X0249721Y0324274D01*
X0249590Y0324324D01*
X0249460Y0324377D01*
X0249333Y0324434D01*
X0249207Y0324495D01*
X0249082Y0324559D01*
X0248960Y0324627D01*
X0248839Y0324698D01*
X0248721Y0324772D01*
X0248605Y0324850D01*
X0248491Y0324931D01*
X0248379Y0325016D01*
X0248270Y0325103D01*
X0248163Y0325193D01*
X0248059Y0325287D01*
X0247958Y0325383D01*
X0247859Y0325483D01*
X0247763Y0325585D01*
X0247671Y0325689D01*
X0247581Y0325797D01*
X0247494Y0325907D01*
X0247411Y0326019D01*
X0247330Y0326133D01*
X0247253Y0326250D01*
X0247180Y0326369D01*
X0247109Y0326490D01*
X0247043Y0326613D01*
X0246979Y0326738D01*
X0246920Y0326864D01*
X0246864Y0326993D01*
X0246811Y0327122D01*
X0246763Y0327253D01*
X0246718Y0327386D01*
X0246677Y0327520D01*
X0246639Y0327655D01*
X0246606Y0327790D01*
X0246576Y0327927D01*
X0246550Y0328065D01*
X0246529Y0328203D01*
X0246511Y0328342D01*
X0246497Y0328481D01*
X0246487Y0328620D01*
X0246481Y0328760D01*
X0246479Y0328900D01*
X0259675Y0327867D02*
X0260242Y0327300D01*
X0261377Y0327300D01*
X0261944Y0327867D01*
X0261944Y0329001D01*
X0260810Y0329001D01*
X0259675Y0327867D02*
X0259675Y0330136D01*
X0260242Y0330703D01*
X0261377Y0330703D01*
X0261944Y0330136D01*
X0263358Y0330703D02*
X0265627Y0327300D01*
X0265627Y0330703D01*
X0267042Y0330703D02*
X0268743Y0330703D01*
X0269310Y0330136D01*
X0269310Y0327867D01*
X0268743Y0327300D01*
X0267042Y0327300D01*
X0267042Y0330703D01*
X0263358Y0330703D02*
X0263358Y0327300D01*
X0268700Y0318700D02*
X0266200Y0316200D01*
X0266200Y0311200D01*
X0268700Y0308700D01*
X0273700Y0308700D01*
X0276200Y0311200D01*
X0276200Y0316200D01*
X0273700Y0318700D01*
X0268700Y0318700D01*
X0265169Y0312200D02*
X0262900Y0312200D01*
X0264034Y0312200D02*
X0264034Y0315603D01*
X0262900Y0314469D01*
X0261930Y0309330D02*
X0244213Y0309330D01*
X0240670Y0305787D01*
X0240670Y0301456D01*
X0240670Y0295944D02*
X0240670Y0291613D01*
X0244213Y0288070D01*
X0261930Y0288070D01*
X0261930Y0295900D01*
X0261930Y0301500D02*
X0261930Y0309330D01*
X0257935Y0310600D02*
X0255666Y0310600D01*
X0256801Y0310600D02*
X0256801Y0314003D01*
X0255666Y0312869D01*
X0254252Y0310600D02*
X0251983Y0310600D01*
X0253117Y0310600D02*
X0253117Y0314003D01*
X0251983Y0312869D01*
X0250569Y0313436D02*
X0250001Y0314003D01*
X0248867Y0314003D01*
X0248300Y0313436D01*
X0248300Y0311167D01*
X0248867Y0310600D01*
X0250001Y0310600D01*
X0250569Y0311167D01*
X0237862Y0295869D02*
X0237862Y0292869D01*
X0239362Y0294369D02*
X0236362Y0294369D01*
X0230917Y0289903D02*
X0230917Y0286500D01*
X0229783Y0286500D02*
X0232052Y0286500D01*
X0231400Y0285400D02*
X0233900Y0282900D01*
X0233900Y0277900D01*
X0231400Y0275400D01*
X0226400Y0275400D01*
X0223900Y0277900D01*
X0223900Y0282900D01*
X0226400Y0285400D01*
X0231400Y0285400D01*
X0228369Y0286500D02*
X0228369Y0288769D01*
X0227234Y0289903D01*
X0226100Y0288769D01*
X0226100Y0286500D01*
X0226100Y0288201D02*
X0228369Y0288201D01*
X0229783Y0288769D02*
X0230917Y0289903D01*
X0240670Y0282787D02*
X0240670Y0278456D01*
X0240670Y0282787D02*
X0244213Y0286330D01*
X0261930Y0286330D01*
X0261930Y0278500D01*
X0261930Y0272900D02*
X0261930Y0265070D01*
X0244213Y0265070D01*
X0240670Y0268613D01*
X0240670Y0272944D01*
X0239362Y0271369D02*
X0236362Y0271369D01*
X0237862Y0272869D02*
X0237862Y0269869D01*
X0231952Y0266836D02*
X0231385Y0267403D01*
X0230250Y0267403D01*
X0229683Y0266836D01*
X0228269Y0266269D02*
X0228269Y0264000D01*
X0229683Y0264000D02*
X0231952Y0266269D01*
X0231952Y0266836D01*
X0231952Y0264000D02*
X0229683Y0264000D01*
X0231500Y0262900D02*
X0234000Y0260400D01*
X0234000Y0255400D01*
X0231500Y0252900D01*
X0226500Y0252900D01*
X0224000Y0255400D01*
X0224000Y0260400D01*
X0226500Y0262900D01*
X0231500Y0262900D01*
X0228269Y0265701D02*
X0226000Y0265701D01*
X0226000Y0266269D02*
X0226000Y0264000D01*
X0226000Y0266269D02*
X0227134Y0267403D01*
X0228269Y0266269D01*
X0227534Y0251503D02*
X0228669Y0250369D01*
X0228669Y0248100D01*
X0230083Y0248667D02*
X0230650Y0248100D01*
X0231785Y0248100D01*
X0232352Y0248667D01*
X0232352Y0249234D01*
X0231785Y0249801D01*
X0231217Y0249801D01*
X0231785Y0249801D02*
X0232352Y0250369D01*
X0232352Y0250936D01*
X0231785Y0251503D01*
X0230650Y0251503D01*
X0230083Y0250936D01*
X0228669Y0249801D02*
X0226400Y0249801D01*
X0226400Y0250369D02*
X0227534Y0251503D01*
X0226400Y0250369D02*
X0226400Y0248100D01*
X0226700Y0246800D02*
X0224200Y0244300D01*
X0224200Y0239300D01*
X0226700Y0236800D01*
X0231700Y0236800D01*
X0234200Y0239300D01*
X0234200Y0244300D01*
X0231700Y0246800D01*
X0226700Y0246800D01*
X0240670Y0242787D02*
X0240670Y0238456D01*
X0240670Y0232944D02*
X0240670Y0228613D01*
X0244213Y0225070D01*
X0261930Y0225070D01*
X0261930Y0232900D01*
X0261930Y0238500D02*
X0261930Y0246330D01*
X0244213Y0246330D01*
X0240670Y0242787D01*
X0247700Y0247967D02*
X0248267Y0247400D01*
X0249401Y0247400D01*
X0249969Y0247967D01*
X0251383Y0247400D02*
X0253652Y0247400D01*
X0252517Y0247400D02*
X0252517Y0250803D01*
X0251383Y0249669D01*
X0249969Y0250236D02*
X0249401Y0250803D01*
X0248267Y0250803D01*
X0247700Y0250236D01*
X0247700Y0247967D01*
X0255066Y0247967D02*
X0255633Y0247400D01*
X0256768Y0247400D01*
X0257335Y0247967D01*
X0257335Y0248534D01*
X0256768Y0249101D01*
X0256201Y0249101D01*
X0256768Y0249101D02*
X0257335Y0249669D01*
X0257335Y0250236D01*
X0256768Y0250803D01*
X0255633Y0250803D01*
X0255066Y0250236D01*
X0262800Y0249967D02*
X0263367Y0249400D01*
X0264501Y0249400D01*
X0265069Y0249967D01*
X0265069Y0250534D01*
X0264501Y0251101D01*
X0263934Y0251101D01*
X0264501Y0251101D02*
X0265069Y0251669D01*
X0265069Y0252236D01*
X0264501Y0252803D01*
X0263367Y0252803D01*
X0262800Y0252236D01*
X0266200Y0253300D02*
X0266200Y0248300D01*
X0268700Y0245800D01*
X0273700Y0245800D01*
X0276200Y0248300D01*
X0276200Y0253300D01*
X0273700Y0255800D01*
X0268700Y0255800D01*
X0266200Y0253300D01*
X0268700Y0255800D02*
X0273700Y0255800D01*
X0276200Y0258300D01*
X0276200Y0263300D01*
X0273700Y0265800D01*
X0268700Y0265800D01*
X0266200Y0263300D01*
X0266200Y0258300D01*
X0268700Y0255800D01*
X0265069Y0259300D02*
X0262800Y0259300D01*
X0265069Y0261569D01*
X0265069Y0262136D01*
X0264501Y0262703D01*
X0263367Y0262703D01*
X0262800Y0262136D01*
X0257835Y0262669D02*
X0257835Y0263236D01*
X0257268Y0263803D01*
X0256133Y0263803D01*
X0255566Y0263236D01*
X0257835Y0262669D02*
X0255566Y0260400D01*
X0257835Y0260400D01*
X0254152Y0260400D02*
X0251883Y0260400D01*
X0253017Y0260400D02*
X0253017Y0263803D01*
X0251883Y0262669D01*
X0250469Y0263236D02*
X0249901Y0263803D01*
X0248767Y0263803D01*
X0248200Y0263236D01*
X0248200Y0260967D01*
X0248767Y0260400D01*
X0249901Y0260400D01*
X0250469Y0260967D01*
X0272100Y0274500D02*
X0272100Y0277903D01*
X0273801Y0277903D01*
X0274369Y0277336D01*
X0274369Y0276201D01*
X0273801Y0275634D01*
X0272100Y0275634D01*
X0273234Y0275634D02*
X0274369Y0274500D01*
X0275783Y0274500D02*
X0278052Y0274500D01*
X0276917Y0274500D02*
X0276917Y0277903D01*
X0275783Y0276769D01*
X0275783Y0280000D02*
X0278052Y0280000D01*
X0276917Y0280000D02*
X0276917Y0283403D01*
X0275783Y0282269D01*
X0274369Y0282836D02*
X0274369Y0281701D01*
X0273801Y0281134D01*
X0272100Y0281134D01*
X0272100Y0280000D02*
X0272100Y0283403D01*
X0273801Y0283403D01*
X0274369Y0282836D01*
X0273234Y0281134D02*
X0274369Y0280000D01*
X0279466Y0280567D02*
X0280033Y0280000D01*
X0281168Y0280000D01*
X0281735Y0280567D01*
X0281735Y0281701D01*
X0281168Y0282269D01*
X0280601Y0282269D01*
X0279466Y0281701D01*
X0279466Y0283403D01*
X0281735Y0283403D01*
X0281168Y0277903D02*
X0281735Y0277336D01*
X0281735Y0276769D01*
X0281168Y0276201D01*
X0281735Y0275634D01*
X0281735Y0275067D01*
X0281168Y0274500D01*
X0280033Y0274500D01*
X0279466Y0275067D01*
X0280601Y0276201D02*
X0281168Y0276201D01*
X0281168Y0277903D02*
X0280033Y0277903D01*
X0279466Y0277336D01*
X0278352Y0291900D02*
X0276083Y0291900D01*
X0277217Y0291900D02*
X0277217Y0295303D01*
X0276083Y0294169D01*
X0274669Y0294736D02*
X0274669Y0293601D01*
X0274101Y0293034D01*
X0272400Y0293034D01*
X0272400Y0291900D02*
X0272400Y0295303D01*
X0274101Y0295303D01*
X0274669Y0294736D01*
X0274669Y0296500D02*
X0273534Y0297634D01*
X0274101Y0297634D02*
X0272400Y0297634D01*
X0272400Y0296500D02*
X0272400Y0299903D01*
X0274101Y0299903D01*
X0274669Y0299336D01*
X0274669Y0298201D01*
X0274101Y0297634D01*
X0276083Y0296500D02*
X0278352Y0296500D01*
X0277217Y0296500D02*
X0277217Y0299903D01*
X0276083Y0298769D01*
X0279766Y0299336D02*
X0280333Y0299903D01*
X0281468Y0299903D01*
X0282035Y0299336D01*
X0282035Y0298769D01*
X0279766Y0296500D01*
X0282035Y0296500D01*
X0281468Y0295303D02*
X0281468Y0291900D01*
X0282035Y0293601D02*
X0279766Y0293601D01*
X0281468Y0295303D01*
X0274669Y0291900D02*
X0273534Y0293034D01*
X0279667Y0313100D02*
X0280801Y0313100D01*
X0281369Y0313667D01*
X0282783Y0313100D02*
X0285052Y0313100D01*
X0283917Y0313100D02*
X0283917Y0316503D01*
X0282783Y0315369D01*
X0281369Y0315936D02*
X0280801Y0316503D01*
X0279667Y0316503D01*
X0279100Y0315936D01*
X0279100Y0313667D01*
X0279667Y0313100D01*
X0286466Y0313667D02*
X0287033Y0313100D01*
X0288168Y0313100D01*
X0288735Y0313667D01*
X0288735Y0315936D01*
X0288168Y0316503D01*
X0287033Y0316503D01*
X0286466Y0315936D01*
X0286466Y0315369D01*
X0287033Y0314801D01*
X0288735Y0314801D01*
X0272779Y0328900D02*
X0272781Y0329040D01*
X0272787Y0329180D01*
X0272797Y0329319D01*
X0272811Y0329458D01*
X0272829Y0329597D01*
X0272850Y0329735D01*
X0272876Y0329873D01*
X0272906Y0330010D01*
X0272939Y0330145D01*
X0272977Y0330280D01*
X0273018Y0330414D01*
X0273063Y0330547D01*
X0273111Y0330678D01*
X0273164Y0330807D01*
X0273220Y0330936D01*
X0273279Y0331062D01*
X0273343Y0331187D01*
X0273409Y0331310D01*
X0273480Y0331431D01*
X0273553Y0331550D01*
X0273630Y0331667D01*
X0273711Y0331781D01*
X0273794Y0331893D01*
X0273881Y0332003D01*
X0273971Y0332111D01*
X0274063Y0332215D01*
X0274159Y0332317D01*
X0274258Y0332417D01*
X0274359Y0332513D01*
X0274463Y0332607D01*
X0274570Y0332697D01*
X0274679Y0332784D01*
X0274791Y0332869D01*
X0274905Y0332950D01*
X0275021Y0333028D01*
X0275139Y0333102D01*
X0275260Y0333173D01*
X0275382Y0333241D01*
X0275507Y0333305D01*
X0275633Y0333366D01*
X0275760Y0333423D01*
X0275890Y0333476D01*
X0276021Y0333526D01*
X0276153Y0333571D01*
X0276286Y0333614D01*
X0276421Y0333652D01*
X0276556Y0333686D01*
X0276693Y0333717D01*
X0276830Y0333744D01*
X0276968Y0333766D01*
X0277107Y0333785D01*
X0277246Y0333800D01*
X0277385Y0333811D01*
X0277525Y0333818D01*
X0277665Y0333821D01*
X0277805Y0333820D01*
X0277945Y0333815D01*
X0278084Y0333806D01*
X0278224Y0333793D01*
X0278363Y0333776D01*
X0278501Y0333755D01*
X0278639Y0333731D01*
X0278776Y0333702D01*
X0278912Y0333670D01*
X0279047Y0333633D01*
X0279181Y0333593D01*
X0279314Y0333549D01*
X0279445Y0333501D01*
X0279575Y0333450D01*
X0279704Y0333395D01*
X0279831Y0333336D01*
X0279956Y0333273D01*
X0280079Y0333208D01*
X0280201Y0333138D01*
X0280320Y0333065D01*
X0280438Y0332989D01*
X0280553Y0332910D01*
X0280666Y0332827D01*
X0280776Y0332741D01*
X0280884Y0332652D01*
X0280989Y0332560D01*
X0281092Y0332465D01*
X0281192Y0332367D01*
X0281289Y0332267D01*
X0281383Y0332163D01*
X0281475Y0332057D01*
X0281563Y0331949D01*
X0281648Y0331838D01*
X0281730Y0331724D01*
X0281809Y0331608D01*
X0281884Y0331491D01*
X0281956Y0331371D01*
X0282024Y0331249D01*
X0282089Y0331125D01*
X0282151Y0330999D01*
X0282209Y0330872D01*
X0282263Y0330743D01*
X0282314Y0330612D01*
X0282360Y0330480D01*
X0282403Y0330347D01*
X0282443Y0330213D01*
X0282478Y0330078D01*
X0282510Y0329941D01*
X0282537Y0329804D01*
X0282561Y0329666D01*
X0282581Y0329528D01*
X0282597Y0329389D01*
X0282609Y0329249D01*
X0282617Y0329110D01*
X0282621Y0328970D01*
X0282621Y0328830D01*
X0282617Y0328690D01*
X0282609Y0328551D01*
X0282597Y0328411D01*
X0282581Y0328272D01*
X0282561Y0328134D01*
X0282537Y0327996D01*
X0282510Y0327859D01*
X0282478Y0327722D01*
X0282443Y0327587D01*
X0282403Y0327453D01*
X0282360Y0327320D01*
X0282314Y0327188D01*
X0282263Y0327057D01*
X0282209Y0326928D01*
X0282151Y0326801D01*
X0282089Y0326675D01*
X0282024Y0326551D01*
X0281956Y0326429D01*
X0281884Y0326309D01*
X0281809Y0326192D01*
X0281730Y0326076D01*
X0281648Y0325962D01*
X0281563Y0325851D01*
X0281475Y0325743D01*
X0281383Y0325637D01*
X0281289Y0325533D01*
X0281192Y0325433D01*
X0281092Y0325335D01*
X0280989Y0325240D01*
X0280884Y0325148D01*
X0280776Y0325059D01*
X0280666Y0324973D01*
X0280553Y0324890D01*
X0280438Y0324811D01*
X0280320Y0324735D01*
X0280201Y0324662D01*
X0280079Y0324592D01*
X0279956Y0324527D01*
X0279831Y0324464D01*
X0279704Y0324405D01*
X0279575Y0324350D01*
X0279445Y0324299D01*
X0279314Y0324251D01*
X0279181Y0324207D01*
X0279047Y0324167D01*
X0278912Y0324130D01*
X0278776Y0324098D01*
X0278639Y0324069D01*
X0278501Y0324045D01*
X0278363Y0324024D01*
X0278224Y0324007D01*
X0278084Y0323994D01*
X0277945Y0323985D01*
X0277805Y0323980D01*
X0277665Y0323979D01*
X0277525Y0323982D01*
X0277385Y0323989D01*
X0277246Y0324000D01*
X0277107Y0324015D01*
X0276968Y0324034D01*
X0276830Y0324056D01*
X0276693Y0324083D01*
X0276556Y0324114D01*
X0276421Y0324148D01*
X0276286Y0324186D01*
X0276153Y0324229D01*
X0276021Y0324274D01*
X0275890Y0324324D01*
X0275760Y0324377D01*
X0275633Y0324434D01*
X0275507Y0324495D01*
X0275382Y0324559D01*
X0275260Y0324627D01*
X0275139Y0324698D01*
X0275021Y0324772D01*
X0274905Y0324850D01*
X0274791Y0324931D01*
X0274679Y0325016D01*
X0274570Y0325103D01*
X0274463Y0325193D01*
X0274359Y0325287D01*
X0274258Y0325383D01*
X0274159Y0325483D01*
X0274063Y0325585D01*
X0273971Y0325689D01*
X0273881Y0325797D01*
X0273794Y0325907D01*
X0273711Y0326019D01*
X0273630Y0326133D01*
X0273553Y0326250D01*
X0273480Y0326369D01*
X0273409Y0326490D01*
X0273343Y0326613D01*
X0273279Y0326738D01*
X0273220Y0326864D01*
X0273164Y0326993D01*
X0273111Y0327122D01*
X0273063Y0327253D01*
X0273018Y0327386D01*
X0272977Y0327520D01*
X0272939Y0327655D01*
X0272906Y0327790D01*
X0272876Y0327927D01*
X0272850Y0328065D01*
X0272829Y0328203D01*
X0272811Y0328342D01*
X0272797Y0328481D01*
X0272787Y0328620D01*
X0272781Y0328760D01*
X0272779Y0328900D01*
X0280267Y0261503D02*
X0279700Y0260936D01*
X0279700Y0258667D01*
X0280267Y0258100D01*
X0281401Y0258100D01*
X0281969Y0258667D01*
X0283383Y0258100D02*
X0285652Y0260369D01*
X0285652Y0260936D01*
X0285085Y0261503D01*
X0283950Y0261503D01*
X0283383Y0260936D01*
X0281969Y0260936D02*
X0281401Y0261503D01*
X0280267Y0261503D01*
X0283383Y0258100D02*
X0285652Y0258100D01*
X0287066Y0258667D02*
X0289335Y0260936D01*
X0289335Y0258667D01*
X0288768Y0258100D01*
X0287633Y0258100D01*
X0287066Y0258667D01*
X0287066Y0260936D01*
X0287633Y0261503D01*
X0288768Y0261503D01*
X0289335Y0260936D01*
X0289235Y0253503D02*
X0286966Y0253503D01*
X0286966Y0251801D01*
X0288101Y0252369D01*
X0288668Y0252369D01*
X0289235Y0251801D01*
X0289235Y0250667D01*
X0288668Y0250100D01*
X0287533Y0250100D01*
X0286966Y0250667D01*
X0285552Y0250100D02*
X0283283Y0250100D01*
X0284417Y0250100D02*
X0284417Y0253503D01*
X0283283Y0252369D01*
X0281869Y0252936D02*
X0281301Y0253503D01*
X0280167Y0253503D01*
X0279600Y0252936D01*
X0279600Y0250667D01*
X0280167Y0250100D01*
X0281301Y0250100D01*
X0281869Y0250667D01*
X0281735Y0236903D02*
X0280601Y0236336D01*
X0279466Y0235201D01*
X0281168Y0235201D01*
X0281735Y0234634D01*
X0281735Y0234067D01*
X0281168Y0233500D01*
X0280033Y0233500D01*
X0279466Y0234067D01*
X0279466Y0235201D01*
X0278052Y0233500D02*
X0275783Y0233500D01*
X0276917Y0233500D02*
X0276917Y0236903D01*
X0275783Y0235769D01*
X0274369Y0236336D02*
X0274369Y0235201D01*
X0273801Y0234634D01*
X0272100Y0234634D01*
X0272100Y0233500D02*
X0272100Y0236903D01*
X0273801Y0236903D01*
X0274369Y0236336D01*
X0273234Y0234634D02*
X0274369Y0233500D01*
X0273801Y0231803D02*
X0274369Y0231236D01*
X0274369Y0230101D01*
X0273801Y0229534D01*
X0272100Y0229534D01*
X0272100Y0228400D02*
X0272100Y0231803D01*
X0273801Y0231803D01*
X0275783Y0230669D02*
X0276917Y0231803D01*
X0276917Y0228400D01*
X0275783Y0228400D02*
X0278052Y0228400D01*
X0279466Y0228967D02*
X0279466Y0229534D01*
X0280033Y0230101D01*
X0281168Y0230101D01*
X0281735Y0229534D01*
X0281735Y0228967D01*
X0281168Y0228400D01*
X0280033Y0228400D01*
X0279466Y0228967D01*
X0280033Y0230101D02*
X0279466Y0230669D01*
X0279466Y0231236D01*
X0280033Y0231803D01*
X0281168Y0231803D01*
X0281735Y0231236D01*
X0281735Y0230669D01*
X0281168Y0230101D01*
X0274369Y0228400D02*
X0273234Y0229534D01*
X0239362Y0231369D02*
X0236362Y0231369D01*
X0237862Y0232869D02*
X0237862Y0229869D01*
X0232152Y0227201D02*
X0229883Y0227201D01*
X0231585Y0228903D01*
X0231585Y0225500D01*
X0228469Y0225500D02*
X0228469Y0227769D01*
X0227334Y0228903D01*
X0226200Y0227769D01*
X0226200Y0225500D01*
X0226200Y0227201D02*
X0228469Y0227201D01*
X0220800Y0178400D02*
X0220800Y0175400D01*
X0219300Y0176900D02*
X0222300Y0176900D01*
X0226800Y0171500D02*
X0224300Y0169000D01*
X0224300Y0164000D01*
X0226800Y0161500D01*
X0231800Y0161500D01*
X0234300Y0164000D01*
X0234300Y0169000D01*
X0231800Y0171500D01*
X0226800Y0171500D01*
X0236362Y0168369D02*
X0239362Y0168369D01*
X0237862Y0169869D02*
X0237862Y0166869D01*
X0232252Y0160603D02*
X0229983Y0160603D01*
X0229983Y0158901D01*
X0231117Y0159469D01*
X0231685Y0159469D01*
X0232252Y0158901D01*
X0232252Y0157767D01*
X0231685Y0157200D01*
X0230550Y0157200D01*
X0229983Y0157767D01*
X0228569Y0157200D02*
X0228569Y0159469D01*
X0227434Y0160603D01*
X0226300Y0159469D01*
X0226300Y0157200D01*
X0226300Y0158901D02*
X0228569Y0158901D01*
X0226800Y0148400D02*
X0224300Y0145900D01*
X0224300Y0140900D01*
X0226800Y0138400D01*
X0231800Y0138400D01*
X0234300Y0140900D01*
X0234300Y0145900D01*
X0231800Y0148400D01*
X0226800Y0148400D01*
X0236362Y0145369D02*
X0239362Y0145369D01*
X0240670Y0146944D02*
X0240670Y0142613D01*
X0244213Y0139070D01*
X0261930Y0139070D01*
X0261930Y0146900D01*
X0261930Y0152500D02*
X0261930Y0160330D01*
X0244213Y0160330D01*
X0240670Y0156787D01*
X0240670Y0152456D01*
X0237862Y0146869D02*
X0237862Y0143869D01*
X0231952Y0137203D02*
X0230817Y0136636D01*
X0229683Y0135501D01*
X0231385Y0135501D01*
X0231952Y0134934D01*
X0231952Y0134367D01*
X0231385Y0133800D01*
X0230250Y0133800D01*
X0229683Y0134367D01*
X0229683Y0135501D01*
X0228269Y0135501D02*
X0226000Y0135501D01*
X0226000Y0136069D02*
X0227134Y0137203D01*
X0228269Y0136069D01*
X0228269Y0133800D01*
X0226000Y0133800D02*
X0226000Y0136069D01*
X0244213Y0120330D02*
X0240670Y0116787D01*
X0240670Y0112456D01*
X0240670Y0106944D02*
X0240670Y0102613D01*
X0244213Y0099070D01*
X0261930Y0099070D01*
X0261930Y0106900D01*
X0261930Y0112500D02*
X0261930Y0120330D01*
X0244213Y0120330D01*
X0248600Y0121767D02*
X0248600Y0124036D01*
X0249167Y0124603D01*
X0250301Y0124603D01*
X0250869Y0124036D01*
X0252283Y0124036D02*
X0252850Y0124603D01*
X0253985Y0124603D01*
X0254552Y0124036D01*
X0254552Y0123469D01*
X0252283Y0121200D01*
X0254552Y0121200D01*
X0255966Y0121767D02*
X0256533Y0121200D01*
X0257668Y0121200D01*
X0258235Y0121767D01*
X0258235Y0122334D01*
X0257668Y0122901D01*
X0257101Y0122901D01*
X0257668Y0122901D02*
X0258235Y0123469D01*
X0258235Y0124036D01*
X0257668Y0124603D01*
X0256533Y0124603D01*
X0255966Y0124036D01*
X0250869Y0121767D02*
X0250301Y0121200D01*
X0249167Y0121200D01*
X0248600Y0121767D01*
X0248767Y0134400D02*
X0249901Y0134400D01*
X0250469Y0134967D01*
X0251883Y0134400D02*
X0254152Y0134400D01*
X0253017Y0134400D02*
X0253017Y0137803D01*
X0251883Y0136669D01*
X0250469Y0137236D02*
X0249901Y0137803D01*
X0248767Y0137803D01*
X0248200Y0137236D01*
X0248200Y0134967D01*
X0248767Y0134400D01*
X0255566Y0134967D02*
X0256133Y0134400D01*
X0257268Y0134400D01*
X0257835Y0134967D01*
X0257835Y0135534D01*
X0257268Y0136101D01*
X0256133Y0136101D01*
X0255566Y0136669D01*
X0255566Y0137236D01*
X0256133Y0137803D01*
X0257268Y0137803D01*
X0257835Y0137236D01*
X0257835Y0136669D01*
X0257268Y0136101D01*
X0256133Y0136101D02*
X0255566Y0135534D01*
X0255566Y0134967D01*
X0262900Y0134201D02*
X0264601Y0134201D01*
X0265169Y0133634D01*
X0265169Y0133067D01*
X0264601Y0132500D01*
X0263467Y0132500D01*
X0262900Y0133067D01*
X0262900Y0134201D01*
X0264034Y0135336D01*
X0265169Y0135903D01*
X0265269Y0126403D02*
X0263000Y0126403D01*
X0265269Y0126403D02*
X0265269Y0125836D01*
X0263000Y0123567D01*
X0263000Y0123000D01*
X0239362Y0105369D02*
X0236362Y0105369D01*
X0234300Y0105800D02*
X0234300Y0100800D01*
X0231800Y0098300D01*
X0226800Y0098300D01*
X0224300Y0100800D01*
X0224300Y0105800D01*
X0226800Y0108300D01*
X0231800Y0108300D01*
X0234300Y0105800D01*
X0237862Y0106869D02*
X0237862Y0103869D01*
X0232252Y0097203D02*
X0232252Y0096636D01*
X0229983Y0094367D01*
X0229983Y0093800D01*
X0228569Y0093800D02*
X0228569Y0096069D01*
X0227434Y0097203D01*
X0226300Y0096069D01*
X0226300Y0093800D01*
X0226300Y0095501D02*
X0228569Y0095501D01*
X0229983Y0097203D02*
X0232252Y0097203D01*
X0274369Y0165400D02*
X0273234Y0166534D01*
D12*
X0089200Y0043600D02*
X0089200Y0037200D01*
X0082600Y0037200D01*
X0082600Y0043600D01*
X0089200Y0043600D01*
X0089200Y0043193D02*
X0082600Y0043193D01*
X0082600Y0041594D02*
X0089200Y0041594D01*
X0089200Y0039996D02*
X0082600Y0039996D01*
X0082600Y0038397D02*
X0089200Y0038397D01*
D13*
X0021111Y0035200D02*
X0009300Y0047011D01*
X0009300Y0338350D01*
X0021111Y0350161D01*
X0312450Y0350161D01*
X0324261Y0338350D01*
X0324261Y0047011D01*
X0312450Y0035200D01*
X0021111Y0035200D01*
X0018749Y0050948D02*
X0018751Y0051106D01*
X0018757Y0051264D01*
X0018767Y0051422D01*
X0018781Y0051580D01*
X0018799Y0051737D01*
X0018820Y0051894D01*
X0018846Y0052050D01*
X0018876Y0052206D01*
X0018909Y0052361D01*
X0018947Y0052514D01*
X0018988Y0052667D01*
X0019033Y0052819D01*
X0019082Y0052970D01*
X0019135Y0053119D01*
X0019191Y0053267D01*
X0019251Y0053413D01*
X0019315Y0053558D01*
X0019383Y0053701D01*
X0019454Y0053843D01*
X0019528Y0053983D01*
X0019606Y0054120D01*
X0019688Y0054256D01*
X0019772Y0054390D01*
X0019861Y0054521D01*
X0019952Y0054650D01*
X0020047Y0054777D01*
X0020144Y0054902D01*
X0020245Y0055024D01*
X0020349Y0055143D01*
X0020456Y0055260D01*
X0020566Y0055374D01*
X0020679Y0055485D01*
X0020794Y0055594D01*
X0020912Y0055699D01*
X0021033Y0055801D01*
X0021156Y0055901D01*
X0021282Y0055997D01*
X0021410Y0056090D01*
X0021540Y0056180D01*
X0021673Y0056266D01*
X0021808Y0056350D01*
X0021944Y0056429D01*
X0022083Y0056506D01*
X0022224Y0056578D01*
X0022366Y0056648D01*
X0022510Y0056713D01*
X0022656Y0056775D01*
X0022803Y0056833D01*
X0022952Y0056888D01*
X0023102Y0056939D01*
X0023253Y0056986D01*
X0023405Y0057029D01*
X0023558Y0057068D01*
X0023713Y0057104D01*
X0023868Y0057135D01*
X0024024Y0057163D01*
X0024180Y0057187D01*
X0024337Y0057207D01*
X0024495Y0057223D01*
X0024652Y0057235D01*
X0024811Y0057243D01*
X0024969Y0057247D01*
X0025127Y0057247D01*
X0025285Y0057243D01*
X0025444Y0057235D01*
X0025601Y0057223D01*
X0025759Y0057207D01*
X0025916Y0057187D01*
X0026072Y0057163D01*
X0026228Y0057135D01*
X0026383Y0057104D01*
X0026538Y0057068D01*
X0026691Y0057029D01*
X0026843Y0056986D01*
X0026994Y0056939D01*
X0027144Y0056888D01*
X0027293Y0056833D01*
X0027440Y0056775D01*
X0027586Y0056713D01*
X0027730Y0056648D01*
X0027872Y0056578D01*
X0028013Y0056506D01*
X0028152Y0056429D01*
X0028288Y0056350D01*
X0028423Y0056266D01*
X0028556Y0056180D01*
X0028686Y0056090D01*
X0028814Y0055997D01*
X0028940Y0055901D01*
X0029063Y0055801D01*
X0029184Y0055699D01*
X0029302Y0055594D01*
X0029417Y0055485D01*
X0029530Y0055374D01*
X0029640Y0055260D01*
X0029747Y0055143D01*
X0029851Y0055024D01*
X0029952Y0054902D01*
X0030049Y0054777D01*
X0030144Y0054650D01*
X0030235Y0054521D01*
X0030324Y0054390D01*
X0030408Y0054256D01*
X0030490Y0054120D01*
X0030568Y0053983D01*
X0030642Y0053843D01*
X0030713Y0053701D01*
X0030781Y0053558D01*
X0030845Y0053413D01*
X0030905Y0053267D01*
X0030961Y0053119D01*
X0031014Y0052970D01*
X0031063Y0052819D01*
X0031108Y0052667D01*
X0031149Y0052514D01*
X0031187Y0052361D01*
X0031220Y0052206D01*
X0031250Y0052050D01*
X0031276Y0051894D01*
X0031297Y0051737D01*
X0031315Y0051580D01*
X0031329Y0051422D01*
X0031339Y0051264D01*
X0031345Y0051106D01*
X0031347Y0050948D01*
X0031345Y0050790D01*
X0031339Y0050632D01*
X0031329Y0050474D01*
X0031315Y0050316D01*
X0031297Y0050159D01*
X0031276Y0050002D01*
X0031250Y0049846D01*
X0031220Y0049690D01*
X0031187Y0049535D01*
X0031149Y0049382D01*
X0031108Y0049229D01*
X0031063Y0049077D01*
X0031014Y0048926D01*
X0030961Y0048777D01*
X0030905Y0048629D01*
X0030845Y0048483D01*
X0030781Y0048338D01*
X0030713Y0048195D01*
X0030642Y0048053D01*
X0030568Y0047913D01*
X0030490Y0047776D01*
X0030408Y0047640D01*
X0030324Y0047506D01*
X0030235Y0047375D01*
X0030144Y0047246D01*
X0030049Y0047119D01*
X0029952Y0046994D01*
X0029851Y0046872D01*
X0029747Y0046753D01*
X0029640Y0046636D01*
X0029530Y0046522D01*
X0029417Y0046411D01*
X0029302Y0046302D01*
X0029184Y0046197D01*
X0029063Y0046095D01*
X0028940Y0045995D01*
X0028814Y0045899D01*
X0028686Y0045806D01*
X0028556Y0045716D01*
X0028423Y0045630D01*
X0028288Y0045546D01*
X0028152Y0045467D01*
X0028013Y0045390D01*
X0027872Y0045318D01*
X0027730Y0045248D01*
X0027586Y0045183D01*
X0027440Y0045121D01*
X0027293Y0045063D01*
X0027144Y0045008D01*
X0026994Y0044957D01*
X0026843Y0044910D01*
X0026691Y0044867D01*
X0026538Y0044828D01*
X0026383Y0044792D01*
X0026228Y0044761D01*
X0026072Y0044733D01*
X0025916Y0044709D01*
X0025759Y0044689D01*
X0025601Y0044673D01*
X0025444Y0044661D01*
X0025285Y0044653D01*
X0025127Y0044649D01*
X0024969Y0044649D01*
X0024811Y0044653D01*
X0024652Y0044661D01*
X0024495Y0044673D01*
X0024337Y0044689D01*
X0024180Y0044709D01*
X0024024Y0044733D01*
X0023868Y0044761D01*
X0023713Y0044792D01*
X0023558Y0044828D01*
X0023405Y0044867D01*
X0023253Y0044910D01*
X0023102Y0044957D01*
X0022952Y0045008D01*
X0022803Y0045063D01*
X0022656Y0045121D01*
X0022510Y0045183D01*
X0022366Y0045248D01*
X0022224Y0045318D01*
X0022083Y0045390D01*
X0021944Y0045467D01*
X0021808Y0045546D01*
X0021673Y0045630D01*
X0021540Y0045716D01*
X0021410Y0045806D01*
X0021282Y0045899D01*
X0021156Y0045995D01*
X0021033Y0046095D01*
X0020912Y0046197D01*
X0020794Y0046302D01*
X0020679Y0046411D01*
X0020566Y0046522D01*
X0020456Y0046636D01*
X0020349Y0046753D01*
X0020245Y0046872D01*
X0020144Y0046994D01*
X0020047Y0047119D01*
X0019952Y0047246D01*
X0019861Y0047375D01*
X0019772Y0047506D01*
X0019688Y0047640D01*
X0019606Y0047776D01*
X0019528Y0047913D01*
X0019454Y0048053D01*
X0019383Y0048195D01*
X0019315Y0048338D01*
X0019251Y0048483D01*
X0019191Y0048629D01*
X0019135Y0048777D01*
X0019082Y0048926D01*
X0019033Y0049077D01*
X0018988Y0049229D01*
X0018947Y0049382D01*
X0018909Y0049535D01*
X0018876Y0049690D01*
X0018846Y0049846D01*
X0018820Y0050002D01*
X0018799Y0050159D01*
X0018781Y0050316D01*
X0018767Y0050474D01*
X0018757Y0050632D01*
X0018751Y0050790D01*
X0018749Y0050948D01*
X0018749Y0334413D02*
X0018751Y0334571D01*
X0018757Y0334729D01*
X0018767Y0334887D01*
X0018781Y0335045D01*
X0018799Y0335202D01*
X0018820Y0335359D01*
X0018846Y0335515D01*
X0018876Y0335671D01*
X0018909Y0335826D01*
X0018947Y0335979D01*
X0018988Y0336132D01*
X0019033Y0336284D01*
X0019082Y0336435D01*
X0019135Y0336584D01*
X0019191Y0336732D01*
X0019251Y0336878D01*
X0019315Y0337023D01*
X0019383Y0337166D01*
X0019454Y0337308D01*
X0019528Y0337448D01*
X0019606Y0337585D01*
X0019688Y0337721D01*
X0019772Y0337855D01*
X0019861Y0337986D01*
X0019952Y0338115D01*
X0020047Y0338242D01*
X0020144Y0338367D01*
X0020245Y0338489D01*
X0020349Y0338608D01*
X0020456Y0338725D01*
X0020566Y0338839D01*
X0020679Y0338950D01*
X0020794Y0339059D01*
X0020912Y0339164D01*
X0021033Y0339266D01*
X0021156Y0339366D01*
X0021282Y0339462D01*
X0021410Y0339555D01*
X0021540Y0339645D01*
X0021673Y0339731D01*
X0021808Y0339815D01*
X0021944Y0339894D01*
X0022083Y0339971D01*
X0022224Y0340043D01*
X0022366Y0340113D01*
X0022510Y0340178D01*
X0022656Y0340240D01*
X0022803Y0340298D01*
X0022952Y0340353D01*
X0023102Y0340404D01*
X0023253Y0340451D01*
X0023405Y0340494D01*
X0023558Y0340533D01*
X0023713Y0340569D01*
X0023868Y0340600D01*
X0024024Y0340628D01*
X0024180Y0340652D01*
X0024337Y0340672D01*
X0024495Y0340688D01*
X0024652Y0340700D01*
X0024811Y0340708D01*
X0024969Y0340712D01*
X0025127Y0340712D01*
X0025285Y0340708D01*
X0025444Y0340700D01*
X0025601Y0340688D01*
X0025759Y0340672D01*
X0025916Y0340652D01*
X0026072Y0340628D01*
X0026228Y0340600D01*
X0026383Y0340569D01*
X0026538Y0340533D01*
X0026691Y0340494D01*
X0026843Y0340451D01*
X0026994Y0340404D01*
X0027144Y0340353D01*
X0027293Y0340298D01*
X0027440Y0340240D01*
X0027586Y0340178D01*
X0027730Y0340113D01*
X0027872Y0340043D01*
X0028013Y0339971D01*
X0028152Y0339894D01*
X0028288Y0339815D01*
X0028423Y0339731D01*
X0028556Y0339645D01*
X0028686Y0339555D01*
X0028814Y0339462D01*
X0028940Y0339366D01*
X0029063Y0339266D01*
X0029184Y0339164D01*
X0029302Y0339059D01*
X0029417Y0338950D01*
X0029530Y0338839D01*
X0029640Y0338725D01*
X0029747Y0338608D01*
X0029851Y0338489D01*
X0029952Y0338367D01*
X0030049Y0338242D01*
X0030144Y0338115D01*
X0030235Y0337986D01*
X0030324Y0337855D01*
X0030408Y0337721D01*
X0030490Y0337585D01*
X0030568Y0337448D01*
X0030642Y0337308D01*
X0030713Y0337166D01*
X0030781Y0337023D01*
X0030845Y0336878D01*
X0030905Y0336732D01*
X0030961Y0336584D01*
X0031014Y0336435D01*
X0031063Y0336284D01*
X0031108Y0336132D01*
X0031149Y0335979D01*
X0031187Y0335826D01*
X0031220Y0335671D01*
X0031250Y0335515D01*
X0031276Y0335359D01*
X0031297Y0335202D01*
X0031315Y0335045D01*
X0031329Y0334887D01*
X0031339Y0334729D01*
X0031345Y0334571D01*
X0031347Y0334413D01*
X0031345Y0334255D01*
X0031339Y0334097D01*
X0031329Y0333939D01*
X0031315Y0333781D01*
X0031297Y0333624D01*
X0031276Y0333467D01*
X0031250Y0333311D01*
X0031220Y0333155D01*
X0031187Y0333000D01*
X0031149Y0332847D01*
X0031108Y0332694D01*
X0031063Y0332542D01*
X0031014Y0332391D01*
X0030961Y0332242D01*
X0030905Y0332094D01*
X0030845Y0331948D01*
X0030781Y0331803D01*
X0030713Y0331660D01*
X0030642Y0331518D01*
X0030568Y0331378D01*
X0030490Y0331241D01*
X0030408Y0331105D01*
X0030324Y0330971D01*
X0030235Y0330840D01*
X0030144Y0330711D01*
X0030049Y0330584D01*
X0029952Y0330459D01*
X0029851Y0330337D01*
X0029747Y0330218D01*
X0029640Y0330101D01*
X0029530Y0329987D01*
X0029417Y0329876D01*
X0029302Y0329767D01*
X0029184Y0329662D01*
X0029063Y0329560D01*
X0028940Y0329460D01*
X0028814Y0329364D01*
X0028686Y0329271D01*
X0028556Y0329181D01*
X0028423Y0329095D01*
X0028288Y0329011D01*
X0028152Y0328932D01*
X0028013Y0328855D01*
X0027872Y0328783D01*
X0027730Y0328713D01*
X0027586Y0328648D01*
X0027440Y0328586D01*
X0027293Y0328528D01*
X0027144Y0328473D01*
X0026994Y0328422D01*
X0026843Y0328375D01*
X0026691Y0328332D01*
X0026538Y0328293D01*
X0026383Y0328257D01*
X0026228Y0328226D01*
X0026072Y0328198D01*
X0025916Y0328174D01*
X0025759Y0328154D01*
X0025601Y0328138D01*
X0025444Y0328126D01*
X0025285Y0328118D01*
X0025127Y0328114D01*
X0024969Y0328114D01*
X0024811Y0328118D01*
X0024652Y0328126D01*
X0024495Y0328138D01*
X0024337Y0328154D01*
X0024180Y0328174D01*
X0024024Y0328198D01*
X0023868Y0328226D01*
X0023713Y0328257D01*
X0023558Y0328293D01*
X0023405Y0328332D01*
X0023253Y0328375D01*
X0023102Y0328422D01*
X0022952Y0328473D01*
X0022803Y0328528D01*
X0022656Y0328586D01*
X0022510Y0328648D01*
X0022366Y0328713D01*
X0022224Y0328783D01*
X0022083Y0328855D01*
X0021944Y0328932D01*
X0021808Y0329011D01*
X0021673Y0329095D01*
X0021540Y0329181D01*
X0021410Y0329271D01*
X0021282Y0329364D01*
X0021156Y0329460D01*
X0021033Y0329560D01*
X0020912Y0329662D01*
X0020794Y0329767D01*
X0020679Y0329876D01*
X0020566Y0329987D01*
X0020456Y0330101D01*
X0020349Y0330218D01*
X0020245Y0330337D01*
X0020144Y0330459D01*
X0020047Y0330584D01*
X0019952Y0330711D01*
X0019861Y0330840D01*
X0019772Y0330971D01*
X0019688Y0331105D01*
X0019606Y0331241D01*
X0019528Y0331378D01*
X0019454Y0331518D01*
X0019383Y0331660D01*
X0019315Y0331803D01*
X0019251Y0331948D01*
X0019191Y0332094D01*
X0019135Y0332242D01*
X0019082Y0332391D01*
X0019033Y0332542D01*
X0018988Y0332694D01*
X0018947Y0332847D01*
X0018909Y0333000D01*
X0018876Y0333155D01*
X0018846Y0333311D01*
X0018820Y0333467D01*
X0018799Y0333624D01*
X0018781Y0333781D01*
X0018767Y0333939D01*
X0018757Y0334097D01*
X0018751Y0334255D01*
X0018749Y0334413D01*
X0302214Y0334413D02*
X0302216Y0334571D01*
X0302222Y0334729D01*
X0302232Y0334887D01*
X0302246Y0335045D01*
X0302264Y0335202D01*
X0302285Y0335359D01*
X0302311Y0335515D01*
X0302341Y0335671D01*
X0302374Y0335826D01*
X0302412Y0335979D01*
X0302453Y0336132D01*
X0302498Y0336284D01*
X0302547Y0336435D01*
X0302600Y0336584D01*
X0302656Y0336732D01*
X0302716Y0336878D01*
X0302780Y0337023D01*
X0302848Y0337166D01*
X0302919Y0337308D01*
X0302993Y0337448D01*
X0303071Y0337585D01*
X0303153Y0337721D01*
X0303237Y0337855D01*
X0303326Y0337986D01*
X0303417Y0338115D01*
X0303512Y0338242D01*
X0303609Y0338367D01*
X0303710Y0338489D01*
X0303814Y0338608D01*
X0303921Y0338725D01*
X0304031Y0338839D01*
X0304144Y0338950D01*
X0304259Y0339059D01*
X0304377Y0339164D01*
X0304498Y0339266D01*
X0304621Y0339366D01*
X0304747Y0339462D01*
X0304875Y0339555D01*
X0305005Y0339645D01*
X0305138Y0339731D01*
X0305273Y0339815D01*
X0305409Y0339894D01*
X0305548Y0339971D01*
X0305689Y0340043D01*
X0305831Y0340113D01*
X0305975Y0340178D01*
X0306121Y0340240D01*
X0306268Y0340298D01*
X0306417Y0340353D01*
X0306567Y0340404D01*
X0306718Y0340451D01*
X0306870Y0340494D01*
X0307023Y0340533D01*
X0307178Y0340569D01*
X0307333Y0340600D01*
X0307489Y0340628D01*
X0307645Y0340652D01*
X0307802Y0340672D01*
X0307960Y0340688D01*
X0308117Y0340700D01*
X0308276Y0340708D01*
X0308434Y0340712D01*
X0308592Y0340712D01*
X0308750Y0340708D01*
X0308909Y0340700D01*
X0309066Y0340688D01*
X0309224Y0340672D01*
X0309381Y0340652D01*
X0309537Y0340628D01*
X0309693Y0340600D01*
X0309848Y0340569D01*
X0310003Y0340533D01*
X0310156Y0340494D01*
X0310308Y0340451D01*
X0310459Y0340404D01*
X0310609Y0340353D01*
X0310758Y0340298D01*
X0310905Y0340240D01*
X0311051Y0340178D01*
X0311195Y0340113D01*
X0311337Y0340043D01*
X0311478Y0339971D01*
X0311617Y0339894D01*
X0311753Y0339815D01*
X0311888Y0339731D01*
X0312021Y0339645D01*
X0312151Y0339555D01*
X0312279Y0339462D01*
X0312405Y0339366D01*
X0312528Y0339266D01*
X0312649Y0339164D01*
X0312767Y0339059D01*
X0312882Y0338950D01*
X0312995Y0338839D01*
X0313105Y0338725D01*
X0313212Y0338608D01*
X0313316Y0338489D01*
X0313417Y0338367D01*
X0313514Y0338242D01*
X0313609Y0338115D01*
X0313700Y0337986D01*
X0313789Y0337855D01*
X0313873Y0337721D01*
X0313955Y0337585D01*
X0314033Y0337448D01*
X0314107Y0337308D01*
X0314178Y0337166D01*
X0314246Y0337023D01*
X0314310Y0336878D01*
X0314370Y0336732D01*
X0314426Y0336584D01*
X0314479Y0336435D01*
X0314528Y0336284D01*
X0314573Y0336132D01*
X0314614Y0335979D01*
X0314652Y0335826D01*
X0314685Y0335671D01*
X0314715Y0335515D01*
X0314741Y0335359D01*
X0314762Y0335202D01*
X0314780Y0335045D01*
X0314794Y0334887D01*
X0314804Y0334729D01*
X0314810Y0334571D01*
X0314812Y0334413D01*
X0314810Y0334255D01*
X0314804Y0334097D01*
X0314794Y0333939D01*
X0314780Y0333781D01*
X0314762Y0333624D01*
X0314741Y0333467D01*
X0314715Y0333311D01*
X0314685Y0333155D01*
X0314652Y0333000D01*
X0314614Y0332847D01*
X0314573Y0332694D01*
X0314528Y0332542D01*
X0314479Y0332391D01*
X0314426Y0332242D01*
X0314370Y0332094D01*
X0314310Y0331948D01*
X0314246Y0331803D01*
X0314178Y0331660D01*
X0314107Y0331518D01*
X0314033Y0331378D01*
X0313955Y0331241D01*
X0313873Y0331105D01*
X0313789Y0330971D01*
X0313700Y0330840D01*
X0313609Y0330711D01*
X0313514Y0330584D01*
X0313417Y0330459D01*
X0313316Y0330337D01*
X0313212Y0330218D01*
X0313105Y0330101D01*
X0312995Y0329987D01*
X0312882Y0329876D01*
X0312767Y0329767D01*
X0312649Y0329662D01*
X0312528Y0329560D01*
X0312405Y0329460D01*
X0312279Y0329364D01*
X0312151Y0329271D01*
X0312021Y0329181D01*
X0311888Y0329095D01*
X0311753Y0329011D01*
X0311617Y0328932D01*
X0311478Y0328855D01*
X0311337Y0328783D01*
X0311195Y0328713D01*
X0311051Y0328648D01*
X0310905Y0328586D01*
X0310758Y0328528D01*
X0310609Y0328473D01*
X0310459Y0328422D01*
X0310308Y0328375D01*
X0310156Y0328332D01*
X0310003Y0328293D01*
X0309848Y0328257D01*
X0309693Y0328226D01*
X0309537Y0328198D01*
X0309381Y0328174D01*
X0309224Y0328154D01*
X0309066Y0328138D01*
X0308909Y0328126D01*
X0308750Y0328118D01*
X0308592Y0328114D01*
X0308434Y0328114D01*
X0308276Y0328118D01*
X0308117Y0328126D01*
X0307960Y0328138D01*
X0307802Y0328154D01*
X0307645Y0328174D01*
X0307489Y0328198D01*
X0307333Y0328226D01*
X0307178Y0328257D01*
X0307023Y0328293D01*
X0306870Y0328332D01*
X0306718Y0328375D01*
X0306567Y0328422D01*
X0306417Y0328473D01*
X0306268Y0328528D01*
X0306121Y0328586D01*
X0305975Y0328648D01*
X0305831Y0328713D01*
X0305689Y0328783D01*
X0305548Y0328855D01*
X0305409Y0328932D01*
X0305273Y0329011D01*
X0305138Y0329095D01*
X0305005Y0329181D01*
X0304875Y0329271D01*
X0304747Y0329364D01*
X0304621Y0329460D01*
X0304498Y0329560D01*
X0304377Y0329662D01*
X0304259Y0329767D01*
X0304144Y0329876D01*
X0304031Y0329987D01*
X0303921Y0330101D01*
X0303814Y0330218D01*
X0303710Y0330337D01*
X0303609Y0330459D01*
X0303512Y0330584D01*
X0303417Y0330711D01*
X0303326Y0330840D01*
X0303237Y0330971D01*
X0303153Y0331105D01*
X0303071Y0331241D01*
X0302993Y0331378D01*
X0302919Y0331518D01*
X0302848Y0331660D01*
X0302780Y0331803D01*
X0302716Y0331948D01*
X0302656Y0332094D01*
X0302600Y0332242D01*
X0302547Y0332391D01*
X0302498Y0332542D01*
X0302453Y0332694D01*
X0302412Y0332847D01*
X0302374Y0333000D01*
X0302341Y0333155D01*
X0302311Y0333311D01*
X0302285Y0333467D01*
X0302264Y0333624D01*
X0302246Y0333781D01*
X0302232Y0333939D01*
X0302222Y0334097D01*
X0302216Y0334255D01*
X0302214Y0334413D01*
X0302214Y0050948D02*
X0302216Y0051106D01*
X0302222Y0051264D01*
X0302232Y0051422D01*
X0302246Y0051580D01*
X0302264Y0051737D01*
X0302285Y0051894D01*
X0302311Y0052050D01*
X0302341Y0052206D01*
X0302374Y0052361D01*
X0302412Y0052514D01*
X0302453Y0052667D01*
X0302498Y0052819D01*
X0302547Y0052970D01*
X0302600Y0053119D01*
X0302656Y0053267D01*
X0302716Y0053413D01*
X0302780Y0053558D01*
X0302848Y0053701D01*
X0302919Y0053843D01*
X0302993Y0053983D01*
X0303071Y0054120D01*
X0303153Y0054256D01*
X0303237Y0054390D01*
X0303326Y0054521D01*
X0303417Y0054650D01*
X0303512Y0054777D01*
X0303609Y0054902D01*
X0303710Y0055024D01*
X0303814Y0055143D01*
X0303921Y0055260D01*
X0304031Y0055374D01*
X0304144Y0055485D01*
X0304259Y0055594D01*
X0304377Y0055699D01*
X0304498Y0055801D01*
X0304621Y0055901D01*
X0304747Y0055997D01*
X0304875Y0056090D01*
X0305005Y0056180D01*
X0305138Y0056266D01*
X0305273Y0056350D01*
X0305409Y0056429D01*
X0305548Y0056506D01*
X0305689Y0056578D01*
X0305831Y0056648D01*
X0305975Y0056713D01*
X0306121Y0056775D01*
X0306268Y0056833D01*
X0306417Y0056888D01*
X0306567Y0056939D01*
X0306718Y0056986D01*
X0306870Y0057029D01*
X0307023Y0057068D01*
X0307178Y0057104D01*
X0307333Y0057135D01*
X0307489Y0057163D01*
X0307645Y0057187D01*
X0307802Y0057207D01*
X0307960Y0057223D01*
X0308117Y0057235D01*
X0308276Y0057243D01*
X0308434Y0057247D01*
X0308592Y0057247D01*
X0308750Y0057243D01*
X0308909Y0057235D01*
X0309066Y0057223D01*
X0309224Y0057207D01*
X0309381Y0057187D01*
X0309537Y0057163D01*
X0309693Y0057135D01*
X0309848Y0057104D01*
X0310003Y0057068D01*
X0310156Y0057029D01*
X0310308Y0056986D01*
X0310459Y0056939D01*
X0310609Y0056888D01*
X0310758Y0056833D01*
X0310905Y0056775D01*
X0311051Y0056713D01*
X0311195Y0056648D01*
X0311337Y0056578D01*
X0311478Y0056506D01*
X0311617Y0056429D01*
X0311753Y0056350D01*
X0311888Y0056266D01*
X0312021Y0056180D01*
X0312151Y0056090D01*
X0312279Y0055997D01*
X0312405Y0055901D01*
X0312528Y0055801D01*
X0312649Y0055699D01*
X0312767Y0055594D01*
X0312882Y0055485D01*
X0312995Y0055374D01*
X0313105Y0055260D01*
X0313212Y0055143D01*
X0313316Y0055024D01*
X0313417Y0054902D01*
X0313514Y0054777D01*
X0313609Y0054650D01*
X0313700Y0054521D01*
X0313789Y0054390D01*
X0313873Y0054256D01*
X0313955Y0054120D01*
X0314033Y0053983D01*
X0314107Y0053843D01*
X0314178Y0053701D01*
X0314246Y0053558D01*
X0314310Y0053413D01*
X0314370Y0053267D01*
X0314426Y0053119D01*
X0314479Y0052970D01*
X0314528Y0052819D01*
X0314573Y0052667D01*
X0314614Y0052514D01*
X0314652Y0052361D01*
X0314685Y0052206D01*
X0314715Y0052050D01*
X0314741Y0051894D01*
X0314762Y0051737D01*
X0314780Y0051580D01*
X0314794Y0051422D01*
X0314804Y0051264D01*
X0314810Y0051106D01*
X0314812Y0050948D01*
X0314810Y0050790D01*
X0314804Y0050632D01*
X0314794Y0050474D01*
X0314780Y0050316D01*
X0314762Y0050159D01*
X0314741Y0050002D01*
X0314715Y0049846D01*
X0314685Y0049690D01*
X0314652Y0049535D01*
X0314614Y0049382D01*
X0314573Y0049229D01*
X0314528Y0049077D01*
X0314479Y0048926D01*
X0314426Y0048777D01*
X0314370Y0048629D01*
X0314310Y0048483D01*
X0314246Y0048338D01*
X0314178Y0048195D01*
X0314107Y0048053D01*
X0314033Y0047913D01*
X0313955Y0047776D01*
X0313873Y0047640D01*
X0313789Y0047506D01*
X0313700Y0047375D01*
X0313609Y0047246D01*
X0313514Y0047119D01*
X0313417Y0046994D01*
X0313316Y0046872D01*
X0313212Y0046753D01*
X0313105Y0046636D01*
X0312995Y0046522D01*
X0312882Y0046411D01*
X0312767Y0046302D01*
X0312649Y0046197D01*
X0312528Y0046095D01*
X0312405Y0045995D01*
X0312279Y0045899D01*
X0312151Y0045806D01*
X0312021Y0045716D01*
X0311888Y0045630D01*
X0311753Y0045546D01*
X0311617Y0045467D01*
X0311478Y0045390D01*
X0311337Y0045318D01*
X0311195Y0045248D01*
X0311051Y0045183D01*
X0310905Y0045121D01*
X0310758Y0045063D01*
X0310609Y0045008D01*
X0310459Y0044957D01*
X0310308Y0044910D01*
X0310156Y0044867D01*
X0310003Y0044828D01*
X0309848Y0044792D01*
X0309693Y0044761D01*
X0309537Y0044733D01*
X0309381Y0044709D01*
X0309224Y0044689D01*
X0309066Y0044673D01*
X0308909Y0044661D01*
X0308750Y0044653D01*
X0308592Y0044649D01*
X0308434Y0044649D01*
X0308276Y0044653D01*
X0308117Y0044661D01*
X0307960Y0044673D01*
X0307802Y0044689D01*
X0307645Y0044709D01*
X0307489Y0044733D01*
X0307333Y0044761D01*
X0307178Y0044792D01*
X0307023Y0044828D01*
X0306870Y0044867D01*
X0306718Y0044910D01*
X0306567Y0044957D01*
X0306417Y0045008D01*
X0306268Y0045063D01*
X0306121Y0045121D01*
X0305975Y0045183D01*
X0305831Y0045248D01*
X0305689Y0045318D01*
X0305548Y0045390D01*
X0305409Y0045467D01*
X0305273Y0045546D01*
X0305138Y0045630D01*
X0305005Y0045716D01*
X0304875Y0045806D01*
X0304747Y0045899D01*
X0304621Y0045995D01*
X0304498Y0046095D01*
X0304377Y0046197D01*
X0304259Y0046302D01*
X0304144Y0046411D01*
X0304031Y0046522D01*
X0303921Y0046636D01*
X0303814Y0046753D01*
X0303710Y0046872D01*
X0303609Y0046994D01*
X0303512Y0047119D01*
X0303417Y0047246D01*
X0303326Y0047375D01*
X0303237Y0047506D01*
X0303153Y0047640D01*
X0303071Y0047776D01*
X0302993Y0047913D01*
X0302919Y0048053D01*
X0302848Y0048195D01*
X0302780Y0048338D01*
X0302716Y0048483D01*
X0302656Y0048629D01*
X0302600Y0048777D01*
X0302547Y0048926D01*
X0302498Y0049077D01*
X0302453Y0049229D01*
X0302412Y0049382D01*
X0302374Y0049535D01*
X0302341Y0049690D01*
X0302311Y0049846D01*
X0302285Y0050002D01*
X0302264Y0050159D01*
X0302246Y0050316D01*
X0302232Y0050474D01*
X0302222Y0050632D01*
X0302216Y0050790D01*
X0302214Y0050948D01*
D14*
X0296720Y0050929D02*
X0296724Y0051219D01*
X0296734Y0051509D01*
X0296752Y0051798D01*
X0296777Y0052087D01*
X0296809Y0052375D01*
X0296848Y0052662D01*
X0296894Y0052948D01*
X0296947Y0053233D01*
X0297007Y0053517D01*
X0297074Y0053799D01*
X0297148Y0054079D01*
X0297229Y0054358D01*
X0297316Y0054634D01*
X0297410Y0054908D01*
X0297511Y0055180D01*
X0297619Y0055449D01*
X0297733Y0055715D01*
X0297854Y0055979D01*
X0297981Y0056239D01*
X0298115Y0056497D01*
X0298254Y0056751D01*
X0298400Y0057001D01*
X0298552Y0057248D01*
X0298711Y0057491D01*
X0298875Y0057730D01*
X0299044Y0057965D01*
X0299220Y0058196D01*
X0299401Y0058422D01*
X0299588Y0058644D01*
X0299780Y0058861D01*
X0299977Y0059073D01*
X0300179Y0059281D01*
X0300387Y0059483D01*
X0300599Y0059680D01*
X0300816Y0059872D01*
X0301038Y0060059D01*
X0301264Y0060240D01*
X0301495Y0060416D01*
X0301730Y0060585D01*
X0301969Y0060749D01*
X0302212Y0060908D01*
X0302459Y0061060D01*
X0302709Y0061206D01*
X0302963Y0061345D01*
X0303221Y0061479D01*
X0303481Y0061606D01*
X0303745Y0061727D01*
X0304011Y0061841D01*
X0304280Y0061949D01*
X0304552Y0062050D01*
X0304826Y0062144D01*
X0305102Y0062231D01*
X0305381Y0062312D01*
X0305661Y0062386D01*
X0305943Y0062453D01*
X0306227Y0062513D01*
X0306512Y0062566D01*
X0306798Y0062612D01*
X0307085Y0062651D01*
X0307373Y0062683D01*
X0307662Y0062708D01*
X0307951Y0062726D01*
X0308241Y0062736D01*
X0308531Y0062740D01*
X0308821Y0062736D01*
X0309111Y0062726D01*
X0309400Y0062708D01*
X0309689Y0062683D01*
X0309977Y0062651D01*
X0310264Y0062612D01*
X0310550Y0062566D01*
X0310835Y0062513D01*
X0311119Y0062453D01*
X0311401Y0062386D01*
X0311681Y0062312D01*
X0311960Y0062231D01*
X0312236Y0062144D01*
X0312510Y0062050D01*
X0312782Y0061949D01*
X0313051Y0061841D01*
X0313317Y0061727D01*
X0313581Y0061606D01*
X0313841Y0061479D01*
X0314099Y0061345D01*
X0314353Y0061206D01*
X0314603Y0061060D01*
X0314850Y0060908D01*
X0315093Y0060749D01*
X0315332Y0060585D01*
X0315567Y0060416D01*
X0315798Y0060240D01*
X0316024Y0060059D01*
X0316246Y0059872D01*
X0316463Y0059680D01*
X0316675Y0059483D01*
X0316883Y0059281D01*
X0317085Y0059073D01*
X0317282Y0058861D01*
X0317474Y0058644D01*
X0317661Y0058422D01*
X0317842Y0058196D01*
X0318018Y0057965D01*
X0318187Y0057730D01*
X0318351Y0057491D01*
X0318510Y0057248D01*
X0318662Y0057001D01*
X0318808Y0056751D01*
X0318947Y0056497D01*
X0319081Y0056239D01*
X0319208Y0055979D01*
X0319329Y0055715D01*
X0319443Y0055449D01*
X0319551Y0055180D01*
X0319652Y0054908D01*
X0319746Y0054634D01*
X0319833Y0054358D01*
X0319914Y0054079D01*
X0319988Y0053799D01*
X0320055Y0053517D01*
X0320115Y0053233D01*
X0320168Y0052948D01*
X0320214Y0052662D01*
X0320253Y0052375D01*
X0320285Y0052087D01*
X0320310Y0051798D01*
X0320328Y0051509D01*
X0320338Y0051219D01*
X0320342Y0050929D01*
X0320338Y0050639D01*
X0320328Y0050349D01*
X0320310Y0050060D01*
X0320285Y0049771D01*
X0320253Y0049483D01*
X0320214Y0049196D01*
X0320168Y0048910D01*
X0320115Y0048625D01*
X0320055Y0048341D01*
X0319988Y0048059D01*
X0319914Y0047779D01*
X0319833Y0047500D01*
X0319746Y0047224D01*
X0319652Y0046950D01*
X0319551Y0046678D01*
X0319443Y0046409D01*
X0319329Y0046143D01*
X0319208Y0045879D01*
X0319081Y0045619D01*
X0318947Y0045361D01*
X0318808Y0045107D01*
X0318662Y0044857D01*
X0318510Y0044610D01*
X0318351Y0044367D01*
X0318187Y0044128D01*
X0318018Y0043893D01*
X0317842Y0043662D01*
X0317661Y0043436D01*
X0317474Y0043214D01*
X0317282Y0042997D01*
X0317085Y0042785D01*
X0316883Y0042577D01*
X0316675Y0042375D01*
X0316463Y0042178D01*
X0316246Y0041986D01*
X0316024Y0041799D01*
X0315798Y0041618D01*
X0315567Y0041442D01*
X0315332Y0041273D01*
X0315093Y0041109D01*
X0314850Y0040950D01*
X0314603Y0040798D01*
X0314353Y0040652D01*
X0314099Y0040513D01*
X0313841Y0040379D01*
X0313581Y0040252D01*
X0313317Y0040131D01*
X0313051Y0040017D01*
X0312782Y0039909D01*
X0312510Y0039808D01*
X0312236Y0039714D01*
X0311960Y0039627D01*
X0311681Y0039546D01*
X0311401Y0039472D01*
X0311119Y0039405D01*
X0310835Y0039345D01*
X0310550Y0039292D01*
X0310264Y0039246D01*
X0309977Y0039207D01*
X0309689Y0039175D01*
X0309400Y0039150D01*
X0309111Y0039132D01*
X0308821Y0039122D01*
X0308531Y0039118D01*
X0308241Y0039122D01*
X0307951Y0039132D01*
X0307662Y0039150D01*
X0307373Y0039175D01*
X0307085Y0039207D01*
X0306798Y0039246D01*
X0306512Y0039292D01*
X0306227Y0039345D01*
X0305943Y0039405D01*
X0305661Y0039472D01*
X0305381Y0039546D01*
X0305102Y0039627D01*
X0304826Y0039714D01*
X0304552Y0039808D01*
X0304280Y0039909D01*
X0304011Y0040017D01*
X0303745Y0040131D01*
X0303481Y0040252D01*
X0303221Y0040379D01*
X0302963Y0040513D01*
X0302709Y0040652D01*
X0302459Y0040798D01*
X0302212Y0040950D01*
X0301969Y0041109D01*
X0301730Y0041273D01*
X0301495Y0041442D01*
X0301264Y0041618D01*
X0301038Y0041799D01*
X0300816Y0041986D01*
X0300599Y0042178D01*
X0300387Y0042375D01*
X0300179Y0042577D01*
X0299977Y0042785D01*
X0299780Y0042997D01*
X0299588Y0043214D01*
X0299401Y0043436D01*
X0299220Y0043662D01*
X0299044Y0043893D01*
X0298875Y0044128D01*
X0298711Y0044367D01*
X0298552Y0044610D01*
X0298400Y0044857D01*
X0298254Y0045107D01*
X0298115Y0045361D01*
X0297981Y0045619D01*
X0297854Y0045879D01*
X0297733Y0046143D01*
X0297619Y0046409D01*
X0297511Y0046678D01*
X0297410Y0046950D01*
X0297316Y0047224D01*
X0297229Y0047500D01*
X0297148Y0047779D01*
X0297074Y0048059D01*
X0297007Y0048341D01*
X0296947Y0048625D01*
X0296894Y0048910D01*
X0296848Y0049196D01*
X0296809Y0049483D01*
X0296777Y0049771D01*
X0296752Y0050060D01*
X0296734Y0050349D01*
X0296724Y0050639D01*
X0296720Y0050929D01*
X0296720Y0334394D02*
X0296724Y0334684D01*
X0296734Y0334974D01*
X0296752Y0335263D01*
X0296777Y0335552D01*
X0296809Y0335840D01*
X0296848Y0336127D01*
X0296894Y0336413D01*
X0296947Y0336698D01*
X0297007Y0336982D01*
X0297074Y0337264D01*
X0297148Y0337544D01*
X0297229Y0337823D01*
X0297316Y0338099D01*
X0297410Y0338373D01*
X0297511Y0338645D01*
X0297619Y0338914D01*
X0297733Y0339180D01*
X0297854Y0339444D01*
X0297981Y0339704D01*
X0298115Y0339962D01*
X0298254Y0340216D01*
X0298400Y0340466D01*
X0298552Y0340713D01*
X0298711Y0340956D01*
X0298875Y0341195D01*
X0299044Y0341430D01*
X0299220Y0341661D01*
X0299401Y0341887D01*
X0299588Y0342109D01*
X0299780Y0342326D01*
X0299977Y0342538D01*
X0300179Y0342746D01*
X0300387Y0342948D01*
X0300599Y0343145D01*
X0300816Y0343337D01*
X0301038Y0343524D01*
X0301264Y0343705D01*
X0301495Y0343881D01*
X0301730Y0344050D01*
X0301969Y0344214D01*
X0302212Y0344373D01*
X0302459Y0344525D01*
X0302709Y0344671D01*
X0302963Y0344810D01*
X0303221Y0344944D01*
X0303481Y0345071D01*
X0303745Y0345192D01*
X0304011Y0345306D01*
X0304280Y0345414D01*
X0304552Y0345515D01*
X0304826Y0345609D01*
X0305102Y0345696D01*
X0305381Y0345777D01*
X0305661Y0345851D01*
X0305943Y0345918D01*
X0306227Y0345978D01*
X0306512Y0346031D01*
X0306798Y0346077D01*
X0307085Y0346116D01*
X0307373Y0346148D01*
X0307662Y0346173D01*
X0307951Y0346191D01*
X0308241Y0346201D01*
X0308531Y0346205D01*
X0308821Y0346201D01*
X0309111Y0346191D01*
X0309400Y0346173D01*
X0309689Y0346148D01*
X0309977Y0346116D01*
X0310264Y0346077D01*
X0310550Y0346031D01*
X0310835Y0345978D01*
X0311119Y0345918D01*
X0311401Y0345851D01*
X0311681Y0345777D01*
X0311960Y0345696D01*
X0312236Y0345609D01*
X0312510Y0345515D01*
X0312782Y0345414D01*
X0313051Y0345306D01*
X0313317Y0345192D01*
X0313581Y0345071D01*
X0313841Y0344944D01*
X0314099Y0344810D01*
X0314353Y0344671D01*
X0314603Y0344525D01*
X0314850Y0344373D01*
X0315093Y0344214D01*
X0315332Y0344050D01*
X0315567Y0343881D01*
X0315798Y0343705D01*
X0316024Y0343524D01*
X0316246Y0343337D01*
X0316463Y0343145D01*
X0316675Y0342948D01*
X0316883Y0342746D01*
X0317085Y0342538D01*
X0317282Y0342326D01*
X0317474Y0342109D01*
X0317661Y0341887D01*
X0317842Y0341661D01*
X0318018Y0341430D01*
X0318187Y0341195D01*
X0318351Y0340956D01*
X0318510Y0340713D01*
X0318662Y0340466D01*
X0318808Y0340216D01*
X0318947Y0339962D01*
X0319081Y0339704D01*
X0319208Y0339444D01*
X0319329Y0339180D01*
X0319443Y0338914D01*
X0319551Y0338645D01*
X0319652Y0338373D01*
X0319746Y0338099D01*
X0319833Y0337823D01*
X0319914Y0337544D01*
X0319988Y0337264D01*
X0320055Y0336982D01*
X0320115Y0336698D01*
X0320168Y0336413D01*
X0320214Y0336127D01*
X0320253Y0335840D01*
X0320285Y0335552D01*
X0320310Y0335263D01*
X0320328Y0334974D01*
X0320338Y0334684D01*
X0320342Y0334394D01*
X0320338Y0334104D01*
X0320328Y0333814D01*
X0320310Y0333525D01*
X0320285Y0333236D01*
X0320253Y0332948D01*
X0320214Y0332661D01*
X0320168Y0332375D01*
X0320115Y0332090D01*
X0320055Y0331806D01*
X0319988Y0331524D01*
X0319914Y0331244D01*
X0319833Y0330965D01*
X0319746Y0330689D01*
X0319652Y0330415D01*
X0319551Y0330143D01*
X0319443Y0329874D01*
X0319329Y0329608D01*
X0319208Y0329344D01*
X0319081Y0329084D01*
X0318947Y0328826D01*
X0318808Y0328572D01*
X0318662Y0328322D01*
X0318510Y0328075D01*
X0318351Y0327832D01*
X0318187Y0327593D01*
X0318018Y0327358D01*
X0317842Y0327127D01*
X0317661Y0326901D01*
X0317474Y0326679D01*
X0317282Y0326462D01*
X0317085Y0326250D01*
X0316883Y0326042D01*
X0316675Y0325840D01*
X0316463Y0325643D01*
X0316246Y0325451D01*
X0316024Y0325264D01*
X0315798Y0325083D01*
X0315567Y0324907D01*
X0315332Y0324738D01*
X0315093Y0324574D01*
X0314850Y0324415D01*
X0314603Y0324263D01*
X0314353Y0324117D01*
X0314099Y0323978D01*
X0313841Y0323844D01*
X0313581Y0323717D01*
X0313317Y0323596D01*
X0313051Y0323482D01*
X0312782Y0323374D01*
X0312510Y0323273D01*
X0312236Y0323179D01*
X0311960Y0323092D01*
X0311681Y0323011D01*
X0311401Y0322937D01*
X0311119Y0322870D01*
X0310835Y0322810D01*
X0310550Y0322757D01*
X0310264Y0322711D01*
X0309977Y0322672D01*
X0309689Y0322640D01*
X0309400Y0322615D01*
X0309111Y0322597D01*
X0308821Y0322587D01*
X0308531Y0322583D01*
X0308241Y0322587D01*
X0307951Y0322597D01*
X0307662Y0322615D01*
X0307373Y0322640D01*
X0307085Y0322672D01*
X0306798Y0322711D01*
X0306512Y0322757D01*
X0306227Y0322810D01*
X0305943Y0322870D01*
X0305661Y0322937D01*
X0305381Y0323011D01*
X0305102Y0323092D01*
X0304826Y0323179D01*
X0304552Y0323273D01*
X0304280Y0323374D01*
X0304011Y0323482D01*
X0303745Y0323596D01*
X0303481Y0323717D01*
X0303221Y0323844D01*
X0302963Y0323978D01*
X0302709Y0324117D01*
X0302459Y0324263D01*
X0302212Y0324415D01*
X0301969Y0324574D01*
X0301730Y0324738D01*
X0301495Y0324907D01*
X0301264Y0325083D01*
X0301038Y0325264D01*
X0300816Y0325451D01*
X0300599Y0325643D01*
X0300387Y0325840D01*
X0300179Y0326042D01*
X0299977Y0326250D01*
X0299780Y0326462D01*
X0299588Y0326679D01*
X0299401Y0326901D01*
X0299220Y0327127D01*
X0299044Y0327358D01*
X0298875Y0327593D01*
X0298711Y0327832D01*
X0298552Y0328075D01*
X0298400Y0328322D01*
X0298254Y0328572D01*
X0298115Y0328826D01*
X0297981Y0329084D01*
X0297854Y0329344D01*
X0297733Y0329608D01*
X0297619Y0329874D01*
X0297511Y0330143D01*
X0297410Y0330415D01*
X0297316Y0330689D01*
X0297229Y0330965D01*
X0297148Y0331244D01*
X0297074Y0331524D01*
X0297007Y0331806D01*
X0296947Y0332090D01*
X0296894Y0332375D01*
X0296848Y0332661D01*
X0296809Y0332948D01*
X0296777Y0333236D01*
X0296752Y0333525D01*
X0296734Y0333814D01*
X0296724Y0334104D01*
X0296720Y0334394D01*
X0013256Y0334394D02*
X0013260Y0334684D01*
X0013270Y0334974D01*
X0013288Y0335263D01*
X0013313Y0335552D01*
X0013345Y0335840D01*
X0013384Y0336127D01*
X0013430Y0336413D01*
X0013483Y0336698D01*
X0013543Y0336982D01*
X0013610Y0337264D01*
X0013684Y0337544D01*
X0013765Y0337823D01*
X0013852Y0338099D01*
X0013946Y0338373D01*
X0014047Y0338645D01*
X0014155Y0338914D01*
X0014269Y0339180D01*
X0014390Y0339444D01*
X0014517Y0339704D01*
X0014651Y0339962D01*
X0014790Y0340216D01*
X0014936Y0340466D01*
X0015088Y0340713D01*
X0015247Y0340956D01*
X0015411Y0341195D01*
X0015580Y0341430D01*
X0015756Y0341661D01*
X0015937Y0341887D01*
X0016124Y0342109D01*
X0016316Y0342326D01*
X0016513Y0342538D01*
X0016715Y0342746D01*
X0016923Y0342948D01*
X0017135Y0343145D01*
X0017352Y0343337D01*
X0017574Y0343524D01*
X0017800Y0343705D01*
X0018031Y0343881D01*
X0018266Y0344050D01*
X0018505Y0344214D01*
X0018748Y0344373D01*
X0018995Y0344525D01*
X0019245Y0344671D01*
X0019499Y0344810D01*
X0019757Y0344944D01*
X0020017Y0345071D01*
X0020281Y0345192D01*
X0020547Y0345306D01*
X0020816Y0345414D01*
X0021088Y0345515D01*
X0021362Y0345609D01*
X0021638Y0345696D01*
X0021917Y0345777D01*
X0022197Y0345851D01*
X0022479Y0345918D01*
X0022763Y0345978D01*
X0023048Y0346031D01*
X0023334Y0346077D01*
X0023621Y0346116D01*
X0023909Y0346148D01*
X0024198Y0346173D01*
X0024487Y0346191D01*
X0024777Y0346201D01*
X0025067Y0346205D01*
X0025357Y0346201D01*
X0025647Y0346191D01*
X0025936Y0346173D01*
X0026225Y0346148D01*
X0026513Y0346116D01*
X0026800Y0346077D01*
X0027086Y0346031D01*
X0027371Y0345978D01*
X0027655Y0345918D01*
X0027937Y0345851D01*
X0028217Y0345777D01*
X0028496Y0345696D01*
X0028772Y0345609D01*
X0029046Y0345515D01*
X0029318Y0345414D01*
X0029587Y0345306D01*
X0029853Y0345192D01*
X0030117Y0345071D01*
X0030377Y0344944D01*
X0030635Y0344810D01*
X0030889Y0344671D01*
X0031139Y0344525D01*
X0031386Y0344373D01*
X0031629Y0344214D01*
X0031868Y0344050D01*
X0032103Y0343881D01*
X0032334Y0343705D01*
X0032560Y0343524D01*
X0032782Y0343337D01*
X0032999Y0343145D01*
X0033211Y0342948D01*
X0033419Y0342746D01*
X0033621Y0342538D01*
X0033818Y0342326D01*
X0034010Y0342109D01*
X0034197Y0341887D01*
X0034378Y0341661D01*
X0034554Y0341430D01*
X0034723Y0341195D01*
X0034887Y0340956D01*
X0035046Y0340713D01*
X0035198Y0340466D01*
X0035344Y0340216D01*
X0035483Y0339962D01*
X0035617Y0339704D01*
X0035744Y0339444D01*
X0035865Y0339180D01*
X0035979Y0338914D01*
X0036087Y0338645D01*
X0036188Y0338373D01*
X0036282Y0338099D01*
X0036369Y0337823D01*
X0036450Y0337544D01*
X0036524Y0337264D01*
X0036591Y0336982D01*
X0036651Y0336698D01*
X0036704Y0336413D01*
X0036750Y0336127D01*
X0036789Y0335840D01*
X0036821Y0335552D01*
X0036846Y0335263D01*
X0036864Y0334974D01*
X0036874Y0334684D01*
X0036878Y0334394D01*
X0036874Y0334104D01*
X0036864Y0333814D01*
X0036846Y0333525D01*
X0036821Y0333236D01*
X0036789Y0332948D01*
X0036750Y0332661D01*
X0036704Y0332375D01*
X0036651Y0332090D01*
X0036591Y0331806D01*
X0036524Y0331524D01*
X0036450Y0331244D01*
X0036369Y0330965D01*
X0036282Y0330689D01*
X0036188Y0330415D01*
X0036087Y0330143D01*
X0035979Y0329874D01*
X0035865Y0329608D01*
X0035744Y0329344D01*
X0035617Y0329084D01*
X0035483Y0328826D01*
X0035344Y0328572D01*
X0035198Y0328322D01*
X0035046Y0328075D01*
X0034887Y0327832D01*
X0034723Y0327593D01*
X0034554Y0327358D01*
X0034378Y0327127D01*
X0034197Y0326901D01*
X0034010Y0326679D01*
X0033818Y0326462D01*
X0033621Y0326250D01*
X0033419Y0326042D01*
X0033211Y0325840D01*
X0032999Y0325643D01*
X0032782Y0325451D01*
X0032560Y0325264D01*
X0032334Y0325083D01*
X0032103Y0324907D01*
X0031868Y0324738D01*
X0031629Y0324574D01*
X0031386Y0324415D01*
X0031139Y0324263D01*
X0030889Y0324117D01*
X0030635Y0323978D01*
X0030377Y0323844D01*
X0030117Y0323717D01*
X0029853Y0323596D01*
X0029587Y0323482D01*
X0029318Y0323374D01*
X0029046Y0323273D01*
X0028772Y0323179D01*
X0028496Y0323092D01*
X0028217Y0323011D01*
X0027937Y0322937D01*
X0027655Y0322870D01*
X0027371Y0322810D01*
X0027086Y0322757D01*
X0026800Y0322711D01*
X0026513Y0322672D01*
X0026225Y0322640D01*
X0025936Y0322615D01*
X0025647Y0322597D01*
X0025357Y0322587D01*
X0025067Y0322583D01*
X0024777Y0322587D01*
X0024487Y0322597D01*
X0024198Y0322615D01*
X0023909Y0322640D01*
X0023621Y0322672D01*
X0023334Y0322711D01*
X0023048Y0322757D01*
X0022763Y0322810D01*
X0022479Y0322870D01*
X0022197Y0322937D01*
X0021917Y0323011D01*
X0021638Y0323092D01*
X0021362Y0323179D01*
X0021088Y0323273D01*
X0020816Y0323374D01*
X0020547Y0323482D01*
X0020281Y0323596D01*
X0020017Y0323717D01*
X0019757Y0323844D01*
X0019499Y0323978D01*
X0019245Y0324117D01*
X0018995Y0324263D01*
X0018748Y0324415D01*
X0018505Y0324574D01*
X0018266Y0324738D01*
X0018031Y0324907D01*
X0017800Y0325083D01*
X0017574Y0325264D01*
X0017352Y0325451D01*
X0017135Y0325643D01*
X0016923Y0325840D01*
X0016715Y0326042D01*
X0016513Y0326250D01*
X0016316Y0326462D01*
X0016124Y0326679D01*
X0015937Y0326901D01*
X0015756Y0327127D01*
X0015580Y0327358D01*
X0015411Y0327593D01*
X0015247Y0327832D01*
X0015088Y0328075D01*
X0014936Y0328322D01*
X0014790Y0328572D01*
X0014651Y0328826D01*
X0014517Y0329084D01*
X0014390Y0329344D01*
X0014269Y0329608D01*
X0014155Y0329874D01*
X0014047Y0330143D01*
X0013946Y0330415D01*
X0013852Y0330689D01*
X0013765Y0330965D01*
X0013684Y0331244D01*
X0013610Y0331524D01*
X0013543Y0331806D01*
X0013483Y0332090D01*
X0013430Y0332375D01*
X0013384Y0332661D01*
X0013345Y0332948D01*
X0013313Y0333236D01*
X0013288Y0333525D01*
X0013270Y0333814D01*
X0013260Y0334104D01*
X0013256Y0334394D01*
X0013256Y0050929D02*
X0013260Y0051219D01*
X0013270Y0051509D01*
X0013288Y0051798D01*
X0013313Y0052087D01*
X0013345Y0052375D01*
X0013384Y0052662D01*
X0013430Y0052948D01*
X0013483Y0053233D01*
X0013543Y0053517D01*
X0013610Y0053799D01*
X0013684Y0054079D01*
X0013765Y0054358D01*
X0013852Y0054634D01*
X0013946Y0054908D01*
X0014047Y0055180D01*
X0014155Y0055449D01*
X0014269Y0055715D01*
X0014390Y0055979D01*
X0014517Y0056239D01*
X0014651Y0056497D01*
X0014790Y0056751D01*
X0014936Y0057001D01*
X0015088Y0057248D01*
X0015247Y0057491D01*
X0015411Y0057730D01*
X0015580Y0057965D01*
X0015756Y0058196D01*
X0015937Y0058422D01*
X0016124Y0058644D01*
X0016316Y0058861D01*
X0016513Y0059073D01*
X0016715Y0059281D01*
X0016923Y0059483D01*
X0017135Y0059680D01*
X0017352Y0059872D01*
X0017574Y0060059D01*
X0017800Y0060240D01*
X0018031Y0060416D01*
X0018266Y0060585D01*
X0018505Y0060749D01*
X0018748Y0060908D01*
X0018995Y0061060D01*
X0019245Y0061206D01*
X0019499Y0061345D01*
X0019757Y0061479D01*
X0020017Y0061606D01*
X0020281Y0061727D01*
X0020547Y0061841D01*
X0020816Y0061949D01*
X0021088Y0062050D01*
X0021362Y0062144D01*
X0021638Y0062231D01*
X0021917Y0062312D01*
X0022197Y0062386D01*
X0022479Y0062453D01*
X0022763Y0062513D01*
X0023048Y0062566D01*
X0023334Y0062612D01*
X0023621Y0062651D01*
X0023909Y0062683D01*
X0024198Y0062708D01*
X0024487Y0062726D01*
X0024777Y0062736D01*
X0025067Y0062740D01*
X0025357Y0062736D01*
X0025647Y0062726D01*
X0025936Y0062708D01*
X0026225Y0062683D01*
X0026513Y0062651D01*
X0026800Y0062612D01*
X0027086Y0062566D01*
X0027371Y0062513D01*
X0027655Y0062453D01*
X0027937Y0062386D01*
X0028217Y0062312D01*
X0028496Y0062231D01*
X0028772Y0062144D01*
X0029046Y0062050D01*
X0029318Y0061949D01*
X0029587Y0061841D01*
X0029853Y0061727D01*
X0030117Y0061606D01*
X0030377Y0061479D01*
X0030635Y0061345D01*
X0030889Y0061206D01*
X0031139Y0061060D01*
X0031386Y0060908D01*
X0031629Y0060749D01*
X0031868Y0060585D01*
X0032103Y0060416D01*
X0032334Y0060240D01*
X0032560Y0060059D01*
X0032782Y0059872D01*
X0032999Y0059680D01*
X0033211Y0059483D01*
X0033419Y0059281D01*
X0033621Y0059073D01*
X0033818Y0058861D01*
X0034010Y0058644D01*
X0034197Y0058422D01*
X0034378Y0058196D01*
X0034554Y0057965D01*
X0034723Y0057730D01*
X0034887Y0057491D01*
X0035046Y0057248D01*
X0035198Y0057001D01*
X0035344Y0056751D01*
X0035483Y0056497D01*
X0035617Y0056239D01*
X0035744Y0055979D01*
X0035865Y0055715D01*
X0035979Y0055449D01*
X0036087Y0055180D01*
X0036188Y0054908D01*
X0036282Y0054634D01*
X0036369Y0054358D01*
X0036450Y0054079D01*
X0036524Y0053799D01*
X0036591Y0053517D01*
X0036651Y0053233D01*
X0036704Y0052948D01*
X0036750Y0052662D01*
X0036789Y0052375D01*
X0036821Y0052087D01*
X0036846Y0051798D01*
X0036864Y0051509D01*
X0036874Y0051219D01*
X0036878Y0050929D01*
X0036874Y0050639D01*
X0036864Y0050349D01*
X0036846Y0050060D01*
X0036821Y0049771D01*
X0036789Y0049483D01*
X0036750Y0049196D01*
X0036704Y0048910D01*
X0036651Y0048625D01*
X0036591Y0048341D01*
X0036524Y0048059D01*
X0036450Y0047779D01*
X0036369Y0047500D01*
X0036282Y0047224D01*
X0036188Y0046950D01*
X0036087Y0046678D01*
X0035979Y0046409D01*
X0035865Y0046143D01*
X0035744Y0045879D01*
X0035617Y0045619D01*
X0035483Y0045361D01*
X0035344Y0045107D01*
X0035198Y0044857D01*
X0035046Y0044610D01*
X0034887Y0044367D01*
X0034723Y0044128D01*
X0034554Y0043893D01*
X0034378Y0043662D01*
X0034197Y0043436D01*
X0034010Y0043214D01*
X0033818Y0042997D01*
X0033621Y0042785D01*
X0033419Y0042577D01*
X0033211Y0042375D01*
X0032999Y0042178D01*
X0032782Y0041986D01*
X0032560Y0041799D01*
X0032334Y0041618D01*
X0032103Y0041442D01*
X0031868Y0041273D01*
X0031629Y0041109D01*
X0031386Y0040950D01*
X0031139Y0040798D01*
X0030889Y0040652D01*
X0030635Y0040513D01*
X0030377Y0040379D01*
X0030117Y0040252D01*
X0029853Y0040131D01*
X0029587Y0040017D01*
X0029318Y0039909D01*
X0029046Y0039808D01*
X0028772Y0039714D01*
X0028496Y0039627D01*
X0028217Y0039546D01*
X0027937Y0039472D01*
X0027655Y0039405D01*
X0027371Y0039345D01*
X0027086Y0039292D01*
X0026800Y0039246D01*
X0026513Y0039207D01*
X0026225Y0039175D01*
X0025936Y0039150D01*
X0025647Y0039132D01*
X0025357Y0039122D01*
X0025067Y0039118D01*
X0024777Y0039122D01*
X0024487Y0039132D01*
X0024198Y0039150D01*
X0023909Y0039175D01*
X0023621Y0039207D01*
X0023334Y0039246D01*
X0023048Y0039292D01*
X0022763Y0039345D01*
X0022479Y0039405D01*
X0022197Y0039472D01*
X0021917Y0039546D01*
X0021638Y0039627D01*
X0021362Y0039714D01*
X0021088Y0039808D01*
X0020816Y0039909D01*
X0020547Y0040017D01*
X0020281Y0040131D01*
X0020017Y0040252D01*
X0019757Y0040379D01*
X0019499Y0040513D01*
X0019245Y0040652D01*
X0018995Y0040798D01*
X0018748Y0040950D01*
X0018505Y0041109D01*
X0018266Y0041273D01*
X0018031Y0041442D01*
X0017800Y0041618D01*
X0017574Y0041799D01*
X0017352Y0041986D01*
X0017135Y0042178D01*
X0016923Y0042375D01*
X0016715Y0042577D01*
X0016513Y0042785D01*
X0016316Y0042997D01*
X0016124Y0043214D01*
X0015937Y0043436D01*
X0015756Y0043662D01*
X0015580Y0043893D01*
X0015411Y0044128D01*
X0015247Y0044367D01*
X0015088Y0044610D01*
X0014936Y0044857D01*
X0014790Y0045107D01*
X0014651Y0045361D01*
X0014517Y0045619D01*
X0014390Y0045879D01*
X0014269Y0046143D01*
X0014155Y0046409D01*
X0014047Y0046678D01*
X0013946Y0046950D01*
X0013852Y0047224D01*
X0013765Y0047500D01*
X0013684Y0047779D01*
X0013610Y0048059D01*
X0013543Y0048341D01*
X0013483Y0048625D01*
X0013430Y0048910D01*
X0013384Y0049196D01*
X0013345Y0049483D01*
X0013313Y0049771D01*
X0013288Y0050060D01*
X0013270Y0050349D01*
X0013260Y0050639D01*
X0013256Y0050929D01*
D15*
X0282772Y0074546D02*
X0282772Y0121791D01*
X0282772Y0137554D02*
X0282772Y0184798D01*
X0282772Y0200562D02*
X0282772Y0247806D01*
X0282772Y0263570D02*
X0282772Y0310814D01*
X0303678Y0310814D02*
X0324111Y0310814D01*
X0324111Y0304909D01*
X0328048Y0304909D01*
X0328048Y0299003D01*
X0333954Y0299003D01*
X0333954Y0275381D01*
X0328048Y0275381D01*
X0328048Y0299003D01*
X0333954Y0299003D02*
X0335922Y0299003D01*
X0335922Y0275381D01*
X0333954Y0275381D01*
X0335922Y0275381D02*
X0337891Y0275381D01*
X0337891Y0299003D01*
X0335922Y0299003D01*
X0324111Y0304909D02*
X0324111Y0269476D01*
X0328048Y0269476D01*
X0328048Y0275381D01*
X0324111Y0269476D02*
X0324111Y0263570D01*
X0303678Y0263570D01*
X0303678Y0247806D02*
X0324111Y0247806D01*
X0324111Y0241901D01*
X0328048Y0241901D01*
X0328048Y0235995D01*
X0333954Y0235995D01*
X0333954Y0212373D01*
X0328048Y0212373D01*
X0328048Y0235995D01*
X0324111Y0241901D02*
X0324111Y0206468D01*
X0328048Y0206468D01*
X0328048Y0212373D01*
X0333954Y0212373D02*
X0335922Y0212373D01*
X0335922Y0235995D01*
X0333954Y0235995D01*
X0335922Y0235995D02*
X0337891Y0235995D01*
X0337891Y0212373D01*
X0335922Y0212373D01*
X0324111Y0206468D02*
X0324111Y0200562D01*
X0303678Y0200562D01*
X0303678Y0184798D02*
X0324111Y0184798D01*
X0324111Y0178893D01*
X0328048Y0178893D01*
X0328048Y0172987D01*
X0333954Y0172987D01*
X0333954Y0149365D01*
X0328048Y0149365D01*
X0328048Y0172987D01*
X0333954Y0172987D02*
X0335922Y0172987D01*
X0335922Y0149365D01*
X0333954Y0149365D01*
X0335922Y0149365D02*
X0337891Y0149365D01*
X0337891Y0172987D01*
X0335922Y0172987D01*
X0324111Y0178893D02*
X0324111Y0143460D01*
X0328048Y0143460D01*
X0328048Y0149365D01*
X0324111Y0143460D02*
X0324111Y0137554D01*
X0303678Y0137554D01*
X0303678Y0121791D02*
X0324111Y0121791D01*
X0324111Y0115885D01*
X0328048Y0115885D01*
X0328048Y0109980D01*
X0333954Y0109980D01*
X0333954Y0086357D01*
X0328048Y0086357D01*
X0328048Y0109980D01*
X0333954Y0109980D02*
X0335922Y0109980D01*
X0335922Y0086357D01*
X0333954Y0086357D01*
X0335922Y0086357D02*
X0337891Y0086357D01*
X0337891Y0109980D01*
X0335922Y0109980D01*
X0324111Y0115885D02*
X0324111Y0080452D01*
X0328048Y0080452D01*
X0328048Y0086357D01*
X0324111Y0080452D02*
X0324111Y0074546D01*
X0303678Y0074546D01*
D16*
X0310882Y0072522D02*
X0312383Y0072522D01*
X0311633Y0072522D02*
X0311633Y0068769D01*
X0310882Y0068019D01*
X0310131Y0068019D01*
X0309381Y0068769D01*
X0314537Y0068769D02*
X0314537Y0068019D01*
X0314537Y0068769D02*
X0317540Y0071772D01*
X0317540Y0072522D01*
X0314537Y0072522D01*
X0319694Y0071772D02*
X0319694Y0071021D01*
X0320444Y0070270D01*
X0321945Y0070270D01*
X0322696Y0069520D01*
X0322696Y0068769D01*
X0321945Y0068019D01*
X0320444Y0068019D01*
X0319694Y0068769D01*
X0319694Y0069520D01*
X0320444Y0070270D01*
X0321945Y0070270D02*
X0322696Y0071021D01*
X0322696Y0071772D01*
X0321945Y0072522D01*
X0320444Y0072522D01*
X0319694Y0071772D01*
X0320444Y0131026D02*
X0321945Y0131026D01*
X0322696Y0131777D01*
X0322696Y0132528D01*
X0321945Y0133278D01*
X0319694Y0133278D01*
X0319694Y0131777D01*
X0320444Y0131026D01*
X0319694Y0133278D02*
X0321195Y0134780D01*
X0322696Y0135530D01*
X0317540Y0135530D02*
X0314537Y0135530D01*
X0314537Y0133278D01*
X0316038Y0134029D01*
X0316789Y0134029D01*
X0317540Y0133278D01*
X0317540Y0131777D01*
X0316789Y0131026D01*
X0315288Y0131026D01*
X0314537Y0131777D01*
X0311633Y0131777D02*
X0311633Y0135530D01*
X0312383Y0135530D02*
X0310882Y0135530D01*
X0311633Y0131777D02*
X0310882Y0131026D01*
X0310131Y0131026D01*
X0309381Y0131777D01*
X0309031Y0249234D02*
X0308281Y0249985D01*
X0309031Y0249234D02*
X0309782Y0249234D01*
X0310533Y0249985D01*
X0310533Y0253738D01*
X0311283Y0253738D02*
X0309782Y0253738D01*
X0313437Y0252987D02*
X0314188Y0253738D01*
X0315689Y0253738D01*
X0316440Y0252987D01*
X0316440Y0252237D01*
X0315689Y0251486D01*
X0316440Y0250736D01*
X0316440Y0249985D01*
X0315689Y0249234D01*
X0314188Y0249234D01*
X0313437Y0249985D01*
X0314938Y0251486D02*
X0315689Y0251486D01*
X0318594Y0251486D02*
X0321596Y0251486D01*
X0320845Y0249234D02*
X0320845Y0253738D01*
X0318594Y0251486D01*
X0318594Y0312442D02*
X0321596Y0315445D01*
X0321596Y0316195D01*
X0320845Y0316946D01*
X0319344Y0316946D01*
X0318594Y0316195D01*
X0314938Y0316946D02*
X0314938Y0312442D01*
X0313437Y0312442D02*
X0316440Y0312442D01*
X0318594Y0312442D02*
X0321596Y0312442D01*
X0314938Y0316946D02*
X0313437Y0315445D01*
X0311283Y0316946D02*
X0309782Y0316946D01*
X0310533Y0316946D02*
X0310533Y0313193D01*
X0309782Y0312442D01*
X0309031Y0312442D01*
X0308281Y0313193D01*
D17*
X0152680Y0208279D02*
X0149877Y0205476D01*
X0151279Y0205476D02*
X0151279Y0208279D01*
X0149877Y0208279D02*
X0152680Y0205476D01*
X0152680Y0206878D02*
X0149877Y0206878D01*
D18*
X0146600Y0360200D02*
X0146600Y0382700D01*
X0156600Y0382700D02*
X0156600Y0360200D01*
X0166600Y0360200D02*
X0166600Y0382700D01*
X0176600Y0382700D02*
X0176600Y0360200D01*
X0186600Y0360200D02*
X0186600Y0382700D01*
X0225800Y0382600D02*
X0225800Y0360100D01*
X0235800Y0360100D02*
X0235800Y0382600D01*
X0235800Y0025000D02*
X0235800Y0002500D01*
X0225800Y0002500D02*
X0225800Y0025000D01*
X0186700Y0025100D02*
X0186700Y0002600D01*
X0176700Y0002600D02*
X0176700Y0025100D01*
X0166700Y0025100D02*
X0166700Y0002600D01*
X0156700Y0002600D02*
X0156700Y0025100D01*
X0146700Y0025100D02*
X0146700Y0002600D01*
D19*
X0146700Y0026600D03*
X0156700Y0026600D03*
X0166700Y0026600D03*
X0176700Y0026600D03*
X0186700Y0026600D03*
X0225800Y0026500D03*
X0235800Y0026500D03*
X0235800Y0358600D03*
X0225800Y0358600D03*
X0186600Y0358700D03*
X0176600Y0358700D03*
X0166600Y0358700D03*
X0156600Y0358700D03*
X0146600Y0358700D03*
D20*
X0146600Y0345700D03*
X0156600Y0345700D03*
X0166600Y0345700D03*
X0176600Y0345700D03*
X0186600Y0345700D03*
X0186700Y0039600D03*
X0176700Y0039600D03*
X0166700Y0039600D03*
X0156700Y0039600D03*
X0146700Y0039600D03*
D21*
X0146700Y0050100D03*
X0146700Y0060100D03*
X0156700Y0060100D03*
X0156700Y0050100D03*
X0166700Y0050100D03*
X0166700Y0060100D03*
X0176700Y0060100D03*
X0176700Y0050100D03*
X0186700Y0050100D03*
X0186700Y0060100D03*
X0186600Y0325200D03*
X0186600Y0335200D03*
X0176600Y0335200D03*
X0176600Y0325200D03*
X0166600Y0325200D03*
X0166600Y0335200D03*
X0156600Y0335200D03*
X0156600Y0325200D03*
X0146600Y0325200D03*
X0146600Y0335200D03*
M02*
