%
M48
M72
T01C0.01200
T02C0.01700
T03C0.02362
T04C0.03937
T05C0.04000
T06C0.05906
T07C0.12598
%
T01
X115900Y161000
X122400Y161000
X122400Y172243
X115900Y172200
X128900Y172200
X135200Y173900
X138500Y171000
X143800Y171000
X151300Y171000
X150100Y178800
X155100Y181800
X155100Y185800
X155100Y195500
X163800Y181000
X178500Y193600
X187800Y192200
X158200Y226300
X155800Y223857
X152300Y226300
X149800Y223957
X146200Y226300
X143800Y223857
X140300Y226300
X137900Y223857
X137900Y232300
X140300Y234800
X143800Y232300
X146200Y234800
X149800Y232300
X152300Y234800
X155800Y232300
X158200Y234800
X130000Y197500
X108800Y221400
X111000Y223600
X100521Y233921
X98400Y231800
X135200Y161000
X151300Y161000
X159200Y71300
X164200Y71300
X174300Y71300
X174000Y315300
X164100Y315300
X154200Y315300
T02
X101700Y224200
X108100Y230600
T03
X75200Y108100
X80500Y120100
X69600Y120300
X93800Y138200
X99000Y143700
X104200Y138100
X99200Y126900
X80800Y167400
X75000Y172500
X69400Y167300
X59600Y167300
X54100Y172500
X48500Y167200
X53300Y183400
X58700Y188800
X67500Y189000
X73100Y183600
X81500Y183600
X86700Y189100
X99900Y204200
X112000Y204200
X125300Y219000
X126300Y190900
X121600Y183300
X117000Y190900
X158500Y158600
X163500Y153600
X172300Y153500
X179800Y153500
X184500Y158300
X185100Y132900
X190200Y124700
X195100Y133000
X173600Y132300
X168800Y124200
X163600Y132500
X204600Y195800
X215300Y199300
X220600Y208400
X226200Y199400
X263300Y224100
X274400Y224000
X304500Y196900
X304600Y188500
X274900Y161000
X262900Y161200
X304600Y133600
X304600Y125500
X274500Y98000
X263400Y98000
X304800Y70500
X165500Y229200
X80100Y240400
X70000Y240600
X75000Y252300
X47900Y188900
X263400Y287400
X274500Y287300
X304700Y259800
X304700Y251800
X304900Y314700
T04
X62800Y55500
X92300Y55500
X251400Y55500
X277700Y55500
X277700Y328900
X251400Y328900
T05
X19261Y92661
X19261Y102661
X19261Y112661
X19261Y122661
X19261Y132661
X19261Y142661
X19261Y152661
X19261Y162661
X19261Y172661
X19261Y182661
X29261Y182661
X29261Y172661
X29261Y162661
X29261Y152661
X29261Y142661
X29261Y132661
X29261Y122661
X29261Y112661
X29261Y102661
X29261Y92661
X100400Y96200
X110400Y96200
X120400Y96200
X124400Y117100
X134400Y117100
X136400Y150800
X128900Y158300
X143800Y158400
X151300Y150900
X229300Y143400
X229300Y166500
X271200Y187700
X271200Y197700
X229000Y219000
X229200Y241800
X229000Y257900
X228900Y280400
X271200Y260800
X271200Y250800
X271200Y313700
X235800Y340100
X225800Y340100
X186600Y340200
X186600Y330200
X186600Y320200
X176600Y320200
X176600Y330200
X176600Y340200
X166600Y340200
X166600Y330200
X166600Y320200
X156600Y320200
X156600Y330200
X156600Y340200
X146600Y340200
X146600Y330200
X146600Y320200
X60800Y274200
X60800Y256400
X29261Y252661
X29261Y262661
X29261Y272661
X29261Y282661
X29261Y292661
X19261Y292661
X19261Y282661
X19261Y272661
X19261Y262661
X19261Y252661
X19261Y242661
X19261Y232661
X29261Y232661
X29261Y242661
X29261Y222661
X29261Y212661
X29261Y202661
X19261Y202661
X19261Y212661
X19261Y222661
X229300Y103300
X229400Y80400
X225800Y45000
X235800Y45000
X271200Y71100
X271200Y124800
X271200Y134800
X186700Y65100
X186700Y55100
X186700Y45100
X176700Y45100
X176700Y55100
X176700Y65100
X166700Y65100
X166700Y55100
X166700Y45100
X156700Y45100
X156700Y55100
X156700Y65100
X146700Y65100
X146700Y55100
X146700Y45100
T06
X292615Y306877
X312300Y287192
X292615Y267507
X292615Y243869
X312300Y224184
X292615Y204499
X292615Y180861
X312300Y161176
X292615Y141491
X292615Y117854
X312300Y98169
X292615Y78483
T07
X25048Y50948
X25048Y334413
X308513Y334413
X308513Y50948
M30
