G75*
%MOIN*%
%OFA0B0*%
%FSLAX25Y25*%
%IPPOS*%
%LPD*%
%AMOC8*
5,1,8,0,0,1.08239X$1,22.5*
%
%ADD10C,0.05150*%
%ADD11R,0.05150X0.05150*%
%ADD12C,0.06496*%
%ADD13C,0.10039*%
%ADD14C,0.15748*%
%ADD15C,0.07600*%
%ADD16OC8,0.06000*%
%ADD17R,0.06000X0.06000*%
%ADD18C,0.00000*%
%ADD19R,0.02400X0.02400*%
%ADD20C,0.00600*%
D10*
X0238537Y0054643D03*
X0248537Y0054643D03*
X0238537Y0281257D03*
X0228537Y0281257D03*
D11*
X0248537Y0281257D03*
X0228537Y0054643D03*
D12*
X0228537Y0044328D03*
X0248537Y0044328D03*
X0248537Y0291612D03*
X0228537Y0291612D03*
D13*
X0159837Y0287426D03*
X0082137Y0287426D03*
X0082137Y0048457D03*
X0159837Y0048457D03*
D14*
X0159837Y0030741D03*
X0137837Y0048457D03*
X0104137Y0048457D03*
X0082137Y0030741D03*
X0060137Y0048457D03*
X0181837Y0048457D03*
X0181837Y0287426D03*
X0159837Y0305143D03*
X0137837Y0287426D03*
X0104137Y0287426D03*
X0082137Y0305143D03*
X0060137Y0287426D03*
D15*
X0088011Y0168143D03*
X0272011Y0262143D03*
X0272011Y0072643D03*
D16*
X0295200Y0094457D03*
X0305200Y0094457D03*
X0315200Y0094457D03*
X0315200Y0104457D03*
X0305200Y0104457D03*
X0295200Y0104457D03*
X0295200Y0114457D03*
X0305200Y0114457D03*
X0315200Y0114457D03*
X0315200Y0124457D03*
X0305200Y0124457D03*
X0295200Y0124457D03*
X0295200Y0134457D03*
X0305200Y0134457D03*
X0315200Y0134457D03*
X0315200Y0144457D03*
X0315200Y0154457D03*
X0305200Y0154457D03*
X0305200Y0144457D03*
X0295200Y0144457D03*
X0295200Y0182457D03*
X0305200Y0182457D03*
X0315200Y0182457D03*
X0315200Y0192457D03*
X0305200Y0192457D03*
X0295200Y0192457D03*
X0295200Y0202457D03*
X0305200Y0202457D03*
X0315200Y0202457D03*
X0315200Y0212457D03*
X0305200Y0212457D03*
X0295200Y0212457D03*
X0295200Y0222457D03*
X0305200Y0222457D03*
X0315200Y0222457D03*
X0315200Y0232457D03*
X0305200Y0232457D03*
X0295200Y0232457D03*
X0305200Y0242457D03*
X0315200Y0242457D03*
X0030161Y0237918D03*
X0030161Y0227918D03*
X0030161Y0217918D03*
X0030161Y0207918D03*
X0030161Y0197918D03*
X0030161Y0187918D03*
X0020161Y0187918D03*
X0020161Y0177918D03*
X0020161Y0157918D03*
X0030161Y0157918D03*
X0030161Y0147918D03*
X0030161Y0137918D03*
X0030161Y0127918D03*
X0030161Y0117918D03*
X0030161Y0107918D03*
X0030161Y0097918D03*
X0030161Y0087918D03*
X0030161Y0077918D03*
X0020161Y0077918D03*
X0020161Y0067918D03*
X0020161Y0087918D03*
X0020161Y0097918D03*
X0020161Y0107918D03*
X0020161Y0117918D03*
X0020161Y0127918D03*
X0020161Y0137918D03*
X0020161Y0147918D03*
X0020161Y0197918D03*
X0020161Y0207918D03*
X0020161Y0217918D03*
X0020161Y0227918D03*
X0020161Y0237918D03*
X0020161Y0247918D03*
X0030161Y0247918D03*
X0030161Y0257918D03*
X0030161Y0267918D03*
X0020161Y0267918D03*
X0020161Y0257918D03*
D17*
X0030161Y0177918D03*
X0030161Y0067918D03*
X0295200Y0154457D03*
X0295200Y0242457D03*
D18*
X0303114Y0309670D02*
X0303116Y0309828D01*
X0303122Y0309986D01*
X0303132Y0310144D01*
X0303146Y0310302D01*
X0303164Y0310459D01*
X0303185Y0310616D01*
X0303211Y0310772D01*
X0303241Y0310928D01*
X0303274Y0311083D01*
X0303312Y0311236D01*
X0303353Y0311389D01*
X0303398Y0311541D01*
X0303447Y0311692D01*
X0303500Y0311841D01*
X0303556Y0311989D01*
X0303616Y0312135D01*
X0303680Y0312280D01*
X0303748Y0312423D01*
X0303819Y0312565D01*
X0303893Y0312705D01*
X0303971Y0312842D01*
X0304053Y0312978D01*
X0304137Y0313112D01*
X0304226Y0313243D01*
X0304317Y0313372D01*
X0304412Y0313499D01*
X0304509Y0313624D01*
X0304610Y0313746D01*
X0304714Y0313865D01*
X0304821Y0313982D01*
X0304931Y0314096D01*
X0305044Y0314207D01*
X0305159Y0314316D01*
X0305277Y0314421D01*
X0305398Y0314523D01*
X0305521Y0314623D01*
X0305647Y0314719D01*
X0305775Y0314812D01*
X0305905Y0314902D01*
X0306038Y0314988D01*
X0306173Y0315072D01*
X0306309Y0315151D01*
X0306448Y0315228D01*
X0306589Y0315300D01*
X0306731Y0315370D01*
X0306875Y0315435D01*
X0307021Y0315497D01*
X0307168Y0315555D01*
X0307317Y0315610D01*
X0307467Y0315661D01*
X0307618Y0315708D01*
X0307770Y0315751D01*
X0307923Y0315790D01*
X0308078Y0315826D01*
X0308233Y0315857D01*
X0308389Y0315885D01*
X0308545Y0315909D01*
X0308702Y0315929D01*
X0308860Y0315945D01*
X0309017Y0315957D01*
X0309176Y0315965D01*
X0309334Y0315969D01*
X0309492Y0315969D01*
X0309650Y0315965D01*
X0309809Y0315957D01*
X0309966Y0315945D01*
X0310124Y0315929D01*
X0310281Y0315909D01*
X0310437Y0315885D01*
X0310593Y0315857D01*
X0310748Y0315826D01*
X0310903Y0315790D01*
X0311056Y0315751D01*
X0311208Y0315708D01*
X0311359Y0315661D01*
X0311509Y0315610D01*
X0311658Y0315555D01*
X0311805Y0315497D01*
X0311951Y0315435D01*
X0312095Y0315370D01*
X0312237Y0315300D01*
X0312378Y0315228D01*
X0312517Y0315151D01*
X0312653Y0315072D01*
X0312788Y0314988D01*
X0312921Y0314902D01*
X0313051Y0314812D01*
X0313179Y0314719D01*
X0313305Y0314623D01*
X0313428Y0314523D01*
X0313549Y0314421D01*
X0313667Y0314316D01*
X0313782Y0314207D01*
X0313895Y0314096D01*
X0314005Y0313982D01*
X0314112Y0313865D01*
X0314216Y0313746D01*
X0314317Y0313624D01*
X0314414Y0313499D01*
X0314509Y0313372D01*
X0314600Y0313243D01*
X0314689Y0313112D01*
X0314773Y0312978D01*
X0314855Y0312842D01*
X0314933Y0312705D01*
X0315007Y0312565D01*
X0315078Y0312423D01*
X0315146Y0312280D01*
X0315210Y0312135D01*
X0315270Y0311989D01*
X0315326Y0311841D01*
X0315379Y0311692D01*
X0315428Y0311541D01*
X0315473Y0311389D01*
X0315514Y0311236D01*
X0315552Y0311083D01*
X0315585Y0310928D01*
X0315615Y0310772D01*
X0315641Y0310616D01*
X0315662Y0310459D01*
X0315680Y0310302D01*
X0315694Y0310144D01*
X0315704Y0309986D01*
X0315710Y0309828D01*
X0315712Y0309670D01*
X0315710Y0309512D01*
X0315704Y0309354D01*
X0315694Y0309196D01*
X0315680Y0309038D01*
X0315662Y0308881D01*
X0315641Y0308724D01*
X0315615Y0308568D01*
X0315585Y0308412D01*
X0315552Y0308257D01*
X0315514Y0308104D01*
X0315473Y0307951D01*
X0315428Y0307799D01*
X0315379Y0307648D01*
X0315326Y0307499D01*
X0315270Y0307351D01*
X0315210Y0307205D01*
X0315146Y0307060D01*
X0315078Y0306917D01*
X0315007Y0306775D01*
X0314933Y0306635D01*
X0314855Y0306498D01*
X0314773Y0306362D01*
X0314689Y0306228D01*
X0314600Y0306097D01*
X0314509Y0305968D01*
X0314414Y0305841D01*
X0314317Y0305716D01*
X0314216Y0305594D01*
X0314112Y0305475D01*
X0314005Y0305358D01*
X0313895Y0305244D01*
X0313782Y0305133D01*
X0313667Y0305024D01*
X0313549Y0304919D01*
X0313428Y0304817D01*
X0313305Y0304717D01*
X0313179Y0304621D01*
X0313051Y0304528D01*
X0312921Y0304438D01*
X0312788Y0304352D01*
X0312653Y0304268D01*
X0312517Y0304189D01*
X0312378Y0304112D01*
X0312237Y0304040D01*
X0312095Y0303970D01*
X0311951Y0303905D01*
X0311805Y0303843D01*
X0311658Y0303785D01*
X0311509Y0303730D01*
X0311359Y0303679D01*
X0311208Y0303632D01*
X0311056Y0303589D01*
X0310903Y0303550D01*
X0310748Y0303514D01*
X0310593Y0303483D01*
X0310437Y0303455D01*
X0310281Y0303431D01*
X0310124Y0303411D01*
X0309966Y0303395D01*
X0309809Y0303383D01*
X0309650Y0303375D01*
X0309492Y0303371D01*
X0309334Y0303371D01*
X0309176Y0303375D01*
X0309017Y0303383D01*
X0308860Y0303395D01*
X0308702Y0303411D01*
X0308545Y0303431D01*
X0308389Y0303455D01*
X0308233Y0303483D01*
X0308078Y0303514D01*
X0307923Y0303550D01*
X0307770Y0303589D01*
X0307618Y0303632D01*
X0307467Y0303679D01*
X0307317Y0303730D01*
X0307168Y0303785D01*
X0307021Y0303843D01*
X0306875Y0303905D01*
X0306731Y0303970D01*
X0306589Y0304040D01*
X0306448Y0304112D01*
X0306309Y0304189D01*
X0306173Y0304268D01*
X0306038Y0304352D01*
X0305905Y0304438D01*
X0305775Y0304528D01*
X0305647Y0304621D01*
X0305521Y0304717D01*
X0305398Y0304817D01*
X0305277Y0304919D01*
X0305159Y0305024D01*
X0305044Y0305133D01*
X0304931Y0305244D01*
X0304821Y0305358D01*
X0304714Y0305475D01*
X0304610Y0305594D01*
X0304509Y0305716D01*
X0304412Y0305841D01*
X0304317Y0305968D01*
X0304226Y0306097D01*
X0304137Y0306228D01*
X0304053Y0306362D01*
X0303971Y0306498D01*
X0303893Y0306635D01*
X0303819Y0306775D01*
X0303748Y0306917D01*
X0303680Y0307060D01*
X0303616Y0307205D01*
X0303556Y0307351D01*
X0303500Y0307499D01*
X0303447Y0307648D01*
X0303398Y0307799D01*
X0303353Y0307951D01*
X0303312Y0308104D01*
X0303274Y0308257D01*
X0303241Y0308412D01*
X0303211Y0308568D01*
X0303185Y0308724D01*
X0303164Y0308881D01*
X0303146Y0309038D01*
X0303132Y0309196D01*
X0303122Y0309354D01*
X0303116Y0309512D01*
X0303114Y0309670D01*
X0313350Y0325418D02*
X0325161Y0313607D01*
X0325161Y0022269D01*
X0313350Y0010457D01*
X0022011Y0010457D01*
X0010200Y0022269D01*
X0010200Y0313607D01*
X0022011Y0325418D01*
X0313350Y0325418D01*
X0185003Y0250615D02*
X0185005Y0250773D01*
X0185011Y0250931D01*
X0185021Y0251089D01*
X0185035Y0251247D01*
X0185053Y0251404D01*
X0185074Y0251561D01*
X0185100Y0251717D01*
X0185130Y0251873D01*
X0185163Y0252028D01*
X0185201Y0252181D01*
X0185242Y0252334D01*
X0185287Y0252486D01*
X0185336Y0252637D01*
X0185389Y0252786D01*
X0185445Y0252934D01*
X0185505Y0253080D01*
X0185569Y0253225D01*
X0185637Y0253368D01*
X0185708Y0253510D01*
X0185782Y0253650D01*
X0185860Y0253787D01*
X0185942Y0253923D01*
X0186026Y0254057D01*
X0186115Y0254188D01*
X0186206Y0254317D01*
X0186301Y0254444D01*
X0186398Y0254569D01*
X0186499Y0254691D01*
X0186603Y0254810D01*
X0186710Y0254927D01*
X0186820Y0255041D01*
X0186933Y0255152D01*
X0187048Y0255261D01*
X0187166Y0255366D01*
X0187287Y0255468D01*
X0187410Y0255568D01*
X0187536Y0255664D01*
X0187664Y0255757D01*
X0187794Y0255847D01*
X0187927Y0255933D01*
X0188062Y0256017D01*
X0188198Y0256096D01*
X0188337Y0256173D01*
X0188478Y0256245D01*
X0188620Y0256315D01*
X0188764Y0256380D01*
X0188910Y0256442D01*
X0189057Y0256500D01*
X0189206Y0256555D01*
X0189356Y0256606D01*
X0189507Y0256653D01*
X0189659Y0256696D01*
X0189812Y0256735D01*
X0189967Y0256771D01*
X0190122Y0256802D01*
X0190278Y0256830D01*
X0190434Y0256854D01*
X0190591Y0256874D01*
X0190749Y0256890D01*
X0190906Y0256902D01*
X0191065Y0256910D01*
X0191223Y0256914D01*
X0191381Y0256914D01*
X0191539Y0256910D01*
X0191698Y0256902D01*
X0191855Y0256890D01*
X0192013Y0256874D01*
X0192170Y0256854D01*
X0192326Y0256830D01*
X0192482Y0256802D01*
X0192637Y0256771D01*
X0192792Y0256735D01*
X0192945Y0256696D01*
X0193097Y0256653D01*
X0193248Y0256606D01*
X0193398Y0256555D01*
X0193547Y0256500D01*
X0193694Y0256442D01*
X0193840Y0256380D01*
X0193984Y0256315D01*
X0194126Y0256245D01*
X0194267Y0256173D01*
X0194406Y0256096D01*
X0194542Y0256017D01*
X0194677Y0255933D01*
X0194810Y0255847D01*
X0194940Y0255757D01*
X0195068Y0255664D01*
X0195194Y0255568D01*
X0195317Y0255468D01*
X0195438Y0255366D01*
X0195556Y0255261D01*
X0195671Y0255152D01*
X0195784Y0255041D01*
X0195894Y0254927D01*
X0196001Y0254810D01*
X0196105Y0254691D01*
X0196206Y0254569D01*
X0196303Y0254444D01*
X0196398Y0254317D01*
X0196489Y0254188D01*
X0196578Y0254057D01*
X0196662Y0253923D01*
X0196744Y0253787D01*
X0196822Y0253650D01*
X0196896Y0253510D01*
X0196967Y0253368D01*
X0197035Y0253225D01*
X0197099Y0253080D01*
X0197159Y0252934D01*
X0197215Y0252786D01*
X0197268Y0252637D01*
X0197317Y0252486D01*
X0197362Y0252334D01*
X0197403Y0252181D01*
X0197441Y0252028D01*
X0197474Y0251873D01*
X0197504Y0251717D01*
X0197530Y0251561D01*
X0197551Y0251404D01*
X0197569Y0251247D01*
X0197583Y0251089D01*
X0197593Y0250931D01*
X0197599Y0250773D01*
X0197601Y0250615D01*
X0197599Y0250457D01*
X0197593Y0250299D01*
X0197583Y0250141D01*
X0197569Y0249983D01*
X0197551Y0249826D01*
X0197530Y0249669D01*
X0197504Y0249513D01*
X0197474Y0249357D01*
X0197441Y0249202D01*
X0197403Y0249049D01*
X0197362Y0248896D01*
X0197317Y0248744D01*
X0197268Y0248593D01*
X0197215Y0248444D01*
X0197159Y0248296D01*
X0197099Y0248150D01*
X0197035Y0248005D01*
X0196967Y0247862D01*
X0196896Y0247720D01*
X0196822Y0247580D01*
X0196744Y0247443D01*
X0196662Y0247307D01*
X0196578Y0247173D01*
X0196489Y0247042D01*
X0196398Y0246913D01*
X0196303Y0246786D01*
X0196206Y0246661D01*
X0196105Y0246539D01*
X0196001Y0246420D01*
X0195894Y0246303D01*
X0195784Y0246189D01*
X0195671Y0246078D01*
X0195556Y0245969D01*
X0195438Y0245864D01*
X0195317Y0245762D01*
X0195194Y0245662D01*
X0195068Y0245566D01*
X0194940Y0245473D01*
X0194810Y0245383D01*
X0194677Y0245297D01*
X0194542Y0245213D01*
X0194406Y0245134D01*
X0194267Y0245057D01*
X0194126Y0244985D01*
X0193984Y0244915D01*
X0193840Y0244850D01*
X0193694Y0244788D01*
X0193547Y0244730D01*
X0193398Y0244675D01*
X0193248Y0244624D01*
X0193097Y0244577D01*
X0192945Y0244534D01*
X0192792Y0244495D01*
X0192637Y0244459D01*
X0192482Y0244428D01*
X0192326Y0244400D01*
X0192170Y0244376D01*
X0192013Y0244356D01*
X0191855Y0244340D01*
X0191698Y0244328D01*
X0191539Y0244320D01*
X0191381Y0244316D01*
X0191223Y0244316D01*
X0191065Y0244320D01*
X0190906Y0244328D01*
X0190749Y0244340D01*
X0190591Y0244356D01*
X0190434Y0244376D01*
X0190278Y0244400D01*
X0190122Y0244428D01*
X0189967Y0244459D01*
X0189812Y0244495D01*
X0189659Y0244534D01*
X0189507Y0244577D01*
X0189356Y0244624D01*
X0189206Y0244675D01*
X0189057Y0244730D01*
X0188910Y0244788D01*
X0188764Y0244850D01*
X0188620Y0244915D01*
X0188478Y0244985D01*
X0188337Y0245057D01*
X0188198Y0245134D01*
X0188062Y0245213D01*
X0187927Y0245297D01*
X0187794Y0245383D01*
X0187664Y0245473D01*
X0187536Y0245566D01*
X0187410Y0245662D01*
X0187287Y0245762D01*
X0187166Y0245864D01*
X0187048Y0245969D01*
X0186933Y0246078D01*
X0186820Y0246189D01*
X0186710Y0246303D01*
X0186603Y0246420D01*
X0186499Y0246539D01*
X0186398Y0246661D01*
X0186301Y0246786D01*
X0186206Y0246913D01*
X0186115Y0247042D01*
X0186026Y0247173D01*
X0185942Y0247307D01*
X0185860Y0247443D01*
X0185782Y0247580D01*
X0185708Y0247720D01*
X0185637Y0247862D01*
X0185569Y0248005D01*
X0185505Y0248150D01*
X0185445Y0248296D01*
X0185389Y0248444D01*
X0185336Y0248593D01*
X0185287Y0248744D01*
X0185242Y0248896D01*
X0185201Y0249049D01*
X0185163Y0249202D01*
X0185130Y0249357D01*
X0185100Y0249513D01*
X0185074Y0249669D01*
X0185053Y0249826D01*
X0185035Y0249983D01*
X0185021Y0250141D01*
X0185011Y0250299D01*
X0185005Y0250457D01*
X0185003Y0250615D01*
X0019649Y0309670D02*
X0019651Y0309828D01*
X0019657Y0309986D01*
X0019667Y0310144D01*
X0019681Y0310302D01*
X0019699Y0310459D01*
X0019720Y0310616D01*
X0019746Y0310772D01*
X0019776Y0310928D01*
X0019809Y0311083D01*
X0019847Y0311236D01*
X0019888Y0311389D01*
X0019933Y0311541D01*
X0019982Y0311692D01*
X0020035Y0311841D01*
X0020091Y0311989D01*
X0020151Y0312135D01*
X0020215Y0312280D01*
X0020283Y0312423D01*
X0020354Y0312565D01*
X0020428Y0312705D01*
X0020506Y0312842D01*
X0020588Y0312978D01*
X0020672Y0313112D01*
X0020761Y0313243D01*
X0020852Y0313372D01*
X0020947Y0313499D01*
X0021044Y0313624D01*
X0021145Y0313746D01*
X0021249Y0313865D01*
X0021356Y0313982D01*
X0021466Y0314096D01*
X0021579Y0314207D01*
X0021694Y0314316D01*
X0021812Y0314421D01*
X0021933Y0314523D01*
X0022056Y0314623D01*
X0022182Y0314719D01*
X0022310Y0314812D01*
X0022440Y0314902D01*
X0022573Y0314988D01*
X0022708Y0315072D01*
X0022844Y0315151D01*
X0022983Y0315228D01*
X0023124Y0315300D01*
X0023266Y0315370D01*
X0023410Y0315435D01*
X0023556Y0315497D01*
X0023703Y0315555D01*
X0023852Y0315610D01*
X0024002Y0315661D01*
X0024153Y0315708D01*
X0024305Y0315751D01*
X0024458Y0315790D01*
X0024613Y0315826D01*
X0024768Y0315857D01*
X0024924Y0315885D01*
X0025080Y0315909D01*
X0025237Y0315929D01*
X0025395Y0315945D01*
X0025552Y0315957D01*
X0025711Y0315965D01*
X0025869Y0315969D01*
X0026027Y0315969D01*
X0026185Y0315965D01*
X0026344Y0315957D01*
X0026501Y0315945D01*
X0026659Y0315929D01*
X0026816Y0315909D01*
X0026972Y0315885D01*
X0027128Y0315857D01*
X0027283Y0315826D01*
X0027438Y0315790D01*
X0027591Y0315751D01*
X0027743Y0315708D01*
X0027894Y0315661D01*
X0028044Y0315610D01*
X0028193Y0315555D01*
X0028340Y0315497D01*
X0028486Y0315435D01*
X0028630Y0315370D01*
X0028772Y0315300D01*
X0028913Y0315228D01*
X0029052Y0315151D01*
X0029188Y0315072D01*
X0029323Y0314988D01*
X0029456Y0314902D01*
X0029586Y0314812D01*
X0029714Y0314719D01*
X0029840Y0314623D01*
X0029963Y0314523D01*
X0030084Y0314421D01*
X0030202Y0314316D01*
X0030317Y0314207D01*
X0030430Y0314096D01*
X0030540Y0313982D01*
X0030647Y0313865D01*
X0030751Y0313746D01*
X0030852Y0313624D01*
X0030949Y0313499D01*
X0031044Y0313372D01*
X0031135Y0313243D01*
X0031224Y0313112D01*
X0031308Y0312978D01*
X0031390Y0312842D01*
X0031468Y0312705D01*
X0031542Y0312565D01*
X0031613Y0312423D01*
X0031681Y0312280D01*
X0031745Y0312135D01*
X0031805Y0311989D01*
X0031861Y0311841D01*
X0031914Y0311692D01*
X0031963Y0311541D01*
X0032008Y0311389D01*
X0032049Y0311236D01*
X0032087Y0311083D01*
X0032120Y0310928D01*
X0032150Y0310772D01*
X0032176Y0310616D01*
X0032197Y0310459D01*
X0032215Y0310302D01*
X0032229Y0310144D01*
X0032239Y0309986D01*
X0032245Y0309828D01*
X0032247Y0309670D01*
X0032245Y0309512D01*
X0032239Y0309354D01*
X0032229Y0309196D01*
X0032215Y0309038D01*
X0032197Y0308881D01*
X0032176Y0308724D01*
X0032150Y0308568D01*
X0032120Y0308412D01*
X0032087Y0308257D01*
X0032049Y0308104D01*
X0032008Y0307951D01*
X0031963Y0307799D01*
X0031914Y0307648D01*
X0031861Y0307499D01*
X0031805Y0307351D01*
X0031745Y0307205D01*
X0031681Y0307060D01*
X0031613Y0306917D01*
X0031542Y0306775D01*
X0031468Y0306635D01*
X0031390Y0306498D01*
X0031308Y0306362D01*
X0031224Y0306228D01*
X0031135Y0306097D01*
X0031044Y0305968D01*
X0030949Y0305841D01*
X0030852Y0305716D01*
X0030751Y0305594D01*
X0030647Y0305475D01*
X0030540Y0305358D01*
X0030430Y0305244D01*
X0030317Y0305133D01*
X0030202Y0305024D01*
X0030084Y0304919D01*
X0029963Y0304817D01*
X0029840Y0304717D01*
X0029714Y0304621D01*
X0029586Y0304528D01*
X0029456Y0304438D01*
X0029323Y0304352D01*
X0029188Y0304268D01*
X0029052Y0304189D01*
X0028913Y0304112D01*
X0028772Y0304040D01*
X0028630Y0303970D01*
X0028486Y0303905D01*
X0028340Y0303843D01*
X0028193Y0303785D01*
X0028044Y0303730D01*
X0027894Y0303679D01*
X0027743Y0303632D01*
X0027591Y0303589D01*
X0027438Y0303550D01*
X0027283Y0303514D01*
X0027128Y0303483D01*
X0026972Y0303455D01*
X0026816Y0303431D01*
X0026659Y0303411D01*
X0026501Y0303395D01*
X0026344Y0303383D01*
X0026185Y0303375D01*
X0026027Y0303371D01*
X0025869Y0303371D01*
X0025711Y0303375D01*
X0025552Y0303383D01*
X0025395Y0303395D01*
X0025237Y0303411D01*
X0025080Y0303431D01*
X0024924Y0303455D01*
X0024768Y0303483D01*
X0024613Y0303514D01*
X0024458Y0303550D01*
X0024305Y0303589D01*
X0024153Y0303632D01*
X0024002Y0303679D01*
X0023852Y0303730D01*
X0023703Y0303785D01*
X0023556Y0303843D01*
X0023410Y0303905D01*
X0023266Y0303970D01*
X0023124Y0304040D01*
X0022983Y0304112D01*
X0022844Y0304189D01*
X0022708Y0304268D01*
X0022573Y0304352D01*
X0022440Y0304438D01*
X0022310Y0304528D01*
X0022182Y0304621D01*
X0022056Y0304717D01*
X0021933Y0304817D01*
X0021812Y0304919D01*
X0021694Y0305024D01*
X0021579Y0305133D01*
X0021466Y0305244D01*
X0021356Y0305358D01*
X0021249Y0305475D01*
X0021145Y0305594D01*
X0021044Y0305716D01*
X0020947Y0305841D01*
X0020852Y0305968D01*
X0020761Y0306097D01*
X0020672Y0306228D01*
X0020588Y0306362D01*
X0020506Y0306498D01*
X0020428Y0306635D01*
X0020354Y0306775D01*
X0020283Y0306917D01*
X0020215Y0307060D01*
X0020151Y0307205D01*
X0020091Y0307351D01*
X0020035Y0307499D01*
X0019982Y0307648D01*
X0019933Y0307799D01*
X0019888Y0307951D01*
X0019847Y0308104D01*
X0019809Y0308257D01*
X0019776Y0308412D01*
X0019746Y0308568D01*
X0019720Y0308724D01*
X0019699Y0308881D01*
X0019681Y0309038D01*
X0019667Y0309196D01*
X0019657Y0309354D01*
X0019651Y0309512D01*
X0019649Y0309670D01*
X0185003Y0085261D02*
X0185005Y0085419D01*
X0185011Y0085577D01*
X0185021Y0085735D01*
X0185035Y0085893D01*
X0185053Y0086050D01*
X0185074Y0086207D01*
X0185100Y0086363D01*
X0185130Y0086519D01*
X0185163Y0086674D01*
X0185201Y0086827D01*
X0185242Y0086980D01*
X0185287Y0087132D01*
X0185336Y0087283D01*
X0185389Y0087432D01*
X0185445Y0087580D01*
X0185505Y0087726D01*
X0185569Y0087871D01*
X0185637Y0088014D01*
X0185708Y0088156D01*
X0185782Y0088296D01*
X0185860Y0088433D01*
X0185942Y0088569D01*
X0186026Y0088703D01*
X0186115Y0088834D01*
X0186206Y0088963D01*
X0186301Y0089090D01*
X0186398Y0089215D01*
X0186499Y0089337D01*
X0186603Y0089456D01*
X0186710Y0089573D01*
X0186820Y0089687D01*
X0186933Y0089798D01*
X0187048Y0089907D01*
X0187166Y0090012D01*
X0187287Y0090114D01*
X0187410Y0090214D01*
X0187536Y0090310D01*
X0187664Y0090403D01*
X0187794Y0090493D01*
X0187927Y0090579D01*
X0188062Y0090663D01*
X0188198Y0090742D01*
X0188337Y0090819D01*
X0188478Y0090891D01*
X0188620Y0090961D01*
X0188764Y0091026D01*
X0188910Y0091088D01*
X0189057Y0091146D01*
X0189206Y0091201D01*
X0189356Y0091252D01*
X0189507Y0091299D01*
X0189659Y0091342D01*
X0189812Y0091381D01*
X0189967Y0091417D01*
X0190122Y0091448D01*
X0190278Y0091476D01*
X0190434Y0091500D01*
X0190591Y0091520D01*
X0190749Y0091536D01*
X0190906Y0091548D01*
X0191065Y0091556D01*
X0191223Y0091560D01*
X0191381Y0091560D01*
X0191539Y0091556D01*
X0191698Y0091548D01*
X0191855Y0091536D01*
X0192013Y0091520D01*
X0192170Y0091500D01*
X0192326Y0091476D01*
X0192482Y0091448D01*
X0192637Y0091417D01*
X0192792Y0091381D01*
X0192945Y0091342D01*
X0193097Y0091299D01*
X0193248Y0091252D01*
X0193398Y0091201D01*
X0193547Y0091146D01*
X0193694Y0091088D01*
X0193840Y0091026D01*
X0193984Y0090961D01*
X0194126Y0090891D01*
X0194267Y0090819D01*
X0194406Y0090742D01*
X0194542Y0090663D01*
X0194677Y0090579D01*
X0194810Y0090493D01*
X0194940Y0090403D01*
X0195068Y0090310D01*
X0195194Y0090214D01*
X0195317Y0090114D01*
X0195438Y0090012D01*
X0195556Y0089907D01*
X0195671Y0089798D01*
X0195784Y0089687D01*
X0195894Y0089573D01*
X0196001Y0089456D01*
X0196105Y0089337D01*
X0196206Y0089215D01*
X0196303Y0089090D01*
X0196398Y0088963D01*
X0196489Y0088834D01*
X0196578Y0088703D01*
X0196662Y0088569D01*
X0196744Y0088433D01*
X0196822Y0088296D01*
X0196896Y0088156D01*
X0196967Y0088014D01*
X0197035Y0087871D01*
X0197099Y0087726D01*
X0197159Y0087580D01*
X0197215Y0087432D01*
X0197268Y0087283D01*
X0197317Y0087132D01*
X0197362Y0086980D01*
X0197403Y0086827D01*
X0197441Y0086674D01*
X0197474Y0086519D01*
X0197504Y0086363D01*
X0197530Y0086207D01*
X0197551Y0086050D01*
X0197569Y0085893D01*
X0197583Y0085735D01*
X0197593Y0085577D01*
X0197599Y0085419D01*
X0197601Y0085261D01*
X0197599Y0085103D01*
X0197593Y0084945D01*
X0197583Y0084787D01*
X0197569Y0084629D01*
X0197551Y0084472D01*
X0197530Y0084315D01*
X0197504Y0084159D01*
X0197474Y0084003D01*
X0197441Y0083848D01*
X0197403Y0083695D01*
X0197362Y0083542D01*
X0197317Y0083390D01*
X0197268Y0083239D01*
X0197215Y0083090D01*
X0197159Y0082942D01*
X0197099Y0082796D01*
X0197035Y0082651D01*
X0196967Y0082508D01*
X0196896Y0082366D01*
X0196822Y0082226D01*
X0196744Y0082089D01*
X0196662Y0081953D01*
X0196578Y0081819D01*
X0196489Y0081688D01*
X0196398Y0081559D01*
X0196303Y0081432D01*
X0196206Y0081307D01*
X0196105Y0081185D01*
X0196001Y0081066D01*
X0195894Y0080949D01*
X0195784Y0080835D01*
X0195671Y0080724D01*
X0195556Y0080615D01*
X0195438Y0080510D01*
X0195317Y0080408D01*
X0195194Y0080308D01*
X0195068Y0080212D01*
X0194940Y0080119D01*
X0194810Y0080029D01*
X0194677Y0079943D01*
X0194542Y0079859D01*
X0194406Y0079780D01*
X0194267Y0079703D01*
X0194126Y0079631D01*
X0193984Y0079561D01*
X0193840Y0079496D01*
X0193694Y0079434D01*
X0193547Y0079376D01*
X0193398Y0079321D01*
X0193248Y0079270D01*
X0193097Y0079223D01*
X0192945Y0079180D01*
X0192792Y0079141D01*
X0192637Y0079105D01*
X0192482Y0079074D01*
X0192326Y0079046D01*
X0192170Y0079022D01*
X0192013Y0079002D01*
X0191855Y0078986D01*
X0191698Y0078974D01*
X0191539Y0078966D01*
X0191381Y0078962D01*
X0191223Y0078962D01*
X0191065Y0078966D01*
X0190906Y0078974D01*
X0190749Y0078986D01*
X0190591Y0079002D01*
X0190434Y0079022D01*
X0190278Y0079046D01*
X0190122Y0079074D01*
X0189967Y0079105D01*
X0189812Y0079141D01*
X0189659Y0079180D01*
X0189507Y0079223D01*
X0189356Y0079270D01*
X0189206Y0079321D01*
X0189057Y0079376D01*
X0188910Y0079434D01*
X0188764Y0079496D01*
X0188620Y0079561D01*
X0188478Y0079631D01*
X0188337Y0079703D01*
X0188198Y0079780D01*
X0188062Y0079859D01*
X0187927Y0079943D01*
X0187794Y0080029D01*
X0187664Y0080119D01*
X0187536Y0080212D01*
X0187410Y0080308D01*
X0187287Y0080408D01*
X0187166Y0080510D01*
X0187048Y0080615D01*
X0186933Y0080724D01*
X0186820Y0080835D01*
X0186710Y0080949D01*
X0186603Y0081066D01*
X0186499Y0081185D01*
X0186398Y0081307D01*
X0186301Y0081432D01*
X0186206Y0081559D01*
X0186115Y0081688D01*
X0186026Y0081819D01*
X0185942Y0081953D01*
X0185860Y0082089D01*
X0185782Y0082226D01*
X0185708Y0082366D01*
X0185637Y0082508D01*
X0185569Y0082651D01*
X0185505Y0082796D01*
X0185445Y0082942D01*
X0185389Y0083090D01*
X0185336Y0083239D01*
X0185287Y0083390D01*
X0185242Y0083542D01*
X0185201Y0083695D01*
X0185163Y0083848D01*
X0185130Y0084003D01*
X0185100Y0084159D01*
X0185074Y0084315D01*
X0185053Y0084472D01*
X0185035Y0084629D01*
X0185021Y0084787D01*
X0185011Y0084945D01*
X0185005Y0085103D01*
X0185003Y0085261D01*
X0303114Y0026206D02*
X0303116Y0026364D01*
X0303122Y0026522D01*
X0303132Y0026680D01*
X0303146Y0026838D01*
X0303164Y0026995D01*
X0303185Y0027152D01*
X0303211Y0027308D01*
X0303241Y0027464D01*
X0303274Y0027619D01*
X0303312Y0027772D01*
X0303353Y0027925D01*
X0303398Y0028077D01*
X0303447Y0028228D01*
X0303500Y0028377D01*
X0303556Y0028525D01*
X0303616Y0028671D01*
X0303680Y0028816D01*
X0303748Y0028959D01*
X0303819Y0029101D01*
X0303893Y0029241D01*
X0303971Y0029378D01*
X0304053Y0029514D01*
X0304137Y0029648D01*
X0304226Y0029779D01*
X0304317Y0029908D01*
X0304412Y0030035D01*
X0304509Y0030160D01*
X0304610Y0030282D01*
X0304714Y0030401D01*
X0304821Y0030518D01*
X0304931Y0030632D01*
X0305044Y0030743D01*
X0305159Y0030852D01*
X0305277Y0030957D01*
X0305398Y0031059D01*
X0305521Y0031159D01*
X0305647Y0031255D01*
X0305775Y0031348D01*
X0305905Y0031438D01*
X0306038Y0031524D01*
X0306173Y0031608D01*
X0306309Y0031687D01*
X0306448Y0031764D01*
X0306589Y0031836D01*
X0306731Y0031906D01*
X0306875Y0031971D01*
X0307021Y0032033D01*
X0307168Y0032091D01*
X0307317Y0032146D01*
X0307467Y0032197D01*
X0307618Y0032244D01*
X0307770Y0032287D01*
X0307923Y0032326D01*
X0308078Y0032362D01*
X0308233Y0032393D01*
X0308389Y0032421D01*
X0308545Y0032445D01*
X0308702Y0032465D01*
X0308860Y0032481D01*
X0309017Y0032493D01*
X0309176Y0032501D01*
X0309334Y0032505D01*
X0309492Y0032505D01*
X0309650Y0032501D01*
X0309809Y0032493D01*
X0309966Y0032481D01*
X0310124Y0032465D01*
X0310281Y0032445D01*
X0310437Y0032421D01*
X0310593Y0032393D01*
X0310748Y0032362D01*
X0310903Y0032326D01*
X0311056Y0032287D01*
X0311208Y0032244D01*
X0311359Y0032197D01*
X0311509Y0032146D01*
X0311658Y0032091D01*
X0311805Y0032033D01*
X0311951Y0031971D01*
X0312095Y0031906D01*
X0312237Y0031836D01*
X0312378Y0031764D01*
X0312517Y0031687D01*
X0312653Y0031608D01*
X0312788Y0031524D01*
X0312921Y0031438D01*
X0313051Y0031348D01*
X0313179Y0031255D01*
X0313305Y0031159D01*
X0313428Y0031059D01*
X0313549Y0030957D01*
X0313667Y0030852D01*
X0313782Y0030743D01*
X0313895Y0030632D01*
X0314005Y0030518D01*
X0314112Y0030401D01*
X0314216Y0030282D01*
X0314317Y0030160D01*
X0314414Y0030035D01*
X0314509Y0029908D01*
X0314600Y0029779D01*
X0314689Y0029648D01*
X0314773Y0029514D01*
X0314855Y0029378D01*
X0314933Y0029241D01*
X0315007Y0029101D01*
X0315078Y0028959D01*
X0315146Y0028816D01*
X0315210Y0028671D01*
X0315270Y0028525D01*
X0315326Y0028377D01*
X0315379Y0028228D01*
X0315428Y0028077D01*
X0315473Y0027925D01*
X0315514Y0027772D01*
X0315552Y0027619D01*
X0315585Y0027464D01*
X0315615Y0027308D01*
X0315641Y0027152D01*
X0315662Y0026995D01*
X0315680Y0026838D01*
X0315694Y0026680D01*
X0315704Y0026522D01*
X0315710Y0026364D01*
X0315712Y0026206D01*
X0315710Y0026048D01*
X0315704Y0025890D01*
X0315694Y0025732D01*
X0315680Y0025574D01*
X0315662Y0025417D01*
X0315641Y0025260D01*
X0315615Y0025104D01*
X0315585Y0024948D01*
X0315552Y0024793D01*
X0315514Y0024640D01*
X0315473Y0024487D01*
X0315428Y0024335D01*
X0315379Y0024184D01*
X0315326Y0024035D01*
X0315270Y0023887D01*
X0315210Y0023741D01*
X0315146Y0023596D01*
X0315078Y0023453D01*
X0315007Y0023311D01*
X0314933Y0023171D01*
X0314855Y0023034D01*
X0314773Y0022898D01*
X0314689Y0022764D01*
X0314600Y0022633D01*
X0314509Y0022504D01*
X0314414Y0022377D01*
X0314317Y0022252D01*
X0314216Y0022130D01*
X0314112Y0022011D01*
X0314005Y0021894D01*
X0313895Y0021780D01*
X0313782Y0021669D01*
X0313667Y0021560D01*
X0313549Y0021455D01*
X0313428Y0021353D01*
X0313305Y0021253D01*
X0313179Y0021157D01*
X0313051Y0021064D01*
X0312921Y0020974D01*
X0312788Y0020888D01*
X0312653Y0020804D01*
X0312517Y0020725D01*
X0312378Y0020648D01*
X0312237Y0020576D01*
X0312095Y0020506D01*
X0311951Y0020441D01*
X0311805Y0020379D01*
X0311658Y0020321D01*
X0311509Y0020266D01*
X0311359Y0020215D01*
X0311208Y0020168D01*
X0311056Y0020125D01*
X0310903Y0020086D01*
X0310748Y0020050D01*
X0310593Y0020019D01*
X0310437Y0019991D01*
X0310281Y0019967D01*
X0310124Y0019947D01*
X0309966Y0019931D01*
X0309809Y0019919D01*
X0309650Y0019911D01*
X0309492Y0019907D01*
X0309334Y0019907D01*
X0309176Y0019911D01*
X0309017Y0019919D01*
X0308860Y0019931D01*
X0308702Y0019947D01*
X0308545Y0019967D01*
X0308389Y0019991D01*
X0308233Y0020019D01*
X0308078Y0020050D01*
X0307923Y0020086D01*
X0307770Y0020125D01*
X0307618Y0020168D01*
X0307467Y0020215D01*
X0307317Y0020266D01*
X0307168Y0020321D01*
X0307021Y0020379D01*
X0306875Y0020441D01*
X0306731Y0020506D01*
X0306589Y0020576D01*
X0306448Y0020648D01*
X0306309Y0020725D01*
X0306173Y0020804D01*
X0306038Y0020888D01*
X0305905Y0020974D01*
X0305775Y0021064D01*
X0305647Y0021157D01*
X0305521Y0021253D01*
X0305398Y0021353D01*
X0305277Y0021455D01*
X0305159Y0021560D01*
X0305044Y0021669D01*
X0304931Y0021780D01*
X0304821Y0021894D01*
X0304714Y0022011D01*
X0304610Y0022130D01*
X0304509Y0022252D01*
X0304412Y0022377D01*
X0304317Y0022504D01*
X0304226Y0022633D01*
X0304137Y0022764D01*
X0304053Y0022898D01*
X0303971Y0023034D01*
X0303893Y0023171D01*
X0303819Y0023311D01*
X0303748Y0023453D01*
X0303680Y0023596D01*
X0303616Y0023741D01*
X0303556Y0023887D01*
X0303500Y0024035D01*
X0303447Y0024184D01*
X0303398Y0024335D01*
X0303353Y0024487D01*
X0303312Y0024640D01*
X0303274Y0024793D01*
X0303241Y0024948D01*
X0303211Y0025104D01*
X0303185Y0025260D01*
X0303164Y0025417D01*
X0303146Y0025574D01*
X0303132Y0025732D01*
X0303122Y0025890D01*
X0303116Y0026048D01*
X0303114Y0026206D01*
X0019649Y0026206D02*
X0019651Y0026364D01*
X0019657Y0026522D01*
X0019667Y0026680D01*
X0019681Y0026838D01*
X0019699Y0026995D01*
X0019720Y0027152D01*
X0019746Y0027308D01*
X0019776Y0027464D01*
X0019809Y0027619D01*
X0019847Y0027772D01*
X0019888Y0027925D01*
X0019933Y0028077D01*
X0019982Y0028228D01*
X0020035Y0028377D01*
X0020091Y0028525D01*
X0020151Y0028671D01*
X0020215Y0028816D01*
X0020283Y0028959D01*
X0020354Y0029101D01*
X0020428Y0029241D01*
X0020506Y0029378D01*
X0020588Y0029514D01*
X0020672Y0029648D01*
X0020761Y0029779D01*
X0020852Y0029908D01*
X0020947Y0030035D01*
X0021044Y0030160D01*
X0021145Y0030282D01*
X0021249Y0030401D01*
X0021356Y0030518D01*
X0021466Y0030632D01*
X0021579Y0030743D01*
X0021694Y0030852D01*
X0021812Y0030957D01*
X0021933Y0031059D01*
X0022056Y0031159D01*
X0022182Y0031255D01*
X0022310Y0031348D01*
X0022440Y0031438D01*
X0022573Y0031524D01*
X0022708Y0031608D01*
X0022844Y0031687D01*
X0022983Y0031764D01*
X0023124Y0031836D01*
X0023266Y0031906D01*
X0023410Y0031971D01*
X0023556Y0032033D01*
X0023703Y0032091D01*
X0023852Y0032146D01*
X0024002Y0032197D01*
X0024153Y0032244D01*
X0024305Y0032287D01*
X0024458Y0032326D01*
X0024613Y0032362D01*
X0024768Y0032393D01*
X0024924Y0032421D01*
X0025080Y0032445D01*
X0025237Y0032465D01*
X0025395Y0032481D01*
X0025552Y0032493D01*
X0025711Y0032501D01*
X0025869Y0032505D01*
X0026027Y0032505D01*
X0026185Y0032501D01*
X0026344Y0032493D01*
X0026501Y0032481D01*
X0026659Y0032465D01*
X0026816Y0032445D01*
X0026972Y0032421D01*
X0027128Y0032393D01*
X0027283Y0032362D01*
X0027438Y0032326D01*
X0027591Y0032287D01*
X0027743Y0032244D01*
X0027894Y0032197D01*
X0028044Y0032146D01*
X0028193Y0032091D01*
X0028340Y0032033D01*
X0028486Y0031971D01*
X0028630Y0031906D01*
X0028772Y0031836D01*
X0028913Y0031764D01*
X0029052Y0031687D01*
X0029188Y0031608D01*
X0029323Y0031524D01*
X0029456Y0031438D01*
X0029586Y0031348D01*
X0029714Y0031255D01*
X0029840Y0031159D01*
X0029963Y0031059D01*
X0030084Y0030957D01*
X0030202Y0030852D01*
X0030317Y0030743D01*
X0030430Y0030632D01*
X0030540Y0030518D01*
X0030647Y0030401D01*
X0030751Y0030282D01*
X0030852Y0030160D01*
X0030949Y0030035D01*
X0031044Y0029908D01*
X0031135Y0029779D01*
X0031224Y0029648D01*
X0031308Y0029514D01*
X0031390Y0029378D01*
X0031468Y0029241D01*
X0031542Y0029101D01*
X0031613Y0028959D01*
X0031681Y0028816D01*
X0031745Y0028671D01*
X0031805Y0028525D01*
X0031861Y0028377D01*
X0031914Y0028228D01*
X0031963Y0028077D01*
X0032008Y0027925D01*
X0032049Y0027772D01*
X0032087Y0027619D01*
X0032120Y0027464D01*
X0032150Y0027308D01*
X0032176Y0027152D01*
X0032197Y0026995D01*
X0032215Y0026838D01*
X0032229Y0026680D01*
X0032239Y0026522D01*
X0032245Y0026364D01*
X0032247Y0026206D01*
X0032245Y0026048D01*
X0032239Y0025890D01*
X0032229Y0025732D01*
X0032215Y0025574D01*
X0032197Y0025417D01*
X0032176Y0025260D01*
X0032150Y0025104D01*
X0032120Y0024948D01*
X0032087Y0024793D01*
X0032049Y0024640D01*
X0032008Y0024487D01*
X0031963Y0024335D01*
X0031914Y0024184D01*
X0031861Y0024035D01*
X0031805Y0023887D01*
X0031745Y0023741D01*
X0031681Y0023596D01*
X0031613Y0023453D01*
X0031542Y0023311D01*
X0031468Y0023171D01*
X0031390Y0023034D01*
X0031308Y0022898D01*
X0031224Y0022764D01*
X0031135Y0022633D01*
X0031044Y0022504D01*
X0030949Y0022377D01*
X0030852Y0022252D01*
X0030751Y0022130D01*
X0030647Y0022011D01*
X0030540Y0021894D01*
X0030430Y0021780D01*
X0030317Y0021669D01*
X0030202Y0021560D01*
X0030084Y0021455D01*
X0029963Y0021353D01*
X0029840Y0021253D01*
X0029714Y0021157D01*
X0029586Y0021064D01*
X0029456Y0020974D01*
X0029323Y0020888D01*
X0029188Y0020804D01*
X0029052Y0020725D01*
X0028913Y0020648D01*
X0028772Y0020576D01*
X0028630Y0020506D01*
X0028486Y0020441D01*
X0028340Y0020379D01*
X0028193Y0020321D01*
X0028044Y0020266D01*
X0027894Y0020215D01*
X0027743Y0020168D01*
X0027591Y0020125D01*
X0027438Y0020086D01*
X0027283Y0020050D01*
X0027128Y0020019D01*
X0026972Y0019991D01*
X0026816Y0019967D01*
X0026659Y0019947D01*
X0026501Y0019931D01*
X0026344Y0019919D01*
X0026185Y0019911D01*
X0026027Y0019907D01*
X0025869Y0019907D01*
X0025711Y0019911D01*
X0025552Y0019919D01*
X0025395Y0019931D01*
X0025237Y0019947D01*
X0025080Y0019967D01*
X0024924Y0019991D01*
X0024768Y0020019D01*
X0024613Y0020050D01*
X0024458Y0020086D01*
X0024305Y0020125D01*
X0024153Y0020168D01*
X0024002Y0020215D01*
X0023852Y0020266D01*
X0023703Y0020321D01*
X0023556Y0020379D01*
X0023410Y0020441D01*
X0023266Y0020506D01*
X0023124Y0020576D01*
X0022983Y0020648D01*
X0022844Y0020725D01*
X0022708Y0020804D01*
X0022573Y0020888D01*
X0022440Y0020974D01*
X0022310Y0021064D01*
X0022182Y0021157D01*
X0022056Y0021253D01*
X0021933Y0021353D01*
X0021812Y0021455D01*
X0021694Y0021560D01*
X0021579Y0021669D01*
X0021466Y0021780D01*
X0021356Y0021894D01*
X0021249Y0022011D01*
X0021145Y0022130D01*
X0021044Y0022252D01*
X0020947Y0022377D01*
X0020852Y0022504D01*
X0020761Y0022633D01*
X0020672Y0022764D01*
X0020588Y0022898D01*
X0020506Y0023034D01*
X0020428Y0023171D01*
X0020354Y0023311D01*
X0020283Y0023453D01*
X0020215Y0023596D01*
X0020151Y0023741D01*
X0020091Y0023887D01*
X0020035Y0024035D01*
X0019982Y0024184D01*
X0019933Y0024335D01*
X0019888Y0024487D01*
X0019847Y0024640D01*
X0019809Y0024793D01*
X0019776Y0024948D01*
X0019746Y0025104D01*
X0019720Y0025260D01*
X0019699Y0025417D01*
X0019681Y0025574D01*
X0019667Y0025732D01*
X0019657Y0025890D01*
X0019651Y0026048D01*
X0019649Y0026206D01*
D19*
X0105511Y0093643D03*
X0115011Y0114643D03*
X0119011Y0114643D03*
X0111011Y0125143D03*
X0119011Y0138643D03*
X0122011Y0138643D03*
X0154511Y0118143D03*
X0158511Y0118143D03*
X0141011Y0107143D03*
X0141011Y0104143D03*
X0148511Y0091143D03*
X0156011Y0098643D03*
X0148511Y0082643D03*
X0184511Y0110143D03*
X0192511Y0110143D03*
X0227011Y0099643D03*
X0230011Y0099643D03*
X0161511Y0142643D03*
X0158511Y0142643D03*
X0167811Y0175943D03*
X0167811Y0187443D03*
X0180511Y0198643D03*
X0183511Y0198643D03*
X0194511Y0204143D03*
X0199811Y0197443D03*
X0199811Y0187443D03*
X0199811Y0175943D03*
X0230011Y0175943D03*
X0230011Y0187443D03*
X0230011Y0197443D03*
X0230011Y0208143D03*
X0239011Y0218143D03*
X0242011Y0218143D03*
X0252511Y0223643D03*
X0261511Y0229643D03*
X0252511Y0235643D03*
X0227511Y0246643D03*
X0227511Y0249643D03*
X0194511Y0216143D03*
X0203511Y0210143D03*
X0175011Y0228143D03*
X0175011Y0236143D03*
X0175011Y0244143D03*
X0141511Y0237143D03*
X0141511Y0234143D03*
X0129011Y0223643D03*
X0124011Y0223643D03*
X0126011Y0233143D03*
X0134311Y0195943D03*
X0143311Y0189943D03*
X0134311Y0183943D03*
X0123511Y0175643D03*
X0120511Y0175643D03*
X0098511Y0191643D03*
X0098511Y0194743D03*
X0074611Y0198243D03*
X0070711Y0188043D03*
X0257011Y0187443D03*
X0257011Y0197443D03*
X0257011Y0208143D03*
X0281011Y0208143D03*
X0281011Y0217443D03*
X0281011Y0228143D03*
X0281011Y0197443D03*
X0281011Y0187443D03*
X0281011Y0175943D03*
X0257011Y0175943D03*
D20*
X0317496Y0016443D02*
X0017864Y0016443D01*
X0017266Y0017041D02*
X0318095Y0017041D01*
X0318693Y0017640D02*
X0016667Y0017640D01*
X0016069Y0018238D02*
X0319292Y0018238D01*
X0319890Y0018837D02*
X0311480Y0018837D01*
X0310924Y0018606D02*
X0313717Y0019763D01*
X0315855Y0021901D01*
X0317012Y0024694D01*
X0317012Y0027717D01*
X0315855Y0030510D01*
X0313717Y0032648D01*
X0310924Y0033805D01*
X0307901Y0033805D01*
X0305108Y0032648D01*
X0302970Y0030510D01*
X0301813Y0027717D01*
X0301813Y0024694D01*
X0302970Y0021901D01*
X0305108Y0019763D01*
X0307901Y0018606D01*
X0310924Y0018606D01*
X0312925Y0019435D02*
X0320489Y0019435D01*
X0321087Y0020034D02*
X0313988Y0020034D01*
X0314586Y0020632D02*
X0321686Y0020632D01*
X0322284Y0021231D02*
X0315185Y0021231D01*
X0315783Y0021829D02*
X0322883Y0021829D01*
X0323481Y0022428D02*
X0316073Y0022428D01*
X0316321Y0023026D02*
X0323861Y0023026D01*
X0323861Y0022807D02*
X0312811Y0011757D01*
X0022549Y0011757D01*
X0011500Y0022807D01*
X0011500Y0313069D01*
X0022549Y0324118D01*
X0312811Y0324118D01*
X0323861Y0313069D01*
X0323861Y0022807D01*
X0323861Y0023625D02*
X0316569Y0023625D01*
X0316817Y0024223D02*
X0323861Y0024223D01*
X0323861Y0024822D02*
X0317012Y0024822D01*
X0317012Y0025420D02*
X0323861Y0025420D01*
X0323861Y0026019D02*
X0317012Y0026019D01*
X0317012Y0026617D02*
X0323861Y0026617D01*
X0323861Y0027216D02*
X0317012Y0027216D01*
X0316972Y0027814D02*
X0323861Y0027814D01*
X0323861Y0028413D02*
X0316724Y0028413D01*
X0316476Y0029011D02*
X0323861Y0029011D01*
X0323861Y0029610D02*
X0316228Y0029610D01*
X0315980Y0030208D02*
X0323861Y0030208D01*
X0323861Y0030807D02*
X0315558Y0030807D01*
X0314960Y0031405D02*
X0323861Y0031405D01*
X0323861Y0032004D02*
X0314361Y0032004D01*
X0313763Y0032602D02*
X0323861Y0032602D01*
X0323861Y0033201D02*
X0312382Y0033201D01*
X0310937Y0033799D02*
X0323861Y0033799D01*
X0323861Y0034398D02*
X0168252Y0034398D01*
X0168083Y0034807D02*
X0167481Y0035849D01*
X0166749Y0036803D01*
X0165899Y0037653D01*
X0164945Y0038385D01*
X0163903Y0038987D01*
X0162792Y0039447D01*
X0161631Y0039758D01*
X0160438Y0039915D01*
X0160137Y0039915D01*
X0160137Y0031041D01*
X0159537Y0031041D01*
X0159537Y0039915D01*
X0159236Y0039915D01*
X0158043Y0039758D01*
X0156882Y0039447D01*
X0155771Y0038987D01*
X0154729Y0038385D01*
X0153775Y0037653D01*
X0152925Y0036803D01*
X0152193Y0035849D01*
X0151591Y0034807D01*
X0151131Y0033696D01*
X0150820Y0032535D01*
X0150663Y0031342D01*
X0150663Y0031041D01*
X0159537Y0031041D01*
X0159537Y0030441D01*
X0150663Y0030441D01*
X0150663Y0030140D01*
X0150820Y0028947D01*
X0151131Y0027786D01*
X0151591Y0026675D01*
X0152193Y0025633D01*
X0152925Y0024679D01*
X0153775Y0023829D01*
X0154729Y0023097D01*
X0155771Y0022495D01*
X0156882Y0022035D01*
X0158043Y0021724D01*
X0159236Y0021567D01*
X0159537Y0021567D01*
X0159537Y0030441D01*
X0160137Y0030441D01*
X0160137Y0031041D01*
X0169011Y0031041D01*
X0169011Y0031342D01*
X0168854Y0032535D01*
X0168543Y0033696D01*
X0168083Y0034807D01*
X0167973Y0034996D02*
X0323861Y0034996D01*
X0323861Y0035595D02*
X0167628Y0035595D01*
X0167217Y0036193D02*
X0323861Y0036193D01*
X0323861Y0036792D02*
X0166757Y0036792D01*
X0166161Y0037390D02*
X0323861Y0037390D01*
X0323861Y0037989D02*
X0165461Y0037989D01*
X0164594Y0038588D02*
X0323861Y0038588D01*
X0323861Y0039186D02*
X0163422Y0039186D01*
X0161429Y0039785D02*
X0178802Y0039785D01*
X0178882Y0039752D02*
X0180043Y0039440D01*
X0181236Y0039283D01*
X0181537Y0039283D01*
X0181537Y0048157D01*
X0182137Y0048157D01*
X0182137Y0039283D01*
X0182438Y0039283D01*
X0183631Y0039440D01*
X0184792Y0039752D01*
X0185903Y0040212D01*
X0186945Y0040813D01*
X0187899Y0041545D01*
X0188749Y0042396D01*
X0189481Y0043350D01*
X0190083Y0044391D01*
X0190543Y0045502D01*
X0190854Y0046664D01*
X0191011Y0047856D01*
X0191011Y0048157D01*
X0182137Y0048157D01*
X0182137Y0048757D01*
X0191011Y0048757D01*
X0191011Y0049059D01*
X0190854Y0050251D01*
X0190543Y0051413D01*
X0190083Y0052524D01*
X0189481Y0053565D01*
X0188749Y0054519D01*
X0187899Y0055370D01*
X0186945Y0056102D01*
X0185903Y0056703D01*
X0184792Y0057163D01*
X0183631Y0057475D01*
X0182438Y0057631D01*
X0182137Y0057631D01*
X0182137Y0048758D01*
X0181537Y0048758D01*
X0181537Y0057631D01*
X0181236Y0057631D01*
X0180043Y0057475D01*
X0178882Y0057163D01*
X0177771Y0056703D01*
X0176729Y0056102D01*
X0175775Y0055370D01*
X0174925Y0054519D01*
X0174193Y0053565D01*
X0173591Y0052524D01*
X0173131Y0051413D01*
X0172820Y0050251D01*
X0172663Y0049059D01*
X0172663Y0048757D01*
X0181537Y0048757D01*
X0181537Y0048157D01*
X0172663Y0048157D01*
X0172663Y0047856D01*
X0172820Y0046664D01*
X0173131Y0045502D01*
X0173591Y0044391D01*
X0174193Y0043350D01*
X0174925Y0042396D01*
X0175775Y0041545D01*
X0176729Y0040813D01*
X0177771Y0040212D01*
X0178882Y0039752D01*
X0177474Y0040383D02*
X0142200Y0040383D01*
X0141903Y0040212D02*
X0142945Y0040813D01*
X0143899Y0041545D01*
X0144749Y0042396D01*
X0145481Y0043350D01*
X0146083Y0044391D01*
X0146543Y0045502D01*
X0146854Y0046664D01*
X0147011Y0047856D01*
X0147011Y0048157D01*
X0138137Y0048157D01*
X0138137Y0039283D01*
X0138438Y0039283D01*
X0139631Y0039440D01*
X0140792Y0039752D01*
X0141903Y0040212D01*
X0140872Y0039785D02*
X0158245Y0039785D01*
X0159537Y0039785D02*
X0160137Y0039785D01*
X0160137Y0039186D02*
X0159537Y0039186D01*
X0159537Y0038588D02*
X0160137Y0038588D01*
X0160137Y0037989D02*
X0159537Y0037989D01*
X0159537Y0037390D02*
X0160137Y0037390D01*
X0160137Y0036792D02*
X0159537Y0036792D01*
X0159537Y0036193D02*
X0160137Y0036193D01*
X0160137Y0035595D02*
X0159537Y0035595D01*
X0159537Y0034996D02*
X0160137Y0034996D01*
X0160137Y0034398D02*
X0159537Y0034398D01*
X0159537Y0033799D02*
X0160137Y0033799D01*
X0160137Y0033201D02*
X0159537Y0033201D01*
X0159537Y0032602D02*
X0160137Y0032602D01*
X0160137Y0032004D02*
X0159537Y0032004D01*
X0159537Y0031405D02*
X0160137Y0031405D01*
X0160137Y0030807D02*
X0303267Y0030807D01*
X0302845Y0030208D02*
X0169011Y0030208D01*
X0169011Y0030140D02*
X0169011Y0030441D01*
X0160137Y0030441D01*
X0160137Y0021567D01*
X0160438Y0021567D01*
X0161631Y0021724D01*
X0162792Y0022035D01*
X0163903Y0022495D01*
X0164945Y0023097D01*
X0165899Y0023829D01*
X0166749Y0024679D01*
X0167481Y0025633D01*
X0168083Y0026675D01*
X0168543Y0027786D01*
X0168854Y0028947D01*
X0169011Y0030140D01*
X0168941Y0029610D02*
X0302597Y0029610D01*
X0302349Y0029011D02*
X0168862Y0029011D01*
X0168711Y0028413D02*
X0302102Y0028413D01*
X0301854Y0027814D02*
X0168550Y0027814D01*
X0168307Y0027216D02*
X0301813Y0027216D01*
X0301813Y0026617D02*
X0168049Y0026617D01*
X0167704Y0026019D02*
X0301813Y0026019D01*
X0301813Y0025420D02*
X0167318Y0025420D01*
X0166859Y0024822D02*
X0301813Y0024822D01*
X0302008Y0024223D02*
X0166293Y0024223D01*
X0165633Y0023625D02*
X0302256Y0023625D01*
X0302504Y0023026D02*
X0164823Y0023026D01*
X0163740Y0022428D02*
X0302752Y0022428D01*
X0303042Y0021829D02*
X0162024Y0021829D01*
X0160137Y0021829D02*
X0159537Y0021829D01*
X0159537Y0022428D02*
X0160137Y0022428D01*
X0160137Y0023026D02*
X0159537Y0023026D01*
X0159537Y0023625D02*
X0160137Y0023625D01*
X0160137Y0024223D02*
X0159537Y0024223D01*
X0159537Y0024822D02*
X0160137Y0024822D01*
X0160137Y0025420D02*
X0159537Y0025420D01*
X0159537Y0026019D02*
X0160137Y0026019D01*
X0160137Y0026617D02*
X0159537Y0026617D01*
X0159537Y0027216D02*
X0160137Y0027216D01*
X0160137Y0027814D02*
X0159537Y0027814D01*
X0159537Y0028413D02*
X0160137Y0028413D01*
X0160137Y0029011D02*
X0159537Y0029011D01*
X0159537Y0029610D02*
X0160137Y0029610D01*
X0160137Y0030208D02*
X0159537Y0030208D01*
X0159537Y0030807D02*
X0090911Y0030807D01*
X0090911Y0031405D02*
X0150671Y0031405D01*
X0150750Y0032004D02*
X0090911Y0032004D01*
X0090911Y0032486D02*
X0089575Y0035711D01*
X0087107Y0038179D01*
X0083882Y0039515D01*
X0080392Y0039515D01*
X0077167Y0038179D01*
X0074699Y0035711D01*
X0073363Y0032486D01*
X0073363Y0028996D01*
X0074699Y0025771D01*
X0077167Y0023303D01*
X0080392Y0021967D01*
X0083882Y0021967D01*
X0087107Y0023303D01*
X0089575Y0025771D01*
X0090911Y0028996D01*
X0090911Y0032486D01*
X0090863Y0032602D02*
X0150838Y0032602D01*
X0150999Y0033201D02*
X0090615Y0033201D01*
X0090367Y0033799D02*
X0151174Y0033799D01*
X0151422Y0034398D02*
X0090119Y0034398D01*
X0089871Y0034996D02*
X0151701Y0034996D01*
X0152046Y0035595D02*
X0089623Y0035595D01*
X0089093Y0036193D02*
X0152457Y0036193D01*
X0152917Y0036792D02*
X0088494Y0036792D01*
X0087896Y0037390D02*
X0153513Y0037390D01*
X0154213Y0037989D02*
X0087297Y0037989D01*
X0086121Y0038588D02*
X0155080Y0038588D01*
X0156252Y0039186D02*
X0084676Y0039186D01*
X0083315Y0042538D02*
X0080959Y0042538D01*
X0078784Y0043439D01*
X0077119Y0045104D01*
X0076217Y0047280D01*
X0076217Y0049635D01*
X0077119Y0051811D01*
X0078784Y0053476D01*
X0080959Y0054377D01*
X0083315Y0054377D01*
X0085490Y0053476D01*
X0087155Y0051811D01*
X0088057Y0049635D01*
X0088057Y0047280D01*
X0087155Y0045104D01*
X0085490Y0043439D01*
X0083315Y0042538D01*
X0083892Y0042777D02*
X0097409Y0042777D01*
X0098008Y0042179D02*
X0066266Y0042179D01*
X0065668Y0041580D02*
X0098606Y0041580D01*
X0099167Y0041019D02*
X0102392Y0039683D01*
X0105882Y0039683D01*
X0109107Y0041019D01*
X0111575Y0043487D01*
X0112911Y0046712D01*
X0112911Y0050203D01*
X0111575Y0053428D01*
X0109107Y0055896D01*
X0105882Y0057231D01*
X0102392Y0057231D01*
X0099167Y0055896D01*
X0096699Y0053428D01*
X0095363Y0050203D01*
X0095363Y0046712D01*
X0096699Y0043487D01*
X0099167Y0041019D01*
X0099258Y0040982D02*
X0065016Y0040982D01*
X0065107Y0041019D02*
X0067575Y0043487D01*
X0068911Y0046712D01*
X0068911Y0050203D01*
X0067575Y0053428D01*
X0065107Y0055896D01*
X0061882Y0057231D01*
X0058392Y0057231D01*
X0055167Y0055896D01*
X0052699Y0053428D01*
X0051363Y0050203D01*
X0051363Y0046712D01*
X0052699Y0043487D01*
X0055167Y0041019D01*
X0058392Y0039683D01*
X0061882Y0039683D01*
X0065107Y0041019D01*
X0063571Y0040383D02*
X0100703Y0040383D01*
X0102148Y0039785D02*
X0062126Y0039785D01*
X0058148Y0039785D02*
X0011500Y0039785D01*
X0011500Y0040383D02*
X0056703Y0040383D01*
X0055258Y0040982D02*
X0011500Y0040982D01*
X0011500Y0041580D02*
X0054606Y0041580D01*
X0054008Y0042179D02*
X0011500Y0042179D01*
X0011500Y0042777D02*
X0053409Y0042777D01*
X0052811Y0043376D02*
X0011500Y0043376D01*
X0011500Y0043974D02*
X0052497Y0043974D01*
X0052249Y0044573D02*
X0011500Y0044573D01*
X0011500Y0045171D02*
X0052001Y0045171D01*
X0051753Y0045770D02*
X0011500Y0045770D01*
X0011500Y0046368D02*
X0051505Y0046368D01*
X0051363Y0046967D02*
X0011500Y0046967D01*
X0011500Y0047565D02*
X0051363Y0047565D01*
X0051363Y0048164D02*
X0011500Y0048164D01*
X0011500Y0048762D02*
X0051363Y0048762D01*
X0051363Y0049361D02*
X0011500Y0049361D01*
X0011500Y0049959D02*
X0051363Y0049959D01*
X0051510Y0050558D02*
X0011500Y0050558D01*
X0011500Y0051156D02*
X0051758Y0051156D01*
X0052006Y0051755D02*
X0011500Y0051755D01*
X0011500Y0052353D02*
X0052254Y0052353D01*
X0052502Y0052952D02*
X0011500Y0052952D01*
X0011500Y0053550D02*
X0052821Y0053550D01*
X0053420Y0054149D02*
X0011500Y0054149D01*
X0011500Y0054747D02*
X0054019Y0054747D01*
X0054617Y0055346D02*
X0011500Y0055346D01*
X0011500Y0055944D02*
X0055284Y0055944D01*
X0056729Y0056543D02*
X0011500Y0056543D01*
X0011500Y0057141D02*
X0058174Y0057141D01*
X0062100Y0057141D02*
X0102174Y0057141D01*
X0100729Y0056543D02*
X0063545Y0056543D01*
X0064990Y0055944D02*
X0099284Y0055944D01*
X0098617Y0055346D02*
X0065657Y0055346D01*
X0066255Y0054747D02*
X0098019Y0054747D01*
X0097420Y0054149D02*
X0083866Y0054149D01*
X0085311Y0053550D02*
X0096821Y0053550D01*
X0096502Y0052952D02*
X0086014Y0052952D01*
X0086613Y0052353D02*
X0096254Y0052353D01*
X0096006Y0051755D02*
X0087179Y0051755D01*
X0087427Y0051156D02*
X0095758Y0051156D01*
X0095510Y0050558D02*
X0087674Y0050558D01*
X0087922Y0049959D02*
X0095363Y0049959D01*
X0095363Y0049361D02*
X0088057Y0049361D01*
X0088057Y0048762D02*
X0095363Y0048762D01*
X0095363Y0048164D02*
X0088057Y0048164D01*
X0088057Y0047565D02*
X0095363Y0047565D01*
X0095363Y0046967D02*
X0087927Y0046967D01*
X0087679Y0046368D02*
X0095505Y0046368D01*
X0095753Y0045770D02*
X0087431Y0045770D01*
X0087183Y0045171D02*
X0096001Y0045171D01*
X0096249Y0044573D02*
X0086624Y0044573D01*
X0086025Y0043974D02*
X0096497Y0043974D01*
X0096811Y0043376D02*
X0085337Y0043376D01*
X0080382Y0042777D02*
X0066865Y0042777D01*
X0067463Y0043376D02*
X0078937Y0043376D01*
X0078249Y0043974D02*
X0067777Y0043974D01*
X0068025Y0044573D02*
X0077650Y0044573D01*
X0077091Y0045171D02*
X0068273Y0045171D01*
X0068521Y0045770D02*
X0076843Y0045770D01*
X0076595Y0046368D02*
X0068768Y0046368D01*
X0068911Y0046967D02*
X0076347Y0046967D01*
X0076217Y0047565D02*
X0068911Y0047565D01*
X0068911Y0048164D02*
X0076217Y0048164D01*
X0076217Y0048762D02*
X0068911Y0048762D01*
X0068911Y0049361D02*
X0076217Y0049361D01*
X0076352Y0049959D02*
X0068911Y0049959D01*
X0068764Y0050558D02*
X0076600Y0050558D01*
X0076847Y0051156D02*
X0068516Y0051156D01*
X0068268Y0051755D02*
X0077095Y0051755D01*
X0077661Y0052353D02*
X0068020Y0052353D01*
X0067772Y0052952D02*
X0078260Y0052952D01*
X0078963Y0053550D02*
X0067453Y0053550D01*
X0066854Y0054149D02*
X0080408Y0054149D01*
X0079598Y0039186D02*
X0011500Y0039186D01*
X0011500Y0038588D02*
X0078153Y0038588D01*
X0076977Y0037989D02*
X0011500Y0037989D01*
X0011500Y0037390D02*
X0076378Y0037390D01*
X0075780Y0036792D02*
X0011500Y0036792D01*
X0011500Y0036193D02*
X0075181Y0036193D01*
X0074651Y0035595D02*
X0011500Y0035595D01*
X0011500Y0034996D02*
X0074403Y0034996D01*
X0074155Y0034398D02*
X0011500Y0034398D01*
X0011500Y0033799D02*
X0024424Y0033799D01*
X0024436Y0033805D02*
X0021643Y0032648D01*
X0019506Y0030510D01*
X0018349Y0027717D01*
X0018349Y0024694D01*
X0019506Y0021901D01*
X0021643Y0019763D01*
X0024436Y0018606D01*
X0027460Y0018606D01*
X0030253Y0019763D01*
X0032390Y0021901D01*
X0033547Y0024694D01*
X0033547Y0027717D01*
X0032390Y0030510D01*
X0030253Y0032648D01*
X0027460Y0033805D01*
X0024436Y0033805D01*
X0022979Y0033201D02*
X0011500Y0033201D01*
X0011500Y0032602D02*
X0021598Y0032602D01*
X0021000Y0032004D02*
X0011500Y0032004D01*
X0011500Y0031405D02*
X0020401Y0031405D01*
X0019802Y0030807D02*
X0011500Y0030807D01*
X0011500Y0030208D02*
X0019381Y0030208D01*
X0019133Y0029610D02*
X0011500Y0029610D01*
X0011500Y0029011D02*
X0018885Y0029011D01*
X0018637Y0028413D02*
X0011500Y0028413D01*
X0011500Y0027814D02*
X0018389Y0027814D01*
X0018349Y0027216D02*
X0011500Y0027216D01*
X0011500Y0026617D02*
X0018349Y0026617D01*
X0018349Y0026019D02*
X0011500Y0026019D01*
X0011500Y0025420D02*
X0018349Y0025420D01*
X0018349Y0024822D02*
X0011500Y0024822D01*
X0011500Y0024223D02*
X0018544Y0024223D01*
X0018792Y0023625D02*
X0011500Y0023625D01*
X0011500Y0023026D02*
X0019040Y0023026D01*
X0019288Y0022428D02*
X0011879Y0022428D01*
X0012478Y0021829D02*
X0019577Y0021829D01*
X0020176Y0021231D02*
X0013076Y0021231D01*
X0013675Y0020632D02*
X0020774Y0020632D01*
X0021373Y0020034D02*
X0014273Y0020034D01*
X0014872Y0019435D02*
X0022435Y0019435D01*
X0023880Y0018837D02*
X0015470Y0018837D01*
X0018463Y0015844D02*
X0316898Y0015844D01*
X0316299Y0015246D02*
X0019061Y0015246D01*
X0019660Y0014647D02*
X0315701Y0014647D01*
X0315102Y0014049D02*
X0020258Y0014049D01*
X0020857Y0013450D02*
X0314504Y0013450D01*
X0313905Y0012852D02*
X0021455Y0012852D01*
X0022054Y0012253D02*
X0313307Y0012253D01*
X0307345Y0018837D02*
X0028016Y0018837D01*
X0029461Y0019435D02*
X0305900Y0019435D01*
X0304838Y0020034D02*
X0030523Y0020034D01*
X0031122Y0020632D02*
X0304239Y0020632D01*
X0303641Y0021231D02*
X0031720Y0021231D01*
X0032319Y0021829D02*
X0157650Y0021829D01*
X0155934Y0022428D02*
X0084995Y0022428D01*
X0086440Y0023026D02*
X0154851Y0023026D01*
X0154041Y0023625D02*
X0087429Y0023625D01*
X0088028Y0024223D02*
X0153381Y0024223D01*
X0152815Y0024822D02*
X0088626Y0024822D01*
X0089225Y0025420D02*
X0152356Y0025420D01*
X0151970Y0026019D02*
X0089678Y0026019D01*
X0089926Y0026617D02*
X0151625Y0026617D01*
X0151367Y0027216D02*
X0090174Y0027216D01*
X0090422Y0027814D02*
X0151124Y0027814D01*
X0150963Y0028413D02*
X0090670Y0028413D01*
X0090911Y0029011D02*
X0150812Y0029011D01*
X0150733Y0029610D02*
X0090911Y0029610D01*
X0090911Y0030208D02*
X0150663Y0030208D01*
X0138137Y0039785D02*
X0137537Y0039785D01*
X0137537Y0039283D02*
X0137537Y0048157D01*
X0138137Y0048157D01*
X0138137Y0048757D01*
X0147011Y0048757D01*
X0147011Y0049059D01*
X0146854Y0050251D01*
X0146543Y0051413D01*
X0146083Y0052524D01*
X0145481Y0053565D01*
X0144749Y0054519D01*
X0143899Y0055370D01*
X0142945Y0056102D01*
X0141903Y0056703D01*
X0140792Y0057163D01*
X0139631Y0057475D01*
X0138438Y0057631D01*
X0138137Y0057631D01*
X0138137Y0048758D01*
X0137537Y0048758D01*
X0137537Y0057631D01*
X0137236Y0057631D01*
X0136043Y0057475D01*
X0134882Y0057163D01*
X0133771Y0056703D01*
X0132729Y0056102D01*
X0131775Y0055370D01*
X0130925Y0054519D01*
X0130193Y0053565D01*
X0129591Y0052524D01*
X0129131Y0051413D01*
X0128820Y0050251D01*
X0128663Y0049059D01*
X0128663Y0048757D01*
X0137537Y0048757D01*
X0137537Y0048157D01*
X0128663Y0048157D01*
X0128663Y0047856D01*
X0128820Y0046664D01*
X0129131Y0045502D01*
X0129591Y0044391D01*
X0130193Y0043350D01*
X0130925Y0042396D01*
X0131775Y0041545D01*
X0132729Y0040813D01*
X0133771Y0040212D01*
X0134882Y0039752D01*
X0136043Y0039440D01*
X0137236Y0039283D01*
X0137537Y0039283D01*
X0137537Y0040383D02*
X0138137Y0040383D01*
X0138137Y0040982D02*
X0137537Y0040982D01*
X0137537Y0041580D02*
X0138137Y0041580D01*
X0138137Y0042179D02*
X0137537Y0042179D01*
X0137537Y0042777D02*
X0138137Y0042777D01*
X0138137Y0043376D02*
X0137537Y0043376D01*
X0137537Y0043974D02*
X0138137Y0043974D01*
X0138137Y0044573D02*
X0137537Y0044573D01*
X0137537Y0045171D02*
X0138137Y0045171D01*
X0138137Y0045770D02*
X0137537Y0045770D01*
X0137537Y0046368D02*
X0138137Y0046368D01*
X0138137Y0046967D02*
X0137537Y0046967D01*
X0137537Y0047565D02*
X0138137Y0047565D01*
X0138137Y0048164D02*
X0153917Y0048164D01*
X0153917Y0048762D02*
X0147011Y0048762D01*
X0146971Y0049361D02*
X0153917Y0049361D01*
X0153917Y0049635D02*
X0153917Y0047280D01*
X0154819Y0045104D01*
X0156484Y0043439D01*
X0158659Y0042538D01*
X0161015Y0042538D01*
X0163190Y0043439D01*
X0164855Y0045104D01*
X0165757Y0047280D01*
X0165757Y0049635D01*
X0164855Y0051811D01*
X0163190Y0053476D01*
X0161015Y0054377D01*
X0158659Y0054377D01*
X0156484Y0053476D01*
X0154819Y0051811D01*
X0153917Y0049635D01*
X0154052Y0049959D02*
X0146892Y0049959D01*
X0146772Y0050558D02*
X0154300Y0050558D01*
X0154547Y0051156D02*
X0146612Y0051156D01*
X0146401Y0051755D02*
X0154795Y0051755D01*
X0155361Y0052353D02*
X0146153Y0052353D01*
X0145835Y0052952D02*
X0155960Y0052952D01*
X0156663Y0053550D02*
X0145490Y0053550D01*
X0145033Y0054149D02*
X0158108Y0054149D01*
X0161566Y0054149D02*
X0174641Y0054149D01*
X0174184Y0053550D02*
X0163011Y0053550D01*
X0163714Y0052952D02*
X0173839Y0052952D01*
X0173521Y0052353D02*
X0164313Y0052353D01*
X0164879Y0051755D02*
X0173273Y0051755D01*
X0173063Y0051156D02*
X0165127Y0051156D01*
X0165374Y0050558D02*
X0172902Y0050558D01*
X0172782Y0049959D02*
X0165622Y0049959D01*
X0165757Y0049361D02*
X0172703Y0049361D01*
X0172663Y0048762D02*
X0165757Y0048762D01*
X0165757Y0048164D02*
X0181537Y0048164D01*
X0181537Y0048762D02*
X0182137Y0048762D01*
X0182137Y0048164D02*
X0226959Y0048164D01*
X0227712Y0048476D02*
X0226187Y0047844D01*
X0225020Y0046677D01*
X0224389Y0045153D01*
X0224389Y0043502D01*
X0225020Y0041978D01*
X0226187Y0040811D01*
X0227712Y0040180D01*
X0229362Y0040180D01*
X0230887Y0040811D01*
X0232054Y0041978D01*
X0232685Y0043502D01*
X0232685Y0045153D01*
X0232054Y0046677D01*
X0230887Y0047844D01*
X0229362Y0048476D01*
X0227712Y0048476D01*
X0225908Y0047565D02*
X0190973Y0047565D01*
X0190894Y0046967D02*
X0225310Y0046967D01*
X0224892Y0046368D02*
X0190775Y0046368D01*
X0190614Y0045770D02*
X0224645Y0045770D01*
X0224397Y0045171D02*
X0190406Y0045171D01*
X0190158Y0044573D02*
X0224389Y0044573D01*
X0224389Y0043974D02*
X0189842Y0043974D01*
X0189496Y0043376D02*
X0224442Y0043376D01*
X0224689Y0042777D02*
X0189042Y0042777D01*
X0188532Y0042179D02*
X0224937Y0042179D01*
X0225418Y0041580D02*
X0187934Y0041580D01*
X0187164Y0040982D02*
X0226017Y0040982D01*
X0227221Y0040383D02*
X0186200Y0040383D01*
X0184872Y0039785D02*
X0323861Y0039785D01*
X0323861Y0040383D02*
X0249853Y0040383D01*
X0249362Y0040180D02*
X0250887Y0040811D01*
X0252054Y0041978D01*
X0252685Y0043502D01*
X0252685Y0045153D01*
X0252054Y0046677D01*
X0250887Y0047844D01*
X0249362Y0048476D01*
X0247712Y0048476D01*
X0246187Y0047844D01*
X0245020Y0046677D01*
X0244389Y0045153D01*
X0244389Y0043502D01*
X0245020Y0041978D01*
X0246187Y0040811D01*
X0247712Y0040180D01*
X0249362Y0040180D01*
X0251057Y0040982D02*
X0323861Y0040982D01*
X0323861Y0041580D02*
X0251656Y0041580D01*
X0252137Y0042179D02*
X0323861Y0042179D01*
X0323861Y0042777D02*
X0252385Y0042777D01*
X0252632Y0043376D02*
X0323861Y0043376D01*
X0323861Y0043974D02*
X0252685Y0043974D01*
X0252685Y0044573D02*
X0323861Y0044573D01*
X0323861Y0045171D02*
X0252677Y0045171D01*
X0252429Y0045770D02*
X0323861Y0045770D01*
X0323861Y0046368D02*
X0252182Y0046368D01*
X0251764Y0046967D02*
X0323861Y0046967D01*
X0323861Y0047565D02*
X0251166Y0047565D01*
X0250115Y0048164D02*
X0323861Y0048164D01*
X0323861Y0048762D02*
X0191011Y0048762D01*
X0190971Y0049361D02*
X0323861Y0049361D01*
X0323861Y0049959D02*
X0190892Y0049959D01*
X0190772Y0050558D02*
X0323861Y0050558D01*
X0323861Y0051156D02*
X0240246Y0051156D01*
X0240372Y0051209D02*
X0241007Y0051633D01*
X0241547Y0052172D01*
X0241971Y0052807D01*
X0242263Y0053512D01*
X0242412Y0054261D01*
X0242412Y0054343D01*
X0238837Y0054343D01*
X0238837Y0054942D01*
X0242412Y0054942D01*
X0242412Y0055024D01*
X0242263Y0055773D01*
X0241971Y0056478D01*
X0241547Y0057113D01*
X0241007Y0057652D01*
X0240372Y0058076D01*
X0239667Y0058368D01*
X0238919Y0058517D01*
X0238837Y0058517D01*
X0238837Y0054943D01*
X0238237Y0054943D01*
X0238237Y0058517D01*
X0238155Y0058517D01*
X0237407Y0058368D01*
X0236702Y0058076D01*
X0236067Y0057652D01*
X0235527Y0057113D01*
X0235103Y0056478D01*
X0234811Y0055773D01*
X0234662Y0055024D01*
X0234662Y0054942D01*
X0238237Y0054942D01*
X0238237Y0054343D01*
X0234662Y0054343D01*
X0234662Y0054261D01*
X0234811Y0053512D01*
X0235103Y0052807D01*
X0235527Y0052172D01*
X0236067Y0051633D01*
X0236702Y0051209D01*
X0237407Y0050917D01*
X0238155Y0050768D01*
X0238237Y0050768D01*
X0238237Y0054342D01*
X0238837Y0054342D01*
X0238837Y0050768D01*
X0238919Y0050768D01*
X0239667Y0050917D01*
X0240372Y0051209D01*
X0241129Y0051755D02*
X0246511Y0051755D01*
X0246569Y0051697D02*
X0247846Y0051168D01*
X0249228Y0051168D01*
X0250505Y0051697D01*
X0251483Y0052674D01*
X0252012Y0053951D01*
X0252012Y0055334D01*
X0251483Y0056611D01*
X0250505Y0057588D01*
X0249228Y0058117D01*
X0247846Y0058117D01*
X0246569Y0057588D01*
X0245591Y0056611D01*
X0245062Y0055334D01*
X0245062Y0053951D01*
X0245591Y0052674D01*
X0246569Y0051697D01*
X0245912Y0052353D02*
X0241668Y0052353D01*
X0242031Y0052952D02*
X0245476Y0052952D01*
X0245228Y0053550D02*
X0242270Y0053550D01*
X0242390Y0054149D02*
X0245062Y0054149D01*
X0245062Y0054747D02*
X0238837Y0054747D01*
X0238837Y0054149D02*
X0238237Y0054149D01*
X0238237Y0054747D02*
X0232012Y0054747D01*
X0232012Y0054149D02*
X0234684Y0054149D01*
X0234804Y0053550D02*
X0232012Y0053550D01*
X0232012Y0052952D02*
X0235043Y0052952D01*
X0235406Y0052353D02*
X0232012Y0052353D01*
X0232012Y0051755D02*
X0235945Y0051755D01*
X0236828Y0051156D02*
X0190612Y0051156D01*
X0190401Y0051755D02*
X0225062Y0051755D01*
X0225062Y0051695D02*
X0225589Y0051168D01*
X0231485Y0051168D01*
X0232012Y0051695D01*
X0232012Y0057590D01*
X0231485Y0058117D01*
X0225589Y0058117D01*
X0225062Y0057590D01*
X0225062Y0051695D01*
X0225062Y0052353D02*
X0190153Y0052353D01*
X0189835Y0052952D02*
X0225062Y0052952D01*
X0225062Y0053550D02*
X0189490Y0053550D01*
X0189033Y0054149D02*
X0225062Y0054149D01*
X0225062Y0054747D02*
X0188521Y0054747D01*
X0187923Y0055346D02*
X0225062Y0055346D01*
X0225062Y0055944D02*
X0187150Y0055944D01*
X0186181Y0056543D02*
X0225062Y0056543D01*
X0225062Y0057141D02*
X0184845Y0057141D01*
X0182137Y0057141D02*
X0181537Y0057141D01*
X0181537Y0056543D02*
X0182137Y0056543D01*
X0182137Y0055944D02*
X0181537Y0055944D01*
X0181537Y0055346D02*
X0182137Y0055346D01*
X0182137Y0054747D02*
X0181537Y0054747D01*
X0181537Y0054149D02*
X0182137Y0054149D01*
X0182137Y0053550D02*
X0181537Y0053550D01*
X0181537Y0052952D02*
X0182137Y0052952D01*
X0182137Y0052353D02*
X0181537Y0052353D01*
X0181537Y0051755D02*
X0182137Y0051755D01*
X0182137Y0051156D02*
X0181537Y0051156D01*
X0181537Y0050558D02*
X0182137Y0050558D01*
X0182137Y0049959D02*
X0181537Y0049959D01*
X0181537Y0049361D02*
X0182137Y0049361D01*
X0182137Y0047565D02*
X0181537Y0047565D01*
X0181537Y0046967D02*
X0182137Y0046967D01*
X0182137Y0046368D02*
X0181537Y0046368D01*
X0181537Y0045770D02*
X0182137Y0045770D01*
X0182137Y0045171D02*
X0181537Y0045171D01*
X0181537Y0044573D02*
X0182137Y0044573D01*
X0182137Y0043974D02*
X0181537Y0043974D01*
X0181537Y0043376D02*
X0182137Y0043376D01*
X0182137Y0042777D02*
X0181537Y0042777D01*
X0181537Y0042179D02*
X0182137Y0042179D01*
X0182137Y0041580D02*
X0181537Y0041580D01*
X0181537Y0040982D02*
X0182137Y0040982D01*
X0182137Y0040383D02*
X0181537Y0040383D01*
X0181537Y0039785D02*
X0182137Y0039785D01*
X0176510Y0040982D02*
X0143164Y0040982D01*
X0143934Y0041580D02*
X0175740Y0041580D01*
X0175142Y0042179D02*
X0144532Y0042179D01*
X0145042Y0042777D02*
X0158082Y0042777D01*
X0156637Y0043376D02*
X0145496Y0043376D01*
X0145842Y0043974D02*
X0155949Y0043974D01*
X0155350Y0044573D02*
X0146158Y0044573D01*
X0146406Y0045171D02*
X0154791Y0045171D01*
X0154543Y0045770D02*
X0146614Y0045770D01*
X0146775Y0046368D02*
X0154295Y0046368D01*
X0154047Y0046967D02*
X0146894Y0046967D01*
X0146973Y0047565D02*
X0153917Y0047565D01*
X0161592Y0042777D02*
X0174632Y0042777D01*
X0174178Y0043376D02*
X0163037Y0043376D01*
X0163725Y0043974D02*
X0173832Y0043974D01*
X0173516Y0044573D02*
X0164324Y0044573D01*
X0164883Y0045171D02*
X0173268Y0045171D01*
X0173060Y0045770D02*
X0165131Y0045770D01*
X0165379Y0046368D02*
X0172899Y0046368D01*
X0172780Y0046967D02*
X0165627Y0046967D01*
X0165757Y0047565D02*
X0172701Y0047565D01*
X0175153Y0054747D02*
X0144521Y0054747D01*
X0143923Y0055346D02*
X0175751Y0055346D01*
X0176524Y0055944D02*
X0143150Y0055944D01*
X0142181Y0056543D02*
X0177493Y0056543D01*
X0178829Y0057141D02*
X0140845Y0057141D01*
X0138137Y0057141D02*
X0137537Y0057141D01*
X0137537Y0056543D02*
X0138137Y0056543D01*
X0138137Y0055944D02*
X0137537Y0055944D01*
X0137537Y0055346D02*
X0138137Y0055346D01*
X0138137Y0054747D02*
X0137537Y0054747D01*
X0137537Y0054149D02*
X0138137Y0054149D01*
X0138137Y0053550D02*
X0137537Y0053550D01*
X0137537Y0052952D02*
X0138137Y0052952D01*
X0138137Y0052353D02*
X0137537Y0052353D01*
X0137537Y0051755D02*
X0138137Y0051755D01*
X0138137Y0051156D02*
X0137537Y0051156D01*
X0137537Y0050558D02*
X0138137Y0050558D01*
X0138137Y0049959D02*
X0137537Y0049959D01*
X0137537Y0049361D02*
X0138137Y0049361D01*
X0138137Y0048762D02*
X0137537Y0048762D01*
X0137537Y0048164D02*
X0112911Y0048164D01*
X0112911Y0048762D02*
X0128663Y0048762D01*
X0128703Y0049361D02*
X0112911Y0049361D01*
X0112911Y0049959D02*
X0128782Y0049959D01*
X0128902Y0050558D02*
X0112764Y0050558D01*
X0112516Y0051156D02*
X0129063Y0051156D01*
X0129273Y0051755D02*
X0112268Y0051755D01*
X0112020Y0052353D02*
X0129521Y0052353D01*
X0129839Y0052952D02*
X0111772Y0052952D01*
X0111453Y0053550D02*
X0130184Y0053550D01*
X0130641Y0054149D02*
X0110854Y0054149D01*
X0110255Y0054747D02*
X0131153Y0054747D01*
X0131751Y0055346D02*
X0109657Y0055346D01*
X0108990Y0055944D02*
X0132524Y0055944D01*
X0133493Y0056543D02*
X0107545Y0056543D01*
X0106100Y0057141D02*
X0134829Y0057141D01*
X0128701Y0047565D02*
X0112911Y0047565D01*
X0112911Y0046967D02*
X0128780Y0046967D01*
X0128899Y0046368D02*
X0112768Y0046368D01*
X0112521Y0045770D02*
X0129060Y0045770D01*
X0129268Y0045171D02*
X0112273Y0045171D01*
X0112025Y0044573D02*
X0129516Y0044573D01*
X0129832Y0043974D02*
X0111777Y0043974D01*
X0111463Y0043376D02*
X0130178Y0043376D01*
X0130632Y0042777D02*
X0110865Y0042777D01*
X0110266Y0042179D02*
X0131142Y0042179D01*
X0131740Y0041580D02*
X0109668Y0041580D01*
X0109016Y0040982D02*
X0132510Y0040982D01*
X0133474Y0040383D02*
X0107571Y0040383D01*
X0106126Y0039785D02*
X0134802Y0039785D01*
X0168500Y0033799D02*
X0307888Y0033799D01*
X0306443Y0033201D02*
X0168675Y0033201D01*
X0168836Y0032602D02*
X0305063Y0032602D01*
X0304464Y0032004D02*
X0168924Y0032004D01*
X0169003Y0031405D02*
X0303866Y0031405D01*
X0323861Y0051755D02*
X0250563Y0051755D01*
X0251162Y0052353D02*
X0323861Y0052353D01*
X0323861Y0052952D02*
X0251598Y0052952D01*
X0251846Y0053550D02*
X0323861Y0053550D01*
X0323861Y0054149D02*
X0252012Y0054149D01*
X0252012Y0054747D02*
X0323861Y0054747D01*
X0323861Y0055346D02*
X0252007Y0055346D01*
X0251759Y0055944D02*
X0323861Y0055944D01*
X0323861Y0056543D02*
X0251511Y0056543D01*
X0250952Y0057141D02*
X0323861Y0057141D01*
X0323861Y0057740D02*
X0250139Y0057740D01*
X0246935Y0057740D02*
X0240876Y0057740D01*
X0241518Y0057141D02*
X0246122Y0057141D01*
X0245563Y0056543D02*
X0241927Y0056543D01*
X0242192Y0055944D02*
X0245315Y0055944D01*
X0245067Y0055346D02*
X0242348Y0055346D01*
X0238837Y0055346D02*
X0238237Y0055346D01*
X0238237Y0055944D02*
X0238837Y0055944D01*
X0238837Y0056543D02*
X0238237Y0056543D01*
X0238237Y0057141D02*
X0238837Y0057141D01*
X0238837Y0057740D02*
X0238237Y0057740D01*
X0238237Y0058338D02*
X0238837Y0058338D01*
X0239740Y0058338D02*
X0323861Y0058338D01*
X0323861Y0058937D02*
X0011500Y0058937D01*
X0011500Y0059535D02*
X0323861Y0059535D01*
X0323861Y0060134D02*
X0011500Y0060134D01*
X0011500Y0060732D02*
X0323861Y0060732D01*
X0323861Y0061331D02*
X0011500Y0061331D01*
X0011500Y0061929D02*
X0323861Y0061929D01*
X0323861Y0062528D02*
X0011500Y0062528D01*
X0011500Y0063126D02*
X0323861Y0063126D01*
X0323861Y0063725D02*
X0011500Y0063725D01*
X0011500Y0064323D02*
X0018240Y0064323D01*
X0018545Y0064018D02*
X0021776Y0064018D01*
X0024061Y0066303D01*
X0024061Y0069534D01*
X0021776Y0071818D01*
X0018545Y0071818D01*
X0016261Y0069534D01*
X0016261Y0066303D01*
X0018545Y0064018D01*
X0017641Y0064922D02*
X0011500Y0064922D01*
X0011500Y0065521D02*
X0017043Y0065521D01*
X0016444Y0066119D02*
X0011500Y0066119D01*
X0011500Y0066718D02*
X0016261Y0066718D01*
X0016261Y0067316D02*
X0011500Y0067316D01*
X0011500Y0067915D02*
X0016261Y0067915D01*
X0016261Y0068513D02*
X0011500Y0068513D01*
X0011500Y0069112D02*
X0016261Y0069112D01*
X0016437Y0069710D02*
X0011500Y0069710D01*
X0011500Y0070309D02*
X0017036Y0070309D01*
X0017634Y0070907D02*
X0011500Y0070907D01*
X0011500Y0071506D02*
X0018233Y0071506D01*
X0018545Y0074018D02*
X0016261Y0076303D01*
X0016261Y0079534D01*
X0018545Y0081818D01*
X0021776Y0081818D01*
X0024061Y0079534D01*
X0024061Y0076303D01*
X0021776Y0074018D01*
X0018545Y0074018D01*
X0018065Y0074498D02*
X0011500Y0074498D01*
X0011500Y0073900D02*
X0267057Y0073900D01*
X0267037Y0073837D02*
X0267285Y0074600D01*
X0267649Y0075316D01*
X0268121Y0075965D01*
X0268689Y0076533D01*
X0269338Y0077004D01*
X0270053Y0077369D01*
X0270817Y0077617D01*
X0271610Y0077743D01*
X0271711Y0077743D01*
X0271711Y0072943D01*
X0272311Y0072943D01*
X0272311Y0077743D01*
X0272412Y0077743D01*
X0273205Y0077617D01*
X0273969Y0077369D01*
X0274684Y0077004D01*
X0275333Y0076533D01*
X0275901Y0075965D01*
X0276373Y0075316D01*
X0276737Y0074600D01*
X0276985Y0073837D01*
X0277111Y0073044D01*
X0277111Y0072942D01*
X0272311Y0072942D01*
X0272311Y0072343D01*
X0277111Y0072343D01*
X0277111Y0072241D01*
X0276985Y0071448D01*
X0276737Y0070685D01*
X0276373Y0069970D01*
X0275901Y0069320D01*
X0275333Y0068752D01*
X0274684Y0068281D01*
X0273969Y0067916D01*
X0273205Y0067668D01*
X0272412Y0067543D01*
X0272311Y0067543D01*
X0272311Y0072342D01*
X0271711Y0072342D01*
X0271711Y0067543D01*
X0271610Y0067543D01*
X0270817Y0067668D01*
X0270053Y0067916D01*
X0269338Y0068281D01*
X0268689Y0068752D01*
X0268121Y0069320D01*
X0267649Y0069970D01*
X0267285Y0070685D01*
X0267037Y0071448D01*
X0266911Y0072241D01*
X0266911Y0072343D01*
X0271711Y0072343D01*
X0271711Y0072942D01*
X0266911Y0072942D01*
X0266911Y0073044D01*
X0267037Y0073837D01*
X0266952Y0073301D02*
X0011500Y0073301D01*
X0011500Y0072703D02*
X0271711Y0072703D01*
X0271711Y0073301D02*
X0272311Y0073301D01*
X0272311Y0072703D02*
X0323861Y0072703D01*
X0323861Y0073301D02*
X0277070Y0073301D01*
X0276965Y0073900D02*
X0323861Y0073900D01*
X0323861Y0074498D02*
X0276771Y0074498D01*
X0276484Y0075097D02*
X0323861Y0075097D01*
X0323861Y0075695D02*
X0276097Y0075695D01*
X0275572Y0076294D02*
X0323861Y0076294D01*
X0323861Y0076892D02*
X0274838Y0076892D01*
X0273594Y0077491D02*
X0323861Y0077491D01*
X0323861Y0078089D02*
X0193847Y0078089D01*
X0192814Y0077661D02*
X0195607Y0078818D01*
X0197745Y0080956D01*
X0198902Y0083749D01*
X0198902Y0086772D01*
X0197745Y0089565D01*
X0195607Y0091703D01*
X0192814Y0092860D01*
X0189791Y0092860D01*
X0186998Y0091703D01*
X0184860Y0089565D01*
X0183703Y0086772D01*
X0183703Y0083749D01*
X0184860Y0080956D01*
X0186998Y0078818D01*
X0189791Y0077661D01*
X0192814Y0077661D01*
X0195292Y0078688D02*
X0323861Y0078688D01*
X0323861Y0079286D02*
X0196075Y0079286D01*
X0196673Y0079885D02*
X0323861Y0079885D01*
X0323861Y0080483D02*
X0197272Y0080483D01*
X0197797Y0081082D02*
X0323861Y0081082D01*
X0323861Y0081680D02*
X0198045Y0081680D01*
X0198293Y0082279D02*
X0323861Y0082279D01*
X0323861Y0082877D02*
X0198540Y0082877D01*
X0198788Y0083476D02*
X0323861Y0083476D01*
X0323861Y0084074D02*
X0198902Y0084074D01*
X0198902Y0084673D02*
X0323861Y0084673D01*
X0323861Y0085271D02*
X0198902Y0085271D01*
X0198902Y0085870D02*
X0323861Y0085870D01*
X0323861Y0086468D02*
X0198902Y0086468D01*
X0198779Y0087067D02*
X0323861Y0087067D01*
X0323861Y0087665D02*
X0198532Y0087665D01*
X0198284Y0088264D02*
X0323861Y0088264D01*
X0323861Y0088862D02*
X0198036Y0088862D01*
X0197788Y0089461D02*
X0323861Y0089461D01*
X0323861Y0090059D02*
X0197250Y0090059D01*
X0196652Y0090658D02*
X0293484Y0090658D01*
X0293585Y0090557D02*
X0296815Y0090557D01*
X0299100Y0092842D01*
X0299100Y0096073D01*
X0296815Y0098357D01*
X0293585Y0098357D01*
X0291300Y0096073D01*
X0291300Y0092842D01*
X0293585Y0090557D01*
X0292886Y0091257D02*
X0196053Y0091257D01*
X0195240Y0091855D02*
X0292287Y0091855D01*
X0291689Y0092454D02*
X0193795Y0092454D01*
X0188810Y0092454D02*
X0011500Y0092454D01*
X0011500Y0093052D02*
X0291300Y0093052D01*
X0291300Y0093651D02*
X0011500Y0093651D01*
X0011500Y0094249D02*
X0018314Y0094249D01*
X0018545Y0094018D02*
X0021776Y0094018D01*
X0024061Y0096303D01*
X0024061Y0099534D01*
X0021776Y0101818D01*
X0018545Y0101818D01*
X0016261Y0099534D01*
X0016261Y0096303D01*
X0018545Y0094018D01*
X0017716Y0094848D02*
X0011500Y0094848D01*
X0011500Y0095446D02*
X0017117Y0095446D01*
X0016519Y0096045D02*
X0011500Y0096045D01*
X0011500Y0096643D02*
X0016261Y0096643D01*
X0016261Y0097242D02*
X0011500Y0097242D01*
X0011500Y0097840D02*
X0016261Y0097840D01*
X0016261Y0098439D02*
X0011500Y0098439D01*
X0011500Y0099037D02*
X0016261Y0099037D01*
X0016363Y0099636D02*
X0011500Y0099636D01*
X0011500Y0100234D02*
X0016961Y0100234D01*
X0017560Y0100833D02*
X0011500Y0100833D01*
X0011500Y0101431D02*
X0018158Y0101431D01*
X0018545Y0104018D02*
X0021776Y0104018D01*
X0024061Y0106303D01*
X0024061Y0109534D01*
X0021776Y0111818D01*
X0018545Y0111818D01*
X0016261Y0109534D01*
X0016261Y0106303D01*
X0018545Y0104018D01*
X0018140Y0104424D02*
X0011500Y0104424D01*
X0011500Y0105022D02*
X0017541Y0105022D01*
X0016943Y0105621D02*
X0011500Y0105621D01*
X0011500Y0106219D02*
X0016344Y0106219D01*
X0016261Y0106818D02*
X0011500Y0106818D01*
X0011500Y0107416D02*
X0016261Y0107416D01*
X0016261Y0108015D02*
X0011500Y0108015D01*
X0011500Y0108613D02*
X0016261Y0108613D01*
X0016261Y0109212D02*
X0011500Y0109212D01*
X0011500Y0109810D02*
X0016537Y0109810D01*
X0017136Y0110409D02*
X0011500Y0110409D01*
X0011500Y0111007D02*
X0017734Y0111007D01*
X0018333Y0111606D02*
X0011500Y0111606D01*
X0011500Y0112204D02*
X0291938Y0112204D01*
X0292536Y0111606D02*
X0031988Y0111606D01*
X0031776Y0111818D02*
X0028545Y0111818D01*
X0026261Y0109534D01*
X0026261Y0106303D01*
X0028545Y0104018D01*
X0031776Y0104018D01*
X0034061Y0106303D01*
X0034061Y0109534D01*
X0031776Y0111818D01*
X0032587Y0111007D02*
X0293135Y0111007D01*
X0293585Y0110557D02*
X0296815Y0110557D01*
X0299100Y0112842D01*
X0299100Y0116073D01*
X0296815Y0118357D01*
X0293585Y0118357D01*
X0291300Y0116073D01*
X0291300Y0112842D01*
X0293585Y0110557D01*
X0293585Y0108357D02*
X0291300Y0106073D01*
X0291300Y0102842D01*
X0293585Y0100557D01*
X0296815Y0100557D01*
X0299100Y0102842D01*
X0299100Y0106073D01*
X0296815Y0108357D01*
X0293585Y0108357D01*
X0293242Y0108015D02*
X0034061Y0108015D01*
X0034061Y0108613D02*
X0303275Y0108613D01*
X0303419Y0108757D02*
X0300900Y0106239D01*
X0300900Y0104757D01*
X0304900Y0104757D01*
X0304900Y0104157D01*
X0305500Y0104157D01*
X0305500Y0100157D01*
X0306981Y0100157D01*
X0309500Y0102676D01*
X0309500Y0104157D01*
X0305500Y0104157D01*
X0305500Y0104757D01*
X0309500Y0104757D01*
X0309500Y0106239D01*
X0306981Y0108757D01*
X0305500Y0108757D01*
X0305500Y0104758D01*
X0304900Y0104758D01*
X0304900Y0108757D01*
X0303419Y0108757D01*
X0302676Y0108015D02*
X0297158Y0108015D01*
X0297757Y0107416D02*
X0302078Y0107416D01*
X0301479Y0106818D02*
X0298355Y0106818D01*
X0298954Y0106219D02*
X0300900Y0106219D01*
X0300900Y0105621D02*
X0299100Y0105621D01*
X0299100Y0105022D02*
X0300900Y0105022D01*
X0300900Y0104157D02*
X0300900Y0102676D01*
X0303419Y0100157D01*
X0304900Y0100157D01*
X0304900Y0104157D01*
X0300900Y0104157D01*
X0300900Y0103825D02*
X0299100Y0103825D01*
X0299100Y0103227D02*
X0300900Y0103227D01*
X0300948Y0102628D02*
X0298886Y0102628D01*
X0298288Y0102030D02*
X0301547Y0102030D01*
X0302145Y0101431D02*
X0297689Y0101431D01*
X0297091Y0100833D02*
X0302744Y0100833D01*
X0303342Y0100234D02*
X0033360Y0100234D01*
X0033958Y0099636D02*
X0323861Y0099636D01*
X0323861Y0100234D02*
X0307058Y0100234D01*
X0307656Y0100833D02*
X0313309Y0100833D01*
X0313585Y0100557D02*
X0311300Y0102842D01*
X0311300Y0106073D01*
X0313585Y0108357D01*
X0316815Y0108357D01*
X0319100Y0106073D01*
X0319100Y0102842D01*
X0316815Y0100557D01*
X0313585Y0100557D01*
X0312711Y0101431D02*
X0308255Y0101431D01*
X0308853Y0102030D02*
X0312112Y0102030D01*
X0311514Y0102628D02*
X0309452Y0102628D01*
X0309500Y0103227D02*
X0311300Y0103227D01*
X0311300Y0103825D02*
X0309500Y0103825D01*
X0309500Y0105022D02*
X0311300Y0105022D01*
X0311300Y0104424D02*
X0305500Y0104424D01*
X0305500Y0105022D02*
X0304900Y0105022D01*
X0304900Y0104424D02*
X0299100Y0104424D01*
X0304900Y0103825D02*
X0305500Y0103825D01*
X0305500Y0103227D02*
X0304900Y0103227D01*
X0304900Y0102628D02*
X0305500Y0102628D01*
X0305500Y0102030D02*
X0304900Y0102030D01*
X0304900Y0101431D02*
X0305500Y0101431D01*
X0305500Y0100833D02*
X0304900Y0100833D01*
X0304900Y0100234D02*
X0305500Y0100234D01*
X0305500Y0098757D02*
X0305500Y0094758D01*
X0304900Y0094758D01*
X0304900Y0098757D01*
X0303419Y0098757D01*
X0300900Y0096239D01*
X0300900Y0094757D01*
X0304900Y0094757D01*
X0304900Y0094157D01*
X0305500Y0094157D01*
X0305500Y0090157D01*
X0306981Y0090157D01*
X0309500Y0092676D01*
X0309500Y0094157D01*
X0305500Y0094157D01*
X0305500Y0094757D01*
X0309500Y0094757D01*
X0309500Y0096239D01*
X0306981Y0098757D01*
X0305500Y0098757D01*
X0305500Y0098439D02*
X0304900Y0098439D01*
X0304900Y0097840D02*
X0305500Y0097840D01*
X0305500Y0097242D02*
X0304900Y0097242D01*
X0304900Y0096643D02*
X0305500Y0096643D01*
X0305500Y0096045D02*
X0304900Y0096045D01*
X0304900Y0095446D02*
X0305500Y0095446D01*
X0305500Y0094848D02*
X0304900Y0094848D01*
X0304900Y0094249D02*
X0299100Y0094249D01*
X0299100Y0093651D02*
X0300900Y0093651D01*
X0300900Y0094157D02*
X0300900Y0092676D01*
X0303419Y0090157D01*
X0304900Y0090157D01*
X0304900Y0094157D01*
X0300900Y0094157D01*
X0300900Y0094848D02*
X0299100Y0094848D01*
X0299100Y0095446D02*
X0300900Y0095446D01*
X0300900Y0096045D02*
X0299100Y0096045D01*
X0298530Y0096643D02*
X0301305Y0096643D01*
X0301903Y0097242D02*
X0297931Y0097242D01*
X0297333Y0097840D02*
X0302502Y0097840D01*
X0303100Y0098439D02*
X0034061Y0098439D01*
X0034061Y0099037D02*
X0323861Y0099037D01*
X0323861Y0098439D02*
X0307300Y0098439D01*
X0307898Y0097840D02*
X0313067Y0097840D01*
X0313585Y0098357D02*
X0311300Y0096073D01*
X0311300Y0092842D01*
X0313585Y0090557D01*
X0316815Y0090557D01*
X0319100Y0092842D01*
X0319100Y0096073D01*
X0316815Y0098357D01*
X0313585Y0098357D01*
X0312469Y0097242D02*
X0308497Y0097242D01*
X0309095Y0096643D02*
X0311870Y0096643D01*
X0311300Y0096045D02*
X0309500Y0096045D01*
X0309500Y0095446D02*
X0311300Y0095446D01*
X0311300Y0094848D02*
X0309500Y0094848D01*
X0309500Y0093651D02*
X0311300Y0093651D01*
X0311300Y0094249D02*
X0305500Y0094249D01*
X0305500Y0093651D02*
X0304900Y0093651D01*
X0304900Y0093052D02*
X0305500Y0093052D01*
X0305500Y0092454D02*
X0304900Y0092454D01*
X0304900Y0091855D02*
X0305500Y0091855D01*
X0305500Y0091257D02*
X0304900Y0091257D01*
X0304900Y0090658D02*
X0305500Y0090658D01*
X0307482Y0090658D02*
X0313484Y0090658D01*
X0312886Y0091257D02*
X0308080Y0091257D01*
X0308679Y0091855D02*
X0312287Y0091855D01*
X0311689Y0092454D02*
X0309277Y0092454D01*
X0309500Y0093052D02*
X0311300Y0093052D01*
X0316916Y0090658D02*
X0323861Y0090658D01*
X0323861Y0091257D02*
X0317514Y0091257D01*
X0318113Y0091855D02*
X0323861Y0091855D01*
X0323861Y0092454D02*
X0318711Y0092454D01*
X0319100Y0093052D02*
X0323861Y0093052D01*
X0323861Y0093651D02*
X0319100Y0093651D01*
X0319100Y0094249D02*
X0323861Y0094249D01*
X0323861Y0094848D02*
X0319100Y0094848D01*
X0319100Y0095446D02*
X0323861Y0095446D01*
X0323861Y0096045D02*
X0319100Y0096045D01*
X0318530Y0096643D02*
X0323861Y0096643D01*
X0323861Y0097242D02*
X0317931Y0097242D01*
X0317333Y0097840D02*
X0323861Y0097840D01*
X0323861Y0100833D02*
X0317091Y0100833D01*
X0317689Y0101431D02*
X0323861Y0101431D01*
X0323861Y0102030D02*
X0318288Y0102030D01*
X0318886Y0102628D02*
X0323861Y0102628D01*
X0323861Y0103227D02*
X0319100Y0103227D01*
X0319100Y0103825D02*
X0323861Y0103825D01*
X0323861Y0104424D02*
X0319100Y0104424D01*
X0319100Y0105022D02*
X0323861Y0105022D01*
X0323861Y0105621D02*
X0319100Y0105621D01*
X0318954Y0106219D02*
X0323861Y0106219D01*
X0323861Y0106818D02*
X0318355Y0106818D01*
X0317757Y0107416D02*
X0323861Y0107416D01*
X0323861Y0108015D02*
X0317158Y0108015D01*
X0316815Y0110557D02*
X0319100Y0112842D01*
X0319100Y0116073D01*
X0316815Y0118357D01*
X0313585Y0118357D01*
X0311300Y0116073D01*
X0311300Y0112842D01*
X0313585Y0110557D01*
X0316815Y0110557D01*
X0317265Y0111007D02*
X0323861Y0111007D01*
X0323861Y0110409D02*
X0307232Y0110409D01*
X0306981Y0110157D02*
X0309500Y0112676D01*
X0309500Y0114157D01*
X0305500Y0114157D01*
X0305500Y0110157D01*
X0306981Y0110157D01*
X0307831Y0111007D02*
X0313135Y0111007D01*
X0312536Y0111606D02*
X0308430Y0111606D01*
X0309028Y0112204D02*
X0311938Y0112204D01*
X0311339Y0112803D02*
X0309500Y0112803D01*
X0309500Y0113401D02*
X0311300Y0113401D01*
X0311300Y0114000D02*
X0309500Y0114000D01*
X0309500Y0114757D02*
X0305500Y0114757D01*
X0305500Y0114157D01*
X0304900Y0114157D01*
X0304900Y0110157D01*
X0303419Y0110157D01*
X0300900Y0112676D01*
X0300900Y0114157D01*
X0304900Y0114157D01*
X0304900Y0114757D01*
X0300900Y0114757D01*
X0300900Y0116239D01*
X0303419Y0118757D01*
X0304900Y0118757D01*
X0304900Y0114758D01*
X0305500Y0114758D01*
X0305500Y0118757D01*
X0306981Y0118757D01*
X0309500Y0116239D01*
X0309500Y0114757D01*
X0309500Y0115197D02*
X0311300Y0115197D01*
X0311300Y0115795D02*
X0309500Y0115795D01*
X0309345Y0116394D02*
X0311621Y0116394D01*
X0312220Y0116992D02*
X0308746Y0116992D01*
X0308148Y0117591D02*
X0312818Y0117591D01*
X0313417Y0118190D02*
X0307549Y0118190D01*
X0306981Y0120157D02*
X0309500Y0122676D01*
X0309500Y0124157D01*
X0305500Y0124157D01*
X0305500Y0120157D01*
X0306981Y0120157D01*
X0307407Y0120584D02*
X0313558Y0120584D01*
X0313585Y0120557D02*
X0316815Y0120557D01*
X0319100Y0122842D01*
X0319100Y0126073D01*
X0316815Y0128357D01*
X0313585Y0128357D01*
X0311300Y0126073D01*
X0311300Y0122842D01*
X0313585Y0120557D01*
X0312960Y0121182D02*
X0308006Y0121182D01*
X0308604Y0121781D02*
X0312361Y0121781D01*
X0311763Y0122379D02*
X0309203Y0122379D01*
X0309500Y0122978D02*
X0311300Y0122978D01*
X0311300Y0123576D02*
X0309500Y0123576D01*
X0309500Y0124757D02*
X0305500Y0124757D01*
X0305500Y0124157D01*
X0304900Y0124157D01*
X0304900Y0120157D01*
X0303419Y0120157D01*
X0300900Y0122676D01*
X0300900Y0124157D01*
X0304900Y0124157D01*
X0304900Y0124757D01*
X0300900Y0124757D01*
X0300900Y0126239D01*
X0303419Y0128757D01*
X0304900Y0128757D01*
X0304900Y0124758D01*
X0305500Y0124758D01*
X0305500Y0128757D01*
X0306981Y0128757D01*
X0309500Y0126239D01*
X0309500Y0124757D01*
X0309500Y0124773D02*
X0311300Y0124773D01*
X0311300Y0124175D02*
X0305500Y0124175D01*
X0305500Y0124773D02*
X0304900Y0124773D01*
X0304900Y0124175D02*
X0299100Y0124175D01*
X0299100Y0124773D02*
X0300900Y0124773D01*
X0300900Y0125372D02*
X0299100Y0125372D01*
X0299100Y0125970D02*
X0300900Y0125970D01*
X0301230Y0126569D02*
X0298604Y0126569D01*
X0299100Y0126073D02*
X0296815Y0128357D01*
X0293585Y0128357D01*
X0291300Y0126073D01*
X0291300Y0122842D01*
X0293585Y0120557D01*
X0296815Y0120557D01*
X0299100Y0122842D01*
X0299100Y0126073D01*
X0298006Y0127167D02*
X0301829Y0127167D01*
X0302427Y0127766D02*
X0297407Y0127766D01*
X0296815Y0130557D02*
X0299100Y0132842D01*
X0299100Y0136073D01*
X0296815Y0138357D01*
X0293585Y0138357D01*
X0291300Y0136073D01*
X0291300Y0132842D01*
X0293585Y0130557D01*
X0296815Y0130557D01*
X0297016Y0130758D02*
X0302818Y0130758D01*
X0303417Y0130160D02*
X0033434Y0130160D01*
X0032836Y0130758D02*
X0293384Y0130758D01*
X0292785Y0131357D02*
X0032237Y0131357D01*
X0031776Y0131818D02*
X0028545Y0131818D01*
X0026261Y0129534D01*
X0026261Y0126303D01*
X0028545Y0124018D01*
X0031776Y0124018D01*
X0034061Y0126303D01*
X0034061Y0129534D01*
X0031776Y0131818D01*
X0031776Y0134018D02*
X0034061Y0136303D01*
X0034061Y0139534D01*
X0031776Y0141818D01*
X0028545Y0141818D01*
X0026261Y0139534D01*
X0026261Y0136303D01*
X0028545Y0134018D01*
X0031776Y0134018D01*
X0032107Y0134349D02*
X0291300Y0134349D01*
X0291300Y0133751D02*
X0011500Y0133751D01*
X0011500Y0134349D02*
X0018214Y0134349D01*
X0018545Y0134018D02*
X0021776Y0134018D01*
X0024061Y0136303D01*
X0024061Y0139534D01*
X0021776Y0141818D01*
X0018545Y0141818D01*
X0016261Y0139534D01*
X0016261Y0136303D01*
X0018545Y0134018D01*
X0017615Y0134948D02*
X0011500Y0134948D01*
X0011500Y0135546D02*
X0017017Y0135546D01*
X0016418Y0136145D02*
X0011500Y0136145D01*
X0011500Y0136743D02*
X0016261Y0136743D01*
X0016261Y0137342D02*
X0011500Y0137342D01*
X0011500Y0137940D02*
X0016261Y0137940D01*
X0016261Y0138539D02*
X0011500Y0138539D01*
X0011500Y0139137D02*
X0016261Y0139137D01*
X0016463Y0139736D02*
X0011500Y0139736D01*
X0011500Y0140334D02*
X0017062Y0140334D01*
X0017660Y0140933D02*
X0011500Y0140933D01*
X0011500Y0141531D02*
X0018259Y0141531D01*
X0018380Y0143618D02*
X0015861Y0146137D01*
X0015861Y0147618D01*
X0019861Y0147618D01*
X0020461Y0147618D01*
X0020461Y0148218D01*
X0024461Y0148218D01*
X0024461Y0149699D01*
X0021942Y0152218D01*
X0020461Y0152218D01*
X0020461Y0148218D01*
X0019861Y0148218D01*
X0019861Y0152218D01*
X0018380Y0152218D01*
X0015861Y0149699D01*
X0015861Y0148218D01*
X0019861Y0148218D01*
X0019861Y0147618D01*
X0019861Y0143618D01*
X0018380Y0143618D01*
X0018072Y0143926D02*
X0011500Y0143926D01*
X0011500Y0144524D02*
X0017474Y0144524D01*
X0016875Y0145123D02*
X0011500Y0145123D01*
X0011500Y0145721D02*
X0016277Y0145721D01*
X0015861Y0146320D02*
X0011500Y0146320D01*
X0011500Y0146918D02*
X0015861Y0146918D01*
X0015861Y0147517D02*
X0011500Y0147517D01*
X0011500Y0148115D02*
X0019861Y0148115D01*
X0019861Y0147517D02*
X0020461Y0147517D01*
X0020461Y0147618D02*
X0020461Y0143618D01*
X0021942Y0143618D01*
X0024461Y0146137D01*
X0024461Y0147618D01*
X0020461Y0147618D01*
X0020461Y0148115D02*
X0026261Y0148115D01*
X0026261Y0147517D02*
X0024461Y0147517D01*
X0024461Y0146918D02*
X0026261Y0146918D01*
X0026261Y0146320D02*
X0024461Y0146320D01*
X0024045Y0145721D02*
X0026842Y0145721D01*
X0026261Y0146303D02*
X0028545Y0144018D01*
X0031776Y0144018D01*
X0034061Y0146303D01*
X0034061Y0149534D01*
X0031776Y0151818D01*
X0028545Y0151818D01*
X0026261Y0149534D01*
X0026261Y0146303D01*
X0027441Y0145123D02*
X0023446Y0145123D01*
X0022848Y0144524D02*
X0028039Y0144524D01*
X0028259Y0141531D02*
X0022063Y0141531D01*
X0022661Y0140933D02*
X0027660Y0140933D01*
X0027062Y0140334D02*
X0023260Y0140334D01*
X0023858Y0139736D02*
X0026463Y0139736D01*
X0026261Y0139137D02*
X0024061Y0139137D01*
X0024061Y0138539D02*
X0026261Y0138539D01*
X0026261Y0137940D02*
X0024061Y0137940D01*
X0024061Y0137342D02*
X0026261Y0137342D01*
X0026261Y0136743D02*
X0024061Y0136743D01*
X0023903Y0136145D02*
X0026418Y0136145D01*
X0027017Y0135546D02*
X0023304Y0135546D01*
X0022706Y0134948D02*
X0027615Y0134948D01*
X0028214Y0134349D02*
X0022107Y0134349D01*
X0021776Y0131818D02*
X0018545Y0131818D01*
X0016261Y0129534D01*
X0016261Y0126303D01*
X0018545Y0124018D01*
X0021776Y0124018D01*
X0024061Y0126303D01*
X0024061Y0129534D01*
X0021776Y0131818D01*
X0022237Y0131357D02*
X0028084Y0131357D01*
X0027485Y0130758D02*
X0022836Y0130758D01*
X0023434Y0130160D02*
X0026887Y0130160D01*
X0026288Y0129561D02*
X0024033Y0129561D01*
X0024061Y0128963D02*
X0026261Y0128963D01*
X0026261Y0128364D02*
X0024061Y0128364D01*
X0024061Y0127766D02*
X0026261Y0127766D01*
X0026261Y0127167D02*
X0024061Y0127167D01*
X0024061Y0126569D02*
X0026261Y0126569D01*
X0026593Y0125970D02*
X0023728Y0125970D01*
X0023130Y0125372D02*
X0027192Y0125372D01*
X0027790Y0124773D02*
X0022531Y0124773D01*
X0021933Y0124175D02*
X0028389Y0124175D01*
X0028545Y0121818D02*
X0026261Y0119534D01*
X0026261Y0116303D01*
X0028545Y0114018D01*
X0031776Y0114018D01*
X0034061Y0116303D01*
X0034061Y0119534D01*
X0031776Y0121818D01*
X0028545Y0121818D01*
X0028508Y0121781D02*
X0021814Y0121781D01*
X0021776Y0121818D02*
X0018545Y0121818D01*
X0016261Y0119534D01*
X0016261Y0116303D01*
X0018545Y0114018D01*
X0021776Y0114018D01*
X0024061Y0116303D01*
X0024061Y0119534D01*
X0021776Y0121818D01*
X0022412Y0121182D02*
X0027909Y0121182D01*
X0027311Y0120584D02*
X0023011Y0120584D01*
X0023609Y0119985D02*
X0026712Y0119985D01*
X0026261Y0119387D02*
X0024061Y0119387D01*
X0024061Y0118788D02*
X0026261Y0118788D01*
X0026261Y0118190D02*
X0024061Y0118190D01*
X0024061Y0117591D02*
X0026261Y0117591D01*
X0026261Y0116992D02*
X0024061Y0116992D01*
X0024061Y0116394D02*
X0026261Y0116394D01*
X0026768Y0115795D02*
X0023553Y0115795D01*
X0022955Y0115197D02*
X0027366Y0115197D01*
X0027965Y0114598D02*
X0022356Y0114598D01*
X0021988Y0111606D02*
X0028333Y0111606D01*
X0027734Y0111007D02*
X0022587Y0111007D01*
X0023185Y0110409D02*
X0027136Y0110409D01*
X0026537Y0109810D02*
X0023784Y0109810D01*
X0024061Y0109212D02*
X0026261Y0109212D01*
X0026261Y0108613D02*
X0024061Y0108613D01*
X0024061Y0108015D02*
X0026261Y0108015D01*
X0026261Y0107416D02*
X0024061Y0107416D01*
X0024061Y0106818D02*
X0026261Y0106818D01*
X0026344Y0106219D02*
X0023977Y0106219D01*
X0023379Y0105621D02*
X0026943Y0105621D01*
X0027541Y0105022D02*
X0022780Y0105022D01*
X0022182Y0104424D02*
X0028140Y0104424D01*
X0028545Y0101818D02*
X0026261Y0099534D01*
X0026261Y0096303D01*
X0028545Y0094018D01*
X0031776Y0094018D01*
X0034061Y0096303D01*
X0034061Y0099534D01*
X0031776Y0101818D01*
X0028545Y0101818D01*
X0028158Y0101431D02*
X0022163Y0101431D01*
X0022761Y0100833D02*
X0027560Y0100833D01*
X0026961Y0100234D02*
X0023360Y0100234D01*
X0023958Y0099636D02*
X0026363Y0099636D01*
X0026261Y0099037D02*
X0024061Y0099037D01*
X0024061Y0098439D02*
X0026261Y0098439D01*
X0026261Y0097840D02*
X0024061Y0097840D01*
X0024061Y0097242D02*
X0026261Y0097242D01*
X0026261Y0096643D02*
X0024061Y0096643D01*
X0023803Y0096045D02*
X0026519Y0096045D01*
X0027117Y0095446D02*
X0023204Y0095446D01*
X0022606Y0094848D02*
X0027716Y0094848D01*
X0028314Y0094249D02*
X0022007Y0094249D01*
X0021776Y0091818D02*
X0018545Y0091818D01*
X0016261Y0089534D01*
X0016261Y0086303D01*
X0018545Y0084018D01*
X0021776Y0084018D01*
X0024061Y0086303D01*
X0024061Y0089534D01*
X0021776Y0091818D01*
X0022338Y0091257D02*
X0027984Y0091257D01*
X0028545Y0091818D02*
X0026261Y0089534D01*
X0026261Y0086303D01*
X0028545Y0084018D01*
X0031776Y0084018D01*
X0034061Y0086303D01*
X0034061Y0089534D01*
X0031776Y0091818D01*
X0028545Y0091818D01*
X0027385Y0090658D02*
X0022936Y0090658D01*
X0023535Y0090059D02*
X0026787Y0090059D01*
X0026261Y0089461D02*
X0024061Y0089461D01*
X0024061Y0088862D02*
X0026261Y0088862D01*
X0026261Y0088264D02*
X0024061Y0088264D01*
X0024061Y0087665D02*
X0026261Y0087665D01*
X0026261Y0087067D02*
X0024061Y0087067D01*
X0024061Y0086468D02*
X0026261Y0086468D01*
X0026693Y0085870D02*
X0023628Y0085870D01*
X0023029Y0085271D02*
X0027292Y0085271D01*
X0027890Y0084673D02*
X0022431Y0084673D01*
X0021832Y0084074D02*
X0028489Y0084074D01*
X0028545Y0081818D02*
X0026261Y0079534D01*
X0026261Y0076303D01*
X0028545Y0074018D01*
X0031776Y0074018D01*
X0034061Y0076303D01*
X0034061Y0079534D01*
X0031776Y0081818D01*
X0028545Y0081818D01*
X0028407Y0081680D02*
X0021914Y0081680D01*
X0022512Y0081082D02*
X0027809Y0081082D01*
X0027210Y0080483D02*
X0023111Y0080483D01*
X0023709Y0079885D02*
X0026612Y0079885D01*
X0026261Y0079286D02*
X0024061Y0079286D01*
X0024061Y0078688D02*
X0026261Y0078688D01*
X0026261Y0078089D02*
X0024061Y0078089D01*
X0024061Y0077491D02*
X0026261Y0077491D01*
X0026261Y0076892D02*
X0024061Y0076892D01*
X0024052Y0076294D02*
X0026270Y0076294D01*
X0026868Y0075695D02*
X0023453Y0075695D01*
X0022855Y0075097D02*
X0027467Y0075097D01*
X0028065Y0074498D02*
X0022256Y0074498D01*
X0022089Y0071506D02*
X0026475Y0071506D01*
X0026261Y0071291D02*
X0026261Y0064545D01*
X0026788Y0064018D01*
X0033533Y0064018D01*
X0034061Y0064545D01*
X0034061Y0071291D01*
X0033533Y0071818D01*
X0026788Y0071818D01*
X0026261Y0071291D01*
X0026261Y0070907D02*
X0022687Y0070907D01*
X0023286Y0070309D02*
X0026261Y0070309D01*
X0026261Y0069710D02*
X0023884Y0069710D01*
X0024061Y0069112D02*
X0026261Y0069112D01*
X0026261Y0068513D02*
X0024061Y0068513D01*
X0024061Y0067915D02*
X0026261Y0067915D01*
X0026261Y0067316D02*
X0024061Y0067316D01*
X0024061Y0066718D02*
X0026261Y0066718D01*
X0026261Y0066119D02*
X0023877Y0066119D01*
X0023278Y0065521D02*
X0026261Y0065521D01*
X0026261Y0064922D02*
X0022680Y0064922D01*
X0022081Y0064323D02*
X0026482Y0064323D01*
X0033839Y0064323D02*
X0323861Y0064323D01*
X0323861Y0064922D02*
X0034061Y0064922D01*
X0034061Y0065521D02*
X0323861Y0065521D01*
X0323861Y0066119D02*
X0034061Y0066119D01*
X0034061Y0066718D02*
X0323861Y0066718D01*
X0323861Y0067316D02*
X0034061Y0067316D01*
X0034061Y0067915D02*
X0270058Y0067915D01*
X0269018Y0068513D02*
X0034061Y0068513D01*
X0034061Y0069112D02*
X0268329Y0069112D01*
X0267838Y0069710D02*
X0034061Y0069710D01*
X0034061Y0070309D02*
X0267476Y0070309D01*
X0267212Y0070907D02*
X0034061Y0070907D01*
X0033846Y0071506D02*
X0267028Y0071506D01*
X0266933Y0072104D02*
X0011500Y0072104D01*
X0011500Y0075097D02*
X0017467Y0075097D01*
X0016868Y0075695D02*
X0011500Y0075695D01*
X0011500Y0076294D02*
X0016270Y0076294D01*
X0016261Y0076892D02*
X0011500Y0076892D01*
X0011500Y0077491D02*
X0016261Y0077491D01*
X0016261Y0078089D02*
X0011500Y0078089D01*
X0011500Y0078688D02*
X0016261Y0078688D01*
X0016261Y0079286D02*
X0011500Y0079286D01*
X0011500Y0079885D02*
X0016612Y0079885D01*
X0017210Y0080483D02*
X0011500Y0080483D01*
X0011500Y0081082D02*
X0017809Y0081082D01*
X0018407Y0081680D02*
X0011500Y0081680D01*
X0011500Y0082279D02*
X0184312Y0082279D01*
X0184064Y0082877D02*
X0011500Y0082877D01*
X0011500Y0083476D02*
X0183816Y0083476D01*
X0183703Y0084074D02*
X0031832Y0084074D01*
X0032431Y0084673D02*
X0183703Y0084673D01*
X0183703Y0085271D02*
X0033029Y0085271D01*
X0033628Y0085870D02*
X0183703Y0085870D01*
X0183703Y0086468D02*
X0034061Y0086468D01*
X0034061Y0087067D02*
X0183825Y0087067D01*
X0184073Y0087665D02*
X0034061Y0087665D01*
X0034061Y0088264D02*
X0184321Y0088264D01*
X0184569Y0088862D02*
X0034061Y0088862D01*
X0034061Y0089461D02*
X0184817Y0089461D01*
X0185354Y0090059D02*
X0033535Y0090059D01*
X0032936Y0090658D02*
X0185953Y0090658D01*
X0186551Y0091257D02*
X0032338Y0091257D01*
X0032007Y0094249D02*
X0291300Y0094249D01*
X0291300Y0094848D02*
X0032606Y0094848D01*
X0033204Y0095446D02*
X0291300Y0095446D01*
X0291300Y0096045D02*
X0033803Y0096045D01*
X0034061Y0096643D02*
X0291870Y0096643D01*
X0292469Y0097242D02*
X0034061Y0097242D01*
X0034061Y0097840D02*
X0293067Y0097840D01*
X0293309Y0100833D02*
X0032761Y0100833D01*
X0032163Y0101431D02*
X0292711Y0101431D01*
X0292112Y0102030D02*
X0011500Y0102030D01*
X0011500Y0102628D02*
X0291514Y0102628D01*
X0291300Y0103227D02*
X0011500Y0103227D01*
X0011500Y0103825D02*
X0291300Y0103825D01*
X0291300Y0104424D02*
X0032182Y0104424D01*
X0032780Y0105022D02*
X0291300Y0105022D01*
X0291300Y0105621D02*
X0033379Y0105621D01*
X0033977Y0106219D02*
X0291446Y0106219D01*
X0292045Y0106818D02*
X0034061Y0106818D01*
X0034061Y0107416D02*
X0292643Y0107416D01*
X0291339Y0112803D02*
X0011500Y0112803D01*
X0011500Y0113401D02*
X0291300Y0113401D01*
X0291300Y0114000D02*
X0011500Y0114000D01*
X0011500Y0114598D02*
X0017965Y0114598D01*
X0017366Y0115197D02*
X0011500Y0115197D01*
X0011500Y0115795D02*
X0016768Y0115795D01*
X0016261Y0116394D02*
X0011500Y0116394D01*
X0011500Y0116992D02*
X0016261Y0116992D01*
X0016261Y0117591D02*
X0011500Y0117591D01*
X0011500Y0118190D02*
X0016261Y0118190D01*
X0016261Y0118788D02*
X0011500Y0118788D01*
X0011500Y0119387D02*
X0016261Y0119387D01*
X0016712Y0119985D02*
X0011500Y0119985D01*
X0011500Y0120584D02*
X0017311Y0120584D01*
X0017909Y0121182D02*
X0011500Y0121182D01*
X0011500Y0121781D02*
X0018508Y0121781D01*
X0018389Y0124175D02*
X0011500Y0124175D01*
X0011500Y0124773D02*
X0017790Y0124773D01*
X0017192Y0125372D02*
X0011500Y0125372D01*
X0011500Y0125970D02*
X0016593Y0125970D01*
X0016261Y0126569D02*
X0011500Y0126569D01*
X0011500Y0127167D02*
X0016261Y0127167D01*
X0016261Y0127766D02*
X0011500Y0127766D01*
X0011500Y0128364D02*
X0016261Y0128364D01*
X0016261Y0128963D02*
X0011500Y0128963D01*
X0011500Y0129561D02*
X0016288Y0129561D01*
X0016887Y0130160D02*
X0011500Y0130160D01*
X0011500Y0130758D02*
X0017485Y0130758D01*
X0018084Y0131357D02*
X0011500Y0131357D01*
X0011500Y0131955D02*
X0292187Y0131955D01*
X0291588Y0132554D02*
X0011500Y0132554D01*
X0011500Y0133152D02*
X0291300Y0133152D01*
X0291300Y0134948D02*
X0032706Y0134948D01*
X0033304Y0135546D02*
X0291300Y0135546D01*
X0291372Y0136145D02*
X0033903Y0136145D01*
X0034061Y0136743D02*
X0291970Y0136743D01*
X0292569Y0137342D02*
X0034061Y0137342D01*
X0034061Y0137940D02*
X0293167Y0137940D01*
X0293585Y0140557D02*
X0296815Y0140557D01*
X0299100Y0142842D01*
X0299100Y0146073D01*
X0296815Y0148357D01*
X0293585Y0148357D01*
X0291300Y0146073D01*
X0291300Y0142842D01*
X0293585Y0140557D01*
X0293209Y0140933D02*
X0032661Y0140933D01*
X0032063Y0141531D02*
X0292611Y0141531D01*
X0292012Y0142130D02*
X0011500Y0142130D01*
X0011500Y0142728D02*
X0291414Y0142728D01*
X0291300Y0143327D02*
X0011500Y0143327D01*
X0011500Y0148714D02*
X0015861Y0148714D01*
X0015861Y0149312D02*
X0011500Y0149312D01*
X0011500Y0149911D02*
X0016072Y0149911D01*
X0016671Y0150509D02*
X0011500Y0150509D01*
X0011500Y0151108D02*
X0017269Y0151108D01*
X0017868Y0151706D02*
X0011500Y0151706D01*
X0011500Y0152305D02*
X0291300Y0152305D01*
X0291300Y0152903D02*
X0011500Y0152903D01*
X0011500Y0153502D02*
X0291300Y0153502D01*
X0291300Y0154100D02*
X0031858Y0154100D01*
X0031776Y0154018D02*
X0034061Y0156303D01*
X0034061Y0159534D01*
X0031776Y0161818D01*
X0028545Y0161818D01*
X0026261Y0159534D01*
X0026261Y0156303D01*
X0028545Y0154018D01*
X0031776Y0154018D01*
X0032457Y0154699D02*
X0291300Y0154699D01*
X0291300Y0155297D02*
X0033055Y0155297D01*
X0033654Y0155896D02*
X0291300Y0155896D01*
X0291300Y0156494D02*
X0034061Y0156494D01*
X0034061Y0157093D02*
X0291300Y0157093D01*
X0291300Y0157691D02*
X0034061Y0157691D01*
X0034061Y0158290D02*
X0291760Y0158290D01*
X0291827Y0158357D02*
X0291300Y0157830D01*
X0291300Y0151085D01*
X0291827Y0150557D01*
X0298573Y0150557D01*
X0299100Y0151085D01*
X0299100Y0157830D01*
X0298573Y0158357D01*
X0291827Y0158357D01*
X0298640Y0158290D02*
X0302951Y0158290D01*
X0303419Y0158757D02*
X0300900Y0156239D01*
X0300900Y0154757D01*
X0304900Y0154757D01*
X0304900Y0154157D01*
X0305500Y0154157D01*
X0305500Y0150157D01*
X0306981Y0150157D01*
X0309500Y0152676D01*
X0309500Y0154157D01*
X0305500Y0154157D01*
X0305500Y0154757D01*
X0309500Y0154757D01*
X0309500Y0156239D01*
X0306981Y0158757D01*
X0305500Y0158757D01*
X0305500Y0154758D01*
X0304900Y0154758D01*
X0304900Y0158757D01*
X0303419Y0158757D01*
X0302353Y0157691D02*
X0299100Y0157691D01*
X0299100Y0157093D02*
X0301754Y0157093D01*
X0301156Y0156494D02*
X0299100Y0156494D01*
X0299100Y0155896D02*
X0300900Y0155896D01*
X0300900Y0155297D02*
X0299100Y0155297D01*
X0299100Y0154699D02*
X0304900Y0154699D01*
X0304900Y0154157D02*
X0300900Y0154157D01*
X0300900Y0152676D01*
X0303419Y0150157D01*
X0304900Y0150157D01*
X0304900Y0154157D01*
X0304900Y0154100D02*
X0305500Y0154100D01*
X0305500Y0153502D02*
X0304900Y0153502D01*
X0304900Y0152903D02*
X0305500Y0152903D01*
X0305500Y0152305D02*
X0304900Y0152305D01*
X0304900Y0151706D02*
X0305500Y0151706D01*
X0305500Y0151108D02*
X0304900Y0151108D01*
X0304900Y0150509D02*
X0305500Y0150509D01*
X0305500Y0148757D02*
X0305500Y0144758D01*
X0304900Y0144758D01*
X0304900Y0148757D01*
X0303419Y0148757D01*
X0300900Y0146239D01*
X0300900Y0144757D01*
X0304900Y0144757D01*
X0304900Y0144157D01*
X0305500Y0144157D01*
X0305500Y0140157D01*
X0306981Y0140157D01*
X0309500Y0142676D01*
X0309500Y0144157D01*
X0305500Y0144157D01*
X0305500Y0144757D01*
X0309500Y0144757D01*
X0309500Y0146239D01*
X0306981Y0148757D01*
X0305500Y0148757D01*
X0305500Y0148714D02*
X0304900Y0148714D01*
X0304900Y0148115D02*
X0305500Y0148115D01*
X0305500Y0147517D02*
X0304900Y0147517D01*
X0304900Y0146918D02*
X0305500Y0146918D01*
X0305500Y0146320D02*
X0304900Y0146320D01*
X0304900Y0145721D02*
X0305500Y0145721D01*
X0305500Y0145123D02*
X0304900Y0145123D01*
X0304900Y0144524D02*
X0299100Y0144524D01*
X0299100Y0143926D02*
X0300900Y0143926D01*
X0300900Y0144157D02*
X0300900Y0142676D01*
X0303419Y0140157D01*
X0304900Y0140157D01*
X0304900Y0144157D01*
X0300900Y0144157D01*
X0300900Y0143327D02*
X0299100Y0143327D01*
X0298986Y0142728D02*
X0300900Y0142728D01*
X0301446Y0142130D02*
X0298388Y0142130D01*
X0297789Y0141531D02*
X0302045Y0141531D01*
X0302643Y0140933D02*
X0297191Y0140933D01*
X0297232Y0137940D02*
X0302602Y0137940D01*
X0302003Y0137342D02*
X0297831Y0137342D01*
X0298430Y0136743D02*
X0301405Y0136743D01*
X0300900Y0136239D02*
X0300900Y0134757D01*
X0304900Y0134757D01*
X0304900Y0134157D01*
X0305500Y0134157D01*
X0305500Y0130157D01*
X0306981Y0130157D01*
X0309500Y0132676D01*
X0309500Y0134157D01*
X0305500Y0134157D01*
X0305500Y0134757D01*
X0309500Y0134757D01*
X0309500Y0136239D01*
X0306981Y0138757D01*
X0305500Y0138757D01*
X0305500Y0134758D01*
X0304900Y0134758D01*
X0304900Y0138757D01*
X0303419Y0138757D01*
X0300900Y0136239D01*
X0300900Y0136145D02*
X0299028Y0136145D01*
X0299100Y0135546D02*
X0300900Y0135546D01*
X0300900Y0134948D02*
X0299100Y0134948D01*
X0299100Y0134349D02*
X0304900Y0134349D01*
X0304900Y0134157D02*
X0300900Y0134157D01*
X0300900Y0132676D01*
X0303419Y0130157D01*
X0304900Y0130157D01*
X0304900Y0134157D01*
X0304900Y0133751D02*
X0305500Y0133751D01*
X0305500Y0134349D02*
X0311300Y0134349D01*
X0311300Y0133751D02*
X0309500Y0133751D01*
X0309500Y0133152D02*
X0311300Y0133152D01*
X0311300Y0132842D02*
X0313585Y0130557D01*
X0316815Y0130557D01*
X0319100Y0132842D01*
X0319100Y0136073D01*
X0316815Y0138357D01*
X0313585Y0138357D01*
X0311300Y0136073D01*
X0311300Y0132842D01*
X0311588Y0132554D02*
X0309377Y0132554D01*
X0308779Y0131955D02*
X0312187Y0131955D01*
X0312785Y0131357D02*
X0308180Y0131357D01*
X0307582Y0130758D02*
X0313384Y0130758D01*
X0312993Y0127766D02*
X0307973Y0127766D01*
X0307374Y0128364D02*
X0323861Y0128364D01*
X0323861Y0127766D02*
X0317407Y0127766D01*
X0318006Y0127167D02*
X0323861Y0127167D01*
X0323861Y0126569D02*
X0318604Y0126569D01*
X0319100Y0125970D02*
X0323861Y0125970D01*
X0323861Y0125372D02*
X0319100Y0125372D01*
X0319100Y0124773D02*
X0323861Y0124773D01*
X0323861Y0124175D02*
X0319100Y0124175D01*
X0319100Y0123576D02*
X0323861Y0123576D01*
X0323861Y0122978D02*
X0319100Y0122978D01*
X0318637Y0122379D02*
X0323861Y0122379D01*
X0323861Y0121781D02*
X0318039Y0121781D01*
X0317440Y0121182D02*
X0323861Y0121182D01*
X0323861Y0120584D02*
X0316841Y0120584D01*
X0316983Y0118190D02*
X0323861Y0118190D01*
X0323861Y0118788D02*
X0034061Y0118788D01*
X0034061Y0118190D02*
X0293417Y0118190D01*
X0292818Y0117591D02*
X0034061Y0117591D01*
X0034061Y0116992D02*
X0292220Y0116992D01*
X0291621Y0116394D02*
X0034061Y0116394D01*
X0033553Y0115795D02*
X0291300Y0115795D01*
X0291300Y0115197D02*
X0032955Y0115197D01*
X0032356Y0114598D02*
X0291300Y0114598D01*
X0293558Y0120584D02*
X0033011Y0120584D01*
X0032412Y0121182D02*
X0292960Y0121182D01*
X0292361Y0121781D02*
X0031814Y0121781D01*
X0031933Y0124175D02*
X0291300Y0124175D01*
X0291300Y0124773D02*
X0032531Y0124773D01*
X0033130Y0125372D02*
X0291300Y0125372D01*
X0291300Y0125970D02*
X0033728Y0125970D01*
X0034061Y0126569D02*
X0291796Y0126569D01*
X0292394Y0127167D02*
X0034061Y0127167D01*
X0034061Y0127766D02*
X0292993Y0127766D01*
X0297615Y0131357D02*
X0302220Y0131357D01*
X0301621Y0131955D02*
X0298213Y0131955D01*
X0298812Y0132554D02*
X0301023Y0132554D01*
X0300900Y0133152D02*
X0299100Y0133152D01*
X0299100Y0133751D02*
X0300900Y0133751D01*
X0304900Y0133152D02*
X0305500Y0133152D01*
X0305500Y0132554D02*
X0304900Y0132554D01*
X0304900Y0131955D02*
X0305500Y0131955D01*
X0305500Y0131357D02*
X0304900Y0131357D01*
X0304900Y0130758D02*
X0305500Y0130758D01*
X0305500Y0130160D02*
X0304900Y0130160D01*
X0304900Y0128364D02*
X0305500Y0128364D01*
X0305500Y0127766D02*
X0304900Y0127766D01*
X0304900Y0127167D02*
X0305500Y0127167D01*
X0305500Y0126569D02*
X0304900Y0126569D01*
X0304900Y0125970D02*
X0305500Y0125970D01*
X0305500Y0125372D02*
X0304900Y0125372D01*
X0304900Y0123576D02*
X0305500Y0123576D01*
X0305500Y0122978D02*
X0304900Y0122978D01*
X0304900Y0122379D02*
X0305500Y0122379D01*
X0305500Y0121781D02*
X0304900Y0121781D01*
X0304900Y0121182D02*
X0305500Y0121182D01*
X0305500Y0120584D02*
X0304900Y0120584D01*
X0302993Y0120584D02*
X0296841Y0120584D01*
X0297440Y0121182D02*
X0302394Y0121182D01*
X0301796Y0121781D02*
X0298039Y0121781D01*
X0298637Y0122379D02*
X0301197Y0122379D01*
X0300900Y0122978D02*
X0299100Y0122978D01*
X0299100Y0123576D02*
X0300900Y0123576D01*
X0302851Y0118190D02*
X0296983Y0118190D01*
X0297582Y0117591D02*
X0302252Y0117591D01*
X0301654Y0116992D02*
X0298180Y0116992D01*
X0298779Y0116394D02*
X0301055Y0116394D01*
X0300900Y0115795D02*
X0299100Y0115795D01*
X0299100Y0115197D02*
X0300900Y0115197D01*
X0300900Y0114000D02*
X0299100Y0114000D01*
X0299100Y0114598D02*
X0304900Y0114598D01*
X0304900Y0114000D02*
X0305500Y0114000D01*
X0305500Y0114598D02*
X0311300Y0114598D01*
X0305500Y0115197D02*
X0304900Y0115197D01*
X0304900Y0115795D02*
X0305500Y0115795D01*
X0305500Y0116394D02*
X0304900Y0116394D01*
X0304900Y0116992D02*
X0305500Y0116992D01*
X0305500Y0117591D02*
X0304900Y0117591D01*
X0304900Y0118190D02*
X0305500Y0118190D01*
X0305500Y0113401D02*
X0304900Y0113401D01*
X0304900Y0112803D02*
X0305500Y0112803D01*
X0305500Y0112204D02*
X0304900Y0112204D01*
X0304900Y0111606D02*
X0305500Y0111606D01*
X0305500Y0111007D02*
X0304900Y0111007D01*
X0304900Y0110409D02*
X0305500Y0110409D01*
X0305500Y0108613D02*
X0304900Y0108613D01*
X0304900Y0108015D02*
X0305500Y0108015D01*
X0305500Y0107416D02*
X0304900Y0107416D01*
X0304900Y0106818D02*
X0305500Y0106818D01*
X0305500Y0106219D02*
X0304900Y0106219D01*
X0304900Y0105621D02*
X0305500Y0105621D01*
X0307724Y0108015D02*
X0313242Y0108015D01*
X0312643Y0107416D02*
X0308322Y0107416D01*
X0308921Y0106818D02*
X0312045Y0106818D01*
X0311446Y0106219D02*
X0309500Y0106219D01*
X0309500Y0105621D02*
X0311300Y0105621D01*
X0307125Y0108613D02*
X0323861Y0108613D01*
X0323861Y0109212D02*
X0034061Y0109212D01*
X0033784Y0109810D02*
X0323861Y0109810D01*
X0323861Y0111606D02*
X0317864Y0111606D01*
X0318462Y0112204D02*
X0323861Y0112204D01*
X0323861Y0112803D02*
X0319061Y0112803D01*
X0319100Y0113401D02*
X0323861Y0113401D01*
X0323861Y0114000D02*
X0319100Y0114000D01*
X0319100Y0114598D02*
X0323861Y0114598D01*
X0323861Y0115197D02*
X0319100Y0115197D01*
X0319100Y0115795D02*
X0323861Y0115795D01*
X0323861Y0116394D02*
X0318779Y0116394D01*
X0318180Y0116992D02*
X0323861Y0116992D01*
X0323861Y0117591D02*
X0317582Y0117591D01*
X0323861Y0119387D02*
X0034061Y0119387D01*
X0033609Y0119985D02*
X0323861Y0119985D01*
X0323861Y0128963D02*
X0034061Y0128963D01*
X0034061Y0128364D02*
X0303026Y0128364D01*
X0306983Y0130160D02*
X0323861Y0130160D01*
X0323861Y0130758D02*
X0317016Y0130758D01*
X0317615Y0131357D02*
X0323861Y0131357D01*
X0323861Y0131955D02*
X0318213Y0131955D01*
X0318812Y0132554D02*
X0323861Y0132554D01*
X0323861Y0133152D02*
X0319100Y0133152D01*
X0319100Y0133751D02*
X0323861Y0133751D01*
X0323861Y0134349D02*
X0319100Y0134349D01*
X0319100Y0134948D02*
X0323861Y0134948D01*
X0323861Y0135546D02*
X0319100Y0135546D01*
X0319028Y0136145D02*
X0323861Y0136145D01*
X0323861Y0136743D02*
X0318430Y0136743D01*
X0317831Y0137342D02*
X0323861Y0137342D01*
X0323861Y0137940D02*
X0317232Y0137940D01*
X0316815Y0140557D02*
X0319100Y0142842D01*
X0319100Y0146073D01*
X0316815Y0148357D01*
X0313585Y0148357D01*
X0311300Y0146073D01*
X0311300Y0142842D01*
X0313585Y0140557D01*
X0316815Y0140557D01*
X0317191Y0140933D02*
X0323861Y0140933D01*
X0323861Y0141531D02*
X0317789Y0141531D01*
X0318388Y0142130D02*
X0323861Y0142130D01*
X0323861Y0142728D02*
X0318986Y0142728D01*
X0319100Y0143327D02*
X0323861Y0143327D01*
X0323861Y0143926D02*
X0319100Y0143926D01*
X0319100Y0144524D02*
X0323861Y0144524D01*
X0323861Y0145123D02*
X0319100Y0145123D01*
X0319100Y0145721D02*
X0323861Y0145721D01*
X0323861Y0146320D02*
X0318853Y0146320D01*
X0318255Y0146918D02*
X0323861Y0146918D01*
X0323861Y0147517D02*
X0317656Y0147517D01*
X0317058Y0148115D02*
X0323861Y0148115D01*
X0323861Y0148714D02*
X0307025Y0148714D01*
X0307623Y0148115D02*
X0313342Y0148115D01*
X0312744Y0147517D02*
X0308222Y0147517D01*
X0308821Y0146918D02*
X0312145Y0146918D01*
X0311547Y0146320D02*
X0309419Y0146320D01*
X0309500Y0145721D02*
X0311300Y0145721D01*
X0311300Y0145123D02*
X0309500Y0145123D01*
X0309500Y0143926D02*
X0311300Y0143926D01*
X0311300Y0144524D02*
X0305500Y0144524D01*
X0305500Y0143926D02*
X0304900Y0143926D01*
X0304900Y0143327D02*
X0305500Y0143327D01*
X0305500Y0142728D02*
X0304900Y0142728D01*
X0304900Y0142130D02*
X0305500Y0142130D01*
X0305500Y0141531D02*
X0304900Y0141531D01*
X0304900Y0140933D02*
X0305500Y0140933D01*
X0305500Y0140334D02*
X0304900Y0140334D01*
X0303242Y0140334D02*
X0033260Y0140334D01*
X0033858Y0139736D02*
X0323861Y0139736D01*
X0323861Y0140334D02*
X0307158Y0140334D01*
X0307757Y0140933D02*
X0313209Y0140933D01*
X0312611Y0141531D02*
X0308355Y0141531D01*
X0308954Y0142130D02*
X0312012Y0142130D01*
X0311414Y0142728D02*
X0309500Y0142728D01*
X0309500Y0143327D02*
X0311300Y0143327D01*
X0313167Y0137940D02*
X0307798Y0137940D01*
X0308397Y0137342D02*
X0312569Y0137342D01*
X0311970Y0136743D02*
X0308995Y0136743D01*
X0309500Y0136145D02*
X0311372Y0136145D01*
X0311300Y0135546D02*
X0309500Y0135546D01*
X0309500Y0134948D02*
X0311300Y0134948D01*
X0307200Y0138539D02*
X0323861Y0138539D01*
X0323861Y0139137D02*
X0034061Y0139137D01*
X0034061Y0138539D02*
X0303200Y0138539D01*
X0304900Y0138539D02*
X0305500Y0138539D01*
X0305500Y0137940D02*
X0304900Y0137940D01*
X0304900Y0137342D02*
X0305500Y0137342D01*
X0305500Y0136743D02*
X0304900Y0136743D01*
X0304900Y0136145D02*
X0305500Y0136145D01*
X0305500Y0135546D02*
X0304900Y0135546D01*
X0304900Y0134948D02*
X0305500Y0134948D01*
X0308571Y0127167D02*
X0312394Y0127167D01*
X0311796Y0126569D02*
X0309170Y0126569D01*
X0309500Y0125970D02*
X0311300Y0125970D01*
X0311300Y0125372D02*
X0309500Y0125372D01*
X0300900Y0113401D02*
X0299100Y0113401D01*
X0299061Y0112803D02*
X0300900Y0112803D01*
X0301372Y0112204D02*
X0298462Y0112204D01*
X0297864Y0111606D02*
X0301970Y0111606D01*
X0302569Y0111007D02*
X0297265Y0111007D01*
X0303167Y0110409D02*
X0033185Y0110409D01*
X0017984Y0091257D02*
X0011500Y0091257D01*
X0011500Y0091855D02*
X0187365Y0091855D01*
X0184560Y0081680D02*
X0031914Y0081680D01*
X0032512Y0081082D02*
X0184808Y0081082D01*
X0185333Y0080483D02*
X0033111Y0080483D01*
X0033709Y0079885D02*
X0185931Y0079885D01*
X0186530Y0079286D02*
X0034061Y0079286D01*
X0034061Y0078688D02*
X0187313Y0078688D01*
X0188758Y0078089D02*
X0034061Y0078089D01*
X0034061Y0077491D02*
X0270428Y0077491D01*
X0271711Y0077491D02*
X0272311Y0077491D01*
X0272311Y0076892D02*
X0271711Y0076892D01*
X0271711Y0076294D02*
X0272311Y0076294D01*
X0272311Y0075695D02*
X0271711Y0075695D01*
X0271711Y0075097D02*
X0272311Y0075097D01*
X0272311Y0074498D02*
X0271711Y0074498D01*
X0271711Y0073900D02*
X0272311Y0073900D01*
X0272311Y0072104D02*
X0271711Y0072104D01*
X0271711Y0071506D02*
X0272311Y0071506D01*
X0272311Y0070907D02*
X0271711Y0070907D01*
X0271711Y0070309D02*
X0272311Y0070309D01*
X0272311Y0069710D02*
X0271711Y0069710D01*
X0271711Y0069112D02*
X0272311Y0069112D01*
X0272311Y0068513D02*
X0271711Y0068513D01*
X0271711Y0067915D02*
X0272311Y0067915D01*
X0273964Y0067915D02*
X0323861Y0067915D01*
X0323861Y0068513D02*
X0275004Y0068513D01*
X0275693Y0069112D02*
X0323861Y0069112D01*
X0323861Y0069710D02*
X0276184Y0069710D01*
X0276546Y0070309D02*
X0323861Y0070309D01*
X0323861Y0070907D02*
X0276810Y0070907D01*
X0276995Y0071506D02*
X0323861Y0071506D01*
X0323861Y0072104D02*
X0277089Y0072104D01*
X0269184Y0076892D02*
X0034061Y0076892D01*
X0034052Y0076294D02*
X0268450Y0076294D01*
X0267925Y0075695D02*
X0033453Y0075695D01*
X0032855Y0075097D02*
X0267538Y0075097D01*
X0267252Y0074498D02*
X0032256Y0074498D01*
X0018489Y0084074D02*
X0011500Y0084074D01*
X0011500Y0084673D02*
X0017890Y0084673D01*
X0017292Y0085271D02*
X0011500Y0085271D01*
X0011500Y0085870D02*
X0016693Y0085870D01*
X0016261Y0086468D02*
X0011500Y0086468D01*
X0011500Y0087067D02*
X0016261Y0087067D01*
X0016261Y0087665D02*
X0011500Y0087665D01*
X0011500Y0088264D02*
X0016261Y0088264D01*
X0016261Y0088862D02*
X0011500Y0088862D01*
X0011500Y0089461D02*
X0016261Y0089461D01*
X0016787Y0090059D02*
X0011500Y0090059D01*
X0011500Y0090658D02*
X0017385Y0090658D01*
X0011500Y0058338D02*
X0237334Y0058338D01*
X0236198Y0057740D02*
X0231862Y0057740D01*
X0232012Y0057141D02*
X0235556Y0057141D01*
X0235147Y0056543D02*
X0232012Y0056543D01*
X0232012Y0055944D02*
X0234882Y0055944D01*
X0234726Y0055346D02*
X0232012Y0055346D01*
X0238237Y0053550D02*
X0238837Y0053550D01*
X0238837Y0052952D02*
X0238237Y0052952D01*
X0238237Y0052353D02*
X0238837Y0052353D01*
X0238837Y0051755D02*
X0238237Y0051755D01*
X0238237Y0051156D02*
X0238837Y0051156D01*
X0245310Y0046967D02*
X0231764Y0046967D01*
X0232182Y0046368D02*
X0244892Y0046368D01*
X0244645Y0045770D02*
X0232429Y0045770D01*
X0232677Y0045171D02*
X0244397Y0045171D01*
X0244389Y0044573D02*
X0232685Y0044573D01*
X0232685Y0043974D02*
X0244389Y0043974D01*
X0244442Y0043376D02*
X0232632Y0043376D01*
X0232385Y0042777D02*
X0244689Y0042777D01*
X0244937Y0042179D02*
X0232137Y0042179D01*
X0231656Y0041580D02*
X0245418Y0041580D01*
X0246017Y0040982D02*
X0231057Y0040982D01*
X0229853Y0040383D02*
X0247221Y0040383D01*
X0245908Y0047565D02*
X0231166Y0047565D01*
X0230115Y0048164D02*
X0246959Y0048164D01*
X0225212Y0057740D02*
X0011500Y0057740D01*
X0027472Y0033799D02*
X0073907Y0033799D01*
X0073659Y0033201D02*
X0028917Y0033201D01*
X0030298Y0032602D02*
X0073411Y0032602D01*
X0073363Y0032004D02*
X0030897Y0032004D01*
X0031495Y0031405D02*
X0073363Y0031405D01*
X0073363Y0030807D02*
X0032094Y0030807D01*
X0032515Y0030208D02*
X0073363Y0030208D01*
X0073363Y0029610D02*
X0032763Y0029610D01*
X0033011Y0029011D02*
X0073363Y0029011D01*
X0073604Y0028413D02*
X0033259Y0028413D01*
X0033507Y0027814D02*
X0073852Y0027814D01*
X0074100Y0027216D02*
X0033547Y0027216D01*
X0033547Y0026617D02*
X0074348Y0026617D01*
X0074596Y0026019D02*
X0033547Y0026019D01*
X0033547Y0025420D02*
X0075049Y0025420D01*
X0075648Y0024822D02*
X0033547Y0024822D01*
X0033352Y0024223D02*
X0076246Y0024223D01*
X0076845Y0023625D02*
X0033104Y0023625D01*
X0032856Y0023026D02*
X0077834Y0023026D01*
X0079279Y0022428D02*
X0032609Y0022428D01*
X0011500Y0122379D02*
X0291763Y0122379D01*
X0291300Y0122978D02*
X0011500Y0122978D01*
X0011500Y0123576D02*
X0291300Y0123576D01*
X0291300Y0143926D02*
X0022249Y0143926D01*
X0020461Y0143926D02*
X0019861Y0143926D01*
X0019861Y0144524D02*
X0020461Y0144524D01*
X0020461Y0145123D02*
X0019861Y0145123D01*
X0019861Y0145721D02*
X0020461Y0145721D01*
X0020461Y0146320D02*
X0019861Y0146320D01*
X0019861Y0146918D02*
X0020461Y0146918D01*
X0020461Y0148714D02*
X0019861Y0148714D01*
X0019861Y0149312D02*
X0020461Y0149312D01*
X0020461Y0149911D02*
X0019861Y0149911D01*
X0019861Y0150509D02*
X0020461Y0150509D01*
X0020461Y0151108D02*
X0019861Y0151108D01*
X0019861Y0151706D02*
X0020461Y0151706D01*
X0022454Y0151706D02*
X0028433Y0151706D01*
X0027835Y0151108D02*
X0023052Y0151108D01*
X0023651Y0150509D02*
X0027236Y0150509D01*
X0026638Y0149911D02*
X0024249Y0149911D01*
X0024461Y0149312D02*
X0026261Y0149312D01*
X0026261Y0148714D02*
X0024461Y0148714D01*
X0021776Y0154018D02*
X0018545Y0154018D01*
X0016261Y0156303D01*
X0016261Y0159534D01*
X0018545Y0161818D01*
X0021776Y0161818D01*
X0024061Y0159534D01*
X0024061Y0156303D01*
X0021776Y0154018D01*
X0021858Y0154100D02*
X0028463Y0154100D01*
X0027865Y0154699D02*
X0022457Y0154699D01*
X0023055Y0155297D02*
X0027266Y0155297D01*
X0026668Y0155896D02*
X0023654Y0155896D01*
X0024061Y0156494D02*
X0026261Y0156494D01*
X0026261Y0157093D02*
X0024061Y0157093D01*
X0024061Y0157691D02*
X0026261Y0157691D01*
X0026261Y0158290D02*
X0024061Y0158290D01*
X0024061Y0158888D02*
X0026261Y0158888D01*
X0026261Y0159487D02*
X0024061Y0159487D01*
X0023509Y0160085D02*
X0026812Y0160085D01*
X0027411Y0160684D02*
X0022910Y0160684D01*
X0022312Y0161282D02*
X0028009Y0161282D01*
X0032312Y0161282D02*
X0323861Y0161282D01*
X0323861Y0160684D02*
X0032910Y0160684D01*
X0033509Y0160085D02*
X0323861Y0160085D01*
X0323861Y0159487D02*
X0034061Y0159487D01*
X0034061Y0158888D02*
X0323861Y0158888D01*
X0323861Y0158290D02*
X0316883Y0158290D01*
X0316815Y0158357D02*
X0313585Y0158357D01*
X0311300Y0156073D01*
X0311300Y0152842D01*
X0313585Y0150557D01*
X0316815Y0150557D01*
X0319100Y0152842D01*
X0319100Y0156073D01*
X0316815Y0158357D01*
X0317482Y0157691D02*
X0323861Y0157691D01*
X0323861Y0157093D02*
X0318080Y0157093D01*
X0318679Y0156494D02*
X0323861Y0156494D01*
X0323861Y0155896D02*
X0319100Y0155896D01*
X0319100Y0155297D02*
X0323861Y0155297D01*
X0323861Y0154699D02*
X0319100Y0154699D01*
X0319100Y0154100D02*
X0323861Y0154100D01*
X0323861Y0153502D02*
X0319100Y0153502D01*
X0319100Y0152903D02*
X0323861Y0152903D01*
X0323861Y0152305D02*
X0318563Y0152305D01*
X0317964Y0151706D02*
X0323861Y0151706D01*
X0323861Y0151108D02*
X0317366Y0151108D01*
X0323861Y0150509D02*
X0307333Y0150509D01*
X0307931Y0151108D02*
X0313034Y0151108D01*
X0312436Y0151706D02*
X0308530Y0151706D01*
X0309128Y0152305D02*
X0311837Y0152305D01*
X0311300Y0152903D02*
X0309500Y0152903D01*
X0309500Y0153502D02*
X0311300Y0153502D01*
X0311300Y0154100D02*
X0309500Y0154100D01*
X0309500Y0155297D02*
X0311300Y0155297D01*
X0311300Y0154699D02*
X0305500Y0154699D01*
X0305500Y0155297D02*
X0304900Y0155297D01*
X0304900Y0155896D02*
X0305500Y0155896D01*
X0305500Y0156494D02*
X0304900Y0156494D01*
X0304900Y0157093D02*
X0305500Y0157093D01*
X0305500Y0157691D02*
X0304900Y0157691D01*
X0304900Y0158290D02*
X0305500Y0158290D01*
X0307449Y0158290D02*
X0313517Y0158290D01*
X0312918Y0157691D02*
X0308047Y0157691D01*
X0308646Y0157093D02*
X0312320Y0157093D01*
X0311721Y0156494D02*
X0309244Y0156494D01*
X0309500Y0155896D02*
X0311300Y0155896D01*
X0303067Y0150509D02*
X0033085Y0150509D01*
X0033684Y0149911D02*
X0323861Y0149911D01*
X0323861Y0149312D02*
X0034061Y0149312D01*
X0034061Y0148714D02*
X0303375Y0148714D01*
X0302777Y0148115D02*
X0297058Y0148115D01*
X0297656Y0147517D02*
X0302178Y0147517D01*
X0301579Y0146918D02*
X0298255Y0146918D01*
X0298853Y0146320D02*
X0300981Y0146320D01*
X0300900Y0145721D02*
X0299100Y0145721D01*
X0299100Y0145123D02*
X0300900Y0145123D01*
X0302469Y0151108D02*
X0299100Y0151108D01*
X0299100Y0151706D02*
X0301870Y0151706D01*
X0301272Y0152305D02*
X0299100Y0152305D01*
X0299100Y0152903D02*
X0300900Y0152903D01*
X0300900Y0153502D02*
X0299100Y0153502D01*
X0299100Y0154100D02*
X0300900Y0154100D01*
X0293342Y0148115D02*
X0034061Y0148115D01*
X0034061Y0147517D02*
X0292744Y0147517D01*
X0292145Y0146918D02*
X0034061Y0146918D01*
X0034061Y0146320D02*
X0291547Y0146320D01*
X0291300Y0145721D02*
X0033479Y0145721D01*
X0032880Y0145123D02*
X0291300Y0145123D01*
X0291300Y0144524D02*
X0032282Y0144524D01*
X0032487Y0151108D02*
X0291300Y0151108D01*
X0291300Y0151706D02*
X0031888Y0151706D01*
X0018463Y0154100D02*
X0011500Y0154100D01*
X0011500Y0154699D02*
X0017865Y0154699D01*
X0017266Y0155297D02*
X0011500Y0155297D01*
X0011500Y0155896D02*
X0016668Y0155896D01*
X0016261Y0156494D02*
X0011500Y0156494D01*
X0011500Y0157093D02*
X0016261Y0157093D01*
X0016261Y0157691D02*
X0011500Y0157691D01*
X0011500Y0158290D02*
X0016261Y0158290D01*
X0016261Y0158888D02*
X0011500Y0158888D01*
X0011500Y0159487D02*
X0016261Y0159487D01*
X0016812Y0160085D02*
X0011500Y0160085D01*
X0011500Y0160684D02*
X0017411Y0160684D01*
X0018009Y0161282D02*
X0011500Y0161282D01*
X0011500Y0161881D02*
X0323861Y0161881D01*
X0323861Y0162479D02*
X0011500Y0162479D01*
X0011500Y0163078D02*
X0323861Y0163078D01*
X0323861Y0163676D02*
X0089510Y0163676D01*
X0088946Y0163443D02*
X0090673Y0164158D01*
X0091995Y0165480D01*
X0092711Y0167208D01*
X0092711Y0169077D01*
X0091995Y0170805D01*
X0090673Y0172127D01*
X0088946Y0172843D01*
X0087076Y0172843D01*
X0085349Y0172127D01*
X0084027Y0170805D01*
X0083311Y0169077D01*
X0083311Y0167208D01*
X0084027Y0165480D01*
X0085349Y0164158D01*
X0087076Y0163443D01*
X0088946Y0163443D01*
X0090790Y0164275D02*
X0323861Y0164275D01*
X0323861Y0164873D02*
X0091389Y0164873D01*
X0091987Y0165472D02*
X0323861Y0165472D01*
X0323861Y0166070D02*
X0092240Y0166070D01*
X0092488Y0166669D02*
X0323861Y0166669D01*
X0323861Y0167267D02*
X0092711Y0167267D01*
X0092711Y0167866D02*
X0323861Y0167866D01*
X0323861Y0168464D02*
X0092711Y0168464D01*
X0092711Y0169063D02*
X0323861Y0169063D01*
X0323861Y0169661D02*
X0092469Y0169661D01*
X0092221Y0170260D02*
X0323861Y0170260D01*
X0323861Y0170859D02*
X0091942Y0170859D01*
X0091343Y0171457D02*
X0323861Y0171457D01*
X0323861Y0172056D02*
X0090745Y0172056D01*
X0089401Y0172654D02*
X0323861Y0172654D01*
X0323861Y0173253D02*
X0011500Y0173253D01*
X0011500Y0173851D02*
X0323861Y0173851D01*
X0323861Y0174450D02*
X0033965Y0174450D01*
X0034061Y0174545D02*
X0034061Y0181291D01*
X0033533Y0181818D01*
X0026788Y0181818D01*
X0026261Y0181291D01*
X0026261Y0174545D01*
X0026788Y0174018D01*
X0033533Y0174018D01*
X0034061Y0174545D01*
X0034061Y0175048D02*
X0323861Y0175048D01*
X0323861Y0175647D02*
X0034061Y0175647D01*
X0034061Y0176245D02*
X0323861Y0176245D01*
X0323861Y0176844D02*
X0034061Y0176844D01*
X0034061Y0177442D02*
X0323861Y0177442D01*
X0323861Y0178041D02*
X0034061Y0178041D01*
X0034061Y0178639D02*
X0293503Y0178639D01*
X0293585Y0178557D02*
X0296815Y0178557D01*
X0299100Y0180842D01*
X0299100Y0184073D01*
X0296815Y0186357D01*
X0293585Y0186357D01*
X0291300Y0184073D01*
X0291300Y0180842D01*
X0293585Y0178557D01*
X0292904Y0179238D02*
X0034061Y0179238D01*
X0034061Y0179836D02*
X0292306Y0179836D01*
X0291707Y0180435D02*
X0034061Y0180435D01*
X0034061Y0181033D02*
X0291300Y0181033D01*
X0291300Y0181632D02*
X0033720Y0181632D01*
X0031776Y0184018D02*
X0034061Y0186303D01*
X0034061Y0189534D01*
X0031776Y0191818D01*
X0028545Y0191818D01*
X0026261Y0189534D01*
X0026261Y0186303D01*
X0028545Y0184018D01*
X0031776Y0184018D01*
X0031784Y0184026D02*
X0291300Y0184026D01*
X0291300Y0183427D02*
X0011500Y0183427D01*
X0011500Y0182829D02*
X0291300Y0182829D01*
X0291300Y0182230D02*
X0011500Y0182230D01*
X0011500Y0181632D02*
X0018359Y0181632D01*
X0018545Y0181818D02*
X0016261Y0179534D01*
X0016261Y0176303D01*
X0018545Y0174018D01*
X0021776Y0174018D01*
X0024061Y0176303D01*
X0024061Y0179534D01*
X0021776Y0181818D01*
X0018545Y0181818D01*
X0017760Y0181033D02*
X0011500Y0181033D01*
X0011500Y0180435D02*
X0017162Y0180435D01*
X0016563Y0179836D02*
X0011500Y0179836D01*
X0011500Y0179238D02*
X0016261Y0179238D01*
X0016261Y0178639D02*
X0011500Y0178639D01*
X0011500Y0178041D02*
X0016261Y0178041D01*
X0016261Y0177442D02*
X0011500Y0177442D01*
X0011500Y0176844D02*
X0016261Y0176844D01*
X0016318Y0176245D02*
X0011500Y0176245D01*
X0011500Y0175647D02*
X0016917Y0175647D01*
X0017515Y0175048D02*
X0011500Y0175048D01*
X0011500Y0174450D02*
X0018114Y0174450D01*
X0022208Y0174450D02*
X0026356Y0174450D01*
X0026261Y0175048D02*
X0022806Y0175048D01*
X0023405Y0175647D02*
X0026261Y0175647D01*
X0026261Y0176245D02*
X0024003Y0176245D01*
X0024061Y0176844D02*
X0026261Y0176844D01*
X0026261Y0177442D02*
X0024061Y0177442D01*
X0024061Y0178041D02*
X0026261Y0178041D01*
X0026261Y0178639D02*
X0024061Y0178639D01*
X0024061Y0179238D02*
X0026261Y0179238D01*
X0026261Y0179836D02*
X0023758Y0179836D01*
X0023159Y0180435D02*
X0026261Y0180435D01*
X0026261Y0181033D02*
X0022561Y0181033D01*
X0021962Y0181632D02*
X0026601Y0181632D01*
X0028538Y0184026D02*
X0021784Y0184026D01*
X0021776Y0184018D02*
X0024061Y0186303D01*
X0024061Y0189534D01*
X0021776Y0191818D01*
X0018545Y0191818D01*
X0016261Y0189534D01*
X0016261Y0186303D01*
X0018545Y0184018D01*
X0021776Y0184018D01*
X0022382Y0184624D02*
X0027939Y0184624D01*
X0027341Y0185223D02*
X0022981Y0185223D01*
X0023579Y0185821D02*
X0026742Y0185821D01*
X0026261Y0186420D02*
X0024061Y0186420D01*
X0024061Y0187018D02*
X0026261Y0187018D01*
X0026261Y0187617D02*
X0024061Y0187617D01*
X0024061Y0188215D02*
X0026261Y0188215D01*
X0026261Y0188814D02*
X0024061Y0188814D01*
X0024061Y0189412D02*
X0026261Y0189412D01*
X0026738Y0190011D02*
X0023583Y0190011D01*
X0022985Y0190609D02*
X0027336Y0190609D01*
X0027935Y0191208D02*
X0022386Y0191208D01*
X0021788Y0191806D02*
X0028534Y0191806D01*
X0028545Y0194018D02*
X0031776Y0194018D01*
X0034061Y0196303D01*
X0034061Y0199534D01*
X0031776Y0201818D01*
X0028545Y0201818D01*
X0026261Y0199534D01*
X0026261Y0196303D01*
X0028545Y0194018D01*
X0028363Y0194200D02*
X0021958Y0194200D01*
X0021776Y0194018D02*
X0024061Y0196303D01*
X0024061Y0199534D01*
X0021776Y0201818D01*
X0018545Y0201818D01*
X0016261Y0199534D01*
X0016261Y0196303D01*
X0018545Y0194018D01*
X0021776Y0194018D01*
X0022557Y0194799D02*
X0027764Y0194799D01*
X0027166Y0195397D02*
X0023155Y0195397D01*
X0023754Y0195996D02*
X0026567Y0195996D01*
X0026261Y0196595D02*
X0024061Y0196595D01*
X0024061Y0197193D02*
X0026261Y0197193D01*
X0026261Y0197792D02*
X0024061Y0197792D01*
X0024061Y0198390D02*
X0026261Y0198390D01*
X0026261Y0198989D02*
X0024061Y0198989D01*
X0024007Y0199587D02*
X0026314Y0199587D01*
X0026913Y0200186D02*
X0023409Y0200186D01*
X0022810Y0200784D02*
X0027511Y0200784D01*
X0028110Y0201383D02*
X0022212Y0201383D01*
X0021776Y0204018D02*
X0018545Y0204018D01*
X0016261Y0206303D01*
X0016261Y0209534D01*
X0018545Y0211818D01*
X0021776Y0211818D01*
X0024061Y0209534D01*
X0024061Y0206303D01*
X0021776Y0204018D01*
X0022133Y0204375D02*
X0028188Y0204375D01*
X0028545Y0204018D02*
X0031776Y0204018D01*
X0034061Y0206303D01*
X0034061Y0209534D01*
X0031776Y0211818D01*
X0028545Y0211818D01*
X0026261Y0209534D01*
X0026261Y0206303D01*
X0028545Y0204018D01*
X0027590Y0204974D02*
X0022732Y0204974D01*
X0023330Y0205572D02*
X0026991Y0205572D01*
X0026393Y0206171D02*
X0023929Y0206171D01*
X0024061Y0206769D02*
X0026261Y0206769D01*
X0026261Y0207368D02*
X0024061Y0207368D01*
X0024061Y0207966D02*
X0026261Y0207966D01*
X0026261Y0208565D02*
X0024061Y0208565D01*
X0024061Y0209163D02*
X0026261Y0209163D01*
X0026489Y0209762D02*
X0023832Y0209762D01*
X0023234Y0210360D02*
X0027087Y0210360D01*
X0027686Y0210959D02*
X0022635Y0210959D01*
X0022037Y0211557D02*
X0028284Y0211557D01*
X0028545Y0214018D02*
X0031776Y0214018D01*
X0034061Y0216303D01*
X0034061Y0219534D01*
X0031776Y0221818D01*
X0028545Y0221818D01*
X0026261Y0219534D01*
X0026261Y0216303D01*
X0028545Y0214018D01*
X0028013Y0214550D02*
X0022308Y0214550D01*
X0021776Y0214018D02*
X0024061Y0216303D01*
X0024061Y0219534D01*
X0021776Y0221818D01*
X0018545Y0221818D01*
X0016261Y0219534D01*
X0016261Y0216303D01*
X0018545Y0214018D01*
X0021776Y0214018D01*
X0022906Y0215148D02*
X0027415Y0215148D01*
X0026816Y0215747D02*
X0023505Y0215747D01*
X0024061Y0216345D02*
X0026261Y0216345D01*
X0026261Y0216944D02*
X0024061Y0216944D01*
X0024061Y0217542D02*
X0026261Y0217542D01*
X0026261Y0218141D02*
X0024061Y0218141D01*
X0024061Y0218739D02*
X0026261Y0218739D01*
X0026261Y0219338D02*
X0024061Y0219338D01*
X0023658Y0219936D02*
X0026664Y0219936D01*
X0027262Y0220535D02*
X0023059Y0220535D01*
X0022461Y0221133D02*
X0027861Y0221133D01*
X0028459Y0221732D02*
X0021862Y0221732D01*
X0021776Y0224018D02*
X0024061Y0226303D01*
X0024061Y0229534D01*
X0021776Y0231818D01*
X0018545Y0231818D01*
X0016261Y0229534D01*
X0016261Y0226303D01*
X0018545Y0224018D01*
X0021776Y0224018D01*
X0021884Y0224126D02*
X0028437Y0224126D01*
X0028545Y0224018D02*
X0031776Y0224018D01*
X0034061Y0226303D01*
X0034061Y0229534D01*
X0031776Y0231818D01*
X0028545Y0231818D01*
X0026261Y0229534D01*
X0026261Y0226303D01*
X0028545Y0224018D01*
X0027839Y0224725D02*
X0022482Y0224725D01*
X0023081Y0225323D02*
X0027240Y0225323D01*
X0026642Y0225922D02*
X0023679Y0225922D01*
X0024061Y0226520D02*
X0026261Y0226520D01*
X0026261Y0227119D02*
X0024061Y0227119D01*
X0024061Y0227717D02*
X0026261Y0227717D01*
X0026261Y0228316D02*
X0024061Y0228316D01*
X0024061Y0228914D02*
X0026261Y0228914D01*
X0026261Y0229513D02*
X0024061Y0229513D01*
X0023483Y0230111D02*
X0026838Y0230111D01*
X0027437Y0230710D02*
X0022884Y0230710D01*
X0022286Y0231308D02*
X0028035Y0231308D01*
X0028545Y0234018D02*
X0031776Y0234018D01*
X0034061Y0236303D01*
X0034061Y0239534D01*
X0031776Y0241818D01*
X0028545Y0241818D01*
X0026261Y0239534D01*
X0026261Y0236303D01*
X0028545Y0234018D01*
X0028263Y0234301D02*
X0022059Y0234301D01*
X0021776Y0234018D02*
X0024061Y0236303D01*
X0024061Y0239534D01*
X0021776Y0241818D01*
X0018545Y0241818D01*
X0016261Y0239534D01*
X0016261Y0236303D01*
X0018545Y0234018D01*
X0021776Y0234018D01*
X0022657Y0234899D02*
X0027664Y0234899D01*
X0027066Y0235498D02*
X0023256Y0235498D01*
X0023854Y0236096D02*
X0026467Y0236096D01*
X0026261Y0236695D02*
X0024061Y0236695D01*
X0024061Y0237293D02*
X0026261Y0237293D01*
X0026261Y0237892D02*
X0024061Y0237892D01*
X0024061Y0238490D02*
X0026261Y0238490D01*
X0026261Y0239089D02*
X0024061Y0239089D01*
X0023907Y0239687D02*
X0026414Y0239687D01*
X0027013Y0240286D02*
X0023308Y0240286D01*
X0022710Y0240884D02*
X0027611Y0240884D01*
X0028210Y0241483D02*
X0022111Y0241483D01*
X0021776Y0244018D02*
X0018545Y0244018D01*
X0016261Y0246303D01*
X0016261Y0249534D01*
X0018545Y0251818D01*
X0021776Y0251818D01*
X0024061Y0249534D01*
X0024061Y0246303D01*
X0021776Y0244018D01*
X0022233Y0244475D02*
X0028088Y0244475D01*
X0028545Y0244018D02*
X0031776Y0244018D01*
X0034061Y0246303D01*
X0034061Y0249534D01*
X0031776Y0251818D01*
X0028545Y0251818D01*
X0026261Y0249534D01*
X0026261Y0246303D01*
X0028545Y0244018D01*
X0027489Y0245074D02*
X0022832Y0245074D01*
X0023430Y0245672D02*
X0026891Y0245672D01*
X0026292Y0246271D02*
X0024029Y0246271D01*
X0024061Y0246869D02*
X0026261Y0246869D01*
X0026261Y0247468D02*
X0024061Y0247468D01*
X0024061Y0248066D02*
X0026261Y0248066D01*
X0026261Y0248665D02*
X0024061Y0248665D01*
X0024061Y0249263D02*
X0026261Y0249263D01*
X0026589Y0249862D02*
X0023732Y0249862D01*
X0023134Y0250461D02*
X0027188Y0250461D01*
X0027786Y0251059D02*
X0022535Y0251059D01*
X0021937Y0251658D02*
X0028385Y0251658D01*
X0028545Y0254018D02*
X0031776Y0254018D01*
X0034061Y0256303D01*
X0034061Y0259534D01*
X0031776Y0261818D01*
X0028545Y0261818D01*
X0026261Y0259534D01*
X0026261Y0256303D01*
X0028545Y0254018D01*
X0028512Y0254052D02*
X0021810Y0254052D01*
X0021776Y0254018D02*
X0024061Y0256303D01*
X0024061Y0259534D01*
X0021776Y0261818D01*
X0018545Y0261818D01*
X0016261Y0259534D01*
X0016261Y0256303D01*
X0018545Y0254018D01*
X0021776Y0254018D01*
X0022408Y0254650D02*
X0027913Y0254650D01*
X0027315Y0255249D02*
X0023007Y0255249D01*
X0023605Y0255847D02*
X0026716Y0255847D01*
X0026261Y0256446D02*
X0024061Y0256446D01*
X0024061Y0257044D02*
X0026261Y0257044D01*
X0026261Y0257643D02*
X0024061Y0257643D01*
X0024061Y0258241D02*
X0026261Y0258241D01*
X0026261Y0258840D02*
X0024061Y0258840D01*
X0024061Y0259438D02*
X0026261Y0259438D01*
X0026764Y0260037D02*
X0023557Y0260037D01*
X0022959Y0260635D02*
X0027362Y0260635D01*
X0027961Y0261234D02*
X0022360Y0261234D01*
X0021776Y0264018D02*
X0018545Y0264018D01*
X0016261Y0266303D01*
X0016261Y0269534D01*
X0018545Y0271818D01*
X0021776Y0271818D01*
X0024061Y0269534D01*
X0024061Y0266303D01*
X0021776Y0264018D01*
X0021984Y0264226D02*
X0028337Y0264226D01*
X0028545Y0264018D02*
X0031776Y0264018D01*
X0034061Y0266303D01*
X0034061Y0269534D01*
X0031776Y0271818D01*
X0028545Y0271818D01*
X0026261Y0269534D01*
X0026261Y0266303D01*
X0028545Y0264018D01*
X0027739Y0264825D02*
X0022583Y0264825D01*
X0023181Y0265423D02*
X0027140Y0265423D01*
X0026541Y0266022D02*
X0023780Y0266022D01*
X0024061Y0266620D02*
X0026261Y0266620D01*
X0026261Y0267219D02*
X0024061Y0267219D01*
X0024061Y0267817D02*
X0026261Y0267817D01*
X0026261Y0268416D02*
X0024061Y0268416D01*
X0024061Y0269014D02*
X0026261Y0269014D01*
X0026340Y0269613D02*
X0023981Y0269613D01*
X0023383Y0270211D02*
X0026938Y0270211D01*
X0027537Y0270810D02*
X0022784Y0270810D01*
X0022186Y0271408D02*
X0028136Y0271408D01*
X0032186Y0271408D02*
X0323861Y0271408D01*
X0323861Y0270810D02*
X0032784Y0270810D01*
X0033383Y0270211D02*
X0323861Y0270211D01*
X0323861Y0269613D02*
X0033981Y0269613D01*
X0034061Y0269014D02*
X0323861Y0269014D01*
X0323861Y0268416D02*
X0034061Y0268416D01*
X0034061Y0267817D02*
X0323861Y0267817D01*
X0323861Y0267219D02*
X0272562Y0267219D01*
X0272412Y0267243D02*
X0272311Y0267243D01*
X0272311Y0262443D01*
X0271711Y0262443D01*
X0271711Y0267243D01*
X0271610Y0267243D01*
X0270817Y0267117D01*
X0270053Y0266869D01*
X0269338Y0266504D01*
X0268689Y0266033D01*
X0268121Y0265465D01*
X0267649Y0264816D01*
X0267285Y0264100D01*
X0267037Y0263337D01*
X0266911Y0262544D01*
X0266911Y0262442D01*
X0271711Y0262442D01*
X0271711Y0261843D01*
X0266911Y0261843D01*
X0266911Y0261741D01*
X0267037Y0260948D01*
X0267285Y0260185D01*
X0267649Y0259470D01*
X0268121Y0258820D01*
X0268689Y0258252D01*
X0269338Y0257781D01*
X0270053Y0257416D01*
X0270817Y0257168D01*
X0271610Y0257043D01*
X0271711Y0257043D01*
X0271711Y0261842D01*
X0272311Y0261842D01*
X0272311Y0257043D01*
X0272412Y0257043D01*
X0273205Y0257168D01*
X0273969Y0257416D01*
X0274684Y0257781D01*
X0275333Y0258252D01*
X0275901Y0258820D01*
X0276373Y0259470D01*
X0276737Y0260185D01*
X0276985Y0260948D01*
X0277111Y0261741D01*
X0277111Y0261843D01*
X0272311Y0261843D01*
X0272311Y0262442D01*
X0277111Y0262442D01*
X0277111Y0262544D01*
X0276985Y0263337D01*
X0276737Y0264100D01*
X0276373Y0264816D01*
X0275901Y0265465D01*
X0275333Y0266033D01*
X0274684Y0266504D01*
X0273969Y0266869D01*
X0273205Y0267117D01*
X0272412Y0267243D01*
X0272311Y0267219D02*
X0271711Y0267219D01*
X0271460Y0267219D02*
X0034061Y0267219D01*
X0034061Y0266620D02*
X0269566Y0266620D01*
X0268678Y0266022D02*
X0033780Y0266022D01*
X0033181Y0265423D02*
X0268091Y0265423D01*
X0267656Y0264825D02*
X0032583Y0264825D01*
X0031984Y0264226D02*
X0267349Y0264226D01*
X0267131Y0263628D02*
X0011500Y0263628D01*
X0011500Y0264226D02*
X0018337Y0264226D01*
X0017739Y0264825D02*
X0011500Y0264825D01*
X0011500Y0265423D02*
X0017140Y0265423D01*
X0016541Y0266022D02*
X0011500Y0266022D01*
X0011500Y0266620D02*
X0016261Y0266620D01*
X0016261Y0267219D02*
X0011500Y0267219D01*
X0011500Y0267817D02*
X0016261Y0267817D01*
X0016261Y0268416D02*
X0011500Y0268416D01*
X0011500Y0269014D02*
X0016261Y0269014D01*
X0016340Y0269613D02*
X0011500Y0269613D01*
X0011500Y0270211D02*
X0016938Y0270211D01*
X0017537Y0270810D02*
X0011500Y0270810D01*
X0011500Y0271408D02*
X0018136Y0271408D01*
X0011500Y0272007D02*
X0323861Y0272007D01*
X0323861Y0272605D02*
X0011500Y0272605D01*
X0011500Y0273204D02*
X0323861Y0273204D01*
X0323861Y0273802D02*
X0011500Y0273802D01*
X0011500Y0274401D02*
X0323861Y0274401D01*
X0323861Y0274999D02*
X0011500Y0274999D01*
X0011500Y0275598D02*
X0323861Y0275598D01*
X0323861Y0276197D02*
X0011500Y0276197D01*
X0011500Y0276795D02*
X0323861Y0276795D01*
X0323861Y0277394D02*
X0228973Y0277394D01*
X0228919Y0277383D02*
X0229667Y0277532D01*
X0230372Y0277824D01*
X0231007Y0278248D01*
X0231547Y0278787D01*
X0231971Y0279422D01*
X0232263Y0280127D01*
X0232412Y0280876D01*
X0232412Y0280957D01*
X0228837Y0280957D01*
X0228837Y0277383D01*
X0228919Y0277383D01*
X0228837Y0277394D02*
X0228237Y0277394D01*
X0228237Y0277383D02*
X0228237Y0280957D01*
X0228837Y0280957D01*
X0228837Y0281557D01*
X0232412Y0281557D01*
X0232412Y0281639D01*
X0232263Y0282388D01*
X0231971Y0283093D01*
X0231547Y0283728D01*
X0231007Y0284267D01*
X0230372Y0284691D01*
X0229667Y0284983D01*
X0228919Y0285132D01*
X0228837Y0285132D01*
X0228837Y0281558D01*
X0228237Y0281558D01*
X0228237Y0285132D01*
X0228155Y0285132D01*
X0227407Y0284983D01*
X0226702Y0284691D01*
X0226067Y0284267D01*
X0225527Y0283728D01*
X0225103Y0283093D01*
X0224811Y0282388D01*
X0224662Y0281639D01*
X0224662Y0281557D01*
X0228237Y0281557D01*
X0228237Y0280957D01*
X0224662Y0280957D01*
X0224662Y0280876D01*
X0224811Y0280127D01*
X0225103Y0279422D01*
X0225527Y0278787D01*
X0226067Y0278248D01*
X0226702Y0277824D01*
X0227407Y0277532D01*
X0228155Y0277383D01*
X0228237Y0277383D01*
X0228101Y0277394D02*
X0011500Y0277394D01*
X0011500Y0277992D02*
X0226450Y0277992D01*
X0225724Y0278591D02*
X0184308Y0278591D01*
X0184792Y0278720D02*
X0185903Y0279180D01*
X0186945Y0279782D01*
X0187899Y0280514D01*
X0188749Y0281364D01*
X0189481Y0282318D01*
X0190083Y0283360D01*
X0190543Y0284471D01*
X0190854Y0285632D01*
X0191011Y0286825D01*
X0191011Y0287126D01*
X0182137Y0287126D01*
X0182137Y0287726D01*
X0181537Y0287726D01*
X0181537Y0296600D01*
X0181236Y0296600D01*
X0180043Y0296443D01*
X0178882Y0296132D01*
X0177771Y0295672D01*
X0176729Y0295070D01*
X0175775Y0294338D01*
X0174925Y0293488D01*
X0174193Y0292534D01*
X0173591Y0291492D01*
X0173131Y0290381D01*
X0172820Y0289220D01*
X0172663Y0288027D01*
X0172663Y0287726D01*
X0181537Y0287726D01*
X0181537Y0287126D01*
X0172663Y0287126D01*
X0172663Y0286825D01*
X0172820Y0285632D01*
X0173131Y0284471D01*
X0173591Y0283360D01*
X0174193Y0282318D01*
X0174925Y0281364D01*
X0175775Y0280514D01*
X0176729Y0279782D01*
X0177771Y0279180D01*
X0178882Y0278720D01*
X0180043Y0278409D01*
X0181236Y0278252D01*
X0181537Y0278252D01*
X0181537Y0287126D01*
X0182137Y0287126D01*
X0182137Y0278252D01*
X0182438Y0278252D01*
X0183631Y0278409D01*
X0184792Y0278720D01*
X0185918Y0279189D02*
X0225259Y0279189D01*
X0224952Y0279788D02*
X0186952Y0279788D01*
X0187732Y0280386D02*
X0224760Y0280386D01*
X0224662Y0281583D02*
X0188917Y0281583D01*
X0189376Y0282182D02*
X0224770Y0282182D01*
X0224974Y0282780D02*
X0189748Y0282780D01*
X0190090Y0283379D02*
X0225294Y0283379D01*
X0225777Y0283977D02*
X0190338Y0283977D01*
X0190571Y0284576D02*
X0226529Y0284576D01*
X0228237Y0284576D02*
X0228837Y0284576D01*
X0228837Y0283977D02*
X0228237Y0283977D01*
X0228237Y0283379D02*
X0228837Y0283379D01*
X0228837Y0282780D02*
X0228237Y0282780D01*
X0228237Y0282182D02*
X0228837Y0282182D01*
X0228837Y0281583D02*
X0228237Y0281583D01*
X0228237Y0280985D02*
X0188370Y0280985D01*
X0190731Y0285174D02*
X0323861Y0285174D01*
X0323861Y0284576D02*
X0251641Y0284576D01*
X0251485Y0284732D02*
X0245589Y0284732D01*
X0245062Y0284205D01*
X0245062Y0278310D01*
X0245589Y0277783D01*
X0251485Y0277783D01*
X0252012Y0278310D01*
X0252012Y0284205D01*
X0251485Y0284732D01*
X0252012Y0283977D02*
X0323861Y0283977D01*
X0323861Y0283379D02*
X0252012Y0283379D01*
X0252012Y0282780D02*
X0323861Y0282780D01*
X0323861Y0282182D02*
X0252012Y0282182D01*
X0252012Y0281583D02*
X0323861Y0281583D01*
X0323861Y0280985D02*
X0252012Y0280985D01*
X0252012Y0280386D02*
X0323861Y0280386D01*
X0323861Y0279788D02*
X0252012Y0279788D01*
X0252012Y0279189D02*
X0323861Y0279189D01*
X0323861Y0278591D02*
X0252012Y0278591D01*
X0251694Y0277992D02*
X0323861Y0277992D01*
X0323861Y0285773D02*
X0190873Y0285773D01*
X0190951Y0286371D02*
X0323861Y0286371D01*
X0323861Y0286970D02*
X0191011Y0286970D01*
X0191011Y0287726D02*
X0191011Y0288027D01*
X0190854Y0289220D01*
X0190543Y0290381D01*
X0190083Y0291492D01*
X0189481Y0292534D01*
X0188749Y0293488D01*
X0187899Y0294338D01*
X0186945Y0295070D01*
X0185903Y0295672D01*
X0184792Y0296132D01*
X0183631Y0296443D01*
X0182438Y0296600D01*
X0182137Y0296600D01*
X0182137Y0287726D01*
X0191011Y0287726D01*
X0190993Y0288167D02*
X0226116Y0288167D01*
X0226187Y0288095D02*
X0227712Y0287464D01*
X0229362Y0287464D01*
X0230887Y0288095D01*
X0232054Y0289262D01*
X0232685Y0290787D01*
X0232685Y0292437D01*
X0232054Y0293961D01*
X0230887Y0295128D01*
X0229362Y0295760D01*
X0227712Y0295760D01*
X0226187Y0295128D01*
X0225020Y0293961D01*
X0224389Y0292437D01*
X0224389Y0290787D01*
X0225020Y0289262D01*
X0226187Y0288095D01*
X0225517Y0288765D02*
X0190914Y0288765D01*
X0190815Y0289364D02*
X0224978Y0289364D01*
X0224730Y0289962D02*
X0190655Y0289962D01*
X0190468Y0290561D02*
X0224483Y0290561D01*
X0224389Y0291159D02*
X0190220Y0291159D01*
X0189929Y0291758D02*
X0224389Y0291758D01*
X0224389Y0292356D02*
X0189584Y0292356D01*
X0189158Y0292955D02*
X0224604Y0292955D01*
X0224851Y0293553D02*
X0188684Y0293553D01*
X0188085Y0294152D02*
X0225211Y0294152D01*
X0225809Y0294750D02*
X0187362Y0294750D01*
X0186462Y0295349D02*
X0226720Y0295349D01*
X0230354Y0295349D02*
X0246720Y0295349D01*
X0246187Y0295128D02*
X0245020Y0293961D01*
X0244389Y0292437D01*
X0244389Y0290787D01*
X0245020Y0289262D01*
X0246187Y0288095D01*
X0247712Y0287464D01*
X0249362Y0287464D01*
X0250887Y0288095D01*
X0252054Y0289262D01*
X0252685Y0290787D01*
X0252685Y0292437D01*
X0252054Y0293961D01*
X0250887Y0295128D01*
X0249362Y0295760D01*
X0247712Y0295760D01*
X0246187Y0295128D01*
X0245809Y0294750D02*
X0231265Y0294750D01*
X0231863Y0294152D02*
X0245211Y0294152D01*
X0244851Y0293553D02*
X0232223Y0293553D01*
X0232471Y0292955D02*
X0244604Y0292955D01*
X0244389Y0292356D02*
X0232685Y0292356D01*
X0232685Y0291758D02*
X0244389Y0291758D01*
X0244389Y0291159D02*
X0232685Y0291159D01*
X0232591Y0290561D02*
X0244483Y0290561D01*
X0244730Y0289962D02*
X0232344Y0289962D01*
X0232096Y0289364D02*
X0244978Y0289364D01*
X0245517Y0288765D02*
X0231557Y0288765D01*
X0230958Y0288167D02*
X0246116Y0288167D01*
X0247460Y0287568D02*
X0229614Y0287568D01*
X0227460Y0287568D02*
X0182137Y0287568D01*
X0182137Y0286970D02*
X0181537Y0286970D01*
X0181537Y0287568D02*
X0165757Y0287568D01*
X0165757Y0286970D02*
X0172663Y0286970D01*
X0172723Y0286371D02*
X0165757Y0286371D01*
X0165757Y0286248D02*
X0164855Y0284073D01*
X0163190Y0282408D01*
X0161015Y0281506D01*
X0158659Y0281506D01*
X0156484Y0282408D01*
X0154819Y0284073D01*
X0153917Y0286248D01*
X0153917Y0288603D01*
X0154819Y0290779D01*
X0156484Y0292444D01*
X0158659Y0293346D01*
X0161015Y0293346D01*
X0163190Y0292444D01*
X0164855Y0290779D01*
X0165757Y0288603D01*
X0165757Y0286248D01*
X0165560Y0285773D02*
X0172801Y0285773D01*
X0172943Y0285174D02*
X0165312Y0285174D01*
X0165064Y0284576D02*
X0173103Y0284576D01*
X0173336Y0283977D02*
X0164760Y0283977D01*
X0164161Y0283379D02*
X0173584Y0283379D01*
X0173926Y0282780D02*
X0163563Y0282780D01*
X0162645Y0282182D02*
X0174298Y0282182D01*
X0174757Y0281583D02*
X0161200Y0281583D01*
X0158474Y0281583D02*
X0144917Y0281583D01*
X0144749Y0281364D02*
X0145481Y0282318D01*
X0146083Y0283360D01*
X0146543Y0284471D01*
X0146854Y0285632D01*
X0147011Y0286825D01*
X0147011Y0287126D01*
X0138137Y0287126D01*
X0138137Y0287726D01*
X0137537Y0287726D01*
X0137537Y0296600D01*
X0137236Y0296600D01*
X0136043Y0296443D01*
X0134882Y0296132D01*
X0133771Y0295672D01*
X0132729Y0295070D01*
X0131775Y0294338D01*
X0130925Y0293488D01*
X0130193Y0292534D01*
X0129591Y0291492D01*
X0129131Y0290381D01*
X0128820Y0289220D01*
X0128663Y0288027D01*
X0128663Y0287726D01*
X0137537Y0287726D01*
X0137537Y0287126D01*
X0128663Y0287126D01*
X0128663Y0286825D01*
X0128820Y0285632D01*
X0129131Y0284471D01*
X0129591Y0283360D01*
X0130193Y0282318D01*
X0130925Y0281364D01*
X0131775Y0280514D01*
X0132729Y0279782D01*
X0133771Y0279180D01*
X0134882Y0278720D01*
X0136043Y0278409D01*
X0137236Y0278252D01*
X0137537Y0278252D01*
X0137537Y0287126D01*
X0138137Y0287126D01*
X0138137Y0278252D01*
X0138438Y0278252D01*
X0139631Y0278409D01*
X0140792Y0278720D01*
X0141903Y0279180D01*
X0142945Y0279782D01*
X0143899Y0280514D01*
X0144749Y0281364D01*
X0144370Y0280985D02*
X0175304Y0280985D01*
X0175942Y0280386D02*
X0143732Y0280386D01*
X0142952Y0279788D02*
X0176722Y0279788D01*
X0177756Y0279189D02*
X0141918Y0279189D01*
X0140308Y0278591D02*
X0179366Y0278591D01*
X0181537Y0278591D02*
X0182137Y0278591D01*
X0182137Y0279189D02*
X0181537Y0279189D01*
X0181537Y0279788D02*
X0182137Y0279788D01*
X0182137Y0280386D02*
X0181537Y0280386D01*
X0181537Y0280985D02*
X0182137Y0280985D01*
X0182137Y0281583D02*
X0181537Y0281583D01*
X0181537Y0282182D02*
X0182137Y0282182D01*
X0182137Y0282780D02*
X0181537Y0282780D01*
X0181537Y0283379D02*
X0182137Y0283379D01*
X0182137Y0283977D02*
X0181537Y0283977D01*
X0181537Y0284576D02*
X0182137Y0284576D01*
X0182137Y0285174D02*
X0181537Y0285174D01*
X0181537Y0285773D02*
X0182137Y0285773D01*
X0182137Y0286371D02*
X0181537Y0286371D01*
X0181537Y0288167D02*
X0182137Y0288167D01*
X0182137Y0288765D02*
X0181537Y0288765D01*
X0181537Y0289364D02*
X0182137Y0289364D01*
X0182137Y0289962D02*
X0181537Y0289962D01*
X0181537Y0290561D02*
X0182137Y0290561D01*
X0182137Y0291159D02*
X0181537Y0291159D01*
X0181537Y0291758D02*
X0182137Y0291758D01*
X0182137Y0292356D02*
X0181537Y0292356D01*
X0181537Y0292955D02*
X0182137Y0292955D01*
X0182137Y0293553D02*
X0181537Y0293553D01*
X0181537Y0294152D02*
X0182137Y0294152D01*
X0182137Y0294750D02*
X0181537Y0294750D01*
X0181537Y0295349D02*
X0182137Y0295349D01*
X0182137Y0295947D02*
X0181537Y0295947D01*
X0181537Y0296546D02*
X0182137Y0296546D01*
X0182849Y0296546D02*
X0323861Y0296546D01*
X0323861Y0297144D02*
X0164332Y0297144D01*
X0163903Y0296897D02*
X0164945Y0297498D01*
X0165899Y0298230D01*
X0166749Y0299081D01*
X0167481Y0300035D01*
X0168083Y0301076D01*
X0168543Y0302187D01*
X0168854Y0303349D01*
X0169011Y0304541D01*
X0169011Y0304843D01*
X0160137Y0304843D01*
X0160137Y0305442D01*
X0169011Y0305442D01*
X0169011Y0305744D01*
X0168854Y0306936D01*
X0168543Y0308098D01*
X0168083Y0309209D01*
X0167481Y0310250D01*
X0166749Y0311204D01*
X0165899Y0312055D01*
X0164945Y0312787D01*
X0163903Y0313388D01*
X0162792Y0313848D01*
X0161631Y0314160D01*
X0160438Y0314317D01*
X0160137Y0314317D01*
X0160137Y0305443D01*
X0159537Y0305443D01*
X0159537Y0314317D01*
X0159236Y0314317D01*
X0158043Y0314160D01*
X0156882Y0313848D01*
X0155771Y0313388D01*
X0154729Y0312787D01*
X0153775Y0312055D01*
X0152925Y0311204D01*
X0152193Y0310250D01*
X0151591Y0309209D01*
X0151131Y0308098D01*
X0150820Y0306936D01*
X0150663Y0305744D01*
X0150663Y0305442D01*
X0159537Y0305442D01*
X0159537Y0304843D01*
X0150663Y0304843D01*
X0150663Y0304541D01*
X0150820Y0303349D01*
X0151131Y0302187D01*
X0151591Y0301076D01*
X0152193Y0300035D01*
X0152925Y0299081D01*
X0153775Y0298230D01*
X0154729Y0297498D01*
X0155771Y0296897D01*
X0156882Y0296437D01*
X0158043Y0296125D01*
X0159236Y0295969D01*
X0159537Y0295969D01*
X0159537Y0304842D01*
X0160137Y0304842D01*
X0160137Y0295969D01*
X0160438Y0295969D01*
X0161631Y0296125D01*
X0162792Y0296437D01*
X0163903Y0296897D01*
X0163056Y0296546D02*
X0180825Y0296546D01*
X0178437Y0295947D02*
X0141237Y0295947D01*
X0140792Y0296132D02*
X0139631Y0296443D01*
X0138438Y0296600D01*
X0138137Y0296600D01*
X0138137Y0287726D01*
X0147011Y0287726D01*
X0147011Y0288027D01*
X0146854Y0289220D01*
X0146543Y0290381D01*
X0146083Y0291492D01*
X0145481Y0292534D01*
X0144749Y0293488D01*
X0143899Y0294338D01*
X0142945Y0295070D01*
X0141903Y0295672D01*
X0140792Y0296132D01*
X0142462Y0295349D02*
X0177212Y0295349D01*
X0176312Y0294750D02*
X0143362Y0294750D01*
X0144085Y0294152D02*
X0175589Y0294152D01*
X0174990Y0293553D02*
X0144684Y0293553D01*
X0145158Y0292955D02*
X0157716Y0292955D01*
X0156396Y0292356D02*
X0145584Y0292356D01*
X0145929Y0291758D02*
X0155797Y0291758D01*
X0155199Y0291159D02*
X0146220Y0291159D01*
X0146468Y0290561D02*
X0154728Y0290561D01*
X0154480Y0289962D02*
X0146655Y0289962D01*
X0146815Y0289364D02*
X0154232Y0289364D01*
X0153984Y0288765D02*
X0146914Y0288765D01*
X0146993Y0288167D02*
X0153917Y0288167D01*
X0153917Y0287568D02*
X0138137Y0287568D01*
X0138137Y0286970D02*
X0137537Y0286970D01*
X0137537Y0287568D02*
X0112911Y0287568D01*
X0112911Y0286970D02*
X0128663Y0286970D01*
X0128723Y0286371D02*
X0112911Y0286371D01*
X0112911Y0285773D02*
X0128801Y0285773D01*
X0128943Y0285174D02*
X0112701Y0285174D01*
X0112911Y0285681D02*
X0111575Y0282456D01*
X0109107Y0279988D01*
X0105882Y0278652D01*
X0102392Y0278652D01*
X0099167Y0279988D01*
X0096699Y0282456D01*
X0095363Y0285681D01*
X0095363Y0289171D01*
X0096699Y0292396D01*
X0099167Y0294864D01*
X0102392Y0296200D01*
X0105882Y0296200D01*
X0109107Y0294864D01*
X0111575Y0292396D01*
X0112911Y0289171D01*
X0112911Y0285681D01*
X0112453Y0284576D02*
X0129103Y0284576D01*
X0129336Y0283977D02*
X0112205Y0283977D01*
X0111957Y0283379D02*
X0129584Y0283379D01*
X0129926Y0282780D02*
X0111710Y0282780D01*
X0111301Y0282182D02*
X0130298Y0282182D01*
X0130757Y0281583D02*
X0110702Y0281583D01*
X0110104Y0280985D02*
X0131304Y0280985D01*
X0131942Y0280386D02*
X0109505Y0280386D01*
X0108624Y0279788D02*
X0132722Y0279788D01*
X0133756Y0279189D02*
X0107179Y0279189D01*
X0101095Y0279189D02*
X0063179Y0279189D01*
X0061882Y0278652D02*
X0058392Y0278652D01*
X0055167Y0279988D01*
X0052699Y0282456D01*
X0051363Y0285681D01*
X0051363Y0289171D01*
X0052699Y0292396D01*
X0055167Y0294864D01*
X0058392Y0296200D01*
X0061882Y0296200D01*
X0065107Y0294864D01*
X0067575Y0292396D01*
X0068911Y0289171D01*
X0068911Y0285681D01*
X0067575Y0282456D01*
X0065107Y0279988D01*
X0061882Y0278652D01*
X0064624Y0279788D02*
X0099650Y0279788D01*
X0098769Y0280386D02*
X0065505Y0280386D01*
X0066104Y0280985D02*
X0098170Y0280985D01*
X0097572Y0281583D02*
X0083500Y0281583D01*
X0083315Y0281506D02*
X0085490Y0282408D01*
X0087155Y0284073D01*
X0088057Y0286248D01*
X0088057Y0288603D01*
X0087155Y0290779D01*
X0085490Y0292444D01*
X0083315Y0293346D01*
X0080959Y0293346D01*
X0078784Y0292444D01*
X0077119Y0290779D01*
X0076217Y0288603D01*
X0076217Y0286248D01*
X0077119Y0284073D01*
X0078784Y0282408D01*
X0080959Y0281506D01*
X0083315Y0281506D01*
X0084945Y0282182D02*
X0096973Y0282182D01*
X0096564Y0282780D02*
X0085863Y0282780D01*
X0086461Y0283379D02*
X0096317Y0283379D01*
X0096069Y0283977D02*
X0087060Y0283977D01*
X0087364Y0284576D02*
X0095821Y0284576D01*
X0095573Y0285174D02*
X0087612Y0285174D01*
X0087860Y0285773D02*
X0095363Y0285773D01*
X0095363Y0286371D02*
X0088057Y0286371D01*
X0088057Y0286970D02*
X0095363Y0286970D01*
X0095363Y0287568D02*
X0088057Y0287568D01*
X0088057Y0288167D02*
X0095363Y0288167D01*
X0095363Y0288765D02*
X0087990Y0288765D01*
X0087742Y0289364D02*
X0095443Y0289364D01*
X0095691Y0289962D02*
X0087494Y0289962D01*
X0087246Y0290561D02*
X0095939Y0290561D01*
X0096186Y0291159D02*
X0086775Y0291159D01*
X0086177Y0291758D02*
X0096434Y0291758D01*
X0096682Y0292356D02*
X0085578Y0292356D01*
X0084258Y0292955D02*
X0097258Y0292955D01*
X0097856Y0293553D02*
X0066418Y0293553D01*
X0067016Y0292955D02*
X0080016Y0292955D01*
X0078696Y0292356D02*
X0067592Y0292356D01*
X0067840Y0291758D02*
X0078097Y0291758D01*
X0077499Y0291159D02*
X0068088Y0291159D01*
X0068335Y0290561D02*
X0077028Y0290561D01*
X0076780Y0289962D02*
X0068583Y0289962D01*
X0068831Y0289364D02*
X0076532Y0289364D01*
X0076284Y0288765D02*
X0068911Y0288765D01*
X0068911Y0288167D02*
X0076217Y0288167D01*
X0076217Y0287568D02*
X0068911Y0287568D01*
X0068911Y0286970D02*
X0076217Y0286970D01*
X0076217Y0286371D02*
X0068911Y0286371D01*
X0068911Y0285773D02*
X0076414Y0285773D01*
X0076662Y0285174D02*
X0068701Y0285174D01*
X0068453Y0284576D02*
X0076910Y0284576D01*
X0077214Y0283977D02*
X0068205Y0283977D01*
X0067957Y0283379D02*
X0077813Y0283379D01*
X0078411Y0282780D02*
X0067710Y0282780D01*
X0067301Y0282182D02*
X0079329Y0282182D01*
X0080774Y0281583D02*
X0066702Y0281583D01*
X0057095Y0279189D02*
X0011500Y0279189D01*
X0011500Y0278591D02*
X0135366Y0278591D01*
X0137537Y0278591D02*
X0138137Y0278591D01*
X0138137Y0279189D02*
X0137537Y0279189D01*
X0137537Y0279788D02*
X0138137Y0279788D01*
X0138137Y0280386D02*
X0137537Y0280386D01*
X0137537Y0280985D02*
X0138137Y0280985D01*
X0138137Y0281583D02*
X0137537Y0281583D01*
X0137537Y0282182D02*
X0138137Y0282182D01*
X0138137Y0282780D02*
X0137537Y0282780D01*
X0137537Y0283379D02*
X0138137Y0283379D01*
X0138137Y0283977D02*
X0137537Y0283977D01*
X0137537Y0284576D02*
X0138137Y0284576D01*
X0138137Y0285174D02*
X0137537Y0285174D01*
X0137537Y0285773D02*
X0138137Y0285773D01*
X0138137Y0286371D02*
X0137537Y0286371D01*
X0137537Y0288167D02*
X0138137Y0288167D01*
X0138137Y0288765D02*
X0137537Y0288765D01*
X0137537Y0289364D02*
X0138137Y0289364D01*
X0138137Y0289962D02*
X0137537Y0289962D01*
X0137537Y0290561D02*
X0138137Y0290561D01*
X0138137Y0291159D02*
X0137537Y0291159D01*
X0137537Y0291758D02*
X0138137Y0291758D01*
X0138137Y0292356D02*
X0137537Y0292356D01*
X0137537Y0292955D02*
X0138137Y0292955D01*
X0138137Y0293553D02*
X0137537Y0293553D01*
X0137537Y0294152D02*
X0138137Y0294152D01*
X0138137Y0294750D02*
X0137537Y0294750D01*
X0137537Y0295349D02*
X0138137Y0295349D01*
X0138137Y0295947D02*
X0137537Y0295947D01*
X0137537Y0296546D02*
X0138137Y0296546D01*
X0138849Y0296546D02*
X0156618Y0296546D01*
X0155342Y0297144D02*
X0085755Y0297144D01*
X0087107Y0297704D02*
X0083882Y0296369D01*
X0080392Y0296369D01*
X0077167Y0297704D01*
X0074699Y0300172D01*
X0073363Y0303397D01*
X0073363Y0306888D01*
X0074699Y0310113D01*
X0077167Y0312581D01*
X0080392Y0313917D01*
X0083882Y0313917D01*
X0087107Y0312581D01*
X0089575Y0310113D01*
X0090911Y0306888D01*
X0090911Y0303397D01*
X0089575Y0300172D01*
X0087107Y0297704D01*
X0087146Y0297743D02*
X0154410Y0297743D01*
X0153664Y0298341D02*
X0087744Y0298341D01*
X0088343Y0298940D02*
X0153066Y0298940D01*
X0152574Y0299538D02*
X0088941Y0299538D01*
X0089540Y0300137D02*
X0152134Y0300137D01*
X0151788Y0300735D02*
X0089808Y0300735D01*
X0090056Y0301334D02*
X0151485Y0301334D01*
X0151237Y0301932D02*
X0090304Y0301932D01*
X0090552Y0302531D02*
X0151039Y0302531D01*
X0150879Y0303130D02*
X0090800Y0303130D01*
X0090911Y0303728D02*
X0150770Y0303728D01*
X0150691Y0304327D02*
X0090911Y0304327D01*
X0090911Y0304925D02*
X0159537Y0304925D01*
X0159537Y0304327D02*
X0160137Y0304327D01*
X0160137Y0304925D02*
X0303411Y0304925D01*
X0302970Y0305365D02*
X0305108Y0303228D01*
X0307901Y0302071D01*
X0310924Y0302071D01*
X0313717Y0303228D01*
X0315855Y0305365D01*
X0317012Y0308158D01*
X0317012Y0311182D01*
X0315855Y0313975D01*
X0313717Y0316112D01*
X0310924Y0317269D01*
X0307901Y0317269D01*
X0305108Y0316112D01*
X0302970Y0313975D01*
X0301813Y0311182D01*
X0301813Y0308158D01*
X0302970Y0305365D01*
X0302905Y0305524D02*
X0169011Y0305524D01*
X0168961Y0306122D02*
X0302657Y0306122D01*
X0302409Y0306721D02*
X0168882Y0306721D01*
X0168751Y0307319D02*
X0302161Y0307319D01*
X0301913Y0307918D02*
X0168591Y0307918D01*
X0168370Y0308516D02*
X0301813Y0308516D01*
X0301813Y0309115D02*
X0168122Y0309115D01*
X0167791Y0309713D02*
X0301813Y0309713D01*
X0301813Y0310312D02*
X0167434Y0310312D01*
X0166975Y0310910D02*
X0301813Y0310910D01*
X0301949Y0311509D02*
X0166445Y0311509D01*
X0165830Y0312107D02*
X0302197Y0312107D01*
X0302445Y0312706D02*
X0165050Y0312706D01*
X0164049Y0313304D02*
X0302693Y0313304D01*
X0302941Y0313903D02*
X0162589Y0313903D01*
X0160137Y0313903D02*
X0159537Y0313903D01*
X0159537Y0313304D02*
X0160137Y0313304D01*
X0160137Y0312706D02*
X0159537Y0312706D01*
X0159537Y0312107D02*
X0160137Y0312107D01*
X0160137Y0311509D02*
X0159537Y0311509D01*
X0159537Y0310910D02*
X0160137Y0310910D01*
X0160137Y0310312D02*
X0159537Y0310312D01*
X0159537Y0309713D02*
X0160137Y0309713D01*
X0160137Y0309115D02*
X0159537Y0309115D01*
X0159537Y0308516D02*
X0160137Y0308516D01*
X0160137Y0307918D02*
X0159537Y0307918D01*
X0159537Y0307319D02*
X0160137Y0307319D01*
X0160137Y0306721D02*
X0159537Y0306721D01*
X0159537Y0306122D02*
X0160137Y0306122D01*
X0160137Y0305524D02*
X0159537Y0305524D01*
X0159537Y0303728D02*
X0160137Y0303728D01*
X0160137Y0303130D02*
X0159537Y0303130D01*
X0159537Y0302531D02*
X0160137Y0302531D01*
X0160137Y0301932D02*
X0159537Y0301932D01*
X0159537Y0301334D02*
X0160137Y0301334D01*
X0160137Y0300735D02*
X0159537Y0300735D01*
X0159537Y0300137D02*
X0160137Y0300137D01*
X0160137Y0299538D02*
X0159537Y0299538D01*
X0159537Y0298940D02*
X0160137Y0298940D01*
X0160137Y0298341D02*
X0159537Y0298341D01*
X0159537Y0297743D02*
X0160137Y0297743D01*
X0160137Y0297144D02*
X0159537Y0297144D01*
X0159537Y0296546D02*
X0160137Y0296546D01*
X0161958Y0292955D02*
X0174516Y0292955D01*
X0174090Y0292356D02*
X0163278Y0292356D01*
X0163877Y0291758D02*
X0173745Y0291758D01*
X0173454Y0291159D02*
X0164475Y0291159D01*
X0164946Y0290561D02*
X0173206Y0290561D01*
X0173019Y0289962D02*
X0165194Y0289962D01*
X0165442Y0289364D02*
X0172859Y0289364D01*
X0172760Y0288765D02*
X0165690Y0288765D01*
X0165757Y0288167D02*
X0172681Y0288167D01*
X0165264Y0297743D02*
X0323861Y0297743D01*
X0323861Y0298341D02*
X0166010Y0298341D01*
X0166608Y0298940D02*
X0323861Y0298940D01*
X0323861Y0299538D02*
X0167100Y0299538D01*
X0167540Y0300137D02*
X0323861Y0300137D01*
X0323861Y0300735D02*
X0167886Y0300735D01*
X0168189Y0301334D02*
X0323861Y0301334D01*
X0323861Y0301932D02*
X0168437Y0301932D01*
X0168635Y0302531D02*
X0306790Y0302531D01*
X0305345Y0303130D02*
X0168795Y0303130D01*
X0168904Y0303728D02*
X0304608Y0303728D01*
X0304009Y0304327D02*
X0168983Y0304327D01*
X0157085Y0313903D02*
X0083916Y0313903D01*
X0085361Y0313304D02*
X0155625Y0313304D01*
X0154624Y0312706D02*
X0086805Y0312706D01*
X0087581Y0312107D02*
X0153844Y0312107D01*
X0153229Y0311509D02*
X0088179Y0311509D01*
X0088778Y0310910D02*
X0152699Y0310910D01*
X0152240Y0310312D02*
X0089376Y0310312D01*
X0089741Y0309713D02*
X0151883Y0309713D01*
X0151552Y0309115D02*
X0089989Y0309115D01*
X0090237Y0308516D02*
X0151305Y0308516D01*
X0151083Y0307918D02*
X0090484Y0307918D01*
X0090732Y0307319D02*
X0150923Y0307319D01*
X0150792Y0306721D02*
X0090911Y0306721D01*
X0090911Y0306122D02*
X0150713Y0306122D01*
X0150663Y0305524D02*
X0090911Y0305524D01*
X0084311Y0296546D02*
X0136825Y0296546D01*
X0134437Y0295947D02*
X0106492Y0295947D01*
X0107937Y0295349D02*
X0133212Y0295349D01*
X0132312Y0294750D02*
X0109221Y0294750D01*
X0109819Y0294152D02*
X0131589Y0294152D01*
X0130990Y0293553D02*
X0110418Y0293553D01*
X0111016Y0292955D02*
X0130516Y0292955D01*
X0130090Y0292356D02*
X0111592Y0292356D01*
X0111840Y0291758D02*
X0129745Y0291758D01*
X0129454Y0291159D02*
X0112088Y0291159D01*
X0112335Y0290561D02*
X0129206Y0290561D01*
X0129019Y0289962D02*
X0112583Y0289962D01*
X0112831Y0289364D02*
X0128859Y0289364D01*
X0128760Y0288765D02*
X0112911Y0288765D01*
X0112911Y0288167D02*
X0128681Y0288167D01*
X0145376Y0282182D02*
X0157029Y0282182D01*
X0156111Y0282780D02*
X0145748Y0282780D01*
X0146090Y0283379D02*
X0155513Y0283379D01*
X0154914Y0283977D02*
X0146338Y0283977D01*
X0146571Y0284576D02*
X0154610Y0284576D01*
X0154362Y0285174D02*
X0146731Y0285174D01*
X0146873Y0285773D02*
X0154114Y0285773D01*
X0153917Y0286371D02*
X0146951Y0286371D01*
X0147011Y0286970D02*
X0153917Y0286970D01*
X0185237Y0295947D02*
X0323861Y0295947D01*
X0323861Y0295349D02*
X0250354Y0295349D01*
X0251265Y0294750D02*
X0323861Y0294750D01*
X0323861Y0294152D02*
X0251863Y0294152D01*
X0252223Y0293553D02*
X0323861Y0293553D01*
X0323861Y0292955D02*
X0252471Y0292955D01*
X0252685Y0292356D02*
X0323861Y0292356D01*
X0323861Y0291758D02*
X0252685Y0291758D01*
X0252685Y0291159D02*
X0323861Y0291159D01*
X0323861Y0290561D02*
X0252591Y0290561D01*
X0252344Y0289962D02*
X0323861Y0289962D01*
X0323861Y0289364D02*
X0252096Y0289364D01*
X0251557Y0288765D02*
X0323861Y0288765D01*
X0323861Y0288167D02*
X0250958Y0288167D01*
X0249614Y0287568D02*
X0323861Y0287568D01*
X0323861Y0302531D02*
X0312035Y0302531D01*
X0313480Y0303130D02*
X0323861Y0303130D01*
X0323861Y0303728D02*
X0314217Y0303728D01*
X0314816Y0304327D02*
X0323861Y0304327D01*
X0323861Y0304925D02*
X0315414Y0304925D01*
X0315920Y0305524D02*
X0323861Y0305524D01*
X0323861Y0306122D02*
X0316168Y0306122D01*
X0316416Y0306721D02*
X0323861Y0306721D01*
X0323861Y0307319D02*
X0316664Y0307319D01*
X0316912Y0307918D02*
X0323861Y0307918D01*
X0323861Y0308516D02*
X0317012Y0308516D01*
X0317012Y0309115D02*
X0323861Y0309115D01*
X0323861Y0309713D02*
X0317012Y0309713D01*
X0317012Y0310312D02*
X0323861Y0310312D01*
X0323861Y0310910D02*
X0317012Y0310910D01*
X0316876Y0311509D02*
X0323861Y0311509D01*
X0323861Y0312107D02*
X0316628Y0312107D01*
X0316381Y0312706D02*
X0323861Y0312706D01*
X0323625Y0313304D02*
X0316133Y0313304D01*
X0315885Y0313903D02*
X0323027Y0313903D01*
X0322428Y0314501D02*
X0315328Y0314501D01*
X0314730Y0315100D02*
X0321829Y0315100D01*
X0321231Y0315698D02*
X0314131Y0315698D01*
X0313272Y0316297D02*
X0320632Y0316297D01*
X0320034Y0316895D02*
X0311827Y0316895D01*
X0306998Y0316895D02*
X0028363Y0316895D01*
X0027460Y0317269D02*
X0024436Y0317269D01*
X0021643Y0316112D01*
X0019506Y0313975D01*
X0018349Y0311182D01*
X0018349Y0308158D01*
X0019506Y0305365D01*
X0021643Y0303228D01*
X0024436Y0302071D01*
X0027460Y0302071D01*
X0030253Y0303228D01*
X0032390Y0305365D01*
X0033547Y0308158D01*
X0033547Y0311182D01*
X0032390Y0313975D01*
X0030253Y0316112D01*
X0027460Y0317269D01*
X0029807Y0316297D02*
X0305553Y0316297D01*
X0304694Y0315698D02*
X0030667Y0315698D01*
X0031265Y0315100D02*
X0304095Y0315100D01*
X0303497Y0314501D02*
X0031864Y0314501D01*
X0032420Y0313903D02*
X0080358Y0313903D01*
X0078913Y0313304D02*
X0032668Y0313304D01*
X0032916Y0312706D02*
X0077469Y0312706D01*
X0076693Y0312107D02*
X0033164Y0312107D01*
X0033412Y0311509D02*
X0076095Y0311509D01*
X0075496Y0310910D02*
X0033547Y0310910D01*
X0033547Y0310312D02*
X0074898Y0310312D01*
X0074533Y0309713D02*
X0033547Y0309713D01*
X0033547Y0309115D02*
X0074285Y0309115D01*
X0074037Y0308516D02*
X0033547Y0308516D01*
X0033447Y0307918D02*
X0073790Y0307918D01*
X0073542Y0307319D02*
X0033200Y0307319D01*
X0032952Y0306721D02*
X0073363Y0306721D01*
X0073363Y0306122D02*
X0032704Y0306122D01*
X0032456Y0305524D02*
X0073363Y0305524D01*
X0073363Y0304925D02*
X0031950Y0304925D01*
X0031351Y0304327D02*
X0073363Y0304327D01*
X0073363Y0303728D02*
X0030753Y0303728D01*
X0030015Y0303130D02*
X0073474Y0303130D01*
X0073722Y0302531D02*
X0028570Y0302531D01*
X0023326Y0302531D02*
X0011500Y0302531D01*
X0011500Y0303130D02*
X0021881Y0303130D01*
X0021143Y0303728D02*
X0011500Y0303728D01*
X0011500Y0304327D02*
X0020545Y0304327D01*
X0019946Y0304925D02*
X0011500Y0304925D01*
X0011500Y0305524D02*
X0019440Y0305524D01*
X0019192Y0306122D02*
X0011500Y0306122D01*
X0011500Y0306721D02*
X0018944Y0306721D01*
X0018697Y0307319D02*
X0011500Y0307319D01*
X0011500Y0307918D02*
X0018449Y0307918D01*
X0018349Y0308516D02*
X0011500Y0308516D01*
X0011500Y0309115D02*
X0018349Y0309115D01*
X0018349Y0309713D02*
X0011500Y0309713D01*
X0011500Y0310312D02*
X0018349Y0310312D01*
X0018349Y0310910D02*
X0011500Y0310910D01*
X0011500Y0311509D02*
X0018484Y0311509D01*
X0018732Y0312107D02*
X0011500Y0312107D01*
X0011500Y0312706D02*
X0018980Y0312706D01*
X0019228Y0313304D02*
X0011736Y0313304D01*
X0012334Y0313903D02*
X0019476Y0313903D01*
X0020032Y0314501D02*
X0012933Y0314501D01*
X0013531Y0315100D02*
X0020631Y0315100D01*
X0021229Y0315698D02*
X0014130Y0315698D01*
X0014728Y0316297D02*
X0022089Y0316297D01*
X0023534Y0316895D02*
X0015327Y0316895D01*
X0015925Y0317494D02*
X0319435Y0317494D01*
X0318837Y0318092D02*
X0016524Y0318092D01*
X0017122Y0318691D02*
X0318238Y0318691D01*
X0317640Y0319289D02*
X0017721Y0319289D01*
X0018319Y0319888D02*
X0317041Y0319888D01*
X0316443Y0320486D02*
X0018918Y0320486D01*
X0019516Y0321085D02*
X0315844Y0321085D01*
X0315246Y0321683D02*
X0020115Y0321683D01*
X0020713Y0322282D02*
X0314647Y0322282D01*
X0314049Y0322880D02*
X0021312Y0322880D01*
X0021910Y0323479D02*
X0313450Y0323479D01*
X0312852Y0324077D02*
X0022509Y0324077D01*
X0011500Y0301932D02*
X0073970Y0301932D01*
X0074218Y0301334D02*
X0011500Y0301334D01*
X0011500Y0300735D02*
X0074466Y0300735D01*
X0074734Y0300137D02*
X0011500Y0300137D01*
X0011500Y0299538D02*
X0075333Y0299538D01*
X0075931Y0298940D02*
X0011500Y0298940D01*
X0011500Y0298341D02*
X0076530Y0298341D01*
X0077128Y0297743D02*
X0011500Y0297743D01*
X0011500Y0297144D02*
X0078519Y0297144D01*
X0079963Y0296546D02*
X0011500Y0296546D01*
X0011500Y0295947D02*
X0057782Y0295947D01*
X0056337Y0295349D02*
X0011500Y0295349D01*
X0011500Y0294750D02*
X0055053Y0294750D01*
X0054455Y0294152D02*
X0011500Y0294152D01*
X0011500Y0293553D02*
X0053856Y0293553D01*
X0053258Y0292955D02*
X0011500Y0292955D01*
X0011500Y0292356D02*
X0052682Y0292356D01*
X0052434Y0291758D02*
X0011500Y0291758D01*
X0011500Y0291159D02*
X0052186Y0291159D01*
X0051939Y0290561D02*
X0011500Y0290561D01*
X0011500Y0289962D02*
X0051691Y0289962D01*
X0051443Y0289364D02*
X0011500Y0289364D01*
X0011500Y0288765D02*
X0051363Y0288765D01*
X0051363Y0288167D02*
X0011500Y0288167D01*
X0011500Y0287568D02*
X0051363Y0287568D01*
X0051363Y0286970D02*
X0011500Y0286970D01*
X0011500Y0286371D02*
X0051363Y0286371D01*
X0051363Y0285773D02*
X0011500Y0285773D01*
X0011500Y0285174D02*
X0051573Y0285174D01*
X0051821Y0284576D02*
X0011500Y0284576D01*
X0011500Y0283977D02*
X0052069Y0283977D01*
X0052317Y0283379D02*
X0011500Y0283379D01*
X0011500Y0282780D02*
X0052564Y0282780D01*
X0052973Y0282182D02*
X0011500Y0282182D01*
X0011500Y0281583D02*
X0053572Y0281583D01*
X0054170Y0280985D02*
X0011500Y0280985D01*
X0011500Y0280386D02*
X0054769Y0280386D01*
X0055650Y0279788D02*
X0011500Y0279788D01*
X0011500Y0263029D02*
X0266988Y0263029D01*
X0266911Y0261832D02*
X0011500Y0261832D01*
X0011500Y0261234D02*
X0017961Y0261234D01*
X0017362Y0260635D02*
X0011500Y0260635D01*
X0011500Y0260037D02*
X0016764Y0260037D01*
X0016261Y0259438D02*
X0011500Y0259438D01*
X0011500Y0258840D02*
X0016261Y0258840D01*
X0016261Y0258241D02*
X0011500Y0258241D01*
X0011500Y0257643D02*
X0016261Y0257643D01*
X0016261Y0257044D02*
X0011500Y0257044D01*
X0011500Y0256446D02*
X0016261Y0256446D01*
X0016716Y0255847D02*
X0011500Y0255847D01*
X0011500Y0255249D02*
X0017315Y0255249D01*
X0017913Y0254650D02*
X0011500Y0254650D01*
X0011500Y0254052D02*
X0018512Y0254052D01*
X0018385Y0251658D02*
X0011500Y0251658D01*
X0011500Y0252256D02*
X0183757Y0252256D01*
X0183703Y0252127D02*
X0183703Y0249103D01*
X0184860Y0246310D01*
X0186998Y0244173D01*
X0189791Y0243016D01*
X0192814Y0243016D01*
X0195607Y0244173D01*
X0197745Y0246310D01*
X0198902Y0249103D01*
X0198902Y0252127D01*
X0197745Y0254920D01*
X0195607Y0257057D01*
X0192814Y0258214D01*
X0189791Y0258214D01*
X0186998Y0257057D01*
X0184860Y0254920D01*
X0183703Y0252127D01*
X0183703Y0251658D02*
X0031937Y0251658D01*
X0032535Y0251059D02*
X0183703Y0251059D01*
X0183703Y0250461D02*
X0033134Y0250461D01*
X0033732Y0249862D02*
X0183703Y0249862D01*
X0183703Y0249263D02*
X0034061Y0249263D01*
X0034061Y0248665D02*
X0183885Y0248665D01*
X0184133Y0248066D02*
X0034061Y0248066D01*
X0034061Y0247468D02*
X0184381Y0247468D01*
X0184628Y0246869D02*
X0034061Y0246869D01*
X0034029Y0246271D02*
X0184899Y0246271D01*
X0185498Y0245672D02*
X0033430Y0245672D01*
X0032832Y0245074D02*
X0186096Y0245074D01*
X0186695Y0244475D02*
X0032233Y0244475D01*
X0032111Y0241483D02*
X0291300Y0241483D01*
X0291300Y0242081D02*
X0011500Y0242081D01*
X0011500Y0241483D02*
X0018210Y0241483D01*
X0017611Y0240884D02*
X0011500Y0240884D01*
X0011500Y0240286D02*
X0017013Y0240286D01*
X0016414Y0239687D02*
X0011500Y0239687D01*
X0011500Y0239089D02*
X0016261Y0239089D01*
X0016261Y0238490D02*
X0011500Y0238490D01*
X0011500Y0237892D02*
X0016261Y0237892D01*
X0016261Y0237293D02*
X0011500Y0237293D01*
X0011500Y0236695D02*
X0016261Y0236695D01*
X0016467Y0236096D02*
X0011500Y0236096D01*
X0011500Y0235498D02*
X0017066Y0235498D01*
X0017664Y0234899D02*
X0011500Y0234899D01*
X0011500Y0234301D02*
X0018263Y0234301D01*
X0018035Y0231308D02*
X0011500Y0231308D01*
X0011500Y0230710D02*
X0017437Y0230710D01*
X0016838Y0230111D02*
X0011500Y0230111D01*
X0011500Y0229513D02*
X0016261Y0229513D01*
X0016261Y0228914D02*
X0011500Y0228914D01*
X0011500Y0228316D02*
X0016261Y0228316D01*
X0016261Y0227717D02*
X0011500Y0227717D01*
X0011500Y0227119D02*
X0016261Y0227119D01*
X0016261Y0226520D02*
X0011500Y0226520D01*
X0011500Y0225922D02*
X0016642Y0225922D01*
X0017240Y0225323D02*
X0011500Y0225323D01*
X0011500Y0224725D02*
X0017839Y0224725D01*
X0018437Y0224126D02*
X0011500Y0224126D01*
X0011500Y0223528D02*
X0291300Y0223528D01*
X0291300Y0224073D02*
X0291300Y0220842D01*
X0293585Y0218557D01*
X0296815Y0218557D01*
X0299100Y0220842D01*
X0299100Y0224073D01*
X0296815Y0226357D01*
X0293585Y0226357D01*
X0291300Y0224073D01*
X0291353Y0224126D02*
X0031884Y0224126D01*
X0032482Y0224725D02*
X0291952Y0224725D01*
X0292550Y0225323D02*
X0033081Y0225323D01*
X0033679Y0225922D02*
X0293149Y0225922D01*
X0293585Y0228557D02*
X0291300Y0230842D01*
X0291300Y0234073D01*
X0293585Y0236357D01*
X0296815Y0236357D01*
X0299100Y0234073D01*
X0299100Y0230842D01*
X0296815Y0228557D01*
X0293585Y0228557D01*
X0293228Y0228914D02*
X0034061Y0228914D01*
X0034061Y0228316D02*
X0303261Y0228316D01*
X0303419Y0228157D02*
X0300900Y0230676D01*
X0300900Y0232157D01*
X0304900Y0232157D01*
X0305500Y0232157D01*
X0305500Y0228157D01*
X0306981Y0228157D01*
X0309500Y0230676D01*
X0309500Y0232157D01*
X0305500Y0232157D01*
X0305500Y0232757D01*
X0309500Y0232757D01*
X0309500Y0234239D01*
X0306981Y0236757D01*
X0305500Y0236757D01*
X0305500Y0232758D01*
X0304900Y0232758D01*
X0304900Y0236757D01*
X0303419Y0236757D01*
X0300900Y0234239D01*
X0300900Y0232757D01*
X0304900Y0232757D01*
X0304900Y0232157D01*
X0304900Y0228157D01*
X0303419Y0228157D01*
X0302662Y0228914D02*
X0297172Y0228914D01*
X0297771Y0229513D02*
X0302064Y0229513D01*
X0301465Y0230111D02*
X0298369Y0230111D01*
X0298968Y0230710D02*
X0300900Y0230710D01*
X0300900Y0231308D02*
X0299100Y0231308D01*
X0299100Y0231907D02*
X0300900Y0231907D01*
X0300900Y0233104D02*
X0299100Y0233104D01*
X0299100Y0233702D02*
X0300900Y0233702D01*
X0300962Y0234301D02*
X0298872Y0234301D01*
X0298274Y0234899D02*
X0301561Y0234899D01*
X0302159Y0235498D02*
X0297675Y0235498D01*
X0297077Y0236096D02*
X0302758Y0236096D01*
X0303356Y0236695D02*
X0034061Y0236695D01*
X0034061Y0237293D02*
X0323861Y0237293D01*
X0323861Y0236695D02*
X0307044Y0236695D01*
X0307642Y0236096D02*
X0313323Y0236096D01*
X0313585Y0236357D02*
X0311300Y0234073D01*
X0311300Y0230842D01*
X0313585Y0228557D01*
X0316815Y0228557D01*
X0319100Y0230842D01*
X0319100Y0234073D01*
X0316815Y0236357D01*
X0313585Y0236357D01*
X0312725Y0235498D02*
X0308241Y0235498D01*
X0308839Y0234899D02*
X0312126Y0234899D01*
X0311528Y0234301D02*
X0309438Y0234301D01*
X0309500Y0233702D02*
X0311300Y0233702D01*
X0311300Y0233104D02*
X0309500Y0233104D01*
X0309500Y0231907D02*
X0311300Y0231907D01*
X0311300Y0232505D02*
X0305500Y0232505D01*
X0305500Y0231907D02*
X0304900Y0231907D01*
X0304900Y0232505D02*
X0299100Y0232505D01*
X0304900Y0233104D02*
X0305500Y0233104D01*
X0305500Y0233702D02*
X0304900Y0233702D01*
X0304900Y0234301D02*
X0305500Y0234301D01*
X0305500Y0234899D02*
X0304900Y0234899D01*
X0304900Y0235498D02*
X0305500Y0235498D01*
X0305500Y0236096D02*
X0304900Y0236096D01*
X0304900Y0236695D02*
X0305500Y0236695D01*
X0305500Y0238157D02*
X0306981Y0238157D01*
X0309500Y0240676D01*
X0309500Y0242157D01*
X0305500Y0242157D01*
X0305500Y0238157D01*
X0305500Y0238490D02*
X0304900Y0238490D01*
X0304900Y0238157D02*
X0304900Y0242157D01*
X0305500Y0242157D01*
X0305500Y0242757D01*
X0309500Y0242757D01*
X0309500Y0244239D01*
X0306981Y0246757D01*
X0305500Y0246757D01*
X0305500Y0242758D01*
X0304900Y0242758D01*
X0304900Y0246757D01*
X0303419Y0246757D01*
X0300900Y0244239D01*
X0300900Y0242757D01*
X0304900Y0242757D01*
X0304900Y0242157D01*
X0300900Y0242157D01*
X0300900Y0240676D01*
X0303419Y0238157D01*
X0304900Y0238157D01*
X0304900Y0239089D02*
X0305500Y0239089D01*
X0305500Y0239687D02*
X0304900Y0239687D01*
X0304900Y0240286D02*
X0305500Y0240286D01*
X0305500Y0240884D02*
X0304900Y0240884D01*
X0304900Y0241483D02*
X0305500Y0241483D01*
X0305500Y0242081D02*
X0304900Y0242081D01*
X0304900Y0242680D02*
X0299100Y0242680D01*
X0299100Y0243278D02*
X0300900Y0243278D01*
X0300900Y0243877D02*
X0299100Y0243877D01*
X0299100Y0244475D02*
X0301137Y0244475D01*
X0301735Y0245074D02*
X0299100Y0245074D01*
X0299100Y0245672D02*
X0302334Y0245672D01*
X0302932Y0246271D02*
X0298659Y0246271D01*
X0298573Y0246357D02*
X0291827Y0246357D01*
X0291300Y0245830D01*
X0291300Y0239085D01*
X0291827Y0238557D01*
X0298573Y0238557D01*
X0299100Y0239085D01*
X0299100Y0245830D01*
X0298573Y0246357D01*
X0299100Y0242081D02*
X0300900Y0242081D01*
X0300900Y0241483D02*
X0299100Y0241483D01*
X0299100Y0240884D02*
X0300900Y0240884D01*
X0301291Y0240286D02*
X0299100Y0240286D01*
X0299100Y0239687D02*
X0301889Y0239687D01*
X0302488Y0239089D02*
X0299100Y0239089D01*
X0303086Y0238490D02*
X0034061Y0238490D01*
X0034061Y0237892D02*
X0323861Y0237892D01*
X0323861Y0238490D02*
X0307314Y0238490D01*
X0307912Y0239089D02*
X0313053Y0239089D01*
X0313585Y0238557D02*
X0311300Y0240842D01*
X0311300Y0244073D01*
X0313585Y0246357D01*
X0316815Y0246357D01*
X0319100Y0244073D01*
X0319100Y0240842D01*
X0316815Y0238557D01*
X0313585Y0238557D01*
X0312455Y0239687D02*
X0308511Y0239687D01*
X0309109Y0240286D02*
X0311856Y0240286D01*
X0311300Y0240884D02*
X0309500Y0240884D01*
X0309500Y0241483D02*
X0311300Y0241483D01*
X0311300Y0242081D02*
X0309500Y0242081D01*
X0309500Y0243278D02*
X0311300Y0243278D01*
X0311300Y0242680D02*
X0305500Y0242680D01*
X0305500Y0243278D02*
X0304900Y0243278D01*
X0304900Y0243877D02*
X0305500Y0243877D01*
X0305500Y0244475D02*
X0304900Y0244475D01*
X0304900Y0245074D02*
X0305500Y0245074D01*
X0305500Y0245672D02*
X0304900Y0245672D01*
X0304900Y0246271D02*
X0305500Y0246271D01*
X0307468Y0246271D02*
X0313498Y0246271D01*
X0312900Y0245672D02*
X0308066Y0245672D01*
X0308665Y0245074D02*
X0312301Y0245074D01*
X0311703Y0244475D02*
X0309263Y0244475D01*
X0309500Y0243877D02*
X0311300Y0243877D01*
X0316902Y0246271D02*
X0323861Y0246271D01*
X0323861Y0246869D02*
X0197976Y0246869D01*
X0198224Y0247468D02*
X0323861Y0247468D01*
X0323861Y0248066D02*
X0198472Y0248066D01*
X0198720Y0248665D02*
X0323861Y0248665D01*
X0323861Y0249263D02*
X0198902Y0249263D01*
X0198902Y0249862D02*
X0323861Y0249862D01*
X0323861Y0250461D02*
X0198902Y0250461D01*
X0198902Y0251059D02*
X0323861Y0251059D01*
X0323861Y0251658D02*
X0198902Y0251658D01*
X0198848Y0252256D02*
X0323861Y0252256D01*
X0323861Y0252855D02*
X0198600Y0252855D01*
X0198352Y0253453D02*
X0323861Y0253453D01*
X0323861Y0254052D02*
X0198104Y0254052D01*
X0197856Y0254650D02*
X0323861Y0254650D01*
X0323861Y0255249D02*
X0197416Y0255249D01*
X0196817Y0255847D02*
X0323861Y0255847D01*
X0323861Y0256446D02*
X0196219Y0256446D01*
X0195620Y0257044D02*
X0271599Y0257044D01*
X0271711Y0257044D02*
X0272311Y0257044D01*
X0272423Y0257044D02*
X0323861Y0257044D01*
X0323861Y0257643D02*
X0274413Y0257643D01*
X0275318Y0258241D02*
X0323861Y0258241D01*
X0323861Y0258840D02*
X0275915Y0258840D01*
X0276350Y0259438D02*
X0323861Y0259438D01*
X0323861Y0260037D02*
X0276662Y0260037D01*
X0276884Y0260635D02*
X0323861Y0260635D01*
X0323861Y0261234D02*
X0277031Y0261234D01*
X0277111Y0261832D02*
X0323861Y0261832D01*
X0323861Y0262431D02*
X0272311Y0262431D01*
X0272311Y0263029D02*
X0271711Y0263029D01*
X0271711Y0262431D02*
X0011500Y0262431D01*
X0011500Y0253453D02*
X0184253Y0253453D01*
X0184501Y0254052D02*
X0031810Y0254052D01*
X0032408Y0254650D02*
X0184748Y0254650D01*
X0185189Y0255249D02*
X0033007Y0255249D01*
X0033605Y0255847D02*
X0185788Y0255847D01*
X0186386Y0256446D02*
X0034061Y0256446D01*
X0034061Y0257044D02*
X0186985Y0257044D01*
X0188411Y0257643D02*
X0034061Y0257643D01*
X0034061Y0258241D02*
X0268704Y0258241D01*
X0268107Y0258840D02*
X0034061Y0258840D01*
X0034061Y0259438D02*
X0267672Y0259438D01*
X0267360Y0260037D02*
X0033557Y0260037D01*
X0032959Y0260635D02*
X0267138Y0260635D01*
X0266991Y0261234D02*
X0032360Y0261234D01*
X0017786Y0251059D02*
X0011500Y0251059D01*
X0011500Y0250461D02*
X0017188Y0250461D01*
X0016589Y0249862D02*
X0011500Y0249862D01*
X0011500Y0249263D02*
X0016261Y0249263D01*
X0016261Y0248665D02*
X0011500Y0248665D01*
X0011500Y0248066D02*
X0016261Y0248066D01*
X0016261Y0247468D02*
X0011500Y0247468D01*
X0011500Y0246869D02*
X0016261Y0246869D01*
X0016292Y0246271D02*
X0011500Y0246271D01*
X0011500Y0245672D02*
X0016891Y0245672D01*
X0017489Y0245074D02*
X0011500Y0245074D01*
X0011500Y0244475D02*
X0018088Y0244475D01*
X0011500Y0243877D02*
X0187712Y0243877D01*
X0189157Y0243278D02*
X0011500Y0243278D01*
X0011500Y0242680D02*
X0291300Y0242680D01*
X0291300Y0243278D02*
X0193448Y0243278D01*
X0194893Y0243877D02*
X0291300Y0243877D01*
X0291300Y0244475D02*
X0195910Y0244475D01*
X0196508Y0245074D02*
X0291300Y0245074D01*
X0291300Y0245672D02*
X0197107Y0245672D01*
X0197705Y0246271D02*
X0291741Y0246271D01*
X0291300Y0240884D02*
X0032710Y0240884D01*
X0033308Y0240286D02*
X0291300Y0240286D01*
X0291300Y0239687D02*
X0033907Y0239687D01*
X0034061Y0239089D02*
X0291300Y0239089D01*
X0293323Y0236096D02*
X0033854Y0236096D01*
X0033256Y0235498D02*
X0292725Y0235498D01*
X0292126Y0234899D02*
X0032657Y0234899D01*
X0032059Y0234301D02*
X0291528Y0234301D01*
X0291300Y0233702D02*
X0011500Y0233702D01*
X0011500Y0233104D02*
X0291300Y0233104D01*
X0291300Y0232505D02*
X0011500Y0232505D01*
X0011500Y0231907D02*
X0291300Y0231907D01*
X0291300Y0231308D02*
X0032286Y0231308D01*
X0032884Y0230710D02*
X0291432Y0230710D01*
X0292031Y0230111D02*
X0033483Y0230111D01*
X0034061Y0229513D02*
X0292629Y0229513D01*
X0297251Y0225922D02*
X0302583Y0225922D01*
X0303181Y0226520D02*
X0034061Y0226520D01*
X0034061Y0227119D02*
X0323861Y0227119D01*
X0323861Y0227717D02*
X0034061Y0227717D01*
X0031862Y0221732D02*
X0291300Y0221732D01*
X0291300Y0222330D02*
X0011500Y0222330D01*
X0011500Y0221732D02*
X0018459Y0221732D01*
X0017861Y0221133D02*
X0011500Y0221133D01*
X0011500Y0220535D02*
X0017262Y0220535D01*
X0016664Y0219936D02*
X0011500Y0219936D01*
X0011500Y0219338D02*
X0016261Y0219338D01*
X0016261Y0218739D02*
X0011500Y0218739D01*
X0011500Y0218141D02*
X0016261Y0218141D01*
X0016261Y0217542D02*
X0011500Y0217542D01*
X0011500Y0216944D02*
X0016261Y0216944D01*
X0016261Y0216345D02*
X0011500Y0216345D01*
X0011500Y0215747D02*
X0016816Y0215747D01*
X0017415Y0215148D02*
X0011500Y0215148D01*
X0011500Y0214550D02*
X0018013Y0214550D01*
X0018284Y0211557D02*
X0011500Y0211557D01*
X0011500Y0210959D02*
X0017686Y0210959D01*
X0017087Y0210360D02*
X0011500Y0210360D01*
X0011500Y0209762D02*
X0016489Y0209762D01*
X0016261Y0209163D02*
X0011500Y0209163D01*
X0011500Y0208565D02*
X0016261Y0208565D01*
X0016261Y0207966D02*
X0011500Y0207966D01*
X0011500Y0207368D02*
X0016261Y0207368D01*
X0016261Y0206769D02*
X0011500Y0206769D01*
X0011500Y0206171D02*
X0016393Y0206171D01*
X0016991Y0205572D02*
X0011500Y0205572D01*
X0011500Y0204974D02*
X0017590Y0204974D01*
X0018188Y0204375D02*
X0011500Y0204375D01*
X0011500Y0203777D02*
X0291300Y0203777D01*
X0291300Y0204073D02*
X0291300Y0200842D01*
X0293585Y0198557D01*
X0296815Y0198557D01*
X0299100Y0200842D01*
X0299100Y0204073D01*
X0296815Y0206357D01*
X0293585Y0206357D01*
X0291300Y0204073D01*
X0291602Y0204375D02*
X0032133Y0204375D01*
X0032732Y0204974D02*
X0292201Y0204974D01*
X0292799Y0205572D02*
X0033330Y0205572D01*
X0033929Y0206171D02*
X0293398Y0206171D01*
X0293585Y0208557D02*
X0291300Y0210842D01*
X0291300Y0214073D01*
X0293585Y0216357D01*
X0296815Y0216357D01*
X0299100Y0214073D01*
X0299100Y0210842D01*
X0296815Y0208557D01*
X0293585Y0208557D01*
X0293577Y0208565D02*
X0034061Y0208565D01*
X0034061Y0209163D02*
X0292979Y0209163D01*
X0292380Y0209762D02*
X0033832Y0209762D01*
X0033234Y0210360D02*
X0291782Y0210360D01*
X0291300Y0210959D02*
X0032635Y0210959D01*
X0032037Y0211557D02*
X0291300Y0211557D01*
X0291300Y0212156D02*
X0011500Y0212156D01*
X0011500Y0212754D02*
X0291300Y0212754D01*
X0291300Y0213353D02*
X0011500Y0213353D01*
X0011500Y0213951D02*
X0291300Y0213951D01*
X0291777Y0214550D02*
X0032308Y0214550D01*
X0032906Y0215148D02*
X0292375Y0215148D01*
X0292974Y0215747D02*
X0033505Y0215747D01*
X0034061Y0216345D02*
X0293572Y0216345D01*
X0293403Y0218739D02*
X0034061Y0218739D01*
X0034061Y0218141D02*
X0323861Y0218141D01*
X0323861Y0218739D02*
X0316997Y0218739D01*
X0316815Y0218557D02*
X0319100Y0220842D01*
X0319100Y0224073D01*
X0316815Y0226357D01*
X0313585Y0226357D01*
X0311300Y0224073D01*
X0311300Y0220842D01*
X0313585Y0218557D01*
X0316815Y0218557D01*
X0317596Y0219338D02*
X0323861Y0219338D01*
X0323861Y0219936D02*
X0318194Y0219936D01*
X0318793Y0220535D02*
X0323861Y0220535D01*
X0323861Y0221133D02*
X0319100Y0221133D01*
X0319100Y0221732D02*
X0323861Y0221732D01*
X0323861Y0222330D02*
X0319100Y0222330D01*
X0319100Y0222929D02*
X0323861Y0222929D01*
X0323861Y0223528D02*
X0319100Y0223528D01*
X0319047Y0224126D02*
X0323861Y0224126D01*
X0323861Y0224725D02*
X0318448Y0224725D01*
X0317850Y0225323D02*
X0323861Y0225323D01*
X0323861Y0225922D02*
X0317251Y0225922D01*
X0317172Y0228914D02*
X0323861Y0228914D01*
X0323861Y0228316D02*
X0307139Y0228316D01*
X0307738Y0228914D02*
X0313228Y0228914D01*
X0312629Y0229513D02*
X0308336Y0229513D01*
X0308935Y0230111D02*
X0312031Y0230111D01*
X0311432Y0230710D02*
X0309500Y0230710D01*
X0309500Y0231308D02*
X0311300Y0231308D01*
X0313149Y0225922D02*
X0307817Y0225922D01*
X0307219Y0226520D02*
X0323861Y0226520D01*
X0323861Y0229513D02*
X0317771Y0229513D01*
X0318369Y0230111D02*
X0323861Y0230111D01*
X0323861Y0230710D02*
X0318968Y0230710D01*
X0319100Y0231308D02*
X0323861Y0231308D01*
X0323861Y0231907D02*
X0319100Y0231907D01*
X0319100Y0232505D02*
X0323861Y0232505D01*
X0323861Y0233104D02*
X0319100Y0233104D01*
X0319100Y0233702D02*
X0323861Y0233702D01*
X0323861Y0234301D02*
X0318872Y0234301D01*
X0318274Y0234899D02*
X0323861Y0234899D01*
X0323861Y0235498D02*
X0317675Y0235498D01*
X0317077Y0236096D02*
X0323861Y0236096D01*
X0323861Y0239089D02*
X0317347Y0239089D01*
X0317945Y0239687D02*
X0323861Y0239687D01*
X0323861Y0240286D02*
X0318544Y0240286D01*
X0319100Y0240884D02*
X0323861Y0240884D01*
X0323861Y0241483D02*
X0319100Y0241483D01*
X0319100Y0242081D02*
X0323861Y0242081D01*
X0323861Y0242680D02*
X0319100Y0242680D01*
X0319100Y0243278D02*
X0323861Y0243278D01*
X0323861Y0243877D02*
X0319100Y0243877D01*
X0318697Y0244475D02*
X0323861Y0244475D01*
X0323861Y0245074D02*
X0318099Y0245074D01*
X0317500Y0245672D02*
X0323861Y0245672D01*
X0323861Y0263029D02*
X0277034Y0263029D01*
X0276891Y0263628D02*
X0323861Y0263628D01*
X0323861Y0264226D02*
X0276673Y0264226D01*
X0276366Y0264825D02*
X0323861Y0264825D01*
X0323861Y0265423D02*
X0275931Y0265423D01*
X0275344Y0266022D02*
X0323861Y0266022D01*
X0323861Y0266620D02*
X0274457Y0266620D01*
X0272311Y0266620D02*
X0271711Y0266620D01*
X0271711Y0266022D02*
X0272311Y0266022D01*
X0272311Y0265423D02*
X0271711Y0265423D01*
X0271711Y0264825D02*
X0272311Y0264825D01*
X0272311Y0264226D02*
X0271711Y0264226D01*
X0271711Y0263628D02*
X0272311Y0263628D01*
X0272311Y0261832D02*
X0271711Y0261832D01*
X0271711Y0261234D02*
X0272311Y0261234D01*
X0272311Y0260635D02*
X0271711Y0260635D01*
X0271711Y0260037D02*
X0272311Y0260037D01*
X0272311Y0259438D02*
X0271711Y0259438D01*
X0271711Y0258840D02*
X0272311Y0258840D01*
X0272311Y0258241D02*
X0271711Y0258241D01*
X0271711Y0257643D02*
X0272311Y0257643D01*
X0269609Y0257643D02*
X0194194Y0257643D01*
X0184005Y0252855D02*
X0011500Y0252855D01*
X0011500Y0222929D02*
X0291300Y0222929D01*
X0291300Y0221133D02*
X0032461Y0221133D01*
X0033059Y0220535D02*
X0291607Y0220535D01*
X0292206Y0219936D02*
X0033658Y0219936D01*
X0034061Y0219338D02*
X0292804Y0219338D01*
X0296997Y0218739D02*
X0302837Y0218739D01*
X0303419Y0218157D02*
X0300900Y0220676D01*
X0300900Y0222157D01*
X0304900Y0222157D01*
X0305500Y0222157D01*
X0305500Y0218157D01*
X0306981Y0218157D01*
X0309500Y0220676D01*
X0309500Y0222157D01*
X0305500Y0222157D01*
X0305500Y0222757D01*
X0309500Y0222757D01*
X0309500Y0224239D01*
X0306981Y0226757D01*
X0305500Y0226757D01*
X0305500Y0222758D01*
X0304900Y0222758D01*
X0304900Y0226757D01*
X0303419Y0226757D01*
X0300900Y0224239D01*
X0300900Y0222757D01*
X0304900Y0222757D01*
X0304900Y0222157D01*
X0304900Y0218157D01*
X0303419Y0218157D01*
X0303419Y0216757D02*
X0300900Y0214239D01*
X0300900Y0212757D01*
X0304900Y0212757D01*
X0304900Y0212157D01*
X0305500Y0212157D01*
X0305500Y0208157D01*
X0306981Y0208157D01*
X0309500Y0210676D01*
X0309500Y0212157D01*
X0305500Y0212157D01*
X0305500Y0212757D01*
X0309500Y0212757D01*
X0309500Y0214239D01*
X0306981Y0216757D01*
X0305500Y0216757D01*
X0305500Y0212758D01*
X0304900Y0212758D01*
X0304900Y0216757D01*
X0303419Y0216757D01*
X0303007Y0216345D02*
X0296828Y0216345D01*
X0297426Y0215747D02*
X0302408Y0215747D01*
X0301810Y0215148D02*
X0298025Y0215148D01*
X0298623Y0214550D02*
X0301211Y0214550D01*
X0300900Y0213951D02*
X0299100Y0213951D01*
X0299100Y0213353D02*
X0300900Y0213353D01*
X0300900Y0212157D02*
X0300900Y0210676D01*
X0303419Y0208157D01*
X0304900Y0208157D01*
X0304900Y0212157D01*
X0300900Y0212157D01*
X0300900Y0212156D02*
X0299100Y0212156D01*
X0299100Y0212754D02*
X0304900Y0212754D01*
X0304900Y0212156D02*
X0305500Y0212156D01*
X0305500Y0212754D02*
X0311300Y0212754D01*
X0311300Y0212156D02*
X0309500Y0212156D01*
X0309500Y0211557D02*
X0311300Y0211557D01*
X0311300Y0210959D02*
X0309500Y0210959D01*
X0309184Y0210360D02*
X0311782Y0210360D01*
X0311300Y0210842D02*
X0313585Y0208557D01*
X0316815Y0208557D01*
X0319100Y0210842D01*
X0319100Y0214073D01*
X0316815Y0216357D01*
X0313585Y0216357D01*
X0311300Y0214073D01*
X0311300Y0210842D01*
X0312380Y0209762D02*
X0308585Y0209762D01*
X0307987Y0209163D02*
X0312979Y0209163D01*
X0313577Y0208565D02*
X0307388Y0208565D01*
X0306981Y0206757D02*
X0305500Y0206757D01*
X0305500Y0202758D01*
X0304900Y0202758D01*
X0304900Y0206757D01*
X0303419Y0206757D01*
X0300900Y0204239D01*
X0300900Y0202757D01*
X0304900Y0202757D01*
X0304900Y0202157D01*
X0305500Y0202157D01*
X0305500Y0198157D01*
X0306981Y0198157D01*
X0309500Y0200676D01*
X0309500Y0202157D01*
X0305500Y0202157D01*
X0305500Y0202757D01*
X0309500Y0202757D01*
X0309500Y0204239D01*
X0306981Y0206757D01*
X0307568Y0206171D02*
X0313398Y0206171D01*
X0313585Y0206357D02*
X0311300Y0204073D01*
X0311300Y0200842D01*
X0313585Y0198557D01*
X0316815Y0198557D01*
X0319100Y0200842D01*
X0319100Y0204073D01*
X0316815Y0206357D01*
X0313585Y0206357D01*
X0312799Y0205572D02*
X0308166Y0205572D01*
X0308765Y0204974D02*
X0312201Y0204974D01*
X0311602Y0204375D02*
X0309363Y0204375D01*
X0309500Y0203777D02*
X0311300Y0203777D01*
X0311300Y0203178D02*
X0309500Y0203178D01*
X0309500Y0201981D02*
X0311300Y0201981D01*
X0311300Y0201383D02*
X0309500Y0201383D01*
X0309500Y0200784D02*
X0311358Y0200784D01*
X0311956Y0200186D02*
X0309009Y0200186D01*
X0308411Y0199587D02*
X0312555Y0199587D01*
X0313154Y0198989D02*
X0307812Y0198989D01*
X0307214Y0198390D02*
X0323861Y0198390D01*
X0323861Y0197792D02*
X0034061Y0197792D01*
X0034061Y0198390D02*
X0303186Y0198390D01*
X0303419Y0198157D02*
X0300900Y0200676D01*
X0300900Y0202157D01*
X0304900Y0202157D01*
X0304900Y0198157D01*
X0303419Y0198157D01*
X0302588Y0198989D02*
X0297246Y0198989D01*
X0297845Y0199587D02*
X0301989Y0199587D01*
X0301391Y0200186D02*
X0298444Y0200186D01*
X0299042Y0200784D02*
X0300900Y0200784D01*
X0300900Y0201383D02*
X0299100Y0201383D01*
X0299100Y0201981D02*
X0300900Y0201981D01*
X0300900Y0203178D02*
X0299100Y0203178D01*
X0299100Y0202580D02*
X0304900Y0202580D01*
X0304900Y0203178D02*
X0305500Y0203178D01*
X0305500Y0202580D02*
X0311300Y0202580D01*
X0305500Y0201981D02*
X0304900Y0201981D01*
X0304900Y0201383D02*
X0305500Y0201383D01*
X0305500Y0200784D02*
X0304900Y0200784D01*
X0304900Y0200186D02*
X0305500Y0200186D01*
X0305500Y0199587D02*
X0304900Y0199587D01*
X0304900Y0198989D02*
X0305500Y0198989D01*
X0305500Y0198390D02*
X0304900Y0198390D01*
X0304900Y0196757D02*
X0303419Y0196757D01*
X0300900Y0194239D01*
X0300900Y0192757D01*
X0304900Y0192757D01*
X0304900Y0192157D01*
X0305500Y0192157D01*
X0305500Y0188157D01*
X0306981Y0188157D01*
X0309500Y0190676D01*
X0309500Y0192157D01*
X0305500Y0192157D01*
X0305500Y0192757D01*
X0309500Y0192757D01*
X0309500Y0194239D01*
X0306981Y0196757D01*
X0305500Y0196757D01*
X0305500Y0192758D01*
X0304900Y0192758D01*
X0304900Y0196757D01*
X0304900Y0196595D02*
X0305500Y0196595D01*
X0305500Y0195996D02*
X0304900Y0195996D01*
X0304900Y0195397D02*
X0305500Y0195397D01*
X0305500Y0194799D02*
X0304900Y0194799D01*
X0304900Y0194200D02*
X0305500Y0194200D01*
X0305500Y0193602D02*
X0304900Y0193602D01*
X0304900Y0193003D02*
X0305500Y0193003D01*
X0305500Y0192405D02*
X0311300Y0192405D01*
X0311300Y0193003D02*
X0309500Y0193003D01*
X0309500Y0193602D02*
X0311300Y0193602D01*
X0311300Y0194073D02*
X0311300Y0190842D01*
X0313585Y0188557D01*
X0316815Y0188557D01*
X0319100Y0190842D01*
X0319100Y0194073D01*
X0316815Y0196357D01*
X0313585Y0196357D01*
X0311300Y0194073D01*
X0311428Y0194200D02*
X0309500Y0194200D01*
X0308940Y0194799D02*
X0312026Y0194799D01*
X0312625Y0195397D02*
X0308341Y0195397D01*
X0307743Y0195996D02*
X0313223Y0195996D01*
X0311300Y0191806D02*
X0309500Y0191806D01*
X0309500Y0191208D02*
X0311300Y0191208D01*
X0311533Y0190609D02*
X0309433Y0190609D01*
X0308834Y0190011D02*
X0312131Y0190011D01*
X0312730Y0189412D02*
X0308236Y0189412D01*
X0307637Y0188814D02*
X0313328Y0188814D01*
X0313585Y0186357D02*
X0311300Y0184073D01*
X0311300Y0180842D01*
X0313585Y0178557D01*
X0316815Y0178557D01*
X0319100Y0180842D01*
X0319100Y0184073D01*
X0316815Y0186357D01*
X0313585Y0186357D01*
X0313048Y0185821D02*
X0307917Y0185821D01*
X0308516Y0185223D02*
X0312450Y0185223D01*
X0311851Y0184624D02*
X0309114Y0184624D01*
X0309500Y0184239D02*
X0306981Y0186757D01*
X0305500Y0186757D01*
X0305500Y0182758D01*
X0304900Y0182758D01*
X0304900Y0186757D01*
X0303419Y0186757D01*
X0300900Y0184239D01*
X0300900Y0182757D01*
X0304900Y0182757D01*
X0304900Y0182157D01*
X0305500Y0182157D01*
X0305500Y0178157D01*
X0306981Y0178157D01*
X0309500Y0180676D01*
X0309500Y0182157D01*
X0305500Y0182157D01*
X0305500Y0182757D01*
X0309500Y0182757D01*
X0309500Y0184239D01*
X0309500Y0184026D02*
X0311300Y0184026D01*
X0311300Y0183427D02*
X0309500Y0183427D01*
X0309500Y0182829D02*
X0311300Y0182829D01*
X0311300Y0182230D02*
X0305500Y0182230D01*
X0305500Y0181632D02*
X0304900Y0181632D01*
X0304900Y0182157D02*
X0304900Y0178157D01*
X0303419Y0178157D01*
X0300900Y0180676D01*
X0300900Y0182157D01*
X0304900Y0182157D01*
X0304900Y0182230D02*
X0299100Y0182230D01*
X0299100Y0181632D02*
X0300900Y0181632D01*
X0300900Y0181033D02*
X0299100Y0181033D01*
X0298693Y0180435D02*
X0301142Y0180435D01*
X0301740Y0179836D02*
X0298094Y0179836D01*
X0297496Y0179238D02*
X0302339Y0179238D01*
X0302937Y0178639D02*
X0296897Y0178639D01*
X0299100Y0182829D02*
X0300900Y0182829D01*
X0300900Y0183427D02*
X0299100Y0183427D01*
X0299100Y0184026D02*
X0300900Y0184026D01*
X0301286Y0184624D02*
X0298549Y0184624D01*
X0297950Y0185223D02*
X0301884Y0185223D01*
X0302483Y0185821D02*
X0297352Y0185821D01*
X0296815Y0188557D02*
X0293585Y0188557D01*
X0291300Y0190842D01*
X0291300Y0194073D01*
X0293585Y0196357D01*
X0296815Y0196357D01*
X0299100Y0194073D01*
X0299100Y0190842D01*
X0296815Y0188557D01*
X0297072Y0188814D02*
X0302763Y0188814D01*
X0303361Y0188215D02*
X0034061Y0188215D01*
X0034061Y0187617D02*
X0323861Y0187617D01*
X0323861Y0188215D02*
X0307039Y0188215D01*
X0305500Y0188215D02*
X0304900Y0188215D01*
X0304900Y0188157D02*
X0304900Y0192157D01*
X0300900Y0192157D01*
X0300900Y0190676D01*
X0303419Y0188157D01*
X0304900Y0188157D01*
X0304900Y0188814D02*
X0305500Y0188814D01*
X0305500Y0189412D02*
X0304900Y0189412D01*
X0304900Y0190011D02*
X0305500Y0190011D01*
X0305500Y0190609D02*
X0304900Y0190609D01*
X0304900Y0191208D02*
X0305500Y0191208D01*
X0305500Y0191806D02*
X0304900Y0191806D01*
X0304900Y0192405D02*
X0299100Y0192405D01*
X0299100Y0193003D02*
X0300900Y0193003D01*
X0300900Y0193602D02*
X0299100Y0193602D01*
X0298972Y0194200D02*
X0300900Y0194200D01*
X0301460Y0194799D02*
X0298374Y0194799D01*
X0297775Y0195397D02*
X0302059Y0195397D01*
X0302657Y0195996D02*
X0297177Y0195996D01*
X0293223Y0195996D02*
X0033754Y0195996D01*
X0034061Y0196595D02*
X0303256Y0196595D01*
X0307144Y0196595D02*
X0323861Y0196595D01*
X0323861Y0197193D02*
X0034061Y0197193D01*
X0034061Y0198989D02*
X0293154Y0198989D01*
X0292555Y0199587D02*
X0034007Y0199587D01*
X0033409Y0200186D02*
X0291956Y0200186D01*
X0291358Y0200784D02*
X0032810Y0200784D01*
X0032212Y0201383D02*
X0291300Y0201383D01*
X0291300Y0201981D02*
X0011500Y0201981D01*
X0011500Y0201383D02*
X0018110Y0201383D01*
X0017511Y0200784D02*
X0011500Y0200784D01*
X0011500Y0200186D02*
X0016913Y0200186D01*
X0016314Y0199587D02*
X0011500Y0199587D01*
X0011500Y0198989D02*
X0016261Y0198989D01*
X0016261Y0198390D02*
X0011500Y0198390D01*
X0011500Y0197792D02*
X0016261Y0197792D01*
X0016261Y0197193D02*
X0011500Y0197193D01*
X0011500Y0196595D02*
X0016261Y0196595D01*
X0016567Y0195996D02*
X0011500Y0195996D01*
X0011500Y0195397D02*
X0017166Y0195397D01*
X0017764Y0194799D02*
X0011500Y0194799D01*
X0011500Y0194200D02*
X0018363Y0194200D01*
X0018534Y0191806D02*
X0011500Y0191806D01*
X0011500Y0191208D02*
X0017935Y0191208D01*
X0017336Y0190609D02*
X0011500Y0190609D01*
X0011500Y0190011D02*
X0016738Y0190011D01*
X0016261Y0189412D02*
X0011500Y0189412D01*
X0011500Y0188814D02*
X0016261Y0188814D01*
X0016261Y0188215D02*
X0011500Y0188215D01*
X0011500Y0187617D02*
X0016261Y0187617D01*
X0016261Y0187018D02*
X0011500Y0187018D01*
X0011500Y0186420D02*
X0016261Y0186420D01*
X0016742Y0185821D02*
X0011500Y0185821D01*
X0011500Y0185223D02*
X0017341Y0185223D01*
X0017939Y0184624D02*
X0011500Y0184624D01*
X0011500Y0184026D02*
X0018538Y0184026D01*
X0011500Y0192405D02*
X0291300Y0192405D01*
X0291300Y0193003D02*
X0011500Y0193003D01*
X0011500Y0193602D02*
X0291300Y0193602D01*
X0291428Y0194200D02*
X0031958Y0194200D01*
X0032557Y0194799D02*
X0292026Y0194799D01*
X0292625Y0195397D02*
X0033155Y0195397D01*
X0031788Y0191806D02*
X0291300Y0191806D01*
X0291300Y0191208D02*
X0032386Y0191208D01*
X0032985Y0190609D02*
X0291533Y0190609D01*
X0292131Y0190011D02*
X0033583Y0190011D01*
X0034061Y0189412D02*
X0292730Y0189412D01*
X0293328Y0188814D02*
X0034061Y0188814D01*
X0034061Y0187018D02*
X0323861Y0187018D01*
X0323861Y0186420D02*
X0307319Y0186420D01*
X0305500Y0186420D02*
X0304900Y0186420D01*
X0304900Y0185821D02*
X0305500Y0185821D01*
X0305500Y0185223D02*
X0304900Y0185223D01*
X0304900Y0184624D02*
X0305500Y0184624D01*
X0305500Y0184026D02*
X0304900Y0184026D01*
X0304900Y0183427D02*
X0305500Y0183427D01*
X0305500Y0182829D02*
X0304900Y0182829D01*
X0304900Y0181033D02*
X0305500Y0181033D01*
X0305500Y0180435D02*
X0304900Y0180435D01*
X0304900Y0179836D02*
X0305500Y0179836D01*
X0305500Y0179238D02*
X0304900Y0179238D01*
X0304900Y0178639D02*
X0305500Y0178639D01*
X0307463Y0178639D02*
X0313503Y0178639D01*
X0312904Y0179238D02*
X0308061Y0179238D01*
X0308660Y0179836D02*
X0312306Y0179836D01*
X0311707Y0180435D02*
X0309258Y0180435D01*
X0309500Y0181033D02*
X0311300Y0181033D01*
X0311300Y0181632D02*
X0309500Y0181632D01*
X0303081Y0186420D02*
X0034061Y0186420D01*
X0033579Y0185821D02*
X0293048Y0185821D01*
X0292450Y0185223D02*
X0032981Y0185223D01*
X0032382Y0184624D02*
X0291851Y0184624D01*
X0297670Y0189412D02*
X0302164Y0189412D01*
X0301565Y0190011D02*
X0298269Y0190011D01*
X0298867Y0190609D02*
X0300967Y0190609D01*
X0300900Y0191208D02*
X0299100Y0191208D01*
X0299100Y0191806D02*
X0300900Y0191806D01*
X0300900Y0203777D02*
X0299100Y0203777D01*
X0298798Y0204375D02*
X0301037Y0204375D01*
X0301635Y0204974D02*
X0298199Y0204974D01*
X0297601Y0205572D02*
X0302234Y0205572D01*
X0302832Y0206171D02*
X0297002Y0206171D01*
X0296823Y0208565D02*
X0303012Y0208565D01*
X0302413Y0209163D02*
X0297421Y0209163D01*
X0298020Y0209762D02*
X0301815Y0209762D01*
X0301216Y0210360D02*
X0298618Y0210360D01*
X0299100Y0210959D02*
X0300900Y0210959D01*
X0300900Y0211557D02*
X0299100Y0211557D01*
X0304900Y0211557D02*
X0305500Y0211557D01*
X0305500Y0210959D02*
X0304900Y0210959D01*
X0304900Y0210360D02*
X0305500Y0210360D01*
X0305500Y0209762D02*
X0304900Y0209762D01*
X0304900Y0209163D02*
X0305500Y0209163D01*
X0305500Y0208565D02*
X0304900Y0208565D01*
X0304900Y0206171D02*
X0305500Y0206171D01*
X0305500Y0205572D02*
X0304900Y0205572D01*
X0304900Y0204974D02*
X0305500Y0204974D01*
X0305500Y0204375D02*
X0304900Y0204375D01*
X0304900Y0203777D02*
X0305500Y0203777D01*
X0305500Y0213353D02*
X0304900Y0213353D01*
X0304900Y0213951D02*
X0305500Y0213951D01*
X0305500Y0214550D02*
X0304900Y0214550D01*
X0304900Y0215148D02*
X0305500Y0215148D01*
X0305500Y0215747D02*
X0304900Y0215747D01*
X0304900Y0216345D02*
X0305500Y0216345D01*
X0307393Y0216345D02*
X0313572Y0216345D01*
X0312974Y0215747D02*
X0307992Y0215747D01*
X0308590Y0215148D02*
X0312375Y0215148D01*
X0311777Y0214550D02*
X0309189Y0214550D01*
X0309500Y0213951D02*
X0311300Y0213951D01*
X0311300Y0213353D02*
X0309500Y0213353D01*
X0307563Y0218739D02*
X0313403Y0218739D01*
X0312804Y0219338D02*
X0308162Y0219338D01*
X0308760Y0219936D02*
X0312206Y0219936D01*
X0311607Y0220535D02*
X0309359Y0220535D01*
X0309500Y0221133D02*
X0311300Y0221133D01*
X0311300Y0221732D02*
X0309500Y0221732D01*
X0309500Y0222929D02*
X0311300Y0222929D01*
X0311300Y0223528D02*
X0309500Y0223528D01*
X0309500Y0224126D02*
X0311353Y0224126D01*
X0311952Y0224725D02*
X0309014Y0224725D01*
X0308416Y0225323D02*
X0312550Y0225323D01*
X0311300Y0222330D02*
X0305500Y0222330D01*
X0305500Y0221732D02*
X0304900Y0221732D01*
X0304900Y0222330D02*
X0299100Y0222330D01*
X0299100Y0221732D02*
X0300900Y0221732D01*
X0300900Y0221133D02*
X0299100Y0221133D01*
X0298793Y0220535D02*
X0301041Y0220535D01*
X0301640Y0219936D02*
X0298194Y0219936D01*
X0297596Y0219338D02*
X0302238Y0219338D01*
X0304900Y0219338D02*
X0305500Y0219338D01*
X0305500Y0219936D02*
X0304900Y0219936D01*
X0304900Y0220535D02*
X0305500Y0220535D01*
X0305500Y0221133D02*
X0304900Y0221133D01*
X0304900Y0222929D02*
X0305500Y0222929D01*
X0305500Y0223528D02*
X0304900Y0223528D01*
X0304900Y0224126D02*
X0305500Y0224126D01*
X0305500Y0224725D02*
X0304900Y0224725D01*
X0304900Y0225323D02*
X0305500Y0225323D01*
X0305500Y0225922D02*
X0304900Y0225922D01*
X0304900Y0226520D02*
X0305500Y0226520D01*
X0305500Y0228316D02*
X0304900Y0228316D01*
X0304900Y0228914D02*
X0305500Y0228914D01*
X0305500Y0229513D02*
X0304900Y0229513D01*
X0304900Y0230111D02*
X0305500Y0230111D01*
X0305500Y0230710D02*
X0304900Y0230710D01*
X0304900Y0231308D02*
X0305500Y0231308D01*
X0301984Y0225323D02*
X0297850Y0225323D01*
X0298448Y0224725D02*
X0301386Y0224725D01*
X0300900Y0224126D02*
X0299047Y0224126D01*
X0299100Y0223528D02*
X0300900Y0223528D01*
X0300900Y0222929D02*
X0299100Y0222929D01*
X0304900Y0218739D02*
X0305500Y0218739D01*
X0316828Y0216345D02*
X0323861Y0216345D01*
X0323861Y0215747D02*
X0317426Y0215747D01*
X0318025Y0215148D02*
X0323861Y0215148D01*
X0323861Y0214550D02*
X0318623Y0214550D01*
X0319100Y0213951D02*
X0323861Y0213951D01*
X0323861Y0213353D02*
X0319100Y0213353D01*
X0319100Y0212754D02*
X0323861Y0212754D01*
X0323861Y0212156D02*
X0319100Y0212156D01*
X0319100Y0211557D02*
X0323861Y0211557D01*
X0323861Y0210959D02*
X0319100Y0210959D01*
X0318618Y0210360D02*
X0323861Y0210360D01*
X0323861Y0209762D02*
X0318020Y0209762D01*
X0317421Y0209163D02*
X0323861Y0209163D01*
X0323861Y0208565D02*
X0316823Y0208565D01*
X0317002Y0206171D02*
X0323861Y0206171D01*
X0323861Y0206769D02*
X0034061Y0206769D01*
X0034061Y0207368D02*
X0323861Y0207368D01*
X0323861Y0207966D02*
X0034061Y0207966D01*
X0034061Y0216944D02*
X0323861Y0216944D01*
X0323861Y0217542D02*
X0034061Y0217542D01*
X0011500Y0203178D02*
X0291300Y0203178D01*
X0291300Y0202580D02*
X0011500Y0202580D01*
X0011500Y0172654D02*
X0086621Y0172654D01*
X0085277Y0172056D02*
X0011500Y0172056D01*
X0011500Y0171457D02*
X0084679Y0171457D01*
X0084080Y0170859D02*
X0011500Y0170859D01*
X0011500Y0170260D02*
X0083801Y0170260D01*
X0083553Y0169661D02*
X0011500Y0169661D01*
X0011500Y0169063D02*
X0083311Y0169063D01*
X0083311Y0168464D02*
X0011500Y0168464D01*
X0011500Y0167866D02*
X0083311Y0167866D01*
X0083311Y0167267D02*
X0011500Y0167267D01*
X0011500Y0166669D02*
X0083534Y0166669D01*
X0083782Y0166070D02*
X0011500Y0166070D01*
X0011500Y0165472D02*
X0084035Y0165472D01*
X0084633Y0164873D02*
X0011500Y0164873D01*
X0011500Y0164275D02*
X0085232Y0164275D01*
X0086512Y0163676D02*
X0011500Y0163676D01*
X0034033Y0129561D02*
X0323861Y0129561D01*
X0300900Y0093052D02*
X0299100Y0093052D01*
X0298711Y0092454D02*
X0301123Y0092454D01*
X0301721Y0091855D02*
X0298113Y0091855D01*
X0297514Y0091257D02*
X0302320Y0091257D01*
X0302918Y0090658D02*
X0296916Y0090658D01*
X0316897Y0178639D02*
X0323861Y0178639D01*
X0323861Y0179238D02*
X0317496Y0179238D01*
X0318094Y0179836D02*
X0323861Y0179836D01*
X0323861Y0180435D02*
X0318693Y0180435D01*
X0319100Y0181033D02*
X0323861Y0181033D01*
X0323861Y0181632D02*
X0319100Y0181632D01*
X0319100Y0182230D02*
X0323861Y0182230D01*
X0323861Y0182829D02*
X0319100Y0182829D01*
X0319100Y0183427D02*
X0323861Y0183427D01*
X0323861Y0184026D02*
X0319100Y0184026D01*
X0318549Y0184624D02*
X0323861Y0184624D01*
X0323861Y0185223D02*
X0317950Y0185223D01*
X0317352Y0185821D02*
X0323861Y0185821D01*
X0323861Y0188814D02*
X0317072Y0188814D01*
X0317670Y0189412D02*
X0323861Y0189412D01*
X0323861Y0190011D02*
X0318269Y0190011D01*
X0318867Y0190609D02*
X0323861Y0190609D01*
X0323861Y0191208D02*
X0319100Y0191208D01*
X0319100Y0191806D02*
X0323861Y0191806D01*
X0323861Y0192405D02*
X0319100Y0192405D01*
X0319100Y0193003D02*
X0323861Y0193003D01*
X0323861Y0193602D02*
X0319100Y0193602D01*
X0318972Y0194200D02*
X0323861Y0194200D01*
X0323861Y0194799D02*
X0318374Y0194799D01*
X0317775Y0195397D02*
X0323861Y0195397D01*
X0323861Y0195996D02*
X0317177Y0195996D01*
X0317246Y0198989D02*
X0323861Y0198989D01*
X0323861Y0199587D02*
X0317845Y0199587D01*
X0318444Y0200186D02*
X0323861Y0200186D01*
X0323861Y0200784D02*
X0319042Y0200784D01*
X0319100Y0201383D02*
X0323861Y0201383D01*
X0323861Y0201981D02*
X0319100Y0201981D01*
X0319100Y0202580D02*
X0323861Y0202580D01*
X0323861Y0203178D02*
X0319100Y0203178D01*
X0319100Y0203777D02*
X0323861Y0203777D01*
X0323861Y0204375D02*
X0318798Y0204375D01*
X0318199Y0204974D02*
X0323861Y0204974D01*
X0323861Y0205572D02*
X0317601Y0205572D01*
X0245380Y0277992D02*
X0239734Y0277992D01*
X0239228Y0277783D02*
X0240505Y0278312D01*
X0241483Y0279289D01*
X0242012Y0280566D01*
X0242012Y0281949D01*
X0241483Y0283226D01*
X0240505Y0284203D01*
X0239228Y0284732D01*
X0237846Y0284732D01*
X0236569Y0284203D01*
X0235591Y0283226D01*
X0235062Y0281949D01*
X0235062Y0280566D01*
X0235591Y0279289D01*
X0236569Y0278312D01*
X0237846Y0277783D01*
X0239228Y0277783D01*
X0240784Y0278591D02*
X0245062Y0278591D01*
X0245062Y0279189D02*
X0241383Y0279189D01*
X0241689Y0279788D02*
X0245062Y0279788D01*
X0245062Y0280386D02*
X0241937Y0280386D01*
X0242012Y0280985D02*
X0245062Y0280985D01*
X0245062Y0281583D02*
X0242012Y0281583D01*
X0241915Y0282182D02*
X0245062Y0282182D01*
X0245062Y0282780D02*
X0241667Y0282780D01*
X0241330Y0283379D02*
X0245062Y0283379D01*
X0245062Y0283977D02*
X0240731Y0283977D01*
X0239606Y0284576D02*
X0245433Y0284576D01*
X0237468Y0284576D02*
X0230545Y0284576D01*
X0231297Y0283977D02*
X0236343Y0283977D01*
X0235744Y0283379D02*
X0231780Y0283379D01*
X0232100Y0282780D02*
X0235407Y0282780D01*
X0235159Y0282182D02*
X0232304Y0282182D01*
X0232412Y0281583D02*
X0235062Y0281583D01*
X0235062Y0280985D02*
X0228837Y0280985D01*
X0228837Y0280386D02*
X0228237Y0280386D01*
X0228237Y0279788D02*
X0228837Y0279788D01*
X0228837Y0279189D02*
X0228237Y0279189D01*
X0228237Y0278591D02*
X0228837Y0278591D01*
X0228837Y0277992D02*
X0228237Y0277992D01*
X0230624Y0277992D02*
X0237340Y0277992D01*
X0236290Y0278591D02*
X0231350Y0278591D01*
X0231815Y0279189D02*
X0235691Y0279189D01*
X0235385Y0279788D02*
X0232122Y0279788D01*
X0232314Y0280386D02*
X0235137Y0280386D01*
X0101782Y0295947D02*
X0062492Y0295947D01*
X0063937Y0295349D02*
X0100337Y0295349D01*
X0099053Y0294750D02*
X0065221Y0294750D01*
X0065819Y0294152D02*
X0098455Y0294152D01*
M02*
