%
M48
M72
T01C0.01200
T02C0.03150
T03C0.03937
T04C0.04000
T05C0.04331
T06C0.06693
T07C0.10236
T08C0.12598
%
T01
X105511Y93643
X115011Y114643
X119011Y114643
X111011Y125143
X119011Y138643
X122011Y138643
X154511Y118143
X158511Y118143
X141011Y107143
X141011Y104143
X148511Y91143
X156011Y98643
X148511Y82643
X184511Y110143
X192511Y110143
X227011Y99643
X230011Y99643
X161511Y142643
X158511Y142643
X167811Y175943
X167811Y187443
X180511Y198643
X183511Y198643
X194511Y204143
X199811Y197443
X199811Y187443
X199811Y175943
X230011Y175943
X230011Y187443
X230011Y197443
X230011Y208143
X239011Y218143
X242011Y218143
X252511Y223643
X261511Y229643
X252511Y235643
X227511Y246643
X227511Y249643
X175011Y244143
X175011Y236143
X175011Y228143
X194511Y216143
X203511Y210143
X257011Y208143
X257011Y197443
X257011Y187443
X257011Y175943
X281011Y175943
X281011Y187443
X281011Y197443
X281011Y208143
X281011Y217443
X281011Y228143
X141511Y237143
X141511Y234143
X129011Y223643
X124011Y223643
X126011Y233143
X134311Y195943
X143311Y189943
X134311Y183943
X123511Y175643
X120511Y175643
X98511Y191643
X98511Y194743
X74611Y198243
X70711Y188043
T02
X228537Y54643
X238537Y54643
X248537Y54643
X228537Y281257
X238537Y281257
X248537Y281257
T03
X88011Y168143
X272011Y262143
X272011Y72643
T04
X20161Y67918
X30161Y67918
X30161Y77918
X30161Y87918
X30161Y97918
X30161Y107918
X30161Y117918
X30161Y127918
X30161Y137918
X30161Y147918
X30161Y157918
X20161Y157918
X20161Y147918
X20161Y137918
X20161Y127918
X20161Y117918
X20161Y107918
X20161Y97918
X20161Y87918
X20161Y77918
X20161Y177918
X30161Y177918
X30161Y187918
X30161Y197918
X30161Y207918
X30161Y217918
X30161Y227918
X30161Y237918
X30161Y247918
X30161Y257918
X30161Y267918
X20161Y267918
X20161Y257918
X20161Y247918
X20161Y237918
X20161Y227918
X20161Y217918
X20161Y207918
X20161Y197918
X20161Y187918
X295200Y242457
X295200Y232457
X295200Y222457
X295200Y212457
X295200Y202457
X295200Y192457
X295200Y182457
X305200Y182457
X315200Y182457
X315200Y192457
X305200Y192457
X305200Y202457
X315200Y202457
X315200Y212457
X305200Y212457
X305200Y222457
X315200Y222457
X315200Y232457
X305200Y232457
X305200Y242457
X315200Y242457
X305200Y154457
X305200Y144457
X305200Y134457
X305200Y124457
X305200Y114457
X305200Y104457
X305200Y94457
X295200Y94457
X295200Y104457
X295200Y114457
X295200Y124457
X295200Y134457
X295200Y144457
X295200Y154457
X315200Y154457
X315200Y144457
X315200Y134457
X315200Y124457
X315200Y114457
X315200Y104457
X315200Y94457
T05
X228537Y44328
X248537Y44328
X228537Y291612
X248537Y291612
T06
X82137Y48457
X159837Y48457
X159837Y287426
X82137Y287426
T07
X60137Y48457
X82137Y30741
X104137Y48457
X137837Y48457
X159837Y30741
X181837Y48457
X181837Y287426
X159837Y305143
X137837Y287426
X104137Y287426
X82137Y305143
X60137Y287426
T08
X25948Y26206
X191302Y85261
X309413Y26206
X191302Y250615
X309413Y309670
X25948Y309670
M30
