G75*
%MOIN*%
%OFA0B0*%
%FSLAX25Y25*%
%IPPOS*%
%LPD*%
%AMOC8*
5,1,8,0,0,1.08239X$1,22.5*
%
%ADD10C,0.00600*%
%ADD11C,0.00800*%
%ADD12C,0.01100*%
%ADD13C,0.00500*%
%ADD14C,0.02400*%
%ADD15C,0.01500*%
%ADD16C,0.03000*%
%ADD17R,0.02000X0.03000*%
%ADD18R,0.04000X0.03000*%
%ADD19R,0.03000X0.03000*%
%ADD20C,0.00000*%
%ADD21C,0.01000*%
D10*
X0063637Y0027300D02*
X0063724Y0027298D01*
X0063811Y0027292D01*
X0063898Y0027283D01*
X0063984Y0027270D01*
X0064070Y0027253D01*
X0064155Y0027232D01*
X0064238Y0027207D01*
X0064321Y0027179D01*
X0064402Y0027148D01*
X0064482Y0027113D01*
X0064560Y0027074D01*
X0064637Y0027032D01*
X0064712Y0026987D01*
X0064784Y0026938D01*
X0064855Y0026887D01*
X0064923Y0026832D01*
X0064988Y0026775D01*
X0065051Y0026714D01*
X0065112Y0026651D01*
X0065169Y0026586D01*
X0065224Y0026518D01*
X0065275Y0026447D01*
X0065324Y0026375D01*
X0065369Y0026300D01*
X0065411Y0026223D01*
X0065450Y0026145D01*
X0065485Y0026065D01*
X0065516Y0025984D01*
X0065544Y0025901D01*
X0065569Y0025818D01*
X0065590Y0025733D01*
X0065607Y0025647D01*
X0065620Y0025561D01*
X0065629Y0025474D01*
X0065635Y0025387D01*
X0065637Y0025300D01*
X0073637Y0025300D01*
X0072137Y0022800D02*
X0072137Y0017300D01*
X0070137Y0012800D02*
X0070137Y0022800D01*
X0068137Y0022800D02*
X0068137Y0006300D01*
X0065637Y0003800D02*
X0065639Y0003713D01*
X0065645Y0003626D01*
X0065654Y0003539D01*
X0065667Y0003453D01*
X0065684Y0003367D01*
X0065705Y0003282D01*
X0065730Y0003199D01*
X0065758Y0003116D01*
X0065789Y0003035D01*
X0065824Y0002955D01*
X0065863Y0002877D01*
X0065905Y0002800D01*
X0065950Y0002725D01*
X0065999Y0002653D01*
X0066050Y0002582D01*
X0066105Y0002514D01*
X0066162Y0002449D01*
X0066223Y0002386D01*
X0066286Y0002325D01*
X0066351Y0002268D01*
X0066419Y0002213D01*
X0066490Y0002162D01*
X0066562Y0002113D01*
X0066637Y0002068D01*
X0066714Y0002026D01*
X0066792Y0001987D01*
X0066872Y0001952D01*
X0066953Y0001921D01*
X0067036Y0001893D01*
X0067119Y0001868D01*
X0067204Y0001847D01*
X0067290Y0001830D01*
X0067376Y0001817D01*
X0067463Y0001808D01*
X0067550Y0001802D01*
X0067637Y0001800D01*
X0070137Y0001800D01*
X0070137Y0001300D01*
X0094137Y0001300D01*
X0094137Y0001800D01*
X0070137Y0001800D01*
X0067137Y0003800D02*
X0097137Y0003800D01*
X0098637Y0003800D02*
X0098635Y0003713D01*
X0098629Y0003626D01*
X0098620Y0003539D01*
X0098607Y0003453D01*
X0098590Y0003367D01*
X0098569Y0003282D01*
X0098544Y0003199D01*
X0098516Y0003116D01*
X0098485Y0003035D01*
X0098450Y0002955D01*
X0098411Y0002877D01*
X0098369Y0002800D01*
X0098324Y0002725D01*
X0098275Y0002653D01*
X0098224Y0002582D01*
X0098169Y0002514D01*
X0098112Y0002449D01*
X0098051Y0002386D01*
X0097988Y0002325D01*
X0097923Y0002268D01*
X0097855Y0002213D01*
X0097784Y0002162D01*
X0097712Y0002113D01*
X0097637Y0002068D01*
X0097560Y0002026D01*
X0097482Y0001987D01*
X0097402Y0001952D01*
X0097321Y0001921D01*
X0097238Y0001893D01*
X0097155Y0001868D01*
X0097070Y0001847D01*
X0096984Y0001830D01*
X0096898Y0001817D01*
X0096811Y0001808D01*
X0096724Y0001802D01*
X0096637Y0001800D01*
X0094137Y0001800D01*
X0096137Y0006300D02*
X0096137Y0022800D01*
X0094137Y0022800D02*
X0094137Y0012800D01*
X0092137Y0017300D02*
X0092137Y0022800D01*
X0090637Y0025300D02*
X0098637Y0025300D01*
X0098637Y0003800D01*
X0098637Y0025300D02*
X0098639Y0025387D01*
X0098645Y0025474D01*
X0098654Y0025561D01*
X0098667Y0025647D01*
X0098684Y0025733D01*
X0098705Y0025818D01*
X0098730Y0025901D01*
X0098758Y0025984D01*
X0098789Y0026065D01*
X0098824Y0026145D01*
X0098863Y0026223D01*
X0098905Y0026300D01*
X0098950Y0026375D01*
X0098999Y0026447D01*
X0099050Y0026518D01*
X0099105Y0026586D01*
X0099162Y0026651D01*
X0099223Y0026714D01*
X0099286Y0026775D01*
X0099351Y0026832D01*
X0099419Y0026887D01*
X0099490Y0026938D01*
X0099562Y0026987D01*
X0099637Y0027032D01*
X0099714Y0027074D01*
X0099792Y0027113D01*
X0099872Y0027148D01*
X0099953Y0027179D01*
X0100036Y0027207D01*
X0100119Y0027232D01*
X0100204Y0027253D01*
X0100290Y0027270D01*
X0100376Y0027283D01*
X0100463Y0027292D01*
X0100550Y0027298D01*
X0100637Y0027300D01*
X0101137Y0028300D02*
X0091137Y0028300D01*
X0087637Y0038737D02*
X0087637Y0046457D01*
X0076637Y0046457D02*
X0076637Y0038737D01*
X0073137Y0028300D02*
X0063137Y0028300D01*
X0065637Y0025300D02*
X0065637Y0003800D01*
X0032661Y0062918D02*
X0017661Y0062918D01*
X0015161Y0065418D01*
X0015161Y0070418D01*
X0017661Y0072918D01*
X0032661Y0072918D01*
X0035161Y0070418D01*
X0035161Y0065418D01*
X0032661Y0062918D01*
X0032661Y0072918D02*
X0035161Y0075418D01*
X0035161Y0080418D01*
X0032661Y0082918D01*
X0017661Y0082918D01*
X0015161Y0085418D01*
X0015161Y0090418D01*
X0017661Y0092918D01*
X0032661Y0092918D01*
X0035161Y0090418D01*
X0035161Y0085418D01*
X0032661Y0082918D01*
X0032661Y0092918D02*
X0035161Y0095418D01*
X0035161Y0100418D01*
X0032661Y0102918D01*
X0017661Y0102918D01*
X0015161Y0100418D01*
X0015161Y0095418D01*
X0017661Y0092918D01*
X0017661Y0082918D02*
X0015161Y0080418D01*
X0015161Y0075418D01*
X0017661Y0072918D01*
X0017661Y0102918D02*
X0015161Y0105418D01*
X0015161Y0110418D01*
X0017661Y0112918D01*
X0032661Y0112918D01*
X0035161Y0110418D01*
X0035161Y0105418D01*
X0032661Y0102918D01*
X0032661Y0112918D02*
X0035161Y0115418D01*
X0035161Y0120418D01*
X0032661Y0122918D01*
X0017661Y0122918D01*
X0015161Y0120418D01*
X0015161Y0115418D01*
X0017661Y0112918D01*
X0017661Y0122918D02*
X0015161Y0125418D01*
X0015161Y0130418D01*
X0017661Y0132918D01*
X0032661Y0132918D01*
X0035161Y0130418D01*
X0035161Y0125418D01*
X0032661Y0122918D01*
X0032661Y0132918D02*
X0035161Y0135418D01*
X0035161Y0140418D01*
X0032661Y0142918D01*
X0017661Y0142918D01*
X0015161Y0140418D01*
X0015161Y0135418D01*
X0017661Y0132918D01*
X0017661Y0142918D02*
X0015161Y0145418D01*
X0015161Y0150418D01*
X0017661Y0152918D01*
X0032661Y0152918D01*
X0035161Y0150418D01*
X0035161Y0145418D01*
X0032661Y0142918D01*
X0032661Y0152918D02*
X0035161Y0155418D01*
X0035161Y0160418D01*
X0032661Y0162918D01*
X0017661Y0162918D01*
X0015161Y0160418D01*
X0015161Y0155418D01*
X0017661Y0152918D01*
X0017661Y0172918D02*
X0032661Y0172918D01*
X0035161Y0175418D01*
X0035161Y0180418D01*
X0032661Y0182918D01*
X0017661Y0182918D01*
X0015161Y0180418D01*
X0015161Y0175418D01*
X0017661Y0172918D01*
X0017661Y0182918D02*
X0015161Y0185418D01*
X0015161Y0190418D01*
X0017661Y0192918D01*
X0032661Y0192918D01*
X0035161Y0190418D01*
X0035161Y0185418D01*
X0032661Y0182918D01*
X0032661Y0192918D02*
X0035161Y0195418D01*
X0035161Y0200418D01*
X0032661Y0202918D01*
X0017661Y0202918D01*
X0015161Y0205418D01*
X0015161Y0210418D01*
X0017661Y0212918D01*
X0032661Y0212918D01*
X0035161Y0210418D01*
X0035161Y0205418D01*
X0032661Y0202918D01*
X0032661Y0212918D02*
X0035161Y0215418D01*
X0035161Y0220418D01*
X0032661Y0222918D01*
X0017661Y0222918D01*
X0015161Y0220418D01*
X0015161Y0215418D01*
X0017661Y0212918D01*
X0017661Y0202918D02*
X0015161Y0200418D01*
X0015161Y0195418D01*
X0017661Y0192918D01*
X0017661Y0222918D02*
X0015161Y0225418D01*
X0015161Y0230418D01*
X0017661Y0232918D01*
X0032661Y0232918D01*
X0035161Y0230418D01*
X0035161Y0225418D01*
X0032661Y0222918D01*
X0032661Y0232918D02*
X0035161Y0235418D01*
X0035161Y0240418D01*
X0032661Y0242918D01*
X0017661Y0242918D01*
X0015161Y0240418D01*
X0015161Y0235418D01*
X0017661Y0232918D01*
X0017661Y0242918D02*
X0015161Y0245418D01*
X0015161Y0250418D01*
X0017661Y0252918D01*
X0032661Y0252918D01*
X0035161Y0250418D01*
X0035161Y0245418D01*
X0032661Y0242918D01*
X0032661Y0252918D02*
X0035161Y0255418D01*
X0035161Y0260418D01*
X0032661Y0262918D01*
X0017661Y0262918D01*
X0015161Y0260418D01*
X0015161Y0255418D01*
X0017661Y0252918D01*
X0017661Y0262918D02*
X0015161Y0265418D01*
X0015161Y0270418D01*
X0017661Y0272918D01*
X0032661Y0272918D01*
X0035161Y0270418D01*
X0035161Y0265418D01*
X0032661Y0262918D01*
X0076637Y0289426D02*
X0076637Y0297146D01*
X0087637Y0297146D02*
X0087637Y0289426D01*
X0091137Y0307583D02*
X0101137Y0307583D01*
X0100637Y0308583D02*
X0100550Y0308585D01*
X0100463Y0308591D01*
X0100376Y0308600D01*
X0100290Y0308613D01*
X0100204Y0308630D01*
X0100119Y0308651D01*
X0100036Y0308676D01*
X0099953Y0308704D01*
X0099872Y0308735D01*
X0099792Y0308770D01*
X0099714Y0308809D01*
X0099637Y0308851D01*
X0099562Y0308896D01*
X0099490Y0308945D01*
X0099419Y0308996D01*
X0099351Y0309051D01*
X0099286Y0309108D01*
X0099223Y0309169D01*
X0099162Y0309232D01*
X0099105Y0309297D01*
X0099050Y0309365D01*
X0098999Y0309436D01*
X0098950Y0309508D01*
X0098905Y0309583D01*
X0098863Y0309660D01*
X0098824Y0309738D01*
X0098789Y0309818D01*
X0098758Y0309899D01*
X0098730Y0309982D01*
X0098705Y0310065D01*
X0098684Y0310150D01*
X0098667Y0310236D01*
X0098654Y0310322D01*
X0098645Y0310409D01*
X0098639Y0310496D01*
X0098637Y0310583D01*
X0090637Y0310583D01*
X0092137Y0313083D02*
X0092137Y0318583D01*
X0094137Y0323083D02*
X0094137Y0313083D01*
X0096137Y0313083D02*
X0096137Y0329583D01*
X0098637Y0332083D02*
X0098635Y0332170D01*
X0098629Y0332257D01*
X0098620Y0332344D01*
X0098607Y0332430D01*
X0098590Y0332516D01*
X0098569Y0332601D01*
X0098544Y0332684D01*
X0098516Y0332767D01*
X0098485Y0332848D01*
X0098450Y0332928D01*
X0098411Y0333006D01*
X0098369Y0333083D01*
X0098324Y0333158D01*
X0098275Y0333230D01*
X0098224Y0333301D01*
X0098169Y0333369D01*
X0098112Y0333434D01*
X0098051Y0333497D01*
X0097988Y0333558D01*
X0097923Y0333615D01*
X0097855Y0333670D01*
X0097784Y0333721D01*
X0097712Y0333770D01*
X0097637Y0333815D01*
X0097560Y0333857D01*
X0097482Y0333896D01*
X0097402Y0333931D01*
X0097321Y0333962D01*
X0097238Y0333990D01*
X0097155Y0334015D01*
X0097070Y0334036D01*
X0096984Y0334053D01*
X0096898Y0334066D01*
X0096811Y0334075D01*
X0096724Y0334081D01*
X0096637Y0334083D01*
X0094137Y0334083D01*
X0094137Y0334583D01*
X0070137Y0334583D01*
X0070137Y0334083D01*
X0094137Y0334083D01*
X0097137Y0332083D02*
X0067137Y0332083D01*
X0065637Y0332083D02*
X0065639Y0332170D01*
X0065645Y0332257D01*
X0065654Y0332344D01*
X0065667Y0332430D01*
X0065684Y0332516D01*
X0065705Y0332601D01*
X0065730Y0332684D01*
X0065758Y0332767D01*
X0065789Y0332848D01*
X0065824Y0332928D01*
X0065863Y0333006D01*
X0065905Y0333083D01*
X0065950Y0333158D01*
X0065999Y0333230D01*
X0066050Y0333301D01*
X0066105Y0333369D01*
X0066162Y0333434D01*
X0066223Y0333497D01*
X0066286Y0333558D01*
X0066351Y0333615D01*
X0066419Y0333670D01*
X0066490Y0333721D01*
X0066562Y0333770D01*
X0066637Y0333815D01*
X0066714Y0333857D01*
X0066792Y0333896D01*
X0066872Y0333931D01*
X0066953Y0333962D01*
X0067036Y0333990D01*
X0067119Y0334015D01*
X0067204Y0334036D01*
X0067290Y0334053D01*
X0067376Y0334066D01*
X0067463Y0334075D01*
X0067550Y0334081D01*
X0067637Y0334083D01*
X0070137Y0334083D01*
X0068137Y0329583D02*
X0068137Y0313083D01*
X0070137Y0313083D02*
X0070137Y0323083D01*
X0072137Y0318583D02*
X0072137Y0313083D01*
X0073637Y0310583D02*
X0065637Y0310583D01*
X0065637Y0332083D01*
X0065637Y0310583D02*
X0065635Y0310496D01*
X0065629Y0310409D01*
X0065620Y0310322D01*
X0065607Y0310236D01*
X0065590Y0310150D01*
X0065569Y0310065D01*
X0065544Y0309982D01*
X0065516Y0309899D01*
X0065485Y0309818D01*
X0065450Y0309738D01*
X0065411Y0309660D01*
X0065369Y0309583D01*
X0065324Y0309508D01*
X0065275Y0309436D01*
X0065224Y0309365D01*
X0065169Y0309297D01*
X0065112Y0309232D01*
X0065051Y0309169D01*
X0064988Y0309108D01*
X0064923Y0309051D01*
X0064855Y0308996D01*
X0064784Y0308945D01*
X0064712Y0308896D01*
X0064637Y0308851D01*
X0064560Y0308809D01*
X0064482Y0308770D01*
X0064402Y0308735D01*
X0064321Y0308704D01*
X0064238Y0308676D01*
X0064155Y0308651D01*
X0064070Y0308630D01*
X0063984Y0308613D01*
X0063898Y0308600D01*
X0063811Y0308591D01*
X0063724Y0308585D01*
X0063637Y0308583D01*
X0063137Y0307583D02*
X0073137Y0307583D01*
X0098637Y0310583D02*
X0098637Y0332083D01*
X0143337Y0332083D02*
X0143337Y0310583D01*
X0151337Y0310583D01*
X0149837Y0313083D02*
X0149837Y0318583D01*
X0147837Y0323083D02*
X0147837Y0313083D01*
X0145837Y0313083D02*
X0145837Y0329583D01*
X0143337Y0332083D02*
X0143339Y0332170D01*
X0143345Y0332257D01*
X0143354Y0332344D01*
X0143367Y0332430D01*
X0143384Y0332516D01*
X0143405Y0332601D01*
X0143430Y0332684D01*
X0143458Y0332767D01*
X0143489Y0332848D01*
X0143524Y0332928D01*
X0143563Y0333006D01*
X0143605Y0333083D01*
X0143650Y0333158D01*
X0143699Y0333230D01*
X0143750Y0333301D01*
X0143805Y0333369D01*
X0143862Y0333434D01*
X0143923Y0333497D01*
X0143986Y0333558D01*
X0144051Y0333615D01*
X0144119Y0333670D01*
X0144190Y0333721D01*
X0144262Y0333770D01*
X0144337Y0333815D01*
X0144414Y0333857D01*
X0144492Y0333896D01*
X0144572Y0333931D01*
X0144653Y0333962D01*
X0144736Y0333990D01*
X0144819Y0334015D01*
X0144904Y0334036D01*
X0144990Y0334053D01*
X0145076Y0334066D01*
X0145163Y0334075D01*
X0145250Y0334081D01*
X0145337Y0334083D01*
X0147837Y0334083D01*
X0171837Y0334083D01*
X0174337Y0334083D01*
X0174424Y0334081D01*
X0174511Y0334075D01*
X0174598Y0334066D01*
X0174684Y0334053D01*
X0174770Y0334036D01*
X0174855Y0334015D01*
X0174938Y0333990D01*
X0175021Y0333962D01*
X0175102Y0333931D01*
X0175182Y0333896D01*
X0175260Y0333857D01*
X0175337Y0333815D01*
X0175412Y0333770D01*
X0175484Y0333721D01*
X0175555Y0333670D01*
X0175623Y0333615D01*
X0175688Y0333558D01*
X0175751Y0333497D01*
X0175812Y0333434D01*
X0175869Y0333369D01*
X0175924Y0333301D01*
X0175975Y0333230D01*
X0176024Y0333158D01*
X0176069Y0333083D01*
X0176111Y0333006D01*
X0176150Y0332928D01*
X0176185Y0332848D01*
X0176216Y0332767D01*
X0176244Y0332684D01*
X0176269Y0332601D01*
X0176290Y0332516D01*
X0176307Y0332430D01*
X0176320Y0332344D01*
X0176329Y0332257D01*
X0176335Y0332170D01*
X0176337Y0332083D01*
X0176337Y0310583D01*
X0168337Y0310583D01*
X0169837Y0313083D02*
X0169837Y0318583D01*
X0171837Y0323083D02*
X0171837Y0313083D01*
X0173837Y0313083D02*
X0173837Y0329583D01*
X0174837Y0332083D02*
X0144837Y0332083D01*
X0147837Y0334083D02*
X0147837Y0334583D01*
X0171837Y0334583D01*
X0171837Y0334083D01*
X0176337Y0310583D02*
X0176339Y0310496D01*
X0176345Y0310409D01*
X0176354Y0310322D01*
X0176367Y0310236D01*
X0176384Y0310150D01*
X0176405Y0310065D01*
X0176430Y0309982D01*
X0176458Y0309899D01*
X0176489Y0309818D01*
X0176524Y0309738D01*
X0176563Y0309660D01*
X0176605Y0309583D01*
X0176650Y0309508D01*
X0176699Y0309436D01*
X0176750Y0309365D01*
X0176805Y0309297D01*
X0176862Y0309232D01*
X0176923Y0309169D01*
X0176986Y0309108D01*
X0177051Y0309051D01*
X0177119Y0308996D01*
X0177190Y0308945D01*
X0177262Y0308896D01*
X0177337Y0308851D01*
X0177414Y0308809D01*
X0177492Y0308770D01*
X0177572Y0308735D01*
X0177653Y0308704D01*
X0177736Y0308676D01*
X0177819Y0308651D01*
X0177904Y0308630D01*
X0177990Y0308613D01*
X0178076Y0308600D01*
X0178163Y0308591D01*
X0178250Y0308585D01*
X0178337Y0308583D01*
X0178837Y0307583D02*
X0168837Y0307583D01*
X0165337Y0297146D02*
X0165337Y0289426D01*
X0154337Y0289426D02*
X0154337Y0297146D01*
X0150837Y0307583D02*
X0140837Y0307583D01*
X0141337Y0308583D02*
X0141424Y0308585D01*
X0141511Y0308591D01*
X0141598Y0308600D01*
X0141684Y0308613D01*
X0141770Y0308630D01*
X0141855Y0308651D01*
X0141938Y0308676D01*
X0142021Y0308704D01*
X0142102Y0308735D01*
X0142182Y0308770D01*
X0142260Y0308809D01*
X0142337Y0308851D01*
X0142412Y0308896D01*
X0142484Y0308945D01*
X0142555Y0308996D01*
X0142623Y0309051D01*
X0142688Y0309108D01*
X0142751Y0309169D01*
X0142812Y0309232D01*
X0142869Y0309297D01*
X0142924Y0309365D01*
X0142975Y0309436D01*
X0143024Y0309508D01*
X0143069Y0309583D01*
X0143111Y0309660D01*
X0143150Y0309738D01*
X0143185Y0309818D01*
X0143216Y0309899D01*
X0143244Y0309982D01*
X0143269Y0310065D01*
X0143290Y0310150D01*
X0143307Y0310236D01*
X0143320Y0310322D01*
X0143329Y0310409D01*
X0143335Y0310496D01*
X0143337Y0310583D01*
X0164511Y0259445D02*
X0166780Y0259445D01*
X0165645Y0259445D02*
X0165645Y0256043D01*
X0168194Y0256043D02*
X0168194Y0259445D01*
X0169896Y0259445D01*
X0170463Y0258878D01*
X0170463Y0257744D01*
X0169896Y0257177D01*
X0168194Y0257177D01*
X0171877Y0258311D02*
X0173012Y0259445D01*
X0173012Y0256043D01*
X0174146Y0256043D02*
X0171877Y0256043D01*
X0175560Y0256610D02*
X0176128Y0256043D01*
X0177262Y0256043D01*
X0177829Y0256610D01*
X0177829Y0257177D01*
X0177262Y0257744D01*
X0176695Y0257744D01*
X0177262Y0257744D02*
X0177829Y0258311D01*
X0177829Y0258878D01*
X0177262Y0259445D01*
X0176128Y0259445D01*
X0175560Y0258878D01*
X0160363Y0245278D02*
X0160363Y0244711D01*
X0159796Y0244144D01*
X0158661Y0244144D01*
X0158094Y0244711D01*
X0158094Y0245278D01*
X0158661Y0245845D01*
X0159796Y0245845D01*
X0160363Y0245278D01*
X0159796Y0244144D02*
X0160363Y0243577D01*
X0160363Y0243010D01*
X0159796Y0242443D01*
X0158661Y0242443D01*
X0158094Y0243010D01*
X0158094Y0243577D01*
X0158661Y0244144D01*
X0156680Y0245278D02*
X0156112Y0245845D01*
X0154978Y0245845D01*
X0154411Y0245278D01*
X0154411Y0243010D01*
X0154978Y0242443D01*
X0156112Y0242443D01*
X0156680Y0243010D01*
X0138446Y0242278D02*
X0138446Y0241711D01*
X0136177Y0239443D01*
X0138446Y0239443D01*
X0138446Y0242278D02*
X0137879Y0242845D01*
X0136744Y0242845D01*
X0136177Y0242278D01*
X0133628Y0242845D02*
X0133628Y0239443D01*
X0132494Y0239443D02*
X0134763Y0239443D01*
X0132494Y0241711D02*
X0133628Y0242845D01*
X0131080Y0242278D02*
X0130512Y0242845D01*
X0129378Y0242845D01*
X0128811Y0242278D01*
X0128811Y0240010D01*
X0129378Y0239443D01*
X0130512Y0239443D01*
X0131080Y0240010D01*
X0132778Y0229743D02*
X0135047Y0227474D01*
X0135047Y0228608D02*
X0132778Y0228608D01*
X0132778Y0227474D02*
X0135047Y0229743D01*
X0133912Y0229743D02*
X0133912Y0227474D01*
X0134711Y0225345D02*
X0134711Y0222510D01*
X0135278Y0221943D01*
X0136412Y0221943D01*
X0136980Y0222510D01*
X0136980Y0225345D01*
X0138394Y0224778D02*
X0138961Y0225345D01*
X0140096Y0225345D01*
X0140663Y0224778D01*
X0140663Y0224211D01*
X0138394Y0221943D01*
X0140663Y0221943D01*
X0132411Y0221743D02*
X0132411Y0222443D01*
X0132411Y0224843D01*
X0132411Y0225543D01*
X0132411Y0224843D02*
X0132342Y0224841D01*
X0132274Y0224835D01*
X0132206Y0224825D01*
X0132139Y0224812D01*
X0132073Y0224794D01*
X0132008Y0224773D01*
X0131944Y0224748D01*
X0131882Y0224720D01*
X0131821Y0224688D01*
X0131762Y0224653D01*
X0131706Y0224614D01*
X0131651Y0224572D01*
X0131600Y0224527D01*
X0131550Y0224479D01*
X0131504Y0224429D01*
X0131461Y0224376D01*
X0131420Y0224320D01*
X0131383Y0224263D01*
X0131350Y0224203D01*
X0131319Y0224141D01*
X0131293Y0224078D01*
X0131270Y0224014D01*
X0131250Y0223948D01*
X0131235Y0223881D01*
X0131223Y0223814D01*
X0131215Y0223746D01*
X0131211Y0223677D01*
X0131211Y0223609D01*
X0131215Y0223540D01*
X0131223Y0223472D01*
X0131235Y0223405D01*
X0131250Y0223338D01*
X0131270Y0223272D01*
X0131293Y0223208D01*
X0131319Y0223145D01*
X0131350Y0223083D01*
X0131383Y0223023D01*
X0131420Y0222966D01*
X0131461Y0222910D01*
X0131504Y0222857D01*
X0131550Y0222807D01*
X0131600Y0222759D01*
X0131651Y0222714D01*
X0131706Y0222672D01*
X0131762Y0222633D01*
X0131821Y0222598D01*
X0131882Y0222566D01*
X0131944Y0222538D01*
X0132008Y0222513D01*
X0132073Y0222492D01*
X0132139Y0222474D01*
X0132206Y0222461D01*
X0132274Y0222451D01*
X0132342Y0222445D01*
X0132411Y0222443D01*
X0127811Y0220343D02*
X0125211Y0220343D01*
X0120611Y0221743D02*
X0120611Y0225543D01*
X0104846Y0227910D02*
X0104279Y0227343D01*
X0103144Y0227343D01*
X0102577Y0227910D01*
X0102577Y0228477D01*
X0103144Y0229044D01*
X0104279Y0229044D01*
X0104846Y0228477D01*
X0104846Y0227910D01*
X0104279Y0229044D02*
X0104846Y0229611D01*
X0104846Y0230178D01*
X0104279Y0230745D01*
X0103144Y0230745D01*
X0102577Y0230178D01*
X0102577Y0229611D01*
X0103144Y0229044D01*
X0101163Y0227343D02*
X0098894Y0227343D01*
X0100028Y0227343D02*
X0100028Y0230745D01*
X0098894Y0229611D01*
X0097480Y0229044D02*
X0096912Y0228477D01*
X0095211Y0228477D01*
X0096345Y0228477D02*
X0097480Y0227343D01*
X0097480Y0229044D02*
X0097480Y0230178D01*
X0096912Y0230745D01*
X0095211Y0230745D01*
X0095211Y0227343D01*
X0095111Y0220645D02*
X0096812Y0220645D01*
X0097380Y0220078D01*
X0097380Y0218944D01*
X0096812Y0218377D01*
X0095111Y0218377D01*
X0096245Y0218377D02*
X0097380Y0217243D01*
X0098794Y0217243D02*
X0101063Y0217243D01*
X0099928Y0217243D02*
X0099928Y0220645D01*
X0098794Y0219511D01*
X0102477Y0220078D02*
X0103044Y0220645D01*
X0104179Y0220645D01*
X0104746Y0220078D01*
X0104746Y0219511D01*
X0102477Y0217243D01*
X0104746Y0217243D01*
X0103812Y0208345D02*
X0103812Y0204943D01*
X0104946Y0204943D02*
X0102677Y0204943D01*
X0101263Y0206644D02*
X0100696Y0206077D01*
X0098994Y0206077D01*
X0098994Y0204943D02*
X0098994Y0208345D01*
X0100696Y0208345D01*
X0101263Y0207778D01*
X0101263Y0206644D01*
X0102677Y0207211D02*
X0103812Y0208345D01*
X0106360Y0207211D02*
X0107495Y0208345D01*
X0107495Y0204943D01*
X0108629Y0204943D02*
X0106360Y0204943D01*
X0097580Y0208345D02*
X0095311Y0208345D01*
X0096445Y0208345D02*
X0096445Y0204943D01*
X0094568Y0199660D02*
X0092866Y0197959D01*
X0095135Y0197959D01*
X0094568Y0196257D02*
X0094568Y0199660D01*
X0090317Y0199660D02*
X0090317Y0196257D01*
X0089183Y0196257D02*
X0091452Y0196257D01*
X0089183Y0198526D02*
X0090317Y0199660D01*
X0087769Y0199093D02*
X0087201Y0199660D01*
X0086067Y0199660D01*
X0085500Y0199093D01*
X0085500Y0196825D01*
X0086067Y0196257D01*
X0087201Y0196257D01*
X0087769Y0196825D01*
X0083102Y0194128D02*
X0080833Y0191860D01*
X0080833Y0192994D02*
X0083102Y0192994D01*
X0083102Y0191860D02*
X0080833Y0194128D01*
X0081968Y0194128D02*
X0081968Y0191860D01*
X0080466Y0189928D02*
X0080466Y0189228D01*
X0080466Y0186828D01*
X0080466Y0186128D01*
X0080466Y0186828D02*
X0080397Y0186830D01*
X0080329Y0186836D01*
X0080261Y0186846D01*
X0080194Y0186859D01*
X0080128Y0186877D01*
X0080063Y0186898D01*
X0079999Y0186923D01*
X0079937Y0186951D01*
X0079876Y0186983D01*
X0079817Y0187018D01*
X0079761Y0187057D01*
X0079706Y0187099D01*
X0079655Y0187144D01*
X0079605Y0187192D01*
X0079559Y0187242D01*
X0079516Y0187295D01*
X0079475Y0187351D01*
X0079438Y0187408D01*
X0079405Y0187468D01*
X0079374Y0187530D01*
X0079348Y0187593D01*
X0079325Y0187657D01*
X0079305Y0187723D01*
X0079290Y0187790D01*
X0079278Y0187857D01*
X0079270Y0187925D01*
X0079266Y0187994D01*
X0079266Y0188062D01*
X0079270Y0188131D01*
X0079278Y0188199D01*
X0079290Y0188266D01*
X0079305Y0188333D01*
X0079325Y0188399D01*
X0079348Y0188463D01*
X0079374Y0188526D01*
X0079405Y0188588D01*
X0079438Y0188648D01*
X0079475Y0188705D01*
X0079516Y0188761D01*
X0079559Y0188814D01*
X0079605Y0188864D01*
X0079655Y0188912D01*
X0079706Y0188957D01*
X0079761Y0188999D01*
X0079817Y0189038D01*
X0079876Y0189073D01*
X0079937Y0189105D01*
X0079999Y0189133D01*
X0080063Y0189158D01*
X0080128Y0189179D01*
X0080194Y0189197D01*
X0080261Y0189210D01*
X0080329Y0189220D01*
X0080397Y0189226D01*
X0080466Y0189228D01*
X0075866Y0184728D02*
X0073266Y0184728D01*
X0068666Y0186128D02*
X0068666Y0189928D01*
X0066781Y0189527D02*
X0066781Y0188959D01*
X0064512Y0186691D01*
X0064512Y0186124D01*
X0063098Y0186691D02*
X0063098Y0189527D01*
X0064512Y0189527D02*
X0066781Y0189527D01*
X0063098Y0186691D02*
X0062531Y0186124D01*
X0061396Y0186124D01*
X0060829Y0186691D01*
X0060829Y0189527D01*
X0069650Y0200147D02*
X0069650Y0203550D01*
X0068516Y0203550D02*
X0070784Y0203550D01*
X0072199Y0202983D02*
X0072766Y0203550D01*
X0073900Y0203550D01*
X0074467Y0202983D01*
X0074467Y0202416D01*
X0072199Y0200147D01*
X0074467Y0200147D01*
X0086130Y0179058D02*
X0087831Y0179058D01*
X0088399Y0178491D01*
X0088399Y0177357D01*
X0087831Y0176789D01*
X0086130Y0176789D01*
X0086130Y0175655D02*
X0086130Y0179058D01*
X0087264Y0176789D02*
X0088399Y0175655D01*
X0089813Y0176222D02*
X0090380Y0175655D01*
X0091515Y0175655D01*
X0092082Y0176222D01*
X0092082Y0176789D01*
X0091515Y0177357D01*
X0090947Y0177357D01*
X0091515Y0177357D02*
X0092082Y0177924D01*
X0092082Y0178491D01*
X0091515Y0179058D01*
X0090380Y0179058D01*
X0089813Y0178491D01*
X0097500Y0179160D02*
X0099769Y0179160D01*
X0098634Y0179160D02*
X0098634Y0175757D01*
X0101183Y0175757D02*
X0101183Y0179160D01*
X0102885Y0179160D01*
X0103452Y0178593D01*
X0103452Y0177459D01*
X0102885Y0176892D01*
X0101183Y0176892D01*
X0104866Y0175190D02*
X0107135Y0175190D01*
X0108549Y0176325D02*
X0108549Y0178593D01*
X0109117Y0179160D01*
X0110251Y0179160D01*
X0110818Y0178593D01*
X0112233Y0179160D02*
X0112233Y0175757D01*
X0114501Y0175757D01*
X0115916Y0175757D02*
X0115916Y0179160D01*
X0116483Y0177459D02*
X0118184Y0175757D01*
X0115916Y0176892D02*
X0118184Y0179160D01*
X0110818Y0176325D02*
X0110251Y0175757D01*
X0109117Y0175757D01*
X0108549Y0176325D01*
X0117378Y0190443D02*
X0118512Y0190443D01*
X0119080Y0191010D01*
X0120494Y0190443D02*
X0122763Y0190443D01*
X0121628Y0190443D02*
X0121628Y0193845D01*
X0120494Y0192711D01*
X0119080Y0193278D02*
X0118512Y0193845D01*
X0117378Y0193845D01*
X0116811Y0193278D01*
X0116811Y0191010D01*
X0117378Y0190443D01*
X0124177Y0191010D02*
X0124744Y0190443D01*
X0125879Y0190443D01*
X0126446Y0191010D01*
X0126446Y0191577D01*
X0125879Y0192144D01*
X0125312Y0192144D01*
X0125879Y0192144D02*
X0126446Y0192711D01*
X0126446Y0193278D01*
X0125879Y0193845D01*
X0124744Y0193845D01*
X0124177Y0193278D01*
X0133311Y0194243D02*
X0135511Y0194243D01*
X0135511Y0185643D02*
X0133311Y0185643D01*
X0133911Y0186742D02*
X0133974Y0186769D01*
X0134039Y0186792D01*
X0134105Y0186812D01*
X0134172Y0186827D01*
X0134240Y0186839D01*
X0134308Y0186847D01*
X0134377Y0186851D01*
X0134445Y0186851D01*
X0134514Y0186847D01*
X0134582Y0186839D01*
X0134650Y0186827D01*
X0134717Y0186812D01*
X0134783Y0186792D01*
X0134848Y0186769D01*
X0134911Y0186742D01*
X0137242Y0185175D02*
X0139511Y0182907D01*
X0139511Y0184041D02*
X0137242Y0184041D01*
X0137242Y0182907D02*
X0139511Y0185175D01*
X0138377Y0185175D02*
X0138377Y0182907D01*
X0136828Y0181945D02*
X0136828Y0178543D01*
X0135694Y0178543D02*
X0137963Y0178543D01*
X0135694Y0180811D02*
X0136828Y0181945D01*
X0134280Y0181945D02*
X0134280Y0179110D01*
X0133712Y0178543D01*
X0132578Y0178543D01*
X0132011Y0179110D01*
X0132011Y0181945D01*
X0149800Y0191725D02*
X0150367Y0191157D01*
X0151501Y0191157D01*
X0152069Y0191725D01*
X0153483Y0191157D02*
X0153483Y0194560D01*
X0152069Y0193993D02*
X0151501Y0194560D01*
X0150367Y0194560D01*
X0149800Y0193993D01*
X0149800Y0191725D01*
X0153483Y0191157D02*
X0155752Y0191157D01*
X0157166Y0191157D02*
X0157166Y0194560D01*
X0157733Y0192859D02*
X0159435Y0191157D01*
X0160849Y0191157D02*
X0163118Y0193426D01*
X0163118Y0193993D01*
X0162551Y0194560D01*
X0161417Y0194560D01*
X0160849Y0193993D01*
X0159435Y0194560D02*
X0157166Y0192292D01*
X0160849Y0191157D02*
X0163118Y0191157D01*
X0172878Y0201943D02*
X0174012Y0201943D01*
X0174580Y0202510D01*
X0175994Y0201943D02*
X0178263Y0204211D01*
X0178263Y0204778D01*
X0177696Y0205345D01*
X0176561Y0205345D01*
X0175994Y0204778D01*
X0174580Y0204778D02*
X0174012Y0205345D01*
X0172878Y0205345D01*
X0172311Y0204778D01*
X0172311Y0202510D01*
X0172878Y0201943D01*
X0175994Y0201943D02*
X0178263Y0201943D01*
X0171379Y0213443D02*
X0170244Y0213443D01*
X0169677Y0214010D01*
X0168263Y0213443D02*
X0165994Y0213443D01*
X0167128Y0213443D02*
X0167128Y0216845D01*
X0165994Y0215711D01*
X0164580Y0215144D02*
X0164012Y0214577D01*
X0162311Y0214577D01*
X0163445Y0214577D02*
X0164580Y0213443D01*
X0164580Y0215144D02*
X0164580Y0216278D01*
X0164012Y0216845D01*
X0162311Y0216845D01*
X0162311Y0213443D01*
X0169677Y0216278D02*
X0170244Y0216845D01*
X0171379Y0216845D01*
X0171946Y0216278D01*
X0171946Y0215711D01*
X0171379Y0215144D01*
X0171946Y0214577D01*
X0171946Y0214010D01*
X0171379Y0213443D01*
X0171379Y0215144D02*
X0170812Y0215144D01*
X0176811Y0226443D02*
X0176811Y0229845D01*
X0178512Y0229845D01*
X0179080Y0229278D01*
X0179080Y0228144D01*
X0178512Y0227577D01*
X0176811Y0227577D01*
X0177945Y0227577D02*
X0179080Y0226443D01*
X0180494Y0227010D02*
X0181061Y0226443D01*
X0182196Y0226443D01*
X0182763Y0227010D01*
X0182763Y0229278D01*
X0182196Y0229845D01*
X0181061Y0229845D01*
X0180494Y0229278D01*
X0180494Y0228711D01*
X0181061Y0228144D01*
X0182763Y0228144D01*
X0185811Y0224778D02*
X0185811Y0222510D01*
X0186378Y0221943D01*
X0187512Y0221943D01*
X0188080Y0222510D01*
X0189494Y0222510D02*
X0189494Y0221943D01*
X0189494Y0222510D02*
X0191763Y0224778D01*
X0191763Y0225345D01*
X0189494Y0225345D01*
X0188080Y0224778D02*
X0187512Y0225345D01*
X0186378Y0225345D01*
X0185811Y0224778D01*
X0185879Y0234443D02*
X0184744Y0234443D01*
X0184177Y0235010D01*
X0186446Y0237278D01*
X0186446Y0235010D01*
X0185879Y0234443D01*
X0184177Y0235010D02*
X0184177Y0237278D01*
X0184744Y0237845D01*
X0185879Y0237845D01*
X0186446Y0237278D01*
X0182763Y0234443D02*
X0180494Y0234443D01*
X0181628Y0234443D02*
X0181628Y0237845D01*
X0180494Y0236711D01*
X0179080Y0236144D02*
X0178512Y0235577D01*
X0176811Y0235577D01*
X0177945Y0235577D02*
X0179080Y0234443D01*
X0179080Y0236144D02*
X0179080Y0237278D01*
X0178512Y0237845D01*
X0176811Y0237845D01*
X0176811Y0234443D01*
X0193411Y0214443D02*
X0195611Y0214443D01*
X0195611Y0205843D02*
X0193411Y0205843D01*
X0194011Y0206942D02*
X0194074Y0206969D01*
X0194139Y0206992D01*
X0194205Y0207012D01*
X0194272Y0207027D01*
X0194340Y0207039D01*
X0194408Y0207047D01*
X0194477Y0207051D01*
X0194545Y0207051D01*
X0194614Y0207047D01*
X0194682Y0207039D01*
X0194750Y0207027D01*
X0194817Y0207012D01*
X0194883Y0206992D01*
X0194948Y0206969D01*
X0195011Y0206942D01*
X0197342Y0205375D02*
X0199611Y0203107D01*
X0199611Y0204241D02*
X0197342Y0204241D01*
X0197342Y0203107D02*
X0199611Y0205375D01*
X0198477Y0205375D02*
X0198477Y0203107D01*
X0197663Y0202345D02*
X0195394Y0202345D01*
X0195394Y0200644D01*
X0196528Y0201211D01*
X0197096Y0201211D01*
X0197663Y0200644D01*
X0197663Y0199510D01*
X0197096Y0198943D01*
X0195961Y0198943D01*
X0195394Y0199510D01*
X0193980Y0199510D02*
X0193980Y0202345D01*
X0191711Y0202345D02*
X0191711Y0199510D01*
X0192278Y0198943D01*
X0193412Y0198943D01*
X0193980Y0199510D01*
X0208400Y0212125D02*
X0208967Y0211557D01*
X0210101Y0211557D01*
X0210669Y0212125D01*
X0212083Y0211557D02*
X0212083Y0214960D01*
X0210669Y0214393D02*
X0210101Y0214960D01*
X0208967Y0214960D01*
X0208400Y0214393D01*
X0208400Y0212125D01*
X0212083Y0211557D02*
X0214352Y0211557D01*
X0215766Y0211557D02*
X0215766Y0214960D01*
X0216333Y0213259D02*
X0218035Y0211557D01*
X0219449Y0211557D02*
X0221718Y0211557D01*
X0220584Y0211557D02*
X0220584Y0214960D01*
X0219449Y0213826D01*
X0218035Y0214960D02*
X0215766Y0212692D01*
X0230811Y0224010D02*
X0231378Y0223443D01*
X0232512Y0223443D01*
X0233080Y0224010D01*
X0234494Y0223443D02*
X0236763Y0223443D01*
X0235628Y0223443D02*
X0235628Y0226845D01*
X0234494Y0225711D01*
X0233080Y0226278D02*
X0232512Y0226845D01*
X0231378Y0226845D01*
X0230811Y0226278D01*
X0230811Y0224010D01*
X0231028Y0234895D02*
X0231028Y0238298D01*
X0233296Y0238298D01*
X0234711Y0238298D02*
X0234711Y0234895D01*
X0236412Y0234895D01*
X0236979Y0235462D01*
X0236979Y0236030D01*
X0236412Y0236597D01*
X0234711Y0236597D01*
X0236412Y0236597D02*
X0236979Y0237164D01*
X0236979Y0237731D01*
X0236412Y0238298D01*
X0234711Y0238298D01*
X0232162Y0236597D02*
X0231028Y0236597D01*
X0238394Y0237731D02*
X0238961Y0238298D01*
X0240095Y0238298D01*
X0240662Y0237731D01*
X0240662Y0237164D01*
X0238394Y0234895D01*
X0240662Y0234895D01*
X0251411Y0233943D02*
X0253611Y0233943D01*
X0253611Y0225343D02*
X0251411Y0225343D01*
X0252011Y0226442D02*
X0252074Y0226469D01*
X0252139Y0226492D01*
X0252205Y0226512D01*
X0252272Y0226527D01*
X0252340Y0226539D01*
X0252408Y0226547D01*
X0252477Y0226551D01*
X0252545Y0226551D01*
X0252614Y0226547D01*
X0252682Y0226539D01*
X0252750Y0226527D01*
X0252817Y0226512D01*
X0252883Y0226492D01*
X0252948Y0226469D01*
X0253011Y0226442D01*
X0255342Y0224875D02*
X0257611Y0222607D01*
X0257611Y0223741D02*
X0255342Y0223741D01*
X0255342Y0222607D02*
X0257611Y0224875D01*
X0256477Y0224875D02*
X0256477Y0222607D01*
X0255596Y0221345D02*
X0253894Y0219644D01*
X0256163Y0219644D01*
X0255596Y0217943D02*
X0255596Y0221345D01*
X0252480Y0221345D02*
X0252480Y0218510D01*
X0251912Y0217943D01*
X0250778Y0217943D01*
X0250211Y0218510D01*
X0250211Y0221345D01*
X0260945Y0240943D02*
X0260945Y0244345D01*
X0259811Y0244345D02*
X0262080Y0244345D01*
X0263494Y0244345D02*
X0263494Y0240943D01*
X0263494Y0242077D02*
X0265196Y0242077D01*
X0265763Y0242644D01*
X0265763Y0243778D01*
X0265196Y0244345D01*
X0263494Y0244345D01*
X0267177Y0243778D02*
X0267177Y0243211D01*
X0267744Y0242644D01*
X0269446Y0242644D01*
X0269446Y0243778D02*
X0268879Y0244345D01*
X0267744Y0244345D01*
X0267177Y0243778D01*
X0267177Y0241510D02*
X0267744Y0240943D01*
X0268879Y0240943D01*
X0269446Y0241510D01*
X0269446Y0243778D01*
X0278311Y0233045D02*
X0280580Y0233045D01*
X0279445Y0233045D02*
X0279445Y0229643D01*
X0281994Y0229643D02*
X0284263Y0233045D01*
X0285677Y0232478D02*
X0285677Y0230210D01*
X0287946Y0232478D01*
X0287946Y0230210D01*
X0287379Y0229643D01*
X0286244Y0229643D01*
X0285677Y0230210D01*
X0284263Y0229643D02*
X0281994Y0233045D01*
X0285677Y0232478D02*
X0286244Y0233045D01*
X0287379Y0233045D01*
X0287946Y0232478D01*
X0287428Y0224345D02*
X0288562Y0224345D01*
X0289129Y0223778D01*
X0286860Y0221510D01*
X0287428Y0220943D01*
X0288562Y0220943D01*
X0289129Y0221510D01*
X0289129Y0223778D01*
X0287428Y0224345D02*
X0286860Y0223778D01*
X0286860Y0221510D01*
X0285446Y0220943D02*
X0283744Y0222644D01*
X0283177Y0222077D02*
X0285446Y0224345D01*
X0283177Y0224345D02*
X0283177Y0220943D01*
X0281763Y0220943D02*
X0279494Y0220943D01*
X0279494Y0224345D01*
X0278080Y0223778D02*
X0277512Y0224345D01*
X0276378Y0224345D01*
X0275811Y0223778D01*
X0275811Y0221510D01*
X0276378Y0220943D01*
X0277512Y0220943D01*
X0278080Y0221510D01*
X0280311Y0214345D02*
X0282580Y0214345D01*
X0281445Y0214345D02*
X0281445Y0210943D01*
X0283994Y0210943D02*
X0286263Y0214345D01*
X0287677Y0213211D02*
X0288812Y0214345D01*
X0288812Y0210943D01*
X0289946Y0210943D02*
X0287677Y0210943D01*
X0286263Y0210943D02*
X0283994Y0214345D01*
X0284677Y0204345D02*
X0284677Y0200943D01*
X0284677Y0202077D02*
X0286946Y0204345D01*
X0288360Y0203211D02*
X0289495Y0204345D01*
X0289495Y0200943D01*
X0290629Y0200943D02*
X0288360Y0200943D01*
X0286946Y0200943D02*
X0285244Y0202644D01*
X0283263Y0200943D02*
X0280994Y0200943D01*
X0280994Y0204345D01*
X0279580Y0203778D02*
X0279012Y0204345D01*
X0277878Y0204345D01*
X0277311Y0203778D01*
X0277311Y0201510D01*
X0277878Y0200943D01*
X0279012Y0200943D01*
X0279580Y0201510D01*
X0280311Y0194345D02*
X0282580Y0194345D01*
X0281445Y0194345D02*
X0281445Y0190943D01*
X0283994Y0190943D02*
X0286263Y0194345D01*
X0287677Y0193778D02*
X0288244Y0194345D01*
X0289379Y0194345D01*
X0289946Y0193778D01*
X0289946Y0193211D01*
X0287677Y0190943D01*
X0289946Y0190943D01*
X0286263Y0190943D02*
X0283994Y0194345D01*
X0283677Y0183845D02*
X0283677Y0180443D01*
X0283677Y0181577D02*
X0285946Y0183845D01*
X0287360Y0183278D02*
X0287928Y0183845D01*
X0289062Y0183845D01*
X0289629Y0183278D01*
X0289629Y0182711D01*
X0287360Y0180443D01*
X0289629Y0180443D01*
X0285946Y0180443D02*
X0284244Y0182144D01*
X0282263Y0180443D02*
X0279994Y0180443D01*
X0279994Y0183845D01*
X0278580Y0183278D02*
X0278012Y0183845D01*
X0276878Y0183845D01*
X0276311Y0183278D01*
X0276311Y0181010D01*
X0276878Y0180443D01*
X0278012Y0180443D01*
X0278580Y0181010D01*
X0293134Y0163160D02*
X0294269Y0163160D01*
X0293701Y0163160D02*
X0293701Y0160325D01*
X0293134Y0159757D01*
X0292567Y0159757D01*
X0292000Y0160325D01*
X0295683Y0159757D02*
X0297952Y0159757D01*
X0296817Y0159757D02*
X0296817Y0163160D01*
X0295683Y0162026D01*
X0283946Y0156278D02*
X0283379Y0156845D01*
X0282244Y0156845D01*
X0281677Y0156278D01*
X0280263Y0156845D02*
X0277994Y0153443D01*
X0276580Y0153443D02*
X0275445Y0154577D01*
X0276012Y0154577D02*
X0274311Y0154577D01*
X0274311Y0153443D02*
X0274311Y0156845D01*
X0276012Y0156845D01*
X0276580Y0156278D01*
X0276580Y0155144D01*
X0276012Y0154577D01*
X0277994Y0156845D02*
X0280263Y0153443D01*
X0281677Y0153443D02*
X0283946Y0155711D01*
X0283946Y0156278D01*
X0283946Y0153443D02*
X0281677Y0153443D01*
X0282812Y0146845D02*
X0282812Y0143443D01*
X0283946Y0143443D02*
X0281677Y0143443D01*
X0280263Y0143443D02*
X0277994Y0146845D01*
X0276580Y0146278D02*
X0276580Y0145144D01*
X0276012Y0144577D01*
X0274311Y0144577D01*
X0275445Y0144577D02*
X0276580Y0143443D01*
X0277994Y0143443D02*
X0280263Y0146845D01*
X0281677Y0145711D02*
X0282812Y0146845D01*
X0276580Y0146278D02*
X0276012Y0146845D01*
X0274311Y0146845D01*
X0274311Y0143443D01*
X0274311Y0136345D02*
X0276012Y0136345D01*
X0276580Y0135778D01*
X0276580Y0134644D01*
X0276012Y0134077D01*
X0274311Y0134077D01*
X0275445Y0134077D02*
X0276580Y0132943D01*
X0277994Y0132943D02*
X0280263Y0136345D01*
X0281677Y0135778D02*
X0281677Y0133510D01*
X0283946Y0135778D01*
X0283946Y0133510D01*
X0283379Y0132943D01*
X0282244Y0132943D01*
X0281677Y0133510D01*
X0280263Y0132943D02*
X0277994Y0136345D01*
X0274311Y0136345D02*
X0274311Y0132943D01*
X0281677Y0135778D02*
X0282244Y0136345D01*
X0283379Y0136345D01*
X0283946Y0135778D01*
X0322700Y0139457D02*
X0322700Y0129457D01*
X0322700Y0119457D01*
X0322700Y0109457D01*
X0322700Y0099457D01*
X0322700Y0089457D01*
X0332700Y0089457D01*
X0332700Y0099457D01*
X0332700Y0109457D01*
X0332700Y0119457D01*
X0332700Y0129457D01*
X0332700Y0139457D01*
X0332700Y0149457D01*
X0332700Y0159457D01*
X0322700Y0159457D01*
X0322700Y0149457D01*
X0322700Y0139457D01*
X0332700Y0139457D01*
X0332700Y0129457D02*
X0322700Y0129457D01*
X0322700Y0119457D02*
X0332700Y0119457D01*
X0332700Y0109457D02*
X0322700Y0109457D01*
X0322700Y0099457D02*
X0332700Y0099457D01*
X0332700Y0149457D02*
X0322700Y0149457D01*
X0322700Y0177457D02*
X0332700Y0177457D01*
X0332700Y0187457D01*
X0332700Y0197457D01*
X0332700Y0207457D01*
X0332700Y0217457D01*
X0332700Y0227457D01*
X0332700Y0237457D01*
X0332700Y0247457D01*
X0322700Y0247457D01*
X0322700Y0237457D01*
X0322700Y0227457D01*
X0322700Y0217457D01*
X0322700Y0207457D01*
X0322700Y0197457D01*
X0322700Y0187457D01*
X0322700Y0177457D01*
X0322700Y0187457D02*
X0332700Y0187457D01*
X0332700Y0197457D02*
X0322700Y0197457D01*
X0322700Y0207457D02*
X0332700Y0207457D01*
X0332700Y0217457D02*
X0322700Y0217457D01*
X0322700Y0227457D02*
X0332700Y0227457D01*
X0332700Y0237457D02*
X0322700Y0237457D01*
X0298452Y0247657D02*
X0296183Y0247657D01*
X0298452Y0249926D01*
X0298452Y0250493D01*
X0297885Y0251060D01*
X0296750Y0251060D01*
X0296183Y0250493D01*
X0294769Y0251060D02*
X0293634Y0251060D01*
X0294201Y0251060D02*
X0294201Y0248225D01*
X0293634Y0247657D01*
X0293067Y0247657D01*
X0292500Y0248225D01*
X0267090Y0262143D02*
X0267092Y0262283D01*
X0267098Y0262423D01*
X0267108Y0262562D01*
X0267122Y0262701D01*
X0267140Y0262840D01*
X0267161Y0262978D01*
X0267187Y0263116D01*
X0267217Y0263253D01*
X0267250Y0263388D01*
X0267288Y0263523D01*
X0267329Y0263657D01*
X0267374Y0263790D01*
X0267422Y0263921D01*
X0267475Y0264050D01*
X0267531Y0264179D01*
X0267590Y0264305D01*
X0267654Y0264430D01*
X0267720Y0264553D01*
X0267791Y0264674D01*
X0267864Y0264793D01*
X0267941Y0264910D01*
X0268022Y0265024D01*
X0268105Y0265136D01*
X0268192Y0265246D01*
X0268282Y0265354D01*
X0268374Y0265458D01*
X0268470Y0265560D01*
X0268569Y0265660D01*
X0268670Y0265756D01*
X0268774Y0265850D01*
X0268881Y0265940D01*
X0268990Y0266027D01*
X0269102Y0266112D01*
X0269216Y0266193D01*
X0269332Y0266271D01*
X0269450Y0266345D01*
X0269571Y0266416D01*
X0269693Y0266484D01*
X0269818Y0266548D01*
X0269944Y0266609D01*
X0270071Y0266666D01*
X0270201Y0266719D01*
X0270332Y0266769D01*
X0270464Y0266814D01*
X0270597Y0266857D01*
X0270732Y0266895D01*
X0270867Y0266929D01*
X0271004Y0266960D01*
X0271141Y0266987D01*
X0271279Y0267009D01*
X0271418Y0267028D01*
X0271557Y0267043D01*
X0271696Y0267054D01*
X0271836Y0267061D01*
X0271976Y0267064D01*
X0272116Y0267063D01*
X0272256Y0267058D01*
X0272395Y0267049D01*
X0272535Y0267036D01*
X0272674Y0267019D01*
X0272812Y0266998D01*
X0272950Y0266974D01*
X0273087Y0266945D01*
X0273223Y0266913D01*
X0273358Y0266876D01*
X0273492Y0266836D01*
X0273625Y0266792D01*
X0273756Y0266744D01*
X0273886Y0266693D01*
X0274015Y0266638D01*
X0274142Y0266579D01*
X0274267Y0266516D01*
X0274390Y0266451D01*
X0274512Y0266381D01*
X0274631Y0266308D01*
X0274749Y0266232D01*
X0274864Y0266153D01*
X0274977Y0266070D01*
X0275087Y0265984D01*
X0275195Y0265895D01*
X0275300Y0265803D01*
X0275403Y0265708D01*
X0275503Y0265610D01*
X0275600Y0265510D01*
X0275694Y0265406D01*
X0275786Y0265300D01*
X0275874Y0265192D01*
X0275959Y0265081D01*
X0276041Y0264967D01*
X0276120Y0264851D01*
X0276195Y0264734D01*
X0276267Y0264614D01*
X0276335Y0264492D01*
X0276400Y0264368D01*
X0276462Y0264242D01*
X0276520Y0264115D01*
X0276574Y0263986D01*
X0276625Y0263855D01*
X0276671Y0263723D01*
X0276714Y0263590D01*
X0276754Y0263456D01*
X0276789Y0263321D01*
X0276821Y0263184D01*
X0276848Y0263047D01*
X0276872Y0262909D01*
X0276892Y0262771D01*
X0276908Y0262632D01*
X0276920Y0262492D01*
X0276928Y0262353D01*
X0276932Y0262213D01*
X0276932Y0262073D01*
X0276928Y0261933D01*
X0276920Y0261794D01*
X0276908Y0261654D01*
X0276892Y0261515D01*
X0276872Y0261377D01*
X0276848Y0261239D01*
X0276821Y0261102D01*
X0276789Y0260965D01*
X0276754Y0260830D01*
X0276714Y0260696D01*
X0276671Y0260563D01*
X0276625Y0260431D01*
X0276574Y0260300D01*
X0276520Y0260171D01*
X0276462Y0260044D01*
X0276400Y0259918D01*
X0276335Y0259794D01*
X0276267Y0259672D01*
X0276195Y0259552D01*
X0276120Y0259435D01*
X0276041Y0259319D01*
X0275959Y0259205D01*
X0275874Y0259094D01*
X0275786Y0258986D01*
X0275694Y0258880D01*
X0275600Y0258776D01*
X0275503Y0258676D01*
X0275403Y0258578D01*
X0275300Y0258483D01*
X0275195Y0258391D01*
X0275087Y0258302D01*
X0274977Y0258216D01*
X0274864Y0258133D01*
X0274749Y0258054D01*
X0274631Y0257978D01*
X0274512Y0257905D01*
X0274390Y0257835D01*
X0274267Y0257770D01*
X0274142Y0257707D01*
X0274015Y0257648D01*
X0273886Y0257593D01*
X0273756Y0257542D01*
X0273625Y0257494D01*
X0273492Y0257450D01*
X0273358Y0257410D01*
X0273223Y0257373D01*
X0273087Y0257341D01*
X0272950Y0257312D01*
X0272812Y0257288D01*
X0272674Y0257267D01*
X0272535Y0257250D01*
X0272395Y0257237D01*
X0272256Y0257228D01*
X0272116Y0257223D01*
X0271976Y0257222D01*
X0271836Y0257225D01*
X0271696Y0257232D01*
X0271557Y0257243D01*
X0271418Y0257258D01*
X0271279Y0257277D01*
X0271141Y0257299D01*
X0271004Y0257326D01*
X0270867Y0257357D01*
X0270732Y0257391D01*
X0270597Y0257429D01*
X0270464Y0257472D01*
X0270332Y0257517D01*
X0270201Y0257567D01*
X0270071Y0257620D01*
X0269944Y0257677D01*
X0269818Y0257738D01*
X0269693Y0257802D01*
X0269571Y0257870D01*
X0269450Y0257941D01*
X0269332Y0258015D01*
X0269216Y0258093D01*
X0269102Y0258174D01*
X0268990Y0258259D01*
X0268881Y0258346D01*
X0268774Y0258436D01*
X0268670Y0258530D01*
X0268569Y0258626D01*
X0268470Y0258726D01*
X0268374Y0258828D01*
X0268282Y0258932D01*
X0268192Y0259040D01*
X0268105Y0259150D01*
X0268022Y0259262D01*
X0267941Y0259376D01*
X0267864Y0259493D01*
X0267791Y0259612D01*
X0267720Y0259733D01*
X0267654Y0259856D01*
X0267590Y0259981D01*
X0267531Y0260107D01*
X0267475Y0260236D01*
X0267422Y0260365D01*
X0267374Y0260496D01*
X0267329Y0260629D01*
X0267288Y0260763D01*
X0267250Y0260898D01*
X0267217Y0261033D01*
X0267187Y0261170D01*
X0267161Y0261308D01*
X0267140Y0261446D01*
X0267122Y0261585D01*
X0267108Y0261724D01*
X0267098Y0261863D01*
X0267092Y0262003D01*
X0267090Y0262143D01*
X0268378Y0268443D02*
X0269512Y0268443D01*
X0270080Y0269010D01*
X0270080Y0270144D01*
X0268945Y0270144D01*
X0267811Y0271278D02*
X0267811Y0269010D01*
X0268378Y0268443D01*
X0267811Y0271278D02*
X0268378Y0271845D01*
X0269512Y0271845D01*
X0270080Y0271278D01*
X0271494Y0271845D02*
X0271494Y0268443D01*
X0273763Y0268443D02*
X0271494Y0271845D01*
X0273763Y0271845D02*
X0273763Y0268443D01*
X0275177Y0268443D02*
X0276879Y0268443D01*
X0277446Y0269010D01*
X0277446Y0271278D01*
X0276879Y0271845D01*
X0275177Y0271845D01*
X0275177Y0268443D01*
X0250812Y0249845D02*
X0250812Y0246443D01*
X0251946Y0246443D02*
X0249677Y0246443D01*
X0248263Y0246443D02*
X0245994Y0246443D01*
X0247128Y0246443D02*
X0247128Y0249845D01*
X0245994Y0248711D01*
X0244580Y0249278D02*
X0244012Y0249845D01*
X0242878Y0249845D01*
X0242311Y0249278D01*
X0242311Y0247010D01*
X0242878Y0246443D01*
X0244012Y0246443D01*
X0244580Y0247010D01*
X0249677Y0248711D02*
X0250812Y0249845D01*
X0151629Y0205778D02*
X0151629Y0203510D01*
X0151062Y0202943D01*
X0149928Y0202943D01*
X0149360Y0203510D01*
X0151629Y0205778D01*
X0151062Y0206345D01*
X0149928Y0206345D01*
X0149360Y0205778D01*
X0149360Y0203510D01*
X0147946Y0202943D02*
X0145677Y0202943D01*
X0146812Y0202943D02*
X0146812Y0206345D01*
X0145677Y0205211D01*
X0144263Y0205778D02*
X0144263Y0204644D01*
X0143696Y0204077D01*
X0141994Y0204077D01*
X0141994Y0202943D02*
X0141994Y0206345D01*
X0143696Y0206345D01*
X0144263Y0205778D01*
X0140580Y0206345D02*
X0138311Y0206345D01*
X0139445Y0206345D02*
X0139445Y0202943D01*
X0126446Y0205510D02*
X0125879Y0204943D01*
X0124744Y0204943D01*
X0124177Y0205510D01*
X0126446Y0207778D01*
X0126446Y0205510D01*
X0126446Y0207778D02*
X0125879Y0208345D01*
X0124744Y0208345D01*
X0124177Y0207778D01*
X0124177Y0205510D01*
X0122763Y0204943D02*
X0120494Y0204943D01*
X0122763Y0207211D01*
X0122763Y0207778D01*
X0122196Y0208345D01*
X0121061Y0208345D01*
X0120494Y0207778D01*
X0119080Y0207778D02*
X0119080Y0206644D01*
X0118512Y0206077D01*
X0116811Y0206077D01*
X0117945Y0206077D02*
X0119080Y0204943D01*
X0116811Y0204943D02*
X0116811Y0208345D01*
X0118512Y0208345D01*
X0119080Y0207778D01*
X0095111Y0217243D02*
X0095111Y0220645D01*
X0106445Y0242443D02*
X0106445Y0245845D01*
X0105311Y0245845D02*
X0107580Y0245845D01*
X0108994Y0245845D02*
X0108994Y0242443D01*
X0108994Y0243577D02*
X0110696Y0243577D01*
X0111263Y0244144D01*
X0111263Y0245278D01*
X0110696Y0245845D01*
X0108994Y0245845D01*
X0112677Y0244711D02*
X0113812Y0245845D01*
X0113812Y0242443D01*
X0114946Y0242443D02*
X0112677Y0242443D01*
X0116360Y0242443D02*
X0118629Y0244711D01*
X0118629Y0245278D01*
X0118062Y0245845D01*
X0116928Y0245845D01*
X0116360Y0245278D01*
X0116360Y0242443D02*
X0118629Y0242443D01*
X0083090Y0168143D02*
X0083092Y0168283D01*
X0083098Y0168423D01*
X0083108Y0168562D01*
X0083122Y0168701D01*
X0083140Y0168840D01*
X0083161Y0168978D01*
X0083187Y0169116D01*
X0083217Y0169253D01*
X0083250Y0169388D01*
X0083288Y0169523D01*
X0083329Y0169657D01*
X0083374Y0169790D01*
X0083422Y0169921D01*
X0083475Y0170050D01*
X0083531Y0170179D01*
X0083590Y0170305D01*
X0083654Y0170430D01*
X0083720Y0170553D01*
X0083791Y0170674D01*
X0083864Y0170793D01*
X0083941Y0170910D01*
X0084022Y0171024D01*
X0084105Y0171136D01*
X0084192Y0171246D01*
X0084282Y0171354D01*
X0084374Y0171458D01*
X0084470Y0171560D01*
X0084569Y0171660D01*
X0084670Y0171756D01*
X0084774Y0171850D01*
X0084881Y0171940D01*
X0084990Y0172027D01*
X0085102Y0172112D01*
X0085216Y0172193D01*
X0085332Y0172271D01*
X0085450Y0172345D01*
X0085571Y0172416D01*
X0085693Y0172484D01*
X0085818Y0172548D01*
X0085944Y0172609D01*
X0086071Y0172666D01*
X0086201Y0172719D01*
X0086332Y0172769D01*
X0086464Y0172814D01*
X0086597Y0172857D01*
X0086732Y0172895D01*
X0086867Y0172929D01*
X0087004Y0172960D01*
X0087141Y0172987D01*
X0087279Y0173009D01*
X0087418Y0173028D01*
X0087557Y0173043D01*
X0087696Y0173054D01*
X0087836Y0173061D01*
X0087976Y0173064D01*
X0088116Y0173063D01*
X0088256Y0173058D01*
X0088395Y0173049D01*
X0088535Y0173036D01*
X0088674Y0173019D01*
X0088812Y0172998D01*
X0088950Y0172974D01*
X0089087Y0172945D01*
X0089223Y0172913D01*
X0089358Y0172876D01*
X0089492Y0172836D01*
X0089625Y0172792D01*
X0089756Y0172744D01*
X0089886Y0172693D01*
X0090015Y0172638D01*
X0090142Y0172579D01*
X0090267Y0172516D01*
X0090390Y0172451D01*
X0090512Y0172381D01*
X0090631Y0172308D01*
X0090749Y0172232D01*
X0090864Y0172153D01*
X0090977Y0172070D01*
X0091087Y0171984D01*
X0091195Y0171895D01*
X0091300Y0171803D01*
X0091403Y0171708D01*
X0091503Y0171610D01*
X0091600Y0171510D01*
X0091694Y0171406D01*
X0091786Y0171300D01*
X0091874Y0171192D01*
X0091959Y0171081D01*
X0092041Y0170967D01*
X0092120Y0170851D01*
X0092195Y0170734D01*
X0092267Y0170614D01*
X0092335Y0170492D01*
X0092400Y0170368D01*
X0092462Y0170242D01*
X0092520Y0170115D01*
X0092574Y0169986D01*
X0092625Y0169855D01*
X0092671Y0169723D01*
X0092714Y0169590D01*
X0092754Y0169456D01*
X0092789Y0169321D01*
X0092821Y0169184D01*
X0092848Y0169047D01*
X0092872Y0168909D01*
X0092892Y0168771D01*
X0092908Y0168632D01*
X0092920Y0168492D01*
X0092928Y0168353D01*
X0092932Y0168213D01*
X0092932Y0168073D01*
X0092928Y0167933D01*
X0092920Y0167794D01*
X0092908Y0167654D01*
X0092892Y0167515D01*
X0092872Y0167377D01*
X0092848Y0167239D01*
X0092821Y0167102D01*
X0092789Y0166965D01*
X0092754Y0166830D01*
X0092714Y0166696D01*
X0092671Y0166563D01*
X0092625Y0166431D01*
X0092574Y0166300D01*
X0092520Y0166171D01*
X0092462Y0166044D01*
X0092400Y0165918D01*
X0092335Y0165794D01*
X0092267Y0165672D01*
X0092195Y0165552D01*
X0092120Y0165435D01*
X0092041Y0165319D01*
X0091959Y0165205D01*
X0091874Y0165094D01*
X0091786Y0164986D01*
X0091694Y0164880D01*
X0091600Y0164776D01*
X0091503Y0164676D01*
X0091403Y0164578D01*
X0091300Y0164483D01*
X0091195Y0164391D01*
X0091087Y0164302D01*
X0090977Y0164216D01*
X0090864Y0164133D01*
X0090749Y0164054D01*
X0090631Y0163978D01*
X0090512Y0163905D01*
X0090390Y0163835D01*
X0090267Y0163770D01*
X0090142Y0163707D01*
X0090015Y0163648D01*
X0089886Y0163593D01*
X0089756Y0163542D01*
X0089625Y0163494D01*
X0089492Y0163450D01*
X0089358Y0163410D01*
X0089223Y0163373D01*
X0089087Y0163341D01*
X0088950Y0163312D01*
X0088812Y0163288D01*
X0088674Y0163267D01*
X0088535Y0163250D01*
X0088395Y0163237D01*
X0088256Y0163228D01*
X0088116Y0163223D01*
X0087976Y0163222D01*
X0087836Y0163225D01*
X0087696Y0163232D01*
X0087557Y0163243D01*
X0087418Y0163258D01*
X0087279Y0163277D01*
X0087141Y0163299D01*
X0087004Y0163326D01*
X0086867Y0163357D01*
X0086732Y0163391D01*
X0086597Y0163429D01*
X0086464Y0163472D01*
X0086332Y0163517D01*
X0086201Y0163567D01*
X0086071Y0163620D01*
X0085944Y0163677D01*
X0085818Y0163738D01*
X0085693Y0163802D01*
X0085571Y0163870D01*
X0085450Y0163941D01*
X0085332Y0164015D01*
X0085216Y0164093D01*
X0085102Y0164174D01*
X0084990Y0164259D01*
X0084881Y0164346D01*
X0084774Y0164436D01*
X0084670Y0164530D01*
X0084569Y0164626D01*
X0084470Y0164726D01*
X0084374Y0164828D01*
X0084282Y0164932D01*
X0084192Y0165040D01*
X0084105Y0165150D01*
X0084022Y0165262D01*
X0083941Y0165376D01*
X0083864Y0165493D01*
X0083791Y0165612D01*
X0083720Y0165733D01*
X0083654Y0165856D01*
X0083590Y0165981D01*
X0083531Y0166107D01*
X0083475Y0166236D01*
X0083422Y0166365D01*
X0083374Y0166496D01*
X0083329Y0166629D01*
X0083288Y0166763D01*
X0083250Y0166898D01*
X0083217Y0167033D01*
X0083187Y0167170D01*
X0083161Y0167308D01*
X0083140Y0167446D01*
X0083122Y0167585D01*
X0083108Y0167724D01*
X0083098Y0167863D01*
X0083092Y0168003D01*
X0083090Y0168143D01*
X0084095Y0161798D02*
X0085229Y0161798D01*
X0085796Y0161231D01*
X0085796Y0160664D01*
X0085229Y0160097D01*
X0085796Y0159530D01*
X0085796Y0158962D01*
X0085229Y0158395D01*
X0084095Y0158395D01*
X0083528Y0158962D01*
X0084662Y0160097D02*
X0085229Y0160097D01*
X0083528Y0161231D02*
X0084095Y0161798D01*
X0087211Y0161798D02*
X0087211Y0159530D01*
X0088345Y0158395D01*
X0089479Y0159530D01*
X0089479Y0161798D01*
X0090894Y0161231D02*
X0091461Y0161798D01*
X0092595Y0161798D01*
X0093162Y0161231D01*
X0093162Y0160664D01*
X0092595Y0160097D01*
X0093162Y0159530D01*
X0093162Y0158962D01*
X0092595Y0158395D01*
X0091461Y0158395D01*
X0090894Y0158962D01*
X0092028Y0160097D02*
X0092595Y0160097D01*
X0092580Y0143845D02*
X0090311Y0143845D01*
X0091445Y0143845D02*
X0091445Y0140443D01*
X0093994Y0140443D02*
X0093994Y0143845D01*
X0095696Y0143845D01*
X0096263Y0143278D01*
X0096263Y0142144D01*
X0095696Y0141577D01*
X0093994Y0141577D01*
X0097677Y0141010D02*
X0098244Y0140443D01*
X0099379Y0140443D01*
X0099946Y0141010D01*
X0099946Y0141577D01*
X0099379Y0142144D01*
X0098812Y0142144D01*
X0099379Y0142144D02*
X0099946Y0142711D01*
X0099946Y0143278D01*
X0099379Y0143845D01*
X0098244Y0143845D01*
X0097677Y0143278D01*
X0100811Y0138345D02*
X0102512Y0138345D01*
X0103080Y0137778D01*
X0103080Y0136644D01*
X0102512Y0136077D01*
X0100811Y0136077D01*
X0101945Y0136077D02*
X0103080Y0134943D01*
X0104494Y0134943D02*
X0106763Y0134943D01*
X0105628Y0134943D02*
X0105628Y0138345D01*
X0104494Y0137211D01*
X0108177Y0136644D02*
X0109879Y0138345D01*
X0109879Y0134943D01*
X0110446Y0136644D02*
X0108177Y0136644D01*
X0100811Y0134943D02*
X0100811Y0138345D01*
X0076063Y0134643D02*
X0073794Y0134643D01*
X0074928Y0134643D02*
X0074928Y0138045D01*
X0073794Y0136911D01*
X0072380Y0138045D02*
X0070111Y0138045D01*
X0071245Y0138045D02*
X0071245Y0134643D01*
X0103711Y0116345D02*
X0103711Y0113510D01*
X0104278Y0112943D01*
X0105412Y0112943D01*
X0105980Y0113510D01*
X0105980Y0116345D01*
X0107394Y0114644D02*
X0109096Y0114644D01*
X0109663Y0114077D01*
X0109663Y0113510D01*
X0109096Y0112943D01*
X0107961Y0112943D01*
X0107394Y0113510D01*
X0107394Y0114644D01*
X0108528Y0115778D01*
X0109663Y0116345D01*
X0111111Y0116543D02*
X0111111Y0112743D01*
X0115711Y0111343D02*
X0118311Y0111343D01*
X0122911Y0112743D02*
X0122911Y0113443D01*
X0122911Y0115843D01*
X0122911Y0116543D01*
X0122911Y0115843D02*
X0122842Y0115841D01*
X0122774Y0115835D01*
X0122706Y0115825D01*
X0122639Y0115812D01*
X0122573Y0115794D01*
X0122508Y0115773D01*
X0122444Y0115748D01*
X0122382Y0115720D01*
X0122321Y0115688D01*
X0122262Y0115653D01*
X0122206Y0115614D01*
X0122151Y0115572D01*
X0122100Y0115527D01*
X0122050Y0115479D01*
X0122004Y0115429D01*
X0121961Y0115376D01*
X0121920Y0115320D01*
X0121883Y0115263D01*
X0121850Y0115203D01*
X0121819Y0115141D01*
X0121793Y0115078D01*
X0121770Y0115014D01*
X0121750Y0114948D01*
X0121735Y0114881D01*
X0121723Y0114814D01*
X0121715Y0114746D01*
X0121711Y0114677D01*
X0121711Y0114609D01*
X0121715Y0114540D01*
X0121723Y0114472D01*
X0121735Y0114405D01*
X0121750Y0114338D01*
X0121770Y0114272D01*
X0121793Y0114208D01*
X0121819Y0114145D01*
X0121850Y0114083D01*
X0121883Y0114023D01*
X0121920Y0113966D01*
X0121961Y0113910D01*
X0122004Y0113857D01*
X0122050Y0113807D01*
X0122100Y0113759D01*
X0122151Y0113714D01*
X0122206Y0113672D01*
X0122262Y0113633D01*
X0122321Y0113598D01*
X0122382Y0113566D01*
X0122444Y0113538D01*
X0122508Y0113513D01*
X0122573Y0113492D01*
X0122639Y0113474D01*
X0122706Y0113461D01*
X0122774Y0113451D01*
X0122842Y0113445D01*
X0122911Y0113443D01*
X0123278Y0118474D02*
X0125547Y0120743D01*
X0124412Y0120743D02*
X0124412Y0118474D01*
X0125547Y0118474D02*
X0123278Y0120743D01*
X0123278Y0119608D02*
X0125547Y0119608D01*
X0126012Y0128943D02*
X0126580Y0129510D01*
X0126012Y0128943D02*
X0124878Y0128943D01*
X0124311Y0129510D01*
X0124311Y0131778D01*
X0124878Y0132345D01*
X0126012Y0132345D01*
X0126580Y0131778D01*
X0127994Y0131211D02*
X0129128Y0132345D01*
X0129128Y0128943D01*
X0127994Y0128943D02*
X0130263Y0128943D01*
X0131677Y0129510D02*
X0133946Y0131778D01*
X0133946Y0129510D01*
X0133379Y0128943D01*
X0132244Y0128943D01*
X0131677Y0129510D01*
X0131677Y0131778D01*
X0132244Y0132345D01*
X0133379Y0132345D01*
X0133946Y0131778D01*
X0142311Y0132845D02*
X0142311Y0129443D01*
X0142311Y0130577D02*
X0144012Y0130577D01*
X0144580Y0131144D01*
X0144580Y0132278D01*
X0144012Y0132845D01*
X0142311Y0132845D01*
X0143445Y0130577D02*
X0144580Y0129443D01*
X0145994Y0129443D02*
X0148263Y0131711D01*
X0148263Y0132278D01*
X0147696Y0132845D01*
X0146561Y0132845D01*
X0145994Y0132278D01*
X0145994Y0129443D02*
X0148263Y0129443D01*
X0155211Y0121443D02*
X0157811Y0121443D01*
X0162411Y0120043D02*
X0162411Y0116243D01*
X0168811Y0109845D02*
X0170512Y0109845D01*
X0171080Y0109278D01*
X0171080Y0108144D01*
X0170512Y0107577D01*
X0168811Y0107577D01*
X0169945Y0107577D02*
X0171080Y0106443D01*
X0172494Y0107010D02*
X0173061Y0106443D01*
X0174196Y0106443D01*
X0174763Y0107010D01*
X0174763Y0108144D01*
X0174196Y0108711D01*
X0173628Y0108711D01*
X0172494Y0108144D01*
X0172494Y0109845D01*
X0174763Y0109845D01*
X0168811Y0109845D02*
X0168811Y0106443D01*
X0168696Y0103845D02*
X0169263Y0103278D01*
X0169263Y0102711D01*
X0168696Y0102144D01*
X0169263Y0101577D01*
X0169263Y0101010D01*
X0168696Y0100443D01*
X0167561Y0100443D01*
X0166994Y0101010D01*
X0165580Y0101010D02*
X0165012Y0100443D01*
X0163878Y0100443D01*
X0163311Y0101010D01*
X0163311Y0103278D01*
X0163878Y0103845D01*
X0165012Y0103845D01*
X0165580Y0103278D01*
X0166994Y0103278D02*
X0167561Y0103845D01*
X0168696Y0103845D01*
X0168696Y0102144D02*
X0168128Y0102144D01*
X0168696Y0092845D02*
X0166994Y0091144D01*
X0169263Y0091144D01*
X0168696Y0089443D02*
X0168696Y0092845D01*
X0165580Y0092278D02*
X0165580Y0091144D01*
X0165012Y0090577D01*
X0163311Y0090577D01*
X0164445Y0090577D02*
X0165580Y0089443D01*
X0163311Y0089443D02*
X0163311Y0092845D01*
X0165012Y0092845D01*
X0165580Y0092278D01*
X0165012Y0084345D02*
X0163311Y0084345D01*
X0163311Y0080943D01*
X0165012Y0080943D01*
X0165580Y0081510D01*
X0165580Y0083778D01*
X0165012Y0084345D01*
X0166994Y0083211D02*
X0168128Y0084345D01*
X0168128Y0080943D01*
X0166994Y0080943D02*
X0169263Y0080943D01*
X0179445Y0099943D02*
X0179445Y0103345D01*
X0178311Y0103345D02*
X0180580Y0103345D01*
X0181994Y0103345D02*
X0183696Y0103345D01*
X0184263Y0102778D01*
X0184263Y0101644D01*
X0183696Y0101077D01*
X0181994Y0101077D01*
X0181994Y0099943D02*
X0181994Y0103345D01*
X0185677Y0103345D02*
X0185677Y0101644D01*
X0186812Y0102211D01*
X0187379Y0102211D01*
X0187946Y0101644D01*
X0187946Y0100510D01*
X0187379Y0099943D01*
X0186244Y0099943D01*
X0185677Y0100510D01*
X0185677Y0103345D02*
X0187946Y0103345D01*
X0197811Y0107943D02*
X0197811Y0111345D01*
X0199512Y0111345D01*
X0200080Y0110778D01*
X0200080Y0109644D01*
X0199512Y0109077D01*
X0197811Y0109077D01*
X0198945Y0109077D02*
X0200080Y0107943D01*
X0201494Y0107943D02*
X0201494Y0108510D01*
X0203763Y0110778D01*
X0203763Y0111345D01*
X0201494Y0111345D01*
X0195196Y0124943D02*
X0194061Y0124943D01*
X0193494Y0125510D01*
X0193494Y0126077D01*
X0194061Y0126644D01*
X0195196Y0126644D01*
X0195763Y0126077D01*
X0195763Y0125510D01*
X0195196Y0124943D01*
X0195196Y0126644D02*
X0195763Y0127211D01*
X0195763Y0127778D01*
X0195196Y0128345D01*
X0194061Y0128345D01*
X0193494Y0127778D01*
X0193494Y0127211D01*
X0194061Y0126644D01*
X0192080Y0126644D02*
X0191512Y0126077D01*
X0189811Y0126077D01*
X0190945Y0126077D02*
X0192080Y0124943D01*
X0192080Y0126644D02*
X0192080Y0127778D01*
X0191512Y0128345D01*
X0189811Y0128345D01*
X0189811Y0124943D01*
X0187196Y0124943D02*
X0187196Y0128345D01*
X0185494Y0126644D01*
X0187763Y0126644D01*
X0184080Y0127778D02*
X0183512Y0128345D01*
X0182378Y0128345D01*
X0181811Y0127778D01*
X0181811Y0125510D01*
X0182378Y0124943D01*
X0183512Y0124943D01*
X0184080Y0125510D01*
X0181994Y0132943D02*
X0181994Y0136345D01*
X0183696Y0136345D01*
X0184263Y0135778D01*
X0184263Y0134644D01*
X0183696Y0134077D01*
X0181994Y0134077D01*
X0180580Y0136345D02*
X0178311Y0136345D01*
X0179445Y0136345D02*
X0179445Y0132943D01*
X0174763Y0129845D02*
X0173628Y0129278D01*
X0172494Y0128144D01*
X0174196Y0128144D01*
X0174763Y0127577D01*
X0174763Y0127010D01*
X0174196Y0126443D01*
X0173061Y0126443D01*
X0172494Y0127010D01*
X0172494Y0128144D01*
X0171080Y0128144D02*
X0170512Y0127577D01*
X0168811Y0127577D01*
X0169945Y0127577D02*
X0171080Y0126443D01*
X0171080Y0128144D02*
X0171080Y0129278D01*
X0170512Y0129845D01*
X0168811Y0129845D01*
X0168811Y0126443D01*
X0169196Y0136443D02*
X0168061Y0136443D01*
X0167494Y0137010D01*
X0167494Y0138144D02*
X0168628Y0138711D01*
X0169196Y0138711D01*
X0169763Y0138144D01*
X0169763Y0137010D01*
X0169196Y0136443D01*
X0167494Y0138144D02*
X0167494Y0139845D01*
X0169763Y0139845D01*
X0166080Y0139278D02*
X0165512Y0139845D01*
X0164378Y0139845D01*
X0163811Y0139278D01*
X0163811Y0137010D01*
X0164378Y0136443D01*
X0165512Y0136443D01*
X0166080Y0137010D01*
X0185677Y0134644D02*
X0185677Y0133510D01*
X0186244Y0132943D01*
X0187379Y0132943D01*
X0187946Y0133510D01*
X0187946Y0134077D01*
X0187379Y0134644D01*
X0185677Y0134644D01*
X0186812Y0135778D01*
X0187946Y0136345D01*
X0204311Y0136345D02*
X0206580Y0136345D01*
X0205445Y0136345D02*
X0205445Y0132943D01*
X0207994Y0132943D02*
X0207994Y0136345D01*
X0209696Y0136345D01*
X0210263Y0135778D01*
X0210263Y0134644D01*
X0209696Y0134077D01*
X0207994Y0134077D01*
X0211677Y0133510D02*
X0211677Y0132943D01*
X0211677Y0133510D02*
X0213946Y0135778D01*
X0213946Y0136345D01*
X0211677Y0136345D01*
X0234311Y0111345D02*
X0236580Y0111345D01*
X0235445Y0111345D02*
X0235445Y0107943D01*
X0237994Y0107943D02*
X0237994Y0111345D01*
X0239696Y0111345D01*
X0240263Y0110778D01*
X0240263Y0109644D01*
X0239696Y0109077D01*
X0237994Y0109077D01*
X0241677Y0110211D02*
X0242812Y0111345D01*
X0242812Y0107943D01*
X0243946Y0107943D02*
X0241677Y0107943D01*
X0237696Y0093345D02*
X0236561Y0093345D01*
X0235994Y0092778D01*
X0235994Y0092211D01*
X0236561Y0091644D01*
X0238263Y0091644D01*
X0238263Y0092778D02*
X0237696Y0093345D01*
X0238263Y0092778D02*
X0238263Y0090510D01*
X0237696Y0089943D01*
X0236561Y0089943D01*
X0235994Y0090510D01*
X0234580Y0090510D02*
X0234012Y0089943D01*
X0232878Y0089943D01*
X0232311Y0090510D01*
X0232311Y0092778D01*
X0232878Y0093345D01*
X0234012Y0093345D01*
X0234580Y0092778D01*
X0225162Y0097895D02*
X0222894Y0097895D01*
X0224028Y0097895D02*
X0224028Y0101298D01*
X0222894Y0100164D01*
X0221479Y0100164D02*
X0220912Y0099597D01*
X0219211Y0099597D01*
X0220912Y0099597D02*
X0221479Y0099030D01*
X0221479Y0098462D01*
X0220912Y0097895D01*
X0219211Y0097895D01*
X0219211Y0101298D01*
X0220912Y0101298D01*
X0221479Y0100731D01*
X0221479Y0100164D01*
X0217796Y0101298D02*
X0215528Y0101298D01*
X0215528Y0097895D01*
X0215528Y0099597D02*
X0216662Y0099597D01*
X0252311Y0093345D02*
X0252311Y0089943D01*
X0252311Y0091077D02*
X0254012Y0091077D01*
X0254580Y0091644D01*
X0254580Y0092778D01*
X0254012Y0093345D01*
X0252311Y0093345D01*
X0253445Y0091077D02*
X0254580Y0089943D01*
X0255994Y0089943D02*
X0258263Y0089943D01*
X0257128Y0089943D02*
X0257128Y0093345D01*
X0255994Y0092211D01*
X0267528Y0081731D02*
X0267528Y0079462D01*
X0268095Y0078895D01*
X0269229Y0078895D01*
X0269796Y0079462D01*
X0269796Y0080597D01*
X0268662Y0080597D01*
X0269796Y0081731D02*
X0269229Y0082298D01*
X0268095Y0082298D01*
X0267528Y0081731D01*
X0271211Y0082298D02*
X0273479Y0078895D01*
X0273479Y0082298D01*
X0274894Y0082298D02*
X0274894Y0078895D01*
X0276595Y0078895D01*
X0277162Y0079462D01*
X0277162Y0081731D01*
X0276595Y0082298D01*
X0274894Y0082298D01*
X0271211Y0082298D02*
X0271211Y0078895D01*
X0267090Y0072643D02*
X0267092Y0072783D01*
X0267098Y0072923D01*
X0267108Y0073062D01*
X0267122Y0073201D01*
X0267140Y0073340D01*
X0267161Y0073478D01*
X0267187Y0073616D01*
X0267217Y0073753D01*
X0267250Y0073888D01*
X0267288Y0074023D01*
X0267329Y0074157D01*
X0267374Y0074290D01*
X0267422Y0074421D01*
X0267475Y0074550D01*
X0267531Y0074679D01*
X0267590Y0074805D01*
X0267654Y0074930D01*
X0267720Y0075053D01*
X0267791Y0075174D01*
X0267864Y0075293D01*
X0267941Y0075410D01*
X0268022Y0075524D01*
X0268105Y0075636D01*
X0268192Y0075746D01*
X0268282Y0075854D01*
X0268374Y0075958D01*
X0268470Y0076060D01*
X0268569Y0076160D01*
X0268670Y0076256D01*
X0268774Y0076350D01*
X0268881Y0076440D01*
X0268990Y0076527D01*
X0269102Y0076612D01*
X0269216Y0076693D01*
X0269332Y0076771D01*
X0269450Y0076845D01*
X0269571Y0076916D01*
X0269693Y0076984D01*
X0269818Y0077048D01*
X0269944Y0077109D01*
X0270071Y0077166D01*
X0270201Y0077219D01*
X0270332Y0077269D01*
X0270464Y0077314D01*
X0270597Y0077357D01*
X0270732Y0077395D01*
X0270867Y0077429D01*
X0271004Y0077460D01*
X0271141Y0077487D01*
X0271279Y0077509D01*
X0271418Y0077528D01*
X0271557Y0077543D01*
X0271696Y0077554D01*
X0271836Y0077561D01*
X0271976Y0077564D01*
X0272116Y0077563D01*
X0272256Y0077558D01*
X0272395Y0077549D01*
X0272535Y0077536D01*
X0272674Y0077519D01*
X0272812Y0077498D01*
X0272950Y0077474D01*
X0273087Y0077445D01*
X0273223Y0077413D01*
X0273358Y0077376D01*
X0273492Y0077336D01*
X0273625Y0077292D01*
X0273756Y0077244D01*
X0273886Y0077193D01*
X0274015Y0077138D01*
X0274142Y0077079D01*
X0274267Y0077016D01*
X0274390Y0076951D01*
X0274512Y0076881D01*
X0274631Y0076808D01*
X0274749Y0076732D01*
X0274864Y0076653D01*
X0274977Y0076570D01*
X0275087Y0076484D01*
X0275195Y0076395D01*
X0275300Y0076303D01*
X0275403Y0076208D01*
X0275503Y0076110D01*
X0275600Y0076010D01*
X0275694Y0075906D01*
X0275786Y0075800D01*
X0275874Y0075692D01*
X0275959Y0075581D01*
X0276041Y0075467D01*
X0276120Y0075351D01*
X0276195Y0075234D01*
X0276267Y0075114D01*
X0276335Y0074992D01*
X0276400Y0074868D01*
X0276462Y0074742D01*
X0276520Y0074615D01*
X0276574Y0074486D01*
X0276625Y0074355D01*
X0276671Y0074223D01*
X0276714Y0074090D01*
X0276754Y0073956D01*
X0276789Y0073821D01*
X0276821Y0073684D01*
X0276848Y0073547D01*
X0276872Y0073409D01*
X0276892Y0073271D01*
X0276908Y0073132D01*
X0276920Y0072992D01*
X0276928Y0072853D01*
X0276932Y0072713D01*
X0276932Y0072573D01*
X0276928Y0072433D01*
X0276920Y0072294D01*
X0276908Y0072154D01*
X0276892Y0072015D01*
X0276872Y0071877D01*
X0276848Y0071739D01*
X0276821Y0071602D01*
X0276789Y0071465D01*
X0276754Y0071330D01*
X0276714Y0071196D01*
X0276671Y0071063D01*
X0276625Y0070931D01*
X0276574Y0070800D01*
X0276520Y0070671D01*
X0276462Y0070544D01*
X0276400Y0070418D01*
X0276335Y0070294D01*
X0276267Y0070172D01*
X0276195Y0070052D01*
X0276120Y0069935D01*
X0276041Y0069819D01*
X0275959Y0069705D01*
X0275874Y0069594D01*
X0275786Y0069486D01*
X0275694Y0069380D01*
X0275600Y0069276D01*
X0275503Y0069176D01*
X0275403Y0069078D01*
X0275300Y0068983D01*
X0275195Y0068891D01*
X0275087Y0068802D01*
X0274977Y0068716D01*
X0274864Y0068633D01*
X0274749Y0068554D01*
X0274631Y0068478D01*
X0274512Y0068405D01*
X0274390Y0068335D01*
X0274267Y0068270D01*
X0274142Y0068207D01*
X0274015Y0068148D01*
X0273886Y0068093D01*
X0273756Y0068042D01*
X0273625Y0067994D01*
X0273492Y0067950D01*
X0273358Y0067910D01*
X0273223Y0067873D01*
X0273087Y0067841D01*
X0272950Y0067812D01*
X0272812Y0067788D01*
X0272674Y0067767D01*
X0272535Y0067750D01*
X0272395Y0067737D01*
X0272256Y0067728D01*
X0272116Y0067723D01*
X0271976Y0067722D01*
X0271836Y0067725D01*
X0271696Y0067732D01*
X0271557Y0067743D01*
X0271418Y0067758D01*
X0271279Y0067777D01*
X0271141Y0067799D01*
X0271004Y0067826D01*
X0270867Y0067857D01*
X0270732Y0067891D01*
X0270597Y0067929D01*
X0270464Y0067972D01*
X0270332Y0068017D01*
X0270201Y0068067D01*
X0270071Y0068120D01*
X0269944Y0068177D01*
X0269818Y0068238D01*
X0269693Y0068302D01*
X0269571Y0068370D01*
X0269450Y0068441D01*
X0269332Y0068515D01*
X0269216Y0068593D01*
X0269102Y0068674D01*
X0268990Y0068759D01*
X0268881Y0068846D01*
X0268774Y0068936D01*
X0268670Y0069030D01*
X0268569Y0069126D01*
X0268470Y0069226D01*
X0268374Y0069328D01*
X0268282Y0069432D01*
X0268192Y0069540D01*
X0268105Y0069650D01*
X0268022Y0069762D01*
X0267941Y0069876D01*
X0267864Y0069993D01*
X0267791Y0070112D01*
X0267720Y0070233D01*
X0267654Y0070356D01*
X0267590Y0070481D01*
X0267531Y0070607D01*
X0267475Y0070736D01*
X0267422Y0070865D01*
X0267374Y0070996D01*
X0267329Y0071129D01*
X0267288Y0071263D01*
X0267250Y0071398D01*
X0267217Y0071533D01*
X0267187Y0071670D01*
X0267161Y0071808D01*
X0267140Y0071946D01*
X0267122Y0072085D01*
X0267108Y0072224D01*
X0267098Y0072363D01*
X0267092Y0072503D01*
X0267090Y0072643D01*
X0178837Y0028300D02*
X0168837Y0028300D01*
X0168337Y0025300D02*
X0176337Y0025300D01*
X0176337Y0003800D01*
X0174837Y0003800D02*
X0144837Y0003800D01*
X0143337Y0003800D02*
X0143339Y0003713D01*
X0143345Y0003626D01*
X0143354Y0003539D01*
X0143367Y0003453D01*
X0143384Y0003367D01*
X0143405Y0003282D01*
X0143430Y0003199D01*
X0143458Y0003116D01*
X0143489Y0003035D01*
X0143524Y0002955D01*
X0143563Y0002877D01*
X0143605Y0002800D01*
X0143650Y0002725D01*
X0143699Y0002653D01*
X0143750Y0002582D01*
X0143805Y0002514D01*
X0143862Y0002449D01*
X0143923Y0002386D01*
X0143986Y0002325D01*
X0144051Y0002268D01*
X0144119Y0002213D01*
X0144190Y0002162D01*
X0144262Y0002113D01*
X0144337Y0002068D01*
X0144414Y0002026D01*
X0144492Y0001987D01*
X0144572Y0001952D01*
X0144653Y0001921D01*
X0144736Y0001893D01*
X0144819Y0001868D01*
X0144904Y0001847D01*
X0144990Y0001830D01*
X0145076Y0001817D01*
X0145163Y0001808D01*
X0145250Y0001802D01*
X0145337Y0001800D01*
X0147837Y0001800D01*
X0147837Y0001300D01*
X0171837Y0001300D01*
X0171837Y0001800D01*
X0147837Y0001800D01*
X0145837Y0006300D02*
X0145837Y0022800D01*
X0147837Y0022800D02*
X0147837Y0012800D01*
X0149837Y0017300D02*
X0149837Y0022800D01*
X0151337Y0025300D02*
X0143337Y0025300D01*
X0143337Y0003800D01*
X0143337Y0025300D02*
X0143335Y0025387D01*
X0143329Y0025474D01*
X0143320Y0025561D01*
X0143307Y0025647D01*
X0143290Y0025733D01*
X0143269Y0025818D01*
X0143244Y0025901D01*
X0143216Y0025984D01*
X0143185Y0026065D01*
X0143150Y0026145D01*
X0143111Y0026223D01*
X0143069Y0026300D01*
X0143024Y0026375D01*
X0142975Y0026447D01*
X0142924Y0026518D01*
X0142869Y0026586D01*
X0142812Y0026651D01*
X0142751Y0026714D01*
X0142688Y0026775D01*
X0142623Y0026832D01*
X0142555Y0026887D01*
X0142484Y0026938D01*
X0142412Y0026987D01*
X0142337Y0027032D01*
X0142260Y0027074D01*
X0142182Y0027113D01*
X0142102Y0027148D01*
X0142021Y0027179D01*
X0141938Y0027207D01*
X0141855Y0027232D01*
X0141770Y0027253D01*
X0141684Y0027270D01*
X0141598Y0027283D01*
X0141511Y0027292D01*
X0141424Y0027298D01*
X0141337Y0027300D01*
X0140837Y0028300D02*
X0150837Y0028300D01*
X0154337Y0038737D02*
X0154337Y0046457D01*
X0165337Y0046457D02*
X0165337Y0038737D01*
X0178337Y0027300D02*
X0178250Y0027298D01*
X0178163Y0027292D01*
X0178076Y0027283D01*
X0177990Y0027270D01*
X0177904Y0027253D01*
X0177819Y0027232D01*
X0177736Y0027207D01*
X0177653Y0027179D01*
X0177572Y0027148D01*
X0177492Y0027113D01*
X0177414Y0027074D01*
X0177337Y0027032D01*
X0177262Y0026987D01*
X0177190Y0026938D01*
X0177119Y0026887D01*
X0177051Y0026832D01*
X0176986Y0026775D01*
X0176923Y0026714D01*
X0176862Y0026651D01*
X0176805Y0026586D01*
X0176750Y0026518D01*
X0176699Y0026447D01*
X0176650Y0026375D01*
X0176605Y0026300D01*
X0176563Y0026223D01*
X0176524Y0026145D01*
X0176489Y0026065D01*
X0176458Y0025984D01*
X0176430Y0025901D01*
X0176405Y0025818D01*
X0176384Y0025733D01*
X0176367Y0025647D01*
X0176354Y0025561D01*
X0176345Y0025474D01*
X0176339Y0025387D01*
X0176337Y0025300D01*
X0173837Y0022800D02*
X0173837Y0006300D01*
X0176337Y0003800D02*
X0176335Y0003713D01*
X0176329Y0003626D01*
X0176320Y0003539D01*
X0176307Y0003453D01*
X0176290Y0003367D01*
X0176269Y0003282D01*
X0176244Y0003199D01*
X0176216Y0003116D01*
X0176185Y0003035D01*
X0176150Y0002955D01*
X0176111Y0002877D01*
X0176069Y0002800D01*
X0176024Y0002725D01*
X0175975Y0002653D01*
X0175924Y0002582D01*
X0175869Y0002514D01*
X0175812Y0002449D01*
X0175751Y0002386D01*
X0175688Y0002325D01*
X0175623Y0002268D01*
X0175555Y0002213D01*
X0175484Y0002162D01*
X0175412Y0002113D01*
X0175337Y0002068D01*
X0175260Y0002026D01*
X0175182Y0001987D01*
X0175102Y0001952D01*
X0175021Y0001921D01*
X0174938Y0001893D01*
X0174855Y0001868D01*
X0174770Y0001847D01*
X0174684Y0001830D01*
X0174598Y0001817D01*
X0174511Y0001808D01*
X0174424Y0001802D01*
X0174337Y0001800D01*
X0171837Y0001800D01*
X0171837Y0012800D02*
X0171837Y0022800D01*
X0169837Y0022800D02*
X0169837Y0017300D01*
X0101946Y0084443D02*
X0099677Y0084443D01*
X0101946Y0086711D01*
X0101946Y0087278D01*
X0101379Y0087845D01*
X0100244Y0087845D01*
X0099677Y0087278D01*
X0098263Y0087278D02*
X0098263Y0086144D01*
X0097696Y0085577D01*
X0095994Y0085577D01*
X0095994Y0084443D02*
X0095994Y0087845D01*
X0097696Y0087845D01*
X0098263Y0087278D01*
X0094580Y0087845D02*
X0092311Y0087845D01*
X0093445Y0087845D02*
X0093445Y0084443D01*
X0088446Y0072097D02*
X0086177Y0072097D01*
X0088446Y0072097D02*
X0088446Y0071530D01*
X0086177Y0069262D01*
X0086177Y0068694D01*
X0084763Y0068694D02*
X0082494Y0068694D01*
X0083628Y0068694D02*
X0083628Y0072097D01*
X0082494Y0070963D01*
X0081080Y0071530D02*
X0081080Y0070396D01*
X0080512Y0069829D01*
X0078811Y0069829D01*
X0079945Y0069829D02*
X0081080Y0068694D01*
X0078811Y0068694D02*
X0078811Y0072097D01*
X0080512Y0072097D01*
X0081080Y0071530D01*
X0109311Y0099943D02*
X0109311Y0103345D01*
X0111012Y0103345D01*
X0111580Y0102778D01*
X0111580Y0101644D01*
X0111012Y0101077D01*
X0109311Y0101077D01*
X0110445Y0101077D02*
X0111580Y0099943D01*
X0112994Y0099943D02*
X0115263Y0099943D01*
X0114128Y0099943D02*
X0114128Y0103345D01*
X0112994Y0102211D01*
X0116677Y0101644D02*
X0117812Y0102211D01*
X0118379Y0102211D01*
X0118946Y0101644D01*
X0118946Y0100510D01*
X0118379Y0099943D01*
X0117244Y0099943D01*
X0116677Y0100510D01*
X0116677Y0101644D02*
X0116677Y0103345D01*
X0118946Y0103345D01*
X0125311Y0103577D02*
X0127012Y0103577D01*
X0127580Y0104144D01*
X0127580Y0105278D01*
X0127012Y0105845D01*
X0125311Y0105845D01*
X0125311Y0102443D01*
X0126445Y0103577D02*
X0127580Y0102443D01*
X0128994Y0102443D02*
X0131263Y0102443D01*
X0130128Y0102443D02*
X0130128Y0105845D01*
X0128994Y0104711D01*
X0132677Y0104711D02*
X0133812Y0105845D01*
X0133812Y0102443D01*
X0134946Y0102443D02*
X0132677Y0102443D01*
X0139811Y0110010D02*
X0140378Y0109443D01*
X0141512Y0109443D01*
X0142080Y0110010D01*
X0143494Y0110010D02*
X0144061Y0109443D01*
X0145196Y0109443D01*
X0145763Y0110010D01*
X0145763Y0110577D01*
X0145196Y0111144D01*
X0143494Y0111144D01*
X0143494Y0110010D01*
X0143494Y0111144D02*
X0144628Y0112278D01*
X0145763Y0112845D01*
X0147975Y0113177D02*
X0150244Y0113177D01*
X0150244Y0114311D02*
X0147975Y0112043D01*
X0149110Y0112043D02*
X0149110Y0114311D01*
X0147975Y0114311D02*
X0150244Y0112043D01*
X0150611Y0116243D02*
X0150611Y0116943D01*
X0150611Y0119343D01*
X0150611Y0120043D01*
X0150611Y0119343D02*
X0150680Y0119341D01*
X0150748Y0119335D01*
X0150816Y0119325D01*
X0150883Y0119312D01*
X0150949Y0119294D01*
X0151014Y0119273D01*
X0151078Y0119248D01*
X0151140Y0119220D01*
X0151201Y0119188D01*
X0151260Y0119153D01*
X0151316Y0119114D01*
X0151371Y0119072D01*
X0151422Y0119027D01*
X0151472Y0118979D01*
X0151518Y0118929D01*
X0151561Y0118876D01*
X0151602Y0118820D01*
X0151639Y0118763D01*
X0151672Y0118703D01*
X0151703Y0118641D01*
X0151729Y0118578D01*
X0151752Y0118514D01*
X0151772Y0118448D01*
X0151787Y0118381D01*
X0151799Y0118314D01*
X0151807Y0118246D01*
X0151811Y0118177D01*
X0151811Y0118109D01*
X0151807Y0118040D01*
X0151799Y0117972D01*
X0151787Y0117905D01*
X0151772Y0117838D01*
X0151752Y0117772D01*
X0151729Y0117708D01*
X0151703Y0117645D01*
X0151672Y0117583D01*
X0151639Y0117523D01*
X0151602Y0117466D01*
X0151561Y0117410D01*
X0151518Y0117357D01*
X0151472Y0117307D01*
X0151422Y0117259D01*
X0151371Y0117214D01*
X0151316Y0117172D01*
X0151260Y0117133D01*
X0151201Y0117098D01*
X0151140Y0117066D01*
X0151078Y0117038D01*
X0151014Y0117013D01*
X0150949Y0116992D01*
X0150883Y0116974D01*
X0150816Y0116961D01*
X0150748Y0116951D01*
X0150680Y0116945D01*
X0150611Y0116943D01*
X0148663Y0117010D02*
X0148096Y0116443D01*
X0146961Y0116443D01*
X0146394Y0117010D01*
X0144980Y0117010D02*
X0144980Y0119845D01*
X0146394Y0119278D02*
X0146961Y0119845D01*
X0148096Y0119845D01*
X0148663Y0119278D01*
X0148663Y0118711D01*
X0148096Y0118144D01*
X0148663Y0117577D01*
X0148663Y0117010D01*
X0148096Y0118144D02*
X0147528Y0118144D01*
X0144980Y0117010D02*
X0144412Y0116443D01*
X0143278Y0116443D01*
X0142711Y0117010D01*
X0142711Y0119845D01*
X0141512Y0112845D02*
X0140378Y0112845D01*
X0139811Y0112278D01*
X0139811Y0110010D01*
X0142080Y0112278D02*
X0141512Y0112845D01*
X0141744Y0142443D02*
X0141177Y0143010D01*
X0141177Y0143577D01*
X0141744Y0144144D01*
X0142879Y0144144D01*
X0143446Y0143577D01*
X0143446Y0143010D01*
X0142879Y0142443D01*
X0141744Y0142443D01*
X0141744Y0144144D02*
X0141177Y0144711D01*
X0141177Y0145278D01*
X0141744Y0145845D01*
X0142879Y0145845D01*
X0143446Y0145278D01*
X0143446Y0144711D01*
X0142879Y0144144D01*
X0139763Y0144144D02*
X0139763Y0145278D01*
X0139196Y0145845D01*
X0137494Y0145845D01*
X0137494Y0142443D01*
X0137494Y0143577D02*
X0139196Y0143577D01*
X0139763Y0144144D01*
X0136080Y0145845D02*
X0133811Y0145845D01*
X0134945Y0145845D02*
X0134945Y0142443D01*
X0135994Y0158943D02*
X0135994Y0162345D01*
X0137696Y0162345D01*
X0138263Y0161778D01*
X0138263Y0160644D01*
X0137696Y0160077D01*
X0135994Y0160077D01*
X0134580Y0162345D02*
X0132311Y0162345D01*
X0133445Y0162345D02*
X0133445Y0158943D01*
X0139677Y0160644D02*
X0141946Y0160644D01*
X0141379Y0158943D02*
X0141379Y0162345D01*
X0139677Y0160644D01*
D11*
X0051176Y0149463D02*
X0051176Y0148679D01*
X0050392Y0147895D01*
X0051176Y0147111D01*
X0051176Y0146327D01*
X0050392Y0145543D01*
X0048824Y0145543D01*
X0048040Y0146327D01*
X0046111Y0147111D02*
X0046111Y0150247D01*
X0048040Y0149463D02*
X0048824Y0150247D01*
X0050392Y0150247D01*
X0051176Y0149463D01*
X0050392Y0147895D02*
X0049608Y0147895D01*
X0046111Y0147111D02*
X0044543Y0145543D01*
X0042975Y0147111D01*
X0042975Y0150247D01*
X0041047Y0149463D02*
X0041047Y0148679D01*
X0040263Y0147895D01*
X0041047Y0147111D01*
X0041047Y0146327D01*
X0040263Y0145543D01*
X0038695Y0145543D01*
X0037911Y0146327D01*
X0039479Y0147895D02*
X0040263Y0147895D01*
X0041047Y0149463D02*
X0040263Y0150247D01*
X0038695Y0150247D01*
X0037911Y0149463D01*
X0100282Y0019161D02*
X0102634Y0019161D01*
X0103418Y0018377D01*
X0103418Y0016809D01*
X0102634Y0016025D01*
X0100282Y0016025D01*
X0100282Y0014457D02*
X0100282Y0019161D01*
X0101850Y0016025D02*
X0103418Y0014457D01*
X0105346Y0014457D02*
X0108482Y0019161D01*
X0110411Y0018377D02*
X0111195Y0019161D01*
X0112763Y0019161D01*
X0113547Y0018377D01*
X0113547Y0017593D01*
X0110411Y0014457D01*
X0113547Y0014457D01*
X0108482Y0014457D02*
X0105346Y0019161D01*
X0179042Y0019161D02*
X0179042Y0014457D01*
X0179042Y0016025D02*
X0181394Y0016025D01*
X0182178Y0016809D01*
X0182178Y0018377D01*
X0181394Y0019161D01*
X0179042Y0019161D01*
X0180610Y0016025D02*
X0182178Y0014457D01*
X0184106Y0014457D02*
X0187242Y0019161D01*
X0189170Y0017593D02*
X0190738Y0019161D01*
X0190738Y0014457D01*
X0189170Y0014457D02*
X0192306Y0014457D01*
X0187242Y0014457D02*
X0184106Y0019161D01*
X0259302Y0019161D02*
X0259302Y0014457D01*
X0259302Y0016025D02*
X0261654Y0016025D01*
X0262438Y0016809D01*
X0262438Y0018377D01*
X0261654Y0019161D01*
X0259302Y0019161D01*
X0260870Y0016025D02*
X0262438Y0014457D01*
X0264366Y0014457D02*
X0267502Y0019161D01*
X0269430Y0018377D02*
X0270214Y0019161D01*
X0271782Y0019161D01*
X0272566Y0018377D01*
X0269430Y0015241D01*
X0270214Y0014457D01*
X0271782Y0014457D01*
X0272566Y0015241D01*
X0272566Y0018377D01*
X0269430Y0018377D02*
X0269430Y0015241D01*
X0267502Y0014457D02*
X0264366Y0019161D01*
X0264401Y0316657D02*
X0267537Y0321361D01*
X0269466Y0320577D02*
X0270250Y0321361D01*
X0271818Y0321361D01*
X0272602Y0320577D01*
X0269466Y0317441D01*
X0270250Y0316657D01*
X0271818Y0316657D01*
X0272602Y0317441D01*
X0272602Y0320577D01*
X0269466Y0320577D02*
X0269466Y0317441D01*
X0267537Y0316657D02*
X0264401Y0321361D01*
X0262473Y0321361D02*
X0259337Y0321361D01*
X0260905Y0321361D02*
X0260905Y0316657D01*
X0192873Y0316657D02*
X0189737Y0316657D01*
X0191305Y0316657D02*
X0191305Y0321361D01*
X0189737Y0319793D01*
X0187808Y0321361D02*
X0184672Y0316657D01*
X0187808Y0316657D02*
X0184672Y0321361D01*
X0182744Y0321361D02*
X0179608Y0321361D01*
X0181176Y0321361D02*
X0181176Y0316657D01*
X0114665Y0316657D02*
X0111529Y0316657D01*
X0114665Y0319793D01*
X0114665Y0320577D01*
X0113881Y0321361D01*
X0112313Y0321361D01*
X0111529Y0320577D01*
X0109600Y0321361D02*
X0106464Y0316657D01*
X0109600Y0316657D02*
X0106464Y0321361D01*
X0104536Y0321361D02*
X0101400Y0321361D01*
X0102968Y0321361D02*
X0102968Y0316657D01*
D12*
X0106355Y0270598D02*
X0109558Y0270598D01*
X0110626Y0269530D01*
X0110626Y0268463D01*
X0109558Y0267395D01*
X0106355Y0267395D01*
X0103970Y0265260D02*
X0103970Y0264193D01*
X0102902Y0264193D01*
X0102902Y0265260D01*
X0103970Y0265260D01*
X0106355Y0264193D02*
X0109558Y0264193D01*
X0110626Y0265260D01*
X0110626Y0266328D01*
X0109558Y0267395D01*
X0106355Y0264193D02*
X0106355Y0270598D01*
X0100267Y0269530D02*
X0100267Y0268463D01*
X0095996Y0264193D01*
X0100267Y0264193D01*
X0100267Y0269530D02*
X0099199Y0270598D01*
X0097064Y0270598D01*
X0095996Y0269530D01*
X0093361Y0269530D02*
X0093361Y0268463D01*
X0089090Y0264193D01*
X0093361Y0264193D01*
X0086705Y0264193D02*
X0085638Y0264193D01*
X0085638Y0265260D01*
X0086705Y0265260D01*
X0086705Y0264193D01*
X0083002Y0264193D02*
X0078732Y0264193D01*
X0080867Y0264193D02*
X0080867Y0270598D01*
X0078732Y0268463D01*
X0076096Y0264193D02*
X0071826Y0264193D01*
X0073961Y0264193D02*
X0073961Y0270598D01*
X0071826Y0268463D01*
X0069440Y0265260D02*
X0068373Y0265260D01*
X0068373Y0264193D01*
X0069440Y0264193D01*
X0069440Y0265260D01*
X0065737Y0265260D02*
X0065737Y0266328D01*
X0064670Y0267395D01*
X0061467Y0267395D01*
X0061467Y0265260D01*
X0062534Y0264193D01*
X0064670Y0264193D01*
X0065737Y0265260D01*
X0063602Y0269530D02*
X0061467Y0267395D01*
X0063602Y0269530D02*
X0065737Y0270598D01*
X0058831Y0264193D02*
X0054561Y0264193D01*
X0056696Y0264193D02*
X0056696Y0270598D01*
X0054561Y0268463D01*
X0089090Y0269530D02*
X0090158Y0270598D01*
X0092293Y0270598D01*
X0093361Y0269530D01*
D13*
X0091046Y0241654D02*
X0053566Y0241654D01*
X0053566Y0206221D01*
X0091046Y0206221D01*
X0091046Y0241654D01*
X0091051Y0132559D02*
X0053571Y0132559D01*
X0053571Y0097126D01*
X0091051Y0097126D01*
X0091051Y0132559D01*
X0219443Y0064052D02*
X0219443Y0010902D01*
X0223537Y0010902D01*
X0223537Y0014643D01*
X0253537Y0014643D01*
X0253537Y0010902D01*
X0257631Y0010902D01*
X0257631Y0064052D01*
X0219443Y0064052D01*
X0223537Y0010902D02*
X0253537Y0010902D01*
X0257631Y0271848D02*
X0219443Y0271848D01*
X0219443Y0324998D01*
X0223537Y0324998D01*
X0223537Y0321257D01*
X0253537Y0321257D01*
X0253537Y0324998D01*
X0223537Y0324998D01*
X0253537Y0324998D02*
X0257631Y0324998D01*
X0257631Y0271848D01*
D14*
X0181837Y0296926D02*
X0181837Y0304583D01*
X0181835Y0304690D01*
X0181829Y0304797D01*
X0181820Y0304904D01*
X0181806Y0305010D01*
X0181789Y0305116D01*
X0181768Y0305221D01*
X0181744Y0305325D01*
X0181715Y0305428D01*
X0181683Y0305530D01*
X0181648Y0305631D01*
X0181609Y0305731D01*
X0181566Y0305829D01*
X0181520Y0305926D01*
X0181470Y0306021D01*
X0181417Y0306114D01*
X0181361Y0306205D01*
X0181301Y0306294D01*
X0181239Y0306381D01*
X0181173Y0306465D01*
X0181104Y0306548D01*
X0181033Y0306627D01*
X0180958Y0306704D01*
X0180881Y0306779D01*
X0180802Y0306850D01*
X0180719Y0306919D01*
X0180635Y0306985D01*
X0180548Y0307047D01*
X0180459Y0307107D01*
X0180368Y0307163D01*
X0180275Y0307216D01*
X0180180Y0307266D01*
X0180083Y0307312D01*
X0179985Y0307355D01*
X0179885Y0307394D01*
X0179784Y0307429D01*
X0179682Y0307461D01*
X0179579Y0307490D01*
X0179475Y0307514D01*
X0179370Y0307535D01*
X0179264Y0307552D01*
X0179158Y0307566D01*
X0179051Y0307575D01*
X0178944Y0307581D01*
X0178837Y0307583D01*
X0140837Y0307583D02*
X0140730Y0307581D01*
X0140623Y0307575D01*
X0140516Y0307566D01*
X0140410Y0307552D01*
X0140304Y0307535D01*
X0140199Y0307514D01*
X0140095Y0307490D01*
X0139992Y0307461D01*
X0139890Y0307429D01*
X0139789Y0307394D01*
X0139689Y0307355D01*
X0139591Y0307312D01*
X0139494Y0307266D01*
X0139399Y0307216D01*
X0139306Y0307163D01*
X0139215Y0307107D01*
X0139126Y0307047D01*
X0139039Y0306985D01*
X0138955Y0306919D01*
X0138872Y0306850D01*
X0138793Y0306779D01*
X0138716Y0306704D01*
X0138641Y0306627D01*
X0138570Y0306548D01*
X0138501Y0306465D01*
X0138435Y0306381D01*
X0138373Y0306294D01*
X0138313Y0306205D01*
X0138257Y0306114D01*
X0138204Y0306021D01*
X0138154Y0305926D01*
X0138108Y0305829D01*
X0138065Y0305731D01*
X0138026Y0305631D01*
X0137991Y0305530D01*
X0137959Y0305428D01*
X0137930Y0305325D01*
X0137906Y0305221D01*
X0137885Y0305116D01*
X0137868Y0305010D01*
X0137854Y0304904D01*
X0137845Y0304797D01*
X0137839Y0304690D01*
X0137837Y0304583D01*
X0137837Y0296926D01*
X0104137Y0296926D02*
X0104137Y0304583D01*
X0104135Y0304690D01*
X0104129Y0304797D01*
X0104120Y0304904D01*
X0104106Y0305010D01*
X0104089Y0305116D01*
X0104068Y0305221D01*
X0104044Y0305325D01*
X0104015Y0305428D01*
X0103983Y0305530D01*
X0103948Y0305631D01*
X0103909Y0305731D01*
X0103866Y0305829D01*
X0103820Y0305926D01*
X0103770Y0306021D01*
X0103717Y0306114D01*
X0103661Y0306205D01*
X0103601Y0306294D01*
X0103539Y0306381D01*
X0103473Y0306465D01*
X0103404Y0306548D01*
X0103333Y0306627D01*
X0103258Y0306704D01*
X0103181Y0306779D01*
X0103102Y0306850D01*
X0103019Y0306919D01*
X0102935Y0306985D01*
X0102848Y0307047D01*
X0102759Y0307107D01*
X0102668Y0307163D01*
X0102575Y0307216D01*
X0102480Y0307266D01*
X0102383Y0307312D01*
X0102285Y0307355D01*
X0102185Y0307394D01*
X0102084Y0307429D01*
X0101982Y0307461D01*
X0101879Y0307490D01*
X0101775Y0307514D01*
X0101670Y0307535D01*
X0101564Y0307552D01*
X0101458Y0307566D01*
X0101351Y0307575D01*
X0101244Y0307581D01*
X0101137Y0307583D01*
X0063137Y0307583D02*
X0063030Y0307581D01*
X0062923Y0307575D01*
X0062816Y0307566D01*
X0062710Y0307552D01*
X0062604Y0307535D01*
X0062499Y0307514D01*
X0062395Y0307490D01*
X0062292Y0307461D01*
X0062190Y0307429D01*
X0062089Y0307394D01*
X0061989Y0307355D01*
X0061891Y0307312D01*
X0061794Y0307266D01*
X0061699Y0307216D01*
X0061606Y0307163D01*
X0061515Y0307107D01*
X0061426Y0307047D01*
X0061339Y0306985D01*
X0061255Y0306919D01*
X0061172Y0306850D01*
X0061093Y0306779D01*
X0061016Y0306704D01*
X0060941Y0306627D01*
X0060870Y0306548D01*
X0060801Y0306465D01*
X0060735Y0306381D01*
X0060673Y0306294D01*
X0060613Y0306205D01*
X0060557Y0306114D01*
X0060504Y0306021D01*
X0060454Y0305926D01*
X0060408Y0305829D01*
X0060365Y0305731D01*
X0060326Y0305631D01*
X0060291Y0305530D01*
X0060259Y0305428D01*
X0060230Y0305325D01*
X0060206Y0305221D01*
X0060185Y0305116D01*
X0060168Y0305010D01*
X0060154Y0304904D01*
X0060145Y0304797D01*
X0060139Y0304690D01*
X0060137Y0304583D01*
X0060137Y0296926D01*
X0060137Y0038957D02*
X0060137Y0031300D01*
X0060139Y0031193D01*
X0060145Y0031086D01*
X0060154Y0030979D01*
X0060168Y0030873D01*
X0060185Y0030767D01*
X0060206Y0030662D01*
X0060230Y0030558D01*
X0060259Y0030455D01*
X0060291Y0030353D01*
X0060326Y0030252D01*
X0060365Y0030152D01*
X0060408Y0030054D01*
X0060454Y0029957D01*
X0060504Y0029862D01*
X0060557Y0029769D01*
X0060613Y0029678D01*
X0060673Y0029589D01*
X0060735Y0029502D01*
X0060801Y0029418D01*
X0060870Y0029335D01*
X0060941Y0029256D01*
X0061016Y0029179D01*
X0061093Y0029104D01*
X0061172Y0029033D01*
X0061255Y0028964D01*
X0061339Y0028898D01*
X0061426Y0028836D01*
X0061515Y0028776D01*
X0061606Y0028720D01*
X0061699Y0028667D01*
X0061794Y0028617D01*
X0061891Y0028571D01*
X0061989Y0028528D01*
X0062089Y0028489D01*
X0062190Y0028454D01*
X0062292Y0028422D01*
X0062395Y0028393D01*
X0062499Y0028369D01*
X0062604Y0028348D01*
X0062710Y0028331D01*
X0062816Y0028317D01*
X0062923Y0028308D01*
X0063030Y0028302D01*
X0063137Y0028300D01*
X0101137Y0028300D02*
X0101244Y0028302D01*
X0101351Y0028308D01*
X0101458Y0028317D01*
X0101564Y0028331D01*
X0101670Y0028348D01*
X0101775Y0028369D01*
X0101879Y0028393D01*
X0101982Y0028422D01*
X0102084Y0028454D01*
X0102185Y0028489D01*
X0102285Y0028528D01*
X0102383Y0028571D01*
X0102480Y0028617D01*
X0102575Y0028667D01*
X0102668Y0028720D01*
X0102759Y0028776D01*
X0102848Y0028836D01*
X0102935Y0028898D01*
X0103019Y0028964D01*
X0103102Y0029033D01*
X0103181Y0029104D01*
X0103258Y0029179D01*
X0103333Y0029256D01*
X0103404Y0029335D01*
X0103473Y0029418D01*
X0103539Y0029502D01*
X0103601Y0029589D01*
X0103661Y0029678D01*
X0103717Y0029769D01*
X0103770Y0029862D01*
X0103820Y0029957D01*
X0103866Y0030054D01*
X0103909Y0030152D01*
X0103948Y0030252D01*
X0103983Y0030353D01*
X0104015Y0030455D01*
X0104044Y0030558D01*
X0104068Y0030662D01*
X0104089Y0030767D01*
X0104106Y0030873D01*
X0104120Y0030979D01*
X0104129Y0031086D01*
X0104135Y0031193D01*
X0104137Y0031300D01*
X0104137Y0038957D01*
X0137837Y0038957D02*
X0137837Y0031300D01*
X0137839Y0031193D01*
X0137845Y0031086D01*
X0137854Y0030979D01*
X0137868Y0030873D01*
X0137885Y0030767D01*
X0137906Y0030662D01*
X0137930Y0030558D01*
X0137959Y0030455D01*
X0137991Y0030353D01*
X0138026Y0030252D01*
X0138065Y0030152D01*
X0138108Y0030054D01*
X0138154Y0029957D01*
X0138204Y0029862D01*
X0138257Y0029769D01*
X0138313Y0029678D01*
X0138373Y0029589D01*
X0138435Y0029502D01*
X0138501Y0029418D01*
X0138570Y0029335D01*
X0138641Y0029256D01*
X0138716Y0029179D01*
X0138793Y0029104D01*
X0138872Y0029033D01*
X0138955Y0028964D01*
X0139039Y0028898D01*
X0139126Y0028836D01*
X0139215Y0028776D01*
X0139306Y0028720D01*
X0139399Y0028667D01*
X0139494Y0028617D01*
X0139591Y0028571D01*
X0139689Y0028528D01*
X0139789Y0028489D01*
X0139890Y0028454D01*
X0139992Y0028422D01*
X0140095Y0028393D01*
X0140199Y0028369D01*
X0140304Y0028348D01*
X0140410Y0028331D01*
X0140516Y0028317D01*
X0140623Y0028308D01*
X0140730Y0028302D01*
X0140837Y0028300D01*
X0178837Y0028300D02*
X0178944Y0028302D01*
X0179051Y0028308D01*
X0179158Y0028317D01*
X0179264Y0028331D01*
X0179370Y0028348D01*
X0179475Y0028369D01*
X0179579Y0028393D01*
X0179682Y0028422D01*
X0179784Y0028454D01*
X0179885Y0028489D01*
X0179985Y0028528D01*
X0180083Y0028571D01*
X0180180Y0028617D01*
X0180275Y0028667D01*
X0180368Y0028720D01*
X0180459Y0028776D01*
X0180548Y0028836D01*
X0180635Y0028898D01*
X0180719Y0028964D01*
X0180802Y0029033D01*
X0180881Y0029104D01*
X0180958Y0029179D01*
X0181033Y0029256D01*
X0181104Y0029335D01*
X0181173Y0029418D01*
X0181239Y0029502D01*
X0181301Y0029589D01*
X0181361Y0029678D01*
X0181417Y0029769D01*
X0181470Y0029862D01*
X0181520Y0029957D01*
X0181566Y0030054D01*
X0181609Y0030152D01*
X0181648Y0030252D01*
X0181683Y0030353D01*
X0181715Y0030455D01*
X0181744Y0030558D01*
X0181768Y0030662D01*
X0181789Y0030767D01*
X0181806Y0030873D01*
X0181820Y0030979D01*
X0181829Y0031086D01*
X0181835Y0031193D01*
X0181837Y0031300D01*
X0181837Y0038957D01*
D15*
X0056811Y0129843D02*
X0056813Y0129887D01*
X0056819Y0129931D01*
X0056829Y0129974D01*
X0056842Y0130016D01*
X0056859Y0130057D01*
X0056880Y0130096D01*
X0056904Y0130133D01*
X0056931Y0130168D01*
X0056961Y0130200D01*
X0056994Y0130230D01*
X0057030Y0130256D01*
X0057067Y0130280D01*
X0057107Y0130299D01*
X0057148Y0130316D01*
X0057191Y0130328D01*
X0057234Y0130337D01*
X0057278Y0130342D01*
X0057322Y0130343D01*
X0057366Y0130340D01*
X0057410Y0130333D01*
X0057453Y0130322D01*
X0057495Y0130308D01*
X0057535Y0130290D01*
X0057574Y0130268D01*
X0057610Y0130244D01*
X0057644Y0130216D01*
X0057676Y0130185D01*
X0057705Y0130151D01*
X0057731Y0130115D01*
X0057753Y0130077D01*
X0057772Y0130037D01*
X0057787Y0129995D01*
X0057799Y0129953D01*
X0057807Y0129909D01*
X0057811Y0129865D01*
X0057811Y0129821D01*
X0057807Y0129777D01*
X0057799Y0129733D01*
X0057787Y0129691D01*
X0057772Y0129649D01*
X0057753Y0129609D01*
X0057731Y0129571D01*
X0057705Y0129535D01*
X0057676Y0129501D01*
X0057644Y0129470D01*
X0057610Y0129442D01*
X0057574Y0129418D01*
X0057535Y0129396D01*
X0057495Y0129378D01*
X0057453Y0129364D01*
X0057410Y0129353D01*
X0057366Y0129346D01*
X0057322Y0129343D01*
X0057278Y0129344D01*
X0057234Y0129349D01*
X0057191Y0129358D01*
X0057148Y0129370D01*
X0057107Y0129387D01*
X0057067Y0129406D01*
X0057030Y0129430D01*
X0056994Y0129456D01*
X0056961Y0129486D01*
X0056931Y0129518D01*
X0056904Y0129553D01*
X0056880Y0129590D01*
X0056859Y0129629D01*
X0056842Y0129670D01*
X0056829Y0129712D01*
X0056819Y0129755D01*
X0056813Y0129799D01*
X0056811Y0129843D01*
X0086806Y0208938D02*
X0086808Y0208982D01*
X0086814Y0209026D01*
X0086824Y0209069D01*
X0086837Y0209111D01*
X0086854Y0209152D01*
X0086875Y0209191D01*
X0086899Y0209228D01*
X0086926Y0209263D01*
X0086956Y0209295D01*
X0086989Y0209325D01*
X0087025Y0209351D01*
X0087062Y0209375D01*
X0087102Y0209394D01*
X0087143Y0209411D01*
X0087186Y0209423D01*
X0087229Y0209432D01*
X0087273Y0209437D01*
X0087317Y0209438D01*
X0087361Y0209435D01*
X0087405Y0209428D01*
X0087448Y0209417D01*
X0087490Y0209403D01*
X0087530Y0209385D01*
X0087569Y0209363D01*
X0087605Y0209339D01*
X0087639Y0209311D01*
X0087671Y0209280D01*
X0087700Y0209246D01*
X0087726Y0209210D01*
X0087748Y0209172D01*
X0087767Y0209132D01*
X0087782Y0209090D01*
X0087794Y0209048D01*
X0087802Y0209004D01*
X0087806Y0208960D01*
X0087806Y0208916D01*
X0087802Y0208872D01*
X0087794Y0208828D01*
X0087782Y0208786D01*
X0087767Y0208744D01*
X0087748Y0208704D01*
X0087726Y0208666D01*
X0087700Y0208630D01*
X0087671Y0208596D01*
X0087639Y0208565D01*
X0087605Y0208537D01*
X0087569Y0208513D01*
X0087530Y0208491D01*
X0087490Y0208473D01*
X0087448Y0208459D01*
X0087405Y0208448D01*
X0087361Y0208441D01*
X0087317Y0208438D01*
X0087273Y0208439D01*
X0087229Y0208444D01*
X0087186Y0208453D01*
X0087143Y0208465D01*
X0087102Y0208482D01*
X0087062Y0208501D01*
X0087025Y0208525D01*
X0086989Y0208551D01*
X0086956Y0208581D01*
X0086926Y0208613D01*
X0086899Y0208648D01*
X0086875Y0208685D01*
X0086854Y0208724D01*
X0086837Y0208765D01*
X0086824Y0208807D01*
X0086814Y0208850D01*
X0086808Y0208894D01*
X0086806Y0208938D01*
D16*
X0335200Y0212457D02*
X0357700Y0212457D01*
X0357700Y0202457D02*
X0335200Y0202457D01*
X0335200Y0192457D02*
X0357700Y0192457D01*
X0357700Y0182457D02*
X0335200Y0182457D01*
X0335200Y0154457D02*
X0357700Y0154457D01*
X0357700Y0144457D02*
X0335200Y0144457D01*
X0335200Y0134457D02*
X0357700Y0134457D01*
X0357700Y0124457D02*
X0335200Y0124457D01*
X0335200Y0114457D02*
X0357700Y0114457D01*
X0357700Y0104457D02*
X0335200Y0104457D01*
X0335200Y0094457D02*
X0357700Y0094457D01*
X0357700Y0222457D02*
X0335200Y0222457D01*
X0335200Y0232457D02*
X0357700Y0232457D01*
X0357700Y0242457D02*
X0335200Y0242457D01*
D17*
X0333700Y0242457D03*
X0333700Y0232457D03*
X0333700Y0222457D03*
X0333700Y0212457D03*
X0333700Y0202457D03*
X0333700Y0192457D03*
X0333700Y0182457D03*
X0333700Y0154457D03*
X0333700Y0144457D03*
X0333700Y0134457D03*
X0333700Y0124457D03*
X0333700Y0114457D03*
X0333700Y0104457D03*
X0333700Y0094457D03*
D18*
X0320700Y0094457D03*
X0320700Y0104457D03*
X0320700Y0114457D03*
X0320700Y0124457D03*
X0320700Y0134457D03*
X0320700Y0144457D03*
X0320700Y0154457D03*
X0320700Y0182457D03*
X0320700Y0192457D03*
X0320700Y0202457D03*
X0320700Y0212457D03*
X0320700Y0222457D03*
X0320700Y0232457D03*
X0320700Y0242457D03*
D19*
X0310200Y0242457D03*
X0310200Y0232457D03*
X0310200Y0222457D03*
X0310200Y0212457D03*
X0310200Y0202457D03*
X0310200Y0192457D03*
X0310200Y0182457D03*
X0300200Y0182457D03*
X0300200Y0192457D03*
X0300200Y0202457D03*
X0300200Y0212457D03*
X0300200Y0222457D03*
X0300200Y0232457D03*
X0300200Y0242457D03*
X0300200Y0154457D03*
X0300200Y0144457D03*
X0300200Y0134457D03*
X0300200Y0124457D03*
X0300200Y0114457D03*
X0300200Y0104457D03*
X0300200Y0094457D03*
X0310200Y0094457D03*
X0310200Y0104457D03*
X0310200Y0114457D03*
X0310200Y0124457D03*
X0310200Y0134457D03*
X0310200Y0144457D03*
X0310200Y0154457D03*
D20*
X0022011Y0010457D02*
X0010200Y0022269D01*
X0010200Y0313607D01*
X0022011Y0325418D01*
X0313350Y0325418D01*
X0325161Y0313607D01*
X0325161Y0022269D01*
X0313350Y0010457D01*
X0022011Y0010457D01*
X0019649Y0026206D02*
X0019651Y0026364D01*
X0019657Y0026522D01*
X0019667Y0026680D01*
X0019681Y0026838D01*
X0019699Y0026995D01*
X0019720Y0027152D01*
X0019746Y0027308D01*
X0019776Y0027464D01*
X0019809Y0027619D01*
X0019847Y0027772D01*
X0019888Y0027925D01*
X0019933Y0028077D01*
X0019982Y0028228D01*
X0020035Y0028377D01*
X0020091Y0028525D01*
X0020151Y0028671D01*
X0020215Y0028816D01*
X0020283Y0028959D01*
X0020354Y0029101D01*
X0020428Y0029241D01*
X0020506Y0029378D01*
X0020588Y0029514D01*
X0020672Y0029648D01*
X0020761Y0029779D01*
X0020852Y0029908D01*
X0020947Y0030035D01*
X0021044Y0030160D01*
X0021145Y0030282D01*
X0021249Y0030401D01*
X0021356Y0030518D01*
X0021466Y0030632D01*
X0021579Y0030743D01*
X0021694Y0030852D01*
X0021812Y0030957D01*
X0021933Y0031059D01*
X0022056Y0031159D01*
X0022182Y0031255D01*
X0022310Y0031348D01*
X0022440Y0031438D01*
X0022573Y0031524D01*
X0022708Y0031608D01*
X0022844Y0031687D01*
X0022983Y0031764D01*
X0023124Y0031836D01*
X0023266Y0031906D01*
X0023410Y0031971D01*
X0023556Y0032033D01*
X0023703Y0032091D01*
X0023852Y0032146D01*
X0024002Y0032197D01*
X0024153Y0032244D01*
X0024305Y0032287D01*
X0024458Y0032326D01*
X0024613Y0032362D01*
X0024768Y0032393D01*
X0024924Y0032421D01*
X0025080Y0032445D01*
X0025237Y0032465D01*
X0025395Y0032481D01*
X0025552Y0032493D01*
X0025711Y0032501D01*
X0025869Y0032505D01*
X0026027Y0032505D01*
X0026185Y0032501D01*
X0026344Y0032493D01*
X0026501Y0032481D01*
X0026659Y0032465D01*
X0026816Y0032445D01*
X0026972Y0032421D01*
X0027128Y0032393D01*
X0027283Y0032362D01*
X0027438Y0032326D01*
X0027591Y0032287D01*
X0027743Y0032244D01*
X0027894Y0032197D01*
X0028044Y0032146D01*
X0028193Y0032091D01*
X0028340Y0032033D01*
X0028486Y0031971D01*
X0028630Y0031906D01*
X0028772Y0031836D01*
X0028913Y0031764D01*
X0029052Y0031687D01*
X0029188Y0031608D01*
X0029323Y0031524D01*
X0029456Y0031438D01*
X0029586Y0031348D01*
X0029714Y0031255D01*
X0029840Y0031159D01*
X0029963Y0031059D01*
X0030084Y0030957D01*
X0030202Y0030852D01*
X0030317Y0030743D01*
X0030430Y0030632D01*
X0030540Y0030518D01*
X0030647Y0030401D01*
X0030751Y0030282D01*
X0030852Y0030160D01*
X0030949Y0030035D01*
X0031044Y0029908D01*
X0031135Y0029779D01*
X0031224Y0029648D01*
X0031308Y0029514D01*
X0031390Y0029378D01*
X0031468Y0029241D01*
X0031542Y0029101D01*
X0031613Y0028959D01*
X0031681Y0028816D01*
X0031745Y0028671D01*
X0031805Y0028525D01*
X0031861Y0028377D01*
X0031914Y0028228D01*
X0031963Y0028077D01*
X0032008Y0027925D01*
X0032049Y0027772D01*
X0032087Y0027619D01*
X0032120Y0027464D01*
X0032150Y0027308D01*
X0032176Y0027152D01*
X0032197Y0026995D01*
X0032215Y0026838D01*
X0032229Y0026680D01*
X0032239Y0026522D01*
X0032245Y0026364D01*
X0032247Y0026206D01*
X0032245Y0026048D01*
X0032239Y0025890D01*
X0032229Y0025732D01*
X0032215Y0025574D01*
X0032197Y0025417D01*
X0032176Y0025260D01*
X0032150Y0025104D01*
X0032120Y0024948D01*
X0032087Y0024793D01*
X0032049Y0024640D01*
X0032008Y0024487D01*
X0031963Y0024335D01*
X0031914Y0024184D01*
X0031861Y0024035D01*
X0031805Y0023887D01*
X0031745Y0023741D01*
X0031681Y0023596D01*
X0031613Y0023453D01*
X0031542Y0023311D01*
X0031468Y0023171D01*
X0031390Y0023034D01*
X0031308Y0022898D01*
X0031224Y0022764D01*
X0031135Y0022633D01*
X0031044Y0022504D01*
X0030949Y0022377D01*
X0030852Y0022252D01*
X0030751Y0022130D01*
X0030647Y0022011D01*
X0030540Y0021894D01*
X0030430Y0021780D01*
X0030317Y0021669D01*
X0030202Y0021560D01*
X0030084Y0021455D01*
X0029963Y0021353D01*
X0029840Y0021253D01*
X0029714Y0021157D01*
X0029586Y0021064D01*
X0029456Y0020974D01*
X0029323Y0020888D01*
X0029188Y0020804D01*
X0029052Y0020725D01*
X0028913Y0020648D01*
X0028772Y0020576D01*
X0028630Y0020506D01*
X0028486Y0020441D01*
X0028340Y0020379D01*
X0028193Y0020321D01*
X0028044Y0020266D01*
X0027894Y0020215D01*
X0027743Y0020168D01*
X0027591Y0020125D01*
X0027438Y0020086D01*
X0027283Y0020050D01*
X0027128Y0020019D01*
X0026972Y0019991D01*
X0026816Y0019967D01*
X0026659Y0019947D01*
X0026501Y0019931D01*
X0026344Y0019919D01*
X0026185Y0019911D01*
X0026027Y0019907D01*
X0025869Y0019907D01*
X0025711Y0019911D01*
X0025552Y0019919D01*
X0025395Y0019931D01*
X0025237Y0019947D01*
X0025080Y0019967D01*
X0024924Y0019991D01*
X0024768Y0020019D01*
X0024613Y0020050D01*
X0024458Y0020086D01*
X0024305Y0020125D01*
X0024153Y0020168D01*
X0024002Y0020215D01*
X0023852Y0020266D01*
X0023703Y0020321D01*
X0023556Y0020379D01*
X0023410Y0020441D01*
X0023266Y0020506D01*
X0023124Y0020576D01*
X0022983Y0020648D01*
X0022844Y0020725D01*
X0022708Y0020804D01*
X0022573Y0020888D01*
X0022440Y0020974D01*
X0022310Y0021064D01*
X0022182Y0021157D01*
X0022056Y0021253D01*
X0021933Y0021353D01*
X0021812Y0021455D01*
X0021694Y0021560D01*
X0021579Y0021669D01*
X0021466Y0021780D01*
X0021356Y0021894D01*
X0021249Y0022011D01*
X0021145Y0022130D01*
X0021044Y0022252D01*
X0020947Y0022377D01*
X0020852Y0022504D01*
X0020761Y0022633D01*
X0020672Y0022764D01*
X0020588Y0022898D01*
X0020506Y0023034D01*
X0020428Y0023171D01*
X0020354Y0023311D01*
X0020283Y0023453D01*
X0020215Y0023596D01*
X0020151Y0023741D01*
X0020091Y0023887D01*
X0020035Y0024035D01*
X0019982Y0024184D01*
X0019933Y0024335D01*
X0019888Y0024487D01*
X0019847Y0024640D01*
X0019809Y0024793D01*
X0019776Y0024948D01*
X0019746Y0025104D01*
X0019720Y0025260D01*
X0019699Y0025417D01*
X0019681Y0025574D01*
X0019667Y0025732D01*
X0019657Y0025890D01*
X0019651Y0026048D01*
X0019649Y0026206D01*
X0185003Y0085261D02*
X0185005Y0085419D01*
X0185011Y0085577D01*
X0185021Y0085735D01*
X0185035Y0085893D01*
X0185053Y0086050D01*
X0185074Y0086207D01*
X0185100Y0086363D01*
X0185130Y0086519D01*
X0185163Y0086674D01*
X0185201Y0086827D01*
X0185242Y0086980D01*
X0185287Y0087132D01*
X0185336Y0087283D01*
X0185389Y0087432D01*
X0185445Y0087580D01*
X0185505Y0087726D01*
X0185569Y0087871D01*
X0185637Y0088014D01*
X0185708Y0088156D01*
X0185782Y0088296D01*
X0185860Y0088433D01*
X0185942Y0088569D01*
X0186026Y0088703D01*
X0186115Y0088834D01*
X0186206Y0088963D01*
X0186301Y0089090D01*
X0186398Y0089215D01*
X0186499Y0089337D01*
X0186603Y0089456D01*
X0186710Y0089573D01*
X0186820Y0089687D01*
X0186933Y0089798D01*
X0187048Y0089907D01*
X0187166Y0090012D01*
X0187287Y0090114D01*
X0187410Y0090214D01*
X0187536Y0090310D01*
X0187664Y0090403D01*
X0187794Y0090493D01*
X0187927Y0090579D01*
X0188062Y0090663D01*
X0188198Y0090742D01*
X0188337Y0090819D01*
X0188478Y0090891D01*
X0188620Y0090961D01*
X0188764Y0091026D01*
X0188910Y0091088D01*
X0189057Y0091146D01*
X0189206Y0091201D01*
X0189356Y0091252D01*
X0189507Y0091299D01*
X0189659Y0091342D01*
X0189812Y0091381D01*
X0189967Y0091417D01*
X0190122Y0091448D01*
X0190278Y0091476D01*
X0190434Y0091500D01*
X0190591Y0091520D01*
X0190749Y0091536D01*
X0190906Y0091548D01*
X0191065Y0091556D01*
X0191223Y0091560D01*
X0191381Y0091560D01*
X0191539Y0091556D01*
X0191698Y0091548D01*
X0191855Y0091536D01*
X0192013Y0091520D01*
X0192170Y0091500D01*
X0192326Y0091476D01*
X0192482Y0091448D01*
X0192637Y0091417D01*
X0192792Y0091381D01*
X0192945Y0091342D01*
X0193097Y0091299D01*
X0193248Y0091252D01*
X0193398Y0091201D01*
X0193547Y0091146D01*
X0193694Y0091088D01*
X0193840Y0091026D01*
X0193984Y0090961D01*
X0194126Y0090891D01*
X0194267Y0090819D01*
X0194406Y0090742D01*
X0194542Y0090663D01*
X0194677Y0090579D01*
X0194810Y0090493D01*
X0194940Y0090403D01*
X0195068Y0090310D01*
X0195194Y0090214D01*
X0195317Y0090114D01*
X0195438Y0090012D01*
X0195556Y0089907D01*
X0195671Y0089798D01*
X0195784Y0089687D01*
X0195894Y0089573D01*
X0196001Y0089456D01*
X0196105Y0089337D01*
X0196206Y0089215D01*
X0196303Y0089090D01*
X0196398Y0088963D01*
X0196489Y0088834D01*
X0196578Y0088703D01*
X0196662Y0088569D01*
X0196744Y0088433D01*
X0196822Y0088296D01*
X0196896Y0088156D01*
X0196967Y0088014D01*
X0197035Y0087871D01*
X0197099Y0087726D01*
X0197159Y0087580D01*
X0197215Y0087432D01*
X0197268Y0087283D01*
X0197317Y0087132D01*
X0197362Y0086980D01*
X0197403Y0086827D01*
X0197441Y0086674D01*
X0197474Y0086519D01*
X0197504Y0086363D01*
X0197530Y0086207D01*
X0197551Y0086050D01*
X0197569Y0085893D01*
X0197583Y0085735D01*
X0197593Y0085577D01*
X0197599Y0085419D01*
X0197601Y0085261D01*
X0197599Y0085103D01*
X0197593Y0084945D01*
X0197583Y0084787D01*
X0197569Y0084629D01*
X0197551Y0084472D01*
X0197530Y0084315D01*
X0197504Y0084159D01*
X0197474Y0084003D01*
X0197441Y0083848D01*
X0197403Y0083695D01*
X0197362Y0083542D01*
X0197317Y0083390D01*
X0197268Y0083239D01*
X0197215Y0083090D01*
X0197159Y0082942D01*
X0197099Y0082796D01*
X0197035Y0082651D01*
X0196967Y0082508D01*
X0196896Y0082366D01*
X0196822Y0082226D01*
X0196744Y0082089D01*
X0196662Y0081953D01*
X0196578Y0081819D01*
X0196489Y0081688D01*
X0196398Y0081559D01*
X0196303Y0081432D01*
X0196206Y0081307D01*
X0196105Y0081185D01*
X0196001Y0081066D01*
X0195894Y0080949D01*
X0195784Y0080835D01*
X0195671Y0080724D01*
X0195556Y0080615D01*
X0195438Y0080510D01*
X0195317Y0080408D01*
X0195194Y0080308D01*
X0195068Y0080212D01*
X0194940Y0080119D01*
X0194810Y0080029D01*
X0194677Y0079943D01*
X0194542Y0079859D01*
X0194406Y0079780D01*
X0194267Y0079703D01*
X0194126Y0079631D01*
X0193984Y0079561D01*
X0193840Y0079496D01*
X0193694Y0079434D01*
X0193547Y0079376D01*
X0193398Y0079321D01*
X0193248Y0079270D01*
X0193097Y0079223D01*
X0192945Y0079180D01*
X0192792Y0079141D01*
X0192637Y0079105D01*
X0192482Y0079074D01*
X0192326Y0079046D01*
X0192170Y0079022D01*
X0192013Y0079002D01*
X0191855Y0078986D01*
X0191698Y0078974D01*
X0191539Y0078966D01*
X0191381Y0078962D01*
X0191223Y0078962D01*
X0191065Y0078966D01*
X0190906Y0078974D01*
X0190749Y0078986D01*
X0190591Y0079002D01*
X0190434Y0079022D01*
X0190278Y0079046D01*
X0190122Y0079074D01*
X0189967Y0079105D01*
X0189812Y0079141D01*
X0189659Y0079180D01*
X0189507Y0079223D01*
X0189356Y0079270D01*
X0189206Y0079321D01*
X0189057Y0079376D01*
X0188910Y0079434D01*
X0188764Y0079496D01*
X0188620Y0079561D01*
X0188478Y0079631D01*
X0188337Y0079703D01*
X0188198Y0079780D01*
X0188062Y0079859D01*
X0187927Y0079943D01*
X0187794Y0080029D01*
X0187664Y0080119D01*
X0187536Y0080212D01*
X0187410Y0080308D01*
X0187287Y0080408D01*
X0187166Y0080510D01*
X0187048Y0080615D01*
X0186933Y0080724D01*
X0186820Y0080835D01*
X0186710Y0080949D01*
X0186603Y0081066D01*
X0186499Y0081185D01*
X0186398Y0081307D01*
X0186301Y0081432D01*
X0186206Y0081559D01*
X0186115Y0081688D01*
X0186026Y0081819D01*
X0185942Y0081953D01*
X0185860Y0082089D01*
X0185782Y0082226D01*
X0185708Y0082366D01*
X0185637Y0082508D01*
X0185569Y0082651D01*
X0185505Y0082796D01*
X0185445Y0082942D01*
X0185389Y0083090D01*
X0185336Y0083239D01*
X0185287Y0083390D01*
X0185242Y0083542D01*
X0185201Y0083695D01*
X0185163Y0083848D01*
X0185130Y0084003D01*
X0185100Y0084159D01*
X0185074Y0084315D01*
X0185053Y0084472D01*
X0185035Y0084629D01*
X0185021Y0084787D01*
X0185011Y0084945D01*
X0185005Y0085103D01*
X0185003Y0085261D01*
X0303114Y0026206D02*
X0303116Y0026364D01*
X0303122Y0026522D01*
X0303132Y0026680D01*
X0303146Y0026838D01*
X0303164Y0026995D01*
X0303185Y0027152D01*
X0303211Y0027308D01*
X0303241Y0027464D01*
X0303274Y0027619D01*
X0303312Y0027772D01*
X0303353Y0027925D01*
X0303398Y0028077D01*
X0303447Y0028228D01*
X0303500Y0028377D01*
X0303556Y0028525D01*
X0303616Y0028671D01*
X0303680Y0028816D01*
X0303748Y0028959D01*
X0303819Y0029101D01*
X0303893Y0029241D01*
X0303971Y0029378D01*
X0304053Y0029514D01*
X0304137Y0029648D01*
X0304226Y0029779D01*
X0304317Y0029908D01*
X0304412Y0030035D01*
X0304509Y0030160D01*
X0304610Y0030282D01*
X0304714Y0030401D01*
X0304821Y0030518D01*
X0304931Y0030632D01*
X0305044Y0030743D01*
X0305159Y0030852D01*
X0305277Y0030957D01*
X0305398Y0031059D01*
X0305521Y0031159D01*
X0305647Y0031255D01*
X0305775Y0031348D01*
X0305905Y0031438D01*
X0306038Y0031524D01*
X0306173Y0031608D01*
X0306309Y0031687D01*
X0306448Y0031764D01*
X0306589Y0031836D01*
X0306731Y0031906D01*
X0306875Y0031971D01*
X0307021Y0032033D01*
X0307168Y0032091D01*
X0307317Y0032146D01*
X0307467Y0032197D01*
X0307618Y0032244D01*
X0307770Y0032287D01*
X0307923Y0032326D01*
X0308078Y0032362D01*
X0308233Y0032393D01*
X0308389Y0032421D01*
X0308545Y0032445D01*
X0308702Y0032465D01*
X0308860Y0032481D01*
X0309017Y0032493D01*
X0309176Y0032501D01*
X0309334Y0032505D01*
X0309492Y0032505D01*
X0309650Y0032501D01*
X0309809Y0032493D01*
X0309966Y0032481D01*
X0310124Y0032465D01*
X0310281Y0032445D01*
X0310437Y0032421D01*
X0310593Y0032393D01*
X0310748Y0032362D01*
X0310903Y0032326D01*
X0311056Y0032287D01*
X0311208Y0032244D01*
X0311359Y0032197D01*
X0311509Y0032146D01*
X0311658Y0032091D01*
X0311805Y0032033D01*
X0311951Y0031971D01*
X0312095Y0031906D01*
X0312237Y0031836D01*
X0312378Y0031764D01*
X0312517Y0031687D01*
X0312653Y0031608D01*
X0312788Y0031524D01*
X0312921Y0031438D01*
X0313051Y0031348D01*
X0313179Y0031255D01*
X0313305Y0031159D01*
X0313428Y0031059D01*
X0313549Y0030957D01*
X0313667Y0030852D01*
X0313782Y0030743D01*
X0313895Y0030632D01*
X0314005Y0030518D01*
X0314112Y0030401D01*
X0314216Y0030282D01*
X0314317Y0030160D01*
X0314414Y0030035D01*
X0314509Y0029908D01*
X0314600Y0029779D01*
X0314689Y0029648D01*
X0314773Y0029514D01*
X0314855Y0029378D01*
X0314933Y0029241D01*
X0315007Y0029101D01*
X0315078Y0028959D01*
X0315146Y0028816D01*
X0315210Y0028671D01*
X0315270Y0028525D01*
X0315326Y0028377D01*
X0315379Y0028228D01*
X0315428Y0028077D01*
X0315473Y0027925D01*
X0315514Y0027772D01*
X0315552Y0027619D01*
X0315585Y0027464D01*
X0315615Y0027308D01*
X0315641Y0027152D01*
X0315662Y0026995D01*
X0315680Y0026838D01*
X0315694Y0026680D01*
X0315704Y0026522D01*
X0315710Y0026364D01*
X0315712Y0026206D01*
X0315710Y0026048D01*
X0315704Y0025890D01*
X0315694Y0025732D01*
X0315680Y0025574D01*
X0315662Y0025417D01*
X0315641Y0025260D01*
X0315615Y0025104D01*
X0315585Y0024948D01*
X0315552Y0024793D01*
X0315514Y0024640D01*
X0315473Y0024487D01*
X0315428Y0024335D01*
X0315379Y0024184D01*
X0315326Y0024035D01*
X0315270Y0023887D01*
X0315210Y0023741D01*
X0315146Y0023596D01*
X0315078Y0023453D01*
X0315007Y0023311D01*
X0314933Y0023171D01*
X0314855Y0023034D01*
X0314773Y0022898D01*
X0314689Y0022764D01*
X0314600Y0022633D01*
X0314509Y0022504D01*
X0314414Y0022377D01*
X0314317Y0022252D01*
X0314216Y0022130D01*
X0314112Y0022011D01*
X0314005Y0021894D01*
X0313895Y0021780D01*
X0313782Y0021669D01*
X0313667Y0021560D01*
X0313549Y0021455D01*
X0313428Y0021353D01*
X0313305Y0021253D01*
X0313179Y0021157D01*
X0313051Y0021064D01*
X0312921Y0020974D01*
X0312788Y0020888D01*
X0312653Y0020804D01*
X0312517Y0020725D01*
X0312378Y0020648D01*
X0312237Y0020576D01*
X0312095Y0020506D01*
X0311951Y0020441D01*
X0311805Y0020379D01*
X0311658Y0020321D01*
X0311509Y0020266D01*
X0311359Y0020215D01*
X0311208Y0020168D01*
X0311056Y0020125D01*
X0310903Y0020086D01*
X0310748Y0020050D01*
X0310593Y0020019D01*
X0310437Y0019991D01*
X0310281Y0019967D01*
X0310124Y0019947D01*
X0309966Y0019931D01*
X0309809Y0019919D01*
X0309650Y0019911D01*
X0309492Y0019907D01*
X0309334Y0019907D01*
X0309176Y0019911D01*
X0309017Y0019919D01*
X0308860Y0019931D01*
X0308702Y0019947D01*
X0308545Y0019967D01*
X0308389Y0019991D01*
X0308233Y0020019D01*
X0308078Y0020050D01*
X0307923Y0020086D01*
X0307770Y0020125D01*
X0307618Y0020168D01*
X0307467Y0020215D01*
X0307317Y0020266D01*
X0307168Y0020321D01*
X0307021Y0020379D01*
X0306875Y0020441D01*
X0306731Y0020506D01*
X0306589Y0020576D01*
X0306448Y0020648D01*
X0306309Y0020725D01*
X0306173Y0020804D01*
X0306038Y0020888D01*
X0305905Y0020974D01*
X0305775Y0021064D01*
X0305647Y0021157D01*
X0305521Y0021253D01*
X0305398Y0021353D01*
X0305277Y0021455D01*
X0305159Y0021560D01*
X0305044Y0021669D01*
X0304931Y0021780D01*
X0304821Y0021894D01*
X0304714Y0022011D01*
X0304610Y0022130D01*
X0304509Y0022252D01*
X0304412Y0022377D01*
X0304317Y0022504D01*
X0304226Y0022633D01*
X0304137Y0022764D01*
X0304053Y0022898D01*
X0303971Y0023034D01*
X0303893Y0023171D01*
X0303819Y0023311D01*
X0303748Y0023453D01*
X0303680Y0023596D01*
X0303616Y0023741D01*
X0303556Y0023887D01*
X0303500Y0024035D01*
X0303447Y0024184D01*
X0303398Y0024335D01*
X0303353Y0024487D01*
X0303312Y0024640D01*
X0303274Y0024793D01*
X0303241Y0024948D01*
X0303211Y0025104D01*
X0303185Y0025260D01*
X0303164Y0025417D01*
X0303146Y0025574D01*
X0303132Y0025732D01*
X0303122Y0025890D01*
X0303116Y0026048D01*
X0303114Y0026206D01*
X0185003Y0250615D02*
X0185005Y0250773D01*
X0185011Y0250931D01*
X0185021Y0251089D01*
X0185035Y0251247D01*
X0185053Y0251404D01*
X0185074Y0251561D01*
X0185100Y0251717D01*
X0185130Y0251873D01*
X0185163Y0252028D01*
X0185201Y0252181D01*
X0185242Y0252334D01*
X0185287Y0252486D01*
X0185336Y0252637D01*
X0185389Y0252786D01*
X0185445Y0252934D01*
X0185505Y0253080D01*
X0185569Y0253225D01*
X0185637Y0253368D01*
X0185708Y0253510D01*
X0185782Y0253650D01*
X0185860Y0253787D01*
X0185942Y0253923D01*
X0186026Y0254057D01*
X0186115Y0254188D01*
X0186206Y0254317D01*
X0186301Y0254444D01*
X0186398Y0254569D01*
X0186499Y0254691D01*
X0186603Y0254810D01*
X0186710Y0254927D01*
X0186820Y0255041D01*
X0186933Y0255152D01*
X0187048Y0255261D01*
X0187166Y0255366D01*
X0187287Y0255468D01*
X0187410Y0255568D01*
X0187536Y0255664D01*
X0187664Y0255757D01*
X0187794Y0255847D01*
X0187927Y0255933D01*
X0188062Y0256017D01*
X0188198Y0256096D01*
X0188337Y0256173D01*
X0188478Y0256245D01*
X0188620Y0256315D01*
X0188764Y0256380D01*
X0188910Y0256442D01*
X0189057Y0256500D01*
X0189206Y0256555D01*
X0189356Y0256606D01*
X0189507Y0256653D01*
X0189659Y0256696D01*
X0189812Y0256735D01*
X0189967Y0256771D01*
X0190122Y0256802D01*
X0190278Y0256830D01*
X0190434Y0256854D01*
X0190591Y0256874D01*
X0190749Y0256890D01*
X0190906Y0256902D01*
X0191065Y0256910D01*
X0191223Y0256914D01*
X0191381Y0256914D01*
X0191539Y0256910D01*
X0191698Y0256902D01*
X0191855Y0256890D01*
X0192013Y0256874D01*
X0192170Y0256854D01*
X0192326Y0256830D01*
X0192482Y0256802D01*
X0192637Y0256771D01*
X0192792Y0256735D01*
X0192945Y0256696D01*
X0193097Y0256653D01*
X0193248Y0256606D01*
X0193398Y0256555D01*
X0193547Y0256500D01*
X0193694Y0256442D01*
X0193840Y0256380D01*
X0193984Y0256315D01*
X0194126Y0256245D01*
X0194267Y0256173D01*
X0194406Y0256096D01*
X0194542Y0256017D01*
X0194677Y0255933D01*
X0194810Y0255847D01*
X0194940Y0255757D01*
X0195068Y0255664D01*
X0195194Y0255568D01*
X0195317Y0255468D01*
X0195438Y0255366D01*
X0195556Y0255261D01*
X0195671Y0255152D01*
X0195784Y0255041D01*
X0195894Y0254927D01*
X0196001Y0254810D01*
X0196105Y0254691D01*
X0196206Y0254569D01*
X0196303Y0254444D01*
X0196398Y0254317D01*
X0196489Y0254188D01*
X0196578Y0254057D01*
X0196662Y0253923D01*
X0196744Y0253787D01*
X0196822Y0253650D01*
X0196896Y0253510D01*
X0196967Y0253368D01*
X0197035Y0253225D01*
X0197099Y0253080D01*
X0197159Y0252934D01*
X0197215Y0252786D01*
X0197268Y0252637D01*
X0197317Y0252486D01*
X0197362Y0252334D01*
X0197403Y0252181D01*
X0197441Y0252028D01*
X0197474Y0251873D01*
X0197504Y0251717D01*
X0197530Y0251561D01*
X0197551Y0251404D01*
X0197569Y0251247D01*
X0197583Y0251089D01*
X0197593Y0250931D01*
X0197599Y0250773D01*
X0197601Y0250615D01*
X0197599Y0250457D01*
X0197593Y0250299D01*
X0197583Y0250141D01*
X0197569Y0249983D01*
X0197551Y0249826D01*
X0197530Y0249669D01*
X0197504Y0249513D01*
X0197474Y0249357D01*
X0197441Y0249202D01*
X0197403Y0249049D01*
X0197362Y0248896D01*
X0197317Y0248744D01*
X0197268Y0248593D01*
X0197215Y0248444D01*
X0197159Y0248296D01*
X0197099Y0248150D01*
X0197035Y0248005D01*
X0196967Y0247862D01*
X0196896Y0247720D01*
X0196822Y0247580D01*
X0196744Y0247443D01*
X0196662Y0247307D01*
X0196578Y0247173D01*
X0196489Y0247042D01*
X0196398Y0246913D01*
X0196303Y0246786D01*
X0196206Y0246661D01*
X0196105Y0246539D01*
X0196001Y0246420D01*
X0195894Y0246303D01*
X0195784Y0246189D01*
X0195671Y0246078D01*
X0195556Y0245969D01*
X0195438Y0245864D01*
X0195317Y0245762D01*
X0195194Y0245662D01*
X0195068Y0245566D01*
X0194940Y0245473D01*
X0194810Y0245383D01*
X0194677Y0245297D01*
X0194542Y0245213D01*
X0194406Y0245134D01*
X0194267Y0245057D01*
X0194126Y0244985D01*
X0193984Y0244915D01*
X0193840Y0244850D01*
X0193694Y0244788D01*
X0193547Y0244730D01*
X0193398Y0244675D01*
X0193248Y0244624D01*
X0193097Y0244577D01*
X0192945Y0244534D01*
X0192792Y0244495D01*
X0192637Y0244459D01*
X0192482Y0244428D01*
X0192326Y0244400D01*
X0192170Y0244376D01*
X0192013Y0244356D01*
X0191855Y0244340D01*
X0191698Y0244328D01*
X0191539Y0244320D01*
X0191381Y0244316D01*
X0191223Y0244316D01*
X0191065Y0244320D01*
X0190906Y0244328D01*
X0190749Y0244340D01*
X0190591Y0244356D01*
X0190434Y0244376D01*
X0190278Y0244400D01*
X0190122Y0244428D01*
X0189967Y0244459D01*
X0189812Y0244495D01*
X0189659Y0244534D01*
X0189507Y0244577D01*
X0189356Y0244624D01*
X0189206Y0244675D01*
X0189057Y0244730D01*
X0188910Y0244788D01*
X0188764Y0244850D01*
X0188620Y0244915D01*
X0188478Y0244985D01*
X0188337Y0245057D01*
X0188198Y0245134D01*
X0188062Y0245213D01*
X0187927Y0245297D01*
X0187794Y0245383D01*
X0187664Y0245473D01*
X0187536Y0245566D01*
X0187410Y0245662D01*
X0187287Y0245762D01*
X0187166Y0245864D01*
X0187048Y0245969D01*
X0186933Y0246078D01*
X0186820Y0246189D01*
X0186710Y0246303D01*
X0186603Y0246420D01*
X0186499Y0246539D01*
X0186398Y0246661D01*
X0186301Y0246786D01*
X0186206Y0246913D01*
X0186115Y0247042D01*
X0186026Y0247173D01*
X0185942Y0247307D01*
X0185860Y0247443D01*
X0185782Y0247580D01*
X0185708Y0247720D01*
X0185637Y0247862D01*
X0185569Y0248005D01*
X0185505Y0248150D01*
X0185445Y0248296D01*
X0185389Y0248444D01*
X0185336Y0248593D01*
X0185287Y0248744D01*
X0185242Y0248896D01*
X0185201Y0249049D01*
X0185163Y0249202D01*
X0185130Y0249357D01*
X0185100Y0249513D01*
X0185074Y0249669D01*
X0185053Y0249826D01*
X0185035Y0249983D01*
X0185021Y0250141D01*
X0185011Y0250299D01*
X0185005Y0250457D01*
X0185003Y0250615D01*
X0303114Y0309670D02*
X0303116Y0309828D01*
X0303122Y0309986D01*
X0303132Y0310144D01*
X0303146Y0310302D01*
X0303164Y0310459D01*
X0303185Y0310616D01*
X0303211Y0310772D01*
X0303241Y0310928D01*
X0303274Y0311083D01*
X0303312Y0311236D01*
X0303353Y0311389D01*
X0303398Y0311541D01*
X0303447Y0311692D01*
X0303500Y0311841D01*
X0303556Y0311989D01*
X0303616Y0312135D01*
X0303680Y0312280D01*
X0303748Y0312423D01*
X0303819Y0312565D01*
X0303893Y0312705D01*
X0303971Y0312842D01*
X0304053Y0312978D01*
X0304137Y0313112D01*
X0304226Y0313243D01*
X0304317Y0313372D01*
X0304412Y0313499D01*
X0304509Y0313624D01*
X0304610Y0313746D01*
X0304714Y0313865D01*
X0304821Y0313982D01*
X0304931Y0314096D01*
X0305044Y0314207D01*
X0305159Y0314316D01*
X0305277Y0314421D01*
X0305398Y0314523D01*
X0305521Y0314623D01*
X0305647Y0314719D01*
X0305775Y0314812D01*
X0305905Y0314902D01*
X0306038Y0314988D01*
X0306173Y0315072D01*
X0306309Y0315151D01*
X0306448Y0315228D01*
X0306589Y0315300D01*
X0306731Y0315370D01*
X0306875Y0315435D01*
X0307021Y0315497D01*
X0307168Y0315555D01*
X0307317Y0315610D01*
X0307467Y0315661D01*
X0307618Y0315708D01*
X0307770Y0315751D01*
X0307923Y0315790D01*
X0308078Y0315826D01*
X0308233Y0315857D01*
X0308389Y0315885D01*
X0308545Y0315909D01*
X0308702Y0315929D01*
X0308860Y0315945D01*
X0309017Y0315957D01*
X0309176Y0315965D01*
X0309334Y0315969D01*
X0309492Y0315969D01*
X0309650Y0315965D01*
X0309809Y0315957D01*
X0309966Y0315945D01*
X0310124Y0315929D01*
X0310281Y0315909D01*
X0310437Y0315885D01*
X0310593Y0315857D01*
X0310748Y0315826D01*
X0310903Y0315790D01*
X0311056Y0315751D01*
X0311208Y0315708D01*
X0311359Y0315661D01*
X0311509Y0315610D01*
X0311658Y0315555D01*
X0311805Y0315497D01*
X0311951Y0315435D01*
X0312095Y0315370D01*
X0312237Y0315300D01*
X0312378Y0315228D01*
X0312517Y0315151D01*
X0312653Y0315072D01*
X0312788Y0314988D01*
X0312921Y0314902D01*
X0313051Y0314812D01*
X0313179Y0314719D01*
X0313305Y0314623D01*
X0313428Y0314523D01*
X0313549Y0314421D01*
X0313667Y0314316D01*
X0313782Y0314207D01*
X0313895Y0314096D01*
X0314005Y0313982D01*
X0314112Y0313865D01*
X0314216Y0313746D01*
X0314317Y0313624D01*
X0314414Y0313499D01*
X0314509Y0313372D01*
X0314600Y0313243D01*
X0314689Y0313112D01*
X0314773Y0312978D01*
X0314855Y0312842D01*
X0314933Y0312705D01*
X0315007Y0312565D01*
X0315078Y0312423D01*
X0315146Y0312280D01*
X0315210Y0312135D01*
X0315270Y0311989D01*
X0315326Y0311841D01*
X0315379Y0311692D01*
X0315428Y0311541D01*
X0315473Y0311389D01*
X0315514Y0311236D01*
X0315552Y0311083D01*
X0315585Y0310928D01*
X0315615Y0310772D01*
X0315641Y0310616D01*
X0315662Y0310459D01*
X0315680Y0310302D01*
X0315694Y0310144D01*
X0315704Y0309986D01*
X0315710Y0309828D01*
X0315712Y0309670D01*
X0315710Y0309512D01*
X0315704Y0309354D01*
X0315694Y0309196D01*
X0315680Y0309038D01*
X0315662Y0308881D01*
X0315641Y0308724D01*
X0315615Y0308568D01*
X0315585Y0308412D01*
X0315552Y0308257D01*
X0315514Y0308104D01*
X0315473Y0307951D01*
X0315428Y0307799D01*
X0315379Y0307648D01*
X0315326Y0307499D01*
X0315270Y0307351D01*
X0315210Y0307205D01*
X0315146Y0307060D01*
X0315078Y0306917D01*
X0315007Y0306775D01*
X0314933Y0306635D01*
X0314855Y0306498D01*
X0314773Y0306362D01*
X0314689Y0306228D01*
X0314600Y0306097D01*
X0314509Y0305968D01*
X0314414Y0305841D01*
X0314317Y0305716D01*
X0314216Y0305594D01*
X0314112Y0305475D01*
X0314005Y0305358D01*
X0313895Y0305244D01*
X0313782Y0305133D01*
X0313667Y0305024D01*
X0313549Y0304919D01*
X0313428Y0304817D01*
X0313305Y0304717D01*
X0313179Y0304621D01*
X0313051Y0304528D01*
X0312921Y0304438D01*
X0312788Y0304352D01*
X0312653Y0304268D01*
X0312517Y0304189D01*
X0312378Y0304112D01*
X0312237Y0304040D01*
X0312095Y0303970D01*
X0311951Y0303905D01*
X0311805Y0303843D01*
X0311658Y0303785D01*
X0311509Y0303730D01*
X0311359Y0303679D01*
X0311208Y0303632D01*
X0311056Y0303589D01*
X0310903Y0303550D01*
X0310748Y0303514D01*
X0310593Y0303483D01*
X0310437Y0303455D01*
X0310281Y0303431D01*
X0310124Y0303411D01*
X0309966Y0303395D01*
X0309809Y0303383D01*
X0309650Y0303375D01*
X0309492Y0303371D01*
X0309334Y0303371D01*
X0309176Y0303375D01*
X0309017Y0303383D01*
X0308860Y0303395D01*
X0308702Y0303411D01*
X0308545Y0303431D01*
X0308389Y0303455D01*
X0308233Y0303483D01*
X0308078Y0303514D01*
X0307923Y0303550D01*
X0307770Y0303589D01*
X0307618Y0303632D01*
X0307467Y0303679D01*
X0307317Y0303730D01*
X0307168Y0303785D01*
X0307021Y0303843D01*
X0306875Y0303905D01*
X0306731Y0303970D01*
X0306589Y0304040D01*
X0306448Y0304112D01*
X0306309Y0304189D01*
X0306173Y0304268D01*
X0306038Y0304352D01*
X0305905Y0304438D01*
X0305775Y0304528D01*
X0305647Y0304621D01*
X0305521Y0304717D01*
X0305398Y0304817D01*
X0305277Y0304919D01*
X0305159Y0305024D01*
X0305044Y0305133D01*
X0304931Y0305244D01*
X0304821Y0305358D01*
X0304714Y0305475D01*
X0304610Y0305594D01*
X0304509Y0305716D01*
X0304412Y0305841D01*
X0304317Y0305968D01*
X0304226Y0306097D01*
X0304137Y0306228D01*
X0304053Y0306362D01*
X0303971Y0306498D01*
X0303893Y0306635D01*
X0303819Y0306775D01*
X0303748Y0306917D01*
X0303680Y0307060D01*
X0303616Y0307205D01*
X0303556Y0307351D01*
X0303500Y0307499D01*
X0303447Y0307648D01*
X0303398Y0307799D01*
X0303353Y0307951D01*
X0303312Y0308104D01*
X0303274Y0308257D01*
X0303241Y0308412D01*
X0303211Y0308568D01*
X0303185Y0308724D01*
X0303164Y0308881D01*
X0303146Y0309038D01*
X0303132Y0309196D01*
X0303122Y0309354D01*
X0303116Y0309512D01*
X0303114Y0309670D01*
X0019649Y0309670D02*
X0019651Y0309828D01*
X0019657Y0309986D01*
X0019667Y0310144D01*
X0019681Y0310302D01*
X0019699Y0310459D01*
X0019720Y0310616D01*
X0019746Y0310772D01*
X0019776Y0310928D01*
X0019809Y0311083D01*
X0019847Y0311236D01*
X0019888Y0311389D01*
X0019933Y0311541D01*
X0019982Y0311692D01*
X0020035Y0311841D01*
X0020091Y0311989D01*
X0020151Y0312135D01*
X0020215Y0312280D01*
X0020283Y0312423D01*
X0020354Y0312565D01*
X0020428Y0312705D01*
X0020506Y0312842D01*
X0020588Y0312978D01*
X0020672Y0313112D01*
X0020761Y0313243D01*
X0020852Y0313372D01*
X0020947Y0313499D01*
X0021044Y0313624D01*
X0021145Y0313746D01*
X0021249Y0313865D01*
X0021356Y0313982D01*
X0021466Y0314096D01*
X0021579Y0314207D01*
X0021694Y0314316D01*
X0021812Y0314421D01*
X0021933Y0314523D01*
X0022056Y0314623D01*
X0022182Y0314719D01*
X0022310Y0314812D01*
X0022440Y0314902D01*
X0022573Y0314988D01*
X0022708Y0315072D01*
X0022844Y0315151D01*
X0022983Y0315228D01*
X0023124Y0315300D01*
X0023266Y0315370D01*
X0023410Y0315435D01*
X0023556Y0315497D01*
X0023703Y0315555D01*
X0023852Y0315610D01*
X0024002Y0315661D01*
X0024153Y0315708D01*
X0024305Y0315751D01*
X0024458Y0315790D01*
X0024613Y0315826D01*
X0024768Y0315857D01*
X0024924Y0315885D01*
X0025080Y0315909D01*
X0025237Y0315929D01*
X0025395Y0315945D01*
X0025552Y0315957D01*
X0025711Y0315965D01*
X0025869Y0315969D01*
X0026027Y0315969D01*
X0026185Y0315965D01*
X0026344Y0315957D01*
X0026501Y0315945D01*
X0026659Y0315929D01*
X0026816Y0315909D01*
X0026972Y0315885D01*
X0027128Y0315857D01*
X0027283Y0315826D01*
X0027438Y0315790D01*
X0027591Y0315751D01*
X0027743Y0315708D01*
X0027894Y0315661D01*
X0028044Y0315610D01*
X0028193Y0315555D01*
X0028340Y0315497D01*
X0028486Y0315435D01*
X0028630Y0315370D01*
X0028772Y0315300D01*
X0028913Y0315228D01*
X0029052Y0315151D01*
X0029188Y0315072D01*
X0029323Y0314988D01*
X0029456Y0314902D01*
X0029586Y0314812D01*
X0029714Y0314719D01*
X0029840Y0314623D01*
X0029963Y0314523D01*
X0030084Y0314421D01*
X0030202Y0314316D01*
X0030317Y0314207D01*
X0030430Y0314096D01*
X0030540Y0313982D01*
X0030647Y0313865D01*
X0030751Y0313746D01*
X0030852Y0313624D01*
X0030949Y0313499D01*
X0031044Y0313372D01*
X0031135Y0313243D01*
X0031224Y0313112D01*
X0031308Y0312978D01*
X0031390Y0312842D01*
X0031468Y0312705D01*
X0031542Y0312565D01*
X0031613Y0312423D01*
X0031681Y0312280D01*
X0031745Y0312135D01*
X0031805Y0311989D01*
X0031861Y0311841D01*
X0031914Y0311692D01*
X0031963Y0311541D01*
X0032008Y0311389D01*
X0032049Y0311236D01*
X0032087Y0311083D01*
X0032120Y0310928D01*
X0032150Y0310772D01*
X0032176Y0310616D01*
X0032197Y0310459D01*
X0032215Y0310302D01*
X0032229Y0310144D01*
X0032239Y0309986D01*
X0032245Y0309828D01*
X0032247Y0309670D01*
X0032245Y0309512D01*
X0032239Y0309354D01*
X0032229Y0309196D01*
X0032215Y0309038D01*
X0032197Y0308881D01*
X0032176Y0308724D01*
X0032150Y0308568D01*
X0032120Y0308412D01*
X0032087Y0308257D01*
X0032049Y0308104D01*
X0032008Y0307951D01*
X0031963Y0307799D01*
X0031914Y0307648D01*
X0031861Y0307499D01*
X0031805Y0307351D01*
X0031745Y0307205D01*
X0031681Y0307060D01*
X0031613Y0306917D01*
X0031542Y0306775D01*
X0031468Y0306635D01*
X0031390Y0306498D01*
X0031308Y0306362D01*
X0031224Y0306228D01*
X0031135Y0306097D01*
X0031044Y0305968D01*
X0030949Y0305841D01*
X0030852Y0305716D01*
X0030751Y0305594D01*
X0030647Y0305475D01*
X0030540Y0305358D01*
X0030430Y0305244D01*
X0030317Y0305133D01*
X0030202Y0305024D01*
X0030084Y0304919D01*
X0029963Y0304817D01*
X0029840Y0304717D01*
X0029714Y0304621D01*
X0029586Y0304528D01*
X0029456Y0304438D01*
X0029323Y0304352D01*
X0029188Y0304268D01*
X0029052Y0304189D01*
X0028913Y0304112D01*
X0028772Y0304040D01*
X0028630Y0303970D01*
X0028486Y0303905D01*
X0028340Y0303843D01*
X0028193Y0303785D01*
X0028044Y0303730D01*
X0027894Y0303679D01*
X0027743Y0303632D01*
X0027591Y0303589D01*
X0027438Y0303550D01*
X0027283Y0303514D01*
X0027128Y0303483D01*
X0026972Y0303455D01*
X0026816Y0303431D01*
X0026659Y0303411D01*
X0026501Y0303395D01*
X0026344Y0303383D01*
X0026185Y0303375D01*
X0026027Y0303371D01*
X0025869Y0303371D01*
X0025711Y0303375D01*
X0025552Y0303383D01*
X0025395Y0303395D01*
X0025237Y0303411D01*
X0025080Y0303431D01*
X0024924Y0303455D01*
X0024768Y0303483D01*
X0024613Y0303514D01*
X0024458Y0303550D01*
X0024305Y0303589D01*
X0024153Y0303632D01*
X0024002Y0303679D01*
X0023852Y0303730D01*
X0023703Y0303785D01*
X0023556Y0303843D01*
X0023410Y0303905D01*
X0023266Y0303970D01*
X0023124Y0304040D01*
X0022983Y0304112D01*
X0022844Y0304189D01*
X0022708Y0304268D01*
X0022573Y0304352D01*
X0022440Y0304438D01*
X0022310Y0304528D01*
X0022182Y0304621D01*
X0022056Y0304717D01*
X0021933Y0304817D01*
X0021812Y0304919D01*
X0021694Y0305024D01*
X0021579Y0305133D01*
X0021466Y0305244D01*
X0021356Y0305358D01*
X0021249Y0305475D01*
X0021145Y0305594D01*
X0021044Y0305716D01*
X0020947Y0305841D01*
X0020852Y0305968D01*
X0020761Y0306097D01*
X0020672Y0306228D01*
X0020588Y0306362D01*
X0020506Y0306498D01*
X0020428Y0306635D01*
X0020354Y0306775D01*
X0020283Y0306917D01*
X0020215Y0307060D01*
X0020151Y0307205D01*
X0020091Y0307351D01*
X0020035Y0307499D01*
X0019982Y0307648D01*
X0019933Y0307799D01*
X0019888Y0307951D01*
X0019847Y0308104D01*
X0019809Y0308257D01*
X0019776Y0308412D01*
X0019746Y0308568D01*
X0019720Y0308724D01*
X0019699Y0308881D01*
X0019681Y0309038D01*
X0019667Y0309196D01*
X0019657Y0309354D01*
X0019651Y0309512D01*
X0019649Y0309670D01*
D21*
X0014156Y0309651D02*
X0014160Y0309941D01*
X0014170Y0310231D01*
X0014188Y0310520D01*
X0014213Y0310809D01*
X0014245Y0311097D01*
X0014284Y0311384D01*
X0014330Y0311670D01*
X0014383Y0311955D01*
X0014443Y0312239D01*
X0014510Y0312521D01*
X0014584Y0312801D01*
X0014665Y0313080D01*
X0014752Y0313356D01*
X0014846Y0313630D01*
X0014947Y0313902D01*
X0015055Y0314171D01*
X0015169Y0314437D01*
X0015290Y0314701D01*
X0015417Y0314961D01*
X0015551Y0315219D01*
X0015690Y0315473D01*
X0015836Y0315723D01*
X0015988Y0315970D01*
X0016147Y0316213D01*
X0016311Y0316452D01*
X0016480Y0316687D01*
X0016656Y0316918D01*
X0016837Y0317144D01*
X0017024Y0317366D01*
X0017216Y0317583D01*
X0017413Y0317795D01*
X0017615Y0318003D01*
X0017823Y0318205D01*
X0018035Y0318402D01*
X0018252Y0318594D01*
X0018474Y0318781D01*
X0018700Y0318962D01*
X0018931Y0319138D01*
X0019166Y0319307D01*
X0019405Y0319471D01*
X0019648Y0319630D01*
X0019895Y0319782D01*
X0020145Y0319928D01*
X0020399Y0320067D01*
X0020657Y0320201D01*
X0020917Y0320328D01*
X0021181Y0320449D01*
X0021447Y0320563D01*
X0021716Y0320671D01*
X0021988Y0320772D01*
X0022262Y0320866D01*
X0022538Y0320953D01*
X0022817Y0321034D01*
X0023097Y0321108D01*
X0023379Y0321175D01*
X0023663Y0321235D01*
X0023948Y0321288D01*
X0024234Y0321334D01*
X0024521Y0321373D01*
X0024809Y0321405D01*
X0025098Y0321430D01*
X0025387Y0321448D01*
X0025677Y0321458D01*
X0025967Y0321462D01*
X0026257Y0321458D01*
X0026547Y0321448D01*
X0026836Y0321430D01*
X0027125Y0321405D01*
X0027413Y0321373D01*
X0027700Y0321334D01*
X0027986Y0321288D01*
X0028271Y0321235D01*
X0028555Y0321175D01*
X0028837Y0321108D01*
X0029117Y0321034D01*
X0029396Y0320953D01*
X0029672Y0320866D01*
X0029946Y0320772D01*
X0030218Y0320671D01*
X0030487Y0320563D01*
X0030753Y0320449D01*
X0031017Y0320328D01*
X0031277Y0320201D01*
X0031535Y0320067D01*
X0031789Y0319928D01*
X0032039Y0319782D01*
X0032286Y0319630D01*
X0032529Y0319471D01*
X0032768Y0319307D01*
X0033003Y0319138D01*
X0033234Y0318962D01*
X0033460Y0318781D01*
X0033682Y0318594D01*
X0033899Y0318402D01*
X0034111Y0318205D01*
X0034319Y0318003D01*
X0034521Y0317795D01*
X0034718Y0317583D01*
X0034910Y0317366D01*
X0035097Y0317144D01*
X0035278Y0316918D01*
X0035454Y0316687D01*
X0035623Y0316452D01*
X0035787Y0316213D01*
X0035946Y0315970D01*
X0036098Y0315723D01*
X0036244Y0315473D01*
X0036383Y0315219D01*
X0036517Y0314961D01*
X0036644Y0314701D01*
X0036765Y0314437D01*
X0036879Y0314171D01*
X0036987Y0313902D01*
X0037088Y0313630D01*
X0037182Y0313356D01*
X0037269Y0313080D01*
X0037350Y0312801D01*
X0037424Y0312521D01*
X0037491Y0312239D01*
X0037551Y0311955D01*
X0037604Y0311670D01*
X0037650Y0311384D01*
X0037689Y0311097D01*
X0037721Y0310809D01*
X0037746Y0310520D01*
X0037764Y0310231D01*
X0037774Y0309941D01*
X0037778Y0309651D01*
X0037774Y0309361D01*
X0037764Y0309071D01*
X0037746Y0308782D01*
X0037721Y0308493D01*
X0037689Y0308205D01*
X0037650Y0307918D01*
X0037604Y0307632D01*
X0037551Y0307347D01*
X0037491Y0307063D01*
X0037424Y0306781D01*
X0037350Y0306501D01*
X0037269Y0306222D01*
X0037182Y0305946D01*
X0037088Y0305672D01*
X0036987Y0305400D01*
X0036879Y0305131D01*
X0036765Y0304865D01*
X0036644Y0304601D01*
X0036517Y0304341D01*
X0036383Y0304083D01*
X0036244Y0303829D01*
X0036098Y0303579D01*
X0035946Y0303332D01*
X0035787Y0303089D01*
X0035623Y0302850D01*
X0035454Y0302615D01*
X0035278Y0302384D01*
X0035097Y0302158D01*
X0034910Y0301936D01*
X0034718Y0301719D01*
X0034521Y0301507D01*
X0034319Y0301299D01*
X0034111Y0301097D01*
X0033899Y0300900D01*
X0033682Y0300708D01*
X0033460Y0300521D01*
X0033234Y0300340D01*
X0033003Y0300164D01*
X0032768Y0299995D01*
X0032529Y0299831D01*
X0032286Y0299672D01*
X0032039Y0299520D01*
X0031789Y0299374D01*
X0031535Y0299235D01*
X0031277Y0299101D01*
X0031017Y0298974D01*
X0030753Y0298853D01*
X0030487Y0298739D01*
X0030218Y0298631D01*
X0029946Y0298530D01*
X0029672Y0298436D01*
X0029396Y0298349D01*
X0029117Y0298268D01*
X0028837Y0298194D01*
X0028555Y0298127D01*
X0028271Y0298067D01*
X0027986Y0298014D01*
X0027700Y0297968D01*
X0027413Y0297929D01*
X0027125Y0297897D01*
X0026836Y0297872D01*
X0026547Y0297854D01*
X0026257Y0297844D01*
X0025967Y0297840D01*
X0025677Y0297844D01*
X0025387Y0297854D01*
X0025098Y0297872D01*
X0024809Y0297897D01*
X0024521Y0297929D01*
X0024234Y0297968D01*
X0023948Y0298014D01*
X0023663Y0298067D01*
X0023379Y0298127D01*
X0023097Y0298194D01*
X0022817Y0298268D01*
X0022538Y0298349D01*
X0022262Y0298436D01*
X0021988Y0298530D01*
X0021716Y0298631D01*
X0021447Y0298739D01*
X0021181Y0298853D01*
X0020917Y0298974D01*
X0020657Y0299101D01*
X0020399Y0299235D01*
X0020145Y0299374D01*
X0019895Y0299520D01*
X0019648Y0299672D01*
X0019405Y0299831D01*
X0019166Y0299995D01*
X0018931Y0300164D01*
X0018700Y0300340D01*
X0018474Y0300521D01*
X0018252Y0300708D01*
X0018035Y0300900D01*
X0017823Y0301097D01*
X0017615Y0301299D01*
X0017413Y0301507D01*
X0017216Y0301719D01*
X0017024Y0301936D01*
X0016837Y0302158D01*
X0016656Y0302384D01*
X0016480Y0302615D01*
X0016311Y0302850D01*
X0016147Y0303089D01*
X0015988Y0303332D01*
X0015836Y0303579D01*
X0015690Y0303829D01*
X0015551Y0304083D01*
X0015417Y0304341D01*
X0015290Y0304601D01*
X0015169Y0304865D01*
X0015055Y0305131D01*
X0014947Y0305400D01*
X0014846Y0305672D01*
X0014752Y0305946D01*
X0014665Y0306222D01*
X0014584Y0306501D01*
X0014510Y0306781D01*
X0014443Y0307063D01*
X0014383Y0307347D01*
X0014330Y0307632D01*
X0014284Y0307918D01*
X0014245Y0308205D01*
X0014213Y0308493D01*
X0014188Y0308782D01*
X0014170Y0309071D01*
X0014160Y0309361D01*
X0014156Y0309651D01*
X0179510Y0250596D02*
X0179514Y0250886D01*
X0179524Y0251176D01*
X0179542Y0251465D01*
X0179567Y0251754D01*
X0179599Y0252042D01*
X0179638Y0252329D01*
X0179684Y0252615D01*
X0179737Y0252900D01*
X0179797Y0253184D01*
X0179864Y0253466D01*
X0179938Y0253746D01*
X0180019Y0254025D01*
X0180106Y0254301D01*
X0180200Y0254575D01*
X0180301Y0254847D01*
X0180409Y0255116D01*
X0180523Y0255382D01*
X0180644Y0255646D01*
X0180771Y0255906D01*
X0180905Y0256164D01*
X0181044Y0256418D01*
X0181190Y0256668D01*
X0181342Y0256915D01*
X0181501Y0257158D01*
X0181665Y0257397D01*
X0181834Y0257632D01*
X0182010Y0257863D01*
X0182191Y0258089D01*
X0182378Y0258311D01*
X0182570Y0258528D01*
X0182767Y0258740D01*
X0182969Y0258948D01*
X0183177Y0259150D01*
X0183389Y0259347D01*
X0183606Y0259539D01*
X0183828Y0259726D01*
X0184054Y0259907D01*
X0184285Y0260083D01*
X0184520Y0260252D01*
X0184759Y0260416D01*
X0185002Y0260575D01*
X0185249Y0260727D01*
X0185499Y0260873D01*
X0185753Y0261012D01*
X0186011Y0261146D01*
X0186271Y0261273D01*
X0186535Y0261394D01*
X0186801Y0261508D01*
X0187070Y0261616D01*
X0187342Y0261717D01*
X0187616Y0261811D01*
X0187892Y0261898D01*
X0188171Y0261979D01*
X0188451Y0262053D01*
X0188733Y0262120D01*
X0189017Y0262180D01*
X0189302Y0262233D01*
X0189588Y0262279D01*
X0189875Y0262318D01*
X0190163Y0262350D01*
X0190452Y0262375D01*
X0190741Y0262393D01*
X0191031Y0262403D01*
X0191321Y0262407D01*
X0191611Y0262403D01*
X0191901Y0262393D01*
X0192190Y0262375D01*
X0192479Y0262350D01*
X0192767Y0262318D01*
X0193054Y0262279D01*
X0193340Y0262233D01*
X0193625Y0262180D01*
X0193909Y0262120D01*
X0194191Y0262053D01*
X0194471Y0261979D01*
X0194750Y0261898D01*
X0195026Y0261811D01*
X0195300Y0261717D01*
X0195572Y0261616D01*
X0195841Y0261508D01*
X0196107Y0261394D01*
X0196371Y0261273D01*
X0196631Y0261146D01*
X0196889Y0261012D01*
X0197143Y0260873D01*
X0197393Y0260727D01*
X0197640Y0260575D01*
X0197883Y0260416D01*
X0198122Y0260252D01*
X0198357Y0260083D01*
X0198588Y0259907D01*
X0198814Y0259726D01*
X0199036Y0259539D01*
X0199253Y0259347D01*
X0199465Y0259150D01*
X0199673Y0258948D01*
X0199875Y0258740D01*
X0200072Y0258528D01*
X0200264Y0258311D01*
X0200451Y0258089D01*
X0200632Y0257863D01*
X0200808Y0257632D01*
X0200977Y0257397D01*
X0201141Y0257158D01*
X0201300Y0256915D01*
X0201452Y0256668D01*
X0201598Y0256418D01*
X0201737Y0256164D01*
X0201871Y0255906D01*
X0201998Y0255646D01*
X0202119Y0255382D01*
X0202233Y0255116D01*
X0202341Y0254847D01*
X0202442Y0254575D01*
X0202536Y0254301D01*
X0202623Y0254025D01*
X0202704Y0253746D01*
X0202778Y0253466D01*
X0202845Y0253184D01*
X0202905Y0252900D01*
X0202958Y0252615D01*
X0203004Y0252329D01*
X0203043Y0252042D01*
X0203075Y0251754D01*
X0203100Y0251465D01*
X0203118Y0251176D01*
X0203128Y0250886D01*
X0203132Y0250596D01*
X0203128Y0250306D01*
X0203118Y0250016D01*
X0203100Y0249727D01*
X0203075Y0249438D01*
X0203043Y0249150D01*
X0203004Y0248863D01*
X0202958Y0248577D01*
X0202905Y0248292D01*
X0202845Y0248008D01*
X0202778Y0247726D01*
X0202704Y0247446D01*
X0202623Y0247167D01*
X0202536Y0246891D01*
X0202442Y0246617D01*
X0202341Y0246345D01*
X0202233Y0246076D01*
X0202119Y0245810D01*
X0201998Y0245546D01*
X0201871Y0245286D01*
X0201737Y0245028D01*
X0201598Y0244774D01*
X0201452Y0244524D01*
X0201300Y0244277D01*
X0201141Y0244034D01*
X0200977Y0243795D01*
X0200808Y0243560D01*
X0200632Y0243329D01*
X0200451Y0243103D01*
X0200264Y0242881D01*
X0200072Y0242664D01*
X0199875Y0242452D01*
X0199673Y0242244D01*
X0199465Y0242042D01*
X0199253Y0241845D01*
X0199036Y0241653D01*
X0198814Y0241466D01*
X0198588Y0241285D01*
X0198357Y0241109D01*
X0198122Y0240940D01*
X0197883Y0240776D01*
X0197640Y0240617D01*
X0197393Y0240465D01*
X0197143Y0240319D01*
X0196889Y0240180D01*
X0196631Y0240046D01*
X0196371Y0239919D01*
X0196107Y0239798D01*
X0195841Y0239684D01*
X0195572Y0239576D01*
X0195300Y0239475D01*
X0195026Y0239381D01*
X0194750Y0239294D01*
X0194471Y0239213D01*
X0194191Y0239139D01*
X0193909Y0239072D01*
X0193625Y0239012D01*
X0193340Y0238959D01*
X0193054Y0238913D01*
X0192767Y0238874D01*
X0192479Y0238842D01*
X0192190Y0238817D01*
X0191901Y0238799D01*
X0191611Y0238789D01*
X0191321Y0238785D01*
X0191031Y0238789D01*
X0190741Y0238799D01*
X0190452Y0238817D01*
X0190163Y0238842D01*
X0189875Y0238874D01*
X0189588Y0238913D01*
X0189302Y0238959D01*
X0189017Y0239012D01*
X0188733Y0239072D01*
X0188451Y0239139D01*
X0188171Y0239213D01*
X0187892Y0239294D01*
X0187616Y0239381D01*
X0187342Y0239475D01*
X0187070Y0239576D01*
X0186801Y0239684D01*
X0186535Y0239798D01*
X0186271Y0239919D01*
X0186011Y0240046D01*
X0185753Y0240180D01*
X0185499Y0240319D01*
X0185249Y0240465D01*
X0185002Y0240617D01*
X0184759Y0240776D01*
X0184520Y0240940D01*
X0184285Y0241109D01*
X0184054Y0241285D01*
X0183828Y0241466D01*
X0183606Y0241653D01*
X0183389Y0241845D01*
X0183177Y0242042D01*
X0182969Y0242244D01*
X0182767Y0242452D01*
X0182570Y0242664D01*
X0182378Y0242881D01*
X0182191Y0243103D01*
X0182010Y0243329D01*
X0181834Y0243560D01*
X0181665Y0243795D01*
X0181501Y0244034D01*
X0181342Y0244277D01*
X0181190Y0244524D01*
X0181044Y0244774D01*
X0180905Y0245028D01*
X0180771Y0245286D01*
X0180644Y0245546D01*
X0180523Y0245810D01*
X0180409Y0246076D01*
X0180301Y0246345D01*
X0180200Y0246617D01*
X0180106Y0246891D01*
X0180019Y0247167D01*
X0179938Y0247446D01*
X0179864Y0247726D01*
X0179797Y0248008D01*
X0179737Y0248292D01*
X0179684Y0248577D01*
X0179638Y0248863D01*
X0179599Y0249150D01*
X0179567Y0249438D01*
X0179542Y0249727D01*
X0179524Y0250016D01*
X0179514Y0250306D01*
X0179510Y0250596D01*
X0297620Y0309651D02*
X0297624Y0309941D01*
X0297634Y0310231D01*
X0297652Y0310520D01*
X0297677Y0310809D01*
X0297709Y0311097D01*
X0297748Y0311384D01*
X0297794Y0311670D01*
X0297847Y0311955D01*
X0297907Y0312239D01*
X0297974Y0312521D01*
X0298048Y0312801D01*
X0298129Y0313080D01*
X0298216Y0313356D01*
X0298310Y0313630D01*
X0298411Y0313902D01*
X0298519Y0314171D01*
X0298633Y0314437D01*
X0298754Y0314701D01*
X0298881Y0314961D01*
X0299015Y0315219D01*
X0299154Y0315473D01*
X0299300Y0315723D01*
X0299452Y0315970D01*
X0299611Y0316213D01*
X0299775Y0316452D01*
X0299944Y0316687D01*
X0300120Y0316918D01*
X0300301Y0317144D01*
X0300488Y0317366D01*
X0300680Y0317583D01*
X0300877Y0317795D01*
X0301079Y0318003D01*
X0301287Y0318205D01*
X0301499Y0318402D01*
X0301716Y0318594D01*
X0301938Y0318781D01*
X0302164Y0318962D01*
X0302395Y0319138D01*
X0302630Y0319307D01*
X0302869Y0319471D01*
X0303112Y0319630D01*
X0303359Y0319782D01*
X0303609Y0319928D01*
X0303863Y0320067D01*
X0304121Y0320201D01*
X0304381Y0320328D01*
X0304645Y0320449D01*
X0304911Y0320563D01*
X0305180Y0320671D01*
X0305452Y0320772D01*
X0305726Y0320866D01*
X0306002Y0320953D01*
X0306281Y0321034D01*
X0306561Y0321108D01*
X0306843Y0321175D01*
X0307127Y0321235D01*
X0307412Y0321288D01*
X0307698Y0321334D01*
X0307985Y0321373D01*
X0308273Y0321405D01*
X0308562Y0321430D01*
X0308851Y0321448D01*
X0309141Y0321458D01*
X0309431Y0321462D01*
X0309721Y0321458D01*
X0310011Y0321448D01*
X0310300Y0321430D01*
X0310589Y0321405D01*
X0310877Y0321373D01*
X0311164Y0321334D01*
X0311450Y0321288D01*
X0311735Y0321235D01*
X0312019Y0321175D01*
X0312301Y0321108D01*
X0312581Y0321034D01*
X0312860Y0320953D01*
X0313136Y0320866D01*
X0313410Y0320772D01*
X0313682Y0320671D01*
X0313951Y0320563D01*
X0314217Y0320449D01*
X0314481Y0320328D01*
X0314741Y0320201D01*
X0314999Y0320067D01*
X0315253Y0319928D01*
X0315503Y0319782D01*
X0315750Y0319630D01*
X0315993Y0319471D01*
X0316232Y0319307D01*
X0316467Y0319138D01*
X0316698Y0318962D01*
X0316924Y0318781D01*
X0317146Y0318594D01*
X0317363Y0318402D01*
X0317575Y0318205D01*
X0317783Y0318003D01*
X0317985Y0317795D01*
X0318182Y0317583D01*
X0318374Y0317366D01*
X0318561Y0317144D01*
X0318742Y0316918D01*
X0318918Y0316687D01*
X0319087Y0316452D01*
X0319251Y0316213D01*
X0319410Y0315970D01*
X0319562Y0315723D01*
X0319708Y0315473D01*
X0319847Y0315219D01*
X0319981Y0314961D01*
X0320108Y0314701D01*
X0320229Y0314437D01*
X0320343Y0314171D01*
X0320451Y0313902D01*
X0320552Y0313630D01*
X0320646Y0313356D01*
X0320733Y0313080D01*
X0320814Y0312801D01*
X0320888Y0312521D01*
X0320955Y0312239D01*
X0321015Y0311955D01*
X0321068Y0311670D01*
X0321114Y0311384D01*
X0321153Y0311097D01*
X0321185Y0310809D01*
X0321210Y0310520D01*
X0321228Y0310231D01*
X0321238Y0309941D01*
X0321242Y0309651D01*
X0321238Y0309361D01*
X0321228Y0309071D01*
X0321210Y0308782D01*
X0321185Y0308493D01*
X0321153Y0308205D01*
X0321114Y0307918D01*
X0321068Y0307632D01*
X0321015Y0307347D01*
X0320955Y0307063D01*
X0320888Y0306781D01*
X0320814Y0306501D01*
X0320733Y0306222D01*
X0320646Y0305946D01*
X0320552Y0305672D01*
X0320451Y0305400D01*
X0320343Y0305131D01*
X0320229Y0304865D01*
X0320108Y0304601D01*
X0319981Y0304341D01*
X0319847Y0304083D01*
X0319708Y0303829D01*
X0319562Y0303579D01*
X0319410Y0303332D01*
X0319251Y0303089D01*
X0319087Y0302850D01*
X0318918Y0302615D01*
X0318742Y0302384D01*
X0318561Y0302158D01*
X0318374Y0301936D01*
X0318182Y0301719D01*
X0317985Y0301507D01*
X0317783Y0301299D01*
X0317575Y0301097D01*
X0317363Y0300900D01*
X0317146Y0300708D01*
X0316924Y0300521D01*
X0316698Y0300340D01*
X0316467Y0300164D01*
X0316232Y0299995D01*
X0315993Y0299831D01*
X0315750Y0299672D01*
X0315503Y0299520D01*
X0315253Y0299374D01*
X0314999Y0299235D01*
X0314741Y0299101D01*
X0314481Y0298974D01*
X0314217Y0298853D01*
X0313951Y0298739D01*
X0313682Y0298631D01*
X0313410Y0298530D01*
X0313136Y0298436D01*
X0312860Y0298349D01*
X0312581Y0298268D01*
X0312301Y0298194D01*
X0312019Y0298127D01*
X0311735Y0298067D01*
X0311450Y0298014D01*
X0311164Y0297968D01*
X0310877Y0297929D01*
X0310589Y0297897D01*
X0310300Y0297872D01*
X0310011Y0297854D01*
X0309721Y0297844D01*
X0309431Y0297840D01*
X0309141Y0297844D01*
X0308851Y0297854D01*
X0308562Y0297872D01*
X0308273Y0297897D01*
X0307985Y0297929D01*
X0307698Y0297968D01*
X0307412Y0298014D01*
X0307127Y0298067D01*
X0306843Y0298127D01*
X0306561Y0298194D01*
X0306281Y0298268D01*
X0306002Y0298349D01*
X0305726Y0298436D01*
X0305452Y0298530D01*
X0305180Y0298631D01*
X0304911Y0298739D01*
X0304645Y0298853D01*
X0304381Y0298974D01*
X0304121Y0299101D01*
X0303863Y0299235D01*
X0303609Y0299374D01*
X0303359Y0299520D01*
X0303112Y0299672D01*
X0302869Y0299831D01*
X0302630Y0299995D01*
X0302395Y0300164D01*
X0302164Y0300340D01*
X0301938Y0300521D01*
X0301716Y0300708D01*
X0301499Y0300900D01*
X0301287Y0301097D01*
X0301079Y0301299D01*
X0300877Y0301507D01*
X0300680Y0301719D01*
X0300488Y0301936D01*
X0300301Y0302158D01*
X0300120Y0302384D01*
X0299944Y0302615D01*
X0299775Y0302850D01*
X0299611Y0303089D01*
X0299452Y0303332D01*
X0299300Y0303579D01*
X0299154Y0303829D01*
X0299015Y0304083D01*
X0298881Y0304341D01*
X0298754Y0304601D01*
X0298633Y0304865D01*
X0298519Y0305131D01*
X0298411Y0305400D01*
X0298310Y0305672D01*
X0298216Y0305946D01*
X0298129Y0306222D01*
X0298048Y0306501D01*
X0297974Y0306781D01*
X0297907Y0307063D01*
X0297847Y0307347D01*
X0297794Y0307632D01*
X0297748Y0307918D01*
X0297709Y0308205D01*
X0297677Y0308493D01*
X0297652Y0308782D01*
X0297634Y0309071D01*
X0297624Y0309361D01*
X0297620Y0309651D01*
X0179510Y0085242D02*
X0179514Y0085532D01*
X0179524Y0085822D01*
X0179542Y0086111D01*
X0179567Y0086400D01*
X0179599Y0086688D01*
X0179638Y0086975D01*
X0179684Y0087261D01*
X0179737Y0087546D01*
X0179797Y0087830D01*
X0179864Y0088112D01*
X0179938Y0088392D01*
X0180019Y0088671D01*
X0180106Y0088947D01*
X0180200Y0089221D01*
X0180301Y0089493D01*
X0180409Y0089762D01*
X0180523Y0090028D01*
X0180644Y0090292D01*
X0180771Y0090552D01*
X0180905Y0090810D01*
X0181044Y0091064D01*
X0181190Y0091314D01*
X0181342Y0091561D01*
X0181501Y0091804D01*
X0181665Y0092043D01*
X0181834Y0092278D01*
X0182010Y0092509D01*
X0182191Y0092735D01*
X0182378Y0092957D01*
X0182570Y0093174D01*
X0182767Y0093386D01*
X0182969Y0093594D01*
X0183177Y0093796D01*
X0183389Y0093993D01*
X0183606Y0094185D01*
X0183828Y0094372D01*
X0184054Y0094553D01*
X0184285Y0094729D01*
X0184520Y0094898D01*
X0184759Y0095062D01*
X0185002Y0095221D01*
X0185249Y0095373D01*
X0185499Y0095519D01*
X0185753Y0095658D01*
X0186011Y0095792D01*
X0186271Y0095919D01*
X0186535Y0096040D01*
X0186801Y0096154D01*
X0187070Y0096262D01*
X0187342Y0096363D01*
X0187616Y0096457D01*
X0187892Y0096544D01*
X0188171Y0096625D01*
X0188451Y0096699D01*
X0188733Y0096766D01*
X0189017Y0096826D01*
X0189302Y0096879D01*
X0189588Y0096925D01*
X0189875Y0096964D01*
X0190163Y0096996D01*
X0190452Y0097021D01*
X0190741Y0097039D01*
X0191031Y0097049D01*
X0191321Y0097053D01*
X0191611Y0097049D01*
X0191901Y0097039D01*
X0192190Y0097021D01*
X0192479Y0096996D01*
X0192767Y0096964D01*
X0193054Y0096925D01*
X0193340Y0096879D01*
X0193625Y0096826D01*
X0193909Y0096766D01*
X0194191Y0096699D01*
X0194471Y0096625D01*
X0194750Y0096544D01*
X0195026Y0096457D01*
X0195300Y0096363D01*
X0195572Y0096262D01*
X0195841Y0096154D01*
X0196107Y0096040D01*
X0196371Y0095919D01*
X0196631Y0095792D01*
X0196889Y0095658D01*
X0197143Y0095519D01*
X0197393Y0095373D01*
X0197640Y0095221D01*
X0197883Y0095062D01*
X0198122Y0094898D01*
X0198357Y0094729D01*
X0198588Y0094553D01*
X0198814Y0094372D01*
X0199036Y0094185D01*
X0199253Y0093993D01*
X0199465Y0093796D01*
X0199673Y0093594D01*
X0199875Y0093386D01*
X0200072Y0093174D01*
X0200264Y0092957D01*
X0200451Y0092735D01*
X0200632Y0092509D01*
X0200808Y0092278D01*
X0200977Y0092043D01*
X0201141Y0091804D01*
X0201300Y0091561D01*
X0201452Y0091314D01*
X0201598Y0091064D01*
X0201737Y0090810D01*
X0201871Y0090552D01*
X0201998Y0090292D01*
X0202119Y0090028D01*
X0202233Y0089762D01*
X0202341Y0089493D01*
X0202442Y0089221D01*
X0202536Y0088947D01*
X0202623Y0088671D01*
X0202704Y0088392D01*
X0202778Y0088112D01*
X0202845Y0087830D01*
X0202905Y0087546D01*
X0202958Y0087261D01*
X0203004Y0086975D01*
X0203043Y0086688D01*
X0203075Y0086400D01*
X0203100Y0086111D01*
X0203118Y0085822D01*
X0203128Y0085532D01*
X0203132Y0085242D01*
X0203128Y0084952D01*
X0203118Y0084662D01*
X0203100Y0084373D01*
X0203075Y0084084D01*
X0203043Y0083796D01*
X0203004Y0083509D01*
X0202958Y0083223D01*
X0202905Y0082938D01*
X0202845Y0082654D01*
X0202778Y0082372D01*
X0202704Y0082092D01*
X0202623Y0081813D01*
X0202536Y0081537D01*
X0202442Y0081263D01*
X0202341Y0080991D01*
X0202233Y0080722D01*
X0202119Y0080456D01*
X0201998Y0080192D01*
X0201871Y0079932D01*
X0201737Y0079674D01*
X0201598Y0079420D01*
X0201452Y0079170D01*
X0201300Y0078923D01*
X0201141Y0078680D01*
X0200977Y0078441D01*
X0200808Y0078206D01*
X0200632Y0077975D01*
X0200451Y0077749D01*
X0200264Y0077527D01*
X0200072Y0077310D01*
X0199875Y0077098D01*
X0199673Y0076890D01*
X0199465Y0076688D01*
X0199253Y0076491D01*
X0199036Y0076299D01*
X0198814Y0076112D01*
X0198588Y0075931D01*
X0198357Y0075755D01*
X0198122Y0075586D01*
X0197883Y0075422D01*
X0197640Y0075263D01*
X0197393Y0075111D01*
X0197143Y0074965D01*
X0196889Y0074826D01*
X0196631Y0074692D01*
X0196371Y0074565D01*
X0196107Y0074444D01*
X0195841Y0074330D01*
X0195572Y0074222D01*
X0195300Y0074121D01*
X0195026Y0074027D01*
X0194750Y0073940D01*
X0194471Y0073859D01*
X0194191Y0073785D01*
X0193909Y0073718D01*
X0193625Y0073658D01*
X0193340Y0073605D01*
X0193054Y0073559D01*
X0192767Y0073520D01*
X0192479Y0073488D01*
X0192190Y0073463D01*
X0191901Y0073445D01*
X0191611Y0073435D01*
X0191321Y0073431D01*
X0191031Y0073435D01*
X0190741Y0073445D01*
X0190452Y0073463D01*
X0190163Y0073488D01*
X0189875Y0073520D01*
X0189588Y0073559D01*
X0189302Y0073605D01*
X0189017Y0073658D01*
X0188733Y0073718D01*
X0188451Y0073785D01*
X0188171Y0073859D01*
X0187892Y0073940D01*
X0187616Y0074027D01*
X0187342Y0074121D01*
X0187070Y0074222D01*
X0186801Y0074330D01*
X0186535Y0074444D01*
X0186271Y0074565D01*
X0186011Y0074692D01*
X0185753Y0074826D01*
X0185499Y0074965D01*
X0185249Y0075111D01*
X0185002Y0075263D01*
X0184759Y0075422D01*
X0184520Y0075586D01*
X0184285Y0075755D01*
X0184054Y0075931D01*
X0183828Y0076112D01*
X0183606Y0076299D01*
X0183389Y0076491D01*
X0183177Y0076688D01*
X0182969Y0076890D01*
X0182767Y0077098D01*
X0182570Y0077310D01*
X0182378Y0077527D01*
X0182191Y0077749D01*
X0182010Y0077975D01*
X0181834Y0078206D01*
X0181665Y0078441D01*
X0181501Y0078680D01*
X0181342Y0078923D01*
X0181190Y0079170D01*
X0181044Y0079420D01*
X0180905Y0079674D01*
X0180771Y0079932D01*
X0180644Y0080192D01*
X0180523Y0080456D01*
X0180409Y0080722D01*
X0180301Y0080991D01*
X0180200Y0081263D01*
X0180106Y0081537D01*
X0180019Y0081813D01*
X0179938Y0082092D01*
X0179864Y0082372D01*
X0179797Y0082654D01*
X0179737Y0082938D01*
X0179684Y0083223D01*
X0179638Y0083509D01*
X0179599Y0083796D01*
X0179567Y0084084D01*
X0179542Y0084373D01*
X0179524Y0084662D01*
X0179514Y0084952D01*
X0179510Y0085242D01*
X0297620Y0026187D02*
X0297624Y0026477D01*
X0297634Y0026767D01*
X0297652Y0027056D01*
X0297677Y0027345D01*
X0297709Y0027633D01*
X0297748Y0027920D01*
X0297794Y0028206D01*
X0297847Y0028491D01*
X0297907Y0028775D01*
X0297974Y0029057D01*
X0298048Y0029337D01*
X0298129Y0029616D01*
X0298216Y0029892D01*
X0298310Y0030166D01*
X0298411Y0030438D01*
X0298519Y0030707D01*
X0298633Y0030973D01*
X0298754Y0031237D01*
X0298881Y0031497D01*
X0299015Y0031755D01*
X0299154Y0032009D01*
X0299300Y0032259D01*
X0299452Y0032506D01*
X0299611Y0032749D01*
X0299775Y0032988D01*
X0299944Y0033223D01*
X0300120Y0033454D01*
X0300301Y0033680D01*
X0300488Y0033902D01*
X0300680Y0034119D01*
X0300877Y0034331D01*
X0301079Y0034539D01*
X0301287Y0034741D01*
X0301499Y0034938D01*
X0301716Y0035130D01*
X0301938Y0035317D01*
X0302164Y0035498D01*
X0302395Y0035674D01*
X0302630Y0035843D01*
X0302869Y0036007D01*
X0303112Y0036166D01*
X0303359Y0036318D01*
X0303609Y0036464D01*
X0303863Y0036603D01*
X0304121Y0036737D01*
X0304381Y0036864D01*
X0304645Y0036985D01*
X0304911Y0037099D01*
X0305180Y0037207D01*
X0305452Y0037308D01*
X0305726Y0037402D01*
X0306002Y0037489D01*
X0306281Y0037570D01*
X0306561Y0037644D01*
X0306843Y0037711D01*
X0307127Y0037771D01*
X0307412Y0037824D01*
X0307698Y0037870D01*
X0307985Y0037909D01*
X0308273Y0037941D01*
X0308562Y0037966D01*
X0308851Y0037984D01*
X0309141Y0037994D01*
X0309431Y0037998D01*
X0309721Y0037994D01*
X0310011Y0037984D01*
X0310300Y0037966D01*
X0310589Y0037941D01*
X0310877Y0037909D01*
X0311164Y0037870D01*
X0311450Y0037824D01*
X0311735Y0037771D01*
X0312019Y0037711D01*
X0312301Y0037644D01*
X0312581Y0037570D01*
X0312860Y0037489D01*
X0313136Y0037402D01*
X0313410Y0037308D01*
X0313682Y0037207D01*
X0313951Y0037099D01*
X0314217Y0036985D01*
X0314481Y0036864D01*
X0314741Y0036737D01*
X0314999Y0036603D01*
X0315253Y0036464D01*
X0315503Y0036318D01*
X0315750Y0036166D01*
X0315993Y0036007D01*
X0316232Y0035843D01*
X0316467Y0035674D01*
X0316698Y0035498D01*
X0316924Y0035317D01*
X0317146Y0035130D01*
X0317363Y0034938D01*
X0317575Y0034741D01*
X0317783Y0034539D01*
X0317985Y0034331D01*
X0318182Y0034119D01*
X0318374Y0033902D01*
X0318561Y0033680D01*
X0318742Y0033454D01*
X0318918Y0033223D01*
X0319087Y0032988D01*
X0319251Y0032749D01*
X0319410Y0032506D01*
X0319562Y0032259D01*
X0319708Y0032009D01*
X0319847Y0031755D01*
X0319981Y0031497D01*
X0320108Y0031237D01*
X0320229Y0030973D01*
X0320343Y0030707D01*
X0320451Y0030438D01*
X0320552Y0030166D01*
X0320646Y0029892D01*
X0320733Y0029616D01*
X0320814Y0029337D01*
X0320888Y0029057D01*
X0320955Y0028775D01*
X0321015Y0028491D01*
X0321068Y0028206D01*
X0321114Y0027920D01*
X0321153Y0027633D01*
X0321185Y0027345D01*
X0321210Y0027056D01*
X0321228Y0026767D01*
X0321238Y0026477D01*
X0321242Y0026187D01*
X0321238Y0025897D01*
X0321228Y0025607D01*
X0321210Y0025318D01*
X0321185Y0025029D01*
X0321153Y0024741D01*
X0321114Y0024454D01*
X0321068Y0024168D01*
X0321015Y0023883D01*
X0320955Y0023599D01*
X0320888Y0023317D01*
X0320814Y0023037D01*
X0320733Y0022758D01*
X0320646Y0022482D01*
X0320552Y0022208D01*
X0320451Y0021936D01*
X0320343Y0021667D01*
X0320229Y0021401D01*
X0320108Y0021137D01*
X0319981Y0020877D01*
X0319847Y0020619D01*
X0319708Y0020365D01*
X0319562Y0020115D01*
X0319410Y0019868D01*
X0319251Y0019625D01*
X0319087Y0019386D01*
X0318918Y0019151D01*
X0318742Y0018920D01*
X0318561Y0018694D01*
X0318374Y0018472D01*
X0318182Y0018255D01*
X0317985Y0018043D01*
X0317783Y0017835D01*
X0317575Y0017633D01*
X0317363Y0017436D01*
X0317146Y0017244D01*
X0316924Y0017057D01*
X0316698Y0016876D01*
X0316467Y0016700D01*
X0316232Y0016531D01*
X0315993Y0016367D01*
X0315750Y0016208D01*
X0315503Y0016056D01*
X0315253Y0015910D01*
X0314999Y0015771D01*
X0314741Y0015637D01*
X0314481Y0015510D01*
X0314217Y0015389D01*
X0313951Y0015275D01*
X0313682Y0015167D01*
X0313410Y0015066D01*
X0313136Y0014972D01*
X0312860Y0014885D01*
X0312581Y0014804D01*
X0312301Y0014730D01*
X0312019Y0014663D01*
X0311735Y0014603D01*
X0311450Y0014550D01*
X0311164Y0014504D01*
X0310877Y0014465D01*
X0310589Y0014433D01*
X0310300Y0014408D01*
X0310011Y0014390D01*
X0309721Y0014380D01*
X0309431Y0014376D01*
X0309141Y0014380D01*
X0308851Y0014390D01*
X0308562Y0014408D01*
X0308273Y0014433D01*
X0307985Y0014465D01*
X0307698Y0014504D01*
X0307412Y0014550D01*
X0307127Y0014603D01*
X0306843Y0014663D01*
X0306561Y0014730D01*
X0306281Y0014804D01*
X0306002Y0014885D01*
X0305726Y0014972D01*
X0305452Y0015066D01*
X0305180Y0015167D01*
X0304911Y0015275D01*
X0304645Y0015389D01*
X0304381Y0015510D01*
X0304121Y0015637D01*
X0303863Y0015771D01*
X0303609Y0015910D01*
X0303359Y0016056D01*
X0303112Y0016208D01*
X0302869Y0016367D01*
X0302630Y0016531D01*
X0302395Y0016700D01*
X0302164Y0016876D01*
X0301938Y0017057D01*
X0301716Y0017244D01*
X0301499Y0017436D01*
X0301287Y0017633D01*
X0301079Y0017835D01*
X0300877Y0018043D01*
X0300680Y0018255D01*
X0300488Y0018472D01*
X0300301Y0018694D01*
X0300120Y0018920D01*
X0299944Y0019151D01*
X0299775Y0019386D01*
X0299611Y0019625D01*
X0299452Y0019868D01*
X0299300Y0020115D01*
X0299154Y0020365D01*
X0299015Y0020619D01*
X0298881Y0020877D01*
X0298754Y0021137D01*
X0298633Y0021401D01*
X0298519Y0021667D01*
X0298411Y0021936D01*
X0298310Y0022208D01*
X0298216Y0022482D01*
X0298129Y0022758D01*
X0298048Y0023037D01*
X0297974Y0023317D01*
X0297907Y0023599D01*
X0297847Y0023883D01*
X0297794Y0024168D01*
X0297748Y0024454D01*
X0297709Y0024741D01*
X0297677Y0025029D01*
X0297652Y0025318D01*
X0297634Y0025607D01*
X0297624Y0025897D01*
X0297620Y0026187D01*
X0014156Y0026187D02*
X0014160Y0026477D01*
X0014170Y0026767D01*
X0014188Y0027056D01*
X0014213Y0027345D01*
X0014245Y0027633D01*
X0014284Y0027920D01*
X0014330Y0028206D01*
X0014383Y0028491D01*
X0014443Y0028775D01*
X0014510Y0029057D01*
X0014584Y0029337D01*
X0014665Y0029616D01*
X0014752Y0029892D01*
X0014846Y0030166D01*
X0014947Y0030438D01*
X0015055Y0030707D01*
X0015169Y0030973D01*
X0015290Y0031237D01*
X0015417Y0031497D01*
X0015551Y0031755D01*
X0015690Y0032009D01*
X0015836Y0032259D01*
X0015988Y0032506D01*
X0016147Y0032749D01*
X0016311Y0032988D01*
X0016480Y0033223D01*
X0016656Y0033454D01*
X0016837Y0033680D01*
X0017024Y0033902D01*
X0017216Y0034119D01*
X0017413Y0034331D01*
X0017615Y0034539D01*
X0017823Y0034741D01*
X0018035Y0034938D01*
X0018252Y0035130D01*
X0018474Y0035317D01*
X0018700Y0035498D01*
X0018931Y0035674D01*
X0019166Y0035843D01*
X0019405Y0036007D01*
X0019648Y0036166D01*
X0019895Y0036318D01*
X0020145Y0036464D01*
X0020399Y0036603D01*
X0020657Y0036737D01*
X0020917Y0036864D01*
X0021181Y0036985D01*
X0021447Y0037099D01*
X0021716Y0037207D01*
X0021988Y0037308D01*
X0022262Y0037402D01*
X0022538Y0037489D01*
X0022817Y0037570D01*
X0023097Y0037644D01*
X0023379Y0037711D01*
X0023663Y0037771D01*
X0023948Y0037824D01*
X0024234Y0037870D01*
X0024521Y0037909D01*
X0024809Y0037941D01*
X0025098Y0037966D01*
X0025387Y0037984D01*
X0025677Y0037994D01*
X0025967Y0037998D01*
X0026257Y0037994D01*
X0026547Y0037984D01*
X0026836Y0037966D01*
X0027125Y0037941D01*
X0027413Y0037909D01*
X0027700Y0037870D01*
X0027986Y0037824D01*
X0028271Y0037771D01*
X0028555Y0037711D01*
X0028837Y0037644D01*
X0029117Y0037570D01*
X0029396Y0037489D01*
X0029672Y0037402D01*
X0029946Y0037308D01*
X0030218Y0037207D01*
X0030487Y0037099D01*
X0030753Y0036985D01*
X0031017Y0036864D01*
X0031277Y0036737D01*
X0031535Y0036603D01*
X0031789Y0036464D01*
X0032039Y0036318D01*
X0032286Y0036166D01*
X0032529Y0036007D01*
X0032768Y0035843D01*
X0033003Y0035674D01*
X0033234Y0035498D01*
X0033460Y0035317D01*
X0033682Y0035130D01*
X0033899Y0034938D01*
X0034111Y0034741D01*
X0034319Y0034539D01*
X0034521Y0034331D01*
X0034718Y0034119D01*
X0034910Y0033902D01*
X0035097Y0033680D01*
X0035278Y0033454D01*
X0035454Y0033223D01*
X0035623Y0032988D01*
X0035787Y0032749D01*
X0035946Y0032506D01*
X0036098Y0032259D01*
X0036244Y0032009D01*
X0036383Y0031755D01*
X0036517Y0031497D01*
X0036644Y0031237D01*
X0036765Y0030973D01*
X0036879Y0030707D01*
X0036987Y0030438D01*
X0037088Y0030166D01*
X0037182Y0029892D01*
X0037269Y0029616D01*
X0037350Y0029337D01*
X0037424Y0029057D01*
X0037491Y0028775D01*
X0037551Y0028491D01*
X0037604Y0028206D01*
X0037650Y0027920D01*
X0037689Y0027633D01*
X0037721Y0027345D01*
X0037746Y0027056D01*
X0037764Y0026767D01*
X0037774Y0026477D01*
X0037778Y0026187D01*
X0037774Y0025897D01*
X0037764Y0025607D01*
X0037746Y0025318D01*
X0037721Y0025029D01*
X0037689Y0024741D01*
X0037650Y0024454D01*
X0037604Y0024168D01*
X0037551Y0023883D01*
X0037491Y0023599D01*
X0037424Y0023317D01*
X0037350Y0023037D01*
X0037269Y0022758D01*
X0037182Y0022482D01*
X0037088Y0022208D01*
X0036987Y0021936D01*
X0036879Y0021667D01*
X0036765Y0021401D01*
X0036644Y0021137D01*
X0036517Y0020877D01*
X0036383Y0020619D01*
X0036244Y0020365D01*
X0036098Y0020115D01*
X0035946Y0019868D01*
X0035787Y0019625D01*
X0035623Y0019386D01*
X0035454Y0019151D01*
X0035278Y0018920D01*
X0035097Y0018694D01*
X0034910Y0018472D01*
X0034718Y0018255D01*
X0034521Y0018043D01*
X0034319Y0017835D01*
X0034111Y0017633D01*
X0033899Y0017436D01*
X0033682Y0017244D01*
X0033460Y0017057D01*
X0033234Y0016876D01*
X0033003Y0016700D01*
X0032768Y0016531D01*
X0032529Y0016367D01*
X0032286Y0016208D01*
X0032039Y0016056D01*
X0031789Y0015910D01*
X0031535Y0015771D01*
X0031277Y0015637D01*
X0031017Y0015510D01*
X0030753Y0015389D01*
X0030487Y0015275D01*
X0030218Y0015167D01*
X0029946Y0015066D01*
X0029672Y0014972D01*
X0029396Y0014885D01*
X0029117Y0014804D01*
X0028837Y0014730D01*
X0028555Y0014663D01*
X0028271Y0014603D01*
X0027986Y0014550D01*
X0027700Y0014504D01*
X0027413Y0014465D01*
X0027125Y0014433D01*
X0026836Y0014408D01*
X0026547Y0014390D01*
X0026257Y0014380D01*
X0025967Y0014376D01*
X0025677Y0014380D01*
X0025387Y0014390D01*
X0025098Y0014408D01*
X0024809Y0014433D01*
X0024521Y0014465D01*
X0024234Y0014504D01*
X0023948Y0014550D01*
X0023663Y0014603D01*
X0023379Y0014663D01*
X0023097Y0014730D01*
X0022817Y0014804D01*
X0022538Y0014885D01*
X0022262Y0014972D01*
X0021988Y0015066D01*
X0021716Y0015167D01*
X0021447Y0015275D01*
X0021181Y0015389D01*
X0020917Y0015510D01*
X0020657Y0015637D01*
X0020399Y0015771D01*
X0020145Y0015910D01*
X0019895Y0016056D01*
X0019648Y0016208D01*
X0019405Y0016367D01*
X0019166Y0016531D01*
X0018931Y0016700D01*
X0018700Y0016876D01*
X0018474Y0017057D01*
X0018252Y0017244D01*
X0018035Y0017436D01*
X0017823Y0017633D01*
X0017615Y0017835D01*
X0017413Y0018043D01*
X0017216Y0018255D01*
X0017024Y0018472D01*
X0016837Y0018694D01*
X0016656Y0018920D01*
X0016480Y0019151D01*
X0016311Y0019386D01*
X0016147Y0019625D01*
X0015988Y0019868D01*
X0015836Y0020115D01*
X0015690Y0020365D01*
X0015551Y0020619D01*
X0015417Y0020877D01*
X0015290Y0021137D01*
X0015169Y0021401D01*
X0015055Y0021667D01*
X0014947Y0021936D01*
X0014846Y0022208D01*
X0014752Y0022482D01*
X0014665Y0022758D01*
X0014584Y0023037D01*
X0014510Y0023317D01*
X0014443Y0023599D01*
X0014383Y0023883D01*
X0014330Y0024168D01*
X0014284Y0024454D01*
X0014245Y0024741D01*
X0014213Y0025029D01*
X0014188Y0025318D01*
X0014170Y0025607D01*
X0014160Y0025897D01*
X0014156Y0026187D01*
M02*
