G75*
%MOIN*%
%OFA0B0*%
%FSLAX25Y25*%
%IPPOS*%
%LPD*%
%AMOC8*
5,1,8,0,0,1.08239X$1,22.5*
%
%ADD10OC8,0.06000*%
%ADD11C,0.00000*%
%ADD12C,0.06000*%
%ADD13C,0.05937*%
%ADD14C,0.01000*%
%ADD15R,0.03562X0.03562*%
%ADD16C,0.02400*%
D10*
X0122300Y0112600D03*
X0122300Y0122600D03*
X0132300Y0122600D03*
X0132300Y0112600D03*
X0142300Y0112600D03*
X0142300Y0122600D03*
X0152300Y0122600D03*
X0152300Y0112600D03*
X0162300Y0112600D03*
X0162300Y0122600D03*
X0172300Y0122600D03*
X0172300Y0112600D03*
X0182300Y0112600D03*
X0182300Y0122600D03*
X0192300Y0122600D03*
X0192300Y0112600D03*
X0202300Y0112600D03*
X0202300Y0122600D03*
X0212300Y0122600D03*
X0212300Y0112600D03*
D11*
X0080711Y0098500D02*
X0068900Y0110311D01*
X0068900Y0283539D01*
X0080711Y0295350D01*
X0253939Y0295350D01*
X0265750Y0283539D01*
X0265750Y0110311D01*
X0253939Y0098500D01*
X0080711Y0098500D01*
X0078349Y0114248D02*
X0078351Y0114406D01*
X0078357Y0114564D01*
X0078367Y0114722D01*
X0078381Y0114880D01*
X0078399Y0115037D01*
X0078420Y0115194D01*
X0078446Y0115350D01*
X0078476Y0115506D01*
X0078509Y0115661D01*
X0078547Y0115814D01*
X0078588Y0115967D01*
X0078633Y0116119D01*
X0078682Y0116270D01*
X0078735Y0116419D01*
X0078791Y0116567D01*
X0078851Y0116713D01*
X0078915Y0116858D01*
X0078983Y0117001D01*
X0079054Y0117143D01*
X0079128Y0117283D01*
X0079206Y0117420D01*
X0079288Y0117556D01*
X0079372Y0117690D01*
X0079461Y0117821D01*
X0079552Y0117950D01*
X0079647Y0118077D01*
X0079744Y0118202D01*
X0079845Y0118324D01*
X0079949Y0118443D01*
X0080056Y0118560D01*
X0080166Y0118674D01*
X0080279Y0118785D01*
X0080394Y0118894D01*
X0080512Y0118999D01*
X0080633Y0119101D01*
X0080756Y0119201D01*
X0080882Y0119297D01*
X0081010Y0119390D01*
X0081140Y0119480D01*
X0081273Y0119566D01*
X0081408Y0119650D01*
X0081544Y0119729D01*
X0081683Y0119806D01*
X0081824Y0119878D01*
X0081966Y0119948D01*
X0082110Y0120013D01*
X0082256Y0120075D01*
X0082403Y0120133D01*
X0082552Y0120188D01*
X0082702Y0120239D01*
X0082853Y0120286D01*
X0083005Y0120329D01*
X0083158Y0120368D01*
X0083313Y0120404D01*
X0083468Y0120435D01*
X0083624Y0120463D01*
X0083780Y0120487D01*
X0083937Y0120507D01*
X0084095Y0120523D01*
X0084252Y0120535D01*
X0084411Y0120543D01*
X0084569Y0120547D01*
X0084727Y0120547D01*
X0084885Y0120543D01*
X0085044Y0120535D01*
X0085201Y0120523D01*
X0085359Y0120507D01*
X0085516Y0120487D01*
X0085672Y0120463D01*
X0085828Y0120435D01*
X0085983Y0120404D01*
X0086138Y0120368D01*
X0086291Y0120329D01*
X0086443Y0120286D01*
X0086594Y0120239D01*
X0086744Y0120188D01*
X0086893Y0120133D01*
X0087040Y0120075D01*
X0087186Y0120013D01*
X0087330Y0119948D01*
X0087472Y0119878D01*
X0087613Y0119806D01*
X0087752Y0119729D01*
X0087888Y0119650D01*
X0088023Y0119566D01*
X0088156Y0119480D01*
X0088286Y0119390D01*
X0088414Y0119297D01*
X0088540Y0119201D01*
X0088663Y0119101D01*
X0088784Y0118999D01*
X0088902Y0118894D01*
X0089017Y0118785D01*
X0089130Y0118674D01*
X0089240Y0118560D01*
X0089347Y0118443D01*
X0089451Y0118324D01*
X0089552Y0118202D01*
X0089649Y0118077D01*
X0089744Y0117950D01*
X0089835Y0117821D01*
X0089924Y0117690D01*
X0090008Y0117556D01*
X0090090Y0117420D01*
X0090168Y0117283D01*
X0090242Y0117143D01*
X0090313Y0117001D01*
X0090381Y0116858D01*
X0090445Y0116713D01*
X0090505Y0116567D01*
X0090561Y0116419D01*
X0090614Y0116270D01*
X0090663Y0116119D01*
X0090708Y0115967D01*
X0090749Y0115814D01*
X0090787Y0115661D01*
X0090820Y0115506D01*
X0090850Y0115350D01*
X0090876Y0115194D01*
X0090897Y0115037D01*
X0090915Y0114880D01*
X0090929Y0114722D01*
X0090939Y0114564D01*
X0090945Y0114406D01*
X0090947Y0114248D01*
X0090945Y0114090D01*
X0090939Y0113932D01*
X0090929Y0113774D01*
X0090915Y0113616D01*
X0090897Y0113459D01*
X0090876Y0113302D01*
X0090850Y0113146D01*
X0090820Y0112990D01*
X0090787Y0112835D01*
X0090749Y0112682D01*
X0090708Y0112529D01*
X0090663Y0112377D01*
X0090614Y0112226D01*
X0090561Y0112077D01*
X0090505Y0111929D01*
X0090445Y0111783D01*
X0090381Y0111638D01*
X0090313Y0111495D01*
X0090242Y0111353D01*
X0090168Y0111213D01*
X0090090Y0111076D01*
X0090008Y0110940D01*
X0089924Y0110806D01*
X0089835Y0110675D01*
X0089744Y0110546D01*
X0089649Y0110419D01*
X0089552Y0110294D01*
X0089451Y0110172D01*
X0089347Y0110053D01*
X0089240Y0109936D01*
X0089130Y0109822D01*
X0089017Y0109711D01*
X0088902Y0109602D01*
X0088784Y0109497D01*
X0088663Y0109395D01*
X0088540Y0109295D01*
X0088414Y0109199D01*
X0088286Y0109106D01*
X0088156Y0109016D01*
X0088023Y0108930D01*
X0087888Y0108846D01*
X0087752Y0108767D01*
X0087613Y0108690D01*
X0087472Y0108618D01*
X0087330Y0108548D01*
X0087186Y0108483D01*
X0087040Y0108421D01*
X0086893Y0108363D01*
X0086744Y0108308D01*
X0086594Y0108257D01*
X0086443Y0108210D01*
X0086291Y0108167D01*
X0086138Y0108128D01*
X0085983Y0108092D01*
X0085828Y0108061D01*
X0085672Y0108033D01*
X0085516Y0108009D01*
X0085359Y0107989D01*
X0085201Y0107973D01*
X0085044Y0107961D01*
X0084885Y0107953D01*
X0084727Y0107949D01*
X0084569Y0107949D01*
X0084411Y0107953D01*
X0084252Y0107961D01*
X0084095Y0107973D01*
X0083937Y0107989D01*
X0083780Y0108009D01*
X0083624Y0108033D01*
X0083468Y0108061D01*
X0083313Y0108092D01*
X0083158Y0108128D01*
X0083005Y0108167D01*
X0082853Y0108210D01*
X0082702Y0108257D01*
X0082552Y0108308D01*
X0082403Y0108363D01*
X0082256Y0108421D01*
X0082110Y0108483D01*
X0081966Y0108548D01*
X0081824Y0108618D01*
X0081683Y0108690D01*
X0081544Y0108767D01*
X0081408Y0108846D01*
X0081273Y0108930D01*
X0081140Y0109016D01*
X0081010Y0109106D01*
X0080882Y0109199D01*
X0080756Y0109295D01*
X0080633Y0109395D01*
X0080512Y0109497D01*
X0080394Y0109602D01*
X0080279Y0109711D01*
X0080166Y0109822D01*
X0080056Y0109936D01*
X0079949Y0110053D01*
X0079845Y0110172D01*
X0079744Y0110294D01*
X0079647Y0110419D01*
X0079552Y0110546D01*
X0079461Y0110675D01*
X0079372Y0110806D01*
X0079288Y0110940D01*
X0079206Y0111076D01*
X0079128Y0111213D01*
X0079054Y0111353D01*
X0078983Y0111495D01*
X0078915Y0111638D01*
X0078851Y0111783D01*
X0078791Y0111929D01*
X0078735Y0112077D01*
X0078682Y0112226D01*
X0078633Y0112377D01*
X0078588Y0112529D01*
X0078547Y0112682D01*
X0078509Y0112835D01*
X0078476Y0112990D01*
X0078446Y0113146D01*
X0078420Y0113302D01*
X0078399Y0113459D01*
X0078381Y0113616D01*
X0078367Y0113774D01*
X0078357Y0113932D01*
X0078351Y0114090D01*
X0078349Y0114248D01*
X0078349Y0279602D02*
X0078351Y0279760D01*
X0078357Y0279918D01*
X0078367Y0280076D01*
X0078381Y0280234D01*
X0078399Y0280391D01*
X0078420Y0280548D01*
X0078446Y0280704D01*
X0078476Y0280860D01*
X0078509Y0281015D01*
X0078547Y0281168D01*
X0078588Y0281321D01*
X0078633Y0281473D01*
X0078682Y0281624D01*
X0078735Y0281773D01*
X0078791Y0281921D01*
X0078851Y0282067D01*
X0078915Y0282212D01*
X0078983Y0282355D01*
X0079054Y0282497D01*
X0079128Y0282637D01*
X0079206Y0282774D01*
X0079288Y0282910D01*
X0079372Y0283044D01*
X0079461Y0283175D01*
X0079552Y0283304D01*
X0079647Y0283431D01*
X0079744Y0283556D01*
X0079845Y0283678D01*
X0079949Y0283797D01*
X0080056Y0283914D01*
X0080166Y0284028D01*
X0080279Y0284139D01*
X0080394Y0284248D01*
X0080512Y0284353D01*
X0080633Y0284455D01*
X0080756Y0284555D01*
X0080882Y0284651D01*
X0081010Y0284744D01*
X0081140Y0284834D01*
X0081273Y0284920D01*
X0081408Y0285004D01*
X0081544Y0285083D01*
X0081683Y0285160D01*
X0081824Y0285232D01*
X0081966Y0285302D01*
X0082110Y0285367D01*
X0082256Y0285429D01*
X0082403Y0285487D01*
X0082552Y0285542D01*
X0082702Y0285593D01*
X0082853Y0285640D01*
X0083005Y0285683D01*
X0083158Y0285722D01*
X0083313Y0285758D01*
X0083468Y0285789D01*
X0083624Y0285817D01*
X0083780Y0285841D01*
X0083937Y0285861D01*
X0084095Y0285877D01*
X0084252Y0285889D01*
X0084411Y0285897D01*
X0084569Y0285901D01*
X0084727Y0285901D01*
X0084885Y0285897D01*
X0085044Y0285889D01*
X0085201Y0285877D01*
X0085359Y0285861D01*
X0085516Y0285841D01*
X0085672Y0285817D01*
X0085828Y0285789D01*
X0085983Y0285758D01*
X0086138Y0285722D01*
X0086291Y0285683D01*
X0086443Y0285640D01*
X0086594Y0285593D01*
X0086744Y0285542D01*
X0086893Y0285487D01*
X0087040Y0285429D01*
X0087186Y0285367D01*
X0087330Y0285302D01*
X0087472Y0285232D01*
X0087613Y0285160D01*
X0087752Y0285083D01*
X0087888Y0285004D01*
X0088023Y0284920D01*
X0088156Y0284834D01*
X0088286Y0284744D01*
X0088414Y0284651D01*
X0088540Y0284555D01*
X0088663Y0284455D01*
X0088784Y0284353D01*
X0088902Y0284248D01*
X0089017Y0284139D01*
X0089130Y0284028D01*
X0089240Y0283914D01*
X0089347Y0283797D01*
X0089451Y0283678D01*
X0089552Y0283556D01*
X0089649Y0283431D01*
X0089744Y0283304D01*
X0089835Y0283175D01*
X0089924Y0283044D01*
X0090008Y0282910D01*
X0090090Y0282774D01*
X0090168Y0282637D01*
X0090242Y0282497D01*
X0090313Y0282355D01*
X0090381Y0282212D01*
X0090445Y0282067D01*
X0090505Y0281921D01*
X0090561Y0281773D01*
X0090614Y0281624D01*
X0090663Y0281473D01*
X0090708Y0281321D01*
X0090749Y0281168D01*
X0090787Y0281015D01*
X0090820Y0280860D01*
X0090850Y0280704D01*
X0090876Y0280548D01*
X0090897Y0280391D01*
X0090915Y0280234D01*
X0090929Y0280076D01*
X0090939Y0279918D01*
X0090945Y0279760D01*
X0090947Y0279602D01*
X0090945Y0279444D01*
X0090939Y0279286D01*
X0090929Y0279128D01*
X0090915Y0278970D01*
X0090897Y0278813D01*
X0090876Y0278656D01*
X0090850Y0278500D01*
X0090820Y0278344D01*
X0090787Y0278189D01*
X0090749Y0278036D01*
X0090708Y0277883D01*
X0090663Y0277731D01*
X0090614Y0277580D01*
X0090561Y0277431D01*
X0090505Y0277283D01*
X0090445Y0277137D01*
X0090381Y0276992D01*
X0090313Y0276849D01*
X0090242Y0276707D01*
X0090168Y0276567D01*
X0090090Y0276430D01*
X0090008Y0276294D01*
X0089924Y0276160D01*
X0089835Y0276029D01*
X0089744Y0275900D01*
X0089649Y0275773D01*
X0089552Y0275648D01*
X0089451Y0275526D01*
X0089347Y0275407D01*
X0089240Y0275290D01*
X0089130Y0275176D01*
X0089017Y0275065D01*
X0088902Y0274956D01*
X0088784Y0274851D01*
X0088663Y0274749D01*
X0088540Y0274649D01*
X0088414Y0274553D01*
X0088286Y0274460D01*
X0088156Y0274370D01*
X0088023Y0274284D01*
X0087888Y0274200D01*
X0087752Y0274121D01*
X0087613Y0274044D01*
X0087472Y0273972D01*
X0087330Y0273902D01*
X0087186Y0273837D01*
X0087040Y0273775D01*
X0086893Y0273717D01*
X0086744Y0273662D01*
X0086594Y0273611D01*
X0086443Y0273564D01*
X0086291Y0273521D01*
X0086138Y0273482D01*
X0085983Y0273446D01*
X0085828Y0273415D01*
X0085672Y0273387D01*
X0085516Y0273363D01*
X0085359Y0273343D01*
X0085201Y0273327D01*
X0085044Y0273315D01*
X0084885Y0273307D01*
X0084727Y0273303D01*
X0084569Y0273303D01*
X0084411Y0273307D01*
X0084252Y0273315D01*
X0084095Y0273327D01*
X0083937Y0273343D01*
X0083780Y0273363D01*
X0083624Y0273387D01*
X0083468Y0273415D01*
X0083313Y0273446D01*
X0083158Y0273482D01*
X0083005Y0273521D01*
X0082853Y0273564D01*
X0082702Y0273611D01*
X0082552Y0273662D01*
X0082403Y0273717D01*
X0082256Y0273775D01*
X0082110Y0273837D01*
X0081966Y0273902D01*
X0081824Y0273972D01*
X0081683Y0274044D01*
X0081544Y0274121D01*
X0081408Y0274200D01*
X0081273Y0274284D01*
X0081140Y0274370D01*
X0081010Y0274460D01*
X0080882Y0274553D01*
X0080756Y0274649D01*
X0080633Y0274749D01*
X0080512Y0274851D01*
X0080394Y0274956D01*
X0080279Y0275065D01*
X0080166Y0275176D01*
X0080056Y0275290D01*
X0079949Y0275407D01*
X0079845Y0275526D01*
X0079744Y0275648D01*
X0079647Y0275773D01*
X0079552Y0275900D01*
X0079461Y0276029D01*
X0079372Y0276160D01*
X0079288Y0276294D01*
X0079206Y0276430D01*
X0079128Y0276567D01*
X0079054Y0276707D01*
X0078983Y0276849D01*
X0078915Y0276992D01*
X0078851Y0277137D01*
X0078791Y0277283D01*
X0078735Y0277431D01*
X0078682Y0277580D01*
X0078633Y0277731D01*
X0078588Y0277883D01*
X0078547Y0278036D01*
X0078509Y0278189D01*
X0078476Y0278344D01*
X0078446Y0278500D01*
X0078420Y0278656D01*
X0078399Y0278813D01*
X0078381Y0278970D01*
X0078367Y0279128D01*
X0078357Y0279286D01*
X0078351Y0279444D01*
X0078349Y0279602D01*
X0243703Y0279602D02*
X0243705Y0279760D01*
X0243711Y0279918D01*
X0243721Y0280076D01*
X0243735Y0280234D01*
X0243753Y0280391D01*
X0243774Y0280548D01*
X0243800Y0280704D01*
X0243830Y0280860D01*
X0243863Y0281015D01*
X0243901Y0281168D01*
X0243942Y0281321D01*
X0243987Y0281473D01*
X0244036Y0281624D01*
X0244089Y0281773D01*
X0244145Y0281921D01*
X0244205Y0282067D01*
X0244269Y0282212D01*
X0244337Y0282355D01*
X0244408Y0282497D01*
X0244482Y0282637D01*
X0244560Y0282774D01*
X0244642Y0282910D01*
X0244726Y0283044D01*
X0244815Y0283175D01*
X0244906Y0283304D01*
X0245001Y0283431D01*
X0245098Y0283556D01*
X0245199Y0283678D01*
X0245303Y0283797D01*
X0245410Y0283914D01*
X0245520Y0284028D01*
X0245633Y0284139D01*
X0245748Y0284248D01*
X0245866Y0284353D01*
X0245987Y0284455D01*
X0246110Y0284555D01*
X0246236Y0284651D01*
X0246364Y0284744D01*
X0246494Y0284834D01*
X0246627Y0284920D01*
X0246762Y0285004D01*
X0246898Y0285083D01*
X0247037Y0285160D01*
X0247178Y0285232D01*
X0247320Y0285302D01*
X0247464Y0285367D01*
X0247610Y0285429D01*
X0247757Y0285487D01*
X0247906Y0285542D01*
X0248056Y0285593D01*
X0248207Y0285640D01*
X0248359Y0285683D01*
X0248512Y0285722D01*
X0248667Y0285758D01*
X0248822Y0285789D01*
X0248978Y0285817D01*
X0249134Y0285841D01*
X0249291Y0285861D01*
X0249449Y0285877D01*
X0249606Y0285889D01*
X0249765Y0285897D01*
X0249923Y0285901D01*
X0250081Y0285901D01*
X0250239Y0285897D01*
X0250398Y0285889D01*
X0250555Y0285877D01*
X0250713Y0285861D01*
X0250870Y0285841D01*
X0251026Y0285817D01*
X0251182Y0285789D01*
X0251337Y0285758D01*
X0251492Y0285722D01*
X0251645Y0285683D01*
X0251797Y0285640D01*
X0251948Y0285593D01*
X0252098Y0285542D01*
X0252247Y0285487D01*
X0252394Y0285429D01*
X0252540Y0285367D01*
X0252684Y0285302D01*
X0252826Y0285232D01*
X0252967Y0285160D01*
X0253106Y0285083D01*
X0253242Y0285004D01*
X0253377Y0284920D01*
X0253510Y0284834D01*
X0253640Y0284744D01*
X0253768Y0284651D01*
X0253894Y0284555D01*
X0254017Y0284455D01*
X0254138Y0284353D01*
X0254256Y0284248D01*
X0254371Y0284139D01*
X0254484Y0284028D01*
X0254594Y0283914D01*
X0254701Y0283797D01*
X0254805Y0283678D01*
X0254906Y0283556D01*
X0255003Y0283431D01*
X0255098Y0283304D01*
X0255189Y0283175D01*
X0255278Y0283044D01*
X0255362Y0282910D01*
X0255444Y0282774D01*
X0255522Y0282637D01*
X0255596Y0282497D01*
X0255667Y0282355D01*
X0255735Y0282212D01*
X0255799Y0282067D01*
X0255859Y0281921D01*
X0255915Y0281773D01*
X0255968Y0281624D01*
X0256017Y0281473D01*
X0256062Y0281321D01*
X0256103Y0281168D01*
X0256141Y0281015D01*
X0256174Y0280860D01*
X0256204Y0280704D01*
X0256230Y0280548D01*
X0256251Y0280391D01*
X0256269Y0280234D01*
X0256283Y0280076D01*
X0256293Y0279918D01*
X0256299Y0279760D01*
X0256301Y0279602D01*
X0256299Y0279444D01*
X0256293Y0279286D01*
X0256283Y0279128D01*
X0256269Y0278970D01*
X0256251Y0278813D01*
X0256230Y0278656D01*
X0256204Y0278500D01*
X0256174Y0278344D01*
X0256141Y0278189D01*
X0256103Y0278036D01*
X0256062Y0277883D01*
X0256017Y0277731D01*
X0255968Y0277580D01*
X0255915Y0277431D01*
X0255859Y0277283D01*
X0255799Y0277137D01*
X0255735Y0276992D01*
X0255667Y0276849D01*
X0255596Y0276707D01*
X0255522Y0276567D01*
X0255444Y0276430D01*
X0255362Y0276294D01*
X0255278Y0276160D01*
X0255189Y0276029D01*
X0255098Y0275900D01*
X0255003Y0275773D01*
X0254906Y0275648D01*
X0254805Y0275526D01*
X0254701Y0275407D01*
X0254594Y0275290D01*
X0254484Y0275176D01*
X0254371Y0275065D01*
X0254256Y0274956D01*
X0254138Y0274851D01*
X0254017Y0274749D01*
X0253894Y0274649D01*
X0253768Y0274553D01*
X0253640Y0274460D01*
X0253510Y0274370D01*
X0253377Y0274284D01*
X0253242Y0274200D01*
X0253106Y0274121D01*
X0252967Y0274044D01*
X0252826Y0273972D01*
X0252684Y0273902D01*
X0252540Y0273837D01*
X0252394Y0273775D01*
X0252247Y0273717D01*
X0252098Y0273662D01*
X0251948Y0273611D01*
X0251797Y0273564D01*
X0251645Y0273521D01*
X0251492Y0273482D01*
X0251337Y0273446D01*
X0251182Y0273415D01*
X0251026Y0273387D01*
X0250870Y0273363D01*
X0250713Y0273343D01*
X0250555Y0273327D01*
X0250398Y0273315D01*
X0250239Y0273307D01*
X0250081Y0273303D01*
X0249923Y0273303D01*
X0249765Y0273307D01*
X0249606Y0273315D01*
X0249449Y0273327D01*
X0249291Y0273343D01*
X0249134Y0273363D01*
X0248978Y0273387D01*
X0248822Y0273415D01*
X0248667Y0273446D01*
X0248512Y0273482D01*
X0248359Y0273521D01*
X0248207Y0273564D01*
X0248056Y0273611D01*
X0247906Y0273662D01*
X0247757Y0273717D01*
X0247610Y0273775D01*
X0247464Y0273837D01*
X0247320Y0273902D01*
X0247178Y0273972D01*
X0247037Y0274044D01*
X0246898Y0274121D01*
X0246762Y0274200D01*
X0246627Y0274284D01*
X0246494Y0274370D01*
X0246364Y0274460D01*
X0246236Y0274553D01*
X0246110Y0274649D01*
X0245987Y0274749D01*
X0245866Y0274851D01*
X0245748Y0274956D01*
X0245633Y0275065D01*
X0245520Y0275176D01*
X0245410Y0275290D01*
X0245303Y0275407D01*
X0245199Y0275526D01*
X0245098Y0275648D01*
X0245001Y0275773D01*
X0244906Y0275900D01*
X0244815Y0276029D01*
X0244726Y0276160D01*
X0244642Y0276294D01*
X0244560Y0276430D01*
X0244482Y0276567D01*
X0244408Y0276707D01*
X0244337Y0276849D01*
X0244269Y0276992D01*
X0244205Y0277137D01*
X0244145Y0277283D01*
X0244089Y0277431D01*
X0244036Y0277580D01*
X0243987Y0277731D01*
X0243942Y0277883D01*
X0243901Y0278036D01*
X0243863Y0278189D01*
X0243830Y0278344D01*
X0243800Y0278500D01*
X0243774Y0278656D01*
X0243753Y0278813D01*
X0243735Y0278970D01*
X0243721Y0279128D01*
X0243711Y0279286D01*
X0243705Y0279444D01*
X0243703Y0279602D01*
X0243703Y0114248D02*
X0243705Y0114406D01*
X0243711Y0114564D01*
X0243721Y0114722D01*
X0243735Y0114880D01*
X0243753Y0115037D01*
X0243774Y0115194D01*
X0243800Y0115350D01*
X0243830Y0115506D01*
X0243863Y0115661D01*
X0243901Y0115814D01*
X0243942Y0115967D01*
X0243987Y0116119D01*
X0244036Y0116270D01*
X0244089Y0116419D01*
X0244145Y0116567D01*
X0244205Y0116713D01*
X0244269Y0116858D01*
X0244337Y0117001D01*
X0244408Y0117143D01*
X0244482Y0117283D01*
X0244560Y0117420D01*
X0244642Y0117556D01*
X0244726Y0117690D01*
X0244815Y0117821D01*
X0244906Y0117950D01*
X0245001Y0118077D01*
X0245098Y0118202D01*
X0245199Y0118324D01*
X0245303Y0118443D01*
X0245410Y0118560D01*
X0245520Y0118674D01*
X0245633Y0118785D01*
X0245748Y0118894D01*
X0245866Y0118999D01*
X0245987Y0119101D01*
X0246110Y0119201D01*
X0246236Y0119297D01*
X0246364Y0119390D01*
X0246494Y0119480D01*
X0246627Y0119566D01*
X0246762Y0119650D01*
X0246898Y0119729D01*
X0247037Y0119806D01*
X0247178Y0119878D01*
X0247320Y0119948D01*
X0247464Y0120013D01*
X0247610Y0120075D01*
X0247757Y0120133D01*
X0247906Y0120188D01*
X0248056Y0120239D01*
X0248207Y0120286D01*
X0248359Y0120329D01*
X0248512Y0120368D01*
X0248667Y0120404D01*
X0248822Y0120435D01*
X0248978Y0120463D01*
X0249134Y0120487D01*
X0249291Y0120507D01*
X0249449Y0120523D01*
X0249606Y0120535D01*
X0249765Y0120543D01*
X0249923Y0120547D01*
X0250081Y0120547D01*
X0250239Y0120543D01*
X0250398Y0120535D01*
X0250555Y0120523D01*
X0250713Y0120507D01*
X0250870Y0120487D01*
X0251026Y0120463D01*
X0251182Y0120435D01*
X0251337Y0120404D01*
X0251492Y0120368D01*
X0251645Y0120329D01*
X0251797Y0120286D01*
X0251948Y0120239D01*
X0252098Y0120188D01*
X0252247Y0120133D01*
X0252394Y0120075D01*
X0252540Y0120013D01*
X0252684Y0119948D01*
X0252826Y0119878D01*
X0252967Y0119806D01*
X0253106Y0119729D01*
X0253242Y0119650D01*
X0253377Y0119566D01*
X0253510Y0119480D01*
X0253640Y0119390D01*
X0253768Y0119297D01*
X0253894Y0119201D01*
X0254017Y0119101D01*
X0254138Y0118999D01*
X0254256Y0118894D01*
X0254371Y0118785D01*
X0254484Y0118674D01*
X0254594Y0118560D01*
X0254701Y0118443D01*
X0254805Y0118324D01*
X0254906Y0118202D01*
X0255003Y0118077D01*
X0255098Y0117950D01*
X0255189Y0117821D01*
X0255278Y0117690D01*
X0255362Y0117556D01*
X0255444Y0117420D01*
X0255522Y0117283D01*
X0255596Y0117143D01*
X0255667Y0117001D01*
X0255735Y0116858D01*
X0255799Y0116713D01*
X0255859Y0116567D01*
X0255915Y0116419D01*
X0255968Y0116270D01*
X0256017Y0116119D01*
X0256062Y0115967D01*
X0256103Y0115814D01*
X0256141Y0115661D01*
X0256174Y0115506D01*
X0256204Y0115350D01*
X0256230Y0115194D01*
X0256251Y0115037D01*
X0256269Y0114880D01*
X0256283Y0114722D01*
X0256293Y0114564D01*
X0256299Y0114406D01*
X0256301Y0114248D01*
X0256299Y0114090D01*
X0256293Y0113932D01*
X0256283Y0113774D01*
X0256269Y0113616D01*
X0256251Y0113459D01*
X0256230Y0113302D01*
X0256204Y0113146D01*
X0256174Y0112990D01*
X0256141Y0112835D01*
X0256103Y0112682D01*
X0256062Y0112529D01*
X0256017Y0112377D01*
X0255968Y0112226D01*
X0255915Y0112077D01*
X0255859Y0111929D01*
X0255799Y0111783D01*
X0255735Y0111638D01*
X0255667Y0111495D01*
X0255596Y0111353D01*
X0255522Y0111213D01*
X0255444Y0111076D01*
X0255362Y0110940D01*
X0255278Y0110806D01*
X0255189Y0110675D01*
X0255098Y0110546D01*
X0255003Y0110419D01*
X0254906Y0110294D01*
X0254805Y0110172D01*
X0254701Y0110053D01*
X0254594Y0109936D01*
X0254484Y0109822D01*
X0254371Y0109711D01*
X0254256Y0109602D01*
X0254138Y0109497D01*
X0254017Y0109395D01*
X0253894Y0109295D01*
X0253768Y0109199D01*
X0253640Y0109106D01*
X0253510Y0109016D01*
X0253377Y0108930D01*
X0253242Y0108846D01*
X0253106Y0108767D01*
X0252967Y0108690D01*
X0252826Y0108618D01*
X0252684Y0108548D01*
X0252540Y0108483D01*
X0252394Y0108421D01*
X0252247Y0108363D01*
X0252098Y0108308D01*
X0251948Y0108257D01*
X0251797Y0108210D01*
X0251645Y0108167D01*
X0251492Y0108128D01*
X0251337Y0108092D01*
X0251182Y0108061D01*
X0251026Y0108033D01*
X0250870Y0108009D01*
X0250713Y0107989D01*
X0250555Y0107973D01*
X0250398Y0107961D01*
X0250239Y0107953D01*
X0250081Y0107949D01*
X0249923Y0107949D01*
X0249765Y0107953D01*
X0249606Y0107961D01*
X0249449Y0107973D01*
X0249291Y0107989D01*
X0249134Y0108009D01*
X0248978Y0108033D01*
X0248822Y0108061D01*
X0248667Y0108092D01*
X0248512Y0108128D01*
X0248359Y0108167D01*
X0248207Y0108210D01*
X0248056Y0108257D01*
X0247906Y0108308D01*
X0247757Y0108363D01*
X0247610Y0108421D01*
X0247464Y0108483D01*
X0247320Y0108548D01*
X0247178Y0108618D01*
X0247037Y0108690D01*
X0246898Y0108767D01*
X0246762Y0108846D01*
X0246627Y0108930D01*
X0246494Y0109016D01*
X0246364Y0109106D01*
X0246236Y0109199D01*
X0246110Y0109295D01*
X0245987Y0109395D01*
X0245866Y0109497D01*
X0245748Y0109602D01*
X0245633Y0109711D01*
X0245520Y0109822D01*
X0245410Y0109936D01*
X0245303Y0110053D01*
X0245199Y0110172D01*
X0245098Y0110294D01*
X0245001Y0110419D01*
X0244906Y0110546D01*
X0244815Y0110675D01*
X0244726Y0110806D01*
X0244642Y0110940D01*
X0244560Y0111076D01*
X0244482Y0111213D01*
X0244408Y0111353D01*
X0244337Y0111495D01*
X0244269Y0111638D01*
X0244205Y0111783D01*
X0244145Y0111929D01*
X0244089Y0112077D01*
X0244036Y0112226D01*
X0243987Y0112377D01*
X0243942Y0112529D01*
X0243901Y0112682D01*
X0243863Y0112835D01*
X0243830Y0112990D01*
X0243800Y0113146D01*
X0243774Y0113302D01*
X0243753Y0113459D01*
X0243735Y0113616D01*
X0243721Y0113774D01*
X0243711Y0113932D01*
X0243705Y0114090D01*
X0243703Y0114248D01*
D12*
X0162700Y0159500D02*
X0156700Y0159500D01*
X0156700Y0169500D02*
X0162700Y0169500D01*
X0162700Y0179500D02*
X0156700Y0179500D01*
X0156700Y0189500D02*
X0162700Y0189500D01*
X0162800Y0204500D02*
X0156800Y0204500D01*
X0156800Y0214500D02*
X0162800Y0214500D01*
X0162800Y0224500D02*
X0156800Y0224500D01*
X0156800Y0234500D02*
X0162800Y0234500D01*
X0081743Y0236925D02*
X0075743Y0236925D01*
X0075743Y0226925D02*
X0081743Y0226925D01*
X0081743Y0216925D02*
X0075743Y0216925D01*
X0075743Y0206925D02*
X0081743Y0206925D01*
X0081743Y0186925D02*
X0075743Y0186925D01*
X0075743Y0176925D02*
X0081743Y0176925D01*
X0081743Y0166925D02*
X0075743Y0166925D01*
X0075743Y0156925D02*
X0081743Y0156925D01*
X0081743Y0146925D02*
X0075743Y0146925D01*
X0075743Y0136925D02*
X0081743Y0136925D01*
X0108400Y0138900D02*
X0108400Y0144900D01*
X0118400Y0144900D02*
X0118400Y0138900D01*
X0081743Y0246925D02*
X0075743Y0246925D01*
X0075743Y0256925D02*
X0081743Y0256925D01*
D13*
X0111536Y0270642D02*
X0117473Y0270642D01*
X0117473Y0288358D02*
X0111536Y0288358D01*
X0137127Y0288358D02*
X0143064Y0288358D01*
X0143064Y0270642D02*
X0137127Y0270642D01*
X0161536Y0270642D02*
X0167473Y0270642D01*
X0167473Y0288358D02*
X0161536Y0288358D01*
X0187127Y0288358D02*
X0193064Y0288358D01*
X0193064Y0270642D02*
X0187127Y0270642D01*
D14*
X0183385Y0272241D02*
X0171215Y0272241D01*
X0170922Y0272946D02*
X0169778Y0274091D01*
X0168283Y0274710D01*
X0160727Y0274710D01*
X0159232Y0274091D01*
X0158087Y0272946D01*
X0157468Y0271451D01*
X0157468Y0269832D01*
X0158087Y0268337D01*
X0159232Y0267193D01*
X0160727Y0266573D01*
X0168283Y0266573D01*
X0169778Y0267193D01*
X0170922Y0268337D01*
X0171542Y0269832D01*
X0171542Y0271451D01*
X0170922Y0272946D01*
X0170629Y0273239D02*
X0183971Y0273239D01*
X0183678Y0272946D02*
X0183058Y0271451D01*
X0183058Y0269832D01*
X0183678Y0268337D01*
X0184822Y0267193D01*
X0186317Y0266573D01*
X0193873Y0266573D01*
X0195368Y0267193D01*
X0196513Y0268337D01*
X0197132Y0269832D01*
X0197132Y0271451D01*
X0196513Y0272946D01*
X0195368Y0274091D01*
X0193873Y0274710D01*
X0186317Y0274710D01*
X0184822Y0274091D01*
X0183678Y0272946D01*
X0183058Y0271242D02*
X0171542Y0271242D01*
X0171542Y0270244D02*
X0183058Y0270244D01*
X0183301Y0269245D02*
X0171299Y0269245D01*
X0170832Y0268247D02*
X0183768Y0268247D01*
X0184766Y0267248D02*
X0169834Y0267248D01*
X0169423Y0274238D02*
X0185177Y0274238D01*
X0186775Y0283890D02*
X0189611Y0283890D01*
X0189611Y0287874D01*
X0182679Y0287874D01*
X0182768Y0287312D01*
X0182986Y0286643D01*
X0183305Y0286016D01*
X0183718Y0285447D01*
X0184216Y0284950D01*
X0184785Y0284536D01*
X0185411Y0284217D01*
X0186080Y0284000D01*
X0186775Y0283890D01*
X0185400Y0284223D02*
X0169200Y0284223D01*
X0169189Y0284217D02*
X0169815Y0284536D01*
X0170384Y0284950D01*
X0170882Y0285447D01*
X0171295Y0286016D01*
X0171614Y0286643D01*
X0171832Y0287312D01*
X0171921Y0287874D01*
X0164989Y0287874D01*
X0164989Y0288843D01*
X0164020Y0288843D01*
X0164020Y0292827D01*
X0161185Y0292827D01*
X0160490Y0292717D01*
X0159821Y0292499D01*
X0159194Y0292180D01*
X0158625Y0291767D01*
X0158128Y0291269D01*
X0157714Y0290700D01*
X0157395Y0290074D01*
X0157178Y0289405D01*
X0157089Y0288843D01*
X0164020Y0288843D01*
X0164020Y0287874D01*
X0157089Y0287874D01*
X0157178Y0287312D01*
X0157395Y0286643D01*
X0157714Y0286016D01*
X0158128Y0285447D01*
X0158625Y0284950D01*
X0159194Y0284536D01*
X0159821Y0284217D01*
X0160490Y0284000D01*
X0161185Y0283890D01*
X0164020Y0283890D01*
X0164020Y0287874D01*
X0164989Y0287874D01*
X0164989Y0283890D01*
X0167825Y0283890D01*
X0168520Y0284000D01*
X0169189Y0284217D01*
X0170656Y0285222D02*
X0183944Y0285222D01*
X0183201Y0286220D02*
X0171399Y0286220D01*
X0171801Y0287219D02*
X0182799Y0287219D01*
X0182679Y0288843D02*
X0189611Y0288843D01*
X0189611Y0292827D01*
X0186775Y0292827D01*
X0186080Y0292717D01*
X0185411Y0292499D01*
X0184785Y0292180D01*
X0184216Y0291767D01*
X0183718Y0291269D01*
X0183305Y0290700D01*
X0182986Y0290074D01*
X0182768Y0289405D01*
X0182679Y0288843D01*
X0182738Y0289216D02*
X0171862Y0289216D01*
X0171832Y0289405D02*
X0171614Y0290074D01*
X0171295Y0290700D01*
X0170882Y0291269D01*
X0170384Y0291767D01*
X0169815Y0292180D01*
X0169189Y0292499D01*
X0168520Y0292717D01*
X0167825Y0292827D01*
X0164989Y0292827D01*
X0164989Y0288843D01*
X0171921Y0288843D01*
X0171832Y0289405D01*
X0171543Y0290214D02*
X0183057Y0290214D01*
X0183677Y0291213D02*
X0170923Y0291213D01*
X0169754Y0292211D02*
X0184846Y0292211D01*
X0189611Y0292211D02*
X0190580Y0292211D01*
X0190580Y0292827D02*
X0190580Y0288843D01*
X0189611Y0288843D01*
X0189611Y0287874D01*
X0190580Y0287874D01*
X0190580Y0288843D01*
X0197511Y0288843D01*
X0197422Y0289405D01*
X0197205Y0290074D01*
X0196886Y0290700D01*
X0196472Y0291269D01*
X0195975Y0291767D01*
X0195406Y0292180D01*
X0194779Y0292499D01*
X0194110Y0292717D01*
X0193415Y0292827D01*
X0190580Y0292827D01*
X0190580Y0291213D02*
X0189611Y0291213D01*
X0189611Y0290214D02*
X0190580Y0290214D01*
X0190580Y0289216D02*
X0189611Y0289216D01*
X0189611Y0288217D02*
X0164989Y0288217D01*
X0164020Y0288217D02*
X0140580Y0288217D01*
X0140580Y0287874D02*
X0140580Y0288843D01*
X0139611Y0288843D01*
X0139611Y0292827D01*
X0136775Y0292827D01*
X0136080Y0292717D01*
X0135411Y0292499D01*
X0134785Y0292180D01*
X0134216Y0291767D01*
X0133718Y0291269D01*
X0133305Y0290700D01*
X0132986Y0290074D01*
X0132768Y0289405D01*
X0132679Y0288843D01*
X0139611Y0288843D01*
X0139611Y0287874D01*
X0132679Y0287874D01*
X0132768Y0287312D01*
X0132986Y0286643D01*
X0133305Y0286016D01*
X0133718Y0285447D01*
X0134216Y0284950D01*
X0134785Y0284536D01*
X0135411Y0284217D01*
X0136080Y0284000D01*
X0136775Y0283890D01*
X0139611Y0283890D01*
X0139611Y0287874D01*
X0140580Y0287874D01*
X0147511Y0287874D01*
X0147422Y0287312D01*
X0147205Y0286643D01*
X0146886Y0286016D01*
X0146472Y0285447D01*
X0145975Y0284950D01*
X0145406Y0284536D01*
X0144779Y0284217D01*
X0144110Y0284000D01*
X0143415Y0283890D01*
X0140580Y0283890D01*
X0140580Y0287874D01*
X0140580Y0287219D02*
X0139611Y0287219D01*
X0139611Y0288217D02*
X0114989Y0288217D01*
X0114989Y0287874D02*
X0114989Y0288843D01*
X0114020Y0288843D01*
X0114020Y0292827D01*
X0111185Y0292827D01*
X0110490Y0292717D01*
X0109821Y0292499D01*
X0109194Y0292180D01*
X0108625Y0291767D01*
X0108128Y0291269D01*
X0107714Y0290700D01*
X0107395Y0290074D01*
X0107178Y0289405D01*
X0107089Y0288843D01*
X0114020Y0288843D01*
X0114020Y0287874D01*
X0107089Y0287874D01*
X0107178Y0287312D01*
X0107395Y0286643D01*
X0107714Y0286016D01*
X0108128Y0285447D01*
X0108625Y0284950D01*
X0109194Y0284536D01*
X0109821Y0284217D01*
X0110490Y0284000D01*
X0111185Y0283890D01*
X0114020Y0283890D01*
X0114020Y0287874D01*
X0114989Y0287874D01*
X0121921Y0287874D01*
X0121832Y0287312D01*
X0121614Y0286643D01*
X0121295Y0286016D01*
X0120882Y0285447D01*
X0120384Y0284950D01*
X0119815Y0284536D01*
X0119189Y0284217D01*
X0118520Y0284000D01*
X0117825Y0283890D01*
X0114989Y0283890D01*
X0114989Y0287874D01*
X0114989Y0287219D02*
X0114020Y0287219D01*
X0114020Y0288217D02*
X0075699Y0288217D01*
X0074701Y0287219D02*
X0082655Y0287219D01*
X0083097Y0287402D02*
X0080230Y0286214D01*
X0078036Y0284020D01*
X0076849Y0281154D01*
X0076849Y0278051D01*
X0078036Y0275184D01*
X0080230Y0272991D01*
X0083097Y0271803D01*
X0086199Y0271803D01*
X0089066Y0272991D01*
X0091260Y0275184D01*
X0092447Y0278051D01*
X0092447Y0281154D01*
X0091260Y0284020D01*
X0089066Y0286214D01*
X0086199Y0287402D01*
X0083097Y0287402D01*
X0080244Y0286220D02*
X0073702Y0286220D01*
X0072704Y0285222D02*
X0079238Y0285222D01*
X0078239Y0284223D02*
X0071705Y0284223D01*
X0070707Y0283225D02*
X0077707Y0283225D01*
X0077293Y0282226D02*
X0070400Y0282226D01*
X0070400Y0282918D02*
X0070400Y0110932D01*
X0081332Y0100000D01*
X0253318Y0100000D01*
X0264250Y0110932D01*
X0264250Y0181215D01*
X0251660Y0181215D01*
X0251221Y0181654D01*
X0251221Y0212196D01*
X0251660Y0212636D01*
X0264250Y0212636D01*
X0264250Y0282918D01*
X0253318Y0293850D01*
X0081332Y0293850D01*
X0070400Y0282918D01*
X0070400Y0281228D02*
X0076879Y0281228D01*
X0076849Y0280229D02*
X0070400Y0280229D01*
X0070400Y0279231D02*
X0076849Y0279231D01*
X0076849Y0278232D02*
X0070400Y0278232D01*
X0070400Y0277234D02*
X0077187Y0277234D01*
X0077601Y0276235D02*
X0070400Y0276235D01*
X0070400Y0275237D02*
X0078015Y0275237D01*
X0078983Y0274238D02*
X0070400Y0274238D01*
X0070400Y0273239D02*
X0079981Y0273239D01*
X0082040Y0272241D02*
X0070400Y0272241D01*
X0070400Y0271242D02*
X0107468Y0271242D01*
X0107468Y0271451D02*
X0107468Y0269832D01*
X0108087Y0268337D01*
X0109232Y0267193D01*
X0110727Y0266573D01*
X0118283Y0266573D01*
X0119778Y0267193D01*
X0120922Y0268337D01*
X0121542Y0269832D01*
X0121542Y0271451D01*
X0120922Y0272946D01*
X0119778Y0274091D01*
X0118283Y0274710D01*
X0110727Y0274710D01*
X0109232Y0274091D01*
X0108087Y0272946D01*
X0107468Y0271451D01*
X0107795Y0272241D02*
X0087256Y0272241D01*
X0089315Y0273239D02*
X0108380Y0273239D01*
X0109587Y0274238D02*
X0090313Y0274238D01*
X0091281Y0275237D02*
X0243369Y0275237D01*
X0243391Y0275184D02*
X0245584Y0272991D01*
X0248451Y0271803D01*
X0251554Y0271803D01*
X0254420Y0272991D01*
X0256614Y0275184D01*
X0257802Y0278051D01*
X0257802Y0281154D01*
X0256614Y0284020D01*
X0254420Y0286214D01*
X0251554Y0287402D01*
X0248451Y0287402D01*
X0245584Y0286214D01*
X0243391Y0284020D01*
X0242203Y0281154D01*
X0242203Y0278051D01*
X0243391Y0275184D01*
X0242955Y0276235D02*
X0091695Y0276235D01*
X0092109Y0277234D02*
X0242542Y0277234D01*
X0242203Y0278232D02*
X0092447Y0278232D01*
X0092447Y0279231D02*
X0242203Y0279231D01*
X0242203Y0280229D02*
X0092447Y0280229D01*
X0092417Y0281228D02*
X0242234Y0281228D01*
X0242647Y0282226D02*
X0092003Y0282226D01*
X0091589Y0283225D02*
X0243061Y0283225D01*
X0243593Y0284223D02*
X0194791Y0284223D01*
X0194779Y0284217D02*
X0195406Y0284536D01*
X0195975Y0284950D01*
X0196472Y0285447D01*
X0196886Y0286016D01*
X0197205Y0286643D01*
X0197422Y0287312D01*
X0197511Y0287874D01*
X0190580Y0287874D01*
X0190580Y0283890D01*
X0193415Y0283890D01*
X0194110Y0284000D01*
X0194779Y0284217D01*
X0196247Y0285222D02*
X0244592Y0285222D01*
X0245599Y0286220D02*
X0196989Y0286220D01*
X0197392Y0287219D02*
X0248009Y0287219D01*
X0251995Y0287219D02*
X0259950Y0287219D01*
X0258951Y0288217D02*
X0190580Y0288217D01*
X0190580Y0287219D02*
X0189611Y0287219D01*
X0189611Y0286220D02*
X0190580Y0286220D01*
X0190580Y0285222D02*
X0189611Y0285222D01*
X0189611Y0284223D02*
X0190580Y0284223D01*
X0197452Y0289216D02*
X0257953Y0289216D01*
X0256954Y0290214D02*
X0197133Y0290214D01*
X0196513Y0291213D02*
X0255956Y0291213D01*
X0254957Y0292211D02*
X0195345Y0292211D01*
X0195013Y0274238D02*
X0244337Y0274238D01*
X0245335Y0273239D02*
X0196220Y0273239D01*
X0196805Y0272241D02*
X0247394Y0272241D01*
X0252611Y0272241D02*
X0264250Y0272241D01*
X0264250Y0273239D02*
X0254669Y0273239D01*
X0255668Y0274238D02*
X0264250Y0274238D01*
X0264250Y0275237D02*
X0256636Y0275237D01*
X0257049Y0276235D02*
X0264250Y0276235D01*
X0264250Y0277234D02*
X0257463Y0277234D01*
X0257802Y0278232D02*
X0264250Y0278232D01*
X0264250Y0279231D02*
X0257802Y0279231D01*
X0257802Y0280229D02*
X0264250Y0280229D01*
X0264250Y0281228D02*
X0257771Y0281228D01*
X0257357Y0282226D02*
X0264250Y0282226D01*
X0263944Y0283225D02*
X0256944Y0283225D01*
X0256411Y0284223D02*
X0262945Y0284223D01*
X0261947Y0285222D02*
X0255413Y0285222D01*
X0254406Y0286220D02*
X0260948Y0286220D01*
X0253959Y0293210D02*
X0080692Y0293210D01*
X0079693Y0292211D02*
X0109255Y0292211D01*
X0108087Y0291213D02*
X0078695Y0291213D01*
X0077696Y0290214D02*
X0107467Y0290214D01*
X0107148Y0289216D02*
X0076698Y0289216D01*
X0086641Y0287219D02*
X0107208Y0287219D01*
X0107611Y0286220D02*
X0089052Y0286220D01*
X0090059Y0285222D02*
X0108353Y0285222D01*
X0109809Y0284223D02*
X0091057Y0284223D01*
X0107468Y0270244D02*
X0070400Y0270244D01*
X0070400Y0269245D02*
X0107711Y0269245D01*
X0108177Y0268247D02*
X0070400Y0268247D01*
X0070400Y0267248D02*
X0109176Y0267248D01*
X0119834Y0267248D02*
X0134766Y0267248D01*
X0134822Y0267193D02*
X0136317Y0266573D01*
X0143873Y0266573D01*
X0145368Y0267193D01*
X0146513Y0268337D01*
X0147132Y0269832D01*
X0147132Y0271451D01*
X0146513Y0272946D01*
X0145368Y0274091D01*
X0143873Y0274710D01*
X0136317Y0274710D01*
X0134822Y0274091D01*
X0133678Y0272946D01*
X0133058Y0271451D01*
X0133058Y0269832D01*
X0133678Y0268337D01*
X0134822Y0267193D01*
X0133768Y0268247D02*
X0120832Y0268247D01*
X0121299Y0269245D02*
X0133301Y0269245D01*
X0133058Y0270244D02*
X0121542Y0270244D01*
X0121542Y0271242D02*
X0133058Y0271242D01*
X0133385Y0272241D02*
X0121215Y0272241D01*
X0120629Y0273239D02*
X0133971Y0273239D01*
X0135177Y0274238D02*
X0119423Y0274238D01*
X0119200Y0284223D02*
X0135400Y0284223D01*
X0133944Y0285222D02*
X0120656Y0285222D01*
X0121399Y0286220D02*
X0133201Y0286220D01*
X0132799Y0287219D02*
X0121801Y0287219D01*
X0121921Y0288843D02*
X0121832Y0289405D01*
X0121614Y0290074D01*
X0121295Y0290700D01*
X0120882Y0291269D01*
X0120384Y0291767D01*
X0119815Y0292180D01*
X0119189Y0292499D01*
X0118520Y0292717D01*
X0117825Y0292827D01*
X0114989Y0292827D01*
X0114989Y0288843D01*
X0121921Y0288843D01*
X0121862Y0289216D02*
X0132738Y0289216D01*
X0133057Y0290214D02*
X0121543Y0290214D01*
X0120923Y0291213D02*
X0133677Y0291213D01*
X0134846Y0292211D02*
X0119754Y0292211D01*
X0114989Y0292211D02*
X0114020Y0292211D01*
X0114020Y0291213D02*
X0114989Y0291213D01*
X0114989Y0290214D02*
X0114020Y0290214D01*
X0114020Y0289216D02*
X0114989Y0289216D01*
X0114989Y0286220D02*
X0114020Y0286220D01*
X0114020Y0285222D02*
X0114989Y0285222D01*
X0114989Y0284223D02*
X0114020Y0284223D01*
X0139611Y0284223D02*
X0140580Y0284223D01*
X0140580Y0285222D02*
X0139611Y0285222D01*
X0139611Y0286220D02*
X0140580Y0286220D01*
X0140580Y0288843D02*
X0147511Y0288843D01*
X0147422Y0289405D01*
X0147205Y0290074D01*
X0146886Y0290700D01*
X0146472Y0291269D01*
X0145975Y0291767D01*
X0145406Y0292180D01*
X0144779Y0292499D01*
X0144110Y0292717D01*
X0143415Y0292827D01*
X0140580Y0292827D01*
X0140580Y0288843D01*
X0140580Y0289216D02*
X0139611Y0289216D01*
X0139611Y0290214D02*
X0140580Y0290214D01*
X0140580Y0291213D02*
X0139611Y0291213D01*
X0139611Y0292211D02*
X0140580Y0292211D01*
X0145345Y0292211D02*
X0159255Y0292211D01*
X0158087Y0291213D02*
X0146513Y0291213D01*
X0147133Y0290214D02*
X0157467Y0290214D01*
X0157148Y0289216D02*
X0147452Y0289216D01*
X0147392Y0287219D02*
X0157208Y0287219D01*
X0157611Y0286220D02*
X0146989Y0286220D01*
X0146247Y0285222D02*
X0158353Y0285222D01*
X0159809Y0284223D02*
X0144791Y0284223D01*
X0145013Y0274238D02*
X0159587Y0274238D01*
X0158380Y0273239D02*
X0146220Y0273239D01*
X0146805Y0272241D02*
X0157795Y0272241D01*
X0157468Y0271242D02*
X0147132Y0271242D01*
X0147132Y0270244D02*
X0157468Y0270244D01*
X0157711Y0269245D02*
X0146889Y0269245D01*
X0146423Y0268247D02*
X0158177Y0268247D01*
X0159176Y0267248D02*
X0145424Y0267248D01*
X0164020Y0284223D02*
X0164989Y0284223D01*
X0164989Y0285222D02*
X0164020Y0285222D01*
X0164020Y0286220D02*
X0164989Y0286220D01*
X0164989Y0287219D02*
X0164020Y0287219D01*
X0164020Y0289216D02*
X0164989Y0289216D01*
X0164989Y0290214D02*
X0164020Y0290214D01*
X0164020Y0291213D02*
X0164989Y0291213D01*
X0164989Y0292211D02*
X0164020Y0292211D01*
X0197132Y0271242D02*
X0264250Y0271242D01*
X0264250Y0270244D02*
X0197132Y0270244D01*
X0196889Y0269245D02*
X0264250Y0269245D01*
X0264250Y0268247D02*
X0196423Y0268247D01*
X0195424Y0267248D02*
X0264250Y0267248D01*
X0264250Y0266250D02*
X0070400Y0266250D01*
X0070400Y0265251D02*
X0264250Y0265251D01*
X0264250Y0264253D02*
X0070400Y0264253D01*
X0070400Y0263254D02*
X0264250Y0263254D01*
X0264250Y0262256D02*
X0070400Y0262256D01*
X0070400Y0261257D02*
X0264250Y0261257D01*
X0264250Y0260259D02*
X0084207Y0260259D01*
X0084065Y0260401D02*
X0082558Y0261025D01*
X0074927Y0261025D01*
X0073420Y0260401D01*
X0072267Y0259248D01*
X0071643Y0257741D01*
X0071643Y0256110D01*
X0072267Y0254603D01*
X0073420Y0253449D01*
X0074927Y0252825D01*
X0082558Y0252825D01*
X0084065Y0253449D01*
X0085218Y0254603D01*
X0085843Y0256110D01*
X0085843Y0257741D01*
X0085218Y0259248D01*
X0084065Y0260401D01*
X0085206Y0259260D02*
X0264250Y0259260D01*
X0264250Y0258262D02*
X0085627Y0258262D01*
X0085843Y0257263D02*
X0264250Y0257263D01*
X0264250Y0256265D02*
X0085843Y0256265D01*
X0085493Y0255266D02*
X0264250Y0255266D01*
X0264250Y0254268D02*
X0084883Y0254268D01*
X0083630Y0253269D02*
X0264250Y0253269D01*
X0264250Y0252271D02*
X0070400Y0252271D01*
X0070400Y0253269D02*
X0073855Y0253269D01*
X0072602Y0254268D02*
X0070400Y0254268D01*
X0070400Y0255266D02*
X0071992Y0255266D01*
X0071643Y0256265D02*
X0070400Y0256265D01*
X0070400Y0257263D02*
X0071643Y0257263D01*
X0071858Y0258262D02*
X0070400Y0258262D01*
X0070400Y0259260D02*
X0072279Y0259260D01*
X0073278Y0260259D02*
X0070400Y0260259D01*
X0070400Y0251272D02*
X0264250Y0251272D01*
X0264250Y0250274D02*
X0084192Y0250274D01*
X0084065Y0250401D02*
X0082558Y0251025D01*
X0074927Y0251025D01*
X0073420Y0250401D01*
X0072267Y0249248D01*
X0071643Y0247741D01*
X0071643Y0246110D01*
X0072267Y0244603D01*
X0073420Y0243449D01*
X0074927Y0242825D01*
X0082558Y0242825D01*
X0084065Y0243449D01*
X0085218Y0244603D01*
X0085843Y0246110D01*
X0085843Y0247741D01*
X0085218Y0249248D01*
X0084065Y0250401D01*
X0085191Y0249275D02*
X0264250Y0249275D01*
X0264250Y0248277D02*
X0085621Y0248277D01*
X0085843Y0247278D02*
X0264250Y0247278D01*
X0264250Y0246280D02*
X0085843Y0246280D01*
X0085499Y0245281D02*
X0264250Y0245281D01*
X0264250Y0244283D02*
X0084898Y0244283D01*
X0083666Y0243284D02*
X0264250Y0243284D01*
X0264250Y0242286D02*
X0070400Y0242286D01*
X0070400Y0243284D02*
X0073819Y0243284D01*
X0072587Y0244283D02*
X0070400Y0244283D01*
X0070400Y0245281D02*
X0071986Y0245281D01*
X0071643Y0246280D02*
X0070400Y0246280D01*
X0070400Y0247278D02*
X0071643Y0247278D01*
X0071865Y0248277D02*
X0070400Y0248277D01*
X0070400Y0249275D02*
X0072294Y0249275D01*
X0073293Y0250274D02*
X0070400Y0250274D01*
X0070400Y0241287D02*
X0264250Y0241287D01*
X0264250Y0240289D02*
X0084177Y0240289D01*
X0084065Y0240401D02*
X0082558Y0241025D01*
X0074927Y0241025D01*
X0073420Y0240401D01*
X0072267Y0239248D01*
X0071643Y0237741D01*
X0071643Y0236110D01*
X0072267Y0234603D01*
X0073420Y0233449D01*
X0074927Y0232825D01*
X0082558Y0232825D01*
X0084065Y0233449D01*
X0085218Y0234603D01*
X0085843Y0236110D01*
X0085843Y0237741D01*
X0085218Y0239248D01*
X0084065Y0240401D01*
X0085176Y0239290D02*
X0264250Y0239290D01*
X0264250Y0238292D02*
X0164360Y0238292D01*
X0163616Y0238600D02*
X0165122Y0237976D01*
X0166276Y0236822D01*
X0166900Y0235316D01*
X0166900Y0233684D01*
X0166276Y0232178D01*
X0165122Y0231024D01*
X0163616Y0230400D01*
X0155984Y0230400D01*
X0154478Y0231024D01*
X0153324Y0232178D01*
X0152700Y0233684D01*
X0152700Y0235316D01*
X0153324Y0236822D01*
X0154478Y0237976D01*
X0155984Y0238600D01*
X0163616Y0238600D01*
X0165805Y0237293D02*
X0264250Y0237293D01*
X0264250Y0236295D02*
X0166494Y0236295D01*
X0166900Y0235296D02*
X0264250Y0235296D01*
X0264250Y0234298D02*
X0166900Y0234298D01*
X0166740Y0233299D02*
X0264250Y0233299D01*
X0264250Y0232301D02*
X0166327Y0232301D01*
X0165400Y0231302D02*
X0264250Y0231302D01*
X0264250Y0230303D02*
X0084162Y0230303D01*
X0084065Y0230401D02*
X0082558Y0231025D01*
X0074927Y0231025D01*
X0073420Y0230401D01*
X0072267Y0229248D01*
X0071643Y0227741D01*
X0071643Y0226110D01*
X0072267Y0224603D01*
X0073420Y0223449D01*
X0074927Y0222825D01*
X0082558Y0222825D01*
X0084065Y0223449D01*
X0085218Y0224603D01*
X0085843Y0226110D01*
X0085843Y0227741D01*
X0085218Y0229248D01*
X0084065Y0230401D01*
X0085161Y0229305D02*
X0264250Y0229305D01*
X0264250Y0228306D02*
X0164324Y0228306D01*
X0163616Y0228600D02*
X0165122Y0227976D01*
X0166276Y0226822D01*
X0166900Y0225316D01*
X0166900Y0223684D01*
X0166276Y0222178D01*
X0165122Y0221024D01*
X0163616Y0220400D01*
X0155984Y0220400D01*
X0154478Y0221024D01*
X0153324Y0222178D01*
X0152700Y0223684D01*
X0152700Y0225316D01*
X0153324Y0226822D01*
X0154478Y0227976D01*
X0155984Y0228600D01*
X0163616Y0228600D01*
X0165790Y0227308D02*
X0264250Y0227308D01*
X0264250Y0226309D02*
X0166488Y0226309D01*
X0166900Y0225311D02*
X0264250Y0225311D01*
X0264250Y0224312D02*
X0166900Y0224312D01*
X0166747Y0223314D02*
X0264250Y0223314D01*
X0264250Y0222315D02*
X0166333Y0222315D01*
X0165415Y0221317D02*
X0264250Y0221317D01*
X0264250Y0220318D02*
X0084713Y0220318D01*
X0084674Y0220358D02*
X0084101Y0220774D01*
X0083470Y0221095D01*
X0082796Y0221314D01*
X0082097Y0221425D01*
X0079242Y0221425D01*
X0079242Y0217425D01*
X0078243Y0217425D01*
X0078243Y0221425D01*
X0075388Y0221425D01*
X0074689Y0221314D01*
X0074015Y0221095D01*
X0073384Y0220774D01*
X0072811Y0220358D01*
X0072310Y0219857D01*
X0071894Y0219284D01*
X0071572Y0218653D01*
X0071353Y0217979D01*
X0071266Y0217425D01*
X0078242Y0217425D01*
X0078242Y0216425D01*
X0071266Y0216425D01*
X0071353Y0215871D01*
X0071572Y0215198D01*
X0071894Y0214567D01*
X0072310Y0213994D01*
X0072811Y0213493D01*
X0073384Y0213076D01*
X0074015Y0212755D01*
X0074689Y0212536D01*
X0075388Y0212425D01*
X0078243Y0212425D01*
X0078243Y0216425D01*
X0079242Y0216425D01*
X0079242Y0212425D01*
X0082097Y0212425D01*
X0082796Y0212536D01*
X0083470Y0212755D01*
X0084101Y0213076D01*
X0084674Y0213493D01*
X0085175Y0213994D01*
X0085591Y0214567D01*
X0085913Y0215198D01*
X0086132Y0215871D01*
X0086219Y0216425D01*
X0079243Y0216425D01*
X0079243Y0217425D01*
X0086219Y0217425D01*
X0086132Y0217979D01*
X0085913Y0218653D01*
X0085591Y0219284D01*
X0085175Y0219857D01*
X0084674Y0220358D01*
X0085565Y0219320D02*
X0264250Y0219320D01*
X0264250Y0218321D02*
X0165196Y0218321D01*
X0165159Y0218349D02*
X0164527Y0218670D01*
X0163854Y0218889D01*
X0163154Y0219000D01*
X0160300Y0219000D01*
X0160300Y0215000D01*
X0159300Y0215000D01*
X0159300Y0219000D01*
X0156446Y0219000D01*
X0155746Y0218889D01*
X0155073Y0218670D01*
X0154441Y0218349D01*
X0153868Y0217932D01*
X0153368Y0217432D01*
X0152951Y0216859D01*
X0152630Y0216227D01*
X0152411Y0215554D01*
X0152323Y0215000D01*
X0159300Y0215000D01*
X0159300Y0214000D01*
X0160300Y0214000D01*
X0160300Y0215000D01*
X0167277Y0215000D01*
X0167189Y0215554D01*
X0166970Y0216227D01*
X0166649Y0216859D01*
X0166232Y0217432D01*
X0165732Y0217932D01*
X0165159Y0218349D01*
X0166311Y0217323D02*
X0264250Y0217323D01*
X0264250Y0216324D02*
X0166921Y0216324D01*
X0167225Y0215326D02*
X0264250Y0215326D01*
X0264250Y0214327D02*
X0160300Y0214327D01*
X0160300Y0214000D02*
X0167277Y0214000D01*
X0167189Y0213446D01*
X0166970Y0212773D01*
X0166649Y0212141D01*
X0166232Y0211568D01*
X0165732Y0211068D01*
X0165159Y0210651D01*
X0164527Y0210330D01*
X0163854Y0210111D01*
X0163154Y0210000D01*
X0160300Y0210000D01*
X0160300Y0214000D01*
X0160300Y0213329D02*
X0159300Y0213329D01*
X0159300Y0214000D02*
X0159300Y0210000D01*
X0156446Y0210000D01*
X0155746Y0210111D01*
X0155073Y0210330D01*
X0154441Y0210651D01*
X0153868Y0211068D01*
X0153368Y0211568D01*
X0152951Y0212141D01*
X0152630Y0212773D01*
X0152411Y0213446D01*
X0152323Y0214000D01*
X0159300Y0214000D01*
X0159300Y0214327D02*
X0085417Y0214327D01*
X0085954Y0215326D02*
X0152375Y0215326D01*
X0152679Y0216324D02*
X0086203Y0216324D01*
X0086020Y0218321D02*
X0154404Y0218321D01*
X0153289Y0217323D02*
X0079243Y0217323D01*
X0079242Y0218321D02*
X0078243Y0218321D01*
X0078242Y0217323D02*
X0070400Y0217323D01*
X0070400Y0218321D02*
X0071465Y0218321D01*
X0071920Y0219320D02*
X0070400Y0219320D01*
X0070400Y0220318D02*
X0072772Y0220318D01*
X0074705Y0221317D02*
X0070400Y0221317D01*
X0070400Y0222315D02*
X0153267Y0222315D01*
X0152853Y0223314D02*
X0083738Y0223314D01*
X0084928Y0224312D02*
X0152700Y0224312D01*
X0152700Y0225311D02*
X0085512Y0225311D01*
X0085843Y0226309D02*
X0153112Y0226309D01*
X0153810Y0227308D02*
X0085843Y0227308D01*
X0085608Y0228306D02*
X0155276Y0228306D01*
X0154200Y0231302D02*
X0070400Y0231302D01*
X0070400Y0232301D02*
X0153273Y0232301D01*
X0152860Y0233299D02*
X0083702Y0233299D01*
X0084913Y0234298D02*
X0152700Y0234298D01*
X0152700Y0235296D02*
X0085505Y0235296D01*
X0085843Y0236295D02*
X0153106Y0236295D01*
X0153795Y0237293D02*
X0085843Y0237293D01*
X0085614Y0238292D02*
X0155240Y0238292D01*
X0154185Y0221317D02*
X0082780Y0221317D01*
X0079242Y0221317D02*
X0078243Y0221317D01*
X0078243Y0220318D02*
X0079242Y0220318D01*
X0079242Y0219320D02*
X0078243Y0219320D01*
X0078243Y0216324D02*
X0079242Y0216324D01*
X0079242Y0215326D02*
X0078243Y0215326D01*
X0078243Y0214327D02*
X0079242Y0214327D01*
X0079242Y0213329D02*
X0078243Y0213329D01*
X0074927Y0211025D02*
X0073420Y0210401D01*
X0072267Y0209248D01*
X0071643Y0207741D01*
X0071643Y0206110D01*
X0072267Y0204603D01*
X0073420Y0203449D01*
X0074927Y0202825D01*
X0082558Y0202825D01*
X0084065Y0203449D01*
X0085218Y0204603D01*
X0085843Y0206110D01*
X0085843Y0207741D01*
X0085218Y0209248D01*
X0084065Y0210401D01*
X0082558Y0211025D01*
X0074927Y0211025D01*
X0073352Y0210333D02*
X0070400Y0210333D01*
X0070400Y0209335D02*
X0072354Y0209335D01*
X0071889Y0208336D02*
X0070400Y0208336D01*
X0070400Y0207338D02*
X0071643Y0207338D01*
X0071643Y0206339D02*
X0070400Y0206339D01*
X0070400Y0205341D02*
X0071961Y0205341D01*
X0072527Y0204342D02*
X0070400Y0204342D01*
X0070400Y0203344D02*
X0073675Y0203344D01*
X0070400Y0202345D02*
X0153255Y0202345D01*
X0153324Y0202178D02*
X0154478Y0201024D01*
X0155984Y0200400D01*
X0163616Y0200400D01*
X0165122Y0201024D01*
X0166276Y0202178D01*
X0166900Y0203684D01*
X0166900Y0205316D01*
X0166276Y0206822D01*
X0165122Y0207976D01*
X0163616Y0208600D01*
X0155984Y0208600D01*
X0154478Y0207976D01*
X0153324Y0206822D01*
X0152700Y0205316D01*
X0152700Y0203684D01*
X0153324Y0202178D01*
X0154155Y0201347D02*
X0070400Y0201347D01*
X0070400Y0200348D02*
X0251221Y0200348D01*
X0251221Y0199350D02*
X0070400Y0199350D01*
X0070400Y0198351D02*
X0251221Y0198351D01*
X0251221Y0197353D02*
X0070400Y0197353D01*
X0070400Y0196354D02*
X0251221Y0196354D01*
X0251221Y0195356D02*
X0070400Y0195356D01*
X0070400Y0194357D02*
X0251221Y0194357D01*
X0251221Y0193359D02*
X0164098Y0193359D01*
X0163516Y0193600D02*
X0165022Y0192976D01*
X0166176Y0191822D01*
X0166800Y0190316D01*
X0166800Y0188684D01*
X0166176Y0187178D01*
X0165022Y0186024D01*
X0163516Y0185400D01*
X0155884Y0185400D01*
X0154378Y0186024D01*
X0153224Y0187178D01*
X0152600Y0188684D01*
X0152600Y0190316D01*
X0153224Y0191822D01*
X0154378Y0192976D01*
X0155884Y0193600D01*
X0163516Y0193600D01*
X0165638Y0192360D02*
X0251221Y0192360D01*
X0251221Y0191362D02*
X0166367Y0191362D01*
X0166780Y0190363D02*
X0251221Y0190363D01*
X0251221Y0189365D02*
X0166800Y0189365D01*
X0166668Y0188366D02*
X0251221Y0188366D01*
X0251221Y0187368D02*
X0166254Y0187368D01*
X0165367Y0186369D02*
X0251221Y0186369D01*
X0251221Y0185370D02*
X0085536Y0185370D01*
X0085843Y0186110D02*
X0085843Y0187741D01*
X0085218Y0189248D01*
X0084065Y0190401D01*
X0082558Y0191025D01*
X0074927Y0191025D01*
X0073420Y0190401D01*
X0072267Y0189248D01*
X0071643Y0187741D01*
X0071643Y0186110D01*
X0072267Y0184603D01*
X0073420Y0183449D01*
X0074927Y0182825D01*
X0082558Y0182825D01*
X0084065Y0183449D01*
X0085218Y0184603D01*
X0085843Y0186110D01*
X0085843Y0186369D02*
X0154033Y0186369D01*
X0153145Y0187368D02*
X0085843Y0187368D01*
X0085584Y0188366D02*
X0152732Y0188366D01*
X0152600Y0189365D02*
X0085101Y0189365D01*
X0084103Y0190363D02*
X0152620Y0190363D01*
X0153033Y0191362D02*
X0070400Y0191362D01*
X0070400Y0192360D02*
X0153762Y0192360D01*
X0155302Y0193359D02*
X0070400Y0193359D01*
X0070400Y0190363D02*
X0073382Y0190363D01*
X0072384Y0189365D02*
X0070400Y0189365D01*
X0070400Y0188366D02*
X0071902Y0188366D01*
X0071643Y0187368D02*
X0070400Y0187368D01*
X0070400Y0186369D02*
X0071643Y0186369D01*
X0071949Y0185370D02*
X0070400Y0185370D01*
X0070400Y0184372D02*
X0072497Y0184372D01*
X0073603Y0183373D02*
X0070400Y0183373D01*
X0070400Y0182375D02*
X0153777Y0182375D01*
X0153224Y0181822D02*
X0152600Y0180316D01*
X0152600Y0178684D01*
X0153224Y0177178D01*
X0154378Y0176024D01*
X0155884Y0175400D01*
X0163516Y0175400D01*
X0165022Y0176024D01*
X0166176Y0177178D01*
X0166800Y0178684D01*
X0166800Y0180316D01*
X0166176Y0181822D01*
X0165022Y0182976D01*
X0163516Y0183600D01*
X0155884Y0183600D01*
X0154378Y0182976D01*
X0153224Y0181822D01*
X0153039Y0181376D02*
X0070400Y0181376D01*
X0070400Y0180378D02*
X0073397Y0180378D01*
X0073420Y0180401D02*
X0072267Y0179248D01*
X0071643Y0177741D01*
X0071643Y0176110D01*
X0072267Y0174603D01*
X0073420Y0173449D01*
X0074927Y0172825D01*
X0082558Y0172825D01*
X0084065Y0173449D01*
X0085218Y0174603D01*
X0085843Y0176110D01*
X0085843Y0177741D01*
X0085218Y0179248D01*
X0084065Y0180401D01*
X0082558Y0181025D01*
X0074927Y0181025D01*
X0073420Y0180401D01*
X0072398Y0179379D02*
X0070400Y0179379D01*
X0070400Y0178381D02*
X0071908Y0178381D01*
X0071643Y0177382D02*
X0070400Y0177382D01*
X0070400Y0176384D02*
X0071643Y0176384D01*
X0071943Y0175385D02*
X0070400Y0175385D01*
X0070400Y0174387D02*
X0072483Y0174387D01*
X0073567Y0173388D02*
X0070400Y0173388D01*
X0070400Y0172390D02*
X0153237Y0172390D01*
X0153268Y0172432D02*
X0152851Y0171859D01*
X0152530Y0171227D01*
X0152311Y0170554D01*
X0152223Y0170000D01*
X0159200Y0170000D01*
X0159200Y0174000D01*
X0156346Y0174000D01*
X0155646Y0173889D01*
X0154973Y0173670D01*
X0154341Y0173349D01*
X0153768Y0172932D01*
X0153268Y0172432D01*
X0152613Y0171391D02*
X0070400Y0171391D01*
X0070400Y0170393D02*
X0073412Y0170393D01*
X0073420Y0170401D02*
X0072267Y0169248D01*
X0071643Y0167741D01*
X0071643Y0166110D01*
X0072267Y0164603D01*
X0073420Y0163449D01*
X0074927Y0162825D01*
X0082558Y0162825D01*
X0084065Y0163449D01*
X0085218Y0164603D01*
X0085843Y0166110D01*
X0085843Y0167741D01*
X0085218Y0169248D01*
X0084065Y0170401D01*
X0082558Y0171025D01*
X0074927Y0171025D01*
X0073420Y0170401D01*
X0072413Y0169394D02*
X0070400Y0169394D01*
X0070400Y0168396D02*
X0071914Y0168396D01*
X0071643Y0167397D02*
X0070400Y0167397D01*
X0070400Y0166399D02*
X0071643Y0166399D01*
X0071936Y0165400D02*
X0070400Y0165400D01*
X0070400Y0164402D02*
X0072468Y0164402D01*
X0073531Y0163403D02*
X0070400Y0163403D01*
X0070400Y0162405D02*
X0153806Y0162405D01*
X0154378Y0162976D02*
X0153224Y0161822D01*
X0152600Y0160316D01*
X0152600Y0158684D01*
X0153224Y0157178D01*
X0154378Y0156024D01*
X0155884Y0155400D01*
X0163516Y0155400D01*
X0165022Y0156024D01*
X0166176Y0157178D01*
X0166800Y0158684D01*
X0166800Y0160316D01*
X0166176Y0161822D01*
X0165022Y0162976D01*
X0163516Y0163600D01*
X0155884Y0163600D01*
X0154378Y0162976D01*
X0155409Y0163403D02*
X0083954Y0163403D01*
X0085017Y0164402D02*
X0264250Y0164402D01*
X0264250Y0165400D02*
X0164566Y0165400D01*
X0164427Y0165330D02*
X0165059Y0165651D01*
X0165632Y0166068D01*
X0166132Y0166568D01*
X0166549Y0167141D01*
X0166870Y0167773D01*
X0167089Y0168446D01*
X0167177Y0169000D01*
X0160200Y0169000D01*
X0160200Y0170000D01*
X0159200Y0170000D01*
X0159200Y0169000D01*
X0160200Y0169000D01*
X0160200Y0165000D01*
X0163054Y0165000D01*
X0163754Y0165111D01*
X0164427Y0165330D01*
X0165963Y0166399D02*
X0264250Y0166399D01*
X0264250Y0167397D02*
X0166679Y0167397D01*
X0167073Y0168396D02*
X0264250Y0168396D01*
X0264250Y0169394D02*
X0160200Y0169394D01*
X0160200Y0170000D02*
X0167177Y0170000D01*
X0167089Y0170554D01*
X0166870Y0171227D01*
X0166549Y0171859D01*
X0166132Y0172432D01*
X0165632Y0172932D01*
X0165059Y0173349D01*
X0164427Y0173670D01*
X0163754Y0173889D01*
X0163054Y0174000D01*
X0160200Y0174000D01*
X0160200Y0170000D01*
X0160200Y0170393D02*
X0159200Y0170393D01*
X0159200Y0171391D02*
X0160200Y0171391D01*
X0160200Y0172390D02*
X0159200Y0172390D01*
X0159200Y0173388D02*
X0160200Y0173388D01*
X0154419Y0173388D02*
X0083918Y0173388D01*
X0085002Y0174387D02*
X0264250Y0174387D01*
X0264250Y0175385D02*
X0085542Y0175385D01*
X0085843Y0176384D02*
X0154018Y0176384D01*
X0153139Y0177382D02*
X0085843Y0177382D01*
X0085577Y0178381D02*
X0152726Y0178381D01*
X0152600Y0179379D02*
X0085087Y0179379D01*
X0084088Y0180378D02*
X0152626Y0180378D01*
X0155338Y0183373D02*
X0083882Y0183373D01*
X0084988Y0184372D02*
X0251221Y0184372D01*
X0251221Y0183373D02*
X0164062Y0183373D01*
X0165623Y0182375D02*
X0251221Y0182375D01*
X0251498Y0181376D02*
X0166361Y0181376D01*
X0166774Y0180378D02*
X0264250Y0180378D01*
X0264250Y0179379D02*
X0166800Y0179379D01*
X0166674Y0178381D02*
X0264250Y0178381D01*
X0264250Y0177382D02*
X0166261Y0177382D01*
X0165382Y0176384D02*
X0264250Y0176384D01*
X0264250Y0173388D02*
X0164981Y0173388D01*
X0166163Y0172390D02*
X0264250Y0172390D01*
X0264250Y0171391D02*
X0166787Y0171391D01*
X0167115Y0170393D02*
X0264250Y0170393D01*
X0264250Y0163403D02*
X0163991Y0163403D01*
X0165594Y0162405D02*
X0264250Y0162405D01*
X0264250Y0161406D02*
X0166348Y0161406D01*
X0166762Y0160408D02*
X0264250Y0160408D01*
X0264250Y0159409D02*
X0166800Y0159409D01*
X0166687Y0158411D02*
X0264250Y0158411D01*
X0264250Y0157412D02*
X0166273Y0157412D01*
X0165412Y0156414D02*
X0264250Y0156414D01*
X0264250Y0155415D02*
X0163552Y0155415D01*
X0155848Y0155415D02*
X0085983Y0155415D01*
X0085913Y0155198D02*
X0086132Y0155871D01*
X0086219Y0156425D01*
X0079243Y0156425D01*
X0079243Y0157425D01*
X0086219Y0157425D01*
X0086132Y0157979D01*
X0085913Y0158653D01*
X0085591Y0159284D01*
X0085175Y0159857D01*
X0084674Y0160358D01*
X0084101Y0160774D01*
X0083470Y0161095D01*
X0082796Y0161314D01*
X0082097Y0161425D01*
X0079242Y0161425D01*
X0079242Y0157425D01*
X0078243Y0157425D01*
X0078243Y0161425D01*
X0075388Y0161425D01*
X0074689Y0161314D01*
X0074015Y0161095D01*
X0073384Y0160774D01*
X0072811Y0160358D01*
X0072310Y0159857D01*
X0071894Y0159284D01*
X0071572Y0158653D01*
X0071353Y0157979D01*
X0071266Y0157425D01*
X0078242Y0157425D01*
X0078242Y0156425D01*
X0071266Y0156425D01*
X0071353Y0155871D01*
X0071572Y0155198D01*
X0071894Y0154567D01*
X0072310Y0153994D01*
X0072811Y0153493D01*
X0073384Y0153076D01*
X0074015Y0152755D01*
X0074689Y0152536D01*
X0075388Y0152425D01*
X0078243Y0152425D01*
X0078243Y0156425D01*
X0079242Y0156425D01*
X0079242Y0152425D01*
X0082097Y0152425D01*
X0082796Y0152536D01*
X0083470Y0152755D01*
X0084101Y0153076D01*
X0084674Y0153493D01*
X0085175Y0153994D01*
X0085591Y0154567D01*
X0085913Y0155198D01*
X0085482Y0154417D02*
X0264250Y0154417D01*
X0264250Y0153418D02*
X0084571Y0153418D01*
X0084013Y0150423D02*
X0264250Y0150423D01*
X0264250Y0151421D02*
X0070400Y0151421D01*
X0070400Y0150423D02*
X0073472Y0150423D01*
X0073420Y0150401D02*
X0072267Y0149248D01*
X0071643Y0147741D01*
X0071643Y0146110D01*
X0072267Y0144603D01*
X0073420Y0143449D01*
X0074927Y0142825D01*
X0082558Y0142825D01*
X0084065Y0143449D01*
X0085218Y0144603D01*
X0085843Y0146110D01*
X0085843Y0147741D01*
X0085218Y0149248D01*
X0084065Y0150401D01*
X0082558Y0151025D01*
X0074927Y0151025D01*
X0073420Y0150401D01*
X0072443Y0149424D02*
X0070400Y0149424D01*
X0070400Y0148426D02*
X0071926Y0148426D01*
X0071643Y0147427D02*
X0070400Y0147427D01*
X0070400Y0146429D02*
X0071643Y0146429D01*
X0071924Y0145430D02*
X0070400Y0145430D01*
X0070400Y0144432D02*
X0072438Y0144432D01*
X0073460Y0143433D02*
X0070400Y0143433D01*
X0070400Y0142434D02*
X0104300Y0142434D01*
X0104300Y0141436D02*
X0070400Y0141436D01*
X0070400Y0140437D02*
X0073508Y0140437D01*
X0073420Y0140401D02*
X0072267Y0139248D01*
X0071643Y0137741D01*
X0071643Y0136110D01*
X0072267Y0134603D01*
X0073420Y0133449D01*
X0074927Y0132825D01*
X0082558Y0132825D01*
X0084065Y0133449D01*
X0085218Y0134603D01*
X0085843Y0136110D01*
X0085843Y0137741D01*
X0085218Y0139248D01*
X0084065Y0140401D01*
X0082558Y0141025D01*
X0074927Y0141025D01*
X0073420Y0140401D01*
X0072458Y0139439D02*
X0070400Y0139439D01*
X0070400Y0138440D02*
X0071932Y0138440D01*
X0071643Y0137442D02*
X0070400Y0137442D01*
X0070400Y0136443D02*
X0071643Y0136443D01*
X0071918Y0135445D02*
X0070400Y0135445D01*
X0070400Y0134446D02*
X0072423Y0134446D01*
X0073424Y0133448D02*
X0070400Y0133448D01*
X0070400Y0132449D02*
X0156097Y0132449D01*
X0156147Y0132500D02*
X0154800Y0131153D01*
X0154800Y0129247D01*
X0156147Y0127900D01*
X0158053Y0127900D01*
X0158753Y0128600D01*
X0175947Y0128600D01*
X0176647Y0127900D01*
X0178553Y0127900D01*
X0179900Y0129247D01*
X0179900Y0131153D01*
X0178553Y0132500D01*
X0176647Y0132500D01*
X0175947Y0131800D01*
X0158753Y0131800D01*
X0158053Y0132500D01*
X0156147Y0132500D01*
X0155098Y0131451D02*
X0070400Y0131451D01*
X0070400Y0130452D02*
X0154800Y0130452D01*
X0154800Y0129454D02*
X0070400Y0129454D01*
X0070400Y0128455D02*
X0155592Y0128455D01*
X0154164Y0127100D02*
X0152800Y0127100D01*
X0152800Y0123100D01*
X0156800Y0123100D01*
X0156800Y0124464D01*
X0154164Y0127100D01*
X0154806Y0126458D02*
X0159794Y0126458D01*
X0160436Y0127100D02*
X0157800Y0124464D01*
X0157800Y0123100D01*
X0161800Y0123100D01*
X0161800Y0127100D01*
X0160436Y0127100D01*
X0161800Y0126458D02*
X0162800Y0126458D01*
X0162800Y0127100D02*
X0162800Y0123100D01*
X0166800Y0123100D01*
X0166800Y0124464D01*
X0164164Y0127100D01*
X0162800Y0127100D01*
X0162800Y0125460D02*
X0161800Y0125460D01*
X0161800Y0124461D02*
X0162800Y0124461D01*
X0162800Y0123463D02*
X0161800Y0123463D01*
X0161800Y0123100D02*
X0162800Y0123100D01*
X0162800Y0122100D01*
X0166800Y0122100D01*
X0166800Y0120736D01*
X0164164Y0118100D01*
X0162800Y0118100D01*
X0162800Y0122100D01*
X0161800Y0122100D01*
X0161800Y0118100D01*
X0160436Y0118100D01*
X0157800Y0120736D01*
X0157800Y0122100D01*
X0161800Y0122100D01*
X0161800Y0123100D01*
X0161800Y0122464D02*
X0152800Y0122464D01*
X0152800Y0122100D02*
X0152800Y0123100D01*
X0151800Y0123100D01*
X0151800Y0127100D01*
X0150436Y0127100D01*
X0147800Y0124464D01*
X0147800Y0123100D01*
X0151800Y0123100D01*
X0151800Y0122100D01*
X0152800Y0122100D01*
X0156800Y0122100D01*
X0156800Y0120736D01*
X0154164Y0118100D01*
X0152800Y0118100D01*
X0152800Y0122100D01*
X0152800Y0121466D02*
X0151800Y0121466D01*
X0151800Y0122100D02*
X0151800Y0118100D01*
X0150436Y0118100D01*
X0147800Y0120736D01*
X0147800Y0122100D01*
X0151800Y0122100D01*
X0151800Y0122464D02*
X0142800Y0122464D01*
X0142800Y0122100D02*
X0142800Y0123100D01*
X0146800Y0123100D01*
X0146800Y0124464D01*
X0144164Y0127100D01*
X0142800Y0127100D01*
X0142800Y0123100D01*
X0141800Y0123100D01*
X0141800Y0127100D01*
X0140436Y0127100D01*
X0137800Y0124464D01*
X0137800Y0123100D01*
X0141800Y0123100D01*
X0141800Y0122100D01*
X0142800Y0122100D01*
X0146800Y0122100D01*
X0146800Y0120736D01*
X0144164Y0118100D01*
X0142800Y0118100D01*
X0142800Y0122100D01*
X0142800Y0121466D02*
X0141800Y0121466D01*
X0141800Y0122100D02*
X0141800Y0118100D01*
X0140436Y0118100D01*
X0137800Y0120736D01*
X0137800Y0122100D01*
X0141800Y0122100D01*
X0141800Y0122464D02*
X0132800Y0122464D01*
X0132800Y0122100D02*
X0132800Y0123100D01*
X0136800Y0123100D01*
X0136800Y0124464D01*
X0134164Y0127100D01*
X0132800Y0127100D01*
X0132800Y0123100D01*
X0131800Y0123100D01*
X0131800Y0127100D01*
X0130436Y0127100D01*
X0127800Y0124464D01*
X0127800Y0123100D01*
X0131800Y0123100D01*
X0131800Y0122100D01*
X0132800Y0122100D01*
X0136800Y0122100D01*
X0136800Y0120736D01*
X0134164Y0118100D01*
X0132800Y0118100D01*
X0132800Y0122100D01*
X0132800Y0121466D02*
X0131800Y0121466D01*
X0131800Y0122100D02*
X0131800Y0118100D01*
X0130436Y0118100D01*
X0127800Y0120736D01*
X0127800Y0122100D01*
X0131800Y0122100D01*
X0131800Y0122464D02*
X0126400Y0122464D01*
X0126400Y0121466D02*
X0127800Y0121466D01*
X0128069Y0120467D02*
X0125966Y0120467D01*
X0126400Y0120902D02*
X0123998Y0118500D01*
X0120602Y0118500D01*
X0118200Y0120902D01*
X0118200Y0124298D01*
X0120602Y0126700D01*
X0123998Y0126700D01*
X0126400Y0124298D01*
X0126400Y0120902D01*
X0124967Y0119469D02*
X0129067Y0119469D01*
X0130066Y0118470D02*
X0091341Y0118470D01*
X0091260Y0118666D02*
X0089066Y0120860D01*
X0086199Y0122047D01*
X0083097Y0122047D01*
X0080230Y0120860D01*
X0078036Y0118666D01*
X0076849Y0115799D01*
X0076849Y0112697D01*
X0078036Y0109830D01*
X0080230Y0107636D01*
X0083097Y0106449D01*
X0086199Y0106449D01*
X0089066Y0107636D01*
X0091260Y0109830D01*
X0092447Y0112697D01*
X0092447Y0115799D01*
X0091260Y0118666D01*
X0090457Y0119469D02*
X0119633Y0119469D01*
X0118634Y0120467D02*
X0089459Y0120467D01*
X0087603Y0121466D02*
X0118200Y0121466D01*
X0118200Y0122464D02*
X0070400Y0122464D01*
X0070400Y0121466D02*
X0081693Y0121466D01*
X0079838Y0120467D02*
X0070400Y0120467D01*
X0070400Y0119469D02*
X0078839Y0119469D01*
X0077955Y0118470D02*
X0070400Y0118470D01*
X0070400Y0117472D02*
X0077542Y0117472D01*
X0077128Y0116473D02*
X0070400Y0116473D01*
X0070400Y0115475D02*
X0076849Y0115475D01*
X0076849Y0114476D02*
X0070400Y0114476D01*
X0070400Y0113478D02*
X0076849Y0113478D01*
X0076939Y0112479D02*
X0070400Y0112479D01*
X0070400Y0111481D02*
X0077352Y0111481D01*
X0077766Y0110482D02*
X0070850Y0110482D01*
X0071849Y0109484D02*
X0078383Y0109484D01*
X0079381Y0108485D02*
X0072847Y0108485D01*
X0073846Y0107487D02*
X0080591Y0107487D01*
X0083002Y0106488D02*
X0074844Y0106488D01*
X0075843Y0105490D02*
X0258808Y0105490D01*
X0259806Y0106488D02*
X0251649Y0106488D01*
X0251554Y0106449D02*
X0254420Y0107636D01*
X0256614Y0109830D01*
X0257802Y0112697D01*
X0257802Y0115799D01*
X0256614Y0118666D01*
X0254420Y0120860D01*
X0251554Y0122047D01*
X0248451Y0122047D01*
X0245584Y0120860D01*
X0243391Y0118666D01*
X0242203Y0115799D01*
X0242203Y0112697D01*
X0243391Y0109830D01*
X0245584Y0107636D01*
X0248451Y0106449D01*
X0251554Y0106449D01*
X0254059Y0107487D02*
X0260805Y0107487D01*
X0261803Y0108485D02*
X0255269Y0108485D01*
X0256268Y0109484D02*
X0262802Y0109484D01*
X0263800Y0110482D02*
X0256884Y0110482D01*
X0257298Y0111481D02*
X0264250Y0111481D01*
X0264250Y0112479D02*
X0257711Y0112479D01*
X0257802Y0113478D02*
X0264250Y0113478D01*
X0264250Y0114476D02*
X0257802Y0114476D01*
X0257802Y0115475D02*
X0264250Y0115475D01*
X0264250Y0116473D02*
X0257522Y0116473D01*
X0257109Y0117472D02*
X0264250Y0117472D01*
X0264250Y0118470D02*
X0256695Y0118470D01*
X0255811Y0119469D02*
X0264250Y0119469D01*
X0264250Y0120467D02*
X0254813Y0120467D01*
X0252958Y0121466D02*
X0264250Y0121466D01*
X0264250Y0122464D02*
X0212800Y0122464D01*
X0212800Y0122100D02*
X0212800Y0123100D01*
X0216800Y0123100D01*
X0216800Y0124464D01*
X0214164Y0127100D01*
X0212800Y0127100D01*
X0212800Y0123100D01*
X0211800Y0123100D01*
X0211800Y0127100D01*
X0210436Y0127100D01*
X0207800Y0124464D01*
X0207800Y0123100D01*
X0211800Y0123100D01*
X0211800Y0122100D01*
X0212800Y0122100D01*
X0216800Y0122100D01*
X0216800Y0120736D01*
X0214164Y0118100D01*
X0212800Y0118100D01*
X0212800Y0122100D01*
X0212800Y0121466D02*
X0211800Y0121466D01*
X0211800Y0122100D02*
X0211800Y0118100D01*
X0210436Y0118100D01*
X0207800Y0120736D01*
X0207800Y0122100D01*
X0211800Y0122100D01*
X0211800Y0122464D02*
X0202800Y0122464D01*
X0202800Y0122100D02*
X0202800Y0123100D01*
X0206800Y0123100D01*
X0206800Y0124464D01*
X0204164Y0127100D01*
X0202800Y0127100D01*
X0202800Y0123100D01*
X0201800Y0123100D01*
X0201800Y0127100D01*
X0200436Y0127100D01*
X0197800Y0124464D01*
X0197800Y0123100D01*
X0201800Y0123100D01*
X0201800Y0122100D01*
X0202800Y0122100D01*
X0206800Y0122100D01*
X0206800Y0120736D01*
X0204164Y0118100D01*
X0202800Y0118100D01*
X0202800Y0122100D01*
X0202800Y0121466D02*
X0201800Y0121466D01*
X0201800Y0122100D02*
X0201800Y0118100D01*
X0200436Y0118100D01*
X0197800Y0120736D01*
X0197800Y0122100D01*
X0201800Y0122100D01*
X0201800Y0122464D02*
X0192800Y0122464D01*
X0192800Y0122100D02*
X0192800Y0123100D01*
X0196800Y0123100D01*
X0196800Y0124464D01*
X0194164Y0127100D01*
X0192800Y0127100D01*
X0192800Y0123100D01*
X0191800Y0123100D01*
X0191800Y0127100D01*
X0190436Y0127100D01*
X0187800Y0124464D01*
X0187800Y0123100D01*
X0191800Y0123100D01*
X0191800Y0122100D01*
X0192800Y0122100D01*
X0196800Y0122100D01*
X0196800Y0120736D01*
X0194164Y0118100D01*
X0192800Y0118100D01*
X0192800Y0122100D01*
X0192800Y0121466D02*
X0191800Y0121466D01*
X0191800Y0122100D02*
X0191800Y0118100D01*
X0190436Y0118100D01*
X0187800Y0120736D01*
X0187800Y0122100D01*
X0191800Y0122100D01*
X0191800Y0122464D02*
X0182800Y0122464D01*
X0182800Y0122100D02*
X0182800Y0123100D01*
X0186800Y0123100D01*
X0186800Y0124464D01*
X0184164Y0127100D01*
X0182800Y0127100D01*
X0182800Y0123100D01*
X0181800Y0123100D01*
X0181800Y0127100D01*
X0180436Y0127100D01*
X0177800Y0124464D01*
X0177800Y0123100D01*
X0181800Y0123100D01*
X0181800Y0122100D01*
X0182800Y0122100D01*
X0186800Y0122100D01*
X0186800Y0120736D01*
X0184164Y0118100D01*
X0182800Y0118100D01*
X0182800Y0122100D01*
X0182800Y0121466D02*
X0181800Y0121466D01*
X0181800Y0122100D02*
X0181800Y0118100D01*
X0180436Y0118100D01*
X0177800Y0120736D01*
X0177800Y0122100D01*
X0181800Y0122100D01*
X0181800Y0122464D02*
X0172800Y0122464D01*
X0172800Y0122100D02*
X0172800Y0123100D01*
X0176800Y0123100D01*
X0176800Y0124464D01*
X0174164Y0127100D01*
X0172800Y0127100D01*
X0172800Y0123100D01*
X0171800Y0123100D01*
X0171800Y0127100D01*
X0170436Y0127100D01*
X0167800Y0124464D01*
X0167800Y0123100D01*
X0171800Y0123100D01*
X0171800Y0122100D01*
X0172800Y0122100D01*
X0176800Y0122100D01*
X0176800Y0120736D01*
X0174164Y0118100D01*
X0172800Y0118100D01*
X0172800Y0122100D01*
X0172800Y0121466D02*
X0171800Y0121466D01*
X0171800Y0122100D02*
X0171800Y0118100D01*
X0170436Y0118100D01*
X0167800Y0120736D01*
X0167800Y0122100D01*
X0171800Y0122100D01*
X0171800Y0122464D02*
X0162800Y0122464D01*
X0162800Y0121466D02*
X0161800Y0121466D01*
X0161800Y0120467D02*
X0162800Y0120467D01*
X0162800Y0119469D02*
X0161800Y0119469D01*
X0161800Y0118470D02*
X0162800Y0118470D01*
X0164534Y0118470D02*
X0170066Y0118470D01*
X0169067Y0119469D02*
X0165533Y0119469D01*
X0166531Y0120467D02*
X0168069Y0120467D01*
X0167800Y0121466D02*
X0166800Y0121466D01*
X0166800Y0123463D02*
X0167800Y0123463D01*
X0167800Y0124461D02*
X0166800Y0124461D01*
X0165804Y0125460D02*
X0168796Y0125460D01*
X0169794Y0126458D02*
X0164806Y0126458D01*
X0158796Y0125460D02*
X0155804Y0125460D01*
X0156800Y0124461D02*
X0157800Y0124461D01*
X0157800Y0123463D02*
X0156800Y0123463D01*
X0156800Y0121466D02*
X0157800Y0121466D01*
X0158069Y0120467D02*
X0156531Y0120467D01*
X0155533Y0119469D02*
X0159067Y0119469D01*
X0160066Y0118470D02*
X0154534Y0118470D01*
X0152800Y0118470D02*
X0151800Y0118470D01*
X0151800Y0119469D02*
X0152800Y0119469D01*
X0152800Y0120467D02*
X0151800Y0120467D01*
X0150066Y0118470D02*
X0144534Y0118470D01*
X0145533Y0119469D02*
X0149067Y0119469D01*
X0148069Y0120467D02*
X0146531Y0120467D01*
X0146800Y0121466D02*
X0147800Y0121466D01*
X0147800Y0123463D02*
X0146800Y0123463D01*
X0146800Y0124461D02*
X0147800Y0124461D01*
X0148796Y0125460D02*
X0145804Y0125460D01*
X0144806Y0126458D02*
X0149794Y0126458D01*
X0151800Y0126458D02*
X0152800Y0126458D01*
X0152800Y0125460D02*
X0151800Y0125460D01*
X0151800Y0124461D02*
X0152800Y0124461D01*
X0152800Y0123463D02*
X0151800Y0123463D01*
X0150602Y0116700D02*
X0148200Y0114298D01*
X0148200Y0110902D01*
X0150602Y0108500D01*
X0153998Y0108500D01*
X0156400Y0110902D01*
X0156400Y0114298D01*
X0153998Y0116700D01*
X0150602Y0116700D01*
X0150375Y0116473D02*
X0144225Y0116473D01*
X0143998Y0116700D02*
X0146400Y0114298D01*
X0146400Y0110902D01*
X0143998Y0108500D01*
X0140602Y0108500D01*
X0138200Y0110902D01*
X0138200Y0114298D01*
X0140602Y0116700D01*
X0143998Y0116700D01*
X0145224Y0115475D02*
X0149376Y0115475D01*
X0148378Y0114476D02*
X0146222Y0114476D01*
X0146400Y0113478D02*
X0148200Y0113478D01*
X0148200Y0112479D02*
X0146400Y0112479D01*
X0146400Y0111481D02*
X0148200Y0111481D01*
X0148620Y0110482D02*
X0145980Y0110482D01*
X0144982Y0109484D02*
X0149618Y0109484D01*
X0154982Y0109484D02*
X0159618Y0109484D01*
X0160602Y0108500D02*
X0163998Y0108500D01*
X0166400Y0110902D01*
X0166400Y0114298D01*
X0163998Y0116700D01*
X0160602Y0116700D01*
X0158200Y0114298D01*
X0158200Y0110902D01*
X0160602Y0108500D01*
X0158620Y0110482D02*
X0155980Y0110482D01*
X0156400Y0111481D02*
X0158200Y0111481D01*
X0158200Y0112479D02*
X0156400Y0112479D01*
X0156400Y0113478D02*
X0158200Y0113478D01*
X0158378Y0114476D02*
X0156222Y0114476D01*
X0155224Y0115475D02*
X0159376Y0115475D01*
X0160375Y0116473D02*
X0154225Y0116473D01*
X0164225Y0116473D02*
X0169809Y0116473D01*
X0170436Y0117100D02*
X0167800Y0114464D01*
X0167800Y0113100D01*
X0171800Y0113100D01*
X0171800Y0117100D01*
X0170436Y0117100D01*
X0171800Y0116473D02*
X0172800Y0116473D01*
X0172800Y0117100D02*
X0172800Y0113100D01*
X0176800Y0113100D01*
X0176800Y0114464D01*
X0174164Y0117100D01*
X0172800Y0117100D01*
X0172800Y0118470D02*
X0171800Y0118470D01*
X0171800Y0119469D02*
X0172800Y0119469D01*
X0172800Y0120467D02*
X0171800Y0120467D01*
X0171800Y0123463D02*
X0172800Y0123463D01*
X0172800Y0124461D02*
X0171800Y0124461D01*
X0171800Y0125460D02*
X0172800Y0125460D01*
X0172800Y0126458D02*
X0171800Y0126458D01*
X0174806Y0126458D02*
X0179794Y0126458D01*
X0178796Y0125460D02*
X0175804Y0125460D01*
X0176800Y0124461D02*
X0177800Y0124461D01*
X0177800Y0123463D02*
X0176800Y0123463D01*
X0176800Y0121466D02*
X0177800Y0121466D01*
X0178069Y0120467D02*
X0176531Y0120467D01*
X0175533Y0119469D02*
X0179067Y0119469D01*
X0180066Y0118470D02*
X0174534Y0118470D01*
X0174791Y0116473D02*
X0180375Y0116473D01*
X0180602Y0116700D02*
X0178200Y0114298D01*
X0178200Y0110902D01*
X0180602Y0108500D01*
X0183998Y0108500D01*
X0186400Y0110902D01*
X0186400Y0114298D01*
X0183998Y0116700D01*
X0180602Y0116700D01*
X0179376Y0115475D02*
X0175789Y0115475D01*
X0176788Y0114476D02*
X0178378Y0114476D01*
X0178200Y0113478D02*
X0176800Y0113478D01*
X0176800Y0112100D02*
X0172800Y0112100D01*
X0172800Y0113100D01*
X0171800Y0113100D01*
X0171800Y0112100D01*
X0172800Y0112100D01*
X0172800Y0108100D01*
X0174164Y0108100D01*
X0176800Y0110736D01*
X0176800Y0112100D01*
X0176800Y0111481D02*
X0178200Y0111481D01*
X0178200Y0112479D02*
X0172800Y0112479D01*
X0172800Y0111481D02*
X0171800Y0111481D01*
X0171800Y0112100D02*
X0171800Y0108100D01*
X0170436Y0108100D01*
X0167800Y0110736D01*
X0167800Y0112100D01*
X0171800Y0112100D01*
X0171800Y0112479D02*
X0166400Y0112479D01*
X0166400Y0111481D02*
X0167800Y0111481D01*
X0168054Y0110482D02*
X0165980Y0110482D01*
X0164982Y0109484D02*
X0169052Y0109484D01*
X0170051Y0108485D02*
X0089915Y0108485D01*
X0090913Y0109484D02*
X0119618Y0109484D01*
X0120602Y0108500D02*
X0118200Y0110902D01*
X0118200Y0114298D01*
X0120602Y0116700D01*
X0123998Y0116700D01*
X0126400Y0114298D01*
X0126400Y0110902D01*
X0123998Y0108500D01*
X0120602Y0108500D01*
X0118620Y0110482D02*
X0091530Y0110482D01*
X0091944Y0111481D02*
X0118200Y0111481D01*
X0118200Y0112479D02*
X0092357Y0112479D01*
X0092447Y0113478D02*
X0118200Y0113478D01*
X0118378Y0114476D02*
X0092447Y0114476D01*
X0092447Y0115475D02*
X0119376Y0115475D01*
X0120375Y0116473D02*
X0092168Y0116473D01*
X0091755Y0117472D02*
X0218500Y0117472D01*
X0218500Y0118253D02*
X0218500Y0116347D01*
X0219847Y0115000D01*
X0221753Y0115000D01*
X0222453Y0115700D01*
X0229847Y0115700D01*
X0230547Y0115000D01*
X0232453Y0115000D01*
X0233800Y0116347D01*
X0233800Y0118253D01*
X0232453Y0119600D01*
X0230547Y0119600D01*
X0229847Y0118900D01*
X0222453Y0118900D01*
X0221753Y0119600D01*
X0219847Y0119600D01*
X0218500Y0118253D01*
X0218718Y0118470D02*
X0214534Y0118470D01*
X0215533Y0119469D02*
X0219716Y0119469D01*
X0221884Y0119469D02*
X0230416Y0119469D01*
X0232584Y0119469D02*
X0244193Y0119469D01*
X0243309Y0118470D02*
X0233582Y0118470D01*
X0233800Y0117472D02*
X0242896Y0117472D01*
X0242482Y0116473D02*
X0233800Y0116473D01*
X0232927Y0115475D02*
X0242203Y0115475D01*
X0242203Y0114476D02*
X0216222Y0114476D01*
X0216400Y0114298D02*
X0213998Y0116700D01*
X0210602Y0116700D01*
X0208200Y0114298D01*
X0208200Y0110902D01*
X0210602Y0108500D01*
X0213998Y0108500D01*
X0216400Y0110902D01*
X0216400Y0114298D01*
X0216400Y0113478D02*
X0242203Y0113478D01*
X0242293Y0112479D02*
X0216400Y0112479D01*
X0216400Y0111481D02*
X0242707Y0111481D01*
X0243120Y0110482D02*
X0215980Y0110482D01*
X0214982Y0109484D02*
X0243737Y0109484D01*
X0244736Y0108485D02*
X0174549Y0108485D01*
X0175548Y0109484D02*
X0179618Y0109484D01*
X0178620Y0110482D02*
X0176546Y0110482D01*
X0172800Y0110482D02*
X0171800Y0110482D01*
X0171800Y0109484D02*
X0172800Y0109484D01*
X0172800Y0108485D02*
X0171800Y0108485D01*
X0171800Y0113478D02*
X0172800Y0113478D01*
X0172800Y0114476D02*
X0171800Y0114476D01*
X0171800Y0115475D02*
X0172800Y0115475D01*
X0168811Y0115475D02*
X0165224Y0115475D01*
X0166222Y0114476D02*
X0167812Y0114476D01*
X0167800Y0113478D02*
X0166400Y0113478D01*
X0158608Y0128455D02*
X0176092Y0128455D01*
X0177600Y0130200D02*
X0157100Y0130200D01*
X0158103Y0132449D02*
X0176597Y0132449D01*
X0178603Y0132449D02*
X0264250Y0132449D01*
X0264250Y0131451D02*
X0179602Y0131451D01*
X0179900Y0130452D02*
X0264250Y0130452D01*
X0264250Y0129454D02*
X0179900Y0129454D01*
X0179108Y0128455D02*
X0264250Y0128455D01*
X0264250Y0127457D02*
X0070400Y0127457D01*
X0070400Y0126458D02*
X0120360Y0126458D01*
X0119362Y0125460D02*
X0070400Y0125460D01*
X0070400Y0124461D02*
X0118363Y0124461D01*
X0118200Y0123463D02*
X0070400Y0123463D01*
X0084061Y0133448D02*
X0264250Y0133448D01*
X0264250Y0134446D02*
X0085062Y0134446D01*
X0085567Y0135445D02*
X0106057Y0135445D01*
X0106078Y0135424D02*
X0107584Y0134800D01*
X0109216Y0134800D01*
X0110722Y0135424D01*
X0111876Y0136578D01*
X0112500Y0138084D01*
X0112500Y0145716D01*
X0111876Y0147222D01*
X0110722Y0148376D01*
X0109216Y0149000D01*
X0107584Y0149000D01*
X0106078Y0148376D01*
X0104924Y0147222D01*
X0104300Y0145716D01*
X0104300Y0138084D01*
X0104924Y0136578D01*
X0106078Y0135424D01*
X0105058Y0136443D02*
X0085843Y0136443D01*
X0085843Y0137442D02*
X0104566Y0137442D01*
X0104300Y0138440D02*
X0085553Y0138440D01*
X0085027Y0139439D02*
X0104300Y0139439D01*
X0104300Y0140437D02*
X0083977Y0140437D01*
X0084025Y0143433D02*
X0104300Y0143433D01*
X0104300Y0144432D02*
X0085047Y0144432D01*
X0085561Y0145430D02*
X0104300Y0145430D01*
X0104595Y0146429D02*
X0085843Y0146429D01*
X0085843Y0147427D02*
X0105129Y0147427D01*
X0106198Y0148426D02*
X0085559Y0148426D01*
X0085042Y0149424D02*
X0264250Y0149424D01*
X0264250Y0148426D02*
X0120602Y0148426D01*
X0120722Y0148376D02*
X0119216Y0149000D01*
X0117584Y0149000D01*
X0116078Y0148376D01*
X0114924Y0147222D01*
X0114300Y0145716D01*
X0114300Y0138084D01*
X0114924Y0136578D01*
X0116078Y0135424D01*
X0117584Y0134800D01*
X0119216Y0134800D01*
X0120722Y0135424D01*
X0121876Y0136578D01*
X0122500Y0138084D01*
X0122500Y0145716D01*
X0121876Y0147222D01*
X0120722Y0148376D01*
X0121671Y0147427D02*
X0264250Y0147427D01*
X0264250Y0146429D02*
X0122205Y0146429D01*
X0122500Y0145430D02*
X0264250Y0145430D01*
X0264250Y0144432D02*
X0122500Y0144432D01*
X0122500Y0143433D02*
X0264250Y0143433D01*
X0264250Y0142434D02*
X0122500Y0142434D01*
X0122500Y0141436D02*
X0264250Y0141436D01*
X0264250Y0140437D02*
X0122500Y0140437D01*
X0122500Y0139439D02*
X0264250Y0139439D01*
X0264250Y0138440D02*
X0122500Y0138440D01*
X0122234Y0137442D02*
X0264250Y0137442D01*
X0264250Y0136443D02*
X0121742Y0136443D01*
X0120743Y0135445D02*
X0264250Y0135445D01*
X0264250Y0126458D02*
X0214806Y0126458D01*
X0215804Y0125460D02*
X0264250Y0125460D01*
X0264250Y0124461D02*
X0216800Y0124461D01*
X0216800Y0123463D02*
X0264250Y0123463D01*
X0247047Y0121466D02*
X0216800Y0121466D01*
X0216531Y0120467D02*
X0245192Y0120467D01*
X0245946Y0107487D02*
X0088705Y0107487D01*
X0086294Y0106488D02*
X0248356Y0106488D01*
X0253815Y0100497D02*
X0080835Y0100497D01*
X0079837Y0101496D02*
X0254814Y0101496D01*
X0255812Y0102494D02*
X0078838Y0102494D01*
X0077840Y0103493D02*
X0256811Y0103493D01*
X0257809Y0104491D02*
X0076841Y0104491D01*
X0110743Y0135445D02*
X0116057Y0135445D01*
X0115058Y0136443D02*
X0111742Y0136443D01*
X0112234Y0137442D02*
X0114566Y0137442D01*
X0114300Y0138440D02*
X0112500Y0138440D01*
X0112500Y0139439D02*
X0114300Y0139439D01*
X0114300Y0140437D02*
X0112500Y0140437D01*
X0112500Y0141436D02*
X0114300Y0141436D01*
X0114300Y0142434D02*
X0112500Y0142434D01*
X0112500Y0143433D02*
X0114300Y0143433D01*
X0114300Y0144432D02*
X0112500Y0144432D01*
X0112500Y0145430D02*
X0114300Y0145430D01*
X0114595Y0146429D02*
X0112205Y0146429D01*
X0111671Y0147427D02*
X0115129Y0147427D01*
X0116198Y0148426D02*
X0110602Y0148426D01*
X0124240Y0126458D02*
X0129794Y0126458D01*
X0128796Y0125460D02*
X0125238Y0125460D01*
X0126237Y0124461D02*
X0127800Y0124461D01*
X0127800Y0123463D02*
X0126400Y0123463D01*
X0131800Y0123463D02*
X0132800Y0123463D01*
X0132800Y0124461D02*
X0131800Y0124461D01*
X0131800Y0125460D02*
X0132800Y0125460D01*
X0132800Y0126458D02*
X0131800Y0126458D01*
X0134806Y0126458D02*
X0139794Y0126458D01*
X0138796Y0125460D02*
X0135804Y0125460D01*
X0136800Y0124461D02*
X0137800Y0124461D01*
X0137800Y0123463D02*
X0136800Y0123463D01*
X0136800Y0121466D02*
X0137800Y0121466D01*
X0138069Y0120467D02*
X0136531Y0120467D01*
X0135533Y0119469D02*
X0139067Y0119469D01*
X0140066Y0118470D02*
X0134534Y0118470D01*
X0132800Y0118470D02*
X0131800Y0118470D01*
X0131800Y0119469D02*
X0132800Y0119469D01*
X0132800Y0120467D02*
X0131800Y0120467D01*
X0130602Y0116700D02*
X0128200Y0114298D01*
X0128200Y0110902D01*
X0130602Y0108500D01*
X0133998Y0108500D01*
X0136400Y0110902D01*
X0136400Y0114298D01*
X0133998Y0116700D01*
X0130602Y0116700D01*
X0130375Y0116473D02*
X0124225Y0116473D01*
X0125224Y0115475D02*
X0129376Y0115475D01*
X0128378Y0114476D02*
X0126222Y0114476D01*
X0126400Y0113478D02*
X0128200Y0113478D01*
X0128200Y0112479D02*
X0126400Y0112479D01*
X0126400Y0111481D02*
X0128200Y0111481D01*
X0128620Y0110482D02*
X0125980Y0110482D01*
X0124982Y0109484D02*
X0129618Y0109484D01*
X0134982Y0109484D02*
X0139618Y0109484D01*
X0138620Y0110482D02*
X0135980Y0110482D01*
X0136400Y0111481D02*
X0138200Y0111481D01*
X0138200Y0112479D02*
X0136400Y0112479D01*
X0136400Y0113478D02*
X0138200Y0113478D01*
X0138378Y0114476D02*
X0136222Y0114476D01*
X0135224Y0115475D02*
X0139376Y0115475D01*
X0140375Y0116473D02*
X0134225Y0116473D01*
X0141800Y0118470D02*
X0142800Y0118470D01*
X0142800Y0119469D02*
X0141800Y0119469D01*
X0141800Y0120467D02*
X0142800Y0120467D01*
X0142800Y0123463D02*
X0141800Y0123463D01*
X0141800Y0124461D02*
X0142800Y0124461D01*
X0142800Y0125460D02*
X0141800Y0125460D01*
X0141800Y0126458D02*
X0142800Y0126458D01*
X0153988Y0156414D02*
X0086218Y0156414D01*
X0085991Y0158411D02*
X0152713Y0158411D01*
X0152600Y0159409D02*
X0085500Y0159409D01*
X0084605Y0160408D02*
X0152638Y0160408D01*
X0153052Y0161406D02*
X0082216Y0161406D01*
X0079242Y0161406D02*
X0078243Y0161406D01*
X0078243Y0160408D02*
X0079242Y0160408D01*
X0079242Y0159409D02*
X0078243Y0159409D01*
X0078243Y0158411D02*
X0079242Y0158411D01*
X0079243Y0157412D02*
X0153127Y0157412D01*
X0155646Y0165111D02*
X0156346Y0165000D01*
X0159200Y0165000D01*
X0159200Y0169000D01*
X0152223Y0169000D01*
X0152311Y0168446D01*
X0152530Y0167773D01*
X0152851Y0167141D01*
X0153268Y0166568D01*
X0153768Y0166068D01*
X0154341Y0165651D01*
X0154973Y0165330D01*
X0155646Y0165111D01*
X0154834Y0165400D02*
X0085549Y0165400D01*
X0085843Y0166399D02*
X0153437Y0166399D01*
X0152721Y0167397D02*
X0085843Y0167397D01*
X0085571Y0168396D02*
X0152327Y0168396D01*
X0152285Y0170393D02*
X0084073Y0170393D01*
X0085072Y0169394D02*
X0159200Y0169394D01*
X0159200Y0168396D02*
X0160200Y0168396D01*
X0160200Y0167397D02*
X0159200Y0167397D01*
X0159200Y0166399D02*
X0160200Y0166399D01*
X0160200Y0165400D02*
X0159200Y0165400D01*
X0165445Y0201347D02*
X0251221Y0201347D01*
X0251221Y0202345D02*
X0166345Y0202345D01*
X0166759Y0203344D02*
X0251221Y0203344D01*
X0251221Y0204342D02*
X0166900Y0204342D01*
X0166890Y0205341D02*
X0251221Y0205341D01*
X0251221Y0206339D02*
X0166476Y0206339D01*
X0165761Y0207338D02*
X0251221Y0207338D01*
X0251221Y0208336D02*
X0164252Y0208336D01*
X0164534Y0210333D02*
X0251221Y0210333D01*
X0251221Y0209335D02*
X0085131Y0209335D01*
X0085596Y0208336D02*
X0155348Y0208336D01*
X0153839Y0207338D02*
X0085843Y0207338D01*
X0085843Y0206339D02*
X0153124Y0206339D01*
X0152710Y0205341D02*
X0085524Y0205341D01*
X0084958Y0204342D02*
X0152700Y0204342D01*
X0152841Y0203344D02*
X0083810Y0203344D01*
X0084133Y0210333D02*
X0155066Y0210333D01*
X0153604Y0211332D02*
X0070400Y0211332D01*
X0070400Y0212330D02*
X0152855Y0212330D01*
X0152449Y0213329D02*
X0084448Y0213329D01*
X0073747Y0223314D02*
X0070400Y0223314D01*
X0070400Y0224312D02*
X0072557Y0224312D01*
X0071973Y0225311D02*
X0070400Y0225311D01*
X0070400Y0226309D02*
X0071643Y0226309D01*
X0071643Y0227308D02*
X0070400Y0227308D01*
X0070400Y0228306D02*
X0071877Y0228306D01*
X0072324Y0229305D02*
X0070400Y0229305D01*
X0070400Y0230303D02*
X0073323Y0230303D01*
X0073783Y0233299D02*
X0070400Y0233299D01*
X0070400Y0234298D02*
X0072572Y0234298D01*
X0071980Y0235296D02*
X0070400Y0235296D01*
X0070400Y0236295D02*
X0071643Y0236295D01*
X0071643Y0237293D02*
X0070400Y0237293D01*
X0070400Y0238292D02*
X0071871Y0238292D01*
X0072309Y0239290D02*
X0070400Y0239290D01*
X0070400Y0240289D02*
X0073308Y0240289D01*
X0071282Y0216324D02*
X0070400Y0216324D01*
X0070400Y0215326D02*
X0071531Y0215326D01*
X0072068Y0214327D02*
X0070400Y0214327D01*
X0070400Y0213329D02*
X0073037Y0213329D01*
X0075269Y0161406D02*
X0070400Y0161406D01*
X0070400Y0160408D02*
X0072880Y0160408D01*
X0071985Y0159409D02*
X0070400Y0159409D01*
X0070400Y0158411D02*
X0071494Y0158411D01*
X0070400Y0157412D02*
X0078242Y0157412D01*
X0078243Y0156414D02*
X0079242Y0156414D01*
X0079242Y0155415D02*
X0078243Y0155415D01*
X0078243Y0154417D02*
X0079242Y0154417D01*
X0079242Y0153418D02*
X0078243Y0153418D01*
X0072914Y0153418D02*
X0070400Y0153418D01*
X0070400Y0152420D02*
X0264250Y0152420D01*
X0231500Y0117300D02*
X0220800Y0117300D01*
X0219373Y0115475D02*
X0215224Y0115475D01*
X0214225Y0116473D02*
X0218500Y0116473D01*
X0222227Y0115475D02*
X0230073Y0115475D01*
X0212800Y0118470D02*
X0211800Y0118470D01*
X0211800Y0119469D02*
X0212800Y0119469D01*
X0212800Y0120467D02*
X0211800Y0120467D01*
X0210066Y0118470D02*
X0204534Y0118470D01*
X0205533Y0119469D02*
X0209067Y0119469D01*
X0208069Y0120467D02*
X0206531Y0120467D01*
X0206800Y0121466D02*
X0207800Y0121466D01*
X0207800Y0123463D02*
X0206800Y0123463D01*
X0206800Y0124461D02*
X0207800Y0124461D01*
X0208796Y0125460D02*
X0205804Y0125460D01*
X0204806Y0126458D02*
X0209794Y0126458D01*
X0211800Y0126458D02*
X0212800Y0126458D01*
X0212800Y0125460D02*
X0211800Y0125460D01*
X0211800Y0124461D02*
X0212800Y0124461D01*
X0212800Y0123463D02*
X0211800Y0123463D01*
X0210375Y0116473D02*
X0204225Y0116473D01*
X0203998Y0116700D02*
X0200602Y0116700D01*
X0198200Y0114298D01*
X0198200Y0110902D01*
X0200602Y0108500D01*
X0203998Y0108500D01*
X0206400Y0110902D01*
X0206400Y0114298D01*
X0203998Y0116700D01*
X0205224Y0115475D02*
X0209376Y0115475D01*
X0208378Y0114476D02*
X0206222Y0114476D01*
X0206400Y0113478D02*
X0208200Y0113478D01*
X0208200Y0112479D02*
X0206400Y0112479D01*
X0206400Y0111481D02*
X0208200Y0111481D01*
X0208620Y0110482D02*
X0205980Y0110482D01*
X0204982Y0109484D02*
X0209618Y0109484D01*
X0199618Y0109484D02*
X0194982Y0109484D01*
X0193998Y0108500D02*
X0196400Y0110902D01*
X0196400Y0114298D01*
X0193998Y0116700D01*
X0190602Y0116700D01*
X0188200Y0114298D01*
X0188200Y0110902D01*
X0190602Y0108500D01*
X0193998Y0108500D01*
X0195980Y0110482D02*
X0198620Y0110482D01*
X0198200Y0111481D02*
X0196400Y0111481D01*
X0196400Y0112479D02*
X0198200Y0112479D01*
X0198200Y0113478D02*
X0196400Y0113478D01*
X0196222Y0114476D02*
X0198378Y0114476D01*
X0199376Y0115475D02*
X0195224Y0115475D01*
X0194225Y0116473D02*
X0200375Y0116473D01*
X0200066Y0118470D02*
X0194534Y0118470D01*
X0195533Y0119469D02*
X0199067Y0119469D01*
X0198069Y0120467D02*
X0196531Y0120467D01*
X0196800Y0121466D02*
X0197800Y0121466D01*
X0197800Y0123463D02*
X0196800Y0123463D01*
X0196800Y0124461D02*
X0197800Y0124461D01*
X0198796Y0125460D02*
X0195804Y0125460D01*
X0194806Y0126458D02*
X0199794Y0126458D01*
X0201800Y0126458D02*
X0202800Y0126458D01*
X0202800Y0125460D02*
X0201800Y0125460D01*
X0201800Y0124461D02*
X0202800Y0124461D01*
X0202800Y0123463D02*
X0201800Y0123463D01*
X0201800Y0120467D02*
X0202800Y0120467D01*
X0202800Y0119469D02*
X0201800Y0119469D01*
X0201800Y0118470D02*
X0202800Y0118470D01*
X0192800Y0118470D02*
X0191800Y0118470D01*
X0191800Y0119469D02*
X0192800Y0119469D01*
X0192800Y0120467D02*
X0191800Y0120467D01*
X0190066Y0118470D02*
X0184534Y0118470D01*
X0185533Y0119469D02*
X0189067Y0119469D01*
X0188069Y0120467D02*
X0186531Y0120467D01*
X0186800Y0121466D02*
X0187800Y0121466D01*
X0187800Y0123463D02*
X0186800Y0123463D01*
X0186800Y0124461D02*
X0187800Y0124461D01*
X0188796Y0125460D02*
X0185804Y0125460D01*
X0184806Y0126458D02*
X0189794Y0126458D01*
X0191800Y0126458D02*
X0192800Y0126458D01*
X0192800Y0125460D02*
X0191800Y0125460D01*
X0191800Y0124461D02*
X0192800Y0124461D01*
X0192800Y0123463D02*
X0191800Y0123463D01*
X0190375Y0116473D02*
X0184225Y0116473D01*
X0185224Y0115475D02*
X0189376Y0115475D01*
X0188378Y0114476D02*
X0186222Y0114476D01*
X0186400Y0113478D02*
X0188200Y0113478D01*
X0188200Y0112479D02*
X0186400Y0112479D01*
X0186400Y0111481D02*
X0188200Y0111481D01*
X0188620Y0110482D02*
X0185980Y0110482D01*
X0184982Y0109484D02*
X0189618Y0109484D01*
X0182800Y0118470D02*
X0181800Y0118470D01*
X0181800Y0119469D02*
X0182800Y0119469D01*
X0182800Y0120467D02*
X0181800Y0120467D01*
X0181800Y0123463D02*
X0182800Y0123463D01*
X0182800Y0124461D02*
X0181800Y0124461D01*
X0181800Y0125460D02*
X0182800Y0125460D01*
X0182800Y0126458D02*
X0181800Y0126458D01*
X0165996Y0211332D02*
X0251221Y0211332D01*
X0251355Y0212330D02*
X0166745Y0212330D01*
X0167151Y0213329D02*
X0264250Y0213329D01*
X0160300Y0212330D02*
X0159300Y0212330D01*
X0159300Y0211332D02*
X0160300Y0211332D01*
X0160300Y0210333D02*
X0159300Y0210333D01*
X0159300Y0215326D02*
X0160300Y0215326D01*
X0160300Y0216324D02*
X0159300Y0216324D01*
X0159300Y0217323D02*
X0160300Y0217323D01*
X0160300Y0218321D02*
X0159300Y0218321D01*
X0071267Y0156414D02*
X0070400Y0156414D01*
X0070400Y0155415D02*
X0071502Y0155415D01*
X0072003Y0154417D02*
X0070400Y0154417D01*
D15*
X0205000Y0172800D03*
X0205000Y0176800D03*
X0207900Y0166300D03*
X0211900Y0166300D03*
X0246700Y0184300D03*
X0246700Y0197700D03*
X0246700Y0209800D03*
X0262400Y0227300D03*
X0262400Y0231300D03*
X0212400Y0227500D03*
X0208400Y0227500D03*
X0205200Y0221200D03*
X0205200Y0217200D03*
X0262300Y0166600D03*
X0262300Y0162600D03*
D16*
X0231500Y0117300D03*
X0220800Y0117300D03*
X0177600Y0130200D03*
X0157100Y0130200D03*
M02*
