G75*
%MOIN*%
%OFA0B0*%
%FSLAX25Y25*%
%IPPOS*%
%LPD*%
%AMOC8*
5,1,8,0,0,1.08239X$1,22.5*
%
%ADD10OC8,0.06400*%
%ADD11C,0.00000*%
%ADD12C,0.12998*%
%ADD13C,0.06400*%
%ADD14R,0.02900X0.05400*%
%ADD15C,0.03550*%
%ADD16R,0.03550X0.03550*%
%ADD17R,0.04731X0.04337*%
%ADD18C,0.06337*%
D10*
X0122300Y0112600D03*
X0122300Y0122600D03*
X0132300Y0122600D03*
X0132300Y0112600D03*
X0142300Y0112600D03*
X0142300Y0122600D03*
X0152300Y0122600D03*
X0152300Y0112600D03*
X0162300Y0112600D03*
X0162300Y0122600D03*
X0172300Y0122600D03*
X0172300Y0112600D03*
X0182300Y0112600D03*
X0182300Y0122600D03*
X0192300Y0122600D03*
X0192300Y0112600D03*
X0202300Y0112600D03*
X0202300Y0122600D03*
X0212300Y0122600D03*
X0212300Y0112600D03*
D11*
X0080711Y0098500D02*
X0068900Y0110311D01*
X0068900Y0283539D01*
X0080711Y0295350D01*
X0253939Y0295350D01*
X0265750Y0283539D01*
X0265750Y0110311D01*
X0253939Y0098500D01*
X0080711Y0098500D01*
X0078349Y0114248D02*
X0078351Y0114406D01*
X0078357Y0114564D01*
X0078367Y0114722D01*
X0078381Y0114880D01*
X0078399Y0115037D01*
X0078420Y0115194D01*
X0078446Y0115350D01*
X0078476Y0115506D01*
X0078509Y0115661D01*
X0078547Y0115814D01*
X0078588Y0115967D01*
X0078633Y0116119D01*
X0078682Y0116270D01*
X0078735Y0116419D01*
X0078791Y0116567D01*
X0078851Y0116713D01*
X0078915Y0116858D01*
X0078983Y0117001D01*
X0079054Y0117143D01*
X0079128Y0117283D01*
X0079206Y0117420D01*
X0079288Y0117556D01*
X0079372Y0117690D01*
X0079461Y0117821D01*
X0079552Y0117950D01*
X0079647Y0118077D01*
X0079744Y0118202D01*
X0079845Y0118324D01*
X0079949Y0118443D01*
X0080056Y0118560D01*
X0080166Y0118674D01*
X0080279Y0118785D01*
X0080394Y0118894D01*
X0080512Y0118999D01*
X0080633Y0119101D01*
X0080756Y0119201D01*
X0080882Y0119297D01*
X0081010Y0119390D01*
X0081140Y0119480D01*
X0081273Y0119566D01*
X0081408Y0119650D01*
X0081544Y0119729D01*
X0081683Y0119806D01*
X0081824Y0119878D01*
X0081966Y0119948D01*
X0082110Y0120013D01*
X0082256Y0120075D01*
X0082403Y0120133D01*
X0082552Y0120188D01*
X0082702Y0120239D01*
X0082853Y0120286D01*
X0083005Y0120329D01*
X0083158Y0120368D01*
X0083313Y0120404D01*
X0083468Y0120435D01*
X0083624Y0120463D01*
X0083780Y0120487D01*
X0083937Y0120507D01*
X0084095Y0120523D01*
X0084252Y0120535D01*
X0084411Y0120543D01*
X0084569Y0120547D01*
X0084727Y0120547D01*
X0084885Y0120543D01*
X0085044Y0120535D01*
X0085201Y0120523D01*
X0085359Y0120507D01*
X0085516Y0120487D01*
X0085672Y0120463D01*
X0085828Y0120435D01*
X0085983Y0120404D01*
X0086138Y0120368D01*
X0086291Y0120329D01*
X0086443Y0120286D01*
X0086594Y0120239D01*
X0086744Y0120188D01*
X0086893Y0120133D01*
X0087040Y0120075D01*
X0087186Y0120013D01*
X0087330Y0119948D01*
X0087472Y0119878D01*
X0087613Y0119806D01*
X0087752Y0119729D01*
X0087888Y0119650D01*
X0088023Y0119566D01*
X0088156Y0119480D01*
X0088286Y0119390D01*
X0088414Y0119297D01*
X0088540Y0119201D01*
X0088663Y0119101D01*
X0088784Y0118999D01*
X0088902Y0118894D01*
X0089017Y0118785D01*
X0089130Y0118674D01*
X0089240Y0118560D01*
X0089347Y0118443D01*
X0089451Y0118324D01*
X0089552Y0118202D01*
X0089649Y0118077D01*
X0089744Y0117950D01*
X0089835Y0117821D01*
X0089924Y0117690D01*
X0090008Y0117556D01*
X0090090Y0117420D01*
X0090168Y0117283D01*
X0090242Y0117143D01*
X0090313Y0117001D01*
X0090381Y0116858D01*
X0090445Y0116713D01*
X0090505Y0116567D01*
X0090561Y0116419D01*
X0090614Y0116270D01*
X0090663Y0116119D01*
X0090708Y0115967D01*
X0090749Y0115814D01*
X0090787Y0115661D01*
X0090820Y0115506D01*
X0090850Y0115350D01*
X0090876Y0115194D01*
X0090897Y0115037D01*
X0090915Y0114880D01*
X0090929Y0114722D01*
X0090939Y0114564D01*
X0090945Y0114406D01*
X0090947Y0114248D01*
X0090945Y0114090D01*
X0090939Y0113932D01*
X0090929Y0113774D01*
X0090915Y0113616D01*
X0090897Y0113459D01*
X0090876Y0113302D01*
X0090850Y0113146D01*
X0090820Y0112990D01*
X0090787Y0112835D01*
X0090749Y0112682D01*
X0090708Y0112529D01*
X0090663Y0112377D01*
X0090614Y0112226D01*
X0090561Y0112077D01*
X0090505Y0111929D01*
X0090445Y0111783D01*
X0090381Y0111638D01*
X0090313Y0111495D01*
X0090242Y0111353D01*
X0090168Y0111213D01*
X0090090Y0111076D01*
X0090008Y0110940D01*
X0089924Y0110806D01*
X0089835Y0110675D01*
X0089744Y0110546D01*
X0089649Y0110419D01*
X0089552Y0110294D01*
X0089451Y0110172D01*
X0089347Y0110053D01*
X0089240Y0109936D01*
X0089130Y0109822D01*
X0089017Y0109711D01*
X0088902Y0109602D01*
X0088784Y0109497D01*
X0088663Y0109395D01*
X0088540Y0109295D01*
X0088414Y0109199D01*
X0088286Y0109106D01*
X0088156Y0109016D01*
X0088023Y0108930D01*
X0087888Y0108846D01*
X0087752Y0108767D01*
X0087613Y0108690D01*
X0087472Y0108618D01*
X0087330Y0108548D01*
X0087186Y0108483D01*
X0087040Y0108421D01*
X0086893Y0108363D01*
X0086744Y0108308D01*
X0086594Y0108257D01*
X0086443Y0108210D01*
X0086291Y0108167D01*
X0086138Y0108128D01*
X0085983Y0108092D01*
X0085828Y0108061D01*
X0085672Y0108033D01*
X0085516Y0108009D01*
X0085359Y0107989D01*
X0085201Y0107973D01*
X0085044Y0107961D01*
X0084885Y0107953D01*
X0084727Y0107949D01*
X0084569Y0107949D01*
X0084411Y0107953D01*
X0084252Y0107961D01*
X0084095Y0107973D01*
X0083937Y0107989D01*
X0083780Y0108009D01*
X0083624Y0108033D01*
X0083468Y0108061D01*
X0083313Y0108092D01*
X0083158Y0108128D01*
X0083005Y0108167D01*
X0082853Y0108210D01*
X0082702Y0108257D01*
X0082552Y0108308D01*
X0082403Y0108363D01*
X0082256Y0108421D01*
X0082110Y0108483D01*
X0081966Y0108548D01*
X0081824Y0108618D01*
X0081683Y0108690D01*
X0081544Y0108767D01*
X0081408Y0108846D01*
X0081273Y0108930D01*
X0081140Y0109016D01*
X0081010Y0109106D01*
X0080882Y0109199D01*
X0080756Y0109295D01*
X0080633Y0109395D01*
X0080512Y0109497D01*
X0080394Y0109602D01*
X0080279Y0109711D01*
X0080166Y0109822D01*
X0080056Y0109936D01*
X0079949Y0110053D01*
X0079845Y0110172D01*
X0079744Y0110294D01*
X0079647Y0110419D01*
X0079552Y0110546D01*
X0079461Y0110675D01*
X0079372Y0110806D01*
X0079288Y0110940D01*
X0079206Y0111076D01*
X0079128Y0111213D01*
X0079054Y0111353D01*
X0078983Y0111495D01*
X0078915Y0111638D01*
X0078851Y0111783D01*
X0078791Y0111929D01*
X0078735Y0112077D01*
X0078682Y0112226D01*
X0078633Y0112377D01*
X0078588Y0112529D01*
X0078547Y0112682D01*
X0078509Y0112835D01*
X0078476Y0112990D01*
X0078446Y0113146D01*
X0078420Y0113302D01*
X0078399Y0113459D01*
X0078381Y0113616D01*
X0078367Y0113774D01*
X0078357Y0113932D01*
X0078351Y0114090D01*
X0078349Y0114248D01*
X0078349Y0279602D02*
X0078351Y0279760D01*
X0078357Y0279918D01*
X0078367Y0280076D01*
X0078381Y0280234D01*
X0078399Y0280391D01*
X0078420Y0280548D01*
X0078446Y0280704D01*
X0078476Y0280860D01*
X0078509Y0281015D01*
X0078547Y0281168D01*
X0078588Y0281321D01*
X0078633Y0281473D01*
X0078682Y0281624D01*
X0078735Y0281773D01*
X0078791Y0281921D01*
X0078851Y0282067D01*
X0078915Y0282212D01*
X0078983Y0282355D01*
X0079054Y0282497D01*
X0079128Y0282637D01*
X0079206Y0282774D01*
X0079288Y0282910D01*
X0079372Y0283044D01*
X0079461Y0283175D01*
X0079552Y0283304D01*
X0079647Y0283431D01*
X0079744Y0283556D01*
X0079845Y0283678D01*
X0079949Y0283797D01*
X0080056Y0283914D01*
X0080166Y0284028D01*
X0080279Y0284139D01*
X0080394Y0284248D01*
X0080512Y0284353D01*
X0080633Y0284455D01*
X0080756Y0284555D01*
X0080882Y0284651D01*
X0081010Y0284744D01*
X0081140Y0284834D01*
X0081273Y0284920D01*
X0081408Y0285004D01*
X0081544Y0285083D01*
X0081683Y0285160D01*
X0081824Y0285232D01*
X0081966Y0285302D01*
X0082110Y0285367D01*
X0082256Y0285429D01*
X0082403Y0285487D01*
X0082552Y0285542D01*
X0082702Y0285593D01*
X0082853Y0285640D01*
X0083005Y0285683D01*
X0083158Y0285722D01*
X0083313Y0285758D01*
X0083468Y0285789D01*
X0083624Y0285817D01*
X0083780Y0285841D01*
X0083937Y0285861D01*
X0084095Y0285877D01*
X0084252Y0285889D01*
X0084411Y0285897D01*
X0084569Y0285901D01*
X0084727Y0285901D01*
X0084885Y0285897D01*
X0085044Y0285889D01*
X0085201Y0285877D01*
X0085359Y0285861D01*
X0085516Y0285841D01*
X0085672Y0285817D01*
X0085828Y0285789D01*
X0085983Y0285758D01*
X0086138Y0285722D01*
X0086291Y0285683D01*
X0086443Y0285640D01*
X0086594Y0285593D01*
X0086744Y0285542D01*
X0086893Y0285487D01*
X0087040Y0285429D01*
X0087186Y0285367D01*
X0087330Y0285302D01*
X0087472Y0285232D01*
X0087613Y0285160D01*
X0087752Y0285083D01*
X0087888Y0285004D01*
X0088023Y0284920D01*
X0088156Y0284834D01*
X0088286Y0284744D01*
X0088414Y0284651D01*
X0088540Y0284555D01*
X0088663Y0284455D01*
X0088784Y0284353D01*
X0088902Y0284248D01*
X0089017Y0284139D01*
X0089130Y0284028D01*
X0089240Y0283914D01*
X0089347Y0283797D01*
X0089451Y0283678D01*
X0089552Y0283556D01*
X0089649Y0283431D01*
X0089744Y0283304D01*
X0089835Y0283175D01*
X0089924Y0283044D01*
X0090008Y0282910D01*
X0090090Y0282774D01*
X0090168Y0282637D01*
X0090242Y0282497D01*
X0090313Y0282355D01*
X0090381Y0282212D01*
X0090445Y0282067D01*
X0090505Y0281921D01*
X0090561Y0281773D01*
X0090614Y0281624D01*
X0090663Y0281473D01*
X0090708Y0281321D01*
X0090749Y0281168D01*
X0090787Y0281015D01*
X0090820Y0280860D01*
X0090850Y0280704D01*
X0090876Y0280548D01*
X0090897Y0280391D01*
X0090915Y0280234D01*
X0090929Y0280076D01*
X0090939Y0279918D01*
X0090945Y0279760D01*
X0090947Y0279602D01*
X0090945Y0279444D01*
X0090939Y0279286D01*
X0090929Y0279128D01*
X0090915Y0278970D01*
X0090897Y0278813D01*
X0090876Y0278656D01*
X0090850Y0278500D01*
X0090820Y0278344D01*
X0090787Y0278189D01*
X0090749Y0278036D01*
X0090708Y0277883D01*
X0090663Y0277731D01*
X0090614Y0277580D01*
X0090561Y0277431D01*
X0090505Y0277283D01*
X0090445Y0277137D01*
X0090381Y0276992D01*
X0090313Y0276849D01*
X0090242Y0276707D01*
X0090168Y0276567D01*
X0090090Y0276430D01*
X0090008Y0276294D01*
X0089924Y0276160D01*
X0089835Y0276029D01*
X0089744Y0275900D01*
X0089649Y0275773D01*
X0089552Y0275648D01*
X0089451Y0275526D01*
X0089347Y0275407D01*
X0089240Y0275290D01*
X0089130Y0275176D01*
X0089017Y0275065D01*
X0088902Y0274956D01*
X0088784Y0274851D01*
X0088663Y0274749D01*
X0088540Y0274649D01*
X0088414Y0274553D01*
X0088286Y0274460D01*
X0088156Y0274370D01*
X0088023Y0274284D01*
X0087888Y0274200D01*
X0087752Y0274121D01*
X0087613Y0274044D01*
X0087472Y0273972D01*
X0087330Y0273902D01*
X0087186Y0273837D01*
X0087040Y0273775D01*
X0086893Y0273717D01*
X0086744Y0273662D01*
X0086594Y0273611D01*
X0086443Y0273564D01*
X0086291Y0273521D01*
X0086138Y0273482D01*
X0085983Y0273446D01*
X0085828Y0273415D01*
X0085672Y0273387D01*
X0085516Y0273363D01*
X0085359Y0273343D01*
X0085201Y0273327D01*
X0085044Y0273315D01*
X0084885Y0273307D01*
X0084727Y0273303D01*
X0084569Y0273303D01*
X0084411Y0273307D01*
X0084252Y0273315D01*
X0084095Y0273327D01*
X0083937Y0273343D01*
X0083780Y0273363D01*
X0083624Y0273387D01*
X0083468Y0273415D01*
X0083313Y0273446D01*
X0083158Y0273482D01*
X0083005Y0273521D01*
X0082853Y0273564D01*
X0082702Y0273611D01*
X0082552Y0273662D01*
X0082403Y0273717D01*
X0082256Y0273775D01*
X0082110Y0273837D01*
X0081966Y0273902D01*
X0081824Y0273972D01*
X0081683Y0274044D01*
X0081544Y0274121D01*
X0081408Y0274200D01*
X0081273Y0274284D01*
X0081140Y0274370D01*
X0081010Y0274460D01*
X0080882Y0274553D01*
X0080756Y0274649D01*
X0080633Y0274749D01*
X0080512Y0274851D01*
X0080394Y0274956D01*
X0080279Y0275065D01*
X0080166Y0275176D01*
X0080056Y0275290D01*
X0079949Y0275407D01*
X0079845Y0275526D01*
X0079744Y0275648D01*
X0079647Y0275773D01*
X0079552Y0275900D01*
X0079461Y0276029D01*
X0079372Y0276160D01*
X0079288Y0276294D01*
X0079206Y0276430D01*
X0079128Y0276567D01*
X0079054Y0276707D01*
X0078983Y0276849D01*
X0078915Y0276992D01*
X0078851Y0277137D01*
X0078791Y0277283D01*
X0078735Y0277431D01*
X0078682Y0277580D01*
X0078633Y0277731D01*
X0078588Y0277883D01*
X0078547Y0278036D01*
X0078509Y0278189D01*
X0078476Y0278344D01*
X0078446Y0278500D01*
X0078420Y0278656D01*
X0078399Y0278813D01*
X0078381Y0278970D01*
X0078367Y0279128D01*
X0078357Y0279286D01*
X0078351Y0279444D01*
X0078349Y0279602D01*
X0243703Y0279602D02*
X0243705Y0279760D01*
X0243711Y0279918D01*
X0243721Y0280076D01*
X0243735Y0280234D01*
X0243753Y0280391D01*
X0243774Y0280548D01*
X0243800Y0280704D01*
X0243830Y0280860D01*
X0243863Y0281015D01*
X0243901Y0281168D01*
X0243942Y0281321D01*
X0243987Y0281473D01*
X0244036Y0281624D01*
X0244089Y0281773D01*
X0244145Y0281921D01*
X0244205Y0282067D01*
X0244269Y0282212D01*
X0244337Y0282355D01*
X0244408Y0282497D01*
X0244482Y0282637D01*
X0244560Y0282774D01*
X0244642Y0282910D01*
X0244726Y0283044D01*
X0244815Y0283175D01*
X0244906Y0283304D01*
X0245001Y0283431D01*
X0245098Y0283556D01*
X0245199Y0283678D01*
X0245303Y0283797D01*
X0245410Y0283914D01*
X0245520Y0284028D01*
X0245633Y0284139D01*
X0245748Y0284248D01*
X0245866Y0284353D01*
X0245987Y0284455D01*
X0246110Y0284555D01*
X0246236Y0284651D01*
X0246364Y0284744D01*
X0246494Y0284834D01*
X0246627Y0284920D01*
X0246762Y0285004D01*
X0246898Y0285083D01*
X0247037Y0285160D01*
X0247178Y0285232D01*
X0247320Y0285302D01*
X0247464Y0285367D01*
X0247610Y0285429D01*
X0247757Y0285487D01*
X0247906Y0285542D01*
X0248056Y0285593D01*
X0248207Y0285640D01*
X0248359Y0285683D01*
X0248512Y0285722D01*
X0248667Y0285758D01*
X0248822Y0285789D01*
X0248978Y0285817D01*
X0249134Y0285841D01*
X0249291Y0285861D01*
X0249449Y0285877D01*
X0249606Y0285889D01*
X0249765Y0285897D01*
X0249923Y0285901D01*
X0250081Y0285901D01*
X0250239Y0285897D01*
X0250398Y0285889D01*
X0250555Y0285877D01*
X0250713Y0285861D01*
X0250870Y0285841D01*
X0251026Y0285817D01*
X0251182Y0285789D01*
X0251337Y0285758D01*
X0251492Y0285722D01*
X0251645Y0285683D01*
X0251797Y0285640D01*
X0251948Y0285593D01*
X0252098Y0285542D01*
X0252247Y0285487D01*
X0252394Y0285429D01*
X0252540Y0285367D01*
X0252684Y0285302D01*
X0252826Y0285232D01*
X0252967Y0285160D01*
X0253106Y0285083D01*
X0253242Y0285004D01*
X0253377Y0284920D01*
X0253510Y0284834D01*
X0253640Y0284744D01*
X0253768Y0284651D01*
X0253894Y0284555D01*
X0254017Y0284455D01*
X0254138Y0284353D01*
X0254256Y0284248D01*
X0254371Y0284139D01*
X0254484Y0284028D01*
X0254594Y0283914D01*
X0254701Y0283797D01*
X0254805Y0283678D01*
X0254906Y0283556D01*
X0255003Y0283431D01*
X0255098Y0283304D01*
X0255189Y0283175D01*
X0255278Y0283044D01*
X0255362Y0282910D01*
X0255444Y0282774D01*
X0255522Y0282637D01*
X0255596Y0282497D01*
X0255667Y0282355D01*
X0255735Y0282212D01*
X0255799Y0282067D01*
X0255859Y0281921D01*
X0255915Y0281773D01*
X0255968Y0281624D01*
X0256017Y0281473D01*
X0256062Y0281321D01*
X0256103Y0281168D01*
X0256141Y0281015D01*
X0256174Y0280860D01*
X0256204Y0280704D01*
X0256230Y0280548D01*
X0256251Y0280391D01*
X0256269Y0280234D01*
X0256283Y0280076D01*
X0256293Y0279918D01*
X0256299Y0279760D01*
X0256301Y0279602D01*
X0256299Y0279444D01*
X0256293Y0279286D01*
X0256283Y0279128D01*
X0256269Y0278970D01*
X0256251Y0278813D01*
X0256230Y0278656D01*
X0256204Y0278500D01*
X0256174Y0278344D01*
X0256141Y0278189D01*
X0256103Y0278036D01*
X0256062Y0277883D01*
X0256017Y0277731D01*
X0255968Y0277580D01*
X0255915Y0277431D01*
X0255859Y0277283D01*
X0255799Y0277137D01*
X0255735Y0276992D01*
X0255667Y0276849D01*
X0255596Y0276707D01*
X0255522Y0276567D01*
X0255444Y0276430D01*
X0255362Y0276294D01*
X0255278Y0276160D01*
X0255189Y0276029D01*
X0255098Y0275900D01*
X0255003Y0275773D01*
X0254906Y0275648D01*
X0254805Y0275526D01*
X0254701Y0275407D01*
X0254594Y0275290D01*
X0254484Y0275176D01*
X0254371Y0275065D01*
X0254256Y0274956D01*
X0254138Y0274851D01*
X0254017Y0274749D01*
X0253894Y0274649D01*
X0253768Y0274553D01*
X0253640Y0274460D01*
X0253510Y0274370D01*
X0253377Y0274284D01*
X0253242Y0274200D01*
X0253106Y0274121D01*
X0252967Y0274044D01*
X0252826Y0273972D01*
X0252684Y0273902D01*
X0252540Y0273837D01*
X0252394Y0273775D01*
X0252247Y0273717D01*
X0252098Y0273662D01*
X0251948Y0273611D01*
X0251797Y0273564D01*
X0251645Y0273521D01*
X0251492Y0273482D01*
X0251337Y0273446D01*
X0251182Y0273415D01*
X0251026Y0273387D01*
X0250870Y0273363D01*
X0250713Y0273343D01*
X0250555Y0273327D01*
X0250398Y0273315D01*
X0250239Y0273307D01*
X0250081Y0273303D01*
X0249923Y0273303D01*
X0249765Y0273307D01*
X0249606Y0273315D01*
X0249449Y0273327D01*
X0249291Y0273343D01*
X0249134Y0273363D01*
X0248978Y0273387D01*
X0248822Y0273415D01*
X0248667Y0273446D01*
X0248512Y0273482D01*
X0248359Y0273521D01*
X0248207Y0273564D01*
X0248056Y0273611D01*
X0247906Y0273662D01*
X0247757Y0273717D01*
X0247610Y0273775D01*
X0247464Y0273837D01*
X0247320Y0273902D01*
X0247178Y0273972D01*
X0247037Y0274044D01*
X0246898Y0274121D01*
X0246762Y0274200D01*
X0246627Y0274284D01*
X0246494Y0274370D01*
X0246364Y0274460D01*
X0246236Y0274553D01*
X0246110Y0274649D01*
X0245987Y0274749D01*
X0245866Y0274851D01*
X0245748Y0274956D01*
X0245633Y0275065D01*
X0245520Y0275176D01*
X0245410Y0275290D01*
X0245303Y0275407D01*
X0245199Y0275526D01*
X0245098Y0275648D01*
X0245001Y0275773D01*
X0244906Y0275900D01*
X0244815Y0276029D01*
X0244726Y0276160D01*
X0244642Y0276294D01*
X0244560Y0276430D01*
X0244482Y0276567D01*
X0244408Y0276707D01*
X0244337Y0276849D01*
X0244269Y0276992D01*
X0244205Y0277137D01*
X0244145Y0277283D01*
X0244089Y0277431D01*
X0244036Y0277580D01*
X0243987Y0277731D01*
X0243942Y0277883D01*
X0243901Y0278036D01*
X0243863Y0278189D01*
X0243830Y0278344D01*
X0243800Y0278500D01*
X0243774Y0278656D01*
X0243753Y0278813D01*
X0243735Y0278970D01*
X0243721Y0279128D01*
X0243711Y0279286D01*
X0243705Y0279444D01*
X0243703Y0279602D01*
X0243703Y0114248D02*
X0243705Y0114406D01*
X0243711Y0114564D01*
X0243721Y0114722D01*
X0243735Y0114880D01*
X0243753Y0115037D01*
X0243774Y0115194D01*
X0243800Y0115350D01*
X0243830Y0115506D01*
X0243863Y0115661D01*
X0243901Y0115814D01*
X0243942Y0115967D01*
X0243987Y0116119D01*
X0244036Y0116270D01*
X0244089Y0116419D01*
X0244145Y0116567D01*
X0244205Y0116713D01*
X0244269Y0116858D01*
X0244337Y0117001D01*
X0244408Y0117143D01*
X0244482Y0117283D01*
X0244560Y0117420D01*
X0244642Y0117556D01*
X0244726Y0117690D01*
X0244815Y0117821D01*
X0244906Y0117950D01*
X0245001Y0118077D01*
X0245098Y0118202D01*
X0245199Y0118324D01*
X0245303Y0118443D01*
X0245410Y0118560D01*
X0245520Y0118674D01*
X0245633Y0118785D01*
X0245748Y0118894D01*
X0245866Y0118999D01*
X0245987Y0119101D01*
X0246110Y0119201D01*
X0246236Y0119297D01*
X0246364Y0119390D01*
X0246494Y0119480D01*
X0246627Y0119566D01*
X0246762Y0119650D01*
X0246898Y0119729D01*
X0247037Y0119806D01*
X0247178Y0119878D01*
X0247320Y0119948D01*
X0247464Y0120013D01*
X0247610Y0120075D01*
X0247757Y0120133D01*
X0247906Y0120188D01*
X0248056Y0120239D01*
X0248207Y0120286D01*
X0248359Y0120329D01*
X0248512Y0120368D01*
X0248667Y0120404D01*
X0248822Y0120435D01*
X0248978Y0120463D01*
X0249134Y0120487D01*
X0249291Y0120507D01*
X0249449Y0120523D01*
X0249606Y0120535D01*
X0249765Y0120543D01*
X0249923Y0120547D01*
X0250081Y0120547D01*
X0250239Y0120543D01*
X0250398Y0120535D01*
X0250555Y0120523D01*
X0250713Y0120507D01*
X0250870Y0120487D01*
X0251026Y0120463D01*
X0251182Y0120435D01*
X0251337Y0120404D01*
X0251492Y0120368D01*
X0251645Y0120329D01*
X0251797Y0120286D01*
X0251948Y0120239D01*
X0252098Y0120188D01*
X0252247Y0120133D01*
X0252394Y0120075D01*
X0252540Y0120013D01*
X0252684Y0119948D01*
X0252826Y0119878D01*
X0252967Y0119806D01*
X0253106Y0119729D01*
X0253242Y0119650D01*
X0253377Y0119566D01*
X0253510Y0119480D01*
X0253640Y0119390D01*
X0253768Y0119297D01*
X0253894Y0119201D01*
X0254017Y0119101D01*
X0254138Y0118999D01*
X0254256Y0118894D01*
X0254371Y0118785D01*
X0254484Y0118674D01*
X0254594Y0118560D01*
X0254701Y0118443D01*
X0254805Y0118324D01*
X0254906Y0118202D01*
X0255003Y0118077D01*
X0255098Y0117950D01*
X0255189Y0117821D01*
X0255278Y0117690D01*
X0255362Y0117556D01*
X0255444Y0117420D01*
X0255522Y0117283D01*
X0255596Y0117143D01*
X0255667Y0117001D01*
X0255735Y0116858D01*
X0255799Y0116713D01*
X0255859Y0116567D01*
X0255915Y0116419D01*
X0255968Y0116270D01*
X0256017Y0116119D01*
X0256062Y0115967D01*
X0256103Y0115814D01*
X0256141Y0115661D01*
X0256174Y0115506D01*
X0256204Y0115350D01*
X0256230Y0115194D01*
X0256251Y0115037D01*
X0256269Y0114880D01*
X0256283Y0114722D01*
X0256293Y0114564D01*
X0256299Y0114406D01*
X0256301Y0114248D01*
X0256299Y0114090D01*
X0256293Y0113932D01*
X0256283Y0113774D01*
X0256269Y0113616D01*
X0256251Y0113459D01*
X0256230Y0113302D01*
X0256204Y0113146D01*
X0256174Y0112990D01*
X0256141Y0112835D01*
X0256103Y0112682D01*
X0256062Y0112529D01*
X0256017Y0112377D01*
X0255968Y0112226D01*
X0255915Y0112077D01*
X0255859Y0111929D01*
X0255799Y0111783D01*
X0255735Y0111638D01*
X0255667Y0111495D01*
X0255596Y0111353D01*
X0255522Y0111213D01*
X0255444Y0111076D01*
X0255362Y0110940D01*
X0255278Y0110806D01*
X0255189Y0110675D01*
X0255098Y0110546D01*
X0255003Y0110419D01*
X0254906Y0110294D01*
X0254805Y0110172D01*
X0254701Y0110053D01*
X0254594Y0109936D01*
X0254484Y0109822D01*
X0254371Y0109711D01*
X0254256Y0109602D01*
X0254138Y0109497D01*
X0254017Y0109395D01*
X0253894Y0109295D01*
X0253768Y0109199D01*
X0253640Y0109106D01*
X0253510Y0109016D01*
X0253377Y0108930D01*
X0253242Y0108846D01*
X0253106Y0108767D01*
X0252967Y0108690D01*
X0252826Y0108618D01*
X0252684Y0108548D01*
X0252540Y0108483D01*
X0252394Y0108421D01*
X0252247Y0108363D01*
X0252098Y0108308D01*
X0251948Y0108257D01*
X0251797Y0108210D01*
X0251645Y0108167D01*
X0251492Y0108128D01*
X0251337Y0108092D01*
X0251182Y0108061D01*
X0251026Y0108033D01*
X0250870Y0108009D01*
X0250713Y0107989D01*
X0250555Y0107973D01*
X0250398Y0107961D01*
X0250239Y0107953D01*
X0250081Y0107949D01*
X0249923Y0107949D01*
X0249765Y0107953D01*
X0249606Y0107961D01*
X0249449Y0107973D01*
X0249291Y0107989D01*
X0249134Y0108009D01*
X0248978Y0108033D01*
X0248822Y0108061D01*
X0248667Y0108092D01*
X0248512Y0108128D01*
X0248359Y0108167D01*
X0248207Y0108210D01*
X0248056Y0108257D01*
X0247906Y0108308D01*
X0247757Y0108363D01*
X0247610Y0108421D01*
X0247464Y0108483D01*
X0247320Y0108548D01*
X0247178Y0108618D01*
X0247037Y0108690D01*
X0246898Y0108767D01*
X0246762Y0108846D01*
X0246627Y0108930D01*
X0246494Y0109016D01*
X0246364Y0109106D01*
X0246236Y0109199D01*
X0246110Y0109295D01*
X0245987Y0109395D01*
X0245866Y0109497D01*
X0245748Y0109602D01*
X0245633Y0109711D01*
X0245520Y0109822D01*
X0245410Y0109936D01*
X0245303Y0110053D01*
X0245199Y0110172D01*
X0245098Y0110294D01*
X0245001Y0110419D01*
X0244906Y0110546D01*
X0244815Y0110675D01*
X0244726Y0110806D01*
X0244642Y0110940D01*
X0244560Y0111076D01*
X0244482Y0111213D01*
X0244408Y0111353D01*
X0244337Y0111495D01*
X0244269Y0111638D01*
X0244205Y0111783D01*
X0244145Y0111929D01*
X0244089Y0112077D01*
X0244036Y0112226D01*
X0243987Y0112377D01*
X0243942Y0112529D01*
X0243901Y0112682D01*
X0243863Y0112835D01*
X0243830Y0112990D01*
X0243800Y0113146D01*
X0243774Y0113302D01*
X0243753Y0113459D01*
X0243735Y0113616D01*
X0243721Y0113774D01*
X0243711Y0113932D01*
X0243705Y0114090D01*
X0243703Y0114248D01*
D12*
X0250002Y0114248D03*
X0084648Y0114248D03*
X0084648Y0279602D03*
X0250002Y0279602D03*
D13*
X0162800Y0234500D02*
X0156800Y0234500D01*
X0156800Y0224500D02*
X0162800Y0224500D01*
X0162800Y0214500D02*
X0156800Y0214500D01*
X0156800Y0204500D02*
X0162800Y0204500D01*
X0162700Y0189500D02*
X0156700Y0189500D01*
X0156700Y0179500D02*
X0162700Y0179500D01*
X0162700Y0169500D02*
X0156700Y0169500D01*
X0156700Y0159500D02*
X0162700Y0159500D01*
X0118400Y0144900D02*
X0118400Y0138900D01*
X0108400Y0138900D02*
X0108400Y0144900D01*
X0081743Y0146925D02*
X0075743Y0146925D01*
X0075743Y0136925D02*
X0081743Y0136925D01*
X0081743Y0156925D02*
X0075743Y0156925D01*
X0075743Y0166925D02*
X0081743Y0166925D01*
X0081743Y0176925D02*
X0075743Y0176925D01*
X0075743Y0186925D02*
X0081743Y0186925D01*
X0081743Y0206925D02*
X0075743Y0206925D01*
X0075743Y0216925D02*
X0081743Y0216925D01*
X0081743Y0226925D02*
X0075743Y0226925D01*
X0075743Y0236925D02*
X0081743Y0236925D01*
X0081743Y0246925D02*
X0075743Y0246925D01*
X0075743Y0256925D02*
X0081743Y0256925D01*
D14*
X0093322Y0146900D03*
X0096525Y0146900D03*
X0096525Y0136900D03*
X0093322Y0136900D03*
D15*
X0210435Y0171532D02*
X0210435Y0177830D01*
X0212994Y0182752D02*
X0206696Y0182752D01*
X0206696Y0187476D02*
X0212994Y0187476D01*
X0212994Y0192201D02*
X0206696Y0192201D01*
X0206696Y0196925D02*
X0212994Y0196925D01*
X0212994Y0201650D02*
X0206696Y0201650D01*
X0206696Y0206374D02*
X0212994Y0206374D01*
X0212994Y0211098D02*
X0206696Y0211098D01*
X0210435Y0216020D02*
X0210435Y0222318D01*
X0215160Y0222318D02*
X0215160Y0216020D01*
X0219884Y0216020D02*
X0219884Y0222318D01*
X0224609Y0222318D02*
X0224609Y0216020D01*
X0229333Y0216020D02*
X0229333Y0222318D01*
X0234057Y0222318D02*
X0234057Y0216020D01*
X0238782Y0216020D02*
X0238782Y0222318D01*
X0243506Y0222318D02*
X0243506Y0216020D01*
X0248231Y0216020D02*
X0248231Y0222318D01*
X0252955Y0222318D02*
X0252955Y0216020D01*
X0257680Y0216020D02*
X0257680Y0222318D01*
X0262404Y0222318D02*
X0262404Y0216020D01*
X0262404Y0177830D02*
X0262404Y0171532D01*
X0257680Y0171532D02*
X0257680Y0177830D01*
X0252955Y0177830D02*
X0252955Y0171532D01*
X0248231Y0171532D02*
X0248231Y0177830D01*
X0243506Y0177830D02*
X0243506Y0171532D01*
X0238782Y0171532D02*
X0238782Y0177830D01*
X0234057Y0177830D02*
X0234057Y0171532D01*
X0229333Y0171532D02*
X0229333Y0177830D01*
X0224609Y0177830D02*
X0224609Y0171532D01*
X0219884Y0171532D02*
X0219884Y0177830D01*
X0215160Y0177830D02*
X0215160Y0171532D01*
D16*
X0209800Y0284147D03*
X0209800Y0290053D03*
X0226700Y0290053D03*
X0226700Y0284147D03*
D17*
X0256800Y0255646D03*
X0256800Y0248954D03*
X0249000Y0242346D03*
X0249000Y0235654D03*
D18*
X0193064Y0270642D02*
X0187127Y0270642D01*
X0187127Y0288358D02*
X0193064Y0288358D01*
X0167473Y0288358D02*
X0161536Y0288358D01*
X0161536Y0270642D02*
X0167473Y0270642D01*
X0143064Y0270642D02*
X0137127Y0270642D01*
X0137127Y0288358D02*
X0143064Y0288358D01*
X0117473Y0288358D02*
X0111536Y0288358D01*
X0111536Y0270642D02*
X0117473Y0270642D01*
M02*
