%
M48
M72
T01C0.01200
T02C0.02362
T03C0.03937
T04C0.04000
T05C0.12598
%
T01
X157100Y130200
X177600Y130200
X220800Y117300
X231500Y117300
T02
X205000Y172800
X205000Y176800
X207900Y166300
X211900Y166300
X246700Y184300
X246700Y197700
X246700Y209800
X262400Y227300
X262400Y231300
X212400Y227500
X208400Y227500
X205200Y221200
X205200Y217200
X262300Y166600
X262300Y162600
T03
X114505Y270642
X114505Y288358
X140095Y288358
X140095Y270642
X164505Y270642
X164505Y288358
X190095Y288358
X190095Y270642
T04
X78743Y136925
X78743Y146925
X78743Y156925
X78743Y166925
X78743Y176925
X78743Y186925
X78743Y206925
X78743Y216925
X78743Y226925
X78743Y236925
X78743Y246925
X78743Y256925
X159800Y234500
X159800Y224500
X159800Y214500
X159800Y204500
X159700Y189500
X159700Y179500
X159700Y169500
X159700Y159500
X162300Y122600
X162300Y112600
X152300Y112600
X152300Y122600
X142300Y122600
X142300Y112600
X132300Y112600
X132300Y122600
X122300Y122600
X122300Y112600
X118400Y141900
X108400Y141900
X172300Y122600
X172300Y112600
X182300Y112600
X182300Y122600
X192300Y122600
X192300Y112600
X202300Y112600
X202300Y122600
X212300Y122600
X212300Y112600
T05
X84648Y114248
X84648Y279602
X250002Y279602
X250002Y114248
M30
