G75*
%MOIN*%
%OFA0B0*%
%FSLAX25Y25*%
%IPPOS*%
%LPD*%
%AMOC8*
5,1,8,0,0,1.08239X$1,22.5*
%
%ADD10OC8,0.06000*%
%ADD11R,0.06000X0.06000*%
%ADD12C,0.00000*%
%ADD13C,0.06000*%
%ADD14C,0.05150*%
%ADD15R,0.05150X0.05150*%
%ADD16C,0.06496*%
%ADD17C,0.10039*%
%ADD18C,0.15748*%
%ADD19C,0.07600*%
%ADD20C,0.00600*%
%ADD21R,0.02400X0.02400*%
D10*
X0272500Y0091700D03*
X0272500Y0101700D03*
X0272500Y0111700D03*
X0282500Y0111700D03*
X0282500Y0101700D03*
X0282500Y0091700D03*
X0282500Y0121700D03*
X0282500Y0131700D03*
X0282500Y0141700D03*
X0272500Y0131700D03*
X0272500Y0121700D03*
X0272100Y0169865D03*
X0282100Y0169865D03*
X0282100Y0179865D03*
X0272100Y0179865D03*
X0272100Y0189865D03*
X0282100Y0189865D03*
X0282100Y0199865D03*
X0272100Y0199865D03*
X0272100Y0209865D03*
X0282100Y0209865D03*
X0282100Y0219865D03*
D11*
X0272100Y0219865D03*
X0272500Y0141700D03*
D12*
X0191103Y0072818D02*
X0191105Y0072976D01*
X0191111Y0073134D01*
X0191121Y0073292D01*
X0191135Y0073450D01*
X0191153Y0073607D01*
X0191174Y0073764D01*
X0191200Y0073920D01*
X0191230Y0074076D01*
X0191263Y0074231D01*
X0191301Y0074384D01*
X0191342Y0074537D01*
X0191387Y0074689D01*
X0191436Y0074840D01*
X0191489Y0074989D01*
X0191545Y0075137D01*
X0191605Y0075283D01*
X0191669Y0075428D01*
X0191737Y0075571D01*
X0191808Y0075713D01*
X0191882Y0075853D01*
X0191960Y0075990D01*
X0192042Y0076126D01*
X0192126Y0076260D01*
X0192215Y0076391D01*
X0192306Y0076520D01*
X0192401Y0076647D01*
X0192498Y0076772D01*
X0192599Y0076894D01*
X0192703Y0077013D01*
X0192810Y0077130D01*
X0192920Y0077244D01*
X0193033Y0077355D01*
X0193148Y0077464D01*
X0193266Y0077569D01*
X0193387Y0077671D01*
X0193510Y0077771D01*
X0193636Y0077867D01*
X0193764Y0077960D01*
X0193894Y0078050D01*
X0194027Y0078136D01*
X0194162Y0078220D01*
X0194298Y0078299D01*
X0194437Y0078376D01*
X0194578Y0078448D01*
X0194720Y0078518D01*
X0194864Y0078583D01*
X0195010Y0078645D01*
X0195157Y0078703D01*
X0195306Y0078758D01*
X0195456Y0078809D01*
X0195607Y0078856D01*
X0195759Y0078899D01*
X0195912Y0078938D01*
X0196067Y0078974D01*
X0196222Y0079005D01*
X0196378Y0079033D01*
X0196534Y0079057D01*
X0196691Y0079077D01*
X0196849Y0079093D01*
X0197006Y0079105D01*
X0197165Y0079113D01*
X0197323Y0079117D01*
X0197481Y0079117D01*
X0197639Y0079113D01*
X0197798Y0079105D01*
X0197955Y0079093D01*
X0198113Y0079077D01*
X0198270Y0079057D01*
X0198426Y0079033D01*
X0198582Y0079005D01*
X0198737Y0078974D01*
X0198892Y0078938D01*
X0199045Y0078899D01*
X0199197Y0078856D01*
X0199348Y0078809D01*
X0199498Y0078758D01*
X0199647Y0078703D01*
X0199794Y0078645D01*
X0199940Y0078583D01*
X0200084Y0078518D01*
X0200226Y0078448D01*
X0200367Y0078376D01*
X0200506Y0078299D01*
X0200642Y0078220D01*
X0200777Y0078136D01*
X0200910Y0078050D01*
X0201040Y0077960D01*
X0201168Y0077867D01*
X0201294Y0077771D01*
X0201417Y0077671D01*
X0201538Y0077569D01*
X0201656Y0077464D01*
X0201771Y0077355D01*
X0201884Y0077244D01*
X0201994Y0077130D01*
X0202101Y0077013D01*
X0202205Y0076894D01*
X0202306Y0076772D01*
X0202403Y0076647D01*
X0202498Y0076520D01*
X0202589Y0076391D01*
X0202678Y0076260D01*
X0202762Y0076126D01*
X0202844Y0075990D01*
X0202922Y0075853D01*
X0202996Y0075713D01*
X0203067Y0075571D01*
X0203135Y0075428D01*
X0203199Y0075283D01*
X0203259Y0075137D01*
X0203315Y0074989D01*
X0203368Y0074840D01*
X0203417Y0074689D01*
X0203462Y0074537D01*
X0203503Y0074384D01*
X0203541Y0074231D01*
X0203574Y0074076D01*
X0203604Y0073920D01*
X0203630Y0073764D01*
X0203651Y0073607D01*
X0203669Y0073450D01*
X0203683Y0073292D01*
X0203693Y0073134D01*
X0203699Y0072976D01*
X0203701Y0072818D01*
X0203699Y0072660D01*
X0203693Y0072502D01*
X0203683Y0072344D01*
X0203669Y0072186D01*
X0203651Y0072029D01*
X0203630Y0071872D01*
X0203604Y0071716D01*
X0203574Y0071560D01*
X0203541Y0071405D01*
X0203503Y0071252D01*
X0203462Y0071099D01*
X0203417Y0070947D01*
X0203368Y0070796D01*
X0203315Y0070647D01*
X0203259Y0070499D01*
X0203199Y0070353D01*
X0203135Y0070208D01*
X0203067Y0070065D01*
X0202996Y0069923D01*
X0202922Y0069783D01*
X0202844Y0069646D01*
X0202762Y0069510D01*
X0202678Y0069376D01*
X0202589Y0069245D01*
X0202498Y0069116D01*
X0202403Y0068989D01*
X0202306Y0068864D01*
X0202205Y0068742D01*
X0202101Y0068623D01*
X0201994Y0068506D01*
X0201884Y0068392D01*
X0201771Y0068281D01*
X0201656Y0068172D01*
X0201538Y0068067D01*
X0201417Y0067965D01*
X0201294Y0067865D01*
X0201168Y0067769D01*
X0201040Y0067676D01*
X0200910Y0067586D01*
X0200777Y0067500D01*
X0200642Y0067416D01*
X0200506Y0067337D01*
X0200367Y0067260D01*
X0200226Y0067188D01*
X0200084Y0067118D01*
X0199940Y0067053D01*
X0199794Y0066991D01*
X0199647Y0066933D01*
X0199498Y0066878D01*
X0199348Y0066827D01*
X0199197Y0066780D01*
X0199045Y0066737D01*
X0198892Y0066698D01*
X0198737Y0066662D01*
X0198582Y0066631D01*
X0198426Y0066603D01*
X0198270Y0066579D01*
X0198113Y0066559D01*
X0197955Y0066543D01*
X0197798Y0066531D01*
X0197639Y0066523D01*
X0197481Y0066519D01*
X0197323Y0066519D01*
X0197165Y0066523D01*
X0197006Y0066531D01*
X0196849Y0066543D01*
X0196691Y0066559D01*
X0196534Y0066579D01*
X0196378Y0066603D01*
X0196222Y0066631D01*
X0196067Y0066662D01*
X0195912Y0066698D01*
X0195759Y0066737D01*
X0195607Y0066780D01*
X0195456Y0066827D01*
X0195306Y0066878D01*
X0195157Y0066933D01*
X0195010Y0066991D01*
X0194864Y0067053D01*
X0194720Y0067118D01*
X0194578Y0067188D01*
X0194437Y0067260D01*
X0194298Y0067337D01*
X0194162Y0067416D01*
X0194027Y0067500D01*
X0193894Y0067586D01*
X0193764Y0067676D01*
X0193636Y0067769D01*
X0193510Y0067865D01*
X0193387Y0067965D01*
X0193266Y0068067D01*
X0193148Y0068172D01*
X0193033Y0068281D01*
X0192920Y0068392D01*
X0192810Y0068506D01*
X0192703Y0068623D01*
X0192599Y0068742D01*
X0192498Y0068864D01*
X0192401Y0068989D01*
X0192306Y0069116D01*
X0192215Y0069245D01*
X0192126Y0069376D01*
X0192042Y0069510D01*
X0191960Y0069646D01*
X0191882Y0069783D01*
X0191808Y0069923D01*
X0191737Y0070065D01*
X0191669Y0070208D01*
X0191605Y0070353D01*
X0191545Y0070499D01*
X0191489Y0070647D01*
X0191436Y0070796D01*
X0191387Y0070947D01*
X0191342Y0071099D01*
X0191301Y0071252D01*
X0191263Y0071405D01*
X0191230Y0071560D01*
X0191200Y0071716D01*
X0191174Y0071872D01*
X0191153Y0072029D01*
X0191135Y0072186D01*
X0191121Y0072344D01*
X0191111Y0072502D01*
X0191105Y0072660D01*
X0191103Y0072818D01*
X0269844Y0033448D02*
X0269846Y0033606D01*
X0269852Y0033764D01*
X0269862Y0033922D01*
X0269876Y0034080D01*
X0269894Y0034237D01*
X0269915Y0034394D01*
X0269941Y0034550D01*
X0269971Y0034706D01*
X0270004Y0034861D01*
X0270042Y0035014D01*
X0270083Y0035167D01*
X0270128Y0035319D01*
X0270177Y0035470D01*
X0270230Y0035619D01*
X0270286Y0035767D01*
X0270346Y0035913D01*
X0270410Y0036058D01*
X0270478Y0036201D01*
X0270549Y0036343D01*
X0270623Y0036483D01*
X0270701Y0036620D01*
X0270783Y0036756D01*
X0270867Y0036890D01*
X0270956Y0037021D01*
X0271047Y0037150D01*
X0271142Y0037277D01*
X0271239Y0037402D01*
X0271340Y0037524D01*
X0271444Y0037643D01*
X0271551Y0037760D01*
X0271661Y0037874D01*
X0271774Y0037985D01*
X0271889Y0038094D01*
X0272007Y0038199D01*
X0272128Y0038301D01*
X0272251Y0038401D01*
X0272377Y0038497D01*
X0272505Y0038590D01*
X0272635Y0038680D01*
X0272768Y0038766D01*
X0272903Y0038850D01*
X0273039Y0038929D01*
X0273178Y0039006D01*
X0273319Y0039078D01*
X0273461Y0039148D01*
X0273605Y0039213D01*
X0273751Y0039275D01*
X0273898Y0039333D01*
X0274047Y0039388D01*
X0274197Y0039439D01*
X0274348Y0039486D01*
X0274500Y0039529D01*
X0274653Y0039568D01*
X0274808Y0039604D01*
X0274963Y0039635D01*
X0275119Y0039663D01*
X0275275Y0039687D01*
X0275432Y0039707D01*
X0275590Y0039723D01*
X0275747Y0039735D01*
X0275906Y0039743D01*
X0276064Y0039747D01*
X0276222Y0039747D01*
X0276380Y0039743D01*
X0276539Y0039735D01*
X0276696Y0039723D01*
X0276854Y0039707D01*
X0277011Y0039687D01*
X0277167Y0039663D01*
X0277323Y0039635D01*
X0277478Y0039604D01*
X0277633Y0039568D01*
X0277786Y0039529D01*
X0277938Y0039486D01*
X0278089Y0039439D01*
X0278239Y0039388D01*
X0278388Y0039333D01*
X0278535Y0039275D01*
X0278681Y0039213D01*
X0278825Y0039148D01*
X0278967Y0039078D01*
X0279108Y0039006D01*
X0279247Y0038929D01*
X0279383Y0038850D01*
X0279518Y0038766D01*
X0279651Y0038680D01*
X0279781Y0038590D01*
X0279909Y0038497D01*
X0280035Y0038401D01*
X0280158Y0038301D01*
X0280279Y0038199D01*
X0280397Y0038094D01*
X0280512Y0037985D01*
X0280625Y0037874D01*
X0280735Y0037760D01*
X0280842Y0037643D01*
X0280946Y0037524D01*
X0281047Y0037402D01*
X0281144Y0037277D01*
X0281239Y0037150D01*
X0281330Y0037021D01*
X0281419Y0036890D01*
X0281503Y0036756D01*
X0281585Y0036620D01*
X0281663Y0036483D01*
X0281737Y0036343D01*
X0281808Y0036201D01*
X0281876Y0036058D01*
X0281940Y0035913D01*
X0282000Y0035767D01*
X0282056Y0035619D01*
X0282109Y0035470D01*
X0282158Y0035319D01*
X0282203Y0035167D01*
X0282244Y0035014D01*
X0282282Y0034861D01*
X0282315Y0034706D01*
X0282345Y0034550D01*
X0282371Y0034394D01*
X0282392Y0034237D01*
X0282410Y0034080D01*
X0282424Y0033922D01*
X0282434Y0033764D01*
X0282440Y0033606D01*
X0282442Y0033448D01*
X0282440Y0033290D01*
X0282434Y0033132D01*
X0282424Y0032974D01*
X0282410Y0032816D01*
X0282392Y0032659D01*
X0282371Y0032502D01*
X0282345Y0032346D01*
X0282315Y0032190D01*
X0282282Y0032035D01*
X0282244Y0031882D01*
X0282203Y0031729D01*
X0282158Y0031577D01*
X0282109Y0031426D01*
X0282056Y0031277D01*
X0282000Y0031129D01*
X0281940Y0030983D01*
X0281876Y0030838D01*
X0281808Y0030695D01*
X0281737Y0030553D01*
X0281663Y0030413D01*
X0281585Y0030276D01*
X0281503Y0030140D01*
X0281419Y0030006D01*
X0281330Y0029875D01*
X0281239Y0029746D01*
X0281144Y0029619D01*
X0281047Y0029494D01*
X0280946Y0029372D01*
X0280842Y0029253D01*
X0280735Y0029136D01*
X0280625Y0029022D01*
X0280512Y0028911D01*
X0280397Y0028802D01*
X0280279Y0028697D01*
X0280158Y0028595D01*
X0280035Y0028495D01*
X0279909Y0028399D01*
X0279781Y0028306D01*
X0279651Y0028216D01*
X0279518Y0028130D01*
X0279383Y0028046D01*
X0279247Y0027967D01*
X0279108Y0027890D01*
X0278967Y0027818D01*
X0278825Y0027748D01*
X0278681Y0027683D01*
X0278535Y0027621D01*
X0278388Y0027563D01*
X0278239Y0027508D01*
X0278089Y0027457D01*
X0277938Y0027410D01*
X0277786Y0027367D01*
X0277633Y0027328D01*
X0277478Y0027292D01*
X0277323Y0027261D01*
X0277167Y0027233D01*
X0277011Y0027209D01*
X0276854Y0027189D01*
X0276696Y0027173D01*
X0276539Y0027161D01*
X0276380Y0027153D01*
X0276222Y0027149D01*
X0276064Y0027149D01*
X0275906Y0027153D01*
X0275747Y0027161D01*
X0275590Y0027173D01*
X0275432Y0027189D01*
X0275275Y0027209D01*
X0275119Y0027233D01*
X0274963Y0027261D01*
X0274808Y0027292D01*
X0274653Y0027328D01*
X0274500Y0027367D01*
X0274348Y0027410D01*
X0274197Y0027457D01*
X0274047Y0027508D01*
X0273898Y0027563D01*
X0273751Y0027621D01*
X0273605Y0027683D01*
X0273461Y0027748D01*
X0273319Y0027818D01*
X0273178Y0027890D01*
X0273039Y0027967D01*
X0272903Y0028046D01*
X0272768Y0028130D01*
X0272635Y0028216D01*
X0272505Y0028306D01*
X0272377Y0028399D01*
X0272251Y0028495D01*
X0272128Y0028595D01*
X0272007Y0028697D01*
X0271889Y0028802D01*
X0271774Y0028911D01*
X0271661Y0029022D01*
X0271551Y0029136D01*
X0271444Y0029253D01*
X0271340Y0029372D01*
X0271239Y0029494D01*
X0271142Y0029619D01*
X0271047Y0029746D01*
X0270956Y0029875D01*
X0270867Y0030006D01*
X0270783Y0030140D01*
X0270701Y0030276D01*
X0270623Y0030413D01*
X0270549Y0030553D01*
X0270478Y0030695D01*
X0270410Y0030838D01*
X0270346Y0030983D01*
X0270286Y0031129D01*
X0270230Y0031277D01*
X0270177Y0031426D01*
X0270128Y0031577D01*
X0270083Y0031729D01*
X0270042Y0031882D01*
X0270004Y0032035D01*
X0269971Y0032190D01*
X0269941Y0032346D01*
X0269915Y0032502D01*
X0269894Y0032659D01*
X0269876Y0032816D01*
X0269862Y0032974D01*
X0269852Y0033132D01*
X0269846Y0033290D01*
X0269844Y0033448D01*
X0280080Y0017700D02*
X0291891Y0029511D01*
X0291891Y0281480D01*
X0280080Y0293291D01*
X0028111Y0293291D01*
X0016300Y0281480D01*
X0016300Y0029511D01*
X0028111Y0017700D01*
X0280080Y0017700D01*
X0191103Y0238172D02*
X0191105Y0238330D01*
X0191111Y0238488D01*
X0191121Y0238646D01*
X0191135Y0238804D01*
X0191153Y0238961D01*
X0191174Y0239118D01*
X0191200Y0239274D01*
X0191230Y0239430D01*
X0191263Y0239585D01*
X0191301Y0239738D01*
X0191342Y0239891D01*
X0191387Y0240043D01*
X0191436Y0240194D01*
X0191489Y0240343D01*
X0191545Y0240491D01*
X0191605Y0240637D01*
X0191669Y0240782D01*
X0191737Y0240925D01*
X0191808Y0241067D01*
X0191882Y0241207D01*
X0191960Y0241344D01*
X0192042Y0241480D01*
X0192126Y0241614D01*
X0192215Y0241745D01*
X0192306Y0241874D01*
X0192401Y0242001D01*
X0192498Y0242126D01*
X0192599Y0242248D01*
X0192703Y0242367D01*
X0192810Y0242484D01*
X0192920Y0242598D01*
X0193033Y0242709D01*
X0193148Y0242818D01*
X0193266Y0242923D01*
X0193387Y0243025D01*
X0193510Y0243125D01*
X0193636Y0243221D01*
X0193764Y0243314D01*
X0193894Y0243404D01*
X0194027Y0243490D01*
X0194162Y0243574D01*
X0194298Y0243653D01*
X0194437Y0243730D01*
X0194578Y0243802D01*
X0194720Y0243872D01*
X0194864Y0243937D01*
X0195010Y0243999D01*
X0195157Y0244057D01*
X0195306Y0244112D01*
X0195456Y0244163D01*
X0195607Y0244210D01*
X0195759Y0244253D01*
X0195912Y0244292D01*
X0196067Y0244328D01*
X0196222Y0244359D01*
X0196378Y0244387D01*
X0196534Y0244411D01*
X0196691Y0244431D01*
X0196849Y0244447D01*
X0197006Y0244459D01*
X0197165Y0244467D01*
X0197323Y0244471D01*
X0197481Y0244471D01*
X0197639Y0244467D01*
X0197798Y0244459D01*
X0197955Y0244447D01*
X0198113Y0244431D01*
X0198270Y0244411D01*
X0198426Y0244387D01*
X0198582Y0244359D01*
X0198737Y0244328D01*
X0198892Y0244292D01*
X0199045Y0244253D01*
X0199197Y0244210D01*
X0199348Y0244163D01*
X0199498Y0244112D01*
X0199647Y0244057D01*
X0199794Y0243999D01*
X0199940Y0243937D01*
X0200084Y0243872D01*
X0200226Y0243802D01*
X0200367Y0243730D01*
X0200506Y0243653D01*
X0200642Y0243574D01*
X0200777Y0243490D01*
X0200910Y0243404D01*
X0201040Y0243314D01*
X0201168Y0243221D01*
X0201294Y0243125D01*
X0201417Y0243025D01*
X0201538Y0242923D01*
X0201656Y0242818D01*
X0201771Y0242709D01*
X0201884Y0242598D01*
X0201994Y0242484D01*
X0202101Y0242367D01*
X0202205Y0242248D01*
X0202306Y0242126D01*
X0202403Y0242001D01*
X0202498Y0241874D01*
X0202589Y0241745D01*
X0202678Y0241614D01*
X0202762Y0241480D01*
X0202844Y0241344D01*
X0202922Y0241207D01*
X0202996Y0241067D01*
X0203067Y0240925D01*
X0203135Y0240782D01*
X0203199Y0240637D01*
X0203259Y0240491D01*
X0203315Y0240343D01*
X0203368Y0240194D01*
X0203417Y0240043D01*
X0203462Y0239891D01*
X0203503Y0239738D01*
X0203541Y0239585D01*
X0203574Y0239430D01*
X0203604Y0239274D01*
X0203630Y0239118D01*
X0203651Y0238961D01*
X0203669Y0238804D01*
X0203683Y0238646D01*
X0203693Y0238488D01*
X0203699Y0238330D01*
X0203701Y0238172D01*
X0203699Y0238014D01*
X0203693Y0237856D01*
X0203683Y0237698D01*
X0203669Y0237540D01*
X0203651Y0237383D01*
X0203630Y0237226D01*
X0203604Y0237070D01*
X0203574Y0236914D01*
X0203541Y0236759D01*
X0203503Y0236606D01*
X0203462Y0236453D01*
X0203417Y0236301D01*
X0203368Y0236150D01*
X0203315Y0236001D01*
X0203259Y0235853D01*
X0203199Y0235707D01*
X0203135Y0235562D01*
X0203067Y0235419D01*
X0202996Y0235277D01*
X0202922Y0235137D01*
X0202844Y0235000D01*
X0202762Y0234864D01*
X0202678Y0234730D01*
X0202589Y0234599D01*
X0202498Y0234470D01*
X0202403Y0234343D01*
X0202306Y0234218D01*
X0202205Y0234096D01*
X0202101Y0233977D01*
X0201994Y0233860D01*
X0201884Y0233746D01*
X0201771Y0233635D01*
X0201656Y0233526D01*
X0201538Y0233421D01*
X0201417Y0233319D01*
X0201294Y0233219D01*
X0201168Y0233123D01*
X0201040Y0233030D01*
X0200910Y0232940D01*
X0200777Y0232854D01*
X0200642Y0232770D01*
X0200506Y0232691D01*
X0200367Y0232614D01*
X0200226Y0232542D01*
X0200084Y0232472D01*
X0199940Y0232407D01*
X0199794Y0232345D01*
X0199647Y0232287D01*
X0199498Y0232232D01*
X0199348Y0232181D01*
X0199197Y0232134D01*
X0199045Y0232091D01*
X0198892Y0232052D01*
X0198737Y0232016D01*
X0198582Y0231985D01*
X0198426Y0231957D01*
X0198270Y0231933D01*
X0198113Y0231913D01*
X0197955Y0231897D01*
X0197798Y0231885D01*
X0197639Y0231877D01*
X0197481Y0231873D01*
X0197323Y0231873D01*
X0197165Y0231877D01*
X0197006Y0231885D01*
X0196849Y0231897D01*
X0196691Y0231913D01*
X0196534Y0231933D01*
X0196378Y0231957D01*
X0196222Y0231985D01*
X0196067Y0232016D01*
X0195912Y0232052D01*
X0195759Y0232091D01*
X0195607Y0232134D01*
X0195456Y0232181D01*
X0195306Y0232232D01*
X0195157Y0232287D01*
X0195010Y0232345D01*
X0194864Y0232407D01*
X0194720Y0232472D01*
X0194578Y0232542D01*
X0194437Y0232614D01*
X0194298Y0232691D01*
X0194162Y0232770D01*
X0194027Y0232854D01*
X0193894Y0232940D01*
X0193764Y0233030D01*
X0193636Y0233123D01*
X0193510Y0233219D01*
X0193387Y0233319D01*
X0193266Y0233421D01*
X0193148Y0233526D01*
X0193033Y0233635D01*
X0192920Y0233746D01*
X0192810Y0233860D01*
X0192703Y0233977D01*
X0192599Y0234096D01*
X0192498Y0234218D01*
X0192401Y0234343D01*
X0192306Y0234470D01*
X0192215Y0234599D01*
X0192126Y0234730D01*
X0192042Y0234864D01*
X0191960Y0235000D01*
X0191882Y0235137D01*
X0191808Y0235277D01*
X0191737Y0235419D01*
X0191669Y0235562D01*
X0191605Y0235707D01*
X0191545Y0235853D01*
X0191489Y0236001D01*
X0191436Y0236150D01*
X0191387Y0236301D01*
X0191342Y0236453D01*
X0191301Y0236606D01*
X0191263Y0236759D01*
X0191230Y0236914D01*
X0191200Y0237070D01*
X0191174Y0237226D01*
X0191153Y0237383D01*
X0191135Y0237540D01*
X0191121Y0237698D01*
X0191111Y0237856D01*
X0191105Y0238014D01*
X0191103Y0238172D01*
X0269844Y0277543D02*
X0269846Y0277701D01*
X0269852Y0277859D01*
X0269862Y0278017D01*
X0269876Y0278175D01*
X0269894Y0278332D01*
X0269915Y0278489D01*
X0269941Y0278645D01*
X0269971Y0278801D01*
X0270004Y0278956D01*
X0270042Y0279109D01*
X0270083Y0279262D01*
X0270128Y0279414D01*
X0270177Y0279565D01*
X0270230Y0279714D01*
X0270286Y0279862D01*
X0270346Y0280008D01*
X0270410Y0280153D01*
X0270478Y0280296D01*
X0270549Y0280438D01*
X0270623Y0280578D01*
X0270701Y0280715D01*
X0270783Y0280851D01*
X0270867Y0280985D01*
X0270956Y0281116D01*
X0271047Y0281245D01*
X0271142Y0281372D01*
X0271239Y0281497D01*
X0271340Y0281619D01*
X0271444Y0281738D01*
X0271551Y0281855D01*
X0271661Y0281969D01*
X0271774Y0282080D01*
X0271889Y0282189D01*
X0272007Y0282294D01*
X0272128Y0282396D01*
X0272251Y0282496D01*
X0272377Y0282592D01*
X0272505Y0282685D01*
X0272635Y0282775D01*
X0272768Y0282861D01*
X0272903Y0282945D01*
X0273039Y0283024D01*
X0273178Y0283101D01*
X0273319Y0283173D01*
X0273461Y0283243D01*
X0273605Y0283308D01*
X0273751Y0283370D01*
X0273898Y0283428D01*
X0274047Y0283483D01*
X0274197Y0283534D01*
X0274348Y0283581D01*
X0274500Y0283624D01*
X0274653Y0283663D01*
X0274808Y0283699D01*
X0274963Y0283730D01*
X0275119Y0283758D01*
X0275275Y0283782D01*
X0275432Y0283802D01*
X0275590Y0283818D01*
X0275747Y0283830D01*
X0275906Y0283838D01*
X0276064Y0283842D01*
X0276222Y0283842D01*
X0276380Y0283838D01*
X0276539Y0283830D01*
X0276696Y0283818D01*
X0276854Y0283802D01*
X0277011Y0283782D01*
X0277167Y0283758D01*
X0277323Y0283730D01*
X0277478Y0283699D01*
X0277633Y0283663D01*
X0277786Y0283624D01*
X0277938Y0283581D01*
X0278089Y0283534D01*
X0278239Y0283483D01*
X0278388Y0283428D01*
X0278535Y0283370D01*
X0278681Y0283308D01*
X0278825Y0283243D01*
X0278967Y0283173D01*
X0279108Y0283101D01*
X0279247Y0283024D01*
X0279383Y0282945D01*
X0279518Y0282861D01*
X0279651Y0282775D01*
X0279781Y0282685D01*
X0279909Y0282592D01*
X0280035Y0282496D01*
X0280158Y0282396D01*
X0280279Y0282294D01*
X0280397Y0282189D01*
X0280512Y0282080D01*
X0280625Y0281969D01*
X0280735Y0281855D01*
X0280842Y0281738D01*
X0280946Y0281619D01*
X0281047Y0281497D01*
X0281144Y0281372D01*
X0281239Y0281245D01*
X0281330Y0281116D01*
X0281419Y0280985D01*
X0281503Y0280851D01*
X0281585Y0280715D01*
X0281663Y0280578D01*
X0281737Y0280438D01*
X0281808Y0280296D01*
X0281876Y0280153D01*
X0281940Y0280008D01*
X0282000Y0279862D01*
X0282056Y0279714D01*
X0282109Y0279565D01*
X0282158Y0279414D01*
X0282203Y0279262D01*
X0282244Y0279109D01*
X0282282Y0278956D01*
X0282315Y0278801D01*
X0282345Y0278645D01*
X0282371Y0278489D01*
X0282392Y0278332D01*
X0282410Y0278175D01*
X0282424Y0278017D01*
X0282434Y0277859D01*
X0282440Y0277701D01*
X0282442Y0277543D01*
X0282440Y0277385D01*
X0282434Y0277227D01*
X0282424Y0277069D01*
X0282410Y0276911D01*
X0282392Y0276754D01*
X0282371Y0276597D01*
X0282345Y0276441D01*
X0282315Y0276285D01*
X0282282Y0276130D01*
X0282244Y0275977D01*
X0282203Y0275824D01*
X0282158Y0275672D01*
X0282109Y0275521D01*
X0282056Y0275372D01*
X0282000Y0275224D01*
X0281940Y0275078D01*
X0281876Y0274933D01*
X0281808Y0274790D01*
X0281737Y0274648D01*
X0281663Y0274508D01*
X0281585Y0274371D01*
X0281503Y0274235D01*
X0281419Y0274101D01*
X0281330Y0273970D01*
X0281239Y0273841D01*
X0281144Y0273714D01*
X0281047Y0273589D01*
X0280946Y0273467D01*
X0280842Y0273348D01*
X0280735Y0273231D01*
X0280625Y0273117D01*
X0280512Y0273006D01*
X0280397Y0272897D01*
X0280279Y0272792D01*
X0280158Y0272690D01*
X0280035Y0272590D01*
X0279909Y0272494D01*
X0279781Y0272401D01*
X0279651Y0272311D01*
X0279518Y0272225D01*
X0279383Y0272141D01*
X0279247Y0272062D01*
X0279108Y0271985D01*
X0278967Y0271913D01*
X0278825Y0271843D01*
X0278681Y0271778D01*
X0278535Y0271716D01*
X0278388Y0271658D01*
X0278239Y0271603D01*
X0278089Y0271552D01*
X0277938Y0271505D01*
X0277786Y0271462D01*
X0277633Y0271423D01*
X0277478Y0271387D01*
X0277323Y0271356D01*
X0277167Y0271328D01*
X0277011Y0271304D01*
X0276854Y0271284D01*
X0276696Y0271268D01*
X0276539Y0271256D01*
X0276380Y0271248D01*
X0276222Y0271244D01*
X0276064Y0271244D01*
X0275906Y0271248D01*
X0275747Y0271256D01*
X0275590Y0271268D01*
X0275432Y0271284D01*
X0275275Y0271304D01*
X0275119Y0271328D01*
X0274963Y0271356D01*
X0274808Y0271387D01*
X0274653Y0271423D01*
X0274500Y0271462D01*
X0274348Y0271505D01*
X0274197Y0271552D01*
X0274047Y0271603D01*
X0273898Y0271658D01*
X0273751Y0271716D01*
X0273605Y0271778D01*
X0273461Y0271843D01*
X0273319Y0271913D01*
X0273178Y0271985D01*
X0273039Y0272062D01*
X0272903Y0272141D01*
X0272768Y0272225D01*
X0272635Y0272311D01*
X0272505Y0272401D01*
X0272377Y0272494D01*
X0272251Y0272590D01*
X0272128Y0272690D01*
X0272007Y0272792D01*
X0271889Y0272897D01*
X0271774Y0273006D01*
X0271661Y0273117D01*
X0271551Y0273231D01*
X0271444Y0273348D01*
X0271340Y0273467D01*
X0271239Y0273589D01*
X0271142Y0273714D01*
X0271047Y0273841D01*
X0270956Y0273970D01*
X0270867Y0274101D01*
X0270783Y0274235D01*
X0270701Y0274371D01*
X0270623Y0274508D01*
X0270549Y0274648D01*
X0270478Y0274790D01*
X0270410Y0274933D01*
X0270346Y0275078D01*
X0270286Y0275224D01*
X0270230Y0275372D01*
X0270177Y0275521D01*
X0270128Y0275672D01*
X0270083Y0275824D01*
X0270042Y0275977D01*
X0270004Y0276130D01*
X0269971Y0276285D01*
X0269941Y0276441D01*
X0269915Y0276597D01*
X0269894Y0276754D01*
X0269876Y0276911D01*
X0269862Y0277069D01*
X0269852Y0277227D01*
X0269846Y0277385D01*
X0269844Y0277543D01*
X0025749Y0277543D02*
X0025751Y0277701D01*
X0025757Y0277859D01*
X0025767Y0278017D01*
X0025781Y0278175D01*
X0025799Y0278332D01*
X0025820Y0278489D01*
X0025846Y0278645D01*
X0025876Y0278801D01*
X0025909Y0278956D01*
X0025947Y0279109D01*
X0025988Y0279262D01*
X0026033Y0279414D01*
X0026082Y0279565D01*
X0026135Y0279714D01*
X0026191Y0279862D01*
X0026251Y0280008D01*
X0026315Y0280153D01*
X0026383Y0280296D01*
X0026454Y0280438D01*
X0026528Y0280578D01*
X0026606Y0280715D01*
X0026688Y0280851D01*
X0026772Y0280985D01*
X0026861Y0281116D01*
X0026952Y0281245D01*
X0027047Y0281372D01*
X0027144Y0281497D01*
X0027245Y0281619D01*
X0027349Y0281738D01*
X0027456Y0281855D01*
X0027566Y0281969D01*
X0027679Y0282080D01*
X0027794Y0282189D01*
X0027912Y0282294D01*
X0028033Y0282396D01*
X0028156Y0282496D01*
X0028282Y0282592D01*
X0028410Y0282685D01*
X0028540Y0282775D01*
X0028673Y0282861D01*
X0028808Y0282945D01*
X0028944Y0283024D01*
X0029083Y0283101D01*
X0029224Y0283173D01*
X0029366Y0283243D01*
X0029510Y0283308D01*
X0029656Y0283370D01*
X0029803Y0283428D01*
X0029952Y0283483D01*
X0030102Y0283534D01*
X0030253Y0283581D01*
X0030405Y0283624D01*
X0030558Y0283663D01*
X0030713Y0283699D01*
X0030868Y0283730D01*
X0031024Y0283758D01*
X0031180Y0283782D01*
X0031337Y0283802D01*
X0031495Y0283818D01*
X0031652Y0283830D01*
X0031811Y0283838D01*
X0031969Y0283842D01*
X0032127Y0283842D01*
X0032285Y0283838D01*
X0032444Y0283830D01*
X0032601Y0283818D01*
X0032759Y0283802D01*
X0032916Y0283782D01*
X0033072Y0283758D01*
X0033228Y0283730D01*
X0033383Y0283699D01*
X0033538Y0283663D01*
X0033691Y0283624D01*
X0033843Y0283581D01*
X0033994Y0283534D01*
X0034144Y0283483D01*
X0034293Y0283428D01*
X0034440Y0283370D01*
X0034586Y0283308D01*
X0034730Y0283243D01*
X0034872Y0283173D01*
X0035013Y0283101D01*
X0035152Y0283024D01*
X0035288Y0282945D01*
X0035423Y0282861D01*
X0035556Y0282775D01*
X0035686Y0282685D01*
X0035814Y0282592D01*
X0035940Y0282496D01*
X0036063Y0282396D01*
X0036184Y0282294D01*
X0036302Y0282189D01*
X0036417Y0282080D01*
X0036530Y0281969D01*
X0036640Y0281855D01*
X0036747Y0281738D01*
X0036851Y0281619D01*
X0036952Y0281497D01*
X0037049Y0281372D01*
X0037144Y0281245D01*
X0037235Y0281116D01*
X0037324Y0280985D01*
X0037408Y0280851D01*
X0037490Y0280715D01*
X0037568Y0280578D01*
X0037642Y0280438D01*
X0037713Y0280296D01*
X0037781Y0280153D01*
X0037845Y0280008D01*
X0037905Y0279862D01*
X0037961Y0279714D01*
X0038014Y0279565D01*
X0038063Y0279414D01*
X0038108Y0279262D01*
X0038149Y0279109D01*
X0038187Y0278956D01*
X0038220Y0278801D01*
X0038250Y0278645D01*
X0038276Y0278489D01*
X0038297Y0278332D01*
X0038315Y0278175D01*
X0038329Y0278017D01*
X0038339Y0277859D01*
X0038345Y0277701D01*
X0038347Y0277543D01*
X0038345Y0277385D01*
X0038339Y0277227D01*
X0038329Y0277069D01*
X0038315Y0276911D01*
X0038297Y0276754D01*
X0038276Y0276597D01*
X0038250Y0276441D01*
X0038220Y0276285D01*
X0038187Y0276130D01*
X0038149Y0275977D01*
X0038108Y0275824D01*
X0038063Y0275672D01*
X0038014Y0275521D01*
X0037961Y0275372D01*
X0037905Y0275224D01*
X0037845Y0275078D01*
X0037781Y0274933D01*
X0037713Y0274790D01*
X0037642Y0274648D01*
X0037568Y0274508D01*
X0037490Y0274371D01*
X0037408Y0274235D01*
X0037324Y0274101D01*
X0037235Y0273970D01*
X0037144Y0273841D01*
X0037049Y0273714D01*
X0036952Y0273589D01*
X0036851Y0273467D01*
X0036747Y0273348D01*
X0036640Y0273231D01*
X0036530Y0273117D01*
X0036417Y0273006D01*
X0036302Y0272897D01*
X0036184Y0272792D01*
X0036063Y0272690D01*
X0035940Y0272590D01*
X0035814Y0272494D01*
X0035686Y0272401D01*
X0035556Y0272311D01*
X0035423Y0272225D01*
X0035288Y0272141D01*
X0035152Y0272062D01*
X0035013Y0271985D01*
X0034872Y0271913D01*
X0034730Y0271843D01*
X0034586Y0271778D01*
X0034440Y0271716D01*
X0034293Y0271658D01*
X0034144Y0271603D01*
X0033994Y0271552D01*
X0033843Y0271505D01*
X0033691Y0271462D01*
X0033538Y0271423D01*
X0033383Y0271387D01*
X0033228Y0271356D01*
X0033072Y0271328D01*
X0032916Y0271304D01*
X0032759Y0271284D01*
X0032601Y0271268D01*
X0032444Y0271256D01*
X0032285Y0271248D01*
X0032127Y0271244D01*
X0031969Y0271244D01*
X0031811Y0271248D01*
X0031652Y0271256D01*
X0031495Y0271268D01*
X0031337Y0271284D01*
X0031180Y0271304D01*
X0031024Y0271328D01*
X0030868Y0271356D01*
X0030713Y0271387D01*
X0030558Y0271423D01*
X0030405Y0271462D01*
X0030253Y0271505D01*
X0030102Y0271552D01*
X0029952Y0271603D01*
X0029803Y0271658D01*
X0029656Y0271716D01*
X0029510Y0271778D01*
X0029366Y0271843D01*
X0029224Y0271913D01*
X0029083Y0271985D01*
X0028944Y0272062D01*
X0028808Y0272141D01*
X0028673Y0272225D01*
X0028540Y0272311D01*
X0028410Y0272401D01*
X0028282Y0272494D01*
X0028156Y0272590D01*
X0028033Y0272690D01*
X0027912Y0272792D01*
X0027794Y0272897D01*
X0027679Y0273006D01*
X0027566Y0273117D01*
X0027456Y0273231D01*
X0027349Y0273348D01*
X0027245Y0273467D01*
X0027144Y0273589D01*
X0027047Y0273714D01*
X0026952Y0273841D01*
X0026861Y0273970D01*
X0026772Y0274101D01*
X0026688Y0274235D01*
X0026606Y0274371D01*
X0026528Y0274508D01*
X0026454Y0274648D01*
X0026383Y0274790D01*
X0026315Y0274933D01*
X0026251Y0275078D01*
X0026191Y0275224D01*
X0026135Y0275372D01*
X0026082Y0275521D01*
X0026033Y0275672D01*
X0025988Y0275824D01*
X0025947Y0275977D01*
X0025909Y0276130D01*
X0025876Y0276285D01*
X0025846Y0276441D01*
X0025820Y0276597D01*
X0025799Y0276754D01*
X0025781Y0276911D01*
X0025767Y0277069D01*
X0025757Y0277227D01*
X0025751Y0277385D01*
X0025749Y0277543D01*
X0025749Y0238172D02*
X0025751Y0238330D01*
X0025757Y0238488D01*
X0025767Y0238646D01*
X0025781Y0238804D01*
X0025799Y0238961D01*
X0025820Y0239118D01*
X0025846Y0239274D01*
X0025876Y0239430D01*
X0025909Y0239585D01*
X0025947Y0239738D01*
X0025988Y0239891D01*
X0026033Y0240043D01*
X0026082Y0240194D01*
X0026135Y0240343D01*
X0026191Y0240491D01*
X0026251Y0240637D01*
X0026315Y0240782D01*
X0026383Y0240925D01*
X0026454Y0241067D01*
X0026528Y0241207D01*
X0026606Y0241344D01*
X0026688Y0241480D01*
X0026772Y0241614D01*
X0026861Y0241745D01*
X0026952Y0241874D01*
X0027047Y0242001D01*
X0027144Y0242126D01*
X0027245Y0242248D01*
X0027349Y0242367D01*
X0027456Y0242484D01*
X0027566Y0242598D01*
X0027679Y0242709D01*
X0027794Y0242818D01*
X0027912Y0242923D01*
X0028033Y0243025D01*
X0028156Y0243125D01*
X0028282Y0243221D01*
X0028410Y0243314D01*
X0028540Y0243404D01*
X0028673Y0243490D01*
X0028808Y0243574D01*
X0028944Y0243653D01*
X0029083Y0243730D01*
X0029224Y0243802D01*
X0029366Y0243872D01*
X0029510Y0243937D01*
X0029656Y0243999D01*
X0029803Y0244057D01*
X0029952Y0244112D01*
X0030102Y0244163D01*
X0030253Y0244210D01*
X0030405Y0244253D01*
X0030558Y0244292D01*
X0030713Y0244328D01*
X0030868Y0244359D01*
X0031024Y0244387D01*
X0031180Y0244411D01*
X0031337Y0244431D01*
X0031495Y0244447D01*
X0031652Y0244459D01*
X0031811Y0244467D01*
X0031969Y0244471D01*
X0032127Y0244471D01*
X0032285Y0244467D01*
X0032444Y0244459D01*
X0032601Y0244447D01*
X0032759Y0244431D01*
X0032916Y0244411D01*
X0033072Y0244387D01*
X0033228Y0244359D01*
X0033383Y0244328D01*
X0033538Y0244292D01*
X0033691Y0244253D01*
X0033843Y0244210D01*
X0033994Y0244163D01*
X0034144Y0244112D01*
X0034293Y0244057D01*
X0034440Y0243999D01*
X0034586Y0243937D01*
X0034730Y0243872D01*
X0034872Y0243802D01*
X0035013Y0243730D01*
X0035152Y0243653D01*
X0035288Y0243574D01*
X0035423Y0243490D01*
X0035556Y0243404D01*
X0035686Y0243314D01*
X0035814Y0243221D01*
X0035940Y0243125D01*
X0036063Y0243025D01*
X0036184Y0242923D01*
X0036302Y0242818D01*
X0036417Y0242709D01*
X0036530Y0242598D01*
X0036640Y0242484D01*
X0036747Y0242367D01*
X0036851Y0242248D01*
X0036952Y0242126D01*
X0037049Y0242001D01*
X0037144Y0241874D01*
X0037235Y0241745D01*
X0037324Y0241614D01*
X0037408Y0241480D01*
X0037490Y0241344D01*
X0037568Y0241207D01*
X0037642Y0241067D01*
X0037713Y0240925D01*
X0037781Y0240782D01*
X0037845Y0240637D01*
X0037905Y0240491D01*
X0037961Y0240343D01*
X0038014Y0240194D01*
X0038063Y0240043D01*
X0038108Y0239891D01*
X0038149Y0239738D01*
X0038187Y0239585D01*
X0038220Y0239430D01*
X0038250Y0239274D01*
X0038276Y0239118D01*
X0038297Y0238961D01*
X0038315Y0238804D01*
X0038329Y0238646D01*
X0038339Y0238488D01*
X0038345Y0238330D01*
X0038347Y0238172D01*
X0038345Y0238014D01*
X0038339Y0237856D01*
X0038329Y0237698D01*
X0038315Y0237540D01*
X0038297Y0237383D01*
X0038276Y0237226D01*
X0038250Y0237070D01*
X0038220Y0236914D01*
X0038187Y0236759D01*
X0038149Y0236606D01*
X0038108Y0236453D01*
X0038063Y0236301D01*
X0038014Y0236150D01*
X0037961Y0236001D01*
X0037905Y0235853D01*
X0037845Y0235707D01*
X0037781Y0235562D01*
X0037713Y0235419D01*
X0037642Y0235277D01*
X0037568Y0235137D01*
X0037490Y0235000D01*
X0037408Y0234864D01*
X0037324Y0234730D01*
X0037235Y0234599D01*
X0037144Y0234470D01*
X0037049Y0234343D01*
X0036952Y0234218D01*
X0036851Y0234096D01*
X0036747Y0233977D01*
X0036640Y0233860D01*
X0036530Y0233746D01*
X0036417Y0233635D01*
X0036302Y0233526D01*
X0036184Y0233421D01*
X0036063Y0233319D01*
X0035940Y0233219D01*
X0035814Y0233123D01*
X0035686Y0233030D01*
X0035556Y0232940D01*
X0035423Y0232854D01*
X0035288Y0232770D01*
X0035152Y0232691D01*
X0035013Y0232614D01*
X0034872Y0232542D01*
X0034730Y0232472D01*
X0034586Y0232407D01*
X0034440Y0232345D01*
X0034293Y0232287D01*
X0034144Y0232232D01*
X0033994Y0232181D01*
X0033843Y0232134D01*
X0033691Y0232091D01*
X0033538Y0232052D01*
X0033383Y0232016D01*
X0033228Y0231985D01*
X0033072Y0231957D01*
X0032916Y0231933D01*
X0032759Y0231913D01*
X0032601Y0231897D01*
X0032444Y0231885D01*
X0032285Y0231877D01*
X0032127Y0231873D01*
X0031969Y0231873D01*
X0031811Y0231877D01*
X0031652Y0231885D01*
X0031495Y0231897D01*
X0031337Y0231913D01*
X0031180Y0231933D01*
X0031024Y0231957D01*
X0030868Y0231985D01*
X0030713Y0232016D01*
X0030558Y0232052D01*
X0030405Y0232091D01*
X0030253Y0232134D01*
X0030102Y0232181D01*
X0029952Y0232232D01*
X0029803Y0232287D01*
X0029656Y0232345D01*
X0029510Y0232407D01*
X0029366Y0232472D01*
X0029224Y0232542D01*
X0029083Y0232614D01*
X0028944Y0232691D01*
X0028808Y0232770D01*
X0028673Y0232854D01*
X0028540Y0232940D01*
X0028410Y0233030D01*
X0028282Y0233123D01*
X0028156Y0233219D01*
X0028033Y0233319D01*
X0027912Y0233421D01*
X0027794Y0233526D01*
X0027679Y0233635D01*
X0027566Y0233746D01*
X0027456Y0233860D01*
X0027349Y0233977D01*
X0027245Y0234096D01*
X0027144Y0234218D01*
X0027047Y0234343D01*
X0026952Y0234470D01*
X0026861Y0234599D01*
X0026772Y0234730D01*
X0026688Y0234864D01*
X0026606Y0235000D01*
X0026528Y0235137D01*
X0026454Y0235277D01*
X0026383Y0235419D01*
X0026315Y0235562D01*
X0026251Y0235707D01*
X0026191Y0235853D01*
X0026135Y0236001D01*
X0026082Y0236150D01*
X0026033Y0236301D01*
X0025988Y0236453D01*
X0025947Y0236606D01*
X0025909Y0236759D01*
X0025876Y0236914D01*
X0025846Y0237070D01*
X0025820Y0237226D01*
X0025799Y0237383D01*
X0025781Y0237540D01*
X0025767Y0237698D01*
X0025757Y0237856D01*
X0025751Y0238014D01*
X0025749Y0238172D01*
X0025749Y0072818D02*
X0025751Y0072976D01*
X0025757Y0073134D01*
X0025767Y0073292D01*
X0025781Y0073450D01*
X0025799Y0073607D01*
X0025820Y0073764D01*
X0025846Y0073920D01*
X0025876Y0074076D01*
X0025909Y0074231D01*
X0025947Y0074384D01*
X0025988Y0074537D01*
X0026033Y0074689D01*
X0026082Y0074840D01*
X0026135Y0074989D01*
X0026191Y0075137D01*
X0026251Y0075283D01*
X0026315Y0075428D01*
X0026383Y0075571D01*
X0026454Y0075713D01*
X0026528Y0075853D01*
X0026606Y0075990D01*
X0026688Y0076126D01*
X0026772Y0076260D01*
X0026861Y0076391D01*
X0026952Y0076520D01*
X0027047Y0076647D01*
X0027144Y0076772D01*
X0027245Y0076894D01*
X0027349Y0077013D01*
X0027456Y0077130D01*
X0027566Y0077244D01*
X0027679Y0077355D01*
X0027794Y0077464D01*
X0027912Y0077569D01*
X0028033Y0077671D01*
X0028156Y0077771D01*
X0028282Y0077867D01*
X0028410Y0077960D01*
X0028540Y0078050D01*
X0028673Y0078136D01*
X0028808Y0078220D01*
X0028944Y0078299D01*
X0029083Y0078376D01*
X0029224Y0078448D01*
X0029366Y0078518D01*
X0029510Y0078583D01*
X0029656Y0078645D01*
X0029803Y0078703D01*
X0029952Y0078758D01*
X0030102Y0078809D01*
X0030253Y0078856D01*
X0030405Y0078899D01*
X0030558Y0078938D01*
X0030713Y0078974D01*
X0030868Y0079005D01*
X0031024Y0079033D01*
X0031180Y0079057D01*
X0031337Y0079077D01*
X0031495Y0079093D01*
X0031652Y0079105D01*
X0031811Y0079113D01*
X0031969Y0079117D01*
X0032127Y0079117D01*
X0032285Y0079113D01*
X0032444Y0079105D01*
X0032601Y0079093D01*
X0032759Y0079077D01*
X0032916Y0079057D01*
X0033072Y0079033D01*
X0033228Y0079005D01*
X0033383Y0078974D01*
X0033538Y0078938D01*
X0033691Y0078899D01*
X0033843Y0078856D01*
X0033994Y0078809D01*
X0034144Y0078758D01*
X0034293Y0078703D01*
X0034440Y0078645D01*
X0034586Y0078583D01*
X0034730Y0078518D01*
X0034872Y0078448D01*
X0035013Y0078376D01*
X0035152Y0078299D01*
X0035288Y0078220D01*
X0035423Y0078136D01*
X0035556Y0078050D01*
X0035686Y0077960D01*
X0035814Y0077867D01*
X0035940Y0077771D01*
X0036063Y0077671D01*
X0036184Y0077569D01*
X0036302Y0077464D01*
X0036417Y0077355D01*
X0036530Y0077244D01*
X0036640Y0077130D01*
X0036747Y0077013D01*
X0036851Y0076894D01*
X0036952Y0076772D01*
X0037049Y0076647D01*
X0037144Y0076520D01*
X0037235Y0076391D01*
X0037324Y0076260D01*
X0037408Y0076126D01*
X0037490Y0075990D01*
X0037568Y0075853D01*
X0037642Y0075713D01*
X0037713Y0075571D01*
X0037781Y0075428D01*
X0037845Y0075283D01*
X0037905Y0075137D01*
X0037961Y0074989D01*
X0038014Y0074840D01*
X0038063Y0074689D01*
X0038108Y0074537D01*
X0038149Y0074384D01*
X0038187Y0074231D01*
X0038220Y0074076D01*
X0038250Y0073920D01*
X0038276Y0073764D01*
X0038297Y0073607D01*
X0038315Y0073450D01*
X0038329Y0073292D01*
X0038339Y0073134D01*
X0038345Y0072976D01*
X0038347Y0072818D01*
X0038345Y0072660D01*
X0038339Y0072502D01*
X0038329Y0072344D01*
X0038315Y0072186D01*
X0038297Y0072029D01*
X0038276Y0071872D01*
X0038250Y0071716D01*
X0038220Y0071560D01*
X0038187Y0071405D01*
X0038149Y0071252D01*
X0038108Y0071099D01*
X0038063Y0070947D01*
X0038014Y0070796D01*
X0037961Y0070647D01*
X0037905Y0070499D01*
X0037845Y0070353D01*
X0037781Y0070208D01*
X0037713Y0070065D01*
X0037642Y0069923D01*
X0037568Y0069783D01*
X0037490Y0069646D01*
X0037408Y0069510D01*
X0037324Y0069376D01*
X0037235Y0069245D01*
X0037144Y0069116D01*
X0037049Y0068989D01*
X0036952Y0068864D01*
X0036851Y0068742D01*
X0036747Y0068623D01*
X0036640Y0068506D01*
X0036530Y0068392D01*
X0036417Y0068281D01*
X0036302Y0068172D01*
X0036184Y0068067D01*
X0036063Y0067965D01*
X0035940Y0067865D01*
X0035814Y0067769D01*
X0035686Y0067676D01*
X0035556Y0067586D01*
X0035423Y0067500D01*
X0035288Y0067416D01*
X0035152Y0067337D01*
X0035013Y0067260D01*
X0034872Y0067188D01*
X0034730Y0067118D01*
X0034586Y0067053D01*
X0034440Y0066991D01*
X0034293Y0066933D01*
X0034144Y0066878D01*
X0033994Y0066827D01*
X0033843Y0066780D01*
X0033691Y0066737D01*
X0033538Y0066698D01*
X0033383Y0066662D01*
X0033228Y0066631D01*
X0033072Y0066603D01*
X0032916Y0066579D01*
X0032759Y0066559D01*
X0032601Y0066543D01*
X0032444Y0066531D01*
X0032285Y0066523D01*
X0032127Y0066519D01*
X0031969Y0066519D01*
X0031811Y0066523D01*
X0031652Y0066531D01*
X0031495Y0066543D01*
X0031337Y0066559D01*
X0031180Y0066579D01*
X0031024Y0066603D01*
X0030868Y0066631D01*
X0030713Y0066662D01*
X0030558Y0066698D01*
X0030405Y0066737D01*
X0030253Y0066780D01*
X0030102Y0066827D01*
X0029952Y0066878D01*
X0029803Y0066933D01*
X0029656Y0066991D01*
X0029510Y0067053D01*
X0029366Y0067118D01*
X0029224Y0067188D01*
X0029083Y0067260D01*
X0028944Y0067337D01*
X0028808Y0067416D01*
X0028673Y0067500D01*
X0028540Y0067586D01*
X0028410Y0067676D01*
X0028282Y0067769D01*
X0028156Y0067865D01*
X0028033Y0067965D01*
X0027912Y0068067D01*
X0027794Y0068172D01*
X0027679Y0068281D01*
X0027566Y0068392D01*
X0027456Y0068506D01*
X0027349Y0068623D01*
X0027245Y0068742D01*
X0027144Y0068864D01*
X0027047Y0068989D01*
X0026952Y0069116D01*
X0026861Y0069245D01*
X0026772Y0069376D01*
X0026688Y0069510D01*
X0026606Y0069646D01*
X0026528Y0069783D01*
X0026454Y0069923D01*
X0026383Y0070065D01*
X0026315Y0070208D01*
X0026251Y0070353D01*
X0026191Y0070499D01*
X0026135Y0070647D01*
X0026082Y0070796D01*
X0026033Y0070947D01*
X0025988Y0071099D01*
X0025947Y0071252D01*
X0025909Y0071405D01*
X0025876Y0071560D01*
X0025846Y0071716D01*
X0025820Y0071872D01*
X0025799Y0072029D01*
X0025781Y0072186D01*
X0025767Y0072344D01*
X0025757Y0072502D01*
X0025751Y0072660D01*
X0025749Y0072818D01*
X0025749Y0033448D02*
X0025751Y0033606D01*
X0025757Y0033764D01*
X0025767Y0033922D01*
X0025781Y0034080D01*
X0025799Y0034237D01*
X0025820Y0034394D01*
X0025846Y0034550D01*
X0025876Y0034706D01*
X0025909Y0034861D01*
X0025947Y0035014D01*
X0025988Y0035167D01*
X0026033Y0035319D01*
X0026082Y0035470D01*
X0026135Y0035619D01*
X0026191Y0035767D01*
X0026251Y0035913D01*
X0026315Y0036058D01*
X0026383Y0036201D01*
X0026454Y0036343D01*
X0026528Y0036483D01*
X0026606Y0036620D01*
X0026688Y0036756D01*
X0026772Y0036890D01*
X0026861Y0037021D01*
X0026952Y0037150D01*
X0027047Y0037277D01*
X0027144Y0037402D01*
X0027245Y0037524D01*
X0027349Y0037643D01*
X0027456Y0037760D01*
X0027566Y0037874D01*
X0027679Y0037985D01*
X0027794Y0038094D01*
X0027912Y0038199D01*
X0028033Y0038301D01*
X0028156Y0038401D01*
X0028282Y0038497D01*
X0028410Y0038590D01*
X0028540Y0038680D01*
X0028673Y0038766D01*
X0028808Y0038850D01*
X0028944Y0038929D01*
X0029083Y0039006D01*
X0029224Y0039078D01*
X0029366Y0039148D01*
X0029510Y0039213D01*
X0029656Y0039275D01*
X0029803Y0039333D01*
X0029952Y0039388D01*
X0030102Y0039439D01*
X0030253Y0039486D01*
X0030405Y0039529D01*
X0030558Y0039568D01*
X0030713Y0039604D01*
X0030868Y0039635D01*
X0031024Y0039663D01*
X0031180Y0039687D01*
X0031337Y0039707D01*
X0031495Y0039723D01*
X0031652Y0039735D01*
X0031811Y0039743D01*
X0031969Y0039747D01*
X0032127Y0039747D01*
X0032285Y0039743D01*
X0032444Y0039735D01*
X0032601Y0039723D01*
X0032759Y0039707D01*
X0032916Y0039687D01*
X0033072Y0039663D01*
X0033228Y0039635D01*
X0033383Y0039604D01*
X0033538Y0039568D01*
X0033691Y0039529D01*
X0033843Y0039486D01*
X0033994Y0039439D01*
X0034144Y0039388D01*
X0034293Y0039333D01*
X0034440Y0039275D01*
X0034586Y0039213D01*
X0034730Y0039148D01*
X0034872Y0039078D01*
X0035013Y0039006D01*
X0035152Y0038929D01*
X0035288Y0038850D01*
X0035423Y0038766D01*
X0035556Y0038680D01*
X0035686Y0038590D01*
X0035814Y0038497D01*
X0035940Y0038401D01*
X0036063Y0038301D01*
X0036184Y0038199D01*
X0036302Y0038094D01*
X0036417Y0037985D01*
X0036530Y0037874D01*
X0036640Y0037760D01*
X0036747Y0037643D01*
X0036851Y0037524D01*
X0036952Y0037402D01*
X0037049Y0037277D01*
X0037144Y0037150D01*
X0037235Y0037021D01*
X0037324Y0036890D01*
X0037408Y0036756D01*
X0037490Y0036620D01*
X0037568Y0036483D01*
X0037642Y0036343D01*
X0037713Y0036201D01*
X0037781Y0036058D01*
X0037845Y0035913D01*
X0037905Y0035767D01*
X0037961Y0035619D01*
X0038014Y0035470D01*
X0038063Y0035319D01*
X0038108Y0035167D01*
X0038149Y0035014D01*
X0038187Y0034861D01*
X0038220Y0034706D01*
X0038250Y0034550D01*
X0038276Y0034394D01*
X0038297Y0034237D01*
X0038315Y0034080D01*
X0038329Y0033922D01*
X0038339Y0033764D01*
X0038345Y0033606D01*
X0038347Y0033448D01*
X0038345Y0033290D01*
X0038339Y0033132D01*
X0038329Y0032974D01*
X0038315Y0032816D01*
X0038297Y0032659D01*
X0038276Y0032502D01*
X0038250Y0032346D01*
X0038220Y0032190D01*
X0038187Y0032035D01*
X0038149Y0031882D01*
X0038108Y0031729D01*
X0038063Y0031577D01*
X0038014Y0031426D01*
X0037961Y0031277D01*
X0037905Y0031129D01*
X0037845Y0030983D01*
X0037781Y0030838D01*
X0037713Y0030695D01*
X0037642Y0030553D01*
X0037568Y0030413D01*
X0037490Y0030276D01*
X0037408Y0030140D01*
X0037324Y0030006D01*
X0037235Y0029875D01*
X0037144Y0029746D01*
X0037049Y0029619D01*
X0036952Y0029494D01*
X0036851Y0029372D01*
X0036747Y0029253D01*
X0036640Y0029136D01*
X0036530Y0029022D01*
X0036417Y0028911D01*
X0036302Y0028802D01*
X0036184Y0028697D01*
X0036063Y0028595D01*
X0035940Y0028495D01*
X0035814Y0028399D01*
X0035686Y0028306D01*
X0035556Y0028216D01*
X0035423Y0028130D01*
X0035288Y0028046D01*
X0035152Y0027967D01*
X0035013Y0027890D01*
X0034872Y0027818D01*
X0034730Y0027748D01*
X0034586Y0027683D01*
X0034440Y0027621D01*
X0034293Y0027563D01*
X0034144Y0027508D01*
X0033994Y0027457D01*
X0033843Y0027410D01*
X0033691Y0027367D01*
X0033538Y0027328D01*
X0033383Y0027292D01*
X0033228Y0027261D01*
X0033072Y0027233D01*
X0032916Y0027209D01*
X0032759Y0027189D01*
X0032601Y0027173D01*
X0032444Y0027161D01*
X0032285Y0027153D01*
X0032127Y0027149D01*
X0031969Y0027149D01*
X0031811Y0027153D01*
X0031652Y0027161D01*
X0031495Y0027173D01*
X0031337Y0027189D01*
X0031180Y0027209D01*
X0031024Y0027233D01*
X0030868Y0027261D01*
X0030713Y0027292D01*
X0030558Y0027328D01*
X0030405Y0027367D01*
X0030253Y0027410D01*
X0030102Y0027457D01*
X0029952Y0027508D01*
X0029803Y0027563D01*
X0029656Y0027621D01*
X0029510Y0027683D01*
X0029366Y0027748D01*
X0029224Y0027818D01*
X0029083Y0027890D01*
X0028944Y0027967D01*
X0028808Y0028046D01*
X0028673Y0028130D01*
X0028540Y0028216D01*
X0028410Y0028306D01*
X0028282Y0028399D01*
X0028156Y0028495D01*
X0028033Y0028595D01*
X0027912Y0028697D01*
X0027794Y0028802D01*
X0027679Y0028911D01*
X0027566Y0029022D01*
X0027456Y0029136D01*
X0027349Y0029253D01*
X0027245Y0029372D01*
X0027144Y0029494D01*
X0027047Y0029619D01*
X0026952Y0029746D01*
X0026861Y0029875D01*
X0026772Y0030006D01*
X0026688Y0030140D01*
X0026606Y0030276D01*
X0026528Y0030413D01*
X0026454Y0030553D01*
X0026383Y0030695D01*
X0026315Y0030838D01*
X0026251Y0030983D01*
X0026191Y0031129D01*
X0026135Y0031277D01*
X0026082Y0031426D01*
X0026033Y0031577D01*
X0025988Y0031729D01*
X0025947Y0031882D01*
X0025909Y0032035D01*
X0025876Y0032190D01*
X0025846Y0032346D01*
X0025820Y0032502D01*
X0025799Y0032659D01*
X0025781Y0032816D01*
X0025767Y0032974D01*
X0025757Y0033132D01*
X0025751Y0033290D01*
X0025749Y0033448D01*
D13*
X0023143Y0095495D02*
X0029143Y0095495D01*
X0029143Y0105495D02*
X0023143Y0105495D01*
X0023143Y0115495D02*
X0029143Y0115495D01*
X0029143Y0125495D02*
X0023143Y0125495D01*
X0023143Y0135495D02*
X0029143Y0135495D01*
X0029143Y0145495D02*
X0023143Y0145495D01*
X0023143Y0165495D02*
X0029143Y0165495D01*
X0029143Y0175495D02*
X0023143Y0175495D01*
X0023143Y0185495D02*
X0029143Y0185495D01*
X0029143Y0195495D02*
X0023143Y0195495D01*
X0023143Y0205495D02*
X0029143Y0205495D01*
X0029143Y0215495D02*
X0023143Y0215495D01*
D14*
X0222835Y0250200D03*
X0232835Y0250200D03*
X0232835Y0060200D03*
X0242835Y0060200D03*
D15*
X0222835Y0060200D03*
X0242835Y0250200D03*
D16*
X0242835Y0260554D03*
X0222835Y0260554D03*
X0222835Y0049885D03*
X0242835Y0049885D03*
D17*
X0154095Y0058300D03*
X0075355Y0058300D03*
X0075355Y0252700D03*
X0154095Y0252700D03*
D18*
X0176095Y0252700D03*
X0154095Y0282700D03*
X0132095Y0252700D03*
X0097355Y0252700D03*
X0075355Y0282700D03*
X0053355Y0252700D03*
X0053355Y0058300D03*
X0075355Y0028300D03*
X0097355Y0058300D03*
X0132095Y0058300D03*
X0154095Y0028300D03*
X0176095Y0058300D03*
D19*
X0266300Y0060200D03*
X0082300Y0155700D03*
X0266300Y0249700D03*
D20*
X0067770Y0023685D02*
X0023964Y0023685D01*
X0023366Y0024284D02*
X0067522Y0024284D01*
X0067274Y0024882D02*
X0022767Y0024882D01*
X0022169Y0025481D02*
X0067026Y0025481D01*
X0066778Y0026079D02*
X0034116Y0026079D01*
X0033560Y0025849D02*
X0036353Y0027006D01*
X0038490Y0029143D01*
X0039647Y0031936D01*
X0039647Y0034960D01*
X0038490Y0037753D01*
X0036353Y0039890D01*
X0033560Y0041047D01*
X0030536Y0041047D01*
X0027743Y0039890D01*
X0025606Y0037753D01*
X0024449Y0034960D01*
X0024449Y0031936D01*
X0025606Y0029143D01*
X0027743Y0027006D01*
X0030536Y0025849D01*
X0033560Y0025849D01*
X0035561Y0026678D02*
X0066581Y0026678D01*
X0066581Y0026555D02*
X0067917Y0023330D01*
X0070385Y0020862D01*
X0073610Y0019526D01*
X0077100Y0019526D01*
X0080325Y0020862D01*
X0082793Y0023330D01*
X0084129Y0026555D01*
X0084129Y0030045D01*
X0082793Y0033270D01*
X0080325Y0035738D01*
X0077100Y0037074D01*
X0073610Y0037074D01*
X0070385Y0035738D01*
X0067917Y0033270D01*
X0066581Y0030045D01*
X0066581Y0026555D01*
X0066581Y0027276D02*
X0036623Y0027276D01*
X0037222Y0027875D02*
X0066581Y0027875D01*
X0066581Y0028473D02*
X0037820Y0028473D01*
X0038419Y0029072D02*
X0066581Y0029072D01*
X0066581Y0029670D02*
X0038709Y0029670D01*
X0038956Y0030269D02*
X0066674Y0030269D01*
X0066922Y0030867D02*
X0039204Y0030867D01*
X0039452Y0031466D02*
X0067170Y0031466D01*
X0067417Y0032064D02*
X0039647Y0032064D01*
X0039647Y0032663D02*
X0067665Y0032663D01*
X0067913Y0033261D02*
X0039647Y0033261D01*
X0039647Y0033860D02*
X0068507Y0033860D01*
X0069105Y0034458D02*
X0039647Y0034458D01*
X0039607Y0035057D02*
X0069704Y0035057D01*
X0070302Y0035655D02*
X0039359Y0035655D01*
X0039111Y0036254D02*
X0071630Y0036254D01*
X0073075Y0036852D02*
X0038863Y0036852D01*
X0038615Y0037451D02*
X0153318Y0037451D01*
X0153494Y0037474D02*
X0152302Y0037317D01*
X0151140Y0037006D01*
X0150029Y0036546D01*
X0148988Y0035944D01*
X0148033Y0035212D01*
X0147183Y0034362D01*
X0146451Y0033408D01*
X0145850Y0032366D01*
X0145389Y0031255D01*
X0145078Y0030094D01*
X0144921Y0028901D01*
X0144921Y0028600D01*
X0153795Y0028600D01*
X0153795Y0028000D01*
X0144921Y0028000D01*
X0144921Y0027699D01*
X0145078Y0026506D01*
X0145389Y0025345D01*
X0145850Y0024234D01*
X0146451Y0023192D01*
X0147183Y0022238D01*
X0148033Y0021388D01*
X0148988Y0020656D01*
X0150029Y0020054D01*
X0151140Y0019594D01*
X0152302Y0019283D01*
X0153494Y0019126D01*
X0153795Y0019126D01*
X0153795Y0028000D01*
X0154395Y0028000D01*
X0154395Y0019126D01*
X0154697Y0019126D01*
X0155889Y0019283D01*
X0157050Y0019594D01*
X0158162Y0020054D01*
X0159203Y0020656D01*
X0160157Y0021388D01*
X0161007Y0022238D01*
X0161740Y0023192D01*
X0162341Y0024234D01*
X0162801Y0025345D01*
X0163112Y0026506D01*
X0163269Y0027699D01*
X0163269Y0028000D01*
X0154395Y0028000D01*
X0154395Y0028600D01*
X0153795Y0028600D01*
X0153795Y0037474D01*
X0153494Y0037474D01*
X0153795Y0037451D02*
X0154395Y0037451D01*
X0154395Y0037474D02*
X0154697Y0037474D01*
X0155889Y0037317D01*
X0157050Y0037006D01*
X0158162Y0036546D01*
X0159203Y0035944D01*
X0160157Y0035212D01*
X0161007Y0034362D01*
X0161740Y0033408D01*
X0162341Y0032366D01*
X0162801Y0031255D01*
X0163112Y0030094D01*
X0163269Y0028901D01*
X0163269Y0028600D01*
X0154395Y0028600D01*
X0154395Y0037474D01*
X0154872Y0037451D02*
X0269575Y0037451D01*
X0269700Y0037753D02*
X0268543Y0034960D01*
X0268543Y0031936D01*
X0269700Y0029143D01*
X0271838Y0027006D01*
X0274631Y0025849D01*
X0277654Y0025849D01*
X0280447Y0027006D01*
X0282585Y0029143D01*
X0283742Y0031936D01*
X0283742Y0034960D01*
X0282585Y0037753D01*
X0280447Y0039890D01*
X0277654Y0041047D01*
X0274631Y0041047D01*
X0271838Y0039890D01*
X0269700Y0037753D01*
X0269997Y0038049D02*
X0038194Y0038049D01*
X0037595Y0038648D02*
X0270595Y0038648D01*
X0271194Y0039246D02*
X0036997Y0039246D01*
X0036398Y0039845D02*
X0271793Y0039845D01*
X0273173Y0040443D02*
X0035017Y0040443D01*
X0033572Y0041042D02*
X0274618Y0041042D01*
X0277667Y0041042D02*
X0290591Y0041042D01*
X0290591Y0041640D02*
X0017600Y0041640D01*
X0017600Y0041042D02*
X0030524Y0041042D01*
X0029079Y0040443D02*
X0017600Y0040443D01*
X0017600Y0039845D02*
X0027698Y0039845D01*
X0027100Y0039246D02*
X0017600Y0039246D01*
X0017600Y0038648D02*
X0026501Y0038648D01*
X0025902Y0038049D02*
X0017600Y0038049D01*
X0017600Y0037451D02*
X0025481Y0037451D01*
X0025233Y0036852D02*
X0017600Y0036852D01*
X0017600Y0036254D02*
X0024985Y0036254D01*
X0024737Y0035655D02*
X0017600Y0035655D01*
X0017600Y0035057D02*
X0024489Y0035057D01*
X0024449Y0034458D02*
X0017600Y0034458D01*
X0017600Y0033860D02*
X0024449Y0033860D01*
X0024449Y0033261D02*
X0017600Y0033261D01*
X0017600Y0032663D02*
X0024449Y0032663D01*
X0024449Y0032064D02*
X0017600Y0032064D01*
X0017600Y0031466D02*
X0024644Y0031466D01*
X0024892Y0030867D02*
X0017600Y0030867D01*
X0017600Y0030269D02*
X0025140Y0030269D01*
X0025388Y0029670D02*
X0017979Y0029670D01*
X0017600Y0030049D02*
X0017600Y0280941D01*
X0028649Y0291991D01*
X0279541Y0291991D01*
X0290591Y0280941D01*
X0290591Y0030049D01*
X0279541Y0019000D01*
X0028649Y0019000D01*
X0017600Y0030049D01*
X0018578Y0029072D02*
X0025677Y0029072D01*
X0026276Y0028473D02*
X0019176Y0028473D01*
X0019775Y0027875D02*
X0026874Y0027875D01*
X0027473Y0027276D02*
X0020373Y0027276D01*
X0020972Y0026678D02*
X0028535Y0026678D01*
X0029980Y0026079D02*
X0021570Y0026079D01*
X0024563Y0023087D02*
X0068160Y0023087D01*
X0068759Y0022488D02*
X0025161Y0022488D01*
X0025760Y0021890D02*
X0069357Y0021890D01*
X0069956Y0021291D02*
X0026358Y0021291D01*
X0026957Y0020693D02*
X0070793Y0020693D01*
X0072238Y0020094D02*
X0027555Y0020094D01*
X0028154Y0019496D02*
X0151508Y0019496D01*
X0149960Y0020094D02*
X0078472Y0020094D01*
X0079917Y0020693D02*
X0148940Y0020693D01*
X0148160Y0021291D02*
X0080755Y0021291D01*
X0081353Y0021890D02*
X0147532Y0021890D01*
X0146991Y0022488D02*
X0081952Y0022488D01*
X0082550Y0023087D02*
X0146532Y0023087D01*
X0146166Y0023685D02*
X0082940Y0023685D01*
X0083188Y0024284D02*
X0145829Y0024284D01*
X0145581Y0024882D02*
X0083436Y0024882D01*
X0083684Y0025481D02*
X0145353Y0025481D01*
X0145193Y0026079D02*
X0083932Y0026079D01*
X0084129Y0026678D02*
X0145056Y0026678D01*
X0144977Y0027276D02*
X0084129Y0027276D01*
X0084129Y0027875D02*
X0144921Y0027875D01*
X0144944Y0029072D02*
X0084129Y0029072D01*
X0084129Y0029670D02*
X0145023Y0029670D01*
X0145125Y0030269D02*
X0084037Y0030269D01*
X0083789Y0030867D02*
X0145286Y0030867D01*
X0145477Y0031466D02*
X0083541Y0031466D01*
X0083293Y0032064D02*
X0145725Y0032064D01*
X0146021Y0032663D02*
X0083045Y0032663D01*
X0082797Y0033261D02*
X0146366Y0033261D01*
X0146798Y0033860D02*
X0082204Y0033860D01*
X0081605Y0034458D02*
X0147280Y0034458D01*
X0147878Y0035057D02*
X0081007Y0035057D01*
X0080408Y0035655D02*
X0148611Y0035655D01*
X0149524Y0036254D02*
X0079080Y0036254D01*
X0077635Y0036852D02*
X0150770Y0036852D01*
X0153795Y0036852D02*
X0154395Y0036852D01*
X0154395Y0036254D02*
X0153795Y0036254D01*
X0153795Y0035655D02*
X0154395Y0035655D01*
X0154395Y0035057D02*
X0153795Y0035057D01*
X0153795Y0034458D02*
X0154395Y0034458D01*
X0154395Y0033860D02*
X0153795Y0033860D01*
X0153795Y0033261D02*
X0154395Y0033261D01*
X0154395Y0032663D02*
X0153795Y0032663D01*
X0153795Y0032064D02*
X0154395Y0032064D01*
X0154395Y0031466D02*
X0153795Y0031466D01*
X0153795Y0030867D02*
X0154395Y0030867D01*
X0154395Y0030269D02*
X0153795Y0030269D01*
X0153795Y0029670D02*
X0154395Y0029670D01*
X0154395Y0029072D02*
X0153795Y0029072D01*
X0153795Y0028473D02*
X0084129Y0028473D01*
X0092385Y0050862D02*
X0095610Y0049526D01*
X0099100Y0049526D01*
X0102325Y0050862D01*
X0104793Y0053330D01*
X0106129Y0056555D01*
X0106129Y0060045D01*
X0104793Y0063270D01*
X0102325Y0065738D01*
X0099100Y0067074D01*
X0095610Y0067074D01*
X0092385Y0065738D01*
X0089917Y0063270D01*
X0088581Y0060045D01*
X0088581Y0056555D01*
X0089917Y0053330D01*
X0092385Y0050862D01*
X0092030Y0051217D02*
X0058680Y0051217D01*
X0058325Y0050862D02*
X0060793Y0053330D01*
X0062129Y0056555D01*
X0062129Y0060045D01*
X0060793Y0063270D01*
X0058325Y0065738D01*
X0055100Y0067074D01*
X0051610Y0067074D01*
X0048385Y0065738D01*
X0045917Y0063270D01*
X0044581Y0060045D01*
X0044581Y0056555D01*
X0045917Y0053330D01*
X0048385Y0050862D01*
X0051610Y0049526D01*
X0055100Y0049526D01*
X0058325Y0050862D01*
X0057737Y0050618D02*
X0092973Y0050618D01*
X0094418Y0050020D02*
X0056292Y0050020D01*
X0059279Y0051815D02*
X0091432Y0051815D01*
X0090833Y0052414D02*
X0076613Y0052414D01*
X0076533Y0052380D02*
X0078708Y0053282D01*
X0080374Y0054947D01*
X0081275Y0057122D01*
X0081275Y0059477D01*
X0080374Y0061653D01*
X0078708Y0063318D01*
X0076533Y0064220D01*
X0074178Y0064220D01*
X0072002Y0063318D01*
X0070337Y0061653D01*
X0069435Y0059477D01*
X0069435Y0057122D01*
X0070337Y0054947D01*
X0072002Y0053282D01*
X0074178Y0052380D01*
X0076533Y0052380D01*
X0078058Y0053012D02*
X0090235Y0053012D01*
X0089801Y0053611D02*
X0079037Y0053611D01*
X0079636Y0054209D02*
X0089553Y0054209D01*
X0089305Y0054808D02*
X0080235Y0054808D01*
X0080564Y0055406D02*
X0089057Y0055406D01*
X0088809Y0056005D02*
X0080812Y0056005D01*
X0081060Y0056603D02*
X0088581Y0056603D01*
X0088581Y0057202D02*
X0081275Y0057202D01*
X0081275Y0057800D02*
X0088581Y0057800D01*
X0088581Y0058399D02*
X0081275Y0058399D01*
X0081275Y0058997D02*
X0088581Y0058997D01*
X0088581Y0059596D02*
X0081226Y0059596D01*
X0080978Y0060194D02*
X0088643Y0060194D01*
X0088891Y0060793D02*
X0080730Y0060793D01*
X0080482Y0061391D02*
X0089139Y0061391D01*
X0089387Y0061990D02*
X0080037Y0061990D01*
X0079438Y0062588D02*
X0089634Y0062588D01*
X0089882Y0063187D02*
X0078840Y0063187D01*
X0077581Y0063785D02*
X0090432Y0063785D01*
X0091031Y0064384D02*
X0059680Y0064384D01*
X0060278Y0063785D02*
X0073129Y0063785D01*
X0071870Y0063187D02*
X0060828Y0063187D01*
X0061076Y0062588D02*
X0071272Y0062588D01*
X0070673Y0061990D02*
X0061324Y0061990D01*
X0061572Y0061391D02*
X0070228Y0061391D01*
X0069980Y0060793D02*
X0061819Y0060793D01*
X0062067Y0060194D02*
X0069732Y0060194D01*
X0069484Y0059596D02*
X0062129Y0059596D01*
X0062129Y0058997D02*
X0069435Y0058997D01*
X0069435Y0058399D02*
X0062129Y0058399D01*
X0062129Y0057800D02*
X0069435Y0057800D01*
X0069435Y0057202D02*
X0062129Y0057202D01*
X0062129Y0056603D02*
X0069651Y0056603D01*
X0069898Y0056005D02*
X0061901Y0056005D01*
X0061653Y0055406D02*
X0070146Y0055406D01*
X0070476Y0054808D02*
X0061405Y0054808D01*
X0061158Y0054209D02*
X0071074Y0054209D01*
X0071673Y0053611D02*
X0060910Y0053611D01*
X0060476Y0053012D02*
X0072652Y0053012D01*
X0074097Y0052414D02*
X0059877Y0052414D01*
X0050418Y0050020D02*
X0017600Y0050020D01*
X0017600Y0050618D02*
X0048973Y0050618D01*
X0048030Y0051217D02*
X0017600Y0051217D01*
X0017600Y0051815D02*
X0047432Y0051815D01*
X0046833Y0052414D02*
X0017600Y0052414D01*
X0017600Y0053012D02*
X0046235Y0053012D01*
X0045801Y0053611D02*
X0017600Y0053611D01*
X0017600Y0054209D02*
X0045553Y0054209D01*
X0045305Y0054808D02*
X0017600Y0054808D01*
X0017600Y0055406D02*
X0045057Y0055406D01*
X0044809Y0056005D02*
X0017600Y0056005D01*
X0017600Y0056603D02*
X0044581Y0056603D01*
X0044581Y0057202D02*
X0017600Y0057202D01*
X0017600Y0057800D02*
X0044581Y0057800D01*
X0044581Y0058399D02*
X0017600Y0058399D01*
X0017600Y0058997D02*
X0044581Y0058997D01*
X0044581Y0059596D02*
X0017600Y0059596D01*
X0017600Y0060194D02*
X0044643Y0060194D01*
X0044891Y0060793D02*
X0017600Y0060793D01*
X0017600Y0061391D02*
X0045139Y0061391D01*
X0045387Y0061990D02*
X0017600Y0061990D01*
X0017600Y0062588D02*
X0045634Y0062588D01*
X0045882Y0063187D02*
X0017600Y0063187D01*
X0017600Y0063785D02*
X0046432Y0063785D01*
X0047031Y0064384D02*
X0017600Y0064384D01*
X0017600Y0064982D02*
X0047629Y0064982D01*
X0048228Y0065581D02*
X0034434Y0065581D01*
X0033560Y0065219D02*
X0030536Y0065219D01*
X0027743Y0066376D01*
X0025606Y0068513D01*
X0024449Y0071307D01*
X0024449Y0074330D01*
X0025606Y0077123D01*
X0027743Y0079260D01*
X0030536Y0080417D01*
X0033560Y0080417D01*
X0036353Y0079260D01*
X0038490Y0077123D01*
X0039647Y0074330D01*
X0039647Y0071307D01*
X0038490Y0068513D01*
X0036353Y0066376D01*
X0033560Y0065219D01*
X0035878Y0066179D02*
X0049450Y0066179D01*
X0050895Y0066778D02*
X0036755Y0066778D01*
X0037353Y0067376D02*
X0130753Y0067376D01*
X0130302Y0067317D02*
X0129140Y0067006D01*
X0128029Y0066546D01*
X0126988Y0065944D01*
X0126033Y0065212D01*
X0125183Y0064362D01*
X0124451Y0063408D01*
X0123850Y0062366D01*
X0123389Y0061255D01*
X0123078Y0060094D01*
X0122921Y0058901D01*
X0122921Y0058600D01*
X0131795Y0058600D01*
X0131795Y0058000D01*
X0122921Y0058000D01*
X0122921Y0057699D01*
X0123078Y0056506D01*
X0123389Y0055345D01*
X0123850Y0054234D01*
X0124451Y0053192D01*
X0125183Y0052238D01*
X0126033Y0051388D01*
X0126988Y0050656D01*
X0128029Y0050054D01*
X0129140Y0049594D01*
X0130302Y0049283D01*
X0131494Y0049126D01*
X0131795Y0049126D01*
X0131795Y0058000D01*
X0132395Y0058000D01*
X0132395Y0049126D01*
X0132697Y0049126D01*
X0133889Y0049283D01*
X0135050Y0049594D01*
X0136162Y0050054D01*
X0137203Y0050656D01*
X0138157Y0051388D01*
X0139007Y0052238D01*
X0139740Y0053192D01*
X0140341Y0054234D01*
X0140801Y0055345D01*
X0141112Y0056506D01*
X0141269Y0057699D01*
X0141269Y0058000D01*
X0132395Y0058000D01*
X0132395Y0058600D01*
X0131795Y0058600D01*
X0131795Y0067474D01*
X0131494Y0067474D01*
X0130302Y0067317D01*
X0131795Y0067376D02*
X0132395Y0067376D01*
X0132395Y0067474D02*
X0132697Y0067474D01*
X0133889Y0067317D01*
X0135050Y0067006D01*
X0136162Y0066546D01*
X0137203Y0065944D01*
X0138157Y0065212D01*
X0139007Y0064362D01*
X0139740Y0063408D01*
X0140341Y0062366D01*
X0140801Y0061255D01*
X0141112Y0060094D01*
X0141269Y0058901D01*
X0141269Y0058600D01*
X0132395Y0058600D01*
X0132395Y0067474D01*
X0132395Y0066778D02*
X0131795Y0066778D01*
X0131795Y0066179D02*
X0132395Y0066179D01*
X0132395Y0065581D02*
X0131795Y0065581D01*
X0131795Y0064982D02*
X0132395Y0064982D01*
X0132395Y0064384D02*
X0131795Y0064384D01*
X0131795Y0063785D02*
X0132395Y0063785D01*
X0132395Y0063187D02*
X0131795Y0063187D01*
X0131795Y0062588D02*
X0132395Y0062588D01*
X0132395Y0061990D02*
X0131795Y0061990D01*
X0131795Y0061391D02*
X0132395Y0061391D01*
X0132395Y0060793D02*
X0131795Y0060793D01*
X0131795Y0060194D02*
X0132395Y0060194D01*
X0132395Y0059596D02*
X0131795Y0059596D01*
X0131795Y0058997D02*
X0132395Y0058997D01*
X0132395Y0058399D02*
X0148176Y0058399D01*
X0148176Y0058997D02*
X0141257Y0058997D01*
X0141178Y0059596D02*
X0148225Y0059596D01*
X0148176Y0059477D02*
X0148176Y0057122D01*
X0149077Y0054947D01*
X0150742Y0053282D01*
X0152918Y0052380D01*
X0155273Y0052380D01*
X0157448Y0053282D01*
X0159114Y0054947D01*
X0160015Y0057122D01*
X0160015Y0059477D01*
X0159114Y0061653D01*
X0157448Y0063318D01*
X0155273Y0064220D01*
X0152918Y0064220D01*
X0150742Y0063318D01*
X0149077Y0061653D01*
X0148176Y0059477D01*
X0148473Y0060194D02*
X0141085Y0060194D01*
X0140925Y0060793D02*
X0148720Y0060793D01*
X0148968Y0061391D02*
X0140745Y0061391D01*
X0140497Y0061990D02*
X0149413Y0061990D01*
X0150012Y0062588D02*
X0140213Y0062588D01*
X0139867Y0063187D02*
X0150610Y0063187D01*
X0151869Y0063785D02*
X0139450Y0063785D01*
X0138985Y0064384D02*
X0169205Y0064384D01*
X0169183Y0064362D02*
X0168451Y0063408D01*
X0167850Y0062366D01*
X0167389Y0061255D01*
X0167078Y0060094D01*
X0166921Y0058901D01*
X0166921Y0058600D01*
X0175795Y0058600D01*
X0175795Y0058000D01*
X0166921Y0058000D01*
X0166921Y0057699D01*
X0167078Y0056506D01*
X0167389Y0055345D01*
X0167850Y0054234D01*
X0168451Y0053192D01*
X0169183Y0052238D01*
X0170033Y0051388D01*
X0170988Y0050656D01*
X0172029Y0050054D01*
X0173140Y0049594D01*
X0174302Y0049283D01*
X0175494Y0049126D01*
X0175795Y0049126D01*
X0175795Y0058000D01*
X0176395Y0058000D01*
X0176395Y0049126D01*
X0176697Y0049126D01*
X0177889Y0049283D01*
X0179050Y0049594D01*
X0180162Y0050054D01*
X0181203Y0050656D01*
X0182157Y0051388D01*
X0183007Y0052238D01*
X0183740Y0053192D01*
X0184341Y0054234D01*
X0184801Y0055345D01*
X0185112Y0056506D01*
X0185269Y0057699D01*
X0185269Y0058000D01*
X0176395Y0058000D01*
X0176395Y0058600D01*
X0175795Y0058600D01*
X0175795Y0067474D01*
X0175494Y0067474D01*
X0174302Y0067317D01*
X0173140Y0067006D01*
X0172029Y0066546D01*
X0170988Y0065944D01*
X0170033Y0065212D01*
X0169183Y0064362D01*
X0168741Y0063785D02*
X0156321Y0063785D01*
X0157580Y0063187D02*
X0168323Y0063187D01*
X0167978Y0062588D02*
X0158179Y0062588D01*
X0158777Y0061990D02*
X0167694Y0061990D01*
X0167446Y0061391D02*
X0159222Y0061391D01*
X0159470Y0060793D02*
X0167266Y0060793D01*
X0167105Y0060194D02*
X0159718Y0060194D01*
X0159966Y0059596D02*
X0167013Y0059596D01*
X0166934Y0058997D02*
X0160015Y0058997D01*
X0160015Y0058399D02*
X0175795Y0058399D01*
X0175795Y0058997D02*
X0176395Y0058997D01*
X0176395Y0058600D02*
X0176395Y0067474D01*
X0176697Y0067474D01*
X0177889Y0067317D01*
X0179050Y0067006D01*
X0180162Y0066546D01*
X0181203Y0065944D01*
X0182157Y0065212D01*
X0183007Y0064362D01*
X0183740Y0063408D01*
X0184341Y0062366D01*
X0184801Y0061255D01*
X0185112Y0060094D01*
X0185269Y0058901D01*
X0185269Y0058600D01*
X0176395Y0058600D01*
X0176395Y0058399D02*
X0219361Y0058399D01*
X0219361Y0058997D02*
X0185257Y0058997D01*
X0185178Y0059596D02*
X0219361Y0059596D01*
X0219361Y0060194D02*
X0185085Y0060194D01*
X0184925Y0060793D02*
X0219361Y0060793D01*
X0219361Y0061391D02*
X0184745Y0061391D01*
X0184497Y0061990D02*
X0219361Y0061990D01*
X0219361Y0062588D02*
X0184213Y0062588D01*
X0183867Y0063187D02*
X0219400Y0063187D01*
X0219361Y0063148D02*
X0219888Y0063675D01*
X0225783Y0063675D01*
X0226310Y0063148D01*
X0226310Y0057252D01*
X0225783Y0056725D01*
X0219888Y0056725D01*
X0219361Y0057252D01*
X0219361Y0063148D01*
X0219361Y0057800D02*
X0185269Y0057800D01*
X0185204Y0057202D02*
X0219411Y0057202D01*
X0220991Y0053611D02*
X0183981Y0053611D01*
X0184327Y0054209D02*
X0290591Y0054209D01*
X0290591Y0053611D02*
X0244680Y0053611D01*
X0245185Y0053402D02*
X0243661Y0054033D01*
X0242010Y0054033D01*
X0240486Y0053402D01*
X0239319Y0052235D01*
X0238687Y0050710D01*
X0238687Y0049060D01*
X0239319Y0047535D01*
X0240486Y0046369D01*
X0242010Y0045737D01*
X0243661Y0045737D01*
X0245185Y0046369D01*
X0246352Y0047535D01*
X0246983Y0049060D01*
X0246983Y0050710D01*
X0246352Y0052235D01*
X0245185Y0053402D01*
X0245574Y0053012D02*
X0290591Y0053012D01*
X0290591Y0052414D02*
X0246173Y0052414D01*
X0246526Y0051815D02*
X0290591Y0051815D01*
X0290591Y0051217D02*
X0246774Y0051217D01*
X0246983Y0050618D02*
X0290591Y0050618D01*
X0290591Y0050020D02*
X0246983Y0050020D01*
X0246983Y0049421D02*
X0290591Y0049421D01*
X0290591Y0048823D02*
X0246885Y0048823D01*
X0246637Y0048224D02*
X0290591Y0048224D01*
X0290591Y0047626D02*
X0246389Y0047626D01*
X0245844Y0047027D02*
X0290591Y0047027D01*
X0290591Y0046429D02*
X0245245Y0046429D01*
X0243885Y0045830D02*
X0290591Y0045830D01*
X0290591Y0045232D02*
X0017600Y0045232D01*
X0017600Y0045830D02*
X0221786Y0045830D01*
X0222010Y0045737D02*
X0223661Y0045737D01*
X0225185Y0046369D01*
X0226352Y0047535D01*
X0226983Y0049060D01*
X0226983Y0050710D01*
X0226352Y0052235D01*
X0225185Y0053402D01*
X0223661Y0054033D01*
X0222010Y0054033D01*
X0220486Y0053402D01*
X0219319Y0052235D01*
X0218687Y0050710D01*
X0218687Y0049060D01*
X0219319Y0047535D01*
X0220486Y0046369D01*
X0222010Y0045737D01*
X0220426Y0046429D02*
X0017600Y0046429D01*
X0017600Y0047027D02*
X0219827Y0047027D01*
X0219282Y0047626D02*
X0017600Y0047626D01*
X0017600Y0048224D02*
X0219034Y0048224D01*
X0218786Y0048823D02*
X0017600Y0048823D01*
X0017600Y0049421D02*
X0129786Y0049421D01*
X0128113Y0050020D02*
X0100292Y0050020D01*
X0101737Y0050618D02*
X0127053Y0050618D01*
X0126257Y0051217D02*
X0102680Y0051217D01*
X0103279Y0051815D02*
X0125606Y0051815D01*
X0125048Y0052414D02*
X0103877Y0052414D01*
X0104476Y0053012D02*
X0124589Y0053012D01*
X0124209Y0053611D02*
X0104910Y0053611D01*
X0105158Y0054209D02*
X0123864Y0054209D01*
X0123612Y0054808D02*
X0105405Y0054808D01*
X0105653Y0055406D02*
X0123373Y0055406D01*
X0123213Y0056005D02*
X0105901Y0056005D01*
X0106129Y0056603D02*
X0123065Y0056603D01*
X0122987Y0057202D02*
X0106129Y0057202D01*
X0106129Y0057800D02*
X0122921Y0057800D01*
X0122934Y0058997D02*
X0106129Y0058997D01*
X0106129Y0058399D02*
X0131795Y0058399D01*
X0131795Y0057800D02*
X0132395Y0057800D01*
X0132395Y0057202D02*
X0131795Y0057202D01*
X0131795Y0056603D02*
X0132395Y0056603D01*
X0132395Y0056005D02*
X0131795Y0056005D01*
X0131795Y0055406D02*
X0132395Y0055406D01*
X0132395Y0054808D02*
X0131795Y0054808D01*
X0131795Y0054209D02*
X0132395Y0054209D01*
X0132395Y0053611D02*
X0131795Y0053611D01*
X0131795Y0053012D02*
X0132395Y0053012D01*
X0132395Y0052414D02*
X0131795Y0052414D01*
X0131795Y0051815D02*
X0132395Y0051815D01*
X0132395Y0051217D02*
X0131795Y0051217D01*
X0131795Y0050618D02*
X0132395Y0050618D01*
X0132395Y0050020D02*
X0131795Y0050020D01*
X0131795Y0049421D02*
X0132395Y0049421D01*
X0134404Y0049421D02*
X0173786Y0049421D01*
X0172113Y0050020D02*
X0136078Y0050020D01*
X0137138Y0050618D02*
X0171053Y0050618D01*
X0170257Y0051217D02*
X0137934Y0051217D01*
X0138584Y0051815D02*
X0169606Y0051815D01*
X0169048Y0052414D02*
X0155353Y0052414D01*
X0156798Y0053012D02*
X0168589Y0053012D01*
X0168209Y0053611D02*
X0157778Y0053611D01*
X0158376Y0054209D02*
X0167864Y0054209D01*
X0167612Y0054808D02*
X0158975Y0054808D01*
X0159304Y0055406D02*
X0167373Y0055406D01*
X0167213Y0056005D02*
X0159552Y0056005D01*
X0159800Y0056603D02*
X0167065Y0056603D01*
X0166987Y0057202D02*
X0160015Y0057202D01*
X0160015Y0057800D02*
X0166921Y0057800D01*
X0169804Y0064982D02*
X0138387Y0064982D01*
X0137677Y0065581D02*
X0170514Y0065581D01*
X0171395Y0066179D02*
X0136796Y0066179D01*
X0135601Y0066778D02*
X0172590Y0066778D01*
X0174753Y0067376D02*
X0133438Y0067376D01*
X0128590Y0066778D02*
X0099815Y0066778D01*
X0101260Y0066179D02*
X0127395Y0066179D01*
X0126514Y0065581D02*
X0102483Y0065581D01*
X0103081Y0064982D02*
X0125804Y0064982D01*
X0125205Y0064384D02*
X0103680Y0064384D01*
X0104278Y0063785D02*
X0124741Y0063785D01*
X0124323Y0063187D02*
X0104828Y0063187D01*
X0105076Y0062588D02*
X0123978Y0062588D01*
X0123694Y0061990D02*
X0105324Y0061990D01*
X0105572Y0061391D02*
X0123446Y0061391D01*
X0123266Y0060793D02*
X0105819Y0060793D01*
X0106067Y0060194D02*
X0123105Y0060194D01*
X0123013Y0059596D02*
X0106129Y0059596D01*
X0094895Y0066778D02*
X0055815Y0066778D01*
X0057260Y0066179D02*
X0093450Y0066179D01*
X0092228Y0065581D02*
X0058483Y0065581D01*
X0059081Y0064982D02*
X0091629Y0064982D01*
X0139142Y0052414D02*
X0152837Y0052414D01*
X0151392Y0053012D02*
X0139601Y0053012D01*
X0139981Y0053611D02*
X0150413Y0053611D01*
X0149814Y0054209D02*
X0140327Y0054209D01*
X0140579Y0054808D02*
X0149216Y0054808D01*
X0148886Y0055406D02*
X0140818Y0055406D01*
X0140978Y0056005D02*
X0148639Y0056005D01*
X0148391Y0056603D02*
X0141125Y0056603D01*
X0141204Y0057202D02*
X0148176Y0057202D01*
X0148176Y0057800D02*
X0141269Y0057800D01*
X0157421Y0036852D02*
X0269327Y0036852D01*
X0269079Y0036254D02*
X0158667Y0036254D01*
X0159580Y0035655D02*
X0268831Y0035655D01*
X0268584Y0035057D02*
X0160312Y0035057D01*
X0160911Y0034458D02*
X0268543Y0034458D01*
X0268543Y0033860D02*
X0161393Y0033860D01*
X0161824Y0033261D02*
X0268543Y0033261D01*
X0268543Y0032663D02*
X0162170Y0032663D01*
X0162466Y0032064D02*
X0268543Y0032064D01*
X0268738Y0031466D02*
X0162714Y0031466D01*
X0162905Y0030867D02*
X0268986Y0030867D01*
X0269234Y0030269D02*
X0163065Y0030269D01*
X0163168Y0029670D02*
X0269482Y0029670D01*
X0269772Y0029072D02*
X0163247Y0029072D01*
X0163269Y0027875D02*
X0270969Y0027875D01*
X0270370Y0028473D02*
X0154395Y0028473D01*
X0154395Y0027875D02*
X0153795Y0027875D01*
X0153795Y0027276D02*
X0154395Y0027276D01*
X0154395Y0026678D02*
X0153795Y0026678D01*
X0153795Y0026079D02*
X0154395Y0026079D01*
X0154395Y0025481D02*
X0153795Y0025481D01*
X0153795Y0024882D02*
X0154395Y0024882D01*
X0154395Y0024284D02*
X0153795Y0024284D01*
X0153795Y0023685D02*
X0154395Y0023685D01*
X0154395Y0023087D02*
X0153795Y0023087D01*
X0153795Y0022488D02*
X0154395Y0022488D01*
X0154395Y0021890D02*
X0153795Y0021890D01*
X0153795Y0021291D02*
X0154395Y0021291D01*
X0154395Y0020693D02*
X0153795Y0020693D01*
X0153795Y0020094D02*
X0154395Y0020094D01*
X0154395Y0019496D02*
X0153795Y0019496D01*
X0156682Y0019496D02*
X0280037Y0019496D01*
X0280635Y0020094D02*
X0158230Y0020094D01*
X0159251Y0020693D02*
X0281234Y0020693D01*
X0281832Y0021291D02*
X0160031Y0021291D01*
X0160659Y0021890D02*
X0282431Y0021890D01*
X0283029Y0022488D02*
X0161199Y0022488D01*
X0161658Y0023087D02*
X0283628Y0023087D01*
X0284226Y0023685D02*
X0162024Y0023685D01*
X0162362Y0024284D02*
X0284825Y0024284D01*
X0285423Y0024882D02*
X0162609Y0024882D01*
X0162837Y0025481D02*
X0286022Y0025481D01*
X0286620Y0026079D02*
X0278210Y0026079D01*
X0279655Y0026678D02*
X0287219Y0026678D01*
X0287817Y0027276D02*
X0280718Y0027276D01*
X0281316Y0027875D02*
X0288416Y0027875D01*
X0289014Y0028473D02*
X0281915Y0028473D01*
X0282513Y0029072D02*
X0289613Y0029072D01*
X0290211Y0029670D02*
X0282803Y0029670D01*
X0283051Y0030269D02*
X0290591Y0030269D01*
X0290591Y0030867D02*
X0283299Y0030867D01*
X0283547Y0031466D02*
X0290591Y0031466D01*
X0290591Y0032064D02*
X0283742Y0032064D01*
X0283742Y0032663D02*
X0290591Y0032663D01*
X0290591Y0033261D02*
X0283742Y0033261D01*
X0283742Y0033860D02*
X0290591Y0033860D01*
X0290591Y0034458D02*
X0283742Y0034458D01*
X0283701Y0035057D02*
X0290591Y0035057D01*
X0290591Y0035655D02*
X0283454Y0035655D01*
X0283206Y0036254D02*
X0290591Y0036254D01*
X0290591Y0036852D02*
X0282958Y0036852D01*
X0282710Y0037451D02*
X0290591Y0037451D01*
X0290591Y0038049D02*
X0282288Y0038049D01*
X0281690Y0038648D02*
X0290591Y0038648D01*
X0290591Y0039246D02*
X0281091Y0039246D01*
X0280493Y0039845D02*
X0290591Y0039845D01*
X0290591Y0040443D02*
X0279112Y0040443D01*
X0290591Y0042239D02*
X0017600Y0042239D01*
X0017600Y0042837D02*
X0290591Y0042837D01*
X0290591Y0043436D02*
X0017600Y0043436D01*
X0017600Y0044034D02*
X0290591Y0044034D01*
X0290591Y0044633D02*
X0017600Y0044633D01*
X0017600Y0065581D02*
X0029662Y0065581D01*
X0028218Y0066179D02*
X0017600Y0066179D01*
X0017600Y0066778D02*
X0027341Y0066778D01*
X0026743Y0067376D02*
X0017600Y0067376D01*
X0017600Y0067975D02*
X0026144Y0067975D01*
X0025581Y0068573D02*
X0017600Y0068573D01*
X0017600Y0069172D02*
X0025333Y0069172D01*
X0025085Y0069770D02*
X0017600Y0069770D01*
X0017600Y0070369D02*
X0024837Y0070369D01*
X0024589Y0070968D02*
X0017600Y0070968D01*
X0017600Y0071566D02*
X0024449Y0071566D01*
X0024449Y0072165D02*
X0017600Y0072165D01*
X0017600Y0072763D02*
X0024449Y0072763D01*
X0024449Y0073362D02*
X0017600Y0073362D01*
X0017600Y0073960D02*
X0024449Y0073960D01*
X0024544Y0074559D02*
X0017600Y0074559D01*
X0017600Y0075157D02*
X0024792Y0075157D01*
X0025039Y0075756D02*
X0017600Y0075756D01*
X0017600Y0076354D02*
X0025287Y0076354D01*
X0025535Y0076953D02*
X0017600Y0076953D01*
X0017600Y0077551D02*
X0026034Y0077551D01*
X0026633Y0078150D02*
X0017600Y0078150D01*
X0017600Y0078748D02*
X0027231Y0078748D01*
X0027952Y0079347D02*
X0017600Y0079347D01*
X0017600Y0079945D02*
X0029397Y0079945D01*
X0034699Y0079945D02*
X0194751Y0079945D01*
X0195891Y0080417D02*
X0193098Y0079260D01*
X0190960Y0077123D01*
X0189803Y0074330D01*
X0189803Y0071307D01*
X0190960Y0068513D01*
X0193098Y0066376D01*
X0195891Y0065219D01*
X0198914Y0065219D01*
X0201707Y0066376D01*
X0203845Y0068513D01*
X0205002Y0071307D01*
X0205002Y0074330D01*
X0203845Y0077123D01*
X0201707Y0079260D01*
X0198914Y0080417D01*
X0195891Y0080417D01*
X0193306Y0079347D02*
X0036144Y0079347D01*
X0036865Y0078748D02*
X0192586Y0078748D01*
X0191987Y0078150D02*
X0037463Y0078150D01*
X0038062Y0077551D02*
X0191388Y0077551D01*
X0190890Y0076953D02*
X0038561Y0076953D01*
X0038809Y0076354D02*
X0190642Y0076354D01*
X0190394Y0075756D02*
X0039057Y0075756D01*
X0039305Y0075157D02*
X0190146Y0075157D01*
X0189898Y0074559D02*
X0039552Y0074559D01*
X0039647Y0073960D02*
X0189803Y0073960D01*
X0189803Y0073362D02*
X0039647Y0073362D01*
X0039647Y0072763D02*
X0189803Y0072763D01*
X0189803Y0072165D02*
X0039647Y0072165D01*
X0039647Y0071566D02*
X0189803Y0071566D01*
X0189944Y0070968D02*
X0039507Y0070968D01*
X0039259Y0070369D02*
X0190191Y0070369D01*
X0190439Y0069770D02*
X0039011Y0069770D01*
X0038763Y0069172D02*
X0190687Y0069172D01*
X0190935Y0068573D02*
X0038515Y0068573D01*
X0037952Y0067975D02*
X0191499Y0067975D01*
X0192097Y0067376D02*
X0177438Y0067376D01*
X0176395Y0067376D02*
X0175795Y0067376D01*
X0175795Y0066778D02*
X0176395Y0066778D01*
X0176395Y0066179D02*
X0175795Y0066179D01*
X0175795Y0065581D02*
X0176395Y0065581D01*
X0176395Y0064982D02*
X0175795Y0064982D01*
X0175795Y0064384D02*
X0176395Y0064384D01*
X0176395Y0063785D02*
X0175795Y0063785D01*
X0175795Y0063187D02*
X0176395Y0063187D01*
X0176395Y0062588D02*
X0175795Y0062588D01*
X0175795Y0061990D02*
X0176395Y0061990D01*
X0176395Y0061391D02*
X0175795Y0061391D01*
X0175795Y0060793D02*
X0176395Y0060793D01*
X0176395Y0060194D02*
X0175795Y0060194D01*
X0175795Y0059596D02*
X0176395Y0059596D01*
X0176395Y0057800D02*
X0175795Y0057800D01*
X0175795Y0057202D02*
X0176395Y0057202D01*
X0176395Y0056603D02*
X0175795Y0056603D01*
X0175795Y0056005D02*
X0176395Y0056005D01*
X0176395Y0055406D02*
X0175795Y0055406D01*
X0175795Y0054808D02*
X0176395Y0054808D01*
X0176395Y0054209D02*
X0175795Y0054209D01*
X0175795Y0053611D02*
X0176395Y0053611D01*
X0176395Y0053012D02*
X0175795Y0053012D01*
X0175795Y0052414D02*
X0176395Y0052414D01*
X0176395Y0051815D02*
X0175795Y0051815D01*
X0175795Y0051217D02*
X0176395Y0051217D01*
X0176395Y0050618D02*
X0175795Y0050618D01*
X0175795Y0050020D02*
X0176395Y0050020D01*
X0176395Y0049421D02*
X0175795Y0049421D01*
X0178404Y0049421D02*
X0218687Y0049421D01*
X0218687Y0050020D02*
X0180078Y0050020D01*
X0181138Y0050618D02*
X0218687Y0050618D01*
X0218897Y0051217D02*
X0181934Y0051217D01*
X0182584Y0051815D02*
X0219145Y0051815D01*
X0219498Y0052414D02*
X0183142Y0052414D01*
X0183601Y0053012D02*
X0220096Y0053012D01*
X0224680Y0053611D02*
X0240991Y0053611D01*
X0240096Y0053012D02*
X0225574Y0053012D01*
X0226173Y0052414D02*
X0239498Y0052414D01*
X0239145Y0051815D02*
X0226526Y0051815D01*
X0226774Y0051217D02*
X0238897Y0051217D01*
X0238687Y0050618D02*
X0226983Y0050618D01*
X0226983Y0050020D02*
X0238687Y0050020D01*
X0238687Y0049421D02*
X0226983Y0049421D01*
X0226885Y0048823D02*
X0238786Y0048823D01*
X0239034Y0048224D02*
X0226637Y0048224D01*
X0226389Y0047626D02*
X0239282Y0047626D01*
X0239827Y0047027D02*
X0225844Y0047027D01*
X0225245Y0046429D02*
X0240426Y0046429D01*
X0241786Y0045830D02*
X0223885Y0045830D01*
X0226260Y0057202D02*
X0230354Y0057202D01*
X0230365Y0057190D02*
X0231000Y0056766D01*
X0231705Y0056474D01*
X0232454Y0056325D01*
X0232535Y0056325D01*
X0232535Y0059900D01*
X0228961Y0059900D01*
X0228961Y0059818D01*
X0229110Y0059070D01*
X0229402Y0058365D01*
X0229826Y0057730D01*
X0230365Y0057190D01*
X0229779Y0057800D02*
X0226310Y0057800D01*
X0226310Y0058399D02*
X0229387Y0058399D01*
X0229140Y0058997D02*
X0226310Y0058997D01*
X0226310Y0059596D02*
X0229005Y0059596D01*
X0228961Y0060500D02*
X0232535Y0060500D01*
X0232535Y0059900D01*
X0233135Y0059900D01*
X0233135Y0056325D01*
X0233217Y0056325D01*
X0233966Y0056474D01*
X0234671Y0056766D01*
X0235305Y0057190D01*
X0235845Y0057730D01*
X0236269Y0058365D01*
X0236561Y0059070D01*
X0236710Y0059818D01*
X0236710Y0059900D01*
X0233135Y0059900D01*
X0233135Y0060500D01*
X0232535Y0060500D01*
X0232535Y0064075D01*
X0232454Y0064075D01*
X0231705Y0063926D01*
X0231000Y0063634D01*
X0230365Y0063210D01*
X0229826Y0062670D01*
X0229402Y0062035D01*
X0229110Y0061330D01*
X0228961Y0060582D01*
X0228961Y0060500D01*
X0229003Y0060793D02*
X0226310Y0060793D01*
X0226310Y0061391D02*
X0229135Y0061391D01*
X0229383Y0061990D02*
X0226310Y0061990D01*
X0226310Y0062588D02*
X0229771Y0062588D01*
X0230343Y0063187D02*
X0226271Y0063187D01*
X0226310Y0060194D02*
X0232535Y0060194D01*
X0232535Y0059596D02*
X0233135Y0059596D01*
X0233135Y0060194D02*
X0239361Y0060194D01*
X0239361Y0059596D02*
X0236666Y0059596D01*
X0236531Y0058997D02*
X0239573Y0058997D01*
X0239361Y0059509D02*
X0239890Y0058232D01*
X0240867Y0057254D01*
X0242144Y0056725D01*
X0243527Y0056725D01*
X0244804Y0057254D01*
X0245781Y0058232D01*
X0246310Y0059509D01*
X0246310Y0060891D01*
X0245781Y0062168D01*
X0244804Y0063146D01*
X0243527Y0063675D01*
X0242144Y0063675D01*
X0240867Y0063146D01*
X0239890Y0062168D01*
X0239361Y0060891D01*
X0239361Y0059509D01*
X0239820Y0058399D02*
X0236283Y0058399D01*
X0235892Y0057800D02*
X0240321Y0057800D01*
X0240994Y0057202D02*
X0235317Y0057202D01*
X0234277Y0056603D02*
X0262684Y0056603D01*
X0262410Y0056878D02*
X0262978Y0056310D01*
X0263627Y0055838D01*
X0264342Y0055474D01*
X0265106Y0055226D01*
X0265899Y0055100D01*
X0266000Y0055100D01*
X0266000Y0059900D01*
X0266600Y0059900D01*
X0266600Y0060500D01*
X0271400Y0060500D01*
X0271400Y0060601D01*
X0271274Y0061394D01*
X0271026Y0062158D01*
X0270662Y0062873D01*
X0270190Y0063522D01*
X0269622Y0064090D01*
X0268973Y0064562D01*
X0268258Y0064926D01*
X0267494Y0065174D01*
X0266701Y0065300D01*
X0266600Y0065300D01*
X0266600Y0060500D01*
X0266000Y0060500D01*
X0266000Y0065300D01*
X0265899Y0065300D01*
X0265106Y0065174D01*
X0264342Y0064926D01*
X0263627Y0064562D01*
X0262978Y0064090D01*
X0262410Y0063522D01*
X0261938Y0062873D01*
X0261574Y0062158D01*
X0261326Y0061394D01*
X0261200Y0060601D01*
X0261200Y0060500D01*
X0266000Y0060500D01*
X0266000Y0059900D01*
X0261200Y0059900D01*
X0261200Y0059799D01*
X0261326Y0059006D01*
X0261574Y0058242D01*
X0261938Y0057527D01*
X0262410Y0056878D01*
X0262174Y0057202D02*
X0244677Y0057202D01*
X0245350Y0057800D02*
X0261799Y0057800D01*
X0261523Y0058399D02*
X0245850Y0058399D01*
X0246098Y0058997D02*
X0261328Y0058997D01*
X0261232Y0059596D02*
X0246310Y0059596D01*
X0246310Y0060194D02*
X0266000Y0060194D01*
X0266000Y0059596D02*
X0266600Y0059596D01*
X0266600Y0059900D02*
X0266600Y0055100D01*
X0266701Y0055100D01*
X0267494Y0055226D01*
X0268258Y0055474D01*
X0268973Y0055838D01*
X0269622Y0056310D01*
X0270190Y0056878D01*
X0270662Y0057527D01*
X0271026Y0058242D01*
X0271274Y0059006D01*
X0271400Y0059799D01*
X0271400Y0059900D01*
X0266600Y0059900D01*
X0266600Y0060194D02*
X0290591Y0060194D01*
X0290591Y0059596D02*
X0271368Y0059596D01*
X0271272Y0058997D02*
X0290591Y0058997D01*
X0290591Y0058399D02*
X0271077Y0058399D01*
X0270801Y0057800D02*
X0290591Y0057800D01*
X0290591Y0057202D02*
X0270426Y0057202D01*
X0269916Y0056603D02*
X0290591Y0056603D01*
X0290591Y0056005D02*
X0269202Y0056005D01*
X0268050Y0055406D02*
X0290591Y0055406D01*
X0290591Y0054808D02*
X0184579Y0054808D01*
X0184818Y0055406D02*
X0264550Y0055406D01*
X0263398Y0056005D02*
X0184978Y0056005D01*
X0185125Y0056603D02*
X0231393Y0056603D01*
X0232535Y0056603D02*
X0233135Y0056603D01*
X0233135Y0057202D02*
X0232535Y0057202D01*
X0232535Y0057800D02*
X0233135Y0057800D01*
X0233135Y0058399D02*
X0232535Y0058399D01*
X0232535Y0058997D02*
X0233135Y0058997D01*
X0233135Y0060500D02*
X0236710Y0060500D01*
X0236710Y0060582D01*
X0236561Y0061330D01*
X0236269Y0062035D01*
X0235845Y0062670D01*
X0235305Y0063210D01*
X0234671Y0063634D01*
X0233966Y0063926D01*
X0233217Y0064075D01*
X0233135Y0064075D01*
X0233135Y0060500D01*
X0233135Y0060793D02*
X0232535Y0060793D01*
X0232535Y0061391D02*
X0233135Y0061391D01*
X0233135Y0061990D02*
X0232535Y0061990D01*
X0232535Y0062588D02*
X0233135Y0062588D01*
X0233135Y0063187D02*
X0232535Y0063187D01*
X0232535Y0063785D02*
X0233135Y0063785D01*
X0234305Y0063785D02*
X0262673Y0063785D01*
X0262166Y0063187D02*
X0244705Y0063187D01*
X0245361Y0062588D02*
X0261793Y0062588D01*
X0261519Y0061990D02*
X0245855Y0061990D01*
X0246103Y0061391D02*
X0261325Y0061391D01*
X0261230Y0060793D02*
X0246310Y0060793D01*
X0240966Y0063187D02*
X0235328Y0063187D01*
X0235900Y0062588D02*
X0240310Y0062588D01*
X0239816Y0061990D02*
X0236288Y0061990D01*
X0236536Y0061391D02*
X0239568Y0061391D01*
X0239361Y0060793D02*
X0236668Y0060793D01*
X0231366Y0063785D02*
X0183450Y0063785D01*
X0182985Y0064384D02*
X0263382Y0064384D01*
X0264515Y0064982D02*
X0182387Y0064982D01*
X0181677Y0065581D02*
X0195017Y0065581D01*
X0193572Y0066179D02*
X0180796Y0066179D01*
X0179601Y0066778D02*
X0192696Y0066778D01*
X0199788Y0065581D02*
X0290591Y0065581D01*
X0290591Y0066179D02*
X0201233Y0066179D01*
X0202109Y0066778D02*
X0290591Y0066778D01*
X0290591Y0067376D02*
X0202708Y0067376D01*
X0203306Y0067975D02*
X0290591Y0067975D01*
X0290591Y0068573D02*
X0203869Y0068573D01*
X0204117Y0069172D02*
X0290591Y0069172D01*
X0290591Y0069770D02*
X0204365Y0069770D01*
X0204613Y0070369D02*
X0290591Y0070369D01*
X0290591Y0070968D02*
X0204861Y0070968D01*
X0205002Y0071566D02*
X0290591Y0071566D01*
X0290591Y0072165D02*
X0205002Y0072165D01*
X0205002Y0072763D02*
X0290591Y0072763D01*
X0290591Y0073362D02*
X0205002Y0073362D01*
X0205002Y0073960D02*
X0290591Y0073960D01*
X0290591Y0074559D02*
X0204907Y0074559D01*
X0204659Y0075157D02*
X0290591Y0075157D01*
X0290591Y0075756D02*
X0204411Y0075756D01*
X0204163Y0076354D02*
X0290591Y0076354D01*
X0290591Y0076953D02*
X0203915Y0076953D01*
X0203416Y0077551D02*
X0290591Y0077551D01*
X0290591Y0078150D02*
X0202818Y0078150D01*
X0202219Y0078748D02*
X0290591Y0078748D01*
X0290591Y0079347D02*
X0201499Y0079347D01*
X0200054Y0079945D02*
X0290591Y0079945D01*
X0290591Y0080544D02*
X0017600Y0080544D01*
X0017600Y0081142D02*
X0290591Y0081142D01*
X0290591Y0081741D02*
X0017600Y0081741D01*
X0017600Y0082339D02*
X0290591Y0082339D01*
X0290591Y0082938D02*
X0017600Y0082938D01*
X0017600Y0083536D02*
X0290591Y0083536D01*
X0290591Y0084135D02*
X0017600Y0084135D01*
X0017600Y0084733D02*
X0290591Y0084733D01*
X0290591Y0085332D02*
X0017600Y0085332D01*
X0017600Y0085930D02*
X0290591Y0085930D01*
X0290591Y0086529D02*
X0017600Y0086529D01*
X0017600Y0087127D02*
X0290591Y0087127D01*
X0290591Y0087726D02*
X0284607Y0087726D01*
X0284281Y0087400D02*
X0286800Y0089919D01*
X0286800Y0091400D01*
X0282800Y0091400D01*
X0282800Y0092000D01*
X0282200Y0092000D01*
X0282200Y0096000D01*
X0280719Y0096000D01*
X0278200Y0093481D01*
X0278200Y0092000D01*
X0282200Y0092000D01*
X0282200Y0091400D01*
X0278200Y0091400D01*
X0278200Y0089919D01*
X0280719Y0087400D01*
X0282200Y0087400D01*
X0282200Y0091400D01*
X0282800Y0091400D01*
X0282800Y0087400D01*
X0284281Y0087400D01*
X0285205Y0088324D02*
X0290591Y0088324D01*
X0290591Y0088923D02*
X0285804Y0088923D01*
X0286402Y0089521D02*
X0290591Y0089521D01*
X0290591Y0090120D02*
X0286800Y0090120D01*
X0286800Y0090718D02*
X0290591Y0090718D01*
X0290591Y0091317D02*
X0286800Y0091317D01*
X0286800Y0092000D02*
X0286800Y0093481D01*
X0284281Y0096000D01*
X0282800Y0096000D01*
X0282800Y0092000D01*
X0286800Y0092000D01*
X0286800Y0092514D02*
X0290591Y0092514D01*
X0290591Y0093112D02*
X0286800Y0093112D01*
X0286570Y0093711D02*
X0290591Y0093711D01*
X0290591Y0094309D02*
X0285972Y0094309D01*
X0285373Y0094908D02*
X0290591Y0094908D01*
X0290591Y0095506D02*
X0284775Y0095506D01*
X0284281Y0097400D02*
X0286800Y0099919D01*
X0286800Y0101400D01*
X0282800Y0101400D01*
X0282800Y0102000D01*
X0282200Y0102000D01*
X0282200Y0106000D01*
X0280719Y0106000D01*
X0278200Y0103481D01*
X0278200Y0102000D01*
X0282200Y0102000D01*
X0282200Y0101400D01*
X0278200Y0101400D01*
X0278200Y0099919D01*
X0280719Y0097400D01*
X0282200Y0097400D01*
X0282200Y0101400D01*
X0282800Y0101400D01*
X0282800Y0097400D01*
X0284281Y0097400D01*
X0284782Y0097901D02*
X0290591Y0097901D01*
X0290591Y0098499D02*
X0285380Y0098499D01*
X0285979Y0099098D02*
X0290591Y0099098D01*
X0290591Y0099696D02*
X0286577Y0099696D01*
X0286800Y0100295D02*
X0290591Y0100295D01*
X0290591Y0100893D02*
X0286800Y0100893D01*
X0286800Y0102000D02*
X0286800Y0103481D01*
X0284281Y0106000D01*
X0282800Y0106000D01*
X0282800Y0102000D01*
X0286800Y0102000D01*
X0286800Y0102090D02*
X0290591Y0102090D01*
X0290591Y0101492D02*
X0282800Y0101492D01*
X0282800Y0102090D02*
X0282200Y0102090D01*
X0282200Y0101492D02*
X0276400Y0101492D01*
X0276400Y0102090D02*
X0278200Y0102090D01*
X0278200Y0102689D02*
X0276400Y0102689D01*
X0276400Y0103287D02*
X0278200Y0103287D01*
X0278605Y0103886D02*
X0275830Y0103886D01*
X0276400Y0103315D02*
X0274115Y0105600D01*
X0270885Y0105600D01*
X0268600Y0103315D01*
X0268600Y0100085D01*
X0270885Y0097800D01*
X0274115Y0097800D01*
X0276400Y0100085D01*
X0276400Y0103315D01*
X0275231Y0104484D02*
X0279203Y0104484D01*
X0279802Y0105083D02*
X0274633Y0105083D01*
X0274115Y0107800D02*
X0270885Y0107800D01*
X0268600Y0110085D01*
X0268600Y0113315D01*
X0270885Y0115600D01*
X0274115Y0115600D01*
X0276400Y0113315D01*
X0276400Y0110085D01*
X0274115Y0107800D01*
X0274391Y0108075D02*
X0280044Y0108075D01*
X0280642Y0107477D02*
X0032543Y0107477D01*
X0032449Y0107704D02*
X0031352Y0108802D01*
X0029918Y0109395D01*
X0022367Y0109395D01*
X0020933Y0108802D01*
X0019836Y0107704D01*
X0019243Y0106271D01*
X0019243Y0104720D01*
X0019836Y0103286D01*
X0020933Y0102189D01*
X0022367Y0101595D01*
X0029918Y0101595D01*
X0031352Y0102189D01*
X0032449Y0103286D01*
X0033043Y0104720D01*
X0033043Y0106271D01*
X0032449Y0107704D01*
X0032078Y0108075D02*
X0270609Y0108075D01*
X0270011Y0108674D02*
X0031479Y0108674D01*
X0030215Y0109272D02*
X0269412Y0109272D01*
X0268814Y0109871D02*
X0017600Y0109871D01*
X0017600Y0110469D02*
X0268600Y0110469D01*
X0268600Y0111068D02*
X0017600Y0111068D01*
X0017600Y0111666D02*
X0021186Y0111666D01*
X0020889Y0111818D02*
X0021492Y0111510D01*
X0022136Y0111301D01*
X0022804Y0111195D01*
X0025843Y0111195D01*
X0025843Y0115195D01*
X0026442Y0115195D01*
X0026442Y0111195D01*
X0029481Y0111195D01*
X0030149Y0111301D01*
X0030793Y0111510D01*
X0031396Y0111818D01*
X0031944Y0112215D01*
X0032422Y0112694D01*
X0032820Y0113242D01*
X0033127Y0113845D01*
X0033337Y0114488D01*
X0033443Y0115157D01*
X0033443Y0115195D01*
X0026443Y0115195D01*
X0026443Y0115795D01*
X0033443Y0115795D01*
X0033443Y0115834D01*
X0033337Y0116502D01*
X0033127Y0117146D01*
X0032820Y0117749D01*
X0032422Y0118297D01*
X0031944Y0118775D01*
X0031396Y0119173D01*
X0030793Y0119480D01*
X0030149Y0119689D01*
X0029481Y0119795D01*
X0026442Y0119795D01*
X0026442Y0115795D01*
X0025843Y0115795D01*
X0025843Y0119795D01*
X0022804Y0119795D01*
X0022136Y0119689D01*
X0021492Y0119480D01*
X0020889Y0119173D01*
X0020341Y0118775D01*
X0019863Y0118297D01*
X0019465Y0117749D01*
X0019158Y0117146D01*
X0018948Y0116502D01*
X0018843Y0115834D01*
X0018843Y0115795D01*
X0025842Y0115795D01*
X0025842Y0115195D01*
X0018843Y0115195D01*
X0018843Y0115157D01*
X0018948Y0114488D01*
X0019158Y0113845D01*
X0019465Y0113242D01*
X0019863Y0112694D01*
X0020341Y0112215D01*
X0020889Y0111818D01*
X0020292Y0112265D02*
X0017600Y0112265D01*
X0017600Y0112863D02*
X0019740Y0112863D01*
X0019353Y0113462D02*
X0017600Y0113462D01*
X0017600Y0114060D02*
X0019087Y0114060D01*
X0018921Y0114659D02*
X0017600Y0114659D01*
X0017600Y0115257D02*
X0025842Y0115257D01*
X0025843Y0114659D02*
X0026442Y0114659D01*
X0026443Y0115257D02*
X0270542Y0115257D01*
X0269943Y0114659D02*
X0033364Y0114659D01*
X0033198Y0114060D02*
X0269345Y0114060D01*
X0268746Y0113462D02*
X0032932Y0113462D01*
X0032545Y0112863D02*
X0268600Y0112863D01*
X0268600Y0112265D02*
X0031993Y0112265D01*
X0031099Y0111666D02*
X0268600Y0111666D01*
X0274989Y0108674D02*
X0279445Y0108674D01*
X0278847Y0109272D02*
X0275588Y0109272D01*
X0276186Y0109871D02*
X0278248Y0109871D01*
X0278200Y0109919D02*
X0280719Y0107400D01*
X0282200Y0107400D01*
X0282200Y0111400D01*
X0278200Y0111400D01*
X0278200Y0109919D01*
X0278200Y0110469D02*
X0276400Y0110469D01*
X0276400Y0111068D02*
X0278200Y0111068D01*
X0278200Y0112000D02*
X0282200Y0112000D01*
X0282200Y0116000D01*
X0280719Y0116000D01*
X0278200Y0113481D01*
X0278200Y0112000D01*
X0278200Y0112265D02*
X0276400Y0112265D01*
X0276400Y0112863D02*
X0278200Y0112863D01*
X0278200Y0113462D02*
X0276254Y0113462D01*
X0275655Y0114060D02*
X0278779Y0114060D01*
X0279378Y0114659D02*
X0275057Y0114659D01*
X0274458Y0115257D02*
X0279976Y0115257D01*
X0280575Y0115856D02*
X0033439Y0115856D01*
X0033344Y0116454D02*
X0290591Y0116454D01*
X0290591Y0115856D02*
X0284425Y0115856D01*
X0284281Y0116000D02*
X0282800Y0116000D01*
X0282800Y0112000D01*
X0282200Y0112000D01*
X0282200Y0111400D01*
X0282800Y0111400D01*
X0282800Y0112000D01*
X0286800Y0112000D01*
X0286800Y0113481D01*
X0284281Y0116000D01*
X0285024Y0115257D02*
X0290591Y0115257D01*
X0290591Y0114659D02*
X0285622Y0114659D01*
X0286221Y0114060D02*
X0290591Y0114060D01*
X0290591Y0113462D02*
X0286800Y0113462D01*
X0286800Y0112863D02*
X0290591Y0112863D01*
X0290591Y0112265D02*
X0286800Y0112265D01*
X0286800Y0111400D02*
X0282800Y0111400D01*
X0282800Y0107400D01*
X0284281Y0107400D01*
X0286800Y0109919D01*
X0286800Y0111400D01*
X0286800Y0111068D02*
X0290591Y0111068D01*
X0290591Y0111666D02*
X0282800Y0111666D01*
X0282800Y0111068D02*
X0282200Y0111068D01*
X0282200Y0111666D02*
X0276400Y0111666D01*
X0282200Y0112265D02*
X0282800Y0112265D01*
X0282800Y0112863D02*
X0282200Y0112863D01*
X0282200Y0113462D02*
X0282800Y0113462D01*
X0282800Y0114060D02*
X0282200Y0114060D01*
X0282200Y0114659D02*
X0282800Y0114659D01*
X0282800Y0115257D02*
X0282200Y0115257D01*
X0282200Y0115856D02*
X0282800Y0115856D01*
X0282800Y0117400D02*
X0284281Y0117400D01*
X0286800Y0119919D01*
X0286800Y0121400D01*
X0282800Y0121400D01*
X0282800Y0122000D01*
X0282200Y0122000D01*
X0282200Y0126000D01*
X0280719Y0126000D01*
X0278200Y0123481D01*
X0278200Y0122000D01*
X0282200Y0122000D01*
X0282200Y0121400D01*
X0278200Y0121400D01*
X0278200Y0119919D01*
X0280719Y0117400D01*
X0282200Y0117400D01*
X0282200Y0121400D01*
X0282800Y0121400D01*
X0282800Y0117400D01*
X0282800Y0117651D02*
X0282200Y0117651D01*
X0282200Y0118250D02*
X0282800Y0118250D01*
X0282800Y0118848D02*
X0282200Y0118848D01*
X0282200Y0119447D02*
X0282800Y0119447D01*
X0282800Y0120045D02*
X0282200Y0120045D01*
X0282200Y0120644D02*
X0282800Y0120644D01*
X0282800Y0121242D02*
X0282200Y0121242D01*
X0282200Y0121841D02*
X0276400Y0121841D01*
X0276400Y0122439D02*
X0278200Y0122439D01*
X0278200Y0123038D02*
X0276400Y0123038D01*
X0276400Y0123315D02*
X0274115Y0125600D01*
X0270885Y0125600D01*
X0268600Y0123315D01*
X0268600Y0120085D01*
X0270885Y0117800D01*
X0274115Y0117800D01*
X0276400Y0120085D01*
X0276400Y0123315D01*
X0276079Y0123637D02*
X0278355Y0123637D01*
X0278954Y0124235D02*
X0275480Y0124235D01*
X0274882Y0124834D02*
X0279552Y0124834D01*
X0280151Y0125432D02*
X0274283Y0125432D01*
X0274115Y0127800D02*
X0270885Y0127800D01*
X0268600Y0130085D01*
X0268600Y0133315D01*
X0270885Y0135600D01*
X0274115Y0135600D01*
X0276400Y0133315D01*
X0276400Y0130085D01*
X0274115Y0127800D01*
X0274141Y0127826D02*
X0280293Y0127826D01*
X0280719Y0127400D02*
X0278200Y0129919D01*
X0278200Y0131400D01*
X0282200Y0131400D01*
X0282200Y0132000D01*
X0282200Y0136000D01*
X0280719Y0136000D01*
X0278200Y0133481D01*
X0278200Y0132000D01*
X0282200Y0132000D01*
X0282800Y0132000D01*
X0282800Y0136000D01*
X0284281Y0136000D01*
X0286800Y0133481D01*
X0286800Y0132000D01*
X0282800Y0132000D01*
X0282800Y0131400D01*
X0286800Y0131400D01*
X0286800Y0129919D01*
X0284281Y0127400D01*
X0282800Y0127400D01*
X0282800Y0131400D01*
X0282200Y0131400D01*
X0282200Y0127400D01*
X0280719Y0127400D01*
X0279694Y0128425D02*
X0274740Y0128425D01*
X0275339Y0129023D02*
X0279096Y0129023D01*
X0278497Y0129622D02*
X0275937Y0129622D01*
X0276400Y0130220D02*
X0278200Y0130220D01*
X0278200Y0130819D02*
X0276400Y0130819D01*
X0276400Y0131417D02*
X0282200Y0131417D01*
X0282200Y0130819D02*
X0282800Y0130819D01*
X0282800Y0131417D02*
X0290591Y0131417D01*
X0290591Y0130819D02*
X0286800Y0130819D01*
X0286800Y0130220D02*
X0290591Y0130220D01*
X0290591Y0129622D02*
X0286503Y0129622D01*
X0285904Y0129023D02*
X0290591Y0129023D01*
X0290591Y0128425D02*
X0285306Y0128425D01*
X0284707Y0127826D02*
X0290591Y0127826D01*
X0290591Y0127228D02*
X0032646Y0127228D01*
X0032449Y0127704D02*
X0031352Y0128802D01*
X0029918Y0129395D01*
X0022367Y0129395D01*
X0020933Y0128802D01*
X0019836Y0127704D01*
X0019243Y0126271D01*
X0019243Y0124720D01*
X0019836Y0123286D01*
X0020933Y0122189D01*
X0022367Y0121595D01*
X0029918Y0121595D01*
X0031352Y0122189D01*
X0032449Y0123286D01*
X0033043Y0124720D01*
X0033043Y0126271D01*
X0032449Y0127704D01*
X0032327Y0127826D02*
X0270858Y0127826D01*
X0270260Y0128425D02*
X0031729Y0128425D01*
X0030817Y0129023D02*
X0269661Y0129023D01*
X0269063Y0129622D02*
X0017600Y0129622D01*
X0017600Y0130220D02*
X0268600Y0130220D01*
X0268600Y0130819D02*
X0017600Y0130819D01*
X0017600Y0131417D02*
X0268600Y0131417D01*
X0268600Y0132016D02*
X0030933Y0132016D01*
X0031352Y0132189D02*
X0032449Y0133286D01*
X0033043Y0134720D01*
X0033043Y0136271D01*
X0032449Y0137704D01*
X0031352Y0138802D01*
X0029918Y0139395D01*
X0022367Y0139395D01*
X0020933Y0138802D01*
X0019836Y0137704D01*
X0019243Y0136271D01*
X0019243Y0134720D01*
X0019836Y0133286D01*
X0020933Y0132189D01*
X0022367Y0131595D01*
X0029918Y0131595D01*
X0031352Y0132189D01*
X0031777Y0132614D02*
X0268600Y0132614D01*
X0268600Y0133213D02*
X0032375Y0133213D01*
X0032666Y0133811D02*
X0269096Y0133811D01*
X0269694Y0134410D02*
X0032914Y0134410D01*
X0033043Y0135008D02*
X0270293Y0135008D01*
X0269127Y0137800D02*
X0268600Y0138327D01*
X0268600Y0145073D01*
X0269127Y0145600D01*
X0275873Y0145600D01*
X0276400Y0145073D01*
X0276400Y0138327D01*
X0275873Y0137800D01*
X0269127Y0137800D01*
X0268926Y0138001D02*
X0032152Y0138001D01*
X0032574Y0137402D02*
X0280717Y0137402D01*
X0280719Y0137400D02*
X0278200Y0139919D01*
X0278200Y0141400D01*
X0282200Y0141400D01*
X0282200Y0142000D01*
X0282200Y0146000D01*
X0280719Y0146000D01*
X0278200Y0143481D01*
X0278200Y0142000D01*
X0282200Y0142000D01*
X0282800Y0142000D01*
X0282800Y0146000D01*
X0284281Y0146000D01*
X0286800Y0143481D01*
X0286800Y0142000D01*
X0282800Y0142000D01*
X0282800Y0141400D01*
X0286800Y0141400D01*
X0286800Y0139919D01*
X0284281Y0137400D01*
X0282800Y0137400D01*
X0282800Y0141400D01*
X0282200Y0141400D01*
X0282200Y0137400D01*
X0280719Y0137400D01*
X0280118Y0138001D02*
X0276074Y0138001D01*
X0276400Y0138599D02*
X0279520Y0138599D01*
X0278921Y0139198D02*
X0276400Y0139198D01*
X0276400Y0139796D02*
X0278323Y0139796D01*
X0278200Y0140395D02*
X0276400Y0140395D01*
X0276400Y0140993D02*
X0278200Y0140993D01*
X0278200Y0142190D02*
X0276400Y0142190D01*
X0276400Y0141592D02*
X0282200Y0141592D01*
X0282200Y0142190D02*
X0282800Y0142190D01*
X0282800Y0141592D02*
X0290591Y0141592D01*
X0290591Y0142190D02*
X0286800Y0142190D01*
X0286800Y0142789D02*
X0290591Y0142789D01*
X0290591Y0143387D02*
X0286800Y0143387D01*
X0286295Y0143986D02*
X0290591Y0143986D01*
X0290591Y0144584D02*
X0285697Y0144584D01*
X0285098Y0145183D02*
X0290591Y0145183D01*
X0290591Y0145781D02*
X0284500Y0145781D01*
X0282800Y0145781D02*
X0282200Y0145781D01*
X0282200Y0145183D02*
X0282800Y0145183D01*
X0282800Y0144584D02*
X0282200Y0144584D01*
X0282200Y0143986D02*
X0282800Y0143986D01*
X0282800Y0143387D02*
X0282200Y0143387D01*
X0282200Y0142789D02*
X0282800Y0142789D01*
X0282800Y0140993D02*
X0282200Y0140993D01*
X0282200Y0140395D02*
X0282800Y0140395D01*
X0282800Y0139796D02*
X0282200Y0139796D01*
X0282200Y0139198D02*
X0282800Y0139198D01*
X0282800Y0138599D02*
X0282200Y0138599D01*
X0282200Y0138001D02*
X0282800Y0138001D01*
X0282800Y0137402D02*
X0282200Y0137402D01*
X0282200Y0135607D02*
X0282800Y0135607D01*
X0282800Y0135008D02*
X0282200Y0135008D01*
X0282200Y0134410D02*
X0282800Y0134410D01*
X0282800Y0133811D02*
X0282200Y0133811D01*
X0282200Y0133213D02*
X0282800Y0133213D01*
X0282800Y0132614D02*
X0282200Y0132614D01*
X0282200Y0132016D02*
X0282800Y0132016D01*
X0282800Y0130220D02*
X0282200Y0130220D01*
X0282200Y0129622D02*
X0282800Y0129622D01*
X0282800Y0129023D02*
X0282200Y0129023D01*
X0282200Y0128425D02*
X0282800Y0128425D01*
X0282800Y0127826D02*
X0282200Y0127826D01*
X0282800Y0126000D02*
X0282800Y0122000D01*
X0286800Y0122000D01*
X0286800Y0123481D01*
X0284281Y0126000D01*
X0282800Y0126000D01*
X0282800Y0125432D02*
X0282200Y0125432D01*
X0282200Y0124834D02*
X0282800Y0124834D01*
X0282800Y0124235D02*
X0282200Y0124235D01*
X0282200Y0123637D02*
X0282800Y0123637D01*
X0282800Y0123038D02*
X0282200Y0123038D01*
X0282200Y0122439D02*
X0282800Y0122439D01*
X0282800Y0121841D02*
X0290591Y0121841D01*
X0290591Y0122439D02*
X0286800Y0122439D01*
X0286800Y0123038D02*
X0290591Y0123038D01*
X0290591Y0123637D02*
X0286645Y0123637D01*
X0286046Y0124235D02*
X0290591Y0124235D01*
X0290591Y0124834D02*
X0285448Y0124834D01*
X0284849Y0125432D02*
X0290591Y0125432D01*
X0290591Y0126031D02*
X0033043Y0126031D01*
X0033043Y0125432D02*
X0270717Y0125432D01*
X0270118Y0124834D02*
X0033043Y0124834D01*
X0032842Y0124235D02*
X0269520Y0124235D01*
X0268921Y0123637D02*
X0032594Y0123637D01*
X0032201Y0123038D02*
X0268600Y0123038D01*
X0268600Y0122439D02*
X0031602Y0122439D01*
X0030511Y0121841D02*
X0268600Y0121841D01*
X0268600Y0121242D02*
X0017600Y0121242D01*
X0017600Y0120644D02*
X0268600Y0120644D01*
X0268639Y0120045D02*
X0017600Y0120045D01*
X0017600Y0119447D02*
X0021427Y0119447D01*
X0020442Y0118848D02*
X0017600Y0118848D01*
X0017600Y0118250D02*
X0019829Y0118250D01*
X0019415Y0117651D02*
X0017600Y0117651D01*
X0017600Y0117053D02*
X0019127Y0117053D01*
X0018941Y0116454D02*
X0017600Y0116454D01*
X0017600Y0115856D02*
X0018846Y0115856D01*
X0017600Y0121841D02*
X0021774Y0121841D01*
X0020683Y0122439D02*
X0017600Y0122439D01*
X0017600Y0123038D02*
X0020084Y0123038D01*
X0019691Y0123637D02*
X0017600Y0123637D01*
X0017600Y0124235D02*
X0019443Y0124235D01*
X0019243Y0124834D02*
X0017600Y0124834D01*
X0017600Y0125432D02*
X0019243Y0125432D01*
X0019243Y0126031D02*
X0017600Y0126031D01*
X0017600Y0126629D02*
X0019391Y0126629D01*
X0019639Y0127228D02*
X0017600Y0127228D01*
X0017600Y0127826D02*
X0019958Y0127826D01*
X0020556Y0128425D02*
X0017600Y0128425D01*
X0017600Y0129023D02*
X0021468Y0129023D01*
X0021352Y0132016D02*
X0017600Y0132016D01*
X0017600Y0132614D02*
X0020508Y0132614D01*
X0019910Y0133213D02*
X0017600Y0133213D01*
X0017600Y0133811D02*
X0019619Y0133811D01*
X0019371Y0134410D02*
X0017600Y0134410D01*
X0017600Y0135008D02*
X0019243Y0135008D01*
X0019243Y0135607D02*
X0017600Y0135607D01*
X0017600Y0136205D02*
X0019243Y0136205D01*
X0019463Y0136804D02*
X0017600Y0136804D01*
X0017600Y0137402D02*
X0019711Y0137402D01*
X0020133Y0138001D02*
X0017600Y0138001D01*
X0017600Y0138599D02*
X0020731Y0138599D01*
X0021890Y0139198D02*
X0017600Y0139198D01*
X0017600Y0139796D02*
X0268600Y0139796D01*
X0268600Y0139198D02*
X0030395Y0139198D01*
X0031554Y0138599D02*
X0268600Y0138599D01*
X0268600Y0140395D02*
X0017600Y0140395D01*
X0017600Y0140993D02*
X0268600Y0140993D01*
X0268600Y0141592D02*
X0017600Y0141592D01*
X0017600Y0142190D02*
X0020932Y0142190D01*
X0020933Y0142189D02*
X0022367Y0141595D01*
X0029918Y0141595D01*
X0031352Y0142189D01*
X0032449Y0143286D01*
X0033043Y0144720D01*
X0033043Y0146271D01*
X0032449Y0147704D01*
X0031352Y0148802D01*
X0029918Y0149395D01*
X0022367Y0149395D01*
X0020933Y0148802D01*
X0019836Y0147704D01*
X0019243Y0146271D01*
X0019243Y0144720D01*
X0019836Y0143286D01*
X0020933Y0142189D01*
X0020333Y0142789D02*
X0017600Y0142789D01*
X0017600Y0143387D02*
X0019794Y0143387D01*
X0019546Y0143986D02*
X0017600Y0143986D01*
X0017600Y0144584D02*
X0019298Y0144584D01*
X0019243Y0145183D02*
X0017600Y0145183D01*
X0017600Y0145781D02*
X0019243Y0145781D01*
X0019288Y0146380D02*
X0017600Y0146380D01*
X0017600Y0146978D02*
X0019536Y0146978D01*
X0019783Y0147577D02*
X0017600Y0147577D01*
X0017600Y0148175D02*
X0020307Y0148175D01*
X0020906Y0148774D02*
X0017600Y0148774D01*
X0017600Y0149372D02*
X0022312Y0149372D01*
X0017600Y0149971D02*
X0290591Y0149971D01*
X0290591Y0150570D02*
X0017600Y0150570D01*
X0017600Y0151168D02*
X0080959Y0151168D01*
X0081365Y0151000D02*
X0083235Y0151000D01*
X0084962Y0151716D01*
X0086284Y0153038D01*
X0087000Y0154765D01*
X0087000Y0156635D01*
X0086284Y0158362D01*
X0084962Y0159684D01*
X0083235Y0160400D01*
X0081365Y0160400D01*
X0079638Y0159684D01*
X0078316Y0158362D01*
X0077600Y0156635D01*
X0077600Y0154765D01*
X0078316Y0153038D01*
X0079638Y0151716D01*
X0081365Y0151000D01*
X0079587Y0151767D02*
X0017600Y0151767D01*
X0017600Y0152365D02*
X0078988Y0152365D01*
X0078390Y0152964D02*
X0017600Y0152964D01*
X0017600Y0153562D02*
X0078098Y0153562D01*
X0077850Y0154161D02*
X0017600Y0154161D01*
X0017600Y0154759D02*
X0077602Y0154759D01*
X0077600Y0155358D02*
X0017600Y0155358D01*
X0017600Y0155956D02*
X0077600Y0155956D01*
X0077600Y0156555D02*
X0017600Y0156555D01*
X0017600Y0157153D02*
X0077815Y0157153D01*
X0078063Y0157752D02*
X0017600Y0157752D01*
X0017600Y0158350D02*
X0078310Y0158350D01*
X0078902Y0158949D02*
X0017600Y0158949D01*
X0017600Y0159547D02*
X0079500Y0159547D01*
X0080751Y0160146D02*
X0017600Y0160146D01*
X0017600Y0160744D02*
X0290591Y0160744D01*
X0290591Y0160146D02*
X0083849Y0160146D01*
X0085100Y0159547D02*
X0290591Y0159547D01*
X0290591Y0158949D02*
X0085698Y0158949D01*
X0086290Y0158350D02*
X0290591Y0158350D01*
X0290591Y0157752D02*
X0086537Y0157752D01*
X0086785Y0157153D02*
X0290591Y0157153D01*
X0290591Y0156555D02*
X0087000Y0156555D01*
X0087000Y0155956D02*
X0290591Y0155956D01*
X0290591Y0155358D02*
X0087000Y0155358D01*
X0086997Y0154759D02*
X0290591Y0154759D01*
X0290591Y0154161D02*
X0086750Y0154161D01*
X0086502Y0153562D02*
X0290591Y0153562D01*
X0290591Y0152964D02*
X0086210Y0152964D01*
X0085612Y0152365D02*
X0290591Y0152365D01*
X0290591Y0151767D02*
X0085013Y0151767D01*
X0083641Y0151168D02*
X0290591Y0151168D01*
X0290591Y0149372D02*
X0029973Y0149372D01*
X0031379Y0148774D02*
X0290591Y0148774D01*
X0290591Y0148175D02*
X0031978Y0148175D01*
X0032502Y0147577D02*
X0290591Y0147577D01*
X0290591Y0146978D02*
X0032749Y0146978D01*
X0032997Y0146380D02*
X0290591Y0146380D01*
X0290591Y0140993D02*
X0286800Y0140993D01*
X0286800Y0140395D02*
X0290591Y0140395D01*
X0290591Y0139796D02*
X0286677Y0139796D01*
X0286079Y0139198D02*
X0290591Y0139198D01*
X0290591Y0138599D02*
X0285480Y0138599D01*
X0284882Y0138001D02*
X0290591Y0138001D01*
X0290591Y0137402D02*
X0284283Y0137402D01*
X0284674Y0135607D02*
X0290591Y0135607D01*
X0290591Y0136205D02*
X0033043Y0136205D01*
X0033043Y0135607D02*
X0280326Y0135607D01*
X0279727Y0135008D02*
X0274707Y0135008D01*
X0275306Y0134410D02*
X0279129Y0134410D01*
X0278530Y0133811D02*
X0275904Y0133811D01*
X0276400Y0133213D02*
X0278200Y0133213D01*
X0278200Y0132614D02*
X0276400Y0132614D01*
X0276400Y0132016D02*
X0278200Y0132016D01*
X0285273Y0135008D02*
X0290591Y0135008D01*
X0290591Y0134410D02*
X0285871Y0134410D01*
X0286470Y0133811D02*
X0290591Y0133811D01*
X0290591Y0133213D02*
X0286800Y0133213D01*
X0286800Y0132614D02*
X0290591Y0132614D01*
X0290591Y0132016D02*
X0286800Y0132016D01*
X0290591Y0136804D02*
X0032822Y0136804D01*
X0031353Y0142190D02*
X0268600Y0142190D01*
X0268600Y0142789D02*
X0031952Y0142789D01*
X0032491Y0143387D02*
X0268600Y0143387D01*
X0268600Y0143986D02*
X0032739Y0143986D01*
X0032987Y0144584D02*
X0268600Y0144584D01*
X0268710Y0145183D02*
X0033043Y0145183D01*
X0033043Y0145781D02*
X0280500Y0145781D01*
X0279902Y0145183D02*
X0276290Y0145183D01*
X0276400Y0144584D02*
X0279303Y0144584D01*
X0278705Y0143986D02*
X0276400Y0143986D01*
X0276400Y0143387D02*
X0278200Y0143387D01*
X0278200Y0142789D02*
X0276400Y0142789D01*
X0290591Y0126629D02*
X0032894Y0126629D01*
X0030859Y0119447D02*
X0269238Y0119447D01*
X0269836Y0118848D02*
X0031843Y0118848D01*
X0032456Y0118250D02*
X0270435Y0118250D01*
X0274565Y0118250D02*
X0279869Y0118250D01*
X0279270Y0118848D02*
X0275164Y0118848D01*
X0275762Y0119447D02*
X0278672Y0119447D01*
X0278200Y0120045D02*
X0276361Y0120045D01*
X0276400Y0120644D02*
X0278200Y0120644D01*
X0278200Y0121242D02*
X0276400Y0121242D01*
X0280467Y0117651D02*
X0032870Y0117651D01*
X0033158Y0117053D02*
X0290591Y0117053D01*
X0290591Y0117651D02*
X0284532Y0117651D01*
X0285131Y0118250D02*
X0290591Y0118250D01*
X0290591Y0118848D02*
X0285730Y0118848D01*
X0286328Y0119447D02*
X0290591Y0119447D01*
X0290591Y0120045D02*
X0286800Y0120045D01*
X0286800Y0120644D02*
X0290591Y0120644D01*
X0290591Y0121242D02*
X0286800Y0121242D01*
X0286800Y0110469D02*
X0290591Y0110469D01*
X0290591Y0109871D02*
X0286752Y0109871D01*
X0286153Y0109272D02*
X0290591Y0109272D01*
X0290591Y0108674D02*
X0285555Y0108674D01*
X0284956Y0108075D02*
X0290591Y0108075D01*
X0290591Y0107477D02*
X0284358Y0107477D01*
X0282800Y0107477D02*
X0282200Y0107477D01*
X0282200Y0108075D02*
X0282800Y0108075D01*
X0282800Y0108674D02*
X0282200Y0108674D01*
X0282200Y0109272D02*
X0282800Y0109272D01*
X0282800Y0109871D02*
X0282200Y0109871D01*
X0282200Y0110469D02*
X0282800Y0110469D01*
X0282800Y0105681D02*
X0282200Y0105681D01*
X0282200Y0105083D02*
X0282800Y0105083D01*
X0282800Y0104484D02*
X0282200Y0104484D01*
X0282200Y0103886D02*
X0282800Y0103886D01*
X0282800Y0103287D02*
X0282200Y0103287D01*
X0282200Y0102689D02*
X0282800Y0102689D01*
X0282800Y0100893D02*
X0282200Y0100893D01*
X0282200Y0100295D02*
X0282800Y0100295D01*
X0282800Y0099696D02*
X0282200Y0099696D01*
X0282200Y0099098D02*
X0282800Y0099098D01*
X0282800Y0098499D02*
X0282200Y0098499D01*
X0282200Y0097901D02*
X0282800Y0097901D01*
X0282800Y0095506D02*
X0282200Y0095506D01*
X0282200Y0094908D02*
X0282800Y0094908D01*
X0282800Y0094309D02*
X0282200Y0094309D01*
X0282200Y0093711D02*
X0282800Y0093711D01*
X0282800Y0093112D02*
X0282200Y0093112D01*
X0282200Y0092514D02*
X0282800Y0092514D01*
X0282800Y0091915D02*
X0290591Y0091915D01*
X0290591Y0096105D02*
X0033043Y0096105D01*
X0033043Y0096271D02*
X0032449Y0097704D01*
X0031352Y0098802D01*
X0029918Y0099395D01*
X0022367Y0099395D01*
X0020933Y0098802D01*
X0019836Y0097704D01*
X0019243Y0096271D01*
X0019243Y0094720D01*
X0019836Y0093286D01*
X0020933Y0092189D01*
X0022367Y0091595D01*
X0029918Y0091595D01*
X0031352Y0092189D01*
X0032449Y0093286D01*
X0033043Y0094720D01*
X0033043Y0096271D01*
X0032863Y0096703D02*
X0290591Y0096703D01*
X0290591Y0097302D02*
X0032615Y0097302D01*
X0032253Y0097901D02*
X0270784Y0097901D01*
X0270186Y0098499D02*
X0031654Y0098499D01*
X0030637Y0099098D02*
X0269587Y0099098D01*
X0268989Y0099696D02*
X0017600Y0099696D01*
X0017600Y0099098D02*
X0021648Y0099098D01*
X0020631Y0098499D02*
X0017600Y0098499D01*
X0017600Y0097901D02*
X0020032Y0097901D01*
X0019670Y0097302D02*
X0017600Y0097302D01*
X0017600Y0096703D02*
X0019422Y0096703D01*
X0019243Y0096105D02*
X0017600Y0096105D01*
X0017600Y0095506D02*
X0019243Y0095506D01*
X0019243Y0094908D02*
X0017600Y0094908D01*
X0017600Y0094309D02*
X0019412Y0094309D01*
X0019660Y0093711D02*
X0017600Y0093711D01*
X0017600Y0093112D02*
X0020010Y0093112D01*
X0020608Y0092514D02*
X0017600Y0092514D01*
X0017600Y0091915D02*
X0021594Y0091915D01*
X0017600Y0091317D02*
X0268600Y0091317D01*
X0268600Y0091915D02*
X0030691Y0091915D01*
X0031677Y0092514D02*
X0268600Y0092514D01*
X0268600Y0093112D02*
X0032275Y0093112D01*
X0032625Y0093711D02*
X0268996Y0093711D01*
X0268600Y0093315D02*
X0268600Y0090085D01*
X0270885Y0087800D01*
X0274115Y0087800D01*
X0276400Y0090085D01*
X0276400Y0093315D01*
X0274115Y0095600D01*
X0270885Y0095600D01*
X0268600Y0093315D01*
X0269594Y0094309D02*
X0032873Y0094309D01*
X0033043Y0094908D02*
X0270193Y0094908D01*
X0270791Y0095506D02*
X0033043Y0095506D01*
X0031113Y0102090D02*
X0268600Y0102090D01*
X0268600Y0101492D02*
X0017600Y0101492D01*
X0017600Y0102090D02*
X0021172Y0102090D01*
X0020434Y0102689D02*
X0017600Y0102689D01*
X0017600Y0103287D02*
X0019836Y0103287D01*
X0019588Y0103886D02*
X0017600Y0103886D01*
X0017600Y0104484D02*
X0019340Y0104484D01*
X0019243Y0105083D02*
X0017600Y0105083D01*
X0017600Y0105681D02*
X0019243Y0105681D01*
X0019246Y0106280D02*
X0017600Y0106280D01*
X0017600Y0106878D02*
X0019494Y0106878D01*
X0019742Y0107477D02*
X0017600Y0107477D01*
X0017600Y0108075D02*
X0020207Y0108075D01*
X0020806Y0108674D02*
X0017600Y0108674D01*
X0017600Y0109272D02*
X0022070Y0109272D01*
X0025843Y0111666D02*
X0026442Y0111666D01*
X0026442Y0112265D02*
X0025843Y0112265D01*
X0025843Y0112863D02*
X0026442Y0112863D01*
X0026442Y0113462D02*
X0025843Y0113462D01*
X0025843Y0114060D02*
X0026442Y0114060D01*
X0026442Y0115856D02*
X0025843Y0115856D01*
X0025843Y0116454D02*
X0026442Y0116454D01*
X0026442Y0117053D02*
X0025843Y0117053D01*
X0025843Y0117651D02*
X0026442Y0117651D01*
X0026442Y0118250D02*
X0025843Y0118250D01*
X0025843Y0118848D02*
X0026442Y0118848D01*
X0026442Y0119447D02*
X0025843Y0119447D01*
X0032791Y0106878D02*
X0290591Y0106878D01*
X0290591Y0106280D02*
X0033039Y0106280D01*
X0033043Y0105681D02*
X0280400Y0105681D01*
X0284600Y0105681D02*
X0290591Y0105681D01*
X0290591Y0105083D02*
X0285198Y0105083D01*
X0285797Y0104484D02*
X0290591Y0104484D01*
X0290591Y0103886D02*
X0286395Y0103886D01*
X0286800Y0103287D02*
X0290591Y0103287D01*
X0290591Y0102689D02*
X0286800Y0102689D01*
X0280218Y0097901D02*
X0274216Y0097901D01*
X0274814Y0098499D02*
X0279620Y0098499D01*
X0279021Y0099098D02*
X0275413Y0099098D01*
X0276011Y0099696D02*
X0278423Y0099696D01*
X0278200Y0100295D02*
X0276400Y0100295D01*
X0276400Y0100893D02*
X0278200Y0100893D01*
X0280225Y0095506D02*
X0274209Y0095506D01*
X0274807Y0094908D02*
X0279627Y0094908D01*
X0279028Y0094309D02*
X0275406Y0094309D01*
X0276004Y0093711D02*
X0278430Y0093711D01*
X0278200Y0093112D02*
X0276400Y0093112D01*
X0276400Y0092514D02*
X0278200Y0092514D01*
X0278200Y0091317D02*
X0276400Y0091317D01*
X0276400Y0091915D02*
X0282200Y0091915D01*
X0282200Y0091317D02*
X0282800Y0091317D01*
X0282800Y0090718D02*
X0282200Y0090718D01*
X0282200Y0090120D02*
X0282800Y0090120D01*
X0282800Y0089521D02*
X0282200Y0089521D01*
X0282200Y0088923D02*
X0282800Y0088923D01*
X0282800Y0088324D02*
X0282200Y0088324D01*
X0282200Y0087726D02*
X0282800Y0087726D01*
X0280393Y0087726D02*
X0017600Y0087726D01*
X0017600Y0088324D02*
X0270360Y0088324D01*
X0269762Y0088923D02*
X0017600Y0088923D01*
X0017600Y0089521D02*
X0269163Y0089521D01*
X0268600Y0090120D02*
X0017600Y0090120D01*
X0017600Y0090718D02*
X0268600Y0090718D01*
X0274640Y0088324D02*
X0279795Y0088324D01*
X0279196Y0088923D02*
X0275238Y0088923D01*
X0275837Y0089521D02*
X0278598Y0089521D01*
X0278200Y0090120D02*
X0276400Y0090120D01*
X0276400Y0090718D02*
X0278200Y0090718D01*
X0268600Y0100295D02*
X0017600Y0100295D01*
X0017600Y0100893D02*
X0268600Y0100893D01*
X0268600Y0102689D02*
X0031851Y0102689D01*
X0032449Y0103287D02*
X0268600Y0103287D01*
X0269170Y0103886D02*
X0032697Y0103886D01*
X0032945Y0104484D02*
X0269769Y0104484D01*
X0270367Y0105083D02*
X0033043Y0105083D01*
X0029918Y0161595D02*
X0022367Y0161595D01*
X0020933Y0162189D01*
X0019836Y0163286D01*
X0019243Y0164720D01*
X0019243Y0166271D01*
X0019836Y0167704D01*
X0020933Y0168802D01*
X0022367Y0169395D01*
X0029918Y0169395D01*
X0031352Y0168802D01*
X0032449Y0167704D01*
X0033043Y0166271D01*
X0033043Y0164720D01*
X0032449Y0163286D01*
X0031352Y0162189D01*
X0029918Y0161595D01*
X0030753Y0161941D02*
X0290591Y0161941D01*
X0290591Y0161343D02*
X0017600Y0161343D01*
X0017600Y0161941D02*
X0021532Y0161941D01*
X0020583Y0162540D02*
X0017600Y0162540D01*
X0017600Y0163138D02*
X0019984Y0163138D01*
X0019650Y0163737D02*
X0017600Y0163737D01*
X0017600Y0164335D02*
X0019402Y0164335D01*
X0019243Y0164934D02*
X0017600Y0164934D01*
X0017600Y0165532D02*
X0019243Y0165532D01*
X0019243Y0166131D02*
X0017600Y0166131D01*
X0017600Y0166729D02*
X0019432Y0166729D01*
X0019680Y0167328D02*
X0017600Y0167328D01*
X0017600Y0167926D02*
X0020058Y0167926D01*
X0020657Y0168525D02*
X0017600Y0168525D01*
X0017600Y0169123D02*
X0021710Y0169123D01*
X0022136Y0171301D02*
X0022804Y0171195D01*
X0025843Y0171195D01*
X0025843Y0175195D01*
X0026442Y0175195D01*
X0026442Y0171195D01*
X0029481Y0171195D01*
X0030149Y0171301D01*
X0030793Y0171510D01*
X0031396Y0171818D01*
X0031944Y0172215D01*
X0032422Y0172694D01*
X0032820Y0173242D01*
X0033127Y0173845D01*
X0033337Y0174488D01*
X0033443Y0175157D01*
X0033443Y0175195D01*
X0026443Y0175195D01*
X0026443Y0175795D01*
X0033443Y0175795D01*
X0033443Y0175834D01*
X0033337Y0176502D01*
X0033127Y0177146D01*
X0032820Y0177749D01*
X0032422Y0178297D01*
X0031944Y0178775D01*
X0031396Y0179173D01*
X0030793Y0179480D01*
X0030149Y0179689D01*
X0029481Y0179795D01*
X0026442Y0179795D01*
X0026442Y0175795D01*
X0025843Y0175795D01*
X0025843Y0179795D01*
X0022804Y0179795D01*
X0022136Y0179689D01*
X0021492Y0179480D01*
X0020889Y0179173D01*
X0020341Y0178775D01*
X0019863Y0178297D01*
X0019465Y0177749D01*
X0019158Y0177146D01*
X0018948Y0176502D01*
X0018843Y0175834D01*
X0018843Y0175795D01*
X0025842Y0175795D01*
X0025842Y0175195D01*
X0018843Y0175195D01*
X0018843Y0175157D01*
X0018948Y0174488D01*
X0019158Y0173845D01*
X0019465Y0173242D01*
X0019863Y0172694D01*
X0020341Y0172215D01*
X0020889Y0171818D01*
X0021492Y0171510D01*
X0022136Y0171301D01*
X0021478Y0171517D02*
X0017600Y0171517D01*
X0017600Y0170919D02*
X0268200Y0170919D01*
X0268200Y0171481D02*
X0268200Y0168250D01*
X0270485Y0165965D01*
X0273715Y0165965D01*
X0276000Y0168250D01*
X0276000Y0171481D01*
X0273715Y0173765D01*
X0270485Y0173765D01*
X0268200Y0171481D01*
X0268237Y0171517D02*
X0030807Y0171517D01*
X0031807Y0172116D02*
X0268835Y0172116D01*
X0269434Y0172714D02*
X0032437Y0172714D01*
X0032857Y0173313D02*
X0270032Y0173313D01*
X0270485Y0175965D02*
X0273715Y0175965D01*
X0276000Y0178250D01*
X0276000Y0181481D01*
X0273715Y0183765D01*
X0270485Y0183765D01*
X0268200Y0181481D01*
X0268200Y0178250D01*
X0270485Y0175965D01*
X0270144Y0176305D02*
X0033368Y0176305D01*
X0033206Y0176904D02*
X0269546Y0176904D01*
X0268947Y0177503D02*
X0032946Y0177503D01*
X0032564Y0178101D02*
X0268349Y0178101D01*
X0268200Y0178700D02*
X0032019Y0178700D01*
X0031151Y0179298D02*
X0268200Y0179298D01*
X0268200Y0179897D02*
X0017600Y0179897D01*
X0017600Y0180495D02*
X0268200Y0180495D01*
X0268200Y0181094D02*
X0017600Y0181094D01*
X0017600Y0181692D02*
X0022133Y0181692D01*
X0022367Y0181595D02*
X0020933Y0182189D01*
X0019836Y0183286D01*
X0019243Y0184720D01*
X0019243Y0186271D01*
X0019836Y0187704D01*
X0020933Y0188802D01*
X0022367Y0189395D01*
X0029918Y0189395D01*
X0031352Y0188802D01*
X0032449Y0187704D01*
X0033043Y0186271D01*
X0033043Y0184720D01*
X0032449Y0183286D01*
X0031352Y0182189D01*
X0029918Y0181595D01*
X0022367Y0181595D01*
X0020832Y0182291D02*
X0017600Y0182291D01*
X0017600Y0182889D02*
X0020233Y0182889D01*
X0019753Y0183488D02*
X0017600Y0183488D01*
X0017600Y0184086D02*
X0019505Y0184086D01*
X0019257Y0184685D02*
X0017600Y0184685D01*
X0017600Y0185283D02*
X0019243Y0185283D01*
X0019243Y0185882D02*
X0017600Y0185882D01*
X0017600Y0186480D02*
X0019329Y0186480D01*
X0019577Y0187079D02*
X0017600Y0187079D01*
X0017600Y0187677D02*
X0019825Y0187677D01*
X0020408Y0188276D02*
X0017600Y0188276D01*
X0017600Y0188874D02*
X0021109Y0188874D01*
X0022367Y0191595D02*
X0020933Y0192189D01*
X0019836Y0193286D01*
X0019243Y0194720D01*
X0019243Y0196271D01*
X0019836Y0197704D01*
X0020933Y0198802D01*
X0022367Y0199395D01*
X0029918Y0199395D01*
X0031352Y0198802D01*
X0032449Y0197704D01*
X0033043Y0196271D01*
X0033043Y0194720D01*
X0032449Y0193286D01*
X0031352Y0192189D01*
X0029918Y0191595D01*
X0022367Y0191595D01*
X0021711Y0191867D02*
X0017600Y0191867D01*
X0017600Y0192465D02*
X0020657Y0192465D01*
X0020059Y0193064D02*
X0017600Y0193064D01*
X0017600Y0193662D02*
X0019680Y0193662D01*
X0019433Y0194261D02*
X0017600Y0194261D01*
X0017600Y0194859D02*
X0019243Y0194859D01*
X0019243Y0195458D02*
X0017600Y0195458D01*
X0017600Y0196056D02*
X0019243Y0196056D01*
X0019402Y0196655D02*
X0017600Y0196655D01*
X0017600Y0197253D02*
X0019649Y0197253D01*
X0019984Y0197852D02*
X0017600Y0197852D01*
X0017600Y0198450D02*
X0020582Y0198450D01*
X0021531Y0199049D02*
X0017600Y0199049D01*
X0017600Y0199647D02*
X0268200Y0199647D01*
X0268200Y0199049D02*
X0030754Y0199049D01*
X0031703Y0198450D02*
X0268200Y0198450D01*
X0268200Y0198250D02*
X0270485Y0195965D01*
X0273715Y0195965D01*
X0276000Y0198250D01*
X0276000Y0201481D01*
X0273715Y0203765D01*
X0270485Y0203765D01*
X0268200Y0201481D01*
X0268200Y0198250D01*
X0268598Y0197852D02*
X0032301Y0197852D01*
X0032636Y0197253D02*
X0269197Y0197253D01*
X0269795Y0196655D02*
X0032884Y0196655D01*
X0033043Y0196056D02*
X0270394Y0196056D01*
X0270485Y0193765D02*
X0268200Y0191481D01*
X0268200Y0188250D01*
X0270485Y0185965D01*
X0273715Y0185965D01*
X0276000Y0188250D01*
X0276000Y0191481D01*
X0273715Y0193765D01*
X0270485Y0193765D01*
X0270382Y0193662D02*
X0032605Y0193662D01*
X0032853Y0194261D02*
X0290591Y0194261D01*
X0290591Y0194859D02*
X0033043Y0194859D01*
X0033043Y0195458D02*
X0290591Y0195458D01*
X0290591Y0196056D02*
X0284372Y0196056D01*
X0283881Y0195565D02*
X0286400Y0198084D01*
X0286400Y0199565D01*
X0282400Y0199565D01*
X0282400Y0195565D01*
X0283881Y0195565D01*
X0283881Y0194165D02*
X0282400Y0194165D01*
X0282400Y0190165D01*
X0286400Y0190165D01*
X0286400Y0191646D01*
X0283881Y0194165D01*
X0284384Y0193662D02*
X0290591Y0193662D01*
X0290591Y0193064D02*
X0284983Y0193064D01*
X0285581Y0192465D02*
X0290591Y0192465D01*
X0290591Y0191867D02*
X0286180Y0191867D01*
X0286400Y0191268D02*
X0290591Y0191268D01*
X0290591Y0190670D02*
X0286400Y0190670D01*
X0286400Y0189565D02*
X0282400Y0189565D01*
X0282400Y0185565D01*
X0283881Y0185565D01*
X0286400Y0188084D01*
X0286400Y0189565D01*
X0286400Y0189473D02*
X0290591Y0189473D01*
X0290591Y0190071D02*
X0282400Y0190071D01*
X0282400Y0190165D02*
X0282400Y0189565D01*
X0281800Y0189565D01*
X0281800Y0185565D01*
X0280319Y0185565D01*
X0277800Y0188084D01*
X0277800Y0189565D01*
X0281800Y0189565D01*
X0281800Y0190165D01*
X0277800Y0190165D01*
X0277800Y0191646D01*
X0280319Y0194165D01*
X0281800Y0194165D01*
X0281800Y0190165D01*
X0282400Y0190165D01*
X0282400Y0190670D02*
X0281800Y0190670D01*
X0281800Y0191268D02*
X0282400Y0191268D01*
X0282400Y0191867D02*
X0281800Y0191867D01*
X0281800Y0192465D02*
X0282400Y0192465D01*
X0282400Y0193064D02*
X0281800Y0193064D01*
X0281800Y0193662D02*
X0282400Y0193662D01*
X0281800Y0195565D02*
X0281800Y0199565D01*
X0282400Y0199565D01*
X0282400Y0200165D01*
X0286400Y0200165D01*
X0286400Y0201646D01*
X0283881Y0204165D01*
X0282400Y0204165D01*
X0282400Y0200165D01*
X0281800Y0200165D01*
X0281800Y0199565D01*
X0277800Y0199565D01*
X0277800Y0198084D01*
X0280319Y0195565D01*
X0281800Y0195565D01*
X0281800Y0196056D02*
X0282400Y0196056D01*
X0282400Y0196655D02*
X0281800Y0196655D01*
X0281800Y0197253D02*
X0282400Y0197253D01*
X0282400Y0197852D02*
X0281800Y0197852D01*
X0281800Y0198450D02*
X0282400Y0198450D01*
X0282400Y0199049D02*
X0281800Y0199049D01*
X0281800Y0199647D02*
X0276000Y0199647D01*
X0276000Y0199049D02*
X0277800Y0199049D01*
X0277800Y0198450D02*
X0276000Y0198450D01*
X0275602Y0197852D02*
X0278032Y0197852D01*
X0278631Y0197253D02*
X0275003Y0197253D01*
X0274405Y0196655D02*
X0279229Y0196655D01*
X0279828Y0196056D02*
X0273806Y0196056D01*
X0273818Y0193662D02*
X0279816Y0193662D01*
X0279217Y0193064D02*
X0274417Y0193064D01*
X0275015Y0192465D02*
X0278619Y0192465D01*
X0278020Y0191867D02*
X0275614Y0191867D01*
X0276000Y0191268D02*
X0277800Y0191268D01*
X0277800Y0190670D02*
X0276000Y0190670D01*
X0276000Y0190071D02*
X0281800Y0190071D01*
X0281800Y0189473D02*
X0282400Y0189473D01*
X0282400Y0188874D02*
X0281800Y0188874D01*
X0281800Y0188276D02*
X0282400Y0188276D01*
X0282400Y0187677D02*
X0281800Y0187677D01*
X0281800Y0187079D02*
X0282400Y0187079D01*
X0282400Y0186480D02*
X0281800Y0186480D01*
X0281800Y0185882D02*
X0282400Y0185882D01*
X0282400Y0184165D02*
X0282400Y0180165D01*
X0286400Y0180165D01*
X0286400Y0181646D01*
X0283881Y0184165D01*
X0282400Y0184165D01*
X0282400Y0184086D02*
X0281800Y0184086D01*
X0281800Y0184165D02*
X0280319Y0184165D01*
X0277800Y0181646D01*
X0277800Y0180165D01*
X0281800Y0180165D01*
X0281800Y0179565D01*
X0282400Y0179565D01*
X0282400Y0175565D01*
X0283881Y0175565D01*
X0286400Y0178084D01*
X0286400Y0179565D01*
X0282400Y0179565D01*
X0282400Y0180165D01*
X0281800Y0180165D01*
X0281800Y0184165D01*
X0281800Y0183488D02*
X0282400Y0183488D01*
X0282400Y0182889D02*
X0281800Y0182889D01*
X0281800Y0182291D02*
X0282400Y0182291D01*
X0282400Y0181692D02*
X0281800Y0181692D01*
X0281800Y0181094D02*
X0282400Y0181094D01*
X0282400Y0180495D02*
X0281800Y0180495D01*
X0281800Y0179897D02*
X0276000Y0179897D01*
X0276000Y0180495D02*
X0277800Y0180495D01*
X0277800Y0181094D02*
X0276000Y0181094D01*
X0275789Y0181692D02*
X0277846Y0181692D01*
X0278444Y0182291D02*
X0275190Y0182291D01*
X0274592Y0182889D02*
X0279043Y0182889D01*
X0279641Y0183488D02*
X0273993Y0183488D01*
X0274230Y0186480D02*
X0279404Y0186480D01*
X0280003Y0185882D02*
X0033043Y0185882D01*
X0033043Y0185283D02*
X0290591Y0185283D01*
X0290591Y0184685D02*
X0033028Y0184685D01*
X0032780Y0184086D02*
X0280240Y0184086D01*
X0278806Y0187079D02*
X0274829Y0187079D01*
X0275427Y0187677D02*
X0278207Y0187677D01*
X0277800Y0188276D02*
X0276000Y0188276D01*
X0276000Y0188874D02*
X0277800Y0188874D01*
X0277800Y0189473D02*
X0276000Y0189473D01*
X0269970Y0186480D02*
X0032956Y0186480D01*
X0032708Y0187079D02*
X0269371Y0187079D01*
X0268773Y0187677D02*
X0032460Y0187677D01*
X0031877Y0188276D02*
X0268200Y0188276D01*
X0268200Y0188874D02*
X0031176Y0188874D01*
X0030574Y0191867D02*
X0268586Y0191867D01*
X0268200Y0191268D02*
X0017600Y0191268D01*
X0017600Y0190670D02*
X0268200Y0190670D01*
X0268200Y0190071D02*
X0017600Y0190071D01*
X0017600Y0189473D02*
X0268200Y0189473D01*
X0269185Y0192465D02*
X0031628Y0192465D01*
X0032226Y0193064D02*
X0269783Y0193064D01*
X0268200Y0200246D02*
X0017600Y0200246D01*
X0017600Y0200844D02*
X0268200Y0200844D01*
X0268200Y0201443D02*
X0017600Y0201443D01*
X0017600Y0202041D02*
X0021289Y0202041D01*
X0020933Y0202189D02*
X0022367Y0201595D01*
X0029918Y0201595D01*
X0031352Y0202189D01*
X0032449Y0203286D01*
X0033043Y0204720D01*
X0033043Y0206271D01*
X0032449Y0207704D01*
X0031352Y0208802D01*
X0029918Y0209395D01*
X0022367Y0209395D01*
X0020933Y0208802D01*
X0019836Y0207704D01*
X0019243Y0206271D01*
X0019243Y0204720D01*
X0019836Y0203286D01*
X0020933Y0202189D01*
X0020482Y0202640D02*
X0017600Y0202640D01*
X0017600Y0203239D02*
X0019884Y0203239D01*
X0019608Y0203837D02*
X0017600Y0203837D01*
X0017600Y0204436D02*
X0019360Y0204436D01*
X0019243Y0205034D02*
X0017600Y0205034D01*
X0017600Y0205633D02*
X0019243Y0205633D01*
X0019243Y0206231D02*
X0017600Y0206231D01*
X0017600Y0206830D02*
X0019474Y0206830D01*
X0019722Y0207428D02*
X0017600Y0207428D01*
X0017600Y0208027D02*
X0020158Y0208027D01*
X0020757Y0208625D02*
X0017600Y0208625D01*
X0017600Y0209224D02*
X0021952Y0209224D01*
X0022367Y0211595D02*
X0020933Y0212189D01*
X0019836Y0213286D01*
X0019243Y0214720D01*
X0019243Y0216271D01*
X0019836Y0217704D01*
X0020933Y0218802D01*
X0022367Y0219395D01*
X0029918Y0219395D01*
X0031352Y0218802D01*
X0032449Y0217704D01*
X0033043Y0216271D01*
X0033043Y0214720D01*
X0032449Y0213286D01*
X0031352Y0212189D01*
X0029918Y0211595D01*
X0022367Y0211595D01*
X0022313Y0211618D02*
X0017600Y0211618D01*
X0017600Y0212216D02*
X0020906Y0212216D01*
X0020308Y0212815D02*
X0017600Y0212815D01*
X0017600Y0213413D02*
X0019784Y0213413D01*
X0019536Y0214012D02*
X0017600Y0214012D01*
X0017600Y0214610D02*
X0019288Y0214610D01*
X0019243Y0215209D02*
X0017600Y0215209D01*
X0017600Y0215807D02*
X0019243Y0215807D01*
X0019298Y0216406D02*
X0017600Y0216406D01*
X0017600Y0217004D02*
X0019546Y0217004D01*
X0019794Y0217603D02*
X0017600Y0217603D01*
X0017600Y0218201D02*
X0020333Y0218201D01*
X0020932Y0218800D02*
X0017600Y0218800D01*
X0017600Y0219398D02*
X0268200Y0219398D01*
X0268200Y0218800D02*
X0031353Y0218800D01*
X0031952Y0218201D02*
X0268200Y0218201D01*
X0268200Y0217603D02*
X0032491Y0217603D01*
X0032739Y0217004D02*
X0268200Y0217004D01*
X0268200Y0216493D02*
X0268727Y0215965D01*
X0275473Y0215965D01*
X0276000Y0216493D01*
X0276000Y0223238D01*
X0275473Y0223765D01*
X0268727Y0223765D01*
X0268200Y0223238D01*
X0268200Y0216493D01*
X0268287Y0216406D02*
X0032987Y0216406D01*
X0033043Y0215807D02*
X0280077Y0215807D01*
X0280319Y0215565D02*
X0277800Y0218084D01*
X0277800Y0219565D01*
X0281800Y0219565D01*
X0282400Y0219565D01*
X0282400Y0215565D01*
X0283881Y0215565D01*
X0286400Y0218084D01*
X0286400Y0219565D01*
X0282400Y0219565D01*
X0282400Y0220165D01*
X0286400Y0220165D01*
X0286400Y0221646D01*
X0283881Y0224165D01*
X0282400Y0224165D01*
X0282400Y0220165D01*
X0281800Y0220165D01*
X0281800Y0219565D01*
X0281800Y0215565D01*
X0280319Y0215565D01*
X0279478Y0216406D02*
X0275913Y0216406D01*
X0276000Y0217004D02*
X0278880Y0217004D01*
X0278281Y0217603D02*
X0276000Y0217603D01*
X0276000Y0218201D02*
X0277800Y0218201D01*
X0277800Y0218800D02*
X0276000Y0218800D01*
X0276000Y0219398D02*
X0277800Y0219398D01*
X0277800Y0220165D02*
X0281800Y0220165D01*
X0281800Y0224165D01*
X0280319Y0224165D01*
X0277800Y0221646D01*
X0277800Y0220165D01*
X0277800Y0220595D02*
X0276000Y0220595D01*
X0276000Y0219997D02*
X0281800Y0219997D01*
X0281800Y0220595D02*
X0282400Y0220595D01*
X0282400Y0219997D02*
X0290591Y0219997D01*
X0290591Y0220595D02*
X0286400Y0220595D01*
X0286400Y0221194D02*
X0290591Y0221194D01*
X0290591Y0221792D02*
X0286254Y0221792D01*
X0285656Y0222391D02*
X0290591Y0222391D01*
X0290591Y0222989D02*
X0285057Y0222989D01*
X0284459Y0223588D02*
X0290591Y0223588D01*
X0290591Y0224186D02*
X0017600Y0224186D01*
X0017600Y0223588D02*
X0268550Y0223588D01*
X0268200Y0222989D02*
X0017600Y0222989D01*
X0017600Y0222391D02*
X0268200Y0222391D01*
X0268200Y0221792D02*
X0017600Y0221792D01*
X0017600Y0221194D02*
X0268200Y0221194D01*
X0268200Y0220595D02*
X0017600Y0220595D01*
X0017600Y0219997D02*
X0268200Y0219997D01*
X0270485Y0213765D02*
X0268200Y0211481D01*
X0268200Y0208250D01*
X0270485Y0205965D01*
X0273715Y0205965D01*
X0276000Y0208250D01*
X0276000Y0211481D01*
X0273715Y0213765D01*
X0270485Y0213765D01*
X0270132Y0213413D02*
X0032501Y0213413D01*
X0032749Y0214012D02*
X0280165Y0214012D01*
X0280319Y0214165D02*
X0277800Y0211646D01*
X0277800Y0210165D01*
X0281800Y0210165D01*
X0281800Y0209565D01*
X0282400Y0209565D01*
X0282400Y0205565D01*
X0283881Y0205565D01*
X0286400Y0208084D01*
X0286400Y0209565D01*
X0282400Y0209565D01*
X0282400Y0210165D01*
X0286400Y0210165D01*
X0286400Y0211646D01*
X0283881Y0214165D01*
X0282400Y0214165D01*
X0282400Y0210165D01*
X0281800Y0210165D01*
X0281800Y0214165D01*
X0280319Y0214165D01*
X0279567Y0213413D02*
X0274068Y0213413D01*
X0274666Y0212815D02*
X0278968Y0212815D01*
X0278370Y0212216D02*
X0275265Y0212216D01*
X0275863Y0211618D02*
X0277800Y0211618D01*
X0277800Y0211019D02*
X0276000Y0211019D01*
X0276000Y0210421D02*
X0277800Y0210421D01*
X0277800Y0209565D02*
X0277800Y0208084D01*
X0280319Y0205565D01*
X0281800Y0205565D01*
X0281800Y0209565D01*
X0277800Y0209565D01*
X0277800Y0209224D02*
X0276000Y0209224D01*
X0276000Y0209822D02*
X0281800Y0209822D01*
X0281800Y0209224D02*
X0282400Y0209224D01*
X0282400Y0209822D02*
X0290591Y0209822D01*
X0290591Y0209224D02*
X0286400Y0209224D01*
X0286400Y0208625D02*
X0290591Y0208625D01*
X0290591Y0208027D02*
X0286342Y0208027D01*
X0285744Y0207428D02*
X0290591Y0207428D01*
X0290591Y0206830D02*
X0285145Y0206830D01*
X0284547Y0206231D02*
X0290591Y0206231D01*
X0290591Y0205633D02*
X0283948Y0205633D01*
X0282400Y0205633D02*
X0281800Y0205633D01*
X0281800Y0206231D02*
X0282400Y0206231D01*
X0282400Y0206830D02*
X0281800Y0206830D01*
X0281800Y0207428D02*
X0282400Y0207428D01*
X0282400Y0208027D02*
X0281800Y0208027D01*
X0281800Y0208625D02*
X0282400Y0208625D01*
X0282400Y0210421D02*
X0281800Y0210421D01*
X0281800Y0211019D02*
X0282400Y0211019D01*
X0282400Y0211618D02*
X0281800Y0211618D01*
X0281800Y0212216D02*
X0282400Y0212216D01*
X0282400Y0212815D02*
X0281800Y0212815D01*
X0281800Y0213413D02*
X0282400Y0213413D01*
X0282400Y0214012D02*
X0281800Y0214012D01*
X0281800Y0215807D02*
X0282400Y0215807D01*
X0282400Y0216406D02*
X0281800Y0216406D01*
X0281800Y0217004D02*
X0282400Y0217004D01*
X0282400Y0217603D02*
X0281800Y0217603D01*
X0281800Y0218201D02*
X0282400Y0218201D01*
X0282400Y0218800D02*
X0281800Y0218800D01*
X0281800Y0219398D02*
X0282400Y0219398D01*
X0282400Y0221194D02*
X0281800Y0221194D01*
X0281800Y0221792D02*
X0282400Y0221792D01*
X0282400Y0222391D02*
X0281800Y0222391D01*
X0281800Y0222989D02*
X0282400Y0222989D01*
X0282400Y0223588D02*
X0281800Y0223588D01*
X0279741Y0223588D02*
X0275650Y0223588D01*
X0276000Y0222989D02*
X0279143Y0222989D01*
X0278544Y0222391D02*
X0276000Y0222391D01*
X0276000Y0221792D02*
X0277946Y0221792D01*
X0277800Y0221194D02*
X0276000Y0221194D01*
X0284123Y0215807D02*
X0290591Y0215807D01*
X0290591Y0215209D02*
X0033043Y0215209D01*
X0032997Y0214610D02*
X0290591Y0214610D01*
X0290591Y0214012D02*
X0284035Y0214012D01*
X0284633Y0213413D02*
X0290591Y0213413D01*
X0290591Y0212815D02*
X0285232Y0212815D01*
X0285830Y0212216D02*
X0290591Y0212216D01*
X0290591Y0211618D02*
X0286400Y0211618D01*
X0286400Y0211019D02*
X0290591Y0211019D01*
X0290591Y0210421D02*
X0286400Y0210421D01*
X0284722Y0216406D02*
X0290591Y0216406D01*
X0290591Y0217004D02*
X0285320Y0217004D01*
X0285919Y0217603D02*
X0290591Y0217603D01*
X0290591Y0218201D02*
X0286400Y0218201D01*
X0286400Y0218800D02*
X0290591Y0218800D01*
X0290591Y0219398D02*
X0286400Y0219398D01*
X0290591Y0224785D02*
X0017600Y0224785D01*
X0017600Y0225383D02*
X0290591Y0225383D01*
X0290591Y0225982D02*
X0017600Y0225982D01*
X0017600Y0226580D02*
X0290591Y0226580D01*
X0290591Y0227179D02*
X0017600Y0227179D01*
X0017600Y0227777D02*
X0290591Y0227777D01*
X0290591Y0228376D02*
X0017600Y0228376D01*
X0017600Y0228974D02*
X0290591Y0228974D01*
X0290591Y0229573D02*
X0017600Y0229573D01*
X0017600Y0230172D02*
X0290591Y0230172D01*
X0290591Y0230770D02*
X0199389Y0230770D01*
X0198914Y0230573D02*
X0201707Y0231730D01*
X0203845Y0233868D01*
X0205002Y0236661D01*
X0205002Y0239684D01*
X0203845Y0242477D01*
X0201707Y0244615D01*
X0198914Y0245772D01*
X0195891Y0245772D01*
X0193098Y0244615D01*
X0190960Y0242477D01*
X0189803Y0239684D01*
X0189803Y0236661D01*
X0190960Y0233868D01*
X0193098Y0231730D01*
X0195891Y0230573D01*
X0198914Y0230573D01*
X0200834Y0231369D02*
X0290591Y0231369D01*
X0290591Y0231967D02*
X0201944Y0231967D01*
X0202542Y0232566D02*
X0290591Y0232566D01*
X0290591Y0233164D02*
X0203141Y0233164D01*
X0203739Y0233763D02*
X0290591Y0233763D01*
X0290591Y0234361D02*
X0204049Y0234361D01*
X0204297Y0234960D02*
X0290591Y0234960D01*
X0290591Y0235558D02*
X0204545Y0235558D01*
X0204793Y0236157D02*
X0290591Y0236157D01*
X0290591Y0236755D02*
X0205002Y0236755D01*
X0205002Y0237354D02*
X0290591Y0237354D01*
X0290591Y0237952D02*
X0205002Y0237952D01*
X0205002Y0238551D02*
X0290591Y0238551D01*
X0290591Y0239149D02*
X0205002Y0239149D01*
X0204975Y0239748D02*
X0290591Y0239748D01*
X0290591Y0240346D02*
X0204727Y0240346D01*
X0204479Y0240945D02*
X0290591Y0240945D01*
X0290591Y0241543D02*
X0204231Y0241543D01*
X0203984Y0242142D02*
X0290591Y0242142D01*
X0290591Y0242740D02*
X0203581Y0242740D01*
X0202983Y0243339D02*
X0290591Y0243339D01*
X0290591Y0243937D02*
X0202384Y0243937D01*
X0201786Y0244536D02*
X0290591Y0244536D01*
X0290591Y0245134D02*
X0268573Y0245134D01*
X0268258Y0244974D02*
X0268973Y0245338D01*
X0269622Y0245810D01*
X0270190Y0246378D01*
X0270662Y0247027D01*
X0271026Y0247742D01*
X0271274Y0248506D01*
X0271400Y0249299D01*
X0271400Y0249400D01*
X0266600Y0249400D01*
X0266600Y0250000D01*
X0271400Y0250000D01*
X0271400Y0250101D01*
X0271274Y0250894D01*
X0271026Y0251658D01*
X0270662Y0252373D01*
X0270190Y0253022D01*
X0269622Y0253590D01*
X0268973Y0254062D01*
X0268258Y0254426D01*
X0267494Y0254674D01*
X0266701Y0254800D01*
X0266600Y0254800D01*
X0266600Y0250000D01*
X0266000Y0250000D01*
X0266000Y0254800D01*
X0265899Y0254800D01*
X0265106Y0254674D01*
X0264342Y0254426D01*
X0263627Y0254062D01*
X0262978Y0253590D01*
X0262410Y0253022D01*
X0261938Y0252373D01*
X0261574Y0251658D01*
X0261326Y0250894D01*
X0261200Y0250101D01*
X0261200Y0250000D01*
X0266000Y0250000D01*
X0266000Y0249400D01*
X0266600Y0249400D01*
X0266600Y0244600D01*
X0266701Y0244600D01*
X0267494Y0244726D01*
X0268258Y0244974D01*
X0269516Y0245733D02*
X0290591Y0245733D01*
X0290591Y0246331D02*
X0270144Y0246331D01*
X0270591Y0246930D02*
X0290591Y0246930D01*
X0290591Y0247528D02*
X0270917Y0247528D01*
X0271151Y0248127D02*
X0290591Y0248127D01*
X0290591Y0248725D02*
X0271309Y0248725D01*
X0271400Y0249324D02*
X0290591Y0249324D01*
X0290591Y0249922D02*
X0266600Y0249922D01*
X0266600Y0249324D02*
X0266000Y0249324D01*
X0266000Y0249400D02*
X0266000Y0244600D01*
X0265899Y0244600D01*
X0265106Y0244726D01*
X0264342Y0244974D01*
X0263627Y0245338D01*
X0262978Y0245810D01*
X0262410Y0246378D01*
X0261938Y0247027D01*
X0261574Y0247742D01*
X0261326Y0248506D01*
X0261200Y0249299D01*
X0261200Y0249400D01*
X0266000Y0249400D01*
X0266000Y0249922D02*
X0246310Y0249922D01*
X0246310Y0249324D02*
X0261200Y0249324D01*
X0261291Y0248725D02*
X0246310Y0248725D01*
X0246310Y0248127D02*
X0261449Y0248127D01*
X0261683Y0247528D02*
X0246310Y0247528D01*
X0246310Y0247252D02*
X0245783Y0246725D01*
X0239888Y0246725D01*
X0239361Y0247252D01*
X0239361Y0253148D01*
X0239888Y0253675D01*
X0245783Y0253675D01*
X0246310Y0253148D01*
X0246310Y0247252D01*
X0245988Y0246930D02*
X0262009Y0246930D01*
X0262456Y0246331D02*
X0223248Y0246331D01*
X0223217Y0246325D02*
X0223966Y0246474D01*
X0224671Y0246766D01*
X0225305Y0247190D01*
X0225845Y0247730D01*
X0226269Y0248365D01*
X0226561Y0249070D01*
X0226710Y0249818D01*
X0226710Y0249900D01*
X0223135Y0249900D01*
X0223135Y0246325D01*
X0223217Y0246325D01*
X0223135Y0246331D02*
X0222535Y0246331D01*
X0222535Y0246325D02*
X0222535Y0249900D01*
X0218961Y0249900D01*
X0218961Y0249818D01*
X0219110Y0249070D01*
X0219402Y0248365D01*
X0219826Y0247730D01*
X0220365Y0247190D01*
X0221000Y0246766D01*
X0221705Y0246474D01*
X0222454Y0246325D01*
X0222535Y0246325D01*
X0222423Y0246331D02*
X0182701Y0246331D01*
X0183007Y0246638D02*
X0183740Y0247592D01*
X0184341Y0248634D01*
X0184801Y0249745D01*
X0185112Y0250906D01*
X0185269Y0252099D01*
X0185269Y0252400D01*
X0176395Y0252400D01*
X0176395Y0243526D01*
X0176697Y0243526D01*
X0177889Y0243683D01*
X0179050Y0243994D01*
X0180162Y0244454D01*
X0181203Y0245056D01*
X0182157Y0245788D01*
X0183007Y0246638D01*
X0183231Y0246930D02*
X0220755Y0246930D01*
X0220027Y0247528D02*
X0183691Y0247528D01*
X0184048Y0248127D02*
X0219560Y0248127D01*
X0219252Y0248725D02*
X0184379Y0248725D01*
X0184627Y0249324D02*
X0219059Y0249324D01*
X0218961Y0250500D02*
X0222535Y0250500D01*
X0222535Y0249900D01*
X0223135Y0249900D01*
X0223135Y0250500D01*
X0222535Y0250500D01*
X0222535Y0254075D01*
X0222454Y0254075D01*
X0221705Y0253926D01*
X0221000Y0253634D01*
X0220365Y0253210D01*
X0219826Y0252670D01*
X0219402Y0252035D01*
X0219110Y0251330D01*
X0218961Y0250582D01*
X0218961Y0250500D01*
X0218961Y0250521D02*
X0185009Y0250521D01*
X0185140Y0251119D02*
X0219068Y0251119D01*
X0219270Y0251718D02*
X0185219Y0251718D01*
X0185269Y0252316D02*
X0219589Y0252316D01*
X0220071Y0252915D02*
X0176395Y0252915D01*
X0176395Y0253000D02*
X0185269Y0253000D01*
X0185269Y0253301D01*
X0185112Y0254494D01*
X0184801Y0255655D01*
X0184341Y0256766D01*
X0183740Y0257808D01*
X0183007Y0258762D01*
X0182157Y0259612D01*
X0181203Y0260344D01*
X0180162Y0260946D01*
X0179050Y0261406D01*
X0177889Y0261717D01*
X0176697Y0261874D01*
X0176395Y0261874D01*
X0176395Y0253000D01*
X0175795Y0253000D01*
X0175795Y0252400D01*
X0166921Y0252400D01*
X0166921Y0252099D01*
X0167078Y0250906D01*
X0167389Y0249745D01*
X0167850Y0248634D01*
X0168451Y0247592D01*
X0169183Y0246638D01*
X0170033Y0245788D01*
X0170988Y0245056D01*
X0172029Y0244454D01*
X0173140Y0243994D01*
X0174302Y0243683D01*
X0175494Y0243526D01*
X0175795Y0243526D01*
X0175795Y0252400D01*
X0176395Y0252400D01*
X0176395Y0253000D01*
X0176395Y0253513D02*
X0175795Y0253513D01*
X0175795Y0253000D02*
X0175795Y0261874D01*
X0175494Y0261874D01*
X0174302Y0261717D01*
X0173140Y0261406D01*
X0172029Y0260946D01*
X0170988Y0260344D01*
X0170033Y0259612D01*
X0169183Y0258762D01*
X0168451Y0257808D01*
X0167850Y0256766D01*
X0167389Y0255655D01*
X0167078Y0254494D01*
X0166921Y0253301D01*
X0166921Y0253000D01*
X0175795Y0253000D01*
X0175795Y0252915D02*
X0160015Y0252915D01*
X0160015Y0253513D02*
X0166949Y0253513D01*
X0167028Y0254112D02*
X0159918Y0254112D01*
X0160015Y0253877D02*
X0159114Y0256053D01*
X0157448Y0257718D01*
X0155273Y0258620D01*
X0152918Y0258620D01*
X0150742Y0257718D01*
X0149077Y0256053D01*
X0148176Y0253877D01*
X0148176Y0251522D01*
X0149077Y0249347D01*
X0150742Y0247682D01*
X0152918Y0246780D01*
X0155273Y0246780D01*
X0157448Y0247682D01*
X0159114Y0249347D01*
X0160015Y0251522D01*
X0160015Y0253877D01*
X0159670Y0254710D02*
X0167136Y0254710D01*
X0167297Y0255309D02*
X0159422Y0255309D01*
X0159174Y0255908D02*
X0167494Y0255908D01*
X0167742Y0256506D02*
X0158661Y0256506D01*
X0158062Y0257105D02*
X0168045Y0257105D01*
X0168391Y0257703D02*
X0157464Y0257703D01*
X0156041Y0258302D02*
X0168830Y0258302D01*
X0169321Y0258900D02*
X0138869Y0258900D01*
X0139007Y0258762D02*
X0138157Y0259612D01*
X0137203Y0260344D01*
X0136162Y0260946D01*
X0135050Y0261406D01*
X0133889Y0261717D01*
X0132697Y0261874D01*
X0132395Y0261874D01*
X0132395Y0253000D01*
X0131795Y0253000D01*
X0131795Y0252400D01*
X0122921Y0252400D01*
X0122921Y0252099D01*
X0123078Y0250906D01*
X0123389Y0249745D01*
X0123850Y0248634D01*
X0124451Y0247592D01*
X0125183Y0246638D01*
X0126033Y0245788D01*
X0126988Y0245056D01*
X0128029Y0244454D01*
X0129140Y0243994D01*
X0130302Y0243683D01*
X0131494Y0243526D01*
X0131795Y0243526D01*
X0131795Y0252400D01*
X0132395Y0252400D01*
X0132395Y0243526D01*
X0132697Y0243526D01*
X0133889Y0243683D01*
X0135050Y0243994D01*
X0136162Y0244454D01*
X0137203Y0245056D01*
X0138157Y0245788D01*
X0139007Y0246638D01*
X0139740Y0247592D01*
X0140341Y0248634D01*
X0140801Y0249745D01*
X0141112Y0250906D01*
X0141269Y0252099D01*
X0141269Y0252400D01*
X0132395Y0252400D01*
X0132395Y0253000D01*
X0141269Y0253000D01*
X0141269Y0253301D01*
X0141112Y0254494D01*
X0140801Y0255655D01*
X0140341Y0256766D01*
X0139740Y0257808D01*
X0139007Y0258762D01*
X0139361Y0258302D02*
X0152150Y0258302D01*
X0150727Y0257703D02*
X0139800Y0257703D01*
X0140146Y0257105D02*
X0150128Y0257105D01*
X0149530Y0256506D02*
X0140449Y0256506D01*
X0140697Y0255908D02*
X0149016Y0255908D01*
X0148769Y0255309D02*
X0140894Y0255309D01*
X0141054Y0254710D02*
X0148521Y0254710D01*
X0148273Y0254112D02*
X0141163Y0254112D01*
X0141241Y0253513D02*
X0148176Y0253513D01*
X0148176Y0252915D02*
X0132395Y0252915D01*
X0132395Y0253513D02*
X0131795Y0253513D01*
X0131795Y0253000D02*
X0131795Y0261874D01*
X0131494Y0261874D01*
X0130302Y0261717D01*
X0129140Y0261406D01*
X0128029Y0260946D01*
X0126988Y0260344D01*
X0126033Y0259612D01*
X0125183Y0258762D01*
X0124451Y0257808D01*
X0123850Y0256766D01*
X0123389Y0255655D01*
X0123078Y0254494D01*
X0122921Y0253301D01*
X0122921Y0253000D01*
X0131795Y0253000D01*
X0131795Y0252915D02*
X0106129Y0252915D01*
X0106129Y0253513D02*
X0122949Y0253513D01*
X0123028Y0254112D02*
X0106129Y0254112D01*
X0106129Y0254445D02*
X0104793Y0257670D01*
X0102325Y0260138D01*
X0099100Y0261474D01*
X0095610Y0261474D01*
X0092385Y0260138D01*
X0089917Y0257670D01*
X0088581Y0254445D01*
X0088581Y0250955D01*
X0089917Y0247730D01*
X0092385Y0245262D01*
X0095610Y0243926D01*
X0099100Y0243926D01*
X0102325Y0245262D01*
X0104793Y0247730D01*
X0106129Y0250955D01*
X0106129Y0254445D01*
X0106019Y0254710D02*
X0123136Y0254710D01*
X0123297Y0255309D02*
X0105771Y0255309D01*
X0105523Y0255908D02*
X0123494Y0255908D01*
X0123742Y0256506D02*
X0105276Y0256506D01*
X0105028Y0257105D02*
X0124045Y0257105D01*
X0124391Y0257703D02*
X0104760Y0257703D01*
X0104162Y0258302D02*
X0124830Y0258302D01*
X0125321Y0258900D02*
X0103563Y0258900D01*
X0102965Y0259499D02*
X0125920Y0259499D01*
X0126665Y0260097D02*
X0102366Y0260097D01*
X0100980Y0260696D02*
X0127596Y0260696D01*
X0128870Y0261294D02*
X0099535Y0261294D01*
X0095176Y0261294D02*
X0055535Y0261294D01*
X0055100Y0261474D02*
X0051610Y0261474D01*
X0048385Y0260138D01*
X0045917Y0257670D01*
X0044581Y0254445D01*
X0044581Y0250955D01*
X0045917Y0247730D01*
X0048385Y0245262D01*
X0051610Y0243926D01*
X0055100Y0243926D01*
X0058325Y0245262D01*
X0060793Y0247730D01*
X0062129Y0250955D01*
X0062129Y0254445D01*
X0060793Y0257670D01*
X0058325Y0260138D01*
X0055100Y0261474D01*
X0056980Y0260696D02*
X0093731Y0260696D01*
X0092344Y0260097D02*
X0058366Y0260097D01*
X0058965Y0259499D02*
X0091745Y0259499D01*
X0091147Y0258900D02*
X0059563Y0258900D01*
X0060162Y0258302D02*
X0073410Y0258302D01*
X0074178Y0258620D02*
X0072002Y0257718D01*
X0070337Y0256053D01*
X0069435Y0253877D01*
X0069435Y0251522D01*
X0070337Y0249347D01*
X0072002Y0247682D01*
X0074178Y0246780D01*
X0076533Y0246780D01*
X0078708Y0247682D01*
X0080374Y0249347D01*
X0081275Y0251522D01*
X0081275Y0253877D01*
X0080374Y0256053D01*
X0078708Y0257718D01*
X0076533Y0258620D01*
X0074178Y0258620D01*
X0071986Y0257703D02*
X0060760Y0257703D01*
X0061028Y0257105D02*
X0071388Y0257105D01*
X0070789Y0256506D02*
X0061276Y0256506D01*
X0061523Y0255908D02*
X0070276Y0255908D01*
X0070028Y0255309D02*
X0061771Y0255309D01*
X0062019Y0254710D02*
X0069780Y0254710D01*
X0069533Y0254112D02*
X0062129Y0254112D01*
X0062129Y0253513D02*
X0069435Y0253513D01*
X0069435Y0252915D02*
X0062129Y0252915D01*
X0062129Y0252316D02*
X0069435Y0252316D01*
X0069435Y0251718D02*
X0062129Y0251718D01*
X0062129Y0251119D02*
X0069602Y0251119D01*
X0069850Y0250521D02*
X0061949Y0250521D01*
X0061702Y0249922D02*
X0070098Y0249922D01*
X0070360Y0249324D02*
X0061454Y0249324D01*
X0061206Y0248725D02*
X0070958Y0248725D01*
X0071557Y0248127D02*
X0060958Y0248127D01*
X0060592Y0247528D02*
X0072372Y0247528D01*
X0073817Y0246930D02*
X0059993Y0246930D01*
X0059395Y0246331D02*
X0091315Y0246331D01*
X0090717Y0246930D02*
X0076894Y0246930D01*
X0078339Y0247528D02*
X0090118Y0247528D01*
X0089752Y0248127D02*
X0079154Y0248127D01*
X0079752Y0248725D02*
X0089505Y0248725D01*
X0089257Y0249324D02*
X0080351Y0249324D01*
X0080612Y0249922D02*
X0089009Y0249922D01*
X0088761Y0250521D02*
X0080860Y0250521D01*
X0081108Y0251119D02*
X0088581Y0251119D01*
X0088581Y0251718D02*
X0081275Y0251718D01*
X0081275Y0252316D02*
X0088581Y0252316D01*
X0088581Y0252915D02*
X0081275Y0252915D01*
X0081275Y0253513D02*
X0088581Y0253513D01*
X0088581Y0254112D02*
X0081178Y0254112D01*
X0080930Y0254710D02*
X0088691Y0254710D01*
X0088939Y0255309D02*
X0080682Y0255309D01*
X0080434Y0255908D02*
X0089187Y0255908D01*
X0089435Y0256506D02*
X0079921Y0256506D01*
X0079322Y0257105D02*
X0089683Y0257105D01*
X0089950Y0257703D02*
X0078724Y0257703D01*
X0077301Y0258302D02*
X0090548Y0258302D01*
X0091914Y0245733D02*
X0058796Y0245733D01*
X0058018Y0245134D02*
X0092693Y0245134D01*
X0094138Y0244536D02*
X0056573Y0244536D01*
X0055128Y0243937D02*
X0095583Y0243937D01*
X0099128Y0243937D02*
X0129352Y0243937D01*
X0127888Y0244536D02*
X0100573Y0244536D01*
X0102018Y0245134D02*
X0126885Y0245134D01*
X0126105Y0245733D02*
X0102796Y0245733D01*
X0103395Y0246331D02*
X0125490Y0246331D01*
X0124959Y0246930D02*
X0103993Y0246930D01*
X0104592Y0247528D02*
X0124500Y0247528D01*
X0124142Y0248127D02*
X0104958Y0248127D01*
X0105206Y0248725D02*
X0123812Y0248725D01*
X0123564Y0249324D02*
X0105454Y0249324D01*
X0105702Y0249922D02*
X0123342Y0249922D01*
X0123182Y0250521D02*
X0105949Y0250521D01*
X0106129Y0251119D02*
X0123050Y0251119D01*
X0122971Y0251718D02*
X0106129Y0251718D01*
X0106129Y0252316D02*
X0122921Y0252316D01*
X0131795Y0252316D02*
X0132395Y0252316D01*
X0132395Y0251718D02*
X0131795Y0251718D01*
X0131795Y0251119D02*
X0132395Y0251119D01*
X0132395Y0250521D02*
X0131795Y0250521D01*
X0131795Y0249922D02*
X0132395Y0249922D01*
X0132395Y0249324D02*
X0131795Y0249324D01*
X0131795Y0248725D02*
X0132395Y0248725D01*
X0132395Y0248127D02*
X0131795Y0248127D01*
X0131795Y0247528D02*
X0132395Y0247528D01*
X0132395Y0246930D02*
X0131795Y0246930D01*
X0131795Y0246331D02*
X0132395Y0246331D01*
X0132395Y0245733D02*
X0131795Y0245733D01*
X0131795Y0245134D02*
X0132395Y0245134D01*
X0132395Y0244536D02*
X0131795Y0244536D01*
X0131795Y0243937D02*
X0132395Y0243937D01*
X0134838Y0243937D02*
X0173352Y0243937D01*
X0171888Y0244536D02*
X0136302Y0244536D01*
X0137305Y0245134D02*
X0170885Y0245134D01*
X0170105Y0245733D02*
X0138085Y0245733D01*
X0138701Y0246331D02*
X0169490Y0246331D01*
X0168959Y0246930D02*
X0155634Y0246930D01*
X0157079Y0247528D02*
X0168500Y0247528D01*
X0168142Y0248127D02*
X0157894Y0248127D01*
X0158492Y0248725D02*
X0167812Y0248725D01*
X0167564Y0249324D02*
X0159091Y0249324D01*
X0159352Y0249922D02*
X0167342Y0249922D01*
X0167182Y0250521D02*
X0159600Y0250521D01*
X0159848Y0251119D02*
X0167050Y0251119D01*
X0166971Y0251718D02*
X0160015Y0251718D01*
X0160015Y0252316D02*
X0166921Y0252316D01*
X0169920Y0259499D02*
X0138271Y0259499D01*
X0137525Y0260097D02*
X0170665Y0260097D01*
X0171596Y0260696D02*
X0136595Y0260696D01*
X0135320Y0261294D02*
X0172870Y0261294D01*
X0175795Y0261294D02*
X0176395Y0261294D01*
X0176395Y0260696D02*
X0175795Y0260696D01*
X0175795Y0260097D02*
X0176395Y0260097D01*
X0176395Y0259499D02*
X0175795Y0259499D01*
X0175795Y0258900D02*
X0176395Y0258900D01*
X0176395Y0258302D02*
X0175795Y0258302D01*
X0175795Y0257703D02*
X0176395Y0257703D01*
X0176395Y0257105D02*
X0175795Y0257105D01*
X0175795Y0256506D02*
X0176395Y0256506D01*
X0176395Y0255908D02*
X0175795Y0255908D01*
X0175795Y0255309D02*
X0176395Y0255309D01*
X0176395Y0254710D02*
X0175795Y0254710D01*
X0175795Y0254112D02*
X0176395Y0254112D01*
X0176395Y0252316D02*
X0175795Y0252316D01*
X0175795Y0251718D02*
X0176395Y0251718D01*
X0176395Y0251119D02*
X0175795Y0251119D01*
X0175795Y0250521D02*
X0176395Y0250521D01*
X0176395Y0249922D02*
X0175795Y0249922D01*
X0175795Y0249324D02*
X0176395Y0249324D01*
X0176395Y0248725D02*
X0175795Y0248725D01*
X0175795Y0248127D02*
X0176395Y0248127D01*
X0176395Y0247528D02*
X0175795Y0247528D01*
X0175795Y0246930D02*
X0176395Y0246930D01*
X0176395Y0246331D02*
X0175795Y0246331D01*
X0175795Y0245733D02*
X0176395Y0245733D01*
X0176395Y0245134D02*
X0175795Y0245134D01*
X0175795Y0244536D02*
X0176395Y0244536D01*
X0176395Y0243937D02*
X0175795Y0243937D01*
X0178838Y0243937D02*
X0192420Y0243937D01*
X0191822Y0243339D02*
X0037629Y0243339D01*
X0038227Y0242740D02*
X0191223Y0242740D01*
X0190821Y0242142D02*
X0038629Y0242142D01*
X0038490Y0242477D02*
X0036353Y0244615D01*
X0033560Y0245772D01*
X0030536Y0245772D01*
X0027743Y0244615D01*
X0025606Y0242477D01*
X0024449Y0239684D01*
X0024449Y0236661D01*
X0025606Y0233868D01*
X0027743Y0231730D01*
X0030536Y0230573D01*
X0033560Y0230573D01*
X0036353Y0231730D01*
X0038490Y0233868D01*
X0039647Y0236661D01*
X0039647Y0239684D01*
X0038490Y0242477D01*
X0038877Y0241543D02*
X0190573Y0241543D01*
X0190325Y0240945D02*
X0039125Y0240945D01*
X0039373Y0240346D02*
X0190077Y0240346D01*
X0189830Y0239748D02*
X0039621Y0239748D01*
X0039647Y0239149D02*
X0189803Y0239149D01*
X0189803Y0238551D02*
X0039647Y0238551D01*
X0039647Y0237952D02*
X0189803Y0237952D01*
X0189803Y0237354D02*
X0039647Y0237354D01*
X0039647Y0236755D02*
X0189803Y0236755D01*
X0190012Y0236157D02*
X0039438Y0236157D01*
X0039190Y0235558D02*
X0190260Y0235558D01*
X0190508Y0234960D02*
X0038943Y0234960D01*
X0038695Y0234361D02*
X0190756Y0234361D01*
X0191065Y0233763D02*
X0038385Y0233763D01*
X0037787Y0233164D02*
X0191664Y0233164D01*
X0192262Y0232566D02*
X0037188Y0232566D01*
X0036590Y0231967D02*
X0192861Y0231967D01*
X0193971Y0231369D02*
X0035480Y0231369D01*
X0034035Y0230770D02*
X0195416Y0230770D01*
X0193019Y0244536D02*
X0180302Y0244536D01*
X0181305Y0245134D02*
X0194352Y0245134D01*
X0195797Y0245733D02*
X0182085Y0245733D01*
X0184849Y0249922D02*
X0222535Y0249922D01*
X0222535Y0249324D02*
X0223135Y0249324D01*
X0223135Y0249922D02*
X0229361Y0249922D01*
X0229361Y0249509D02*
X0229890Y0248232D01*
X0230867Y0247254D01*
X0232144Y0246725D01*
X0233527Y0246725D01*
X0234804Y0247254D01*
X0235781Y0248232D01*
X0236310Y0249509D01*
X0236310Y0250891D01*
X0235781Y0252168D01*
X0234804Y0253146D01*
X0233527Y0253675D01*
X0232144Y0253675D01*
X0230867Y0253146D01*
X0229890Y0252168D01*
X0229361Y0250891D01*
X0229361Y0249509D01*
X0229437Y0249324D02*
X0226612Y0249324D01*
X0226419Y0248725D02*
X0229685Y0248725D01*
X0229994Y0248127D02*
X0226110Y0248127D01*
X0225644Y0247528D02*
X0230593Y0247528D01*
X0231650Y0246930D02*
X0224916Y0246930D01*
X0223135Y0246930D02*
X0222535Y0246930D01*
X0222535Y0247528D02*
X0223135Y0247528D01*
X0223135Y0248127D02*
X0222535Y0248127D01*
X0222535Y0248725D02*
X0223135Y0248725D01*
X0223135Y0250500D02*
X0226710Y0250500D01*
X0226710Y0250582D01*
X0226561Y0251330D01*
X0226269Y0252035D01*
X0225845Y0252670D01*
X0225305Y0253210D01*
X0224671Y0253634D01*
X0223966Y0253926D01*
X0223217Y0254075D01*
X0223135Y0254075D01*
X0223135Y0250500D01*
X0223135Y0250521D02*
X0222535Y0250521D01*
X0222535Y0251119D02*
X0223135Y0251119D01*
X0223135Y0251718D02*
X0222535Y0251718D01*
X0222535Y0252316D02*
X0223135Y0252316D01*
X0223135Y0252915D02*
X0222535Y0252915D01*
X0222535Y0253513D02*
X0223135Y0253513D01*
X0224851Y0253513D02*
X0231755Y0253513D01*
X0230636Y0252915D02*
X0225600Y0252915D01*
X0226081Y0252316D02*
X0230038Y0252316D01*
X0229703Y0251718D02*
X0226401Y0251718D01*
X0226603Y0251119D02*
X0229455Y0251119D01*
X0229361Y0250521D02*
X0226710Y0250521D01*
X0220820Y0253513D02*
X0185241Y0253513D01*
X0185163Y0254112D02*
X0263725Y0254112D01*
X0262901Y0253513D02*
X0245944Y0253513D01*
X0246310Y0252915D02*
X0262332Y0252915D01*
X0261909Y0252316D02*
X0246310Y0252316D01*
X0246310Y0251718D02*
X0261604Y0251718D01*
X0261399Y0251119D02*
X0246310Y0251119D01*
X0246310Y0250521D02*
X0261266Y0250521D01*
X0263084Y0245733D02*
X0199008Y0245733D01*
X0200453Y0245134D02*
X0264027Y0245134D01*
X0266000Y0245134D02*
X0266600Y0245134D01*
X0266600Y0245733D02*
X0266000Y0245733D01*
X0266000Y0246331D02*
X0266600Y0246331D01*
X0266600Y0246930D02*
X0266000Y0246930D01*
X0266000Y0247528D02*
X0266600Y0247528D01*
X0266600Y0248127D02*
X0266000Y0248127D01*
X0266000Y0248725D02*
X0266600Y0248725D01*
X0266600Y0250521D02*
X0266000Y0250521D01*
X0266000Y0251119D02*
X0266600Y0251119D01*
X0266600Y0251718D02*
X0266000Y0251718D01*
X0266000Y0252316D02*
X0266600Y0252316D01*
X0266600Y0252915D02*
X0266000Y0252915D01*
X0266000Y0253513D02*
X0266600Y0253513D01*
X0266600Y0254112D02*
X0266000Y0254112D01*
X0266000Y0254710D02*
X0266600Y0254710D01*
X0267266Y0254710D02*
X0290591Y0254710D01*
X0290591Y0254112D02*
X0268875Y0254112D01*
X0269699Y0253513D02*
X0290591Y0253513D01*
X0290591Y0252915D02*
X0270268Y0252915D01*
X0270691Y0252316D02*
X0290591Y0252316D01*
X0290591Y0251718D02*
X0270996Y0251718D01*
X0271201Y0251119D02*
X0290591Y0251119D01*
X0290591Y0250521D02*
X0271334Y0250521D01*
X0265334Y0254710D02*
X0185054Y0254710D01*
X0184894Y0255309D02*
X0290591Y0255309D01*
X0290591Y0255908D02*
X0184697Y0255908D01*
X0184449Y0256506D02*
X0221770Y0256506D01*
X0222010Y0256406D02*
X0223661Y0256406D01*
X0225185Y0257038D01*
X0226352Y0258205D01*
X0226983Y0259729D01*
X0226983Y0261379D01*
X0226352Y0262904D01*
X0225185Y0264071D01*
X0223661Y0264702D01*
X0222010Y0264702D01*
X0220486Y0264071D01*
X0219319Y0262904D01*
X0218687Y0261379D01*
X0218687Y0259729D01*
X0219319Y0258205D01*
X0220486Y0257038D01*
X0222010Y0256406D01*
X0220419Y0257105D02*
X0184146Y0257105D01*
X0183800Y0257703D02*
X0219821Y0257703D01*
X0219279Y0258302D02*
X0183361Y0258302D01*
X0182869Y0258900D02*
X0219031Y0258900D01*
X0218783Y0259499D02*
X0182271Y0259499D01*
X0181525Y0260097D02*
X0218687Y0260097D01*
X0218687Y0260696D02*
X0180595Y0260696D01*
X0179320Y0261294D02*
X0218687Y0261294D01*
X0218900Y0261893D02*
X0017600Y0261893D01*
X0017600Y0262491D02*
X0219148Y0262491D01*
X0219505Y0263090D02*
X0017600Y0263090D01*
X0017600Y0263688D02*
X0220103Y0263688D01*
X0221007Y0264287D02*
X0017600Y0264287D01*
X0017600Y0264885D02*
X0290591Y0264885D01*
X0290591Y0264287D02*
X0244664Y0264287D01*
X0245185Y0264071D02*
X0243661Y0264702D01*
X0242010Y0264702D01*
X0240486Y0264071D01*
X0239319Y0262904D01*
X0238687Y0261379D01*
X0238687Y0259729D01*
X0239319Y0258205D01*
X0240486Y0257038D01*
X0242010Y0256406D01*
X0243661Y0256406D01*
X0245185Y0257038D01*
X0246352Y0258205D01*
X0246983Y0259729D01*
X0246983Y0261379D01*
X0246352Y0262904D01*
X0245185Y0264071D01*
X0245568Y0263688D02*
X0290591Y0263688D01*
X0290591Y0263090D02*
X0246166Y0263090D01*
X0246523Y0262491D02*
X0290591Y0262491D01*
X0290591Y0261893D02*
X0246771Y0261893D01*
X0246983Y0261294D02*
X0290591Y0261294D01*
X0290591Y0260696D02*
X0246983Y0260696D01*
X0246983Y0260097D02*
X0290591Y0260097D01*
X0290591Y0259499D02*
X0246888Y0259499D01*
X0246640Y0258900D02*
X0290591Y0258900D01*
X0290591Y0258302D02*
X0246392Y0258302D01*
X0245850Y0257703D02*
X0290591Y0257703D01*
X0290591Y0257105D02*
X0245252Y0257105D01*
X0243901Y0256506D02*
X0290591Y0256506D01*
X0290591Y0265484D02*
X0017600Y0265484D01*
X0017600Y0266082D02*
X0290591Y0266082D01*
X0290591Y0266681D02*
X0017600Y0266681D01*
X0017600Y0267279D02*
X0290591Y0267279D01*
X0290591Y0267878D02*
X0017600Y0267878D01*
X0017600Y0268476D02*
X0290591Y0268476D01*
X0290591Y0269075D02*
X0017600Y0269075D01*
X0017600Y0269673D02*
X0290591Y0269673D01*
X0290591Y0270272D02*
X0278447Y0270272D01*
X0277654Y0269943D02*
X0280447Y0271100D01*
X0282585Y0273238D01*
X0283742Y0276031D01*
X0283742Y0279054D01*
X0282585Y0281847D01*
X0280447Y0283985D01*
X0277654Y0285142D01*
X0274631Y0285142D01*
X0271838Y0283985D01*
X0269700Y0281847D01*
X0268543Y0279054D01*
X0268543Y0276031D01*
X0269700Y0273238D01*
X0271838Y0271100D01*
X0274631Y0269943D01*
X0277654Y0269943D01*
X0279892Y0270870D02*
X0290591Y0270870D01*
X0290591Y0271469D02*
X0280816Y0271469D01*
X0281414Y0272067D02*
X0290591Y0272067D01*
X0290591Y0272666D02*
X0282013Y0272666D01*
X0282596Y0273264D02*
X0290591Y0273264D01*
X0290591Y0273863D02*
X0282844Y0273863D01*
X0283092Y0274461D02*
X0290591Y0274461D01*
X0290591Y0275060D02*
X0283339Y0275060D01*
X0283587Y0275658D02*
X0290591Y0275658D01*
X0290591Y0276257D02*
X0283742Y0276257D01*
X0283742Y0276855D02*
X0290591Y0276855D01*
X0290591Y0277454D02*
X0283742Y0277454D01*
X0283742Y0278052D02*
X0290591Y0278052D01*
X0290591Y0278651D02*
X0283742Y0278651D01*
X0283661Y0279249D02*
X0290591Y0279249D01*
X0290591Y0279848D02*
X0283413Y0279848D01*
X0283165Y0280446D02*
X0290591Y0280446D01*
X0290487Y0281045D02*
X0282917Y0281045D01*
X0282669Y0281643D02*
X0289888Y0281643D01*
X0289290Y0282242D02*
X0282190Y0282242D01*
X0281591Y0282841D02*
X0288691Y0282841D01*
X0288093Y0283439D02*
X0280993Y0283439D01*
X0280320Y0284038D02*
X0287494Y0284038D01*
X0286896Y0284636D02*
X0278875Y0284636D01*
X0282706Y0288826D02*
X0160944Y0288826D01*
X0161007Y0288762D02*
X0160157Y0289612D01*
X0159203Y0290344D01*
X0158162Y0290946D01*
X0157050Y0291406D01*
X0155889Y0291717D01*
X0154697Y0291874D01*
X0154395Y0291874D01*
X0154395Y0283000D01*
X0153795Y0283000D01*
X0153795Y0282400D01*
X0144921Y0282400D01*
X0144921Y0282099D01*
X0145078Y0280906D01*
X0145389Y0279745D01*
X0145850Y0278634D01*
X0146451Y0277592D01*
X0147183Y0276638D01*
X0148033Y0275788D01*
X0148988Y0275056D01*
X0150029Y0274454D01*
X0151140Y0273994D01*
X0152302Y0273683D01*
X0153494Y0273526D01*
X0153795Y0273526D01*
X0153795Y0282400D01*
X0154395Y0282400D01*
X0154395Y0273526D01*
X0154697Y0273526D01*
X0155889Y0273683D01*
X0157050Y0273994D01*
X0158162Y0274454D01*
X0159203Y0275056D01*
X0160157Y0275788D01*
X0161007Y0276638D01*
X0161740Y0277592D01*
X0162341Y0278634D01*
X0162801Y0279745D01*
X0163112Y0280906D01*
X0163269Y0282099D01*
X0163269Y0282400D01*
X0154395Y0282400D01*
X0154395Y0283000D01*
X0163269Y0283000D01*
X0163269Y0283301D01*
X0163112Y0284494D01*
X0162801Y0285655D01*
X0162341Y0286766D01*
X0161740Y0287808D01*
X0161007Y0288762D01*
X0161418Y0288227D02*
X0283304Y0288227D01*
X0283903Y0287629D02*
X0161843Y0287629D01*
X0162189Y0287030D02*
X0284502Y0287030D01*
X0285100Y0286432D02*
X0162479Y0286432D01*
X0162727Y0285833D02*
X0285699Y0285833D01*
X0286297Y0285235D02*
X0162914Y0285235D01*
X0163074Y0284636D02*
X0273410Y0284636D01*
X0271965Y0284038D02*
X0163172Y0284038D01*
X0163251Y0283439D02*
X0271292Y0283439D01*
X0270694Y0282841D02*
X0154395Y0282841D01*
X0154395Y0283439D02*
X0153795Y0283439D01*
X0153795Y0283000D02*
X0153795Y0291874D01*
X0153494Y0291874D01*
X0152302Y0291717D01*
X0151140Y0291406D01*
X0150029Y0290946D01*
X0148988Y0290344D01*
X0148033Y0289612D01*
X0147183Y0288762D01*
X0146451Y0287808D01*
X0145850Y0286766D01*
X0145389Y0285655D01*
X0145078Y0284494D01*
X0144921Y0283301D01*
X0144921Y0283000D01*
X0153795Y0283000D01*
X0153795Y0282841D02*
X0084129Y0282841D01*
X0084129Y0283439D02*
X0144939Y0283439D01*
X0145018Y0284038D02*
X0084129Y0284038D01*
X0084129Y0284445D02*
X0082793Y0287670D01*
X0080325Y0290138D01*
X0077100Y0291474D01*
X0073610Y0291474D01*
X0070385Y0290138D01*
X0067917Y0287670D01*
X0066581Y0284445D01*
X0066581Y0280955D01*
X0067917Y0277730D01*
X0070385Y0275262D01*
X0073610Y0273926D01*
X0077100Y0273926D01*
X0080325Y0275262D01*
X0082793Y0277730D01*
X0084129Y0280955D01*
X0084129Y0284445D01*
X0084050Y0284636D02*
X0145116Y0284636D01*
X0145277Y0285235D02*
X0083802Y0285235D01*
X0083554Y0285833D02*
X0145463Y0285833D01*
X0145711Y0286432D02*
X0083306Y0286432D01*
X0083058Y0287030D02*
X0146002Y0287030D01*
X0146348Y0287629D02*
X0082811Y0287629D01*
X0082236Y0288227D02*
X0146773Y0288227D01*
X0147247Y0288826D02*
X0081638Y0288826D01*
X0081039Y0289424D02*
X0147845Y0289424D01*
X0148568Y0290023D02*
X0080441Y0290023D01*
X0079159Y0290621D02*
X0149467Y0290621D01*
X0150691Y0291220D02*
X0077714Y0291220D01*
X0072996Y0291220D02*
X0027879Y0291220D01*
X0028477Y0291818D02*
X0153070Y0291818D01*
X0153795Y0291818D02*
X0154395Y0291818D01*
X0154395Y0291220D02*
X0153795Y0291220D01*
X0153795Y0290621D02*
X0154395Y0290621D01*
X0154395Y0290023D02*
X0153795Y0290023D01*
X0153795Y0289424D02*
X0154395Y0289424D01*
X0154395Y0288826D02*
X0153795Y0288826D01*
X0153795Y0288227D02*
X0154395Y0288227D01*
X0154395Y0287629D02*
X0153795Y0287629D01*
X0153795Y0287030D02*
X0154395Y0287030D01*
X0154395Y0286432D02*
X0153795Y0286432D01*
X0153795Y0285833D02*
X0154395Y0285833D01*
X0154395Y0285235D02*
X0153795Y0285235D01*
X0153795Y0284636D02*
X0154395Y0284636D01*
X0154395Y0284038D02*
X0153795Y0284038D01*
X0153795Y0282242D02*
X0154395Y0282242D01*
X0154395Y0281643D02*
X0153795Y0281643D01*
X0153795Y0281045D02*
X0154395Y0281045D01*
X0154395Y0280446D02*
X0153795Y0280446D01*
X0153795Y0279848D02*
X0154395Y0279848D01*
X0154395Y0279249D02*
X0153795Y0279249D01*
X0153795Y0278651D02*
X0154395Y0278651D01*
X0154395Y0278052D02*
X0153795Y0278052D01*
X0153795Y0277454D02*
X0154395Y0277454D01*
X0154395Y0276855D02*
X0153795Y0276855D01*
X0153795Y0276257D02*
X0154395Y0276257D01*
X0154395Y0275658D02*
X0153795Y0275658D01*
X0153795Y0275060D02*
X0154395Y0275060D01*
X0154395Y0274461D02*
X0153795Y0274461D01*
X0153795Y0273863D02*
X0154395Y0273863D01*
X0156560Y0273863D02*
X0269441Y0273863D01*
X0269193Y0274461D02*
X0158174Y0274461D01*
X0159208Y0275060D02*
X0268946Y0275060D01*
X0268698Y0275658D02*
X0159988Y0275658D01*
X0160626Y0276257D02*
X0268543Y0276257D01*
X0268543Y0276855D02*
X0161174Y0276855D01*
X0161633Y0277454D02*
X0268543Y0277454D01*
X0268543Y0278052D02*
X0162005Y0278052D01*
X0162348Y0278651D02*
X0268543Y0278651D01*
X0268624Y0279249D02*
X0162596Y0279249D01*
X0162829Y0279848D02*
X0268872Y0279848D01*
X0269120Y0280446D02*
X0162989Y0280446D01*
X0163131Y0281045D02*
X0269368Y0281045D01*
X0269616Y0281643D02*
X0163209Y0281643D01*
X0163269Y0282242D02*
X0270095Y0282242D01*
X0269689Y0273264D02*
X0038501Y0273264D01*
X0038490Y0273238D02*
X0039647Y0276031D01*
X0039647Y0279054D01*
X0038490Y0281847D01*
X0036353Y0283985D01*
X0033560Y0285142D01*
X0030536Y0285142D01*
X0027743Y0283985D01*
X0025606Y0281847D01*
X0024449Y0279054D01*
X0024449Y0276031D01*
X0025606Y0273238D01*
X0027743Y0271100D01*
X0030536Y0269943D01*
X0033560Y0269943D01*
X0036353Y0271100D01*
X0038490Y0273238D01*
X0038749Y0273863D02*
X0151630Y0273863D01*
X0150017Y0274461D02*
X0078393Y0274461D01*
X0079838Y0275060D02*
X0148982Y0275060D01*
X0148202Y0275658D02*
X0080722Y0275658D01*
X0081320Y0276257D02*
X0147564Y0276257D01*
X0147016Y0276855D02*
X0081919Y0276855D01*
X0082517Y0277454D02*
X0146557Y0277454D01*
X0146185Y0278052D02*
X0082927Y0278052D01*
X0083175Y0278651D02*
X0145843Y0278651D01*
X0145595Y0279249D02*
X0083423Y0279249D01*
X0083671Y0279848D02*
X0145362Y0279848D01*
X0145201Y0280446D02*
X0083919Y0280446D01*
X0084129Y0281045D02*
X0145060Y0281045D01*
X0144981Y0281643D02*
X0084129Y0281643D01*
X0084129Y0282242D02*
X0144921Y0282242D01*
X0155121Y0291818D02*
X0279713Y0291818D01*
X0280312Y0291220D02*
X0157500Y0291220D01*
X0158723Y0290621D02*
X0280910Y0290621D01*
X0281509Y0290023D02*
X0159622Y0290023D01*
X0160345Y0289424D02*
X0282107Y0289424D01*
X0270272Y0272666D02*
X0037918Y0272666D01*
X0037320Y0272067D02*
X0270871Y0272067D01*
X0271469Y0271469D02*
X0036721Y0271469D01*
X0035798Y0270870D02*
X0272393Y0270870D01*
X0273838Y0270272D02*
X0034353Y0270272D01*
X0029743Y0270272D02*
X0017600Y0270272D01*
X0017600Y0270870D02*
X0028299Y0270870D01*
X0027375Y0271469D02*
X0017600Y0271469D01*
X0017600Y0272067D02*
X0026776Y0272067D01*
X0026178Y0272666D02*
X0017600Y0272666D01*
X0017600Y0273264D02*
X0025595Y0273264D01*
X0025347Y0273863D02*
X0017600Y0273863D01*
X0017600Y0274461D02*
X0025099Y0274461D01*
X0024851Y0275060D02*
X0017600Y0275060D01*
X0017600Y0275658D02*
X0024603Y0275658D01*
X0024449Y0276257D02*
X0017600Y0276257D01*
X0017600Y0276855D02*
X0024449Y0276855D01*
X0024449Y0277454D02*
X0017600Y0277454D01*
X0017600Y0278052D02*
X0024449Y0278052D01*
X0024449Y0278651D02*
X0017600Y0278651D01*
X0017600Y0279249D02*
X0024530Y0279249D01*
X0024778Y0279848D02*
X0017600Y0279848D01*
X0017600Y0280446D02*
X0025026Y0280446D01*
X0025273Y0281045D02*
X0017704Y0281045D01*
X0018302Y0281643D02*
X0025521Y0281643D01*
X0026001Y0282242D02*
X0018901Y0282242D01*
X0019499Y0282841D02*
X0026599Y0282841D01*
X0027198Y0283439D02*
X0020098Y0283439D01*
X0020696Y0284038D02*
X0027871Y0284038D01*
X0029316Y0284636D02*
X0021295Y0284636D01*
X0021893Y0285235D02*
X0066908Y0285235D01*
X0067156Y0285833D02*
X0022492Y0285833D01*
X0023091Y0286432D02*
X0067404Y0286432D01*
X0067652Y0287030D02*
X0023689Y0287030D01*
X0024288Y0287629D02*
X0067900Y0287629D01*
X0068474Y0288227D02*
X0024886Y0288227D01*
X0025485Y0288826D02*
X0069072Y0288826D01*
X0069671Y0289424D02*
X0026083Y0289424D01*
X0026682Y0290023D02*
X0070269Y0290023D01*
X0071551Y0290621D02*
X0027280Y0290621D01*
X0034780Y0284636D02*
X0066660Y0284636D01*
X0066581Y0284038D02*
X0036225Y0284038D01*
X0036898Y0283439D02*
X0066581Y0283439D01*
X0066581Y0282841D02*
X0037497Y0282841D01*
X0038095Y0282242D02*
X0066581Y0282242D01*
X0066581Y0281643D02*
X0038575Y0281643D01*
X0038823Y0281045D02*
X0066581Y0281045D01*
X0066792Y0280446D02*
X0039070Y0280446D01*
X0039318Y0279848D02*
X0067040Y0279848D01*
X0067287Y0279249D02*
X0039566Y0279249D01*
X0039647Y0278651D02*
X0067535Y0278651D01*
X0067783Y0278052D02*
X0039647Y0278052D01*
X0039647Y0277454D02*
X0068193Y0277454D01*
X0068791Y0276855D02*
X0039647Y0276855D01*
X0039647Y0276257D02*
X0069390Y0276257D01*
X0069988Y0275658D02*
X0039493Y0275658D01*
X0039245Y0275060D02*
X0070872Y0275060D01*
X0072317Y0274461D02*
X0038997Y0274461D01*
X0051176Y0261294D02*
X0017600Y0261294D01*
X0017600Y0260696D02*
X0049731Y0260696D01*
X0048344Y0260097D02*
X0017600Y0260097D01*
X0017600Y0259499D02*
X0047745Y0259499D01*
X0047147Y0258900D02*
X0017600Y0258900D01*
X0017600Y0258302D02*
X0046548Y0258302D01*
X0045950Y0257703D02*
X0017600Y0257703D01*
X0017600Y0257105D02*
X0045683Y0257105D01*
X0045435Y0256506D02*
X0017600Y0256506D01*
X0017600Y0255908D02*
X0045187Y0255908D01*
X0044939Y0255309D02*
X0017600Y0255309D01*
X0017600Y0254710D02*
X0044691Y0254710D01*
X0044581Y0254112D02*
X0017600Y0254112D01*
X0017600Y0253513D02*
X0044581Y0253513D01*
X0044581Y0252915D02*
X0017600Y0252915D01*
X0017600Y0252316D02*
X0044581Y0252316D01*
X0044581Y0251718D02*
X0017600Y0251718D01*
X0017600Y0251119D02*
X0044581Y0251119D01*
X0044761Y0250521D02*
X0017600Y0250521D01*
X0017600Y0249922D02*
X0045009Y0249922D01*
X0045257Y0249324D02*
X0017600Y0249324D01*
X0017600Y0248725D02*
X0045505Y0248725D01*
X0045752Y0248127D02*
X0017600Y0248127D01*
X0017600Y0247528D02*
X0046118Y0247528D01*
X0046717Y0246930D02*
X0017600Y0246930D01*
X0017600Y0246331D02*
X0047315Y0246331D01*
X0047914Y0245733D02*
X0033653Y0245733D01*
X0035098Y0245134D02*
X0048693Y0245134D01*
X0050138Y0244536D02*
X0036432Y0244536D01*
X0037030Y0243937D02*
X0051583Y0243937D01*
X0030443Y0245733D02*
X0017600Y0245733D01*
X0017600Y0245134D02*
X0028998Y0245134D01*
X0027664Y0244536D02*
X0017600Y0244536D01*
X0017600Y0243937D02*
X0027066Y0243937D01*
X0026467Y0243339D02*
X0017600Y0243339D01*
X0017600Y0242740D02*
X0025869Y0242740D01*
X0025467Y0242142D02*
X0017600Y0242142D01*
X0017600Y0241543D02*
X0025219Y0241543D01*
X0024971Y0240945D02*
X0017600Y0240945D01*
X0017600Y0240346D02*
X0024723Y0240346D01*
X0024475Y0239748D02*
X0017600Y0239748D01*
X0017600Y0239149D02*
X0024449Y0239149D01*
X0024449Y0238551D02*
X0017600Y0238551D01*
X0017600Y0237952D02*
X0024449Y0237952D01*
X0024449Y0237354D02*
X0017600Y0237354D01*
X0017600Y0236755D02*
X0024449Y0236755D01*
X0024658Y0236157D02*
X0017600Y0236157D01*
X0017600Y0235558D02*
X0024906Y0235558D01*
X0025153Y0234960D02*
X0017600Y0234960D01*
X0017600Y0234361D02*
X0025401Y0234361D01*
X0025711Y0233763D02*
X0017600Y0233763D01*
X0017600Y0233164D02*
X0026309Y0233164D01*
X0026908Y0232566D02*
X0017600Y0232566D01*
X0017600Y0231967D02*
X0027507Y0231967D01*
X0028616Y0231369D02*
X0017600Y0231369D01*
X0017600Y0230770D02*
X0030061Y0230770D01*
X0031977Y0212815D02*
X0269534Y0212815D01*
X0268935Y0212216D02*
X0031379Y0212216D01*
X0029972Y0211618D02*
X0268337Y0211618D01*
X0268200Y0211019D02*
X0017600Y0211019D01*
X0017600Y0210421D02*
X0268200Y0210421D01*
X0268200Y0209822D02*
X0017600Y0209822D01*
X0030333Y0209224D02*
X0268200Y0209224D01*
X0268200Y0208625D02*
X0031528Y0208625D01*
X0032127Y0208027D02*
X0268423Y0208027D01*
X0269022Y0207428D02*
X0032563Y0207428D01*
X0032811Y0206830D02*
X0269620Y0206830D01*
X0270219Y0206231D02*
X0033043Y0206231D01*
X0033043Y0205633D02*
X0280252Y0205633D01*
X0279653Y0206231D02*
X0273981Y0206231D01*
X0274580Y0206830D02*
X0279055Y0206830D01*
X0278456Y0207428D02*
X0275178Y0207428D01*
X0275777Y0208027D02*
X0277858Y0208027D01*
X0277800Y0208625D02*
X0276000Y0208625D01*
X0274242Y0203239D02*
X0279392Y0203239D01*
X0279991Y0203837D02*
X0032677Y0203837D01*
X0032925Y0204436D02*
X0290591Y0204436D01*
X0290591Y0205034D02*
X0033043Y0205034D01*
X0032401Y0203239D02*
X0269958Y0203239D01*
X0269359Y0202640D02*
X0031803Y0202640D01*
X0030996Y0202041D02*
X0268761Y0202041D01*
X0274841Y0202640D02*
X0278794Y0202640D01*
X0278195Y0202041D02*
X0275439Y0202041D01*
X0276000Y0201443D02*
X0277800Y0201443D01*
X0277800Y0201646D02*
X0277800Y0200165D01*
X0281800Y0200165D01*
X0281800Y0204165D01*
X0280319Y0204165D01*
X0277800Y0201646D01*
X0277800Y0200844D02*
X0276000Y0200844D01*
X0276000Y0200246D02*
X0277800Y0200246D01*
X0281800Y0200246D02*
X0282400Y0200246D01*
X0282400Y0200844D02*
X0281800Y0200844D01*
X0281800Y0201443D02*
X0282400Y0201443D01*
X0282400Y0202041D02*
X0281800Y0202041D01*
X0281800Y0202640D02*
X0282400Y0202640D01*
X0282400Y0203239D02*
X0281800Y0203239D01*
X0281800Y0203837D02*
X0282400Y0203837D01*
X0284209Y0203837D02*
X0290591Y0203837D01*
X0290591Y0203239D02*
X0284808Y0203239D01*
X0285406Y0202640D02*
X0290591Y0202640D01*
X0290591Y0202041D02*
X0286005Y0202041D01*
X0286400Y0201443D02*
X0290591Y0201443D01*
X0290591Y0200844D02*
X0286400Y0200844D01*
X0286400Y0200246D02*
X0290591Y0200246D01*
X0290591Y0199647D02*
X0282400Y0199647D01*
X0284971Y0196655D02*
X0290591Y0196655D01*
X0290591Y0197253D02*
X0285569Y0197253D01*
X0286168Y0197852D02*
X0290591Y0197852D01*
X0290591Y0198450D02*
X0286400Y0198450D01*
X0286400Y0199049D02*
X0290591Y0199049D01*
X0290591Y0188874D02*
X0286400Y0188874D01*
X0286400Y0188276D02*
X0290591Y0188276D01*
X0290591Y0187677D02*
X0285993Y0187677D01*
X0285394Y0187079D02*
X0290591Y0187079D01*
X0290591Y0186480D02*
X0284796Y0186480D01*
X0284197Y0185882D02*
X0290591Y0185882D01*
X0290591Y0184086D02*
X0283960Y0184086D01*
X0284559Y0183488D02*
X0290591Y0183488D01*
X0290591Y0182889D02*
X0285157Y0182889D01*
X0285756Y0182291D02*
X0290591Y0182291D01*
X0290591Y0181692D02*
X0286354Y0181692D01*
X0286400Y0181094D02*
X0290591Y0181094D01*
X0290591Y0180495D02*
X0286400Y0180495D01*
X0286400Y0179298D02*
X0290591Y0179298D01*
X0290591Y0178700D02*
X0286400Y0178700D01*
X0286400Y0178101D02*
X0290591Y0178101D01*
X0290591Y0177503D02*
X0285818Y0177503D01*
X0285220Y0176904D02*
X0290591Y0176904D01*
X0290591Y0176305D02*
X0284621Y0176305D01*
X0284023Y0175707D02*
X0290591Y0175707D01*
X0290591Y0175108D02*
X0033435Y0175108D01*
X0033340Y0174510D02*
X0290591Y0174510D01*
X0290591Y0173911D02*
X0284135Y0173911D01*
X0283881Y0174165D02*
X0282400Y0174165D01*
X0282400Y0170165D01*
X0286400Y0170165D01*
X0286400Y0171646D01*
X0283881Y0174165D01*
X0284734Y0173313D02*
X0290591Y0173313D01*
X0290591Y0172714D02*
X0285332Y0172714D01*
X0285931Y0172116D02*
X0290591Y0172116D01*
X0290591Y0171517D02*
X0286400Y0171517D01*
X0286400Y0170919D02*
X0290591Y0170919D01*
X0290591Y0170320D02*
X0286400Y0170320D01*
X0286400Y0169565D02*
X0282400Y0169565D01*
X0282400Y0165565D01*
X0283881Y0165565D01*
X0286400Y0168084D01*
X0286400Y0169565D01*
X0286400Y0169123D02*
X0290591Y0169123D01*
X0290591Y0168525D02*
X0286400Y0168525D01*
X0286242Y0167926D02*
X0290591Y0167926D01*
X0290591Y0167328D02*
X0285644Y0167328D01*
X0285045Y0166729D02*
X0290591Y0166729D01*
X0290591Y0166131D02*
X0284447Y0166131D01*
X0282400Y0166131D02*
X0281800Y0166131D01*
X0281800Y0165565D02*
X0281800Y0169565D01*
X0282400Y0169565D01*
X0282400Y0170165D01*
X0281800Y0170165D01*
X0281800Y0169565D01*
X0277800Y0169565D01*
X0277800Y0168084D01*
X0280319Y0165565D01*
X0281800Y0165565D01*
X0281800Y0166729D02*
X0282400Y0166729D01*
X0282400Y0167328D02*
X0281800Y0167328D01*
X0281800Y0167926D02*
X0282400Y0167926D01*
X0282400Y0168525D02*
X0281800Y0168525D01*
X0281800Y0169123D02*
X0282400Y0169123D01*
X0282400Y0169722D02*
X0290591Y0169722D01*
X0290591Y0165532D02*
X0033043Y0165532D01*
X0033043Y0164934D02*
X0290591Y0164934D01*
X0290591Y0164335D02*
X0032883Y0164335D01*
X0032635Y0163737D02*
X0290591Y0163737D01*
X0290591Y0163138D02*
X0032301Y0163138D01*
X0031702Y0162540D02*
X0290591Y0162540D01*
X0282400Y0170320D02*
X0281800Y0170320D01*
X0281800Y0170165D02*
X0281800Y0174165D01*
X0280319Y0174165D01*
X0277800Y0171646D01*
X0277800Y0170165D01*
X0281800Y0170165D01*
X0281800Y0169722D02*
X0276000Y0169722D01*
X0276000Y0170320D02*
X0277800Y0170320D01*
X0277800Y0170919D02*
X0276000Y0170919D01*
X0275963Y0171517D02*
X0277800Y0171517D01*
X0278269Y0172116D02*
X0275365Y0172116D01*
X0274766Y0172714D02*
X0278868Y0172714D01*
X0279466Y0173313D02*
X0274168Y0173313D01*
X0274056Y0176305D02*
X0279579Y0176305D01*
X0280177Y0175707D02*
X0026443Y0175707D01*
X0026442Y0176305D02*
X0025843Y0176305D01*
X0025842Y0175707D02*
X0017600Y0175707D01*
X0017600Y0176305D02*
X0018917Y0176305D01*
X0019079Y0176904D02*
X0017600Y0176904D01*
X0017600Y0177503D02*
X0019339Y0177503D01*
X0019721Y0178101D02*
X0017600Y0178101D01*
X0017600Y0178700D02*
X0020266Y0178700D01*
X0021134Y0179298D02*
X0017600Y0179298D01*
X0017600Y0175108D02*
X0018850Y0175108D01*
X0018945Y0174510D02*
X0017600Y0174510D01*
X0017600Y0173911D02*
X0019136Y0173911D01*
X0019428Y0173313D02*
X0017600Y0173313D01*
X0017600Y0172714D02*
X0019848Y0172714D01*
X0020478Y0172116D02*
X0017600Y0172116D01*
X0017600Y0170320D02*
X0268200Y0170320D01*
X0268200Y0169722D02*
X0017600Y0169722D01*
X0025843Y0171517D02*
X0026442Y0171517D01*
X0026442Y0172116D02*
X0025843Y0172116D01*
X0025843Y0172714D02*
X0026442Y0172714D01*
X0026442Y0173313D02*
X0025843Y0173313D01*
X0025843Y0173911D02*
X0026442Y0173911D01*
X0026442Y0174510D02*
X0025843Y0174510D01*
X0025843Y0175108D02*
X0026442Y0175108D01*
X0026442Y0176904D02*
X0025843Y0176904D01*
X0025843Y0177503D02*
X0026442Y0177503D01*
X0026442Y0178101D02*
X0025843Y0178101D01*
X0025843Y0178700D02*
X0026442Y0178700D01*
X0026442Y0179298D02*
X0025843Y0179298D01*
X0030152Y0181692D02*
X0268411Y0181692D01*
X0269010Y0182291D02*
X0031453Y0182291D01*
X0032052Y0182889D02*
X0269608Y0182889D01*
X0270207Y0183488D02*
X0032532Y0183488D01*
X0033149Y0173911D02*
X0280065Y0173911D01*
X0280319Y0175565D02*
X0277800Y0178084D01*
X0277800Y0179565D01*
X0281800Y0179565D01*
X0281800Y0175565D01*
X0280319Y0175565D01*
X0281800Y0175707D02*
X0282400Y0175707D01*
X0282400Y0176305D02*
X0281800Y0176305D01*
X0281800Y0176904D02*
X0282400Y0176904D01*
X0282400Y0177503D02*
X0281800Y0177503D01*
X0281800Y0178101D02*
X0282400Y0178101D01*
X0282400Y0178700D02*
X0281800Y0178700D01*
X0281800Y0179298D02*
X0282400Y0179298D01*
X0282400Y0179897D02*
X0290591Y0179897D01*
X0282400Y0173911D02*
X0281800Y0173911D01*
X0281800Y0173313D02*
X0282400Y0173313D01*
X0282400Y0172714D02*
X0281800Y0172714D01*
X0281800Y0172116D02*
X0282400Y0172116D01*
X0282400Y0171517D02*
X0281800Y0171517D01*
X0281800Y0170919D02*
X0282400Y0170919D01*
X0278556Y0167328D02*
X0275078Y0167328D01*
X0275676Y0167926D02*
X0277958Y0167926D01*
X0277800Y0168525D02*
X0276000Y0168525D01*
X0276000Y0169123D02*
X0277800Y0169123D01*
X0279155Y0166729D02*
X0274479Y0166729D01*
X0273881Y0166131D02*
X0279753Y0166131D01*
X0270319Y0166131D02*
X0033043Y0166131D01*
X0032853Y0166729D02*
X0269721Y0166729D01*
X0269122Y0167328D02*
X0032605Y0167328D01*
X0032227Y0167926D02*
X0268524Y0167926D01*
X0268200Y0168525D02*
X0031628Y0168525D01*
X0030575Y0169123D02*
X0268200Y0169123D01*
X0274654Y0176904D02*
X0278980Y0176904D01*
X0278382Y0177503D02*
X0275253Y0177503D01*
X0275851Y0178101D02*
X0277800Y0178101D01*
X0277800Y0178700D02*
X0276000Y0178700D01*
X0276000Y0179298D02*
X0277800Y0179298D01*
X0239683Y0246930D02*
X0234021Y0246930D01*
X0235078Y0247528D02*
X0239361Y0247528D01*
X0239361Y0248127D02*
X0235676Y0248127D01*
X0235986Y0248725D02*
X0239361Y0248725D01*
X0239361Y0249324D02*
X0236234Y0249324D01*
X0236310Y0249922D02*
X0239361Y0249922D01*
X0239361Y0250521D02*
X0236310Y0250521D01*
X0236216Y0251119D02*
X0239361Y0251119D01*
X0239361Y0251718D02*
X0235968Y0251718D01*
X0235633Y0252316D02*
X0239361Y0252316D01*
X0239361Y0252915D02*
X0235035Y0252915D01*
X0233916Y0253513D02*
X0239727Y0253513D01*
X0241770Y0256506D02*
X0223901Y0256506D01*
X0225252Y0257105D02*
X0240419Y0257105D01*
X0239821Y0257703D02*
X0225850Y0257703D01*
X0226392Y0258302D02*
X0239279Y0258302D01*
X0239031Y0258900D02*
X0226640Y0258900D01*
X0226888Y0259499D02*
X0238783Y0259499D01*
X0238687Y0260097D02*
X0226983Y0260097D01*
X0226983Y0260696D02*
X0238687Y0260696D01*
X0238687Y0261294D02*
X0226983Y0261294D01*
X0226771Y0261893D02*
X0238900Y0261893D01*
X0239148Y0262491D02*
X0226523Y0262491D01*
X0226166Y0263090D02*
X0239505Y0263090D01*
X0240103Y0263688D02*
X0225568Y0263688D01*
X0224664Y0264287D02*
X0241007Y0264287D01*
X0152557Y0246930D02*
X0139231Y0246930D01*
X0139691Y0247528D02*
X0151112Y0247528D01*
X0150297Y0248127D02*
X0140048Y0248127D01*
X0140379Y0248725D02*
X0149698Y0248725D01*
X0149100Y0249324D02*
X0140627Y0249324D01*
X0140849Y0249922D02*
X0148838Y0249922D01*
X0148590Y0250521D02*
X0141009Y0250521D01*
X0141140Y0251119D02*
X0148343Y0251119D01*
X0148176Y0251718D02*
X0141219Y0251718D01*
X0141269Y0252316D02*
X0148176Y0252316D01*
X0132395Y0254112D02*
X0131795Y0254112D01*
X0131795Y0254710D02*
X0132395Y0254710D01*
X0132395Y0255309D02*
X0131795Y0255309D01*
X0131795Y0255908D02*
X0132395Y0255908D01*
X0132395Y0256506D02*
X0131795Y0256506D01*
X0131795Y0257105D02*
X0132395Y0257105D01*
X0132395Y0257703D02*
X0131795Y0257703D01*
X0131795Y0258302D02*
X0132395Y0258302D01*
X0132395Y0258900D02*
X0131795Y0258900D01*
X0131795Y0259499D02*
X0132395Y0259499D01*
X0132395Y0260097D02*
X0131795Y0260097D01*
X0131795Y0260696D02*
X0132395Y0260696D01*
X0132395Y0261294D02*
X0131795Y0261294D01*
X0266000Y0064982D02*
X0266600Y0064982D01*
X0266600Y0064384D02*
X0266000Y0064384D01*
X0266000Y0063785D02*
X0266600Y0063785D01*
X0266600Y0063187D02*
X0266000Y0063187D01*
X0266000Y0062588D02*
X0266600Y0062588D01*
X0266600Y0061990D02*
X0266000Y0061990D01*
X0266000Y0061391D02*
X0266600Y0061391D01*
X0266600Y0060793D02*
X0266000Y0060793D01*
X0266000Y0058997D02*
X0266600Y0058997D01*
X0266600Y0058399D02*
X0266000Y0058399D01*
X0266000Y0057800D02*
X0266600Y0057800D01*
X0266600Y0057202D02*
X0266000Y0057202D01*
X0266000Y0056603D02*
X0266600Y0056603D01*
X0266600Y0056005D02*
X0266000Y0056005D01*
X0266000Y0055406D02*
X0266600Y0055406D01*
X0271370Y0060793D02*
X0290591Y0060793D01*
X0290591Y0061391D02*
X0271275Y0061391D01*
X0271081Y0061990D02*
X0290591Y0061990D01*
X0290591Y0062588D02*
X0270807Y0062588D01*
X0270434Y0063187D02*
X0290591Y0063187D01*
X0290591Y0063785D02*
X0269927Y0063785D01*
X0269218Y0064384D02*
X0290591Y0064384D01*
X0290591Y0064982D02*
X0268085Y0064982D01*
X0271567Y0027276D02*
X0163214Y0027276D01*
X0163135Y0026678D02*
X0272630Y0026678D01*
X0274075Y0026079D02*
X0162998Y0026079D01*
D21*
X0142800Y0070200D03*
X0142800Y0078700D03*
X0150300Y0086200D03*
X0135300Y0091700D03*
X0135300Y0094700D03*
X0148800Y0105700D03*
X0152800Y0105700D03*
X0152800Y0130200D03*
X0155800Y0130200D03*
X0178800Y0097700D03*
X0186800Y0097700D03*
X0221300Y0087200D03*
X0224300Y0087200D03*
X0224300Y0163500D03*
X0224300Y0175000D03*
X0224300Y0185000D03*
X0224300Y0195700D03*
X0233300Y0205700D03*
X0236300Y0205700D03*
X0246800Y0211200D03*
X0255800Y0217200D03*
X0246800Y0223200D03*
X0221800Y0234200D03*
X0221800Y0237200D03*
X0188800Y0203700D03*
X0197800Y0197700D03*
X0188800Y0191700D03*
X0194100Y0185000D03*
X0194100Y0175000D03*
X0194100Y0163500D03*
X0177800Y0186200D03*
X0174800Y0186200D03*
X0162100Y0175000D03*
X0162100Y0163500D03*
X0137600Y0177500D03*
X0128600Y0171500D03*
X0128600Y0183500D03*
X0117800Y0163200D03*
X0114800Y0163200D03*
X0113300Y0126200D03*
X0116300Y0126200D03*
X0105300Y0112700D03*
X0109300Y0102200D03*
X0113300Y0102200D03*
X0099800Y0081200D03*
X0118300Y0211200D03*
X0123300Y0211200D03*
X0120300Y0220700D03*
X0135800Y0221700D03*
X0135800Y0224700D03*
X0169300Y0223700D03*
X0169300Y0215700D03*
X0169300Y0231700D03*
X0251300Y0195700D03*
X0251300Y0185000D03*
X0251300Y0175000D03*
X0251300Y0163500D03*
M02*
