%
M48
M72
T01C0.01200
T02C0.03150
T03C0.03937
T04C0.04000
T05C0.04331
T06C0.06693
T07C0.10236
T08C0.12598
%
T01
X99800Y81200
X109300Y102200
X113300Y102200
X105300Y112700
X113300Y126200
X116300Y126200
X135300Y94700
X135300Y91700
X142800Y78700
X150300Y86200
X142800Y70200
X148800Y105700
X152800Y105700
X152800Y130200
X155800Y130200
X178800Y97700
X186800Y97700
X221300Y87200
X224300Y87200
X251300Y163500
X251300Y175000
X251300Y185000
X251300Y195700
X236300Y205700
X233300Y205700
X224300Y195700
X224300Y185000
X224300Y175000
X224300Y163500
X194100Y163500
X194100Y175000
X194100Y185000
X188800Y191700
X197800Y197700
X188800Y203700
X177800Y186200
X174800Y186200
X162100Y175000
X162100Y163500
X137600Y177500
X128600Y171500
X128600Y183500
X117800Y163200
X114800Y163200
X118300Y211200
X123300Y211200
X120300Y220700
X135800Y221700
X135800Y224700
X169300Y223700
X169300Y215700
X169300Y231700
X221800Y237200
X221800Y234200
X246800Y223200
X255800Y217200
X246800Y211200
T02
X222835Y250200
X232835Y250200
X242835Y250200
X222835Y60200
X232835Y60200
X242835Y60200
T03
X82300Y155700
X266300Y249700
X266300Y60200
T04
X26143Y95495
X26143Y105495
X26143Y115495
X26143Y125495
X26143Y135495
X26143Y145495
X26143Y165495
X26143Y175495
X26143Y185495
X26143Y195495
X26143Y205495
X26143Y215495
X272500Y219865
X272500Y209865
X272500Y199865
X272500Y189865
X282500Y189865
X282500Y199865
X282500Y209865
X282500Y219865
X282500Y179865
X282500Y169865
X272500Y169865
X272500Y179865
X272500Y141700
X272500Y131700
X272500Y121700
X282500Y121700
X282500Y131700
X282500Y141700
X282500Y111700
X282500Y101700
X282500Y91700
X272500Y91700
X272500Y101700
X272500Y111700
T05
X222835Y260554
X242835Y260554
X222835Y49885
X242835Y49885
T06
X75355Y58300
X154095Y58300
X154095Y252700
X75355Y252700
T07
X53355Y58300
X75355Y28300
X97355Y58300
X132095Y58300
X154095Y28300
X176095Y58300
X176095Y252700
X154095Y282700
X132095Y252700
X97355Y252700
X75355Y282700
X53355Y252700
T08
X32048Y33448
X32048Y72818
X32048Y238172
X32048Y277543
X197402Y238172
X276143Y277543
X197402Y72818
X276143Y33448
M30
