G75*
%MOIN*%
%OFA0B0*%
%FSLAX25Y25*%
%IPPOS*%
%LPD*%
%AMOC8*
5,1,8,0,0,1.08239X$1,22.5*
%
%ADD10C,0.00600*%
%ADD11C,0.00800*%
%ADD12C,0.01100*%
%ADD13C,0.03000*%
%ADD14R,0.02000X0.03000*%
%ADD15R,0.04000X0.03000*%
%ADD16R,0.03000X0.03000*%
%ADD17C,0.00000*%
%ADD18C,0.01000*%
%ADD19C,0.00500*%
%ADD20C,0.02400*%
%ADD21C,0.01500*%
D10*
X0058855Y0003800D02*
X0058855Y0025300D01*
X0066855Y0025300D01*
X0065355Y0022800D02*
X0065355Y0017300D01*
X0063355Y0012800D02*
X0063355Y0022800D01*
X0061355Y0022800D02*
X0061355Y0006300D01*
X0058855Y0003800D02*
X0058857Y0003713D01*
X0058863Y0003626D01*
X0058872Y0003539D01*
X0058885Y0003453D01*
X0058902Y0003367D01*
X0058923Y0003282D01*
X0058948Y0003199D01*
X0058976Y0003116D01*
X0059007Y0003035D01*
X0059042Y0002955D01*
X0059081Y0002877D01*
X0059123Y0002800D01*
X0059168Y0002725D01*
X0059217Y0002653D01*
X0059268Y0002582D01*
X0059323Y0002514D01*
X0059380Y0002449D01*
X0059441Y0002386D01*
X0059504Y0002325D01*
X0059569Y0002268D01*
X0059637Y0002213D01*
X0059708Y0002162D01*
X0059780Y0002113D01*
X0059855Y0002068D01*
X0059932Y0002026D01*
X0060010Y0001987D01*
X0060090Y0001952D01*
X0060171Y0001921D01*
X0060254Y0001893D01*
X0060337Y0001868D01*
X0060422Y0001847D01*
X0060508Y0001830D01*
X0060594Y0001817D01*
X0060681Y0001808D01*
X0060768Y0001802D01*
X0060855Y0001800D01*
X0063355Y0001800D01*
X0063355Y0001300D01*
X0087355Y0001300D01*
X0087355Y0001800D01*
X0063355Y0001800D01*
X0060355Y0003800D02*
X0090355Y0003800D01*
X0091855Y0003800D02*
X0091853Y0003713D01*
X0091847Y0003626D01*
X0091838Y0003539D01*
X0091825Y0003453D01*
X0091808Y0003367D01*
X0091787Y0003282D01*
X0091762Y0003199D01*
X0091734Y0003116D01*
X0091703Y0003035D01*
X0091668Y0002955D01*
X0091629Y0002877D01*
X0091587Y0002800D01*
X0091542Y0002725D01*
X0091493Y0002653D01*
X0091442Y0002582D01*
X0091387Y0002514D01*
X0091330Y0002449D01*
X0091269Y0002386D01*
X0091206Y0002325D01*
X0091141Y0002268D01*
X0091073Y0002213D01*
X0091002Y0002162D01*
X0090930Y0002113D01*
X0090855Y0002068D01*
X0090778Y0002026D01*
X0090700Y0001987D01*
X0090620Y0001952D01*
X0090539Y0001921D01*
X0090456Y0001893D01*
X0090373Y0001868D01*
X0090288Y0001847D01*
X0090202Y0001830D01*
X0090116Y0001817D01*
X0090029Y0001808D01*
X0089942Y0001802D01*
X0089855Y0001800D01*
X0087355Y0001800D01*
X0089355Y0006300D02*
X0089355Y0022800D01*
X0087355Y0022800D02*
X0087355Y0012800D01*
X0085355Y0017300D02*
X0085355Y0022800D01*
X0083855Y0025300D02*
X0091855Y0025300D01*
X0091855Y0003800D01*
X0091855Y0025300D02*
X0091857Y0025387D01*
X0091863Y0025474D01*
X0091872Y0025561D01*
X0091885Y0025647D01*
X0091902Y0025733D01*
X0091923Y0025818D01*
X0091948Y0025901D01*
X0091976Y0025984D01*
X0092007Y0026065D01*
X0092042Y0026145D01*
X0092081Y0026223D01*
X0092123Y0026300D01*
X0092168Y0026375D01*
X0092217Y0026447D01*
X0092268Y0026518D01*
X0092323Y0026586D01*
X0092380Y0026651D01*
X0092441Y0026714D01*
X0092504Y0026775D01*
X0092569Y0026832D01*
X0092637Y0026887D01*
X0092708Y0026938D01*
X0092780Y0026987D01*
X0092855Y0027032D01*
X0092932Y0027074D01*
X0093010Y0027113D01*
X0093090Y0027148D01*
X0093171Y0027179D01*
X0093254Y0027207D01*
X0093337Y0027232D01*
X0093422Y0027253D01*
X0093508Y0027270D01*
X0093594Y0027283D01*
X0093681Y0027292D01*
X0093768Y0027298D01*
X0093855Y0027300D01*
X0094355Y0028300D02*
X0084355Y0028300D01*
X0080855Y0034800D02*
X0080855Y0056300D01*
X0069855Y0056300D02*
X0069855Y0034800D01*
X0066355Y0028300D02*
X0056355Y0028300D01*
X0056855Y0027300D02*
X0056942Y0027298D01*
X0057029Y0027292D01*
X0057116Y0027283D01*
X0057202Y0027270D01*
X0057288Y0027253D01*
X0057373Y0027232D01*
X0057456Y0027207D01*
X0057539Y0027179D01*
X0057620Y0027148D01*
X0057700Y0027113D01*
X0057778Y0027074D01*
X0057855Y0027032D01*
X0057930Y0026987D01*
X0058002Y0026938D01*
X0058073Y0026887D01*
X0058141Y0026832D01*
X0058206Y0026775D01*
X0058269Y0026714D01*
X0058330Y0026651D01*
X0058387Y0026586D01*
X0058442Y0026518D01*
X0058493Y0026447D01*
X0058542Y0026375D01*
X0058587Y0026300D01*
X0058629Y0026223D01*
X0058668Y0026145D01*
X0058703Y0026065D01*
X0058734Y0025984D01*
X0058762Y0025901D01*
X0058787Y0025818D01*
X0058808Y0025733D01*
X0058825Y0025647D01*
X0058838Y0025561D01*
X0058847Y0025474D01*
X0058853Y0025387D01*
X0058855Y0025300D01*
X0073100Y0072000D02*
X0073100Y0075403D01*
X0074801Y0075403D01*
X0075369Y0074836D01*
X0075369Y0073701D01*
X0074801Y0073134D01*
X0073100Y0073134D01*
X0074234Y0073134D02*
X0075369Y0072000D01*
X0076783Y0072000D02*
X0079052Y0072000D01*
X0077917Y0072000D02*
X0077917Y0075403D01*
X0076783Y0074269D01*
X0080466Y0075403D02*
X0082735Y0075403D01*
X0082735Y0074836D01*
X0080466Y0072567D01*
X0080466Y0072000D01*
X0086600Y0075403D02*
X0088869Y0075403D01*
X0087734Y0075403D02*
X0087734Y0072000D01*
X0090283Y0072000D02*
X0090283Y0075403D01*
X0091985Y0075403D01*
X0092552Y0074836D01*
X0092552Y0073701D01*
X0091985Y0073134D01*
X0090283Y0073134D01*
X0093966Y0072000D02*
X0096235Y0074269D01*
X0096235Y0074836D01*
X0095668Y0075403D01*
X0094533Y0075403D01*
X0093966Y0074836D01*
X0093966Y0072000D02*
X0096235Y0072000D01*
X0103600Y0087500D02*
X0103600Y0090903D01*
X0105301Y0090903D01*
X0105869Y0090336D01*
X0105869Y0089201D01*
X0105301Y0088634D01*
X0103600Y0088634D01*
X0104734Y0088634D02*
X0105869Y0087500D01*
X0107283Y0087500D02*
X0109552Y0087500D01*
X0108417Y0087500D02*
X0108417Y0090903D01*
X0107283Y0089769D01*
X0110966Y0089201D02*
X0110966Y0090903D01*
X0113235Y0090903D01*
X0112668Y0089769D02*
X0113235Y0089201D01*
X0113235Y0088067D01*
X0112668Y0087500D01*
X0111533Y0087500D01*
X0110966Y0088067D01*
X0110966Y0089201D02*
X0112101Y0089769D01*
X0112668Y0089769D01*
X0119600Y0090000D02*
X0119600Y0093403D01*
X0121301Y0093403D01*
X0121869Y0092836D01*
X0121869Y0091701D01*
X0121301Y0091134D01*
X0119600Y0091134D01*
X0120734Y0091134D02*
X0121869Y0090000D01*
X0123283Y0090000D02*
X0125552Y0090000D01*
X0124417Y0090000D02*
X0124417Y0093403D01*
X0123283Y0092269D01*
X0126966Y0092269D02*
X0128101Y0093403D01*
X0128101Y0090000D01*
X0129235Y0090000D02*
X0126966Y0090000D01*
X0134100Y0097567D02*
X0134667Y0097000D01*
X0135801Y0097000D01*
X0136369Y0097567D01*
X0137783Y0097567D02*
X0138350Y0097000D01*
X0139485Y0097000D01*
X0140052Y0097567D01*
X0140052Y0098134D01*
X0139485Y0098701D01*
X0137783Y0098701D01*
X0137783Y0097567D01*
X0137783Y0098701D02*
X0138917Y0099836D01*
X0140052Y0100403D01*
X0142264Y0100734D02*
X0144533Y0100734D01*
X0144533Y0099600D02*
X0142264Y0101869D01*
X0143399Y0101869D02*
X0143399Y0099600D01*
X0142264Y0099600D02*
X0144533Y0101869D01*
X0144900Y0103800D02*
X0144900Y0104500D01*
X0144900Y0106900D01*
X0144900Y0107600D01*
X0144900Y0106900D02*
X0144969Y0106898D01*
X0145037Y0106892D01*
X0145105Y0106882D01*
X0145172Y0106869D01*
X0145238Y0106851D01*
X0145303Y0106830D01*
X0145367Y0106805D01*
X0145429Y0106777D01*
X0145490Y0106745D01*
X0145549Y0106710D01*
X0145605Y0106671D01*
X0145660Y0106629D01*
X0145711Y0106584D01*
X0145761Y0106536D01*
X0145807Y0106486D01*
X0145850Y0106433D01*
X0145891Y0106377D01*
X0145928Y0106320D01*
X0145961Y0106260D01*
X0145992Y0106198D01*
X0146018Y0106135D01*
X0146041Y0106071D01*
X0146061Y0106005D01*
X0146076Y0105938D01*
X0146088Y0105871D01*
X0146096Y0105803D01*
X0146100Y0105734D01*
X0146100Y0105666D01*
X0146096Y0105597D01*
X0146088Y0105529D01*
X0146076Y0105462D01*
X0146061Y0105395D01*
X0146041Y0105329D01*
X0146018Y0105265D01*
X0145992Y0105202D01*
X0145961Y0105140D01*
X0145928Y0105080D01*
X0145891Y0105023D01*
X0145850Y0104967D01*
X0145807Y0104914D01*
X0145761Y0104864D01*
X0145711Y0104816D01*
X0145660Y0104771D01*
X0145605Y0104729D01*
X0145549Y0104690D01*
X0145490Y0104655D01*
X0145429Y0104623D01*
X0145367Y0104595D01*
X0145303Y0104570D01*
X0145238Y0104549D01*
X0145172Y0104531D01*
X0145105Y0104518D01*
X0145037Y0104508D01*
X0144969Y0104502D01*
X0144900Y0104500D01*
X0142952Y0104567D02*
X0142385Y0104000D01*
X0141250Y0104000D01*
X0140683Y0104567D01*
X0139269Y0104567D02*
X0139269Y0107403D01*
X0140683Y0106836D02*
X0141250Y0107403D01*
X0142385Y0107403D01*
X0142952Y0106836D01*
X0142952Y0106269D01*
X0142385Y0105701D01*
X0142952Y0105134D01*
X0142952Y0104567D01*
X0142385Y0105701D02*
X0141817Y0105701D01*
X0139269Y0104567D02*
X0138701Y0104000D01*
X0137567Y0104000D01*
X0137000Y0104567D01*
X0137000Y0107403D01*
X0135801Y0100403D02*
X0134667Y0100403D01*
X0134100Y0099836D01*
X0134100Y0097567D01*
X0136369Y0099836D02*
X0135801Y0100403D01*
X0149500Y0109000D02*
X0152100Y0109000D01*
X0156700Y0107600D02*
X0156700Y0103800D01*
X0163100Y0097403D02*
X0164801Y0097403D01*
X0165369Y0096836D01*
X0165369Y0095701D01*
X0164801Y0095134D01*
X0163100Y0095134D01*
X0163100Y0094000D02*
X0163100Y0097403D01*
X0164234Y0095134D02*
X0165369Y0094000D01*
X0166783Y0094567D02*
X0167350Y0094000D01*
X0168485Y0094000D01*
X0169052Y0094567D01*
X0169052Y0095701D01*
X0168485Y0096269D01*
X0167917Y0096269D01*
X0166783Y0095701D01*
X0166783Y0097403D01*
X0169052Y0097403D01*
X0172600Y0090903D02*
X0174869Y0090903D01*
X0173734Y0090903D02*
X0173734Y0087500D01*
X0176283Y0087500D02*
X0176283Y0090903D01*
X0177985Y0090903D01*
X0178552Y0090336D01*
X0178552Y0089201D01*
X0177985Y0088634D01*
X0176283Y0088634D01*
X0179966Y0088067D02*
X0180533Y0087500D01*
X0181668Y0087500D01*
X0182235Y0088067D01*
X0182235Y0089201D01*
X0181668Y0089769D01*
X0181101Y0089769D01*
X0179966Y0089201D01*
X0179966Y0090903D01*
X0182235Y0090903D01*
X0192100Y0095500D02*
X0192100Y0098903D01*
X0193801Y0098903D01*
X0194369Y0098336D01*
X0194369Y0097201D01*
X0193801Y0096634D01*
X0192100Y0096634D01*
X0193234Y0096634D02*
X0194369Y0095500D01*
X0195783Y0095500D02*
X0195783Y0096067D01*
X0198052Y0098336D01*
X0198052Y0098903D01*
X0195783Y0098903D01*
X0189485Y0112500D02*
X0188350Y0112500D01*
X0187783Y0113067D01*
X0187783Y0113634D01*
X0188350Y0114201D01*
X0189485Y0114201D01*
X0190052Y0113634D01*
X0190052Y0113067D01*
X0189485Y0112500D01*
X0189485Y0114201D02*
X0190052Y0114769D01*
X0190052Y0115336D01*
X0189485Y0115903D01*
X0188350Y0115903D01*
X0187783Y0115336D01*
X0187783Y0114769D01*
X0188350Y0114201D01*
X0186369Y0114201D02*
X0186369Y0115336D01*
X0185801Y0115903D01*
X0184100Y0115903D01*
X0184100Y0112500D01*
X0184100Y0113634D02*
X0185801Y0113634D01*
X0186369Y0114201D01*
X0185234Y0113634D02*
X0186369Y0112500D01*
X0182052Y0114201D02*
X0179783Y0114201D01*
X0181485Y0115903D01*
X0181485Y0112500D01*
X0178369Y0113067D02*
X0177801Y0112500D01*
X0176667Y0112500D01*
X0176100Y0113067D01*
X0176100Y0115336D01*
X0176667Y0115903D01*
X0177801Y0115903D01*
X0178369Y0115336D01*
X0176283Y0120500D02*
X0176283Y0123903D01*
X0177985Y0123903D01*
X0178552Y0123336D01*
X0178552Y0122201D01*
X0177985Y0121634D01*
X0176283Y0121634D01*
X0174869Y0123903D02*
X0172600Y0123903D01*
X0173734Y0123903D02*
X0173734Y0120500D01*
X0179966Y0121067D02*
X0179966Y0122201D01*
X0181668Y0122201D01*
X0182235Y0121634D01*
X0182235Y0121067D01*
X0181668Y0120500D01*
X0180533Y0120500D01*
X0179966Y0121067D01*
X0179966Y0122201D02*
X0181101Y0123336D01*
X0182235Y0123903D01*
X0169052Y0117403D02*
X0167917Y0116836D01*
X0166783Y0115701D01*
X0168485Y0115701D01*
X0169052Y0115134D01*
X0169052Y0114567D01*
X0168485Y0114000D01*
X0167350Y0114000D01*
X0166783Y0114567D01*
X0166783Y0115701D01*
X0165369Y0115701D02*
X0164801Y0115134D01*
X0163100Y0115134D01*
X0163100Y0114000D02*
X0163100Y0117403D01*
X0164801Y0117403D01*
X0165369Y0116836D01*
X0165369Y0115701D01*
X0164234Y0115134D02*
X0165369Y0114000D01*
X0163485Y0124000D02*
X0162350Y0124000D01*
X0161783Y0124567D01*
X0161783Y0125701D02*
X0162917Y0126269D01*
X0163485Y0126269D01*
X0164052Y0125701D01*
X0164052Y0124567D01*
X0163485Y0124000D01*
X0161783Y0125701D02*
X0161783Y0127403D01*
X0164052Y0127403D01*
X0160369Y0126836D02*
X0159801Y0127403D01*
X0158667Y0127403D01*
X0158100Y0126836D01*
X0158100Y0124567D01*
X0158667Y0124000D01*
X0159801Y0124000D01*
X0160369Y0124567D01*
X0142552Y0119836D02*
X0141985Y0120403D01*
X0140850Y0120403D01*
X0140283Y0119836D01*
X0138869Y0119836D02*
X0138869Y0118701D01*
X0138301Y0118134D01*
X0136600Y0118134D01*
X0136600Y0117000D02*
X0136600Y0120403D01*
X0138301Y0120403D01*
X0138869Y0119836D01*
X0137734Y0118134D02*
X0138869Y0117000D01*
X0140283Y0117000D02*
X0142552Y0119269D01*
X0142552Y0119836D01*
X0142552Y0117000D02*
X0140283Y0117000D01*
X0128235Y0117067D02*
X0127668Y0116500D01*
X0126533Y0116500D01*
X0125966Y0117067D01*
X0128235Y0119336D01*
X0128235Y0117067D01*
X0125966Y0117067D02*
X0125966Y0119336D01*
X0126533Y0119903D01*
X0127668Y0119903D01*
X0128235Y0119336D01*
X0124552Y0116500D02*
X0122283Y0116500D01*
X0123417Y0116500D02*
X0123417Y0119903D01*
X0122283Y0118769D01*
X0120869Y0119336D02*
X0120301Y0119903D01*
X0119167Y0119903D01*
X0118600Y0119336D01*
X0118600Y0117067D01*
X0119167Y0116500D01*
X0120301Y0116500D01*
X0120869Y0117067D01*
X0119836Y0108300D02*
X0117567Y0106031D01*
X0118701Y0106031D02*
X0118701Y0108300D01*
X0117567Y0108300D02*
X0119836Y0106031D01*
X0119836Y0107166D02*
X0117567Y0107166D01*
X0117200Y0104100D02*
X0117200Y0103400D01*
X0117200Y0101000D01*
X0117200Y0100300D01*
X0117200Y0101000D02*
X0117131Y0101002D01*
X0117063Y0101008D01*
X0116995Y0101018D01*
X0116928Y0101031D01*
X0116862Y0101049D01*
X0116797Y0101070D01*
X0116733Y0101095D01*
X0116671Y0101123D01*
X0116610Y0101155D01*
X0116551Y0101190D01*
X0116495Y0101229D01*
X0116440Y0101271D01*
X0116389Y0101316D01*
X0116339Y0101364D01*
X0116293Y0101414D01*
X0116250Y0101467D01*
X0116209Y0101523D01*
X0116172Y0101580D01*
X0116139Y0101640D01*
X0116108Y0101702D01*
X0116082Y0101765D01*
X0116059Y0101829D01*
X0116039Y0101895D01*
X0116024Y0101962D01*
X0116012Y0102029D01*
X0116004Y0102097D01*
X0116000Y0102166D01*
X0116000Y0102234D01*
X0116004Y0102303D01*
X0116012Y0102371D01*
X0116024Y0102438D01*
X0116039Y0102505D01*
X0116059Y0102571D01*
X0116082Y0102635D01*
X0116108Y0102698D01*
X0116139Y0102760D01*
X0116172Y0102820D01*
X0116209Y0102877D01*
X0116250Y0102933D01*
X0116293Y0102986D01*
X0116339Y0103036D01*
X0116389Y0103084D01*
X0116440Y0103129D01*
X0116495Y0103171D01*
X0116551Y0103210D01*
X0116610Y0103245D01*
X0116671Y0103277D01*
X0116733Y0103305D01*
X0116797Y0103330D01*
X0116862Y0103351D01*
X0116928Y0103369D01*
X0116995Y0103382D01*
X0117063Y0103392D01*
X0117131Y0103398D01*
X0117200Y0103400D01*
X0112600Y0098900D02*
X0110000Y0098900D01*
X0105400Y0100300D02*
X0105400Y0104100D01*
X0103952Y0103903D02*
X0102817Y0103336D01*
X0101683Y0102201D01*
X0103385Y0102201D01*
X0103952Y0101634D01*
X0103952Y0101067D01*
X0103385Y0100500D01*
X0102250Y0100500D01*
X0101683Y0101067D01*
X0101683Y0102201D01*
X0100269Y0101067D02*
X0100269Y0103903D01*
X0098000Y0103903D02*
X0098000Y0101067D01*
X0098567Y0100500D01*
X0099701Y0100500D01*
X0100269Y0101067D01*
X0099917Y0122500D02*
X0099917Y0125903D01*
X0098783Y0124769D01*
X0097369Y0125336D02*
X0097369Y0124201D01*
X0096801Y0123634D01*
X0095100Y0123634D01*
X0095100Y0122500D02*
X0095100Y0125903D01*
X0096801Y0125903D01*
X0097369Y0125336D01*
X0096234Y0123634D02*
X0097369Y0122500D01*
X0098783Y0122500D02*
X0101052Y0122500D01*
X0102466Y0124201D02*
X0104168Y0125903D01*
X0104168Y0122500D01*
X0104735Y0124201D02*
X0102466Y0124201D01*
X0094235Y0128567D02*
X0093668Y0128000D01*
X0092533Y0128000D01*
X0091966Y0128567D01*
X0093101Y0129701D02*
X0093668Y0129701D01*
X0094235Y0129134D01*
X0094235Y0128567D01*
X0093668Y0129701D02*
X0094235Y0130269D01*
X0094235Y0130836D01*
X0093668Y0131403D01*
X0092533Y0131403D01*
X0091966Y0130836D01*
X0090552Y0130836D02*
X0090552Y0129701D01*
X0089985Y0129134D01*
X0088283Y0129134D01*
X0088283Y0128000D02*
X0088283Y0131403D01*
X0089985Y0131403D01*
X0090552Y0130836D01*
X0086869Y0131403D02*
X0084600Y0131403D01*
X0085734Y0131403D02*
X0085734Y0128000D01*
X0070352Y0122200D02*
X0068083Y0122200D01*
X0069217Y0122200D02*
X0069217Y0125603D01*
X0068083Y0124469D01*
X0066669Y0125603D02*
X0064400Y0125603D01*
X0065534Y0125603D02*
X0065534Y0122200D01*
X0078384Y0145953D02*
X0077817Y0146520D01*
X0078384Y0145953D02*
X0079518Y0145953D01*
X0080085Y0146520D01*
X0080085Y0147087D01*
X0079518Y0147654D01*
X0078951Y0147654D01*
X0079518Y0147654D02*
X0080085Y0148221D01*
X0080085Y0148789D01*
X0079518Y0149356D01*
X0078384Y0149356D01*
X0077817Y0148789D01*
X0081500Y0149356D02*
X0081500Y0147087D01*
X0082634Y0145953D01*
X0083768Y0147087D01*
X0083768Y0149356D01*
X0085183Y0148789D02*
X0085750Y0149356D01*
X0086884Y0149356D01*
X0087451Y0148789D01*
X0087451Y0148221D01*
X0086884Y0147654D01*
X0087451Y0147087D01*
X0087451Y0146520D01*
X0086884Y0145953D01*
X0085750Y0145953D01*
X0085183Y0146520D01*
X0086317Y0147654D02*
X0086884Y0147654D01*
X0077379Y0155700D02*
X0077381Y0155840D01*
X0077387Y0155980D01*
X0077397Y0156119D01*
X0077411Y0156258D01*
X0077429Y0156397D01*
X0077450Y0156535D01*
X0077476Y0156673D01*
X0077506Y0156810D01*
X0077539Y0156945D01*
X0077577Y0157080D01*
X0077618Y0157214D01*
X0077663Y0157347D01*
X0077711Y0157478D01*
X0077764Y0157607D01*
X0077820Y0157736D01*
X0077879Y0157862D01*
X0077943Y0157987D01*
X0078009Y0158110D01*
X0078080Y0158231D01*
X0078153Y0158350D01*
X0078230Y0158467D01*
X0078311Y0158581D01*
X0078394Y0158693D01*
X0078481Y0158803D01*
X0078571Y0158911D01*
X0078663Y0159015D01*
X0078759Y0159117D01*
X0078858Y0159217D01*
X0078959Y0159313D01*
X0079063Y0159407D01*
X0079170Y0159497D01*
X0079279Y0159584D01*
X0079391Y0159669D01*
X0079505Y0159750D01*
X0079621Y0159828D01*
X0079739Y0159902D01*
X0079860Y0159973D01*
X0079982Y0160041D01*
X0080107Y0160105D01*
X0080233Y0160166D01*
X0080360Y0160223D01*
X0080490Y0160276D01*
X0080621Y0160326D01*
X0080753Y0160371D01*
X0080886Y0160414D01*
X0081021Y0160452D01*
X0081156Y0160486D01*
X0081293Y0160517D01*
X0081430Y0160544D01*
X0081568Y0160566D01*
X0081707Y0160585D01*
X0081846Y0160600D01*
X0081985Y0160611D01*
X0082125Y0160618D01*
X0082265Y0160621D01*
X0082405Y0160620D01*
X0082545Y0160615D01*
X0082684Y0160606D01*
X0082824Y0160593D01*
X0082963Y0160576D01*
X0083101Y0160555D01*
X0083239Y0160531D01*
X0083376Y0160502D01*
X0083512Y0160470D01*
X0083647Y0160433D01*
X0083781Y0160393D01*
X0083914Y0160349D01*
X0084045Y0160301D01*
X0084175Y0160250D01*
X0084304Y0160195D01*
X0084431Y0160136D01*
X0084556Y0160073D01*
X0084679Y0160008D01*
X0084801Y0159938D01*
X0084920Y0159865D01*
X0085038Y0159789D01*
X0085153Y0159710D01*
X0085266Y0159627D01*
X0085376Y0159541D01*
X0085484Y0159452D01*
X0085589Y0159360D01*
X0085692Y0159265D01*
X0085792Y0159167D01*
X0085889Y0159067D01*
X0085983Y0158963D01*
X0086075Y0158857D01*
X0086163Y0158749D01*
X0086248Y0158638D01*
X0086330Y0158524D01*
X0086409Y0158408D01*
X0086484Y0158291D01*
X0086556Y0158171D01*
X0086624Y0158049D01*
X0086689Y0157925D01*
X0086751Y0157799D01*
X0086809Y0157672D01*
X0086863Y0157543D01*
X0086914Y0157412D01*
X0086960Y0157280D01*
X0087003Y0157147D01*
X0087043Y0157013D01*
X0087078Y0156878D01*
X0087110Y0156741D01*
X0087137Y0156604D01*
X0087161Y0156466D01*
X0087181Y0156328D01*
X0087197Y0156189D01*
X0087209Y0156049D01*
X0087217Y0155910D01*
X0087221Y0155770D01*
X0087221Y0155630D01*
X0087217Y0155490D01*
X0087209Y0155351D01*
X0087197Y0155211D01*
X0087181Y0155072D01*
X0087161Y0154934D01*
X0087137Y0154796D01*
X0087110Y0154659D01*
X0087078Y0154522D01*
X0087043Y0154387D01*
X0087003Y0154253D01*
X0086960Y0154120D01*
X0086914Y0153988D01*
X0086863Y0153857D01*
X0086809Y0153728D01*
X0086751Y0153601D01*
X0086689Y0153475D01*
X0086624Y0153351D01*
X0086556Y0153229D01*
X0086484Y0153109D01*
X0086409Y0152992D01*
X0086330Y0152876D01*
X0086248Y0152762D01*
X0086163Y0152651D01*
X0086075Y0152543D01*
X0085983Y0152437D01*
X0085889Y0152333D01*
X0085792Y0152233D01*
X0085692Y0152135D01*
X0085589Y0152040D01*
X0085484Y0151948D01*
X0085376Y0151859D01*
X0085266Y0151773D01*
X0085153Y0151690D01*
X0085038Y0151611D01*
X0084920Y0151535D01*
X0084801Y0151462D01*
X0084679Y0151392D01*
X0084556Y0151327D01*
X0084431Y0151264D01*
X0084304Y0151205D01*
X0084175Y0151150D01*
X0084045Y0151099D01*
X0083914Y0151051D01*
X0083781Y0151007D01*
X0083647Y0150967D01*
X0083512Y0150930D01*
X0083376Y0150898D01*
X0083239Y0150869D01*
X0083101Y0150845D01*
X0082963Y0150824D01*
X0082824Y0150807D01*
X0082684Y0150794D01*
X0082545Y0150785D01*
X0082405Y0150780D01*
X0082265Y0150779D01*
X0082125Y0150782D01*
X0081985Y0150789D01*
X0081846Y0150800D01*
X0081707Y0150815D01*
X0081568Y0150834D01*
X0081430Y0150856D01*
X0081293Y0150883D01*
X0081156Y0150914D01*
X0081021Y0150948D01*
X0080886Y0150986D01*
X0080753Y0151029D01*
X0080621Y0151074D01*
X0080490Y0151124D01*
X0080360Y0151177D01*
X0080233Y0151234D01*
X0080107Y0151295D01*
X0079982Y0151359D01*
X0079860Y0151427D01*
X0079739Y0151498D01*
X0079621Y0151572D01*
X0079505Y0151650D01*
X0079391Y0151731D01*
X0079279Y0151816D01*
X0079170Y0151903D01*
X0079063Y0151993D01*
X0078959Y0152087D01*
X0078858Y0152183D01*
X0078759Y0152283D01*
X0078663Y0152385D01*
X0078571Y0152489D01*
X0078481Y0152597D01*
X0078394Y0152707D01*
X0078311Y0152819D01*
X0078230Y0152933D01*
X0078153Y0153050D01*
X0078080Y0153169D01*
X0078009Y0153290D01*
X0077943Y0153413D01*
X0077879Y0153538D01*
X0077820Y0153664D01*
X0077764Y0153793D01*
X0077711Y0153922D01*
X0077663Y0154053D01*
X0077618Y0154186D01*
X0077577Y0154320D01*
X0077539Y0154455D01*
X0077506Y0154590D01*
X0077476Y0154727D01*
X0077450Y0154865D01*
X0077429Y0155003D01*
X0077411Y0155142D01*
X0077397Y0155281D01*
X0077387Y0155420D01*
X0077381Y0155560D01*
X0077379Y0155700D01*
X0069756Y0188205D02*
X0067488Y0188205D01*
X0069756Y0190473D01*
X0069756Y0191040D01*
X0069189Y0191608D01*
X0068055Y0191608D01*
X0067488Y0191040D01*
X0066073Y0191608D02*
X0063805Y0191608D01*
X0064939Y0191608D02*
X0064939Y0188205D01*
X0089600Y0195903D02*
X0091869Y0195903D01*
X0090734Y0195903D02*
X0090734Y0192500D01*
X0093283Y0192500D02*
X0093283Y0195903D01*
X0094985Y0195903D01*
X0095552Y0195336D01*
X0095552Y0194201D01*
X0094985Y0193634D01*
X0093283Y0193634D01*
X0096966Y0192500D02*
X0099235Y0192500D01*
X0098101Y0192500D02*
X0098101Y0195903D01*
X0096966Y0194769D01*
X0100649Y0194769D02*
X0101784Y0195903D01*
X0101784Y0192500D01*
X0102918Y0192500D02*
X0100649Y0192500D01*
X0111100Y0192500D02*
X0111100Y0195903D01*
X0112801Y0195903D01*
X0113369Y0195336D01*
X0113369Y0194201D01*
X0112801Y0193634D01*
X0111100Y0193634D01*
X0112234Y0193634D02*
X0113369Y0192500D01*
X0114783Y0192500D02*
X0117052Y0194769D01*
X0117052Y0195336D01*
X0116485Y0195903D01*
X0115350Y0195903D01*
X0114783Y0195336D01*
X0114783Y0192500D02*
X0117052Y0192500D01*
X0118466Y0193067D02*
X0120735Y0195336D01*
X0120735Y0193067D01*
X0120168Y0192500D01*
X0119033Y0192500D01*
X0118466Y0193067D01*
X0118466Y0195336D01*
X0119033Y0195903D01*
X0120168Y0195903D01*
X0120735Y0195336D01*
X0132600Y0193903D02*
X0134869Y0193903D01*
X0133734Y0193903D02*
X0133734Y0190500D01*
X0136283Y0190500D02*
X0136283Y0193903D01*
X0137985Y0193903D01*
X0138552Y0193336D01*
X0138552Y0192201D01*
X0137985Y0191634D01*
X0136283Y0191634D01*
X0139966Y0190500D02*
X0142235Y0190500D01*
X0141101Y0190500D02*
X0141101Y0193903D01*
X0139966Y0192769D01*
X0143649Y0193336D02*
X0144217Y0193903D01*
X0145351Y0193903D01*
X0145918Y0193336D01*
X0143649Y0191067D01*
X0144217Y0190500D01*
X0145351Y0190500D01*
X0145918Y0191067D01*
X0145918Y0193336D01*
X0143649Y0193336D02*
X0143649Y0191067D01*
X0156600Y0201000D02*
X0156600Y0204403D01*
X0158301Y0204403D01*
X0158869Y0203836D01*
X0158869Y0202701D01*
X0158301Y0202134D01*
X0156600Y0202134D01*
X0157734Y0202134D02*
X0158869Y0201000D01*
X0160283Y0201000D02*
X0162552Y0201000D01*
X0161417Y0201000D02*
X0161417Y0204403D01*
X0160283Y0203269D01*
X0163966Y0203836D02*
X0164533Y0204403D01*
X0165668Y0204403D01*
X0166235Y0203836D01*
X0166235Y0203269D01*
X0165668Y0202701D01*
X0166235Y0202134D01*
X0166235Y0201567D01*
X0165668Y0201000D01*
X0164533Y0201000D01*
X0163966Y0201567D01*
X0165101Y0202701D02*
X0165668Y0202701D01*
X0167167Y0192903D02*
X0166600Y0192336D01*
X0166600Y0190067D01*
X0167167Y0189500D01*
X0168301Y0189500D01*
X0168869Y0190067D01*
X0170283Y0189500D02*
X0172552Y0191769D01*
X0172552Y0192336D01*
X0171985Y0192903D01*
X0170850Y0192903D01*
X0170283Y0192336D01*
X0168869Y0192336D02*
X0168301Y0192903D01*
X0167167Y0192903D01*
X0170283Y0189500D02*
X0172552Y0189500D01*
X0186000Y0189903D02*
X0186000Y0187067D01*
X0186567Y0186500D01*
X0187701Y0186500D01*
X0188269Y0187067D01*
X0188269Y0189903D01*
X0189683Y0189903D02*
X0189683Y0188201D01*
X0190817Y0188769D01*
X0191385Y0188769D01*
X0191952Y0188201D01*
X0191952Y0187067D01*
X0191385Y0186500D01*
X0190250Y0186500D01*
X0189683Y0187067D01*
X0189683Y0189903D02*
X0191952Y0189903D01*
X0189900Y0193400D02*
X0187700Y0193400D01*
X0188300Y0194500D02*
X0188363Y0194527D01*
X0188428Y0194550D01*
X0188494Y0194570D01*
X0188561Y0194585D01*
X0188629Y0194597D01*
X0188697Y0194605D01*
X0188766Y0194609D01*
X0188834Y0194609D01*
X0188903Y0194605D01*
X0188971Y0194597D01*
X0189039Y0194585D01*
X0189106Y0194570D01*
X0189172Y0194550D01*
X0189237Y0194527D01*
X0189300Y0194500D01*
X0189900Y0202000D02*
X0187700Y0202000D01*
X0183783Y0209500D02*
X0183783Y0210067D01*
X0186052Y0212336D01*
X0186052Y0212903D01*
X0183783Y0212903D01*
X0182369Y0212336D02*
X0181801Y0212903D01*
X0180667Y0212903D01*
X0180100Y0212336D01*
X0180100Y0210067D01*
X0180667Y0209500D01*
X0181801Y0209500D01*
X0182369Y0210067D01*
X0177052Y0214567D02*
X0177052Y0216836D01*
X0176485Y0217403D01*
X0175350Y0217403D01*
X0174783Y0216836D01*
X0174783Y0216269D01*
X0175350Y0215701D01*
X0177052Y0215701D01*
X0177052Y0214567D02*
X0176485Y0214000D01*
X0175350Y0214000D01*
X0174783Y0214567D01*
X0173369Y0214000D02*
X0172234Y0215134D01*
X0172801Y0215134D02*
X0171100Y0215134D01*
X0171100Y0214000D02*
X0171100Y0217403D01*
X0172801Y0217403D01*
X0173369Y0216836D01*
X0173369Y0215701D01*
X0172801Y0215134D01*
X0173369Y0222000D02*
X0172234Y0223134D01*
X0172801Y0223134D02*
X0171100Y0223134D01*
X0171100Y0222000D02*
X0171100Y0225403D01*
X0172801Y0225403D01*
X0173369Y0224836D01*
X0173369Y0223701D01*
X0172801Y0223134D01*
X0174783Y0222000D02*
X0177052Y0222000D01*
X0175917Y0222000D02*
X0175917Y0225403D01*
X0174783Y0224269D01*
X0178466Y0224836D02*
X0178466Y0222567D01*
X0180735Y0224836D01*
X0180735Y0222567D01*
X0180168Y0222000D01*
X0179033Y0222000D01*
X0178466Y0222567D01*
X0178466Y0224836D02*
X0179033Y0225403D01*
X0180168Y0225403D01*
X0180735Y0224836D01*
X0176485Y0230000D02*
X0177052Y0230567D01*
X0177052Y0231134D01*
X0176485Y0231701D01*
X0175350Y0231701D01*
X0174783Y0232269D01*
X0174783Y0232836D01*
X0175350Y0233403D01*
X0176485Y0233403D01*
X0177052Y0232836D01*
X0177052Y0232269D01*
X0176485Y0231701D01*
X0175350Y0231701D02*
X0174783Y0231134D01*
X0174783Y0230567D01*
X0175350Y0230000D01*
X0176485Y0230000D01*
X0173369Y0230567D02*
X0172801Y0230000D01*
X0171667Y0230000D01*
X0171100Y0230567D01*
X0171100Y0232836D01*
X0171667Y0233403D01*
X0172801Y0233403D01*
X0173369Y0232836D01*
X0172783Y0238000D02*
X0172783Y0241403D01*
X0174485Y0241403D01*
X0175052Y0240836D01*
X0175052Y0239701D01*
X0174485Y0239134D01*
X0172783Y0239134D01*
X0171369Y0241403D02*
X0169100Y0241403D01*
X0170234Y0241403D02*
X0170234Y0238000D01*
X0176466Y0238000D02*
X0178735Y0238000D01*
X0177601Y0238000D02*
X0177601Y0241403D01*
X0176466Y0240269D01*
X0180149Y0240836D02*
X0180717Y0241403D01*
X0181851Y0241403D01*
X0182418Y0240836D01*
X0182418Y0240269D01*
X0181851Y0239701D01*
X0182418Y0239134D01*
X0182418Y0238567D01*
X0181851Y0238000D01*
X0180717Y0238000D01*
X0180149Y0238567D01*
X0181284Y0239701D02*
X0181851Y0239701D01*
X0159595Y0254700D02*
X0159595Y0276200D01*
X0163095Y0282700D02*
X0173095Y0282700D01*
X0172595Y0283700D02*
X0172508Y0283702D01*
X0172421Y0283708D01*
X0172334Y0283717D01*
X0172248Y0283730D01*
X0172162Y0283747D01*
X0172077Y0283768D01*
X0171994Y0283793D01*
X0171911Y0283821D01*
X0171830Y0283852D01*
X0171750Y0283887D01*
X0171672Y0283926D01*
X0171595Y0283968D01*
X0171520Y0284013D01*
X0171448Y0284062D01*
X0171377Y0284113D01*
X0171309Y0284168D01*
X0171244Y0284225D01*
X0171181Y0284286D01*
X0171120Y0284349D01*
X0171063Y0284414D01*
X0171008Y0284482D01*
X0170957Y0284553D01*
X0170908Y0284625D01*
X0170863Y0284700D01*
X0170821Y0284777D01*
X0170782Y0284855D01*
X0170747Y0284935D01*
X0170716Y0285016D01*
X0170688Y0285099D01*
X0170663Y0285182D01*
X0170642Y0285267D01*
X0170625Y0285353D01*
X0170612Y0285439D01*
X0170603Y0285526D01*
X0170597Y0285613D01*
X0170595Y0285700D01*
X0162595Y0285700D01*
X0164095Y0288200D02*
X0164095Y0293700D01*
X0166095Y0298200D02*
X0166095Y0288200D01*
X0168095Y0288200D02*
X0168095Y0304700D01*
X0170595Y0307200D02*
X0170593Y0307287D01*
X0170587Y0307374D01*
X0170578Y0307461D01*
X0170565Y0307547D01*
X0170548Y0307633D01*
X0170527Y0307718D01*
X0170502Y0307801D01*
X0170474Y0307884D01*
X0170443Y0307965D01*
X0170408Y0308045D01*
X0170369Y0308123D01*
X0170327Y0308200D01*
X0170282Y0308275D01*
X0170233Y0308347D01*
X0170182Y0308418D01*
X0170127Y0308486D01*
X0170070Y0308551D01*
X0170009Y0308614D01*
X0169946Y0308675D01*
X0169881Y0308732D01*
X0169813Y0308787D01*
X0169742Y0308838D01*
X0169670Y0308887D01*
X0169595Y0308932D01*
X0169518Y0308974D01*
X0169440Y0309013D01*
X0169360Y0309048D01*
X0169279Y0309079D01*
X0169196Y0309107D01*
X0169113Y0309132D01*
X0169028Y0309153D01*
X0168942Y0309170D01*
X0168856Y0309183D01*
X0168769Y0309192D01*
X0168682Y0309198D01*
X0168595Y0309200D01*
X0166095Y0309200D01*
X0166095Y0309700D01*
X0142095Y0309700D01*
X0142095Y0309200D01*
X0166095Y0309200D01*
X0169095Y0307200D02*
X0139095Y0307200D01*
X0137595Y0307200D02*
X0137597Y0307287D01*
X0137603Y0307374D01*
X0137612Y0307461D01*
X0137625Y0307547D01*
X0137642Y0307633D01*
X0137663Y0307718D01*
X0137688Y0307801D01*
X0137716Y0307884D01*
X0137747Y0307965D01*
X0137782Y0308045D01*
X0137821Y0308123D01*
X0137863Y0308200D01*
X0137908Y0308275D01*
X0137957Y0308347D01*
X0138008Y0308418D01*
X0138063Y0308486D01*
X0138120Y0308551D01*
X0138181Y0308614D01*
X0138244Y0308675D01*
X0138309Y0308732D01*
X0138377Y0308787D01*
X0138448Y0308838D01*
X0138520Y0308887D01*
X0138595Y0308932D01*
X0138672Y0308974D01*
X0138750Y0309013D01*
X0138830Y0309048D01*
X0138911Y0309079D01*
X0138994Y0309107D01*
X0139077Y0309132D01*
X0139162Y0309153D01*
X0139248Y0309170D01*
X0139334Y0309183D01*
X0139421Y0309192D01*
X0139508Y0309198D01*
X0139595Y0309200D01*
X0142095Y0309200D01*
X0137595Y0307200D02*
X0137595Y0285700D01*
X0145595Y0285700D01*
X0144095Y0288200D02*
X0144095Y0293700D01*
X0142095Y0298200D02*
X0142095Y0288200D01*
X0140095Y0288200D02*
X0140095Y0304700D01*
X0137595Y0285700D02*
X0137593Y0285613D01*
X0137587Y0285526D01*
X0137578Y0285439D01*
X0137565Y0285353D01*
X0137548Y0285267D01*
X0137527Y0285182D01*
X0137502Y0285099D01*
X0137474Y0285016D01*
X0137443Y0284935D01*
X0137408Y0284855D01*
X0137369Y0284777D01*
X0137327Y0284700D01*
X0137282Y0284625D01*
X0137233Y0284553D01*
X0137182Y0284482D01*
X0137127Y0284414D01*
X0137070Y0284349D01*
X0137009Y0284286D01*
X0136946Y0284225D01*
X0136881Y0284168D01*
X0136813Y0284113D01*
X0136742Y0284062D01*
X0136670Y0284013D01*
X0136595Y0283968D01*
X0136518Y0283926D01*
X0136440Y0283887D01*
X0136360Y0283852D01*
X0136279Y0283821D01*
X0136196Y0283793D01*
X0136113Y0283768D01*
X0136028Y0283747D01*
X0135942Y0283730D01*
X0135856Y0283717D01*
X0135769Y0283708D01*
X0135682Y0283702D01*
X0135595Y0283700D01*
X0135095Y0282700D02*
X0145095Y0282700D01*
X0148595Y0276200D02*
X0148595Y0254700D01*
X0132168Y0230403D02*
X0131033Y0230403D01*
X0130466Y0229836D01*
X0132168Y0230403D02*
X0132735Y0229836D01*
X0132735Y0229269D01*
X0130466Y0227000D01*
X0132735Y0227000D01*
X0129052Y0227000D02*
X0126783Y0227000D01*
X0127917Y0227000D02*
X0127917Y0230403D01*
X0126783Y0229269D01*
X0125369Y0229836D02*
X0124801Y0230403D01*
X0123667Y0230403D01*
X0123100Y0229836D01*
X0123100Y0227567D01*
X0123667Y0227000D01*
X0124801Y0227000D01*
X0125369Y0227567D01*
X0127067Y0217300D02*
X0129336Y0215031D01*
X0128201Y0215031D02*
X0128201Y0217300D01*
X0129336Y0217300D02*
X0127067Y0215031D01*
X0127067Y0216166D02*
X0129336Y0216166D01*
X0129000Y0212903D02*
X0129000Y0210067D01*
X0129567Y0209500D01*
X0130701Y0209500D01*
X0131269Y0210067D01*
X0131269Y0212903D01*
X0132683Y0212336D02*
X0133250Y0212903D01*
X0134385Y0212903D01*
X0134952Y0212336D01*
X0134952Y0211769D01*
X0132683Y0209500D01*
X0134952Y0209500D01*
X0126700Y0209300D02*
X0126700Y0210000D01*
X0126700Y0212400D01*
X0126700Y0213100D01*
X0126700Y0212400D02*
X0126631Y0212398D01*
X0126563Y0212392D01*
X0126495Y0212382D01*
X0126428Y0212369D01*
X0126362Y0212351D01*
X0126297Y0212330D01*
X0126233Y0212305D01*
X0126171Y0212277D01*
X0126110Y0212245D01*
X0126051Y0212210D01*
X0125995Y0212171D01*
X0125940Y0212129D01*
X0125889Y0212084D01*
X0125839Y0212036D01*
X0125793Y0211986D01*
X0125750Y0211933D01*
X0125709Y0211877D01*
X0125672Y0211820D01*
X0125639Y0211760D01*
X0125608Y0211698D01*
X0125582Y0211635D01*
X0125559Y0211571D01*
X0125539Y0211505D01*
X0125524Y0211438D01*
X0125512Y0211371D01*
X0125504Y0211303D01*
X0125500Y0211234D01*
X0125500Y0211166D01*
X0125504Y0211097D01*
X0125512Y0211029D01*
X0125524Y0210962D01*
X0125539Y0210895D01*
X0125559Y0210829D01*
X0125582Y0210765D01*
X0125608Y0210702D01*
X0125639Y0210640D01*
X0125672Y0210580D01*
X0125709Y0210523D01*
X0125750Y0210467D01*
X0125793Y0210414D01*
X0125839Y0210364D01*
X0125889Y0210316D01*
X0125940Y0210271D01*
X0125995Y0210229D01*
X0126051Y0210190D01*
X0126110Y0210155D01*
X0126171Y0210123D01*
X0126233Y0210095D01*
X0126297Y0210070D01*
X0126362Y0210049D01*
X0126428Y0210031D01*
X0126495Y0210018D01*
X0126563Y0210008D01*
X0126631Y0210002D01*
X0126700Y0210000D01*
X0122100Y0207900D02*
X0119500Y0207900D01*
X0114900Y0209300D02*
X0114900Y0213100D01*
X0099135Y0215467D02*
X0098568Y0214900D01*
X0097433Y0214900D01*
X0096866Y0215467D01*
X0096866Y0216034D01*
X0097433Y0216601D01*
X0098568Y0216601D01*
X0099135Y0216034D01*
X0099135Y0215467D01*
X0098568Y0216601D02*
X0099135Y0217169D01*
X0099135Y0217736D01*
X0098568Y0218303D01*
X0097433Y0218303D01*
X0096866Y0217736D01*
X0096866Y0217169D01*
X0097433Y0216601D01*
X0095452Y0214900D02*
X0093183Y0214900D01*
X0094317Y0214900D02*
X0094317Y0218303D01*
X0093183Y0217169D01*
X0091769Y0217736D02*
X0091769Y0216601D01*
X0091201Y0216034D01*
X0089500Y0216034D01*
X0089500Y0214900D02*
X0089500Y0218303D01*
X0091201Y0218303D01*
X0091769Y0217736D01*
X0090634Y0216034D02*
X0091769Y0214900D01*
X0091101Y0208203D02*
X0091669Y0207636D01*
X0091669Y0206501D01*
X0091101Y0205934D01*
X0089400Y0205934D01*
X0089400Y0204800D02*
X0089400Y0208203D01*
X0091101Y0208203D01*
X0093083Y0207069D02*
X0094217Y0208203D01*
X0094217Y0204800D01*
X0093083Y0204800D02*
X0095352Y0204800D01*
X0096766Y0204800D02*
X0099035Y0207069D01*
X0099035Y0207636D01*
X0098468Y0208203D01*
X0097333Y0208203D01*
X0096766Y0207636D01*
X0096766Y0204800D02*
X0099035Y0204800D01*
X0091669Y0204800D02*
X0090534Y0205934D01*
X0100734Y0230000D02*
X0100734Y0233403D01*
X0099600Y0233403D02*
X0101869Y0233403D01*
X0103283Y0233403D02*
X0104985Y0233403D01*
X0105552Y0232836D01*
X0105552Y0231701D01*
X0104985Y0231134D01*
X0103283Y0231134D01*
X0103283Y0230000D02*
X0103283Y0233403D01*
X0106966Y0232269D02*
X0108101Y0233403D01*
X0108101Y0230000D01*
X0109235Y0230000D02*
X0106966Y0230000D01*
X0110649Y0230000D02*
X0112918Y0232269D01*
X0112918Y0232836D01*
X0112351Y0233403D01*
X0111217Y0233403D01*
X0110649Y0232836D01*
X0110649Y0230000D02*
X0112918Y0230000D01*
X0080855Y0254700D02*
X0080855Y0276200D01*
X0084355Y0282700D02*
X0094355Y0282700D01*
X0093855Y0283700D02*
X0093768Y0283702D01*
X0093681Y0283708D01*
X0093594Y0283717D01*
X0093508Y0283730D01*
X0093422Y0283747D01*
X0093337Y0283768D01*
X0093254Y0283793D01*
X0093171Y0283821D01*
X0093090Y0283852D01*
X0093010Y0283887D01*
X0092932Y0283926D01*
X0092855Y0283968D01*
X0092780Y0284013D01*
X0092708Y0284062D01*
X0092637Y0284113D01*
X0092569Y0284168D01*
X0092504Y0284225D01*
X0092441Y0284286D01*
X0092380Y0284349D01*
X0092323Y0284414D01*
X0092268Y0284482D01*
X0092217Y0284553D01*
X0092168Y0284625D01*
X0092123Y0284700D01*
X0092081Y0284777D01*
X0092042Y0284855D01*
X0092007Y0284935D01*
X0091976Y0285016D01*
X0091948Y0285099D01*
X0091923Y0285182D01*
X0091902Y0285267D01*
X0091885Y0285353D01*
X0091872Y0285439D01*
X0091863Y0285526D01*
X0091857Y0285613D01*
X0091855Y0285700D01*
X0083855Y0285700D01*
X0085355Y0288200D02*
X0085355Y0293700D01*
X0087355Y0298200D02*
X0087355Y0288200D01*
X0089355Y0288200D02*
X0089355Y0304700D01*
X0091855Y0307200D02*
X0091853Y0307287D01*
X0091847Y0307374D01*
X0091838Y0307461D01*
X0091825Y0307547D01*
X0091808Y0307633D01*
X0091787Y0307718D01*
X0091762Y0307801D01*
X0091734Y0307884D01*
X0091703Y0307965D01*
X0091668Y0308045D01*
X0091629Y0308123D01*
X0091587Y0308200D01*
X0091542Y0308275D01*
X0091493Y0308347D01*
X0091442Y0308418D01*
X0091387Y0308486D01*
X0091330Y0308551D01*
X0091269Y0308614D01*
X0091206Y0308675D01*
X0091141Y0308732D01*
X0091073Y0308787D01*
X0091002Y0308838D01*
X0090930Y0308887D01*
X0090855Y0308932D01*
X0090778Y0308974D01*
X0090700Y0309013D01*
X0090620Y0309048D01*
X0090539Y0309079D01*
X0090456Y0309107D01*
X0090373Y0309132D01*
X0090288Y0309153D01*
X0090202Y0309170D01*
X0090116Y0309183D01*
X0090029Y0309192D01*
X0089942Y0309198D01*
X0089855Y0309200D01*
X0087355Y0309200D01*
X0087355Y0309700D01*
X0063355Y0309700D01*
X0063355Y0309200D01*
X0087355Y0309200D01*
X0090355Y0307200D02*
X0060355Y0307200D01*
X0058855Y0307200D02*
X0058857Y0307287D01*
X0058863Y0307374D01*
X0058872Y0307461D01*
X0058885Y0307547D01*
X0058902Y0307633D01*
X0058923Y0307718D01*
X0058948Y0307801D01*
X0058976Y0307884D01*
X0059007Y0307965D01*
X0059042Y0308045D01*
X0059081Y0308123D01*
X0059123Y0308200D01*
X0059168Y0308275D01*
X0059217Y0308347D01*
X0059268Y0308418D01*
X0059323Y0308486D01*
X0059380Y0308551D01*
X0059441Y0308614D01*
X0059504Y0308675D01*
X0059569Y0308732D01*
X0059637Y0308787D01*
X0059708Y0308838D01*
X0059780Y0308887D01*
X0059855Y0308932D01*
X0059932Y0308974D01*
X0060010Y0309013D01*
X0060090Y0309048D01*
X0060171Y0309079D01*
X0060254Y0309107D01*
X0060337Y0309132D01*
X0060422Y0309153D01*
X0060508Y0309170D01*
X0060594Y0309183D01*
X0060681Y0309192D01*
X0060768Y0309198D01*
X0060855Y0309200D01*
X0063355Y0309200D01*
X0058855Y0307200D02*
X0058855Y0285700D01*
X0066855Y0285700D01*
X0065355Y0288200D02*
X0065355Y0293700D01*
X0063355Y0298200D02*
X0063355Y0288200D01*
X0061355Y0288200D02*
X0061355Y0304700D01*
X0058855Y0285700D02*
X0058853Y0285613D01*
X0058847Y0285526D01*
X0058838Y0285439D01*
X0058825Y0285353D01*
X0058808Y0285267D01*
X0058787Y0285182D01*
X0058762Y0285099D01*
X0058734Y0285016D01*
X0058703Y0284935D01*
X0058668Y0284855D01*
X0058629Y0284777D01*
X0058587Y0284700D01*
X0058542Y0284625D01*
X0058493Y0284553D01*
X0058442Y0284482D01*
X0058387Y0284414D01*
X0058330Y0284349D01*
X0058269Y0284286D01*
X0058206Y0284225D01*
X0058141Y0284168D01*
X0058073Y0284113D01*
X0058002Y0284062D01*
X0057930Y0284013D01*
X0057855Y0283968D01*
X0057778Y0283926D01*
X0057700Y0283887D01*
X0057620Y0283852D01*
X0057539Y0283821D01*
X0057456Y0283793D01*
X0057373Y0283768D01*
X0057288Y0283747D01*
X0057202Y0283730D01*
X0057116Y0283717D01*
X0057029Y0283708D01*
X0056942Y0283702D01*
X0056855Y0283700D01*
X0056355Y0282700D02*
X0066355Y0282700D01*
X0069855Y0276200D02*
X0069855Y0254700D01*
X0091855Y0285700D02*
X0091855Y0307200D01*
X0170595Y0307200D02*
X0170595Y0285700D01*
X0225317Y0225856D02*
X0227585Y0225856D01*
X0229000Y0225856D02*
X0230701Y0225856D01*
X0231268Y0225289D01*
X0231268Y0224721D01*
X0230701Y0224154D01*
X0229000Y0224154D01*
X0230701Y0224154D02*
X0231268Y0223587D01*
X0231268Y0223020D01*
X0230701Y0222453D01*
X0229000Y0222453D01*
X0229000Y0225856D01*
X0226451Y0224154D02*
X0225317Y0224154D01*
X0225317Y0222453D02*
X0225317Y0225856D01*
X0232683Y0225289D02*
X0233250Y0225856D01*
X0234384Y0225856D01*
X0234951Y0225289D01*
X0234951Y0224721D01*
X0232683Y0222453D01*
X0234951Y0222453D01*
X0229917Y0214403D02*
X0228783Y0213269D01*
X0227369Y0213836D02*
X0226801Y0214403D01*
X0225667Y0214403D01*
X0225100Y0213836D01*
X0225100Y0211567D01*
X0225667Y0211000D01*
X0226801Y0211000D01*
X0227369Y0211567D01*
X0228783Y0211000D02*
X0231052Y0211000D01*
X0229917Y0211000D02*
X0229917Y0214403D01*
X0244500Y0208903D02*
X0244500Y0206067D01*
X0245067Y0205500D01*
X0246201Y0205500D01*
X0246769Y0206067D01*
X0246769Y0208903D01*
X0248183Y0207201D02*
X0250452Y0207201D01*
X0249885Y0205500D02*
X0249885Y0208903D01*
X0248183Y0207201D01*
X0247900Y0212900D02*
X0245700Y0212900D01*
X0246300Y0214000D02*
X0246363Y0214027D01*
X0246428Y0214050D01*
X0246494Y0214070D01*
X0246561Y0214085D01*
X0246629Y0214097D01*
X0246697Y0214105D01*
X0246766Y0214109D01*
X0246834Y0214109D01*
X0246903Y0214105D01*
X0246971Y0214097D01*
X0247039Y0214085D01*
X0247106Y0214070D01*
X0247172Y0214050D01*
X0247237Y0214027D01*
X0247300Y0214000D01*
X0254100Y0211336D02*
X0254100Y0209067D01*
X0254667Y0208500D01*
X0255801Y0208500D01*
X0256369Y0209067D01*
X0257783Y0208500D02*
X0260052Y0208500D01*
X0261466Y0208500D02*
X0261466Y0211903D01*
X0262033Y0210201D02*
X0263735Y0208500D01*
X0265149Y0209067D02*
X0267418Y0211336D01*
X0267418Y0209067D01*
X0266851Y0208500D01*
X0265717Y0208500D01*
X0265149Y0209067D01*
X0265149Y0211336D01*
X0265717Y0211903D01*
X0266851Y0211903D01*
X0267418Y0211336D01*
X0263735Y0211903D02*
X0261466Y0209634D01*
X0257783Y0208500D02*
X0257783Y0211903D01*
X0256369Y0211336D02*
X0255801Y0211903D01*
X0254667Y0211903D01*
X0254100Y0211336D01*
X0254667Y0218700D02*
X0255801Y0218700D01*
X0256369Y0219267D01*
X0256369Y0221536D01*
X0255801Y0222103D01*
X0254667Y0222103D01*
X0254100Y0221536D01*
X0254100Y0219267D01*
X0254667Y0218700D01*
X0257783Y0219267D02*
X0257783Y0222103D01*
X0260052Y0222103D02*
X0260052Y0219267D01*
X0259485Y0218700D01*
X0258350Y0218700D01*
X0257783Y0219267D01*
X0261466Y0222103D02*
X0263735Y0222103D01*
X0262601Y0222103D02*
X0262601Y0218700D01*
X0265149Y0219267D02*
X0267418Y0221536D01*
X0267418Y0219267D01*
X0266851Y0218700D01*
X0265717Y0218700D01*
X0265149Y0219267D01*
X0265149Y0221536D01*
X0265717Y0222103D01*
X0266851Y0222103D01*
X0267418Y0221536D01*
X0272400Y0225733D02*
X0272967Y0225165D01*
X0273534Y0225165D01*
X0274101Y0225733D01*
X0274101Y0228568D01*
X0273534Y0228568D02*
X0274669Y0228568D01*
X0276083Y0228568D02*
X0276083Y0225165D01*
X0276083Y0226300D02*
X0277785Y0226300D01*
X0278352Y0226867D01*
X0278352Y0228001D01*
X0277785Y0228568D01*
X0276083Y0228568D01*
X0279766Y0228001D02*
X0280333Y0228568D01*
X0281468Y0228568D01*
X0282035Y0228001D01*
X0282035Y0227434D01*
X0279766Y0225165D01*
X0282035Y0225165D01*
X0289600Y0224865D02*
X0299600Y0224865D01*
X0299600Y0214865D01*
X0299600Y0204865D01*
X0299600Y0194865D01*
X0299600Y0184865D01*
X0299600Y0174865D01*
X0299600Y0164865D01*
X0289600Y0164865D01*
X0289600Y0174865D01*
X0299600Y0174865D01*
X0289600Y0174865D02*
X0289600Y0184865D01*
X0299600Y0184865D01*
X0289600Y0184865D02*
X0289600Y0194865D01*
X0299600Y0194865D01*
X0289600Y0194865D02*
X0289600Y0204865D01*
X0299600Y0204865D01*
X0289600Y0204865D02*
X0289600Y0214865D01*
X0299600Y0214865D01*
X0289600Y0214865D02*
X0289600Y0224865D01*
X0263735Y0229067D02*
X0263735Y0231336D01*
X0263168Y0231903D01*
X0262033Y0231903D01*
X0261466Y0231336D01*
X0261466Y0230769D01*
X0262033Y0230201D01*
X0263735Y0230201D01*
X0263735Y0229067D02*
X0263168Y0228500D01*
X0262033Y0228500D01*
X0261466Y0229067D01*
X0260052Y0230201D02*
X0259485Y0229634D01*
X0257783Y0229634D01*
X0257783Y0228500D02*
X0257783Y0231903D01*
X0259485Y0231903D01*
X0260052Y0231336D01*
X0260052Y0230201D01*
X0256369Y0231903D02*
X0254100Y0231903D01*
X0255234Y0231903D02*
X0255234Y0228500D01*
X0247900Y0221500D02*
X0245700Y0221500D01*
X0246235Y0234000D02*
X0243966Y0234000D01*
X0245101Y0234000D02*
X0245101Y0237403D01*
X0243966Y0236269D01*
X0242552Y0234000D02*
X0240283Y0234000D01*
X0241417Y0234000D02*
X0241417Y0237403D01*
X0240283Y0236269D01*
X0238869Y0236836D02*
X0238301Y0237403D01*
X0237167Y0237403D01*
X0236600Y0236836D01*
X0236600Y0234567D01*
X0237167Y0234000D01*
X0238301Y0234000D01*
X0238869Y0234567D01*
X0262100Y0256567D02*
X0262100Y0258836D01*
X0262667Y0259403D01*
X0263801Y0259403D01*
X0264369Y0258836D01*
X0264369Y0257701D02*
X0263234Y0257701D01*
X0264369Y0257701D02*
X0264369Y0256567D01*
X0263801Y0256000D01*
X0262667Y0256000D01*
X0262100Y0256567D01*
X0265783Y0256000D02*
X0265783Y0259403D01*
X0268052Y0256000D01*
X0268052Y0259403D01*
X0269466Y0259403D02*
X0269466Y0256000D01*
X0271168Y0256000D01*
X0271735Y0256567D01*
X0271735Y0258836D01*
X0271168Y0259403D01*
X0269466Y0259403D01*
X0261379Y0249700D02*
X0261381Y0249840D01*
X0261387Y0249980D01*
X0261397Y0250119D01*
X0261411Y0250258D01*
X0261429Y0250397D01*
X0261450Y0250535D01*
X0261476Y0250673D01*
X0261506Y0250810D01*
X0261539Y0250945D01*
X0261577Y0251080D01*
X0261618Y0251214D01*
X0261663Y0251347D01*
X0261711Y0251478D01*
X0261764Y0251607D01*
X0261820Y0251736D01*
X0261879Y0251862D01*
X0261943Y0251987D01*
X0262009Y0252110D01*
X0262080Y0252231D01*
X0262153Y0252350D01*
X0262230Y0252467D01*
X0262311Y0252581D01*
X0262394Y0252693D01*
X0262481Y0252803D01*
X0262571Y0252911D01*
X0262663Y0253015D01*
X0262759Y0253117D01*
X0262858Y0253217D01*
X0262959Y0253313D01*
X0263063Y0253407D01*
X0263170Y0253497D01*
X0263279Y0253584D01*
X0263391Y0253669D01*
X0263505Y0253750D01*
X0263621Y0253828D01*
X0263739Y0253902D01*
X0263860Y0253973D01*
X0263982Y0254041D01*
X0264107Y0254105D01*
X0264233Y0254166D01*
X0264360Y0254223D01*
X0264490Y0254276D01*
X0264621Y0254326D01*
X0264753Y0254371D01*
X0264886Y0254414D01*
X0265021Y0254452D01*
X0265156Y0254486D01*
X0265293Y0254517D01*
X0265430Y0254544D01*
X0265568Y0254566D01*
X0265707Y0254585D01*
X0265846Y0254600D01*
X0265985Y0254611D01*
X0266125Y0254618D01*
X0266265Y0254621D01*
X0266405Y0254620D01*
X0266545Y0254615D01*
X0266684Y0254606D01*
X0266824Y0254593D01*
X0266963Y0254576D01*
X0267101Y0254555D01*
X0267239Y0254531D01*
X0267376Y0254502D01*
X0267512Y0254470D01*
X0267647Y0254433D01*
X0267781Y0254393D01*
X0267914Y0254349D01*
X0268045Y0254301D01*
X0268175Y0254250D01*
X0268304Y0254195D01*
X0268431Y0254136D01*
X0268556Y0254073D01*
X0268679Y0254008D01*
X0268801Y0253938D01*
X0268920Y0253865D01*
X0269038Y0253789D01*
X0269153Y0253710D01*
X0269266Y0253627D01*
X0269376Y0253541D01*
X0269484Y0253452D01*
X0269589Y0253360D01*
X0269692Y0253265D01*
X0269792Y0253167D01*
X0269889Y0253067D01*
X0269983Y0252963D01*
X0270075Y0252857D01*
X0270163Y0252749D01*
X0270248Y0252638D01*
X0270330Y0252524D01*
X0270409Y0252408D01*
X0270484Y0252291D01*
X0270556Y0252171D01*
X0270624Y0252049D01*
X0270689Y0251925D01*
X0270751Y0251799D01*
X0270809Y0251672D01*
X0270863Y0251543D01*
X0270914Y0251412D01*
X0270960Y0251280D01*
X0271003Y0251147D01*
X0271043Y0251013D01*
X0271078Y0250878D01*
X0271110Y0250741D01*
X0271137Y0250604D01*
X0271161Y0250466D01*
X0271181Y0250328D01*
X0271197Y0250189D01*
X0271209Y0250049D01*
X0271217Y0249910D01*
X0271221Y0249770D01*
X0271221Y0249630D01*
X0271217Y0249490D01*
X0271209Y0249351D01*
X0271197Y0249211D01*
X0271181Y0249072D01*
X0271161Y0248934D01*
X0271137Y0248796D01*
X0271110Y0248659D01*
X0271078Y0248522D01*
X0271043Y0248387D01*
X0271003Y0248253D01*
X0270960Y0248120D01*
X0270914Y0247988D01*
X0270863Y0247857D01*
X0270809Y0247728D01*
X0270751Y0247601D01*
X0270689Y0247475D01*
X0270624Y0247351D01*
X0270556Y0247229D01*
X0270484Y0247109D01*
X0270409Y0246992D01*
X0270330Y0246876D01*
X0270248Y0246762D01*
X0270163Y0246651D01*
X0270075Y0246543D01*
X0269983Y0246437D01*
X0269889Y0246333D01*
X0269792Y0246233D01*
X0269692Y0246135D01*
X0269589Y0246040D01*
X0269484Y0245948D01*
X0269376Y0245859D01*
X0269266Y0245773D01*
X0269153Y0245690D01*
X0269038Y0245611D01*
X0268920Y0245535D01*
X0268801Y0245462D01*
X0268679Y0245392D01*
X0268556Y0245327D01*
X0268431Y0245264D01*
X0268304Y0245205D01*
X0268175Y0245150D01*
X0268045Y0245099D01*
X0267914Y0245051D01*
X0267781Y0245007D01*
X0267647Y0244967D01*
X0267512Y0244930D01*
X0267376Y0244898D01*
X0267239Y0244869D01*
X0267101Y0244845D01*
X0266963Y0244824D01*
X0266824Y0244807D01*
X0266684Y0244794D01*
X0266545Y0244785D01*
X0266405Y0244780D01*
X0266265Y0244779D01*
X0266125Y0244782D01*
X0265985Y0244789D01*
X0265846Y0244800D01*
X0265707Y0244815D01*
X0265568Y0244834D01*
X0265430Y0244856D01*
X0265293Y0244883D01*
X0265156Y0244914D01*
X0265021Y0244948D01*
X0264886Y0244986D01*
X0264753Y0245029D01*
X0264621Y0245074D01*
X0264490Y0245124D01*
X0264360Y0245177D01*
X0264233Y0245234D01*
X0264107Y0245295D01*
X0263982Y0245359D01*
X0263860Y0245427D01*
X0263739Y0245498D01*
X0263621Y0245572D01*
X0263505Y0245650D01*
X0263391Y0245731D01*
X0263279Y0245816D01*
X0263170Y0245903D01*
X0263063Y0245993D01*
X0262959Y0246087D01*
X0262858Y0246183D01*
X0262759Y0246283D01*
X0262663Y0246385D01*
X0262571Y0246489D01*
X0262481Y0246597D01*
X0262394Y0246707D01*
X0262311Y0246819D01*
X0262230Y0246933D01*
X0262153Y0247050D01*
X0262080Y0247169D01*
X0262009Y0247290D01*
X0261943Y0247413D01*
X0261879Y0247538D01*
X0261820Y0247664D01*
X0261764Y0247793D01*
X0261711Y0247922D01*
X0261663Y0248053D01*
X0261618Y0248186D01*
X0261577Y0248320D01*
X0261539Y0248455D01*
X0261506Y0248590D01*
X0261476Y0248727D01*
X0261450Y0248865D01*
X0261429Y0249003D01*
X0261411Y0249142D01*
X0261397Y0249281D01*
X0261387Y0249420D01*
X0261381Y0249560D01*
X0261379Y0249700D01*
X0261466Y0201903D02*
X0263735Y0201903D01*
X0262601Y0201903D02*
X0262601Y0198500D01*
X0265149Y0198500D02*
X0267418Y0198500D01*
X0266284Y0198500D02*
X0266284Y0201903D01*
X0265149Y0200769D01*
X0260052Y0201903D02*
X0260052Y0199067D01*
X0259485Y0198500D01*
X0258350Y0198500D01*
X0257783Y0199067D01*
X0257783Y0201903D01*
X0256369Y0201336D02*
X0255801Y0201903D01*
X0254667Y0201903D01*
X0254100Y0201336D01*
X0254100Y0199067D01*
X0254667Y0198500D01*
X0255801Y0198500D01*
X0256369Y0199067D01*
X0256369Y0201336D01*
X0255801Y0191903D02*
X0254667Y0191903D01*
X0254100Y0191336D01*
X0254100Y0189067D01*
X0254667Y0188500D01*
X0255801Y0188500D01*
X0256369Y0189067D01*
X0257783Y0188500D02*
X0260052Y0188500D01*
X0261466Y0188500D02*
X0261466Y0191903D01*
X0262033Y0190201D02*
X0263735Y0188500D01*
X0265149Y0188500D02*
X0267418Y0188500D01*
X0266284Y0188500D02*
X0266284Y0191903D01*
X0265149Y0190769D01*
X0263735Y0191903D02*
X0261466Y0189634D01*
X0257783Y0188500D02*
X0257783Y0191903D01*
X0256369Y0191336D02*
X0255801Y0191903D01*
X0255801Y0181903D02*
X0254667Y0181903D01*
X0254100Y0181336D01*
X0254100Y0179067D01*
X0254667Y0178500D01*
X0255801Y0178500D01*
X0256369Y0179067D01*
X0256369Y0181336D01*
X0255801Y0181903D01*
X0257783Y0181903D02*
X0257783Y0179067D01*
X0258350Y0178500D01*
X0259485Y0178500D01*
X0260052Y0179067D01*
X0260052Y0181903D01*
X0261466Y0181903D02*
X0263735Y0181903D01*
X0262601Y0181903D02*
X0262601Y0178500D01*
X0265149Y0178500D02*
X0267418Y0180769D01*
X0267418Y0181336D01*
X0266851Y0181903D01*
X0265717Y0181903D01*
X0265149Y0181336D01*
X0265149Y0178500D02*
X0267418Y0178500D01*
X0266851Y0171403D02*
X0265717Y0171403D01*
X0265149Y0170836D01*
X0263735Y0171403D02*
X0261466Y0169134D01*
X0262033Y0169701D02*
X0263735Y0168000D01*
X0265149Y0168000D02*
X0267418Y0170269D01*
X0267418Y0170836D01*
X0266851Y0171403D01*
X0267418Y0168000D02*
X0265149Y0168000D01*
X0261466Y0168000D02*
X0261466Y0171403D01*
X0257783Y0171403D02*
X0257783Y0168000D01*
X0260052Y0168000D01*
X0256369Y0168567D02*
X0255801Y0168000D01*
X0254667Y0168000D01*
X0254100Y0168567D01*
X0254100Y0170836D01*
X0254667Y0171403D01*
X0255801Y0171403D01*
X0256369Y0170836D01*
X0273934Y0150403D02*
X0275069Y0150403D01*
X0274501Y0150403D02*
X0274501Y0147567D01*
X0273934Y0147000D01*
X0273367Y0147000D01*
X0272800Y0147567D01*
X0276483Y0147000D02*
X0276483Y0150403D01*
X0278185Y0150403D01*
X0278752Y0149836D01*
X0278752Y0148701D01*
X0278185Y0148134D01*
X0276483Y0148134D01*
X0280166Y0147000D02*
X0282435Y0147000D01*
X0281301Y0147000D02*
X0281301Y0150403D01*
X0280166Y0149269D01*
X0290000Y0146700D02*
X0300000Y0146700D01*
X0300000Y0136700D01*
X0300000Y0126700D01*
X0300000Y0116700D01*
X0300000Y0106700D01*
X0300000Y0096700D01*
X0300000Y0086700D01*
X0290000Y0086700D01*
X0290000Y0096700D01*
X0300000Y0096700D01*
X0290000Y0096700D02*
X0290000Y0106700D01*
X0300000Y0106700D01*
X0290000Y0106700D02*
X0290000Y0116700D01*
X0300000Y0116700D01*
X0290000Y0116700D02*
X0290000Y0126700D01*
X0300000Y0126700D01*
X0290000Y0126700D02*
X0290000Y0136700D01*
X0300000Y0136700D01*
X0290000Y0136700D02*
X0290000Y0146700D01*
X0268235Y0137836D02*
X0267668Y0138403D01*
X0266533Y0138403D01*
X0265966Y0137836D01*
X0264552Y0138403D02*
X0262283Y0135000D01*
X0260869Y0135000D02*
X0259734Y0136134D01*
X0260301Y0136134D02*
X0258600Y0136134D01*
X0258600Y0135000D02*
X0258600Y0138403D01*
X0260301Y0138403D01*
X0260869Y0137836D01*
X0260869Y0136701D01*
X0260301Y0136134D01*
X0262283Y0138403D02*
X0264552Y0135000D01*
X0265966Y0135000D02*
X0268235Y0137269D01*
X0268235Y0137836D01*
X0268235Y0135000D02*
X0265966Y0135000D01*
X0267101Y0118403D02*
X0267101Y0115000D01*
X0268235Y0115000D02*
X0265966Y0115000D01*
X0264552Y0115000D02*
X0262283Y0118403D01*
X0260869Y0117836D02*
X0260869Y0116701D01*
X0260301Y0116134D01*
X0258600Y0116134D01*
X0258600Y0115000D02*
X0258600Y0118403D01*
X0260301Y0118403D01*
X0260869Y0117836D01*
X0259734Y0116134D02*
X0260869Y0115000D01*
X0262283Y0115000D02*
X0264552Y0118403D01*
X0265966Y0117269D02*
X0267101Y0118403D01*
X0267668Y0098903D02*
X0268235Y0098336D01*
X0265966Y0096067D01*
X0266533Y0095500D01*
X0267668Y0095500D01*
X0268235Y0096067D01*
X0268235Y0098336D01*
X0267668Y0098903D02*
X0266533Y0098903D01*
X0265966Y0098336D01*
X0265966Y0096067D01*
X0264552Y0095500D02*
X0262283Y0098903D01*
X0260869Y0098336D02*
X0260869Y0097201D01*
X0260301Y0096634D01*
X0258600Y0096634D01*
X0258600Y0095500D02*
X0258600Y0098903D01*
X0260301Y0098903D01*
X0260869Y0098336D01*
X0259734Y0096634D02*
X0260869Y0095500D01*
X0262283Y0095500D02*
X0264552Y0098903D01*
X0251417Y0080903D02*
X0251417Y0077500D01*
X0250283Y0077500D02*
X0252552Y0077500D01*
X0250283Y0079769D02*
X0251417Y0080903D01*
X0248869Y0080336D02*
X0248869Y0079201D01*
X0248301Y0078634D01*
X0246600Y0078634D01*
X0246600Y0077500D02*
X0246600Y0080903D01*
X0248301Y0080903D01*
X0248869Y0080336D01*
X0247734Y0078634D02*
X0248869Y0077500D01*
X0261817Y0069289D02*
X0261817Y0067020D01*
X0262384Y0066453D01*
X0263518Y0066453D01*
X0264085Y0067020D01*
X0264085Y0068154D01*
X0262951Y0068154D01*
X0264085Y0069289D02*
X0263518Y0069856D01*
X0262384Y0069856D01*
X0261817Y0069289D01*
X0265500Y0069856D02*
X0267768Y0066453D01*
X0267768Y0069856D01*
X0269183Y0069856D02*
X0269183Y0066453D01*
X0270884Y0066453D01*
X0271451Y0067020D01*
X0271451Y0069289D01*
X0270884Y0069856D01*
X0269183Y0069856D01*
X0265500Y0069856D02*
X0265500Y0066453D01*
X0261379Y0060200D02*
X0261381Y0060340D01*
X0261387Y0060480D01*
X0261397Y0060619D01*
X0261411Y0060758D01*
X0261429Y0060897D01*
X0261450Y0061035D01*
X0261476Y0061173D01*
X0261506Y0061310D01*
X0261539Y0061445D01*
X0261577Y0061580D01*
X0261618Y0061714D01*
X0261663Y0061847D01*
X0261711Y0061978D01*
X0261764Y0062107D01*
X0261820Y0062236D01*
X0261879Y0062362D01*
X0261943Y0062487D01*
X0262009Y0062610D01*
X0262080Y0062731D01*
X0262153Y0062850D01*
X0262230Y0062967D01*
X0262311Y0063081D01*
X0262394Y0063193D01*
X0262481Y0063303D01*
X0262571Y0063411D01*
X0262663Y0063515D01*
X0262759Y0063617D01*
X0262858Y0063717D01*
X0262959Y0063813D01*
X0263063Y0063907D01*
X0263170Y0063997D01*
X0263279Y0064084D01*
X0263391Y0064169D01*
X0263505Y0064250D01*
X0263621Y0064328D01*
X0263739Y0064402D01*
X0263860Y0064473D01*
X0263982Y0064541D01*
X0264107Y0064605D01*
X0264233Y0064666D01*
X0264360Y0064723D01*
X0264490Y0064776D01*
X0264621Y0064826D01*
X0264753Y0064871D01*
X0264886Y0064914D01*
X0265021Y0064952D01*
X0265156Y0064986D01*
X0265293Y0065017D01*
X0265430Y0065044D01*
X0265568Y0065066D01*
X0265707Y0065085D01*
X0265846Y0065100D01*
X0265985Y0065111D01*
X0266125Y0065118D01*
X0266265Y0065121D01*
X0266405Y0065120D01*
X0266545Y0065115D01*
X0266684Y0065106D01*
X0266824Y0065093D01*
X0266963Y0065076D01*
X0267101Y0065055D01*
X0267239Y0065031D01*
X0267376Y0065002D01*
X0267512Y0064970D01*
X0267647Y0064933D01*
X0267781Y0064893D01*
X0267914Y0064849D01*
X0268045Y0064801D01*
X0268175Y0064750D01*
X0268304Y0064695D01*
X0268431Y0064636D01*
X0268556Y0064573D01*
X0268679Y0064508D01*
X0268801Y0064438D01*
X0268920Y0064365D01*
X0269038Y0064289D01*
X0269153Y0064210D01*
X0269266Y0064127D01*
X0269376Y0064041D01*
X0269484Y0063952D01*
X0269589Y0063860D01*
X0269692Y0063765D01*
X0269792Y0063667D01*
X0269889Y0063567D01*
X0269983Y0063463D01*
X0270075Y0063357D01*
X0270163Y0063249D01*
X0270248Y0063138D01*
X0270330Y0063024D01*
X0270409Y0062908D01*
X0270484Y0062791D01*
X0270556Y0062671D01*
X0270624Y0062549D01*
X0270689Y0062425D01*
X0270751Y0062299D01*
X0270809Y0062172D01*
X0270863Y0062043D01*
X0270914Y0061912D01*
X0270960Y0061780D01*
X0271003Y0061647D01*
X0271043Y0061513D01*
X0271078Y0061378D01*
X0271110Y0061241D01*
X0271137Y0061104D01*
X0271161Y0060966D01*
X0271181Y0060828D01*
X0271197Y0060689D01*
X0271209Y0060549D01*
X0271217Y0060410D01*
X0271221Y0060270D01*
X0271221Y0060130D01*
X0271217Y0059990D01*
X0271209Y0059851D01*
X0271197Y0059711D01*
X0271181Y0059572D01*
X0271161Y0059434D01*
X0271137Y0059296D01*
X0271110Y0059159D01*
X0271078Y0059022D01*
X0271043Y0058887D01*
X0271003Y0058753D01*
X0270960Y0058620D01*
X0270914Y0058488D01*
X0270863Y0058357D01*
X0270809Y0058228D01*
X0270751Y0058101D01*
X0270689Y0057975D01*
X0270624Y0057851D01*
X0270556Y0057729D01*
X0270484Y0057609D01*
X0270409Y0057492D01*
X0270330Y0057376D01*
X0270248Y0057262D01*
X0270163Y0057151D01*
X0270075Y0057043D01*
X0269983Y0056937D01*
X0269889Y0056833D01*
X0269792Y0056733D01*
X0269692Y0056635D01*
X0269589Y0056540D01*
X0269484Y0056448D01*
X0269376Y0056359D01*
X0269266Y0056273D01*
X0269153Y0056190D01*
X0269038Y0056111D01*
X0268920Y0056035D01*
X0268801Y0055962D01*
X0268679Y0055892D01*
X0268556Y0055827D01*
X0268431Y0055764D01*
X0268304Y0055705D01*
X0268175Y0055650D01*
X0268045Y0055599D01*
X0267914Y0055551D01*
X0267781Y0055507D01*
X0267647Y0055467D01*
X0267512Y0055430D01*
X0267376Y0055398D01*
X0267239Y0055369D01*
X0267101Y0055345D01*
X0266963Y0055324D01*
X0266824Y0055307D01*
X0266684Y0055294D01*
X0266545Y0055285D01*
X0266405Y0055280D01*
X0266265Y0055279D01*
X0266125Y0055282D01*
X0265985Y0055289D01*
X0265846Y0055300D01*
X0265707Y0055315D01*
X0265568Y0055334D01*
X0265430Y0055356D01*
X0265293Y0055383D01*
X0265156Y0055414D01*
X0265021Y0055448D01*
X0264886Y0055486D01*
X0264753Y0055529D01*
X0264621Y0055574D01*
X0264490Y0055624D01*
X0264360Y0055677D01*
X0264233Y0055734D01*
X0264107Y0055795D01*
X0263982Y0055859D01*
X0263860Y0055927D01*
X0263739Y0055998D01*
X0263621Y0056072D01*
X0263505Y0056150D01*
X0263391Y0056231D01*
X0263279Y0056316D01*
X0263170Y0056403D01*
X0263063Y0056493D01*
X0262959Y0056587D01*
X0262858Y0056683D01*
X0262759Y0056783D01*
X0262663Y0056885D01*
X0262571Y0056989D01*
X0262481Y0057097D01*
X0262394Y0057207D01*
X0262311Y0057319D01*
X0262230Y0057433D01*
X0262153Y0057550D01*
X0262080Y0057669D01*
X0262009Y0057790D01*
X0261943Y0057913D01*
X0261879Y0058038D01*
X0261820Y0058164D01*
X0261764Y0058293D01*
X0261711Y0058422D01*
X0261663Y0058553D01*
X0261618Y0058686D01*
X0261577Y0058820D01*
X0261539Y0058955D01*
X0261506Y0059090D01*
X0261476Y0059227D01*
X0261450Y0059365D01*
X0261429Y0059503D01*
X0261411Y0059642D01*
X0261397Y0059781D01*
X0261387Y0059920D01*
X0261381Y0060060D01*
X0261379Y0060200D01*
X0232552Y0078067D02*
X0232552Y0080336D01*
X0231985Y0080903D01*
X0230850Y0080903D01*
X0230283Y0080336D01*
X0230283Y0079769D01*
X0230850Y0079201D01*
X0232552Y0079201D01*
X0232552Y0078067D02*
X0231985Y0077500D01*
X0230850Y0077500D01*
X0230283Y0078067D01*
X0228869Y0078067D02*
X0228301Y0077500D01*
X0227167Y0077500D01*
X0226600Y0078067D01*
X0226600Y0080336D01*
X0227167Y0080903D01*
X0228301Y0080903D01*
X0228869Y0080336D01*
X0219451Y0085453D02*
X0217183Y0085453D01*
X0218317Y0085453D02*
X0218317Y0088856D01*
X0217183Y0087721D01*
X0215768Y0087721D02*
X0215201Y0087154D01*
X0213500Y0087154D01*
X0215201Y0087154D02*
X0215768Y0086587D01*
X0215768Y0086020D01*
X0215201Y0085453D01*
X0213500Y0085453D01*
X0213500Y0088856D01*
X0215201Y0088856D01*
X0215768Y0088289D01*
X0215768Y0087721D01*
X0212085Y0088856D02*
X0209817Y0088856D01*
X0209817Y0085453D01*
X0209817Y0087154D02*
X0210951Y0087154D01*
X0228600Y0098903D02*
X0230869Y0098903D01*
X0229734Y0098903D02*
X0229734Y0095500D01*
X0232283Y0095500D02*
X0232283Y0098903D01*
X0233985Y0098903D01*
X0234552Y0098336D01*
X0234552Y0097201D01*
X0233985Y0096634D01*
X0232283Y0096634D01*
X0235966Y0095500D02*
X0238235Y0095500D01*
X0237101Y0095500D02*
X0237101Y0098903D01*
X0235966Y0097769D01*
X0208235Y0123336D02*
X0205966Y0121067D01*
X0205966Y0120500D01*
X0204552Y0122201D02*
X0203985Y0121634D01*
X0202283Y0121634D01*
X0202283Y0120500D02*
X0202283Y0123903D01*
X0203985Y0123903D01*
X0204552Y0123336D01*
X0204552Y0122201D01*
X0205966Y0123903D02*
X0208235Y0123903D01*
X0208235Y0123336D01*
X0200869Y0123903D02*
X0198600Y0123903D01*
X0199734Y0123903D02*
X0199734Y0120500D01*
X0163552Y0090836D02*
X0163552Y0090269D01*
X0162985Y0089701D01*
X0163552Y0089134D01*
X0163552Y0088567D01*
X0162985Y0088000D01*
X0161850Y0088000D01*
X0161283Y0088567D01*
X0159869Y0088567D02*
X0159301Y0088000D01*
X0158167Y0088000D01*
X0157600Y0088567D01*
X0157600Y0090836D01*
X0158167Y0091403D01*
X0159301Y0091403D01*
X0159869Y0090836D01*
X0161283Y0090836D02*
X0161850Y0091403D01*
X0162985Y0091403D01*
X0163552Y0090836D01*
X0162985Y0089701D02*
X0162417Y0089701D01*
X0162985Y0080403D02*
X0161283Y0078701D01*
X0163552Y0078701D01*
X0162985Y0077000D02*
X0162985Y0080403D01*
X0159869Y0079836D02*
X0159869Y0078701D01*
X0159301Y0078134D01*
X0157600Y0078134D01*
X0157600Y0077000D02*
X0157600Y0080403D01*
X0159301Y0080403D01*
X0159869Y0079836D01*
X0158734Y0078134D02*
X0159869Y0077000D01*
X0159301Y0071903D02*
X0157600Y0071903D01*
X0157600Y0068500D01*
X0159301Y0068500D01*
X0159869Y0069067D01*
X0159869Y0071336D01*
X0159301Y0071903D01*
X0161283Y0070769D02*
X0162417Y0071903D01*
X0162417Y0068500D01*
X0161283Y0068500D02*
X0163552Y0068500D01*
X0159595Y0056300D02*
X0159595Y0034800D01*
X0163095Y0028300D02*
X0173095Y0028300D01*
X0172595Y0027300D02*
X0172508Y0027298D01*
X0172421Y0027292D01*
X0172334Y0027283D01*
X0172248Y0027270D01*
X0172162Y0027253D01*
X0172077Y0027232D01*
X0171994Y0027207D01*
X0171911Y0027179D01*
X0171830Y0027148D01*
X0171750Y0027113D01*
X0171672Y0027074D01*
X0171595Y0027032D01*
X0171520Y0026987D01*
X0171448Y0026938D01*
X0171377Y0026887D01*
X0171309Y0026832D01*
X0171244Y0026775D01*
X0171181Y0026714D01*
X0171120Y0026651D01*
X0171063Y0026586D01*
X0171008Y0026518D01*
X0170957Y0026447D01*
X0170908Y0026375D01*
X0170863Y0026300D01*
X0170821Y0026223D01*
X0170782Y0026145D01*
X0170747Y0026065D01*
X0170716Y0025984D01*
X0170688Y0025901D01*
X0170663Y0025818D01*
X0170642Y0025733D01*
X0170625Y0025647D01*
X0170612Y0025561D01*
X0170603Y0025474D01*
X0170597Y0025387D01*
X0170595Y0025300D01*
X0162595Y0025300D01*
X0164095Y0022800D02*
X0164095Y0017300D01*
X0166095Y0012800D02*
X0166095Y0022800D01*
X0168095Y0022800D02*
X0168095Y0006300D01*
X0170595Y0003800D02*
X0170593Y0003713D01*
X0170587Y0003626D01*
X0170578Y0003539D01*
X0170565Y0003453D01*
X0170548Y0003367D01*
X0170527Y0003282D01*
X0170502Y0003199D01*
X0170474Y0003116D01*
X0170443Y0003035D01*
X0170408Y0002955D01*
X0170369Y0002877D01*
X0170327Y0002800D01*
X0170282Y0002725D01*
X0170233Y0002653D01*
X0170182Y0002582D01*
X0170127Y0002514D01*
X0170070Y0002449D01*
X0170009Y0002386D01*
X0169946Y0002325D01*
X0169881Y0002268D01*
X0169813Y0002213D01*
X0169742Y0002162D01*
X0169670Y0002113D01*
X0169595Y0002068D01*
X0169518Y0002026D01*
X0169440Y0001987D01*
X0169360Y0001952D01*
X0169279Y0001921D01*
X0169196Y0001893D01*
X0169113Y0001868D01*
X0169028Y0001847D01*
X0168942Y0001830D01*
X0168856Y0001817D01*
X0168769Y0001808D01*
X0168682Y0001802D01*
X0168595Y0001800D01*
X0166095Y0001800D01*
X0142095Y0001800D01*
X0139595Y0001800D01*
X0139508Y0001802D01*
X0139421Y0001808D01*
X0139334Y0001817D01*
X0139248Y0001830D01*
X0139162Y0001847D01*
X0139077Y0001868D01*
X0138994Y0001893D01*
X0138911Y0001921D01*
X0138830Y0001952D01*
X0138750Y0001987D01*
X0138672Y0002026D01*
X0138595Y0002068D01*
X0138520Y0002113D01*
X0138448Y0002162D01*
X0138377Y0002213D01*
X0138309Y0002268D01*
X0138244Y0002325D01*
X0138181Y0002386D01*
X0138120Y0002449D01*
X0138063Y0002514D01*
X0138008Y0002582D01*
X0137957Y0002653D01*
X0137908Y0002725D01*
X0137863Y0002800D01*
X0137821Y0002877D01*
X0137782Y0002955D01*
X0137747Y0003035D01*
X0137716Y0003116D01*
X0137688Y0003199D01*
X0137663Y0003282D01*
X0137642Y0003367D01*
X0137625Y0003453D01*
X0137612Y0003539D01*
X0137603Y0003626D01*
X0137597Y0003713D01*
X0137595Y0003800D01*
X0137595Y0025300D01*
X0145595Y0025300D01*
X0144095Y0022800D02*
X0144095Y0017300D01*
X0142095Y0012800D02*
X0142095Y0022800D01*
X0140095Y0022800D02*
X0140095Y0006300D01*
X0139095Y0003800D02*
X0169095Y0003800D01*
X0170595Y0003800D02*
X0170595Y0025300D01*
X0148595Y0034800D02*
X0148595Y0056300D01*
X0145095Y0028300D02*
X0135095Y0028300D01*
X0135595Y0027300D02*
X0135682Y0027298D01*
X0135769Y0027292D01*
X0135856Y0027283D01*
X0135942Y0027270D01*
X0136028Y0027253D01*
X0136113Y0027232D01*
X0136196Y0027207D01*
X0136279Y0027179D01*
X0136360Y0027148D01*
X0136440Y0027113D01*
X0136518Y0027074D01*
X0136595Y0027032D01*
X0136670Y0026987D01*
X0136742Y0026938D01*
X0136813Y0026887D01*
X0136881Y0026832D01*
X0136946Y0026775D01*
X0137009Y0026714D01*
X0137070Y0026651D01*
X0137127Y0026586D01*
X0137182Y0026518D01*
X0137233Y0026447D01*
X0137282Y0026375D01*
X0137327Y0026300D01*
X0137369Y0026223D01*
X0137408Y0026145D01*
X0137443Y0026065D01*
X0137474Y0025984D01*
X0137502Y0025901D01*
X0137527Y0025818D01*
X0137548Y0025733D01*
X0137565Y0025647D01*
X0137578Y0025561D01*
X0137587Y0025474D01*
X0137593Y0025387D01*
X0137595Y0025300D01*
X0142095Y0001800D02*
X0142095Y0001300D01*
X0166095Y0001300D01*
X0166095Y0001800D01*
X0137168Y0130000D02*
X0136033Y0130000D01*
X0135466Y0130567D01*
X0135466Y0131134D01*
X0136033Y0131701D01*
X0137168Y0131701D01*
X0137735Y0131134D01*
X0137735Y0130567D01*
X0137168Y0130000D01*
X0137168Y0131701D02*
X0137735Y0132269D01*
X0137735Y0132836D01*
X0137168Y0133403D01*
X0136033Y0133403D01*
X0135466Y0132836D01*
X0135466Y0132269D01*
X0136033Y0131701D01*
X0134052Y0131701D02*
X0133485Y0131134D01*
X0131783Y0131134D01*
X0131783Y0130000D02*
X0131783Y0133403D01*
X0133485Y0133403D01*
X0134052Y0132836D01*
X0134052Y0131701D01*
X0130369Y0133403D02*
X0128100Y0133403D01*
X0129234Y0133403D02*
X0129234Y0130000D01*
X0130283Y0146500D02*
X0130283Y0149903D01*
X0131985Y0149903D01*
X0132552Y0149336D01*
X0132552Y0148201D01*
X0131985Y0147634D01*
X0130283Y0147634D01*
X0128869Y0149903D02*
X0126600Y0149903D01*
X0127734Y0149903D02*
X0127734Y0146500D01*
X0133966Y0148201D02*
X0136235Y0148201D01*
X0135668Y0146500D02*
X0135668Y0149903D01*
X0133966Y0148201D01*
X0132252Y0166100D02*
X0129983Y0166100D01*
X0131117Y0166100D02*
X0131117Y0169503D01*
X0129983Y0168369D01*
X0128569Y0169503D02*
X0128569Y0166667D01*
X0128001Y0166100D01*
X0126867Y0166100D01*
X0126300Y0166667D01*
X0126300Y0169503D01*
X0127600Y0173200D02*
X0129800Y0173200D01*
X0129200Y0174300D02*
X0129137Y0174327D01*
X0129072Y0174350D01*
X0129006Y0174370D01*
X0128939Y0174385D01*
X0128871Y0174397D01*
X0128803Y0174405D01*
X0128734Y0174409D01*
X0128666Y0174409D01*
X0128597Y0174405D01*
X0128529Y0174397D01*
X0128461Y0174385D01*
X0128394Y0174370D01*
X0128328Y0174350D01*
X0128263Y0174327D01*
X0128200Y0174300D01*
X0127600Y0181800D02*
X0129800Y0181800D01*
X0120735Y0180836D02*
X0120735Y0180269D01*
X0120168Y0179701D01*
X0120735Y0179134D01*
X0120735Y0178567D01*
X0120168Y0178000D01*
X0119033Y0178000D01*
X0118466Y0178567D01*
X0117052Y0178000D02*
X0114783Y0178000D01*
X0115917Y0178000D02*
X0115917Y0181403D01*
X0114783Y0180269D01*
X0113369Y0180836D02*
X0112801Y0181403D01*
X0111667Y0181403D01*
X0111100Y0180836D01*
X0111100Y0178567D01*
X0111667Y0178000D01*
X0112801Y0178000D01*
X0113369Y0178567D01*
X0118466Y0180836D02*
X0119033Y0181403D01*
X0120168Y0181403D01*
X0120735Y0180836D01*
X0120168Y0179701D02*
X0119601Y0179701D01*
X0030043Y0179095D02*
X0028643Y0180495D01*
X0023643Y0180495D01*
X0022143Y0179095D01*
X0023643Y0180495D02*
X0022243Y0181895D01*
X0028643Y0180495D02*
X0030043Y0181895D01*
X0030043Y0189095D02*
X0028643Y0190495D01*
X0030043Y0191895D01*
X0028643Y0190495D02*
X0023643Y0190495D01*
X0022343Y0191795D01*
X0023643Y0190495D02*
X0022143Y0189095D01*
X0022343Y0199195D02*
X0023643Y0200495D01*
X0022243Y0201895D01*
X0023643Y0200495D02*
X0028643Y0200495D01*
X0030043Y0201895D01*
X0028643Y0200495D02*
X0029943Y0199195D01*
X0030043Y0209095D02*
X0028643Y0210495D01*
X0029943Y0211795D01*
X0028643Y0210495D02*
X0023643Y0210495D01*
X0022143Y0211895D01*
X0023643Y0210495D02*
X0022243Y0209195D01*
X0022143Y0219095D02*
X0023643Y0220495D01*
X0028643Y0220495D01*
X0030043Y0219095D01*
X0030043Y0171895D02*
X0028643Y0170495D01*
X0030043Y0169095D01*
X0028643Y0170495D02*
X0023643Y0170495D01*
X0022343Y0171795D01*
X0023643Y0170495D02*
X0022143Y0169095D01*
X0022143Y0161895D02*
X0023725Y0160495D01*
X0028725Y0160495D01*
X0030043Y0161895D01*
X0028643Y0150495D02*
X0023643Y0150495D01*
X0022143Y0149095D01*
X0028643Y0150495D02*
X0030043Y0149095D01*
X0030143Y0141895D02*
X0028643Y0140495D01*
X0030143Y0139095D01*
X0028643Y0140495D02*
X0023643Y0140495D01*
X0022043Y0139095D01*
X0023643Y0140495D02*
X0022143Y0141895D01*
X0022043Y0131895D02*
X0023643Y0130495D01*
X0028643Y0130495D01*
X0030143Y0131895D01*
X0028643Y0130495D02*
X0030143Y0129095D01*
X0023643Y0130495D02*
X0022043Y0129095D01*
X0022243Y0121895D02*
X0023643Y0120495D01*
X0028643Y0120495D01*
X0030143Y0121895D01*
X0028643Y0120495D02*
X0030143Y0119095D01*
X0023643Y0120495D02*
X0021943Y0119095D01*
X0022143Y0111895D02*
X0023643Y0110495D01*
X0028643Y0110495D01*
X0030143Y0109095D01*
X0028643Y0110495D02*
X0030243Y0111895D01*
X0023643Y0110495D02*
X0022143Y0109095D01*
X0022243Y0101895D02*
X0023643Y0100495D01*
X0028643Y0100495D01*
X0030143Y0101895D01*
X0028643Y0100495D02*
X0030143Y0099095D01*
X0023643Y0100495D02*
X0022143Y0099095D01*
X0022143Y0091895D02*
X0023643Y0090495D01*
X0028643Y0090495D01*
X0030343Y0091995D01*
D11*
X0035984Y0123100D02*
X0035200Y0123884D01*
X0035984Y0123100D02*
X0037552Y0123100D01*
X0038336Y0123884D01*
X0038336Y0124668D01*
X0037552Y0125452D01*
X0036768Y0125452D01*
X0037552Y0125452D02*
X0038336Y0126236D01*
X0038336Y0127020D01*
X0037552Y0127804D01*
X0035984Y0127804D01*
X0035200Y0127020D01*
X0040264Y0127804D02*
X0040264Y0124668D01*
X0041832Y0123100D01*
X0043400Y0124668D01*
X0043400Y0127804D01*
X0045329Y0127020D02*
X0046113Y0127804D01*
X0047681Y0127804D01*
X0048465Y0127020D01*
X0048465Y0126236D01*
X0047681Y0125452D01*
X0048465Y0124668D01*
X0048465Y0123884D01*
X0047681Y0123100D01*
X0046113Y0123100D01*
X0045329Y0123884D01*
X0046897Y0125452D02*
X0047681Y0125452D01*
X0094700Y0025404D02*
X0097052Y0025404D01*
X0097836Y0024620D01*
X0097836Y0023052D01*
X0097052Y0022268D01*
X0094700Y0022268D01*
X0094700Y0020700D02*
X0094700Y0025404D01*
X0096268Y0022268D02*
X0097836Y0020700D01*
X0099764Y0020700D02*
X0102900Y0025404D01*
X0104829Y0024620D02*
X0105613Y0025404D01*
X0107181Y0025404D01*
X0107965Y0024620D01*
X0107965Y0023836D01*
X0104829Y0020700D01*
X0107965Y0020700D01*
X0102900Y0020700D02*
X0099764Y0025404D01*
X0173700Y0025404D02*
X0173700Y0020700D01*
X0173700Y0022268D02*
X0176052Y0022268D01*
X0176836Y0023052D01*
X0176836Y0024620D01*
X0176052Y0025404D01*
X0173700Y0025404D01*
X0175268Y0022268D02*
X0176836Y0020700D01*
X0178764Y0020700D02*
X0181900Y0025404D01*
X0183829Y0023836D02*
X0185397Y0025404D01*
X0185397Y0020700D01*
X0183829Y0020700D02*
X0186965Y0020700D01*
X0181900Y0020700D02*
X0178764Y0025404D01*
X0253600Y0024804D02*
X0253600Y0020100D01*
X0253600Y0021668D02*
X0255952Y0021668D01*
X0256736Y0022452D01*
X0256736Y0024020D01*
X0255952Y0024804D01*
X0253600Y0024804D01*
X0255168Y0021668D02*
X0256736Y0020100D01*
X0258664Y0020100D02*
X0261800Y0024804D01*
X0263729Y0024020D02*
X0263729Y0020884D01*
X0266865Y0024020D01*
X0266865Y0020884D01*
X0266081Y0020100D01*
X0264513Y0020100D01*
X0263729Y0020884D01*
X0261800Y0020100D02*
X0258664Y0024804D01*
X0263729Y0024020D02*
X0264513Y0024804D01*
X0266081Y0024804D01*
X0266865Y0024020D01*
X0265716Y0286600D02*
X0264148Y0286600D01*
X0263364Y0287384D01*
X0266500Y0290520D01*
X0266500Y0287384D01*
X0265716Y0286600D01*
X0263364Y0287384D02*
X0263364Y0290520D01*
X0264148Y0291304D01*
X0265716Y0291304D01*
X0266500Y0290520D01*
X0261436Y0291304D02*
X0258300Y0286600D01*
X0261436Y0286600D02*
X0258300Y0291304D01*
X0256371Y0291304D02*
X0253235Y0291304D01*
X0254803Y0291304D02*
X0254803Y0286600D01*
X0185831Y0286600D02*
X0182695Y0286600D01*
X0184263Y0286600D02*
X0184263Y0291304D01*
X0182695Y0289736D01*
X0180766Y0291304D02*
X0177630Y0286600D01*
X0180766Y0286600D02*
X0177630Y0291304D01*
X0175702Y0291304D02*
X0172566Y0291304D01*
X0174134Y0291304D02*
X0174134Y0286600D01*
X0107724Y0286600D02*
X0104588Y0286600D01*
X0107724Y0289736D01*
X0107724Y0290520D01*
X0106940Y0291304D01*
X0105372Y0291304D01*
X0104588Y0290520D01*
X0102660Y0291304D02*
X0099524Y0286600D01*
X0102660Y0286600D02*
X0099524Y0291304D01*
X0097596Y0291304D02*
X0094460Y0291304D01*
X0096028Y0291304D02*
X0096028Y0286600D01*
D12*
X0093779Y0176155D02*
X0095914Y0174020D01*
X0095914Y0169750D01*
X0095914Y0172953D02*
X0091644Y0172953D01*
X0091644Y0174020D02*
X0093779Y0176155D01*
X0091644Y0174020D02*
X0091644Y0169750D01*
X0089259Y0169750D02*
X0088191Y0169750D01*
X0088191Y0170818D01*
X0089259Y0170818D01*
X0089259Y0169750D01*
X0085556Y0169750D02*
X0081285Y0169750D01*
X0085556Y0174020D01*
X0085556Y0175088D01*
X0084488Y0176155D01*
X0082353Y0176155D01*
X0081285Y0175088D01*
X0078650Y0175088D02*
X0077582Y0176155D01*
X0075447Y0176155D01*
X0074379Y0175088D01*
X0078650Y0175088D02*
X0078650Y0174020D01*
X0074379Y0169750D01*
X0078650Y0169750D01*
X0071994Y0169750D02*
X0070927Y0169750D01*
X0070927Y0170818D01*
X0071994Y0170818D01*
X0071994Y0169750D01*
X0068291Y0169750D02*
X0064021Y0169750D01*
X0066156Y0169750D02*
X0066156Y0176155D01*
X0064021Y0174020D01*
X0061385Y0169750D02*
X0057115Y0169750D01*
X0059250Y0169750D02*
X0059250Y0176155D01*
X0057115Y0174020D01*
X0054729Y0170818D02*
X0054729Y0169750D01*
X0053662Y0169750D01*
X0053662Y0170818D01*
X0054729Y0170818D01*
X0051026Y0170818D02*
X0051026Y0171885D01*
X0049959Y0172953D01*
X0046756Y0172953D01*
X0046756Y0170818D01*
X0047823Y0169750D01*
X0049959Y0169750D01*
X0051026Y0170818D01*
X0048891Y0175088D02*
X0046756Y0172953D01*
X0048891Y0175088D02*
X0051026Y0176155D01*
X0044120Y0169750D02*
X0039850Y0169750D01*
X0041985Y0169750D02*
X0041985Y0176155D01*
X0039850Y0174020D01*
D13*
X0302100Y0169865D02*
X0324600Y0169865D01*
X0324600Y0179865D02*
X0302100Y0179865D01*
X0302100Y0189865D02*
X0324600Y0189865D01*
X0324600Y0199865D02*
X0302100Y0199865D01*
X0302100Y0209865D02*
X0324600Y0209865D01*
X0324600Y0219865D02*
X0302100Y0219865D01*
X0302500Y0141700D02*
X0325000Y0141700D01*
X0325000Y0131700D02*
X0302500Y0131700D01*
X0302500Y0121700D02*
X0325000Y0121700D01*
X0325000Y0111700D02*
X0302500Y0111700D01*
X0302500Y0101700D02*
X0325000Y0101700D01*
X0325000Y0091700D02*
X0302500Y0091700D01*
D14*
X0301000Y0091700D03*
X0301000Y0101700D03*
X0301000Y0111700D03*
X0301000Y0121700D03*
X0301000Y0131700D03*
X0301000Y0141700D03*
X0300600Y0169865D03*
X0300600Y0179865D03*
X0300600Y0189865D03*
X0300600Y0199865D03*
X0300600Y0209865D03*
X0300600Y0219865D03*
D15*
X0287600Y0219865D03*
X0287600Y0209865D03*
X0287600Y0199865D03*
X0287600Y0189865D03*
X0287600Y0179865D03*
X0287600Y0169865D03*
X0288000Y0141700D03*
X0288000Y0131700D03*
X0288000Y0121700D03*
X0288000Y0111700D03*
X0288000Y0101700D03*
X0288000Y0091700D03*
D16*
X0277500Y0091700D03*
X0277500Y0101700D03*
X0277500Y0111700D03*
X0277500Y0121700D03*
X0277500Y0131700D03*
X0277500Y0141700D03*
X0277100Y0169865D03*
X0277100Y0179865D03*
X0277100Y0189865D03*
X0277100Y0199865D03*
X0277100Y0209865D03*
X0277100Y0219865D03*
D17*
X0028111Y0017700D02*
X0016300Y0029511D01*
X0016300Y0281480D01*
X0028111Y0293291D01*
X0280080Y0293291D01*
X0291891Y0281480D01*
X0291891Y0029511D01*
X0280080Y0017700D01*
X0028111Y0017700D01*
X0025749Y0033448D02*
X0025751Y0033606D01*
X0025757Y0033764D01*
X0025767Y0033922D01*
X0025781Y0034080D01*
X0025799Y0034237D01*
X0025820Y0034394D01*
X0025846Y0034550D01*
X0025876Y0034706D01*
X0025909Y0034861D01*
X0025947Y0035014D01*
X0025988Y0035167D01*
X0026033Y0035319D01*
X0026082Y0035470D01*
X0026135Y0035619D01*
X0026191Y0035767D01*
X0026251Y0035913D01*
X0026315Y0036058D01*
X0026383Y0036201D01*
X0026454Y0036343D01*
X0026528Y0036483D01*
X0026606Y0036620D01*
X0026688Y0036756D01*
X0026772Y0036890D01*
X0026861Y0037021D01*
X0026952Y0037150D01*
X0027047Y0037277D01*
X0027144Y0037402D01*
X0027245Y0037524D01*
X0027349Y0037643D01*
X0027456Y0037760D01*
X0027566Y0037874D01*
X0027679Y0037985D01*
X0027794Y0038094D01*
X0027912Y0038199D01*
X0028033Y0038301D01*
X0028156Y0038401D01*
X0028282Y0038497D01*
X0028410Y0038590D01*
X0028540Y0038680D01*
X0028673Y0038766D01*
X0028808Y0038850D01*
X0028944Y0038929D01*
X0029083Y0039006D01*
X0029224Y0039078D01*
X0029366Y0039148D01*
X0029510Y0039213D01*
X0029656Y0039275D01*
X0029803Y0039333D01*
X0029952Y0039388D01*
X0030102Y0039439D01*
X0030253Y0039486D01*
X0030405Y0039529D01*
X0030558Y0039568D01*
X0030713Y0039604D01*
X0030868Y0039635D01*
X0031024Y0039663D01*
X0031180Y0039687D01*
X0031337Y0039707D01*
X0031495Y0039723D01*
X0031652Y0039735D01*
X0031811Y0039743D01*
X0031969Y0039747D01*
X0032127Y0039747D01*
X0032285Y0039743D01*
X0032444Y0039735D01*
X0032601Y0039723D01*
X0032759Y0039707D01*
X0032916Y0039687D01*
X0033072Y0039663D01*
X0033228Y0039635D01*
X0033383Y0039604D01*
X0033538Y0039568D01*
X0033691Y0039529D01*
X0033843Y0039486D01*
X0033994Y0039439D01*
X0034144Y0039388D01*
X0034293Y0039333D01*
X0034440Y0039275D01*
X0034586Y0039213D01*
X0034730Y0039148D01*
X0034872Y0039078D01*
X0035013Y0039006D01*
X0035152Y0038929D01*
X0035288Y0038850D01*
X0035423Y0038766D01*
X0035556Y0038680D01*
X0035686Y0038590D01*
X0035814Y0038497D01*
X0035940Y0038401D01*
X0036063Y0038301D01*
X0036184Y0038199D01*
X0036302Y0038094D01*
X0036417Y0037985D01*
X0036530Y0037874D01*
X0036640Y0037760D01*
X0036747Y0037643D01*
X0036851Y0037524D01*
X0036952Y0037402D01*
X0037049Y0037277D01*
X0037144Y0037150D01*
X0037235Y0037021D01*
X0037324Y0036890D01*
X0037408Y0036756D01*
X0037490Y0036620D01*
X0037568Y0036483D01*
X0037642Y0036343D01*
X0037713Y0036201D01*
X0037781Y0036058D01*
X0037845Y0035913D01*
X0037905Y0035767D01*
X0037961Y0035619D01*
X0038014Y0035470D01*
X0038063Y0035319D01*
X0038108Y0035167D01*
X0038149Y0035014D01*
X0038187Y0034861D01*
X0038220Y0034706D01*
X0038250Y0034550D01*
X0038276Y0034394D01*
X0038297Y0034237D01*
X0038315Y0034080D01*
X0038329Y0033922D01*
X0038339Y0033764D01*
X0038345Y0033606D01*
X0038347Y0033448D01*
X0038345Y0033290D01*
X0038339Y0033132D01*
X0038329Y0032974D01*
X0038315Y0032816D01*
X0038297Y0032659D01*
X0038276Y0032502D01*
X0038250Y0032346D01*
X0038220Y0032190D01*
X0038187Y0032035D01*
X0038149Y0031882D01*
X0038108Y0031729D01*
X0038063Y0031577D01*
X0038014Y0031426D01*
X0037961Y0031277D01*
X0037905Y0031129D01*
X0037845Y0030983D01*
X0037781Y0030838D01*
X0037713Y0030695D01*
X0037642Y0030553D01*
X0037568Y0030413D01*
X0037490Y0030276D01*
X0037408Y0030140D01*
X0037324Y0030006D01*
X0037235Y0029875D01*
X0037144Y0029746D01*
X0037049Y0029619D01*
X0036952Y0029494D01*
X0036851Y0029372D01*
X0036747Y0029253D01*
X0036640Y0029136D01*
X0036530Y0029022D01*
X0036417Y0028911D01*
X0036302Y0028802D01*
X0036184Y0028697D01*
X0036063Y0028595D01*
X0035940Y0028495D01*
X0035814Y0028399D01*
X0035686Y0028306D01*
X0035556Y0028216D01*
X0035423Y0028130D01*
X0035288Y0028046D01*
X0035152Y0027967D01*
X0035013Y0027890D01*
X0034872Y0027818D01*
X0034730Y0027748D01*
X0034586Y0027683D01*
X0034440Y0027621D01*
X0034293Y0027563D01*
X0034144Y0027508D01*
X0033994Y0027457D01*
X0033843Y0027410D01*
X0033691Y0027367D01*
X0033538Y0027328D01*
X0033383Y0027292D01*
X0033228Y0027261D01*
X0033072Y0027233D01*
X0032916Y0027209D01*
X0032759Y0027189D01*
X0032601Y0027173D01*
X0032444Y0027161D01*
X0032285Y0027153D01*
X0032127Y0027149D01*
X0031969Y0027149D01*
X0031811Y0027153D01*
X0031652Y0027161D01*
X0031495Y0027173D01*
X0031337Y0027189D01*
X0031180Y0027209D01*
X0031024Y0027233D01*
X0030868Y0027261D01*
X0030713Y0027292D01*
X0030558Y0027328D01*
X0030405Y0027367D01*
X0030253Y0027410D01*
X0030102Y0027457D01*
X0029952Y0027508D01*
X0029803Y0027563D01*
X0029656Y0027621D01*
X0029510Y0027683D01*
X0029366Y0027748D01*
X0029224Y0027818D01*
X0029083Y0027890D01*
X0028944Y0027967D01*
X0028808Y0028046D01*
X0028673Y0028130D01*
X0028540Y0028216D01*
X0028410Y0028306D01*
X0028282Y0028399D01*
X0028156Y0028495D01*
X0028033Y0028595D01*
X0027912Y0028697D01*
X0027794Y0028802D01*
X0027679Y0028911D01*
X0027566Y0029022D01*
X0027456Y0029136D01*
X0027349Y0029253D01*
X0027245Y0029372D01*
X0027144Y0029494D01*
X0027047Y0029619D01*
X0026952Y0029746D01*
X0026861Y0029875D01*
X0026772Y0030006D01*
X0026688Y0030140D01*
X0026606Y0030276D01*
X0026528Y0030413D01*
X0026454Y0030553D01*
X0026383Y0030695D01*
X0026315Y0030838D01*
X0026251Y0030983D01*
X0026191Y0031129D01*
X0026135Y0031277D01*
X0026082Y0031426D01*
X0026033Y0031577D01*
X0025988Y0031729D01*
X0025947Y0031882D01*
X0025909Y0032035D01*
X0025876Y0032190D01*
X0025846Y0032346D01*
X0025820Y0032502D01*
X0025799Y0032659D01*
X0025781Y0032816D01*
X0025767Y0032974D01*
X0025757Y0033132D01*
X0025751Y0033290D01*
X0025749Y0033448D01*
X0025749Y0072818D02*
X0025751Y0072976D01*
X0025757Y0073134D01*
X0025767Y0073292D01*
X0025781Y0073450D01*
X0025799Y0073607D01*
X0025820Y0073764D01*
X0025846Y0073920D01*
X0025876Y0074076D01*
X0025909Y0074231D01*
X0025947Y0074384D01*
X0025988Y0074537D01*
X0026033Y0074689D01*
X0026082Y0074840D01*
X0026135Y0074989D01*
X0026191Y0075137D01*
X0026251Y0075283D01*
X0026315Y0075428D01*
X0026383Y0075571D01*
X0026454Y0075713D01*
X0026528Y0075853D01*
X0026606Y0075990D01*
X0026688Y0076126D01*
X0026772Y0076260D01*
X0026861Y0076391D01*
X0026952Y0076520D01*
X0027047Y0076647D01*
X0027144Y0076772D01*
X0027245Y0076894D01*
X0027349Y0077013D01*
X0027456Y0077130D01*
X0027566Y0077244D01*
X0027679Y0077355D01*
X0027794Y0077464D01*
X0027912Y0077569D01*
X0028033Y0077671D01*
X0028156Y0077771D01*
X0028282Y0077867D01*
X0028410Y0077960D01*
X0028540Y0078050D01*
X0028673Y0078136D01*
X0028808Y0078220D01*
X0028944Y0078299D01*
X0029083Y0078376D01*
X0029224Y0078448D01*
X0029366Y0078518D01*
X0029510Y0078583D01*
X0029656Y0078645D01*
X0029803Y0078703D01*
X0029952Y0078758D01*
X0030102Y0078809D01*
X0030253Y0078856D01*
X0030405Y0078899D01*
X0030558Y0078938D01*
X0030713Y0078974D01*
X0030868Y0079005D01*
X0031024Y0079033D01*
X0031180Y0079057D01*
X0031337Y0079077D01*
X0031495Y0079093D01*
X0031652Y0079105D01*
X0031811Y0079113D01*
X0031969Y0079117D01*
X0032127Y0079117D01*
X0032285Y0079113D01*
X0032444Y0079105D01*
X0032601Y0079093D01*
X0032759Y0079077D01*
X0032916Y0079057D01*
X0033072Y0079033D01*
X0033228Y0079005D01*
X0033383Y0078974D01*
X0033538Y0078938D01*
X0033691Y0078899D01*
X0033843Y0078856D01*
X0033994Y0078809D01*
X0034144Y0078758D01*
X0034293Y0078703D01*
X0034440Y0078645D01*
X0034586Y0078583D01*
X0034730Y0078518D01*
X0034872Y0078448D01*
X0035013Y0078376D01*
X0035152Y0078299D01*
X0035288Y0078220D01*
X0035423Y0078136D01*
X0035556Y0078050D01*
X0035686Y0077960D01*
X0035814Y0077867D01*
X0035940Y0077771D01*
X0036063Y0077671D01*
X0036184Y0077569D01*
X0036302Y0077464D01*
X0036417Y0077355D01*
X0036530Y0077244D01*
X0036640Y0077130D01*
X0036747Y0077013D01*
X0036851Y0076894D01*
X0036952Y0076772D01*
X0037049Y0076647D01*
X0037144Y0076520D01*
X0037235Y0076391D01*
X0037324Y0076260D01*
X0037408Y0076126D01*
X0037490Y0075990D01*
X0037568Y0075853D01*
X0037642Y0075713D01*
X0037713Y0075571D01*
X0037781Y0075428D01*
X0037845Y0075283D01*
X0037905Y0075137D01*
X0037961Y0074989D01*
X0038014Y0074840D01*
X0038063Y0074689D01*
X0038108Y0074537D01*
X0038149Y0074384D01*
X0038187Y0074231D01*
X0038220Y0074076D01*
X0038250Y0073920D01*
X0038276Y0073764D01*
X0038297Y0073607D01*
X0038315Y0073450D01*
X0038329Y0073292D01*
X0038339Y0073134D01*
X0038345Y0072976D01*
X0038347Y0072818D01*
X0038345Y0072660D01*
X0038339Y0072502D01*
X0038329Y0072344D01*
X0038315Y0072186D01*
X0038297Y0072029D01*
X0038276Y0071872D01*
X0038250Y0071716D01*
X0038220Y0071560D01*
X0038187Y0071405D01*
X0038149Y0071252D01*
X0038108Y0071099D01*
X0038063Y0070947D01*
X0038014Y0070796D01*
X0037961Y0070647D01*
X0037905Y0070499D01*
X0037845Y0070353D01*
X0037781Y0070208D01*
X0037713Y0070065D01*
X0037642Y0069923D01*
X0037568Y0069783D01*
X0037490Y0069646D01*
X0037408Y0069510D01*
X0037324Y0069376D01*
X0037235Y0069245D01*
X0037144Y0069116D01*
X0037049Y0068989D01*
X0036952Y0068864D01*
X0036851Y0068742D01*
X0036747Y0068623D01*
X0036640Y0068506D01*
X0036530Y0068392D01*
X0036417Y0068281D01*
X0036302Y0068172D01*
X0036184Y0068067D01*
X0036063Y0067965D01*
X0035940Y0067865D01*
X0035814Y0067769D01*
X0035686Y0067676D01*
X0035556Y0067586D01*
X0035423Y0067500D01*
X0035288Y0067416D01*
X0035152Y0067337D01*
X0035013Y0067260D01*
X0034872Y0067188D01*
X0034730Y0067118D01*
X0034586Y0067053D01*
X0034440Y0066991D01*
X0034293Y0066933D01*
X0034144Y0066878D01*
X0033994Y0066827D01*
X0033843Y0066780D01*
X0033691Y0066737D01*
X0033538Y0066698D01*
X0033383Y0066662D01*
X0033228Y0066631D01*
X0033072Y0066603D01*
X0032916Y0066579D01*
X0032759Y0066559D01*
X0032601Y0066543D01*
X0032444Y0066531D01*
X0032285Y0066523D01*
X0032127Y0066519D01*
X0031969Y0066519D01*
X0031811Y0066523D01*
X0031652Y0066531D01*
X0031495Y0066543D01*
X0031337Y0066559D01*
X0031180Y0066579D01*
X0031024Y0066603D01*
X0030868Y0066631D01*
X0030713Y0066662D01*
X0030558Y0066698D01*
X0030405Y0066737D01*
X0030253Y0066780D01*
X0030102Y0066827D01*
X0029952Y0066878D01*
X0029803Y0066933D01*
X0029656Y0066991D01*
X0029510Y0067053D01*
X0029366Y0067118D01*
X0029224Y0067188D01*
X0029083Y0067260D01*
X0028944Y0067337D01*
X0028808Y0067416D01*
X0028673Y0067500D01*
X0028540Y0067586D01*
X0028410Y0067676D01*
X0028282Y0067769D01*
X0028156Y0067865D01*
X0028033Y0067965D01*
X0027912Y0068067D01*
X0027794Y0068172D01*
X0027679Y0068281D01*
X0027566Y0068392D01*
X0027456Y0068506D01*
X0027349Y0068623D01*
X0027245Y0068742D01*
X0027144Y0068864D01*
X0027047Y0068989D01*
X0026952Y0069116D01*
X0026861Y0069245D01*
X0026772Y0069376D01*
X0026688Y0069510D01*
X0026606Y0069646D01*
X0026528Y0069783D01*
X0026454Y0069923D01*
X0026383Y0070065D01*
X0026315Y0070208D01*
X0026251Y0070353D01*
X0026191Y0070499D01*
X0026135Y0070647D01*
X0026082Y0070796D01*
X0026033Y0070947D01*
X0025988Y0071099D01*
X0025947Y0071252D01*
X0025909Y0071405D01*
X0025876Y0071560D01*
X0025846Y0071716D01*
X0025820Y0071872D01*
X0025799Y0072029D01*
X0025781Y0072186D01*
X0025767Y0072344D01*
X0025757Y0072502D01*
X0025751Y0072660D01*
X0025749Y0072818D01*
X0025749Y0238172D02*
X0025751Y0238330D01*
X0025757Y0238488D01*
X0025767Y0238646D01*
X0025781Y0238804D01*
X0025799Y0238961D01*
X0025820Y0239118D01*
X0025846Y0239274D01*
X0025876Y0239430D01*
X0025909Y0239585D01*
X0025947Y0239738D01*
X0025988Y0239891D01*
X0026033Y0240043D01*
X0026082Y0240194D01*
X0026135Y0240343D01*
X0026191Y0240491D01*
X0026251Y0240637D01*
X0026315Y0240782D01*
X0026383Y0240925D01*
X0026454Y0241067D01*
X0026528Y0241207D01*
X0026606Y0241344D01*
X0026688Y0241480D01*
X0026772Y0241614D01*
X0026861Y0241745D01*
X0026952Y0241874D01*
X0027047Y0242001D01*
X0027144Y0242126D01*
X0027245Y0242248D01*
X0027349Y0242367D01*
X0027456Y0242484D01*
X0027566Y0242598D01*
X0027679Y0242709D01*
X0027794Y0242818D01*
X0027912Y0242923D01*
X0028033Y0243025D01*
X0028156Y0243125D01*
X0028282Y0243221D01*
X0028410Y0243314D01*
X0028540Y0243404D01*
X0028673Y0243490D01*
X0028808Y0243574D01*
X0028944Y0243653D01*
X0029083Y0243730D01*
X0029224Y0243802D01*
X0029366Y0243872D01*
X0029510Y0243937D01*
X0029656Y0243999D01*
X0029803Y0244057D01*
X0029952Y0244112D01*
X0030102Y0244163D01*
X0030253Y0244210D01*
X0030405Y0244253D01*
X0030558Y0244292D01*
X0030713Y0244328D01*
X0030868Y0244359D01*
X0031024Y0244387D01*
X0031180Y0244411D01*
X0031337Y0244431D01*
X0031495Y0244447D01*
X0031652Y0244459D01*
X0031811Y0244467D01*
X0031969Y0244471D01*
X0032127Y0244471D01*
X0032285Y0244467D01*
X0032444Y0244459D01*
X0032601Y0244447D01*
X0032759Y0244431D01*
X0032916Y0244411D01*
X0033072Y0244387D01*
X0033228Y0244359D01*
X0033383Y0244328D01*
X0033538Y0244292D01*
X0033691Y0244253D01*
X0033843Y0244210D01*
X0033994Y0244163D01*
X0034144Y0244112D01*
X0034293Y0244057D01*
X0034440Y0243999D01*
X0034586Y0243937D01*
X0034730Y0243872D01*
X0034872Y0243802D01*
X0035013Y0243730D01*
X0035152Y0243653D01*
X0035288Y0243574D01*
X0035423Y0243490D01*
X0035556Y0243404D01*
X0035686Y0243314D01*
X0035814Y0243221D01*
X0035940Y0243125D01*
X0036063Y0243025D01*
X0036184Y0242923D01*
X0036302Y0242818D01*
X0036417Y0242709D01*
X0036530Y0242598D01*
X0036640Y0242484D01*
X0036747Y0242367D01*
X0036851Y0242248D01*
X0036952Y0242126D01*
X0037049Y0242001D01*
X0037144Y0241874D01*
X0037235Y0241745D01*
X0037324Y0241614D01*
X0037408Y0241480D01*
X0037490Y0241344D01*
X0037568Y0241207D01*
X0037642Y0241067D01*
X0037713Y0240925D01*
X0037781Y0240782D01*
X0037845Y0240637D01*
X0037905Y0240491D01*
X0037961Y0240343D01*
X0038014Y0240194D01*
X0038063Y0240043D01*
X0038108Y0239891D01*
X0038149Y0239738D01*
X0038187Y0239585D01*
X0038220Y0239430D01*
X0038250Y0239274D01*
X0038276Y0239118D01*
X0038297Y0238961D01*
X0038315Y0238804D01*
X0038329Y0238646D01*
X0038339Y0238488D01*
X0038345Y0238330D01*
X0038347Y0238172D01*
X0038345Y0238014D01*
X0038339Y0237856D01*
X0038329Y0237698D01*
X0038315Y0237540D01*
X0038297Y0237383D01*
X0038276Y0237226D01*
X0038250Y0237070D01*
X0038220Y0236914D01*
X0038187Y0236759D01*
X0038149Y0236606D01*
X0038108Y0236453D01*
X0038063Y0236301D01*
X0038014Y0236150D01*
X0037961Y0236001D01*
X0037905Y0235853D01*
X0037845Y0235707D01*
X0037781Y0235562D01*
X0037713Y0235419D01*
X0037642Y0235277D01*
X0037568Y0235137D01*
X0037490Y0235000D01*
X0037408Y0234864D01*
X0037324Y0234730D01*
X0037235Y0234599D01*
X0037144Y0234470D01*
X0037049Y0234343D01*
X0036952Y0234218D01*
X0036851Y0234096D01*
X0036747Y0233977D01*
X0036640Y0233860D01*
X0036530Y0233746D01*
X0036417Y0233635D01*
X0036302Y0233526D01*
X0036184Y0233421D01*
X0036063Y0233319D01*
X0035940Y0233219D01*
X0035814Y0233123D01*
X0035686Y0233030D01*
X0035556Y0232940D01*
X0035423Y0232854D01*
X0035288Y0232770D01*
X0035152Y0232691D01*
X0035013Y0232614D01*
X0034872Y0232542D01*
X0034730Y0232472D01*
X0034586Y0232407D01*
X0034440Y0232345D01*
X0034293Y0232287D01*
X0034144Y0232232D01*
X0033994Y0232181D01*
X0033843Y0232134D01*
X0033691Y0232091D01*
X0033538Y0232052D01*
X0033383Y0232016D01*
X0033228Y0231985D01*
X0033072Y0231957D01*
X0032916Y0231933D01*
X0032759Y0231913D01*
X0032601Y0231897D01*
X0032444Y0231885D01*
X0032285Y0231877D01*
X0032127Y0231873D01*
X0031969Y0231873D01*
X0031811Y0231877D01*
X0031652Y0231885D01*
X0031495Y0231897D01*
X0031337Y0231913D01*
X0031180Y0231933D01*
X0031024Y0231957D01*
X0030868Y0231985D01*
X0030713Y0232016D01*
X0030558Y0232052D01*
X0030405Y0232091D01*
X0030253Y0232134D01*
X0030102Y0232181D01*
X0029952Y0232232D01*
X0029803Y0232287D01*
X0029656Y0232345D01*
X0029510Y0232407D01*
X0029366Y0232472D01*
X0029224Y0232542D01*
X0029083Y0232614D01*
X0028944Y0232691D01*
X0028808Y0232770D01*
X0028673Y0232854D01*
X0028540Y0232940D01*
X0028410Y0233030D01*
X0028282Y0233123D01*
X0028156Y0233219D01*
X0028033Y0233319D01*
X0027912Y0233421D01*
X0027794Y0233526D01*
X0027679Y0233635D01*
X0027566Y0233746D01*
X0027456Y0233860D01*
X0027349Y0233977D01*
X0027245Y0234096D01*
X0027144Y0234218D01*
X0027047Y0234343D01*
X0026952Y0234470D01*
X0026861Y0234599D01*
X0026772Y0234730D01*
X0026688Y0234864D01*
X0026606Y0235000D01*
X0026528Y0235137D01*
X0026454Y0235277D01*
X0026383Y0235419D01*
X0026315Y0235562D01*
X0026251Y0235707D01*
X0026191Y0235853D01*
X0026135Y0236001D01*
X0026082Y0236150D01*
X0026033Y0236301D01*
X0025988Y0236453D01*
X0025947Y0236606D01*
X0025909Y0236759D01*
X0025876Y0236914D01*
X0025846Y0237070D01*
X0025820Y0237226D01*
X0025799Y0237383D01*
X0025781Y0237540D01*
X0025767Y0237698D01*
X0025757Y0237856D01*
X0025751Y0238014D01*
X0025749Y0238172D01*
X0025749Y0277543D02*
X0025751Y0277701D01*
X0025757Y0277859D01*
X0025767Y0278017D01*
X0025781Y0278175D01*
X0025799Y0278332D01*
X0025820Y0278489D01*
X0025846Y0278645D01*
X0025876Y0278801D01*
X0025909Y0278956D01*
X0025947Y0279109D01*
X0025988Y0279262D01*
X0026033Y0279414D01*
X0026082Y0279565D01*
X0026135Y0279714D01*
X0026191Y0279862D01*
X0026251Y0280008D01*
X0026315Y0280153D01*
X0026383Y0280296D01*
X0026454Y0280438D01*
X0026528Y0280578D01*
X0026606Y0280715D01*
X0026688Y0280851D01*
X0026772Y0280985D01*
X0026861Y0281116D01*
X0026952Y0281245D01*
X0027047Y0281372D01*
X0027144Y0281497D01*
X0027245Y0281619D01*
X0027349Y0281738D01*
X0027456Y0281855D01*
X0027566Y0281969D01*
X0027679Y0282080D01*
X0027794Y0282189D01*
X0027912Y0282294D01*
X0028033Y0282396D01*
X0028156Y0282496D01*
X0028282Y0282592D01*
X0028410Y0282685D01*
X0028540Y0282775D01*
X0028673Y0282861D01*
X0028808Y0282945D01*
X0028944Y0283024D01*
X0029083Y0283101D01*
X0029224Y0283173D01*
X0029366Y0283243D01*
X0029510Y0283308D01*
X0029656Y0283370D01*
X0029803Y0283428D01*
X0029952Y0283483D01*
X0030102Y0283534D01*
X0030253Y0283581D01*
X0030405Y0283624D01*
X0030558Y0283663D01*
X0030713Y0283699D01*
X0030868Y0283730D01*
X0031024Y0283758D01*
X0031180Y0283782D01*
X0031337Y0283802D01*
X0031495Y0283818D01*
X0031652Y0283830D01*
X0031811Y0283838D01*
X0031969Y0283842D01*
X0032127Y0283842D01*
X0032285Y0283838D01*
X0032444Y0283830D01*
X0032601Y0283818D01*
X0032759Y0283802D01*
X0032916Y0283782D01*
X0033072Y0283758D01*
X0033228Y0283730D01*
X0033383Y0283699D01*
X0033538Y0283663D01*
X0033691Y0283624D01*
X0033843Y0283581D01*
X0033994Y0283534D01*
X0034144Y0283483D01*
X0034293Y0283428D01*
X0034440Y0283370D01*
X0034586Y0283308D01*
X0034730Y0283243D01*
X0034872Y0283173D01*
X0035013Y0283101D01*
X0035152Y0283024D01*
X0035288Y0282945D01*
X0035423Y0282861D01*
X0035556Y0282775D01*
X0035686Y0282685D01*
X0035814Y0282592D01*
X0035940Y0282496D01*
X0036063Y0282396D01*
X0036184Y0282294D01*
X0036302Y0282189D01*
X0036417Y0282080D01*
X0036530Y0281969D01*
X0036640Y0281855D01*
X0036747Y0281738D01*
X0036851Y0281619D01*
X0036952Y0281497D01*
X0037049Y0281372D01*
X0037144Y0281245D01*
X0037235Y0281116D01*
X0037324Y0280985D01*
X0037408Y0280851D01*
X0037490Y0280715D01*
X0037568Y0280578D01*
X0037642Y0280438D01*
X0037713Y0280296D01*
X0037781Y0280153D01*
X0037845Y0280008D01*
X0037905Y0279862D01*
X0037961Y0279714D01*
X0038014Y0279565D01*
X0038063Y0279414D01*
X0038108Y0279262D01*
X0038149Y0279109D01*
X0038187Y0278956D01*
X0038220Y0278801D01*
X0038250Y0278645D01*
X0038276Y0278489D01*
X0038297Y0278332D01*
X0038315Y0278175D01*
X0038329Y0278017D01*
X0038339Y0277859D01*
X0038345Y0277701D01*
X0038347Y0277543D01*
X0038345Y0277385D01*
X0038339Y0277227D01*
X0038329Y0277069D01*
X0038315Y0276911D01*
X0038297Y0276754D01*
X0038276Y0276597D01*
X0038250Y0276441D01*
X0038220Y0276285D01*
X0038187Y0276130D01*
X0038149Y0275977D01*
X0038108Y0275824D01*
X0038063Y0275672D01*
X0038014Y0275521D01*
X0037961Y0275372D01*
X0037905Y0275224D01*
X0037845Y0275078D01*
X0037781Y0274933D01*
X0037713Y0274790D01*
X0037642Y0274648D01*
X0037568Y0274508D01*
X0037490Y0274371D01*
X0037408Y0274235D01*
X0037324Y0274101D01*
X0037235Y0273970D01*
X0037144Y0273841D01*
X0037049Y0273714D01*
X0036952Y0273589D01*
X0036851Y0273467D01*
X0036747Y0273348D01*
X0036640Y0273231D01*
X0036530Y0273117D01*
X0036417Y0273006D01*
X0036302Y0272897D01*
X0036184Y0272792D01*
X0036063Y0272690D01*
X0035940Y0272590D01*
X0035814Y0272494D01*
X0035686Y0272401D01*
X0035556Y0272311D01*
X0035423Y0272225D01*
X0035288Y0272141D01*
X0035152Y0272062D01*
X0035013Y0271985D01*
X0034872Y0271913D01*
X0034730Y0271843D01*
X0034586Y0271778D01*
X0034440Y0271716D01*
X0034293Y0271658D01*
X0034144Y0271603D01*
X0033994Y0271552D01*
X0033843Y0271505D01*
X0033691Y0271462D01*
X0033538Y0271423D01*
X0033383Y0271387D01*
X0033228Y0271356D01*
X0033072Y0271328D01*
X0032916Y0271304D01*
X0032759Y0271284D01*
X0032601Y0271268D01*
X0032444Y0271256D01*
X0032285Y0271248D01*
X0032127Y0271244D01*
X0031969Y0271244D01*
X0031811Y0271248D01*
X0031652Y0271256D01*
X0031495Y0271268D01*
X0031337Y0271284D01*
X0031180Y0271304D01*
X0031024Y0271328D01*
X0030868Y0271356D01*
X0030713Y0271387D01*
X0030558Y0271423D01*
X0030405Y0271462D01*
X0030253Y0271505D01*
X0030102Y0271552D01*
X0029952Y0271603D01*
X0029803Y0271658D01*
X0029656Y0271716D01*
X0029510Y0271778D01*
X0029366Y0271843D01*
X0029224Y0271913D01*
X0029083Y0271985D01*
X0028944Y0272062D01*
X0028808Y0272141D01*
X0028673Y0272225D01*
X0028540Y0272311D01*
X0028410Y0272401D01*
X0028282Y0272494D01*
X0028156Y0272590D01*
X0028033Y0272690D01*
X0027912Y0272792D01*
X0027794Y0272897D01*
X0027679Y0273006D01*
X0027566Y0273117D01*
X0027456Y0273231D01*
X0027349Y0273348D01*
X0027245Y0273467D01*
X0027144Y0273589D01*
X0027047Y0273714D01*
X0026952Y0273841D01*
X0026861Y0273970D01*
X0026772Y0274101D01*
X0026688Y0274235D01*
X0026606Y0274371D01*
X0026528Y0274508D01*
X0026454Y0274648D01*
X0026383Y0274790D01*
X0026315Y0274933D01*
X0026251Y0275078D01*
X0026191Y0275224D01*
X0026135Y0275372D01*
X0026082Y0275521D01*
X0026033Y0275672D01*
X0025988Y0275824D01*
X0025947Y0275977D01*
X0025909Y0276130D01*
X0025876Y0276285D01*
X0025846Y0276441D01*
X0025820Y0276597D01*
X0025799Y0276754D01*
X0025781Y0276911D01*
X0025767Y0277069D01*
X0025757Y0277227D01*
X0025751Y0277385D01*
X0025749Y0277543D01*
X0191103Y0238172D02*
X0191105Y0238330D01*
X0191111Y0238488D01*
X0191121Y0238646D01*
X0191135Y0238804D01*
X0191153Y0238961D01*
X0191174Y0239118D01*
X0191200Y0239274D01*
X0191230Y0239430D01*
X0191263Y0239585D01*
X0191301Y0239738D01*
X0191342Y0239891D01*
X0191387Y0240043D01*
X0191436Y0240194D01*
X0191489Y0240343D01*
X0191545Y0240491D01*
X0191605Y0240637D01*
X0191669Y0240782D01*
X0191737Y0240925D01*
X0191808Y0241067D01*
X0191882Y0241207D01*
X0191960Y0241344D01*
X0192042Y0241480D01*
X0192126Y0241614D01*
X0192215Y0241745D01*
X0192306Y0241874D01*
X0192401Y0242001D01*
X0192498Y0242126D01*
X0192599Y0242248D01*
X0192703Y0242367D01*
X0192810Y0242484D01*
X0192920Y0242598D01*
X0193033Y0242709D01*
X0193148Y0242818D01*
X0193266Y0242923D01*
X0193387Y0243025D01*
X0193510Y0243125D01*
X0193636Y0243221D01*
X0193764Y0243314D01*
X0193894Y0243404D01*
X0194027Y0243490D01*
X0194162Y0243574D01*
X0194298Y0243653D01*
X0194437Y0243730D01*
X0194578Y0243802D01*
X0194720Y0243872D01*
X0194864Y0243937D01*
X0195010Y0243999D01*
X0195157Y0244057D01*
X0195306Y0244112D01*
X0195456Y0244163D01*
X0195607Y0244210D01*
X0195759Y0244253D01*
X0195912Y0244292D01*
X0196067Y0244328D01*
X0196222Y0244359D01*
X0196378Y0244387D01*
X0196534Y0244411D01*
X0196691Y0244431D01*
X0196849Y0244447D01*
X0197006Y0244459D01*
X0197165Y0244467D01*
X0197323Y0244471D01*
X0197481Y0244471D01*
X0197639Y0244467D01*
X0197798Y0244459D01*
X0197955Y0244447D01*
X0198113Y0244431D01*
X0198270Y0244411D01*
X0198426Y0244387D01*
X0198582Y0244359D01*
X0198737Y0244328D01*
X0198892Y0244292D01*
X0199045Y0244253D01*
X0199197Y0244210D01*
X0199348Y0244163D01*
X0199498Y0244112D01*
X0199647Y0244057D01*
X0199794Y0243999D01*
X0199940Y0243937D01*
X0200084Y0243872D01*
X0200226Y0243802D01*
X0200367Y0243730D01*
X0200506Y0243653D01*
X0200642Y0243574D01*
X0200777Y0243490D01*
X0200910Y0243404D01*
X0201040Y0243314D01*
X0201168Y0243221D01*
X0201294Y0243125D01*
X0201417Y0243025D01*
X0201538Y0242923D01*
X0201656Y0242818D01*
X0201771Y0242709D01*
X0201884Y0242598D01*
X0201994Y0242484D01*
X0202101Y0242367D01*
X0202205Y0242248D01*
X0202306Y0242126D01*
X0202403Y0242001D01*
X0202498Y0241874D01*
X0202589Y0241745D01*
X0202678Y0241614D01*
X0202762Y0241480D01*
X0202844Y0241344D01*
X0202922Y0241207D01*
X0202996Y0241067D01*
X0203067Y0240925D01*
X0203135Y0240782D01*
X0203199Y0240637D01*
X0203259Y0240491D01*
X0203315Y0240343D01*
X0203368Y0240194D01*
X0203417Y0240043D01*
X0203462Y0239891D01*
X0203503Y0239738D01*
X0203541Y0239585D01*
X0203574Y0239430D01*
X0203604Y0239274D01*
X0203630Y0239118D01*
X0203651Y0238961D01*
X0203669Y0238804D01*
X0203683Y0238646D01*
X0203693Y0238488D01*
X0203699Y0238330D01*
X0203701Y0238172D01*
X0203699Y0238014D01*
X0203693Y0237856D01*
X0203683Y0237698D01*
X0203669Y0237540D01*
X0203651Y0237383D01*
X0203630Y0237226D01*
X0203604Y0237070D01*
X0203574Y0236914D01*
X0203541Y0236759D01*
X0203503Y0236606D01*
X0203462Y0236453D01*
X0203417Y0236301D01*
X0203368Y0236150D01*
X0203315Y0236001D01*
X0203259Y0235853D01*
X0203199Y0235707D01*
X0203135Y0235562D01*
X0203067Y0235419D01*
X0202996Y0235277D01*
X0202922Y0235137D01*
X0202844Y0235000D01*
X0202762Y0234864D01*
X0202678Y0234730D01*
X0202589Y0234599D01*
X0202498Y0234470D01*
X0202403Y0234343D01*
X0202306Y0234218D01*
X0202205Y0234096D01*
X0202101Y0233977D01*
X0201994Y0233860D01*
X0201884Y0233746D01*
X0201771Y0233635D01*
X0201656Y0233526D01*
X0201538Y0233421D01*
X0201417Y0233319D01*
X0201294Y0233219D01*
X0201168Y0233123D01*
X0201040Y0233030D01*
X0200910Y0232940D01*
X0200777Y0232854D01*
X0200642Y0232770D01*
X0200506Y0232691D01*
X0200367Y0232614D01*
X0200226Y0232542D01*
X0200084Y0232472D01*
X0199940Y0232407D01*
X0199794Y0232345D01*
X0199647Y0232287D01*
X0199498Y0232232D01*
X0199348Y0232181D01*
X0199197Y0232134D01*
X0199045Y0232091D01*
X0198892Y0232052D01*
X0198737Y0232016D01*
X0198582Y0231985D01*
X0198426Y0231957D01*
X0198270Y0231933D01*
X0198113Y0231913D01*
X0197955Y0231897D01*
X0197798Y0231885D01*
X0197639Y0231877D01*
X0197481Y0231873D01*
X0197323Y0231873D01*
X0197165Y0231877D01*
X0197006Y0231885D01*
X0196849Y0231897D01*
X0196691Y0231913D01*
X0196534Y0231933D01*
X0196378Y0231957D01*
X0196222Y0231985D01*
X0196067Y0232016D01*
X0195912Y0232052D01*
X0195759Y0232091D01*
X0195607Y0232134D01*
X0195456Y0232181D01*
X0195306Y0232232D01*
X0195157Y0232287D01*
X0195010Y0232345D01*
X0194864Y0232407D01*
X0194720Y0232472D01*
X0194578Y0232542D01*
X0194437Y0232614D01*
X0194298Y0232691D01*
X0194162Y0232770D01*
X0194027Y0232854D01*
X0193894Y0232940D01*
X0193764Y0233030D01*
X0193636Y0233123D01*
X0193510Y0233219D01*
X0193387Y0233319D01*
X0193266Y0233421D01*
X0193148Y0233526D01*
X0193033Y0233635D01*
X0192920Y0233746D01*
X0192810Y0233860D01*
X0192703Y0233977D01*
X0192599Y0234096D01*
X0192498Y0234218D01*
X0192401Y0234343D01*
X0192306Y0234470D01*
X0192215Y0234599D01*
X0192126Y0234730D01*
X0192042Y0234864D01*
X0191960Y0235000D01*
X0191882Y0235137D01*
X0191808Y0235277D01*
X0191737Y0235419D01*
X0191669Y0235562D01*
X0191605Y0235707D01*
X0191545Y0235853D01*
X0191489Y0236001D01*
X0191436Y0236150D01*
X0191387Y0236301D01*
X0191342Y0236453D01*
X0191301Y0236606D01*
X0191263Y0236759D01*
X0191230Y0236914D01*
X0191200Y0237070D01*
X0191174Y0237226D01*
X0191153Y0237383D01*
X0191135Y0237540D01*
X0191121Y0237698D01*
X0191111Y0237856D01*
X0191105Y0238014D01*
X0191103Y0238172D01*
X0269844Y0277543D02*
X0269846Y0277701D01*
X0269852Y0277859D01*
X0269862Y0278017D01*
X0269876Y0278175D01*
X0269894Y0278332D01*
X0269915Y0278489D01*
X0269941Y0278645D01*
X0269971Y0278801D01*
X0270004Y0278956D01*
X0270042Y0279109D01*
X0270083Y0279262D01*
X0270128Y0279414D01*
X0270177Y0279565D01*
X0270230Y0279714D01*
X0270286Y0279862D01*
X0270346Y0280008D01*
X0270410Y0280153D01*
X0270478Y0280296D01*
X0270549Y0280438D01*
X0270623Y0280578D01*
X0270701Y0280715D01*
X0270783Y0280851D01*
X0270867Y0280985D01*
X0270956Y0281116D01*
X0271047Y0281245D01*
X0271142Y0281372D01*
X0271239Y0281497D01*
X0271340Y0281619D01*
X0271444Y0281738D01*
X0271551Y0281855D01*
X0271661Y0281969D01*
X0271774Y0282080D01*
X0271889Y0282189D01*
X0272007Y0282294D01*
X0272128Y0282396D01*
X0272251Y0282496D01*
X0272377Y0282592D01*
X0272505Y0282685D01*
X0272635Y0282775D01*
X0272768Y0282861D01*
X0272903Y0282945D01*
X0273039Y0283024D01*
X0273178Y0283101D01*
X0273319Y0283173D01*
X0273461Y0283243D01*
X0273605Y0283308D01*
X0273751Y0283370D01*
X0273898Y0283428D01*
X0274047Y0283483D01*
X0274197Y0283534D01*
X0274348Y0283581D01*
X0274500Y0283624D01*
X0274653Y0283663D01*
X0274808Y0283699D01*
X0274963Y0283730D01*
X0275119Y0283758D01*
X0275275Y0283782D01*
X0275432Y0283802D01*
X0275590Y0283818D01*
X0275747Y0283830D01*
X0275906Y0283838D01*
X0276064Y0283842D01*
X0276222Y0283842D01*
X0276380Y0283838D01*
X0276539Y0283830D01*
X0276696Y0283818D01*
X0276854Y0283802D01*
X0277011Y0283782D01*
X0277167Y0283758D01*
X0277323Y0283730D01*
X0277478Y0283699D01*
X0277633Y0283663D01*
X0277786Y0283624D01*
X0277938Y0283581D01*
X0278089Y0283534D01*
X0278239Y0283483D01*
X0278388Y0283428D01*
X0278535Y0283370D01*
X0278681Y0283308D01*
X0278825Y0283243D01*
X0278967Y0283173D01*
X0279108Y0283101D01*
X0279247Y0283024D01*
X0279383Y0282945D01*
X0279518Y0282861D01*
X0279651Y0282775D01*
X0279781Y0282685D01*
X0279909Y0282592D01*
X0280035Y0282496D01*
X0280158Y0282396D01*
X0280279Y0282294D01*
X0280397Y0282189D01*
X0280512Y0282080D01*
X0280625Y0281969D01*
X0280735Y0281855D01*
X0280842Y0281738D01*
X0280946Y0281619D01*
X0281047Y0281497D01*
X0281144Y0281372D01*
X0281239Y0281245D01*
X0281330Y0281116D01*
X0281419Y0280985D01*
X0281503Y0280851D01*
X0281585Y0280715D01*
X0281663Y0280578D01*
X0281737Y0280438D01*
X0281808Y0280296D01*
X0281876Y0280153D01*
X0281940Y0280008D01*
X0282000Y0279862D01*
X0282056Y0279714D01*
X0282109Y0279565D01*
X0282158Y0279414D01*
X0282203Y0279262D01*
X0282244Y0279109D01*
X0282282Y0278956D01*
X0282315Y0278801D01*
X0282345Y0278645D01*
X0282371Y0278489D01*
X0282392Y0278332D01*
X0282410Y0278175D01*
X0282424Y0278017D01*
X0282434Y0277859D01*
X0282440Y0277701D01*
X0282442Y0277543D01*
X0282440Y0277385D01*
X0282434Y0277227D01*
X0282424Y0277069D01*
X0282410Y0276911D01*
X0282392Y0276754D01*
X0282371Y0276597D01*
X0282345Y0276441D01*
X0282315Y0276285D01*
X0282282Y0276130D01*
X0282244Y0275977D01*
X0282203Y0275824D01*
X0282158Y0275672D01*
X0282109Y0275521D01*
X0282056Y0275372D01*
X0282000Y0275224D01*
X0281940Y0275078D01*
X0281876Y0274933D01*
X0281808Y0274790D01*
X0281737Y0274648D01*
X0281663Y0274508D01*
X0281585Y0274371D01*
X0281503Y0274235D01*
X0281419Y0274101D01*
X0281330Y0273970D01*
X0281239Y0273841D01*
X0281144Y0273714D01*
X0281047Y0273589D01*
X0280946Y0273467D01*
X0280842Y0273348D01*
X0280735Y0273231D01*
X0280625Y0273117D01*
X0280512Y0273006D01*
X0280397Y0272897D01*
X0280279Y0272792D01*
X0280158Y0272690D01*
X0280035Y0272590D01*
X0279909Y0272494D01*
X0279781Y0272401D01*
X0279651Y0272311D01*
X0279518Y0272225D01*
X0279383Y0272141D01*
X0279247Y0272062D01*
X0279108Y0271985D01*
X0278967Y0271913D01*
X0278825Y0271843D01*
X0278681Y0271778D01*
X0278535Y0271716D01*
X0278388Y0271658D01*
X0278239Y0271603D01*
X0278089Y0271552D01*
X0277938Y0271505D01*
X0277786Y0271462D01*
X0277633Y0271423D01*
X0277478Y0271387D01*
X0277323Y0271356D01*
X0277167Y0271328D01*
X0277011Y0271304D01*
X0276854Y0271284D01*
X0276696Y0271268D01*
X0276539Y0271256D01*
X0276380Y0271248D01*
X0276222Y0271244D01*
X0276064Y0271244D01*
X0275906Y0271248D01*
X0275747Y0271256D01*
X0275590Y0271268D01*
X0275432Y0271284D01*
X0275275Y0271304D01*
X0275119Y0271328D01*
X0274963Y0271356D01*
X0274808Y0271387D01*
X0274653Y0271423D01*
X0274500Y0271462D01*
X0274348Y0271505D01*
X0274197Y0271552D01*
X0274047Y0271603D01*
X0273898Y0271658D01*
X0273751Y0271716D01*
X0273605Y0271778D01*
X0273461Y0271843D01*
X0273319Y0271913D01*
X0273178Y0271985D01*
X0273039Y0272062D01*
X0272903Y0272141D01*
X0272768Y0272225D01*
X0272635Y0272311D01*
X0272505Y0272401D01*
X0272377Y0272494D01*
X0272251Y0272590D01*
X0272128Y0272690D01*
X0272007Y0272792D01*
X0271889Y0272897D01*
X0271774Y0273006D01*
X0271661Y0273117D01*
X0271551Y0273231D01*
X0271444Y0273348D01*
X0271340Y0273467D01*
X0271239Y0273589D01*
X0271142Y0273714D01*
X0271047Y0273841D01*
X0270956Y0273970D01*
X0270867Y0274101D01*
X0270783Y0274235D01*
X0270701Y0274371D01*
X0270623Y0274508D01*
X0270549Y0274648D01*
X0270478Y0274790D01*
X0270410Y0274933D01*
X0270346Y0275078D01*
X0270286Y0275224D01*
X0270230Y0275372D01*
X0270177Y0275521D01*
X0270128Y0275672D01*
X0270083Y0275824D01*
X0270042Y0275977D01*
X0270004Y0276130D01*
X0269971Y0276285D01*
X0269941Y0276441D01*
X0269915Y0276597D01*
X0269894Y0276754D01*
X0269876Y0276911D01*
X0269862Y0277069D01*
X0269852Y0277227D01*
X0269846Y0277385D01*
X0269844Y0277543D01*
X0191103Y0072818D02*
X0191105Y0072976D01*
X0191111Y0073134D01*
X0191121Y0073292D01*
X0191135Y0073450D01*
X0191153Y0073607D01*
X0191174Y0073764D01*
X0191200Y0073920D01*
X0191230Y0074076D01*
X0191263Y0074231D01*
X0191301Y0074384D01*
X0191342Y0074537D01*
X0191387Y0074689D01*
X0191436Y0074840D01*
X0191489Y0074989D01*
X0191545Y0075137D01*
X0191605Y0075283D01*
X0191669Y0075428D01*
X0191737Y0075571D01*
X0191808Y0075713D01*
X0191882Y0075853D01*
X0191960Y0075990D01*
X0192042Y0076126D01*
X0192126Y0076260D01*
X0192215Y0076391D01*
X0192306Y0076520D01*
X0192401Y0076647D01*
X0192498Y0076772D01*
X0192599Y0076894D01*
X0192703Y0077013D01*
X0192810Y0077130D01*
X0192920Y0077244D01*
X0193033Y0077355D01*
X0193148Y0077464D01*
X0193266Y0077569D01*
X0193387Y0077671D01*
X0193510Y0077771D01*
X0193636Y0077867D01*
X0193764Y0077960D01*
X0193894Y0078050D01*
X0194027Y0078136D01*
X0194162Y0078220D01*
X0194298Y0078299D01*
X0194437Y0078376D01*
X0194578Y0078448D01*
X0194720Y0078518D01*
X0194864Y0078583D01*
X0195010Y0078645D01*
X0195157Y0078703D01*
X0195306Y0078758D01*
X0195456Y0078809D01*
X0195607Y0078856D01*
X0195759Y0078899D01*
X0195912Y0078938D01*
X0196067Y0078974D01*
X0196222Y0079005D01*
X0196378Y0079033D01*
X0196534Y0079057D01*
X0196691Y0079077D01*
X0196849Y0079093D01*
X0197006Y0079105D01*
X0197165Y0079113D01*
X0197323Y0079117D01*
X0197481Y0079117D01*
X0197639Y0079113D01*
X0197798Y0079105D01*
X0197955Y0079093D01*
X0198113Y0079077D01*
X0198270Y0079057D01*
X0198426Y0079033D01*
X0198582Y0079005D01*
X0198737Y0078974D01*
X0198892Y0078938D01*
X0199045Y0078899D01*
X0199197Y0078856D01*
X0199348Y0078809D01*
X0199498Y0078758D01*
X0199647Y0078703D01*
X0199794Y0078645D01*
X0199940Y0078583D01*
X0200084Y0078518D01*
X0200226Y0078448D01*
X0200367Y0078376D01*
X0200506Y0078299D01*
X0200642Y0078220D01*
X0200777Y0078136D01*
X0200910Y0078050D01*
X0201040Y0077960D01*
X0201168Y0077867D01*
X0201294Y0077771D01*
X0201417Y0077671D01*
X0201538Y0077569D01*
X0201656Y0077464D01*
X0201771Y0077355D01*
X0201884Y0077244D01*
X0201994Y0077130D01*
X0202101Y0077013D01*
X0202205Y0076894D01*
X0202306Y0076772D01*
X0202403Y0076647D01*
X0202498Y0076520D01*
X0202589Y0076391D01*
X0202678Y0076260D01*
X0202762Y0076126D01*
X0202844Y0075990D01*
X0202922Y0075853D01*
X0202996Y0075713D01*
X0203067Y0075571D01*
X0203135Y0075428D01*
X0203199Y0075283D01*
X0203259Y0075137D01*
X0203315Y0074989D01*
X0203368Y0074840D01*
X0203417Y0074689D01*
X0203462Y0074537D01*
X0203503Y0074384D01*
X0203541Y0074231D01*
X0203574Y0074076D01*
X0203604Y0073920D01*
X0203630Y0073764D01*
X0203651Y0073607D01*
X0203669Y0073450D01*
X0203683Y0073292D01*
X0203693Y0073134D01*
X0203699Y0072976D01*
X0203701Y0072818D01*
X0203699Y0072660D01*
X0203693Y0072502D01*
X0203683Y0072344D01*
X0203669Y0072186D01*
X0203651Y0072029D01*
X0203630Y0071872D01*
X0203604Y0071716D01*
X0203574Y0071560D01*
X0203541Y0071405D01*
X0203503Y0071252D01*
X0203462Y0071099D01*
X0203417Y0070947D01*
X0203368Y0070796D01*
X0203315Y0070647D01*
X0203259Y0070499D01*
X0203199Y0070353D01*
X0203135Y0070208D01*
X0203067Y0070065D01*
X0202996Y0069923D01*
X0202922Y0069783D01*
X0202844Y0069646D01*
X0202762Y0069510D01*
X0202678Y0069376D01*
X0202589Y0069245D01*
X0202498Y0069116D01*
X0202403Y0068989D01*
X0202306Y0068864D01*
X0202205Y0068742D01*
X0202101Y0068623D01*
X0201994Y0068506D01*
X0201884Y0068392D01*
X0201771Y0068281D01*
X0201656Y0068172D01*
X0201538Y0068067D01*
X0201417Y0067965D01*
X0201294Y0067865D01*
X0201168Y0067769D01*
X0201040Y0067676D01*
X0200910Y0067586D01*
X0200777Y0067500D01*
X0200642Y0067416D01*
X0200506Y0067337D01*
X0200367Y0067260D01*
X0200226Y0067188D01*
X0200084Y0067118D01*
X0199940Y0067053D01*
X0199794Y0066991D01*
X0199647Y0066933D01*
X0199498Y0066878D01*
X0199348Y0066827D01*
X0199197Y0066780D01*
X0199045Y0066737D01*
X0198892Y0066698D01*
X0198737Y0066662D01*
X0198582Y0066631D01*
X0198426Y0066603D01*
X0198270Y0066579D01*
X0198113Y0066559D01*
X0197955Y0066543D01*
X0197798Y0066531D01*
X0197639Y0066523D01*
X0197481Y0066519D01*
X0197323Y0066519D01*
X0197165Y0066523D01*
X0197006Y0066531D01*
X0196849Y0066543D01*
X0196691Y0066559D01*
X0196534Y0066579D01*
X0196378Y0066603D01*
X0196222Y0066631D01*
X0196067Y0066662D01*
X0195912Y0066698D01*
X0195759Y0066737D01*
X0195607Y0066780D01*
X0195456Y0066827D01*
X0195306Y0066878D01*
X0195157Y0066933D01*
X0195010Y0066991D01*
X0194864Y0067053D01*
X0194720Y0067118D01*
X0194578Y0067188D01*
X0194437Y0067260D01*
X0194298Y0067337D01*
X0194162Y0067416D01*
X0194027Y0067500D01*
X0193894Y0067586D01*
X0193764Y0067676D01*
X0193636Y0067769D01*
X0193510Y0067865D01*
X0193387Y0067965D01*
X0193266Y0068067D01*
X0193148Y0068172D01*
X0193033Y0068281D01*
X0192920Y0068392D01*
X0192810Y0068506D01*
X0192703Y0068623D01*
X0192599Y0068742D01*
X0192498Y0068864D01*
X0192401Y0068989D01*
X0192306Y0069116D01*
X0192215Y0069245D01*
X0192126Y0069376D01*
X0192042Y0069510D01*
X0191960Y0069646D01*
X0191882Y0069783D01*
X0191808Y0069923D01*
X0191737Y0070065D01*
X0191669Y0070208D01*
X0191605Y0070353D01*
X0191545Y0070499D01*
X0191489Y0070647D01*
X0191436Y0070796D01*
X0191387Y0070947D01*
X0191342Y0071099D01*
X0191301Y0071252D01*
X0191263Y0071405D01*
X0191230Y0071560D01*
X0191200Y0071716D01*
X0191174Y0071872D01*
X0191153Y0072029D01*
X0191135Y0072186D01*
X0191121Y0072344D01*
X0191111Y0072502D01*
X0191105Y0072660D01*
X0191103Y0072818D01*
X0269844Y0033448D02*
X0269846Y0033606D01*
X0269852Y0033764D01*
X0269862Y0033922D01*
X0269876Y0034080D01*
X0269894Y0034237D01*
X0269915Y0034394D01*
X0269941Y0034550D01*
X0269971Y0034706D01*
X0270004Y0034861D01*
X0270042Y0035014D01*
X0270083Y0035167D01*
X0270128Y0035319D01*
X0270177Y0035470D01*
X0270230Y0035619D01*
X0270286Y0035767D01*
X0270346Y0035913D01*
X0270410Y0036058D01*
X0270478Y0036201D01*
X0270549Y0036343D01*
X0270623Y0036483D01*
X0270701Y0036620D01*
X0270783Y0036756D01*
X0270867Y0036890D01*
X0270956Y0037021D01*
X0271047Y0037150D01*
X0271142Y0037277D01*
X0271239Y0037402D01*
X0271340Y0037524D01*
X0271444Y0037643D01*
X0271551Y0037760D01*
X0271661Y0037874D01*
X0271774Y0037985D01*
X0271889Y0038094D01*
X0272007Y0038199D01*
X0272128Y0038301D01*
X0272251Y0038401D01*
X0272377Y0038497D01*
X0272505Y0038590D01*
X0272635Y0038680D01*
X0272768Y0038766D01*
X0272903Y0038850D01*
X0273039Y0038929D01*
X0273178Y0039006D01*
X0273319Y0039078D01*
X0273461Y0039148D01*
X0273605Y0039213D01*
X0273751Y0039275D01*
X0273898Y0039333D01*
X0274047Y0039388D01*
X0274197Y0039439D01*
X0274348Y0039486D01*
X0274500Y0039529D01*
X0274653Y0039568D01*
X0274808Y0039604D01*
X0274963Y0039635D01*
X0275119Y0039663D01*
X0275275Y0039687D01*
X0275432Y0039707D01*
X0275590Y0039723D01*
X0275747Y0039735D01*
X0275906Y0039743D01*
X0276064Y0039747D01*
X0276222Y0039747D01*
X0276380Y0039743D01*
X0276539Y0039735D01*
X0276696Y0039723D01*
X0276854Y0039707D01*
X0277011Y0039687D01*
X0277167Y0039663D01*
X0277323Y0039635D01*
X0277478Y0039604D01*
X0277633Y0039568D01*
X0277786Y0039529D01*
X0277938Y0039486D01*
X0278089Y0039439D01*
X0278239Y0039388D01*
X0278388Y0039333D01*
X0278535Y0039275D01*
X0278681Y0039213D01*
X0278825Y0039148D01*
X0278967Y0039078D01*
X0279108Y0039006D01*
X0279247Y0038929D01*
X0279383Y0038850D01*
X0279518Y0038766D01*
X0279651Y0038680D01*
X0279781Y0038590D01*
X0279909Y0038497D01*
X0280035Y0038401D01*
X0280158Y0038301D01*
X0280279Y0038199D01*
X0280397Y0038094D01*
X0280512Y0037985D01*
X0280625Y0037874D01*
X0280735Y0037760D01*
X0280842Y0037643D01*
X0280946Y0037524D01*
X0281047Y0037402D01*
X0281144Y0037277D01*
X0281239Y0037150D01*
X0281330Y0037021D01*
X0281419Y0036890D01*
X0281503Y0036756D01*
X0281585Y0036620D01*
X0281663Y0036483D01*
X0281737Y0036343D01*
X0281808Y0036201D01*
X0281876Y0036058D01*
X0281940Y0035913D01*
X0282000Y0035767D01*
X0282056Y0035619D01*
X0282109Y0035470D01*
X0282158Y0035319D01*
X0282203Y0035167D01*
X0282244Y0035014D01*
X0282282Y0034861D01*
X0282315Y0034706D01*
X0282345Y0034550D01*
X0282371Y0034394D01*
X0282392Y0034237D01*
X0282410Y0034080D01*
X0282424Y0033922D01*
X0282434Y0033764D01*
X0282440Y0033606D01*
X0282442Y0033448D01*
X0282440Y0033290D01*
X0282434Y0033132D01*
X0282424Y0032974D01*
X0282410Y0032816D01*
X0282392Y0032659D01*
X0282371Y0032502D01*
X0282345Y0032346D01*
X0282315Y0032190D01*
X0282282Y0032035D01*
X0282244Y0031882D01*
X0282203Y0031729D01*
X0282158Y0031577D01*
X0282109Y0031426D01*
X0282056Y0031277D01*
X0282000Y0031129D01*
X0281940Y0030983D01*
X0281876Y0030838D01*
X0281808Y0030695D01*
X0281737Y0030553D01*
X0281663Y0030413D01*
X0281585Y0030276D01*
X0281503Y0030140D01*
X0281419Y0030006D01*
X0281330Y0029875D01*
X0281239Y0029746D01*
X0281144Y0029619D01*
X0281047Y0029494D01*
X0280946Y0029372D01*
X0280842Y0029253D01*
X0280735Y0029136D01*
X0280625Y0029022D01*
X0280512Y0028911D01*
X0280397Y0028802D01*
X0280279Y0028697D01*
X0280158Y0028595D01*
X0280035Y0028495D01*
X0279909Y0028399D01*
X0279781Y0028306D01*
X0279651Y0028216D01*
X0279518Y0028130D01*
X0279383Y0028046D01*
X0279247Y0027967D01*
X0279108Y0027890D01*
X0278967Y0027818D01*
X0278825Y0027748D01*
X0278681Y0027683D01*
X0278535Y0027621D01*
X0278388Y0027563D01*
X0278239Y0027508D01*
X0278089Y0027457D01*
X0277938Y0027410D01*
X0277786Y0027367D01*
X0277633Y0027328D01*
X0277478Y0027292D01*
X0277323Y0027261D01*
X0277167Y0027233D01*
X0277011Y0027209D01*
X0276854Y0027189D01*
X0276696Y0027173D01*
X0276539Y0027161D01*
X0276380Y0027153D01*
X0276222Y0027149D01*
X0276064Y0027149D01*
X0275906Y0027153D01*
X0275747Y0027161D01*
X0275590Y0027173D01*
X0275432Y0027189D01*
X0275275Y0027209D01*
X0275119Y0027233D01*
X0274963Y0027261D01*
X0274808Y0027292D01*
X0274653Y0027328D01*
X0274500Y0027367D01*
X0274348Y0027410D01*
X0274197Y0027457D01*
X0274047Y0027508D01*
X0273898Y0027563D01*
X0273751Y0027621D01*
X0273605Y0027683D01*
X0273461Y0027748D01*
X0273319Y0027818D01*
X0273178Y0027890D01*
X0273039Y0027967D01*
X0272903Y0028046D01*
X0272768Y0028130D01*
X0272635Y0028216D01*
X0272505Y0028306D01*
X0272377Y0028399D01*
X0272251Y0028495D01*
X0272128Y0028595D01*
X0272007Y0028697D01*
X0271889Y0028802D01*
X0271774Y0028911D01*
X0271661Y0029022D01*
X0271551Y0029136D01*
X0271444Y0029253D01*
X0271340Y0029372D01*
X0271239Y0029494D01*
X0271142Y0029619D01*
X0271047Y0029746D01*
X0270956Y0029875D01*
X0270867Y0030006D01*
X0270783Y0030140D01*
X0270701Y0030276D01*
X0270623Y0030413D01*
X0270549Y0030553D01*
X0270478Y0030695D01*
X0270410Y0030838D01*
X0270346Y0030983D01*
X0270286Y0031129D01*
X0270230Y0031277D01*
X0270177Y0031426D01*
X0270128Y0031577D01*
X0270083Y0031729D01*
X0270042Y0031882D01*
X0270004Y0032035D01*
X0269971Y0032190D01*
X0269941Y0032346D01*
X0269915Y0032502D01*
X0269894Y0032659D01*
X0269876Y0032816D01*
X0269862Y0032974D01*
X0269852Y0033132D01*
X0269846Y0033290D01*
X0269844Y0033448D01*
D18*
X0264350Y0033429D02*
X0264354Y0033719D01*
X0264364Y0034009D01*
X0264382Y0034298D01*
X0264407Y0034587D01*
X0264439Y0034875D01*
X0264478Y0035162D01*
X0264524Y0035448D01*
X0264577Y0035733D01*
X0264637Y0036017D01*
X0264704Y0036299D01*
X0264778Y0036579D01*
X0264859Y0036858D01*
X0264946Y0037134D01*
X0265040Y0037408D01*
X0265141Y0037680D01*
X0265249Y0037949D01*
X0265363Y0038215D01*
X0265484Y0038479D01*
X0265611Y0038739D01*
X0265745Y0038997D01*
X0265884Y0039251D01*
X0266030Y0039501D01*
X0266182Y0039748D01*
X0266341Y0039991D01*
X0266505Y0040230D01*
X0266674Y0040465D01*
X0266850Y0040696D01*
X0267031Y0040922D01*
X0267218Y0041144D01*
X0267410Y0041361D01*
X0267607Y0041573D01*
X0267809Y0041781D01*
X0268017Y0041983D01*
X0268229Y0042180D01*
X0268446Y0042372D01*
X0268668Y0042559D01*
X0268894Y0042740D01*
X0269125Y0042916D01*
X0269360Y0043085D01*
X0269599Y0043249D01*
X0269842Y0043408D01*
X0270089Y0043560D01*
X0270339Y0043706D01*
X0270593Y0043845D01*
X0270851Y0043979D01*
X0271111Y0044106D01*
X0271375Y0044227D01*
X0271641Y0044341D01*
X0271910Y0044449D01*
X0272182Y0044550D01*
X0272456Y0044644D01*
X0272732Y0044731D01*
X0273011Y0044812D01*
X0273291Y0044886D01*
X0273573Y0044953D01*
X0273857Y0045013D01*
X0274142Y0045066D01*
X0274428Y0045112D01*
X0274715Y0045151D01*
X0275003Y0045183D01*
X0275292Y0045208D01*
X0275581Y0045226D01*
X0275871Y0045236D01*
X0276161Y0045240D01*
X0276451Y0045236D01*
X0276741Y0045226D01*
X0277030Y0045208D01*
X0277319Y0045183D01*
X0277607Y0045151D01*
X0277894Y0045112D01*
X0278180Y0045066D01*
X0278465Y0045013D01*
X0278749Y0044953D01*
X0279031Y0044886D01*
X0279311Y0044812D01*
X0279590Y0044731D01*
X0279866Y0044644D01*
X0280140Y0044550D01*
X0280412Y0044449D01*
X0280681Y0044341D01*
X0280947Y0044227D01*
X0281211Y0044106D01*
X0281471Y0043979D01*
X0281729Y0043845D01*
X0281983Y0043706D01*
X0282233Y0043560D01*
X0282480Y0043408D01*
X0282723Y0043249D01*
X0282962Y0043085D01*
X0283197Y0042916D01*
X0283428Y0042740D01*
X0283654Y0042559D01*
X0283876Y0042372D01*
X0284093Y0042180D01*
X0284305Y0041983D01*
X0284513Y0041781D01*
X0284715Y0041573D01*
X0284912Y0041361D01*
X0285104Y0041144D01*
X0285291Y0040922D01*
X0285472Y0040696D01*
X0285648Y0040465D01*
X0285817Y0040230D01*
X0285981Y0039991D01*
X0286140Y0039748D01*
X0286292Y0039501D01*
X0286438Y0039251D01*
X0286577Y0038997D01*
X0286711Y0038739D01*
X0286838Y0038479D01*
X0286959Y0038215D01*
X0287073Y0037949D01*
X0287181Y0037680D01*
X0287282Y0037408D01*
X0287376Y0037134D01*
X0287463Y0036858D01*
X0287544Y0036579D01*
X0287618Y0036299D01*
X0287685Y0036017D01*
X0287745Y0035733D01*
X0287798Y0035448D01*
X0287844Y0035162D01*
X0287883Y0034875D01*
X0287915Y0034587D01*
X0287940Y0034298D01*
X0287958Y0034009D01*
X0287968Y0033719D01*
X0287972Y0033429D01*
X0287968Y0033139D01*
X0287958Y0032849D01*
X0287940Y0032560D01*
X0287915Y0032271D01*
X0287883Y0031983D01*
X0287844Y0031696D01*
X0287798Y0031410D01*
X0287745Y0031125D01*
X0287685Y0030841D01*
X0287618Y0030559D01*
X0287544Y0030279D01*
X0287463Y0030000D01*
X0287376Y0029724D01*
X0287282Y0029450D01*
X0287181Y0029178D01*
X0287073Y0028909D01*
X0286959Y0028643D01*
X0286838Y0028379D01*
X0286711Y0028119D01*
X0286577Y0027861D01*
X0286438Y0027607D01*
X0286292Y0027357D01*
X0286140Y0027110D01*
X0285981Y0026867D01*
X0285817Y0026628D01*
X0285648Y0026393D01*
X0285472Y0026162D01*
X0285291Y0025936D01*
X0285104Y0025714D01*
X0284912Y0025497D01*
X0284715Y0025285D01*
X0284513Y0025077D01*
X0284305Y0024875D01*
X0284093Y0024678D01*
X0283876Y0024486D01*
X0283654Y0024299D01*
X0283428Y0024118D01*
X0283197Y0023942D01*
X0282962Y0023773D01*
X0282723Y0023609D01*
X0282480Y0023450D01*
X0282233Y0023298D01*
X0281983Y0023152D01*
X0281729Y0023013D01*
X0281471Y0022879D01*
X0281211Y0022752D01*
X0280947Y0022631D01*
X0280681Y0022517D01*
X0280412Y0022409D01*
X0280140Y0022308D01*
X0279866Y0022214D01*
X0279590Y0022127D01*
X0279311Y0022046D01*
X0279031Y0021972D01*
X0278749Y0021905D01*
X0278465Y0021845D01*
X0278180Y0021792D01*
X0277894Y0021746D01*
X0277607Y0021707D01*
X0277319Y0021675D01*
X0277030Y0021650D01*
X0276741Y0021632D01*
X0276451Y0021622D01*
X0276161Y0021618D01*
X0275871Y0021622D01*
X0275581Y0021632D01*
X0275292Y0021650D01*
X0275003Y0021675D01*
X0274715Y0021707D01*
X0274428Y0021746D01*
X0274142Y0021792D01*
X0273857Y0021845D01*
X0273573Y0021905D01*
X0273291Y0021972D01*
X0273011Y0022046D01*
X0272732Y0022127D01*
X0272456Y0022214D01*
X0272182Y0022308D01*
X0271910Y0022409D01*
X0271641Y0022517D01*
X0271375Y0022631D01*
X0271111Y0022752D01*
X0270851Y0022879D01*
X0270593Y0023013D01*
X0270339Y0023152D01*
X0270089Y0023298D01*
X0269842Y0023450D01*
X0269599Y0023609D01*
X0269360Y0023773D01*
X0269125Y0023942D01*
X0268894Y0024118D01*
X0268668Y0024299D01*
X0268446Y0024486D01*
X0268229Y0024678D01*
X0268017Y0024875D01*
X0267809Y0025077D01*
X0267607Y0025285D01*
X0267410Y0025497D01*
X0267218Y0025714D01*
X0267031Y0025936D01*
X0266850Y0026162D01*
X0266674Y0026393D01*
X0266505Y0026628D01*
X0266341Y0026867D01*
X0266182Y0027110D01*
X0266030Y0027357D01*
X0265884Y0027607D01*
X0265745Y0027861D01*
X0265611Y0028119D01*
X0265484Y0028379D01*
X0265363Y0028643D01*
X0265249Y0028909D01*
X0265141Y0029178D01*
X0265040Y0029450D01*
X0264946Y0029724D01*
X0264859Y0030000D01*
X0264778Y0030279D01*
X0264704Y0030559D01*
X0264637Y0030841D01*
X0264577Y0031125D01*
X0264524Y0031410D01*
X0264478Y0031696D01*
X0264439Y0031983D01*
X0264407Y0032271D01*
X0264382Y0032560D01*
X0264364Y0032849D01*
X0264354Y0033139D01*
X0264350Y0033429D01*
X0185610Y0072799D02*
X0185614Y0073089D01*
X0185624Y0073379D01*
X0185642Y0073668D01*
X0185667Y0073957D01*
X0185699Y0074245D01*
X0185738Y0074532D01*
X0185784Y0074818D01*
X0185837Y0075103D01*
X0185897Y0075387D01*
X0185964Y0075669D01*
X0186038Y0075949D01*
X0186119Y0076228D01*
X0186206Y0076504D01*
X0186300Y0076778D01*
X0186401Y0077050D01*
X0186509Y0077319D01*
X0186623Y0077585D01*
X0186744Y0077849D01*
X0186871Y0078109D01*
X0187005Y0078367D01*
X0187144Y0078621D01*
X0187290Y0078871D01*
X0187442Y0079118D01*
X0187601Y0079361D01*
X0187765Y0079600D01*
X0187934Y0079835D01*
X0188110Y0080066D01*
X0188291Y0080292D01*
X0188478Y0080514D01*
X0188670Y0080731D01*
X0188867Y0080943D01*
X0189069Y0081151D01*
X0189277Y0081353D01*
X0189489Y0081550D01*
X0189706Y0081742D01*
X0189928Y0081929D01*
X0190154Y0082110D01*
X0190385Y0082286D01*
X0190620Y0082455D01*
X0190859Y0082619D01*
X0191102Y0082778D01*
X0191349Y0082930D01*
X0191599Y0083076D01*
X0191853Y0083215D01*
X0192111Y0083349D01*
X0192371Y0083476D01*
X0192635Y0083597D01*
X0192901Y0083711D01*
X0193170Y0083819D01*
X0193442Y0083920D01*
X0193716Y0084014D01*
X0193992Y0084101D01*
X0194271Y0084182D01*
X0194551Y0084256D01*
X0194833Y0084323D01*
X0195117Y0084383D01*
X0195402Y0084436D01*
X0195688Y0084482D01*
X0195975Y0084521D01*
X0196263Y0084553D01*
X0196552Y0084578D01*
X0196841Y0084596D01*
X0197131Y0084606D01*
X0197421Y0084610D01*
X0197711Y0084606D01*
X0198001Y0084596D01*
X0198290Y0084578D01*
X0198579Y0084553D01*
X0198867Y0084521D01*
X0199154Y0084482D01*
X0199440Y0084436D01*
X0199725Y0084383D01*
X0200009Y0084323D01*
X0200291Y0084256D01*
X0200571Y0084182D01*
X0200850Y0084101D01*
X0201126Y0084014D01*
X0201400Y0083920D01*
X0201672Y0083819D01*
X0201941Y0083711D01*
X0202207Y0083597D01*
X0202471Y0083476D01*
X0202731Y0083349D01*
X0202989Y0083215D01*
X0203243Y0083076D01*
X0203493Y0082930D01*
X0203740Y0082778D01*
X0203983Y0082619D01*
X0204222Y0082455D01*
X0204457Y0082286D01*
X0204688Y0082110D01*
X0204914Y0081929D01*
X0205136Y0081742D01*
X0205353Y0081550D01*
X0205565Y0081353D01*
X0205773Y0081151D01*
X0205975Y0080943D01*
X0206172Y0080731D01*
X0206364Y0080514D01*
X0206551Y0080292D01*
X0206732Y0080066D01*
X0206908Y0079835D01*
X0207077Y0079600D01*
X0207241Y0079361D01*
X0207400Y0079118D01*
X0207552Y0078871D01*
X0207698Y0078621D01*
X0207837Y0078367D01*
X0207971Y0078109D01*
X0208098Y0077849D01*
X0208219Y0077585D01*
X0208333Y0077319D01*
X0208441Y0077050D01*
X0208542Y0076778D01*
X0208636Y0076504D01*
X0208723Y0076228D01*
X0208804Y0075949D01*
X0208878Y0075669D01*
X0208945Y0075387D01*
X0209005Y0075103D01*
X0209058Y0074818D01*
X0209104Y0074532D01*
X0209143Y0074245D01*
X0209175Y0073957D01*
X0209200Y0073668D01*
X0209218Y0073379D01*
X0209228Y0073089D01*
X0209232Y0072799D01*
X0209228Y0072509D01*
X0209218Y0072219D01*
X0209200Y0071930D01*
X0209175Y0071641D01*
X0209143Y0071353D01*
X0209104Y0071066D01*
X0209058Y0070780D01*
X0209005Y0070495D01*
X0208945Y0070211D01*
X0208878Y0069929D01*
X0208804Y0069649D01*
X0208723Y0069370D01*
X0208636Y0069094D01*
X0208542Y0068820D01*
X0208441Y0068548D01*
X0208333Y0068279D01*
X0208219Y0068013D01*
X0208098Y0067749D01*
X0207971Y0067489D01*
X0207837Y0067231D01*
X0207698Y0066977D01*
X0207552Y0066727D01*
X0207400Y0066480D01*
X0207241Y0066237D01*
X0207077Y0065998D01*
X0206908Y0065763D01*
X0206732Y0065532D01*
X0206551Y0065306D01*
X0206364Y0065084D01*
X0206172Y0064867D01*
X0205975Y0064655D01*
X0205773Y0064447D01*
X0205565Y0064245D01*
X0205353Y0064048D01*
X0205136Y0063856D01*
X0204914Y0063669D01*
X0204688Y0063488D01*
X0204457Y0063312D01*
X0204222Y0063143D01*
X0203983Y0062979D01*
X0203740Y0062820D01*
X0203493Y0062668D01*
X0203243Y0062522D01*
X0202989Y0062383D01*
X0202731Y0062249D01*
X0202471Y0062122D01*
X0202207Y0062001D01*
X0201941Y0061887D01*
X0201672Y0061779D01*
X0201400Y0061678D01*
X0201126Y0061584D01*
X0200850Y0061497D01*
X0200571Y0061416D01*
X0200291Y0061342D01*
X0200009Y0061275D01*
X0199725Y0061215D01*
X0199440Y0061162D01*
X0199154Y0061116D01*
X0198867Y0061077D01*
X0198579Y0061045D01*
X0198290Y0061020D01*
X0198001Y0061002D01*
X0197711Y0060992D01*
X0197421Y0060988D01*
X0197131Y0060992D01*
X0196841Y0061002D01*
X0196552Y0061020D01*
X0196263Y0061045D01*
X0195975Y0061077D01*
X0195688Y0061116D01*
X0195402Y0061162D01*
X0195117Y0061215D01*
X0194833Y0061275D01*
X0194551Y0061342D01*
X0194271Y0061416D01*
X0193992Y0061497D01*
X0193716Y0061584D01*
X0193442Y0061678D01*
X0193170Y0061779D01*
X0192901Y0061887D01*
X0192635Y0062001D01*
X0192371Y0062122D01*
X0192111Y0062249D01*
X0191853Y0062383D01*
X0191599Y0062522D01*
X0191349Y0062668D01*
X0191102Y0062820D01*
X0190859Y0062979D01*
X0190620Y0063143D01*
X0190385Y0063312D01*
X0190154Y0063488D01*
X0189928Y0063669D01*
X0189706Y0063856D01*
X0189489Y0064048D01*
X0189277Y0064245D01*
X0189069Y0064447D01*
X0188867Y0064655D01*
X0188670Y0064867D01*
X0188478Y0065084D01*
X0188291Y0065306D01*
X0188110Y0065532D01*
X0187934Y0065763D01*
X0187765Y0065998D01*
X0187601Y0066237D01*
X0187442Y0066480D01*
X0187290Y0066727D01*
X0187144Y0066977D01*
X0187005Y0067231D01*
X0186871Y0067489D01*
X0186744Y0067749D01*
X0186623Y0068013D01*
X0186509Y0068279D01*
X0186401Y0068548D01*
X0186300Y0068820D01*
X0186206Y0069094D01*
X0186119Y0069370D01*
X0186038Y0069649D01*
X0185964Y0069929D01*
X0185897Y0070211D01*
X0185837Y0070495D01*
X0185784Y0070780D01*
X0185738Y0071066D01*
X0185699Y0071353D01*
X0185667Y0071641D01*
X0185642Y0071930D01*
X0185624Y0072219D01*
X0185614Y0072509D01*
X0185610Y0072799D01*
X0020256Y0072799D02*
X0020260Y0073089D01*
X0020270Y0073379D01*
X0020288Y0073668D01*
X0020313Y0073957D01*
X0020345Y0074245D01*
X0020384Y0074532D01*
X0020430Y0074818D01*
X0020483Y0075103D01*
X0020543Y0075387D01*
X0020610Y0075669D01*
X0020684Y0075949D01*
X0020765Y0076228D01*
X0020852Y0076504D01*
X0020946Y0076778D01*
X0021047Y0077050D01*
X0021155Y0077319D01*
X0021269Y0077585D01*
X0021390Y0077849D01*
X0021517Y0078109D01*
X0021651Y0078367D01*
X0021790Y0078621D01*
X0021936Y0078871D01*
X0022088Y0079118D01*
X0022247Y0079361D01*
X0022411Y0079600D01*
X0022580Y0079835D01*
X0022756Y0080066D01*
X0022937Y0080292D01*
X0023124Y0080514D01*
X0023316Y0080731D01*
X0023513Y0080943D01*
X0023715Y0081151D01*
X0023923Y0081353D01*
X0024135Y0081550D01*
X0024352Y0081742D01*
X0024574Y0081929D01*
X0024800Y0082110D01*
X0025031Y0082286D01*
X0025266Y0082455D01*
X0025505Y0082619D01*
X0025748Y0082778D01*
X0025995Y0082930D01*
X0026245Y0083076D01*
X0026499Y0083215D01*
X0026757Y0083349D01*
X0027017Y0083476D01*
X0027281Y0083597D01*
X0027547Y0083711D01*
X0027816Y0083819D01*
X0028088Y0083920D01*
X0028362Y0084014D01*
X0028638Y0084101D01*
X0028917Y0084182D01*
X0029197Y0084256D01*
X0029479Y0084323D01*
X0029763Y0084383D01*
X0030048Y0084436D01*
X0030334Y0084482D01*
X0030621Y0084521D01*
X0030909Y0084553D01*
X0031198Y0084578D01*
X0031487Y0084596D01*
X0031777Y0084606D01*
X0032067Y0084610D01*
X0032357Y0084606D01*
X0032647Y0084596D01*
X0032936Y0084578D01*
X0033225Y0084553D01*
X0033513Y0084521D01*
X0033800Y0084482D01*
X0034086Y0084436D01*
X0034371Y0084383D01*
X0034655Y0084323D01*
X0034937Y0084256D01*
X0035217Y0084182D01*
X0035496Y0084101D01*
X0035772Y0084014D01*
X0036046Y0083920D01*
X0036318Y0083819D01*
X0036587Y0083711D01*
X0036853Y0083597D01*
X0037117Y0083476D01*
X0037377Y0083349D01*
X0037635Y0083215D01*
X0037889Y0083076D01*
X0038139Y0082930D01*
X0038386Y0082778D01*
X0038629Y0082619D01*
X0038868Y0082455D01*
X0039103Y0082286D01*
X0039334Y0082110D01*
X0039560Y0081929D01*
X0039782Y0081742D01*
X0039999Y0081550D01*
X0040211Y0081353D01*
X0040419Y0081151D01*
X0040621Y0080943D01*
X0040818Y0080731D01*
X0041010Y0080514D01*
X0041197Y0080292D01*
X0041378Y0080066D01*
X0041554Y0079835D01*
X0041723Y0079600D01*
X0041887Y0079361D01*
X0042046Y0079118D01*
X0042198Y0078871D01*
X0042344Y0078621D01*
X0042483Y0078367D01*
X0042617Y0078109D01*
X0042744Y0077849D01*
X0042865Y0077585D01*
X0042979Y0077319D01*
X0043087Y0077050D01*
X0043188Y0076778D01*
X0043282Y0076504D01*
X0043369Y0076228D01*
X0043450Y0075949D01*
X0043524Y0075669D01*
X0043591Y0075387D01*
X0043651Y0075103D01*
X0043704Y0074818D01*
X0043750Y0074532D01*
X0043789Y0074245D01*
X0043821Y0073957D01*
X0043846Y0073668D01*
X0043864Y0073379D01*
X0043874Y0073089D01*
X0043878Y0072799D01*
X0043874Y0072509D01*
X0043864Y0072219D01*
X0043846Y0071930D01*
X0043821Y0071641D01*
X0043789Y0071353D01*
X0043750Y0071066D01*
X0043704Y0070780D01*
X0043651Y0070495D01*
X0043591Y0070211D01*
X0043524Y0069929D01*
X0043450Y0069649D01*
X0043369Y0069370D01*
X0043282Y0069094D01*
X0043188Y0068820D01*
X0043087Y0068548D01*
X0042979Y0068279D01*
X0042865Y0068013D01*
X0042744Y0067749D01*
X0042617Y0067489D01*
X0042483Y0067231D01*
X0042344Y0066977D01*
X0042198Y0066727D01*
X0042046Y0066480D01*
X0041887Y0066237D01*
X0041723Y0065998D01*
X0041554Y0065763D01*
X0041378Y0065532D01*
X0041197Y0065306D01*
X0041010Y0065084D01*
X0040818Y0064867D01*
X0040621Y0064655D01*
X0040419Y0064447D01*
X0040211Y0064245D01*
X0039999Y0064048D01*
X0039782Y0063856D01*
X0039560Y0063669D01*
X0039334Y0063488D01*
X0039103Y0063312D01*
X0038868Y0063143D01*
X0038629Y0062979D01*
X0038386Y0062820D01*
X0038139Y0062668D01*
X0037889Y0062522D01*
X0037635Y0062383D01*
X0037377Y0062249D01*
X0037117Y0062122D01*
X0036853Y0062001D01*
X0036587Y0061887D01*
X0036318Y0061779D01*
X0036046Y0061678D01*
X0035772Y0061584D01*
X0035496Y0061497D01*
X0035217Y0061416D01*
X0034937Y0061342D01*
X0034655Y0061275D01*
X0034371Y0061215D01*
X0034086Y0061162D01*
X0033800Y0061116D01*
X0033513Y0061077D01*
X0033225Y0061045D01*
X0032936Y0061020D01*
X0032647Y0061002D01*
X0032357Y0060992D01*
X0032067Y0060988D01*
X0031777Y0060992D01*
X0031487Y0061002D01*
X0031198Y0061020D01*
X0030909Y0061045D01*
X0030621Y0061077D01*
X0030334Y0061116D01*
X0030048Y0061162D01*
X0029763Y0061215D01*
X0029479Y0061275D01*
X0029197Y0061342D01*
X0028917Y0061416D01*
X0028638Y0061497D01*
X0028362Y0061584D01*
X0028088Y0061678D01*
X0027816Y0061779D01*
X0027547Y0061887D01*
X0027281Y0062001D01*
X0027017Y0062122D01*
X0026757Y0062249D01*
X0026499Y0062383D01*
X0026245Y0062522D01*
X0025995Y0062668D01*
X0025748Y0062820D01*
X0025505Y0062979D01*
X0025266Y0063143D01*
X0025031Y0063312D01*
X0024800Y0063488D01*
X0024574Y0063669D01*
X0024352Y0063856D01*
X0024135Y0064048D01*
X0023923Y0064245D01*
X0023715Y0064447D01*
X0023513Y0064655D01*
X0023316Y0064867D01*
X0023124Y0065084D01*
X0022937Y0065306D01*
X0022756Y0065532D01*
X0022580Y0065763D01*
X0022411Y0065998D01*
X0022247Y0066237D01*
X0022088Y0066480D01*
X0021936Y0066727D01*
X0021790Y0066977D01*
X0021651Y0067231D01*
X0021517Y0067489D01*
X0021390Y0067749D01*
X0021269Y0068013D01*
X0021155Y0068279D01*
X0021047Y0068548D01*
X0020946Y0068820D01*
X0020852Y0069094D01*
X0020765Y0069370D01*
X0020684Y0069649D01*
X0020610Y0069929D01*
X0020543Y0070211D01*
X0020483Y0070495D01*
X0020430Y0070780D01*
X0020384Y0071066D01*
X0020345Y0071353D01*
X0020313Y0071641D01*
X0020288Y0071930D01*
X0020270Y0072219D01*
X0020260Y0072509D01*
X0020256Y0072799D01*
X0020256Y0033429D02*
X0020260Y0033719D01*
X0020270Y0034009D01*
X0020288Y0034298D01*
X0020313Y0034587D01*
X0020345Y0034875D01*
X0020384Y0035162D01*
X0020430Y0035448D01*
X0020483Y0035733D01*
X0020543Y0036017D01*
X0020610Y0036299D01*
X0020684Y0036579D01*
X0020765Y0036858D01*
X0020852Y0037134D01*
X0020946Y0037408D01*
X0021047Y0037680D01*
X0021155Y0037949D01*
X0021269Y0038215D01*
X0021390Y0038479D01*
X0021517Y0038739D01*
X0021651Y0038997D01*
X0021790Y0039251D01*
X0021936Y0039501D01*
X0022088Y0039748D01*
X0022247Y0039991D01*
X0022411Y0040230D01*
X0022580Y0040465D01*
X0022756Y0040696D01*
X0022937Y0040922D01*
X0023124Y0041144D01*
X0023316Y0041361D01*
X0023513Y0041573D01*
X0023715Y0041781D01*
X0023923Y0041983D01*
X0024135Y0042180D01*
X0024352Y0042372D01*
X0024574Y0042559D01*
X0024800Y0042740D01*
X0025031Y0042916D01*
X0025266Y0043085D01*
X0025505Y0043249D01*
X0025748Y0043408D01*
X0025995Y0043560D01*
X0026245Y0043706D01*
X0026499Y0043845D01*
X0026757Y0043979D01*
X0027017Y0044106D01*
X0027281Y0044227D01*
X0027547Y0044341D01*
X0027816Y0044449D01*
X0028088Y0044550D01*
X0028362Y0044644D01*
X0028638Y0044731D01*
X0028917Y0044812D01*
X0029197Y0044886D01*
X0029479Y0044953D01*
X0029763Y0045013D01*
X0030048Y0045066D01*
X0030334Y0045112D01*
X0030621Y0045151D01*
X0030909Y0045183D01*
X0031198Y0045208D01*
X0031487Y0045226D01*
X0031777Y0045236D01*
X0032067Y0045240D01*
X0032357Y0045236D01*
X0032647Y0045226D01*
X0032936Y0045208D01*
X0033225Y0045183D01*
X0033513Y0045151D01*
X0033800Y0045112D01*
X0034086Y0045066D01*
X0034371Y0045013D01*
X0034655Y0044953D01*
X0034937Y0044886D01*
X0035217Y0044812D01*
X0035496Y0044731D01*
X0035772Y0044644D01*
X0036046Y0044550D01*
X0036318Y0044449D01*
X0036587Y0044341D01*
X0036853Y0044227D01*
X0037117Y0044106D01*
X0037377Y0043979D01*
X0037635Y0043845D01*
X0037889Y0043706D01*
X0038139Y0043560D01*
X0038386Y0043408D01*
X0038629Y0043249D01*
X0038868Y0043085D01*
X0039103Y0042916D01*
X0039334Y0042740D01*
X0039560Y0042559D01*
X0039782Y0042372D01*
X0039999Y0042180D01*
X0040211Y0041983D01*
X0040419Y0041781D01*
X0040621Y0041573D01*
X0040818Y0041361D01*
X0041010Y0041144D01*
X0041197Y0040922D01*
X0041378Y0040696D01*
X0041554Y0040465D01*
X0041723Y0040230D01*
X0041887Y0039991D01*
X0042046Y0039748D01*
X0042198Y0039501D01*
X0042344Y0039251D01*
X0042483Y0038997D01*
X0042617Y0038739D01*
X0042744Y0038479D01*
X0042865Y0038215D01*
X0042979Y0037949D01*
X0043087Y0037680D01*
X0043188Y0037408D01*
X0043282Y0037134D01*
X0043369Y0036858D01*
X0043450Y0036579D01*
X0043524Y0036299D01*
X0043591Y0036017D01*
X0043651Y0035733D01*
X0043704Y0035448D01*
X0043750Y0035162D01*
X0043789Y0034875D01*
X0043821Y0034587D01*
X0043846Y0034298D01*
X0043864Y0034009D01*
X0043874Y0033719D01*
X0043878Y0033429D01*
X0043874Y0033139D01*
X0043864Y0032849D01*
X0043846Y0032560D01*
X0043821Y0032271D01*
X0043789Y0031983D01*
X0043750Y0031696D01*
X0043704Y0031410D01*
X0043651Y0031125D01*
X0043591Y0030841D01*
X0043524Y0030559D01*
X0043450Y0030279D01*
X0043369Y0030000D01*
X0043282Y0029724D01*
X0043188Y0029450D01*
X0043087Y0029178D01*
X0042979Y0028909D01*
X0042865Y0028643D01*
X0042744Y0028379D01*
X0042617Y0028119D01*
X0042483Y0027861D01*
X0042344Y0027607D01*
X0042198Y0027357D01*
X0042046Y0027110D01*
X0041887Y0026867D01*
X0041723Y0026628D01*
X0041554Y0026393D01*
X0041378Y0026162D01*
X0041197Y0025936D01*
X0041010Y0025714D01*
X0040818Y0025497D01*
X0040621Y0025285D01*
X0040419Y0025077D01*
X0040211Y0024875D01*
X0039999Y0024678D01*
X0039782Y0024486D01*
X0039560Y0024299D01*
X0039334Y0024118D01*
X0039103Y0023942D01*
X0038868Y0023773D01*
X0038629Y0023609D01*
X0038386Y0023450D01*
X0038139Y0023298D01*
X0037889Y0023152D01*
X0037635Y0023013D01*
X0037377Y0022879D01*
X0037117Y0022752D01*
X0036853Y0022631D01*
X0036587Y0022517D01*
X0036318Y0022409D01*
X0036046Y0022308D01*
X0035772Y0022214D01*
X0035496Y0022127D01*
X0035217Y0022046D01*
X0034937Y0021972D01*
X0034655Y0021905D01*
X0034371Y0021845D01*
X0034086Y0021792D01*
X0033800Y0021746D01*
X0033513Y0021707D01*
X0033225Y0021675D01*
X0032936Y0021650D01*
X0032647Y0021632D01*
X0032357Y0021622D01*
X0032067Y0021618D01*
X0031777Y0021622D01*
X0031487Y0021632D01*
X0031198Y0021650D01*
X0030909Y0021675D01*
X0030621Y0021707D01*
X0030334Y0021746D01*
X0030048Y0021792D01*
X0029763Y0021845D01*
X0029479Y0021905D01*
X0029197Y0021972D01*
X0028917Y0022046D01*
X0028638Y0022127D01*
X0028362Y0022214D01*
X0028088Y0022308D01*
X0027816Y0022409D01*
X0027547Y0022517D01*
X0027281Y0022631D01*
X0027017Y0022752D01*
X0026757Y0022879D01*
X0026499Y0023013D01*
X0026245Y0023152D01*
X0025995Y0023298D01*
X0025748Y0023450D01*
X0025505Y0023609D01*
X0025266Y0023773D01*
X0025031Y0023942D01*
X0024800Y0024118D01*
X0024574Y0024299D01*
X0024352Y0024486D01*
X0024135Y0024678D01*
X0023923Y0024875D01*
X0023715Y0025077D01*
X0023513Y0025285D01*
X0023316Y0025497D01*
X0023124Y0025714D01*
X0022937Y0025936D01*
X0022756Y0026162D01*
X0022580Y0026393D01*
X0022411Y0026628D01*
X0022247Y0026867D01*
X0022088Y0027110D01*
X0021936Y0027357D01*
X0021790Y0027607D01*
X0021651Y0027861D01*
X0021517Y0028119D01*
X0021390Y0028379D01*
X0021269Y0028643D01*
X0021155Y0028909D01*
X0021047Y0029178D01*
X0020946Y0029450D01*
X0020852Y0029724D01*
X0020765Y0030000D01*
X0020684Y0030279D01*
X0020610Y0030559D01*
X0020543Y0030841D01*
X0020483Y0031125D01*
X0020430Y0031410D01*
X0020384Y0031696D01*
X0020345Y0031983D01*
X0020313Y0032271D01*
X0020288Y0032560D01*
X0020270Y0032849D01*
X0020260Y0033139D01*
X0020256Y0033429D01*
X0020256Y0238154D02*
X0020260Y0238444D01*
X0020270Y0238734D01*
X0020288Y0239023D01*
X0020313Y0239312D01*
X0020345Y0239600D01*
X0020384Y0239887D01*
X0020430Y0240173D01*
X0020483Y0240458D01*
X0020543Y0240742D01*
X0020610Y0241024D01*
X0020684Y0241304D01*
X0020765Y0241583D01*
X0020852Y0241859D01*
X0020946Y0242133D01*
X0021047Y0242405D01*
X0021155Y0242674D01*
X0021269Y0242940D01*
X0021390Y0243204D01*
X0021517Y0243464D01*
X0021651Y0243722D01*
X0021790Y0243976D01*
X0021936Y0244226D01*
X0022088Y0244473D01*
X0022247Y0244716D01*
X0022411Y0244955D01*
X0022580Y0245190D01*
X0022756Y0245421D01*
X0022937Y0245647D01*
X0023124Y0245869D01*
X0023316Y0246086D01*
X0023513Y0246298D01*
X0023715Y0246506D01*
X0023923Y0246708D01*
X0024135Y0246905D01*
X0024352Y0247097D01*
X0024574Y0247284D01*
X0024800Y0247465D01*
X0025031Y0247641D01*
X0025266Y0247810D01*
X0025505Y0247974D01*
X0025748Y0248133D01*
X0025995Y0248285D01*
X0026245Y0248431D01*
X0026499Y0248570D01*
X0026757Y0248704D01*
X0027017Y0248831D01*
X0027281Y0248952D01*
X0027547Y0249066D01*
X0027816Y0249174D01*
X0028088Y0249275D01*
X0028362Y0249369D01*
X0028638Y0249456D01*
X0028917Y0249537D01*
X0029197Y0249611D01*
X0029479Y0249678D01*
X0029763Y0249738D01*
X0030048Y0249791D01*
X0030334Y0249837D01*
X0030621Y0249876D01*
X0030909Y0249908D01*
X0031198Y0249933D01*
X0031487Y0249951D01*
X0031777Y0249961D01*
X0032067Y0249965D01*
X0032357Y0249961D01*
X0032647Y0249951D01*
X0032936Y0249933D01*
X0033225Y0249908D01*
X0033513Y0249876D01*
X0033800Y0249837D01*
X0034086Y0249791D01*
X0034371Y0249738D01*
X0034655Y0249678D01*
X0034937Y0249611D01*
X0035217Y0249537D01*
X0035496Y0249456D01*
X0035772Y0249369D01*
X0036046Y0249275D01*
X0036318Y0249174D01*
X0036587Y0249066D01*
X0036853Y0248952D01*
X0037117Y0248831D01*
X0037377Y0248704D01*
X0037635Y0248570D01*
X0037889Y0248431D01*
X0038139Y0248285D01*
X0038386Y0248133D01*
X0038629Y0247974D01*
X0038868Y0247810D01*
X0039103Y0247641D01*
X0039334Y0247465D01*
X0039560Y0247284D01*
X0039782Y0247097D01*
X0039999Y0246905D01*
X0040211Y0246708D01*
X0040419Y0246506D01*
X0040621Y0246298D01*
X0040818Y0246086D01*
X0041010Y0245869D01*
X0041197Y0245647D01*
X0041378Y0245421D01*
X0041554Y0245190D01*
X0041723Y0244955D01*
X0041887Y0244716D01*
X0042046Y0244473D01*
X0042198Y0244226D01*
X0042344Y0243976D01*
X0042483Y0243722D01*
X0042617Y0243464D01*
X0042744Y0243204D01*
X0042865Y0242940D01*
X0042979Y0242674D01*
X0043087Y0242405D01*
X0043188Y0242133D01*
X0043282Y0241859D01*
X0043369Y0241583D01*
X0043450Y0241304D01*
X0043524Y0241024D01*
X0043591Y0240742D01*
X0043651Y0240458D01*
X0043704Y0240173D01*
X0043750Y0239887D01*
X0043789Y0239600D01*
X0043821Y0239312D01*
X0043846Y0239023D01*
X0043864Y0238734D01*
X0043874Y0238444D01*
X0043878Y0238154D01*
X0043874Y0237864D01*
X0043864Y0237574D01*
X0043846Y0237285D01*
X0043821Y0236996D01*
X0043789Y0236708D01*
X0043750Y0236421D01*
X0043704Y0236135D01*
X0043651Y0235850D01*
X0043591Y0235566D01*
X0043524Y0235284D01*
X0043450Y0235004D01*
X0043369Y0234725D01*
X0043282Y0234449D01*
X0043188Y0234175D01*
X0043087Y0233903D01*
X0042979Y0233634D01*
X0042865Y0233368D01*
X0042744Y0233104D01*
X0042617Y0232844D01*
X0042483Y0232586D01*
X0042344Y0232332D01*
X0042198Y0232082D01*
X0042046Y0231835D01*
X0041887Y0231592D01*
X0041723Y0231353D01*
X0041554Y0231118D01*
X0041378Y0230887D01*
X0041197Y0230661D01*
X0041010Y0230439D01*
X0040818Y0230222D01*
X0040621Y0230010D01*
X0040419Y0229802D01*
X0040211Y0229600D01*
X0039999Y0229403D01*
X0039782Y0229211D01*
X0039560Y0229024D01*
X0039334Y0228843D01*
X0039103Y0228667D01*
X0038868Y0228498D01*
X0038629Y0228334D01*
X0038386Y0228175D01*
X0038139Y0228023D01*
X0037889Y0227877D01*
X0037635Y0227738D01*
X0037377Y0227604D01*
X0037117Y0227477D01*
X0036853Y0227356D01*
X0036587Y0227242D01*
X0036318Y0227134D01*
X0036046Y0227033D01*
X0035772Y0226939D01*
X0035496Y0226852D01*
X0035217Y0226771D01*
X0034937Y0226697D01*
X0034655Y0226630D01*
X0034371Y0226570D01*
X0034086Y0226517D01*
X0033800Y0226471D01*
X0033513Y0226432D01*
X0033225Y0226400D01*
X0032936Y0226375D01*
X0032647Y0226357D01*
X0032357Y0226347D01*
X0032067Y0226343D01*
X0031777Y0226347D01*
X0031487Y0226357D01*
X0031198Y0226375D01*
X0030909Y0226400D01*
X0030621Y0226432D01*
X0030334Y0226471D01*
X0030048Y0226517D01*
X0029763Y0226570D01*
X0029479Y0226630D01*
X0029197Y0226697D01*
X0028917Y0226771D01*
X0028638Y0226852D01*
X0028362Y0226939D01*
X0028088Y0227033D01*
X0027816Y0227134D01*
X0027547Y0227242D01*
X0027281Y0227356D01*
X0027017Y0227477D01*
X0026757Y0227604D01*
X0026499Y0227738D01*
X0026245Y0227877D01*
X0025995Y0228023D01*
X0025748Y0228175D01*
X0025505Y0228334D01*
X0025266Y0228498D01*
X0025031Y0228667D01*
X0024800Y0228843D01*
X0024574Y0229024D01*
X0024352Y0229211D01*
X0024135Y0229403D01*
X0023923Y0229600D01*
X0023715Y0229802D01*
X0023513Y0230010D01*
X0023316Y0230222D01*
X0023124Y0230439D01*
X0022937Y0230661D01*
X0022756Y0230887D01*
X0022580Y0231118D01*
X0022411Y0231353D01*
X0022247Y0231592D01*
X0022088Y0231835D01*
X0021936Y0232082D01*
X0021790Y0232332D01*
X0021651Y0232586D01*
X0021517Y0232844D01*
X0021390Y0233104D01*
X0021269Y0233368D01*
X0021155Y0233634D01*
X0021047Y0233903D01*
X0020946Y0234175D01*
X0020852Y0234449D01*
X0020765Y0234725D01*
X0020684Y0235004D01*
X0020610Y0235284D01*
X0020543Y0235566D01*
X0020483Y0235850D01*
X0020430Y0236135D01*
X0020384Y0236421D01*
X0020345Y0236708D01*
X0020313Y0236996D01*
X0020288Y0237285D01*
X0020270Y0237574D01*
X0020260Y0237864D01*
X0020256Y0238154D01*
X0020256Y0277524D02*
X0020260Y0277814D01*
X0020270Y0278104D01*
X0020288Y0278393D01*
X0020313Y0278682D01*
X0020345Y0278970D01*
X0020384Y0279257D01*
X0020430Y0279543D01*
X0020483Y0279828D01*
X0020543Y0280112D01*
X0020610Y0280394D01*
X0020684Y0280674D01*
X0020765Y0280953D01*
X0020852Y0281229D01*
X0020946Y0281503D01*
X0021047Y0281775D01*
X0021155Y0282044D01*
X0021269Y0282310D01*
X0021390Y0282574D01*
X0021517Y0282834D01*
X0021651Y0283092D01*
X0021790Y0283346D01*
X0021936Y0283596D01*
X0022088Y0283843D01*
X0022247Y0284086D01*
X0022411Y0284325D01*
X0022580Y0284560D01*
X0022756Y0284791D01*
X0022937Y0285017D01*
X0023124Y0285239D01*
X0023316Y0285456D01*
X0023513Y0285668D01*
X0023715Y0285876D01*
X0023923Y0286078D01*
X0024135Y0286275D01*
X0024352Y0286467D01*
X0024574Y0286654D01*
X0024800Y0286835D01*
X0025031Y0287011D01*
X0025266Y0287180D01*
X0025505Y0287344D01*
X0025748Y0287503D01*
X0025995Y0287655D01*
X0026245Y0287801D01*
X0026499Y0287940D01*
X0026757Y0288074D01*
X0027017Y0288201D01*
X0027281Y0288322D01*
X0027547Y0288436D01*
X0027816Y0288544D01*
X0028088Y0288645D01*
X0028362Y0288739D01*
X0028638Y0288826D01*
X0028917Y0288907D01*
X0029197Y0288981D01*
X0029479Y0289048D01*
X0029763Y0289108D01*
X0030048Y0289161D01*
X0030334Y0289207D01*
X0030621Y0289246D01*
X0030909Y0289278D01*
X0031198Y0289303D01*
X0031487Y0289321D01*
X0031777Y0289331D01*
X0032067Y0289335D01*
X0032357Y0289331D01*
X0032647Y0289321D01*
X0032936Y0289303D01*
X0033225Y0289278D01*
X0033513Y0289246D01*
X0033800Y0289207D01*
X0034086Y0289161D01*
X0034371Y0289108D01*
X0034655Y0289048D01*
X0034937Y0288981D01*
X0035217Y0288907D01*
X0035496Y0288826D01*
X0035772Y0288739D01*
X0036046Y0288645D01*
X0036318Y0288544D01*
X0036587Y0288436D01*
X0036853Y0288322D01*
X0037117Y0288201D01*
X0037377Y0288074D01*
X0037635Y0287940D01*
X0037889Y0287801D01*
X0038139Y0287655D01*
X0038386Y0287503D01*
X0038629Y0287344D01*
X0038868Y0287180D01*
X0039103Y0287011D01*
X0039334Y0286835D01*
X0039560Y0286654D01*
X0039782Y0286467D01*
X0039999Y0286275D01*
X0040211Y0286078D01*
X0040419Y0285876D01*
X0040621Y0285668D01*
X0040818Y0285456D01*
X0041010Y0285239D01*
X0041197Y0285017D01*
X0041378Y0284791D01*
X0041554Y0284560D01*
X0041723Y0284325D01*
X0041887Y0284086D01*
X0042046Y0283843D01*
X0042198Y0283596D01*
X0042344Y0283346D01*
X0042483Y0283092D01*
X0042617Y0282834D01*
X0042744Y0282574D01*
X0042865Y0282310D01*
X0042979Y0282044D01*
X0043087Y0281775D01*
X0043188Y0281503D01*
X0043282Y0281229D01*
X0043369Y0280953D01*
X0043450Y0280674D01*
X0043524Y0280394D01*
X0043591Y0280112D01*
X0043651Y0279828D01*
X0043704Y0279543D01*
X0043750Y0279257D01*
X0043789Y0278970D01*
X0043821Y0278682D01*
X0043846Y0278393D01*
X0043864Y0278104D01*
X0043874Y0277814D01*
X0043878Y0277524D01*
X0043874Y0277234D01*
X0043864Y0276944D01*
X0043846Y0276655D01*
X0043821Y0276366D01*
X0043789Y0276078D01*
X0043750Y0275791D01*
X0043704Y0275505D01*
X0043651Y0275220D01*
X0043591Y0274936D01*
X0043524Y0274654D01*
X0043450Y0274374D01*
X0043369Y0274095D01*
X0043282Y0273819D01*
X0043188Y0273545D01*
X0043087Y0273273D01*
X0042979Y0273004D01*
X0042865Y0272738D01*
X0042744Y0272474D01*
X0042617Y0272214D01*
X0042483Y0271956D01*
X0042344Y0271702D01*
X0042198Y0271452D01*
X0042046Y0271205D01*
X0041887Y0270962D01*
X0041723Y0270723D01*
X0041554Y0270488D01*
X0041378Y0270257D01*
X0041197Y0270031D01*
X0041010Y0269809D01*
X0040818Y0269592D01*
X0040621Y0269380D01*
X0040419Y0269172D01*
X0040211Y0268970D01*
X0039999Y0268773D01*
X0039782Y0268581D01*
X0039560Y0268394D01*
X0039334Y0268213D01*
X0039103Y0268037D01*
X0038868Y0267868D01*
X0038629Y0267704D01*
X0038386Y0267545D01*
X0038139Y0267393D01*
X0037889Y0267247D01*
X0037635Y0267108D01*
X0037377Y0266974D01*
X0037117Y0266847D01*
X0036853Y0266726D01*
X0036587Y0266612D01*
X0036318Y0266504D01*
X0036046Y0266403D01*
X0035772Y0266309D01*
X0035496Y0266222D01*
X0035217Y0266141D01*
X0034937Y0266067D01*
X0034655Y0266000D01*
X0034371Y0265940D01*
X0034086Y0265887D01*
X0033800Y0265841D01*
X0033513Y0265802D01*
X0033225Y0265770D01*
X0032936Y0265745D01*
X0032647Y0265727D01*
X0032357Y0265717D01*
X0032067Y0265713D01*
X0031777Y0265717D01*
X0031487Y0265727D01*
X0031198Y0265745D01*
X0030909Y0265770D01*
X0030621Y0265802D01*
X0030334Y0265841D01*
X0030048Y0265887D01*
X0029763Y0265940D01*
X0029479Y0266000D01*
X0029197Y0266067D01*
X0028917Y0266141D01*
X0028638Y0266222D01*
X0028362Y0266309D01*
X0028088Y0266403D01*
X0027816Y0266504D01*
X0027547Y0266612D01*
X0027281Y0266726D01*
X0027017Y0266847D01*
X0026757Y0266974D01*
X0026499Y0267108D01*
X0026245Y0267247D01*
X0025995Y0267393D01*
X0025748Y0267545D01*
X0025505Y0267704D01*
X0025266Y0267868D01*
X0025031Y0268037D01*
X0024800Y0268213D01*
X0024574Y0268394D01*
X0024352Y0268581D01*
X0024135Y0268773D01*
X0023923Y0268970D01*
X0023715Y0269172D01*
X0023513Y0269380D01*
X0023316Y0269592D01*
X0023124Y0269809D01*
X0022937Y0270031D01*
X0022756Y0270257D01*
X0022580Y0270488D01*
X0022411Y0270723D01*
X0022247Y0270962D01*
X0022088Y0271205D01*
X0021936Y0271452D01*
X0021790Y0271702D01*
X0021651Y0271956D01*
X0021517Y0272214D01*
X0021390Y0272474D01*
X0021269Y0272738D01*
X0021155Y0273004D01*
X0021047Y0273273D01*
X0020946Y0273545D01*
X0020852Y0273819D01*
X0020765Y0274095D01*
X0020684Y0274374D01*
X0020610Y0274654D01*
X0020543Y0274936D01*
X0020483Y0275220D01*
X0020430Y0275505D01*
X0020384Y0275791D01*
X0020345Y0276078D01*
X0020313Y0276366D01*
X0020288Y0276655D01*
X0020270Y0276944D01*
X0020260Y0277234D01*
X0020256Y0277524D01*
X0185610Y0238154D02*
X0185614Y0238444D01*
X0185624Y0238734D01*
X0185642Y0239023D01*
X0185667Y0239312D01*
X0185699Y0239600D01*
X0185738Y0239887D01*
X0185784Y0240173D01*
X0185837Y0240458D01*
X0185897Y0240742D01*
X0185964Y0241024D01*
X0186038Y0241304D01*
X0186119Y0241583D01*
X0186206Y0241859D01*
X0186300Y0242133D01*
X0186401Y0242405D01*
X0186509Y0242674D01*
X0186623Y0242940D01*
X0186744Y0243204D01*
X0186871Y0243464D01*
X0187005Y0243722D01*
X0187144Y0243976D01*
X0187290Y0244226D01*
X0187442Y0244473D01*
X0187601Y0244716D01*
X0187765Y0244955D01*
X0187934Y0245190D01*
X0188110Y0245421D01*
X0188291Y0245647D01*
X0188478Y0245869D01*
X0188670Y0246086D01*
X0188867Y0246298D01*
X0189069Y0246506D01*
X0189277Y0246708D01*
X0189489Y0246905D01*
X0189706Y0247097D01*
X0189928Y0247284D01*
X0190154Y0247465D01*
X0190385Y0247641D01*
X0190620Y0247810D01*
X0190859Y0247974D01*
X0191102Y0248133D01*
X0191349Y0248285D01*
X0191599Y0248431D01*
X0191853Y0248570D01*
X0192111Y0248704D01*
X0192371Y0248831D01*
X0192635Y0248952D01*
X0192901Y0249066D01*
X0193170Y0249174D01*
X0193442Y0249275D01*
X0193716Y0249369D01*
X0193992Y0249456D01*
X0194271Y0249537D01*
X0194551Y0249611D01*
X0194833Y0249678D01*
X0195117Y0249738D01*
X0195402Y0249791D01*
X0195688Y0249837D01*
X0195975Y0249876D01*
X0196263Y0249908D01*
X0196552Y0249933D01*
X0196841Y0249951D01*
X0197131Y0249961D01*
X0197421Y0249965D01*
X0197711Y0249961D01*
X0198001Y0249951D01*
X0198290Y0249933D01*
X0198579Y0249908D01*
X0198867Y0249876D01*
X0199154Y0249837D01*
X0199440Y0249791D01*
X0199725Y0249738D01*
X0200009Y0249678D01*
X0200291Y0249611D01*
X0200571Y0249537D01*
X0200850Y0249456D01*
X0201126Y0249369D01*
X0201400Y0249275D01*
X0201672Y0249174D01*
X0201941Y0249066D01*
X0202207Y0248952D01*
X0202471Y0248831D01*
X0202731Y0248704D01*
X0202989Y0248570D01*
X0203243Y0248431D01*
X0203493Y0248285D01*
X0203740Y0248133D01*
X0203983Y0247974D01*
X0204222Y0247810D01*
X0204457Y0247641D01*
X0204688Y0247465D01*
X0204914Y0247284D01*
X0205136Y0247097D01*
X0205353Y0246905D01*
X0205565Y0246708D01*
X0205773Y0246506D01*
X0205975Y0246298D01*
X0206172Y0246086D01*
X0206364Y0245869D01*
X0206551Y0245647D01*
X0206732Y0245421D01*
X0206908Y0245190D01*
X0207077Y0244955D01*
X0207241Y0244716D01*
X0207400Y0244473D01*
X0207552Y0244226D01*
X0207698Y0243976D01*
X0207837Y0243722D01*
X0207971Y0243464D01*
X0208098Y0243204D01*
X0208219Y0242940D01*
X0208333Y0242674D01*
X0208441Y0242405D01*
X0208542Y0242133D01*
X0208636Y0241859D01*
X0208723Y0241583D01*
X0208804Y0241304D01*
X0208878Y0241024D01*
X0208945Y0240742D01*
X0209005Y0240458D01*
X0209058Y0240173D01*
X0209104Y0239887D01*
X0209143Y0239600D01*
X0209175Y0239312D01*
X0209200Y0239023D01*
X0209218Y0238734D01*
X0209228Y0238444D01*
X0209232Y0238154D01*
X0209228Y0237864D01*
X0209218Y0237574D01*
X0209200Y0237285D01*
X0209175Y0236996D01*
X0209143Y0236708D01*
X0209104Y0236421D01*
X0209058Y0236135D01*
X0209005Y0235850D01*
X0208945Y0235566D01*
X0208878Y0235284D01*
X0208804Y0235004D01*
X0208723Y0234725D01*
X0208636Y0234449D01*
X0208542Y0234175D01*
X0208441Y0233903D01*
X0208333Y0233634D01*
X0208219Y0233368D01*
X0208098Y0233104D01*
X0207971Y0232844D01*
X0207837Y0232586D01*
X0207698Y0232332D01*
X0207552Y0232082D01*
X0207400Y0231835D01*
X0207241Y0231592D01*
X0207077Y0231353D01*
X0206908Y0231118D01*
X0206732Y0230887D01*
X0206551Y0230661D01*
X0206364Y0230439D01*
X0206172Y0230222D01*
X0205975Y0230010D01*
X0205773Y0229802D01*
X0205565Y0229600D01*
X0205353Y0229403D01*
X0205136Y0229211D01*
X0204914Y0229024D01*
X0204688Y0228843D01*
X0204457Y0228667D01*
X0204222Y0228498D01*
X0203983Y0228334D01*
X0203740Y0228175D01*
X0203493Y0228023D01*
X0203243Y0227877D01*
X0202989Y0227738D01*
X0202731Y0227604D01*
X0202471Y0227477D01*
X0202207Y0227356D01*
X0201941Y0227242D01*
X0201672Y0227134D01*
X0201400Y0227033D01*
X0201126Y0226939D01*
X0200850Y0226852D01*
X0200571Y0226771D01*
X0200291Y0226697D01*
X0200009Y0226630D01*
X0199725Y0226570D01*
X0199440Y0226517D01*
X0199154Y0226471D01*
X0198867Y0226432D01*
X0198579Y0226400D01*
X0198290Y0226375D01*
X0198001Y0226357D01*
X0197711Y0226347D01*
X0197421Y0226343D01*
X0197131Y0226347D01*
X0196841Y0226357D01*
X0196552Y0226375D01*
X0196263Y0226400D01*
X0195975Y0226432D01*
X0195688Y0226471D01*
X0195402Y0226517D01*
X0195117Y0226570D01*
X0194833Y0226630D01*
X0194551Y0226697D01*
X0194271Y0226771D01*
X0193992Y0226852D01*
X0193716Y0226939D01*
X0193442Y0227033D01*
X0193170Y0227134D01*
X0192901Y0227242D01*
X0192635Y0227356D01*
X0192371Y0227477D01*
X0192111Y0227604D01*
X0191853Y0227738D01*
X0191599Y0227877D01*
X0191349Y0228023D01*
X0191102Y0228175D01*
X0190859Y0228334D01*
X0190620Y0228498D01*
X0190385Y0228667D01*
X0190154Y0228843D01*
X0189928Y0229024D01*
X0189706Y0229211D01*
X0189489Y0229403D01*
X0189277Y0229600D01*
X0189069Y0229802D01*
X0188867Y0230010D01*
X0188670Y0230222D01*
X0188478Y0230439D01*
X0188291Y0230661D01*
X0188110Y0230887D01*
X0187934Y0231118D01*
X0187765Y0231353D01*
X0187601Y0231592D01*
X0187442Y0231835D01*
X0187290Y0232082D01*
X0187144Y0232332D01*
X0187005Y0232586D01*
X0186871Y0232844D01*
X0186744Y0233104D01*
X0186623Y0233368D01*
X0186509Y0233634D01*
X0186401Y0233903D01*
X0186300Y0234175D01*
X0186206Y0234449D01*
X0186119Y0234725D01*
X0186038Y0235004D01*
X0185964Y0235284D01*
X0185897Y0235566D01*
X0185837Y0235850D01*
X0185784Y0236135D01*
X0185738Y0236421D01*
X0185699Y0236708D01*
X0185667Y0236996D01*
X0185642Y0237285D01*
X0185624Y0237574D01*
X0185614Y0237864D01*
X0185610Y0238154D01*
X0264350Y0277524D02*
X0264354Y0277814D01*
X0264364Y0278104D01*
X0264382Y0278393D01*
X0264407Y0278682D01*
X0264439Y0278970D01*
X0264478Y0279257D01*
X0264524Y0279543D01*
X0264577Y0279828D01*
X0264637Y0280112D01*
X0264704Y0280394D01*
X0264778Y0280674D01*
X0264859Y0280953D01*
X0264946Y0281229D01*
X0265040Y0281503D01*
X0265141Y0281775D01*
X0265249Y0282044D01*
X0265363Y0282310D01*
X0265484Y0282574D01*
X0265611Y0282834D01*
X0265745Y0283092D01*
X0265884Y0283346D01*
X0266030Y0283596D01*
X0266182Y0283843D01*
X0266341Y0284086D01*
X0266505Y0284325D01*
X0266674Y0284560D01*
X0266850Y0284791D01*
X0267031Y0285017D01*
X0267218Y0285239D01*
X0267410Y0285456D01*
X0267607Y0285668D01*
X0267809Y0285876D01*
X0268017Y0286078D01*
X0268229Y0286275D01*
X0268446Y0286467D01*
X0268668Y0286654D01*
X0268894Y0286835D01*
X0269125Y0287011D01*
X0269360Y0287180D01*
X0269599Y0287344D01*
X0269842Y0287503D01*
X0270089Y0287655D01*
X0270339Y0287801D01*
X0270593Y0287940D01*
X0270851Y0288074D01*
X0271111Y0288201D01*
X0271375Y0288322D01*
X0271641Y0288436D01*
X0271910Y0288544D01*
X0272182Y0288645D01*
X0272456Y0288739D01*
X0272732Y0288826D01*
X0273011Y0288907D01*
X0273291Y0288981D01*
X0273573Y0289048D01*
X0273857Y0289108D01*
X0274142Y0289161D01*
X0274428Y0289207D01*
X0274715Y0289246D01*
X0275003Y0289278D01*
X0275292Y0289303D01*
X0275581Y0289321D01*
X0275871Y0289331D01*
X0276161Y0289335D01*
X0276451Y0289331D01*
X0276741Y0289321D01*
X0277030Y0289303D01*
X0277319Y0289278D01*
X0277607Y0289246D01*
X0277894Y0289207D01*
X0278180Y0289161D01*
X0278465Y0289108D01*
X0278749Y0289048D01*
X0279031Y0288981D01*
X0279311Y0288907D01*
X0279590Y0288826D01*
X0279866Y0288739D01*
X0280140Y0288645D01*
X0280412Y0288544D01*
X0280681Y0288436D01*
X0280947Y0288322D01*
X0281211Y0288201D01*
X0281471Y0288074D01*
X0281729Y0287940D01*
X0281983Y0287801D01*
X0282233Y0287655D01*
X0282480Y0287503D01*
X0282723Y0287344D01*
X0282962Y0287180D01*
X0283197Y0287011D01*
X0283428Y0286835D01*
X0283654Y0286654D01*
X0283876Y0286467D01*
X0284093Y0286275D01*
X0284305Y0286078D01*
X0284513Y0285876D01*
X0284715Y0285668D01*
X0284912Y0285456D01*
X0285104Y0285239D01*
X0285291Y0285017D01*
X0285472Y0284791D01*
X0285648Y0284560D01*
X0285817Y0284325D01*
X0285981Y0284086D01*
X0286140Y0283843D01*
X0286292Y0283596D01*
X0286438Y0283346D01*
X0286577Y0283092D01*
X0286711Y0282834D01*
X0286838Y0282574D01*
X0286959Y0282310D01*
X0287073Y0282044D01*
X0287181Y0281775D01*
X0287282Y0281503D01*
X0287376Y0281229D01*
X0287463Y0280953D01*
X0287544Y0280674D01*
X0287618Y0280394D01*
X0287685Y0280112D01*
X0287745Y0279828D01*
X0287798Y0279543D01*
X0287844Y0279257D01*
X0287883Y0278970D01*
X0287915Y0278682D01*
X0287940Y0278393D01*
X0287958Y0278104D01*
X0287968Y0277814D01*
X0287972Y0277524D01*
X0287968Y0277234D01*
X0287958Y0276944D01*
X0287940Y0276655D01*
X0287915Y0276366D01*
X0287883Y0276078D01*
X0287844Y0275791D01*
X0287798Y0275505D01*
X0287745Y0275220D01*
X0287685Y0274936D01*
X0287618Y0274654D01*
X0287544Y0274374D01*
X0287463Y0274095D01*
X0287376Y0273819D01*
X0287282Y0273545D01*
X0287181Y0273273D01*
X0287073Y0273004D01*
X0286959Y0272738D01*
X0286838Y0272474D01*
X0286711Y0272214D01*
X0286577Y0271956D01*
X0286438Y0271702D01*
X0286292Y0271452D01*
X0286140Y0271205D01*
X0285981Y0270962D01*
X0285817Y0270723D01*
X0285648Y0270488D01*
X0285472Y0270257D01*
X0285291Y0270031D01*
X0285104Y0269809D01*
X0284912Y0269592D01*
X0284715Y0269380D01*
X0284513Y0269172D01*
X0284305Y0268970D01*
X0284093Y0268773D01*
X0283876Y0268581D01*
X0283654Y0268394D01*
X0283428Y0268213D01*
X0283197Y0268037D01*
X0282962Y0267868D01*
X0282723Y0267704D01*
X0282480Y0267545D01*
X0282233Y0267393D01*
X0281983Y0267247D01*
X0281729Y0267108D01*
X0281471Y0266974D01*
X0281211Y0266847D01*
X0280947Y0266726D01*
X0280681Y0266612D01*
X0280412Y0266504D01*
X0280140Y0266403D01*
X0279866Y0266309D01*
X0279590Y0266222D01*
X0279311Y0266141D01*
X0279031Y0266067D01*
X0278749Y0266000D01*
X0278465Y0265940D01*
X0278180Y0265887D01*
X0277894Y0265841D01*
X0277607Y0265802D01*
X0277319Y0265770D01*
X0277030Y0265745D01*
X0276741Y0265727D01*
X0276451Y0265717D01*
X0276161Y0265713D01*
X0275871Y0265717D01*
X0275581Y0265727D01*
X0275292Y0265745D01*
X0275003Y0265770D01*
X0274715Y0265802D01*
X0274428Y0265841D01*
X0274142Y0265887D01*
X0273857Y0265940D01*
X0273573Y0266000D01*
X0273291Y0266067D01*
X0273011Y0266141D01*
X0272732Y0266222D01*
X0272456Y0266309D01*
X0272182Y0266403D01*
X0271910Y0266504D01*
X0271641Y0266612D01*
X0271375Y0266726D01*
X0271111Y0266847D01*
X0270851Y0266974D01*
X0270593Y0267108D01*
X0270339Y0267247D01*
X0270089Y0267393D01*
X0269842Y0267545D01*
X0269599Y0267704D01*
X0269360Y0267868D01*
X0269125Y0268037D01*
X0268894Y0268213D01*
X0268668Y0268394D01*
X0268446Y0268581D01*
X0268229Y0268773D01*
X0268017Y0268970D01*
X0267809Y0269172D01*
X0267607Y0269380D01*
X0267410Y0269592D01*
X0267218Y0269809D01*
X0267031Y0270031D01*
X0266850Y0270257D01*
X0266674Y0270488D01*
X0266505Y0270723D01*
X0266341Y0270962D01*
X0266182Y0271205D01*
X0266030Y0271452D01*
X0265884Y0271702D01*
X0265745Y0271956D01*
X0265611Y0272214D01*
X0265484Y0272474D01*
X0265363Y0272738D01*
X0265249Y0273004D01*
X0265141Y0273273D01*
X0265040Y0273545D01*
X0264946Y0273819D01*
X0264859Y0274095D01*
X0264778Y0274374D01*
X0264704Y0274654D01*
X0264637Y0274936D01*
X0264577Y0275220D01*
X0264524Y0275505D01*
X0264478Y0275791D01*
X0264439Y0276078D01*
X0264407Y0276366D01*
X0264382Y0276655D01*
X0264364Y0276944D01*
X0264354Y0277234D01*
X0264350Y0277524D01*
D19*
X0251930Y0293940D02*
X0247835Y0293940D01*
X0247835Y0290200D01*
X0217835Y0290200D01*
X0217835Y0293940D01*
X0213741Y0293940D01*
X0213741Y0240791D01*
X0251930Y0240791D01*
X0251930Y0293940D01*
X0247835Y0293940D02*
X0217835Y0293940D01*
X0085335Y0229212D02*
X0085335Y0193779D01*
X0047855Y0193779D01*
X0047855Y0229212D01*
X0085335Y0229212D01*
X0085340Y0120117D02*
X0047860Y0120117D01*
X0047860Y0084683D01*
X0085340Y0084683D01*
X0085340Y0120117D01*
X0213741Y0069609D02*
X0213741Y0016460D01*
X0217835Y0016460D01*
X0217835Y0020200D01*
X0247835Y0020200D01*
X0247835Y0016460D01*
X0251930Y0016460D01*
X0251930Y0069609D01*
X0213741Y0069609D01*
X0217835Y0016460D02*
X0247835Y0016460D01*
D20*
X0176095Y0031300D02*
X0176095Y0048800D01*
X0176095Y0031300D02*
X0176093Y0031193D01*
X0176087Y0031086D01*
X0176078Y0030979D01*
X0176064Y0030873D01*
X0176047Y0030767D01*
X0176026Y0030662D01*
X0176002Y0030558D01*
X0175973Y0030455D01*
X0175941Y0030353D01*
X0175906Y0030252D01*
X0175867Y0030152D01*
X0175824Y0030054D01*
X0175778Y0029957D01*
X0175728Y0029862D01*
X0175675Y0029769D01*
X0175619Y0029678D01*
X0175559Y0029589D01*
X0175497Y0029502D01*
X0175431Y0029418D01*
X0175362Y0029335D01*
X0175291Y0029256D01*
X0175216Y0029179D01*
X0175139Y0029104D01*
X0175060Y0029033D01*
X0174977Y0028964D01*
X0174893Y0028898D01*
X0174806Y0028836D01*
X0174717Y0028776D01*
X0174626Y0028720D01*
X0174533Y0028667D01*
X0174438Y0028617D01*
X0174341Y0028571D01*
X0174243Y0028528D01*
X0174143Y0028489D01*
X0174042Y0028454D01*
X0173940Y0028422D01*
X0173837Y0028393D01*
X0173733Y0028369D01*
X0173628Y0028348D01*
X0173522Y0028331D01*
X0173416Y0028317D01*
X0173309Y0028308D01*
X0173202Y0028302D01*
X0173095Y0028300D01*
X0135095Y0028300D02*
X0134988Y0028302D01*
X0134881Y0028308D01*
X0134774Y0028317D01*
X0134668Y0028331D01*
X0134562Y0028348D01*
X0134457Y0028369D01*
X0134353Y0028393D01*
X0134250Y0028422D01*
X0134148Y0028454D01*
X0134047Y0028489D01*
X0133947Y0028528D01*
X0133849Y0028571D01*
X0133752Y0028617D01*
X0133657Y0028667D01*
X0133564Y0028720D01*
X0133473Y0028776D01*
X0133384Y0028836D01*
X0133297Y0028898D01*
X0133213Y0028964D01*
X0133130Y0029033D01*
X0133051Y0029104D01*
X0132974Y0029179D01*
X0132899Y0029256D01*
X0132828Y0029335D01*
X0132759Y0029418D01*
X0132693Y0029502D01*
X0132631Y0029589D01*
X0132571Y0029678D01*
X0132515Y0029769D01*
X0132462Y0029862D01*
X0132412Y0029957D01*
X0132366Y0030054D01*
X0132323Y0030152D01*
X0132284Y0030252D01*
X0132249Y0030353D01*
X0132217Y0030455D01*
X0132188Y0030558D01*
X0132164Y0030662D01*
X0132143Y0030767D01*
X0132126Y0030873D01*
X0132112Y0030979D01*
X0132103Y0031086D01*
X0132097Y0031193D01*
X0132095Y0031300D01*
X0132095Y0048800D01*
X0097355Y0048800D02*
X0097355Y0031300D01*
X0097353Y0031193D01*
X0097347Y0031086D01*
X0097338Y0030979D01*
X0097324Y0030873D01*
X0097307Y0030767D01*
X0097286Y0030662D01*
X0097262Y0030558D01*
X0097233Y0030455D01*
X0097201Y0030353D01*
X0097166Y0030252D01*
X0097127Y0030152D01*
X0097084Y0030054D01*
X0097038Y0029957D01*
X0096988Y0029862D01*
X0096935Y0029769D01*
X0096879Y0029678D01*
X0096819Y0029589D01*
X0096757Y0029502D01*
X0096691Y0029418D01*
X0096622Y0029335D01*
X0096551Y0029256D01*
X0096476Y0029179D01*
X0096399Y0029104D01*
X0096320Y0029033D01*
X0096237Y0028964D01*
X0096153Y0028898D01*
X0096066Y0028836D01*
X0095977Y0028776D01*
X0095886Y0028720D01*
X0095793Y0028667D01*
X0095698Y0028617D01*
X0095601Y0028571D01*
X0095503Y0028528D01*
X0095403Y0028489D01*
X0095302Y0028454D01*
X0095200Y0028422D01*
X0095097Y0028393D01*
X0094993Y0028369D01*
X0094888Y0028348D01*
X0094782Y0028331D01*
X0094676Y0028317D01*
X0094569Y0028308D01*
X0094462Y0028302D01*
X0094355Y0028300D01*
X0056355Y0028300D02*
X0056248Y0028302D01*
X0056141Y0028308D01*
X0056034Y0028317D01*
X0055928Y0028331D01*
X0055822Y0028348D01*
X0055717Y0028369D01*
X0055613Y0028393D01*
X0055510Y0028422D01*
X0055408Y0028454D01*
X0055307Y0028489D01*
X0055207Y0028528D01*
X0055109Y0028571D01*
X0055012Y0028617D01*
X0054917Y0028667D01*
X0054824Y0028720D01*
X0054733Y0028776D01*
X0054644Y0028836D01*
X0054557Y0028898D01*
X0054473Y0028964D01*
X0054390Y0029033D01*
X0054311Y0029104D01*
X0054234Y0029179D01*
X0054159Y0029256D01*
X0054088Y0029335D01*
X0054019Y0029418D01*
X0053953Y0029502D01*
X0053891Y0029589D01*
X0053831Y0029678D01*
X0053775Y0029769D01*
X0053722Y0029862D01*
X0053672Y0029957D01*
X0053626Y0030054D01*
X0053583Y0030152D01*
X0053544Y0030252D01*
X0053509Y0030353D01*
X0053477Y0030455D01*
X0053448Y0030558D01*
X0053424Y0030662D01*
X0053403Y0030767D01*
X0053386Y0030873D01*
X0053372Y0030979D01*
X0053363Y0031086D01*
X0053357Y0031193D01*
X0053355Y0031300D01*
X0053355Y0048800D01*
X0053355Y0262200D02*
X0053355Y0279700D01*
X0053357Y0279807D01*
X0053363Y0279914D01*
X0053372Y0280021D01*
X0053386Y0280127D01*
X0053403Y0280233D01*
X0053424Y0280338D01*
X0053448Y0280442D01*
X0053477Y0280545D01*
X0053509Y0280647D01*
X0053544Y0280748D01*
X0053583Y0280848D01*
X0053626Y0280946D01*
X0053672Y0281043D01*
X0053722Y0281138D01*
X0053775Y0281231D01*
X0053831Y0281322D01*
X0053891Y0281411D01*
X0053953Y0281498D01*
X0054019Y0281582D01*
X0054088Y0281665D01*
X0054159Y0281744D01*
X0054234Y0281821D01*
X0054311Y0281896D01*
X0054390Y0281967D01*
X0054473Y0282036D01*
X0054557Y0282102D01*
X0054644Y0282164D01*
X0054733Y0282224D01*
X0054824Y0282280D01*
X0054917Y0282333D01*
X0055012Y0282383D01*
X0055109Y0282429D01*
X0055207Y0282472D01*
X0055307Y0282511D01*
X0055408Y0282546D01*
X0055510Y0282578D01*
X0055613Y0282607D01*
X0055717Y0282631D01*
X0055822Y0282652D01*
X0055928Y0282669D01*
X0056034Y0282683D01*
X0056141Y0282692D01*
X0056248Y0282698D01*
X0056355Y0282700D01*
X0094355Y0282700D02*
X0094462Y0282698D01*
X0094569Y0282692D01*
X0094676Y0282683D01*
X0094782Y0282669D01*
X0094888Y0282652D01*
X0094993Y0282631D01*
X0095097Y0282607D01*
X0095200Y0282578D01*
X0095302Y0282546D01*
X0095403Y0282511D01*
X0095503Y0282472D01*
X0095601Y0282429D01*
X0095698Y0282383D01*
X0095793Y0282333D01*
X0095886Y0282280D01*
X0095977Y0282224D01*
X0096066Y0282164D01*
X0096153Y0282102D01*
X0096237Y0282036D01*
X0096320Y0281967D01*
X0096399Y0281896D01*
X0096476Y0281821D01*
X0096551Y0281744D01*
X0096622Y0281665D01*
X0096691Y0281582D01*
X0096757Y0281498D01*
X0096819Y0281411D01*
X0096879Y0281322D01*
X0096935Y0281231D01*
X0096988Y0281138D01*
X0097038Y0281043D01*
X0097084Y0280946D01*
X0097127Y0280848D01*
X0097166Y0280748D01*
X0097201Y0280647D01*
X0097233Y0280545D01*
X0097262Y0280442D01*
X0097286Y0280338D01*
X0097307Y0280233D01*
X0097324Y0280127D01*
X0097338Y0280021D01*
X0097347Y0279914D01*
X0097353Y0279807D01*
X0097355Y0279700D01*
X0097355Y0262200D01*
X0132095Y0262200D02*
X0132095Y0279700D01*
X0132097Y0279807D01*
X0132103Y0279914D01*
X0132112Y0280021D01*
X0132126Y0280127D01*
X0132143Y0280233D01*
X0132164Y0280338D01*
X0132188Y0280442D01*
X0132217Y0280545D01*
X0132249Y0280647D01*
X0132284Y0280748D01*
X0132323Y0280848D01*
X0132366Y0280946D01*
X0132412Y0281043D01*
X0132462Y0281138D01*
X0132515Y0281231D01*
X0132571Y0281322D01*
X0132631Y0281411D01*
X0132693Y0281498D01*
X0132759Y0281582D01*
X0132828Y0281665D01*
X0132899Y0281744D01*
X0132974Y0281821D01*
X0133051Y0281896D01*
X0133130Y0281967D01*
X0133213Y0282036D01*
X0133297Y0282102D01*
X0133384Y0282164D01*
X0133473Y0282224D01*
X0133564Y0282280D01*
X0133657Y0282333D01*
X0133752Y0282383D01*
X0133849Y0282429D01*
X0133947Y0282472D01*
X0134047Y0282511D01*
X0134148Y0282546D01*
X0134250Y0282578D01*
X0134353Y0282607D01*
X0134457Y0282631D01*
X0134562Y0282652D01*
X0134668Y0282669D01*
X0134774Y0282683D01*
X0134881Y0282692D01*
X0134988Y0282698D01*
X0135095Y0282700D01*
X0173095Y0282700D02*
X0173202Y0282698D01*
X0173309Y0282692D01*
X0173416Y0282683D01*
X0173522Y0282669D01*
X0173628Y0282652D01*
X0173733Y0282631D01*
X0173837Y0282607D01*
X0173940Y0282578D01*
X0174042Y0282546D01*
X0174143Y0282511D01*
X0174243Y0282472D01*
X0174341Y0282429D01*
X0174438Y0282383D01*
X0174533Y0282333D01*
X0174626Y0282280D01*
X0174717Y0282224D01*
X0174806Y0282164D01*
X0174893Y0282102D01*
X0174977Y0282036D01*
X0175060Y0281967D01*
X0175139Y0281896D01*
X0175216Y0281821D01*
X0175291Y0281744D01*
X0175362Y0281665D01*
X0175431Y0281582D01*
X0175497Y0281498D01*
X0175559Y0281411D01*
X0175619Y0281322D01*
X0175675Y0281231D01*
X0175728Y0281138D01*
X0175778Y0281043D01*
X0175824Y0280946D01*
X0175867Y0280848D01*
X0175906Y0280748D01*
X0175941Y0280647D01*
X0175973Y0280545D01*
X0176002Y0280442D01*
X0176026Y0280338D01*
X0176047Y0280233D01*
X0176064Y0280127D01*
X0176078Y0280021D01*
X0176087Y0279914D01*
X0176093Y0279807D01*
X0176095Y0279700D01*
X0176095Y0262200D01*
D21*
X0081095Y0196495D02*
X0081097Y0196539D01*
X0081103Y0196583D01*
X0081113Y0196626D01*
X0081126Y0196668D01*
X0081143Y0196709D01*
X0081164Y0196748D01*
X0081188Y0196785D01*
X0081215Y0196820D01*
X0081245Y0196852D01*
X0081278Y0196882D01*
X0081314Y0196908D01*
X0081351Y0196932D01*
X0081391Y0196951D01*
X0081432Y0196968D01*
X0081475Y0196980D01*
X0081518Y0196989D01*
X0081562Y0196994D01*
X0081606Y0196995D01*
X0081650Y0196992D01*
X0081694Y0196985D01*
X0081737Y0196974D01*
X0081779Y0196960D01*
X0081819Y0196942D01*
X0081858Y0196920D01*
X0081894Y0196896D01*
X0081928Y0196868D01*
X0081960Y0196837D01*
X0081989Y0196803D01*
X0082015Y0196767D01*
X0082037Y0196729D01*
X0082056Y0196689D01*
X0082071Y0196647D01*
X0082083Y0196605D01*
X0082091Y0196561D01*
X0082095Y0196517D01*
X0082095Y0196473D01*
X0082091Y0196429D01*
X0082083Y0196385D01*
X0082071Y0196343D01*
X0082056Y0196301D01*
X0082037Y0196261D01*
X0082015Y0196223D01*
X0081989Y0196187D01*
X0081960Y0196153D01*
X0081928Y0196122D01*
X0081894Y0196094D01*
X0081858Y0196070D01*
X0081819Y0196048D01*
X0081779Y0196030D01*
X0081737Y0196016D01*
X0081694Y0196005D01*
X0081650Y0195998D01*
X0081606Y0195995D01*
X0081562Y0195996D01*
X0081518Y0196001D01*
X0081475Y0196010D01*
X0081432Y0196022D01*
X0081391Y0196039D01*
X0081351Y0196058D01*
X0081314Y0196082D01*
X0081278Y0196108D01*
X0081245Y0196138D01*
X0081215Y0196170D01*
X0081188Y0196205D01*
X0081164Y0196242D01*
X0081143Y0196281D01*
X0081126Y0196322D01*
X0081113Y0196364D01*
X0081103Y0196407D01*
X0081097Y0196451D01*
X0081095Y0196495D01*
X0051100Y0117400D02*
X0051102Y0117444D01*
X0051108Y0117488D01*
X0051118Y0117531D01*
X0051131Y0117573D01*
X0051148Y0117614D01*
X0051169Y0117653D01*
X0051193Y0117690D01*
X0051220Y0117725D01*
X0051250Y0117757D01*
X0051283Y0117787D01*
X0051319Y0117813D01*
X0051356Y0117837D01*
X0051396Y0117856D01*
X0051437Y0117873D01*
X0051480Y0117885D01*
X0051523Y0117894D01*
X0051567Y0117899D01*
X0051611Y0117900D01*
X0051655Y0117897D01*
X0051699Y0117890D01*
X0051742Y0117879D01*
X0051784Y0117865D01*
X0051824Y0117847D01*
X0051863Y0117825D01*
X0051899Y0117801D01*
X0051933Y0117773D01*
X0051965Y0117742D01*
X0051994Y0117708D01*
X0052020Y0117672D01*
X0052042Y0117634D01*
X0052061Y0117594D01*
X0052076Y0117552D01*
X0052088Y0117510D01*
X0052096Y0117466D01*
X0052100Y0117422D01*
X0052100Y0117378D01*
X0052096Y0117334D01*
X0052088Y0117290D01*
X0052076Y0117248D01*
X0052061Y0117206D01*
X0052042Y0117166D01*
X0052020Y0117128D01*
X0051994Y0117092D01*
X0051965Y0117058D01*
X0051933Y0117027D01*
X0051899Y0116999D01*
X0051863Y0116975D01*
X0051824Y0116953D01*
X0051784Y0116935D01*
X0051742Y0116921D01*
X0051699Y0116910D01*
X0051655Y0116903D01*
X0051611Y0116900D01*
X0051567Y0116901D01*
X0051523Y0116906D01*
X0051480Y0116915D01*
X0051437Y0116927D01*
X0051396Y0116944D01*
X0051356Y0116963D01*
X0051319Y0116987D01*
X0051283Y0117013D01*
X0051250Y0117043D01*
X0051220Y0117075D01*
X0051193Y0117110D01*
X0051169Y0117147D01*
X0051148Y0117186D01*
X0051131Y0117227D01*
X0051118Y0117269D01*
X0051108Y0117312D01*
X0051102Y0117356D01*
X0051100Y0117400D01*
M02*
