G75*
%MOIN*%
%OFA0B0*%
%FSLAX25Y25*%
%IPPOS*%
%LPD*%
%AMOC8*
5,1,8,0,0,1.08239X$1,22.5*
%
%ADD10R,0.04337X0.04731*%
%ADD11R,0.04731X0.04337*%
%ADD12R,0.03943X0.03943*%
%ADD13OC8,0.06400*%
%ADD14R,0.06400X0.06400*%
%ADD15C,0.00000*%
%ADD16C,0.12998*%
%ADD17C,0.06400*%
%ADD18C,0.05550*%
%ADD19R,0.05550X0.05550*%
%ADD20C,0.06896*%
%ADD21C,0.10439*%
%ADD22C,0.16148*%
%ADD23R,0.06699X0.04337*%
%ADD24C,0.05400*%
%ADD25R,0.05000X0.01800*%
%ADD26R,0.02600X0.05400*%
%ADD27C,0.08000*%
D10*
X0061454Y0074200D03*
X0068146Y0074200D03*
X0114800Y0114854D03*
X0114800Y0121546D03*
X0154300Y0118854D03*
X0154300Y0125546D03*
X0161454Y0110700D03*
X0168146Y0110700D03*
X0168146Y0100700D03*
X0161454Y0100700D03*
X0154300Y0093046D03*
X0154300Y0086354D03*
X0154146Y0078700D03*
X0147454Y0078700D03*
X0178800Y0102354D03*
X0178800Y0109046D03*
X0222800Y0082546D03*
X0222800Y0075854D03*
X0116300Y0167854D03*
X0116300Y0174546D03*
X0109146Y0206200D03*
X0102454Y0206200D03*
X0102454Y0216300D03*
X0109146Y0216300D03*
X0157954Y0215700D03*
X0164646Y0215700D03*
X0164646Y0223700D03*
X0157954Y0223700D03*
X0157954Y0207700D03*
X0164646Y0207700D03*
X0176300Y0197546D03*
X0176300Y0190854D03*
X0234800Y0210354D03*
X0234800Y0217046D03*
D11*
X0233146Y0235700D03*
X0226454Y0235700D03*
X0176646Y0207700D03*
X0169954Y0207700D03*
X0164646Y0231700D03*
X0157954Y0231700D03*
X0131146Y0223200D03*
X0124454Y0223200D03*
X0124500Y0197546D03*
X0124500Y0190854D03*
X0146300Y0125546D03*
X0146300Y0118854D03*
X0123800Y0103546D03*
X0123800Y0096854D03*
X0139954Y0093200D03*
X0146646Y0093200D03*
X0186800Y0102354D03*
X0194800Y0102354D03*
X0194800Y0109046D03*
X0186800Y0109046D03*
X0242800Y0082546D03*
X0242800Y0075854D03*
X0099800Y0085854D03*
X0099800Y0092546D03*
X0099800Y0112354D03*
X0099800Y0119046D03*
D12*
X0147650Y0070200D03*
X0153950Y0070200D03*
X0215800Y0076050D03*
X0215800Y0082350D03*
X0226650Y0229200D03*
X0232950Y0229200D03*
D13*
X0272500Y0209865D03*
X0272500Y0199865D03*
X0272500Y0189865D03*
X0282500Y0189865D03*
X0282500Y0199865D03*
X0282500Y0209865D03*
X0282500Y0219865D03*
X0282500Y0179865D03*
X0282500Y0169865D03*
X0272500Y0169865D03*
X0272500Y0179865D03*
X0282500Y0141700D03*
X0282500Y0131700D03*
X0282500Y0121700D03*
X0272500Y0121700D03*
X0272500Y0131700D03*
X0272500Y0111700D03*
X0272500Y0101700D03*
X0272500Y0091700D03*
X0282500Y0091700D03*
X0282500Y0101700D03*
X0282500Y0111700D03*
D14*
X0272500Y0141700D03*
X0272500Y0219865D03*
D15*
X0028111Y0017700D02*
X0016300Y0029511D01*
X0016300Y0281480D01*
X0028111Y0293291D01*
X0280080Y0293291D01*
X0291891Y0281480D01*
X0291891Y0029511D01*
X0280080Y0017700D01*
X0028111Y0017700D01*
X0025749Y0033448D02*
X0025751Y0033606D01*
X0025757Y0033764D01*
X0025767Y0033922D01*
X0025781Y0034080D01*
X0025799Y0034237D01*
X0025820Y0034394D01*
X0025846Y0034550D01*
X0025876Y0034706D01*
X0025909Y0034861D01*
X0025947Y0035014D01*
X0025988Y0035167D01*
X0026033Y0035319D01*
X0026082Y0035470D01*
X0026135Y0035619D01*
X0026191Y0035767D01*
X0026251Y0035913D01*
X0026315Y0036058D01*
X0026383Y0036201D01*
X0026454Y0036343D01*
X0026528Y0036483D01*
X0026606Y0036620D01*
X0026688Y0036756D01*
X0026772Y0036890D01*
X0026861Y0037021D01*
X0026952Y0037150D01*
X0027047Y0037277D01*
X0027144Y0037402D01*
X0027245Y0037524D01*
X0027349Y0037643D01*
X0027456Y0037760D01*
X0027566Y0037874D01*
X0027679Y0037985D01*
X0027794Y0038094D01*
X0027912Y0038199D01*
X0028033Y0038301D01*
X0028156Y0038401D01*
X0028282Y0038497D01*
X0028410Y0038590D01*
X0028540Y0038680D01*
X0028673Y0038766D01*
X0028808Y0038850D01*
X0028944Y0038929D01*
X0029083Y0039006D01*
X0029224Y0039078D01*
X0029366Y0039148D01*
X0029510Y0039213D01*
X0029656Y0039275D01*
X0029803Y0039333D01*
X0029952Y0039388D01*
X0030102Y0039439D01*
X0030253Y0039486D01*
X0030405Y0039529D01*
X0030558Y0039568D01*
X0030713Y0039604D01*
X0030868Y0039635D01*
X0031024Y0039663D01*
X0031180Y0039687D01*
X0031337Y0039707D01*
X0031495Y0039723D01*
X0031652Y0039735D01*
X0031811Y0039743D01*
X0031969Y0039747D01*
X0032127Y0039747D01*
X0032285Y0039743D01*
X0032444Y0039735D01*
X0032601Y0039723D01*
X0032759Y0039707D01*
X0032916Y0039687D01*
X0033072Y0039663D01*
X0033228Y0039635D01*
X0033383Y0039604D01*
X0033538Y0039568D01*
X0033691Y0039529D01*
X0033843Y0039486D01*
X0033994Y0039439D01*
X0034144Y0039388D01*
X0034293Y0039333D01*
X0034440Y0039275D01*
X0034586Y0039213D01*
X0034730Y0039148D01*
X0034872Y0039078D01*
X0035013Y0039006D01*
X0035152Y0038929D01*
X0035288Y0038850D01*
X0035423Y0038766D01*
X0035556Y0038680D01*
X0035686Y0038590D01*
X0035814Y0038497D01*
X0035940Y0038401D01*
X0036063Y0038301D01*
X0036184Y0038199D01*
X0036302Y0038094D01*
X0036417Y0037985D01*
X0036530Y0037874D01*
X0036640Y0037760D01*
X0036747Y0037643D01*
X0036851Y0037524D01*
X0036952Y0037402D01*
X0037049Y0037277D01*
X0037144Y0037150D01*
X0037235Y0037021D01*
X0037324Y0036890D01*
X0037408Y0036756D01*
X0037490Y0036620D01*
X0037568Y0036483D01*
X0037642Y0036343D01*
X0037713Y0036201D01*
X0037781Y0036058D01*
X0037845Y0035913D01*
X0037905Y0035767D01*
X0037961Y0035619D01*
X0038014Y0035470D01*
X0038063Y0035319D01*
X0038108Y0035167D01*
X0038149Y0035014D01*
X0038187Y0034861D01*
X0038220Y0034706D01*
X0038250Y0034550D01*
X0038276Y0034394D01*
X0038297Y0034237D01*
X0038315Y0034080D01*
X0038329Y0033922D01*
X0038339Y0033764D01*
X0038345Y0033606D01*
X0038347Y0033448D01*
X0038345Y0033290D01*
X0038339Y0033132D01*
X0038329Y0032974D01*
X0038315Y0032816D01*
X0038297Y0032659D01*
X0038276Y0032502D01*
X0038250Y0032346D01*
X0038220Y0032190D01*
X0038187Y0032035D01*
X0038149Y0031882D01*
X0038108Y0031729D01*
X0038063Y0031577D01*
X0038014Y0031426D01*
X0037961Y0031277D01*
X0037905Y0031129D01*
X0037845Y0030983D01*
X0037781Y0030838D01*
X0037713Y0030695D01*
X0037642Y0030553D01*
X0037568Y0030413D01*
X0037490Y0030276D01*
X0037408Y0030140D01*
X0037324Y0030006D01*
X0037235Y0029875D01*
X0037144Y0029746D01*
X0037049Y0029619D01*
X0036952Y0029494D01*
X0036851Y0029372D01*
X0036747Y0029253D01*
X0036640Y0029136D01*
X0036530Y0029022D01*
X0036417Y0028911D01*
X0036302Y0028802D01*
X0036184Y0028697D01*
X0036063Y0028595D01*
X0035940Y0028495D01*
X0035814Y0028399D01*
X0035686Y0028306D01*
X0035556Y0028216D01*
X0035423Y0028130D01*
X0035288Y0028046D01*
X0035152Y0027967D01*
X0035013Y0027890D01*
X0034872Y0027818D01*
X0034730Y0027748D01*
X0034586Y0027683D01*
X0034440Y0027621D01*
X0034293Y0027563D01*
X0034144Y0027508D01*
X0033994Y0027457D01*
X0033843Y0027410D01*
X0033691Y0027367D01*
X0033538Y0027328D01*
X0033383Y0027292D01*
X0033228Y0027261D01*
X0033072Y0027233D01*
X0032916Y0027209D01*
X0032759Y0027189D01*
X0032601Y0027173D01*
X0032444Y0027161D01*
X0032285Y0027153D01*
X0032127Y0027149D01*
X0031969Y0027149D01*
X0031811Y0027153D01*
X0031652Y0027161D01*
X0031495Y0027173D01*
X0031337Y0027189D01*
X0031180Y0027209D01*
X0031024Y0027233D01*
X0030868Y0027261D01*
X0030713Y0027292D01*
X0030558Y0027328D01*
X0030405Y0027367D01*
X0030253Y0027410D01*
X0030102Y0027457D01*
X0029952Y0027508D01*
X0029803Y0027563D01*
X0029656Y0027621D01*
X0029510Y0027683D01*
X0029366Y0027748D01*
X0029224Y0027818D01*
X0029083Y0027890D01*
X0028944Y0027967D01*
X0028808Y0028046D01*
X0028673Y0028130D01*
X0028540Y0028216D01*
X0028410Y0028306D01*
X0028282Y0028399D01*
X0028156Y0028495D01*
X0028033Y0028595D01*
X0027912Y0028697D01*
X0027794Y0028802D01*
X0027679Y0028911D01*
X0027566Y0029022D01*
X0027456Y0029136D01*
X0027349Y0029253D01*
X0027245Y0029372D01*
X0027144Y0029494D01*
X0027047Y0029619D01*
X0026952Y0029746D01*
X0026861Y0029875D01*
X0026772Y0030006D01*
X0026688Y0030140D01*
X0026606Y0030276D01*
X0026528Y0030413D01*
X0026454Y0030553D01*
X0026383Y0030695D01*
X0026315Y0030838D01*
X0026251Y0030983D01*
X0026191Y0031129D01*
X0026135Y0031277D01*
X0026082Y0031426D01*
X0026033Y0031577D01*
X0025988Y0031729D01*
X0025947Y0031882D01*
X0025909Y0032035D01*
X0025876Y0032190D01*
X0025846Y0032346D01*
X0025820Y0032502D01*
X0025799Y0032659D01*
X0025781Y0032816D01*
X0025767Y0032974D01*
X0025757Y0033132D01*
X0025751Y0033290D01*
X0025749Y0033448D01*
X0025749Y0072818D02*
X0025751Y0072976D01*
X0025757Y0073134D01*
X0025767Y0073292D01*
X0025781Y0073450D01*
X0025799Y0073607D01*
X0025820Y0073764D01*
X0025846Y0073920D01*
X0025876Y0074076D01*
X0025909Y0074231D01*
X0025947Y0074384D01*
X0025988Y0074537D01*
X0026033Y0074689D01*
X0026082Y0074840D01*
X0026135Y0074989D01*
X0026191Y0075137D01*
X0026251Y0075283D01*
X0026315Y0075428D01*
X0026383Y0075571D01*
X0026454Y0075713D01*
X0026528Y0075853D01*
X0026606Y0075990D01*
X0026688Y0076126D01*
X0026772Y0076260D01*
X0026861Y0076391D01*
X0026952Y0076520D01*
X0027047Y0076647D01*
X0027144Y0076772D01*
X0027245Y0076894D01*
X0027349Y0077013D01*
X0027456Y0077130D01*
X0027566Y0077244D01*
X0027679Y0077355D01*
X0027794Y0077464D01*
X0027912Y0077569D01*
X0028033Y0077671D01*
X0028156Y0077771D01*
X0028282Y0077867D01*
X0028410Y0077960D01*
X0028540Y0078050D01*
X0028673Y0078136D01*
X0028808Y0078220D01*
X0028944Y0078299D01*
X0029083Y0078376D01*
X0029224Y0078448D01*
X0029366Y0078518D01*
X0029510Y0078583D01*
X0029656Y0078645D01*
X0029803Y0078703D01*
X0029952Y0078758D01*
X0030102Y0078809D01*
X0030253Y0078856D01*
X0030405Y0078899D01*
X0030558Y0078938D01*
X0030713Y0078974D01*
X0030868Y0079005D01*
X0031024Y0079033D01*
X0031180Y0079057D01*
X0031337Y0079077D01*
X0031495Y0079093D01*
X0031652Y0079105D01*
X0031811Y0079113D01*
X0031969Y0079117D01*
X0032127Y0079117D01*
X0032285Y0079113D01*
X0032444Y0079105D01*
X0032601Y0079093D01*
X0032759Y0079077D01*
X0032916Y0079057D01*
X0033072Y0079033D01*
X0033228Y0079005D01*
X0033383Y0078974D01*
X0033538Y0078938D01*
X0033691Y0078899D01*
X0033843Y0078856D01*
X0033994Y0078809D01*
X0034144Y0078758D01*
X0034293Y0078703D01*
X0034440Y0078645D01*
X0034586Y0078583D01*
X0034730Y0078518D01*
X0034872Y0078448D01*
X0035013Y0078376D01*
X0035152Y0078299D01*
X0035288Y0078220D01*
X0035423Y0078136D01*
X0035556Y0078050D01*
X0035686Y0077960D01*
X0035814Y0077867D01*
X0035940Y0077771D01*
X0036063Y0077671D01*
X0036184Y0077569D01*
X0036302Y0077464D01*
X0036417Y0077355D01*
X0036530Y0077244D01*
X0036640Y0077130D01*
X0036747Y0077013D01*
X0036851Y0076894D01*
X0036952Y0076772D01*
X0037049Y0076647D01*
X0037144Y0076520D01*
X0037235Y0076391D01*
X0037324Y0076260D01*
X0037408Y0076126D01*
X0037490Y0075990D01*
X0037568Y0075853D01*
X0037642Y0075713D01*
X0037713Y0075571D01*
X0037781Y0075428D01*
X0037845Y0075283D01*
X0037905Y0075137D01*
X0037961Y0074989D01*
X0038014Y0074840D01*
X0038063Y0074689D01*
X0038108Y0074537D01*
X0038149Y0074384D01*
X0038187Y0074231D01*
X0038220Y0074076D01*
X0038250Y0073920D01*
X0038276Y0073764D01*
X0038297Y0073607D01*
X0038315Y0073450D01*
X0038329Y0073292D01*
X0038339Y0073134D01*
X0038345Y0072976D01*
X0038347Y0072818D01*
X0038345Y0072660D01*
X0038339Y0072502D01*
X0038329Y0072344D01*
X0038315Y0072186D01*
X0038297Y0072029D01*
X0038276Y0071872D01*
X0038250Y0071716D01*
X0038220Y0071560D01*
X0038187Y0071405D01*
X0038149Y0071252D01*
X0038108Y0071099D01*
X0038063Y0070947D01*
X0038014Y0070796D01*
X0037961Y0070647D01*
X0037905Y0070499D01*
X0037845Y0070353D01*
X0037781Y0070208D01*
X0037713Y0070065D01*
X0037642Y0069923D01*
X0037568Y0069783D01*
X0037490Y0069646D01*
X0037408Y0069510D01*
X0037324Y0069376D01*
X0037235Y0069245D01*
X0037144Y0069116D01*
X0037049Y0068989D01*
X0036952Y0068864D01*
X0036851Y0068742D01*
X0036747Y0068623D01*
X0036640Y0068506D01*
X0036530Y0068392D01*
X0036417Y0068281D01*
X0036302Y0068172D01*
X0036184Y0068067D01*
X0036063Y0067965D01*
X0035940Y0067865D01*
X0035814Y0067769D01*
X0035686Y0067676D01*
X0035556Y0067586D01*
X0035423Y0067500D01*
X0035288Y0067416D01*
X0035152Y0067337D01*
X0035013Y0067260D01*
X0034872Y0067188D01*
X0034730Y0067118D01*
X0034586Y0067053D01*
X0034440Y0066991D01*
X0034293Y0066933D01*
X0034144Y0066878D01*
X0033994Y0066827D01*
X0033843Y0066780D01*
X0033691Y0066737D01*
X0033538Y0066698D01*
X0033383Y0066662D01*
X0033228Y0066631D01*
X0033072Y0066603D01*
X0032916Y0066579D01*
X0032759Y0066559D01*
X0032601Y0066543D01*
X0032444Y0066531D01*
X0032285Y0066523D01*
X0032127Y0066519D01*
X0031969Y0066519D01*
X0031811Y0066523D01*
X0031652Y0066531D01*
X0031495Y0066543D01*
X0031337Y0066559D01*
X0031180Y0066579D01*
X0031024Y0066603D01*
X0030868Y0066631D01*
X0030713Y0066662D01*
X0030558Y0066698D01*
X0030405Y0066737D01*
X0030253Y0066780D01*
X0030102Y0066827D01*
X0029952Y0066878D01*
X0029803Y0066933D01*
X0029656Y0066991D01*
X0029510Y0067053D01*
X0029366Y0067118D01*
X0029224Y0067188D01*
X0029083Y0067260D01*
X0028944Y0067337D01*
X0028808Y0067416D01*
X0028673Y0067500D01*
X0028540Y0067586D01*
X0028410Y0067676D01*
X0028282Y0067769D01*
X0028156Y0067865D01*
X0028033Y0067965D01*
X0027912Y0068067D01*
X0027794Y0068172D01*
X0027679Y0068281D01*
X0027566Y0068392D01*
X0027456Y0068506D01*
X0027349Y0068623D01*
X0027245Y0068742D01*
X0027144Y0068864D01*
X0027047Y0068989D01*
X0026952Y0069116D01*
X0026861Y0069245D01*
X0026772Y0069376D01*
X0026688Y0069510D01*
X0026606Y0069646D01*
X0026528Y0069783D01*
X0026454Y0069923D01*
X0026383Y0070065D01*
X0026315Y0070208D01*
X0026251Y0070353D01*
X0026191Y0070499D01*
X0026135Y0070647D01*
X0026082Y0070796D01*
X0026033Y0070947D01*
X0025988Y0071099D01*
X0025947Y0071252D01*
X0025909Y0071405D01*
X0025876Y0071560D01*
X0025846Y0071716D01*
X0025820Y0071872D01*
X0025799Y0072029D01*
X0025781Y0072186D01*
X0025767Y0072344D01*
X0025757Y0072502D01*
X0025751Y0072660D01*
X0025749Y0072818D01*
X0025749Y0238172D02*
X0025751Y0238330D01*
X0025757Y0238488D01*
X0025767Y0238646D01*
X0025781Y0238804D01*
X0025799Y0238961D01*
X0025820Y0239118D01*
X0025846Y0239274D01*
X0025876Y0239430D01*
X0025909Y0239585D01*
X0025947Y0239738D01*
X0025988Y0239891D01*
X0026033Y0240043D01*
X0026082Y0240194D01*
X0026135Y0240343D01*
X0026191Y0240491D01*
X0026251Y0240637D01*
X0026315Y0240782D01*
X0026383Y0240925D01*
X0026454Y0241067D01*
X0026528Y0241207D01*
X0026606Y0241344D01*
X0026688Y0241480D01*
X0026772Y0241614D01*
X0026861Y0241745D01*
X0026952Y0241874D01*
X0027047Y0242001D01*
X0027144Y0242126D01*
X0027245Y0242248D01*
X0027349Y0242367D01*
X0027456Y0242484D01*
X0027566Y0242598D01*
X0027679Y0242709D01*
X0027794Y0242818D01*
X0027912Y0242923D01*
X0028033Y0243025D01*
X0028156Y0243125D01*
X0028282Y0243221D01*
X0028410Y0243314D01*
X0028540Y0243404D01*
X0028673Y0243490D01*
X0028808Y0243574D01*
X0028944Y0243653D01*
X0029083Y0243730D01*
X0029224Y0243802D01*
X0029366Y0243872D01*
X0029510Y0243937D01*
X0029656Y0243999D01*
X0029803Y0244057D01*
X0029952Y0244112D01*
X0030102Y0244163D01*
X0030253Y0244210D01*
X0030405Y0244253D01*
X0030558Y0244292D01*
X0030713Y0244328D01*
X0030868Y0244359D01*
X0031024Y0244387D01*
X0031180Y0244411D01*
X0031337Y0244431D01*
X0031495Y0244447D01*
X0031652Y0244459D01*
X0031811Y0244467D01*
X0031969Y0244471D01*
X0032127Y0244471D01*
X0032285Y0244467D01*
X0032444Y0244459D01*
X0032601Y0244447D01*
X0032759Y0244431D01*
X0032916Y0244411D01*
X0033072Y0244387D01*
X0033228Y0244359D01*
X0033383Y0244328D01*
X0033538Y0244292D01*
X0033691Y0244253D01*
X0033843Y0244210D01*
X0033994Y0244163D01*
X0034144Y0244112D01*
X0034293Y0244057D01*
X0034440Y0243999D01*
X0034586Y0243937D01*
X0034730Y0243872D01*
X0034872Y0243802D01*
X0035013Y0243730D01*
X0035152Y0243653D01*
X0035288Y0243574D01*
X0035423Y0243490D01*
X0035556Y0243404D01*
X0035686Y0243314D01*
X0035814Y0243221D01*
X0035940Y0243125D01*
X0036063Y0243025D01*
X0036184Y0242923D01*
X0036302Y0242818D01*
X0036417Y0242709D01*
X0036530Y0242598D01*
X0036640Y0242484D01*
X0036747Y0242367D01*
X0036851Y0242248D01*
X0036952Y0242126D01*
X0037049Y0242001D01*
X0037144Y0241874D01*
X0037235Y0241745D01*
X0037324Y0241614D01*
X0037408Y0241480D01*
X0037490Y0241344D01*
X0037568Y0241207D01*
X0037642Y0241067D01*
X0037713Y0240925D01*
X0037781Y0240782D01*
X0037845Y0240637D01*
X0037905Y0240491D01*
X0037961Y0240343D01*
X0038014Y0240194D01*
X0038063Y0240043D01*
X0038108Y0239891D01*
X0038149Y0239738D01*
X0038187Y0239585D01*
X0038220Y0239430D01*
X0038250Y0239274D01*
X0038276Y0239118D01*
X0038297Y0238961D01*
X0038315Y0238804D01*
X0038329Y0238646D01*
X0038339Y0238488D01*
X0038345Y0238330D01*
X0038347Y0238172D01*
X0038345Y0238014D01*
X0038339Y0237856D01*
X0038329Y0237698D01*
X0038315Y0237540D01*
X0038297Y0237383D01*
X0038276Y0237226D01*
X0038250Y0237070D01*
X0038220Y0236914D01*
X0038187Y0236759D01*
X0038149Y0236606D01*
X0038108Y0236453D01*
X0038063Y0236301D01*
X0038014Y0236150D01*
X0037961Y0236001D01*
X0037905Y0235853D01*
X0037845Y0235707D01*
X0037781Y0235562D01*
X0037713Y0235419D01*
X0037642Y0235277D01*
X0037568Y0235137D01*
X0037490Y0235000D01*
X0037408Y0234864D01*
X0037324Y0234730D01*
X0037235Y0234599D01*
X0037144Y0234470D01*
X0037049Y0234343D01*
X0036952Y0234218D01*
X0036851Y0234096D01*
X0036747Y0233977D01*
X0036640Y0233860D01*
X0036530Y0233746D01*
X0036417Y0233635D01*
X0036302Y0233526D01*
X0036184Y0233421D01*
X0036063Y0233319D01*
X0035940Y0233219D01*
X0035814Y0233123D01*
X0035686Y0233030D01*
X0035556Y0232940D01*
X0035423Y0232854D01*
X0035288Y0232770D01*
X0035152Y0232691D01*
X0035013Y0232614D01*
X0034872Y0232542D01*
X0034730Y0232472D01*
X0034586Y0232407D01*
X0034440Y0232345D01*
X0034293Y0232287D01*
X0034144Y0232232D01*
X0033994Y0232181D01*
X0033843Y0232134D01*
X0033691Y0232091D01*
X0033538Y0232052D01*
X0033383Y0232016D01*
X0033228Y0231985D01*
X0033072Y0231957D01*
X0032916Y0231933D01*
X0032759Y0231913D01*
X0032601Y0231897D01*
X0032444Y0231885D01*
X0032285Y0231877D01*
X0032127Y0231873D01*
X0031969Y0231873D01*
X0031811Y0231877D01*
X0031652Y0231885D01*
X0031495Y0231897D01*
X0031337Y0231913D01*
X0031180Y0231933D01*
X0031024Y0231957D01*
X0030868Y0231985D01*
X0030713Y0232016D01*
X0030558Y0232052D01*
X0030405Y0232091D01*
X0030253Y0232134D01*
X0030102Y0232181D01*
X0029952Y0232232D01*
X0029803Y0232287D01*
X0029656Y0232345D01*
X0029510Y0232407D01*
X0029366Y0232472D01*
X0029224Y0232542D01*
X0029083Y0232614D01*
X0028944Y0232691D01*
X0028808Y0232770D01*
X0028673Y0232854D01*
X0028540Y0232940D01*
X0028410Y0233030D01*
X0028282Y0233123D01*
X0028156Y0233219D01*
X0028033Y0233319D01*
X0027912Y0233421D01*
X0027794Y0233526D01*
X0027679Y0233635D01*
X0027566Y0233746D01*
X0027456Y0233860D01*
X0027349Y0233977D01*
X0027245Y0234096D01*
X0027144Y0234218D01*
X0027047Y0234343D01*
X0026952Y0234470D01*
X0026861Y0234599D01*
X0026772Y0234730D01*
X0026688Y0234864D01*
X0026606Y0235000D01*
X0026528Y0235137D01*
X0026454Y0235277D01*
X0026383Y0235419D01*
X0026315Y0235562D01*
X0026251Y0235707D01*
X0026191Y0235853D01*
X0026135Y0236001D01*
X0026082Y0236150D01*
X0026033Y0236301D01*
X0025988Y0236453D01*
X0025947Y0236606D01*
X0025909Y0236759D01*
X0025876Y0236914D01*
X0025846Y0237070D01*
X0025820Y0237226D01*
X0025799Y0237383D01*
X0025781Y0237540D01*
X0025767Y0237698D01*
X0025757Y0237856D01*
X0025751Y0238014D01*
X0025749Y0238172D01*
X0025749Y0277543D02*
X0025751Y0277701D01*
X0025757Y0277859D01*
X0025767Y0278017D01*
X0025781Y0278175D01*
X0025799Y0278332D01*
X0025820Y0278489D01*
X0025846Y0278645D01*
X0025876Y0278801D01*
X0025909Y0278956D01*
X0025947Y0279109D01*
X0025988Y0279262D01*
X0026033Y0279414D01*
X0026082Y0279565D01*
X0026135Y0279714D01*
X0026191Y0279862D01*
X0026251Y0280008D01*
X0026315Y0280153D01*
X0026383Y0280296D01*
X0026454Y0280438D01*
X0026528Y0280578D01*
X0026606Y0280715D01*
X0026688Y0280851D01*
X0026772Y0280985D01*
X0026861Y0281116D01*
X0026952Y0281245D01*
X0027047Y0281372D01*
X0027144Y0281497D01*
X0027245Y0281619D01*
X0027349Y0281738D01*
X0027456Y0281855D01*
X0027566Y0281969D01*
X0027679Y0282080D01*
X0027794Y0282189D01*
X0027912Y0282294D01*
X0028033Y0282396D01*
X0028156Y0282496D01*
X0028282Y0282592D01*
X0028410Y0282685D01*
X0028540Y0282775D01*
X0028673Y0282861D01*
X0028808Y0282945D01*
X0028944Y0283024D01*
X0029083Y0283101D01*
X0029224Y0283173D01*
X0029366Y0283243D01*
X0029510Y0283308D01*
X0029656Y0283370D01*
X0029803Y0283428D01*
X0029952Y0283483D01*
X0030102Y0283534D01*
X0030253Y0283581D01*
X0030405Y0283624D01*
X0030558Y0283663D01*
X0030713Y0283699D01*
X0030868Y0283730D01*
X0031024Y0283758D01*
X0031180Y0283782D01*
X0031337Y0283802D01*
X0031495Y0283818D01*
X0031652Y0283830D01*
X0031811Y0283838D01*
X0031969Y0283842D01*
X0032127Y0283842D01*
X0032285Y0283838D01*
X0032444Y0283830D01*
X0032601Y0283818D01*
X0032759Y0283802D01*
X0032916Y0283782D01*
X0033072Y0283758D01*
X0033228Y0283730D01*
X0033383Y0283699D01*
X0033538Y0283663D01*
X0033691Y0283624D01*
X0033843Y0283581D01*
X0033994Y0283534D01*
X0034144Y0283483D01*
X0034293Y0283428D01*
X0034440Y0283370D01*
X0034586Y0283308D01*
X0034730Y0283243D01*
X0034872Y0283173D01*
X0035013Y0283101D01*
X0035152Y0283024D01*
X0035288Y0282945D01*
X0035423Y0282861D01*
X0035556Y0282775D01*
X0035686Y0282685D01*
X0035814Y0282592D01*
X0035940Y0282496D01*
X0036063Y0282396D01*
X0036184Y0282294D01*
X0036302Y0282189D01*
X0036417Y0282080D01*
X0036530Y0281969D01*
X0036640Y0281855D01*
X0036747Y0281738D01*
X0036851Y0281619D01*
X0036952Y0281497D01*
X0037049Y0281372D01*
X0037144Y0281245D01*
X0037235Y0281116D01*
X0037324Y0280985D01*
X0037408Y0280851D01*
X0037490Y0280715D01*
X0037568Y0280578D01*
X0037642Y0280438D01*
X0037713Y0280296D01*
X0037781Y0280153D01*
X0037845Y0280008D01*
X0037905Y0279862D01*
X0037961Y0279714D01*
X0038014Y0279565D01*
X0038063Y0279414D01*
X0038108Y0279262D01*
X0038149Y0279109D01*
X0038187Y0278956D01*
X0038220Y0278801D01*
X0038250Y0278645D01*
X0038276Y0278489D01*
X0038297Y0278332D01*
X0038315Y0278175D01*
X0038329Y0278017D01*
X0038339Y0277859D01*
X0038345Y0277701D01*
X0038347Y0277543D01*
X0038345Y0277385D01*
X0038339Y0277227D01*
X0038329Y0277069D01*
X0038315Y0276911D01*
X0038297Y0276754D01*
X0038276Y0276597D01*
X0038250Y0276441D01*
X0038220Y0276285D01*
X0038187Y0276130D01*
X0038149Y0275977D01*
X0038108Y0275824D01*
X0038063Y0275672D01*
X0038014Y0275521D01*
X0037961Y0275372D01*
X0037905Y0275224D01*
X0037845Y0275078D01*
X0037781Y0274933D01*
X0037713Y0274790D01*
X0037642Y0274648D01*
X0037568Y0274508D01*
X0037490Y0274371D01*
X0037408Y0274235D01*
X0037324Y0274101D01*
X0037235Y0273970D01*
X0037144Y0273841D01*
X0037049Y0273714D01*
X0036952Y0273589D01*
X0036851Y0273467D01*
X0036747Y0273348D01*
X0036640Y0273231D01*
X0036530Y0273117D01*
X0036417Y0273006D01*
X0036302Y0272897D01*
X0036184Y0272792D01*
X0036063Y0272690D01*
X0035940Y0272590D01*
X0035814Y0272494D01*
X0035686Y0272401D01*
X0035556Y0272311D01*
X0035423Y0272225D01*
X0035288Y0272141D01*
X0035152Y0272062D01*
X0035013Y0271985D01*
X0034872Y0271913D01*
X0034730Y0271843D01*
X0034586Y0271778D01*
X0034440Y0271716D01*
X0034293Y0271658D01*
X0034144Y0271603D01*
X0033994Y0271552D01*
X0033843Y0271505D01*
X0033691Y0271462D01*
X0033538Y0271423D01*
X0033383Y0271387D01*
X0033228Y0271356D01*
X0033072Y0271328D01*
X0032916Y0271304D01*
X0032759Y0271284D01*
X0032601Y0271268D01*
X0032444Y0271256D01*
X0032285Y0271248D01*
X0032127Y0271244D01*
X0031969Y0271244D01*
X0031811Y0271248D01*
X0031652Y0271256D01*
X0031495Y0271268D01*
X0031337Y0271284D01*
X0031180Y0271304D01*
X0031024Y0271328D01*
X0030868Y0271356D01*
X0030713Y0271387D01*
X0030558Y0271423D01*
X0030405Y0271462D01*
X0030253Y0271505D01*
X0030102Y0271552D01*
X0029952Y0271603D01*
X0029803Y0271658D01*
X0029656Y0271716D01*
X0029510Y0271778D01*
X0029366Y0271843D01*
X0029224Y0271913D01*
X0029083Y0271985D01*
X0028944Y0272062D01*
X0028808Y0272141D01*
X0028673Y0272225D01*
X0028540Y0272311D01*
X0028410Y0272401D01*
X0028282Y0272494D01*
X0028156Y0272590D01*
X0028033Y0272690D01*
X0027912Y0272792D01*
X0027794Y0272897D01*
X0027679Y0273006D01*
X0027566Y0273117D01*
X0027456Y0273231D01*
X0027349Y0273348D01*
X0027245Y0273467D01*
X0027144Y0273589D01*
X0027047Y0273714D01*
X0026952Y0273841D01*
X0026861Y0273970D01*
X0026772Y0274101D01*
X0026688Y0274235D01*
X0026606Y0274371D01*
X0026528Y0274508D01*
X0026454Y0274648D01*
X0026383Y0274790D01*
X0026315Y0274933D01*
X0026251Y0275078D01*
X0026191Y0275224D01*
X0026135Y0275372D01*
X0026082Y0275521D01*
X0026033Y0275672D01*
X0025988Y0275824D01*
X0025947Y0275977D01*
X0025909Y0276130D01*
X0025876Y0276285D01*
X0025846Y0276441D01*
X0025820Y0276597D01*
X0025799Y0276754D01*
X0025781Y0276911D01*
X0025767Y0277069D01*
X0025757Y0277227D01*
X0025751Y0277385D01*
X0025749Y0277543D01*
X0191103Y0238172D02*
X0191105Y0238330D01*
X0191111Y0238488D01*
X0191121Y0238646D01*
X0191135Y0238804D01*
X0191153Y0238961D01*
X0191174Y0239118D01*
X0191200Y0239274D01*
X0191230Y0239430D01*
X0191263Y0239585D01*
X0191301Y0239738D01*
X0191342Y0239891D01*
X0191387Y0240043D01*
X0191436Y0240194D01*
X0191489Y0240343D01*
X0191545Y0240491D01*
X0191605Y0240637D01*
X0191669Y0240782D01*
X0191737Y0240925D01*
X0191808Y0241067D01*
X0191882Y0241207D01*
X0191960Y0241344D01*
X0192042Y0241480D01*
X0192126Y0241614D01*
X0192215Y0241745D01*
X0192306Y0241874D01*
X0192401Y0242001D01*
X0192498Y0242126D01*
X0192599Y0242248D01*
X0192703Y0242367D01*
X0192810Y0242484D01*
X0192920Y0242598D01*
X0193033Y0242709D01*
X0193148Y0242818D01*
X0193266Y0242923D01*
X0193387Y0243025D01*
X0193510Y0243125D01*
X0193636Y0243221D01*
X0193764Y0243314D01*
X0193894Y0243404D01*
X0194027Y0243490D01*
X0194162Y0243574D01*
X0194298Y0243653D01*
X0194437Y0243730D01*
X0194578Y0243802D01*
X0194720Y0243872D01*
X0194864Y0243937D01*
X0195010Y0243999D01*
X0195157Y0244057D01*
X0195306Y0244112D01*
X0195456Y0244163D01*
X0195607Y0244210D01*
X0195759Y0244253D01*
X0195912Y0244292D01*
X0196067Y0244328D01*
X0196222Y0244359D01*
X0196378Y0244387D01*
X0196534Y0244411D01*
X0196691Y0244431D01*
X0196849Y0244447D01*
X0197006Y0244459D01*
X0197165Y0244467D01*
X0197323Y0244471D01*
X0197481Y0244471D01*
X0197639Y0244467D01*
X0197798Y0244459D01*
X0197955Y0244447D01*
X0198113Y0244431D01*
X0198270Y0244411D01*
X0198426Y0244387D01*
X0198582Y0244359D01*
X0198737Y0244328D01*
X0198892Y0244292D01*
X0199045Y0244253D01*
X0199197Y0244210D01*
X0199348Y0244163D01*
X0199498Y0244112D01*
X0199647Y0244057D01*
X0199794Y0243999D01*
X0199940Y0243937D01*
X0200084Y0243872D01*
X0200226Y0243802D01*
X0200367Y0243730D01*
X0200506Y0243653D01*
X0200642Y0243574D01*
X0200777Y0243490D01*
X0200910Y0243404D01*
X0201040Y0243314D01*
X0201168Y0243221D01*
X0201294Y0243125D01*
X0201417Y0243025D01*
X0201538Y0242923D01*
X0201656Y0242818D01*
X0201771Y0242709D01*
X0201884Y0242598D01*
X0201994Y0242484D01*
X0202101Y0242367D01*
X0202205Y0242248D01*
X0202306Y0242126D01*
X0202403Y0242001D01*
X0202498Y0241874D01*
X0202589Y0241745D01*
X0202678Y0241614D01*
X0202762Y0241480D01*
X0202844Y0241344D01*
X0202922Y0241207D01*
X0202996Y0241067D01*
X0203067Y0240925D01*
X0203135Y0240782D01*
X0203199Y0240637D01*
X0203259Y0240491D01*
X0203315Y0240343D01*
X0203368Y0240194D01*
X0203417Y0240043D01*
X0203462Y0239891D01*
X0203503Y0239738D01*
X0203541Y0239585D01*
X0203574Y0239430D01*
X0203604Y0239274D01*
X0203630Y0239118D01*
X0203651Y0238961D01*
X0203669Y0238804D01*
X0203683Y0238646D01*
X0203693Y0238488D01*
X0203699Y0238330D01*
X0203701Y0238172D01*
X0203699Y0238014D01*
X0203693Y0237856D01*
X0203683Y0237698D01*
X0203669Y0237540D01*
X0203651Y0237383D01*
X0203630Y0237226D01*
X0203604Y0237070D01*
X0203574Y0236914D01*
X0203541Y0236759D01*
X0203503Y0236606D01*
X0203462Y0236453D01*
X0203417Y0236301D01*
X0203368Y0236150D01*
X0203315Y0236001D01*
X0203259Y0235853D01*
X0203199Y0235707D01*
X0203135Y0235562D01*
X0203067Y0235419D01*
X0202996Y0235277D01*
X0202922Y0235137D01*
X0202844Y0235000D01*
X0202762Y0234864D01*
X0202678Y0234730D01*
X0202589Y0234599D01*
X0202498Y0234470D01*
X0202403Y0234343D01*
X0202306Y0234218D01*
X0202205Y0234096D01*
X0202101Y0233977D01*
X0201994Y0233860D01*
X0201884Y0233746D01*
X0201771Y0233635D01*
X0201656Y0233526D01*
X0201538Y0233421D01*
X0201417Y0233319D01*
X0201294Y0233219D01*
X0201168Y0233123D01*
X0201040Y0233030D01*
X0200910Y0232940D01*
X0200777Y0232854D01*
X0200642Y0232770D01*
X0200506Y0232691D01*
X0200367Y0232614D01*
X0200226Y0232542D01*
X0200084Y0232472D01*
X0199940Y0232407D01*
X0199794Y0232345D01*
X0199647Y0232287D01*
X0199498Y0232232D01*
X0199348Y0232181D01*
X0199197Y0232134D01*
X0199045Y0232091D01*
X0198892Y0232052D01*
X0198737Y0232016D01*
X0198582Y0231985D01*
X0198426Y0231957D01*
X0198270Y0231933D01*
X0198113Y0231913D01*
X0197955Y0231897D01*
X0197798Y0231885D01*
X0197639Y0231877D01*
X0197481Y0231873D01*
X0197323Y0231873D01*
X0197165Y0231877D01*
X0197006Y0231885D01*
X0196849Y0231897D01*
X0196691Y0231913D01*
X0196534Y0231933D01*
X0196378Y0231957D01*
X0196222Y0231985D01*
X0196067Y0232016D01*
X0195912Y0232052D01*
X0195759Y0232091D01*
X0195607Y0232134D01*
X0195456Y0232181D01*
X0195306Y0232232D01*
X0195157Y0232287D01*
X0195010Y0232345D01*
X0194864Y0232407D01*
X0194720Y0232472D01*
X0194578Y0232542D01*
X0194437Y0232614D01*
X0194298Y0232691D01*
X0194162Y0232770D01*
X0194027Y0232854D01*
X0193894Y0232940D01*
X0193764Y0233030D01*
X0193636Y0233123D01*
X0193510Y0233219D01*
X0193387Y0233319D01*
X0193266Y0233421D01*
X0193148Y0233526D01*
X0193033Y0233635D01*
X0192920Y0233746D01*
X0192810Y0233860D01*
X0192703Y0233977D01*
X0192599Y0234096D01*
X0192498Y0234218D01*
X0192401Y0234343D01*
X0192306Y0234470D01*
X0192215Y0234599D01*
X0192126Y0234730D01*
X0192042Y0234864D01*
X0191960Y0235000D01*
X0191882Y0235137D01*
X0191808Y0235277D01*
X0191737Y0235419D01*
X0191669Y0235562D01*
X0191605Y0235707D01*
X0191545Y0235853D01*
X0191489Y0236001D01*
X0191436Y0236150D01*
X0191387Y0236301D01*
X0191342Y0236453D01*
X0191301Y0236606D01*
X0191263Y0236759D01*
X0191230Y0236914D01*
X0191200Y0237070D01*
X0191174Y0237226D01*
X0191153Y0237383D01*
X0191135Y0237540D01*
X0191121Y0237698D01*
X0191111Y0237856D01*
X0191105Y0238014D01*
X0191103Y0238172D01*
X0269844Y0277543D02*
X0269846Y0277701D01*
X0269852Y0277859D01*
X0269862Y0278017D01*
X0269876Y0278175D01*
X0269894Y0278332D01*
X0269915Y0278489D01*
X0269941Y0278645D01*
X0269971Y0278801D01*
X0270004Y0278956D01*
X0270042Y0279109D01*
X0270083Y0279262D01*
X0270128Y0279414D01*
X0270177Y0279565D01*
X0270230Y0279714D01*
X0270286Y0279862D01*
X0270346Y0280008D01*
X0270410Y0280153D01*
X0270478Y0280296D01*
X0270549Y0280438D01*
X0270623Y0280578D01*
X0270701Y0280715D01*
X0270783Y0280851D01*
X0270867Y0280985D01*
X0270956Y0281116D01*
X0271047Y0281245D01*
X0271142Y0281372D01*
X0271239Y0281497D01*
X0271340Y0281619D01*
X0271444Y0281738D01*
X0271551Y0281855D01*
X0271661Y0281969D01*
X0271774Y0282080D01*
X0271889Y0282189D01*
X0272007Y0282294D01*
X0272128Y0282396D01*
X0272251Y0282496D01*
X0272377Y0282592D01*
X0272505Y0282685D01*
X0272635Y0282775D01*
X0272768Y0282861D01*
X0272903Y0282945D01*
X0273039Y0283024D01*
X0273178Y0283101D01*
X0273319Y0283173D01*
X0273461Y0283243D01*
X0273605Y0283308D01*
X0273751Y0283370D01*
X0273898Y0283428D01*
X0274047Y0283483D01*
X0274197Y0283534D01*
X0274348Y0283581D01*
X0274500Y0283624D01*
X0274653Y0283663D01*
X0274808Y0283699D01*
X0274963Y0283730D01*
X0275119Y0283758D01*
X0275275Y0283782D01*
X0275432Y0283802D01*
X0275590Y0283818D01*
X0275747Y0283830D01*
X0275906Y0283838D01*
X0276064Y0283842D01*
X0276222Y0283842D01*
X0276380Y0283838D01*
X0276539Y0283830D01*
X0276696Y0283818D01*
X0276854Y0283802D01*
X0277011Y0283782D01*
X0277167Y0283758D01*
X0277323Y0283730D01*
X0277478Y0283699D01*
X0277633Y0283663D01*
X0277786Y0283624D01*
X0277938Y0283581D01*
X0278089Y0283534D01*
X0278239Y0283483D01*
X0278388Y0283428D01*
X0278535Y0283370D01*
X0278681Y0283308D01*
X0278825Y0283243D01*
X0278967Y0283173D01*
X0279108Y0283101D01*
X0279247Y0283024D01*
X0279383Y0282945D01*
X0279518Y0282861D01*
X0279651Y0282775D01*
X0279781Y0282685D01*
X0279909Y0282592D01*
X0280035Y0282496D01*
X0280158Y0282396D01*
X0280279Y0282294D01*
X0280397Y0282189D01*
X0280512Y0282080D01*
X0280625Y0281969D01*
X0280735Y0281855D01*
X0280842Y0281738D01*
X0280946Y0281619D01*
X0281047Y0281497D01*
X0281144Y0281372D01*
X0281239Y0281245D01*
X0281330Y0281116D01*
X0281419Y0280985D01*
X0281503Y0280851D01*
X0281585Y0280715D01*
X0281663Y0280578D01*
X0281737Y0280438D01*
X0281808Y0280296D01*
X0281876Y0280153D01*
X0281940Y0280008D01*
X0282000Y0279862D01*
X0282056Y0279714D01*
X0282109Y0279565D01*
X0282158Y0279414D01*
X0282203Y0279262D01*
X0282244Y0279109D01*
X0282282Y0278956D01*
X0282315Y0278801D01*
X0282345Y0278645D01*
X0282371Y0278489D01*
X0282392Y0278332D01*
X0282410Y0278175D01*
X0282424Y0278017D01*
X0282434Y0277859D01*
X0282440Y0277701D01*
X0282442Y0277543D01*
X0282440Y0277385D01*
X0282434Y0277227D01*
X0282424Y0277069D01*
X0282410Y0276911D01*
X0282392Y0276754D01*
X0282371Y0276597D01*
X0282345Y0276441D01*
X0282315Y0276285D01*
X0282282Y0276130D01*
X0282244Y0275977D01*
X0282203Y0275824D01*
X0282158Y0275672D01*
X0282109Y0275521D01*
X0282056Y0275372D01*
X0282000Y0275224D01*
X0281940Y0275078D01*
X0281876Y0274933D01*
X0281808Y0274790D01*
X0281737Y0274648D01*
X0281663Y0274508D01*
X0281585Y0274371D01*
X0281503Y0274235D01*
X0281419Y0274101D01*
X0281330Y0273970D01*
X0281239Y0273841D01*
X0281144Y0273714D01*
X0281047Y0273589D01*
X0280946Y0273467D01*
X0280842Y0273348D01*
X0280735Y0273231D01*
X0280625Y0273117D01*
X0280512Y0273006D01*
X0280397Y0272897D01*
X0280279Y0272792D01*
X0280158Y0272690D01*
X0280035Y0272590D01*
X0279909Y0272494D01*
X0279781Y0272401D01*
X0279651Y0272311D01*
X0279518Y0272225D01*
X0279383Y0272141D01*
X0279247Y0272062D01*
X0279108Y0271985D01*
X0278967Y0271913D01*
X0278825Y0271843D01*
X0278681Y0271778D01*
X0278535Y0271716D01*
X0278388Y0271658D01*
X0278239Y0271603D01*
X0278089Y0271552D01*
X0277938Y0271505D01*
X0277786Y0271462D01*
X0277633Y0271423D01*
X0277478Y0271387D01*
X0277323Y0271356D01*
X0277167Y0271328D01*
X0277011Y0271304D01*
X0276854Y0271284D01*
X0276696Y0271268D01*
X0276539Y0271256D01*
X0276380Y0271248D01*
X0276222Y0271244D01*
X0276064Y0271244D01*
X0275906Y0271248D01*
X0275747Y0271256D01*
X0275590Y0271268D01*
X0275432Y0271284D01*
X0275275Y0271304D01*
X0275119Y0271328D01*
X0274963Y0271356D01*
X0274808Y0271387D01*
X0274653Y0271423D01*
X0274500Y0271462D01*
X0274348Y0271505D01*
X0274197Y0271552D01*
X0274047Y0271603D01*
X0273898Y0271658D01*
X0273751Y0271716D01*
X0273605Y0271778D01*
X0273461Y0271843D01*
X0273319Y0271913D01*
X0273178Y0271985D01*
X0273039Y0272062D01*
X0272903Y0272141D01*
X0272768Y0272225D01*
X0272635Y0272311D01*
X0272505Y0272401D01*
X0272377Y0272494D01*
X0272251Y0272590D01*
X0272128Y0272690D01*
X0272007Y0272792D01*
X0271889Y0272897D01*
X0271774Y0273006D01*
X0271661Y0273117D01*
X0271551Y0273231D01*
X0271444Y0273348D01*
X0271340Y0273467D01*
X0271239Y0273589D01*
X0271142Y0273714D01*
X0271047Y0273841D01*
X0270956Y0273970D01*
X0270867Y0274101D01*
X0270783Y0274235D01*
X0270701Y0274371D01*
X0270623Y0274508D01*
X0270549Y0274648D01*
X0270478Y0274790D01*
X0270410Y0274933D01*
X0270346Y0275078D01*
X0270286Y0275224D01*
X0270230Y0275372D01*
X0270177Y0275521D01*
X0270128Y0275672D01*
X0270083Y0275824D01*
X0270042Y0275977D01*
X0270004Y0276130D01*
X0269971Y0276285D01*
X0269941Y0276441D01*
X0269915Y0276597D01*
X0269894Y0276754D01*
X0269876Y0276911D01*
X0269862Y0277069D01*
X0269852Y0277227D01*
X0269846Y0277385D01*
X0269844Y0277543D01*
X0191103Y0072818D02*
X0191105Y0072976D01*
X0191111Y0073134D01*
X0191121Y0073292D01*
X0191135Y0073450D01*
X0191153Y0073607D01*
X0191174Y0073764D01*
X0191200Y0073920D01*
X0191230Y0074076D01*
X0191263Y0074231D01*
X0191301Y0074384D01*
X0191342Y0074537D01*
X0191387Y0074689D01*
X0191436Y0074840D01*
X0191489Y0074989D01*
X0191545Y0075137D01*
X0191605Y0075283D01*
X0191669Y0075428D01*
X0191737Y0075571D01*
X0191808Y0075713D01*
X0191882Y0075853D01*
X0191960Y0075990D01*
X0192042Y0076126D01*
X0192126Y0076260D01*
X0192215Y0076391D01*
X0192306Y0076520D01*
X0192401Y0076647D01*
X0192498Y0076772D01*
X0192599Y0076894D01*
X0192703Y0077013D01*
X0192810Y0077130D01*
X0192920Y0077244D01*
X0193033Y0077355D01*
X0193148Y0077464D01*
X0193266Y0077569D01*
X0193387Y0077671D01*
X0193510Y0077771D01*
X0193636Y0077867D01*
X0193764Y0077960D01*
X0193894Y0078050D01*
X0194027Y0078136D01*
X0194162Y0078220D01*
X0194298Y0078299D01*
X0194437Y0078376D01*
X0194578Y0078448D01*
X0194720Y0078518D01*
X0194864Y0078583D01*
X0195010Y0078645D01*
X0195157Y0078703D01*
X0195306Y0078758D01*
X0195456Y0078809D01*
X0195607Y0078856D01*
X0195759Y0078899D01*
X0195912Y0078938D01*
X0196067Y0078974D01*
X0196222Y0079005D01*
X0196378Y0079033D01*
X0196534Y0079057D01*
X0196691Y0079077D01*
X0196849Y0079093D01*
X0197006Y0079105D01*
X0197165Y0079113D01*
X0197323Y0079117D01*
X0197481Y0079117D01*
X0197639Y0079113D01*
X0197798Y0079105D01*
X0197955Y0079093D01*
X0198113Y0079077D01*
X0198270Y0079057D01*
X0198426Y0079033D01*
X0198582Y0079005D01*
X0198737Y0078974D01*
X0198892Y0078938D01*
X0199045Y0078899D01*
X0199197Y0078856D01*
X0199348Y0078809D01*
X0199498Y0078758D01*
X0199647Y0078703D01*
X0199794Y0078645D01*
X0199940Y0078583D01*
X0200084Y0078518D01*
X0200226Y0078448D01*
X0200367Y0078376D01*
X0200506Y0078299D01*
X0200642Y0078220D01*
X0200777Y0078136D01*
X0200910Y0078050D01*
X0201040Y0077960D01*
X0201168Y0077867D01*
X0201294Y0077771D01*
X0201417Y0077671D01*
X0201538Y0077569D01*
X0201656Y0077464D01*
X0201771Y0077355D01*
X0201884Y0077244D01*
X0201994Y0077130D01*
X0202101Y0077013D01*
X0202205Y0076894D01*
X0202306Y0076772D01*
X0202403Y0076647D01*
X0202498Y0076520D01*
X0202589Y0076391D01*
X0202678Y0076260D01*
X0202762Y0076126D01*
X0202844Y0075990D01*
X0202922Y0075853D01*
X0202996Y0075713D01*
X0203067Y0075571D01*
X0203135Y0075428D01*
X0203199Y0075283D01*
X0203259Y0075137D01*
X0203315Y0074989D01*
X0203368Y0074840D01*
X0203417Y0074689D01*
X0203462Y0074537D01*
X0203503Y0074384D01*
X0203541Y0074231D01*
X0203574Y0074076D01*
X0203604Y0073920D01*
X0203630Y0073764D01*
X0203651Y0073607D01*
X0203669Y0073450D01*
X0203683Y0073292D01*
X0203693Y0073134D01*
X0203699Y0072976D01*
X0203701Y0072818D01*
X0203699Y0072660D01*
X0203693Y0072502D01*
X0203683Y0072344D01*
X0203669Y0072186D01*
X0203651Y0072029D01*
X0203630Y0071872D01*
X0203604Y0071716D01*
X0203574Y0071560D01*
X0203541Y0071405D01*
X0203503Y0071252D01*
X0203462Y0071099D01*
X0203417Y0070947D01*
X0203368Y0070796D01*
X0203315Y0070647D01*
X0203259Y0070499D01*
X0203199Y0070353D01*
X0203135Y0070208D01*
X0203067Y0070065D01*
X0202996Y0069923D01*
X0202922Y0069783D01*
X0202844Y0069646D01*
X0202762Y0069510D01*
X0202678Y0069376D01*
X0202589Y0069245D01*
X0202498Y0069116D01*
X0202403Y0068989D01*
X0202306Y0068864D01*
X0202205Y0068742D01*
X0202101Y0068623D01*
X0201994Y0068506D01*
X0201884Y0068392D01*
X0201771Y0068281D01*
X0201656Y0068172D01*
X0201538Y0068067D01*
X0201417Y0067965D01*
X0201294Y0067865D01*
X0201168Y0067769D01*
X0201040Y0067676D01*
X0200910Y0067586D01*
X0200777Y0067500D01*
X0200642Y0067416D01*
X0200506Y0067337D01*
X0200367Y0067260D01*
X0200226Y0067188D01*
X0200084Y0067118D01*
X0199940Y0067053D01*
X0199794Y0066991D01*
X0199647Y0066933D01*
X0199498Y0066878D01*
X0199348Y0066827D01*
X0199197Y0066780D01*
X0199045Y0066737D01*
X0198892Y0066698D01*
X0198737Y0066662D01*
X0198582Y0066631D01*
X0198426Y0066603D01*
X0198270Y0066579D01*
X0198113Y0066559D01*
X0197955Y0066543D01*
X0197798Y0066531D01*
X0197639Y0066523D01*
X0197481Y0066519D01*
X0197323Y0066519D01*
X0197165Y0066523D01*
X0197006Y0066531D01*
X0196849Y0066543D01*
X0196691Y0066559D01*
X0196534Y0066579D01*
X0196378Y0066603D01*
X0196222Y0066631D01*
X0196067Y0066662D01*
X0195912Y0066698D01*
X0195759Y0066737D01*
X0195607Y0066780D01*
X0195456Y0066827D01*
X0195306Y0066878D01*
X0195157Y0066933D01*
X0195010Y0066991D01*
X0194864Y0067053D01*
X0194720Y0067118D01*
X0194578Y0067188D01*
X0194437Y0067260D01*
X0194298Y0067337D01*
X0194162Y0067416D01*
X0194027Y0067500D01*
X0193894Y0067586D01*
X0193764Y0067676D01*
X0193636Y0067769D01*
X0193510Y0067865D01*
X0193387Y0067965D01*
X0193266Y0068067D01*
X0193148Y0068172D01*
X0193033Y0068281D01*
X0192920Y0068392D01*
X0192810Y0068506D01*
X0192703Y0068623D01*
X0192599Y0068742D01*
X0192498Y0068864D01*
X0192401Y0068989D01*
X0192306Y0069116D01*
X0192215Y0069245D01*
X0192126Y0069376D01*
X0192042Y0069510D01*
X0191960Y0069646D01*
X0191882Y0069783D01*
X0191808Y0069923D01*
X0191737Y0070065D01*
X0191669Y0070208D01*
X0191605Y0070353D01*
X0191545Y0070499D01*
X0191489Y0070647D01*
X0191436Y0070796D01*
X0191387Y0070947D01*
X0191342Y0071099D01*
X0191301Y0071252D01*
X0191263Y0071405D01*
X0191230Y0071560D01*
X0191200Y0071716D01*
X0191174Y0071872D01*
X0191153Y0072029D01*
X0191135Y0072186D01*
X0191121Y0072344D01*
X0191111Y0072502D01*
X0191105Y0072660D01*
X0191103Y0072818D01*
X0269844Y0033448D02*
X0269846Y0033606D01*
X0269852Y0033764D01*
X0269862Y0033922D01*
X0269876Y0034080D01*
X0269894Y0034237D01*
X0269915Y0034394D01*
X0269941Y0034550D01*
X0269971Y0034706D01*
X0270004Y0034861D01*
X0270042Y0035014D01*
X0270083Y0035167D01*
X0270128Y0035319D01*
X0270177Y0035470D01*
X0270230Y0035619D01*
X0270286Y0035767D01*
X0270346Y0035913D01*
X0270410Y0036058D01*
X0270478Y0036201D01*
X0270549Y0036343D01*
X0270623Y0036483D01*
X0270701Y0036620D01*
X0270783Y0036756D01*
X0270867Y0036890D01*
X0270956Y0037021D01*
X0271047Y0037150D01*
X0271142Y0037277D01*
X0271239Y0037402D01*
X0271340Y0037524D01*
X0271444Y0037643D01*
X0271551Y0037760D01*
X0271661Y0037874D01*
X0271774Y0037985D01*
X0271889Y0038094D01*
X0272007Y0038199D01*
X0272128Y0038301D01*
X0272251Y0038401D01*
X0272377Y0038497D01*
X0272505Y0038590D01*
X0272635Y0038680D01*
X0272768Y0038766D01*
X0272903Y0038850D01*
X0273039Y0038929D01*
X0273178Y0039006D01*
X0273319Y0039078D01*
X0273461Y0039148D01*
X0273605Y0039213D01*
X0273751Y0039275D01*
X0273898Y0039333D01*
X0274047Y0039388D01*
X0274197Y0039439D01*
X0274348Y0039486D01*
X0274500Y0039529D01*
X0274653Y0039568D01*
X0274808Y0039604D01*
X0274963Y0039635D01*
X0275119Y0039663D01*
X0275275Y0039687D01*
X0275432Y0039707D01*
X0275590Y0039723D01*
X0275747Y0039735D01*
X0275906Y0039743D01*
X0276064Y0039747D01*
X0276222Y0039747D01*
X0276380Y0039743D01*
X0276539Y0039735D01*
X0276696Y0039723D01*
X0276854Y0039707D01*
X0277011Y0039687D01*
X0277167Y0039663D01*
X0277323Y0039635D01*
X0277478Y0039604D01*
X0277633Y0039568D01*
X0277786Y0039529D01*
X0277938Y0039486D01*
X0278089Y0039439D01*
X0278239Y0039388D01*
X0278388Y0039333D01*
X0278535Y0039275D01*
X0278681Y0039213D01*
X0278825Y0039148D01*
X0278967Y0039078D01*
X0279108Y0039006D01*
X0279247Y0038929D01*
X0279383Y0038850D01*
X0279518Y0038766D01*
X0279651Y0038680D01*
X0279781Y0038590D01*
X0279909Y0038497D01*
X0280035Y0038401D01*
X0280158Y0038301D01*
X0280279Y0038199D01*
X0280397Y0038094D01*
X0280512Y0037985D01*
X0280625Y0037874D01*
X0280735Y0037760D01*
X0280842Y0037643D01*
X0280946Y0037524D01*
X0281047Y0037402D01*
X0281144Y0037277D01*
X0281239Y0037150D01*
X0281330Y0037021D01*
X0281419Y0036890D01*
X0281503Y0036756D01*
X0281585Y0036620D01*
X0281663Y0036483D01*
X0281737Y0036343D01*
X0281808Y0036201D01*
X0281876Y0036058D01*
X0281940Y0035913D01*
X0282000Y0035767D01*
X0282056Y0035619D01*
X0282109Y0035470D01*
X0282158Y0035319D01*
X0282203Y0035167D01*
X0282244Y0035014D01*
X0282282Y0034861D01*
X0282315Y0034706D01*
X0282345Y0034550D01*
X0282371Y0034394D01*
X0282392Y0034237D01*
X0282410Y0034080D01*
X0282424Y0033922D01*
X0282434Y0033764D01*
X0282440Y0033606D01*
X0282442Y0033448D01*
X0282440Y0033290D01*
X0282434Y0033132D01*
X0282424Y0032974D01*
X0282410Y0032816D01*
X0282392Y0032659D01*
X0282371Y0032502D01*
X0282345Y0032346D01*
X0282315Y0032190D01*
X0282282Y0032035D01*
X0282244Y0031882D01*
X0282203Y0031729D01*
X0282158Y0031577D01*
X0282109Y0031426D01*
X0282056Y0031277D01*
X0282000Y0031129D01*
X0281940Y0030983D01*
X0281876Y0030838D01*
X0281808Y0030695D01*
X0281737Y0030553D01*
X0281663Y0030413D01*
X0281585Y0030276D01*
X0281503Y0030140D01*
X0281419Y0030006D01*
X0281330Y0029875D01*
X0281239Y0029746D01*
X0281144Y0029619D01*
X0281047Y0029494D01*
X0280946Y0029372D01*
X0280842Y0029253D01*
X0280735Y0029136D01*
X0280625Y0029022D01*
X0280512Y0028911D01*
X0280397Y0028802D01*
X0280279Y0028697D01*
X0280158Y0028595D01*
X0280035Y0028495D01*
X0279909Y0028399D01*
X0279781Y0028306D01*
X0279651Y0028216D01*
X0279518Y0028130D01*
X0279383Y0028046D01*
X0279247Y0027967D01*
X0279108Y0027890D01*
X0278967Y0027818D01*
X0278825Y0027748D01*
X0278681Y0027683D01*
X0278535Y0027621D01*
X0278388Y0027563D01*
X0278239Y0027508D01*
X0278089Y0027457D01*
X0277938Y0027410D01*
X0277786Y0027367D01*
X0277633Y0027328D01*
X0277478Y0027292D01*
X0277323Y0027261D01*
X0277167Y0027233D01*
X0277011Y0027209D01*
X0276854Y0027189D01*
X0276696Y0027173D01*
X0276539Y0027161D01*
X0276380Y0027153D01*
X0276222Y0027149D01*
X0276064Y0027149D01*
X0275906Y0027153D01*
X0275747Y0027161D01*
X0275590Y0027173D01*
X0275432Y0027189D01*
X0275275Y0027209D01*
X0275119Y0027233D01*
X0274963Y0027261D01*
X0274808Y0027292D01*
X0274653Y0027328D01*
X0274500Y0027367D01*
X0274348Y0027410D01*
X0274197Y0027457D01*
X0274047Y0027508D01*
X0273898Y0027563D01*
X0273751Y0027621D01*
X0273605Y0027683D01*
X0273461Y0027748D01*
X0273319Y0027818D01*
X0273178Y0027890D01*
X0273039Y0027967D01*
X0272903Y0028046D01*
X0272768Y0028130D01*
X0272635Y0028216D01*
X0272505Y0028306D01*
X0272377Y0028399D01*
X0272251Y0028495D01*
X0272128Y0028595D01*
X0272007Y0028697D01*
X0271889Y0028802D01*
X0271774Y0028911D01*
X0271661Y0029022D01*
X0271551Y0029136D01*
X0271444Y0029253D01*
X0271340Y0029372D01*
X0271239Y0029494D01*
X0271142Y0029619D01*
X0271047Y0029746D01*
X0270956Y0029875D01*
X0270867Y0030006D01*
X0270783Y0030140D01*
X0270701Y0030276D01*
X0270623Y0030413D01*
X0270549Y0030553D01*
X0270478Y0030695D01*
X0270410Y0030838D01*
X0270346Y0030983D01*
X0270286Y0031129D01*
X0270230Y0031277D01*
X0270177Y0031426D01*
X0270128Y0031577D01*
X0270083Y0031729D01*
X0270042Y0031882D01*
X0270004Y0032035D01*
X0269971Y0032190D01*
X0269941Y0032346D01*
X0269915Y0032502D01*
X0269894Y0032659D01*
X0269876Y0032816D01*
X0269862Y0032974D01*
X0269852Y0033132D01*
X0269846Y0033290D01*
X0269844Y0033448D01*
D16*
X0276143Y0033448D03*
X0197402Y0072818D03*
X0032048Y0072818D03*
X0032048Y0033448D03*
X0032048Y0238172D03*
X0032048Y0277543D03*
X0197402Y0238172D03*
X0276143Y0277543D03*
D17*
X0029143Y0215495D02*
X0023143Y0215495D01*
X0023143Y0205495D02*
X0029143Y0205495D01*
X0029143Y0195495D02*
X0023143Y0195495D01*
X0023143Y0185495D02*
X0029143Y0185495D01*
X0029143Y0175495D02*
X0023143Y0175495D01*
X0023143Y0165495D02*
X0029143Y0165495D01*
X0029143Y0145495D02*
X0023143Y0145495D01*
X0023143Y0135495D02*
X0029143Y0135495D01*
X0029143Y0125495D02*
X0023143Y0125495D01*
X0023143Y0115495D02*
X0029143Y0115495D01*
X0029143Y0105495D02*
X0023143Y0105495D01*
X0023143Y0095495D02*
X0029143Y0095495D01*
D18*
X0222835Y0250200D03*
X0232835Y0250200D03*
X0232835Y0060200D03*
X0242835Y0060200D03*
D19*
X0222835Y0060200D03*
X0242835Y0250200D03*
D20*
X0242835Y0260554D03*
X0222835Y0260554D03*
X0222835Y0049885D03*
X0242835Y0049885D03*
D21*
X0154095Y0058300D03*
X0075355Y0058300D03*
X0075355Y0252700D03*
X0154095Y0252700D03*
D22*
X0176095Y0252700D03*
X0154095Y0282700D03*
X0132095Y0252700D03*
X0097355Y0252700D03*
X0075355Y0282700D03*
X0053355Y0252700D03*
X0053355Y0058300D03*
X0075355Y0028300D03*
X0097355Y0058300D03*
X0132095Y0058300D03*
X0154095Y0028300D03*
X0176095Y0058300D03*
D23*
X0089238Y0092400D03*
X0089238Y0102400D03*
X0089238Y0112400D03*
X0043962Y0112400D03*
X0043962Y0102400D03*
X0043962Y0092400D03*
X0043957Y0201495D03*
X0043957Y0211495D03*
X0043957Y0221495D03*
X0089233Y0221495D03*
X0089233Y0211495D03*
X0089233Y0201495D03*
D24*
X0105800Y0197700D03*
X0105800Y0226200D03*
X0134800Y0197700D03*
X0165800Y0239700D03*
X0250800Y0230200D03*
X0140300Y0148200D03*
X0135800Y0125700D03*
X0168800Y0122200D03*
X0194800Y0121700D03*
X0168800Y0089200D03*
X0233300Y0091700D03*
X0089300Y0079700D03*
X0089300Y0124200D03*
D25*
X0124600Y0174900D03*
X0124600Y0177500D03*
X0124600Y0180100D03*
X0132800Y0180100D03*
X0132800Y0177500D03*
X0132800Y0174900D03*
X0184700Y0195100D03*
X0184700Y0197700D03*
X0184700Y0200300D03*
X0192900Y0200300D03*
X0192900Y0197700D03*
X0192900Y0195100D03*
X0242700Y0214600D03*
X0242700Y0217200D03*
X0242700Y0219800D03*
X0250900Y0219800D03*
X0250900Y0217200D03*
X0250900Y0214600D03*
D26*
X0154500Y0110800D03*
X0147100Y0110800D03*
X0147100Y0100600D03*
X0150800Y0100600D03*
X0154500Y0100600D03*
X0115000Y0097100D03*
X0107600Y0097100D03*
X0107600Y0107300D03*
X0111300Y0107300D03*
X0115000Y0107300D03*
X0117100Y0206100D03*
X0124500Y0206100D03*
X0124500Y0216300D03*
X0120800Y0216300D03*
X0117100Y0216300D03*
D27*
X0082300Y0155700D03*
X0266300Y0249700D03*
X0266300Y0060200D03*
M02*
