%
M48
M72
T01C0.01200
T02C0.02200
T03C0.02362
T04C0.03937
T05C0.04000
T06C0.12598
%
T01
X155500Y158700
X173400Y165700
X181100Y163000
X185300Y165200
X197800Y169800
X200800Y169700
X218000Y158500
X226000Y177800
X233500Y175500
X248000Y175500
X252000Y177800
X272000Y189000
X272000Y197000
X272000Y207000
X272000Y217000
X282000Y217000
X288000Y213000
X290000Y205000
X282000Y207000
X284000Y197000
X288000Y189000
X296000Y189000
X278000Y179000
X256000Y217000
X244000Y217000
X235900Y219400
X236100Y229700
X244000Y233000
X236000Y239000
X236000Y245000
X216000Y245000
X216000Y239000
X206600Y235800
X198000Y239000
X198000Y245000
X178000Y245000
X178000Y239000
X156000Y245000
X130000Y245000
X106000Y245000
X100000Y227000
X94200Y201500
X97700Y195600
X94100Y170400
X98100Y162900
X127400Y166700
X127300Y198600
X155400Y196600
X174100Y189400
X171600Y181400
X210300Y224600
X256000Y233000
X256000Y239000
X256000Y245000
X272000Y245000
X272000Y239000
X272000Y233000
X276000Y229000
X282000Y223000
X288000Y223000
X286000Y231000
X280000Y237000
X294000Y245000
X300000Y239000
X300000Y227000
X200400Y117000
X52100Y251000
T02
X209000Y160100
T03
X193000Y176000
X193000Y181000
X188000Y181000
X188000Y176000
X205600Y187200
X209200Y193900
X199500Y198900
X212700Y210200
X219600Y214500
X217800Y182600
X185000Y209400
X180100Y197600
X162100Y185500
X159800Y177500
X161600Y169500
X146200Y174100
X142900Y179700
X132400Y184000
X123300Y178500
X123200Y211700
X131000Y216100
X142800Y211700
X135200Y257600
X135100Y292700
X75800Y164800
X81900Y158400
X75800Y152100
X68400Y151400
X159000Y130000
X167000Y117500
X178400Y113000
X201300Y125900
X222000Y130000
X209100Y68500
X215500Y62200
X209200Y55900
X201700Y55900
X179000Y62200
T04
X118000Y62000
X244000Y62000
X277600Y62000
X277600Y294100
T05
X301000Y213500
X311000Y213500
X311000Y203500
X311000Y193500
X301000Y193500
X301000Y203500
X301000Y183500
X311000Y183500
X311000Y173500
X301000Y173500
X301000Y163500
X311000Y163500
X311000Y153500
X301000Y153500
X301000Y143500
X311000Y143500
X321000Y143500
X321000Y153500
X321000Y163500
X321000Y173500
X321000Y183500
X321000Y193500
X321000Y203500
X321000Y213500
X153000Y264000
X153000Y286000
X36000Y278500
X26000Y278500
X26000Y268500
X36000Y268500
X36000Y258500
X26000Y258500
X26000Y248500
X36000Y248500
X36000Y238500
X36000Y228500
X26000Y228500
X26000Y238500
X26000Y218500
X36000Y218500
X36000Y208500
X26000Y208500
X26000Y198500
X36000Y198500
X36000Y188500
X26000Y188500
X26000Y168500
X36000Y168500
X36000Y158500
X26000Y158500
X26000Y148500
X36000Y148500
X36000Y138500
X26000Y138500
X26000Y128500
X36000Y128500
X36000Y118500
X26000Y118500
X26000Y108500
X26000Y98500
X36000Y98500
X36000Y108500
X36000Y88500
X26000Y88500
X26000Y78500
X36000Y78500
T06
X31787Y36787
X197142Y95843
X315252Y36787
X197142Y261197
X315252Y320252
X31787Y320252
M30
