G75*
%MOIN*%
%OFA0B0*%
%FSLAX25Y25*%
%IPPOS*%
%LPD*%
%AMOC8*
5,1,8,0,0,1.08239X$1,22.5*
%
%ADD10C,0.05906*%
%ADD11C,0.00000*%
%ADD12C,0.06000*%
%ADD13C,0.02000*%
%ADD14C,0.03543*%
%ADD15C,0.03300*%
%ADD16C,0.00800*%
%ADD17C,0.01600*%
D10*
X0118000Y0062000D03*
X0244000Y0062000D03*
X0277600Y0062000D03*
X0277600Y0294100D03*
D11*
X0016039Y0032850D02*
X0027850Y0021039D01*
X0319189Y0021039D01*
X0331000Y0032850D01*
X0331000Y0324189D01*
X0319189Y0336000D01*
X0027850Y0336000D01*
X0016039Y0324189D01*
X0016039Y0032850D01*
X0025488Y0036787D02*
X0025490Y0036945D01*
X0025496Y0037103D01*
X0025506Y0037261D01*
X0025520Y0037419D01*
X0025538Y0037576D01*
X0025559Y0037733D01*
X0025585Y0037889D01*
X0025615Y0038045D01*
X0025648Y0038200D01*
X0025686Y0038353D01*
X0025727Y0038506D01*
X0025772Y0038658D01*
X0025821Y0038809D01*
X0025874Y0038958D01*
X0025930Y0039106D01*
X0025990Y0039252D01*
X0026054Y0039397D01*
X0026122Y0039540D01*
X0026193Y0039682D01*
X0026267Y0039822D01*
X0026345Y0039959D01*
X0026427Y0040095D01*
X0026511Y0040229D01*
X0026600Y0040360D01*
X0026691Y0040489D01*
X0026786Y0040616D01*
X0026883Y0040741D01*
X0026984Y0040863D01*
X0027088Y0040982D01*
X0027195Y0041099D01*
X0027305Y0041213D01*
X0027418Y0041324D01*
X0027533Y0041433D01*
X0027651Y0041538D01*
X0027772Y0041640D01*
X0027895Y0041740D01*
X0028021Y0041836D01*
X0028149Y0041929D01*
X0028279Y0042019D01*
X0028412Y0042105D01*
X0028547Y0042189D01*
X0028683Y0042268D01*
X0028822Y0042345D01*
X0028963Y0042417D01*
X0029105Y0042487D01*
X0029249Y0042552D01*
X0029395Y0042614D01*
X0029542Y0042672D01*
X0029691Y0042727D01*
X0029841Y0042778D01*
X0029992Y0042825D01*
X0030144Y0042868D01*
X0030297Y0042907D01*
X0030452Y0042943D01*
X0030607Y0042974D01*
X0030763Y0043002D01*
X0030919Y0043026D01*
X0031076Y0043046D01*
X0031234Y0043062D01*
X0031391Y0043074D01*
X0031550Y0043082D01*
X0031708Y0043086D01*
X0031866Y0043086D01*
X0032024Y0043082D01*
X0032183Y0043074D01*
X0032340Y0043062D01*
X0032498Y0043046D01*
X0032655Y0043026D01*
X0032811Y0043002D01*
X0032967Y0042974D01*
X0033122Y0042943D01*
X0033277Y0042907D01*
X0033430Y0042868D01*
X0033582Y0042825D01*
X0033733Y0042778D01*
X0033883Y0042727D01*
X0034032Y0042672D01*
X0034179Y0042614D01*
X0034325Y0042552D01*
X0034469Y0042487D01*
X0034611Y0042417D01*
X0034752Y0042345D01*
X0034891Y0042268D01*
X0035027Y0042189D01*
X0035162Y0042105D01*
X0035295Y0042019D01*
X0035425Y0041929D01*
X0035553Y0041836D01*
X0035679Y0041740D01*
X0035802Y0041640D01*
X0035923Y0041538D01*
X0036041Y0041433D01*
X0036156Y0041324D01*
X0036269Y0041213D01*
X0036379Y0041099D01*
X0036486Y0040982D01*
X0036590Y0040863D01*
X0036691Y0040741D01*
X0036788Y0040616D01*
X0036883Y0040489D01*
X0036974Y0040360D01*
X0037063Y0040229D01*
X0037147Y0040095D01*
X0037229Y0039959D01*
X0037307Y0039822D01*
X0037381Y0039682D01*
X0037452Y0039540D01*
X0037520Y0039397D01*
X0037584Y0039252D01*
X0037644Y0039106D01*
X0037700Y0038958D01*
X0037753Y0038809D01*
X0037802Y0038658D01*
X0037847Y0038506D01*
X0037888Y0038353D01*
X0037926Y0038200D01*
X0037959Y0038045D01*
X0037989Y0037889D01*
X0038015Y0037733D01*
X0038036Y0037576D01*
X0038054Y0037419D01*
X0038068Y0037261D01*
X0038078Y0037103D01*
X0038084Y0036945D01*
X0038086Y0036787D01*
X0038084Y0036629D01*
X0038078Y0036471D01*
X0038068Y0036313D01*
X0038054Y0036155D01*
X0038036Y0035998D01*
X0038015Y0035841D01*
X0037989Y0035685D01*
X0037959Y0035529D01*
X0037926Y0035374D01*
X0037888Y0035221D01*
X0037847Y0035068D01*
X0037802Y0034916D01*
X0037753Y0034765D01*
X0037700Y0034616D01*
X0037644Y0034468D01*
X0037584Y0034322D01*
X0037520Y0034177D01*
X0037452Y0034034D01*
X0037381Y0033892D01*
X0037307Y0033752D01*
X0037229Y0033615D01*
X0037147Y0033479D01*
X0037063Y0033345D01*
X0036974Y0033214D01*
X0036883Y0033085D01*
X0036788Y0032958D01*
X0036691Y0032833D01*
X0036590Y0032711D01*
X0036486Y0032592D01*
X0036379Y0032475D01*
X0036269Y0032361D01*
X0036156Y0032250D01*
X0036041Y0032141D01*
X0035923Y0032036D01*
X0035802Y0031934D01*
X0035679Y0031834D01*
X0035553Y0031738D01*
X0035425Y0031645D01*
X0035295Y0031555D01*
X0035162Y0031469D01*
X0035027Y0031385D01*
X0034891Y0031306D01*
X0034752Y0031229D01*
X0034611Y0031157D01*
X0034469Y0031087D01*
X0034325Y0031022D01*
X0034179Y0030960D01*
X0034032Y0030902D01*
X0033883Y0030847D01*
X0033733Y0030796D01*
X0033582Y0030749D01*
X0033430Y0030706D01*
X0033277Y0030667D01*
X0033122Y0030631D01*
X0032967Y0030600D01*
X0032811Y0030572D01*
X0032655Y0030548D01*
X0032498Y0030528D01*
X0032340Y0030512D01*
X0032183Y0030500D01*
X0032024Y0030492D01*
X0031866Y0030488D01*
X0031708Y0030488D01*
X0031550Y0030492D01*
X0031391Y0030500D01*
X0031234Y0030512D01*
X0031076Y0030528D01*
X0030919Y0030548D01*
X0030763Y0030572D01*
X0030607Y0030600D01*
X0030452Y0030631D01*
X0030297Y0030667D01*
X0030144Y0030706D01*
X0029992Y0030749D01*
X0029841Y0030796D01*
X0029691Y0030847D01*
X0029542Y0030902D01*
X0029395Y0030960D01*
X0029249Y0031022D01*
X0029105Y0031087D01*
X0028963Y0031157D01*
X0028822Y0031229D01*
X0028683Y0031306D01*
X0028547Y0031385D01*
X0028412Y0031469D01*
X0028279Y0031555D01*
X0028149Y0031645D01*
X0028021Y0031738D01*
X0027895Y0031834D01*
X0027772Y0031934D01*
X0027651Y0032036D01*
X0027533Y0032141D01*
X0027418Y0032250D01*
X0027305Y0032361D01*
X0027195Y0032475D01*
X0027088Y0032592D01*
X0026984Y0032711D01*
X0026883Y0032833D01*
X0026786Y0032958D01*
X0026691Y0033085D01*
X0026600Y0033214D01*
X0026511Y0033345D01*
X0026427Y0033479D01*
X0026345Y0033615D01*
X0026267Y0033752D01*
X0026193Y0033892D01*
X0026122Y0034034D01*
X0026054Y0034177D01*
X0025990Y0034322D01*
X0025930Y0034468D01*
X0025874Y0034616D01*
X0025821Y0034765D01*
X0025772Y0034916D01*
X0025727Y0035068D01*
X0025686Y0035221D01*
X0025648Y0035374D01*
X0025615Y0035529D01*
X0025585Y0035685D01*
X0025559Y0035841D01*
X0025538Y0035998D01*
X0025520Y0036155D01*
X0025506Y0036313D01*
X0025496Y0036471D01*
X0025490Y0036629D01*
X0025488Y0036787D01*
X0190843Y0095843D02*
X0190845Y0096001D01*
X0190851Y0096159D01*
X0190861Y0096317D01*
X0190875Y0096475D01*
X0190893Y0096632D01*
X0190914Y0096789D01*
X0190940Y0096945D01*
X0190970Y0097101D01*
X0191003Y0097256D01*
X0191041Y0097409D01*
X0191082Y0097562D01*
X0191127Y0097714D01*
X0191176Y0097865D01*
X0191229Y0098014D01*
X0191285Y0098162D01*
X0191345Y0098308D01*
X0191409Y0098453D01*
X0191477Y0098596D01*
X0191548Y0098738D01*
X0191622Y0098878D01*
X0191700Y0099015D01*
X0191782Y0099151D01*
X0191866Y0099285D01*
X0191955Y0099416D01*
X0192046Y0099545D01*
X0192141Y0099672D01*
X0192238Y0099797D01*
X0192339Y0099919D01*
X0192443Y0100038D01*
X0192550Y0100155D01*
X0192660Y0100269D01*
X0192773Y0100380D01*
X0192888Y0100489D01*
X0193006Y0100594D01*
X0193127Y0100696D01*
X0193250Y0100796D01*
X0193376Y0100892D01*
X0193504Y0100985D01*
X0193634Y0101075D01*
X0193767Y0101161D01*
X0193902Y0101245D01*
X0194038Y0101324D01*
X0194177Y0101401D01*
X0194318Y0101473D01*
X0194460Y0101543D01*
X0194604Y0101608D01*
X0194750Y0101670D01*
X0194897Y0101728D01*
X0195046Y0101783D01*
X0195196Y0101834D01*
X0195347Y0101881D01*
X0195499Y0101924D01*
X0195652Y0101963D01*
X0195807Y0101999D01*
X0195962Y0102030D01*
X0196118Y0102058D01*
X0196274Y0102082D01*
X0196431Y0102102D01*
X0196589Y0102118D01*
X0196746Y0102130D01*
X0196905Y0102138D01*
X0197063Y0102142D01*
X0197221Y0102142D01*
X0197379Y0102138D01*
X0197538Y0102130D01*
X0197695Y0102118D01*
X0197853Y0102102D01*
X0198010Y0102082D01*
X0198166Y0102058D01*
X0198322Y0102030D01*
X0198477Y0101999D01*
X0198632Y0101963D01*
X0198785Y0101924D01*
X0198937Y0101881D01*
X0199088Y0101834D01*
X0199238Y0101783D01*
X0199387Y0101728D01*
X0199534Y0101670D01*
X0199680Y0101608D01*
X0199824Y0101543D01*
X0199966Y0101473D01*
X0200107Y0101401D01*
X0200246Y0101324D01*
X0200382Y0101245D01*
X0200517Y0101161D01*
X0200650Y0101075D01*
X0200780Y0100985D01*
X0200908Y0100892D01*
X0201034Y0100796D01*
X0201157Y0100696D01*
X0201278Y0100594D01*
X0201396Y0100489D01*
X0201511Y0100380D01*
X0201624Y0100269D01*
X0201734Y0100155D01*
X0201841Y0100038D01*
X0201945Y0099919D01*
X0202046Y0099797D01*
X0202143Y0099672D01*
X0202238Y0099545D01*
X0202329Y0099416D01*
X0202418Y0099285D01*
X0202502Y0099151D01*
X0202584Y0099015D01*
X0202662Y0098878D01*
X0202736Y0098738D01*
X0202807Y0098596D01*
X0202875Y0098453D01*
X0202939Y0098308D01*
X0202999Y0098162D01*
X0203055Y0098014D01*
X0203108Y0097865D01*
X0203157Y0097714D01*
X0203202Y0097562D01*
X0203243Y0097409D01*
X0203281Y0097256D01*
X0203314Y0097101D01*
X0203344Y0096945D01*
X0203370Y0096789D01*
X0203391Y0096632D01*
X0203409Y0096475D01*
X0203423Y0096317D01*
X0203433Y0096159D01*
X0203439Y0096001D01*
X0203441Y0095843D01*
X0203439Y0095685D01*
X0203433Y0095527D01*
X0203423Y0095369D01*
X0203409Y0095211D01*
X0203391Y0095054D01*
X0203370Y0094897D01*
X0203344Y0094741D01*
X0203314Y0094585D01*
X0203281Y0094430D01*
X0203243Y0094277D01*
X0203202Y0094124D01*
X0203157Y0093972D01*
X0203108Y0093821D01*
X0203055Y0093672D01*
X0202999Y0093524D01*
X0202939Y0093378D01*
X0202875Y0093233D01*
X0202807Y0093090D01*
X0202736Y0092948D01*
X0202662Y0092808D01*
X0202584Y0092671D01*
X0202502Y0092535D01*
X0202418Y0092401D01*
X0202329Y0092270D01*
X0202238Y0092141D01*
X0202143Y0092014D01*
X0202046Y0091889D01*
X0201945Y0091767D01*
X0201841Y0091648D01*
X0201734Y0091531D01*
X0201624Y0091417D01*
X0201511Y0091306D01*
X0201396Y0091197D01*
X0201278Y0091092D01*
X0201157Y0090990D01*
X0201034Y0090890D01*
X0200908Y0090794D01*
X0200780Y0090701D01*
X0200650Y0090611D01*
X0200517Y0090525D01*
X0200382Y0090441D01*
X0200246Y0090362D01*
X0200107Y0090285D01*
X0199966Y0090213D01*
X0199824Y0090143D01*
X0199680Y0090078D01*
X0199534Y0090016D01*
X0199387Y0089958D01*
X0199238Y0089903D01*
X0199088Y0089852D01*
X0198937Y0089805D01*
X0198785Y0089762D01*
X0198632Y0089723D01*
X0198477Y0089687D01*
X0198322Y0089656D01*
X0198166Y0089628D01*
X0198010Y0089604D01*
X0197853Y0089584D01*
X0197695Y0089568D01*
X0197538Y0089556D01*
X0197379Y0089548D01*
X0197221Y0089544D01*
X0197063Y0089544D01*
X0196905Y0089548D01*
X0196746Y0089556D01*
X0196589Y0089568D01*
X0196431Y0089584D01*
X0196274Y0089604D01*
X0196118Y0089628D01*
X0195962Y0089656D01*
X0195807Y0089687D01*
X0195652Y0089723D01*
X0195499Y0089762D01*
X0195347Y0089805D01*
X0195196Y0089852D01*
X0195046Y0089903D01*
X0194897Y0089958D01*
X0194750Y0090016D01*
X0194604Y0090078D01*
X0194460Y0090143D01*
X0194318Y0090213D01*
X0194177Y0090285D01*
X0194038Y0090362D01*
X0193902Y0090441D01*
X0193767Y0090525D01*
X0193634Y0090611D01*
X0193504Y0090701D01*
X0193376Y0090794D01*
X0193250Y0090890D01*
X0193127Y0090990D01*
X0193006Y0091092D01*
X0192888Y0091197D01*
X0192773Y0091306D01*
X0192660Y0091417D01*
X0192550Y0091531D01*
X0192443Y0091648D01*
X0192339Y0091767D01*
X0192238Y0091889D01*
X0192141Y0092014D01*
X0192046Y0092141D01*
X0191955Y0092270D01*
X0191866Y0092401D01*
X0191782Y0092535D01*
X0191700Y0092671D01*
X0191622Y0092808D01*
X0191548Y0092948D01*
X0191477Y0093090D01*
X0191409Y0093233D01*
X0191345Y0093378D01*
X0191285Y0093524D01*
X0191229Y0093672D01*
X0191176Y0093821D01*
X0191127Y0093972D01*
X0191082Y0094124D01*
X0191041Y0094277D01*
X0191003Y0094430D01*
X0190970Y0094585D01*
X0190940Y0094741D01*
X0190914Y0094897D01*
X0190893Y0095054D01*
X0190875Y0095211D01*
X0190861Y0095369D01*
X0190851Y0095527D01*
X0190845Y0095685D01*
X0190843Y0095843D01*
X0308953Y0036787D02*
X0308955Y0036945D01*
X0308961Y0037103D01*
X0308971Y0037261D01*
X0308985Y0037419D01*
X0309003Y0037576D01*
X0309024Y0037733D01*
X0309050Y0037889D01*
X0309080Y0038045D01*
X0309113Y0038200D01*
X0309151Y0038353D01*
X0309192Y0038506D01*
X0309237Y0038658D01*
X0309286Y0038809D01*
X0309339Y0038958D01*
X0309395Y0039106D01*
X0309455Y0039252D01*
X0309519Y0039397D01*
X0309587Y0039540D01*
X0309658Y0039682D01*
X0309732Y0039822D01*
X0309810Y0039959D01*
X0309892Y0040095D01*
X0309976Y0040229D01*
X0310065Y0040360D01*
X0310156Y0040489D01*
X0310251Y0040616D01*
X0310348Y0040741D01*
X0310449Y0040863D01*
X0310553Y0040982D01*
X0310660Y0041099D01*
X0310770Y0041213D01*
X0310883Y0041324D01*
X0310998Y0041433D01*
X0311116Y0041538D01*
X0311237Y0041640D01*
X0311360Y0041740D01*
X0311486Y0041836D01*
X0311614Y0041929D01*
X0311744Y0042019D01*
X0311877Y0042105D01*
X0312012Y0042189D01*
X0312148Y0042268D01*
X0312287Y0042345D01*
X0312428Y0042417D01*
X0312570Y0042487D01*
X0312714Y0042552D01*
X0312860Y0042614D01*
X0313007Y0042672D01*
X0313156Y0042727D01*
X0313306Y0042778D01*
X0313457Y0042825D01*
X0313609Y0042868D01*
X0313762Y0042907D01*
X0313917Y0042943D01*
X0314072Y0042974D01*
X0314228Y0043002D01*
X0314384Y0043026D01*
X0314541Y0043046D01*
X0314699Y0043062D01*
X0314856Y0043074D01*
X0315015Y0043082D01*
X0315173Y0043086D01*
X0315331Y0043086D01*
X0315489Y0043082D01*
X0315648Y0043074D01*
X0315805Y0043062D01*
X0315963Y0043046D01*
X0316120Y0043026D01*
X0316276Y0043002D01*
X0316432Y0042974D01*
X0316587Y0042943D01*
X0316742Y0042907D01*
X0316895Y0042868D01*
X0317047Y0042825D01*
X0317198Y0042778D01*
X0317348Y0042727D01*
X0317497Y0042672D01*
X0317644Y0042614D01*
X0317790Y0042552D01*
X0317934Y0042487D01*
X0318076Y0042417D01*
X0318217Y0042345D01*
X0318356Y0042268D01*
X0318492Y0042189D01*
X0318627Y0042105D01*
X0318760Y0042019D01*
X0318890Y0041929D01*
X0319018Y0041836D01*
X0319144Y0041740D01*
X0319267Y0041640D01*
X0319388Y0041538D01*
X0319506Y0041433D01*
X0319621Y0041324D01*
X0319734Y0041213D01*
X0319844Y0041099D01*
X0319951Y0040982D01*
X0320055Y0040863D01*
X0320156Y0040741D01*
X0320253Y0040616D01*
X0320348Y0040489D01*
X0320439Y0040360D01*
X0320528Y0040229D01*
X0320612Y0040095D01*
X0320694Y0039959D01*
X0320772Y0039822D01*
X0320846Y0039682D01*
X0320917Y0039540D01*
X0320985Y0039397D01*
X0321049Y0039252D01*
X0321109Y0039106D01*
X0321165Y0038958D01*
X0321218Y0038809D01*
X0321267Y0038658D01*
X0321312Y0038506D01*
X0321353Y0038353D01*
X0321391Y0038200D01*
X0321424Y0038045D01*
X0321454Y0037889D01*
X0321480Y0037733D01*
X0321501Y0037576D01*
X0321519Y0037419D01*
X0321533Y0037261D01*
X0321543Y0037103D01*
X0321549Y0036945D01*
X0321551Y0036787D01*
X0321549Y0036629D01*
X0321543Y0036471D01*
X0321533Y0036313D01*
X0321519Y0036155D01*
X0321501Y0035998D01*
X0321480Y0035841D01*
X0321454Y0035685D01*
X0321424Y0035529D01*
X0321391Y0035374D01*
X0321353Y0035221D01*
X0321312Y0035068D01*
X0321267Y0034916D01*
X0321218Y0034765D01*
X0321165Y0034616D01*
X0321109Y0034468D01*
X0321049Y0034322D01*
X0320985Y0034177D01*
X0320917Y0034034D01*
X0320846Y0033892D01*
X0320772Y0033752D01*
X0320694Y0033615D01*
X0320612Y0033479D01*
X0320528Y0033345D01*
X0320439Y0033214D01*
X0320348Y0033085D01*
X0320253Y0032958D01*
X0320156Y0032833D01*
X0320055Y0032711D01*
X0319951Y0032592D01*
X0319844Y0032475D01*
X0319734Y0032361D01*
X0319621Y0032250D01*
X0319506Y0032141D01*
X0319388Y0032036D01*
X0319267Y0031934D01*
X0319144Y0031834D01*
X0319018Y0031738D01*
X0318890Y0031645D01*
X0318760Y0031555D01*
X0318627Y0031469D01*
X0318492Y0031385D01*
X0318356Y0031306D01*
X0318217Y0031229D01*
X0318076Y0031157D01*
X0317934Y0031087D01*
X0317790Y0031022D01*
X0317644Y0030960D01*
X0317497Y0030902D01*
X0317348Y0030847D01*
X0317198Y0030796D01*
X0317047Y0030749D01*
X0316895Y0030706D01*
X0316742Y0030667D01*
X0316587Y0030631D01*
X0316432Y0030600D01*
X0316276Y0030572D01*
X0316120Y0030548D01*
X0315963Y0030528D01*
X0315805Y0030512D01*
X0315648Y0030500D01*
X0315489Y0030492D01*
X0315331Y0030488D01*
X0315173Y0030488D01*
X0315015Y0030492D01*
X0314856Y0030500D01*
X0314699Y0030512D01*
X0314541Y0030528D01*
X0314384Y0030548D01*
X0314228Y0030572D01*
X0314072Y0030600D01*
X0313917Y0030631D01*
X0313762Y0030667D01*
X0313609Y0030706D01*
X0313457Y0030749D01*
X0313306Y0030796D01*
X0313156Y0030847D01*
X0313007Y0030902D01*
X0312860Y0030960D01*
X0312714Y0031022D01*
X0312570Y0031087D01*
X0312428Y0031157D01*
X0312287Y0031229D01*
X0312148Y0031306D01*
X0312012Y0031385D01*
X0311877Y0031469D01*
X0311744Y0031555D01*
X0311614Y0031645D01*
X0311486Y0031738D01*
X0311360Y0031834D01*
X0311237Y0031934D01*
X0311116Y0032036D01*
X0310998Y0032141D01*
X0310883Y0032250D01*
X0310770Y0032361D01*
X0310660Y0032475D01*
X0310553Y0032592D01*
X0310449Y0032711D01*
X0310348Y0032833D01*
X0310251Y0032958D01*
X0310156Y0033085D01*
X0310065Y0033214D01*
X0309976Y0033345D01*
X0309892Y0033479D01*
X0309810Y0033615D01*
X0309732Y0033752D01*
X0309658Y0033892D01*
X0309587Y0034034D01*
X0309519Y0034177D01*
X0309455Y0034322D01*
X0309395Y0034468D01*
X0309339Y0034616D01*
X0309286Y0034765D01*
X0309237Y0034916D01*
X0309192Y0035068D01*
X0309151Y0035221D01*
X0309113Y0035374D01*
X0309080Y0035529D01*
X0309050Y0035685D01*
X0309024Y0035841D01*
X0309003Y0035998D01*
X0308985Y0036155D01*
X0308971Y0036313D01*
X0308961Y0036471D01*
X0308955Y0036629D01*
X0308953Y0036787D01*
X0190843Y0261197D02*
X0190845Y0261355D01*
X0190851Y0261513D01*
X0190861Y0261671D01*
X0190875Y0261829D01*
X0190893Y0261986D01*
X0190914Y0262143D01*
X0190940Y0262299D01*
X0190970Y0262455D01*
X0191003Y0262610D01*
X0191041Y0262763D01*
X0191082Y0262916D01*
X0191127Y0263068D01*
X0191176Y0263219D01*
X0191229Y0263368D01*
X0191285Y0263516D01*
X0191345Y0263662D01*
X0191409Y0263807D01*
X0191477Y0263950D01*
X0191548Y0264092D01*
X0191622Y0264232D01*
X0191700Y0264369D01*
X0191782Y0264505D01*
X0191866Y0264639D01*
X0191955Y0264770D01*
X0192046Y0264899D01*
X0192141Y0265026D01*
X0192238Y0265151D01*
X0192339Y0265273D01*
X0192443Y0265392D01*
X0192550Y0265509D01*
X0192660Y0265623D01*
X0192773Y0265734D01*
X0192888Y0265843D01*
X0193006Y0265948D01*
X0193127Y0266050D01*
X0193250Y0266150D01*
X0193376Y0266246D01*
X0193504Y0266339D01*
X0193634Y0266429D01*
X0193767Y0266515D01*
X0193902Y0266599D01*
X0194038Y0266678D01*
X0194177Y0266755D01*
X0194318Y0266827D01*
X0194460Y0266897D01*
X0194604Y0266962D01*
X0194750Y0267024D01*
X0194897Y0267082D01*
X0195046Y0267137D01*
X0195196Y0267188D01*
X0195347Y0267235D01*
X0195499Y0267278D01*
X0195652Y0267317D01*
X0195807Y0267353D01*
X0195962Y0267384D01*
X0196118Y0267412D01*
X0196274Y0267436D01*
X0196431Y0267456D01*
X0196589Y0267472D01*
X0196746Y0267484D01*
X0196905Y0267492D01*
X0197063Y0267496D01*
X0197221Y0267496D01*
X0197379Y0267492D01*
X0197538Y0267484D01*
X0197695Y0267472D01*
X0197853Y0267456D01*
X0198010Y0267436D01*
X0198166Y0267412D01*
X0198322Y0267384D01*
X0198477Y0267353D01*
X0198632Y0267317D01*
X0198785Y0267278D01*
X0198937Y0267235D01*
X0199088Y0267188D01*
X0199238Y0267137D01*
X0199387Y0267082D01*
X0199534Y0267024D01*
X0199680Y0266962D01*
X0199824Y0266897D01*
X0199966Y0266827D01*
X0200107Y0266755D01*
X0200246Y0266678D01*
X0200382Y0266599D01*
X0200517Y0266515D01*
X0200650Y0266429D01*
X0200780Y0266339D01*
X0200908Y0266246D01*
X0201034Y0266150D01*
X0201157Y0266050D01*
X0201278Y0265948D01*
X0201396Y0265843D01*
X0201511Y0265734D01*
X0201624Y0265623D01*
X0201734Y0265509D01*
X0201841Y0265392D01*
X0201945Y0265273D01*
X0202046Y0265151D01*
X0202143Y0265026D01*
X0202238Y0264899D01*
X0202329Y0264770D01*
X0202418Y0264639D01*
X0202502Y0264505D01*
X0202584Y0264369D01*
X0202662Y0264232D01*
X0202736Y0264092D01*
X0202807Y0263950D01*
X0202875Y0263807D01*
X0202939Y0263662D01*
X0202999Y0263516D01*
X0203055Y0263368D01*
X0203108Y0263219D01*
X0203157Y0263068D01*
X0203202Y0262916D01*
X0203243Y0262763D01*
X0203281Y0262610D01*
X0203314Y0262455D01*
X0203344Y0262299D01*
X0203370Y0262143D01*
X0203391Y0261986D01*
X0203409Y0261829D01*
X0203423Y0261671D01*
X0203433Y0261513D01*
X0203439Y0261355D01*
X0203441Y0261197D01*
X0203439Y0261039D01*
X0203433Y0260881D01*
X0203423Y0260723D01*
X0203409Y0260565D01*
X0203391Y0260408D01*
X0203370Y0260251D01*
X0203344Y0260095D01*
X0203314Y0259939D01*
X0203281Y0259784D01*
X0203243Y0259631D01*
X0203202Y0259478D01*
X0203157Y0259326D01*
X0203108Y0259175D01*
X0203055Y0259026D01*
X0202999Y0258878D01*
X0202939Y0258732D01*
X0202875Y0258587D01*
X0202807Y0258444D01*
X0202736Y0258302D01*
X0202662Y0258162D01*
X0202584Y0258025D01*
X0202502Y0257889D01*
X0202418Y0257755D01*
X0202329Y0257624D01*
X0202238Y0257495D01*
X0202143Y0257368D01*
X0202046Y0257243D01*
X0201945Y0257121D01*
X0201841Y0257002D01*
X0201734Y0256885D01*
X0201624Y0256771D01*
X0201511Y0256660D01*
X0201396Y0256551D01*
X0201278Y0256446D01*
X0201157Y0256344D01*
X0201034Y0256244D01*
X0200908Y0256148D01*
X0200780Y0256055D01*
X0200650Y0255965D01*
X0200517Y0255879D01*
X0200382Y0255795D01*
X0200246Y0255716D01*
X0200107Y0255639D01*
X0199966Y0255567D01*
X0199824Y0255497D01*
X0199680Y0255432D01*
X0199534Y0255370D01*
X0199387Y0255312D01*
X0199238Y0255257D01*
X0199088Y0255206D01*
X0198937Y0255159D01*
X0198785Y0255116D01*
X0198632Y0255077D01*
X0198477Y0255041D01*
X0198322Y0255010D01*
X0198166Y0254982D01*
X0198010Y0254958D01*
X0197853Y0254938D01*
X0197695Y0254922D01*
X0197538Y0254910D01*
X0197379Y0254902D01*
X0197221Y0254898D01*
X0197063Y0254898D01*
X0196905Y0254902D01*
X0196746Y0254910D01*
X0196589Y0254922D01*
X0196431Y0254938D01*
X0196274Y0254958D01*
X0196118Y0254982D01*
X0195962Y0255010D01*
X0195807Y0255041D01*
X0195652Y0255077D01*
X0195499Y0255116D01*
X0195347Y0255159D01*
X0195196Y0255206D01*
X0195046Y0255257D01*
X0194897Y0255312D01*
X0194750Y0255370D01*
X0194604Y0255432D01*
X0194460Y0255497D01*
X0194318Y0255567D01*
X0194177Y0255639D01*
X0194038Y0255716D01*
X0193902Y0255795D01*
X0193767Y0255879D01*
X0193634Y0255965D01*
X0193504Y0256055D01*
X0193376Y0256148D01*
X0193250Y0256244D01*
X0193127Y0256344D01*
X0193006Y0256446D01*
X0192888Y0256551D01*
X0192773Y0256660D01*
X0192660Y0256771D01*
X0192550Y0256885D01*
X0192443Y0257002D01*
X0192339Y0257121D01*
X0192238Y0257243D01*
X0192141Y0257368D01*
X0192046Y0257495D01*
X0191955Y0257624D01*
X0191866Y0257755D01*
X0191782Y0257889D01*
X0191700Y0258025D01*
X0191622Y0258162D01*
X0191548Y0258302D01*
X0191477Y0258444D01*
X0191409Y0258587D01*
X0191345Y0258732D01*
X0191285Y0258878D01*
X0191229Y0259026D01*
X0191176Y0259175D01*
X0191127Y0259326D01*
X0191082Y0259478D01*
X0191041Y0259631D01*
X0191003Y0259784D01*
X0190970Y0259939D01*
X0190940Y0260095D01*
X0190914Y0260251D01*
X0190893Y0260408D01*
X0190875Y0260565D01*
X0190861Y0260723D01*
X0190851Y0260881D01*
X0190845Y0261039D01*
X0190843Y0261197D01*
X0308953Y0320252D02*
X0308955Y0320410D01*
X0308961Y0320568D01*
X0308971Y0320726D01*
X0308985Y0320884D01*
X0309003Y0321041D01*
X0309024Y0321198D01*
X0309050Y0321354D01*
X0309080Y0321510D01*
X0309113Y0321665D01*
X0309151Y0321818D01*
X0309192Y0321971D01*
X0309237Y0322123D01*
X0309286Y0322274D01*
X0309339Y0322423D01*
X0309395Y0322571D01*
X0309455Y0322717D01*
X0309519Y0322862D01*
X0309587Y0323005D01*
X0309658Y0323147D01*
X0309732Y0323287D01*
X0309810Y0323424D01*
X0309892Y0323560D01*
X0309976Y0323694D01*
X0310065Y0323825D01*
X0310156Y0323954D01*
X0310251Y0324081D01*
X0310348Y0324206D01*
X0310449Y0324328D01*
X0310553Y0324447D01*
X0310660Y0324564D01*
X0310770Y0324678D01*
X0310883Y0324789D01*
X0310998Y0324898D01*
X0311116Y0325003D01*
X0311237Y0325105D01*
X0311360Y0325205D01*
X0311486Y0325301D01*
X0311614Y0325394D01*
X0311744Y0325484D01*
X0311877Y0325570D01*
X0312012Y0325654D01*
X0312148Y0325733D01*
X0312287Y0325810D01*
X0312428Y0325882D01*
X0312570Y0325952D01*
X0312714Y0326017D01*
X0312860Y0326079D01*
X0313007Y0326137D01*
X0313156Y0326192D01*
X0313306Y0326243D01*
X0313457Y0326290D01*
X0313609Y0326333D01*
X0313762Y0326372D01*
X0313917Y0326408D01*
X0314072Y0326439D01*
X0314228Y0326467D01*
X0314384Y0326491D01*
X0314541Y0326511D01*
X0314699Y0326527D01*
X0314856Y0326539D01*
X0315015Y0326547D01*
X0315173Y0326551D01*
X0315331Y0326551D01*
X0315489Y0326547D01*
X0315648Y0326539D01*
X0315805Y0326527D01*
X0315963Y0326511D01*
X0316120Y0326491D01*
X0316276Y0326467D01*
X0316432Y0326439D01*
X0316587Y0326408D01*
X0316742Y0326372D01*
X0316895Y0326333D01*
X0317047Y0326290D01*
X0317198Y0326243D01*
X0317348Y0326192D01*
X0317497Y0326137D01*
X0317644Y0326079D01*
X0317790Y0326017D01*
X0317934Y0325952D01*
X0318076Y0325882D01*
X0318217Y0325810D01*
X0318356Y0325733D01*
X0318492Y0325654D01*
X0318627Y0325570D01*
X0318760Y0325484D01*
X0318890Y0325394D01*
X0319018Y0325301D01*
X0319144Y0325205D01*
X0319267Y0325105D01*
X0319388Y0325003D01*
X0319506Y0324898D01*
X0319621Y0324789D01*
X0319734Y0324678D01*
X0319844Y0324564D01*
X0319951Y0324447D01*
X0320055Y0324328D01*
X0320156Y0324206D01*
X0320253Y0324081D01*
X0320348Y0323954D01*
X0320439Y0323825D01*
X0320528Y0323694D01*
X0320612Y0323560D01*
X0320694Y0323424D01*
X0320772Y0323287D01*
X0320846Y0323147D01*
X0320917Y0323005D01*
X0320985Y0322862D01*
X0321049Y0322717D01*
X0321109Y0322571D01*
X0321165Y0322423D01*
X0321218Y0322274D01*
X0321267Y0322123D01*
X0321312Y0321971D01*
X0321353Y0321818D01*
X0321391Y0321665D01*
X0321424Y0321510D01*
X0321454Y0321354D01*
X0321480Y0321198D01*
X0321501Y0321041D01*
X0321519Y0320884D01*
X0321533Y0320726D01*
X0321543Y0320568D01*
X0321549Y0320410D01*
X0321551Y0320252D01*
X0321549Y0320094D01*
X0321543Y0319936D01*
X0321533Y0319778D01*
X0321519Y0319620D01*
X0321501Y0319463D01*
X0321480Y0319306D01*
X0321454Y0319150D01*
X0321424Y0318994D01*
X0321391Y0318839D01*
X0321353Y0318686D01*
X0321312Y0318533D01*
X0321267Y0318381D01*
X0321218Y0318230D01*
X0321165Y0318081D01*
X0321109Y0317933D01*
X0321049Y0317787D01*
X0320985Y0317642D01*
X0320917Y0317499D01*
X0320846Y0317357D01*
X0320772Y0317217D01*
X0320694Y0317080D01*
X0320612Y0316944D01*
X0320528Y0316810D01*
X0320439Y0316679D01*
X0320348Y0316550D01*
X0320253Y0316423D01*
X0320156Y0316298D01*
X0320055Y0316176D01*
X0319951Y0316057D01*
X0319844Y0315940D01*
X0319734Y0315826D01*
X0319621Y0315715D01*
X0319506Y0315606D01*
X0319388Y0315501D01*
X0319267Y0315399D01*
X0319144Y0315299D01*
X0319018Y0315203D01*
X0318890Y0315110D01*
X0318760Y0315020D01*
X0318627Y0314934D01*
X0318492Y0314850D01*
X0318356Y0314771D01*
X0318217Y0314694D01*
X0318076Y0314622D01*
X0317934Y0314552D01*
X0317790Y0314487D01*
X0317644Y0314425D01*
X0317497Y0314367D01*
X0317348Y0314312D01*
X0317198Y0314261D01*
X0317047Y0314214D01*
X0316895Y0314171D01*
X0316742Y0314132D01*
X0316587Y0314096D01*
X0316432Y0314065D01*
X0316276Y0314037D01*
X0316120Y0314013D01*
X0315963Y0313993D01*
X0315805Y0313977D01*
X0315648Y0313965D01*
X0315489Y0313957D01*
X0315331Y0313953D01*
X0315173Y0313953D01*
X0315015Y0313957D01*
X0314856Y0313965D01*
X0314699Y0313977D01*
X0314541Y0313993D01*
X0314384Y0314013D01*
X0314228Y0314037D01*
X0314072Y0314065D01*
X0313917Y0314096D01*
X0313762Y0314132D01*
X0313609Y0314171D01*
X0313457Y0314214D01*
X0313306Y0314261D01*
X0313156Y0314312D01*
X0313007Y0314367D01*
X0312860Y0314425D01*
X0312714Y0314487D01*
X0312570Y0314552D01*
X0312428Y0314622D01*
X0312287Y0314694D01*
X0312148Y0314771D01*
X0312012Y0314850D01*
X0311877Y0314934D01*
X0311744Y0315020D01*
X0311614Y0315110D01*
X0311486Y0315203D01*
X0311360Y0315299D01*
X0311237Y0315399D01*
X0311116Y0315501D01*
X0310998Y0315606D01*
X0310883Y0315715D01*
X0310770Y0315826D01*
X0310660Y0315940D01*
X0310553Y0316057D01*
X0310449Y0316176D01*
X0310348Y0316298D01*
X0310251Y0316423D01*
X0310156Y0316550D01*
X0310065Y0316679D01*
X0309976Y0316810D01*
X0309892Y0316944D01*
X0309810Y0317080D01*
X0309732Y0317217D01*
X0309658Y0317357D01*
X0309587Y0317499D01*
X0309519Y0317642D01*
X0309455Y0317787D01*
X0309395Y0317933D01*
X0309339Y0318081D01*
X0309286Y0318230D01*
X0309237Y0318381D01*
X0309192Y0318533D01*
X0309151Y0318686D01*
X0309113Y0318839D01*
X0309080Y0318994D01*
X0309050Y0319150D01*
X0309024Y0319306D01*
X0309003Y0319463D01*
X0308985Y0319620D01*
X0308971Y0319778D01*
X0308961Y0319936D01*
X0308955Y0320094D01*
X0308953Y0320252D01*
X0025488Y0320252D02*
X0025490Y0320410D01*
X0025496Y0320568D01*
X0025506Y0320726D01*
X0025520Y0320884D01*
X0025538Y0321041D01*
X0025559Y0321198D01*
X0025585Y0321354D01*
X0025615Y0321510D01*
X0025648Y0321665D01*
X0025686Y0321818D01*
X0025727Y0321971D01*
X0025772Y0322123D01*
X0025821Y0322274D01*
X0025874Y0322423D01*
X0025930Y0322571D01*
X0025990Y0322717D01*
X0026054Y0322862D01*
X0026122Y0323005D01*
X0026193Y0323147D01*
X0026267Y0323287D01*
X0026345Y0323424D01*
X0026427Y0323560D01*
X0026511Y0323694D01*
X0026600Y0323825D01*
X0026691Y0323954D01*
X0026786Y0324081D01*
X0026883Y0324206D01*
X0026984Y0324328D01*
X0027088Y0324447D01*
X0027195Y0324564D01*
X0027305Y0324678D01*
X0027418Y0324789D01*
X0027533Y0324898D01*
X0027651Y0325003D01*
X0027772Y0325105D01*
X0027895Y0325205D01*
X0028021Y0325301D01*
X0028149Y0325394D01*
X0028279Y0325484D01*
X0028412Y0325570D01*
X0028547Y0325654D01*
X0028683Y0325733D01*
X0028822Y0325810D01*
X0028963Y0325882D01*
X0029105Y0325952D01*
X0029249Y0326017D01*
X0029395Y0326079D01*
X0029542Y0326137D01*
X0029691Y0326192D01*
X0029841Y0326243D01*
X0029992Y0326290D01*
X0030144Y0326333D01*
X0030297Y0326372D01*
X0030452Y0326408D01*
X0030607Y0326439D01*
X0030763Y0326467D01*
X0030919Y0326491D01*
X0031076Y0326511D01*
X0031234Y0326527D01*
X0031391Y0326539D01*
X0031550Y0326547D01*
X0031708Y0326551D01*
X0031866Y0326551D01*
X0032024Y0326547D01*
X0032183Y0326539D01*
X0032340Y0326527D01*
X0032498Y0326511D01*
X0032655Y0326491D01*
X0032811Y0326467D01*
X0032967Y0326439D01*
X0033122Y0326408D01*
X0033277Y0326372D01*
X0033430Y0326333D01*
X0033582Y0326290D01*
X0033733Y0326243D01*
X0033883Y0326192D01*
X0034032Y0326137D01*
X0034179Y0326079D01*
X0034325Y0326017D01*
X0034469Y0325952D01*
X0034611Y0325882D01*
X0034752Y0325810D01*
X0034891Y0325733D01*
X0035027Y0325654D01*
X0035162Y0325570D01*
X0035295Y0325484D01*
X0035425Y0325394D01*
X0035553Y0325301D01*
X0035679Y0325205D01*
X0035802Y0325105D01*
X0035923Y0325003D01*
X0036041Y0324898D01*
X0036156Y0324789D01*
X0036269Y0324678D01*
X0036379Y0324564D01*
X0036486Y0324447D01*
X0036590Y0324328D01*
X0036691Y0324206D01*
X0036788Y0324081D01*
X0036883Y0323954D01*
X0036974Y0323825D01*
X0037063Y0323694D01*
X0037147Y0323560D01*
X0037229Y0323424D01*
X0037307Y0323287D01*
X0037381Y0323147D01*
X0037452Y0323005D01*
X0037520Y0322862D01*
X0037584Y0322717D01*
X0037644Y0322571D01*
X0037700Y0322423D01*
X0037753Y0322274D01*
X0037802Y0322123D01*
X0037847Y0321971D01*
X0037888Y0321818D01*
X0037926Y0321665D01*
X0037959Y0321510D01*
X0037989Y0321354D01*
X0038015Y0321198D01*
X0038036Y0321041D01*
X0038054Y0320884D01*
X0038068Y0320726D01*
X0038078Y0320568D01*
X0038084Y0320410D01*
X0038086Y0320252D01*
X0038084Y0320094D01*
X0038078Y0319936D01*
X0038068Y0319778D01*
X0038054Y0319620D01*
X0038036Y0319463D01*
X0038015Y0319306D01*
X0037989Y0319150D01*
X0037959Y0318994D01*
X0037926Y0318839D01*
X0037888Y0318686D01*
X0037847Y0318533D01*
X0037802Y0318381D01*
X0037753Y0318230D01*
X0037700Y0318081D01*
X0037644Y0317933D01*
X0037584Y0317787D01*
X0037520Y0317642D01*
X0037452Y0317499D01*
X0037381Y0317357D01*
X0037307Y0317217D01*
X0037229Y0317080D01*
X0037147Y0316944D01*
X0037063Y0316810D01*
X0036974Y0316679D01*
X0036883Y0316550D01*
X0036788Y0316423D01*
X0036691Y0316298D01*
X0036590Y0316176D01*
X0036486Y0316057D01*
X0036379Y0315940D01*
X0036269Y0315826D01*
X0036156Y0315715D01*
X0036041Y0315606D01*
X0035923Y0315501D01*
X0035802Y0315399D01*
X0035679Y0315299D01*
X0035553Y0315203D01*
X0035425Y0315110D01*
X0035295Y0315020D01*
X0035162Y0314934D01*
X0035027Y0314850D01*
X0034891Y0314771D01*
X0034752Y0314694D01*
X0034611Y0314622D01*
X0034469Y0314552D01*
X0034325Y0314487D01*
X0034179Y0314425D01*
X0034032Y0314367D01*
X0033883Y0314312D01*
X0033733Y0314261D01*
X0033582Y0314214D01*
X0033430Y0314171D01*
X0033277Y0314132D01*
X0033122Y0314096D01*
X0032967Y0314065D01*
X0032811Y0314037D01*
X0032655Y0314013D01*
X0032498Y0313993D01*
X0032340Y0313977D01*
X0032183Y0313965D01*
X0032024Y0313957D01*
X0031866Y0313953D01*
X0031708Y0313953D01*
X0031550Y0313957D01*
X0031391Y0313965D01*
X0031234Y0313977D01*
X0031076Y0313993D01*
X0030919Y0314013D01*
X0030763Y0314037D01*
X0030607Y0314065D01*
X0030452Y0314096D01*
X0030297Y0314132D01*
X0030144Y0314171D01*
X0029992Y0314214D01*
X0029841Y0314261D01*
X0029691Y0314312D01*
X0029542Y0314367D01*
X0029395Y0314425D01*
X0029249Y0314487D01*
X0029105Y0314552D01*
X0028963Y0314622D01*
X0028822Y0314694D01*
X0028683Y0314771D01*
X0028547Y0314850D01*
X0028412Y0314934D01*
X0028279Y0315020D01*
X0028149Y0315110D01*
X0028021Y0315203D01*
X0027895Y0315299D01*
X0027772Y0315399D01*
X0027651Y0315501D01*
X0027533Y0315606D01*
X0027418Y0315715D01*
X0027305Y0315826D01*
X0027195Y0315940D01*
X0027088Y0316057D01*
X0026984Y0316176D01*
X0026883Y0316298D01*
X0026786Y0316423D01*
X0026691Y0316550D01*
X0026600Y0316679D01*
X0026511Y0316810D01*
X0026427Y0316944D01*
X0026345Y0317080D01*
X0026267Y0317217D01*
X0026193Y0317357D01*
X0026122Y0317499D01*
X0026054Y0317642D01*
X0025990Y0317787D01*
X0025930Y0317933D01*
X0025874Y0318081D01*
X0025821Y0318230D01*
X0025772Y0318381D01*
X0025727Y0318533D01*
X0025686Y0318686D01*
X0025648Y0318839D01*
X0025615Y0318994D01*
X0025585Y0319150D01*
X0025559Y0319306D01*
X0025538Y0319463D01*
X0025520Y0319620D01*
X0025506Y0319778D01*
X0025496Y0319936D01*
X0025490Y0320094D01*
X0025488Y0320252D01*
D12*
X0026000Y0278500D03*
X0036000Y0278500D03*
X0036000Y0268500D03*
X0026000Y0268500D03*
X0026000Y0258500D03*
X0036000Y0258500D03*
X0036000Y0248500D03*
X0026000Y0248500D03*
X0026000Y0238500D03*
X0026000Y0228500D03*
X0036000Y0228500D03*
X0036000Y0238500D03*
X0036000Y0218500D03*
X0026000Y0218500D03*
X0026000Y0208500D03*
X0036000Y0208500D03*
X0036000Y0198500D03*
X0026000Y0198500D03*
X0026000Y0188500D03*
X0036000Y0188500D03*
X0036000Y0168500D03*
X0026000Y0168500D03*
X0026000Y0158500D03*
X0036000Y0158500D03*
X0036000Y0148500D03*
X0026000Y0148500D03*
X0026000Y0138500D03*
X0036000Y0138500D03*
X0036000Y0128500D03*
X0026000Y0128500D03*
X0026000Y0118500D03*
X0036000Y0118500D03*
X0036000Y0108500D03*
X0036000Y0098500D03*
X0026000Y0098500D03*
X0026000Y0108500D03*
X0026000Y0088500D03*
X0036000Y0088500D03*
X0036000Y0078500D03*
X0026000Y0078500D03*
X0153000Y0264000D03*
X0153000Y0286000D03*
X0301000Y0213500D03*
X0311000Y0213500D03*
X0311000Y0203500D03*
X0311000Y0193500D03*
X0301000Y0193500D03*
X0301000Y0203500D03*
X0301000Y0183500D03*
X0311000Y0183500D03*
X0311000Y0173500D03*
X0301000Y0173500D03*
X0301000Y0163500D03*
X0311000Y0163500D03*
X0311000Y0153500D03*
X0301000Y0153500D03*
X0301000Y0143500D03*
X0311000Y0143500D03*
X0321000Y0143500D03*
X0321000Y0153500D03*
X0321000Y0163500D03*
X0321000Y0173500D03*
X0321000Y0183500D03*
X0321000Y0193500D03*
X0321000Y0203500D03*
X0321000Y0213500D03*
D13*
X0300000Y0227000D03*
X0288000Y0223000D03*
X0282000Y0223000D03*
X0282000Y0217000D03*
X0288000Y0213000D03*
X0290000Y0205000D03*
X0282000Y0207000D03*
X0284000Y0197000D03*
X0288000Y0189000D03*
X0296000Y0189000D03*
X0278000Y0179000D03*
X0272000Y0189000D03*
X0272000Y0197000D03*
X0272000Y0207000D03*
X0272000Y0217000D03*
X0276000Y0229000D03*
X0272000Y0233000D03*
X0272000Y0239000D03*
X0272000Y0245000D03*
X0280000Y0237000D03*
X0286000Y0231000D03*
X0300000Y0239000D03*
X0294000Y0245000D03*
X0256000Y0245000D03*
X0256000Y0239000D03*
X0256000Y0233000D03*
X0244000Y0233000D03*
X0236100Y0229700D03*
X0236000Y0239000D03*
X0236000Y0245000D03*
X0216000Y0245000D03*
X0216000Y0239000D03*
X0206600Y0235800D03*
X0198000Y0239000D03*
X0198000Y0245000D03*
X0178000Y0245000D03*
X0178000Y0239000D03*
X0156000Y0245000D03*
X0130000Y0245000D03*
X0106000Y0245000D03*
X0100000Y0227000D03*
X0094200Y0201500D03*
X0097700Y0195600D03*
X0094100Y0170400D03*
X0098100Y0162900D03*
X0127400Y0166700D03*
X0155500Y0158700D03*
X0173400Y0165700D03*
X0181100Y0163000D03*
X0185300Y0165200D03*
X0197800Y0169800D03*
X0200800Y0169700D03*
X0218000Y0158500D03*
X0226000Y0177800D03*
X0233500Y0175500D03*
X0248000Y0175500D03*
X0252000Y0177800D03*
X0256000Y0217000D03*
X0244000Y0217000D03*
X0235900Y0219400D03*
X0210300Y0224600D03*
X0174100Y0189400D03*
X0171600Y0181400D03*
X0155400Y0196600D03*
X0127300Y0198600D03*
X0052100Y0251000D03*
X0200400Y0117000D03*
D14*
X0201300Y0125900D03*
X0222000Y0130000D03*
X0178400Y0113000D03*
X0167000Y0117500D03*
X0159000Y0130000D03*
X0161600Y0169500D03*
X0159800Y0177500D03*
X0162100Y0185500D03*
X0146200Y0174100D03*
X0142900Y0179700D03*
X0132400Y0184000D03*
X0123300Y0178500D03*
X0123200Y0211700D03*
X0131000Y0216100D03*
X0142800Y0211700D03*
X0180100Y0197600D03*
X0185000Y0209400D03*
X0199500Y0198900D03*
X0209200Y0193900D03*
X0205600Y0187200D03*
X0217800Y0182600D03*
X0193000Y0181000D03*
X0193000Y0176000D03*
X0188000Y0176000D03*
X0188000Y0181000D03*
X0212700Y0210200D03*
X0219600Y0214500D03*
X0135200Y0257600D03*
X0135100Y0292700D03*
X0075800Y0164800D03*
X0081900Y0158400D03*
X0075800Y0152100D03*
X0068400Y0151400D03*
X0179000Y0062200D03*
X0201700Y0055900D03*
X0209200Y0055900D03*
X0215500Y0062200D03*
X0209100Y0068500D03*
D15*
X0209000Y0160100D03*
D16*
X0211472Y0159142D02*
X0216000Y0159142D01*
X0216000Y0159328D02*
X0216000Y0157672D01*
X0217172Y0156500D01*
X0218828Y0156500D01*
X0220000Y0157672D01*
X0220000Y0159328D01*
X0218828Y0160500D01*
X0217172Y0160500D01*
X0216000Y0159328D01*
X0216613Y0159941D02*
X0211650Y0159941D01*
X0211650Y0159573D02*
X0211247Y0158599D01*
X0210501Y0157853D01*
X0209527Y0157450D01*
X0208473Y0157450D01*
X0207499Y0157853D01*
X0206753Y0158599D01*
X0206350Y0159573D01*
X0206350Y0160627D01*
X0206753Y0161601D01*
X0207499Y0162347D01*
X0208473Y0162750D01*
X0209527Y0162750D01*
X0210501Y0162347D01*
X0211247Y0161601D01*
X0211650Y0160627D01*
X0211650Y0159573D01*
X0211603Y0160739D02*
X0298104Y0160739D01*
X0297609Y0161234D02*
X0298734Y0160109D01*
X0300204Y0159500D01*
X0301796Y0159500D01*
X0303266Y0160109D01*
X0304391Y0161234D01*
X0305000Y0162704D01*
X0305000Y0164296D01*
X0304391Y0165766D01*
X0303266Y0166891D01*
X0301796Y0167500D01*
X0300204Y0167500D01*
X0298734Y0166891D01*
X0297609Y0165766D01*
X0297000Y0164296D01*
X0297000Y0162704D01*
X0297609Y0161234D01*
X0297483Y0161538D02*
X0211273Y0161538D01*
X0210511Y0162337D02*
X0297152Y0162337D01*
X0297000Y0163135D02*
X0191600Y0163135D01*
X0191600Y0162337D02*
X0207489Y0162337D01*
X0206727Y0161538D02*
X0191600Y0161538D01*
X0191600Y0160739D02*
X0206397Y0160739D01*
X0206350Y0159941D02*
X0191600Y0159941D01*
X0191600Y0159142D02*
X0206528Y0159142D01*
X0207008Y0158344D02*
X0191600Y0158344D01*
X0191600Y0157545D02*
X0208242Y0157545D01*
X0209758Y0157545D02*
X0216126Y0157545D01*
X0216000Y0158344D02*
X0210992Y0158344D01*
X0216925Y0156747D02*
X0191600Y0156747D01*
X0191600Y0155948D02*
X0297792Y0155948D01*
X0297609Y0155766D02*
X0297000Y0154296D01*
X0297000Y0152704D01*
X0297609Y0151234D01*
X0298734Y0150109D01*
X0300204Y0149500D01*
X0301796Y0149500D01*
X0303266Y0150109D01*
X0304391Y0151234D01*
X0305000Y0152704D01*
X0305000Y0154296D01*
X0304391Y0155766D01*
X0303266Y0156891D01*
X0301796Y0157500D01*
X0300204Y0157500D01*
X0298734Y0156891D01*
X0297609Y0155766D01*
X0297354Y0155150D02*
X0191600Y0155150D01*
X0191600Y0154351D02*
X0297023Y0154351D01*
X0297000Y0153553D02*
X0191600Y0153553D01*
X0191600Y0152754D02*
X0297000Y0152754D01*
X0297310Y0151956D02*
X0191600Y0151956D01*
X0191600Y0151157D02*
X0297686Y0151157D01*
X0298484Y0150359D02*
X0191600Y0150359D01*
X0191600Y0149560D02*
X0300059Y0149560D01*
X0301941Y0149560D02*
X0310059Y0149560D01*
X0310204Y0149500D02*
X0311796Y0149500D01*
X0313266Y0150109D01*
X0314391Y0151234D01*
X0315000Y0152704D01*
X0315000Y0154296D01*
X0314391Y0155766D01*
X0313266Y0156891D01*
X0311796Y0157500D01*
X0310204Y0157500D01*
X0308734Y0156891D01*
X0307609Y0155766D01*
X0307000Y0154296D01*
X0307000Y0152704D01*
X0307609Y0151234D01*
X0308734Y0150109D01*
X0310204Y0149500D01*
X0311941Y0149560D02*
X0320059Y0149560D01*
X0320204Y0149500D02*
X0321796Y0149500D01*
X0323266Y0150109D01*
X0324391Y0151234D01*
X0325000Y0152704D01*
X0325000Y0154296D01*
X0324391Y0155766D01*
X0323266Y0156891D01*
X0321796Y0157500D01*
X0320204Y0157500D01*
X0318734Y0156891D01*
X0317609Y0155766D01*
X0317000Y0154296D01*
X0317000Y0152704D01*
X0317609Y0151234D01*
X0318734Y0150109D01*
X0320204Y0149500D01*
X0321941Y0149560D02*
X0329600Y0149560D01*
X0329600Y0148762D02*
X0191600Y0148762D01*
X0191600Y0147963D02*
X0329600Y0147963D01*
X0329600Y0147165D02*
X0322605Y0147165D01*
X0323266Y0146891D02*
X0321796Y0147500D01*
X0320204Y0147500D01*
X0318734Y0146891D01*
X0317609Y0145766D01*
X0317000Y0144296D01*
X0317000Y0142704D01*
X0317609Y0141234D01*
X0318734Y0140109D01*
X0320204Y0139500D01*
X0321796Y0139500D01*
X0323266Y0140109D01*
X0324391Y0141234D01*
X0325000Y0142704D01*
X0325000Y0144296D01*
X0324391Y0145766D01*
X0323266Y0146891D01*
X0323791Y0146366D02*
X0329600Y0146366D01*
X0329600Y0145568D02*
X0324473Y0145568D01*
X0324804Y0144769D02*
X0329600Y0144769D01*
X0329600Y0143971D02*
X0325000Y0143971D01*
X0325000Y0143172D02*
X0329600Y0143172D01*
X0329600Y0142374D02*
X0324863Y0142374D01*
X0324532Y0141575D02*
X0329600Y0141575D01*
X0329600Y0140777D02*
X0323934Y0140777D01*
X0322950Y0139978D02*
X0329600Y0139978D01*
X0329600Y0139180D02*
X0191600Y0139180D01*
X0191600Y0139978D02*
X0299050Y0139978D01*
X0298734Y0140109D02*
X0300204Y0139500D01*
X0301796Y0139500D01*
X0303266Y0140109D01*
X0304391Y0141234D01*
X0305000Y0142704D01*
X0305000Y0144296D01*
X0304391Y0145766D01*
X0303266Y0146891D01*
X0301796Y0147500D01*
X0300204Y0147500D01*
X0298734Y0146891D01*
X0297609Y0145766D01*
X0297000Y0144296D01*
X0297000Y0142704D01*
X0297609Y0141234D01*
X0298734Y0140109D01*
X0298066Y0140777D02*
X0191600Y0140777D01*
X0191600Y0141575D02*
X0297468Y0141575D01*
X0297137Y0142374D02*
X0191600Y0142374D01*
X0191600Y0143172D02*
X0297000Y0143172D01*
X0297000Y0143971D02*
X0191600Y0143971D01*
X0191600Y0144769D02*
X0297196Y0144769D01*
X0297527Y0145568D02*
X0191600Y0145568D01*
X0191600Y0146366D02*
X0298209Y0146366D01*
X0299395Y0147165D02*
X0191600Y0147165D01*
X0190000Y0147165D02*
X0039776Y0147165D01*
X0040000Y0147704D02*
X0039391Y0146234D01*
X0038266Y0145109D01*
X0036796Y0144500D01*
X0035204Y0144500D01*
X0033734Y0145109D01*
X0032609Y0146234D01*
X0032000Y0147704D01*
X0032000Y0149296D01*
X0032609Y0150766D01*
X0033734Y0151891D01*
X0035204Y0152500D01*
X0036796Y0152500D01*
X0038266Y0151891D01*
X0039391Y0150766D01*
X0040000Y0149296D01*
X0040000Y0147704D01*
X0040000Y0147963D02*
X0190000Y0147963D01*
X0190000Y0148762D02*
X0040000Y0148762D01*
X0039890Y0149560D02*
X0074689Y0149560D01*
X0074230Y0149750D02*
X0075249Y0149328D01*
X0076351Y0149328D01*
X0077370Y0149750D01*
X0078150Y0150530D01*
X0078572Y0151549D01*
X0078572Y0152651D01*
X0078150Y0153670D01*
X0077370Y0154450D01*
X0076351Y0154872D01*
X0075249Y0154872D01*
X0074230Y0154450D01*
X0073450Y0153670D01*
X0073028Y0152651D01*
X0073028Y0151549D01*
X0073450Y0150530D01*
X0074230Y0149750D01*
X0073621Y0150359D02*
X0039560Y0150359D01*
X0038999Y0151157D02*
X0073190Y0151157D01*
X0073028Y0151956D02*
X0038109Y0151956D01*
X0036796Y0154500D02*
X0035204Y0154500D01*
X0033734Y0155109D01*
X0032609Y0156234D01*
X0032000Y0157704D01*
X0032000Y0159296D01*
X0032609Y0160766D01*
X0033734Y0161891D01*
X0035204Y0162500D01*
X0036796Y0162500D01*
X0038266Y0161891D01*
X0039391Y0160766D01*
X0040000Y0159296D01*
X0040000Y0157704D01*
X0039391Y0156234D01*
X0038266Y0155109D01*
X0036796Y0154500D01*
X0038307Y0155150D02*
X0190000Y0155150D01*
X0190000Y0155948D02*
X0083224Y0155948D01*
X0083470Y0156050D02*
X0084250Y0156830D01*
X0084672Y0157849D01*
X0084672Y0158951D01*
X0084250Y0159970D01*
X0083470Y0160750D01*
X0082451Y0161172D01*
X0081349Y0161172D01*
X0080330Y0160750D01*
X0079550Y0159970D01*
X0079128Y0158951D01*
X0079128Y0157849D01*
X0079550Y0156830D01*
X0080330Y0156050D01*
X0081349Y0155628D01*
X0082451Y0155628D01*
X0083470Y0156050D01*
X0084167Y0156747D02*
X0154625Y0156747D01*
X0154672Y0156700D02*
X0156328Y0156700D01*
X0157500Y0157872D01*
X0157500Y0159528D01*
X0156328Y0160700D01*
X0154672Y0160700D01*
X0153500Y0159528D01*
X0153500Y0157872D01*
X0154672Y0156700D01*
X0153826Y0157545D02*
X0084546Y0157545D01*
X0084672Y0158344D02*
X0153500Y0158344D01*
X0153500Y0159142D02*
X0084592Y0159142D01*
X0084262Y0159941D02*
X0153913Y0159941D01*
X0157087Y0159941D02*
X0190000Y0159941D01*
X0190000Y0160739D02*
X0083480Y0160739D01*
X0080320Y0160739D02*
X0039402Y0160739D01*
X0039733Y0159941D02*
X0079538Y0159941D01*
X0079208Y0159142D02*
X0040000Y0159142D01*
X0040000Y0158344D02*
X0079128Y0158344D01*
X0079254Y0157545D02*
X0039934Y0157545D01*
X0039603Y0156747D02*
X0079633Y0156747D01*
X0080576Y0155948D02*
X0039105Y0155948D01*
X0033693Y0155150D02*
X0028307Y0155150D01*
X0028266Y0155109D02*
X0029391Y0156234D01*
X0030000Y0157704D01*
X0030000Y0159296D01*
X0029391Y0160766D01*
X0028266Y0161891D01*
X0026796Y0162500D01*
X0025204Y0162500D01*
X0023734Y0161891D01*
X0022609Y0160766D01*
X0022000Y0159296D01*
X0022000Y0157704D01*
X0022609Y0156234D01*
X0023734Y0155109D01*
X0025204Y0154500D01*
X0026796Y0154500D01*
X0028266Y0155109D01*
X0029105Y0155948D02*
X0032895Y0155948D01*
X0032397Y0156747D02*
X0029603Y0156747D01*
X0029934Y0157545D02*
X0032066Y0157545D01*
X0032000Y0158344D02*
X0030000Y0158344D01*
X0030000Y0159142D02*
X0032000Y0159142D01*
X0032267Y0159941D02*
X0029733Y0159941D01*
X0029402Y0160739D02*
X0032598Y0160739D01*
X0033381Y0161538D02*
X0028619Y0161538D01*
X0027190Y0162337D02*
X0034810Y0162337D01*
X0035204Y0164500D02*
X0036796Y0164500D01*
X0038266Y0165109D01*
X0039391Y0166234D01*
X0040000Y0167704D01*
X0040000Y0169296D01*
X0039391Y0170766D01*
X0038266Y0171891D01*
X0036796Y0172500D01*
X0035204Y0172500D01*
X0033734Y0171891D01*
X0032609Y0170766D01*
X0032000Y0169296D01*
X0032000Y0167704D01*
X0032609Y0166234D01*
X0033734Y0165109D01*
X0035204Y0164500D01*
X0034644Y0164732D02*
X0027356Y0164732D01*
X0026796Y0164500D02*
X0028266Y0165109D01*
X0029391Y0166234D01*
X0030000Y0167704D01*
X0030000Y0169296D01*
X0029391Y0170766D01*
X0028266Y0171891D01*
X0026796Y0172500D01*
X0025204Y0172500D01*
X0023734Y0171891D01*
X0022609Y0170766D01*
X0022000Y0169296D01*
X0022000Y0167704D01*
X0022609Y0166234D01*
X0023734Y0165109D01*
X0025204Y0164500D01*
X0026796Y0164500D01*
X0028687Y0165531D02*
X0033313Y0165531D01*
X0032570Y0166329D02*
X0029430Y0166329D01*
X0029761Y0167128D02*
X0032239Y0167128D01*
X0032000Y0167926D02*
X0030000Y0167926D01*
X0030000Y0168725D02*
X0032000Y0168725D01*
X0032094Y0169523D02*
X0029906Y0169523D01*
X0029575Y0170322D02*
X0032425Y0170322D01*
X0032963Y0171120D02*
X0029037Y0171120D01*
X0028199Y0171919D02*
X0033801Y0171919D01*
X0038199Y0171919D02*
X0092790Y0171919D01*
X0093272Y0172400D02*
X0092100Y0171228D01*
X0092100Y0169572D01*
X0093272Y0168400D01*
X0094928Y0168400D01*
X0096100Y0169572D01*
X0096100Y0171228D01*
X0094928Y0172400D01*
X0093272Y0172400D01*
X0092100Y0171120D02*
X0039037Y0171120D01*
X0039575Y0170322D02*
X0092100Y0170322D01*
X0092148Y0169523D02*
X0039906Y0169523D01*
X0040000Y0168725D02*
X0092947Y0168725D01*
X0095253Y0168725D02*
X0158921Y0168725D01*
X0158828Y0168949D02*
X0159250Y0167930D01*
X0160030Y0167150D01*
X0161049Y0166728D01*
X0162151Y0166728D01*
X0163170Y0167150D01*
X0163950Y0167930D01*
X0164372Y0168949D01*
X0164372Y0170051D01*
X0163950Y0171070D01*
X0163170Y0171850D01*
X0162151Y0172272D01*
X0161049Y0172272D01*
X0160030Y0171850D01*
X0159250Y0171070D01*
X0158828Y0170051D01*
X0158828Y0168949D01*
X0158828Y0169523D02*
X0096052Y0169523D01*
X0096100Y0170322D02*
X0158940Y0170322D01*
X0159300Y0171120D02*
X0096100Y0171120D01*
X0095410Y0171919D02*
X0144462Y0171919D01*
X0144630Y0171750D02*
X0145649Y0171328D01*
X0146751Y0171328D01*
X0147770Y0171750D01*
X0148550Y0172530D01*
X0148972Y0173549D01*
X0148972Y0174651D01*
X0148550Y0175670D01*
X0147770Y0176450D01*
X0146751Y0176872D01*
X0145649Y0176872D01*
X0144630Y0176450D01*
X0143850Y0175670D01*
X0143428Y0174651D01*
X0143428Y0173549D01*
X0143850Y0172530D01*
X0144630Y0171750D01*
X0143773Y0172717D02*
X0017439Y0172717D01*
X0017439Y0171919D02*
X0023801Y0171919D01*
X0022963Y0171120D02*
X0017439Y0171120D01*
X0017439Y0170322D02*
X0022425Y0170322D01*
X0022094Y0169523D02*
X0017439Y0169523D01*
X0017439Y0168725D02*
X0022000Y0168725D01*
X0022000Y0167926D02*
X0017439Y0167926D01*
X0017439Y0167128D02*
X0022239Y0167128D01*
X0022570Y0166329D02*
X0017439Y0166329D01*
X0017439Y0165531D02*
X0023313Y0165531D01*
X0024644Y0164732D02*
X0017439Y0164732D01*
X0017439Y0163934D02*
X0073159Y0163934D01*
X0073028Y0164249D02*
X0073450Y0163230D01*
X0074230Y0162450D01*
X0075249Y0162028D01*
X0076351Y0162028D01*
X0077370Y0162450D01*
X0078150Y0163230D01*
X0078572Y0164249D01*
X0078572Y0165351D01*
X0078150Y0166370D01*
X0077370Y0167150D01*
X0076351Y0167572D01*
X0075249Y0167572D01*
X0074230Y0167150D01*
X0073450Y0166370D01*
X0073028Y0165351D01*
X0073028Y0164249D01*
X0073028Y0164732D02*
X0037356Y0164732D01*
X0038687Y0165531D02*
X0073103Y0165531D01*
X0073433Y0166329D02*
X0039430Y0166329D01*
X0039761Y0167128D02*
X0074208Y0167128D01*
X0077392Y0167128D02*
X0125400Y0167128D01*
X0125400Y0167528D02*
X0125400Y0165872D01*
X0126572Y0164700D01*
X0128228Y0164700D01*
X0129400Y0165872D01*
X0129400Y0167528D01*
X0128228Y0168700D01*
X0126572Y0168700D01*
X0125400Y0167528D01*
X0125798Y0167926D02*
X0040000Y0167926D01*
X0037190Y0162337D02*
X0074505Y0162337D01*
X0073545Y0163135D02*
X0017439Y0163135D01*
X0017439Y0162337D02*
X0024810Y0162337D01*
X0023381Y0161538D02*
X0017439Y0161538D01*
X0017439Y0160739D02*
X0022598Y0160739D01*
X0022267Y0159941D02*
X0017439Y0159941D01*
X0017439Y0159142D02*
X0022000Y0159142D01*
X0022000Y0158344D02*
X0017439Y0158344D01*
X0017439Y0157545D02*
X0022066Y0157545D01*
X0022397Y0156747D02*
X0017439Y0156747D01*
X0017439Y0155948D02*
X0022895Y0155948D01*
X0023693Y0155150D02*
X0017439Y0155150D01*
X0017439Y0154351D02*
X0074132Y0154351D01*
X0073402Y0153553D02*
X0017439Y0153553D01*
X0017439Y0152754D02*
X0073071Y0152754D01*
X0077468Y0154351D02*
X0190000Y0154351D01*
X0190000Y0153553D02*
X0078198Y0153553D01*
X0078529Y0152754D02*
X0190000Y0152754D01*
X0190000Y0151956D02*
X0078572Y0151956D01*
X0078410Y0151157D02*
X0190000Y0151157D01*
X0190000Y0150359D02*
X0077979Y0150359D01*
X0076911Y0149560D02*
X0190000Y0149560D01*
X0190000Y0146366D02*
X0039446Y0146366D01*
X0038725Y0145568D02*
X0190000Y0145568D01*
X0190000Y0144769D02*
X0037446Y0144769D01*
X0036796Y0142500D02*
X0035204Y0142500D01*
X0033734Y0141891D01*
X0032609Y0140766D01*
X0032000Y0139296D01*
X0032000Y0137704D01*
X0032609Y0136234D01*
X0033734Y0135109D01*
X0035204Y0134500D01*
X0036796Y0134500D01*
X0038266Y0135109D01*
X0039391Y0136234D01*
X0040000Y0137704D01*
X0040000Y0139296D01*
X0039391Y0140766D01*
X0038266Y0141891D01*
X0036796Y0142500D01*
X0037100Y0142374D02*
X0190000Y0142374D01*
X0190000Y0143172D02*
X0017439Y0143172D01*
X0017439Y0142374D02*
X0024900Y0142374D01*
X0025204Y0142500D02*
X0023734Y0141891D01*
X0022609Y0140766D01*
X0022000Y0139296D01*
X0022000Y0137704D01*
X0022609Y0136234D01*
X0023734Y0135109D01*
X0025204Y0134500D01*
X0026796Y0134500D01*
X0028266Y0135109D01*
X0029391Y0136234D01*
X0030000Y0137704D01*
X0030000Y0139296D01*
X0029391Y0140766D01*
X0028266Y0141891D01*
X0026796Y0142500D01*
X0025204Y0142500D01*
X0027100Y0142374D02*
X0034900Y0142374D01*
X0033418Y0141575D02*
X0028582Y0141575D01*
X0029380Y0140777D02*
X0032620Y0140777D01*
X0032283Y0139978D02*
X0029717Y0139978D01*
X0030000Y0139180D02*
X0032000Y0139180D01*
X0032000Y0138381D02*
X0030000Y0138381D01*
X0029950Y0137583D02*
X0032050Y0137583D01*
X0032381Y0136784D02*
X0029619Y0136784D01*
X0029142Y0135986D02*
X0032858Y0135986D01*
X0033656Y0135187D02*
X0028344Y0135187D01*
X0026796Y0132500D02*
X0025204Y0132500D01*
X0023734Y0131891D01*
X0022609Y0130766D01*
X0022000Y0129296D01*
X0022000Y0127704D01*
X0022609Y0126234D01*
X0023734Y0125109D01*
X0025204Y0124500D01*
X0026796Y0124500D01*
X0028266Y0125109D01*
X0029391Y0126234D01*
X0030000Y0127704D01*
X0030000Y0129296D01*
X0029391Y0130766D01*
X0028266Y0131891D01*
X0026796Y0132500D01*
X0028019Y0131993D02*
X0033981Y0131993D01*
X0033734Y0131891D02*
X0032609Y0130766D01*
X0032000Y0129296D01*
X0032000Y0127704D01*
X0032609Y0126234D01*
X0033734Y0125109D01*
X0035204Y0124500D01*
X0036796Y0124500D01*
X0038266Y0125109D01*
X0039391Y0126234D01*
X0040000Y0127704D01*
X0040000Y0129296D01*
X0039391Y0130766D01*
X0038266Y0131891D01*
X0036796Y0132500D01*
X0035204Y0132500D01*
X0033734Y0131891D01*
X0033038Y0131195D02*
X0028962Y0131195D01*
X0029544Y0130396D02*
X0032456Y0130396D01*
X0032125Y0129598D02*
X0029875Y0129598D01*
X0030000Y0128799D02*
X0032000Y0128799D01*
X0032000Y0128001D02*
X0030000Y0128001D01*
X0029792Y0127202D02*
X0032208Y0127202D01*
X0032539Y0126403D02*
X0029461Y0126403D01*
X0028762Y0125605D02*
X0033238Y0125605D01*
X0034464Y0124806D02*
X0027536Y0124806D01*
X0026796Y0122500D02*
X0025204Y0122500D01*
X0023734Y0121891D01*
X0022609Y0120766D01*
X0022000Y0119296D01*
X0022000Y0117704D01*
X0022609Y0116234D01*
X0023734Y0115109D01*
X0025204Y0114500D01*
X0026796Y0114500D01*
X0028266Y0115109D01*
X0029391Y0116234D01*
X0030000Y0117704D01*
X0030000Y0119296D01*
X0029391Y0120766D01*
X0028266Y0121891D01*
X0026796Y0122500D01*
X0027011Y0122411D02*
X0034989Y0122411D01*
X0035204Y0122500D02*
X0033734Y0121891D01*
X0032609Y0120766D01*
X0032000Y0119296D01*
X0032000Y0117704D01*
X0032609Y0116234D01*
X0033734Y0115109D01*
X0035204Y0114500D01*
X0036796Y0114500D01*
X0038266Y0115109D01*
X0039391Y0116234D01*
X0040000Y0117704D01*
X0040000Y0119296D01*
X0039391Y0120766D01*
X0038266Y0121891D01*
X0036796Y0122500D01*
X0035204Y0122500D01*
X0037011Y0122411D02*
X0190000Y0122411D01*
X0190000Y0123209D02*
X0017439Y0123209D01*
X0017439Y0122411D02*
X0024989Y0122411D01*
X0023456Y0121612D02*
X0017439Y0121612D01*
X0017439Y0120814D02*
X0022657Y0120814D01*
X0022298Y0120015D02*
X0017439Y0120015D01*
X0017439Y0119217D02*
X0022000Y0119217D01*
X0022000Y0118418D02*
X0017439Y0118418D01*
X0017439Y0117620D02*
X0022035Y0117620D01*
X0022366Y0116821D02*
X0017439Y0116821D01*
X0017439Y0116023D02*
X0022820Y0116023D01*
X0023619Y0115224D02*
X0017439Y0115224D01*
X0017439Y0114426D02*
X0190000Y0114426D01*
X0190000Y0115224D02*
X0168644Y0115224D01*
X0168570Y0115150D02*
X0169350Y0115930D01*
X0169772Y0116949D01*
X0169772Y0118051D01*
X0169350Y0119070D01*
X0168570Y0119850D01*
X0167551Y0120272D01*
X0166449Y0120272D01*
X0165430Y0119850D01*
X0164650Y0119070D01*
X0164228Y0118051D01*
X0164228Y0116949D01*
X0164650Y0115930D01*
X0165430Y0115150D01*
X0166449Y0114728D01*
X0167551Y0114728D01*
X0168570Y0115150D01*
X0169388Y0116023D02*
X0190000Y0116023D01*
X0190000Y0116821D02*
X0169719Y0116821D01*
X0169772Y0117620D02*
X0190000Y0117620D01*
X0190000Y0118418D02*
X0169620Y0118418D01*
X0169203Y0119217D02*
X0190000Y0119217D01*
X0190000Y0120015D02*
X0168170Y0120015D01*
X0165830Y0120015D02*
X0039702Y0120015D01*
X0040000Y0119217D02*
X0164797Y0119217D01*
X0164380Y0118418D02*
X0040000Y0118418D01*
X0039965Y0117620D02*
X0164228Y0117620D01*
X0164281Y0116821D02*
X0039634Y0116821D01*
X0039180Y0116023D02*
X0164612Y0116023D01*
X0165356Y0115224D02*
X0038381Y0115224D01*
X0036796Y0112500D02*
X0035204Y0112500D01*
X0033734Y0111891D01*
X0032609Y0110766D01*
X0032000Y0109296D01*
X0032000Y0107704D01*
X0032609Y0106234D01*
X0033734Y0105109D01*
X0035204Y0104500D01*
X0036796Y0104500D01*
X0038266Y0105109D01*
X0039391Y0106234D01*
X0040000Y0107704D01*
X0040000Y0109296D01*
X0039391Y0110766D01*
X0038266Y0111891D01*
X0036796Y0112500D01*
X0037930Y0112030D02*
X0190000Y0112030D01*
X0190000Y0111232D02*
X0038925Y0111232D01*
X0039529Y0110433D02*
X0190000Y0110433D01*
X0190000Y0109635D02*
X0039860Y0109635D01*
X0040000Y0108836D02*
X0190000Y0108836D01*
X0190000Y0108038D02*
X0040000Y0108038D01*
X0039807Y0107239D02*
X0190000Y0107239D01*
X0190000Y0106441D02*
X0039477Y0106441D01*
X0038799Y0105642D02*
X0190000Y0105642D01*
X0190000Y0104844D02*
X0037625Y0104844D01*
X0036796Y0102500D02*
X0035204Y0102500D01*
X0033734Y0101891D01*
X0032609Y0100766D01*
X0032000Y0099296D01*
X0032000Y0097704D01*
X0032609Y0096234D01*
X0033734Y0095109D01*
X0035204Y0094500D01*
X0036796Y0094500D01*
X0038266Y0095109D01*
X0039391Y0096234D01*
X0040000Y0097704D01*
X0040000Y0099296D01*
X0039391Y0100766D01*
X0038266Y0101891D01*
X0036796Y0102500D01*
X0036921Y0102448D02*
X0190000Y0102448D01*
X0190000Y0101650D02*
X0038507Y0101650D01*
X0039306Y0100851D02*
X0190000Y0100851D01*
X0190000Y0100053D02*
X0039686Y0100053D01*
X0040000Y0099254D02*
X0190000Y0099254D01*
X0190000Y0098720D02*
X0189443Y0097374D01*
X0189443Y0094311D01*
X0190000Y0092965D01*
X0190000Y0022439D01*
X0028430Y0022439D01*
X0017439Y0033430D01*
X0017439Y0323609D01*
X0028430Y0334600D01*
X0239100Y0334600D01*
X0239100Y0206900D01*
X0190000Y0206900D01*
X0190000Y0182920D01*
X0189570Y0183350D01*
X0188551Y0183772D01*
X0187449Y0183772D01*
X0186430Y0183350D01*
X0185650Y0182570D01*
X0185228Y0181551D01*
X0185228Y0180449D01*
X0185650Y0179430D01*
X0186430Y0178650D01*
X0186793Y0178500D01*
X0186430Y0178350D01*
X0185650Y0177570D01*
X0185228Y0176551D01*
X0185228Y0175449D01*
X0185650Y0174430D01*
X0186430Y0173650D01*
X0187449Y0173228D01*
X0188551Y0173228D01*
X0189570Y0173650D01*
X0190000Y0174080D01*
X0190000Y0098720D01*
X0189891Y0098456D02*
X0040000Y0098456D01*
X0039980Y0097657D02*
X0189560Y0097657D01*
X0189443Y0096859D02*
X0039650Y0096859D01*
X0039217Y0096060D02*
X0189443Y0096060D01*
X0189443Y0095262D02*
X0038418Y0095262D01*
X0036796Y0092500D02*
X0035204Y0092500D01*
X0033734Y0091891D01*
X0032609Y0090766D01*
X0032000Y0089296D01*
X0032000Y0087704D01*
X0032609Y0086234D01*
X0033734Y0085109D01*
X0035204Y0084500D01*
X0036796Y0084500D01*
X0038266Y0085109D01*
X0039391Y0086234D01*
X0040000Y0087704D01*
X0040000Y0089296D01*
X0039391Y0090766D01*
X0038266Y0091891D01*
X0036796Y0092500D01*
X0037840Y0092068D02*
X0190000Y0092068D01*
X0190000Y0092866D02*
X0017439Y0092866D01*
X0017439Y0092068D02*
X0024160Y0092068D01*
X0023734Y0091891D02*
X0022609Y0090766D01*
X0022000Y0089296D01*
X0022000Y0087704D01*
X0022609Y0086234D01*
X0023734Y0085109D01*
X0025204Y0084500D01*
X0026796Y0084500D01*
X0028266Y0085109D01*
X0029391Y0086234D01*
X0030000Y0087704D01*
X0030000Y0089296D01*
X0029391Y0090766D01*
X0028266Y0091891D01*
X0026796Y0092500D01*
X0025204Y0092500D01*
X0023734Y0091891D01*
X0023112Y0091269D02*
X0017439Y0091269D01*
X0017439Y0090470D02*
X0022487Y0090470D01*
X0022156Y0089672D02*
X0017439Y0089672D01*
X0017439Y0088873D02*
X0022000Y0088873D01*
X0022000Y0088075D02*
X0017439Y0088075D01*
X0017439Y0087276D02*
X0022177Y0087276D01*
X0022508Y0086478D02*
X0017439Y0086478D01*
X0017439Y0085679D02*
X0023164Y0085679D01*
X0024285Y0084881D02*
X0017439Y0084881D01*
X0017439Y0084082D02*
X0190000Y0084082D01*
X0190000Y0083284D02*
X0017439Y0083284D01*
X0017439Y0082485D02*
X0025169Y0082485D01*
X0025204Y0082500D02*
X0023734Y0081891D01*
X0022609Y0080766D01*
X0022000Y0079296D01*
X0022000Y0077704D01*
X0022609Y0076234D01*
X0023734Y0075109D01*
X0025204Y0074500D01*
X0026796Y0074500D01*
X0035204Y0074500D01*
X0036796Y0074500D01*
X0190000Y0074500D01*
X0190000Y0073702D02*
X0017439Y0073702D01*
X0017439Y0074500D02*
X0025204Y0074500D01*
X0026796Y0074500D02*
X0028266Y0075109D01*
X0029391Y0076234D01*
X0030000Y0077704D01*
X0030000Y0079296D01*
X0029391Y0080766D01*
X0028266Y0081891D01*
X0026796Y0082500D01*
X0025204Y0082500D01*
X0026831Y0082485D02*
X0035169Y0082485D01*
X0035204Y0082500D02*
X0033734Y0081891D01*
X0032609Y0080766D01*
X0032000Y0079296D01*
X0032000Y0077704D01*
X0032609Y0076234D01*
X0033734Y0075109D01*
X0035204Y0074500D01*
X0036796Y0074500D02*
X0038266Y0075109D01*
X0039391Y0076234D01*
X0040000Y0077704D01*
X0040000Y0079296D01*
X0039391Y0080766D01*
X0038266Y0081891D01*
X0036796Y0082500D01*
X0035204Y0082500D01*
X0036831Y0082485D02*
X0190000Y0082485D01*
X0190000Y0081687D02*
X0038470Y0081687D01*
X0039268Y0080888D02*
X0190000Y0080888D01*
X0190000Y0080090D02*
X0039671Y0080090D01*
X0040000Y0079291D02*
X0190000Y0079291D01*
X0190000Y0078493D02*
X0040000Y0078493D01*
X0039996Y0077694D02*
X0190000Y0077694D01*
X0190000Y0076896D02*
X0039665Y0076896D01*
X0039254Y0076097D02*
X0190000Y0076097D01*
X0190000Y0075299D02*
X0038456Y0075299D01*
X0033544Y0075299D02*
X0028456Y0075299D01*
X0029254Y0076097D02*
X0032746Y0076097D01*
X0032335Y0076896D02*
X0029665Y0076896D01*
X0029996Y0077694D02*
X0032004Y0077694D01*
X0032000Y0078493D02*
X0030000Y0078493D01*
X0030000Y0079291D02*
X0032000Y0079291D01*
X0032329Y0080090D02*
X0029671Y0080090D01*
X0029268Y0080888D02*
X0032731Y0080888D01*
X0033530Y0081687D02*
X0028470Y0081687D01*
X0027715Y0084881D02*
X0034285Y0084881D01*
X0033164Y0085679D02*
X0028836Y0085679D01*
X0029492Y0086478D02*
X0032508Y0086478D01*
X0032177Y0087276D02*
X0029823Y0087276D01*
X0030000Y0088075D02*
X0032000Y0088075D01*
X0032000Y0088873D02*
X0030000Y0088873D01*
X0029844Y0089672D02*
X0032156Y0089672D01*
X0032487Y0090470D02*
X0029513Y0090470D01*
X0028888Y0091269D02*
X0033112Y0091269D01*
X0034160Y0092068D02*
X0027840Y0092068D01*
X0026796Y0094500D02*
X0028266Y0095109D01*
X0029391Y0096234D01*
X0030000Y0097704D01*
X0030000Y0099296D01*
X0029391Y0100766D01*
X0028266Y0101891D01*
X0026796Y0102500D01*
X0025204Y0102500D01*
X0023734Y0101891D01*
X0022609Y0100766D01*
X0022000Y0099296D01*
X0022000Y0097704D01*
X0022609Y0096234D01*
X0023734Y0095109D01*
X0025204Y0094500D01*
X0026796Y0094500D01*
X0028418Y0095262D02*
X0033582Y0095262D01*
X0032783Y0096060D02*
X0029217Y0096060D01*
X0029650Y0096859D02*
X0032350Y0096859D01*
X0032020Y0097657D02*
X0029980Y0097657D01*
X0030000Y0098456D02*
X0032000Y0098456D01*
X0032000Y0099254D02*
X0030000Y0099254D01*
X0029686Y0100053D02*
X0032314Y0100053D01*
X0032694Y0100851D02*
X0029306Y0100851D01*
X0028507Y0101650D02*
X0033493Y0101650D01*
X0035079Y0102448D02*
X0026921Y0102448D01*
X0025079Y0102448D02*
X0017439Y0102448D01*
X0017439Y0101650D02*
X0023493Y0101650D01*
X0022694Y0100851D02*
X0017439Y0100851D01*
X0017439Y0100053D02*
X0022314Y0100053D01*
X0022000Y0099254D02*
X0017439Y0099254D01*
X0017439Y0098456D02*
X0022000Y0098456D01*
X0022020Y0097657D02*
X0017439Y0097657D01*
X0017439Y0096859D02*
X0022350Y0096859D01*
X0022783Y0096060D02*
X0017439Y0096060D01*
X0017439Y0095262D02*
X0023582Y0095262D01*
X0017439Y0094463D02*
X0189443Y0094463D01*
X0189710Y0093665D02*
X0017439Y0093665D01*
X0017439Y0103247D02*
X0190000Y0103247D01*
X0190000Y0104045D02*
X0017439Y0104045D01*
X0017439Y0104844D02*
X0024375Y0104844D01*
X0023734Y0105109D02*
X0025204Y0104500D01*
X0026796Y0104500D01*
X0028266Y0105109D01*
X0029391Y0106234D01*
X0030000Y0107704D01*
X0030000Y0109296D01*
X0029391Y0110766D01*
X0028266Y0111891D01*
X0026796Y0112500D01*
X0025204Y0112500D01*
X0023734Y0111891D01*
X0022609Y0110766D01*
X0022000Y0109296D01*
X0022000Y0107704D01*
X0022609Y0106234D01*
X0023734Y0105109D01*
X0023201Y0105642D02*
X0017439Y0105642D01*
X0017439Y0106441D02*
X0022523Y0106441D01*
X0022193Y0107239D02*
X0017439Y0107239D01*
X0017439Y0108038D02*
X0022000Y0108038D01*
X0022000Y0108836D02*
X0017439Y0108836D01*
X0017439Y0109635D02*
X0022140Y0109635D01*
X0022471Y0110433D02*
X0017439Y0110433D01*
X0017439Y0111232D02*
X0023075Y0111232D01*
X0024070Y0112030D02*
X0017439Y0112030D01*
X0017439Y0112829D02*
X0190000Y0112829D01*
X0190000Y0113627D02*
X0017439Y0113627D01*
X0017439Y0124008D02*
X0190000Y0124008D01*
X0190000Y0124806D02*
X0037536Y0124806D01*
X0038762Y0125605D02*
X0190000Y0125605D01*
X0190000Y0126403D02*
X0039461Y0126403D01*
X0039792Y0127202D02*
X0190000Y0127202D01*
X0190000Y0128001D02*
X0160920Y0128001D01*
X0160570Y0127650D02*
X0161350Y0128430D01*
X0161772Y0129449D01*
X0161772Y0130551D01*
X0161350Y0131570D01*
X0160570Y0132350D01*
X0159551Y0132772D01*
X0158449Y0132772D01*
X0157430Y0132350D01*
X0156650Y0131570D01*
X0156228Y0130551D01*
X0156228Y0129449D01*
X0156650Y0128430D01*
X0157430Y0127650D01*
X0158449Y0127228D01*
X0159551Y0127228D01*
X0160570Y0127650D01*
X0161503Y0128799D02*
X0190000Y0128799D01*
X0190000Y0129598D02*
X0161772Y0129598D01*
X0161772Y0130396D02*
X0190000Y0130396D01*
X0190000Y0131195D02*
X0161505Y0131195D01*
X0160927Y0131993D02*
X0190000Y0131993D01*
X0190000Y0132792D02*
X0017439Y0132792D01*
X0017439Y0133590D02*
X0190000Y0133590D01*
X0190000Y0134389D02*
X0017439Y0134389D01*
X0017439Y0135187D02*
X0023656Y0135187D01*
X0022858Y0135986D02*
X0017439Y0135986D01*
X0017439Y0136784D02*
X0022381Y0136784D01*
X0022050Y0137583D02*
X0017439Y0137583D01*
X0017439Y0138381D02*
X0022000Y0138381D01*
X0022000Y0139180D02*
X0017439Y0139180D01*
X0017439Y0139978D02*
X0022283Y0139978D01*
X0022620Y0140777D02*
X0017439Y0140777D01*
X0017439Y0141575D02*
X0023418Y0141575D01*
X0024554Y0144769D02*
X0017439Y0144769D01*
X0017439Y0143971D02*
X0190000Y0143971D01*
X0190000Y0141575D02*
X0038582Y0141575D01*
X0039380Y0140777D02*
X0190000Y0140777D01*
X0190000Y0139978D02*
X0039717Y0139978D01*
X0040000Y0139180D02*
X0190000Y0139180D01*
X0190000Y0138381D02*
X0040000Y0138381D01*
X0039950Y0137583D02*
X0190000Y0137583D01*
X0190000Y0136784D02*
X0039619Y0136784D01*
X0039142Y0135986D02*
X0190000Y0135986D01*
X0190000Y0135187D02*
X0038344Y0135187D01*
X0038019Y0131993D02*
X0157073Y0131993D01*
X0156495Y0131195D02*
X0038962Y0131195D01*
X0039544Y0130396D02*
X0156228Y0130396D01*
X0156228Y0129598D02*
X0039875Y0129598D01*
X0040000Y0128799D02*
X0156497Y0128799D01*
X0157080Y0128001D02*
X0040000Y0128001D01*
X0038544Y0121612D02*
X0190000Y0121612D01*
X0190000Y0120814D02*
X0039343Y0120814D01*
X0033456Y0121612D02*
X0028544Y0121612D01*
X0029343Y0120814D02*
X0032657Y0120814D01*
X0032298Y0120015D02*
X0029702Y0120015D01*
X0030000Y0119217D02*
X0032000Y0119217D01*
X0032000Y0118418D02*
X0030000Y0118418D01*
X0029965Y0117620D02*
X0032035Y0117620D01*
X0032366Y0116821D02*
X0029634Y0116821D01*
X0029180Y0116023D02*
X0032820Y0116023D01*
X0033619Y0115224D02*
X0028381Y0115224D01*
X0027930Y0112030D02*
X0034070Y0112030D01*
X0033075Y0111232D02*
X0028925Y0111232D01*
X0029529Y0110433D02*
X0032471Y0110433D01*
X0032140Y0109635D02*
X0029860Y0109635D01*
X0030000Y0108836D02*
X0032000Y0108836D01*
X0032000Y0108038D02*
X0030000Y0108038D01*
X0029807Y0107239D02*
X0032193Y0107239D01*
X0032523Y0106441D02*
X0029477Y0106441D01*
X0028799Y0105642D02*
X0033201Y0105642D01*
X0034375Y0104844D02*
X0027625Y0104844D01*
X0038888Y0091269D02*
X0190000Y0091269D01*
X0190000Y0090470D02*
X0039513Y0090470D01*
X0039844Y0089672D02*
X0190000Y0089672D01*
X0190000Y0088873D02*
X0040000Y0088873D01*
X0040000Y0088075D02*
X0190000Y0088075D01*
X0190000Y0087276D02*
X0039823Y0087276D01*
X0039492Y0086478D02*
X0190000Y0086478D01*
X0190000Y0085679D02*
X0038836Y0085679D01*
X0037715Y0084881D02*
X0190000Y0084881D01*
X0191600Y0084881D02*
X0329600Y0084881D01*
X0329600Y0085679D02*
X0191600Y0085679D01*
X0191600Y0086478D02*
X0329600Y0086478D01*
X0329600Y0087276D02*
X0191600Y0087276D01*
X0191600Y0088075D02*
X0329600Y0088075D01*
X0329600Y0088873D02*
X0200436Y0088873D01*
X0201503Y0089315D02*
X0198673Y0088143D01*
X0195610Y0088143D01*
X0192780Y0089315D01*
X0191600Y0090496D01*
X0191600Y0022439D01*
X0318609Y0022439D01*
X0329600Y0033430D01*
X0329600Y0323609D01*
X0318609Y0334600D01*
X0240700Y0334600D01*
X0240700Y0205300D01*
X0191600Y0205300D01*
X0191600Y0183420D01*
X0192449Y0183772D01*
X0193551Y0183772D01*
X0194570Y0183350D01*
X0195350Y0182570D01*
X0195772Y0181551D01*
X0195772Y0180449D01*
X0195350Y0179430D01*
X0194570Y0178650D01*
X0194207Y0178500D01*
X0194570Y0178350D01*
X0195350Y0177570D01*
X0195772Y0176551D01*
X0195772Y0175449D01*
X0195350Y0174430D01*
X0194570Y0173650D01*
X0193551Y0173228D01*
X0192449Y0173228D01*
X0191600Y0173580D01*
X0191600Y0101189D01*
X0192780Y0102370D01*
X0195610Y0103542D01*
X0198673Y0103542D01*
X0201503Y0102370D01*
X0203669Y0100204D01*
X0204841Y0097374D01*
X0204841Y0094311D01*
X0203669Y0091481D01*
X0201503Y0089315D01*
X0201860Y0089672D02*
X0329600Y0089672D01*
X0329600Y0090470D02*
X0202658Y0090470D01*
X0203457Y0091269D02*
X0329600Y0091269D01*
X0329600Y0092068D02*
X0203912Y0092068D01*
X0204242Y0092866D02*
X0329600Y0092866D01*
X0329600Y0093665D02*
X0204573Y0093665D01*
X0204841Y0094463D02*
X0329600Y0094463D01*
X0329600Y0095262D02*
X0204841Y0095262D01*
X0204841Y0096060D02*
X0329600Y0096060D01*
X0329600Y0096859D02*
X0204841Y0096859D01*
X0204724Y0097657D02*
X0329600Y0097657D01*
X0329600Y0098456D02*
X0204393Y0098456D01*
X0204062Y0099254D02*
X0329600Y0099254D01*
X0329600Y0100053D02*
X0203731Y0100053D01*
X0203021Y0100851D02*
X0329600Y0100851D01*
X0329600Y0101650D02*
X0202223Y0101650D01*
X0201313Y0102448D02*
X0329600Y0102448D01*
X0329600Y0103247D02*
X0199386Y0103247D01*
X0194898Y0103247D02*
X0191600Y0103247D01*
X0191600Y0104045D02*
X0329600Y0104045D01*
X0329600Y0104844D02*
X0191600Y0104844D01*
X0191600Y0105642D02*
X0329600Y0105642D01*
X0329600Y0106441D02*
X0191600Y0106441D01*
X0191600Y0107239D02*
X0329600Y0107239D01*
X0329600Y0108038D02*
X0191600Y0108038D01*
X0191600Y0108836D02*
X0329600Y0108836D01*
X0329600Y0109635D02*
X0191600Y0109635D01*
X0191600Y0110433D02*
X0329600Y0110433D01*
X0329600Y0111232D02*
X0191600Y0111232D01*
X0191600Y0112030D02*
X0329600Y0112030D01*
X0329600Y0112829D02*
X0191600Y0112829D01*
X0191600Y0113627D02*
X0329600Y0113627D01*
X0329600Y0114426D02*
X0191600Y0114426D01*
X0191600Y0115224D02*
X0199347Y0115224D01*
X0199572Y0115000D02*
X0201228Y0115000D01*
X0202400Y0116172D01*
X0202400Y0117828D01*
X0201228Y0119000D01*
X0199572Y0119000D01*
X0198400Y0117828D01*
X0198400Y0116172D01*
X0199572Y0115000D01*
X0198549Y0116023D02*
X0191600Y0116023D01*
X0191600Y0116821D02*
X0198400Y0116821D01*
X0198400Y0117620D02*
X0191600Y0117620D01*
X0191600Y0118418D02*
X0198990Y0118418D01*
X0201810Y0118418D02*
X0329600Y0118418D01*
X0329600Y0117620D02*
X0202400Y0117620D01*
X0202400Y0116821D02*
X0329600Y0116821D01*
X0329600Y0116023D02*
X0202251Y0116023D01*
X0201453Y0115224D02*
X0329600Y0115224D01*
X0329600Y0119217D02*
X0191600Y0119217D01*
X0191600Y0120015D02*
X0329600Y0120015D01*
X0329600Y0120814D02*
X0191600Y0120814D01*
X0191600Y0121612D02*
X0329600Y0121612D01*
X0329600Y0122411D02*
X0191600Y0122411D01*
X0191600Y0123209D02*
X0200553Y0123209D01*
X0200749Y0123128D02*
X0201851Y0123128D01*
X0202870Y0123550D01*
X0203650Y0124330D01*
X0204072Y0125349D01*
X0204072Y0126451D01*
X0203650Y0127470D01*
X0202870Y0128250D01*
X0201851Y0128672D01*
X0200749Y0128672D01*
X0199730Y0128250D01*
X0198950Y0127470D01*
X0198528Y0126451D01*
X0198528Y0125349D01*
X0198950Y0124330D01*
X0199730Y0123550D01*
X0200749Y0123128D01*
X0202047Y0123209D02*
X0329600Y0123209D01*
X0329600Y0124008D02*
X0203328Y0124008D01*
X0203847Y0124806D02*
X0329600Y0124806D01*
X0329600Y0125605D02*
X0204072Y0125605D01*
X0204072Y0126403D02*
X0329600Y0126403D01*
X0329600Y0127202D02*
X0203761Y0127202D01*
X0203119Y0128001D02*
X0220080Y0128001D01*
X0220430Y0127650D02*
X0221449Y0127228D01*
X0222551Y0127228D01*
X0223570Y0127650D01*
X0224350Y0128430D01*
X0224772Y0129449D01*
X0224772Y0130551D01*
X0224350Y0131570D01*
X0223570Y0132350D01*
X0222551Y0132772D01*
X0221449Y0132772D01*
X0220430Y0132350D01*
X0219650Y0131570D01*
X0219228Y0130551D01*
X0219228Y0129449D01*
X0219650Y0128430D01*
X0220430Y0127650D01*
X0219497Y0128799D02*
X0191600Y0128799D01*
X0191600Y0128001D02*
X0199481Y0128001D01*
X0198839Y0127202D02*
X0191600Y0127202D01*
X0191600Y0126403D02*
X0198528Y0126403D01*
X0198528Y0125605D02*
X0191600Y0125605D01*
X0191600Y0124806D02*
X0198753Y0124806D01*
X0199272Y0124008D02*
X0191600Y0124008D01*
X0191600Y0129598D02*
X0219228Y0129598D01*
X0219228Y0130396D02*
X0191600Y0130396D01*
X0191600Y0131195D02*
X0219495Y0131195D01*
X0220073Y0131993D02*
X0191600Y0131993D01*
X0191600Y0132792D02*
X0329600Y0132792D01*
X0329600Y0133590D02*
X0191600Y0133590D01*
X0191600Y0134389D02*
X0329600Y0134389D01*
X0329600Y0135187D02*
X0191600Y0135187D01*
X0191600Y0135986D02*
X0329600Y0135986D01*
X0329600Y0136784D02*
X0191600Y0136784D01*
X0191600Y0137583D02*
X0329600Y0137583D01*
X0329600Y0138381D02*
X0191600Y0138381D01*
X0190000Y0156747D02*
X0156375Y0156747D01*
X0157174Y0157545D02*
X0190000Y0157545D01*
X0190000Y0158344D02*
X0157500Y0158344D01*
X0157500Y0159142D02*
X0190000Y0159142D01*
X0190000Y0161538D02*
X0182466Y0161538D01*
X0181928Y0161000D02*
X0183100Y0162172D01*
X0183100Y0163828D01*
X0181928Y0165000D01*
X0180272Y0165000D01*
X0179100Y0163828D01*
X0179100Y0162172D01*
X0180272Y0161000D01*
X0181928Y0161000D01*
X0183100Y0162337D02*
X0190000Y0162337D01*
X0190000Y0163135D02*
X0183100Y0163135D01*
X0182995Y0163934D02*
X0183738Y0163934D01*
X0183300Y0164372D02*
X0184472Y0163200D01*
X0186128Y0163200D01*
X0187300Y0164372D01*
X0187300Y0166028D01*
X0186128Y0167200D01*
X0184472Y0167200D01*
X0183300Y0166028D01*
X0183300Y0164372D01*
X0183300Y0164732D02*
X0182196Y0164732D01*
X0183300Y0165531D02*
X0129059Y0165531D01*
X0129400Y0166329D02*
X0183601Y0166329D01*
X0184399Y0167128D02*
X0163115Y0167128D01*
X0163946Y0167926D02*
X0190000Y0167926D01*
X0190000Y0167128D02*
X0186201Y0167128D01*
X0186999Y0166329D02*
X0190000Y0166329D01*
X0190000Y0165531D02*
X0187300Y0165531D01*
X0187300Y0164732D02*
X0190000Y0164732D01*
X0190000Y0163934D02*
X0186862Y0163934D01*
X0191600Y0163934D02*
X0297000Y0163934D01*
X0297181Y0164732D02*
X0191600Y0164732D01*
X0191600Y0165531D02*
X0297512Y0165531D01*
X0298172Y0166329D02*
X0191600Y0166329D01*
X0191600Y0167128D02*
X0299305Y0167128D01*
X0300204Y0169500D02*
X0298734Y0170109D01*
X0297609Y0171234D01*
X0297000Y0172704D01*
X0297000Y0174296D01*
X0297609Y0175766D01*
X0298734Y0176891D01*
X0300204Y0177500D01*
X0301796Y0177500D01*
X0303266Y0176891D01*
X0304391Y0175766D01*
X0305000Y0174296D01*
X0305000Y0172704D01*
X0304391Y0171234D01*
X0303266Y0170109D01*
X0301796Y0169500D01*
X0300204Y0169500D01*
X0300149Y0169523D02*
X0199800Y0169523D01*
X0199800Y0168972D02*
X0198628Y0167800D01*
X0196972Y0167800D01*
X0195800Y0168972D01*
X0195800Y0170628D01*
X0196972Y0171800D01*
X0198628Y0171800D01*
X0199800Y0170628D01*
X0199800Y0168972D01*
X0199553Y0168725D02*
X0329600Y0168725D01*
X0329600Y0169523D02*
X0321851Y0169523D01*
X0321796Y0169500D02*
X0323266Y0170109D01*
X0324391Y0171234D01*
X0325000Y0172704D01*
X0325000Y0174296D01*
X0324391Y0175766D01*
X0323266Y0176891D01*
X0321796Y0177500D01*
X0320204Y0177500D01*
X0318734Y0176891D01*
X0317609Y0175766D01*
X0317000Y0174296D01*
X0317000Y0172704D01*
X0317609Y0171234D01*
X0318734Y0170109D01*
X0320204Y0169500D01*
X0321796Y0169500D01*
X0320149Y0169523D02*
X0311851Y0169523D01*
X0311796Y0169500D02*
X0313266Y0170109D01*
X0314391Y0171234D01*
X0315000Y0172704D01*
X0315000Y0174296D01*
X0314391Y0175766D01*
X0313266Y0176891D01*
X0311796Y0177500D01*
X0310204Y0177500D01*
X0308734Y0176891D01*
X0307609Y0175766D01*
X0307000Y0174296D01*
X0307000Y0172704D01*
X0307609Y0171234D01*
X0308734Y0170109D01*
X0310204Y0169500D01*
X0311796Y0169500D01*
X0310149Y0169523D02*
X0301851Y0169523D01*
X0303478Y0170322D02*
X0308522Y0170322D01*
X0307723Y0171120D02*
X0304277Y0171120D01*
X0304675Y0171919D02*
X0307325Y0171919D01*
X0307000Y0172717D02*
X0305000Y0172717D01*
X0305000Y0173516D02*
X0307000Y0173516D01*
X0307008Y0174314D02*
X0304992Y0174314D01*
X0304662Y0175113D02*
X0307338Y0175113D01*
X0307754Y0175911D02*
X0304246Y0175911D01*
X0303447Y0176710D02*
X0308553Y0176710D01*
X0310204Y0179500D02*
X0311796Y0179500D01*
X0313266Y0180109D01*
X0314391Y0181234D01*
X0315000Y0182704D01*
X0315000Y0184296D01*
X0314391Y0185766D01*
X0313266Y0186891D01*
X0311796Y0187500D01*
X0310204Y0187500D01*
X0308734Y0186891D01*
X0307609Y0185766D01*
X0307000Y0184296D01*
X0307000Y0182704D01*
X0307609Y0181234D01*
X0308734Y0180109D01*
X0310204Y0179500D01*
X0309230Y0179904D02*
X0302770Y0179904D01*
X0303266Y0180109D02*
X0304391Y0181234D01*
X0305000Y0182704D01*
X0305000Y0184296D01*
X0304391Y0185766D01*
X0303266Y0186891D01*
X0301796Y0187500D01*
X0300204Y0187500D01*
X0298734Y0186891D01*
X0297609Y0185766D01*
X0297000Y0184296D01*
X0297000Y0182704D01*
X0297609Y0181234D01*
X0298734Y0180109D01*
X0300204Y0179500D01*
X0301796Y0179500D01*
X0303266Y0180109D01*
X0303859Y0180702D02*
X0308141Y0180702D01*
X0307499Y0181501D02*
X0304501Y0181501D01*
X0304832Y0182299D02*
X0307168Y0182299D01*
X0307000Y0183098D02*
X0305000Y0183098D01*
X0305000Y0183896D02*
X0307000Y0183896D01*
X0307165Y0184695D02*
X0304835Y0184695D01*
X0304504Y0185493D02*
X0307496Y0185493D01*
X0308135Y0186292D02*
X0303865Y0186292D01*
X0302785Y0187090D02*
X0309215Y0187090D01*
X0310204Y0189500D02*
X0311796Y0189500D01*
X0313266Y0190109D01*
X0314391Y0191234D01*
X0315000Y0192704D01*
X0315000Y0194296D01*
X0314391Y0195766D01*
X0313266Y0196891D01*
X0311796Y0197500D01*
X0310204Y0197500D01*
X0308734Y0196891D01*
X0307609Y0195766D01*
X0307000Y0194296D01*
X0307000Y0192704D01*
X0307609Y0191234D01*
X0308734Y0190109D01*
X0310204Y0189500D01*
X0308559Y0190284D02*
X0303441Y0190284D01*
X0303266Y0190109D02*
X0304391Y0191234D01*
X0305000Y0192704D01*
X0305000Y0194296D01*
X0304391Y0195766D01*
X0303266Y0196891D01*
X0301796Y0197500D01*
X0300204Y0197500D01*
X0298734Y0196891D01*
X0297609Y0195766D01*
X0297000Y0194296D01*
X0297000Y0192704D01*
X0297609Y0191234D01*
X0298734Y0190109D01*
X0300204Y0189500D01*
X0301796Y0189500D01*
X0303266Y0190109D01*
X0304240Y0191083D02*
X0307760Y0191083D01*
X0307341Y0191881D02*
X0304659Y0191881D01*
X0304990Y0192680D02*
X0307010Y0192680D01*
X0307000Y0193478D02*
X0305000Y0193478D01*
X0305000Y0194277D02*
X0307000Y0194277D01*
X0307323Y0195075D02*
X0304677Y0195075D01*
X0304283Y0195874D02*
X0307717Y0195874D01*
X0308516Y0196672D02*
X0303484Y0196672D01*
X0301866Y0197471D02*
X0310134Y0197471D01*
X0311866Y0197471D02*
X0320134Y0197471D01*
X0320204Y0197500D02*
X0318734Y0196891D01*
X0317609Y0195766D01*
X0317000Y0194296D01*
X0317000Y0192704D01*
X0317609Y0191234D01*
X0318734Y0190109D01*
X0320204Y0189500D01*
X0321796Y0189500D01*
X0323266Y0190109D01*
X0324391Y0191234D01*
X0325000Y0192704D01*
X0325000Y0194296D01*
X0324391Y0195766D01*
X0323266Y0196891D01*
X0321796Y0197500D01*
X0320204Y0197500D01*
X0321866Y0197471D02*
X0329600Y0197471D01*
X0329600Y0198270D02*
X0285559Y0198270D01*
X0286000Y0197828D02*
X0284828Y0199000D01*
X0283172Y0199000D01*
X0282000Y0197828D01*
X0282000Y0196172D01*
X0283172Y0195000D01*
X0284828Y0195000D01*
X0286000Y0196172D01*
X0286000Y0197828D01*
X0286000Y0197471D02*
X0300134Y0197471D01*
X0298516Y0196672D02*
X0286000Y0196672D01*
X0285702Y0195874D02*
X0297717Y0195874D01*
X0297323Y0195075D02*
X0284904Y0195075D01*
X0283096Y0195075D02*
X0272904Y0195075D01*
X0272828Y0195000D02*
X0274000Y0196172D01*
X0274000Y0197828D01*
X0272828Y0199000D01*
X0271172Y0199000D01*
X0270000Y0197828D01*
X0270000Y0196172D01*
X0271172Y0195000D01*
X0272828Y0195000D01*
X0273702Y0195874D02*
X0282298Y0195874D01*
X0282000Y0196672D02*
X0274000Y0196672D01*
X0274000Y0197471D02*
X0282000Y0197471D01*
X0282441Y0198270D02*
X0273559Y0198270D01*
X0270441Y0198270D02*
X0191600Y0198270D01*
X0191600Y0199068D02*
X0329600Y0199068D01*
X0329600Y0199867D02*
X0322681Y0199867D01*
X0323266Y0200109D02*
X0324391Y0201234D01*
X0325000Y0202704D01*
X0325000Y0204296D01*
X0324391Y0205766D01*
X0323266Y0206891D01*
X0321796Y0207500D01*
X0320204Y0207500D01*
X0318734Y0206891D01*
X0317609Y0205766D01*
X0317000Y0204296D01*
X0317000Y0202704D01*
X0317609Y0201234D01*
X0318734Y0200109D01*
X0320204Y0199500D01*
X0321796Y0199500D01*
X0323266Y0200109D01*
X0323822Y0200665D02*
X0329600Y0200665D01*
X0329600Y0201464D02*
X0324486Y0201464D01*
X0324817Y0202262D02*
X0329600Y0202262D01*
X0329600Y0203061D02*
X0325000Y0203061D01*
X0325000Y0203859D02*
X0329600Y0203859D01*
X0329600Y0204658D02*
X0324850Y0204658D01*
X0324519Y0205456D02*
X0329600Y0205456D01*
X0329600Y0206255D02*
X0323902Y0206255D01*
X0322874Y0207053D02*
X0329600Y0207053D01*
X0329600Y0207852D02*
X0283977Y0207852D01*
X0284000Y0207828D02*
X0282828Y0209000D01*
X0281172Y0209000D01*
X0280000Y0207828D01*
X0280000Y0206172D01*
X0281172Y0205000D01*
X0282828Y0205000D01*
X0284000Y0206172D01*
X0284000Y0207828D01*
X0284000Y0207053D02*
X0299126Y0207053D01*
X0298734Y0206891D02*
X0297609Y0205766D01*
X0297000Y0204296D01*
X0297000Y0202704D01*
X0297609Y0201234D01*
X0298734Y0200109D01*
X0300204Y0199500D01*
X0301796Y0199500D01*
X0303266Y0200109D01*
X0304391Y0201234D01*
X0305000Y0202704D01*
X0305000Y0204296D01*
X0304391Y0205766D01*
X0303266Y0206891D01*
X0301796Y0207500D01*
X0300204Y0207500D01*
X0298734Y0206891D01*
X0298098Y0206255D02*
X0291574Y0206255D01*
X0292000Y0205828D02*
X0290828Y0207000D01*
X0289172Y0207000D01*
X0288000Y0205828D01*
X0288000Y0204172D01*
X0289172Y0203000D01*
X0290828Y0203000D01*
X0292000Y0204172D01*
X0292000Y0205828D01*
X0292000Y0205456D02*
X0297481Y0205456D01*
X0297150Y0204658D02*
X0292000Y0204658D01*
X0291688Y0203859D02*
X0297000Y0203859D01*
X0297000Y0203061D02*
X0290889Y0203061D01*
X0289111Y0203061D02*
X0191600Y0203061D01*
X0191600Y0203859D02*
X0288312Y0203859D01*
X0288000Y0204658D02*
X0191600Y0204658D01*
X0190000Y0204658D02*
X0037176Y0204658D01*
X0036796Y0204500D02*
X0038266Y0205109D01*
X0039391Y0206234D01*
X0040000Y0207704D01*
X0040000Y0209296D01*
X0039391Y0210766D01*
X0038266Y0211891D01*
X0036796Y0212500D01*
X0035204Y0212500D01*
X0033734Y0211891D01*
X0032609Y0210766D01*
X0032000Y0209296D01*
X0032000Y0207704D01*
X0032609Y0206234D01*
X0033734Y0205109D01*
X0035204Y0204500D01*
X0036796Y0204500D01*
X0034824Y0204658D02*
X0027176Y0204658D01*
X0026796Y0204500D02*
X0028266Y0205109D01*
X0029391Y0206234D01*
X0030000Y0207704D01*
X0030000Y0209296D01*
X0029391Y0210766D01*
X0028266Y0211891D01*
X0026796Y0212500D01*
X0025204Y0212500D01*
X0023734Y0211891D01*
X0022609Y0210766D01*
X0022000Y0209296D01*
X0022000Y0207704D01*
X0022609Y0206234D01*
X0023734Y0205109D01*
X0025204Y0204500D01*
X0026796Y0204500D01*
X0024824Y0204658D02*
X0017439Y0204658D01*
X0017439Y0205456D02*
X0023387Y0205456D01*
X0022600Y0206255D02*
X0017439Y0206255D01*
X0017439Y0207053D02*
X0022270Y0207053D01*
X0022000Y0207852D02*
X0017439Y0207852D01*
X0017439Y0208650D02*
X0022000Y0208650D01*
X0022063Y0209449D02*
X0017439Y0209449D01*
X0017439Y0210247D02*
X0022394Y0210247D01*
X0022889Y0211046D02*
X0017439Y0211046D01*
X0017439Y0211844D02*
X0023687Y0211844D01*
X0025204Y0214500D02*
X0026796Y0214500D01*
X0028266Y0215109D01*
X0029391Y0216234D01*
X0030000Y0217704D01*
X0030000Y0219296D01*
X0029391Y0220766D01*
X0028266Y0221891D01*
X0026796Y0222500D01*
X0025204Y0222500D01*
X0023734Y0221891D01*
X0022609Y0220766D01*
X0022000Y0219296D01*
X0022000Y0217704D01*
X0022609Y0216234D01*
X0023734Y0215109D01*
X0025204Y0214500D01*
X0023905Y0215038D02*
X0017439Y0215038D01*
X0017439Y0214240D02*
X0122089Y0214240D01*
X0121630Y0214050D02*
X0122649Y0214472D01*
X0123751Y0214472D01*
X0124770Y0214050D01*
X0125550Y0213270D01*
X0125972Y0212251D01*
X0125972Y0211149D01*
X0125550Y0210130D01*
X0124770Y0209350D01*
X0123751Y0208928D01*
X0122649Y0208928D01*
X0121630Y0209350D01*
X0120850Y0210130D01*
X0120428Y0211149D01*
X0120428Y0212251D01*
X0120850Y0213270D01*
X0121630Y0214050D01*
X0121022Y0213441D02*
X0017439Y0213441D01*
X0017439Y0212643D02*
X0120590Y0212643D01*
X0120428Y0211844D02*
X0038313Y0211844D01*
X0039111Y0211046D02*
X0120471Y0211046D01*
X0120802Y0210247D02*
X0039606Y0210247D01*
X0039937Y0209449D02*
X0121532Y0209449D01*
X0124868Y0209449D02*
X0141132Y0209449D01*
X0141230Y0209350D02*
X0142249Y0208928D01*
X0143351Y0208928D01*
X0144370Y0209350D01*
X0145150Y0210130D01*
X0145572Y0211149D01*
X0145572Y0212251D01*
X0145150Y0213270D01*
X0144370Y0214050D01*
X0143351Y0214472D01*
X0142249Y0214472D01*
X0141230Y0214050D01*
X0140450Y0213270D01*
X0140028Y0212251D01*
X0140028Y0211149D01*
X0140450Y0210130D01*
X0141230Y0209350D01*
X0140402Y0210247D02*
X0125598Y0210247D01*
X0125929Y0211046D02*
X0140071Y0211046D01*
X0140028Y0211844D02*
X0125972Y0211844D01*
X0125810Y0212643D02*
X0140190Y0212643D01*
X0140622Y0213441D02*
X0125378Y0213441D01*
X0124311Y0214240D02*
X0141689Y0214240D01*
X0143911Y0214240D02*
X0216828Y0214240D01*
X0216828Y0213949D02*
X0216828Y0215051D01*
X0217250Y0216070D01*
X0218030Y0216850D01*
X0219049Y0217272D01*
X0220151Y0217272D01*
X0221170Y0216850D01*
X0221950Y0216070D01*
X0222372Y0215051D01*
X0222372Y0213949D01*
X0221950Y0212930D01*
X0221170Y0212150D01*
X0220151Y0211728D01*
X0219049Y0211728D01*
X0218030Y0212150D01*
X0217250Y0212930D01*
X0216828Y0213949D01*
X0217039Y0213441D02*
X0144978Y0213441D01*
X0145410Y0212643D02*
X0217538Y0212643D01*
X0218769Y0211844D02*
X0186342Y0211844D01*
X0186570Y0211750D02*
X0185551Y0212172D01*
X0184449Y0212172D01*
X0183430Y0211750D01*
X0182650Y0210970D01*
X0182228Y0209951D01*
X0182228Y0208849D01*
X0182650Y0207830D01*
X0183430Y0207050D01*
X0184449Y0206628D01*
X0185551Y0206628D01*
X0186570Y0207050D01*
X0187350Y0207830D01*
X0187772Y0208849D01*
X0187772Y0209951D01*
X0187350Y0210970D01*
X0186570Y0211750D01*
X0187274Y0211046D02*
X0239100Y0211046D01*
X0239100Y0211844D02*
X0220431Y0211844D01*
X0221662Y0212643D02*
X0239100Y0212643D01*
X0239100Y0213441D02*
X0222161Y0213441D01*
X0222372Y0214240D02*
X0239100Y0214240D01*
X0239100Y0215038D02*
X0222372Y0215038D01*
X0222046Y0215837D02*
X0239100Y0215837D01*
X0239100Y0216635D02*
X0221384Y0216635D01*
X0217816Y0216635D02*
X0039557Y0216635D01*
X0039391Y0216234D02*
X0040000Y0217704D01*
X0040000Y0219296D01*
X0039391Y0220766D01*
X0038266Y0221891D01*
X0036796Y0222500D01*
X0035204Y0222500D01*
X0033734Y0221891D01*
X0032609Y0220766D01*
X0032000Y0219296D01*
X0032000Y0217704D01*
X0032609Y0216234D01*
X0033734Y0215109D01*
X0035204Y0214500D01*
X0036796Y0214500D01*
X0038266Y0215109D01*
X0039391Y0216234D01*
X0038994Y0215837D02*
X0217154Y0215837D01*
X0216828Y0215038D02*
X0038095Y0215038D01*
X0039888Y0217434D02*
X0235038Y0217434D01*
X0235072Y0217400D02*
X0236728Y0217400D01*
X0237900Y0218572D01*
X0237900Y0220228D01*
X0236728Y0221400D01*
X0235072Y0221400D01*
X0233900Y0220228D01*
X0233900Y0218572D01*
X0235072Y0217400D01*
X0234239Y0218232D02*
X0040000Y0218232D01*
X0040000Y0219031D02*
X0233900Y0219031D01*
X0233900Y0219829D02*
X0039779Y0219829D01*
X0039448Y0220628D02*
X0234299Y0220628D01*
X0237501Y0220628D02*
X0239100Y0220628D01*
X0239100Y0221426D02*
X0038730Y0221426D01*
X0037460Y0222225D02*
X0239100Y0222225D01*
X0239100Y0223023D02*
X0211552Y0223023D01*
X0211128Y0222600D02*
X0212300Y0223772D01*
X0212300Y0225428D01*
X0211128Y0226600D01*
X0209472Y0226600D01*
X0208300Y0225428D01*
X0208300Y0223772D01*
X0209472Y0222600D01*
X0211128Y0222600D01*
X0212300Y0223822D02*
X0239100Y0223822D01*
X0239100Y0224620D02*
X0212300Y0224620D01*
X0212300Y0225419D02*
X0239100Y0225419D01*
X0239100Y0226217D02*
X0211511Y0226217D01*
X0209089Y0226217D02*
X0102000Y0226217D01*
X0102000Y0226172D02*
X0100828Y0225000D01*
X0099172Y0225000D01*
X0098000Y0226172D01*
X0098000Y0227828D01*
X0099172Y0229000D01*
X0100828Y0229000D01*
X0102000Y0227828D01*
X0102000Y0226172D01*
X0102000Y0227016D02*
X0239100Y0227016D01*
X0239100Y0227814D02*
X0237043Y0227814D01*
X0236928Y0227700D02*
X0238100Y0228872D01*
X0238100Y0230528D01*
X0236928Y0231700D01*
X0235272Y0231700D01*
X0234100Y0230528D01*
X0234100Y0228872D01*
X0235272Y0227700D01*
X0236928Y0227700D01*
X0237841Y0228613D02*
X0239100Y0228613D01*
X0239100Y0229411D02*
X0238100Y0229411D01*
X0238100Y0230210D02*
X0239100Y0230210D01*
X0239100Y0231008D02*
X0237620Y0231008D01*
X0239100Y0231807D02*
X0038350Y0231807D01*
X0038266Y0231891D02*
X0036796Y0232500D01*
X0035204Y0232500D01*
X0033734Y0231891D01*
X0032609Y0230766D01*
X0032000Y0229296D01*
X0032000Y0227704D01*
X0032609Y0226234D01*
X0033734Y0225109D01*
X0035204Y0224500D01*
X0036796Y0224500D01*
X0038266Y0225109D01*
X0039391Y0226234D01*
X0040000Y0227704D01*
X0040000Y0229296D01*
X0039391Y0230766D01*
X0038266Y0231891D01*
X0039148Y0231008D02*
X0234580Y0231008D01*
X0234100Y0230210D02*
X0039621Y0230210D01*
X0039952Y0229411D02*
X0234100Y0229411D01*
X0234359Y0228613D02*
X0101215Y0228613D01*
X0102000Y0227814D02*
X0235157Y0227814D01*
X0240700Y0227814D02*
X0274357Y0227814D01*
X0274000Y0228172D02*
X0275172Y0227000D01*
X0276828Y0227000D01*
X0278000Y0228172D01*
X0278000Y0229828D01*
X0276828Y0231000D01*
X0275172Y0231000D01*
X0274000Y0229828D01*
X0274000Y0228172D01*
X0274000Y0228613D02*
X0240700Y0228613D01*
X0240700Y0229411D02*
X0274000Y0229411D01*
X0274382Y0230210D02*
X0240700Y0230210D01*
X0240700Y0231008D02*
X0243163Y0231008D01*
X0243172Y0231000D02*
X0244828Y0231000D01*
X0246000Y0232172D01*
X0246000Y0233828D01*
X0244828Y0235000D01*
X0243172Y0235000D01*
X0242000Y0233828D01*
X0242000Y0232172D01*
X0243172Y0231000D01*
X0242365Y0231807D02*
X0240700Y0231807D01*
X0240700Y0232605D02*
X0242000Y0232605D01*
X0242000Y0233404D02*
X0240700Y0233404D01*
X0240700Y0234203D02*
X0242374Y0234203D01*
X0240700Y0235001D02*
X0279171Y0235001D01*
X0279172Y0235000D02*
X0280828Y0235000D01*
X0282000Y0236172D01*
X0282000Y0237828D01*
X0280828Y0239000D01*
X0279172Y0239000D01*
X0278000Y0237828D01*
X0278000Y0236172D01*
X0279172Y0235000D01*
X0278372Y0235800D02*
X0240700Y0235800D01*
X0240700Y0236598D02*
X0278000Y0236598D01*
X0278000Y0237397D02*
X0273225Y0237397D01*
X0272828Y0237000D02*
X0274000Y0238172D01*
X0274000Y0239828D01*
X0272828Y0241000D01*
X0271172Y0241000D01*
X0270000Y0239828D01*
X0270000Y0238172D01*
X0271172Y0237000D01*
X0272828Y0237000D01*
X0274000Y0238195D02*
X0278367Y0238195D01*
X0279165Y0238994D02*
X0274000Y0238994D01*
X0274000Y0239792D02*
X0298000Y0239792D01*
X0298000Y0239828D02*
X0298000Y0238172D01*
X0299172Y0237000D01*
X0300828Y0237000D01*
X0302000Y0238172D01*
X0302000Y0239828D01*
X0300828Y0241000D01*
X0299172Y0241000D01*
X0298000Y0239828D01*
X0298000Y0238994D02*
X0280835Y0238994D01*
X0281633Y0238195D02*
X0298000Y0238195D01*
X0298775Y0237397D02*
X0282000Y0237397D01*
X0282000Y0236598D02*
X0329600Y0236598D01*
X0329600Y0235800D02*
X0281628Y0235800D01*
X0280829Y0235001D02*
X0329600Y0235001D01*
X0329600Y0234203D02*
X0273626Y0234203D01*
X0274000Y0233828D02*
X0272828Y0235000D01*
X0271172Y0235000D01*
X0270000Y0233828D01*
X0270000Y0232172D01*
X0271172Y0231000D01*
X0272828Y0231000D01*
X0274000Y0232172D01*
X0274000Y0233828D01*
X0274000Y0233404D02*
X0329600Y0233404D01*
X0329600Y0232605D02*
X0287223Y0232605D01*
X0286828Y0233000D02*
X0285172Y0233000D01*
X0284000Y0231828D01*
X0284000Y0230172D01*
X0285172Y0229000D01*
X0286828Y0229000D01*
X0288000Y0230172D01*
X0288000Y0231828D01*
X0286828Y0233000D01*
X0288000Y0231807D02*
X0329600Y0231807D01*
X0329600Y0231008D02*
X0288000Y0231008D01*
X0288000Y0230210D02*
X0329600Y0230210D01*
X0329600Y0229411D02*
X0287240Y0229411D01*
X0284760Y0229411D02*
X0278000Y0229411D01*
X0278000Y0228613D02*
X0298785Y0228613D01*
X0299172Y0229000D02*
X0298000Y0227828D01*
X0298000Y0226172D01*
X0299172Y0225000D01*
X0300828Y0225000D01*
X0302000Y0226172D01*
X0302000Y0227828D01*
X0300828Y0229000D01*
X0299172Y0229000D01*
X0298000Y0227814D02*
X0277643Y0227814D01*
X0276844Y0227016D02*
X0298000Y0227016D01*
X0298000Y0226217D02*
X0240700Y0226217D01*
X0240700Y0225419D02*
X0298753Y0225419D01*
X0301247Y0225419D02*
X0329600Y0225419D01*
X0329600Y0226217D02*
X0302000Y0226217D01*
X0302000Y0227016D02*
X0329600Y0227016D01*
X0329600Y0227814D02*
X0302000Y0227814D01*
X0301215Y0228613D02*
X0329600Y0228613D01*
X0329600Y0224620D02*
X0289208Y0224620D01*
X0288828Y0225000D02*
X0290000Y0223828D01*
X0290000Y0222172D01*
X0288828Y0221000D01*
X0287172Y0221000D01*
X0286000Y0222172D01*
X0286000Y0223828D01*
X0287172Y0225000D01*
X0288828Y0225000D01*
X0290000Y0223822D02*
X0329600Y0223822D01*
X0329600Y0223023D02*
X0290000Y0223023D01*
X0290000Y0222225D02*
X0329600Y0222225D01*
X0329600Y0221426D02*
X0289255Y0221426D01*
X0286745Y0221426D02*
X0283255Y0221426D01*
X0282828Y0221000D02*
X0284000Y0222172D01*
X0284000Y0223828D01*
X0282828Y0225000D01*
X0281172Y0225000D01*
X0280000Y0223828D01*
X0280000Y0222172D01*
X0281172Y0221000D01*
X0282828Y0221000D01*
X0284000Y0222225D02*
X0286000Y0222225D01*
X0286000Y0223023D02*
X0284000Y0223023D01*
X0284000Y0223822D02*
X0286000Y0223822D01*
X0286792Y0224620D02*
X0283208Y0224620D01*
X0280792Y0224620D02*
X0240700Y0224620D01*
X0240700Y0223822D02*
X0280000Y0223822D01*
X0280000Y0223023D02*
X0240700Y0223023D01*
X0240700Y0222225D02*
X0280000Y0222225D01*
X0280745Y0221426D02*
X0240700Y0221426D01*
X0240700Y0220628D02*
X0329600Y0220628D01*
X0329600Y0219829D02*
X0240700Y0219829D01*
X0240700Y0219031D02*
X0329600Y0219031D01*
X0329600Y0218232D02*
X0283596Y0218232D01*
X0284000Y0217828D02*
X0282828Y0219000D01*
X0281172Y0219000D01*
X0280000Y0217828D01*
X0280000Y0216172D01*
X0281172Y0215000D01*
X0282828Y0215000D01*
X0284000Y0216172D01*
X0284000Y0217828D01*
X0284000Y0217434D02*
X0300045Y0217434D01*
X0300204Y0217500D02*
X0298734Y0216891D01*
X0297609Y0215766D01*
X0297000Y0214296D01*
X0297000Y0212704D01*
X0297609Y0211234D01*
X0298734Y0210109D01*
X0300204Y0209500D01*
X0301796Y0209500D01*
X0303266Y0210109D01*
X0304391Y0211234D01*
X0305000Y0212704D01*
X0305000Y0214296D01*
X0304391Y0215766D01*
X0303266Y0216891D01*
X0301796Y0217500D01*
X0300204Y0217500D01*
X0301955Y0217434D02*
X0310045Y0217434D01*
X0310204Y0217500D02*
X0308734Y0216891D01*
X0307609Y0215766D01*
X0307000Y0214296D01*
X0307000Y0212704D01*
X0307609Y0211234D01*
X0308734Y0210109D01*
X0310204Y0209500D01*
X0311796Y0209500D01*
X0313266Y0210109D01*
X0314391Y0211234D01*
X0315000Y0212704D01*
X0315000Y0214296D01*
X0314391Y0215766D01*
X0313266Y0216891D01*
X0311796Y0217500D01*
X0310204Y0217500D01*
X0311955Y0217434D02*
X0320045Y0217434D01*
X0320204Y0217500D02*
X0318734Y0216891D01*
X0317609Y0215766D01*
X0317000Y0214296D01*
X0317000Y0212704D01*
X0317609Y0211234D01*
X0318734Y0210109D01*
X0320204Y0209500D01*
X0321796Y0209500D01*
X0323266Y0210109D01*
X0324391Y0211234D01*
X0325000Y0212704D01*
X0325000Y0214296D01*
X0324391Y0215766D01*
X0323266Y0216891D01*
X0321796Y0217500D01*
X0320204Y0217500D01*
X0321955Y0217434D02*
X0329600Y0217434D01*
X0329600Y0216635D02*
X0323522Y0216635D01*
X0324320Y0215837D02*
X0329600Y0215837D01*
X0329600Y0215038D02*
X0324692Y0215038D01*
X0325000Y0214240D02*
X0329600Y0214240D01*
X0329600Y0213441D02*
X0325000Y0213441D01*
X0324974Y0212643D02*
X0329600Y0212643D01*
X0329600Y0211844D02*
X0324644Y0211844D01*
X0324203Y0211046D02*
X0329600Y0211046D01*
X0329600Y0210247D02*
X0323404Y0210247D01*
X0318596Y0210247D02*
X0313404Y0210247D01*
X0314203Y0211046D02*
X0317797Y0211046D01*
X0317356Y0211844D02*
X0314644Y0211844D01*
X0314974Y0212643D02*
X0317026Y0212643D01*
X0317000Y0213441D02*
X0315000Y0213441D01*
X0315000Y0214240D02*
X0317000Y0214240D01*
X0317308Y0215038D02*
X0314692Y0215038D01*
X0314320Y0215837D02*
X0317680Y0215837D01*
X0318478Y0216635D02*
X0313522Y0216635D01*
X0308478Y0216635D02*
X0303522Y0216635D01*
X0304320Y0215837D02*
X0307680Y0215837D01*
X0307308Y0215038D02*
X0304692Y0215038D01*
X0305000Y0214240D02*
X0307000Y0214240D01*
X0307000Y0213441D02*
X0305000Y0213441D01*
X0304974Y0212643D02*
X0307026Y0212643D01*
X0307356Y0211844D02*
X0304644Y0211844D01*
X0304203Y0211046D02*
X0307797Y0211046D01*
X0308596Y0210247D02*
X0303404Y0210247D01*
X0302874Y0207053D02*
X0309126Y0207053D01*
X0308734Y0206891D02*
X0307609Y0205766D01*
X0307000Y0204296D01*
X0307000Y0202704D01*
X0307609Y0201234D01*
X0308734Y0200109D01*
X0310204Y0199500D01*
X0311796Y0199500D01*
X0313266Y0200109D01*
X0314391Y0201234D01*
X0315000Y0202704D01*
X0315000Y0204296D01*
X0314391Y0205766D01*
X0313266Y0206891D01*
X0311796Y0207500D01*
X0310204Y0207500D01*
X0308734Y0206891D01*
X0308098Y0206255D02*
X0303902Y0206255D01*
X0304519Y0205456D02*
X0307481Y0205456D01*
X0307150Y0204658D02*
X0304850Y0204658D01*
X0305000Y0203859D02*
X0307000Y0203859D01*
X0307000Y0203061D02*
X0305000Y0203061D01*
X0304817Y0202262D02*
X0307183Y0202262D01*
X0307514Y0201464D02*
X0304486Y0201464D01*
X0303822Y0200665D02*
X0308178Y0200665D01*
X0309319Y0199867D02*
X0302681Y0199867D01*
X0299319Y0199867D02*
X0191600Y0199867D01*
X0191600Y0200665D02*
X0298178Y0200665D01*
X0297514Y0201464D02*
X0191600Y0201464D01*
X0191600Y0202262D02*
X0297183Y0202262D01*
X0297000Y0194277D02*
X0211972Y0194277D01*
X0211972Y0194451D02*
X0211550Y0195470D01*
X0210770Y0196250D01*
X0209751Y0196672D01*
X0208649Y0196672D01*
X0207630Y0196250D01*
X0206850Y0195470D01*
X0206428Y0194451D01*
X0206428Y0193349D01*
X0206850Y0192330D01*
X0207630Y0191550D01*
X0208649Y0191128D01*
X0209751Y0191128D01*
X0210770Y0191550D01*
X0211550Y0192330D01*
X0211972Y0193349D01*
X0211972Y0194451D01*
X0211713Y0195075D02*
X0271096Y0195075D01*
X0270298Y0195874D02*
X0211146Y0195874D01*
X0211972Y0193478D02*
X0297000Y0193478D01*
X0297010Y0192680D02*
X0211695Y0192680D01*
X0211101Y0191881D02*
X0297341Y0191881D01*
X0297760Y0191083D02*
X0191600Y0191083D01*
X0191600Y0191881D02*
X0207299Y0191881D01*
X0206705Y0192680D02*
X0191600Y0192680D01*
X0191600Y0193478D02*
X0206428Y0193478D01*
X0206428Y0194277D02*
X0191600Y0194277D01*
X0191600Y0195075D02*
X0206687Y0195075D01*
X0207254Y0195874D02*
X0191600Y0195874D01*
X0191600Y0196672D02*
X0270000Y0196672D01*
X0270000Y0197471D02*
X0191600Y0197471D01*
X0190000Y0197471D02*
X0157357Y0197471D01*
X0157400Y0197428D02*
X0156228Y0198600D01*
X0154572Y0198600D01*
X0153400Y0197428D01*
X0153400Y0195772D01*
X0154572Y0194600D01*
X0156228Y0194600D01*
X0157400Y0195772D01*
X0157400Y0197428D01*
X0157400Y0196672D02*
X0190000Y0196672D01*
X0190000Y0195874D02*
X0157400Y0195874D01*
X0156704Y0195075D02*
X0190000Y0195075D01*
X0190000Y0194277D02*
X0099205Y0194277D01*
X0099700Y0194772D02*
X0098528Y0193600D01*
X0096872Y0193600D01*
X0095700Y0194772D01*
X0095700Y0196428D01*
X0096872Y0197600D01*
X0098528Y0197600D01*
X0099700Y0196428D01*
X0099700Y0194772D01*
X0099700Y0195075D02*
X0154096Y0195075D01*
X0153400Y0195874D02*
X0099700Y0195874D01*
X0099456Y0196672D02*
X0126399Y0196672D01*
X0126472Y0196600D02*
X0128128Y0196600D01*
X0129300Y0197772D01*
X0129300Y0199428D01*
X0128128Y0200600D01*
X0126472Y0200600D01*
X0125300Y0199428D01*
X0125300Y0197772D01*
X0126472Y0196600D01*
X0125601Y0197471D02*
X0098657Y0197471D01*
X0096743Y0197471D02*
X0039903Y0197471D01*
X0040000Y0197704D02*
X0039391Y0196234D01*
X0038266Y0195109D01*
X0036796Y0194500D01*
X0035204Y0194500D01*
X0033734Y0195109D01*
X0032609Y0196234D01*
X0032000Y0197704D01*
X0032000Y0199296D01*
X0032609Y0200766D01*
X0033734Y0201891D01*
X0035204Y0202500D01*
X0036796Y0202500D01*
X0038266Y0201891D01*
X0039391Y0200766D01*
X0040000Y0199296D01*
X0040000Y0197704D01*
X0040000Y0198270D02*
X0125300Y0198270D01*
X0125300Y0199068D02*
X0040000Y0199068D01*
X0039764Y0199867D02*
X0093005Y0199867D01*
X0093372Y0199500D02*
X0095028Y0199500D01*
X0096200Y0200672D01*
X0096200Y0202328D01*
X0095028Y0203500D01*
X0093372Y0203500D01*
X0092200Y0202328D01*
X0092200Y0200672D01*
X0093372Y0199500D01*
X0092207Y0200665D02*
X0039433Y0200665D01*
X0038693Y0201464D02*
X0092200Y0201464D01*
X0092200Y0202262D02*
X0037370Y0202262D01*
X0034630Y0202262D02*
X0027370Y0202262D01*
X0026796Y0202500D02*
X0025204Y0202500D01*
X0023734Y0201891D01*
X0022609Y0200766D01*
X0022000Y0199296D01*
X0022000Y0197704D01*
X0022609Y0196234D01*
X0023734Y0195109D01*
X0025204Y0194500D01*
X0026796Y0194500D01*
X0028266Y0195109D01*
X0029391Y0196234D01*
X0030000Y0197704D01*
X0030000Y0199296D01*
X0029391Y0200766D01*
X0028266Y0201891D01*
X0026796Y0202500D01*
X0028693Y0201464D02*
X0033307Y0201464D01*
X0032567Y0200665D02*
X0029433Y0200665D01*
X0029764Y0199867D02*
X0032236Y0199867D01*
X0032000Y0199068D02*
X0030000Y0199068D01*
X0030000Y0198270D02*
X0032000Y0198270D01*
X0032097Y0197471D02*
X0029903Y0197471D01*
X0029573Y0196672D02*
X0032427Y0196672D01*
X0032969Y0195874D02*
X0029031Y0195874D01*
X0028185Y0195075D02*
X0033815Y0195075D01*
X0035204Y0192500D02*
X0033734Y0191891D01*
X0032609Y0190766D01*
X0032000Y0189296D01*
X0032000Y0187704D01*
X0032609Y0186234D01*
X0033734Y0185109D01*
X0035204Y0184500D01*
X0036796Y0184500D01*
X0038266Y0185109D01*
X0039391Y0186234D01*
X0040000Y0187704D01*
X0040000Y0189296D01*
X0039391Y0190766D01*
X0038266Y0191891D01*
X0036796Y0192500D01*
X0035204Y0192500D01*
X0033725Y0191881D02*
X0028275Y0191881D01*
X0028266Y0191891D02*
X0026796Y0192500D01*
X0025204Y0192500D01*
X0023734Y0191891D01*
X0022609Y0190766D01*
X0022000Y0189296D01*
X0022000Y0187704D01*
X0022609Y0186234D01*
X0023734Y0185109D01*
X0025204Y0184500D01*
X0026796Y0184500D01*
X0028266Y0185109D01*
X0029391Y0186234D01*
X0030000Y0187704D01*
X0030000Y0189296D01*
X0029391Y0190766D01*
X0028266Y0191891D01*
X0029074Y0191083D02*
X0032926Y0191083D01*
X0032410Y0190284D02*
X0029590Y0190284D01*
X0029921Y0189486D02*
X0032079Y0189486D01*
X0032000Y0188687D02*
X0030000Y0188687D01*
X0030000Y0187889D02*
X0032000Y0187889D01*
X0032254Y0187090D02*
X0029746Y0187090D01*
X0029415Y0186292D02*
X0032585Y0186292D01*
X0033350Y0185493D02*
X0028650Y0185493D01*
X0027266Y0184695D02*
X0034734Y0184695D01*
X0037266Y0184695D02*
X0159433Y0184695D01*
X0159328Y0184949D02*
X0159750Y0183930D01*
X0160530Y0183150D01*
X0161549Y0182728D01*
X0162651Y0182728D01*
X0163670Y0183150D01*
X0164450Y0183930D01*
X0164872Y0184949D01*
X0164872Y0186051D01*
X0164450Y0187070D01*
X0163670Y0187850D01*
X0162651Y0188272D01*
X0161549Y0188272D01*
X0160530Y0187850D01*
X0159750Y0187070D01*
X0159328Y0186051D01*
X0159328Y0184949D01*
X0159328Y0185493D02*
X0038650Y0185493D01*
X0039415Y0186292D02*
X0159428Y0186292D01*
X0159771Y0187090D02*
X0039746Y0187090D01*
X0040000Y0187889D02*
X0160625Y0187889D01*
X0163575Y0187889D02*
X0190000Y0187889D01*
X0190000Y0188687D02*
X0040000Y0188687D01*
X0039921Y0189486D02*
X0190000Y0189486D01*
X0190000Y0190284D02*
X0039590Y0190284D01*
X0039074Y0191083D02*
X0190000Y0191083D01*
X0190000Y0191881D02*
X0038275Y0191881D01*
X0038185Y0195075D02*
X0095700Y0195075D01*
X0095700Y0195874D02*
X0039031Y0195874D01*
X0039573Y0196672D02*
X0095944Y0196672D01*
X0096195Y0194277D02*
X0017439Y0194277D01*
X0017439Y0195075D02*
X0023815Y0195075D01*
X0022969Y0195874D02*
X0017439Y0195874D01*
X0017439Y0196672D02*
X0022427Y0196672D01*
X0022097Y0197471D02*
X0017439Y0197471D01*
X0017439Y0198270D02*
X0022000Y0198270D01*
X0022000Y0199068D02*
X0017439Y0199068D01*
X0017439Y0199867D02*
X0022236Y0199867D01*
X0022567Y0200665D02*
X0017439Y0200665D01*
X0017439Y0201464D02*
X0023307Y0201464D01*
X0024630Y0202262D02*
X0017439Y0202262D01*
X0017439Y0203061D02*
X0092932Y0203061D01*
X0095468Y0203061D02*
X0190000Y0203061D01*
X0190000Y0203859D02*
X0017439Y0203859D01*
X0017439Y0193478D02*
X0190000Y0193478D01*
X0190000Y0192680D02*
X0017439Y0192680D01*
X0017439Y0191881D02*
X0023725Y0191881D01*
X0022926Y0191083D02*
X0017439Y0191083D01*
X0017439Y0190284D02*
X0022410Y0190284D01*
X0022079Y0189486D02*
X0017439Y0189486D01*
X0017439Y0188687D02*
X0022000Y0188687D01*
X0022000Y0187889D02*
X0017439Y0187889D01*
X0017439Y0187090D02*
X0022254Y0187090D01*
X0022585Y0186292D02*
X0017439Y0186292D01*
X0017439Y0185493D02*
X0023350Y0185493D01*
X0024734Y0184695D02*
X0017439Y0184695D01*
X0017439Y0183896D02*
X0159784Y0183896D01*
X0160657Y0183098D02*
X0017439Y0183098D01*
X0017439Y0182299D02*
X0141933Y0182299D01*
X0142349Y0182472D02*
X0141330Y0182050D01*
X0140550Y0181270D01*
X0140128Y0180251D01*
X0140128Y0179149D01*
X0140550Y0178130D01*
X0141330Y0177350D01*
X0142349Y0176928D01*
X0143451Y0176928D01*
X0144470Y0177350D01*
X0145250Y0178130D01*
X0145672Y0179149D01*
X0145672Y0180251D01*
X0145250Y0181270D01*
X0144470Y0182050D01*
X0143451Y0182472D01*
X0142349Y0182472D01*
X0143867Y0182299D02*
X0185538Y0182299D01*
X0185228Y0181501D02*
X0145019Y0181501D01*
X0145485Y0180702D02*
X0185228Y0180702D01*
X0185454Y0179904D02*
X0161239Y0179904D01*
X0161370Y0179850D02*
X0160351Y0180272D01*
X0159249Y0180272D01*
X0158230Y0179850D01*
X0157450Y0179070D01*
X0157028Y0178051D01*
X0157028Y0176949D01*
X0157450Y0175930D01*
X0158230Y0175150D01*
X0159249Y0174728D01*
X0160351Y0174728D01*
X0161370Y0175150D01*
X0162150Y0175930D01*
X0162572Y0176949D01*
X0162572Y0178051D01*
X0162150Y0179070D01*
X0161370Y0179850D01*
X0162114Y0179105D02*
X0185975Y0179105D01*
X0186387Y0178307D02*
X0162466Y0178307D01*
X0162572Y0177508D02*
X0185625Y0177508D01*
X0185294Y0176710D02*
X0162473Y0176710D01*
X0162131Y0175911D02*
X0185228Y0175911D01*
X0185368Y0175113D02*
X0161279Y0175113D01*
X0158321Y0175113D02*
X0148781Y0175113D01*
X0148972Y0174314D02*
X0185766Y0174314D01*
X0186755Y0173516D02*
X0148958Y0173516D01*
X0148627Y0172717D02*
X0190000Y0172717D01*
X0190000Y0171919D02*
X0163004Y0171919D01*
X0163900Y0171120D02*
X0190000Y0171120D01*
X0190000Y0170322D02*
X0164260Y0170322D01*
X0164372Y0169523D02*
X0190000Y0169523D01*
X0190000Y0168725D02*
X0164279Y0168725D01*
X0160085Y0167128D02*
X0129400Y0167128D01*
X0129002Y0167926D02*
X0159254Y0167926D01*
X0160196Y0171919D02*
X0147938Y0171919D01*
X0143442Y0173516D02*
X0017439Y0173516D01*
X0017439Y0174314D02*
X0143428Y0174314D01*
X0143619Y0175113D02*
X0017439Y0175113D01*
X0017439Y0175911D02*
X0122307Y0175911D01*
X0122749Y0175728D02*
X0123851Y0175728D01*
X0124870Y0176150D01*
X0125650Y0176930D01*
X0126072Y0177949D01*
X0126072Y0179051D01*
X0125650Y0180070D01*
X0124870Y0180850D01*
X0123851Y0181272D01*
X0122749Y0181272D01*
X0121730Y0180850D01*
X0120950Y0180070D01*
X0120528Y0179051D01*
X0120528Y0177949D01*
X0120950Y0176930D01*
X0121730Y0176150D01*
X0122749Y0175728D01*
X0124293Y0175911D02*
X0144091Y0175911D01*
X0145258Y0176710D02*
X0125429Y0176710D01*
X0125889Y0177508D02*
X0141172Y0177508D01*
X0140477Y0178307D02*
X0126072Y0178307D01*
X0126049Y0179105D02*
X0140146Y0179105D01*
X0140128Y0179904D02*
X0125719Y0179904D01*
X0125017Y0180702D02*
X0140315Y0180702D01*
X0140781Y0181501D02*
X0017439Y0181501D01*
X0017439Y0180702D02*
X0121583Y0180702D01*
X0120881Y0179904D02*
X0017439Y0179904D01*
X0017439Y0179105D02*
X0120551Y0179105D01*
X0120528Y0178307D02*
X0017439Y0178307D01*
X0017439Y0177508D02*
X0120711Y0177508D01*
X0121171Y0176710D02*
X0017439Y0176710D01*
X0038619Y0161538D02*
X0096634Y0161538D01*
X0096100Y0162072D02*
X0097272Y0160900D01*
X0098928Y0160900D01*
X0100100Y0162072D01*
X0100100Y0163728D01*
X0098928Y0164900D01*
X0097272Y0164900D01*
X0096100Y0163728D01*
X0096100Y0162072D01*
X0096100Y0162337D02*
X0077095Y0162337D01*
X0078055Y0163135D02*
X0096100Y0163135D01*
X0096305Y0163934D02*
X0078441Y0163934D01*
X0078572Y0164732D02*
X0097104Y0164732D01*
X0099096Y0164732D02*
X0126540Y0164732D01*
X0125741Y0165531D02*
X0078497Y0165531D01*
X0078167Y0166329D02*
X0125400Y0166329D01*
X0128260Y0164732D02*
X0180004Y0164732D01*
X0179205Y0163934D02*
X0099895Y0163934D01*
X0100100Y0163135D02*
X0179100Y0163135D01*
X0179100Y0162337D02*
X0100100Y0162337D01*
X0099566Y0161538D02*
X0179734Y0161538D01*
X0191600Y0167926D02*
X0196845Y0167926D01*
X0196047Y0168725D02*
X0191600Y0168725D01*
X0191600Y0169523D02*
X0195800Y0169523D01*
X0195800Y0170322D02*
X0191600Y0170322D01*
X0191600Y0171120D02*
X0196292Y0171120D01*
X0199308Y0171120D02*
X0297723Y0171120D01*
X0297325Y0171919D02*
X0191600Y0171919D01*
X0191600Y0172717D02*
X0297000Y0172717D01*
X0297000Y0173516D02*
X0248844Y0173516D01*
X0248828Y0173500D02*
X0250000Y0174672D01*
X0250000Y0176328D01*
X0248828Y0177500D01*
X0247172Y0177500D01*
X0246000Y0176328D01*
X0246000Y0174672D01*
X0247172Y0173500D01*
X0248828Y0173500D01*
X0249643Y0174314D02*
X0297008Y0174314D01*
X0297338Y0175113D02*
X0250000Y0175113D01*
X0250000Y0175911D02*
X0251060Y0175911D01*
X0251172Y0175800D02*
X0252828Y0175800D01*
X0254000Y0176972D01*
X0254000Y0178628D01*
X0252828Y0179800D01*
X0251172Y0179800D01*
X0250000Y0178628D01*
X0250000Y0176972D01*
X0251172Y0175800D01*
X0250262Y0176710D02*
X0249619Y0176710D01*
X0250000Y0177508D02*
X0228000Y0177508D01*
X0228000Y0176972D02*
X0226828Y0175800D01*
X0225172Y0175800D01*
X0224000Y0176972D01*
X0224000Y0178628D01*
X0225172Y0179800D01*
X0226828Y0179800D01*
X0228000Y0178628D01*
X0228000Y0176972D01*
X0227738Y0176710D02*
X0231881Y0176710D01*
X0231500Y0176328D02*
X0231500Y0174672D01*
X0232672Y0173500D01*
X0234328Y0173500D01*
X0235500Y0174672D01*
X0235500Y0176328D01*
X0234328Y0177500D01*
X0232672Y0177500D01*
X0231500Y0176328D01*
X0231500Y0175911D02*
X0226940Y0175911D01*
X0225060Y0175911D02*
X0195772Y0175911D01*
X0195706Y0176710D02*
X0224262Y0176710D01*
X0224000Y0177508D02*
X0195375Y0177508D01*
X0194613Y0178307D02*
X0224000Y0178307D01*
X0224477Y0179105D02*
X0195025Y0179105D01*
X0195546Y0179904D02*
X0217067Y0179904D01*
X0217249Y0179828D02*
X0218351Y0179828D01*
X0219370Y0180250D01*
X0220150Y0181030D01*
X0220572Y0182049D01*
X0220572Y0183151D01*
X0220150Y0184170D01*
X0219370Y0184950D01*
X0218351Y0185372D01*
X0217249Y0185372D01*
X0216230Y0184950D01*
X0215450Y0184170D01*
X0215028Y0183151D01*
X0215028Y0182049D01*
X0215450Y0181030D01*
X0216230Y0180250D01*
X0217249Y0179828D01*
X0218533Y0179904D02*
X0276075Y0179904D01*
X0276000Y0179828D02*
X0276000Y0178172D01*
X0277172Y0177000D01*
X0278828Y0177000D01*
X0280000Y0178172D01*
X0280000Y0179828D01*
X0278828Y0181000D01*
X0277172Y0181000D01*
X0276000Y0179828D01*
X0276000Y0179105D02*
X0253523Y0179105D01*
X0254000Y0178307D02*
X0276000Y0178307D01*
X0276663Y0177508D02*
X0254000Y0177508D01*
X0253738Y0176710D02*
X0298553Y0176710D01*
X0297754Y0175911D02*
X0252940Y0175911D01*
X0250000Y0178307D02*
X0228000Y0178307D01*
X0227523Y0179105D02*
X0250477Y0179105D01*
X0246381Y0176710D02*
X0235119Y0176710D01*
X0235500Y0175911D02*
X0246000Y0175911D01*
X0246000Y0175113D02*
X0235500Y0175113D01*
X0235143Y0174314D02*
X0246357Y0174314D01*
X0247156Y0173516D02*
X0234344Y0173516D01*
X0232656Y0173516D02*
X0194245Y0173516D01*
X0195234Y0174314D02*
X0231857Y0174314D01*
X0231500Y0175113D02*
X0195632Y0175113D01*
X0191755Y0173516D02*
X0191600Y0173516D01*
X0190000Y0173516D02*
X0189245Y0173516D01*
X0195772Y0180702D02*
X0215778Y0180702D01*
X0215255Y0181501D02*
X0195772Y0181501D01*
X0195462Y0182299D02*
X0215028Y0182299D01*
X0215028Y0183098D02*
X0194822Y0183098D01*
X0191600Y0183896D02*
X0215337Y0183896D01*
X0215975Y0184695D02*
X0191600Y0184695D01*
X0191600Y0185493D02*
X0297496Y0185493D01*
X0297165Y0184695D02*
X0219625Y0184695D01*
X0220263Y0183896D02*
X0297000Y0183896D01*
X0297000Y0183098D02*
X0220572Y0183098D01*
X0220572Y0182299D02*
X0297168Y0182299D01*
X0297499Y0181501D02*
X0220345Y0181501D01*
X0219822Y0180702D02*
X0276874Y0180702D01*
X0279126Y0180702D02*
X0298141Y0180702D01*
X0299230Y0179904D02*
X0279925Y0179904D01*
X0280000Y0179105D02*
X0329600Y0179105D01*
X0329600Y0178307D02*
X0280000Y0178307D01*
X0279337Y0177508D02*
X0329600Y0177508D01*
X0329600Y0176710D02*
X0323447Y0176710D01*
X0324246Y0175911D02*
X0329600Y0175911D01*
X0329600Y0175113D02*
X0324662Y0175113D01*
X0324992Y0174314D02*
X0329600Y0174314D01*
X0329600Y0173516D02*
X0325000Y0173516D01*
X0325000Y0172717D02*
X0329600Y0172717D01*
X0329600Y0171919D02*
X0324675Y0171919D01*
X0324277Y0171120D02*
X0329600Y0171120D01*
X0329600Y0170322D02*
X0323478Y0170322D01*
X0321796Y0167500D02*
X0320204Y0167500D01*
X0318734Y0166891D01*
X0317609Y0165766D01*
X0317000Y0164296D01*
X0317000Y0162704D01*
X0317609Y0161234D01*
X0318734Y0160109D01*
X0320204Y0159500D01*
X0321796Y0159500D01*
X0323266Y0160109D01*
X0324391Y0161234D01*
X0325000Y0162704D01*
X0325000Y0164296D01*
X0324391Y0165766D01*
X0323266Y0166891D01*
X0321796Y0167500D01*
X0322695Y0167128D02*
X0329600Y0167128D01*
X0329600Y0167926D02*
X0198755Y0167926D01*
X0199800Y0170322D02*
X0298522Y0170322D01*
X0302695Y0167128D02*
X0309305Y0167128D01*
X0308734Y0166891D02*
X0307609Y0165766D01*
X0307000Y0164296D01*
X0307000Y0162704D01*
X0307609Y0161234D01*
X0308734Y0160109D01*
X0310204Y0159500D01*
X0311796Y0159500D01*
X0313266Y0160109D01*
X0314391Y0161234D01*
X0315000Y0162704D01*
X0315000Y0164296D01*
X0314391Y0165766D01*
X0313266Y0166891D01*
X0311796Y0167500D01*
X0310204Y0167500D01*
X0308734Y0166891D01*
X0308172Y0166329D02*
X0303828Y0166329D01*
X0304488Y0165531D02*
X0307512Y0165531D01*
X0307181Y0164732D02*
X0304819Y0164732D01*
X0305000Y0163934D02*
X0307000Y0163934D01*
X0307000Y0163135D02*
X0305000Y0163135D01*
X0304848Y0162337D02*
X0307152Y0162337D01*
X0307483Y0161538D02*
X0304517Y0161538D01*
X0303896Y0160739D02*
X0308104Y0160739D01*
X0309140Y0159941D02*
X0302860Y0159941D01*
X0303410Y0156747D02*
X0308590Y0156747D01*
X0307792Y0155948D02*
X0304208Y0155948D01*
X0304646Y0155150D02*
X0307354Y0155150D01*
X0307023Y0154351D02*
X0304977Y0154351D01*
X0305000Y0153553D02*
X0307000Y0153553D01*
X0307000Y0152754D02*
X0305000Y0152754D01*
X0304690Y0151956D02*
X0307310Y0151956D01*
X0307686Y0151157D02*
X0304314Y0151157D01*
X0303516Y0150359D02*
X0308484Y0150359D01*
X0309395Y0147165D02*
X0302605Y0147165D01*
X0303791Y0146366D02*
X0308209Y0146366D01*
X0308734Y0146891D02*
X0307609Y0145766D01*
X0307000Y0144296D01*
X0307000Y0142704D01*
X0307609Y0141234D01*
X0308734Y0140109D01*
X0310204Y0139500D01*
X0311796Y0139500D01*
X0313266Y0140109D01*
X0314391Y0141234D01*
X0315000Y0142704D01*
X0315000Y0144296D01*
X0314391Y0145766D01*
X0313266Y0146891D01*
X0311796Y0147500D01*
X0310204Y0147500D01*
X0308734Y0146891D01*
X0307527Y0145568D02*
X0304473Y0145568D01*
X0304804Y0144769D02*
X0307196Y0144769D01*
X0307000Y0143971D02*
X0305000Y0143971D01*
X0305000Y0143172D02*
X0307000Y0143172D01*
X0307137Y0142374D02*
X0304863Y0142374D01*
X0304532Y0141575D02*
X0307468Y0141575D01*
X0308066Y0140777D02*
X0303934Y0140777D01*
X0302950Y0139978D02*
X0309050Y0139978D01*
X0312950Y0139978D02*
X0319050Y0139978D01*
X0318066Y0140777D02*
X0313934Y0140777D01*
X0314532Y0141575D02*
X0317468Y0141575D01*
X0317137Y0142374D02*
X0314863Y0142374D01*
X0315000Y0143172D02*
X0317000Y0143172D01*
X0317000Y0143971D02*
X0315000Y0143971D01*
X0314804Y0144769D02*
X0317196Y0144769D01*
X0317527Y0145568D02*
X0314473Y0145568D01*
X0313791Y0146366D02*
X0318209Y0146366D01*
X0319395Y0147165D02*
X0312605Y0147165D01*
X0313516Y0150359D02*
X0318484Y0150359D01*
X0317686Y0151157D02*
X0314314Y0151157D01*
X0314690Y0151956D02*
X0317310Y0151956D01*
X0317000Y0152754D02*
X0315000Y0152754D01*
X0315000Y0153553D02*
X0317000Y0153553D01*
X0317023Y0154351D02*
X0314977Y0154351D01*
X0314646Y0155150D02*
X0317354Y0155150D01*
X0317792Y0155948D02*
X0314208Y0155948D01*
X0313410Y0156747D02*
X0318590Y0156747D01*
X0319140Y0159941D02*
X0312860Y0159941D01*
X0313896Y0160739D02*
X0318104Y0160739D01*
X0317483Y0161538D02*
X0314517Y0161538D01*
X0314848Y0162337D02*
X0317152Y0162337D01*
X0317000Y0163135D02*
X0315000Y0163135D01*
X0315000Y0163934D02*
X0317000Y0163934D01*
X0317181Y0164732D02*
X0314819Y0164732D01*
X0314488Y0165531D02*
X0317512Y0165531D01*
X0318172Y0166329D02*
X0313828Y0166329D01*
X0312695Y0167128D02*
X0319305Y0167128D01*
X0318522Y0170322D02*
X0313478Y0170322D01*
X0314277Y0171120D02*
X0317723Y0171120D01*
X0317325Y0171919D02*
X0314675Y0171919D01*
X0315000Y0172717D02*
X0317000Y0172717D01*
X0317000Y0173516D02*
X0315000Y0173516D01*
X0314992Y0174314D02*
X0317008Y0174314D01*
X0317338Y0175113D02*
X0314662Y0175113D01*
X0314246Y0175911D02*
X0317754Y0175911D01*
X0318553Y0176710D02*
X0313447Y0176710D01*
X0312770Y0179904D02*
X0319230Y0179904D01*
X0318734Y0180109D02*
X0320204Y0179500D01*
X0321796Y0179500D01*
X0323266Y0180109D01*
X0324391Y0181234D01*
X0325000Y0182704D01*
X0325000Y0184296D01*
X0324391Y0185766D01*
X0323266Y0186891D01*
X0321796Y0187500D01*
X0320204Y0187500D01*
X0318734Y0186891D01*
X0317609Y0185766D01*
X0317000Y0184296D01*
X0317000Y0182704D01*
X0317609Y0181234D01*
X0318734Y0180109D01*
X0318141Y0180702D02*
X0313859Y0180702D01*
X0314501Y0181501D02*
X0317499Y0181501D01*
X0317168Y0182299D02*
X0314832Y0182299D01*
X0315000Y0183098D02*
X0317000Y0183098D01*
X0317000Y0183896D02*
X0315000Y0183896D01*
X0314835Y0184695D02*
X0317165Y0184695D01*
X0317496Y0185493D02*
X0314504Y0185493D01*
X0313865Y0186292D02*
X0318135Y0186292D01*
X0319215Y0187090D02*
X0312785Y0187090D01*
X0313441Y0190284D02*
X0318559Y0190284D01*
X0317760Y0191083D02*
X0314240Y0191083D01*
X0314659Y0191881D02*
X0317341Y0191881D01*
X0317010Y0192680D02*
X0314990Y0192680D01*
X0315000Y0193478D02*
X0317000Y0193478D01*
X0317000Y0194277D02*
X0315000Y0194277D01*
X0314677Y0195075D02*
X0317323Y0195075D01*
X0317717Y0195874D02*
X0314283Y0195874D01*
X0313484Y0196672D02*
X0318516Y0196672D01*
X0319319Y0199867D02*
X0312681Y0199867D01*
X0313822Y0200665D02*
X0318178Y0200665D01*
X0317514Y0201464D02*
X0314486Y0201464D01*
X0314817Y0202262D02*
X0317183Y0202262D01*
X0317000Y0203061D02*
X0315000Y0203061D01*
X0315000Y0203859D02*
X0317000Y0203859D01*
X0317150Y0204658D02*
X0314850Y0204658D01*
X0314519Y0205456D02*
X0317481Y0205456D01*
X0318098Y0206255D02*
X0313902Y0206255D01*
X0312874Y0207053D02*
X0319126Y0207053D01*
X0323484Y0196672D02*
X0329600Y0196672D01*
X0329600Y0195874D02*
X0324283Y0195874D01*
X0324677Y0195075D02*
X0329600Y0195075D01*
X0329600Y0194277D02*
X0325000Y0194277D01*
X0325000Y0193478D02*
X0329600Y0193478D01*
X0329600Y0192680D02*
X0324990Y0192680D01*
X0324659Y0191881D02*
X0329600Y0191881D01*
X0329600Y0191083D02*
X0324240Y0191083D01*
X0323441Y0190284D02*
X0329600Y0190284D01*
X0329600Y0189486D02*
X0298000Y0189486D01*
X0298000Y0189828D02*
X0298000Y0188172D01*
X0296828Y0187000D01*
X0295172Y0187000D01*
X0294000Y0188172D01*
X0294000Y0189828D01*
X0295172Y0191000D01*
X0296828Y0191000D01*
X0298000Y0189828D01*
X0297544Y0190284D02*
X0298559Y0190284D01*
X0298000Y0188687D02*
X0329600Y0188687D01*
X0329600Y0187889D02*
X0297717Y0187889D01*
X0296919Y0187090D02*
X0299215Y0187090D01*
X0298135Y0186292D02*
X0191600Y0186292D01*
X0191600Y0187090D02*
X0271081Y0187090D01*
X0271172Y0187000D02*
X0272828Y0187000D01*
X0274000Y0188172D01*
X0274000Y0189828D01*
X0272828Y0191000D01*
X0271172Y0191000D01*
X0270000Y0189828D01*
X0270000Y0188172D01*
X0271172Y0187000D01*
X0270283Y0187889D02*
X0191600Y0187889D01*
X0191600Y0188687D02*
X0270000Y0188687D01*
X0270000Y0189486D02*
X0191600Y0189486D01*
X0191600Y0190284D02*
X0270456Y0190284D01*
X0273544Y0190284D02*
X0286456Y0190284D01*
X0286000Y0189828D02*
X0286000Y0188172D01*
X0287172Y0187000D01*
X0288828Y0187000D01*
X0290000Y0188172D01*
X0290000Y0189828D01*
X0288828Y0191000D01*
X0287172Y0191000D01*
X0286000Y0189828D01*
X0286000Y0189486D02*
X0274000Y0189486D01*
X0274000Y0188687D02*
X0286000Y0188687D01*
X0286283Y0187889D02*
X0273717Y0187889D01*
X0272919Y0187090D02*
X0287081Y0187090D01*
X0288919Y0187090D02*
X0295081Y0187090D01*
X0294283Y0187889D02*
X0289717Y0187889D01*
X0290000Y0188687D02*
X0294000Y0188687D01*
X0294000Y0189486D02*
X0290000Y0189486D01*
X0289544Y0190284D02*
X0294456Y0190284D01*
X0288000Y0205456D02*
X0283285Y0205456D01*
X0284000Y0206255D02*
X0288426Y0206255D01*
X0283178Y0208650D02*
X0329600Y0208650D01*
X0329600Y0209449D02*
X0240700Y0209449D01*
X0240700Y0210247D02*
X0298596Y0210247D01*
X0297797Y0211046D02*
X0288874Y0211046D01*
X0288828Y0211000D02*
X0290000Y0212172D01*
X0290000Y0213828D01*
X0288828Y0215000D01*
X0287172Y0215000D01*
X0286000Y0213828D01*
X0286000Y0212172D01*
X0287172Y0211000D01*
X0288828Y0211000D01*
X0289673Y0211844D02*
X0297356Y0211844D01*
X0297026Y0212643D02*
X0290000Y0212643D01*
X0290000Y0213441D02*
X0297000Y0213441D01*
X0297000Y0214240D02*
X0289589Y0214240D01*
X0286411Y0214240D02*
X0240700Y0214240D01*
X0240700Y0215038D02*
X0243133Y0215038D01*
X0243172Y0215000D02*
X0244828Y0215000D01*
X0246000Y0216172D01*
X0246000Y0217828D01*
X0244828Y0219000D01*
X0243172Y0219000D01*
X0242000Y0217828D01*
X0242000Y0216172D01*
X0243172Y0215000D01*
X0242335Y0215837D02*
X0240700Y0215837D01*
X0240700Y0216635D02*
X0242000Y0216635D01*
X0242000Y0217434D02*
X0240700Y0217434D01*
X0240700Y0218232D02*
X0242404Y0218232D01*
X0245596Y0218232D02*
X0254404Y0218232D01*
X0254000Y0217828D02*
X0254000Y0216172D01*
X0255172Y0215000D01*
X0256828Y0215000D01*
X0258000Y0216172D01*
X0258000Y0217828D01*
X0256828Y0219000D01*
X0255172Y0219000D01*
X0254000Y0217828D01*
X0254000Y0217434D02*
X0246000Y0217434D01*
X0246000Y0216635D02*
X0254000Y0216635D01*
X0254335Y0215837D02*
X0245665Y0215837D01*
X0244867Y0215038D02*
X0255133Y0215038D01*
X0256867Y0215038D02*
X0271133Y0215038D01*
X0271172Y0215000D02*
X0272828Y0215000D01*
X0274000Y0216172D01*
X0274000Y0217828D01*
X0272828Y0219000D01*
X0271172Y0219000D01*
X0270000Y0217828D01*
X0270000Y0216172D01*
X0271172Y0215000D01*
X0270335Y0215837D02*
X0257665Y0215837D01*
X0258000Y0216635D02*
X0270000Y0216635D01*
X0270000Y0217434D02*
X0258000Y0217434D01*
X0257596Y0218232D02*
X0270404Y0218232D01*
X0273596Y0218232D02*
X0280404Y0218232D01*
X0280000Y0217434D02*
X0274000Y0217434D01*
X0274000Y0216635D02*
X0280000Y0216635D01*
X0280335Y0215837D02*
X0273665Y0215837D01*
X0272867Y0215038D02*
X0281133Y0215038D01*
X0282867Y0215038D02*
X0297308Y0215038D01*
X0297680Y0215837D02*
X0283665Y0215837D01*
X0284000Y0216635D02*
X0298478Y0216635D01*
X0287126Y0211046D02*
X0240700Y0211046D01*
X0240700Y0211844D02*
X0286327Y0211844D01*
X0286000Y0212643D02*
X0240700Y0212643D01*
X0240700Y0213441D02*
X0286000Y0213441D01*
X0280822Y0208650D02*
X0273178Y0208650D01*
X0272828Y0209000D02*
X0271172Y0209000D01*
X0270000Y0207828D01*
X0270000Y0206172D01*
X0271172Y0205000D01*
X0272828Y0205000D01*
X0274000Y0206172D01*
X0274000Y0207828D01*
X0272828Y0209000D01*
X0273977Y0207852D02*
X0280023Y0207852D01*
X0280000Y0207053D02*
X0274000Y0207053D01*
X0274000Y0206255D02*
X0280000Y0206255D01*
X0280715Y0205456D02*
X0273285Y0205456D01*
X0270715Y0205456D02*
X0240700Y0205456D01*
X0240700Y0206255D02*
X0270000Y0206255D01*
X0270000Y0207053D02*
X0240700Y0207053D01*
X0240700Y0207852D02*
X0270023Y0207852D01*
X0270822Y0208650D02*
X0240700Y0208650D01*
X0239100Y0208650D02*
X0187689Y0208650D01*
X0187772Y0209449D02*
X0239100Y0209449D01*
X0239100Y0210247D02*
X0187649Y0210247D01*
X0187359Y0207852D02*
X0239100Y0207852D01*
X0239100Y0207053D02*
X0186573Y0207053D01*
X0183427Y0207053D02*
X0039730Y0207053D01*
X0040000Y0207852D02*
X0182641Y0207852D01*
X0182311Y0208650D02*
X0040000Y0208650D01*
X0039399Y0206255D02*
X0190000Y0206255D01*
X0190000Y0205456D02*
X0038613Y0205456D01*
X0033387Y0205456D02*
X0028613Y0205456D01*
X0029399Y0206255D02*
X0032600Y0206255D01*
X0032270Y0207053D02*
X0029730Y0207053D01*
X0030000Y0207852D02*
X0032000Y0207852D01*
X0032000Y0208650D02*
X0030000Y0208650D01*
X0029937Y0209449D02*
X0032063Y0209449D01*
X0032394Y0210247D02*
X0029606Y0210247D01*
X0029111Y0211046D02*
X0032889Y0211046D01*
X0033687Y0211844D02*
X0028313Y0211844D01*
X0028095Y0215038D02*
X0033905Y0215038D01*
X0033006Y0215837D02*
X0028994Y0215837D01*
X0029557Y0216635D02*
X0032443Y0216635D01*
X0032112Y0217434D02*
X0029888Y0217434D01*
X0030000Y0218232D02*
X0032000Y0218232D01*
X0032000Y0219031D02*
X0030000Y0219031D01*
X0029779Y0219829D02*
X0032221Y0219829D01*
X0032552Y0220628D02*
X0029448Y0220628D01*
X0028730Y0221426D02*
X0033269Y0221426D01*
X0034540Y0222225D02*
X0027460Y0222225D01*
X0026796Y0224500D02*
X0028266Y0225109D01*
X0029391Y0226234D01*
X0030000Y0227704D01*
X0030000Y0229296D01*
X0029391Y0230766D01*
X0028266Y0231891D01*
X0026796Y0232500D01*
X0025204Y0232500D01*
X0023734Y0231891D01*
X0022609Y0230766D01*
X0022000Y0229296D01*
X0022000Y0227704D01*
X0022609Y0226234D01*
X0023734Y0225109D01*
X0025204Y0224500D01*
X0026796Y0224500D01*
X0027086Y0224620D02*
X0034914Y0224620D01*
X0033424Y0225419D02*
X0028576Y0225419D01*
X0029374Y0226217D02*
X0032626Y0226217D01*
X0032285Y0227016D02*
X0029715Y0227016D01*
X0030000Y0227814D02*
X0032000Y0227814D01*
X0032000Y0228613D02*
X0030000Y0228613D01*
X0029952Y0229411D02*
X0032048Y0229411D01*
X0032379Y0230210D02*
X0029621Y0230210D01*
X0029148Y0231008D02*
X0032852Y0231008D01*
X0033650Y0231807D02*
X0028350Y0231807D01*
X0026796Y0234500D02*
X0028266Y0235109D01*
X0029391Y0236234D01*
X0030000Y0237704D01*
X0030000Y0239296D01*
X0029391Y0240766D01*
X0028266Y0241891D01*
X0026796Y0242500D01*
X0025204Y0242500D01*
X0023734Y0241891D01*
X0022609Y0240766D01*
X0022000Y0239296D01*
X0022000Y0237704D01*
X0022609Y0236234D01*
X0023734Y0235109D01*
X0025204Y0234500D01*
X0026796Y0234500D01*
X0028005Y0235001D02*
X0033995Y0235001D01*
X0033734Y0235109D02*
X0035204Y0234500D01*
X0036796Y0234500D01*
X0038266Y0235109D01*
X0039391Y0236234D01*
X0040000Y0237704D01*
X0040000Y0239296D01*
X0039391Y0240766D01*
X0038266Y0241891D01*
X0036796Y0242500D01*
X0035204Y0242500D01*
X0033734Y0241891D01*
X0032609Y0240766D01*
X0032000Y0239296D01*
X0032000Y0237704D01*
X0032609Y0236234D01*
X0033734Y0235109D01*
X0033044Y0235800D02*
X0028956Y0235800D01*
X0029542Y0236598D02*
X0032458Y0236598D01*
X0032127Y0237397D02*
X0029873Y0237397D01*
X0030000Y0238195D02*
X0032000Y0238195D01*
X0032000Y0238994D02*
X0030000Y0238994D01*
X0029794Y0239792D02*
X0032206Y0239792D01*
X0032536Y0240591D02*
X0029464Y0240591D01*
X0028768Y0241389D02*
X0033232Y0241389D01*
X0034450Y0242188D02*
X0027550Y0242188D01*
X0026796Y0244500D02*
X0025204Y0244500D01*
X0023734Y0245109D01*
X0022609Y0246234D01*
X0022000Y0247704D01*
X0022000Y0249296D01*
X0022609Y0250766D01*
X0023734Y0251891D01*
X0025204Y0252500D01*
X0026796Y0252500D01*
X0028266Y0251891D01*
X0029391Y0250766D01*
X0030000Y0249296D01*
X0030000Y0247704D01*
X0029391Y0246234D01*
X0028266Y0245109D01*
X0026796Y0244500D01*
X0026996Y0244583D02*
X0035004Y0244583D01*
X0035204Y0244500D02*
X0036796Y0244500D01*
X0038266Y0245109D01*
X0039391Y0246234D01*
X0040000Y0247704D01*
X0040000Y0249296D01*
X0039391Y0250766D01*
X0038266Y0251891D01*
X0036796Y0252500D01*
X0035204Y0252500D01*
X0033734Y0251891D01*
X0032609Y0250766D01*
X0032000Y0249296D01*
X0032000Y0247704D01*
X0032609Y0246234D01*
X0033734Y0245109D01*
X0035204Y0244500D01*
X0036996Y0244583D02*
X0104000Y0244583D01*
X0104000Y0244172D02*
X0105172Y0243000D01*
X0106828Y0243000D01*
X0108000Y0244172D01*
X0108000Y0245828D01*
X0106828Y0247000D01*
X0105172Y0247000D01*
X0104000Y0245828D01*
X0104000Y0244172D01*
X0104387Y0243785D02*
X0017439Y0243785D01*
X0017439Y0244583D02*
X0025004Y0244583D01*
X0023461Y0245382D02*
X0017439Y0245382D01*
X0017439Y0246180D02*
X0022663Y0246180D01*
X0022301Y0246979D02*
X0017439Y0246979D01*
X0017439Y0247777D02*
X0022000Y0247777D01*
X0022000Y0248576D02*
X0017439Y0248576D01*
X0017439Y0249374D02*
X0022033Y0249374D01*
X0022363Y0250173D02*
X0017439Y0250173D01*
X0017439Y0250971D02*
X0022814Y0250971D01*
X0023613Y0251770D02*
X0017439Y0251770D01*
X0017439Y0252568D02*
X0050840Y0252568D01*
X0051272Y0253000D02*
X0050100Y0251828D01*
X0050100Y0250172D01*
X0051272Y0249000D01*
X0052928Y0249000D01*
X0054100Y0250172D01*
X0054100Y0251828D01*
X0052928Y0253000D01*
X0051272Y0253000D01*
X0050100Y0251770D02*
X0038387Y0251770D01*
X0039186Y0250971D02*
X0050100Y0250971D01*
X0050100Y0250173D02*
X0039637Y0250173D01*
X0039967Y0249374D02*
X0050897Y0249374D01*
X0053303Y0249374D02*
X0239100Y0249374D01*
X0239100Y0248576D02*
X0040000Y0248576D01*
X0040000Y0247777D02*
X0239100Y0247777D01*
X0239100Y0246979D02*
X0236850Y0246979D01*
X0236828Y0247000D02*
X0235172Y0247000D01*
X0234000Y0245828D01*
X0234000Y0244172D01*
X0235172Y0243000D01*
X0236828Y0243000D01*
X0238000Y0244172D01*
X0238000Y0245828D01*
X0236828Y0247000D01*
X0237648Y0246180D02*
X0239100Y0246180D01*
X0239100Y0245382D02*
X0238000Y0245382D01*
X0238000Y0244583D02*
X0239100Y0244583D01*
X0239100Y0243785D02*
X0237613Y0243785D01*
X0239100Y0242986D02*
X0017439Y0242986D01*
X0017439Y0242188D02*
X0024450Y0242188D01*
X0023232Y0241389D02*
X0017439Y0241389D01*
X0017439Y0240591D02*
X0022536Y0240591D01*
X0022206Y0239792D02*
X0017439Y0239792D01*
X0017439Y0238994D02*
X0022000Y0238994D01*
X0022000Y0238195D02*
X0017439Y0238195D01*
X0017439Y0237397D02*
X0022127Y0237397D01*
X0022458Y0236598D02*
X0017439Y0236598D01*
X0017439Y0235800D02*
X0023044Y0235800D01*
X0023995Y0235001D02*
X0017439Y0235001D01*
X0017439Y0234203D02*
X0205369Y0234203D01*
X0205772Y0233800D02*
X0207428Y0233800D01*
X0208600Y0234972D01*
X0208600Y0236628D01*
X0207428Y0237800D01*
X0205772Y0237800D01*
X0204600Y0236628D01*
X0204600Y0234972D01*
X0205772Y0233800D01*
X0204600Y0235001D02*
X0038005Y0235001D01*
X0038956Y0235800D02*
X0204600Y0235800D01*
X0204600Y0236598D02*
X0039542Y0236598D01*
X0039873Y0237397D02*
X0176775Y0237397D01*
X0177172Y0237000D02*
X0178828Y0237000D01*
X0180000Y0238172D01*
X0180000Y0239828D01*
X0178828Y0241000D01*
X0177172Y0241000D01*
X0176000Y0239828D01*
X0176000Y0238172D01*
X0177172Y0237000D01*
X0176000Y0238195D02*
X0040000Y0238195D01*
X0040000Y0238994D02*
X0176000Y0238994D01*
X0176000Y0239792D02*
X0039794Y0239792D01*
X0039464Y0240591D02*
X0176762Y0240591D01*
X0177172Y0243000D02*
X0178828Y0243000D01*
X0180000Y0244172D01*
X0180000Y0245828D01*
X0178828Y0247000D01*
X0177172Y0247000D01*
X0176000Y0245828D01*
X0176000Y0244172D01*
X0177172Y0243000D01*
X0176387Y0243785D02*
X0157613Y0243785D01*
X0158000Y0244172D02*
X0156828Y0243000D01*
X0155172Y0243000D01*
X0154000Y0244172D01*
X0154000Y0245828D01*
X0155172Y0247000D01*
X0156828Y0247000D01*
X0158000Y0245828D01*
X0158000Y0244172D01*
X0158000Y0244583D02*
X0176000Y0244583D01*
X0176000Y0245382D02*
X0158000Y0245382D01*
X0157648Y0246180D02*
X0176352Y0246180D01*
X0177150Y0246979D02*
X0156850Y0246979D01*
X0155150Y0246979D02*
X0130850Y0246979D01*
X0130828Y0247000D02*
X0129172Y0247000D01*
X0128000Y0245828D01*
X0128000Y0244172D01*
X0129172Y0243000D01*
X0130828Y0243000D01*
X0132000Y0244172D01*
X0132000Y0245828D01*
X0130828Y0247000D01*
X0131648Y0246180D02*
X0154352Y0246180D01*
X0154000Y0245382D02*
X0132000Y0245382D01*
X0132000Y0244583D02*
X0154000Y0244583D01*
X0154387Y0243785D02*
X0131613Y0243785D01*
X0128387Y0243785D02*
X0107613Y0243785D01*
X0108000Y0244583D02*
X0128000Y0244583D01*
X0128000Y0245382D02*
X0108000Y0245382D01*
X0107648Y0246180D02*
X0128352Y0246180D01*
X0129150Y0246979D02*
X0106850Y0246979D01*
X0105150Y0246979D02*
X0039699Y0246979D01*
X0039337Y0246180D02*
X0104352Y0246180D01*
X0104000Y0245382D02*
X0038539Y0245382D01*
X0037550Y0242188D02*
X0239100Y0242188D01*
X0239100Y0241389D02*
X0038768Y0241389D01*
X0033461Y0245382D02*
X0028539Y0245382D01*
X0029337Y0246180D02*
X0032663Y0246180D01*
X0032301Y0246979D02*
X0029699Y0246979D01*
X0030000Y0247777D02*
X0032000Y0247777D01*
X0032000Y0248576D02*
X0030000Y0248576D01*
X0029967Y0249374D02*
X0032033Y0249374D01*
X0032363Y0250173D02*
X0029637Y0250173D01*
X0029186Y0250971D02*
X0032814Y0250971D01*
X0033613Y0251770D02*
X0028387Y0251770D01*
X0026796Y0254500D02*
X0025204Y0254500D01*
X0023734Y0255109D01*
X0022609Y0256234D01*
X0022000Y0257704D01*
X0022000Y0259296D01*
X0022609Y0260766D01*
X0023734Y0261891D01*
X0025204Y0262500D01*
X0026796Y0262500D01*
X0028266Y0261891D01*
X0029391Y0260766D01*
X0030000Y0259296D01*
X0030000Y0257704D01*
X0029391Y0256234D01*
X0028266Y0255109D01*
X0026796Y0254500D01*
X0027915Y0254964D02*
X0034085Y0254964D01*
X0033734Y0255109D02*
X0035204Y0254500D01*
X0036796Y0254500D01*
X0038266Y0255109D01*
X0039391Y0256234D01*
X0040000Y0257704D01*
X0040000Y0259296D01*
X0039391Y0260766D01*
X0038266Y0261891D01*
X0036796Y0262500D01*
X0035204Y0262500D01*
X0033734Y0261891D01*
X0032609Y0260766D01*
X0032000Y0259296D01*
X0032000Y0257704D01*
X0032609Y0256234D01*
X0033734Y0255109D01*
X0033081Y0255762D02*
X0028919Y0255762D01*
X0029526Y0256561D02*
X0032474Y0256561D01*
X0032143Y0257359D02*
X0029857Y0257359D01*
X0030000Y0258158D02*
X0032000Y0258158D01*
X0032000Y0258956D02*
X0030000Y0258956D01*
X0029810Y0259755D02*
X0032190Y0259755D01*
X0032521Y0260553D02*
X0029479Y0260553D01*
X0028805Y0261352D02*
X0033195Y0261352D01*
X0034360Y0262150D02*
X0027640Y0262150D01*
X0026796Y0264500D02*
X0025204Y0264500D01*
X0023734Y0265109D01*
X0022609Y0266234D01*
X0022000Y0267704D01*
X0022000Y0269296D01*
X0022609Y0270766D01*
X0023734Y0271891D01*
X0025204Y0272500D01*
X0026796Y0272500D01*
X0028266Y0271891D01*
X0029391Y0270766D01*
X0030000Y0269296D01*
X0030000Y0267704D01*
X0029391Y0266234D01*
X0028266Y0265109D01*
X0026796Y0264500D01*
X0026907Y0264546D02*
X0035093Y0264546D01*
X0035204Y0264500D02*
X0036796Y0264500D01*
X0038266Y0265109D01*
X0039391Y0266234D01*
X0040000Y0267704D01*
X0040000Y0269296D01*
X0039391Y0270766D01*
X0038266Y0271891D01*
X0036796Y0272500D01*
X0035204Y0272500D01*
X0033734Y0271891D01*
X0032609Y0270766D01*
X0032000Y0269296D01*
X0032000Y0267704D01*
X0032609Y0266234D01*
X0033734Y0265109D01*
X0035204Y0264500D01*
X0036907Y0264546D02*
X0149000Y0264546D01*
X0149000Y0264796D02*
X0149000Y0263204D01*
X0149609Y0261734D01*
X0150734Y0260609D01*
X0152204Y0260000D01*
X0153796Y0260000D01*
X0155266Y0260609D01*
X0156391Y0261734D01*
X0157000Y0263204D01*
X0157000Y0264796D01*
X0156391Y0266266D01*
X0155266Y0267391D01*
X0153796Y0268000D01*
X0152204Y0268000D01*
X0150734Y0267391D01*
X0149609Y0266266D01*
X0149000Y0264796D01*
X0149227Y0265344D02*
X0038501Y0265344D01*
X0039300Y0266143D02*
X0149558Y0266143D01*
X0150285Y0266941D02*
X0039684Y0266941D01*
X0040000Y0267740D02*
X0151577Y0267740D01*
X0154423Y0267740D02*
X0192819Y0267740D01*
X0192780Y0267724D02*
X0190615Y0265558D01*
X0189443Y0262728D01*
X0189443Y0259665D01*
X0190615Y0256836D01*
X0192780Y0254670D01*
X0195610Y0253498D01*
X0198673Y0253498D01*
X0201503Y0254670D01*
X0203669Y0256836D01*
X0204841Y0259665D01*
X0204841Y0262728D01*
X0203669Y0265558D01*
X0201503Y0267724D01*
X0198673Y0268896D01*
X0195610Y0268896D01*
X0192780Y0267724D01*
X0191998Y0266941D02*
X0155715Y0266941D01*
X0156442Y0266143D02*
X0191200Y0266143D01*
X0190526Y0265344D02*
X0156773Y0265344D01*
X0157000Y0264546D02*
X0190195Y0264546D01*
X0189865Y0263747D02*
X0157000Y0263747D01*
X0156894Y0262949D02*
X0189534Y0262949D01*
X0189443Y0262150D02*
X0156563Y0262150D01*
X0156009Y0261352D02*
X0189443Y0261352D01*
X0189443Y0260553D02*
X0155132Y0260553D01*
X0150868Y0260553D02*
X0039479Y0260553D01*
X0039810Y0259755D02*
X0189443Y0259755D01*
X0189736Y0258956D02*
X0040000Y0258956D01*
X0040000Y0258158D02*
X0190067Y0258158D01*
X0190398Y0257359D02*
X0039857Y0257359D01*
X0039526Y0256561D02*
X0190889Y0256561D01*
X0191688Y0255762D02*
X0038919Y0255762D01*
X0037915Y0254964D02*
X0192486Y0254964D01*
X0193998Y0254165D02*
X0017439Y0254165D01*
X0017439Y0253367D02*
X0239100Y0253367D01*
X0239100Y0254165D02*
X0200285Y0254165D01*
X0201797Y0254964D02*
X0239100Y0254964D01*
X0239100Y0255762D02*
X0202596Y0255762D01*
X0203394Y0256561D02*
X0239100Y0256561D01*
X0239100Y0257359D02*
X0203886Y0257359D01*
X0204216Y0258158D02*
X0239100Y0258158D01*
X0239100Y0258956D02*
X0204547Y0258956D01*
X0204841Y0259755D02*
X0239100Y0259755D01*
X0239100Y0260553D02*
X0204841Y0260553D01*
X0204841Y0261352D02*
X0239100Y0261352D01*
X0239100Y0262150D02*
X0204841Y0262150D01*
X0204750Y0262949D02*
X0239100Y0262949D01*
X0239100Y0263747D02*
X0204419Y0263747D01*
X0204088Y0264546D02*
X0239100Y0264546D01*
X0239100Y0265344D02*
X0203757Y0265344D01*
X0203084Y0266143D02*
X0239100Y0266143D01*
X0239100Y0266941D02*
X0202285Y0266941D01*
X0201464Y0267740D02*
X0239100Y0267740D01*
X0239100Y0268539D02*
X0199536Y0268539D01*
X0194747Y0268539D02*
X0040000Y0268539D01*
X0039983Y0269337D02*
X0239100Y0269337D01*
X0239100Y0270136D02*
X0039652Y0270136D01*
X0039223Y0270934D02*
X0239100Y0270934D01*
X0239100Y0271733D02*
X0038424Y0271733D01*
X0036796Y0274500D02*
X0035204Y0274500D01*
X0033734Y0275109D01*
X0032609Y0276234D01*
X0032000Y0277704D01*
X0032000Y0279296D01*
X0032609Y0280766D01*
X0033734Y0281891D01*
X0035204Y0282500D01*
X0036796Y0282500D01*
X0038266Y0281891D01*
X0039391Y0280766D01*
X0040000Y0279296D01*
X0040000Y0277704D01*
X0039391Y0276234D01*
X0038266Y0275109D01*
X0036796Y0274500D01*
X0037826Y0274927D02*
X0239100Y0274927D01*
X0239100Y0275725D02*
X0038882Y0275725D01*
X0039511Y0276524D02*
X0239100Y0276524D01*
X0239100Y0277322D02*
X0039842Y0277322D01*
X0040000Y0278121D02*
X0239100Y0278121D01*
X0239100Y0278919D02*
X0040000Y0278919D01*
X0039825Y0279718D02*
X0239100Y0279718D01*
X0239100Y0280516D02*
X0039494Y0280516D01*
X0038842Y0281315D02*
X0239100Y0281315D01*
X0239100Y0282113D02*
X0154069Y0282113D01*
X0153796Y0282000D02*
X0155266Y0282609D01*
X0156391Y0283734D01*
X0157000Y0285204D01*
X0157000Y0286796D01*
X0156391Y0288266D01*
X0155266Y0289391D01*
X0153796Y0290000D01*
X0152204Y0290000D01*
X0150734Y0289391D01*
X0149609Y0288266D01*
X0149000Y0286796D01*
X0149000Y0285204D01*
X0149609Y0283734D01*
X0150734Y0282609D01*
X0152204Y0282000D01*
X0153796Y0282000D01*
X0151931Y0282113D02*
X0037729Y0282113D01*
X0034271Y0282113D02*
X0027729Y0282113D01*
X0028266Y0281891D02*
X0026796Y0282500D01*
X0025204Y0282500D01*
X0023734Y0281891D01*
X0022609Y0280766D01*
X0022000Y0279296D01*
X0022000Y0277704D01*
X0022609Y0276234D01*
X0023734Y0275109D01*
X0025204Y0274500D01*
X0026796Y0274500D01*
X0028266Y0275109D01*
X0029391Y0276234D01*
X0030000Y0277704D01*
X0030000Y0279296D01*
X0029391Y0280766D01*
X0028266Y0281891D01*
X0028842Y0281315D02*
X0033158Y0281315D01*
X0032506Y0280516D02*
X0029494Y0280516D01*
X0029825Y0279718D02*
X0032175Y0279718D01*
X0032000Y0278919D02*
X0030000Y0278919D01*
X0030000Y0278121D02*
X0032000Y0278121D01*
X0032158Y0277322D02*
X0029842Y0277322D01*
X0029511Y0276524D02*
X0032489Y0276524D01*
X0033118Y0275725D02*
X0028882Y0275725D01*
X0027826Y0274927D02*
X0034174Y0274927D01*
X0033576Y0271733D02*
X0028424Y0271733D01*
X0029223Y0270934D02*
X0032777Y0270934D01*
X0032348Y0270136D02*
X0029652Y0270136D01*
X0029983Y0269337D02*
X0032017Y0269337D01*
X0032000Y0268539D02*
X0030000Y0268539D01*
X0030000Y0267740D02*
X0032000Y0267740D01*
X0032316Y0266941D02*
X0029684Y0266941D01*
X0029300Y0266143D02*
X0032700Y0266143D01*
X0033499Y0265344D02*
X0028501Y0265344D01*
X0025093Y0264546D02*
X0017439Y0264546D01*
X0017439Y0265344D02*
X0023499Y0265344D01*
X0022700Y0266143D02*
X0017439Y0266143D01*
X0017439Y0266941D02*
X0022316Y0266941D01*
X0022000Y0267740D02*
X0017439Y0267740D01*
X0017439Y0268539D02*
X0022000Y0268539D01*
X0022017Y0269337D02*
X0017439Y0269337D01*
X0017439Y0270136D02*
X0022348Y0270136D01*
X0022777Y0270934D02*
X0017439Y0270934D01*
X0017439Y0271733D02*
X0023576Y0271733D01*
X0024174Y0274927D02*
X0017439Y0274927D01*
X0017439Y0275725D02*
X0023118Y0275725D01*
X0022489Y0276524D02*
X0017439Y0276524D01*
X0017439Y0277322D02*
X0022158Y0277322D01*
X0022000Y0278121D02*
X0017439Y0278121D01*
X0017439Y0278919D02*
X0022000Y0278919D01*
X0022175Y0279718D02*
X0017439Y0279718D01*
X0017439Y0280516D02*
X0022506Y0280516D01*
X0023158Y0281315D02*
X0017439Y0281315D01*
X0017439Y0282113D02*
X0024271Y0282113D01*
X0017439Y0282912D02*
X0150431Y0282912D01*
X0149633Y0283710D02*
X0017439Y0283710D01*
X0017439Y0284509D02*
X0149288Y0284509D01*
X0149000Y0285307D02*
X0017439Y0285307D01*
X0017439Y0286106D02*
X0149000Y0286106D01*
X0149045Y0286904D02*
X0017439Y0286904D01*
X0017439Y0287703D02*
X0149376Y0287703D01*
X0149844Y0288501D02*
X0017439Y0288501D01*
X0017439Y0289300D02*
X0150643Y0289300D01*
X0155357Y0289300D02*
X0239100Y0289300D01*
X0239100Y0290098D02*
X0017439Y0290098D01*
X0017439Y0290897D02*
X0239100Y0290897D01*
X0239100Y0291695D02*
X0017439Y0291695D01*
X0017439Y0292494D02*
X0239100Y0292494D01*
X0239100Y0293292D02*
X0017439Y0293292D01*
X0017439Y0294091D02*
X0239100Y0294091D01*
X0239100Y0294889D02*
X0017439Y0294889D01*
X0017439Y0295688D02*
X0239100Y0295688D01*
X0239100Y0296486D02*
X0017439Y0296486D01*
X0017439Y0297285D02*
X0239100Y0297285D01*
X0239100Y0298083D02*
X0017439Y0298083D01*
X0017439Y0298882D02*
X0239100Y0298882D01*
X0239100Y0299680D02*
X0017439Y0299680D01*
X0017439Y0300479D02*
X0239100Y0300479D01*
X0239100Y0301277D02*
X0017439Y0301277D01*
X0017439Y0302076D02*
X0239100Y0302076D01*
X0239100Y0302874D02*
X0017439Y0302874D01*
X0017439Y0303673D02*
X0239100Y0303673D01*
X0239100Y0304472D02*
X0017439Y0304472D01*
X0017439Y0305270D02*
X0239100Y0305270D01*
X0239100Y0306069D02*
X0017439Y0306069D01*
X0017439Y0306867D02*
X0239100Y0306867D01*
X0239100Y0307666D02*
X0017439Y0307666D01*
X0017439Y0308464D02*
X0239100Y0308464D01*
X0239100Y0309263D02*
X0017439Y0309263D01*
X0017439Y0310061D02*
X0239100Y0310061D01*
X0239100Y0310860D02*
X0017439Y0310860D01*
X0017439Y0311658D02*
X0239100Y0311658D01*
X0239100Y0312457D02*
X0017439Y0312457D01*
X0017439Y0313255D02*
X0028560Y0313255D01*
X0027426Y0313725D02*
X0030256Y0312553D01*
X0033319Y0312553D01*
X0036149Y0313725D01*
X0038314Y0315891D01*
X0039487Y0318720D01*
X0039487Y0321783D01*
X0038314Y0324613D01*
X0036149Y0326779D01*
X0033319Y0327951D01*
X0030256Y0327951D01*
X0027426Y0326779D01*
X0025260Y0324613D01*
X0024088Y0321783D01*
X0024088Y0318720D01*
X0025260Y0315891D01*
X0027426Y0313725D01*
X0027097Y0314054D02*
X0017439Y0314054D01*
X0017439Y0314852D02*
X0026299Y0314852D01*
X0025500Y0315651D02*
X0017439Y0315651D01*
X0017439Y0316449D02*
X0025029Y0316449D01*
X0024698Y0317248D02*
X0017439Y0317248D01*
X0017439Y0318046D02*
X0024367Y0318046D01*
X0024088Y0318845D02*
X0017439Y0318845D01*
X0017439Y0319643D02*
X0024088Y0319643D01*
X0024088Y0320442D02*
X0017439Y0320442D01*
X0017439Y0321240D02*
X0024088Y0321240D01*
X0024194Y0322039D02*
X0017439Y0322039D01*
X0017439Y0322837D02*
X0024525Y0322837D01*
X0024855Y0323636D02*
X0017466Y0323636D01*
X0018265Y0324434D02*
X0025186Y0324434D01*
X0025880Y0325233D02*
X0019063Y0325233D01*
X0019862Y0326031D02*
X0026678Y0326031D01*
X0027549Y0326830D02*
X0020660Y0326830D01*
X0021459Y0327628D02*
X0029477Y0327628D01*
X0034098Y0327628D02*
X0239100Y0327628D01*
X0239100Y0326830D02*
X0036026Y0326830D01*
X0036896Y0326031D02*
X0239100Y0326031D01*
X0239100Y0325233D02*
X0037695Y0325233D01*
X0038389Y0324434D02*
X0239100Y0324434D01*
X0239100Y0323636D02*
X0038719Y0323636D01*
X0039050Y0322837D02*
X0239100Y0322837D01*
X0239100Y0322039D02*
X0039381Y0322039D01*
X0039487Y0321240D02*
X0239100Y0321240D01*
X0239100Y0320442D02*
X0039487Y0320442D01*
X0039487Y0319643D02*
X0239100Y0319643D01*
X0239100Y0318845D02*
X0039487Y0318845D01*
X0039207Y0318046D02*
X0239100Y0318046D01*
X0239100Y0317248D02*
X0038877Y0317248D01*
X0038546Y0316449D02*
X0239100Y0316449D01*
X0239100Y0315651D02*
X0038074Y0315651D01*
X0037276Y0314852D02*
X0239100Y0314852D01*
X0239100Y0314054D02*
X0036477Y0314054D01*
X0035015Y0313255D02*
X0239100Y0313255D01*
X0240700Y0313255D02*
X0312025Y0313255D01*
X0310891Y0313725D02*
X0313720Y0312553D01*
X0316783Y0312553D01*
X0319613Y0313725D01*
X0321779Y0315891D01*
X0322951Y0318720D01*
X0322951Y0321783D01*
X0321779Y0324613D01*
X0319613Y0326779D01*
X0316783Y0327951D01*
X0313720Y0327951D01*
X0310891Y0326779D01*
X0308725Y0324613D01*
X0307553Y0321783D01*
X0307553Y0318720D01*
X0308725Y0315891D01*
X0310891Y0313725D01*
X0310562Y0314054D02*
X0240700Y0314054D01*
X0240700Y0314852D02*
X0309763Y0314852D01*
X0308965Y0315651D02*
X0240700Y0315651D01*
X0240700Y0316449D02*
X0308494Y0316449D01*
X0308163Y0317248D02*
X0240700Y0317248D01*
X0240700Y0318046D02*
X0307832Y0318046D01*
X0307553Y0318845D02*
X0240700Y0318845D01*
X0240700Y0319643D02*
X0307553Y0319643D01*
X0307553Y0320442D02*
X0240700Y0320442D01*
X0240700Y0321240D02*
X0307553Y0321240D01*
X0307659Y0322039D02*
X0240700Y0322039D01*
X0240700Y0322837D02*
X0307989Y0322837D01*
X0308320Y0323636D02*
X0240700Y0323636D01*
X0240700Y0324434D02*
X0308651Y0324434D01*
X0309344Y0325233D02*
X0240700Y0325233D01*
X0240700Y0326031D02*
X0310143Y0326031D01*
X0311013Y0326830D02*
X0240700Y0326830D01*
X0240700Y0327628D02*
X0312941Y0327628D01*
X0317563Y0327628D02*
X0325581Y0327628D01*
X0326379Y0326830D02*
X0319491Y0326830D01*
X0320361Y0326031D02*
X0327178Y0326031D01*
X0327976Y0325233D02*
X0321159Y0325233D01*
X0321853Y0324434D02*
X0328775Y0324434D01*
X0329573Y0323636D02*
X0322184Y0323636D01*
X0322515Y0322837D02*
X0329600Y0322837D01*
X0329600Y0322039D02*
X0322845Y0322039D01*
X0322951Y0321240D02*
X0329600Y0321240D01*
X0329600Y0320442D02*
X0322951Y0320442D01*
X0322951Y0319643D02*
X0329600Y0319643D01*
X0329600Y0318845D02*
X0322951Y0318845D01*
X0322672Y0318046D02*
X0329600Y0318046D01*
X0329600Y0317248D02*
X0322341Y0317248D01*
X0322010Y0316449D02*
X0329600Y0316449D01*
X0329600Y0315651D02*
X0321539Y0315651D01*
X0320740Y0314852D02*
X0329600Y0314852D01*
X0329600Y0314054D02*
X0319942Y0314054D01*
X0318479Y0313255D02*
X0329600Y0313255D01*
X0329600Y0312457D02*
X0240700Y0312457D01*
X0240700Y0311658D02*
X0329600Y0311658D01*
X0329600Y0310860D02*
X0240700Y0310860D01*
X0240700Y0310061D02*
X0329600Y0310061D01*
X0329600Y0309263D02*
X0240700Y0309263D01*
X0240700Y0308464D02*
X0329600Y0308464D01*
X0329600Y0307666D02*
X0240700Y0307666D01*
X0240700Y0306867D02*
X0329600Y0306867D01*
X0329600Y0306069D02*
X0240700Y0306069D01*
X0240700Y0305270D02*
X0329600Y0305270D01*
X0329600Y0304472D02*
X0240700Y0304472D01*
X0240700Y0303673D02*
X0329600Y0303673D01*
X0329600Y0302874D02*
X0240700Y0302874D01*
X0240700Y0302076D02*
X0329600Y0302076D01*
X0329600Y0301277D02*
X0240700Y0301277D01*
X0240700Y0300479D02*
X0329600Y0300479D01*
X0329600Y0299680D02*
X0240700Y0299680D01*
X0240700Y0298882D02*
X0329600Y0298882D01*
X0329600Y0298083D02*
X0240700Y0298083D01*
X0240700Y0297285D02*
X0275195Y0297285D01*
X0275361Y0297451D02*
X0274249Y0296339D01*
X0273647Y0294886D01*
X0273647Y0293314D01*
X0274249Y0291861D01*
X0275361Y0290749D01*
X0276814Y0290147D01*
X0278386Y0290147D01*
X0279839Y0290749D01*
X0280951Y0291861D01*
X0281553Y0293314D01*
X0281553Y0294886D01*
X0280951Y0296339D01*
X0279839Y0297451D01*
X0278386Y0298053D01*
X0276814Y0298053D01*
X0275361Y0297451D01*
X0274396Y0296486D02*
X0240700Y0296486D01*
X0240700Y0295688D02*
X0273979Y0295688D01*
X0273649Y0294889D02*
X0240700Y0294889D01*
X0240700Y0294091D02*
X0273647Y0294091D01*
X0273656Y0293292D02*
X0240700Y0293292D01*
X0240700Y0292494D02*
X0273987Y0292494D01*
X0274415Y0291695D02*
X0240700Y0291695D01*
X0240700Y0290897D02*
X0275213Y0290897D01*
X0279987Y0290897D02*
X0329600Y0290897D01*
X0329600Y0291695D02*
X0280785Y0291695D01*
X0281213Y0292494D02*
X0329600Y0292494D01*
X0329600Y0293292D02*
X0281544Y0293292D01*
X0281553Y0294091D02*
X0329600Y0294091D01*
X0329600Y0294889D02*
X0281551Y0294889D01*
X0281221Y0295688D02*
X0329600Y0295688D01*
X0329600Y0296486D02*
X0280804Y0296486D01*
X0280005Y0297285D02*
X0329600Y0297285D01*
X0329600Y0290098D02*
X0240700Y0290098D01*
X0240700Y0289300D02*
X0329600Y0289300D01*
X0329600Y0288501D02*
X0240700Y0288501D01*
X0240700Y0287703D02*
X0329600Y0287703D01*
X0329600Y0286904D02*
X0240700Y0286904D01*
X0240700Y0286106D02*
X0329600Y0286106D01*
X0329600Y0285307D02*
X0240700Y0285307D01*
X0240700Y0284509D02*
X0329600Y0284509D01*
X0329600Y0283710D02*
X0240700Y0283710D01*
X0240700Y0282912D02*
X0329600Y0282912D01*
X0329600Y0282113D02*
X0240700Y0282113D01*
X0240700Y0281315D02*
X0329600Y0281315D01*
X0329600Y0280516D02*
X0240700Y0280516D01*
X0240700Y0279718D02*
X0329600Y0279718D01*
X0329600Y0278919D02*
X0240700Y0278919D01*
X0240700Y0278121D02*
X0329600Y0278121D01*
X0329600Y0277322D02*
X0240700Y0277322D01*
X0240700Y0276524D02*
X0329600Y0276524D01*
X0329600Y0275725D02*
X0240700Y0275725D01*
X0240700Y0274927D02*
X0329600Y0274927D01*
X0329600Y0274128D02*
X0240700Y0274128D01*
X0240700Y0273330D02*
X0329600Y0273330D01*
X0329600Y0272531D02*
X0240700Y0272531D01*
X0240700Y0271733D02*
X0329600Y0271733D01*
X0329600Y0270934D02*
X0240700Y0270934D01*
X0240700Y0270136D02*
X0329600Y0270136D01*
X0329600Y0269337D02*
X0240700Y0269337D01*
X0240700Y0268539D02*
X0329600Y0268539D01*
X0329600Y0267740D02*
X0240700Y0267740D01*
X0240700Y0266941D02*
X0329600Y0266941D01*
X0329600Y0266143D02*
X0240700Y0266143D01*
X0240700Y0265344D02*
X0329600Y0265344D01*
X0329600Y0264546D02*
X0240700Y0264546D01*
X0240700Y0263747D02*
X0329600Y0263747D01*
X0329600Y0262949D02*
X0240700Y0262949D01*
X0240700Y0262150D02*
X0329600Y0262150D01*
X0329600Y0261352D02*
X0240700Y0261352D01*
X0240700Y0260553D02*
X0329600Y0260553D01*
X0329600Y0259755D02*
X0240700Y0259755D01*
X0240700Y0258956D02*
X0329600Y0258956D01*
X0329600Y0258158D02*
X0240700Y0258158D01*
X0240700Y0257359D02*
X0329600Y0257359D01*
X0329600Y0256561D02*
X0240700Y0256561D01*
X0240700Y0255762D02*
X0329600Y0255762D01*
X0329600Y0254964D02*
X0240700Y0254964D01*
X0240700Y0254165D02*
X0329600Y0254165D01*
X0329600Y0253367D02*
X0240700Y0253367D01*
X0240700Y0252568D02*
X0329600Y0252568D01*
X0329600Y0251770D02*
X0240700Y0251770D01*
X0240700Y0250971D02*
X0329600Y0250971D01*
X0329600Y0250173D02*
X0240700Y0250173D01*
X0240700Y0249374D02*
X0329600Y0249374D01*
X0329600Y0248576D02*
X0240700Y0248576D01*
X0240700Y0247777D02*
X0329600Y0247777D01*
X0329600Y0246979D02*
X0294850Y0246979D01*
X0294828Y0247000D02*
X0293172Y0247000D01*
X0292000Y0245828D01*
X0292000Y0244172D01*
X0293172Y0243000D01*
X0294828Y0243000D01*
X0296000Y0244172D01*
X0296000Y0245828D01*
X0294828Y0247000D01*
X0295648Y0246180D02*
X0329600Y0246180D01*
X0329600Y0245382D02*
X0296000Y0245382D01*
X0296000Y0244583D02*
X0329600Y0244583D01*
X0329600Y0243785D02*
X0295613Y0243785D01*
X0292387Y0243785D02*
X0273613Y0243785D01*
X0274000Y0244172D02*
X0272828Y0243000D01*
X0271172Y0243000D01*
X0270000Y0244172D01*
X0270000Y0245828D01*
X0271172Y0247000D01*
X0272828Y0247000D01*
X0274000Y0245828D01*
X0274000Y0244172D01*
X0274000Y0244583D02*
X0292000Y0244583D01*
X0292000Y0245382D02*
X0274000Y0245382D01*
X0273648Y0246180D02*
X0292352Y0246180D01*
X0293150Y0246979D02*
X0272850Y0246979D01*
X0271150Y0246979D02*
X0256850Y0246979D01*
X0256828Y0247000D02*
X0255172Y0247000D01*
X0254000Y0245828D01*
X0254000Y0244172D01*
X0255172Y0243000D01*
X0256828Y0243000D01*
X0258000Y0244172D01*
X0258000Y0245828D01*
X0256828Y0247000D01*
X0257648Y0246180D02*
X0270352Y0246180D01*
X0270000Y0245382D02*
X0258000Y0245382D01*
X0258000Y0244583D02*
X0270000Y0244583D01*
X0270387Y0243785D02*
X0257613Y0243785D01*
X0256828Y0241000D02*
X0255172Y0241000D01*
X0254000Y0239828D01*
X0254000Y0238172D01*
X0255172Y0237000D01*
X0256828Y0237000D01*
X0258000Y0238172D01*
X0258000Y0239828D01*
X0256828Y0241000D01*
X0257238Y0240591D02*
X0270762Y0240591D01*
X0270000Y0239792D02*
X0258000Y0239792D01*
X0258000Y0238994D02*
X0270000Y0238994D01*
X0270000Y0238195D02*
X0258000Y0238195D01*
X0257225Y0237397D02*
X0270775Y0237397D01*
X0270374Y0234203D02*
X0257626Y0234203D01*
X0258000Y0233828D02*
X0256828Y0235000D01*
X0255172Y0235000D01*
X0254000Y0233828D01*
X0254000Y0232172D01*
X0255172Y0231000D01*
X0256828Y0231000D01*
X0258000Y0232172D01*
X0258000Y0233828D01*
X0258000Y0233404D02*
X0270000Y0233404D01*
X0270000Y0232605D02*
X0258000Y0232605D01*
X0257635Y0231807D02*
X0270365Y0231807D01*
X0271163Y0231008D02*
X0256837Y0231008D01*
X0255163Y0231008D02*
X0244837Y0231008D01*
X0245635Y0231807D02*
X0254365Y0231807D01*
X0254000Y0232605D02*
X0246000Y0232605D01*
X0246000Y0233404D02*
X0254000Y0233404D01*
X0254374Y0234203D02*
X0245626Y0234203D01*
X0240700Y0237397D02*
X0254775Y0237397D01*
X0254000Y0238195D02*
X0240700Y0238195D01*
X0240700Y0238994D02*
X0254000Y0238994D01*
X0254000Y0239792D02*
X0240700Y0239792D01*
X0240700Y0240591D02*
X0254762Y0240591D01*
X0254387Y0243785D02*
X0240700Y0243785D01*
X0240700Y0244583D02*
X0254000Y0244583D01*
X0254000Y0245382D02*
X0240700Y0245382D01*
X0240700Y0246180D02*
X0254352Y0246180D01*
X0255150Y0246979D02*
X0240700Y0246979D01*
X0239100Y0250173D02*
X0054100Y0250173D01*
X0054100Y0250971D02*
X0239100Y0250971D01*
X0239100Y0251770D02*
X0054100Y0251770D01*
X0053360Y0252568D02*
X0239100Y0252568D01*
X0235150Y0246979D02*
X0216850Y0246979D01*
X0216828Y0247000D02*
X0215172Y0247000D01*
X0214000Y0245828D01*
X0214000Y0244172D01*
X0215172Y0243000D01*
X0216828Y0243000D01*
X0218000Y0244172D01*
X0218000Y0245828D01*
X0216828Y0247000D01*
X0217648Y0246180D02*
X0234352Y0246180D01*
X0234000Y0245382D02*
X0218000Y0245382D01*
X0218000Y0244583D02*
X0234000Y0244583D01*
X0234387Y0243785D02*
X0217613Y0243785D01*
X0216828Y0241000D02*
X0215172Y0241000D01*
X0214000Y0239828D01*
X0214000Y0238172D01*
X0215172Y0237000D01*
X0216828Y0237000D01*
X0218000Y0238172D01*
X0218000Y0239828D01*
X0216828Y0241000D01*
X0217238Y0240591D02*
X0234762Y0240591D01*
X0235172Y0241000D02*
X0234000Y0239828D01*
X0234000Y0238172D01*
X0235172Y0237000D01*
X0236828Y0237000D01*
X0238000Y0238172D01*
X0238000Y0239828D01*
X0236828Y0241000D01*
X0235172Y0241000D01*
X0234000Y0239792D02*
X0218000Y0239792D01*
X0218000Y0238994D02*
X0234000Y0238994D01*
X0234000Y0238195D02*
X0218000Y0238195D01*
X0217225Y0237397D02*
X0234775Y0237397D01*
X0237225Y0237397D02*
X0239100Y0237397D01*
X0239100Y0238195D02*
X0238000Y0238195D01*
X0238000Y0238994D02*
X0239100Y0238994D01*
X0239100Y0239792D02*
X0238000Y0239792D01*
X0237238Y0240591D02*
X0239100Y0240591D01*
X0240700Y0241389D02*
X0329600Y0241389D01*
X0329600Y0240591D02*
X0301238Y0240591D01*
X0302000Y0239792D02*
X0329600Y0239792D01*
X0329600Y0238994D02*
X0302000Y0238994D01*
X0302000Y0238195D02*
X0329600Y0238195D01*
X0329600Y0237397D02*
X0301225Y0237397D01*
X0298762Y0240591D02*
X0273238Y0240591D01*
X0274000Y0232605D02*
X0284777Y0232605D01*
X0284000Y0231807D02*
X0273635Y0231807D01*
X0272837Y0231008D02*
X0284000Y0231008D01*
X0284000Y0230210D02*
X0277618Y0230210D01*
X0275156Y0227016D02*
X0240700Y0227016D01*
X0239100Y0232605D02*
X0017439Y0232605D01*
X0017439Y0231807D02*
X0023650Y0231807D01*
X0022852Y0231008D02*
X0017439Y0231008D01*
X0017439Y0230210D02*
X0022379Y0230210D01*
X0022048Y0229411D02*
X0017439Y0229411D01*
X0017439Y0228613D02*
X0022000Y0228613D01*
X0022000Y0227814D02*
X0017439Y0227814D01*
X0017439Y0227016D02*
X0022285Y0227016D01*
X0022626Y0226217D02*
X0017439Y0226217D01*
X0017439Y0225419D02*
X0023424Y0225419D01*
X0024914Y0224620D02*
X0017439Y0224620D01*
X0017439Y0223822D02*
X0208300Y0223822D01*
X0208300Y0224620D02*
X0037086Y0224620D01*
X0038576Y0225419D02*
X0098753Y0225419D01*
X0098000Y0226217D02*
X0039374Y0226217D01*
X0039715Y0227016D02*
X0098000Y0227016D01*
X0098000Y0227814D02*
X0040000Y0227814D01*
X0040000Y0228613D02*
X0098785Y0228613D01*
X0101247Y0225419D02*
X0208300Y0225419D01*
X0209048Y0223023D02*
X0017439Y0223023D01*
X0017439Y0222225D02*
X0024540Y0222225D01*
X0023269Y0221426D02*
X0017439Y0221426D01*
X0017439Y0220628D02*
X0022552Y0220628D01*
X0022221Y0219829D02*
X0017439Y0219829D01*
X0017439Y0219031D02*
X0022000Y0219031D01*
X0022000Y0218232D02*
X0017439Y0218232D01*
X0017439Y0217434D02*
X0022112Y0217434D01*
X0022443Y0216635D02*
X0017439Y0216635D01*
X0017439Y0215837D02*
X0023006Y0215837D01*
X0017439Y0233404D02*
X0239100Y0233404D01*
X0239100Y0234203D02*
X0207831Y0234203D01*
X0208600Y0235001D02*
X0239100Y0235001D01*
X0239100Y0235800D02*
X0208600Y0235800D01*
X0208600Y0236598D02*
X0239100Y0236598D01*
X0240700Y0242188D02*
X0329600Y0242188D01*
X0329600Y0242986D02*
X0240700Y0242986D01*
X0239100Y0219829D02*
X0237900Y0219829D01*
X0237900Y0219031D02*
X0239100Y0219031D01*
X0239100Y0218232D02*
X0237561Y0218232D01*
X0236762Y0217434D02*
X0239100Y0217434D01*
X0214775Y0237397D02*
X0207832Y0237397D01*
X0205368Y0237397D02*
X0199225Y0237397D01*
X0198828Y0237000D02*
X0200000Y0238172D01*
X0200000Y0239828D01*
X0198828Y0241000D01*
X0197172Y0241000D01*
X0196000Y0239828D01*
X0196000Y0238172D01*
X0197172Y0237000D01*
X0198828Y0237000D01*
X0200000Y0238195D02*
X0214000Y0238195D01*
X0214000Y0238994D02*
X0200000Y0238994D01*
X0200000Y0239792D02*
X0214000Y0239792D01*
X0214762Y0240591D02*
X0199238Y0240591D01*
X0198828Y0243000D02*
X0197172Y0243000D01*
X0196000Y0244172D01*
X0196000Y0245828D01*
X0197172Y0247000D01*
X0198828Y0247000D01*
X0200000Y0245828D01*
X0200000Y0244172D01*
X0198828Y0243000D01*
X0199613Y0243785D02*
X0214387Y0243785D01*
X0214000Y0244583D02*
X0200000Y0244583D01*
X0200000Y0245382D02*
X0214000Y0245382D01*
X0214352Y0246180D02*
X0199648Y0246180D01*
X0198850Y0246979D02*
X0215150Y0246979D01*
X0197150Y0246979D02*
X0178850Y0246979D01*
X0179648Y0246180D02*
X0196352Y0246180D01*
X0196000Y0245382D02*
X0180000Y0245382D01*
X0180000Y0244583D02*
X0196000Y0244583D01*
X0196387Y0243785D02*
X0179613Y0243785D01*
X0179238Y0240591D02*
X0196762Y0240591D01*
X0196000Y0239792D02*
X0180000Y0239792D01*
X0180000Y0238994D02*
X0196000Y0238994D01*
X0196000Y0238195D02*
X0180000Y0238195D01*
X0179225Y0237397D02*
X0196775Y0237397D01*
X0183658Y0211844D02*
X0145572Y0211844D01*
X0145529Y0211046D02*
X0182726Y0211046D01*
X0182351Y0210247D02*
X0145198Y0210247D01*
X0144468Y0209449D02*
X0182228Y0209449D01*
X0190000Y0202262D02*
X0096200Y0202262D01*
X0096200Y0201464D02*
X0190000Y0201464D01*
X0190000Y0200665D02*
X0096193Y0200665D01*
X0095395Y0199867D02*
X0125738Y0199867D01*
X0128862Y0199867D02*
X0190000Y0199867D01*
X0190000Y0199068D02*
X0129300Y0199068D01*
X0129300Y0198270D02*
X0154241Y0198270D01*
X0153443Y0197471D02*
X0128999Y0197471D01*
X0128201Y0196672D02*
X0153400Y0196672D01*
X0156559Y0198270D02*
X0190000Y0198270D01*
X0190000Y0187090D02*
X0164429Y0187090D01*
X0164772Y0186292D02*
X0190000Y0186292D01*
X0190000Y0185493D02*
X0164872Y0185493D01*
X0164766Y0184695D02*
X0190000Y0184695D01*
X0190000Y0183896D02*
X0164416Y0183896D01*
X0163543Y0183098D02*
X0186178Y0183098D01*
X0189822Y0183098D02*
X0190000Y0183098D01*
X0158361Y0179904D02*
X0145672Y0179904D01*
X0145654Y0179105D02*
X0157486Y0179105D01*
X0157134Y0178307D02*
X0145323Y0178307D01*
X0144628Y0177508D02*
X0157028Y0177508D01*
X0157127Y0176710D02*
X0147142Y0176710D01*
X0148308Y0175911D02*
X0157469Y0175911D01*
X0219387Y0159941D02*
X0299140Y0159941D01*
X0298590Y0156747D02*
X0219075Y0156747D01*
X0219874Y0157545D02*
X0329600Y0157545D01*
X0329600Y0156747D02*
X0323410Y0156747D01*
X0324208Y0155948D02*
X0329600Y0155948D01*
X0329600Y0155150D02*
X0324646Y0155150D01*
X0324977Y0154351D02*
X0329600Y0154351D01*
X0329600Y0153553D02*
X0325000Y0153553D01*
X0325000Y0152754D02*
X0329600Y0152754D01*
X0329600Y0151956D02*
X0324690Y0151956D01*
X0324314Y0151157D02*
X0329600Y0151157D01*
X0329600Y0150359D02*
X0323516Y0150359D01*
X0322860Y0159941D02*
X0329600Y0159941D01*
X0329600Y0160739D02*
X0323896Y0160739D01*
X0324517Y0161538D02*
X0329600Y0161538D01*
X0329600Y0162337D02*
X0324848Y0162337D01*
X0325000Y0163135D02*
X0329600Y0163135D01*
X0329600Y0163934D02*
X0325000Y0163934D01*
X0324819Y0164732D02*
X0329600Y0164732D01*
X0329600Y0165531D02*
X0324488Y0165531D01*
X0323828Y0166329D02*
X0329600Y0166329D01*
X0329600Y0159142D02*
X0220000Y0159142D01*
X0220000Y0158344D02*
X0329600Y0158344D01*
X0329600Y0179904D02*
X0322770Y0179904D01*
X0323859Y0180702D02*
X0329600Y0180702D01*
X0329600Y0181501D02*
X0324501Y0181501D01*
X0324832Y0182299D02*
X0329600Y0182299D01*
X0329600Y0183098D02*
X0325000Y0183098D01*
X0325000Y0183896D02*
X0329600Y0183896D01*
X0329600Y0184695D02*
X0324835Y0184695D01*
X0324504Y0185493D02*
X0329600Y0185493D01*
X0329600Y0186292D02*
X0323865Y0186292D01*
X0322785Y0187090D02*
X0329600Y0187090D01*
X0329600Y0131993D02*
X0223927Y0131993D01*
X0224505Y0131195D02*
X0329600Y0131195D01*
X0329600Y0130396D02*
X0224772Y0130396D01*
X0224772Y0129598D02*
X0329600Y0129598D01*
X0329600Y0128799D02*
X0224503Y0128799D01*
X0223920Y0128001D02*
X0329600Y0128001D01*
X0329600Y0084082D02*
X0191600Y0084082D01*
X0191600Y0083284D02*
X0329600Y0083284D01*
X0329600Y0082485D02*
X0191600Y0082485D01*
X0191600Y0081687D02*
X0329600Y0081687D01*
X0329600Y0080888D02*
X0191600Y0080888D01*
X0191600Y0080090D02*
X0329600Y0080090D01*
X0329600Y0079291D02*
X0191600Y0079291D01*
X0191600Y0078493D02*
X0329600Y0078493D01*
X0329600Y0077694D02*
X0191600Y0077694D01*
X0191600Y0076896D02*
X0329600Y0076896D01*
X0329600Y0076097D02*
X0191600Y0076097D01*
X0191600Y0075299D02*
X0329600Y0075299D01*
X0329600Y0074500D02*
X0191600Y0074500D01*
X0191600Y0073702D02*
X0329600Y0073702D01*
X0329600Y0072903D02*
X0191600Y0072903D01*
X0191600Y0072105D02*
X0329600Y0072105D01*
X0329600Y0071306D02*
X0191600Y0071306D01*
X0191600Y0070508D02*
X0207188Y0070508D01*
X0207530Y0070850D02*
X0206750Y0070070D01*
X0206328Y0069051D01*
X0206328Y0067949D01*
X0206750Y0066930D01*
X0207530Y0066150D01*
X0208549Y0065728D01*
X0209651Y0065728D01*
X0210670Y0066150D01*
X0211450Y0066930D01*
X0211872Y0067949D01*
X0211872Y0069051D01*
X0211450Y0070070D01*
X0210670Y0070850D01*
X0209651Y0071272D01*
X0208549Y0071272D01*
X0207530Y0070850D01*
X0206601Y0069709D02*
X0191600Y0069709D01*
X0191600Y0068911D02*
X0206328Y0068911D01*
X0206328Y0068112D02*
X0191600Y0068112D01*
X0191600Y0067314D02*
X0206591Y0067314D01*
X0207165Y0066515D02*
X0191600Y0066515D01*
X0191600Y0065717D02*
X0241710Y0065717D01*
X0241719Y0065723D02*
X0241164Y0065320D01*
X0240680Y0064836D01*
X0240277Y0064281D01*
X0239966Y0063671D01*
X0239754Y0063019D01*
X0239656Y0062400D01*
X0243600Y0062400D01*
X0243600Y0066344D01*
X0242981Y0066246D01*
X0242329Y0066034D01*
X0241719Y0065723D01*
X0240762Y0064918D02*
X0216181Y0064918D01*
X0216051Y0064972D02*
X0214949Y0064972D01*
X0213930Y0064550D01*
X0213150Y0063770D01*
X0212728Y0062751D01*
X0212728Y0061649D01*
X0213150Y0060630D01*
X0213930Y0059850D01*
X0214949Y0059428D01*
X0216051Y0059428D01*
X0217070Y0059850D01*
X0217850Y0060630D01*
X0218272Y0061649D01*
X0218272Y0062751D01*
X0217850Y0063770D01*
X0217070Y0064550D01*
X0216051Y0064972D01*
X0214819Y0064918D02*
X0191600Y0064918D01*
X0191600Y0064120D02*
X0213500Y0064120D01*
X0212964Y0063321D02*
X0191600Y0063321D01*
X0191600Y0062523D02*
X0212728Y0062523D01*
X0212728Y0061724D02*
X0191600Y0061724D01*
X0191600Y0060926D02*
X0213028Y0060926D01*
X0213653Y0060127D02*
X0191600Y0060127D01*
X0191600Y0059329D02*
X0240561Y0059329D01*
X0240680Y0059164D02*
X0241164Y0058680D01*
X0241719Y0058277D01*
X0242329Y0057966D01*
X0242981Y0057754D01*
X0243600Y0057656D01*
X0243600Y0061600D01*
X0244400Y0061600D01*
X0244400Y0062400D01*
X0248344Y0062400D01*
X0248246Y0063019D01*
X0248034Y0063671D01*
X0247723Y0064281D01*
X0247320Y0064836D01*
X0246836Y0065320D01*
X0246281Y0065723D01*
X0245671Y0066034D01*
X0245019Y0066246D01*
X0244400Y0066344D01*
X0244400Y0062400D01*
X0243600Y0062400D01*
X0243600Y0061600D01*
X0239656Y0061600D01*
X0239754Y0060981D01*
X0239966Y0060329D01*
X0240277Y0059719D01*
X0240680Y0059164D01*
X0241371Y0058530D02*
X0210093Y0058530D01*
X0209751Y0058672D02*
X0208649Y0058672D01*
X0207630Y0058250D01*
X0206850Y0057470D01*
X0206428Y0056451D01*
X0206428Y0055349D01*
X0206850Y0054330D01*
X0207630Y0053550D01*
X0208649Y0053128D01*
X0209751Y0053128D01*
X0210770Y0053550D01*
X0211550Y0054330D01*
X0211972Y0055349D01*
X0211972Y0056451D01*
X0211550Y0057470D01*
X0210770Y0058250D01*
X0209751Y0058672D01*
X0208307Y0058530D02*
X0191600Y0058530D01*
X0191600Y0057732D02*
X0207112Y0057732D01*
X0206628Y0056933D02*
X0191600Y0056933D01*
X0191600Y0056134D02*
X0206428Y0056134D01*
X0206434Y0055336D02*
X0191600Y0055336D01*
X0191600Y0054537D02*
X0206764Y0054537D01*
X0207441Y0053739D02*
X0191600Y0053739D01*
X0191600Y0052940D02*
X0329600Y0052940D01*
X0329600Y0052142D02*
X0191600Y0052142D01*
X0191600Y0051343D02*
X0329600Y0051343D01*
X0329600Y0050545D02*
X0191600Y0050545D01*
X0191600Y0049746D02*
X0329600Y0049746D01*
X0329600Y0048948D02*
X0191600Y0048948D01*
X0191600Y0048149D02*
X0329600Y0048149D01*
X0329600Y0047351D02*
X0191600Y0047351D01*
X0191600Y0046552D02*
X0329600Y0046552D01*
X0329600Y0045754D02*
X0191600Y0045754D01*
X0191600Y0044955D02*
X0329600Y0044955D01*
X0329600Y0044157D02*
X0317580Y0044157D01*
X0316783Y0044487D02*
X0313720Y0044487D01*
X0310891Y0043314D01*
X0308725Y0041149D01*
X0307553Y0038319D01*
X0307553Y0035256D01*
X0308725Y0032426D01*
X0310891Y0030260D01*
X0313720Y0029088D01*
X0316783Y0029088D01*
X0319613Y0030260D01*
X0321779Y0032426D01*
X0322951Y0035256D01*
X0322951Y0038319D01*
X0321779Y0041149D01*
X0319613Y0043314D01*
X0316783Y0044487D01*
X0319507Y0043358D02*
X0329600Y0043358D01*
X0329600Y0042560D02*
X0320368Y0042560D01*
X0321166Y0041761D02*
X0329600Y0041761D01*
X0329600Y0040963D02*
X0321856Y0040963D01*
X0322187Y0040164D02*
X0329600Y0040164D01*
X0329600Y0039366D02*
X0322518Y0039366D01*
X0322848Y0038567D02*
X0329600Y0038567D01*
X0329600Y0037769D02*
X0322951Y0037769D01*
X0322951Y0036970D02*
X0329600Y0036970D01*
X0329600Y0036172D02*
X0322951Y0036172D01*
X0322951Y0035373D02*
X0329600Y0035373D01*
X0329600Y0034575D02*
X0322669Y0034575D01*
X0322338Y0033776D02*
X0329600Y0033776D01*
X0329147Y0032978D02*
X0322007Y0032978D01*
X0321532Y0032179D02*
X0328349Y0032179D01*
X0327550Y0031381D02*
X0320734Y0031381D01*
X0319935Y0030582D02*
X0326752Y0030582D01*
X0325953Y0029784D02*
X0318462Y0029784D01*
X0321961Y0025791D02*
X0191600Y0025791D01*
X0191600Y0024993D02*
X0321162Y0024993D01*
X0320364Y0024194D02*
X0191600Y0024194D01*
X0191600Y0023396D02*
X0319565Y0023396D01*
X0318767Y0022597D02*
X0191600Y0022597D01*
X0190000Y0022597D02*
X0028273Y0022597D01*
X0027474Y0023396D02*
X0190000Y0023396D01*
X0190000Y0024194D02*
X0026676Y0024194D01*
X0025877Y0024993D02*
X0190000Y0024993D01*
X0190000Y0025791D02*
X0025079Y0025791D01*
X0024280Y0026590D02*
X0190000Y0026590D01*
X0190000Y0027388D02*
X0023482Y0027388D01*
X0022683Y0028187D02*
X0190000Y0028187D01*
X0190000Y0028985D02*
X0021885Y0028985D01*
X0021086Y0029784D02*
X0028577Y0029784D01*
X0027426Y0030260D02*
X0030256Y0029088D01*
X0033319Y0029088D01*
X0036149Y0030260D01*
X0038314Y0032426D01*
X0039487Y0035256D01*
X0039487Y0038319D01*
X0038314Y0041149D01*
X0036149Y0043314D01*
X0033319Y0044487D01*
X0030256Y0044487D01*
X0027426Y0043314D01*
X0025260Y0041149D01*
X0024088Y0038319D01*
X0024088Y0035256D01*
X0025260Y0032426D01*
X0027426Y0030260D01*
X0027104Y0030582D02*
X0020288Y0030582D01*
X0019489Y0031381D02*
X0026306Y0031381D01*
X0025507Y0032179D02*
X0018690Y0032179D01*
X0017892Y0032978D02*
X0025032Y0032978D01*
X0024701Y0033776D02*
X0017439Y0033776D01*
X0017439Y0034575D02*
X0024370Y0034575D01*
X0024088Y0035373D02*
X0017439Y0035373D01*
X0017439Y0036172D02*
X0024088Y0036172D01*
X0024088Y0036970D02*
X0017439Y0036970D01*
X0017439Y0037769D02*
X0024088Y0037769D01*
X0024191Y0038567D02*
X0017439Y0038567D01*
X0017439Y0039366D02*
X0024522Y0039366D01*
X0024853Y0040164D02*
X0017439Y0040164D01*
X0017439Y0040963D02*
X0025183Y0040963D01*
X0025873Y0041761D02*
X0017439Y0041761D01*
X0017439Y0042560D02*
X0026671Y0042560D01*
X0027532Y0043358D02*
X0017439Y0043358D01*
X0017439Y0044157D02*
X0029460Y0044157D01*
X0034115Y0044157D02*
X0190000Y0044157D01*
X0190000Y0044955D02*
X0017439Y0044955D01*
X0017439Y0045754D02*
X0190000Y0045754D01*
X0190000Y0046552D02*
X0017439Y0046552D01*
X0017439Y0047351D02*
X0190000Y0047351D01*
X0190000Y0048149D02*
X0017439Y0048149D01*
X0017439Y0048948D02*
X0190000Y0048948D01*
X0190000Y0049746D02*
X0017439Y0049746D01*
X0017439Y0050545D02*
X0190000Y0050545D01*
X0190000Y0051343D02*
X0017439Y0051343D01*
X0017439Y0052142D02*
X0190000Y0052142D01*
X0190000Y0052940D02*
X0017439Y0052940D01*
X0017439Y0053739D02*
X0190000Y0053739D01*
X0190000Y0054537D02*
X0017439Y0054537D01*
X0017439Y0055336D02*
X0190000Y0055336D01*
X0190000Y0056134D02*
X0017439Y0056134D01*
X0017439Y0056933D02*
X0190000Y0056933D01*
X0190000Y0057732D02*
X0118875Y0057732D01*
X0119019Y0057754D02*
X0119671Y0057966D01*
X0120281Y0058277D01*
X0120836Y0058680D01*
X0121320Y0059164D01*
X0121723Y0059719D01*
X0122034Y0060329D01*
X0122246Y0060981D01*
X0122344Y0061600D01*
X0118400Y0061600D01*
X0118400Y0062400D01*
X0122344Y0062400D01*
X0122246Y0063019D01*
X0122034Y0063671D01*
X0121723Y0064281D01*
X0121320Y0064836D01*
X0120836Y0065320D01*
X0120281Y0065723D01*
X0119671Y0066034D01*
X0119019Y0066246D01*
X0118400Y0066344D01*
X0118400Y0062400D01*
X0117600Y0062400D01*
X0117600Y0066344D01*
X0116981Y0066246D01*
X0116329Y0066034D01*
X0115719Y0065723D01*
X0115164Y0065320D01*
X0114680Y0064836D01*
X0114277Y0064281D01*
X0113966Y0063671D01*
X0113754Y0063019D01*
X0113656Y0062400D01*
X0117600Y0062400D01*
X0117600Y0061600D01*
X0118400Y0061600D01*
X0118400Y0057656D01*
X0119019Y0057754D01*
X0118400Y0057732D02*
X0117600Y0057732D01*
X0117600Y0057656D02*
X0117600Y0061600D01*
X0113656Y0061600D01*
X0113754Y0060981D01*
X0113966Y0060329D01*
X0114277Y0059719D01*
X0114680Y0059164D01*
X0115164Y0058680D01*
X0115719Y0058277D01*
X0116329Y0057966D01*
X0116981Y0057754D01*
X0117600Y0057656D01*
X0117125Y0057732D02*
X0017439Y0057732D01*
X0017439Y0058530D02*
X0115371Y0058530D01*
X0114561Y0059329D02*
X0017439Y0059329D01*
X0017439Y0060127D02*
X0114069Y0060127D01*
X0113772Y0060926D02*
X0017439Y0060926D01*
X0017439Y0061724D02*
X0117600Y0061724D01*
X0117600Y0060926D02*
X0118400Y0060926D01*
X0118400Y0061724D02*
X0190000Y0061724D01*
X0190000Y0060926D02*
X0122228Y0060926D01*
X0121931Y0060127D02*
X0190000Y0060127D01*
X0190000Y0059329D02*
X0121439Y0059329D01*
X0120629Y0058530D02*
X0190000Y0058530D01*
X0190000Y0062523D02*
X0122324Y0062523D01*
X0122148Y0063321D02*
X0190000Y0063321D01*
X0190000Y0064120D02*
X0121805Y0064120D01*
X0121238Y0064918D02*
X0190000Y0064918D01*
X0190000Y0065717D02*
X0120290Y0065717D01*
X0118400Y0065717D02*
X0117600Y0065717D01*
X0117600Y0064918D02*
X0118400Y0064918D01*
X0118400Y0064120D02*
X0117600Y0064120D01*
X0117600Y0063321D02*
X0118400Y0063321D01*
X0118400Y0062523D02*
X0117600Y0062523D01*
X0117600Y0060127D02*
X0118400Y0060127D01*
X0118400Y0059329D02*
X0117600Y0059329D01*
X0117600Y0058530D02*
X0118400Y0058530D01*
X0113676Y0062523D02*
X0017439Y0062523D01*
X0017439Y0063321D02*
X0113852Y0063321D01*
X0114195Y0064120D02*
X0017439Y0064120D01*
X0017439Y0064918D02*
X0114762Y0064918D01*
X0115710Y0065717D02*
X0017439Y0065717D01*
X0017439Y0066515D02*
X0190000Y0066515D01*
X0190000Y0067314D02*
X0017439Y0067314D01*
X0017439Y0068112D02*
X0190000Y0068112D01*
X0190000Y0068911D02*
X0017439Y0068911D01*
X0017439Y0069709D02*
X0190000Y0069709D01*
X0190000Y0070508D02*
X0017439Y0070508D01*
X0017439Y0071306D02*
X0190000Y0071306D01*
X0190000Y0072105D02*
X0017439Y0072105D01*
X0017439Y0072903D02*
X0190000Y0072903D01*
X0191600Y0088873D02*
X0193848Y0088873D01*
X0192424Y0089672D02*
X0191600Y0089672D01*
X0191600Y0090470D02*
X0191625Y0090470D01*
X0191600Y0101650D02*
X0192061Y0101650D01*
X0191600Y0102448D02*
X0192970Y0102448D01*
X0211012Y0070508D02*
X0329600Y0070508D01*
X0329600Y0069709D02*
X0211599Y0069709D01*
X0211872Y0068911D02*
X0329600Y0068911D01*
X0329600Y0068112D02*
X0211872Y0068112D01*
X0211609Y0067314D02*
X0329600Y0067314D01*
X0329600Y0066515D02*
X0211035Y0066515D01*
X0217500Y0064120D02*
X0240195Y0064120D01*
X0239852Y0063321D02*
X0218036Y0063321D01*
X0218272Y0062523D02*
X0239676Y0062523D01*
X0239772Y0060926D02*
X0217972Y0060926D01*
X0218272Y0061724D02*
X0243600Y0061724D01*
X0243600Y0060926D02*
X0244400Y0060926D01*
X0244400Y0061600D02*
X0244400Y0057656D01*
X0245019Y0057754D01*
X0245671Y0057966D01*
X0246281Y0058277D01*
X0246836Y0058680D01*
X0247320Y0059164D01*
X0247723Y0059719D01*
X0248034Y0060329D01*
X0248246Y0060981D01*
X0248344Y0061600D01*
X0244400Y0061600D01*
X0244400Y0061724D02*
X0273647Y0061724D01*
X0273647Y0061214D02*
X0274249Y0059761D01*
X0275361Y0058649D01*
X0276814Y0058047D01*
X0278386Y0058047D01*
X0279839Y0058649D01*
X0280951Y0059761D01*
X0281553Y0061214D01*
X0281553Y0062786D01*
X0280951Y0064239D01*
X0279839Y0065351D01*
X0278386Y0065953D01*
X0276814Y0065953D01*
X0275361Y0065351D01*
X0274249Y0064239D01*
X0273647Y0062786D01*
X0273647Y0061214D01*
X0273767Y0060926D02*
X0248228Y0060926D01*
X0247931Y0060127D02*
X0274097Y0060127D01*
X0274681Y0059329D02*
X0247439Y0059329D01*
X0246629Y0058530D02*
X0275648Y0058530D01*
X0279552Y0058530D02*
X0329600Y0058530D01*
X0329600Y0057732D02*
X0244875Y0057732D01*
X0244400Y0057732D02*
X0243600Y0057732D01*
X0243125Y0057732D02*
X0211288Y0057732D01*
X0211772Y0056933D02*
X0329600Y0056933D01*
X0329600Y0056134D02*
X0211972Y0056134D01*
X0211966Y0055336D02*
X0329600Y0055336D01*
X0329600Y0054537D02*
X0211636Y0054537D01*
X0210959Y0053739D02*
X0329600Y0053739D01*
X0329600Y0059329D02*
X0280519Y0059329D01*
X0281103Y0060127D02*
X0329600Y0060127D01*
X0329600Y0060926D02*
X0281433Y0060926D01*
X0281553Y0061724D02*
X0329600Y0061724D01*
X0329600Y0062523D02*
X0281553Y0062523D01*
X0281331Y0063321D02*
X0329600Y0063321D01*
X0329600Y0064120D02*
X0281000Y0064120D01*
X0280272Y0064918D02*
X0329600Y0064918D01*
X0329600Y0065717D02*
X0278956Y0065717D01*
X0276244Y0065717D02*
X0246290Y0065717D01*
X0247238Y0064918D02*
X0274928Y0064918D01*
X0274200Y0064120D02*
X0247805Y0064120D01*
X0248148Y0063321D02*
X0273869Y0063321D01*
X0273647Y0062523D02*
X0248324Y0062523D01*
X0244400Y0062523D02*
X0243600Y0062523D01*
X0243600Y0063321D02*
X0244400Y0063321D01*
X0244400Y0064120D02*
X0243600Y0064120D01*
X0243600Y0064918D02*
X0244400Y0064918D01*
X0244400Y0065717D02*
X0243600Y0065717D01*
X0243600Y0060127D02*
X0244400Y0060127D01*
X0244400Y0059329D02*
X0243600Y0059329D01*
X0243600Y0058530D02*
X0244400Y0058530D01*
X0240069Y0060127D02*
X0217347Y0060127D01*
X0191600Y0044157D02*
X0312924Y0044157D01*
X0310997Y0043358D02*
X0191600Y0043358D01*
X0191600Y0042560D02*
X0310136Y0042560D01*
X0309338Y0041761D02*
X0191600Y0041761D01*
X0191600Y0040963D02*
X0308648Y0040963D01*
X0308317Y0040164D02*
X0191600Y0040164D01*
X0191600Y0039366D02*
X0307986Y0039366D01*
X0307656Y0038567D02*
X0191600Y0038567D01*
X0191600Y0037769D02*
X0307553Y0037769D01*
X0307553Y0036970D02*
X0191600Y0036970D01*
X0191600Y0036172D02*
X0307553Y0036172D01*
X0307553Y0035373D02*
X0191600Y0035373D01*
X0191600Y0034575D02*
X0307835Y0034575D01*
X0308166Y0033776D02*
X0191600Y0033776D01*
X0191600Y0032978D02*
X0308496Y0032978D01*
X0308972Y0032179D02*
X0191600Y0032179D01*
X0191600Y0031381D02*
X0309770Y0031381D01*
X0310569Y0030582D02*
X0191600Y0030582D01*
X0191600Y0029784D02*
X0312042Y0029784D01*
X0322759Y0026590D02*
X0191600Y0026590D01*
X0191600Y0027388D02*
X0323558Y0027388D01*
X0324356Y0028187D02*
X0191600Y0028187D01*
X0191600Y0028985D02*
X0325155Y0028985D01*
X0190000Y0029784D02*
X0034998Y0029784D01*
X0036470Y0030582D02*
X0190000Y0030582D01*
X0190000Y0031381D02*
X0037269Y0031381D01*
X0038067Y0032179D02*
X0190000Y0032179D01*
X0190000Y0032978D02*
X0038543Y0032978D01*
X0038874Y0033776D02*
X0190000Y0033776D01*
X0190000Y0034575D02*
X0039204Y0034575D01*
X0039487Y0035373D02*
X0190000Y0035373D01*
X0190000Y0036172D02*
X0039487Y0036172D01*
X0039487Y0036970D02*
X0190000Y0036970D01*
X0190000Y0037769D02*
X0039487Y0037769D01*
X0039384Y0038567D02*
X0190000Y0038567D01*
X0190000Y0039366D02*
X0039053Y0039366D01*
X0038722Y0040164D02*
X0190000Y0040164D01*
X0190000Y0040963D02*
X0038391Y0040963D01*
X0037702Y0041761D02*
X0190000Y0041761D01*
X0190000Y0042560D02*
X0036903Y0042560D01*
X0036043Y0043358D02*
X0190000Y0043358D01*
X0034554Y0144769D02*
X0027446Y0144769D01*
X0026796Y0144500D02*
X0028266Y0145109D01*
X0029391Y0146234D01*
X0030000Y0147704D01*
X0030000Y0149296D01*
X0029391Y0150766D01*
X0028266Y0151891D01*
X0026796Y0152500D01*
X0025204Y0152500D01*
X0023734Y0151891D01*
X0022609Y0150766D01*
X0022000Y0149296D01*
X0022000Y0147704D01*
X0022609Y0146234D01*
X0023734Y0145109D01*
X0025204Y0144500D01*
X0026796Y0144500D01*
X0028725Y0145568D02*
X0033275Y0145568D01*
X0032554Y0146366D02*
X0029446Y0146366D01*
X0029776Y0147165D02*
X0032223Y0147165D01*
X0032000Y0147963D02*
X0030000Y0147963D01*
X0030000Y0148762D02*
X0032000Y0148762D01*
X0032110Y0149560D02*
X0029890Y0149560D01*
X0029560Y0150359D02*
X0032440Y0150359D01*
X0033000Y0151157D02*
X0028999Y0151157D01*
X0028109Y0151956D02*
X0033891Y0151956D01*
X0023891Y0151956D02*
X0017439Y0151956D01*
X0017439Y0151157D02*
X0023000Y0151157D01*
X0022440Y0150359D02*
X0017439Y0150359D01*
X0017439Y0149560D02*
X0022110Y0149560D01*
X0022000Y0148762D02*
X0017439Y0148762D01*
X0017439Y0147963D02*
X0022000Y0147963D01*
X0022223Y0147165D02*
X0017439Y0147165D01*
X0017439Y0146366D02*
X0022554Y0146366D01*
X0023275Y0145568D02*
X0017439Y0145568D01*
X0017439Y0131993D02*
X0023981Y0131993D01*
X0023038Y0131195D02*
X0017439Y0131195D01*
X0017439Y0130396D02*
X0022456Y0130396D01*
X0022125Y0129598D02*
X0017439Y0129598D01*
X0017439Y0128799D02*
X0022000Y0128799D01*
X0022000Y0128001D02*
X0017439Y0128001D01*
X0017439Y0127202D02*
X0022208Y0127202D01*
X0022539Y0126403D02*
X0017439Y0126403D01*
X0017439Y0125605D02*
X0023238Y0125605D01*
X0024464Y0124806D02*
X0017439Y0124806D01*
X0017439Y0081687D02*
X0023530Y0081687D01*
X0022731Y0080888D02*
X0017439Y0080888D01*
X0017439Y0080090D02*
X0022329Y0080090D01*
X0022000Y0079291D02*
X0017439Y0079291D01*
X0017439Y0078493D02*
X0022000Y0078493D01*
X0022004Y0077694D02*
X0017439Y0077694D01*
X0017439Y0076896D02*
X0022335Y0076896D01*
X0022746Y0076097D02*
X0017439Y0076097D01*
X0017439Y0075299D02*
X0023544Y0075299D01*
X0024085Y0254964D02*
X0017439Y0254964D01*
X0017439Y0255762D02*
X0023081Y0255762D01*
X0022474Y0256561D02*
X0017439Y0256561D01*
X0017439Y0257359D02*
X0022143Y0257359D01*
X0022000Y0258158D02*
X0017439Y0258158D01*
X0017439Y0258956D02*
X0022000Y0258956D01*
X0022190Y0259755D02*
X0017439Y0259755D01*
X0017439Y0260553D02*
X0022521Y0260553D01*
X0023195Y0261352D02*
X0017439Y0261352D01*
X0017439Y0262150D02*
X0024360Y0262150D01*
X0017439Y0262949D02*
X0149106Y0262949D01*
X0149000Y0263747D02*
X0017439Y0263747D01*
X0017439Y0272531D02*
X0239100Y0272531D01*
X0239100Y0273330D02*
X0017439Y0273330D01*
X0017439Y0274128D02*
X0239100Y0274128D01*
X0239100Y0282912D02*
X0155569Y0282912D01*
X0156367Y0283710D02*
X0239100Y0283710D01*
X0239100Y0284509D02*
X0156712Y0284509D01*
X0157000Y0285307D02*
X0239100Y0285307D01*
X0239100Y0286106D02*
X0157000Y0286106D01*
X0156955Y0286904D02*
X0239100Y0286904D01*
X0239100Y0287703D02*
X0156624Y0287703D01*
X0156156Y0288501D02*
X0239100Y0288501D01*
X0239100Y0328427D02*
X0022257Y0328427D01*
X0023056Y0329225D02*
X0239100Y0329225D01*
X0239100Y0330024D02*
X0023854Y0330024D01*
X0024653Y0330822D02*
X0239100Y0330822D01*
X0239100Y0331621D02*
X0025451Y0331621D01*
X0026250Y0332419D02*
X0239100Y0332419D01*
X0239100Y0333218D02*
X0027048Y0333218D01*
X0027847Y0334016D02*
X0239100Y0334016D01*
X0240700Y0334016D02*
X0319193Y0334016D01*
X0319991Y0333218D02*
X0240700Y0333218D01*
X0240700Y0332419D02*
X0320790Y0332419D01*
X0321588Y0331621D02*
X0240700Y0331621D01*
X0240700Y0330822D02*
X0322387Y0330822D01*
X0323185Y0330024D02*
X0240700Y0330024D01*
X0240700Y0329225D02*
X0323984Y0329225D01*
X0324782Y0328427D02*
X0240700Y0328427D01*
X0149437Y0262150D02*
X0037640Y0262150D01*
X0038805Y0261352D02*
X0149991Y0261352D01*
D17*
X0205600Y0187200D02*
X0207700Y0187600D01*
X0180200Y0113000D02*
X0178400Y0113000D01*
M02*
