G75*
%MOIN*%
%OFA0B0*%
%FSLAX25Y25*%
%IPPOS*%
%LPD*%
%AMOC8*
5,1,8,0,0,1.08239X$1,22.5*
%
%ADD10C,0.08000*%
%ADD11C,0.00000*%
%ADD12C,0.12998*%
%ADD13OC8,0.06400*%
%ADD14R,0.06400X0.06400*%
D10*
X0118000Y0062000D03*
X0244000Y0062000D03*
X0277600Y0062000D03*
X0277600Y0294100D03*
D11*
X0016039Y0032850D02*
X0027850Y0021039D01*
X0319189Y0021039D01*
X0331000Y0032850D01*
X0331000Y0324189D01*
X0319189Y0336000D01*
X0027850Y0336000D01*
X0016039Y0324189D01*
X0016039Y0032850D01*
X0025488Y0036787D02*
X0025490Y0036945D01*
X0025496Y0037103D01*
X0025506Y0037261D01*
X0025520Y0037419D01*
X0025538Y0037576D01*
X0025559Y0037733D01*
X0025585Y0037889D01*
X0025615Y0038045D01*
X0025648Y0038200D01*
X0025686Y0038353D01*
X0025727Y0038506D01*
X0025772Y0038658D01*
X0025821Y0038809D01*
X0025874Y0038958D01*
X0025930Y0039106D01*
X0025990Y0039252D01*
X0026054Y0039397D01*
X0026122Y0039540D01*
X0026193Y0039682D01*
X0026267Y0039822D01*
X0026345Y0039959D01*
X0026427Y0040095D01*
X0026511Y0040229D01*
X0026600Y0040360D01*
X0026691Y0040489D01*
X0026786Y0040616D01*
X0026883Y0040741D01*
X0026984Y0040863D01*
X0027088Y0040982D01*
X0027195Y0041099D01*
X0027305Y0041213D01*
X0027418Y0041324D01*
X0027533Y0041433D01*
X0027651Y0041538D01*
X0027772Y0041640D01*
X0027895Y0041740D01*
X0028021Y0041836D01*
X0028149Y0041929D01*
X0028279Y0042019D01*
X0028412Y0042105D01*
X0028547Y0042189D01*
X0028683Y0042268D01*
X0028822Y0042345D01*
X0028963Y0042417D01*
X0029105Y0042487D01*
X0029249Y0042552D01*
X0029395Y0042614D01*
X0029542Y0042672D01*
X0029691Y0042727D01*
X0029841Y0042778D01*
X0029992Y0042825D01*
X0030144Y0042868D01*
X0030297Y0042907D01*
X0030452Y0042943D01*
X0030607Y0042974D01*
X0030763Y0043002D01*
X0030919Y0043026D01*
X0031076Y0043046D01*
X0031234Y0043062D01*
X0031391Y0043074D01*
X0031550Y0043082D01*
X0031708Y0043086D01*
X0031866Y0043086D01*
X0032024Y0043082D01*
X0032183Y0043074D01*
X0032340Y0043062D01*
X0032498Y0043046D01*
X0032655Y0043026D01*
X0032811Y0043002D01*
X0032967Y0042974D01*
X0033122Y0042943D01*
X0033277Y0042907D01*
X0033430Y0042868D01*
X0033582Y0042825D01*
X0033733Y0042778D01*
X0033883Y0042727D01*
X0034032Y0042672D01*
X0034179Y0042614D01*
X0034325Y0042552D01*
X0034469Y0042487D01*
X0034611Y0042417D01*
X0034752Y0042345D01*
X0034891Y0042268D01*
X0035027Y0042189D01*
X0035162Y0042105D01*
X0035295Y0042019D01*
X0035425Y0041929D01*
X0035553Y0041836D01*
X0035679Y0041740D01*
X0035802Y0041640D01*
X0035923Y0041538D01*
X0036041Y0041433D01*
X0036156Y0041324D01*
X0036269Y0041213D01*
X0036379Y0041099D01*
X0036486Y0040982D01*
X0036590Y0040863D01*
X0036691Y0040741D01*
X0036788Y0040616D01*
X0036883Y0040489D01*
X0036974Y0040360D01*
X0037063Y0040229D01*
X0037147Y0040095D01*
X0037229Y0039959D01*
X0037307Y0039822D01*
X0037381Y0039682D01*
X0037452Y0039540D01*
X0037520Y0039397D01*
X0037584Y0039252D01*
X0037644Y0039106D01*
X0037700Y0038958D01*
X0037753Y0038809D01*
X0037802Y0038658D01*
X0037847Y0038506D01*
X0037888Y0038353D01*
X0037926Y0038200D01*
X0037959Y0038045D01*
X0037989Y0037889D01*
X0038015Y0037733D01*
X0038036Y0037576D01*
X0038054Y0037419D01*
X0038068Y0037261D01*
X0038078Y0037103D01*
X0038084Y0036945D01*
X0038086Y0036787D01*
X0038084Y0036629D01*
X0038078Y0036471D01*
X0038068Y0036313D01*
X0038054Y0036155D01*
X0038036Y0035998D01*
X0038015Y0035841D01*
X0037989Y0035685D01*
X0037959Y0035529D01*
X0037926Y0035374D01*
X0037888Y0035221D01*
X0037847Y0035068D01*
X0037802Y0034916D01*
X0037753Y0034765D01*
X0037700Y0034616D01*
X0037644Y0034468D01*
X0037584Y0034322D01*
X0037520Y0034177D01*
X0037452Y0034034D01*
X0037381Y0033892D01*
X0037307Y0033752D01*
X0037229Y0033615D01*
X0037147Y0033479D01*
X0037063Y0033345D01*
X0036974Y0033214D01*
X0036883Y0033085D01*
X0036788Y0032958D01*
X0036691Y0032833D01*
X0036590Y0032711D01*
X0036486Y0032592D01*
X0036379Y0032475D01*
X0036269Y0032361D01*
X0036156Y0032250D01*
X0036041Y0032141D01*
X0035923Y0032036D01*
X0035802Y0031934D01*
X0035679Y0031834D01*
X0035553Y0031738D01*
X0035425Y0031645D01*
X0035295Y0031555D01*
X0035162Y0031469D01*
X0035027Y0031385D01*
X0034891Y0031306D01*
X0034752Y0031229D01*
X0034611Y0031157D01*
X0034469Y0031087D01*
X0034325Y0031022D01*
X0034179Y0030960D01*
X0034032Y0030902D01*
X0033883Y0030847D01*
X0033733Y0030796D01*
X0033582Y0030749D01*
X0033430Y0030706D01*
X0033277Y0030667D01*
X0033122Y0030631D01*
X0032967Y0030600D01*
X0032811Y0030572D01*
X0032655Y0030548D01*
X0032498Y0030528D01*
X0032340Y0030512D01*
X0032183Y0030500D01*
X0032024Y0030492D01*
X0031866Y0030488D01*
X0031708Y0030488D01*
X0031550Y0030492D01*
X0031391Y0030500D01*
X0031234Y0030512D01*
X0031076Y0030528D01*
X0030919Y0030548D01*
X0030763Y0030572D01*
X0030607Y0030600D01*
X0030452Y0030631D01*
X0030297Y0030667D01*
X0030144Y0030706D01*
X0029992Y0030749D01*
X0029841Y0030796D01*
X0029691Y0030847D01*
X0029542Y0030902D01*
X0029395Y0030960D01*
X0029249Y0031022D01*
X0029105Y0031087D01*
X0028963Y0031157D01*
X0028822Y0031229D01*
X0028683Y0031306D01*
X0028547Y0031385D01*
X0028412Y0031469D01*
X0028279Y0031555D01*
X0028149Y0031645D01*
X0028021Y0031738D01*
X0027895Y0031834D01*
X0027772Y0031934D01*
X0027651Y0032036D01*
X0027533Y0032141D01*
X0027418Y0032250D01*
X0027305Y0032361D01*
X0027195Y0032475D01*
X0027088Y0032592D01*
X0026984Y0032711D01*
X0026883Y0032833D01*
X0026786Y0032958D01*
X0026691Y0033085D01*
X0026600Y0033214D01*
X0026511Y0033345D01*
X0026427Y0033479D01*
X0026345Y0033615D01*
X0026267Y0033752D01*
X0026193Y0033892D01*
X0026122Y0034034D01*
X0026054Y0034177D01*
X0025990Y0034322D01*
X0025930Y0034468D01*
X0025874Y0034616D01*
X0025821Y0034765D01*
X0025772Y0034916D01*
X0025727Y0035068D01*
X0025686Y0035221D01*
X0025648Y0035374D01*
X0025615Y0035529D01*
X0025585Y0035685D01*
X0025559Y0035841D01*
X0025538Y0035998D01*
X0025520Y0036155D01*
X0025506Y0036313D01*
X0025496Y0036471D01*
X0025490Y0036629D01*
X0025488Y0036787D01*
X0190843Y0095843D02*
X0190845Y0096001D01*
X0190851Y0096159D01*
X0190861Y0096317D01*
X0190875Y0096475D01*
X0190893Y0096632D01*
X0190914Y0096789D01*
X0190940Y0096945D01*
X0190970Y0097101D01*
X0191003Y0097256D01*
X0191041Y0097409D01*
X0191082Y0097562D01*
X0191127Y0097714D01*
X0191176Y0097865D01*
X0191229Y0098014D01*
X0191285Y0098162D01*
X0191345Y0098308D01*
X0191409Y0098453D01*
X0191477Y0098596D01*
X0191548Y0098738D01*
X0191622Y0098878D01*
X0191700Y0099015D01*
X0191782Y0099151D01*
X0191866Y0099285D01*
X0191955Y0099416D01*
X0192046Y0099545D01*
X0192141Y0099672D01*
X0192238Y0099797D01*
X0192339Y0099919D01*
X0192443Y0100038D01*
X0192550Y0100155D01*
X0192660Y0100269D01*
X0192773Y0100380D01*
X0192888Y0100489D01*
X0193006Y0100594D01*
X0193127Y0100696D01*
X0193250Y0100796D01*
X0193376Y0100892D01*
X0193504Y0100985D01*
X0193634Y0101075D01*
X0193767Y0101161D01*
X0193902Y0101245D01*
X0194038Y0101324D01*
X0194177Y0101401D01*
X0194318Y0101473D01*
X0194460Y0101543D01*
X0194604Y0101608D01*
X0194750Y0101670D01*
X0194897Y0101728D01*
X0195046Y0101783D01*
X0195196Y0101834D01*
X0195347Y0101881D01*
X0195499Y0101924D01*
X0195652Y0101963D01*
X0195807Y0101999D01*
X0195962Y0102030D01*
X0196118Y0102058D01*
X0196274Y0102082D01*
X0196431Y0102102D01*
X0196589Y0102118D01*
X0196746Y0102130D01*
X0196905Y0102138D01*
X0197063Y0102142D01*
X0197221Y0102142D01*
X0197379Y0102138D01*
X0197538Y0102130D01*
X0197695Y0102118D01*
X0197853Y0102102D01*
X0198010Y0102082D01*
X0198166Y0102058D01*
X0198322Y0102030D01*
X0198477Y0101999D01*
X0198632Y0101963D01*
X0198785Y0101924D01*
X0198937Y0101881D01*
X0199088Y0101834D01*
X0199238Y0101783D01*
X0199387Y0101728D01*
X0199534Y0101670D01*
X0199680Y0101608D01*
X0199824Y0101543D01*
X0199966Y0101473D01*
X0200107Y0101401D01*
X0200246Y0101324D01*
X0200382Y0101245D01*
X0200517Y0101161D01*
X0200650Y0101075D01*
X0200780Y0100985D01*
X0200908Y0100892D01*
X0201034Y0100796D01*
X0201157Y0100696D01*
X0201278Y0100594D01*
X0201396Y0100489D01*
X0201511Y0100380D01*
X0201624Y0100269D01*
X0201734Y0100155D01*
X0201841Y0100038D01*
X0201945Y0099919D01*
X0202046Y0099797D01*
X0202143Y0099672D01*
X0202238Y0099545D01*
X0202329Y0099416D01*
X0202418Y0099285D01*
X0202502Y0099151D01*
X0202584Y0099015D01*
X0202662Y0098878D01*
X0202736Y0098738D01*
X0202807Y0098596D01*
X0202875Y0098453D01*
X0202939Y0098308D01*
X0202999Y0098162D01*
X0203055Y0098014D01*
X0203108Y0097865D01*
X0203157Y0097714D01*
X0203202Y0097562D01*
X0203243Y0097409D01*
X0203281Y0097256D01*
X0203314Y0097101D01*
X0203344Y0096945D01*
X0203370Y0096789D01*
X0203391Y0096632D01*
X0203409Y0096475D01*
X0203423Y0096317D01*
X0203433Y0096159D01*
X0203439Y0096001D01*
X0203441Y0095843D01*
X0203439Y0095685D01*
X0203433Y0095527D01*
X0203423Y0095369D01*
X0203409Y0095211D01*
X0203391Y0095054D01*
X0203370Y0094897D01*
X0203344Y0094741D01*
X0203314Y0094585D01*
X0203281Y0094430D01*
X0203243Y0094277D01*
X0203202Y0094124D01*
X0203157Y0093972D01*
X0203108Y0093821D01*
X0203055Y0093672D01*
X0202999Y0093524D01*
X0202939Y0093378D01*
X0202875Y0093233D01*
X0202807Y0093090D01*
X0202736Y0092948D01*
X0202662Y0092808D01*
X0202584Y0092671D01*
X0202502Y0092535D01*
X0202418Y0092401D01*
X0202329Y0092270D01*
X0202238Y0092141D01*
X0202143Y0092014D01*
X0202046Y0091889D01*
X0201945Y0091767D01*
X0201841Y0091648D01*
X0201734Y0091531D01*
X0201624Y0091417D01*
X0201511Y0091306D01*
X0201396Y0091197D01*
X0201278Y0091092D01*
X0201157Y0090990D01*
X0201034Y0090890D01*
X0200908Y0090794D01*
X0200780Y0090701D01*
X0200650Y0090611D01*
X0200517Y0090525D01*
X0200382Y0090441D01*
X0200246Y0090362D01*
X0200107Y0090285D01*
X0199966Y0090213D01*
X0199824Y0090143D01*
X0199680Y0090078D01*
X0199534Y0090016D01*
X0199387Y0089958D01*
X0199238Y0089903D01*
X0199088Y0089852D01*
X0198937Y0089805D01*
X0198785Y0089762D01*
X0198632Y0089723D01*
X0198477Y0089687D01*
X0198322Y0089656D01*
X0198166Y0089628D01*
X0198010Y0089604D01*
X0197853Y0089584D01*
X0197695Y0089568D01*
X0197538Y0089556D01*
X0197379Y0089548D01*
X0197221Y0089544D01*
X0197063Y0089544D01*
X0196905Y0089548D01*
X0196746Y0089556D01*
X0196589Y0089568D01*
X0196431Y0089584D01*
X0196274Y0089604D01*
X0196118Y0089628D01*
X0195962Y0089656D01*
X0195807Y0089687D01*
X0195652Y0089723D01*
X0195499Y0089762D01*
X0195347Y0089805D01*
X0195196Y0089852D01*
X0195046Y0089903D01*
X0194897Y0089958D01*
X0194750Y0090016D01*
X0194604Y0090078D01*
X0194460Y0090143D01*
X0194318Y0090213D01*
X0194177Y0090285D01*
X0194038Y0090362D01*
X0193902Y0090441D01*
X0193767Y0090525D01*
X0193634Y0090611D01*
X0193504Y0090701D01*
X0193376Y0090794D01*
X0193250Y0090890D01*
X0193127Y0090990D01*
X0193006Y0091092D01*
X0192888Y0091197D01*
X0192773Y0091306D01*
X0192660Y0091417D01*
X0192550Y0091531D01*
X0192443Y0091648D01*
X0192339Y0091767D01*
X0192238Y0091889D01*
X0192141Y0092014D01*
X0192046Y0092141D01*
X0191955Y0092270D01*
X0191866Y0092401D01*
X0191782Y0092535D01*
X0191700Y0092671D01*
X0191622Y0092808D01*
X0191548Y0092948D01*
X0191477Y0093090D01*
X0191409Y0093233D01*
X0191345Y0093378D01*
X0191285Y0093524D01*
X0191229Y0093672D01*
X0191176Y0093821D01*
X0191127Y0093972D01*
X0191082Y0094124D01*
X0191041Y0094277D01*
X0191003Y0094430D01*
X0190970Y0094585D01*
X0190940Y0094741D01*
X0190914Y0094897D01*
X0190893Y0095054D01*
X0190875Y0095211D01*
X0190861Y0095369D01*
X0190851Y0095527D01*
X0190845Y0095685D01*
X0190843Y0095843D01*
X0308953Y0036787D02*
X0308955Y0036945D01*
X0308961Y0037103D01*
X0308971Y0037261D01*
X0308985Y0037419D01*
X0309003Y0037576D01*
X0309024Y0037733D01*
X0309050Y0037889D01*
X0309080Y0038045D01*
X0309113Y0038200D01*
X0309151Y0038353D01*
X0309192Y0038506D01*
X0309237Y0038658D01*
X0309286Y0038809D01*
X0309339Y0038958D01*
X0309395Y0039106D01*
X0309455Y0039252D01*
X0309519Y0039397D01*
X0309587Y0039540D01*
X0309658Y0039682D01*
X0309732Y0039822D01*
X0309810Y0039959D01*
X0309892Y0040095D01*
X0309976Y0040229D01*
X0310065Y0040360D01*
X0310156Y0040489D01*
X0310251Y0040616D01*
X0310348Y0040741D01*
X0310449Y0040863D01*
X0310553Y0040982D01*
X0310660Y0041099D01*
X0310770Y0041213D01*
X0310883Y0041324D01*
X0310998Y0041433D01*
X0311116Y0041538D01*
X0311237Y0041640D01*
X0311360Y0041740D01*
X0311486Y0041836D01*
X0311614Y0041929D01*
X0311744Y0042019D01*
X0311877Y0042105D01*
X0312012Y0042189D01*
X0312148Y0042268D01*
X0312287Y0042345D01*
X0312428Y0042417D01*
X0312570Y0042487D01*
X0312714Y0042552D01*
X0312860Y0042614D01*
X0313007Y0042672D01*
X0313156Y0042727D01*
X0313306Y0042778D01*
X0313457Y0042825D01*
X0313609Y0042868D01*
X0313762Y0042907D01*
X0313917Y0042943D01*
X0314072Y0042974D01*
X0314228Y0043002D01*
X0314384Y0043026D01*
X0314541Y0043046D01*
X0314699Y0043062D01*
X0314856Y0043074D01*
X0315015Y0043082D01*
X0315173Y0043086D01*
X0315331Y0043086D01*
X0315489Y0043082D01*
X0315648Y0043074D01*
X0315805Y0043062D01*
X0315963Y0043046D01*
X0316120Y0043026D01*
X0316276Y0043002D01*
X0316432Y0042974D01*
X0316587Y0042943D01*
X0316742Y0042907D01*
X0316895Y0042868D01*
X0317047Y0042825D01*
X0317198Y0042778D01*
X0317348Y0042727D01*
X0317497Y0042672D01*
X0317644Y0042614D01*
X0317790Y0042552D01*
X0317934Y0042487D01*
X0318076Y0042417D01*
X0318217Y0042345D01*
X0318356Y0042268D01*
X0318492Y0042189D01*
X0318627Y0042105D01*
X0318760Y0042019D01*
X0318890Y0041929D01*
X0319018Y0041836D01*
X0319144Y0041740D01*
X0319267Y0041640D01*
X0319388Y0041538D01*
X0319506Y0041433D01*
X0319621Y0041324D01*
X0319734Y0041213D01*
X0319844Y0041099D01*
X0319951Y0040982D01*
X0320055Y0040863D01*
X0320156Y0040741D01*
X0320253Y0040616D01*
X0320348Y0040489D01*
X0320439Y0040360D01*
X0320528Y0040229D01*
X0320612Y0040095D01*
X0320694Y0039959D01*
X0320772Y0039822D01*
X0320846Y0039682D01*
X0320917Y0039540D01*
X0320985Y0039397D01*
X0321049Y0039252D01*
X0321109Y0039106D01*
X0321165Y0038958D01*
X0321218Y0038809D01*
X0321267Y0038658D01*
X0321312Y0038506D01*
X0321353Y0038353D01*
X0321391Y0038200D01*
X0321424Y0038045D01*
X0321454Y0037889D01*
X0321480Y0037733D01*
X0321501Y0037576D01*
X0321519Y0037419D01*
X0321533Y0037261D01*
X0321543Y0037103D01*
X0321549Y0036945D01*
X0321551Y0036787D01*
X0321549Y0036629D01*
X0321543Y0036471D01*
X0321533Y0036313D01*
X0321519Y0036155D01*
X0321501Y0035998D01*
X0321480Y0035841D01*
X0321454Y0035685D01*
X0321424Y0035529D01*
X0321391Y0035374D01*
X0321353Y0035221D01*
X0321312Y0035068D01*
X0321267Y0034916D01*
X0321218Y0034765D01*
X0321165Y0034616D01*
X0321109Y0034468D01*
X0321049Y0034322D01*
X0320985Y0034177D01*
X0320917Y0034034D01*
X0320846Y0033892D01*
X0320772Y0033752D01*
X0320694Y0033615D01*
X0320612Y0033479D01*
X0320528Y0033345D01*
X0320439Y0033214D01*
X0320348Y0033085D01*
X0320253Y0032958D01*
X0320156Y0032833D01*
X0320055Y0032711D01*
X0319951Y0032592D01*
X0319844Y0032475D01*
X0319734Y0032361D01*
X0319621Y0032250D01*
X0319506Y0032141D01*
X0319388Y0032036D01*
X0319267Y0031934D01*
X0319144Y0031834D01*
X0319018Y0031738D01*
X0318890Y0031645D01*
X0318760Y0031555D01*
X0318627Y0031469D01*
X0318492Y0031385D01*
X0318356Y0031306D01*
X0318217Y0031229D01*
X0318076Y0031157D01*
X0317934Y0031087D01*
X0317790Y0031022D01*
X0317644Y0030960D01*
X0317497Y0030902D01*
X0317348Y0030847D01*
X0317198Y0030796D01*
X0317047Y0030749D01*
X0316895Y0030706D01*
X0316742Y0030667D01*
X0316587Y0030631D01*
X0316432Y0030600D01*
X0316276Y0030572D01*
X0316120Y0030548D01*
X0315963Y0030528D01*
X0315805Y0030512D01*
X0315648Y0030500D01*
X0315489Y0030492D01*
X0315331Y0030488D01*
X0315173Y0030488D01*
X0315015Y0030492D01*
X0314856Y0030500D01*
X0314699Y0030512D01*
X0314541Y0030528D01*
X0314384Y0030548D01*
X0314228Y0030572D01*
X0314072Y0030600D01*
X0313917Y0030631D01*
X0313762Y0030667D01*
X0313609Y0030706D01*
X0313457Y0030749D01*
X0313306Y0030796D01*
X0313156Y0030847D01*
X0313007Y0030902D01*
X0312860Y0030960D01*
X0312714Y0031022D01*
X0312570Y0031087D01*
X0312428Y0031157D01*
X0312287Y0031229D01*
X0312148Y0031306D01*
X0312012Y0031385D01*
X0311877Y0031469D01*
X0311744Y0031555D01*
X0311614Y0031645D01*
X0311486Y0031738D01*
X0311360Y0031834D01*
X0311237Y0031934D01*
X0311116Y0032036D01*
X0310998Y0032141D01*
X0310883Y0032250D01*
X0310770Y0032361D01*
X0310660Y0032475D01*
X0310553Y0032592D01*
X0310449Y0032711D01*
X0310348Y0032833D01*
X0310251Y0032958D01*
X0310156Y0033085D01*
X0310065Y0033214D01*
X0309976Y0033345D01*
X0309892Y0033479D01*
X0309810Y0033615D01*
X0309732Y0033752D01*
X0309658Y0033892D01*
X0309587Y0034034D01*
X0309519Y0034177D01*
X0309455Y0034322D01*
X0309395Y0034468D01*
X0309339Y0034616D01*
X0309286Y0034765D01*
X0309237Y0034916D01*
X0309192Y0035068D01*
X0309151Y0035221D01*
X0309113Y0035374D01*
X0309080Y0035529D01*
X0309050Y0035685D01*
X0309024Y0035841D01*
X0309003Y0035998D01*
X0308985Y0036155D01*
X0308971Y0036313D01*
X0308961Y0036471D01*
X0308955Y0036629D01*
X0308953Y0036787D01*
X0190843Y0261197D02*
X0190845Y0261355D01*
X0190851Y0261513D01*
X0190861Y0261671D01*
X0190875Y0261829D01*
X0190893Y0261986D01*
X0190914Y0262143D01*
X0190940Y0262299D01*
X0190970Y0262455D01*
X0191003Y0262610D01*
X0191041Y0262763D01*
X0191082Y0262916D01*
X0191127Y0263068D01*
X0191176Y0263219D01*
X0191229Y0263368D01*
X0191285Y0263516D01*
X0191345Y0263662D01*
X0191409Y0263807D01*
X0191477Y0263950D01*
X0191548Y0264092D01*
X0191622Y0264232D01*
X0191700Y0264369D01*
X0191782Y0264505D01*
X0191866Y0264639D01*
X0191955Y0264770D01*
X0192046Y0264899D01*
X0192141Y0265026D01*
X0192238Y0265151D01*
X0192339Y0265273D01*
X0192443Y0265392D01*
X0192550Y0265509D01*
X0192660Y0265623D01*
X0192773Y0265734D01*
X0192888Y0265843D01*
X0193006Y0265948D01*
X0193127Y0266050D01*
X0193250Y0266150D01*
X0193376Y0266246D01*
X0193504Y0266339D01*
X0193634Y0266429D01*
X0193767Y0266515D01*
X0193902Y0266599D01*
X0194038Y0266678D01*
X0194177Y0266755D01*
X0194318Y0266827D01*
X0194460Y0266897D01*
X0194604Y0266962D01*
X0194750Y0267024D01*
X0194897Y0267082D01*
X0195046Y0267137D01*
X0195196Y0267188D01*
X0195347Y0267235D01*
X0195499Y0267278D01*
X0195652Y0267317D01*
X0195807Y0267353D01*
X0195962Y0267384D01*
X0196118Y0267412D01*
X0196274Y0267436D01*
X0196431Y0267456D01*
X0196589Y0267472D01*
X0196746Y0267484D01*
X0196905Y0267492D01*
X0197063Y0267496D01*
X0197221Y0267496D01*
X0197379Y0267492D01*
X0197538Y0267484D01*
X0197695Y0267472D01*
X0197853Y0267456D01*
X0198010Y0267436D01*
X0198166Y0267412D01*
X0198322Y0267384D01*
X0198477Y0267353D01*
X0198632Y0267317D01*
X0198785Y0267278D01*
X0198937Y0267235D01*
X0199088Y0267188D01*
X0199238Y0267137D01*
X0199387Y0267082D01*
X0199534Y0267024D01*
X0199680Y0266962D01*
X0199824Y0266897D01*
X0199966Y0266827D01*
X0200107Y0266755D01*
X0200246Y0266678D01*
X0200382Y0266599D01*
X0200517Y0266515D01*
X0200650Y0266429D01*
X0200780Y0266339D01*
X0200908Y0266246D01*
X0201034Y0266150D01*
X0201157Y0266050D01*
X0201278Y0265948D01*
X0201396Y0265843D01*
X0201511Y0265734D01*
X0201624Y0265623D01*
X0201734Y0265509D01*
X0201841Y0265392D01*
X0201945Y0265273D01*
X0202046Y0265151D01*
X0202143Y0265026D01*
X0202238Y0264899D01*
X0202329Y0264770D01*
X0202418Y0264639D01*
X0202502Y0264505D01*
X0202584Y0264369D01*
X0202662Y0264232D01*
X0202736Y0264092D01*
X0202807Y0263950D01*
X0202875Y0263807D01*
X0202939Y0263662D01*
X0202999Y0263516D01*
X0203055Y0263368D01*
X0203108Y0263219D01*
X0203157Y0263068D01*
X0203202Y0262916D01*
X0203243Y0262763D01*
X0203281Y0262610D01*
X0203314Y0262455D01*
X0203344Y0262299D01*
X0203370Y0262143D01*
X0203391Y0261986D01*
X0203409Y0261829D01*
X0203423Y0261671D01*
X0203433Y0261513D01*
X0203439Y0261355D01*
X0203441Y0261197D01*
X0203439Y0261039D01*
X0203433Y0260881D01*
X0203423Y0260723D01*
X0203409Y0260565D01*
X0203391Y0260408D01*
X0203370Y0260251D01*
X0203344Y0260095D01*
X0203314Y0259939D01*
X0203281Y0259784D01*
X0203243Y0259631D01*
X0203202Y0259478D01*
X0203157Y0259326D01*
X0203108Y0259175D01*
X0203055Y0259026D01*
X0202999Y0258878D01*
X0202939Y0258732D01*
X0202875Y0258587D01*
X0202807Y0258444D01*
X0202736Y0258302D01*
X0202662Y0258162D01*
X0202584Y0258025D01*
X0202502Y0257889D01*
X0202418Y0257755D01*
X0202329Y0257624D01*
X0202238Y0257495D01*
X0202143Y0257368D01*
X0202046Y0257243D01*
X0201945Y0257121D01*
X0201841Y0257002D01*
X0201734Y0256885D01*
X0201624Y0256771D01*
X0201511Y0256660D01*
X0201396Y0256551D01*
X0201278Y0256446D01*
X0201157Y0256344D01*
X0201034Y0256244D01*
X0200908Y0256148D01*
X0200780Y0256055D01*
X0200650Y0255965D01*
X0200517Y0255879D01*
X0200382Y0255795D01*
X0200246Y0255716D01*
X0200107Y0255639D01*
X0199966Y0255567D01*
X0199824Y0255497D01*
X0199680Y0255432D01*
X0199534Y0255370D01*
X0199387Y0255312D01*
X0199238Y0255257D01*
X0199088Y0255206D01*
X0198937Y0255159D01*
X0198785Y0255116D01*
X0198632Y0255077D01*
X0198477Y0255041D01*
X0198322Y0255010D01*
X0198166Y0254982D01*
X0198010Y0254958D01*
X0197853Y0254938D01*
X0197695Y0254922D01*
X0197538Y0254910D01*
X0197379Y0254902D01*
X0197221Y0254898D01*
X0197063Y0254898D01*
X0196905Y0254902D01*
X0196746Y0254910D01*
X0196589Y0254922D01*
X0196431Y0254938D01*
X0196274Y0254958D01*
X0196118Y0254982D01*
X0195962Y0255010D01*
X0195807Y0255041D01*
X0195652Y0255077D01*
X0195499Y0255116D01*
X0195347Y0255159D01*
X0195196Y0255206D01*
X0195046Y0255257D01*
X0194897Y0255312D01*
X0194750Y0255370D01*
X0194604Y0255432D01*
X0194460Y0255497D01*
X0194318Y0255567D01*
X0194177Y0255639D01*
X0194038Y0255716D01*
X0193902Y0255795D01*
X0193767Y0255879D01*
X0193634Y0255965D01*
X0193504Y0256055D01*
X0193376Y0256148D01*
X0193250Y0256244D01*
X0193127Y0256344D01*
X0193006Y0256446D01*
X0192888Y0256551D01*
X0192773Y0256660D01*
X0192660Y0256771D01*
X0192550Y0256885D01*
X0192443Y0257002D01*
X0192339Y0257121D01*
X0192238Y0257243D01*
X0192141Y0257368D01*
X0192046Y0257495D01*
X0191955Y0257624D01*
X0191866Y0257755D01*
X0191782Y0257889D01*
X0191700Y0258025D01*
X0191622Y0258162D01*
X0191548Y0258302D01*
X0191477Y0258444D01*
X0191409Y0258587D01*
X0191345Y0258732D01*
X0191285Y0258878D01*
X0191229Y0259026D01*
X0191176Y0259175D01*
X0191127Y0259326D01*
X0191082Y0259478D01*
X0191041Y0259631D01*
X0191003Y0259784D01*
X0190970Y0259939D01*
X0190940Y0260095D01*
X0190914Y0260251D01*
X0190893Y0260408D01*
X0190875Y0260565D01*
X0190861Y0260723D01*
X0190851Y0260881D01*
X0190845Y0261039D01*
X0190843Y0261197D01*
X0308953Y0320252D02*
X0308955Y0320410D01*
X0308961Y0320568D01*
X0308971Y0320726D01*
X0308985Y0320884D01*
X0309003Y0321041D01*
X0309024Y0321198D01*
X0309050Y0321354D01*
X0309080Y0321510D01*
X0309113Y0321665D01*
X0309151Y0321818D01*
X0309192Y0321971D01*
X0309237Y0322123D01*
X0309286Y0322274D01*
X0309339Y0322423D01*
X0309395Y0322571D01*
X0309455Y0322717D01*
X0309519Y0322862D01*
X0309587Y0323005D01*
X0309658Y0323147D01*
X0309732Y0323287D01*
X0309810Y0323424D01*
X0309892Y0323560D01*
X0309976Y0323694D01*
X0310065Y0323825D01*
X0310156Y0323954D01*
X0310251Y0324081D01*
X0310348Y0324206D01*
X0310449Y0324328D01*
X0310553Y0324447D01*
X0310660Y0324564D01*
X0310770Y0324678D01*
X0310883Y0324789D01*
X0310998Y0324898D01*
X0311116Y0325003D01*
X0311237Y0325105D01*
X0311360Y0325205D01*
X0311486Y0325301D01*
X0311614Y0325394D01*
X0311744Y0325484D01*
X0311877Y0325570D01*
X0312012Y0325654D01*
X0312148Y0325733D01*
X0312287Y0325810D01*
X0312428Y0325882D01*
X0312570Y0325952D01*
X0312714Y0326017D01*
X0312860Y0326079D01*
X0313007Y0326137D01*
X0313156Y0326192D01*
X0313306Y0326243D01*
X0313457Y0326290D01*
X0313609Y0326333D01*
X0313762Y0326372D01*
X0313917Y0326408D01*
X0314072Y0326439D01*
X0314228Y0326467D01*
X0314384Y0326491D01*
X0314541Y0326511D01*
X0314699Y0326527D01*
X0314856Y0326539D01*
X0315015Y0326547D01*
X0315173Y0326551D01*
X0315331Y0326551D01*
X0315489Y0326547D01*
X0315648Y0326539D01*
X0315805Y0326527D01*
X0315963Y0326511D01*
X0316120Y0326491D01*
X0316276Y0326467D01*
X0316432Y0326439D01*
X0316587Y0326408D01*
X0316742Y0326372D01*
X0316895Y0326333D01*
X0317047Y0326290D01*
X0317198Y0326243D01*
X0317348Y0326192D01*
X0317497Y0326137D01*
X0317644Y0326079D01*
X0317790Y0326017D01*
X0317934Y0325952D01*
X0318076Y0325882D01*
X0318217Y0325810D01*
X0318356Y0325733D01*
X0318492Y0325654D01*
X0318627Y0325570D01*
X0318760Y0325484D01*
X0318890Y0325394D01*
X0319018Y0325301D01*
X0319144Y0325205D01*
X0319267Y0325105D01*
X0319388Y0325003D01*
X0319506Y0324898D01*
X0319621Y0324789D01*
X0319734Y0324678D01*
X0319844Y0324564D01*
X0319951Y0324447D01*
X0320055Y0324328D01*
X0320156Y0324206D01*
X0320253Y0324081D01*
X0320348Y0323954D01*
X0320439Y0323825D01*
X0320528Y0323694D01*
X0320612Y0323560D01*
X0320694Y0323424D01*
X0320772Y0323287D01*
X0320846Y0323147D01*
X0320917Y0323005D01*
X0320985Y0322862D01*
X0321049Y0322717D01*
X0321109Y0322571D01*
X0321165Y0322423D01*
X0321218Y0322274D01*
X0321267Y0322123D01*
X0321312Y0321971D01*
X0321353Y0321818D01*
X0321391Y0321665D01*
X0321424Y0321510D01*
X0321454Y0321354D01*
X0321480Y0321198D01*
X0321501Y0321041D01*
X0321519Y0320884D01*
X0321533Y0320726D01*
X0321543Y0320568D01*
X0321549Y0320410D01*
X0321551Y0320252D01*
X0321549Y0320094D01*
X0321543Y0319936D01*
X0321533Y0319778D01*
X0321519Y0319620D01*
X0321501Y0319463D01*
X0321480Y0319306D01*
X0321454Y0319150D01*
X0321424Y0318994D01*
X0321391Y0318839D01*
X0321353Y0318686D01*
X0321312Y0318533D01*
X0321267Y0318381D01*
X0321218Y0318230D01*
X0321165Y0318081D01*
X0321109Y0317933D01*
X0321049Y0317787D01*
X0320985Y0317642D01*
X0320917Y0317499D01*
X0320846Y0317357D01*
X0320772Y0317217D01*
X0320694Y0317080D01*
X0320612Y0316944D01*
X0320528Y0316810D01*
X0320439Y0316679D01*
X0320348Y0316550D01*
X0320253Y0316423D01*
X0320156Y0316298D01*
X0320055Y0316176D01*
X0319951Y0316057D01*
X0319844Y0315940D01*
X0319734Y0315826D01*
X0319621Y0315715D01*
X0319506Y0315606D01*
X0319388Y0315501D01*
X0319267Y0315399D01*
X0319144Y0315299D01*
X0319018Y0315203D01*
X0318890Y0315110D01*
X0318760Y0315020D01*
X0318627Y0314934D01*
X0318492Y0314850D01*
X0318356Y0314771D01*
X0318217Y0314694D01*
X0318076Y0314622D01*
X0317934Y0314552D01*
X0317790Y0314487D01*
X0317644Y0314425D01*
X0317497Y0314367D01*
X0317348Y0314312D01*
X0317198Y0314261D01*
X0317047Y0314214D01*
X0316895Y0314171D01*
X0316742Y0314132D01*
X0316587Y0314096D01*
X0316432Y0314065D01*
X0316276Y0314037D01*
X0316120Y0314013D01*
X0315963Y0313993D01*
X0315805Y0313977D01*
X0315648Y0313965D01*
X0315489Y0313957D01*
X0315331Y0313953D01*
X0315173Y0313953D01*
X0315015Y0313957D01*
X0314856Y0313965D01*
X0314699Y0313977D01*
X0314541Y0313993D01*
X0314384Y0314013D01*
X0314228Y0314037D01*
X0314072Y0314065D01*
X0313917Y0314096D01*
X0313762Y0314132D01*
X0313609Y0314171D01*
X0313457Y0314214D01*
X0313306Y0314261D01*
X0313156Y0314312D01*
X0313007Y0314367D01*
X0312860Y0314425D01*
X0312714Y0314487D01*
X0312570Y0314552D01*
X0312428Y0314622D01*
X0312287Y0314694D01*
X0312148Y0314771D01*
X0312012Y0314850D01*
X0311877Y0314934D01*
X0311744Y0315020D01*
X0311614Y0315110D01*
X0311486Y0315203D01*
X0311360Y0315299D01*
X0311237Y0315399D01*
X0311116Y0315501D01*
X0310998Y0315606D01*
X0310883Y0315715D01*
X0310770Y0315826D01*
X0310660Y0315940D01*
X0310553Y0316057D01*
X0310449Y0316176D01*
X0310348Y0316298D01*
X0310251Y0316423D01*
X0310156Y0316550D01*
X0310065Y0316679D01*
X0309976Y0316810D01*
X0309892Y0316944D01*
X0309810Y0317080D01*
X0309732Y0317217D01*
X0309658Y0317357D01*
X0309587Y0317499D01*
X0309519Y0317642D01*
X0309455Y0317787D01*
X0309395Y0317933D01*
X0309339Y0318081D01*
X0309286Y0318230D01*
X0309237Y0318381D01*
X0309192Y0318533D01*
X0309151Y0318686D01*
X0309113Y0318839D01*
X0309080Y0318994D01*
X0309050Y0319150D01*
X0309024Y0319306D01*
X0309003Y0319463D01*
X0308985Y0319620D01*
X0308971Y0319778D01*
X0308961Y0319936D01*
X0308955Y0320094D01*
X0308953Y0320252D01*
X0025488Y0320252D02*
X0025490Y0320410D01*
X0025496Y0320568D01*
X0025506Y0320726D01*
X0025520Y0320884D01*
X0025538Y0321041D01*
X0025559Y0321198D01*
X0025585Y0321354D01*
X0025615Y0321510D01*
X0025648Y0321665D01*
X0025686Y0321818D01*
X0025727Y0321971D01*
X0025772Y0322123D01*
X0025821Y0322274D01*
X0025874Y0322423D01*
X0025930Y0322571D01*
X0025990Y0322717D01*
X0026054Y0322862D01*
X0026122Y0323005D01*
X0026193Y0323147D01*
X0026267Y0323287D01*
X0026345Y0323424D01*
X0026427Y0323560D01*
X0026511Y0323694D01*
X0026600Y0323825D01*
X0026691Y0323954D01*
X0026786Y0324081D01*
X0026883Y0324206D01*
X0026984Y0324328D01*
X0027088Y0324447D01*
X0027195Y0324564D01*
X0027305Y0324678D01*
X0027418Y0324789D01*
X0027533Y0324898D01*
X0027651Y0325003D01*
X0027772Y0325105D01*
X0027895Y0325205D01*
X0028021Y0325301D01*
X0028149Y0325394D01*
X0028279Y0325484D01*
X0028412Y0325570D01*
X0028547Y0325654D01*
X0028683Y0325733D01*
X0028822Y0325810D01*
X0028963Y0325882D01*
X0029105Y0325952D01*
X0029249Y0326017D01*
X0029395Y0326079D01*
X0029542Y0326137D01*
X0029691Y0326192D01*
X0029841Y0326243D01*
X0029992Y0326290D01*
X0030144Y0326333D01*
X0030297Y0326372D01*
X0030452Y0326408D01*
X0030607Y0326439D01*
X0030763Y0326467D01*
X0030919Y0326491D01*
X0031076Y0326511D01*
X0031234Y0326527D01*
X0031391Y0326539D01*
X0031550Y0326547D01*
X0031708Y0326551D01*
X0031866Y0326551D01*
X0032024Y0326547D01*
X0032183Y0326539D01*
X0032340Y0326527D01*
X0032498Y0326511D01*
X0032655Y0326491D01*
X0032811Y0326467D01*
X0032967Y0326439D01*
X0033122Y0326408D01*
X0033277Y0326372D01*
X0033430Y0326333D01*
X0033582Y0326290D01*
X0033733Y0326243D01*
X0033883Y0326192D01*
X0034032Y0326137D01*
X0034179Y0326079D01*
X0034325Y0326017D01*
X0034469Y0325952D01*
X0034611Y0325882D01*
X0034752Y0325810D01*
X0034891Y0325733D01*
X0035027Y0325654D01*
X0035162Y0325570D01*
X0035295Y0325484D01*
X0035425Y0325394D01*
X0035553Y0325301D01*
X0035679Y0325205D01*
X0035802Y0325105D01*
X0035923Y0325003D01*
X0036041Y0324898D01*
X0036156Y0324789D01*
X0036269Y0324678D01*
X0036379Y0324564D01*
X0036486Y0324447D01*
X0036590Y0324328D01*
X0036691Y0324206D01*
X0036788Y0324081D01*
X0036883Y0323954D01*
X0036974Y0323825D01*
X0037063Y0323694D01*
X0037147Y0323560D01*
X0037229Y0323424D01*
X0037307Y0323287D01*
X0037381Y0323147D01*
X0037452Y0323005D01*
X0037520Y0322862D01*
X0037584Y0322717D01*
X0037644Y0322571D01*
X0037700Y0322423D01*
X0037753Y0322274D01*
X0037802Y0322123D01*
X0037847Y0321971D01*
X0037888Y0321818D01*
X0037926Y0321665D01*
X0037959Y0321510D01*
X0037989Y0321354D01*
X0038015Y0321198D01*
X0038036Y0321041D01*
X0038054Y0320884D01*
X0038068Y0320726D01*
X0038078Y0320568D01*
X0038084Y0320410D01*
X0038086Y0320252D01*
X0038084Y0320094D01*
X0038078Y0319936D01*
X0038068Y0319778D01*
X0038054Y0319620D01*
X0038036Y0319463D01*
X0038015Y0319306D01*
X0037989Y0319150D01*
X0037959Y0318994D01*
X0037926Y0318839D01*
X0037888Y0318686D01*
X0037847Y0318533D01*
X0037802Y0318381D01*
X0037753Y0318230D01*
X0037700Y0318081D01*
X0037644Y0317933D01*
X0037584Y0317787D01*
X0037520Y0317642D01*
X0037452Y0317499D01*
X0037381Y0317357D01*
X0037307Y0317217D01*
X0037229Y0317080D01*
X0037147Y0316944D01*
X0037063Y0316810D01*
X0036974Y0316679D01*
X0036883Y0316550D01*
X0036788Y0316423D01*
X0036691Y0316298D01*
X0036590Y0316176D01*
X0036486Y0316057D01*
X0036379Y0315940D01*
X0036269Y0315826D01*
X0036156Y0315715D01*
X0036041Y0315606D01*
X0035923Y0315501D01*
X0035802Y0315399D01*
X0035679Y0315299D01*
X0035553Y0315203D01*
X0035425Y0315110D01*
X0035295Y0315020D01*
X0035162Y0314934D01*
X0035027Y0314850D01*
X0034891Y0314771D01*
X0034752Y0314694D01*
X0034611Y0314622D01*
X0034469Y0314552D01*
X0034325Y0314487D01*
X0034179Y0314425D01*
X0034032Y0314367D01*
X0033883Y0314312D01*
X0033733Y0314261D01*
X0033582Y0314214D01*
X0033430Y0314171D01*
X0033277Y0314132D01*
X0033122Y0314096D01*
X0032967Y0314065D01*
X0032811Y0314037D01*
X0032655Y0314013D01*
X0032498Y0313993D01*
X0032340Y0313977D01*
X0032183Y0313965D01*
X0032024Y0313957D01*
X0031866Y0313953D01*
X0031708Y0313953D01*
X0031550Y0313957D01*
X0031391Y0313965D01*
X0031234Y0313977D01*
X0031076Y0313993D01*
X0030919Y0314013D01*
X0030763Y0314037D01*
X0030607Y0314065D01*
X0030452Y0314096D01*
X0030297Y0314132D01*
X0030144Y0314171D01*
X0029992Y0314214D01*
X0029841Y0314261D01*
X0029691Y0314312D01*
X0029542Y0314367D01*
X0029395Y0314425D01*
X0029249Y0314487D01*
X0029105Y0314552D01*
X0028963Y0314622D01*
X0028822Y0314694D01*
X0028683Y0314771D01*
X0028547Y0314850D01*
X0028412Y0314934D01*
X0028279Y0315020D01*
X0028149Y0315110D01*
X0028021Y0315203D01*
X0027895Y0315299D01*
X0027772Y0315399D01*
X0027651Y0315501D01*
X0027533Y0315606D01*
X0027418Y0315715D01*
X0027305Y0315826D01*
X0027195Y0315940D01*
X0027088Y0316057D01*
X0026984Y0316176D01*
X0026883Y0316298D01*
X0026786Y0316423D01*
X0026691Y0316550D01*
X0026600Y0316679D01*
X0026511Y0316810D01*
X0026427Y0316944D01*
X0026345Y0317080D01*
X0026267Y0317217D01*
X0026193Y0317357D01*
X0026122Y0317499D01*
X0026054Y0317642D01*
X0025990Y0317787D01*
X0025930Y0317933D01*
X0025874Y0318081D01*
X0025821Y0318230D01*
X0025772Y0318381D01*
X0025727Y0318533D01*
X0025686Y0318686D01*
X0025648Y0318839D01*
X0025615Y0318994D01*
X0025585Y0319150D01*
X0025559Y0319306D01*
X0025538Y0319463D01*
X0025520Y0319620D01*
X0025506Y0319778D01*
X0025496Y0319936D01*
X0025490Y0320094D01*
X0025488Y0320252D01*
D12*
X0031787Y0320252D03*
X0197142Y0261197D03*
X0315252Y0320252D03*
X0197142Y0095843D03*
X0315252Y0036787D03*
X0031787Y0036787D03*
D13*
X0026000Y0078500D03*
X0026000Y0088500D03*
X0036000Y0088500D03*
X0036000Y0098500D03*
X0036000Y0108500D03*
X0026000Y0108500D03*
X0026000Y0098500D03*
X0026000Y0118500D03*
X0036000Y0118500D03*
X0036000Y0128500D03*
X0026000Y0128500D03*
X0026000Y0138500D03*
X0036000Y0138500D03*
X0036000Y0148500D03*
X0026000Y0148500D03*
X0026000Y0158500D03*
X0036000Y0158500D03*
X0036000Y0168500D03*
X0026000Y0168500D03*
X0026000Y0188500D03*
X0026000Y0198500D03*
X0036000Y0198500D03*
X0036000Y0208500D03*
X0026000Y0208500D03*
X0026000Y0218500D03*
X0036000Y0218500D03*
X0036000Y0228500D03*
X0036000Y0238500D03*
X0026000Y0238500D03*
X0026000Y0228500D03*
X0026000Y0248500D03*
X0036000Y0248500D03*
X0036000Y0258500D03*
X0026000Y0258500D03*
X0026000Y0268500D03*
X0036000Y0268500D03*
X0036000Y0278500D03*
X0026000Y0278500D03*
X0153000Y0286000D03*
X0153000Y0264000D03*
X0301000Y0203500D03*
X0301000Y0193500D03*
X0311000Y0193500D03*
X0311000Y0203500D03*
X0311000Y0213500D03*
X0321000Y0213500D03*
X0321000Y0203500D03*
X0321000Y0193500D03*
X0321000Y0183500D03*
X0321000Y0173500D03*
X0321000Y0163500D03*
X0321000Y0153500D03*
X0321000Y0143500D03*
X0311000Y0143500D03*
X0301000Y0143500D03*
X0301000Y0153500D03*
X0311000Y0153500D03*
X0311000Y0163500D03*
X0301000Y0163500D03*
X0301000Y0173500D03*
X0311000Y0173500D03*
X0311000Y0183500D03*
X0301000Y0183500D03*
D14*
X0301000Y0213500D03*
X0036000Y0188500D03*
X0036000Y0078500D03*
M02*
