G75*
%MOIN*%
%OFA0B0*%
%FSLAX25Y25*%
%IPPOS*%
%LPD*%
%AMOC8*
5,1,8,0,0,1.08239X$1,22.5*
%
%ADD10C,0.07600*%
%ADD11C,0.00000*%
%ADD12OC8,0.06000*%
%ADD13R,0.06000X0.06000*%
%ADD14C,0.02000*%
%ADD15R,0.03543X0.03543*%
%ADD16C,0.01000*%
%ADD17R,0.03300X0.03300*%
%ADD18R,0.02000X0.02000*%
D10*
X0118000Y0062000D03*
X0244000Y0062000D03*
X0277600Y0062000D03*
X0277600Y0294100D03*
D11*
X0016039Y0032850D02*
X0027850Y0021039D01*
X0319189Y0021039D01*
X0331000Y0032850D01*
X0331000Y0324189D01*
X0319189Y0336000D01*
X0027850Y0336000D01*
X0016039Y0324189D01*
X0016039Y0032850D01*
X0025488Y0036787D02*
X0025490Y0036945D01*
X0025496Y0037103D01*
X0025506Y0037261D01*
X0025520Y0037419D01*
X0025538Y0037576D01*
X0025559Y0037733D01*
X0025585Y0037889D01*
X0025615Y0038045D01*
X0025648Y0038200D01*
X0025686Y0038353D01*
X0025727Y0038506D01*
X0025772Y0038658D01*
X0025821Y0038809D01*
X0025874Y0038958D01*
X0025930Y0039106D01*
X0025990Y0039252D01*
X0026054Y0039397D01*
X0026122Y0039540D01*
X0026193Y0039682D01*
X0026267Y0039822D01*
X0026345Y0039959D01*
X0026427Y0040095D01*
X0026511Y0040229D01*
X0026600Y0040360D01*
X0026691Y0040489D01*
X0026786Y0040616D01*
X0026883Y0040741D01*
X0026984Y0040863D01*
X0027088Y0040982D01*
X0027195Y0041099D01*
X0027305Y0041213D01*
X0027418Y0041324D01*
X0027533Y0041433D01*
X0027651Y0041538D01*
X0027772Y0041640D01*
X0027895Y0041740D01*
X0028021Y0041836D01*
X0028149Y0041929D01*
X0028279Y0042019D01*
X0028412Y0042105D01*
X0028547Y0042189D01*
X0028683Y0042268D01*
X0028822Y0042345D01*
X0028963Y0042417D01*
X0029105Y0042487D01*
X0029249Y0042552D01*
X0029395Y0042614D01*
X0029542Y0042672D01*
X0029691Y0042727D01*
X0029841Y0042778D01*
X0029992Y0042825D01*
X0030144Y0042868D01*
X0030297Y0042907D01*
X0030452Y0042943D01*
X0030607Y0042974D01*
X0030763Y0043002D01*
X0030919Y0043026D01*
X0031076Y0043046D01*
X0031234Y0043062D01*
X0031391Y0043074D01*
X0031550Y0043082D01*
X0031708Y0043086D01*
X0031866Y0043086D01*
X0032024Y0043082D01*
X0032183Y0043074D01*
X0032340Y0043062D01*
X0032498Y0043046D01*
X0032655Y0043026D01*
X0032811Y0043002D01*
X0032967Y0042974D01*
X0033122Y0042943D01*
X0033277Y0042907D01*
X0033430Y0042868D01*
X0033582Y0042825D01*
X0033733Y0042778D01*
X0033883Y0042727D01*
X0034032Y0042672D01*
X0034179Y0042614D01*
X0034325Y0042552D01*
X0034469Y0042487D01*
X0034611Y0042417D01*
X0034752Y0042345D01*
X0034891Y0042268D01*
X0035027Y0042189D01*
X0035162Y0042105D01*
X0035295Y0042019D01*
X0035425Y0041929D01*
X0035553Y0041836D01*
X0035679Y0041740D01*
X0035802Y0041640D01*
X0035923Y0041538D01*
X0036041Y0041433D01*
X0036156Y0041324D01*
X0036269Y0041213D01*
X0036379Y0041099D01*
X0036486Y0040982D01*
X0036590Y0040863D01*
X0036691Y0040741D01*
X0036788Y0040616D01*
X0036883Y0040489D01*
X0036974Y0040360D01*
X0037063Y0040229D01*
X0037147Y0040095D01*
X0037229Y0039959D01*
X0037307Y0039822D01*
X0037381Y0039682D01*
X0037452Y0039540D01*
X0037520Y0039397D01*
X0037584Y0039252D01*
X0037644Y0039106D01*
X0037700Y0038958D01*
X0037753Y0038809D01*
X0037802Y0038658D01*
X0037847Y0038506D01*
X0037888Y0038353D01*
X0037926Y0038200D01*
X0037959Y0038045D01*
X0037989Y0037889D01*
X0038015Y0037733D01*
X0038036Y0037576D01*
X0038054Y0037419D01*
X0038068Y0037261D01*
X0038078Y0037103D01*
X0038084Y0036945D01*
X0038086Y0036787D01*
X0038084Y0036629D01*
X0038078Y0036471D01*
X0038068Y0036313D01*
X0038054Y0036155D01*
X0038036Y0035998D01*
X0038015Y0035841D01*
X0037989Y0035685D01*
X0037959Y0035529D01*
X0037926Y0035374D01*
X0037888Y0035221D01*
X0037847Y0035068D01*
X0037802Y0034916D01*
X0037753Y0034765D01*
X0037700Y0034616D01*
X0037644Y0034468D01*
X0037584Y0034322D01*
X0037520Y0034177D01*
X0037452Y0034034D01*
X0037381Y0033892D01*
X0037307Y0033752D01*
X0037229Y0033615D01*
X0037147Y0033479D01*
X0037063Y0033345D01*
X0036974Y0033214D01*
X0036883Y0033085D01*
X0036788Y0032958D01*
X0036691Y0032833D01*
X0036590Y0032711D01*
X0036486Y0032592D01*
X0036379Y0032475D01*
X0036269Y0032361D01*
X0036156Y0032250D01*
X0036041Y0032141D01*
X0035923Y0032036D01*
X0035802Y0031934D01*
X0035679Y0031834D01*
X0035553Y0031738D01*
X0035425Y0031645D01*
X0035295Y0031555D01*
X0035162Y0031469D01*
X0035027Y0031385D01*
X0034891Y0031306D01*
X0034752Y0031229D01*
X0034611Y0031157D01*
X0034469Y0031087D01*
X0034325Y0031022D01*
X0034179Y0030960D01*
X0034032Y0030902D01*
X0033883Y0030847D01*
X0033733Y0030796D01*
X0033582Y0030749D01*
X0033430Y0030706D01*
X0033277Y0030667D01*
X0033122Y0030631D01*
X0032967Y0030600D01*
X0032811Y0030572D01*
X0032655Y0030548D01*
X0032498Y0030528D01*
X0032340Y0030512D01*
X0032183Y0030500D01*
X0032024Y0030492D01*
X0031866Y0030488D01*
X0031708Y0030488D01*
X0031550Y0030492D01*
X0031391Y0030500D01*
X0031234Y0030512D01*
X0031076Y0030528D01*
X0030919Y0030548D01*
X0030763Y0030572D01*
X0030607Y0030600D01*
X0030452Y0030631D01*
X0030297Y0030667D01*
X0030144Y0030706D01*
X0029992Y0030749D01*
X0029841Y0030796D01*
X0029691Y0030847D01*
X0029542Y0030902D01*
X0029395Y0030960D01*
X0029249Y0031022D01*
X0029105Y0031087D01*
X0028963Y0031157D01*
X0028822Y0031229D01*
X0028683Y0031306D01*
X0028547Y0031385D01*
X0028412Y0031469D01*
X0028279Y0031555D01*
X0028149Y0031645D01*
X0028021Y0031738D01*
X0027895Y0031834D01*
X0027772Y0031934D01*
X0027651Y0032036D01*
X0027533Y0032141D01*
X0027418Y0032250D01*
X0027305Y0032361D01*
X0027195Y0032475D01*
X0027088Y0032592D01*
X0026984Y0032711D01*
X0026883Y0032833D01*
X0026786Y0032958D01*
X0026691Y0033085D01*
X0026600Y0033214D01*
X0026511Y0033345D01*
X0026427Y0033479D01*
X0026345Y0033615D01*
X0026267Y0033752D01*
X0026193Y0033892D01*
X0026122Y0034034D01*
X0026054Y0034177D01*
X0025990Y0034322D01*
X0025930Y0034468D01*
X0025874Y0034616D01*
X0025821Y0034765D01*
X0025772Y0034916D01*
X0025727Y0035068D01*
X0025686Y0035221D01*
X0025648Y0035374D01*
X0025615Y0035529D01*
X0025585Y0035685D01*
X0025559Y0035841D01*
X0025538Y0035998D01*
X0025520Y0036155D01*
X0025506Y0036313D01*
X0025496Y0036471D01*
X0025490Y0036629D01*
X0025488Y0036787D01*
X0190843Y0095843D02*
X0190845Y0096001D01*
X0190851Y0096159D01*
X0190861Y0096317D01*
X0190875Y0096475D01*
X0190893Y0096632D01*
X0190914Y0096789D01*
X0190940Y0096945D01*
X0190970Y0097101D01*
X0191003Y0097256D01*
X0191041Y0097409D01*
X0191082Y0097562D01*
X0191127Y0097714D01*
X0191176Y0097865D01*
X0191229Y0098014D01*
X0191285Y0098162D01*
X0191345Y0098308D01*
X0191409Y0098453D01*
X0191477Y0098596D01*
X0191548Y0098738D01*
X0191622Y0098878D01*
X0191700Y0099015D01*
X0191782Y0099151D01*
X0191866Y0099285D01*
X0191955Y0099416D01*
X0192046Y0099545D01*
X0192141Y0099672D01*
X0192238Y0099797D01*
X0192339Y0099919D01*
X0192443Y0100038D01*
X0192550Y0100155D01*
X0192660Y0100269D01*
X0192773Y0100380D01*
X0192888Y0100489D01*
X0193006Y0100594D01*
X0193127Y0100696D01*
X0193250Y0100796D01*
X0193376Y0100892D01*
X0193504Y0100985D01*
X0193634Y0101075D01*
X0193767Y0101161D01*
X0193902Y0101245D01*
X0194038Y0101324D01*
X0194177Y0101401D01*
X0194318Y0101473D01*
X0194460Y0101543D01*
X0194604Y0101608D01*
X0194750Y0101670D01*
X0194897Y0101728D01*
X0195046Y0101783D01*
X0195196Y0101834D01*
X0195347Y0101881D01*
X0195499Y0101924D01*
X0195652Y0101963D01*
X0195807Y0101999D01*
X0195962Y0102030D01*
X0196118Y0102058D01*
X0196274Y0102082D01*
X0196431Y0102102D01*
X0196589Y0102118D01*
X0196746Y0102130D01*
X0196905Y0102138D01*
X0197063Y0102142D01*
X0197221Y0102142D01*
X0197379Y0102138D01*
X0197538Y0102130D01*
X0197695Y0102118D01*
X0197853Y0102102D01*
X0198010Y0102082D01*
X0198166Y0102058D01*
X0198322Y0102030D01*
X0198477Y0101999D01*
X0198632Y0101963D01*
X0198785Y0101924D01*
X0198937Y0101881D01*
X0199088Y0101834D01*
X0199238Y0101783D01*
X0199387Y0101728D01*
X0199534Y0101670D01*
X0199680Y0101608D01*
X0199824Y0101543D01*
X0199966Y0101473D01*
X0200107Y0101401D01*
X0200246Y0101324D01*
X0200382Y0101245D01*
X0200517Y0101161D01*
X0200650Y0101075D01*
X0200780Y0100985D01*
X0200908Y0100892D01*
X0201034Y0100796D01*
X0201157Y0100696D01*
X0201278Y0100594D01*
X0201396Y0100489D01*
X0201511Y0100380D01*
X0201624Y0100269D01*
X0201734Y0100155D01*
X0201841Y0100038D01*
X0201945Y0099919D01*
X0202046Y0099797D01*
X0202143Y0099672D01*
X0202238Y0099545D01*
X0202329Y0099416D01*
X0202418Y0099285D01*
X0202502Y0099151D01*
X0202584Y0099015D01*
X0202662Y0098878D01*
X0202736Y0098738D01*
X0202807Y0098596D01*
X0202875Y0098453D01*
X0202939Y0098308D01*
X0202999Y0098162D01*
X0203055Y0098014D01*
X0203108Y0097865D01*
X0203157Y0097714D01*
X0203202Y0097562D01*
X0203243Y0097409D01*
X0203281Y0097256D01*
X0203314Y0097101D01*
X0203344Y0096945D01*
X0203370Y0096789D01*
X0203391Y0096632D01*
X0203409Y0096475D01*
X0203423Y0096317D01*
X0203433Y0096159D01*
X0203439Y0096001D01*
X0203441Y0095843D01*
X0203439Y0095685D01*
X0203433Y0095527D01*
X0203423Y0095369D01*
X0203409Y0095211D01*
X0203391Y0095054D01*
X0203370Y0094897D01*
X0203344Y0094741D01*
X0203314Y0094585D01*
X0203281Y0094430D01*
X0203243Y0094277D01*
X0203202Y0094124D01*
X0203157Y0093972D01*
X0203108Y0093821D01*
X0203055Y0093672D01*
X0202999Y0093524D01*
X0202939Y0093378D01*
X0202875Y0093233D01*
X0202807Y0093090D01*
X0202736Y0092948D01*
X0202662Y0092808D01*
X0202584Y0092671D01*
X0202502Y0092535D01*
X0202418Y0092401D01*
X0202329Y0092270D01*
X0202238Y0092141D01*
X0202143Y0092014D01*
X0202046Y0091889D01*
X0201945Y0091767D01*
X0201841Y0091648D01*
X0201734Y0091531D01*
X0201624Y0091417D01*
X0201511Y0091306D01*
X0201396Y0091197D01*
X0201278Y0091092D01*
X0201157Y0090990D01*
X0201034Y0090890D01*
X0200908Y0090794D01*
X0200780Y0090701D01*
X0200650Y0090611D01*
X0200517Y0090525D01*
X0200382Y0090441D01*
X0200246Y0090362D01*
X0200107Y0090285D01*
X0199966Y0090213D01*
X0199824Y0090143D01*
X0199680Y0090078D01*
X0199534Y0090016D01*
X0199387Y0089958D01*
X0199238Y0089903D01*
X0199088Y0089852D01*
X0198937Y0089805D01*
X0198785Y0089762D01*
X0198632Y0089723D01*
X0198477Y0089687D01*
X0198322Y0089656D01*
X0198166Y0089628D01*
X0198010Y0089604D01*
X0197853Y0089584D01*
X0197695Y0089568D01*
X0197538Y0089556D01*
X0197379Y0089548D01*
X0197221Y0089544D01*
X0197063Y0089544D01*
X0196905Y0089548D01*
X0196746Y0089556D01*
X0196589Y0089568D01*
X0196431Y0089584D01*
X0196274Y0089604D01*
X0196118Y0089628D01*
X0195962Y0089656D01*
X0195807Y0089687D01*
X0195652Y0089723D01*
X0195499Y0089762D01*
X0195347Y0089805D01*
X0195196Y0089852D01*
X0195046Y0089903D01*
X0194897Y0089958D01*
X0194750Y0090016D01*
X0194604Y0090078D01*
X0194460Y0090143D01*
X0194318Y0090213D01*
X0194177Y0090285D01*
X0194038Y0090362D01*
X0193902Y0090441D01*
X0193767Y0090525D01*
X0193634Y0090611D01*
X0193504Y0090701D01*
X0193376Y0090794D01*
X0193250Y0090890D01*
X0193127Y0090990D01*
X0193006Y0091092D01*
X0192888Y0091197D01*
X0192773Y0091306D01*
X0192660Y0091417D01*
X0192550Y0091531D01*
X0192443Y0091648D01*
X0192339Y0091767D01*
X0192238Y0091889D01*
X0192141Y0092014D01*
X0192046Y0092141D01*
X0191955Y0092270D01*
X0191866Y0092401D01*
X0191782Y0092535D01*
X0191700Y0092671D01*
X0191622Y0092808D01*
X0191548Y0092948D01*
X0191477Y0093090D01*
X0191409Y0093233D01*
X0191345Y0093378D01*
X0191285Y0093524D01*
X0191229Y0093672D01*
X0191176Y0093821D01*
X0191127Y0093972D01*
X0191082Y0094124D01*
X0191041Y0094277D01*
X0191003Y0094430D01*
X0190970Y0094585D01*
X0190940Y0094741D01*
X0190914Y0094897D01*
X0190893Y0095054D01*
X0190875Y0095211D01*
X0190861Y0095369D01*
X0190851Y0095527D01*
X0190845Y0095685D01*
X0190843Y0095843D01*
X0308953Y0036787D02*
X0308955Y0036945D01*
X0308961Y0037103D01*
X0308971Y0037261D01*
X0308985Y0037419D01*
X0309003Y0037576D01*
X0309024Y0037733D01*
X0309050Y0037889D01*
X0309080Y0038045D01*
X0309113Y0038200D01*
X0309151Y0038353D01*
X0309192Y0038506D01*
X0309237Y0038658D01*
X0309286Y0038809D01*
X0309339Y0038958D01*
X0309395Y0039106D01*
X0309455Y0039252D01*
X0309519Y0039397D01*
X0309587Y0039540D01*
X0309658Y0039682D01*
X0309732Y0039822D01*
X0309810Y0039959D01*
X0309892Y0040095D01*
X0309976Y0040229D01*
X0310065Y0040360D01*
X0310156Y0040489D01*
X0310251Y0040616D01*
X0310348Y0040741D01*
X0310449Y0040863D01*
X0310553Y0040982D01*
X0310660Y0041099D01*
X0310770Y0041213D01*
X0310883Y0041324D01*
X0310998Y0041433D01*
X0311116Y0041538D01*
X0311237Y0041640D01*
X0311360Y0041740D01*
X0311486Y0041836D01*
X0311614Y0041929D01*
X0311744Y0042019D01*
X0311877Y0042105D01*
X0312012Y0042189D01*
X0312148Y0042268D01*
X0312287Y0042345D01*
X0312428Y0042417D01*
X0312570Y0042487D01*
X0312714Y0042552D01*
X0312860Y0042614D01*
X0313007Y0042672D01*
X0313156Y0042727D01*
X0313306Y0042778D01*
X0313457Y0042825D01*
X0313609Y0042868D01*
X0313762Y0042907D01*
X0313917Y0042943D01*
X0314072Y0042974D01*
X0314228Y0043002D01*
X0314384Y0043026D01*
X0314541Y0043046D01*
X0314699Y0043062D01*
X0314856Y0043074D01*
X0315015Y0043082D01*
X0315173Y0043086D01*
X0315331Y0043086D01*
X0315489Y0043082D01*
X0315648Y0043074D01*
X0315805Y0043062D01*
X0315963Y0043046D01*
X0316120Y0043026D01*
X0316276Y0043002D01*
X0316432Y0042974D01*
X0316587Y0042943D01*
X0316742Y0042907D01*
X0316895Y0042868D01*
X0317047Y0042825D01*
X0317198Y0042778D01*
X0317348Y0042727D01*
X0317497Y0042672D01*
X0317644Y0042614D01*
X0317790Y0042552D01*
X0317934Y0042487D01*
X0318076Y0042417D01*
X0318217Y0042345D01*
X0318356Y0042268D01*
X0318492Y0042189D01*
X0318627Y0042105D01*
X0318760Y0042019D01*
X0318890Y0041929D01*
X0319018Y0041836D01*
X0319144Y0041740D01*
X0319267Y0041640D01*
X0319388Y0041538D01*
X0319506Y0041433D01*
X0319621Y0041324D01*
X0319734Y0041213D01*
X0319844Y0041099D01*
X0319951Y0040982D01*
X0320055Y0040863D01*
X0320156Y0040741D01*
X0320253Y0040616D01*
X0320348Y0040489D01*
X0320439Y0040360D01*
X0320528Y0040229D01*
X0320612Y0040095D01*
X0320694Y0039959D01*
X0320772Y0039822D01*
X0320846Y0039682D01*
X0320917Y0039540D01*
X0320985Y0039397D01*
X0321049Y0039252D01*
X0321109Y0039106D01*
X0321165Y0038958D01*
X0321218Y0038809D01*
X0321267Y0038658D01*
X0321312Y0038506D01*
X0321353Y0038353D01*
X0321391Y0038200D01*
X0321424Y0038045D01*
X0321454Y0037889D01*
X0321480Y0037733D01*
X0321501Y0037576D01*
X0321519Y0037419D01*
X0321533Y0037261D01*
X0321543Y0037103D01*
X0321549Y0036945D01*
X0321551Y0036787D01*
X0321549Y0036629D01*
X0321543Y0036471D01*
X0321533Y0036313D01*
X0321519Y0036155D01*
X0321501Y0035998D01*
X0321480Y0035841D01*
X0321454Y0035685D01*
X0321424Y0035529D01*
X0321391Y0035374D01*
X0321353Y0035221D01*
X0321312Y0035068D01*
X0321267Y0034916D01*
X0321218Y0034765D01*
X0321165Y0034616D01*
X0321109Y0034468D01*
X0321049Y0034322D01*
X0320985Y0034177D01*
X0320917Y0034034D01*
X0320846Y0033892D01*
X0320772Y0033752D01*
X0320694Y0033615D01*
X0320612Y0033479D01*
X0320528Y0033345D01*
X0320439Y0033214D01*
X0320348Y0033085D01*
X0320253Y0032958D01*
X0320156Y0032833D01*
X0320055Y0032711D01*
X0319951Y0032592D01*
X0319844Y0032475D01*
X0319734Y0032361D01*
X0319621Y0032250D01*
X0319506Y0032141D01*
X0319388Y0032036D01*
X0319267Y0031934D01*
X0319144Y0031834D01*
X0319018Y0031738D01*
X0318890Y0031645D01*
X0318760Y0031555D01*
X0318627Y0031469D01*
X0318492Y0031385D01*
X0318356Y0031306D01*
X0318217Y0031229D01*
X0318076Y0031157D01*
X0317934Y0031087D01*
X0317790Y0031022D01*
X0317644Y0030960D01*
X0317497Y0030902D01*
X0317348Y0030847D01*
X0317198Y0030796D01*
X0317047Y0030749D01*
X0316895Y0030706D01*
X0316742Y0030667D01*
X0316587Y0030631D01*
X0316432Y0030600D01*
X0316276Y0030572D01*
X0316120Y0030548D01*
X0315963Y0030528D01*
X0315805Y0030512D01*
X0315648Y0030500D01*
X0315489Y0030492D01*
X0315331Y0030488D01*
X0315173Y0030488D01*
X0315015Y0030492D01*
X0314856Y0030500D01*
X0314699Y0030512D01*
X0314541Y0030528D01*
X0314384Y0030548D01*
X0314228Y0030572D01*
X0314072Y0030600D01*
X0313917Y0030631D01*
X0313762Y0030667D01*
X0313609Y0030706D01*
X0313457Y0030749D01*
X0313306Y0030796D01*
X0313156Y0030847D01*
X0313007Y0030902D01*
X0312860Y0030960D01*
X0312714Y0031022D01*
X0312570Y0031087D01*
X0312428Y0031157D01*
X0312287Y0031229D01*
X0312148Y0031306D01*
X0312012Y0031385D01*
X0311877Y0031469D01*
X0311744Y0031555D01*
X0311614Y0031645D01*
X0311486Y0031738D01*
X0311360Y0031834D01*
X0311237Y0031934D01*
X0311116Y0032036D01*
X0310998Y0032141D01*
X0310883Y0032250D01*
X0310770Y0032361D01*
X0310660Y0032475D01*
X0310553Y0032592D01*
X0310449Y0032711D01*
X0310348Y0032833D01*
X0310251Y0032958D01*
X0310156Y0033085D01*
X0310065Y0033214D01*
X0309976Y0033345D01*
X0309892Y0033479D01*
X0309810Y0033615D01*
X0309732Y0033752D01*
X0309658Y0033892D01*
X0309587Y0034034D01*
X0309519Y0034177D01*
X0309455Y0034322D01*
X0309395Y0034468D01*
X0309339Y0034616D01*
X0309286Y0034765D01*
X0309237Y0034916D01*
X0309192Y0035068D01*
X0309151Y0035221D01*
X0309113Y0035374D01*
X0309080Y0035529D01*
X0309050Y0035685D01*
X0309024Y0035841D01*
X0309003Y0035998D01*
X0308985Y0036155D01*
X0308971Y0036313D01*
X0308961Y0036471D01*
X0308955Y0036629D01*
X0308953Y0036787D01*
X0190843Y0261197D02*
X0190845Y0261355D01*
X0190851Y0261513D01*
X0190861Y0261671D01*
X0190875Y0261829D01*
X0190893Y0261986D01*
X0190914Y0262143D01*
X0190940Y0262299D01*
X0190970Y0262455D01*
X0191003Y0262610D01*
X0191041Y0262763D01*
X0191082Y0262916D01*
X0191127Y0263068D01*
X0191176Y0263219D01*
X0191229Y0263368D01*
X0191285Y0263516D01*
X0191345Y0263662D01*
X0191409Y0263807D01*
X0191477Y0263950D01*
X0191548Y0264092D01*
X0191622Y0264232D01*
X0191700Y0264369D01*
X0191782Y0264505D01*
X0191866Y0264639D01*
X0191955Y0264770D01*
X0192046Y0264899D01*
X0192141Y0265026D01*
X0192238Y0265151D01*
X0192339Y0265273D01*
X0192443Y0265392D01*
X0192550Y0265509D01*
X0192660Y0265623D01*
X0192773Y0265734D01*
X0192888Y0265843D01*
X0193006Y0265948D01*
X0193127Y0266050D01*
X0193250Y0266150D01*
X0193376Y0266246D01*
X0193504Y0266339D01*
X0193634Y0266429D01*
X0193767Y0266515D01*
X0193902Y0266599D01*
X0194038Y0266678D01*
X0194177Y0266755D01*
X0194318Y0266827D01*
X0194460Y0266897D01*
X0194604Y0266962D01*
X0194750Y0267024D01*
X0194897Y0267082D01*
X0195046Y0267137D01*
X0195196Y0267188D01*
X0195347Y0267235D01*
X0195499Y0267278D01*
X0195652Y0267317D01*
X0195807Y0267353D01*
X0195962Y0267384D01*
X0196118Y0267412D01*
X0196274Y0267436D01*
X0196431Y0267456D01*
X0196589Y0267472D01*
X0196746Y0267484D01*
X0196905Y0267492D01*
X0197063Y0267496D01*
X0197221Y0267496D01*
X0197379Y0267492D01*
X0197538Y0267484D01*
X0197695Y0267472D01*
X0197853Y0267456D01*
X0198010Y0267436D01*
X0198166Y0267412D01*
X0198322Y0267384D01*
X0198477Y0267353D01*
X0198632Y0267317D01*
X0198785Y0267278D01*
X0198937Y0267235D01*
X0199088Y0267188D01*
X0199238Y0267137D01*
X0199387Y0267082D01*
X0199534Y0267024D01*
X0199680Y0266962D01*
X0199824Y0266897D01*
X0199966Y0266827D01*
X0200107Y0266755D01*
X0200246Y0266678D01*
X0200382Y0266599D01*
X0200517Y0266515D01*
X0200650Y0266429D01*
X0200780Y0266339D01*
X0200908Y0266246D01*
X0201034Y0266150D01*
X0201157Y0266050D01*
X0201278Y0265948D01*
X0201396Y0265843D01*
X0201511Y0265734D01*
X0201624Y0265623D01*
X0201734Y0265509D01*
X0201841Y0265392D01*
X0201945Y0265273D01*
X0202046Y0265151D01*
X0202143Y0265026D01*
X0202238Y0264899D01*
X0202329Y0264770D01*
X0202418Y0264639D01*
X0202502Y0264505D01*
X0202584Y0264369D01*
X0202662Y0264232D01*
X0202736Y0264092D01*
X0202807Y0263950D01*
X0202875Y0263807D01*
X0202939Y0263662D01*
X0202999Y0263516D01*
X0203055Y0263368D01*
X0203108Y0263219D01*
X0203157Y0263068D01*
X0203202Y0262916D01*
X0203243Y0262763D01*
X0203281Y0262610D01*
X0203314Y0262455D01*
X0203344Y0262299D01*
X0203370Y0262143D01*
X0203391Y0261986D01*
X0203409Y0261829D01*
X0203423Y0261671D01*
X0203433Y0261513D01*
X0203439Y0261355D01*
X0203441Y0261197D01*
X0203439Y0261039D01*
X0203433Y0260881D01*
X0203423Y0260723D01*
X0203409Y0260565D01*
X0203391Y0260408D01*
X0203370Y0260251D01*
X0203344Y0260095D01*
X0203314Y0259939D01*
X0203281Y0259784D01*
X0203243Y0259631D01*
X0203202Y0259478D01*
X0203157Y0259326D01*
X0203108Y0259175D01*
X0203055Y0259026D01*
X0202999Y0258878D01*
X0202939Y0258732D01*
X0202875Y0258587D01*
X0202807Y0258444D01*
X0202736Y0258302D01*
X0202662Y0258162D01*
X0202584Y0258025D01*
X0202502Y0257889D01*
X0202418Y0257755D01*
X0202329Y0257624D01*
X0202238Y0257495D01*
X0202143Y0257368D01*
X0202046Y0257243D01*
X0201945Y0257121D01*
X0201841Y0257002D01*
X0201734Y0256885D01*
X0201624Y0256771D01*
X0201511Y0256660D01*
X0201396Y0256551D01*
X0201278Y0256446D01*
X0201157Y0256344D01*
X0201034Y0256244D01*
X0200908Y0256148D01*
X0200780Y0256055D01*
X0200650Y0255965D01*
X0200517Y0255879D01*
X0200382Y0255795D01*
X0200246Y0255716D01*
X0200107Y0255639D01*
X0199966Y0255567D01*
X0199824Y0255497D01*
X0199680Y0255432D01*
X0199534Y0255370D01*
X0199387Y0255312D01*
X0199238Y0255257D01*
X0199088Y0255206D01*
X0198937Y0255159D01*
X0198785Y0255116D01*
X0198632Y0255077D01*
X0198477Y0255041D01*
X0198322Y0255010D01*
X0198166Y0254982D01*
X0198010Y0254958D01*
X0197853Y0254938D01*
X0197695Y0254922D01*
X0197538Y0254910D01*
X0197379Y0254902D01*
X0197221Y0254898D01*
X0197063Y0254898D01*
X0196905Y0254902D01*
X0196746Y0254910D01*
X0196589Y0254922D01*
X0196431Y0254938D01*
X0196274Y0254958D01*
X0196118Y0254982D01*
X0195962Y0255010D01*
X0195807Y0255041D01*
X0195652Y0255077D01*
X0195499Y0255116D01*
X0195347Y0255159D01*
X0195196Y0255206D01*
X0195046Y0255257D01*
X0194897Y0255312D01*
X0194750Y0255370D01*
X0194604Y0255432D01*
X0194460Y0255497D01*
X0194318Y0255567D01*
X0194177Y0255639D01*
X0194038Y0255716D01*
X0193902Y0255795D01*
X0193767Y0255879D01*
X0193634Y0255965D01*
X0193504Y0256055D01*
X0193376Y0256148D01*
X0193250Y0256244D01*
X0193127Y0256344D01*
X0193006Y0256446D01*
X0192888Y0256551D01*
X0192773Y0256660D01*
X0192660Y0256771D01*
X0192550Y0256885D01*
X0192443Y0257002D01*
X0192339Y0257121D01*
X0192238Y0257243D01*
X0192141Y0257368D01*
X0192046Y0257495D01*
X0191955Y0257624D01*
X0191866Y0257755D01*
X0191782Y0257889D01*
X0191700Y0258025D01*
X0191622Y0258162D01*
X0191548Y0258302D01*
X0191477Y0258444D01*
X0191409Y0258587D01*
X0191345Y0258732D01*
X0191285Y0258878D01*
X0191229Y0259026D01*
X0191176Y0259175D01*
X0191127Y0259326D01*
X0191082Y0259478D01*
X0191041Y0259631D01*
X0191003Y0259784D01*
X0190970Y0259939D01*
X0190940Y0260095D01*
X0190914Y0260251D01*
X0190893Y0260408D01*
X0190875Y0260565D01*
X0190861Y0260723D01*
X0190851Y0260881D01*
X0190845Y0261039D01*
X0190843Y0261197D01*
X0308953Y0320252D02*
X0308955Y0320410D01*
X0308961Y0320568D01*
X0308971Y0320726D01*
X0308985Y0320884D01*
X0309003Y0321041D01*
X0309024Y0321198D01*
X0309050Y0321354D01*
X0309080Y0321510D01*
X0309113Y0321665D01*
X0309151Y0321818D01*
X0309192Y0321971D01*
X0309237Y0322123D01*
X0309286Y0322274D01*
X0309339Y0322423D01*
X0309395Y0322571D01*
X0309455Y0322717D01*
X0309519Y0322862D01*
X0309587Y0323005D01*
X0309658Y0323147D01*
X0309732Y0323287D01*
X0309810Y0323424D01*
X0309892Y0323560D01*
X0309976Y0323694D01*
X0310065Y0323825D01*
X0310156Y0323954D01*
X0310251Y0324081D01*
X0310348Y0324206D01*
X0310449Y0324328D01*
X0310553Y0324447D01*
X0310660Y0324564D01*
X0310770Y0324678D01*
X0310883Y0324789D01*
X0310998Y0324898D01*
X0311116Y0325003D01*
X0311237Y0325105D01*
X0311360Y0325205D01*
X0311486Y0325301D01*
X0311614Y0325394D01*
X0311744Y0325484D01*
X0311877Y0325570D01*
X0312012Y0325654D01*
X0312148Y0325733D01*
X0312287Y0325810D01*
X0312428Y0325882D01*
X0312570Y0325952D01*
X0312714Y0326017D01*
X0312860Y0326079D01*
X0313007Y0326137D01*
X0313156Y0326192D01*
X0313306Y0326243D01*
X0313457Y0326290D01*
X0313609Y0326333D01*
X0313762Y0326372D01*
X0313917Y0326408D01*
X0314072Y0326439D01*
X0314228Y0326467D01*
X0314384Y0326491D01*
X0314541Y0326511D01*
X0314699Y0326527D01*
X0314856Y0326539D01*
X0315015Y0326547D01*
X0315173Y0326551D01*
X0315331Y0326551D01*
X0315489Y0326547D01*
X0315648Y0326539D01*
X0315805Y0326527D01*
X0315963Y0326511D01*
X0316120Y0326491D01*
X0316276Y0326467D01*
X0316432Y0326439D01*
X0316587Y0326408D01*
X0316742Y0326372D01*
X0316895Y0326333D01*
X0317047Y0326290D01*
X0317198Y0326243D01*
X0317348Y0326192D01*
X0317497Y0326137D01*
X0317644Y0326079D01*
X0317790Y0326017D01*
X0317934Y0325952D01*
X0318076Y0325882D01*
X0318217Y0325810D01*
X0318356Y0325733D01*
X0318492Y0325654D01*
X0318627Y0325570D01*
X0318760Y0325484D01*
X0318890Y0325394D01*
X0319018Y0325301D01*
X0319144Y0325205D01*
X0319267Y0325105D01*
X0319388Y0325003D01*
X0319506Y0324898D01*
X0319621Y0324789D01*
X0319734Y0324678D01*
X0319844Y0324564D01*
X0319951Y0324447D01*
X0320055Y0324328D01*
X0320156Y0324206D01*
X0320253Y0324081D01*
X0320348Y0323954D01*
X0320439Y0323825D01*
X0320528Y0323694D01*
X0320612Y0323560D01*
X0320694Y0323424D01*
X0320772Y0323287D01*
X0320846Y0323147D01*
X0320917Y0323005D01*
X0320985Y0322862D01*
X0321049Y0322717D01*
X0321109Y0322571D01*
X0321165Y0322423D01*
X0321218Y0322274D01*
X0321267Y0322123D01*
X0321312Y0321971D01*
X0321353Y0321818D01*
X0321391Y0321665D01*
X0321424Y0321510D01*
X0321454Y0321354D01*
X0321480Y0321198D01*
X0321501Y0321041D01*
X0321519Y0320884D01*
X0321533Y0320726D01*
X0321543Y0320568D01*
X0321549Y0320410D01*
X0321551Y0320252D01*
X0321549Y0320094D01*
X0321543Y0319936D01*
X0321533Y0319778D01*
X0321519Y0319620D01*
X0321501Y0319463D01*
X0321480Y0319306D01*
X0321454Y0319150D01*
X0321424Y0318994D01*
X0321391Y0318839D01*
X0321353Y0318686D01*
X0321312Y0318533D01*
X0321267Y0318381D01*
X0321218Y0318230D01*
X0321165Y0318081D01*
X0321109Y0317933D01*
X0321049Y0317787D01*
X0320985Y0317642D01*
X0320917Y0317499D01*
X0320846Y0317357D01*
X0320772Y0317217D01*
X0320694Y0317080D01*
X0320612Y0316944D01*
X0320528Y0316810D01*
X0320439Y0316679D01*
X0320348Y0316550D01*
X0320253Y0316423D01*
X0320156Y0316298D01*
X0320055Y0316176D01*
X0319951Y0316057D01*
X0319844Y0315940D01*
X0319734Y0315826D01*
X0319621Y0315715D01*
X0319506Y0315606D01*
X0319388Y0315501D01*
X0319267Y0315399D01*
X0319144Y0315299D01*
X0319018Y0315203D01*
X0318890Y0315110D01*
X0318760Y0315020D01*
X0318627Y0314934D01*
X0318492Y0314850D01*
X0318356Y0314771D01*
X0318217Y0314694D01*
X0318076Y0314622D01*
X0317934Y0314552D01*
X0317790Y0314487D01*
X0317644Y0314425D01*
X0317497Y0314367D01*
X0317348Y0314312D01*
X0317198Y0314261D01*
X0317047Y0314214D01*
X0316895Y0314171D01*
X0316742Y0314132D01*
X0316587Y0314096D01*
X0316432Y0314065D01*
X0316276Y0314037D01*
X0316120Y0314013D01*
X0315963Y0313993D01*
X0315805Y0313977D01*
X0315648Y0313965D01*
X0315489Y0313957D01*
X0315331Y0313953D01*
X0315173Y0313953D01*
X0315015Y0313957D01*
X0314856Y0313965D01*
X0314699Y0313977D01*
X0314541Y0313993D01*
X0314384Y0314013D01*
X0314228Y0314037D01*
X0314072Y0314065D01*
X0313917Y0314096D01*
X0313762Y0314132D01*
X0313609Y0314171D01*
X0313457Y0314214D01*
X0313306Y0314261D01*
X0313156Y0314312D01*
X0313007Y0314367D01*
X0312860Y0314425D01*
X0312714Y0314487D01*
X0312570Y0314552D01*
X0312428Y0314622D01*
X0312287Y0314694D01*
X0312148Y0314771D01*
X0312012Y0314850D01*
X0311877Y0314934D01*
X0311744Y0315020D01*
X0311614Y0315110D01*
X0311486Y0315203D01*
X0311360Y0315299D01*
X0311237Y0315399D01*
X0311116Y0315501D01*
X0310998Y0315606D01*
X0310883Y0315715D01*
X0310770Y0315826D01*
X0310660Y0315940D01*
X0310553Y0316057D01*
X0310449Y0316176D01*
X0310348Y0316298D01*
X0310251Y0316423D01*
X0310156Y0316550D01*
X0310065Y0316679D01*
X0309976Y0316810D01*
X0309892Y0316944D01*
X0309810Y0317080D01*
X0309732Y0317217D01*
X0309658Y0317357D01*
X0309587Y0317499D01*
X0309519Y0317642D01*
X0309455Y0317787D01*
X0309395Y0317933D01*
X0309339Y0318081D01*
X0309286Y0318230D01*
X0309237Y0318381D01*
X0309192Y0318533D01*
X0309151Y0318686D01*
X0309113Y0318839D01*
X0309080Y0318994D01*
X0309050Y0319150D01*
X0309024Y0319306D01*
X0309003Y0319463D01*
X0308985Y0319620D01*
X0308971Y0319778D01*
X0308961Y0319936D01*
X0308955Y0320094D01*
X0308953Y0320252D01*
X0025488Y0320252D02*
X0025490Y0320410D01*
X0025496Y0320568D01*
X0025506Y0320726D01*
X0025520Y0320884D01*
X0025538Y0321041D01*
X0025559Y0321198D01*
X0025585Y0321354D01*
X0025615Y0321510D01*
X0025648Y0321665D01*
X0025686Y0321818D01*
X0025727Y0321971D01*
X0025772Y0322123D01*
X0025821Y0322274D01*
X0025874Y0322423D01*
X0025930Y0322571D01*
X0025990Y0322717D01*
X0026054Y0322862D01*
X0026122Y0323005D01*
X0026193Y0323147D01*
X0026267Y0323287D01*
X0026345Y0323424D01*
X0026427Y0323560D01*
X0026511Y0323694D01*
X0026600Y0323825D01*
X0026691Y0323954D01*
X0026786Y0324081D01*
X0026883Y0324206D01*
X0026984Y0324328D01*
X0027088Y0324447D01*
X0027195Y0324564D01*
X0027305Y0324678D01*
X0027418Y0324789D01*
X0027533Y0324898D01*
X0027651Y0325003D01*
X0027772Y0325105D01*
X0027895Y0325205D01*
X0028021Y0325301D01*
X0028149Y0325394D01*
X0028279Y0325484D01*
X0028412Y0325570D01*
X0028547Y0325654D01*
X0028683Y0325733D01*
X0028822Y0325810D01*
X0028963Y0325882D01*
X0029105Y0325952D01*
X0029249Y0326017D01*
X0029395Y0326079D01*
X0029542Y0326137D01*
X0029691Y0326192D01*
X0029841Y0326243D01*
X0029992Y0326290D01*
X0030144Y0326333D01*
X0030297Y0326372D01*
X0030452Y0326408D01*
X0030607Y0326439D01*
X0030763Y0326467D01*
X0030919Y0326491D01*
X0031076Y0326511D01*
X0031234Y0326527D01*
X0031391Y0326539D01*
X0031550Y0326547D01*
X0031708Y0326551D01*
X0031866Y0326551D01*
X0032024Y0326547D01*
X0032183Y0326539D01*
X0032340Y0326527D01*
X0032498Y0326511D01*
X0032655Y0326491D01*
X0032811Y0326467D01*
X0032967Y0326439D01*
X0033122Y0326408D01*
X0033277Y0326372D01*
X0033430Y0326333D01*
X0033582Y0326290D01*
X0033733Y0326243D01*
X0033883Y0326192D01*
X0034032Y0326137D01*
X0034179Y0326079D01*
X0034325Y0326017D01*
X0034469Y0325952D01*
X0034611Y0325882D01*
X0034752Y0325810D01*
X0034891Y0325733D01*
X0035027Y0325654D01*
X0035162Y0325570D01*
X0035295Y0325484D01*
X0035425Y0325394D01*
X0035553Y0325301D01*
X0035679Y0325205D01*
X0035802Y0325105D01*
X0035923Y0325003D01*
X0036041Y0324898D01*
X0036156Y0324789D01*
X0036269Y0324678D01*
X0036379Y0324564D01*
X0036486Y0324447D01*
X0036590Y0324328D01*
X0036691Y0324206D01*
X0036788Y0324081D01*
X0036883Y0323954D01*
X0036974Y0323825D01*
X0037063Y0323694D01*
X0037147Y0323560D01*
X0037229Y0323424D01*
X0037307Y0323287D01*
X0037381Y0323147D01*
X0037452Y0323005D01*
X0037520Y0322862D01*
X0037584Y0322717D01*
X0037644Y0322571D01*
X0037700Y0322423D01*
X0037753Y0322274D01*
X0037802Y0322123D01*
X0037847Y0321971D01*
X0037888Y0321818D01*
X0037926Y0321665D01*
X0037959Y0321510D01*
X0037989Y0321354D01*
X0038015Y0321198D01*
X0038036Y0321041D01*
X0038054Y0320884D01*
X0038068Y0320726D01*
X0038078Y0320568D01*
X0038084Y0320410D01*
X0038086Y0320252D01*
X0038084Y0320094D01*
X0038078Y0319936D01*
X0038068Y0319778D01*
X0038054Y0319620D01*
X0038036Y0319463D01*
X0038015Y0319306D01*
X0037989Y0319150D01*
X0037959Y0318994D01*
X0037926Y0318839D01*
X0037888Y0318686D01*
X0037847Y0318533D01*
X0037802Y0318381D01*
X0037753Y0318230D01*
X0037700Y0318081D01*
X0037644Y0317933D01*
X0037584Y0317787D01*
X0037520Y0317642D01*
X0037452Y0317499D01*
X0037381Y0317357D01*
X0037307Y0317217D01*
X0037229Y0317080D01*
X0037147Y0316944D01*
X0037063Y0316810D01*
X0036974Y0316679D01*
X0036883Y0316550D01*
X0036788Y0316423D01*
X0036691Y0316298D01*
X0036590Y0316176D01*
X0036486Y0316057D01*
X0036379Y0315940D01*
X0036269Y0315826D01*
X0036156Y0315715D01*
X0036041Y0315606D01*
X0035923Y0315501D01*
X0035802Y0315399D01*
X0035679Y0315299D01*
X0035553Y0315203D01*
X0035425Y0315110D01*
X0035295Y0315020D01*
X0035162Y0314934D01*
X0035027Y0314850D01*
X0034891Y0314771D01*
X0034752Y0314694D01*
X0034611Y0314622D01*
X0034469Y0314552D01*
X0034325Y0314487D01*
X0034179Y0314425D01*
X0034032Y0314367D01*
X0033883Y0314312D01*
X0033733Y0314261D01*
X0033582Y0314214D01*
X0033430Y0314171D01*
X0033277Y0314132D01*
X0033122Y0314096D01*
X0032967Y0314065D01*
X0032811Y0314037D01*
X0032655Y0314013D01*
X0032498Y0313993D01*
X0032340Y0313977D01*
X0032183Y0313965D01*
X0032024Y0313957D01*
X0031866Y0313953D01*
X0031708Y0313953D01*
X0031550Y0313957D01*
X0031391Y0313965D01*
X0031234Y0313977D01*
X0031076Y0313993D01*
X0030919Y0314013D01*
X0030763Y0314037D01*
X0030607Y0314065D01*
X0030452Y0314096D01*
X0030297Y0314132D01*
X0030144Y0314171D01*
X0029992Y0314214D01*
X0029841Y0314261D01*
X0029691Y0314312D01*
X0029542Y0314367D01*
X0029395Y0314425D01*
X0029249Y0314487D01*
X0029105Y0314552D01*
X0028963Y0314622D01*
X0028822Y0314694D01*
X0028683Y0314771D01*
X0028547Y0314850D01*
X0028412Y0314934D01*
X0028279Y0315020D01*
X0028149Y0315110D01*
X0028021Y0315203D01*
X0027895Y0315299D01*
X0027772Y0315399D01*
X0027651Y0315501D01*
X0027533Y0315606D01*
X0027418Y0315715D01*
X0027305Y0315826D01*
X0027195Y0315940D01*
X0027088Y0316057D01*
X0026984Y0316176D01*
X0026883Y0316298D01*
X0026786Y0316423D01*
X0026691Y0316550D01*
X0026600Y0316679D01*
X0026511Y0316810D01*
X0026427Y0316944D01*
X0026345Y0317080D01*
X0026267Y0317217D01*
X0026193Y0317357D01*
X0026122Y0317499D01*
X0026054Y0317642D01*
X0025990Y0317787D01*
X0025930Y0317933D01*
X0025874Y0318081D01*
X0025821Y0318230D01*
X0025772Y0318381D01*
X0025727Y0318533D01*
X0025686Y0318686D01*
X0025648Y0318839D01*
X0025615Y0318994D01*
X0025585Y0319150D01*
X0025559Y0319306D01*
X0025538Y0319463D01*
X0025520Y0319620D01*
X0025506Y0319778D01*
X0025496Y0319936D01*
X0025490Y0320094D01*
X0025488Y0320252D01*
D12*
X0026000Y0278500D03*
X0036000Y0278500D03*
X0036000Y0268500D03*
X0026000Y0268500D03*
X0026000Y0258500D03*
X0036000Y0258500D03*
X0036000Y0248500D03*
X0026000Y0248500D03*
X0026000Y0238500D03*
X0026000Y0228500D03*
X0036000Y0228500D03*
X0036000Y0238500D03*
X0036000Y0218500D03*
X0026000Y0218500D03*
X0026000Y0208500D03*
X0036000Y0208500D03*
X0036000Y0198500D03*
X0026000Y0198500D03*
X0026000Y0188500D03*
X0026000Y0168500D03*
X0036000Y0168500D03*
X0036000Y0158500D03*
X0026000Y0158500D03*
X0026000Y0148500D03*
X0036000Y0148500D03*
X0036000Y0138500D03*
X0026000Y0138500D03*
X0026000Y0128500D03*
X0036000Y0128500D03*
X0036000Y0118500D03*
X0026000Y0118500D03*
X0026000Y0108500D03*
X0026000Y0098500D03*
X0036000Y0098500D03*
X0036000Y0108500D03*
X0036000Y0088500D03*
X0026000Y0088500D03*
X0026000Y0078500D03*
X0153000Y0264000D03*
X0153000Y0286000D03*
X0301000Y0203500D03*
X0301000Y0193500D03*
X0311000Y0193500D03*
X0311000Y0203500D03*
X0311000Y0213500D03*
X0321000Y0213500D03*
X0321000Y0203500D03*
X0321000Y0193500D03*
X0321000Y0183500D03*
X0321000Y0173500D03*
X0321000Y0163500D03*
X0321000Y0153500D03*
X0321000Y0143500D03*
X0311000Y0143500D03*
X0301000Y0143500D03*
X0301000Y0153500D03*
X0311000Y0153500D03*
X0311000Y0163500D03*
X0301000Y0163500D03*
X0301000Y0173500D03*
X0311000Y0173500D03*
X0311000Y0183500D03*
X0301000Y0183500D03*
D13*
X0301000Y0213500D03*
X0036000Y0188500D03*
X0036000Y0078500D03*
D14*
X0098100Y0162900D03*
X0094100Y0170400D03*
X0097700Y0195600D03*
X0094200Y0201500D03*
X0100000Y0227000D03*
X0106000Y0245000D03*
X0130000Y0245000D03*
X0156000Y0245000D03*
X0178000Y0245000D03*
X0178000Y0239000D03*
X0198000Y0239000D03*
X0198000Y0245000D03*
X0206600Y0235800D03*
X0216000Y0239000D03*
X0216000Y0245000D03*
X0236000Y0245000D03*
X0236000Y0239000D03*
X0244000Y0233000D03*
X0236100Y0229700D03*
X0235900Y0219400D03*
X0244000Y0217000D03*
X0256000Y0217000D03*
X0256000Y0233000D03*
X0256000Y0239000D03*
X0256000Y0245000D03*
X0272000Y0245000D03*
X0272000Y0239000D03*
X0272000Y0233000D03*
X0276000Y0229000D03*
X0282000Y0223000D03*
X0288000Y0223000D03*
X0286000Y0231000D03*
X0280000Y0237000D03*
X0294000Y0245000D03*
X0300000Y0239000D03*
X0300000Y0227000D03*
X0288000Y0213000D03*
X0282000Y0217000D03*
X0282000Y0207000D03*
X0290000Y0205000D03*
X0284000Y0197000D03*
X0288000Y0189000D03*
X0296000Y0189000D03*
X0278000Y0179000D03*
X0272000Y0189000D03*
X0272000Y0197000D03*
X0272000Y0207000D03*
X0272000Y0217000D03*
X0252000Y0177800D03*
X0248000Y0175500D03*
X0233500Y0175500D03*
X0226000Y0177800D03*
X0218000Y0158500D03*
X0185300Y0165200D03*
X0181100Y0163000D03*
X0155500Y0158700D03*
X0155400Y0196600D03*
X0200400Y0117000D03*
X0052100Y0251000D03*
D15*
X0123200Y0211700D03*
X0131000Y0216100D03*
X0142800Y0211700D03*
X0132400Y0184000D03*
X0123300Y0178500D03*
X0142900Y0179700D03*
X0146200Y0174100D03*
X0159800Y0177500D03*
X0161600Y0169500D03*
X0162100Y0185500D03*
X0180100Y0197600D03*
X0185000Y0209400D03*
X0199500Y0198900D03*
X0209200Y0193900D03*
X0205600Y0187200D03*
X0217800Y0182600D03*
X0193000Y0181000D03*
X0193000Y0176000D03*
X0188000Y0176000D03*
X0188000Y0181000D03*
X0212700Y0210200D03*
X0219600Y0214500D03*
X0222000Y0130000D03*
X0201300Y0125900D03*
X0178400Y0113000D03*
X0167000Y0117500D03*
X0159000Y0130000D03*
X0209100Y0068500D03*
X0215500Y0062200D03*
X0209200Y0055900D03*
X0201700Y0055900D03*
X0179000Y0062200D03*
X0081900Y0158400D03*
X0075800Y0152100D03*
X0068400Y0151400D03*
X0075800Y0164800D03*
X0135200Y0257600D03*
X0135100Y0292700D03*
D16*
X0137972Y0292595D02*
X0272516Y0292595D01*
X0272430Y0292859D02*
X0272688Y0292066D01*
X0273067Y0291322D01*
X0273557Y0290647D01*
X0274147Y0290057D01*
X0274822Y0289567D01*
X0275566Y0289188D01*
X0276359Y0288930D01*
X0277116Y0288811D01*
X0277116Y0293616D01*
X0278084Y0293616D01*
X0278084Y0288811D01*
X0278841Y0288930D01*
X0279634Y0289188D01*
X0280378Y0289567D01*
X0281053Y0290057D01*
X0281643Y0290647D01*
X0282133Y0291322D01*
X0282512Y0292066D01*
X0282769Y0292859D01*
X0282889Y0293616D01*
X0278084Y0293616D01*
X0278084Y0294584D01*
X0282889Y0294584D01*
X0282769Y0295341D01*
X0282512Y0296134D01*
X0282133Y0296878D01*
X0281643Y0297553D01*
X0281053Y0298143D01*
X0280378Y0298633D01*
X0279634Y0299012D01*
X0278841Y0299269D01*
X0278084Y0299389D01*
X0278084Y0294584D01*
X0277116Y0294584D01*
X0277116Y0293616D01*
X0272311Y0293616D01*
X0272430Y0292859D01*
X0272314Y0293594D02*
X0137972Y0293594D01*
X0137972Y0294592D02*
X0272312Y0294592D01*
X0272311Y0294584D02*
X0277116Y0294584D01*
X0277116Y0299389D01*
X0276359Y0299269D01*
X0275566Y0299012D01*
X0274822Y0298633D01*
X0274147Y0298143D01*
X0273557Y0297553D01*
X0273067Y0296878D01*
X0272688Y0296134D01*
X0272430Y0295341D01*
X0272311Y0294584D01*
X0272512Y0295591D02*
X0017539Y0295591D01*
X0017539Y0296589D02*
X0272920Y0296589D01*
X0273592Y0297588D02*
X0017539Y0297588D01*
X0017539Y0298586D02*
X0274758Y0298586D01*
X0277116Y0298586D02*
X0278084Y0298586D01*
X0278084Y0297588D02*
X0277116Y0297588D01*
X0277116Y0296589D02*
X0278084Y0296589D01*
X0278084Y0295591D02*
X0277116Y0295591D01*
X0277116Y0294592D02*
X0278084Y0294592D01*
X0278084Y0293594D02*
X0277116Y0293594D01*
X0277116Y0292595D02*
X0278084Y0292595D01*
X0278084Y0291597D02*
X0277116Y0291597D01*
X0277116Y0290598D02*
X0278084Y0290598D01*
X0278084Y0289600D02*
X0277116Y0289600D01*
X0274777Y0289600D02*
X0155199Y0289600D01*
X0154698Y0290100D02*
X0151302Y0290100D01*
X0148900Y0287698D01*
X0148900Y0284302D01*
X0151302Y0281900D01*
X0154698Y0281900D01*
X0157100Y0284302D01*
X0157100Y0287698D01*
X0154698Y0290100D01*
X0156197Y0288601D02*
X0329500Y0288601D01*
X0329500Y0287603D02*
X0157100Y0287603D01*
X0157100Y0286604D02*
X0329500Y0286604D01*
X0329500Y0285605D02*
X0157100Y0285605D01*
X0157100Y0284607D02*
X0329500Y0284607D01*
X0329500Y0283608D02*
X0156407Y0283608D01*
X0155408Y0282610D02*
X0329500Y0282610D01*
X0329500Y0281611D02*
X0038687Y0281611D01*
X0037698Y0282600D02*
X0034302Y0282600D01*
X0031900Y0280198D01*
X0031900Y0276802D01*
X0034302Y0274400D01*
X0037698Y0274400D01*
X0040100Y0276802D01*
X0040100Y0280198D01*
X0037698Y0282600D01*
X0039685Y0280613D02*
X0329500Y0280613D01*
X0329500Y0279614D02*
X0040100Y0279614D01*
X0040100Y0278616D02*
X0329500Y0278616D01*
X0329500Y0277617D02*
X0040100Y0277617D01*
X0039917Y0276619D02*
X0329500Y0276619D01*
X0329500Y0275620D02*
X0038919Y0275620D01*
X0037920Y0274622D02*
X0329500Y0274622D01*
X0329500Y0273623D02*
X0017539Y0273623D01*
X0017539Y0272625D02*
X0329500Y0272625D01*
X0329500Y0271626D02*
X0038672Y0271626D01*
X0037698Y0272600D02*
X0034302Y0272600D01*
X0031900Y0270198D01*
X0031900Y0266802D01*
X0034302Y0264400D01*
X0037698Y0264400D01*
X0040100Y0266802D01*
X0040100Y0270198D01*
X0037698Y0272600D01*
X0039670Y0270628D02*
X0329500Y0270628D01*
X0329500Y0269629D02*
X0040100Y0269629D01*
X0040100Y0268631D02*
X0194709Y0268631D01*
X0195590Y0268996D02*
X0192724Y0267809D01*
X0190530Y0265615D01*
X0189343Y0262748D01*
X0189343Y0259645D01*
X0190530Y0256779D01*
X0192724Y0254585D01*
X0195590Y0253398D01*
X0198693Y0253398D01*
X0201560Y0254585D01*
X0203754Y0256779D01*
X0204941Y0259645D01*
X0204941Y0262748D01*
X0203754Y0265615D01*
X0201560Y0267809D01*
X0198693Y0268996D01*
X0195590Y0268996D01*
X0192547Y0267632D02*
X0155166Y0267632D01*
X0154698Y0268100D02*
X0151302Y0268100D01*
X0148900Y0265698D01*
X0148900Y0262302D01*
X0151302Y0259900D01*
X0154698Y0259900D01*
X0157100Y0262302D01*
X0157100Y0265698D01*
X0154698Y0268100D01*
X0156164Y0266634D02*
X0191549Y0266634D01*
X0190550Y0265635D02*
X0157100Y0265635D01*
X0157100Y0264637D02*
X0190125Y0264637D01*
X0189711Y0263638D02*
X0157100Y0263638D01*
X0157100Y0262640D02*
X0189343Y0262640D01*
X0189343Y0261641D02*
X0156439Y0261641D01*
X0155441Y0260643D02*
X0189343Y0260643D01*
X0189343Y0259644D02*
X0138072Y0259644D01*
X0138072Y0259827D02*
X0138072Y0255373D01*
X0137427Y0254728D01*
X0132973Y0254728D01*
X0132328Y0255373D01*
X0132328Y0259827D01*
X0132973Y0260472D01*
X0137427Y0260472D01*
X0138072Y0259827D01*
X0138072Y0258646D02*
X0189757Y0258646D01*
X0190170Y0257647D02*
X0138072Y0257647D01*
X0138072Y0256649D02*
X0190660Y0256649D01*
X0191659Y0255650D02*
X0138072Y0255650D01*
X0132328Y0255650D02*
X0038948Y0255650D01*
X0037950Y0254652D02*
X0192657Y0254652D01*
X0194974Y0253653D02*
X0017539Y0253653D01*
X0017539Y0252655D02*
X0329500Y0252655D01*
X0329500Y0253653D02*
X0199310Y0253653D01*
X0201626Y0254652D02*
X0329500Y0254652D01*
X0329500Y0255650D02*
X0202625Y0255650D01*
X0203623Y0256649D02*
X0329500Y0256649D01*
X0329500Y0257647D02*
X0204113Y0257647D01*
X0204527Y0258646D02*
X0329500Y0258646D01*
X0329500Y0259644D02*
X0204940Y0259644D01*
X0204941Y0260643D02*
X0329500Y0260643D01*
X0329500Y0261641D02*
X0204941Y0261641D01*
X0204941Y0262640D02*
X0329500Y0262640D01*
X0329500Y0263638D02*
X0204572Y0263638D01*
X0204159Y0264637D02*
X0329500Y0264637D01*
X0329500Y0265635D02*
X0203733Y0265635D01*
X0202735Y0266634D02*
X0329500Y0266634D01*
X0329500Y0267632D02*
X0201736Y0267632D01*
X0199575Y0268631D02*
X0329500Y0268631D01*
X0329500Y0251656D02*
X0038642Y0251656D01*
X0037698Y0252600D02*
X0034302Y0252600D01*
X0031900Y0250198D01*
X0031900Y0246802D01*
X0034302Y0244400D01*
X0037698Y0244400D01*
X0040100Y0246802D01*
X0040100Y0250198D01*
X0037698Y0252600D01*
X0037698Y0254400D02*
X0034302Y0254400D01*
X0031900Y0256802D01*
X0031900Y0260198D01*
X0034302Y0262600D01*
X0037698Y0262600D01*
X0040100Y0260198D01*
X0040100Y0256802D01*
X0037698Y0254400D01*
X0039947Y0256649D02*
X0132328Y0256649D01*
X0132328Y0257647D02*
X0040100Y0257647D01*
X0040100Y0258646D02*
X0132328Y0258646D01*
X0132328Y0259644D02*
X0040100Y0259644D01*
X0039656Y0260643D02*
X0150559Y0260643D01*
X0149560Y0261641D02*
X0038657Y0261641D01*
X0037935Y0264637D02*
X0148900Y0264637D01*
X0148900Y0265635D02*
X0038934Y0265635D01*
X0039932Y0266634D02*
X0149836Y0266634D01*
X0150834Y0267632D02*
X0040100Y0267632D01*
X0034065Y0264637D02*
X0027935Y0264637D01*
X0027698Y0264400D02*
X0030100Y0266802D01*
X0030100Y0270198D01*
X0027698Y0272600D01*
X0024302Y0272600D01*
X0021900Y0270198D01*
X0021900Y0266802D01*
X0024302Y0264400D01*
X0027698Y0264400D01*
X0028934Y0265635D02*
X0033066Y0265635D01*
X0032068Y0266634D02*
X0029932Y0266634D01*
X0030100Y0267632D02*
X0031900Y0267632D01*
X0031900Y0268631D02*
X0030100Y0268631D01*
X0030100Y0269629D02*
X0031900Y0269629D01*
X0032330Y0270628D02*
X0029670Y0270628D01*
X0028672Y0271626D02*
X0033328Y0271626D01*
X0034080Y0274622D02*
X0027920Y0274622D01*
X0027698Y0274400D02*
X0030100Y0276802D01*
X0030100Y0280198D01*
X0027698Y0282600D01*
X0024302Y0282600D01*
X0021900Y0280198D01*
X0021900Y0276802D01*
X0024302Y0274400D01*
X0027698Y0274400D01*
X0028919Y0275620D02*
X0033081Y0275620D01*
X0032083Y0276619D02*
X0029917Y0276619D01*
X0030100Y0277617D02*
X0031900Y0277617D01*
X0031900Y0278616D02*
X0030100Y0278616D01*
X0030100Y0279614D02*
X0031900Y0279614D01*
X0032315Y0280613D02*
X0029685Y0280613D01*
X0028687Y0281611D02*
X0033313Y0281611D01*
X0023313Y0281611D02*
X0017539Y0281611D01*
X0017539Y0280613D02*
X0022315Y0280613D01*
X0021900Y0279614D02*
X0017539Y0279614D01*
X0017539Y0278616D02*
X0021900Y0278616D01*
X0021900Y0277617D02*
X0017539Y0277617D01*
X0017539Y0276619D02*
X0022083Y0276619D01*
X0023081Y0275620D02*
X0017539Y0275620D01*
X0017539Y0274622D02*
X0024080Y0274622D01*
X0023328Y0271626D02*
X0017539Y0271626D01*
X0017539Y0270628D02*
X0022330Y0270628D01*
X0021900Y0269629D02*
X0017539Y0269629D01*
X0017539Y0268631D02*
X0021900Y0268631D01*
X0021900Y0267632D02*
X0017539Y0267632D01*
X0017539Y0266634D02*
X0022068Y0266634D01*
X0023066Y0265635D02*
X0017539Y0265635D01*
X0017539Y0264637D02*
X0024065Y0264637D01*
X0024302Y0262600D02*
X0021900Y0260198D01*
X0021900Y0256802D01*
X0024302Y0254400D01*
X0027698Y0254400D01*
X0030100Y0256802D01*
X0030100Y0260198D01*
X0027698Y0262600D01*
X0024302Y0262600D01*
X0023343Y0261641D02*
X0017539Y0261641D01*
X0017539Y0260643D02*
X0022344Y0260643D01*
X0021900Y0259644D02*
X0017539Y0259644D01*
X0017539Y0258646D02*
X0021900Y0258646D01*
X0021900Y0257647D02*
X0017539Y0257647D01*
X0017539Y0256649D02*
X0022053Y0256649D01*
X0023052Y0255650D02*
X0017539Y0255650D01*
X0017539Y0254652D02*
X0024050Y0254652D01*
X0024302Y0252600D02*
X0021900Y0250198D01*
X0021900Y0246802D01*
X0024302Y0244400D01*
X0027698Y0244400D01*
X0030100Y0246802D01*
X0030100Y0250198D01*
X0027698Y0252600D01*
X0024302Y0252600D01*
X0023358Y0251656D02*
X0017539Y0251656D01*
X0017539Y0250658D02*
X0022359Y0250658D01*
X0021900Y0249659D02*
X0017539Y0249659D01*
X0017539Y0248661D02*
X0021900Y0248661D01*
X0021900Y0247662D02*
X0017539Y0247662D01*
X0017539Y0246664D02*
X0022038Y0246664D01*
X0023037Y0245665D02*
X0017539Y0245665D01*
X0017539Y0244667D02*
X0024035Y0244667D01*
X0024302Y0242600D02*
X0021900Y0240198D01*
X0021900Y0236802D01*
X0024302Y0234400D01*
X0027698Y0234400D01*
X0030100Y0236802D01*
X0030100Y0240198D01*
X0027698Y0242600D01*
X0024302Y0242600D01*
X0023373Y0241671D02*
X0017539Y0241671D01*
X0017539Y0240672D02*
X0022374Y0240672D01*
X0021900Y0239674D02*
X0017539Y0239674D01*
X0017539Y0238675D02*
X0021900Y0238675D01*
X0021900Y0237677D02*
X0017539Y0237677D01*
X0017539Y0236678D02*
X0022023Y0236678D01*
X0023022Y0235680D02*
X0017539Y0235680D01*
X0017539Y0234681D02*
X0024020Y0234681D01*
X0024302Y0232600D02*
X0021900Y0230198D01*
X0021900Y0226802D01*
X0024302Y0224400D01*
X0027698Y0224400D01*
X0030100Y0226802D01*
X0030100Y0230198D01*
X0027698Y0232600D01*
X0024302Y0232600D01*
X0023388Y0231686D02*
X0017539Y0231686D01*
X0017539Y0232684D02*
X0329500Y0232684D01*
X0329500Y0231686D02*
X0237084Y0231686D01*
X0236970Y0231800D02*
X0235230Y0231800D01*
X0234000Y0230570D01*
X0234000Y0228830D01*
X0235230Y0227600D01*
X0236970Y0227600D01*
X0238200Y0228830D01*
X0238200Y0230570D01*
X0236970Y0231800D01*
X0238082Y0230687D02*
X0329500Y0230687D01*
X0329500Y0229689D02*
X0238200Y0229689D01*
X0238060Y0228690D02*
X0329500Y0228690D01*
X0329500Y0227692D02*
X0237062Y0227692D01*
X0235138Y0227692D02*
X0040100Y0227692D01*
X0040100Y0226802D02*
X0037698Y0224400D01*
X0034302Y0224400D01*
X0031900Y0226802D01*
X0031900Y0230198D01*
X0034302Y0232600D01*
X0037698Y0232600D01*
X0040100Y0230198D01*
X0040100Y0226802D01*
X0039992Y0226693D02*
X0329500Y0226693D01*
X0329500Y0225695D02*
X0038993Y0225695D01*
X0037995Y0224696D02*
X0329500Y0224696D01*
X0329500Y0223698D02*
X0017539Y0223698D01*
X0017539Y0224696D02*
X0024005Y0224696D01*
X0023007Y0225695D02*
X0017539Y0225695D01*
X0017539Y0226693D02*
X0022008Y0226693D01*
X0021900Y0227692D02*
X0017539Y0227692D01*
X0017539Y0228690D02*
X0021900Y0228690D01*
X0021900Y0229689D02*
X0017539Y0229689D01*
X0017539Y0230687D02*
X0022389Y0230687D01*
X0028612Y0231686D02*
X0033388Y0231686D01*
X0032389Y0230687D02*
X0029611Y0230687D01*
X0030100Y0229689D02*
X0031900Y0229689D01*
X0031900Y0228690D02*
X0030100Y0228690D01*
X0030100Y0227692D02*
X0031900Y0227692D01*
X0032008Y0226693D02*
X0029992Y0226693D01*
X0028993Y0225695D02*
X0033007Y0225695D01*
X0034005Y0224696D02*
X0027995Y0224696D01*
X0027698Y0222600D02*
X0024302Y0222600D01*
X0021900Y0220198D01*
X0021900Y0216802D01*
X0024302Y0214400D01*
X0027698Y0214400D01*
X0030100Y0216802D01*
X0030100Y0220198D01*
X0027698Y0222600D01*
X0028597Y0221701D02*
X0033403Y0221701D01*
X0034302Y0222600D02*
X0031900Y0220198D01*
X0031900Y0216802D01*
X0034302Y0214400D01*
X0037698Y0214400D01*
X0040100Y0216802D01*
X0040100Y0220198D01*
X0037698Y0222600D01*
X0034302Y0222600D01*
X0032404Y0220702D02*
X0029596Y0220702D01*
X0030100Y0219704D02*
X0031900Y0219704D01*
X0031900Y0218705D02*
X0030100Y0218705D01*
X0030100Y0217707D02*
X0031900Y0217707D01*
X0031994Y0216708D02*
X0030006Y0216708D01*
X0029008Y0215710D02*
X0032992Y0215710D01*
X0033991Y0214711D02*
X0028009Y0214711D01*
X0027698Y0212600D02*
X0024302Y0212600D01*
X0021900Y0210198D01*
X0021900Y0206802D01*
X0024302Y0204400D01*
X0027698Y0204400D01*
X0030100Y0206802D01*
X0030100Y0210198D01*
X0027698Y0212600D01*
X0028583Y0211716D02*
X0033417Y0211716D01*
X0034302Y0212600D02*
X0031900Y0210198D01*
X0031900Y0206802D01*
X0034302Y0204400D01*
X0037698Y0204400D01*
X0040100Y0206802D01*
X0040100Y0210198D01*
X0037698Y0212600D01*
X0034302Y0212600D01*
X0032419Y0210717D02*
X0029581Y0210717D01*
X0030100Y0209719D02*
X0031900Y0209719D01*
X0031900Y0208720D02*
X0030100Y0208720D01*
X0030100Y0207722D02*
X0031900Y0207722D01*
X0031979Y0206723D02*
X0030021Y0206723D01*
X0029023Y0205725D02*
X0032977Y0205725D01*
X0033976Y0204726D02*
X0028024Y0204726D01*
X0027698Y0202600D02*
X0024302Y0202600D01*
X0021900Y0200198D01*
X0021900Y0196802D01*
X0024302Y0194400D01*
X0027698Y0194400D01*
X0030100Y0196802D01*
X0030100Y0200198D01*
X0027698Y0202600D01*
X0028568Y0201731D02*
X0033432Y0201731D01*
X0034302Y0202600D02*
X0031900Y0200198D01*
X0031900Y0196802D01*
X0034302Y0194400D01*
X0037698Y0194400D01*
X0040100Y0196802D01*
X0040100Y0200198D01*
X0037698Y0202600D01*
X0034302Y0202600D01*
X0032434Y0200732D02*
X0029566Y0200732D01*
X0030100Y0199734D02*
X0031900Y0199734D01*
X0031900Y0198735D02*
X0030100Y0198735D01*
X0030100Y0197737D02*
X0031900Y0197737D01*
X0031964Y0196738D02*
X0030036Y0196738D01*
X0029038Y0195739D02*
X0032962Y0195739D01*
X0033961Y0194741D02*
X0028039Y0194741D01*
X0027698Y0192600D02*
X0024302Y0192600D01*
X0021900Y0190198D01*
X0021900Y0186802D01*
X0024302Y0184400D01*
X0027698Y0184400D01*
X0030100Y0186802D01*
X0030100Y0190198D01*
X0027698Y0192600D01*
X0028553Y0191745D02*
X0031900Y0191745D01*
X0031900Y0191956D02*
X0031900Y0185044D01*
X0032544Y0184400D01*
X0039456Y0184400D01*
X0040100Y0185044D01*
X0040100Y0191956D01*
X0039456Y0192600D01*
X0032544Y0192600D01*
X0031900Y0191956D01*
X0031900Y0190747D02*
X0029551Y0190747D01*
X0030100Y0189748D02*
X0031900Y0189748D01*
X0031900Y0188750D02*
X0030100Y0188750D01*
X0030100Y0187751D02*
X0031900Y0187751D01*
X0031900Y0186753D02*
X0030051Y0186753D01*
X0029053Y0185754D02*
X0031900Y0185754D01*
X0032188Y0184756D02*
X0028054Y0184756D01*
X0023946Y0184756D02*
X0017539Y0184756D01*
X0017539Y0185754D02*
X0022947Y0185754D01*
X0021949Y0186753D02*
X0017539Y0186753D01*
X0017539Y0187751D02*
X0021900Y0187751D01*
X0021900Y0188750D02*
X0017539Y0188750D01*
X0017539Y0189748D02*
X0021900Y0189748D01*
X0022449Y0190747D02*
X0017539Y0190747D01*
X0017539Y0191745D02*
X0023447Y0191745D01*
X0023961Y0194741D02*
X0017539Y0194741D01*
X0017539Y0195739D02*
X0022962Y0195739D01*
X0021964Y0196738D02*
X0017539Y0196738D01*
X0017539Y0197737D02*
X0021900Y0197737D01*
X0021900Y0198735D02*
X0017539Y0198735D01*
X0017539Y0199734D02*
X0021900Y0199734D01*
X0022434Y0200732D02*
X0017539Y0200732D01*
X0017539Y0201731D02*
X0023432Y0201731D01*
X0023976Y0204726D02*
X0017539Y0204726D01*
X0017539Y0203728D02*
X0296900Y0203728D01*
X0296900Y0204726D02*
X0038024Y0204726D01*
X0039023Y0205725D02*
X0297426Y0205725D01*
X0296900Y0205198D02*
X0296900Y0201802D01*
X0299302Y0199400D01*
X0302698Y0199400D01*
X0305100Y0201802D01*
X0305100Y0205198D01*
X0302698Y0207600D01*
X0299302Y0207600D01*
X0296900Y0205198D01*
X0298425Y0206723D02*
X0040021Y0206723D01*
X0040100Y0207722D02*
X0210079Y0207722D01*
X0209828Y0207973D02*
X0210473Y0207328D01*
X0214927Y0207328D01*
X0215572Y0207973D01*
X0215572Y0212427D01*
X0214927Y0213072D01*
X0210473Y0213072D01*
X0209828Y0212427D01*
X0209828Y0207973D01*
X0209828Y0208720D02*
X0040100Y0208720D01*
X0040100Y0209719D02*
X0209828Y0209719D01*
X0209828Y0210717D02*
X0039581Y0210717D01*
X0038583Y0211716D02*
X0209828Y0211716D01*
X0210115Y0212714D02*
X0017539Y0212714D01*
X0017539Y0211716D02*
X0023417Y0211716D01*
X0022419Y0210717D02*
X0017539Y0210717D01*
X0017539Y0209719D02*
X0021900Y0209719D01*
X0021900Y0208720D02*
X0017539Y0208720D01*
X0017539Y0207722D02*
X0021900Y0207722D01*
X0021979Y0206723D02*
X0017539Y0206723D01*
X0017539Y0205725D02*
X0022977Y0205725D01*
X0017539Y0202729D02*
X0092459Y0202729D01*
X0092100Y0202370D02*
X0092100Y0200630D01*
X0093330Y0199400D01*
X0095070Y0199400D01*
X0096300Y0200630D01*
X0096300Y0202370D01*
X0095070Y0203600D01*
X0093330Y0203600D01*
X0092100Y0202370D01*
X0092100Y0201731D02*
X0038568Y0201731D01*
X0039566Y0200732D02*
X0092100Y0200732D01*
X0092997Y0199734D02*
X0040100Y0199734D01*
X0040100Y0198735D02*
X0177228Y0198735D01*
X0177228Y0197737D02*
X0157233Y0197737D01*
X0157500Y0197470D02*
X0156270Y0198700D01*
X0154530Y0198700D01*
X0153300Y0197470D01*
X0153300Y0195730D01*
X0154530Y0194500D01*
X0156270Y0194500D01*
X0157500Y0195730D01*
X0157500Y0197470D01*
X0157500Y0196738D02*
X0177228Y0196738D01*
X0177228Y0195739D02*
X0157500Y0195739D01*
X0156511Y0194741D02*
X0177860Y0194741D01*
X0177873Y0194728D02*
X0182327Y0194728D01*
X0182972Y0195373D01*
X0182972Y0199827D01*
X0182327Y0200472D01*
X0177873Y0200472D01*
X0177228Y0199827D01*
X0177228Y0195373D01*
X0177873Y0194728D01*
X0175556Y0191500D02*
X0172644Y0191500D01*
X0172000Y0190856D01*
X0172000Y0187944D01*
X0172644Y0187300D01*
X0175556Y0187300D01*
X0176200Y0187944D01*
X0176200Y0190856D01*
X0175556Y0191500D01*
X0176200Y0190747D02*
X0297955Y0190747D01*
X0298953Y0189748D02*
X0208151Y0189748D01*
X0208472Y0189427D02*
X0207827Y0190072D01*
X0203373Y0190072D01*
X0202728Y0189427D01*
X0202728Y0184973D01*
X0203373Y0184328D01*
X0207827Y0184328D01*
X0208472Y0184973D01*
X0208472Y0189427D01*
X0208472Y0188750D02*
X0329500Y0188750D01*
X0329500Y0189748D02*
X0323047Y0189748D01*
X0322698Y0189400D02*
X0325100Y0191802D01*
X0325100Y0195198D01*
X0322698Y0197600D01*
X0319302Y0197600D01*
X0316900Y0195198D01*
X0316900Y0191802D01*
X0319302Y0189400D01*
X0322698Y0189400D01*
X0322698Y0187600D02*
X0319302Y0187600D01*
X0316900Y0185198D01*
X0316900Y0181802D01*
X0319302Y0179400D01*
X0322698Y0179400D01*
X0325100Y0181802D01*
X0325100Y0185198D01*
X0322698Y0187600D01*
X0323545Y0186753D02*
X0329500Y0186753D01*
X0329500Y0187751D02*
X0313113Y0187751D01*
X0312864Y0188000D02*
X0311500Y0188000D01*
X0311500Y0184000D01*
X0310500Y0184000D01*
X0310500Y0188000D01*
X0309136Y0188000D01*
X0306500Y0185364D01*
X0306500Y0184000D01*
X0310500Y0184000D01*
X0310500Y0183000D01*
X0306500Y0183000D01*
X0306500Y0181636D01*
X0309136Y0179000D01*
X0310500Y0179000D01*
X0310500Y0183000D01*
X0311500Y0183000D01*
X0311500Y0184000D01*
X0315500Y0184000D01*
X0315500Y0185364D01*
X0312864Y0188000D01*
X0312864Y0189000D02*
X0315500Y0191636D01*
X0315500Y0193000D01*
X0311500Y0193000D01*
X0311500Y0194000D01*
X0310500Y0194000D01*
X0310500Y0198000D01*
X0309136Y0198000D01*
X0306500Y0195364D01*
X0306500Y0194000D01*
X0310500Y0194000D01*
X0310500Y0193000D01*
X0306500Y0193000D01*
X0306500Y0191636D01*
X0309136Y0189000D01*
X0310500Y0189000D01*
X0310500Y0193000D01*
X0311500Y0193000D01*
X0311500Y0189000D01*
X0312864Y0189000D01*
X0313612Y0189748D02*
X0318953Y0189748D01*
X0317955Y0190747D02*
X0314611Y0190747D01*
X0315500Y0191745D02*
X0316956Y0191745D01*
X0316900Y0192744D02*
X0315500Y0192744D01*
X0315500Y0194000D02*
X0311500Y0194000D01*
X0311500Y0198000D01*
X0312864Y0198000D01*
X0315500Y0195364D01*
X0315500Y0194000D01*
X0315500Y0194741D02*
X0316900Y0194741D01*
X0316900Y0193742D02*
X0311500Y0193742D01*
X0311500Y0192744D02*
X0310500Y0192744D01*
X0310500Y0193742D02*
X0305100Y0193742D01*
X0305100Y0192744D02*
X0306500Y0192744D01*
X0306500Y0191745D02*
X0305044Y0191745D01*
X0305100Y0191802D02*
X0302698Y0189400D01*
X0299302Y0189400D01*
X0296900Y0191802D01*
X0296900Y0195198D01*
X0299302Y0197600D01*
X0302698Y0197600D01*
X0305100Y0195198D01*
X0305100Y0191802D01*
X0304045Y0190747D02*
X0307389Y0190747D01*
X0308388Y0189748D02*
X0303047Y0189748D01*
X0302698Y0187600D02*
X0299302Y0187600D01*
X0296900Y0185198D01*
X0296900Y0181802D01*
X0299302Y0179400D01*
X0302698Y0179400D01*
X0305100Y0181802D01*
X0305100Y0185198D01*
X0302698Y0187600D01*
X0303545Y0186753D02*
X0307889Y0186753D01*
X0308887Y0187751D02*
X0208472Y0187751D01*
X0208472Y0186753D02*
X0298455Y0186753D01*
X0297456Y0185754D02*
X0208472Y0185754D01*
X0208255Y0184756D02*
X0296900Y0184756D01*
X0296900Y0183757D02*
X0135272Y0183757D01*
X0135272Y0182759D02*
X0169500Y0182759D01*
X0169500Y0182856D02*
X0169500Y0179944D01*
X0170144Y0179300D01*
X0173056Y0179300D01*
X0173700Y0179944D01*
X0173700Y0182856D01*
X0173056Y0183500D01*
X0170144Y0183500D01*
X0169500Y0182856D01*
X0169500Y0181760D02*
X0135259Y0181760D01*
X0135272Y0181773D02*
X0134627Y0181128D01*
X0130173Y0181128D01*
X0129528Y0181773D01*
X0129528Y0186227D01*
X0130173Y0186872D01*
X0134627Y0186872D01*
X0135272Y0186227D01*
X0135272Y0181773D01*
X0135272Y0184756D02*
X0202945Y0184756D01*
X0202728Y0185754D02*
X0135272Y0185754D01*
X0134746Y0186753D02*
X0202728Y0186753D01*
X0202728Y0187751D02*
X0176007Y0187751D01*
X0176200Y0188750D02*
X0202728Y0188750D01*
X0203049Y0189748D02*
X0176200Y0189748D01*
X0172193Y0187751D02*
X0040100Y0187751D01*
X0040100Y0186753D02*
X0130054Y0186753D01*
X0129528Y0185754D02*
X0040100Y0185754D01*
X0039811Y0184756D02*
X0129528Y0184756D01*
X0129528Y0183757D02*
X0017539Y0183757D01*
X0017539Y0182759D02*
X0129528Y0182759D01*
X0129541Y0181760D02*
X0017539Y0181760D01*
X0017539Y0180762D02*
X0169500Y0180762D01*
X0169681Y0179763D02*
X0017539Y0179763D01*
X0017539Y0178765D02*
X0223995Y0178765D01*
X0223900Y0178670D02*
X0223900Y0176930D01*
X0225130Y0175700D01*
X0226870Y0175700D01*
X0228100Y0176930D01*
X0228100Y0178670D01*
X0226870Y0179900D01*
X0225130Y0179900D01*
X0223900Y0178670D01*
X0223900Y0177766D02*
X0017539Y0177766D01*
X0017539Y0176768D02*
X0224062Y0176768D01*
X0225061Y0175769D02*
X0017539Y0175769D01*
X0017539Y0174771D02*
X0231400Y0174771D01*
X0231400Y0174630D02*
X0232630Y0173400D01*
X0234370Y0173400D01*
X0235600Y0174630D01*
X0235600Y0176370D01*
X0234370Y0177600D01*
X0232630Y0177600D01*
X0231400Y0176370D01*
X0231400Y0174630D01*
X0231400Y0175769D02*
X0226939Y0175769D01*
X0227938Y0176768D02*
X0231798Y0176768D01*
X0232258Y0173772D02*
X0017539Y0173772D01*
X0017539Y0172774D02*
X0296900Y0172774D01*
X0296900Y0171802D02*
X0296900Y0175198D01*
X0299302Y0177600D01*
X0302698Y0177600D01*
X0305100Y0175198D01*
X0305100Y0171802D01*
X0302698Y0169400D01*
X0299302Y0169400D01*
X0296900Y0171802D01*
X0296927Y0171775D02*
X0202280Y0171775D01*
X0202256Y0171800D02*
X0199356Y0171800D01*
X0199256Y0171900D01*
X0196344Y0171900D01*
X0195700Y0171256D01*
X0195700Y0168344D01*
X0196344Y0167700D01*
X0199244Y0167700D01*
X0199344Y0167600D01*
X0202256Y0167600D01*
X0202900Y0168244D01*
X0202900Y0171156D01*
X0202256Y0171800D01*
X0202900Y0170777D02*
X0297925Y0170777D01*
X0298924Y0169778D02*
X0202900Y0169778D01*
X0202900Y0168780D02*
X0329500Y0168780D01*
X0329500Y0169778D02*
X0323076Y0169778D01*
X0322698Y0169400D02*
X0325100Y0171802D01*
X0325100Y0175198D01*
X0322698Y0177600D01*
X0319302Y0177600D01*
X0316900Y0175198D01*
X0316900Y0171802D01*
X0319302Y0169400D01*
X0322698Y0169400D01*
X0322698Y0167600D02*
X0319302Y0167600D01*
X0316900Y0165198D01*
X0316900Y0161802D01*
X0319302Y0159400D01*
X0322698Y0159400D01*
X0325100Y0161802D01*
X0325100Y0165198D01*
X0322698Y0167600D01*
X0323516Y0166783D02*
X0329500Y0166783D01*
X0329500Y0167781D02*
X0313083Y0167781D01*
X0312864Y0168000D02*
X0311500Y0168000D01*
X0311500Y0164000D01*
X0310500Y0164000D01*
X0310500Y0168000D01*
X0309136Y0168000D01*
X0306500Y0165364D01*
X0306500Y0164000D01*
X0310500Y0164000D01*
X0310500Y0163000D01*
X0306500Y0163000D01*
X0306500Y0161636D01*
X0309136Y0159000D01*
X0310500Y0159000D01*
X0310500Y0163000D01*
X0311500Y0163000D01*
X0311500Y0164000D01*
X0315500Y0164000D01*
X0315500Y0165364D01*
X0312864Y0168000D01*
X0312864Y0169000D02*
X0315500Y0171636D01*
X0315500Y0173000D01*
X0311500Y0173000D01*
X0311500Y0174000D01*
X0310500Y0174000D01*
X0310500Y0178000D01*
X0309136Y0178000D01*
X0306500Y0175364D01*
X0306500Y0174000D01*
X0310500Y0174000D01*
X0310500Y0173000D01*
X0306500Y0173000D01*
X0306500Y0171636D01*
X0309136Y0169000D01*
X0310500Y0169000D01*
X0310500Y0173000D01*
X0311500Y0173000D01*
X0311500Y0169000D01*
X0312864Y0169000D01*
X0313642Y0169778D02*
X0318924Y0169778D01*
X0317925Y0170777D02*
X0314641Y0170777D01*
X0315500Y0171775D02*
X0316927Y0171775D01*
X0316900Y0172774D02*
X0315500Y0172774D01*
X0315500Y0174000D02*
X0315500Y0175364D01*
X0312864Y0178000D01*
X0311500Y0178000D01*
X0311500Y0174000D01*
X0315500Y0174000D01*
X0315500Y0174771D02*
X0316900Y0174771D01*
X0316900Y0173772D02*
X0311500Y0173772D01*
X0311500Y0172774D02*
X0310500Y0172774D01*
X0310500Y0173772D02*
X0305100Y0173772D01*
X0305100Y0172774D02*
X0306500Y0172774D01*
X0306500Y0171775D02*
X0305073Y0171775D01*
X0304075Y0170777D02*
X0307359Y0170777D01*
X0308358Y0169778D02*
X0303076Y0169778D01*
X0302698Y0167600D02*
X0299302Y0167600D01*
X0296900Y0165198D01*
X0296900Y0161802D01*
X0299302Y0159400D01*
X0302698Y0159400D01*
X0305100Y0161802D01*
X0305100Y0165198D01*
X0302698Y0167600D01*
X0303516Y0166783D02*
X0307919Y0166783D01*
X0308917Y0167781D02*
X0202437Y0167781D01*
X0196263Y0167781D02*
X0174874Y0167781D01*
X0174856Y0167800D02*
X0171944Y0167800D01*
X0171300Y0167156D01*
X0171300Y0164244D01*
X0171944Y0163600D01*
X0174856Y0163600D01*
X0175500Y0164244D01*
X0175500Y0167156D01*
X0174856Y0167800D01*
X0175500Y0166783D02*
X0183913Y0166783D01*
X0184430Y0167300D02*
X0183200Y0166070D01*
X0183200Y0164330D01*
X0184430Y0163100D01*
X0186170Y0163100D01*
X0187400Y0164330D01*
X0187400Y0166070D01*
X0186170Y0167300D01*
X0184430Y0167300D01*
X0183200Y0165784D02*
X0175500Y0165784D01*
X0175500Y0164786D02*
X0179916Y0164786D01*
X0180230Y0165100D02*
X0179000Y0163870D01*
X0179000Y0162130D01*
X0180230Y0160900D01*
X0181970Y0160900D01*
X0183200Y0162130D01*
X0183200Y0163870D01*
X0181970Y0165100D01*
X0180230Y0165100D01*
X0179000Y0163787D02*
X0175043Y0163787D01*
X0171757Y0163787D02*
X0100183Y0163787D01*
X0100200Y0163770D02*
X0098970Y0165000D01*
X0097230Y0165000D01*
X0096000Y0163770D01*
X0096000Y0162030D01*
X0097230Y0160800D01*
X0098970Y0160800D01*
X0100200Y0162030D01*
X0100200Y0163770D01*
X0100200Y0162789D02*
X0179000Y0162789D01*
X0179340Y0161790D02*
X0099960Y0161790D01*
X0099184Y0164786D02*
X0171300Y0164786D01*
X0171300Y0165784D02*
X0039082Y0165784D01*
X0038084Y0164786D02*
X0097016Y0164786D01*
X0096017Y0163787D02*
X0017539Y0163787D01*
X0017539Y0162789D02*
X0023925Y0162789D01*
X0024136Y0163000D02*
X0021500Y0160364D01*
X0021500Y0159000D01*
X0025500Y0159000D01*
X0025500Y0163000D01*
X0024136Y0163000D01*
X0025500Y0162789D02*
X0026500Y0162789D01*
X0026500Y0163000D02*
X0026500Y0159000D01*
X0025500Y0159000D01*
X0025500Y0158000D01*
X0021500Y0158000D01*
X0021500Y0156636D01*
X0024136Y0154000D01*
X0025500Y0154000D01*
X0025500Y0158000D01*
X0026500Y0158000D01*
X0026500Y0159000D01*
X0030500Y0159000D01*
X0030500Y0160364D01*
X0027864Y0163000D01*
X0026500Y0163000D01*
X0026500Y0161790D02*
X0025500Y0161790D01*
X0025500Y0160792D02*
X0026500Y0160792D01*
X0026500Y0159793D02*
X0025500Y0159793D01*
X0025500Y0158795D02*
X0017539Y0158795D01*
X0017539Y0159793D02*
X0021500Y0159793D01*
X0021928Y0160792D02*
X0017539Y0160792D01*
X0017539Y0161790D02*
X0022926Y0161790D01*
X0024302Y0164400D02*
X0027698Y0164400D01*
X0030100Y0166802D01*
X0030100Y0170198D01*
X0027698Y0172600D01*
X0024302Y0172600D01*
X0021900Y0170198D01*
X0021900Y0166802D01*
X0024302Y0164400D01*
X0023916Y0164786D02*
X0017539Y0164786D01*
X0017539Y0165784D02*
X0022918Y0165784D01*
X0021919Y0166783D02*
X0017539Y0166783D01*
X0017539Y0167781D02*
X0021900Y0167781D01*
X0021900Y0168780D02*
X0017539Y0168780D01*
X0017539Y0169778D02*
X0021900Y0169778D01*
X0022478Y0170777D02*
X0017539Y0170777D01*
X0017539Y0171775D02*
X0023477Y0171775D01*
X0028523Y0171775D02*
X0033477Y0171775D01*
X0034302Y0172600D02*
X0031900Y0170198D01*
X0031900Y0166802D01*
X0034302Y0164400D01*
X0037698Y0164400D01*
X0040100Y0166802D01*
X0040100Y0170198D01*
X0037698Y0172600D01*
X0034302Y0172600D01*
X0032478Y0170777D02*
X0029522Y0170777D01*
X0030100Y0169778D02*
X0031900Y0169778D01*
X0031900Y0168780D02*
X0030100Y0168780D01*
X0030100Y0167781D02*
X0031900Y0167781D01*
X0031919Y0166783D02*
X0030081Y0166783D01*
X0029082Y0165784D02*
X0032918Y0165784D01*
X0033916Y0164786D02*
X0028084Y0164786D01*
X0028075Y0162789D02*
X0096000Y0162789D01*
X0096240Y0161790D02*
X0038508Y0161790D01*
X0037698Y0162600D02*
X0034302Y0162600D01*
X0031900Y0160198D01*
X0031900Y0156802D01*
X0034302Y0154400D01*
X0037698Y0154400D01*
X0040100Y0156802D01*
X0040100Y0160198D01*
X0037698Y0162600D01*
X0039507Y0160792D02*
X0154622Y0160792D01*
X0154630Y0160800D02*
X0153400Y0159570D01*
X0153400Y0157830D01*
X0154630Y0156600D01*
X0156370Y0156600D01*
X0157600Y0157830D01*
X0157600Y0159570D01*
X0156370Y0160800D01*
X0154630Y0160800D01*
X0153623Y0159793D02*
X0040100Y0159793D01*
X0040100Y0158795D02*
X0153400Y0158795D01*
X0153434Y0157796D02*
X0040100Y0157796D01*
X0040096Y0156798D02*
X0154433Y0156798D01*
X0156567Y0156798D02*
X0216733Y0156798D01*
X0217130Y0156400D02*
X0218870Y0156400D01*
X0220100Y0157630D01*
X0220100Y0159370D01*
X0218870Y0160600D01*
X0217130Y0160600D01*
X0215900Y0159370D01*
X0215900Y0157630D01*
X0217130Y0156400D01*
X0215900Y0157796D02*
X0157566Y0157796D01*
X0157600Y0158795D02*
X0215900Y0158795D01*
X0216323Y0159793D02*
X0157377Y0159793D01*
X0156378Y0160792D02*
X0297910Y0160792D01*
X0296912Y0161790D02*
X0182860Y0161790D01*
X0183200Y0162789D02*
X0296900Y0162789D01*
X0296900Y0163787D02*
X0186857Y0163787D01*
X0187400Y0164786D02*
X0296900Y0164786D01*
X0297486Y0165784D02*
X0187400Y0165784D01*
X0186687Y0166783D02*
X0298484Y0166783D01*
X0304514Y0165784D02*
X0306920Y0165784D01*
X0306500Y0164786D02*
X0305100Y0164786D01*
X0305100Y0163787D02*
X0310500Y0163787D01*
X0310500Y0162789D02*
X0311500Y0162789D01*
X0311500Y0163000D02*
X0311500Y0159000D01*
X0312864Y0159000D01*
X0315500Y0161636D01*
X0315500Y0163000D01*
X0311500Y0163000D01*
X0311500Y0163787D02*
X0316900Y0163787D01*
X0316900Y0162789D02*
X0315500Y0162789D01*
X0315500Y0161790D02*
X0316912Y0161790D01*
X0317910Y0160792D02*
X0314656Y0160792D01*
X0313657Y0159793D02*
X0318909Y0159793D01*
X0319302Y0157600D02*
X0316900Y0155198D01*
X0316900Y0151802D01*
X0319302Y0149400D01*
X0322698Y0149400D01*
X0325100Y0151802D01*
X0325100Y0155198D01*
X0322698Y0157600D01*
X0319302Y0157600D01*
X0318499Y0156798D02*
X0314066Y0156798D01*
X0313068Y0157796D02*
X0329500Y0157796D01*
X0329500Y0156798D02*
X0323501Y0156798D01*
X0324499Y0155799D02*
X0329500Y0155799D01*
X0329500Y0154801D02*
X0325100Y0154801D01*
X0325100Y0153802D02*
X0329500Y0153802D01*
X0329500Y0152803D02*
X0325100Y0152803D01*
X0325100Y0151805D02*
X0329500Y0151805D01*
X0329500Y0150806D02*
X0324105Y0150806D01*
X0323106Y0149808D02*
X0329500Y0149808D01*
X0329500Y0148809D02*
X0070908Y0148809D01*
X0070627Y0148528D02*
X0071272Y0149173D01*
X0071272Y0153627D01*
X0070627Y0154272D01*
X0066173Y0154272D01*
X0065528Y0153627D01*
X0065528Y0149173D01*
X0066173Y0148528D01*
X0070627Y0148528D01*
X0071272Y0149808D02*
X0298894Y0149808D01*
X0299302Y0149400D02*
X0302698Y0149400D01*
X0305100Y0151802D01*
X0305100Y0155198D01*
X0302698Y0157600D01*
X0299302Y0157600D01*
X0296900Y0155198D01*
X0296900Y0151802D01*
X0299302Y0149400D01*
X0299302Y0147600D02*
X0296900Y0145198D01*
X0296900Y0141802D01*
X0299302Y0139400D01*
X0302698Y0139400D01*
X0305100Y0141802D01*
X0305100Y0145198D01*
X0302698Y0147600D01*
X0299302Y0147600D01*
X0298514Y0146812D02*
X0040100Y0146812D01*
X0040100Y0146802D02*
X0037698Y0144400D01*
X0034302Y0144400D01*
X0031900Y0146802D01*
X0031900Y0150198D01*
X0034302Y0152600D01*
X0037698Y0152600D01*
X0040100Y0150198D01*
X0040100Y0146802D01*
X0040100Y0147811D02*
X0308947Y0147811D01*
X0309136Y0148000D02*
X0306500Y0145364D01*
X0306500Y0144000D01*
X0310500Y0144000D01*
X0310500Y0148000D01*
X0309136Y0148000D01*
X0309136Y0149000D02*
X0306500Y0151636D01*
X0306500Y0153000D01*
X0310500Y0153000D01*
X0310500Y0154000D01*
X0310500Y0158000D01*
X0309136Y0158000D01*
X0306500Y0155364D01*
X0306500Y0154000D01*
X0310500Y0154000D01*
X0311500Y0154000D01*
X0311500Y0158000D01*
X0312864Y0158000D01*
X0315500Y0155364D01*
X0315500Y0154000D01*
X0311500Y0154000D01*
X0311500Y0153000D01*
X0315500Y0153000D01*
X0315500Y0151636D01*
X0312864Y0149000D01*
X0311500Y0149000D01*
X0311500Y0153000D01*
X0310500Y0153000D01*
X0310500Y0149000D01*
X0309136Y0149000D01*
X0308328Y0149808D02*
X0303106Y0149808D01*
X0304105Y0150806D02*
X0307330Y0150806D01*
X0306500Y0151805D02*
X0305100Y0151805D01*
X0305100Y0152803D02*
X0306500Y0152803D01*
X0305100Y0153802D02*
X0310500Y0153802D01*
X0310500Y0152803D02*
X0311500Y0152803D01*
X0311500Y0151805D02*
X0310500Y0151805D01*
X0310500Y0150806D02*
X0311500Y0150806D01*
X0311500Y0149808D02*
X0310500Y0149808D01*
X0310500Y0147811D02*
X0311500Y0147811D01*
X0311500Y0148000D02*
X0311500Y0144000D01*
X0310500Y0144000D01*
X0310500Y0143000D01*
X0306500Y0143000D01*
X0306500Y0141636D01*
X0309136Y0139000D01*
X0310500Y0139000D01*
X0310500Y0143000D01*
X0311500Y0143000D01*
X0311500Y0144000D01*
X0315500Y0144000D01*
X0315500Y0145364D01*
X0312864Y0148000D01*
X0311500Y0148000D01*
X0311500Y0146812D02*
X0310500Y0146812D01*
X0310500Y0145814D02*
X0311500Y0145814D01*
X0311500Y0144815D02*
X0310500Y0144815D01*
X0310500Y0143817D02*
X0305100Y0143817D01*
X0305100Y0144815D02*
X0306500Y0144815D01*
X0306950Y0145814D02*
X0304484Y0145814D01*
X0303486Y0146812D02*
X0307948Y0146812D01*
X0306500Y0142818D02*
X0305100Y0142818D01*
X0305100Y0141820D02*
X0306500Y0141820D01*
X0307315Y0140821D02*
X0304120Y0140821D01*
X0303121Y0139823D02*
X0308313Y0139823D01*
X0310500Y0139823D02*
X0311500Y0139823D01*
X0311500Y0139000D02*
X0312864Y0139000D01*
X0315500Y0141636D01*
X0315500Y0143000D01*
X0311500Y0143000D01*
X0311500Y0139000D01*
X0311500Y0140821D02*
X0310500Y0140821D01*
X0310500Y0141820D02*
X0311500Y0141820D01*
X0311500Y0142818D02*
X0310500Y0142818D01*
X0311500Y0143817D02*
X0316900Y0143817D01*
X0316900Y0144815D02*
X0315500Y0144815D01*
X0315050Y0145814D02*
X0317516Y0145814D01*
X0316900Y0145198D02*
X0316900Y0141802D01*
X0319302Y0139400D01*
X0322698Y0139400D01*
X0325100Y0141802D01*
X0325100Y0145198D01*
X0322698Y0147600D01*
X0319302Y0147600D01*
X0316900Y0145198D01*
X0318514Y0146812D02*
X0314052Y0146812D01*
X0313053Y0147811D02*
X0329500Y0147811D01*
X0329500Y0146812D02*
X0323486Y0146812D01*
X0324484Y0145814D02*
X0329500Y0145814D01*
X0329500Y0144815D02*
X0325100Y0144815D01*
X0325100Y0143817D02*
X0329500Y0143817D01*
X0329500Y0142818D02*
X0325100Y0142818D01*
X0325100Y0141820D02*
X0329500Y0141820D01*
X0329500Y0140821D02*
X0324120Y0140821D01*
X0323121Y0139823D02*
X0329500Y0139823D01*
X0329500Y0138824D02*
X0040100Y0138824D01*
X0040100Y0137826D02*
X0329500Y0137826D01*
X0329500Y0136827D02*
X0040100Y0136827D01*
X0040100Y0136802D02*
X0037698Y0134400D01*
X0034302Y0134400D01*
X0031900Y0136802D01*
X0031900Y0140198D01*
X0034302Y0142600D01*
X0037698Y0142600D01*
X0040100Y0140198D01*
X0040100Y0136802D01*
X0039127Y0135829D02*
X0329500Y0135829D01*
X0329500Y0134830D02*
X0038129Y0134830D01*
X0037698Y0132600D02*
X0034302Y0132600D01*
X0031900Y0130198D01*
X0031900Y0126802D01*
X0034302Y0124400D01*
X0037698Y0124400D01*
X0040100Y0126802D01*
X0040100Y0130198D01*
X0037698Y0132600D01*
X0038463Y0131835D02*
X0329500Y0131835D01*
X0329500Y0132833D02*
X0017539Y0132833D01*
X0017539Y0131835D02*
X0023536Y0131835D01*
X0024302Y0132600D02*
X0021900Y0130198D01*
X0021900Y0126802D01*
X0024302Y0124400D01*
X0027698Y0124400D01*
X0030100Y0126802D01*
X0030100Y0130198D01*
X0027698Y0132600D01*
X0024302Y0132600D01*
X0024302Y0134400D02*
X0021900Y0136802D01*
X0021900Y0140198D01*
X0024302Y0142600D01*
X0027698Y0142600D01*
X0030100Y0140198D01*
X0030100Y0136802D01*
X0027698Y0134400D01*
X0024302Y0134400D01*
X0023871Y0134830D02*
X0017539Y0134830D01*
X0017539Y0133832D02*
X0329500Y0133832D01*
X0329500Y0130836D02*
X0039462Y0130836D01*
X0040100Y0129838D02*
X0329500Y0129838D01*
X0329500Y0128839D02*
X0040100Y0128839D01*
X0040100Y0127841D02*
X0329500Y0127841D01*
X0329500Y0126842D02*
X0040100Y0126842D01*
X0039142Y0125844D02*
X0329500Y0125844D01*
X0329500Y0124845D02*
X0038143Y0124845D01*
X0037698Y0122600D02*
X0034302Y0122600D01*
X0031900Y0120198D01*
X0031900Y0116802D01*
X0034302Y0114400D01*
X0037698Y0114400D01*
X0040100Y0116802D01*
X0040100Y0120198D01*
X0037698Y0122600D01*
X0038449Y0121850D02*
X0329500Y0121850D01*
X0329500Y0122848D02*
X0017539Y0122848D01*
X0017539Y0121850D02*
X0023551Y0121850D01*
X0024302Y0122600D02*
X0021900Y0120198D01*
X0021900Y0116802D01*
X0024302Y0114400D01*
X0027698Y0114400D01*
X0030100Y0116802D01*
X0030100Y0120198D01*
X0027698Y0122600D01*
X0024302Y0122600D01*
X0023857Y0124845D02*
X0017539Y0124845D01*
X0017539Y0123847D02*
X0329500Y0123847D01*
X0329500Y0120851D02*
X0039447Y0120851D01*
X0040100Y0119853D02*
X0329500Y0119853D01*
X0329500Y0118854D02*
X0040100Y0118854D01*
X0040100Y0117856D02*
X0329500Y0117856D01*
X0329500Y0116857D02*
X0040100Y0116857D01*
X0039157Y0115859D02*
X0176160Y0115859D01*
X0176173Y0115872D02*
X0175528Y0115227D01*
X0175528Y0110773D01*
X0176173Y0110128D01*
X0180627Y0110128D01*
X0181272Y0110773D01*
X0181272Y0115227D01*
X0180627Y0115872D01*
X0176173Y0115872D01*
X0175528Y0114860D02*
X0038158Y0114860D01*
X0037698Y0112600D02*
X0034302Y0112600D01*
X0031900Y0110198D01*
X0031900Y0106802D01*
X0034302Y0104400D01*
X0037698Y0104400D01*
X0040100Y0106802D01*
X0040100Y0110198D01*
X0037698Y0112600D01*
X0038434Y0111865D02*
X0175528Y0111865D01*
X0175528Y0112863D02*
X0017539Y0112863D01*
X0017539Y0111865D02*
X0023566Y0111865D01*
X0024302Y0112600D02*
X0021900Y0110198D01*
X0021900Y0106802D01*
X0024302Y0104400D01*
X0027698Y0104400D01*
X0030100Y0106802D01*
X0030100Y0110198D01*
X0027698Y0112600D01*
X0024302Y0112600D01*
X0023842Y0114860D02*
X0017539Y0114860D01*
X0017539Y0113862D02*
X0175528Y0113862D01*
X0175528Y0110866D02*
X0039432Y0110866D01*
X0040100Y0109868D02*
X0329500Y0109868D01*
X0329500Y0110866D02*
X0181272Y0110866D01*
X0181272Y0111865D02*
X0329500Y0111865D01*
X0329500Y0112863D02*
X0181272Y0112863D01*
X0181272Y0113862D02*
X0329500Y0113862D01*
X0329500Y0114860D02*
X0181272Y0114860D01*
X0180640Y0115859D02*
X0329500Y0115859D01*
X0329500Y0108869D02*
X0040100Y0108869D01*
X0040100Y0107870D02*
X0329500Y0107870D01*
X0329500Y0106872D02*
X0040100Y0106872D01*
X0039172Y0105873D02*
X0329500Y0105873D01*
X0329500Y0104875D02*
X0038173Y0104875D01*
X0037698Y0102600D02*
X0034302Y0102600D01*
X0031900Y0100198D01*
X0031900Y0096802D01*
X0034302Y0094400D01*
X0037698Y0094400D01*
X0040100Y0096802D01*
X0040100Y0100198D01*
X0037698Y0102600D01*
X0038419Y0101879D02*
X0192149Y0101879D01*
X0192724Y0102454D02*
X0190530Y0100260D01*
X0189343Y0097394D01*
X0189343Y0094291D01*
X0190530Y0091425D01*
X0192724Y0089231D01*
X0195590Y0088043D01*
X0198693Y0088043D01*
X0201560Y0089231D01*
X0203754Y0091425D01*
X0204941Y0094291D01*
X0204941Y0097394D01*
X0203754Y0100260D01*
X0201560Y0102454D01*
X0198693Y0103642D01*
X0195590Y0103642D01*
X0192724Y0102454D01*
X0193746Y0102878D02*
X0017539Y0102878D01*
X0017539Y0103876D02*
X0329500Y0103876D01*
X0329500Y0102878D02*
X0200537Y0102878D01*
X0202135Y0101879D02*
X0329500Y0101879D01*
X0329500Y0100881D02*
X0203133Y0100881D01*
X0203910Y0099882D02*
X0329500Y0099882D01*
X0329500Y0098884D02*
X0204324Y0098884D01*
X0204737Y0097885D02*
X0329500Y0097885D01*
X0329500Y0096887D02*
X0204941Y0096887D01*
X0204941Y0095888D02*
X0329500Y0095888D01*
X0329500Y0094890D02*
X0204941Y0094890D01*
X0204775Y0093891D02*
X0329500Y0093891D01*
X0329500Y0092893D02*
X0204362Y0092893D01*
X0203948Y0091894D02*
X0329500Y0091894D01*
X0329500Y0090896D02*
X0203225Y0090896D01*
X0202226Y0089897D02*
X0329500Y0089897D01*
X0329500Y0088899D02*
X0200758Y0088899D01*
X0193525Y0088899D02*
X0040100Y0088899D01*
X0040100Y0089897D02*
X0192057Y0089897D01*
X0191059Y0090896D02*
X0039402Y0090896D01*
X0040100Y0090198D02*
X0037698Y0092600D01*
X0034302Y0092600D01*
X0031900Y0090198D01*
X0031900Y0086802D01*
X0034302Y0084400D01*
X0037698Y0084400D01*
X0040100Y0086802D01*
X0040100Y0090198D01*
X0040100Y0087900D02*
X0329500Y0087900D01*
X0329500Y0086902D02*
X0040100Y0086902D01*
X0039202Y0085903D02*
X0329500Y0085903D01*
X0329500Y0084905D02*
X0038203Y0084905D01*
X0039456Y0082600D02*
X0032544Y0082600D01*
X0031900Y0081956D01*
X0031900Y0075044D01*
X0032544Y0074400D01*
X0039456Y0074400D01*
X0040100Y0075044D01*
X0040100Y0081956D01*
X0039456Y0082600D01*
X0040100Y0081909D02*
X0329500Y0081909D01*
X0329500Y0080911D02*
X0040100Y0080911D01*
X0040100Y0079912D02*
X0329500Y0079912D01*
X0329500Y0078914D02*
X0040100Y0078914D01*
X0040100Y0077915D02*
X0329500Y0077915D01*
X0329500Y0076917D02*
X0040100Y0076917D01*
X0040100Y0075918D02*
X0329500Y0075918D01*
X0329500Y0074920D02*
X0039975Y0074920D01*
X0032025Y0074920D02*
X0028218Y0074920D01*
X0027698Y0074400D02*
X0030100Y0076802D01*
X0030100Y0080198D01*
X0027698Y0082600D01*
X0024302Y0082600D01*
X0021900Y0080198D01*
X0021900Y0076802D01*
X0024302Y0074400D01*
X0027698Y0074400D01*
X0029216Y0075918D02*
X0031900Y0075918D01*
X0031900Y0076917D02*
X0030100Y0076917D01*
X0030100Y0077915D02*
X0031900Y0077915D01*
X0031900Y0078914D02*
X0030100Y0078914D01*
X0030100Y0079912D02*
X0031900Y0079912D01*
X0031900Y0080911D02*
X0029388Y0080911D01*
X0028389Y0081909D02*
X0031900Y0081909D01*
X0033797Y0084905D02*
X0028203Y0084905D01*
X0027698Y0084400D02*
X0030100Y0086802D01*
X0030100Y0090198D01*
X0027698Y0092600D01*
X0024302Y0092600D01*
X0021900Y0090198D01*
X0021900Y0086802D01*
X0024302Y0084400D01*
X0027698Y0084400D01*
X0029202Y0085903D02*
X0032798Y0085903D01*
X0031900Y0086902D02*
X0030100Y0086902D01*
X0030100Y0087900D02*
X0031900Y0087900D01*
X0031900Y0088899D02*
X0030100Y0088899D01*
X0030100Y0089897D02*
X0031900Y0089897D01*
X0032598Y0090896D02*
X0029402Y0090896D01*
X0028404Y0091894D02*
X0033596Y0091894D01*
X0033812Y0094890D02*
X0028188Y0094890D01*
X0027698Y0094400D02*
X0024302Y0094400D01*
X0021900Y0096802D01*
X0021900Y0100198D01*
X0024302Y0102600D01*
X0027698Y0102600D01*
X0030100Y0100198D01*
X0030100Y0096802D01*
X0027698Y0094400D01*
X0029187Y0095888D02*
X0032813Y0095888D01*
X0031900Y0096887D02*
X0030100Y0096887D01*
X0030100Y0097885D02*
X0031900Y0097885D01*
X0031900Y0098884D02*
X0030100Y0098884D01*
X0030100Y0099882D02*
X0031900Y0099882D01*
X0032583Y0100881D02*
X0029417Y0100881D01*
X0028419Y0101879D02*
X0033581Y0101879D01*
X0033827Y0104875D02*
X0028173Y0104875D01*
X0029172Y0105873D02*
X0032828Y0105873D01*
X0031900Y0106872D02*
X0030100Y0106872D01*
X0030100Y0107870D02*
X0031900Y0107870D01*
X0031900Y0108869D02*
X0030100Y0108869D01*
X0030100Y0109868D02*
X0031900Y0109868D01*
X0032568Y0110866D02*
X0029432Y0110866D01*
X0028434Y0111865D02*
X0033566Y0111865D01*
X0033842Y0114860D02*
X0028158Y0114860D01*
X0029157Y0115859D02*
X0032843Y0115859D01*
X0031900Y0116857D02*
X0030100Y0116857D01*
X0030100Y0117856D02*
X0031900Y0117856D01*
X0031900Y0118854D02*
X0030100Y0118854D01*
X0030100Y0119853D02*
X0031900Y0119853D01*
X0032553Y0120851D02*
X0029447Y0120851D01*
X0028449Y0121850D02*
X0033551Y0121850D01*
X0033857Y0124845D02*
X0028143Y0124845D01*
X0029142Y0125844D02*
X0032858Y0125844D01*
X0031900Y0126842D02*
X0030100Y0126842D01*
X0030100Y0127841D02*
X0031900Y0127841D01*
X0031900Y0128839D02*
X0030100Y0128839D01*
X0030100Y0129838D02*
X0031900Y0129838D01*
X0032538Y0130836D02*
X0029462Y0130836D01*
X0028463Y0131835D02*
X0033536Y0131835D01*
X0033871Y0134830D02*
X0028129Y0134830D01*
X0029127Y0135829D02*
X0032873Y0135829D01*
X0031900Y0136827D02*
X0030100Y0136827D01*
X0030100Y0137826D02*
X0031900Y0137826D01*
X0031900Y0138824D02*
X0030100Y0138824D01*
X0030100Y0139823D02*
X0031900Y0139823D01*
X0032523Y0140821D02*
X0029477Y0140821D01*
X0028478Y0141820D02*
X0033522Y0141820D01*
X0033886Y0144815D02*
X0028114Y0144815D01*
X0027698Y0144400D02*
X0030100Y0146802D01*
X0030100Y0150198D01*
X0027698Y0152600D01*
X0024302Y0152600D01*
X0021900Y0150198D01*
X0021900Y0146802D01*
X0024302Y0144400D01*
X0027698Y0144400D01*
X0029112Y0145814D02*
X0032888Y0145814D01*
X0031900Y0146812D02*
X0030100Y0146812D01*
X0030100Y0147811D02*
X0031900Y0147811D01*
X0031900Y0148809D02*
X0030100Y0148809D01*
X0030100Y0149808D02*
X0031900Y0149808D01*
X0032508Y0150806D02*
X0029492Y0150806D01*
X0028493Y0151805D02*
X0033507Y0151805D01*
X0033901Y0154801D02*
X0028664Y0154801D01*
X0027864Y0154000D02*
X0030500Y0156636D01*
X0030500Y0158000D01*
X0026500Y0158000D01*
X0026500Y0154000D01*
X0027864Y0154000D01*
X0026500Y0154801D02*
X0025500Y0154801D01*
X0025500Y0155799D02*
X0026500Y0155799D01*
X0026500Y0156798D02*
X0025500Y0156798D01*
X0025500Y0157796D02*
X0026500Y0157796D01*
X0026500Y0158795D02*
X0031900Y0158795D01*
X0031900Y0159793D02*
X0030500Y0159793D01*
X0030072Y0160792D02*
X0032493Y0160792D01*
X0033492Y0161790D02*
X0029074Y0161790D01*
X0030500Y0157796D02*
X0031900Y0157796D01*
X0031904Y0156798D02*
X0030500Y0156798D01*
X0029663Y0155799D02*
X0032903Y0155799D01*
X0038099Y0154801D02*
X0296900Y0154801D01*
X0296900Y0153802D02*
X0071097Y0153802D01*
X0071272Y0152803D02*
X0296900Y0152803D01*
X0296900Y0151805D02*
X0071272Y0151805D01*
X0071272Y0150806D02*
X0297895Y0150806D01*
X0297516Y0145814D02*
X0039112Y0145814D01*
X0038114Y0144815D02*
X0296900Y0144815D01*
X0296900Y0143817D02*
X0017539Y0143817D01*
X0017539Y0144815D02*
X0023886Y0144815D01*
X0022888Y0145814D02*
X0017539Y0145814D01*
X0017539Y0146812D02*
X0021900Y0146812D01*
X0021900Y0147811D02*
X0017539Y0147811D01*
X0017539Y0148809D02*
X0021900Y0148809D01*
X0021900Y0149808D02*
X0017539Y0149808D01*
X0017539Y0150806D02*
X0022508Y0150806D01*
X0023507Y0151805D02*
X0017539Y0151805D01*
X0017539Y0152803D02*
X0065528Y0152803D01*
X0065528Y0151805D02*
X0038493Y0151805D01*
X0039492Y0150806D02*
X0065528Y0150806D01*
X0065528Y0149808D02*
X0040100Y0149808D01*
X0040100Y0148809D02*
X0065892Y0148809D01*
X0065703Y0153802D02*
X0017539Y0153802D01*
X0017539Y0154801D02*
X0023336Y0154801D01*
X0022337Y0155799D02*
X0017539Y0155799D01*
X0017539Y0156798D02*
X0021500Y0156798D01*
X0021500Y0157796D02*
X0017539Y0157796D01*
X0017539Y0142818D02*
X0296900Y0142818D01*
X0296900Y0141820D02*
X0038478Y0141820D01*
X0039477Y0140821D02*
X0297880Y0140821D01*
X0298879Y0139823D02*
X0040100Y0139823D01*
X0023522Y0141820D02*
X0017539Y0141820D01*
X0017539Y0140821D02*
X0022523Y0140821D01*
X0021900Y0139823D02*
X0017539Y0139823D01*
X0017539Y0138824D02*
X0021900Y0138824D01*
X0021900Y0137826D02*
X0017539Y0137826D01*
X0017539Y0136827D02*
X0021900Y0136827D01*
X0022873Y0135829D02*
X0017539Y0135829D01*
X0017539Y0130836D02*
X0022538Y0130836D01*
X0021900Y0129838D02*
X0017539Y0129838D01*
X0017539Y0128839D02*
X0021900Y0128839D01*
X0021900Y0127841D02*
X0017539Y0127841D01*
X0017539Y0126842D02*
X0021900Y0126842D01*
X0022858Y0125844D02*
X0017539Y0125844D01*
X0017539Y0120851D02*
X0022553Y0120851D01*
X0021900Y0119853D02*
X0017539Y0119853D01*
X0017539Y0118854D02*
X0021900Y0118854D01*
X0021900Y0117856D02*
X0017539Y0117856D01*
X0017539Y0116857D02*
X0021900Y0116857D01*
X0022843Y0115859D02*
X0017539Y0115859D01*
X0017539Y0110866D02*
X0022568Y0110866D01*
X0021900Y0109868D02*
X0017539Y0109868D01*
X0017539Y0108869D02*
X0021900Y0108869D01*
X0021900Y0107870D02*
X0017539Y0107870D01*
X0017539Y0106872D02*
X0021900Y0106872D01*
X0022828Y0105873D02*
X0017539Y0105873D01*
X0017539Y0104875D02*
X0023827Y0104875D01*
X0023581Y0101879D02*
X0017539Y0101879D01*
X0017539Y0100881D02*
X0022583Y0100881D01*
X0021900Y0099882D02*
X0017539Y0099882D01*
X0017539Y0098884D02*
X0021900Y0098884D01*
X0021900Y0097885D02*
X0017539Y0097885D01*
X0017539Y0096887D02*
X0021900Y0096887D01*
X0022813Y0095888D02*
X0017539Y0095888D01*
X0017539Y0094890D02*
X0023812Y0094890D01*
X0023596Y0091894D02*
X0017539Y0091894D01*
X0017539Y0090896D02*
X0022598Y0090896D01*
X0021900Y0089897D02*
X0017539Y0089897D01*
X0017539Y0088899D02*
X0021900Y0088899D01*
X0021900Y0087900D02*
X0017539Y0087900D01*
X0017539Y0086902D02*
X0021900Y0086902D01*
X0022798Y0085903D02*
X0017539Y0085903D01*
X0017539Y0084905D02*
X0023797Y0084905D01*
X0023611Y0081909D02*
X0017539Y0081909D01*
X0017539Y0080911D02*
X0022612Y0080911D01*
X0021900Y0079912D02*
X0017539Y0079912D01*
X0017539Y0078914D02*
X0021900Y0078914D01*
X0021900Y0077915D02*
X0017539Y0077915D01*
X0017539Y0076917D02*
X0021900Y0076917D01*
X0022784Y0075918D02*
X0017539Y0075918D01*
X0017539Y0074920D02*
X0023782Y0074920D01*
X0017539Y0073921D02*
X0329500Y0073921D01*
X0329500Y0072923D02*
X0017539Y0072923D01*
X0017539Y0071924D02*
X0329500Y0071924D01*
X0329500Y0070926D02*
X0017539Y0070926D01*
X0017539Y0069927D02*
X0329500Y0069927D01*
X0329500Y0068929D02*
X0017539Y0068929D01*
X0017539Y0067930D02*
X0329500Y0067930D01*
X0329500Y0066932D02*
X0279573Y0066932D01*
X0279634Y0066912D02*
X0278841Y0067169D01*
X0278084Y0067289D01*
X0278084Y0062484D01*
X0282889Y0062484D01*
X0282769Y0063241D01*
X0282512Y0064034D01*
X0282133Y0064778D01*
X0281643Y0065453D01*
X0281053Y0066043D01*
X0280378Y0066533D01*
X0279634Y0066912D01*
X0278084Y0066932D02*
X0277116Y0066932D01*
X0277116Y0067289D02*
X0276359Y0067169D01*
X0275566Y0066912D01*
X0274822Y0066533D01*
X0274147Y0066043D01*
X0273557Y0065453D01*
X0273067Y0064778D01*
X0272688Y0064034D01*
X0272430Y0063241D01*
X0272311Y0062484D01*
X0277116Y0062484D01*
X0277116Y0061516D01*
X0278084Y0061516D01*
X0278084Y0056711D01*
X0278841Y0056830D01*
X0279634Y0057088D01*
X0280378Y0057467D01*
X0281053Y0057957D01*
X0281643Y0058547D01*
X0282133Y0059222D01*
X0282512Y0059966D01*
X0282769Y0060759D01*
X0282889Y0061516D01*
X0278084Y0061516D01*
X0278084Y0062484D01*
X0277116Y0062484D01*
X0277116Y0067289D01*
X0277116Y0065933D02*
X0278084Y0065933D01*
X0278084Y0064934D02*
X0277116Y0064934D01*
X0277116Y0063936D02*
X0278084Y0063936D01*
X0278084Y0062937D02*
X0277116Y0062937D01*
X0277116Y0061939D02*
X0248900Y0061939D01*
X0248900Y0061025D02*
X0248154Y0059224D01*
X0246776Y0057846D01*
X0244975Y0057100D01*
X0243025Y0057100D01*
X0241224Y0057846D01*
X0239846Y0059224D01*
X0239100Y0061025D01*
X0239100Y0062975D01*
X0239846Y0064776D01*
X0241224Y0066154D01*
X0243025Y0066900D01*
X0244975Y0066900D01*
X0246776Y0066154D01*
X0248154Y0064776D01*
X0248900Y0062975D01*
X0248900Y0061025D01*
X0248865Y0060940D02*
X0272402Y0060940D01*
X0272430Y0060759D02*
X0272688Y0059966D01*
X0273067Y0059222D01*
X0273557Y0058547D01*
X0274147Y0057957D01*
X0274822Y0057467D01*
X0275566Y0057088D01*
X0276359Y0056830D01*
X0277116Y0056711D01*
X0277116Y0061516D01*
X0272311Y0061516D01*
X0272430Y0060759D01*
X0272700Y0059942D02*
X0248451Y0059942D01*
X0247873Y0058943D02*
X0273270Y0058943D01*
X0274164Y0057945D02*
X0246875Y0057945D01*
X0248900Y0062937D02*
X0272382Y0062937D01*
X0272656Y0063936D02*
X0248502Y0063936D01*
X0247995Y0064934D02*
X0273181Y0064934D01*
X0274038Y0065933D02*
X0246997Y0065933D01*
X0241003Y0065933D02*
X0120997Y0065933D01*
X0120776Y0066154D02*
X0122154Y0064776D01*
X0122900Y0062975D01*
X0122900Y0061025D01*
X0122154Y0059224D01*
X0120776Y0057846D01*
X0118975Y0057100D01*
X0117025Y0057100D01*
X0115224Y0057846D01*
X0113846Y0059224D01*
X0113100Y0061025D01*
X0113100Y0062975D01*
X0113846Y0064776D01*
X0115224Y0066154D01*
X0117025Y0066900D01*
X0118975Y0066900D01*
X0120776Y0066154D01*
X0121995Y0064934D02*
X0176636Y0064934D01*
X0176773Y0065072D02*
X0176128Y0064427D01*
X0176128Y0059973D01*
X0176773Y0059328D01*
X0181227Y0059328D01*
X0181872Y0059973D01*
X0181872Y0064427D01*
X0181227Y0065072D01*
X0176773Y0065072D01*
X0176128Y0063936D02*
X0122502Y0063936D01*
X0122900Y0062937D02*
X0176128Y0062937D01*
X0176128Y0061939D02*
X0122900Y0061939D01*
X0122865Y0060940D02*
X0176128Y0060940D01*
X0176159Y0059942D02*
X0122451Y0059942D01*
X0121873Y0058943D02*
X0240127Y0058943D01*
X0239549Y0059942D02*
X0181841Y0059942D01*
X0181872Y0060940D02*
X0239135Y0060940D01*
X0239100Y0061939D02*
X0181872Y0061939D01*
X0181872Y0062937D02*
X0239100Y0062937D01*
X0239498Y0063936D02*
X0181872Y0063936D01*
X0181364Y0064934D02*
X0240005Y0064934D01*
X0241125Y0057945D02*
X0204572Y0057945D01*
X0204572Y0058127D02*
X0203927Y0058772D01*
X0199473Y0058772D01*
X0198828Y0058127D01*
X0198828Y0053673D01*
X0199473Y0053028D01*
X0203927Y0053028D01*
X0204572Y0053673D01*
X0204572Y0058127D01*
X0204572Y0056946D02*
X0276002Y0056946D01*
X0277116Y0056946D02*
X0278084Y0056946D01*
X0278084Y0057945D02*
X0277116Y0057945D01*
X0277116Y0058943D02*
X0278084Y0058943D01*
X0278084Y0059942D02*
X0277116Y0059942D01*
X0277116Y0060940D02*
X0278084Y0060940D01*
X0278084Y0061939D02*
X0329500Y0061939D01*
X0329500Y0062937D02*
X0282818Y0062937D01*
X0282544Y0063936D02*
X0329500Y0063936D01*
X0329500Y0064934D02*
X0282019Y0064934D01*
X0281162Y0065933D02*
X0329500Y0065933D01*
X0329500Y0060940D02*
X0282798Y0060940D01*
X0282500Y0059942D02*
X0329500Y0059942D01*
X0329500Y0058943D02*
X0281930Y0058943D01*
X0281036Y0057945D02*
X0329500Y0057945D01*
X0329500Y0056946D02*
X0279198Y0056946D01*
X0275627Y0066932D02*
X0017539Y0066932D01*
X0017539Y0065933D02*
X0115003Y0065933D01*
X0114005Y0064934D02*
X0017539Y0064934D01*
X0017539Y0063936D02*
X0113498Y0063936D01*
X0113100Y0062937D02*
X0017539Y0062937D01*
X0017539Y0061939D02*
X0113100Y0061939D01*
X0113135Y0060940D02*
X0017539Y0060940D01*
X0017539Y0059942D02*
X0113549Y0059942D01*
X0114127Y0058943D02*
X0017539Y0058943D01*
X0017539Y0057945D02*
X0115125Y0057945D01*
X0120875Y0057945D02*
X0198828Y0057945D01*
X0198828Y0056946D02*
X0017539Y0056946D01*
X0017539Y0055948D02*
X0198828Y0055948D01*
X0198828Y0054949D02*
X0017539Y0054949D01*
X0017539Y0053951D02*
X0198828Y0053951D01*
X0204572Y0053951D02*
X0329500Y0053951D01*
X0329500Y0054949D02*
X0204572Y0054949D01*
X0204572Y0055948D02*
X0329500Y0055948D01*
X0329500Y0052952D02*
X0017539Y0052952D01*
X0017539Y0051954D02*
X0329500Y0051954D01*
X0329500Y0050955D02*
X0017539Y0050955D01*
X0017539Y0049957D02*
X0329500Y0049957D01*
X0329500Y0048958D02*
X0017539Y0048958D01*
X0017539Y0047960D02*
X0329500Y0047960D01*
X0329500Y0046961D02*
X0017539Y0046961D01*
X0017539Y0045963D02*
X0329500Y0045963D01*
X0329500Y0044964D02*
X0017539Y0044964D01*
X0017539Y0043966D02*
X0028737Y0043966D01*
X0027370Y0043399D02*
X0025176Y0041205D01*
X0023988Y0038339D01*
X0023988Y0035236D01*
X0025176Y0032370D01*
X0027370Y0030176D01*
X0030236Y0028988D01*
X0033339Y0028988D01*
X0036205Y0030176D01*
X0038399Y0032370D01*
X0039587Y0035236D01*
X0039587Y0038339D01*
X0038399Y0041205D01*
X0036205Y0043399D01*
X0033339Y0044587D01*
X0030236Y0044587D01*
X0027370Y0043399D01*
X0026937Y0042967D02*
X0017539Y0042967D01*
X0017539Y0041969D02*
X0025939Y0041969D01*
X0025078Y0040970D02*
X0017539Y0040970D01*
X0017539Y0039972D02*
X0024665Y0039972D01*
X0024251Y0038973D02*
X0017539Y0038973D01*
X0017539Y0037975D02*
X0023988Y0037975D01*
X0023988Y0036976D02*
X0017539Y0036976D01*
X0017539Y0035978D02*
X0023988Y0035978D01*
X0024095Y0034979D02*
X0017539Y0034979D01*
X0017539Y0033981D02*
X0024508Y0033981D01*
X0024922Y0032982D02*
X0018029Y0032982D01*
X0017539Y0033472D02*
X0017539Y0323568D01*
X0028472Y0334500D01*
X0318568Y0334500D01*
X0329500Y0323568D01*
X0329500Y0033472D01*
X0318568Y0022539D01*
X0028472Y0022539D01*
X0017539Y0033472D01*
X0019027Y0031984D02*
X0025561Y0031984D01*
X0026560Y0030985D02*
X0020026Y0030985D01*
X0021024Y0029987D02*
X0027826Y0029987D01*
X0024020Y0026991D02*
X0323019Y0026991D01*
X0322021Y0025993D02*
X0025019Y0025993D01*
X0026017Y0024994D02*
X0321022Y0024994D01*
X0320024Y0023996D02*
X0027016Y0023996D01*
X0028014Y0022997D02*
X0319025Y0022997D01*
X0324018Y0027990D02*
X0023021Y0027990D01*
X0022023Y0028988D02*
X0325016Y0028988D01*
X0326015Y0029987D02*
X0319214Y0029987D01*
X0319670Y0030176D02*
X0321864Y0032370D01*
X0323051Y0035236D01*
X0323051Y0038339D01*
X0321864Y0041205D01*
X0319670Y0043399D01*
X0316803Y0044587D01*
X0313701Y0044587D01*
X0310834Y0043399D01*
X0308640Y0041205D01*
X0307453Y0038339D01*
X0307453Y0035236D01*
X0308640Y0032370D01*
X0310834Y0030176D01*
X0313701Y0028988D01*
X0316803Y0028988D01*
X0319670Y0030176D01*
X0320479Y0030985D02*
X0327013Y0030985D01*
X0328012Y0031984D02*
X0321478Y0031984D01*
X0322118Y0032982D02*
X0329010Y0032982D01*
X0329500Y0033981D02*
X0322531Y0033981D01*
X0322945Y0034979D02*
X0329500Y0034979D01*
X0329500Y0035978D02*
X0323051Y0035978D01*
X0323051Y0036976D02*
X0329500Y0036976D01*
X0329500Y0037975D02*
X0323051Y0037975D01*
X0322788Y0038973D02*
X0329500Y0038973D01*
X0329500Y0039972D02*
X0322375Y0039972D01*
X0321961Y0040970D02*
X0329500Y0040970D01*
X0329500Y0041969D02*
X0321100Y0041969D01*
X0320102Y0042967D02*
X0329500Y0042967D01*
X0329500Y0043966D02*
X0318302Y0043966D01*
X0312202Y0043966D02*
X0034838Y0043966D01*
X0036637Y0042967D02*
X0310402Y0042967D01*
X0309404Y0041969D02*
X0037636Y0041969D01*
X0038497Y0040970D02*
X0308543Y0040970D01*
X0308129Y0039972D02*
X0038910Y0039972D01*
X0039324Y0038973D02*
X0307716Y0038973D01*
X0307453Y0037975D02*
X0039587Y0037975D01*
X0039587Y0036976D02*
X0307453Y0036976D01*
X0307453Y0035978D02*
X0039587Y0035978D01*
X0039480Y0034979D02*
X0307559Y0034979D01*
X0307973Y0033981D02*
X0039067Y0033981D01*
X0038653Y0032982D02*
X0308386Y0032982D01*
X0309026Y0031984D02*
X0038013Y0031984D01*
X0037015Y0030985D02*
X0310024Y0030985D01*
X0311290Y0029987D02*
X0035749Y0029987D01*
X0017539Y0082908D02*
X0329500Y0082908D01*
X0329500Y0083906D02*
X0017539Y0083906D01*
X0017539Y0092893D02*
X0189922Y0092893D01*
X0189508Y0093891D02*
X0017539Y0093891D01*
X0038188Y0094890D02*
X0189343Y0094890D01*
X0189343Y0095888D02*
X0039187Y0095888D01*
X0040100Y0096887D02*
X0189343Y0096887D01*
X0189546Y0097885D02*
X0040100Y0097885D01*
X0040100Y0098884D02*
X0189960Y0098884D01*
X0190373Y0099882D02*
X0040100Y0099882D01*
X0039417Y0100881D02*
X0191150Y0100881D01*
X0190335Y0091894D02*
X0038404Y0091894D01*
X0039097Y0155799D02*
X0297501Y0155799D01*
X0298499Y0156798D02*
X0219267Y0156798D01*
X0220100Y0157796D02*
X0308932Y0157796D01*
X0307934Y0156798D02*
X0303501Y0156798D01*
X0304499Y0155799D02*
X0306935Y0155799D01*
X0306500Y0154801D02*
X0305100Y0154801D01*
X0303091Y0159793D02*
X0308343Y0159793D01*
X0307344Y0160792D02*
X0304090Y0160792D01*
X0305088Y0161790D02*
X0306500Y0161790D01*
X0306500Y0162789D02*
X0305100Y0162789D01*
X0310500Y0161790D02*
X0311500Y0161790D01*
X0311500Y0160792D02*
X0310500Y0160792D01*
X0310500Y0159793D02*
X0311500Y0159793D01*
X0311500Y0157796D02*
X0310500Y0157796D01*
X0310500Y0156798D02*
X0311500Y0156798D01*
X0311500Y0155799D02*
X0310500Y0155799D01*
X0310500Y0154801D02*
X0311500Y0154801D01*
X0311500Y0153802D02*
X0316900Y0153802D01*
X0316900Y0152803D02*
X0315500Y0152803D01*
X0315500Y0151805D02*
X0316900Y0151805D01*
X0317895Y0150806D02*
X0314670Y0150806D01*
X0313672Y0149808D02*
X0318894Y0149808D01*
X0316900Y0154801D02*
X0315500Y0154801D01*
X0315065Y0155799D02*
X0317501Y0155799D01*
X0323091Y0159793D02*
X0329500Y0159793D01*
X0329500Y0158795D02*
X0220100Y0158795D01*
X0219677Y0159793D02*
X0298909Y0159793D01*
X0310500Y0164786D02*
X0311500Y0164786D01*
X0311500Y0165784D02*
X0310500Y0165784D01*
X0310500Y0166783D02*
X0311500Y0166783D01*
X0311500Y0167781D02*
X0310500Y0167781D01*
X0310500Y0169778D02*
X0311500Y0169778D01*
X0311500Y0170777D02*
X0310500Y0170777D01*
X0310500Y0171775D02*
X0311500Y0171775D01*
X0311500Y0174771D02*
X0310500Y0174771D01*
X0310500Y0175769D02*
X0311500Y0175769D01*
X0311500Y0176768D02*
X0310500Y0176768D01*
X0310500Y0177766D02*
X0311500Y0177766D01*
X0311500Y0179000D02*
X0312864Y0179000D01*
X0315500Y0181636D01*
X0315500Y0183000D01*
X0311500Y0183000D01*
X0311500Y0179000D01*
X0311500Y0179763D02*
X0310500Y0179763D01*
X0310500Y0180762D02*
X0311500Y0180762D01*
X0311500Y0181760D02*
X0310500Y0181760D01*
X0310500Y0182759D02*
X0311500Y0182759D01*
X0311500Y0183757D02*
X0316900Y0183757D01*
X0316900Y0182759D02*
X0315500Y0182759D01*
X0315500Y0181760D02*
X0316941Y0181760D01*
X0317940Y0180762D02*
X0314626Y0180762D01*
X0313627Y0179763D02*
X0318938Y0179763D01*
X0318470Y0176768D02*
X0314096Y0176768D01*
X0313098Y0177766D02*
X0329500Y0177766D01*
X0329500Y0176768D02*
X0323530Y0176768D01*
X0324529Y0175769D02*
X0329500Y0175769D01*
X0329500Y0174771D02*
X0325100Y0174771D01*
X0325100Y0173772D02*
X0329500Y0173772D01*
X0329500Y0172774D02*
X0325100Y0172774D01*
X0325073Y0171775D02*
X0329500Y0171775D01*
X0329500Y0170777D02*
X0324075Y0170777D01*
X0324514Y0165784D02*
X0329500Y0165784D01*
X0329500Y0164786D02*
X0325100Y0164786D01*
X0325100Y0163787D02*
X0329500Y0163787D01*
X0329500Y0162789D02*
X0325100Y0162789D01*
X0325088Y0161790D02*
X0329500Y0161790D01*
X0329500Y0160792D02*
X0324090Y0160792D01*
X0318484Y0166783D02*
X0314081Y0166783D01*
X0315080Y0165784D02*
X0317486Y0165784D01*
X0316900Y0164786D02*
X0315500Y0164786D01*
X0306500Y0174771D02*
X0305100Y0174771D01*
X0304529Y0175769D02*
X0306905Y0175769D01*
X0307904Y0176768D02*
X0303530Y0176768D01*
X0303062Y0179763D02*
X0308373Y0179763D01*
X0307374Y0180762D02*
X0304060Y0180762D01*
X0305059Y0181760D02*
X0306500Y0181760D01*
X0306500Y0182759D02*
X0305100Y0182759D01*
X0305100Y0183757D02*
X0310500Y0183757D01*
X0310500Y0184756D02*
X0311500Y0184756D01*
X0311500Y0185754D02*
X0310500Y0185754D01*
X0310500Y0186753D02*
X0311500Y0186753D01*
X0311500Y0187751D02*
X0310500Y0187751D01*
X0310500Y0189748D02*
X0311500Y0189748D01*
X0311500Y0190747D02*
X0310500Y0190747D01*
X0310500Y0191745D02*
X0311500Y0191745D01*
X0311500Y0194741D02*
X0310500Y0194741D01*
X0310500Y0195739D02*
X0311500Y0195739D01*
X0311500Y0196738D02*
X0310500Y0196738D01*
X0310500Y0197737D02*
X0311500Y0197737D01*
X0311500Y0199000D02*
X0312864Y0199000D01*
X0315500Y0201636D01*
X0315500Y0203000D01*
X0311500Y0203000D01*
X0311500Y0204000D01*
X0310500Y0204000D01*
X0310500Y0208000D01*
X0309136Y0208000D01*
X0306500Y0205364D01*
X0306500Y0204000D01*
X0310500Y0204000D01*
X0310500Y0203000D01*
X0306500Y0203000D01*
X0306500Y0201636D01*
X0309136Y0199000D01*
X0310500Y0199000D01*
X0310500Y0203000D01*
X0311500Y0203000D01*
X0311500Y0199000D01*
X0311500Y0199734D02*
X0310500Y0199734D01*
X0310500Y0200732D02*
X0311500Y0200732D01*
X0311500Y0201731D02*
X0310500Y0201731D01*
X0310500Y0202729D02*
X0311500Y0202729D01*
X0311500Y0203728D02*
X0316900Y0203728D01*
X0316900Y0204726D02*
X0315500Y0204726D01*
X0315500Y0205364D02*
X0312864Y0208000D01*
X0311500Y0208000D01*
X0311500Y0204000D01*
X0315500Y0204000D01*
X0315500Y0205364D01*
X0315139Y0205725D02*
X0317426Y0205725D01*
X0316900Y0205198D02*
X0316900Y0201802D01*
X0319302Y0199400D01*
X0322698Y0199400D01*
X0325100Y0201802D01*
X0325100Y0205198D01*
X0322698Y0207600D01*
X0319302Y0207600D01*
X0316900Y0205198D01*
X0318425Y0206723D02*
X0314141Y0206723D01*
X0313142Y0207722D02*
X0329500Y0207722D01*
X0329500Y0208720D02*
X0215572Y0208720D01*
X0215572Y0209719D02*
X0297226Y0209719D01*
X0297544Y0209400D02*
X0296900Y0210044D01*
X0296900Y0216956D01*
X0297544Y0217600D01*
X0304456Y0217600D01*
X0305100Y0216956D01*
X0305100Y0210044D01*
X0304456Y0209400D01*
X0297544Y0209400D01*
X0296900Y0210717D02*
X0215572Y0210717D01*
X0215572Y0211716D02*
X0296900Y0211716D01*
X0296900Y0212714D02*
X0215285Y0212714D01*
X0215321Y0207722D02*
X0308858Y0207722D01*
X0309136Y0209000D02*
X0306500Y0211636D01*
X0306500Y0213000D01*
X0310500Y0213000D01*
X0310500Y0214000D01*
X0310500Y0218000D01*
X0309136Y0218000D01*
X0306500Y0215364D01*
X0306500Y0214000D01*
X0310500Y0214000D01*
X0311500Y0214000D01*
X0311500Y0218000D01*
X0312864Y0218000D01*
X0315500Y0215364D01*
X0315500Y0214000D01*
X0311500Y0214000D01*
X0311500Y0213000D01*
X0315500Y0213000D01*
X0315500Y0211636D01*
X0312864Y0209000D01*
X0311500Y0209000D01*
X0311500Y0213000D01*
X0310500Y0213000D01*
X0310500Y0209000D01*
X0309136Y0209000D01*
X0308417Y0209719D02*
X0304774Y0209719D01*
X0305100Y0210717D02*
X0307419Y0210717D01*
X0306500Y0211716D02*
X0305100Y0211716D01*
X0305100Y0212714D02*
X0306500Y0212714D01*
X0305100Y0213713D02*
X0310500Y0213713D01*
X0310500Y0214711D02*
X0311500Y0214711D01*
X0311500Y0213713D02*
X0316900Y0213713D01*
X0316900Y0214711D02*
X0315500Y0214711D01*
X0315154Y0215710D02*
X0317411Y0215710D01*
X0316900Y0215198D02*
X0316900Y0211802D01*
X0319302Y0209400D01*
X0322698Y0209400D01*
X0325100Y0211802D01*
X0325100Y0215198D01*
X0322698Y0217600D01*
X0319302Y0217600D01*
X0316900Y0215198D01*
X0318410Y0216708D02*
X0314156Y0216708D01*
X0313157Y0217707D02*
X0329500Y0217707D01*
X0329500Y0218705D02*
X0238000Y0218705D01*
X0238000Y0218530D02*
X0236770Y0217300D01*
X0235030Y0217300D01*
X0233800Y0218530D01*
X0233800Y0220270D01*
X0235030Y0221500D01*
X0236770Y0221500D01*
X0238000Y0220270D01*
X0238000Y0218530D01*
X0237177Y0217707D02*
X0308843Y0217707D01*
X0307844Y0216708D02*
X0305100Y0216708D01*
X0305100Y0215710D02*
X0306846Y0215710D01*
X0306500Y0214711D02*
X0305100Y0214711D01*
X0310500Y0215710D02*
X0311500Y0215710D01*
X0311500Y0216708D02*
X0310500Y0216708D01*
X0310500Y0217707D02*
X0311500Y0217707D01*
X0311500Y0212714D02*
X0310500Y0212714D01*
X0310500Y0211716D02*
X0311500Y0211716D01*
X0311500Y0210717D02*
X0310500Y0210717D01*
X0310500Y0209719D02*
X0311500Y0209719D01*
X0311500Y0207722D02*
X0310500Y0207722D01*
X0310500Y0206723D02*
X0311500Y0206723D01*
X0311500Y0205725D02*
X0310500Y0205725D01*
X0310500Y0204726D02*
X0311500Y0204726D01*
X0310500Y0203728D02*
X0305100Y0203728D01*
X0305100Y0204726D02*
X0306500Y0204726D01*
X0306861Y0205725D02*
X0304574Y0205725D01*
X0303575Y0206723D02*
X0307859Y0206723D01*
X0306500Y0202729D02*
X0305100Y0202729D01*
X0305029Y0201731D02*
X0306500Y0201731D01*
X0307404Y0200732D02*
X0304030Y0200732D01*
X0303032Y0199734D02*
X0308403Y0199734D01*
X0308873Y0197737D02*
X0202372Y0197737D01*
X0202372Y0198735D02*
X0329500Y0198735D01*
X0329500Y0197737D02*
X0313127Y0197737D01*
X0314126Y0196738D02*
X0318440Y0196738D01*
X0317441Y0195739D02*
X0315124Y0195739D01*
X0313597Y0199734D02*
X0318968Y0199734D01*
X0317970Y0200732D02*
X0314596Y0200732D01*
X0315500Y0201731D02*
X0316971Y0201731D01*
X0316900Y0202729D02*
X0315500Y0202729D01*
X0313583Y0209719D02*
X0318983Y0209719D01*
X0317985Y0210717D02*
X0314581Y0210717D01*
X0315500Y0211716D02*
X0316986Y0211716D01*
X0316900Y0212714D02*
X0315500Y0212714D01*
X0323017Y0209719D02*
X0329500Y0209719D01*
X0329500Y0210717D02*
X0324015Y0210717D01*
X0325014Y0211716D02*
X0329500Y0211716D01*
X0329500Y0212714D02*
X0325100Y0212714D01*
X0325100Y0213713D02*
X0329500Y0213713D01*
X0329500Y0214711D02*
X0325100Y0214711D01*
X0324589Y0215710D02*
X0329500Y0215710D01*
X0329500Y0216708D02*
X0323590Y0216708D01*
X0329500Y0219704D02*
X0238000Y0219704D01*
X0237568Y0220702D02*
X0329500Y0220702D01*
X0329500Y0221701D02*
X0038597Y0221701D01*
X0039596Y0220702D02*
X0234232Y0220702D01*
X0233800Y0219704D02*
X0040100Y0219704D01*
X0040100Y0218705D02*
X0128506Y0218705D01*
X0128773Y0218972D02*
X0128128Y0218327D01*
X0128128Y0213873D01*
X0128773Y0213228D01*
X0133227Y0213228D01*
X0133872Y0213873D01*
X0133872Y0218327D01*
X0133227Y0218972D01*
X0128773Y0218972D01*
X0128128Y0217707D02*
X0040100Y0217707D01*
X0040006Y0216708D02*
X0128128Y0216708D01*
X0128128Y0215710D02*
X0039008Y0215710D01*
X0038009Y0214711D02*
X0128128Y0214711D01*
X0128288Y0213713D02*
X0017539Y0213713D01*
X0017539Y0214711D02*
X0023991Y0214711D01*
X0022992Y0215710D02*
X0017539Y0215710D01*
X0017539Y0216708D02*
X0021994Y0216708D01*
X0021900Y0217707D02*
X0017539Y0217707D01*
X0017539Y0218705D02*
X0021900Y0218705D01*
X0021900Y0219704D02*
X0017539Y0219704D01*
X0017539Y0220702D02*
X0022404Y0220702D01*
X0023403Y0221701D02*
X0017539Y0221701D01*
X0017539Y0222699D02*
X0329500Y0222699D01*
X0329500Y0233683D02*
X0017539Y0233683D01*
X0017539Y0242670D02*
X0329500Y0242670D01*
X0329500Y0243668D02*
X0017539Y0243668D01*
X0027965Y0244667D02*
X0034035Y0244667D01*
X0033037Y0245665D02*
X0028963Y0245665D01*
X0029962Y0246664D02*
X0032038Y0246664D01*
X0031900Y0247662D02*
X0030100Y0247662D01*
X0030100Y0248661D02*
X0031900Y0248661D01*
X0031900Y0249659D02*
X0030100Y0249659D01*
X0029641Y0250658D02*
X0032359Y0250658D01*
X0033358Y0251656D02*
X0028642Y0251656D01*
X0027950Y0254652D02*
X0034050Y0254652D01*
X0033052Y0255650D02*
X0028948Y0255650D01*
X0029947Y0256649D02*
X0032053Y0256649D01*
X0031900Y0257647D02*
X0030100Y0257647D01*
X0030100Y0258646D02*
X0031900Y0258646D01*
X0031900Y0259644D02*
X0030100Y0259644D01*
X0029656Y0260643D02*
X0032344Y0260643D01*
X0033343Y0261641D02*
X0028657Y0261641D01*
X0017539Y0262640D02*
X0148900Y0262640D01*
X0148900Y0263638D02*
X0017539Y0263638D01*
X0017539Y0282610D02*
X0150592Y0282610D01*
X0149593Y0283608D02*
X0017539Y0283608D01*
X0017539Y0284607D02*
X0148900Y0284607D01*
X0148900Y0285605D02*
X0017539Y0285605D01*
X0017539Y0286604D02*
X0148900Y0286604D01*
X0148900Y0287603D02*
X0017539Y0287603D01*
X0017539Y0288601D02*
X0149803Y0288601D01*
X0150801Y0289600D02*
X0017539Y0289600D01*
X0017539Y0290598D02*
X0132228Y0290598D01*
X0132228Y0290473D02*
X0132873Y0289828D01*
X0137327Y0289828D01*
X0137972Y0290473D01*
X0137972Y0294927D01*
X0137327Y0295572D01*
X0132873Y0295572D01*
X0132228Y0294927D01*
X0132228Y0290473D01*
X0132228Y0291597D02*
X0017539Y0291597D01*
X0017539Y0292595D02*
X0132228Y0292595D01*
X0132228Y0293594D02*
X0017539Y0293594D01*
X0017539Y0294592D02*
X0132228Y0294592D01*
X0137972Y0291597D02*
X0272927Y0291597D01*
X0273607Y0290598D02*
X0137972Y0290598D01*
X0204500Y0236670D02*
X0204500Y0234930D01*
X0205730Y0233700D01*
X0207470Y0233700D01*
X0208700Y0234930D01*
X0208700Y0236670D01*
X0207470Y0237900D01*
X0205730Y0237900D01*
X0204500Y0236670D01*
X0204509Y0236678D02*
X0039977Y0236678D01*
X0040100Y0236802D02*
X0037698Y0234400D01*
X0034302Y0234400D01*
X0031900Y0236802D01*
X0031900Y0240198D01*
X0034302Y0242600D01*
X0037698Y0242600D01*
X0040100Y0240198D01*
X0040100Y0236802D01*
X0040100Y0237677D02*
X0205507Y0237677D01*
X0207693Y0237677D02*
X0329500Y0237677D01*
X0329500Y0238675D02*
X0040100Y0238675D01*
X0040100Y0239674D02*
X0329500Y0239674D01*
X0329500Y0240672D02*
X0039626Y0240672D01*
X0038627Y0241671D02*
X0329500Y0241671D01*
X0329500Y0244667D02*
X0037965Y0244667D01*
X0038963Y0245665D02*
X0329500Y0245665D01*
X0329500Y0246664D02*
X0039962Y0246664D01*
X0040100Y0247662D02*
X0329500Y0247662D01*
X0329500Y0248661D02*
X0040100Y0248661D01*
X0040100Y0249659D02*
X0329500Y0249659D01*
X0329500Y0250658D02*
X0039641Y0250658D01*
X0033373Y0241671D02*
X0028627Y0241671D01*
X0029626Y0240672D02*
X0032374Y0240672D01*
X0031900Y0239674D02*
X0030100Y0239674D01*
X0030100Y0238675D02*
X0031900Y0238675D01*
X0031900Y0237677D02*
X0030100Y0237677D01*
X0029977Y0236678D02*
X0032023Y0236678D01*
X0033022Y0235680D02*
X0028978Y0235680D01*
X0027980Y0234681D02*
X0034020Y0234681D01*
X0037980Y0234681D02*
X0204749Y0234681D01*
X0204500Y0235680D02*
X0038978Y0235680D01*
X0038612Y0231686D02*
X0235116Y0231686D01*
X0234118Y0230687D02*
X0039611Y0230687D01*
X0040100Y0229689D02*
X0234000Y0229689D01*
X0234140Y0228690D02*
X0040100Y0228690D01*
X0040100Y0197737D02*
X0153567Y0197737D01*
X0153300Y0196738D02*
X0099532Y0196738D01*
X0099800Y0196470D02*
X0098570Y0197700D01*
X0096830Y0197700D01*
X0095600Y0196470D01*
X0095600Y0194730D01*
X0096830Y0193500D01*
X0098570Y0193500D01*
X0099800Y0194730D01*
X0099800Y0196470D01*
X0099800Y0195739D02*
X0153300Y0195739D01*
X0154289Y0194741D02*
X0099800Y0194741D01*
X0098812Y0193742D02*
X0296900Y0193742D01*
X0296900Y0192744D02*
X0017539Y0192744D01*
X0017539Y0193742D02*
X0096588Y0193742D01*
X0095600Y0194741D02*
X0038039Y0194741D01*
X0039038Y0195739D02*
X0095600Y0195739D01*
X0095868Y0196738D02*
X0040036Y0196738D01*
X0040100Y0191745D02*
X0296956Y0191745D01*
X0296900Y0194741D02*
X0182340Y0194741D01*
X0182972Y0195739D02*
X0297441Y0195739D01*
X0298440Y0196738D02*
X0202372Y0196738D01*
X0202372Y0196673D02*
X0201727Y0196028D01*
X0197273Y0196028D01*
X0196628Y0196673D01*
X0196628Y0201127D01*
X0197273Y0201772D01*
X0201727Y0201772D01*
X0202372Y0201127D01*
X0202372Y0196673D01*
X0202372Y0199734D02*
X0298968Y0199734D01*
X0297970Y0200732D02*
X0202372Y0200732D01*
X0201768Y0201731D02*
X0296971Y0201731D01*
X0296900Y0202729D02*
X0095941Y0202729D01*
X0096300Y0201731D02*
X0197232Y0201731D01*
X0196628Y0200732D02*
X0096300Y0200732D01*
X0095403Y0199734D02*
X0177228Y0199734D01*
X0182972Y0199734D02*
X0196628Y0199734D01*
X0196628Y0198735D02*
X0182972Y0198735D01*
X0182972Y0197737D02*
X0196628Y0197737D01*
X0196628Y0196738D02*
X0182972Y0196738D01*
X0172000Y0190747D02*
X0040100Y0190747D01*
X0040100Y0189748D02*
X0172000Y0189748D01*
X0172000Y0188750D02*
X0040100Y0188750D01*
X0038523Y0171775D02*
X0092505Y0171775D01*
X0092000Y0171270D02*
X0092000Y0169530D01*
X0093230Y0168300D01*
X0094970Y0168300D01*
X0096200Y0169530D01*
X0096200Y0171270D01*
X0094970Y0172500D01*
X0093230Y0172500D01*
X0092000Y0171270D01*
X0092000Y0170777D02*
X0039522Y0170777D01*
X0040100Y0169778D02*
X0092000Y0169778D01*
X0092750Y0168780D02*
X0040100Y0168780D01*
X0040100Y0167781D02*
X0171926Y0167781D01*
X0171300Y0166783D02*
X0040081Y0166783D01*
X0095450Y0168780D02*
X0195700Y0168780D01*
X0195700Y0169778D02*
X0096200Y0169778D01*
X0096200Y0170777D02*
X0195700Y0170777D01*
X0196220Y0171775D02*
X0095695Y0171775D01*
X0133712Y0213713D02*
X0296900Y0213713D01*
X0296900Y0214711D02*
X0133872Y0214711D01*
X0133872Y0215710D02*
X0296900Y0215710D01*
X0296900Y0216708D02*
X0133872Y0216708D01*
X0133872Y0217707D02*
X0234623Y0217707D01*
X0233800Y0218705D02*
X0133494Y0218705D01*
X0173700Y0182759D02*
X0296900Y0182759D01*
X0296941Y0181760D02*
X0173700Y0181760D01*
X0173700Y0180762D02*
X0297940Y0180762D01*
X0298938Y0179763D02*
X0253007Y0179763D01*
X0252870Y0179900D02*
X0251130Y0179900D01*
X0249900Y0178670D01*
X0249900Y0176930D01*
X0251130Y0175700D01*
X0252870Y0175700D01*
X0254100Y0176930D01*
X0254100Y0178670D01*
X0252870Y0179900D01*
X0254005Y0178765D02*
X0329500Y0178765D01*
X0329500Y0179763D02*
X0323062Y0179763D01*
X0324060Y0180762D02*
X0329500Y0180762D01*
X0329500Y0181760D02*
X0325059Y0181760D01*
X0325100Y0182759D02*
X0329500Y0182759D01*
X0329500Y0183757D02*
X0325100Y0183757D01*
X0325100Y0184756D02*
X0329500Y0184756D01*
X0329500Y0185754D02*
X0324544Y0185754D01*
X0318455Y0186753D02*
X0314111Y0186753D01*
X0315110Y0185754D02*
X0317456Y0185754D01*
X0316900Y0184756D02*
X0315500Y0184756D01*
X0315095Y0175769D02*
X0317471Y0175769D01*
X0308902Y0177766D02*
X0254100Y0177766D01*
X0253938Y0176768D02*
X0298470Y0176768D01*
X0297471Y0175769D02*
X0252939Y0175769D01*
X0251061Y0175769D02*
X0250100Y0175769D01*
X0250100Y0176370D02*
X0248870Y0177600D01*
X0247130Y0177600D01*
X0245900Y0176370D01*
X0245900Y0174630D01*
X0247130Y0173400D01*
X0248870Y0173400D01*
X0250100Y0174630D01*
X0250100Y0176370D01*
X0250062Y0176768D02*
X0249702Y0176768D01*
X0249900Y0177766D02*
X0228100Y0177766D01*
X0228005Y0178765D02*
X0249995Y0178765D01*
X0250993Y0179763D02*
X0227007Y0179763D01*
X0224993Y0179763D02*
X0173519Y0179763D01*
X0182284Y0164786D02*
X0183200Y0164786D01*
X0183200Y0163787D02*
X0183743Y0163787D01*
X0234742Y0173772D02*
X0246758Y0173772D01*
X0245900Y0174771D02*
X0235600Y0174771D01*
X0235600Y0175769D02*
X0245900Y0175769D01*
X0246298Y0176768D02*
X0235202Y0176768D01*
X0249242Y0173772D02*
X0296900Y0173772D01*
X0296900Y0174771D02*
X0250100Y0174771D01*
X0303560Y0196738D02*
X0307874Y0196738D01*
X0306876Y0195739D02*
X0304559Y0195739D01*
X0305100Y0194741D02*
X0306500Y0194741D01*
X0306890Y0185754D02*
X0304544Y0185754D01*
X0305100Y0184756D02*
X0306500Y0184756D01*
X0324045Y0190747D02*
X0329500Y0190747D01*
X0329500Y0191745D02*
X0325044Y0191745D01*
X0325100Y0192744D02*
X0329500Y0192744D01*
X0329500Y0193742D02*
X0325100Y0193742D01*
X0325100Y0194741D02*
X0329500Y0194741D01*
X0329500Y0195739D02*
X0324559Y0195739D01*
X0323560Y0196738D02*
X0329500Y0196738D01*
X0329500Y0199734D02*
X0323032Y0199734D01*
X0324030Y0200732D02*
X0329500Y0200732D01*
X0329500Y0201731D02*
X0325029Y0201731D01*
X0325100Y0202729D02*
X0329500Y0202729D01*
X0329500Y0203728D02*
X0325100Y0203728D01*
X0325100Y0204726D02*
X0329500Y0204726D01*
X0329500Y0205725D02*
X0324574Y0205725D01*
X0323575Y0206723D02*
X0329500Y0206723D01*
X0329500Y0234681D02*
X0208451Y0234681D01*
X0208700Y0235680D02*
X0329500Y0235680D01*
X0329500Y0236678D02*
X0208691Y0236678D01*
X0280423Y0289600D02*
X0329500Y0289600D01*
X0329500Y0290598D02*
X0281593Y0290598D01*
X0282273Y0291597D02*
X0329500Y0291597D01*
X0329500Y0292595D02*
X0282684Y0292595D01*
X0282886Y0293594D02*
X0329500Y0293594D01*
X0329500Y0294592D02*
X0282888Y0294592D01*
X0282688Y0295591D02*
X0329500Y0295591D01*
X0329500Y0296589D02*
X0282280Y0296589D01*
X0281608Y0297588D02*
X0329500Y0297588D01*
X0329500Y0298586D02*
X0280442Y0298586D01*
X0308640Y0315834D02*
X0310834Y0313640D01*
X0313701Y0312453D01*
X0316803Y0312453D01*
X0319670Y0313640D01*
X0321864Y0315834D01*
X0323051Y0318701D01*
X0323051Y0321803D01*
X0321864Y0324670D01*
X0319670Y0326864D01*
X0316803Y0328051D01*
X0313701Y0328051D01*
X0310834Y0326864D01*
X0308640Y0324670D01*
X0307453Y0321803D01*
X0307453Y0318701D01*
X0308640Y0315834D01*
X0308913Y0315561D02*
X0038126Y0315561D01*
X0038399Y0315834D02*
X0039587Y0318701D01*
X0039587Y0321803D01*
X0038399Y0324670D01*
X0036205Y0326864D01*
X0033339Y0328051D01*
X0030236Y0328051D01*
X0027370Y0326864D01*
X0025176Y0324670D01*
X0023988Y0321803D01*
X0023988Y0318701D01*
X0025176Y0315834D01*
X0027370Y0313640D01*
X0030236Y0312453D01*
X0033339Y0312453D01*
X0036205Y0313640D01*
X0038399Y0315834D01*
X0038700Y0316559D02*
X0308340Y0316559D01*
X0307926Y0317558D02*
X0039113Y0317558D01*
X0039527Y0318556D02*
X0307512Y0318556D01*
X0307453Y0319555D02*
X0039587Y0319555D01*
X0039587Y0320553D02*
X0307453Y0320553D01*
X0307453Y0321552D02*
X0039587Y0321552D01*
X0039277Y0322550D02*
X0307762Y0322550D01*
X0308176Y0323549D02*
X0038864Y0323549D01*
X0038450Y0324547D02*
X0308589Y0324547D01*
X0309516Y0325546D02*
X0037523Y0325546D01*
X0036525Y0326544D02*
X0310515Y0326544D01*
X0312474Y0327543D02*
X0034566Y0327543D01*
X0029009Y0327543D02*
X0021515Y0327543D01*
X0022513Y0328541D02*
X0324526Y0328541D01*
X0325525Y0327543D02*
X0318030Y0327543D01*
X0319989Y0326544D02*
X0326523Y0326544D01*
X0327522Y0325546D02*
X0320988Y0325546D01*
X0321915Y0324547D02*
X0328520Y0324547D01*
X0329500Y0323549D02*
X0322328Y0323549D01*
X0322742Y0322550D02*
X0329500Y0322550D01*
X0329500Y0321552D02*
X0323051Y0321552D01*
X0323051Y0320553D02*
X0329500Y0320553D01*
X0329500Y0319555D02*
X0323051Y0319555D01*
X0322991Y0318556D02*
X0329500Y0318556D01*
X0329500Y0317558D02*
X0322578Y0317558D01*
X0322164Y0316559D02*
X0329500Y0316559D01*
X0329500Y0315561D02*
X0321591Y0315561D01*
X0320592Y0314562D02*
X0329500Y0314562D01*
X0329500Y0313564D02*
X0319486Y0313564D01*
X0317075Y0312565D02*
X0329500Y0312565D01*
X0329500Y0311567D02*
X0017539Y0311567D01*
X0017539Y0312565D02*
X0029964Y0312565D01*
X0027554Y0313564D02*
X0017539Y0313564D01*
X0017539Y0314562D02*
X0026447Y0314562D01*
X0025449Y0315561D02*
X0017539Y0315561D01*
X0017539Y0316559D02*
X0024875Y0316559D01*
X0024462Y0317558D02*
X0017539Y0317558D01*
X0017539Y0318556D02*
X0024048Y0318556D01*
X0023988Y0319555D02*
X0017539Y0319555D01*
X0017539Y0320553D02*
X0023988Y0320553D01*
X0023988Y0321552D02*
X0017539Y0321552D01*
X0017539Y0322550D02*
X0024298Y0322550D01*
X0024711Y0323549D02*
X0017539Y0323549D01*
X0018519Y0324547D02*
X0025125Y0324547D01*
X0026052Y0325546D02*
X0019518Y0325546D01*
X0020516Y0326544D02*
X0027050Y0326544D01*
X0023512Y0329540D02*
X0323528Y0329540D01*
X0322529Y0330539D02*
X0024510Y0330539D01*
X0025509Y0331537D02*
X0321531Y0331537D01*
X0320532Y0332536D02*
X0026507Y0332536D01*
X0027506Y0333534D02*
X0319534Y0333534D01*
X0309912Y0314562D02*
X0037128Y0314562D01*
X0036021Y0313564D02*
X0311018Y0313564D01*
X0313429Y0312565D02*
X0033610Y0312565D01*
X0017539Y0310568D02*
X0329500Y0310568D01*
X0329500Y0309570D02*
X0017539Y0309570D01*
X0017539Y0308571D02*
X0329500Y0308571D01*
X0329500Y0307573D02*
X0017539Y0307573D01*
X0017539Y0306574D02*
X0329500Y0306574D01*
X0329500Y0305576D02*
X0017539Y0305576D01*
X0017539Y0304577D02*
X0329500Y0304577D01*
X0329500Y0303579D02*
X0017539Y0303579D01*
X0017539Y0302580D02*
X0329500Y0302580D01*
X0329500Y0301582D02*
X0017539Y0301582D01*
X0017539Y0300583D02*
X0329500Y0300583D01*
X0329500Y0299585D02*
X0017539Y0299585D01*
X0313687Y0139823D02*
X0318879Y0139823D01*
X0317880Y0140821D02*
X0314685Y0140821D01*
X0315500Y0141820D02*
X0316900Y0141820D01*
X0316900Y0142818D02*
X0315500Y0142818D01*
D17*
X0209000Y0160100D03*
D18*
X0200800Y0169700D03*
X0197800Y0169800D03*
X0173400Y0165700D03*
X0171600Y0181400D03*
X0174100Y0189400D03*
X0210300Y0224600D03*
X0127300Y0198600D03*
X0127400Y0166700D03*
M02*
