G75*
%MOIN*%
%OFA0B0*%
%FSLAX25Y25*%
%IPPOS*%
%LPD*%
%AMOC8*
5,1,8,0,0,1.08239X$1,22.5*
%
%ADD10C,0.00000*%
D10*
X0035000Y0021411D02*
X0046811Y0009600D01*
X0338150Y0009600D01*
X0349961Y0021411D01*
X0349961Y0312750D01*
X0338150Y0324561D01*
X0046811Y0324561D01*
X0035000Y0312750D01*
X0035000Y0021411D01*
X0044449Y0025348D02*
X0044451Y0025506D01*
X0044457Y0025664D01*
X0044467Y0025822D01*
X0044481Y0025980D01*
X0044499Y0026137D01*
X0044520Y0026294D01*
X0044546Y0026450D01*
X0044576Y0026606D01*
X0044609Y0026761D01*
X0044647Y0026914D01*
X0044688Y0027067D01*
X0044733Y0027219D01*
X0044782Y0027370D01*
X0044835Y0027519D01*
X0044891Y0027667D01*
X0044951Y0027813D01*
X0045015Y0027958D01*
X0045083Y0028101D01*
X0045154Y0028243D01*
X0045228Y0028383D01*
X0045306Y0028520D01*
X0045388Y0028656D01*
X0045472Y0028790D01*
X0045561Y0028921D01*
X0045652Y0029050D01*
X0045747Y0029177D01*
X0045844Y0029302D01*
X0045945Y0029424D01*
X0046049Y0029543D01*
X0046156Y0029660D01*
X0046266Y0029774D01*
X0046379Y0029885D01*
X0046494Y0029994D01*
X0046612Y0030099D01*
X0046733Y0030201D01*
X0046856Y0030301D01*
X0046982Y0030397D01*
X0047110Y0030490D01*
X0047240Y0030580D01*
X0047373Y0030666D01*
X0047508Y0030750D01*
X0047644Y0030829D01*
X0047783Y0030906D01*
X0047924Y0030978D01*
X0048066Y0031048D01*
X0048210Y0031113D01*
X0048356Y0031175D01*
X0048503Y0031233D01*
X0048652Y0031288D01*
X0048802Y0031339D01*
X0048953Y0031386D01*
X0049105Y0031429D01*
X0049258Y0031468D01*
X0049413Y0031504D01*
X0049568Y0031535D01*
X0049724Y0031563D01*
X0049880Y0031587D01*
X0050037Y0031607D01*
X0050195Y0031623D01*
X0050352Y0031635D01*
X0050511Y0031643D01*
X0050669Y0031647D01*
X0050827Y0031647D01*
X0050985Y0031643D01*
X0051144Y0031635D01*
X0051301Y0031623D01*
X0051459Y0031607D01*
X0051616Y0031587D01*
X0051772Y0031563D01*
X0051928Y0031535D01*
X0052083Y0031504D01*
X0052238Y0031468D01*
X0052391Y0031429D01*
X0052543Y0031386D01*
X0052694Y0031339D01*
X0052844Y0031288D01*
X0052993Y0031233D01*
X0053140Y0031175D01*
X0053286Y0031113D01*
X0053430Y0031048D01*
X0053572Y0030978D01*
X0053713Y0030906D01*
X0053852Y0030829D01*
X0053988Y0030750D01*
X0054123Y0030666D01*
X0054256Y0030580D01*
X0054386Y0030490D01*
X0054514Y0030397D01*
X0054640Y0030301D01*
X0054763Y0030201D01*
X0054884Y0030099D01*
X0055002Y0029994D01*
X0055117Y0029885D01*
X0055230Y0029774D01*
X0055340Y0029660D01*
X0055447Y0029543D01*
X0055551Y0029424D01*
X0055652Y0029302D01*
X0055749Y0029177D01*
X0055844Y0029050D01*
X0055935Y0028921D01*
X0056024Y0028790D01*
X0056108Y0028656D01*
X0056190Y0028520D01*
X0056268Y0028383D01*
X0056342Y0028243D01*
X0056413Y0028101D01*
X0056481Y0027958D01*
X0056545Y0027813D01*
X0056605Y0027667D01*
X0056661Y0027519D01*
X0056714Y0027370D01*
X0056763Y0027219D01*
X0056808Y0027067D01*
X0056849Y0026914D01*
X0056887Y0026761D01*
X0056920Y0026606D01*
X0056950Y0026450D01*
X0056976Y0026294D01*
X0056997Y0026137D01*
X0057015Y0025980D01*
X0057029Y0025822D01*
X0057039Y0025664D01*
X0057045Y0025506D01*
X0057047Y0025348D01*
X0057045Y0025190D01*
X0057039Y0025032D01*
X0057029Y0024874D01*
X0057015Y0024716D01*
X0056997Y0024559D01*
X0056976Y0024402D01*
X0056950Y0024246D01*
X0056920Y0024090D01*
X0056887Y0023935D01*
X0056849Y0023782D01*
X0056808Y0023629D01*
X0056763Y0023477D01*
X0056714Y0023326D01*
X0056661Y0023177D01*
X0056605Y0023029D01*
X0056545Y0022883D01*
X0056481Y0022738D01*
X0056413Y0022595D01*
X0056342Y0022453D01*
X0056268Y0022313D01*
X0056190Y0022176D01*
X0056108Y0022040D01*
X0056024Y0021906D01*
X0055935Y0021775D01*
X0055844Y0021646D01*
X0055749Y0021519D01*
X0055652Y0021394D01*
X0055551Y0021272D01*
X0055447Y0021153D01*
X0055340Y0021036D01*
X0055230Y0020922D01*
X0055117Y0020811D01*
X0055002Y0020702D01*
X0054884Y0020597D01*
X0054763Y0020495D01*
X0054640Y0020395D01*
X0054514Y0020299D01*
X0054386Y0020206D01*
X0054256Y0020116D01*
X0054123Y0020030D01*
X0053988Y0019946D01*
X0053852Y0019867D01*
X0053713Y0019790D01*
X0053572Y0019718D01*
X0053430Y0019648D01*
X0053286Y0019583D01*
X0053140Y0019521D01*
X0052993Y0019463D01*
X0052844Y0019408D01*
X0052694Y0019357D01*
X0052543Y0019310D01*
X0052391Y0019267D01*
X0052238Y0019228D01*
X0052083Y0019192D01*
X0051928Y0019161D01*
X0051772Y0019133D01*
X0051616Y0019109D01*
X0051459Y0019089D01*
X0051301Y0019073D01*
X0051144Y0019061D01*
X0050985Y0019053D01*
X0050827Y0019049D01*
X0050669Y0019049D01*
X0050511Y0019053D01*
X0050352Y0019061D01*
X0050195Y0019073D01*
X0050037Y0019089D01*
X0049880Y0019109D01*
X0049724Y0019133D01*
X0049568Y0019161D01*
X0049413Y0019192D01*
X0049258Y0019228D01*
X0049105Y0019267D01*
X0048953Y0019310D01*
X0048802Y0019357D01*
X0048652Y0019408D01*
X0048503Y0019463D01*
X0048356Y0019521D01*
X0048210Y0019583D01*
X0048066Y0019648D01*
X0047924Y0019718D01*
X0047783Y0019790D01*
X0047644Y0019867D01*
X0047508Y0019946D01*
X0047373Y0020030D01*
X0047240Y0020116D01*
X0047110Y0020206D01*
X0046982Y0020299D01*
X0046856Y0020395D01*
X0046733Y0020495D01*
X0046612Y0020597D01*
X0046494Y0020702D01*
X0046379Y0020811D01*
X0046266Y0020922D01*
X0046156Y0021036D01*
X0046049Y0021153D01*
X0045945Y0021272D01*
X0045844Y0021394D01*
X0045747Y0021519D01*
X0045652Y0021646D01*
X0045561Y0021775D01*
X0045472Y0021906D01*
X0045388Y0022040D01*
X0045306Y0022176D01*
X0045228Y0022313D01*
X0045154Y0022453D01*
X0045083Y0022595D01*
X0045015Y0022738D01*
X0044951Y0022883D01*
X0044891Y0023029D01*
X0044835Y0023177D01*
X0044782Y0023326D01*
X0044733Y0023477D01*
X0044688Y0023629D01*
X0044647Y0023782D01*
X0044609Y0023935D01*
X0044576Y0024090D01*
X0044546Y0024246D01*
X0044520Y0024402D01*
X0044499Y0024559D01*
X0044481Y0024716D01*
X0044467Y0024874D01*
X0044457Y0025032D01*
X0044451Y0025190D01*
X0044449Y0025348D01*
X0103504Y0190702D02*
X0103506Y0190860D01*
X0103512Y0191018D01*
X0103522Y0191176D01*
X0103536Y0191334D01*
X0103554Y0191491D01*
X0103575Y0191648D01*
X0103601Y0191804D01*
X0103631Y0191960D01*
X0103664Y0192115D01*
X0103702Y0192268D01*
X0103743Y0192421D01*
X0103788Y0192573D01*
X0103837Y0192724D01*
X0103890Y0192873D01*
X0103946Y0193021D01*
X0104006Y0193167D01*
X0104070Y0193312D01*
X0104138Y0193455D01*
X0104209Y0193597D01*
X0104283Y0193737D01*
X0104361Y0193874D01*
X0104443Y0194010D01*
X0104527Y0194144D01*
X0104616Y0194275D01*
X0104707Y0194404D01*
X0104802Y0194531D01*
X0104899Y0194656D01*
X0105000Y0194778D01*
X0105104Y0194897D01*
X0105211Y0195014D01*
X0105321Y0195128D01*
X0105434Y0195239D01*
X0105549Y0195348D01*
X0105667Y0195453D01*
X0105788Y0195555D01*
X0105911Y0195655D01*
X0106037Y0195751D01*
X0106165Y0195844D01*
X0106295Y0195934D01*
X0106428Y0196020D01*
X0106563Y0196104D01*
X0106699Y0196183D01*
X0106838Y0196260D01*
X0106979Y0196332D01*
X0107121Y0196402D01*
X0107265Y0196467D01*
X0107411Y0196529D01*
X0107558Y0196587D01*
X0107707Y0196642D01*
X0107857Y0196693D01*
X0108008Y0196740D01*
X0108160Y0196783D01*
X0108313Y0196822D01*
X0108468Y0196858D01*
X0108623Y0196889D01*
X0108779Y0196917D01*
X0108935Y0196941D01*
X0109092Y0196961D01*
X0109250Y0196977D01*
X0109407Y0196989D01*
X0109566Y0196997D01*
X0109724Y0197001D01*
X0109882Y0197001D01*
X0110040Y0196997D01*
X0110199Y0196989D01*
X0110356Y0196977D01*
X0110514Y0196961D01*
X0110671Y0196941D01*
X0110827Y0196917D01*
X0110983Y0196889D01*
X0111138Y0196858D01*
X0111293Y0196822D01*
X0111446Y0196783D01*
X0111598Y0196740D01*
X0111749Y0196693D01*
X0111899Y0196642D01*
X0112048Y0196587D01*
X0112195Y0196529D01*
X0112341Y0196467D01*
X0112485Y0196402D01*
X0112627Y0196332D01*
X0112768Y0196260D01*
X0112907Y0196183D01*
X0113043Y0196104D01*
X0113178Y0196020D01*
X0113311Y0195934D01*
X0113441Y0195844D01*
X0113569Y0195751D01*
X0113695Y0195655D01*
X0113818Y0195555D01*
X0113939Y0195453D01*
X0114057Y0195348D01*
X0114172Y0195239D01*
X0114285Y0195128D01*
X0114395Y0195014D01*
X0114502Y0194897D01*
X0114606Y0194778D01*
X0114707Y0194656D01*
X0114804Y0194531D01*
X0114899Y0194404D01*
X0114990Y0194275D01*
X0115079Y0194144D01*
X0115163Y0194010D01*
X0115245Y0193874D01*
X0115323Y0193737D01*
X0115397Y0193597D01*
X0115468Y0193455D01*
X0115536Y0193312D01*
X0115600Y0193167D01*
X0115660Y0193021D01*
X0115716Y0192873D01*
X0115769Y0192724D01*
X0115818Y0192573D01*
X0115863Y0192421D01*
X0115904Y0192268D01*
X0115942Y0192115D01*
X0115975Y0191960D01*
X0116005Y0191804D01*
X0116031Y0191648D01*
X0116052Y0191491D01*
X0116070Y0191334D01*
X0116084Y0191176D01*
X0116094Y0191018D01*
X0116100Y0190860D01*
X0116102Y0190702D01*
X0116100Y0190544D01*
X0116094Y0190386D01*
X0116084Y0190228D01*
X0116070Y0190070D01*
X0116052Y0189913D01*
X0116031Y0189756D01*
X0116005Y0189600D01*
X0115975Y0189444D01*
X0115942Y0189289D01*
X0115904Y0189136D01*
X0115863Y0188983D01*
X0115818Y0188831D01*
X0115769Y0188680D01*
X0115716Y0188531D01*
X0115660Y0188383D01*
X0115600Y0188237D01*
X0115536Y0188092D01*
X0115468Y0187949D01*
X0115397Y0187807D01*
X0115323Y0187667D01*
X0115245Y0187530D01*
X0115163Y0187394D01*
X0115079Y0187260D01*
X0114990Y0187129D01*
X0114899Y0187000D01*
X0114804Y0186873D01*
X0114707Y0186748D01*
X0114606Y0186626D01*
X0114502Y0186507D01*
X0114395Y0186390D01*
X0114285Y0186276D01*
X0114172Y0186165D01*
X0114057Y0186056D01*
X0113939Y0185951D01*
X0113818Y0185849D01*
X0113695Y0185749D01*
X0113569Y0185653D01*
X0113441Y0185560D01*
X0113311Y0185470D01*
X0113178Y0185384D01*
X0113043Y0185300D01*
X0112907Y0185221D01*
X0112768Y0185144D01*
X0112627Y0185072D01*
X0112485Y0185002D01*
X0112341Y0184937D01*
X0112195Y0184875D01*
X0112048Y0184817D01*
X0111899Y0184762D01*
X0111749Y0184711D01*
X0111598Y0184664D01*
X0111446Y0184621D01*
X0111293Y0184582D01*
X0111138Y0184546D01*
X0110983Y0184515D01*
X0110827Y0184487D01*
X0110671Y0184463D01*
X0110514Y0184443D01*
X0110356Y0184427D01*
X0110199Y0184415D01*
X0110040Y0184407D01*
X0109882Y0184403D01*
X0109724Y0184403D01*
X0109566Y0184407D01*
X0109407Y0184415D01*
X0109250Y0184427D01*
X0109092Y0184443D01*
X0108935Y0184463D01*
X0108779Y0184487D01*
X0108623Y0184515D01*
X0108468Y0184546D01*
X0108313Y0184582D01*
X0108160Y0184621D01*
X0108008Y0184664D01*
X0107857Y0184711D01*
X0107707Y0184762D01*
X0107558Y0184817D01*
X0107411Y0184875D01*
X0107265Y0184937D01*
X0107121Y0185002D01*
X0106979Y0185072D01*
X0106838Y0185144D01*
X0106699Y0185221D01*
X0106563Y0185300D01*
X0106428Y0185384D01*
X0106295Y0185470D01*
X0106165Y0185560D01*
X0106037Y0185653D01*
X0105911Y0185749D01*
X0105788Y0185849D01*
X0105667Y0185951D01*
X0105549Y0186056D01*
X0105434Y0186165D01*
X0105321Y0186276D01*
X0105211Y0186390D01*
X0105104Y0186507D01*
X0105000Y0186626D01*
X0104899Y0186748D01*
X0104802Y0186873D01*
X0104707Y0187000D01*
X0104616Y0187129D01*
X0104527Y0187260D01*
X0104443Y0187394D01*
X0104361Y0187530D01*
X0104283Y0187667D01*
X0104209Y0187807D01*
X0104138Y0187949D01*
X0104070Y0188092D01*
X0104006Y0188237D01*
X0103946Y0188383D01*
X0103890Y0188531D01*
X0103837Y0188680D01*
X0103788Y0188831D01*
X0103743Y0188983D01*
X0103702Y0189136D01*
X0103664Y0189289D01*
X0103631Y0189444D01*
X0103601Y0189600D01*
X0103575Y0189756D01*
X0103554Y0189913D01*
X0103536Y0190070D01*
X0103522Y0190228D01*
X0103512Y0190386D01*
X0103506Y0190544D01*
X0103504Y0190702D01*
X0044449Y0308813D02*
X0044451Y0308971D01*
X0044457Y0309129D01*
X0044467Y0309287D01*
X0044481Y0309445D01*
X0044499Y0309602D01*
X0044520Y0309759D01*
X0044546Y0309915D01*
X0044576Y0310071D01*
X0044609Y0310226D01*
X0044647Y0310379D01*
X0044688Y0310532D01*
X0044733Y0310684D01*
X0044782Y0310835D01*
X0044835Y0310984D01*
X0044891Y0311132D01*
X0044951Y0311278D01*
X0045015Y0311423D01*
X0045083Y0311566D01*
X0045154Y0311708D01*
X0045228Y0311848D01*
X0045306Y0311985D01*
X0045388Y0312121D01*
X0045472Y0312255D01*
X0045561Y0312386D01*
X0045652Y0312515D01*
X0045747Y0312642D01*
X0045844Y0312767D01*
X0045945Y0312889D01*
X0046049Y0313008D01*
X0046156Y0313125D01*
X0046266Y0313239D01*
X0046379Y0313350D01*
X0046494Y0313459D01*
X0046612Y0313564D01*
X0046733Y0313666D01*
X0046856Y0313766D01*
X0046982Y0313862D01*
X0047110Y0313955D01*
X0047240Y0314045D01*
X0047373Y0314131D01*
X0047508Y0314215D01*
X0047644Y0314294D01*
X0047783Y0314371D01*
X0047924Y0314443D01*
X0048066Y0314513D01*
X0048210Y0314578D01*
X0048356Y0314640D01*
X0048503Y0314698D01*
X0048652Y0314753D01*
X0048802Y0314804D01*
X0048953Y0314851D01*
X0049105Y0314894D01*
X0049258Y0314933D01*
X0049413Y0314969D01*
X0049568Y0315000D01*
X0049724Y0315028D01*
X0049880Y0315052D01*
X0050037Y0315072D01*
X0050195Y0315088D01*
X0050352Y0315100D01*
X0050511Y0315108D01*
X0050669Y0315112D01*
X0050827Y0315112D01*
X0050985Y0315108D01*
X0051144Y0315100D01*
X0051301Y0315088D01*
X0051459Y0315072D01*
X0051616Y0315052D01*
X0051772Y0315028D01*
X0051928Y0315000D01*
X0052083Y0314969D01*
X0052238Y0314933D01*
X0052391Y0314894D01*
X0052543Y0314851D01*
X0052694Y0314804D01*
X0052844Y0314753D01*
X0052993Y0314698D01*
X0053140Y0314640D01*
X0053286Y0314578D01*
X0053430Y0314513D01*
X0053572Y0314443D01*
X0053713Y0314371D01*
X0053852Y0314294D01*
X0053988Y0314215D01*
X0054123Y0314131D01*
X0054256Y0314045D01*
X0054386Y0313955D01*
X0054514Y0313862D01*
X0054640Y0313766D01*
X0054763Y0313666D01*
X0054884Y0313564D01*
X0055002Y0313459D01*
X0055117Y0313350D01*
X0055230Y0313239D01*
X0055340Y0313125D01*
X0055447Y0313008D01*
X0055551Y0312889D01*
X0055652Y0312767D01*
X0055749Y0312642D01*
X0055844Y0312515D01*
X0055935Y0312386D01*
X0056024Y0312255D01*
X0056108Y0312121D01*
X0056190Y0311985D01*
X0056268Y0311848D01*
X0056342Y0311708D01*
X0056413Y0311566D01*
X0056481Y0311423D01*
X0056545Y0311278D01*
X0056605Y0311132D01*
X0056661Y0310984D01*
X0056714Y0310835D01*
X0056763Y0310684D01*
X0056808Y0310532D01*
X0056849Y0310379D01*
X0056887Y0310226D01*
X0056920Y0310071D01*
X0056950Y0309915D01*
X0056976Y0309759D01*
X0056997Y0309602D01*
X0057015Y0309445D01*
X0057029Y0309287D01*
X0057039Y0309129D01*
X0057045Y0308971D01*
X0057047Y0308813D01*
X0057045Y0308655D01*
X0057039Y0308497D01*
X0057029Y0308339D01*
X0057015Y0308181D01*
X0056997Y0308024D01*
X0056976Y0307867D01*
X0056950Y0307711D01*
X0056920Y0307555D01*
X0056887Y0307400D01*
X0056849Y0307247D01*
X0056808Y0307094D01*
X0056763Y0306942D01*
X0056714Y0306791D01*
X0056661Y0306642D01*
X0056605Y0306494D01*
X0056545Y0306348D01*
X0056481Y0306203D01*
X0056413Y0306060D01*
X0056342Y0305918D01*
X0056268Y0305778D01*
X0056190Y0305641D01*
X0056108Y0305505D01*
X0056024Y0305371D01*
X0055935Y0305240D01*
X0055844Y0305111D01*
X0055749Y0304984D01*
X0055652Y0304859D01*
X0055551Y0304737D01*
X0055447Y0304618D01*
X0055340Y0304501D01*
X0055230Y0304387D01*
X0055117Y0304276D01*
X0055002Y0304167D01*
X0054884Y0304062D01*
X0054763Y0303960D01*
X0054640Y0303860D01*
X0054514Y0303764D01*
X0054386Y0303671D01*
X0054256Y0303581D01*
X0054123Y0303495D01*
X0053988Y0303411D01*
X0053852Y0303332D01*
X0053713Y0303255D01*
X0053572Y0303183D01*
X0053430Y0303113D01*
X0053286Y0303048D01*
X0053140Y0302986D01*
X0052993Y0302928D01*
X0052844Y0302873D01*
X0052694Y0302822D01*
X0052543Y0302775D01*
X0052391Y0302732D01*
X0052238Y0302693D01*
X0052083Y0302657D01*
X0051928Y0302626D01*
X0051772Y0302598D01*
X0051616Y0302574D01*
X0051459Y0302554D01*
X0051301Y0302538D01*
X0051144Y0302526D01*
X0050985Y0302518D01*
X0050827Y0302514D01*
X0050669Y0302514D01*
X0050511Y0302518D01*
X0050352Y0302526D01*
X0050195Y0302538D01*
X0050037Y0302554D01*
X0049880Y0302574D01*
X0049724Y0302598D01*
X0049568Y0302626D01*
X0049413Y0302657D01*
X0049258Y0302693D01*
X0049105Y0302732D01*
X0048953Y0302775D01*
X0048802Y0302822D01*
X0048652Y0302873D01*
X0048503Y0302928D01*
X0048356Y0302986D01*
X0048210Y0303048D01*
X0048066Y0303113D01*
X0047924Y0303183D01*
X0047783Y0303255D01*
X0047644Y0303332D01*
X0047508Y0303411D01*
X0047373Y0303495D01*
X0047240Y0303581D01*
X0047110Y0303671D01*
X0046982Y0303764D01*
X0046856Y0303860D01*
X0046733Y0303960D01*
X0046612Y0304062D01*
X0046494Y0304167D01*
X0046379Y0304276D01*
X0046266Y0304387D01*
X0046156Y0304501D01*
X0046049Y0304618D01*
X0045945Y0304737D01*
X0045844Y0304859D01*
X0045747Y0304984D01*
X0045652Y0305111D01*
X0045561Y0305240D01*
X0045472Y0305371D01*
X0045388Y0305505D01*
X0045306Y0305641D01*
X0045228Y0305778D01*
X0045154Y0305918D01*
X0045083Y0306060D01*
X0045015Y0306203D01*
X0044951Y0306348D01*
X0044891Y0306494D01*
X0044835Y0306642D01*
X0044782Y0306791D01*
X0044733Y0306942D01*
X0044688Y0307094D01*
X0044647Y0307247D01*
X0044609Y0307400D01*
X0044576Y0307555D01*
X0044546Y0307711D01*
X0044520Y0307867D01*
X0044499Y0308024D01*
X0044481Y0308181D01*
X0044467Y0308339D01*
X0044457Y0308497D01*
X0044451Y0308655D01*
X0044449Y0308813D01*
X0268858Y0190702D02*
X0268860Y0190860D01*
X0268866Y0191018D01*
X0268876Y0191176D01*
X0268890Y0191334D01*
X0268908Y0191491D01*
X0268929Y0191648D01*
X0268955Y0191804D01*
X0268985Y0191960D01*
X0269018Y0192115D01*
X0269056Y0192268D01*
X0269097Y0192421D01*
X0269142Y0192573D01*
X0269191Y0192724D01*
X0269244Y0192873D01*
X0269300Y0193021D01*
X0269360Y0193167D01*
X0269424Y0193312D01*
X0269492Y0193455D01*
X0269563Y0193597D01*
X0269637Y0193737D01*
X0269715Y0193874D01*
X0269797Y0194010D01*
X0269881Y0194144D01*
X0269970Y0194275D01*
X0270061Y0194404D01*
X0270156Y0194531D01*
X0270253Y0194656D01*
X0270354Y0194778D01*
X0270458Y0194897D01*
X0270565Y0195014D01*
X0270675Y0195128D01*
X0270788Y0195239D01*
X0270903Y0195348D01*
X0271021Y0195453D01*
X0271142Y0195555D01*
X0271265Y0195655D01*
X0271391Y0195751D01*
X0271519Y0195844D01*
X0271649Y0195934D01*
X0271782Y0196020D01*
X0271917Y0196104D01*
X0272053Y0196183D01*
X0272192Y0196260D01*
X0272333Y0196332D01*
X0272475Y0196402D01*
X0272619Y0196467D01*
X0272765Y0196529D01*
X0272912Y0196587D01*
X0273061Y0196642D01*
X0273211Y0196693D01*
X0273362Y0196740D01*
X0273514Y0196783D01*
X0273667Y0196822D01*
X0273822Y0196858D01*
X0273977Y0196889D01*
X0274133Y0196917D01*
X0274289Y0196941D01*
X0274446Y0196961D01*
X0274604Y0196977D01*
X0274761Y0196989D01*
X0274920Y0196997D01*
X0275078Y0197001D01*
X0275236Y0197001D01*
X0275394Y0196997D01*
X0275553Y0196989D01*
X0275710Y0196977D01*
X0275868Y0196961D01*
X0276025Y0196941D01*
X0276181Y0196917D01*
X0276337Y0196889D01*
X0276492Y0196858D01*
X0276647Y0196822D01*
X0276800Y0196783D01*
X0276952Y0196740D01*
X0277103Y0196693D01*
X0277253Y0196642D01*
X0277402Y0196587D01*
X0277549Y0196529D01*
X0277695Y0196467D01*
X0277839Y0196402D01*
X0277981Y0196332D01*
X0278122Y0196260D01*
X0278261Y0196183D01*
X0278397Y0196104D01*
X0278532Y0196020D01*
X0278665Y0195934D01*
X0278795Y0195844D01*
X0278923Y0195751D01*
X0279049Y0195655D01*
X0279172Y0195555D01*
X0279293Y0195453D01*
X0279411Y0195348D01*
X0279526Y0195239D01*
X0279639Y0195128D01*
X0279749Y0195014D01*
X0279856Y0194897D01*
X0279960Y0194778D01*
X0280061Y0194656D01*
X0280158Y0194531D01*
X0280253Y0194404D01*
X0280344Y0194275D01*
X0280433Y0194144D01*
X0280517Y0194010D01*
X0280599Y0193874D01*
X0280677Y0193737D01*
X0280751Y0193597D01*
X0280822Y0193455D01*
X0280890Y0193312D01*
X0280954Y0193167D01*
X0281014Y0193021D01*
X0281070Y0192873D01*
X0281123Y0192724D01*
X0281172Y0192573D01*
X0281217Y0192421D01*
X0281258Y0192268D01*
X0281296Y0192115D01*
X0281329Y0191960D01*
X0281359Y0191804D01*
X0281385Y0191648D01*
X0281406Y0191491D01*
X0281424Y0191334D01*
X0281438Y0191176D01*
X0281448Y0191018D01*
X0281454Y0190860D01*
X0281456Y0190702D01*
X0281454Y0190544D01*
X0281448Y0190386D01*
X0281438Y0190228D01*
X0281424Y0190070D01*
X0281406Y0189913D01*
X0281385Y0189756D01*
X0281359Y0189600D01*
X0281329Y0189444D01*
X0281296Y0189289D01*
X0281258Y0189136D01*
X0281217Y0188983D01*
X0281172Y0188831D01*
X0281123Y0188680D01*
X0281070Y0188531D01*
X0281014Y0188383D01*
X0280954Y0188237D01*
X0280890Y0188092D01*
X0280822Y0187949D01*
X0280751Y0187807D01*
X0280677Y0187667D01*
X0280599Y0187530D01*
X0280517Y0187394D01*
X0280433Y0187260D01*
X0280344Y0187129D01*
X0280253Y0187000D01*
X0280158Y0186873D01*
X0280061Y0186748D01*
X0279960Y0186626D01*
X0279856Y0186507D01*
X0279749Y0186390D01*
X0279639Y0186276D01*
X0279526Y0186165D01*
X0279411Y0186056D01*
X0279293Y0185951D01*
X0279172Y0185849D01*
X0279049Y0185749D01*
X0278923Y0185653D01*
X0278795Y0185560D01*
X0278665Y0185470D01*
X0278532Y0185384D01*
X0278397Y0185300D01*
X0278261Y0185221D01*
X0278122Y0185144D01*
X0277981Y0185072D01*
X0277839Y0185002D01*
X0277695Y0184937D01*
X0277549Y0184875D01*
X0277402Y0184817D01*
X0277253Y0184762D01*
X0277103Y0184711D01*
X0276952Y0184664D01*
X0276800Y0184621D01*
X0276647Y0184582D01*
X0276492Y0184546D01*
X0276337Y0184515D01*
X0276181Y0184487D01*
X0276025Y0184463D01*
X0275868Y0184443D01*
X0275710Y0184427D01*
X0275553Y0184415D01*
X0275394Y0184407D01*
X0275236Y0184403D01*
X0275078Y0184403D01*
X0274920Y0184407D01*
X0274761Y0184415D01*
X0274604Y0184427D01*
X0274446Y0184443D01*
X0274289Y0184463D01*
X0274133Y0184487D01*
X0273977Y0184515D01*
X0273822Y0184546D01*
X0273667Y0184582D01*
X0273514Y0184621D01*
X0273362Y0184664D01*
X0273211Y0184711D01*
X0273061Y0184762D01*
X0272912Y0184817D01*
X0272765Y0184875D01*
X0272619Y0184937D01*
X0272475Y0185002D01*
X0272333Y0185072D01*
X0272192Y0185144D01*
X0272053Y0185221D01*
X0271917Y0185300D01*
X0271782Y0185384D01*
X0271649Y0185470D01*
X0271519Y0185560D01*
X0271391Y0185653D01*
X0271265Y0185749D01*
X0271142Y0185849D01*
X0271021Y0185951D01*
X0270903Y0186056D01*
X0270788Y0186165D01*
X0270675Y0186276D01*
X0270565Y0186390D01*
X0270458Y0186507D01*
X0270354Y0186626D01*
X0270253Y0186748D01*
X0270156Y0186873D01*
X0270061Y0187000D01*
X0269970Y0187129D01*
X0269881Y0187260D01*
X0269797Y0187394D01*
X0269715Y0187530D01*
X0269637Y0187667D01*
X0269563Y0187807D01*
X0269492Y0187949D01*
X0269424Y0188092D01*
X0269360Y0188237D01*
X0269300Y0188383D01*
X0269244Y0188531D01*
X0269191Y0188680D01*
X0269142Y0188831D01*
X0269097Y0188983D01*
X0269056Y0189136D01*
X0269018Y0189289D01*
X0268985Y0189444D01*
X0268955Y0189600D01*
X0268929Y0189756D01*
X0268908Y0189913D01*
X0268890Y0190070D01*
X0268876Y0190228D01*
X0268866Y0190386D01*
X0268860Y0190544D01*
X0268858Y0190702D01*
X0327914Y0308813D02*
X0327916Y0308971D01*
X0327922Y0309129D01*
X0327932Y0309287D01*
X0327946Y0309445D01*
X0327964Y0309602D01*
X0327985Y0309759D01*
X0328011Y0309915D01*
X0328041Y0310071D01*
X0328074Y0310226D01*
X0328112Y0310379D01*
X0328153Y0310532D01*
X0328198Y0310684D01*
X0328247Y0310835D01*
X0328300Y0310984D01*
X0328356Y0311132D01*
X0328416Y0311278D01*
X0328480Y0311423D01*
X0328548Y0311566D01*
X0328619Y0311708D01*
X0328693Y0311848D01*
X0328771Y0311985D01*
X0328853Y0312121D01*
X0328937Y0312255D01*
X0329026Y0312386D01*
X0329117Y0312515D01*
X0329212Y0312642D01*
X0329309Y0312767D01*
X0329410Y0312889D01*
X0329514Y0313008D01*
X0329621Y0313125D01*
X0329731Y0313239D01*
X0329844Y0313350D01*
X0329959Y0313459D01*
X0330077Y0313564D01*
X0330198Y0313666D01*
X0330321Y0313766D01*
X0330447Y0313862D01*
X0330575Y0313955D01*
X0330705Y0314045D01*
X0330838Y0314131D01*
X0330973Y0314215D01*
X0331109Y0314294D01*
X0331248Y0314371D01*
X0331389Y0314443D01*
X0331531Y0314513D01*
X0331675Y0314578D01*
X0331821Y0314640D01*
X0331968Y0314698D01*
X0332117Y0314753D01*
X0332267Y0314804D01*
X0332418Y0314851D01*
X0332570Y0314894D01*
X0332723Y0314933D01*
X0332878Y0314969D01*
X0333033Y0315000D01*
X0333189Y0315028D01*
X0333345Y0315052D01*
X0333502Y0315072D01*
X0333660Y0315088D01*
X0333817Y0315100D01*
X0333976Y0315108D01*
X0334134Y0315112D01*
X0334292Y0315112D01*
X0334450Y0315108D01*
X0334609Y0315100D01*
X0334766Y0315088D01*
X0334924Y0315072D01*
X0335081Y0315052D01*
X0335237Y0315028D01*
X0335393Y0315000D01*
X0335548Y0314969D01*
X0335703Y0314933D01*
X0335856Y0314894D01*
X0336008Y0314851D01*
X0336159Y0314804D01*
X0336309Y0314753D01*
X0336458Y0314698D01*
X0336605Y0314640D01*
X0336751Y0314578D01*
X0336895Y0314513D01*
X0337037Y0314443D01*
X0337178Y0314371D01*
X0337317Y0314294D01*
X0337453Y0314215D01*
X0337588Y0314131D01*
X0337721Y0314045D01*
X0337851Y0313955D01*
X0337979Y0313862D01*
X0338105Y0313766D01*
X0338228Y0313666D01*
X0338349Y0313564D01*
X0338467Y0313459D01*
X0338582Y0313350D01*
X0338695Y0313239D01*
X0338805Y0313125D01*
X0338912Y0313008D01*
X0339016Y0312889D01*
X0339117Y0312767D01*
X0339214Y0312642D01*
X0339309Y0312515D01*
X0339400Y0312386D01*
X0339489Y0312255D01*
X0339573Y0312121D01*
X0339655Y0311985D01*
X0339733Y0311848D01*
X0339807Y0311708D01*
X0339878Y0311566D01*
X0339946Y0311423D01*
X0340010Y0311278D01*
X0340070Y0311132D01*
X0340126Y0310984D01*
X0340179Y0310835D01*
X0340228Y0310684D01*
X0340273Y0310532D01*
X0340314Y0310379D01*
X0340352Y0310226D01*
X0340385Y0310071D01*
X0340415Y0309915D01*
X0340441Y0309759D01*
X0340462Y0309602D01*
X0340480Y0309445D01*
X0340494Y0309287D01*
X0340504Y0309129D01*
X0340510Y0308971D01*
X0340512Y0308813D01*
X0340510Y0308655D01*
X0340504Y0308497D01*
X0340494Y0308339D01*
X0340480Y0308181D01*
X0340462Y0308024D01*
X0340441Y0307867D01*
X0340415Y0307711D01*
X0340385Y0307555D01*
X0340352Y0307400D01*
X0340314Y0307247D01*
X0340273Y0307094D01*
X0340228Y0306942D01*
X0340179Y0306791D01*
X0340126Y0306642D01*
X0340070Y0306494D01*
X0340010Y0306348D01*
X0339946Y0306203D01*
X0339878Y0306060D01*
X0339807Y0305918D01*
X0339733Y0305778D01*
X0339655Y0305641D01*
X0339573Y0305505D01*
X0339489Y0305371D01*
X0339400Y0305240D01*
X0339309Y0305111D01*
X0339214Y0304984D01*
X0339117Y0304859D01*
X0339016Y0304737D01*
X0338912Y0304618D01*
X0338805Y0304501D01*
X0338695Y0304387D01*
X0338582Y0304276D01*
X0338467Y0304167D01*
X0338349Y0304062D01*
X0338228Y0303960D01*
X0338105Y0303860D01*
X0337979Y0303764D01*
X0337851Y0303671D01*
X0337721Y0303581D01*
X0337588Y0303495D01*
X0337453Y0303411D01*
X0337317Y0303332D01*
X0337178Y0303255D01*
X0337037Y0303183D01*
X0336895Y0303113D01*
X0336751Y0303048D01*
X0336605Y0302986D01*
X0336458Y0302928D01*
X0336309Y0302873D01*
X0336159Y0302822D01*
X0336008Y0302775D01*
X0335856Y0302732D01*
X0335703Y0302693D01*
X0335548Y0302657D01*
X0335393Y0302626D01*
X0335237Y0302598D01*
X0335081Y0302574D01*
X0334924Y0302554D01*
X0334766Y0302538D01*
X0334609Y0302526D01*
X0334450Y0302518D01*
X0334292Y0302514D01*
X0334134Y0302514D01*
X0333976Y0302518D01*
X0333817Y0302526D01*
X0333660Y0302538D01*
X0333502Y0302554D01*
X0333345Y0302574D01*
X0333189Y0302598D01*
X0333033Y0302626D01*
X0332878Y0302657D01*
X0332723Y0302693D01*
X0332570Y0302732D01*
X0332418Y0302775D01*
X0332267Y0302822D01*
X0332117Y0302873D01*
X0331968Y0302928D01*
X0331821Y0302986D01*
X0331675Y0303048D01*
X0331531Y0303113D01*
X0331389Y0303183D01*
X0331248Y0303255D01*
X0331109Y0303332D01*
X0330973Y0303411D01*
X0330838Y0303495D01*
X0330705Y0303581D01*
X0330575Y0303671D01*
X0330447Y0303764D01*
X0330321Y0303860D01*
X0330198Y0303960D01*
X0330077Y0304062D01*
X0329959Y0304167D01*
X0329844Y0304276D01*
X0329731Y0304387D01*
X0329621Y0304501D01*
X0329514Y0304618D01*
X0329410Y0304737D01*
X0329309Y0304859D01*
X0329212Y0304984D01*
X0329117Y0305111D01*
X0329026Y0305240D01*
X0328937Y0305371D01*
X0328853Y0305505D01*
X0328771Y0305641D01*
X0328693Y0305778D01*
X0328619Y0305918D01*
X0328548Y0306060D01*
X0328480Y0306203D01*
X0328416Y0306348D01*
X0328356Y0306494D01*
X0328300Y0306642D01*
X0328247Y0306791D01*
X0328198Y0306942D01*
X0328153Y0307094D01*
X0328112Y0307247D01*
X0328074Y0307400D01*
X0328041Y0307555D01*
X0328011Y0307711D01*
X0327985Y0307867D01*
X0327964Y0308024D01*
X0327946Y0308181D01*
X0327932Y0308339D01*
X0327922Y0308497D01*
X0327916Y0308655D01*
X0327914Y0308813D01*
X0327914Y0025348D02*
X0327916Y0025506D01*
X0327922Y0025664D01*
X0327932Y0025822D01*
X0327946Y0025980D01*
X0327964Y0026137D01*
X0327985Y0026294D01*
X0328011Y0026450D01*
X0328041Y0026606D01*
X0328074Y0026761D01*
X0328112Y0026914D01*
X0328153Y0027067D01*
X0328198Y0027219D01*
X0328247Y0027370D01*
X0328300Y0027519D01*
X0328356Y0027667D01*
X0328416Y0027813D01*
X0328480Y0027958D01*
X0328548Y0028101D01*
X0328619Y0028243D01*
X0328693Y0028383D01*
X0328771Y0028520D01*
X0328853Y0028656D01*
X0328937Y0028790D01*
X0329026Y0028921D01*
X0329117Y0029050D01*
X0329212Y0029177D01*
X0329309Y0029302D01*
X0329410Y0029424D01*
X0329514Y0029543D01*
X0329621Y0029660D01*
X0329731Y0029774D01*
X0329844Y0029885D01*
X0329959Y0029994D01*
X0330077Y0030099D01*
X0330198Y0030201D01*
X0330321Y0030301D01*
X0330447Y0030397D01*
X0330575Y0030490D01*
X0330705Y0030580D01*
X0330838Y0030666D01*
X0330973Y0030750D01*
X0331109Y0030829D01*
X0331248Y0030906D01*
X0331389Y0030978D01*
X0331531Y0031048D01*
X0331675Y0031113D01*
X0331821Y0031175D01*
X0331968Y0031233D01*
X0332117Y0031288D01*
X0332267Y0031339D01*
X0332418Y0031386D01*
X0332570Y0031429D01*
X0332723Y0031468D01*
X0332878Y0031504D01*
X0333033Y0031535D01*
X0333189Y0031563D01*
X0333345Y0031587D01*
X0333502Y0031607D01*
X0333660Y0031623D01*
X0333817Y0031635D01*
X0333976Y0031643D01*
X0334134Y0031647D01*
X0334292Y0031647D01*
X0334450Y0031643D01*
X0334609Y0031635D01*
X0334766Y0031623D01*
X0334924Y0031607D01*
X0335081Y0031587D01*
X0335237Y0031563D01*
X0335393Y0031535D01*
X0335548Y0031504D01*
X0335703Y0031468D01*
X0335856Y0031429D01*
X0336008Y0031386D01*
X0336159Y0031339D01*
X0336309Y0031288D01*
X0336458Y0031233D01*
X0336605Y0031175D01*
X0336751Y0031113D01*
X0336895Y0031048D01*
X0337037Y0030978D01*
X0337178Y0030906D01*
X0337317Y0030829D01*
X0337453Y0030750D01*
X0337588Y0030666D01*
X0337721Y0030580D01*
X0337851Y0030490D01*
X0337979Y0030397D01*
X0338105Y0030301D01*
X0338228Y0030201D01*
X0338349Y0030099D01*
X0338467Y0029994D01*
X0338582Y0029885D01*
X0338695Y0029774D01*
X0338805Y0029660D01*
X0338912Y0029543D01*
X0339016Y0029424D01*
X0339117Y0029302D01*
X0339214Y0029177D01*
X0339309Y0029050D01*
X0339400Y0028921D01*
X0339489Y0028790D01*
X0339573Y0028656D01*
X0339655Y0028520D01*
X0339733Y0028383D01*
X0339807Y0028243D01*
X0339878Y0028101D01*
X0339946Y0027958D01*
X0340010Y0027813D01*
X0340070Y0027667D01*
X0340126Y0027519D01*
X0340179Y0027370D01*
X0340228Y0027219D01*
X0340273Y0027067D01*
X0340314Y0026914D01*
X0340352Y0026761D01*
X0340385Y0026606D01*
X0340415Y0026450D01*
X0340441Y0026294D01*
X0340462Y0026137D01*
X0340480Y0025980D01*
X0340494Y0025822D01*
X0340504Y0025664D01*
X0340510Y0025506D01*
X0340512Y0025348D01*
X0340510Y0025190D01*
X0340504Y0025032D01*
X0340494Y0024874D01*
X0340480Y0024716D01*
X0340462Y0024559D01*
X0340441Y0024402D01*
X0340415Y0024246D01*
X0340385Y0024090D01*
X0340352Y0023935D01*
X0340314Y0023782D01*
X0340273Y0023629D01*
X0340228Y0023477D01*
X0340179Y0023326D01*
X0340126Y0023177D01*
X0340070Y0023029D01*
X0340010Y0022883D01*
X0339946Y0022738D01*
X0339878Y0022595D01*
X0339807Y0022453D01*
X0339733Y0022313D01*
X0339655Y0022176D01*
X0339573Y0022040D01*
X0339489Y0021906D01*
X0339400Y0021775D01*
X0339309Y0021646D01*
X0339214Y0021519D01*
X0339117Y0021394D01*
X0339016Y0021272D01*
X0338912Y0021153D01*
X0338805Y0021036D01*
X0338695Y0020922D01*
X0338582Y0020811D01*
X0338467Y0020702D01*
X0338349Y0020597D01*
X0338228Y0020495D01*
X0338105Y0020395D01*
X0337979Y0020299D01*
X0337851Y0020206D01*
X0337721Y0020116D01*
X0337588Y0020030D01*
X0337453Y0019946D01*
X0337317Y0019867D01*
X0337178Y0019790D01*
X0337037Y0019718D01*
X0336895Y0019648D01*
X0336751Y0019583D01*
X0336605Y0019521D01*
X0336458Y0019463D01*
X0336309Y0019408D01*
X0336159Y0019357D01*
X0336008Y0019310D01*
X0335856Y0019267D01*
X0335703Y0019228D01*
X0335548Y0019192D01*
X0335393Y0019161D01*
X0335237Y0019133D01*
X0335081Y0019109D01*
X0334924Y0019089D01*
X0334766Y0019073D01*
X0334609Y0019061D01*
X0334450Y0019053D01*
X0334292Y0019049D01*
X0334134Y0019049D01*
X0333976Y0019053D01*
X0333817Y0019061D01*
X0333660Y0019073D01*
X0333502Y0019089D01*
X0333345Y0019109D01*
X0333189Y0019133D01*
X0333033Y0019161D01*
X0332878Y0019192D01*
X0332723Y0019228D01*
X0332570Y0019267D01*
X0332418Y0019310D01*
X0332267Y0019357D01*
X0332117Y0019408D01*
X0331968Y0019463D01*
X0331821Y0019521D01*
X0331675Y0019583D01*
X0331531Y0019648D01*
X0331389Y0019718D01*
X0331248Y0019790D01*
X0331109Y0019867D01*
X0330973Y0019946D01*
X0330838Y0020030D01*
X0330705Y0020116D01*
X0330575Y0020206D01*
X0330447Y0020299D01*
X0330321Y0020395D01*
X0330198Y0020495D01*
X0330077Y0020597D01*
X0329959Y0020702D01*
X0329844Y0020811D01*
X0329731Y0020922D01*
X0329621Y0021036D01*
X0329514Y0021153D01*
X0329410Y0021272D01*
X0329309Y0021394D01*
X0329212Y0021519D01*
X0329117Y0021646D01*
X0329026Y0021775D01*
X0328937Y0021906D01*
X0328853Y0022040D01*
X0328771Y0022176D01*
X0328693Y0022313D01*
X0328619Y0022453D01*
X0328548Y0022595D01*
X0328480Y0022738D01*
X0328416Y0022883D01*
X0328356Y0023029D01*
X0328300Y0023177D01*
X0328247Y0023326D01*
X0328198Y0023477D01*
X0328153Y0023629D01*
X0328112Y0023782D01*
X0328074Y0023935D01*
X0328041Y0024090D01*
X0328011Y0024246D01*
X0327985Y0024402D01*
X0327964Y0024559D01*
X0327946Y0024716D01*
X0327932Y0024874D01*
X0327922Y0025032D01*
X0327916Y0025190D01*
X0327914Y0025348D01*
M02*
