%
M48
M72
T01C0.01200
T02C0.02362
T03C0.03937
T04C0.04000
T05C0.12598
%
T01
X72600Y43900
X77600Y54100
X81100Y64100
X88100Y74100
X98100Y84800
X99100Y94300
X107000Y105600
X112100Y108300
X102100Y114800
X102100Y124800
X102100Y134300
X96600Y154800
X100400Y159700
X136200Y176700
X138100Y180400
X155000Y182000
X157700Y181000
X168500Y175700
X173200Y172200
X168500Y167200
X173200Y163200
X168500Y153900
X168100Y147300
X172800Y142600
X180600Y142600
X185300Y147300
X192800Y142600
X198100Y147300
X203700Y142600
X210600Y142600
X212200Y147300
X216900Y155300
X212200Y162000
X216900Y166300
X212200Y171100
X216900Y177400
X213200Y185100
X211000Y191545
X204650Y190450
X197700Y192500
X180700Y191600
X171260Y191600
X161400Y202300
X164100Y205000
X166900Y207800
X170300Y211200
X149000Y202300
X127000Y212900
X127000Y236600
X134100Y238200
X144000Y236100
X146500Y240100
X143200Y244000
X129500Y252600
X131500Y257100
X140000Y259100
X156000Y268600
X165500Y272100
X165500Y263100
X170500Y259100
X182000Y265100
X188500Y259100
X198100Y254800
X210500Y253100
X221400Y253100
X227900Y259100
X227900Y242100
X241500Y237800
X246800Y244700
X256700Y251500
X262000Y241400
X252600Y229200
X281100Y224800
X281100Y214800
X281100Y204800
X281600Y167800
X281600Y156800
X281600Y152800
X281600Y148800
X252700Y167800
X238600Y180900
X235900Y178900
X232100Y191500
X222000Y206800
X206200Y217800
X202100Y229200
X198100Y239600
X205700Y241400
X215100Y241300
X255000Y269600
X262000Y267200
X276000Y274600
X276000Y279600
X262000Y290600
X282100Y244800
X187500Y289000
X177500Y289000
X167520Y291600
X156500Y294700
X151600Y297800
X149000Y291600
X120600Y274700
X115600Y254700
X119600Y242700
X98600Y229300
X98600Y224800
X92600Y214800
X173200Y180000
X210100Y126300
X216600Y123200
X226100Y116700
X227400Y124800
X233800Y134600
X199500Y120000
X193500Y112400
X183800Y112400
X181300Y99900
X185100Y99600
X181200Y95300
X177900Y93200
X181000Y91000
X177900Y89100
X177900Y97600
X167500Y85900
X159500Y85800
X153800Y107400
X150000Y106400
X136400Y114100
X140000Y117600
X183500Y75600
X183500Y59600
X175500Y59600
X175500Y44600
X183500Y41100
X155500Y38500
X150000Y38500
X145000Y38500
X139500Y38500
X202500Y70300
X209400Y78500
X222500Y67000
X232500Y83600
X246200Y67000
X241500Y48100
X281100Y54300
X281100Y64800
X281100Y74800
X281100Y84800
X281100Y99800
X281100Y104800
X281100Y109800
X281100Y114800
X284600Y44300
X182000Y278100
T02
X221000Y275100
X235000Y222100
X197500Y172100
X197500Y162100
X187500Y162100
X187500Y172100
X124000Y202600
X103500Y173600
X121000Y156600
X272500Y133600
T03
X312500Y24600
X117000Y310600
T04
X147520Y314710
X157520Y314710
X167520Y314710
X177520Y314710
X187520Y314710
X197520Y314710
X207520Y314710
X217520Y314710
X227520Y314710
X237520Y314710
X237520Y304710
X227520Y304710
X217520Y304710
X207520Y304710
X197520Y304710
X187520Y304710
X177520Y304710
X167520Y304710
X157520Y304710
X147520Y304710
X197420Y286700
X207420Y286700
X207420Y276700
X197420Y276700
X180600Y243400
X170600Y243400
X160600Y243400
X112400Y243400
X102400Y243400
X92400Y243400
X65000Y247100
X55000Y247100
X55000Y237100
X65000Y237100
X65000Y227100
X55000Y227100
X55000Y217100
X65000Y217100
X65000Y207100
X55000Y207100
X55000Y197100
X65000Y197100
X65000Y187100
X55000Y187100
X55000Y177100
X65000Y177100
X65000Y167100
X55000Y167100
X55000Y157100
X65000Y157100
X65000Y147100
X55000Y147100
X55000Y137100
X65000Y137100
X65000Y127100
X55000Y127100
X55000Y117100
X65000Y117100
X65000Y107100
X55000Y107100
X55000Y97100
X65000Y97100
X65000Y87100
X55000Y87100
X55000Y77100
X65000Y77100
X65000Y67100
X55000Y67100
X55000Y57100
X55000Y47100
X65000Y47100
X65000Y57100
X45000Y57100
X45000Y47100
X45000Y67100
X45000Y77100
X45000Y87100
X45000Y97100
X45000Y107100
X45000Y117100
X45000Y127100
X45000Y137100
X45000Y147100
X45000Y157100
X45000Y167100
X45000Y177100
X45000Y187100
X45000Y197100
X45000Y207100
X45000Y217100
X45000Y227100
X45000Y237100
X45000Y247100
X45000Y257100
X45000Y267100
X45000Y277100
X45000Y287100
X55000Y287100
X65000Y287100
X65000Y277100
X55000Y277100
X55000Y267100
X65000Y267100
X65000Y257100
X55000Y257100
X92500Y29561
X102500Y29561
X112500Y29561
X122500Y29561
X132500Y29561
X142500Y29561
X152500Y29561
X162500Y29561
X172500Y29561
X182500Y29561
X182500Y19561
X172500Y19561
X162500Y19561
X152500Y19561
X142500Y19561
X132500Y19561
X122500Y19561
X112500Y19561
X102500Y19561
X92500Y19561
X202500Y19561
X202500Y29561
X212500Y29561
X222500Y29561
X232500Y29561
X242500Y29561
X252500Y29561
X262500Y29561
X272500Y29561
X282500Y29561
X292500Y29561
X292500Y19561
X282500Y19561
X272500Y19561
X262500Y19561
X252500Y19561
X242500Y19561
X232500Y19561
X222500Y19561
X212500Y19561
X320000Y47100
X320000Y57100
X330000Y57100
X330000Y47100
X340000Y47100
X340000Y57100
X340000Y67100
X340000Y77100
X340000Y87100
X340000Y97100
X340000Y107100
X340000Y117100
X340000Y127100
X340000Y137100
X340000Y147100
X340000Y157100
X340000Y167100
X340000Y177100
X340000Y187100
X340000Y197100
X340000Y207100
X340000Y217100
X340000Y227100
X340000Y237100
X340000Y247100
X340000Y257100
X340000Y267100
X340000Y277100
X340000Y287100
X330000Y287100
X320000Y287100
X320000Y277100
X330000Y277100
X330000Y267100
X320000Y267100
X320000Y257100
X330000Y257100
X330000Y247100
X320000Y247100
X320000Y237100
X330000Y237100
X330000Y227100
X320000Y227100
X320000Y217100
X330000Y217100
X330000Y207100
X320000Y207100
X320000Y197100
X330000Y197100
X330000Y187100
X320000Y187100
X320000Y177100
X330000Y177100
X330000Y167100
X320000Y167100
X320000Y157100
X330000Y157100
X330000Y147100
X320000Y147100
X320000Y137100
X330000Y137100
X330000Y127100
X320000Y127100
X320000Y117100
X330000Y117100
X330000Y107100
X320000Y107100
X320000Y97100
X330000Y97100
X330000Y87100
X320000Y87100
X320000Y77100
X330000Y77100
X330000Y67100
X320000Y67100
T05
X50748Y25348
X109803Y190702
X50748Y308813
X275157Y190702
X334213Y308813
X334213Y25348
M30
