G75*
%MOIN*%
%OFA0B0*%
%FSLAX25Y25*%
%IPPOS*%
%LPD*%
%AMOC8*
5,1,8,0,0,1.08239X$1,22.5*
%
%ADD10C,0.00000*%
%ADD11OC8,0.06000*%
%ADD12R,0.06000X0.06000*%
%ADD13C,0.06000*%
%ADD14C,0.07600*%
%ADD15C,0.02400*%
%ADD16C,0.00600*%
%ADD17R,0.03562X0.03562*%
%ADD18R,0.02400X0.02400*%
%ADD19C,0.02400*%
%ADD20C,0.01000*%
D10*
X0023711Y0035200D02*
X0011900Y0047011D01*
X0011900Y0338350D01*
X0023711Y0350161D01*
X0315050Y0350161D01*
X0326861Y0338350D01*
X0326861Y0047011D01*
X0315050Y0035200D01*
X0023711Y0035200D01*
X0021349Y0050948D02*
X0021351Y0051106D01*
X0021357Y0051264D01*
X0021367Y0051422D01*
X0021381Y0051580D01*
X0021399Y0051737D01*
X0021420Y0051894D01*
X0021446Y0052050D01*
X0021476Y0052206D01*
X0021509Y0052361D01*
X0021547Y0052514D01*
X0021588Y0052667D01*
X0021633Y0052819D01*
X0021682Y0052970D01*
X0021735Y0053119D01*
X0021791Y0053267D01*
X0021851Y0053413D01*
X0021915Y0053558D01*
X0021983Y0053701D01*
X0022054Y0053843D01*
X0022128Y0053983D01*
X0022206Y0054120D01*
X0022288Y0054256D01*
X0022372Y0054390D01*
X0022461Y0054521D01*
X0022552Y0054650D01*
X0022647Y0054777D01*
X0022744Y0054902D01*
X0022845Y0055024D01*
X0022949Y0055143D01*
X0023056Y0055260D01*
X0023166Y0055374D01*
X0023279Y0055485D01*
X0023394Y0055594D01*
X0023512Y0055699D01*
X0023633Y0055801D01*
X0023756Y0055901D01*
X0023882Y0055997D01*
X0024010Y0056090D01*
X0024140Y0056180D01*
X0024273Y0056266D01*
X0024408Y0056350D01*
X0024544Y0056429D01*
X0024683Y0056506D01*
X0024824Y0056578D01*
X0024966Y0056648D01*
X0025110Y0056713D01*
X0025256Y0056775D01*
X0025403Y0056833D01*
X0025552Y0056888D01*
X0025702Y0056939D01*
X0025853Y0056986D01*
X0026005Y0057029D01*
X0026158Y0057068D01*
X0026313Y0057104D01*
X0026468Y0057135D01*
X0026624Y0057163D01*
X0026780Y0057187D01*
X0026937Y0057207D01*
X0027095Y0057223D01*
X0027252Y0057235D01*
X0027411Y0057243D01*
X0027569Y0057247D01*
X0027727Y0057247D01*
X0027885Y0057243D01*
X0028044Y0057235D01*
X0028201Y0057223D01*
X0028359Y0057207D01*
X0028516Y0057187D01*
X0028672Y0057163D01*
X0028828Y0057135D01*
X0028983Y0057104D01*
X0029138Y0057068D01*
X0029291Y0057029D01*
X0029443Y0056986D01*
X0029594Y0056939D01*
X0029744Y0056888D01*
X0029893Y0056833D01*
X0030040Y0056775D01*
X0030186Y0056713D01*
X0030330Y0056648D01*
X0030472Y0056578D01*
X0030613Y0056506D01*
X0030752Y0056429D01*
X0030888Y0056350D01*
X0031023Y0056266D01*
X0031156Y0056180D01*
X0031286Y0056090D01*
X0031414Y0055997D01*
X0031540Y0055901D01*
X0031663Y0055801D01*
X0031784Y0055699D01*
X0031902Y0055594D01*
X0032017Y0055485D01*
X0032130Y0055374D01*
X0032240Y0055260D01*
X0032347Y0055143D01*
X0032451Y0055024D01*
X0032552Y0054902D01*
X0032649Y0054777D01*
X0032744Y0054650D01*
X0032835Y0054521D01*
X0032924Y0054390D01*
X0033008Y0054256D01*
X0033090Y0054120D01*
X0033168Y0053983D01*
X0033242Y0053843D01*
X0033313Y0053701D01*
X0033381Y0053558D01*
X0033445Y0053413D01*
X0033505Y0053267D01*
X0033561Y0053119D01*
X0033614Y0052970D01*
X0033663Y0052819D01*
X0033708Y0052667D01*
X0033749Y0052514D01*
X0033787Y0052361D01*
X0033820Y0052206D01*
X0033850Y0052050D01*
X0033876Y0051894D01*
X0033897Y0051737D01*
X0033915Y0051580D01*
X0033929Y0051422D01*
X0033939Y0051264D01*
X0033945Y0051106D01*
X0033947Y0050948D01*
X0033945Y0050790D01*
X0033939Y0050632D01*
X0033929Y0050474D01*
X0033915Y0050316D01*
X0033897Y0050159D01*
X0033876Y0050002D01*
X0033850Y0049846D01*
X0033820Y0049690D01*
X0033787Y0049535D01*
X0033749Y0049382D01*
X0033708Y0049229D01*
X0033663Y0049077D01*
X0033614Y0048926D01*
X0033561Y0048777D01*
X0033505Y0048629D01*
X0033445Y0048483D01*
X0033381Y0048338D01*
X0033313Y0048195D01*
X0033242Y0048053D01*
X0033168Y0047913D01*
X0033090Y0047776D01*
X0033008Y0047640D01*
X0032924Y0047506D01*
X0032835Y0047375D01*
X0032744Y0047246D01*
X0032649Y0047119D01*
X0032552Y0046994D01*
X0032451Y0046872D01*
X0032347Y0046753D01*
X0032240Y0046636D01*
X0032130Y0046522D01*
X0032017Y0046411D01*
X0031902Y0046302D01*
X0031784Y0046197D01*
X0031663Y0046095D01*
X0031540Y0045995D01*
X0031414Y0045899D01*
X0031286Y0045806D01*
X0031156Y0045716D01*
X0031023Y0045630D01*
X0030888Y0045546D01*
X0030752Y0045467D01*
X0030613Y0045390D01*
X0030472Y0045318D01*
X0030330Y0045248D01*
X0030186Y0045183D01*
X0030040Y0045121D01*
X0029893Y0045063D01*
X0029744Y0045008D01*
X0029594Y0044957D01*
X0029443Y0044910D01*
X0029291Y0044867D01*
X0029138Y0044828D01*
X0028983Y0044792D01*
X0028828Y0044761D01*
X0028672Y0044733D01*
X0028516Y0044709D01*
X0028359Y0044689D01*
X0028201Y0044673D01*
X0028044Y0044661D01*
X0027885Y0044653D01*
X0027727Y0044649D01*
X0027569Y0044649D01*
X0027411Y0044653D01*
X0027252Y0044661D01*
X0027095Y0044673D01*
X0026937Y0044689D01*
X0026780Y0044709D01*
X0026624Y0044733D01*
X0026468Y0044761D01*
X0026313Y0044792D01*
X0026158Y0044828D01*
X0026005Y0044867D01*
X0025853Y0044910D01*
X0025702Y0044957D01*
X0025552Y0045008D01*
X0025403Y0045063D01*
X0025256Y0045121D01*
X0025110Y0045183D01*
X0024966Y0045248D01*
X0024824Y0045318D01*
X0024683Y0045390D01*
X0024544Y0045467D01*
X0024408Y0045546D01*
X0024273Y0045630D01*
X0024140Y0045716D01*
X0024010Y0045806D01*
X0023882Y0045899D01*
X0023756Y0045995D01*
X0023633Y0046095D01*
X0023512Y0046197D01*
X0023394Y0046302D01*
X0023279Y0046411D01*
X0023166Y0046522D01*
X0023056Y0046636D01*
X0022949Y0046753D01*
X0022845Y0046872D01*
X0022744Y0046994D01*
X0022647Y0047119D01*
X0022552Y0047246D01*
X0022461Y0047375D01*
X0022372Y0047506D01*
X0022288Y0047640D01*
X0022206Y0047776D01*
X0022128Y0047913D01*
X0022054Y0048053D01*
X0021983Y0048195D01*
X0021915Y0048338D01*
X0021851Y0048483D01*
X0021791Y0048629D01*
X0021735Y0048777D01*
X0021682Y0048926D01*
X0021633Y0049077D01*
X0021588Y0049229D01*
X0021547Y0049382D01*
X0021509Y0049535D01*
X0021476Y0049690D01*
X0021446Y0049846D01*
X0021420Y0050002D01*
X0021399Y0050159D01*
X0021381Y0050316D01*
X0021367Y0050474D01*
X0021357Y0050632D01*
X0021351Y0050790D01*
X0021349Y0050948D01*
X0021349Y0334413D02*
X0021351Y0334571D01*
X0021357Y0334729D01*
X0021367Y0334887D01*
X0021381Y0335045D01*
X0021399Y0335202D01*
X0021420Y0335359D01*
X0021446Y0335515D01*
X0021476Y0335671D01*
X0021509Y0335826D01*
X0021547Y0335979D01*
X0021588Y0336132D01*
X0021633Y0336284D01*
X0021682Y0336435D01*
X0021735Y0336584D01*
X0021791Y0336732D01*
X0021851Y0336878D01*
X0021915Y0337023D01*
X0021983Y0337166D01*
X0022054Y0337308D01*
X0022128Y0337448D01*
X0022206Y0337585D01*
X0022288Y0337721D01*
X0022372Y0337855D01*
X0022461Y0337986D01*
X0022552Y0338115D01*
X0022647Y0338242D01*
X0022744Y0338367D01*
X0022845Y0338489D01*
X0022949Y0338608D01*
X0023056Y0338725D01*
X0023166Y0338839D01*
X0023279Y0338950D01*
X0023394Y0339059D01*
X0023512Y0339164D01*
X0023633Y0339266D01*
X0023756Y0339366D01*
X0023882Y0339462D01*
X0024010Y0339555D01*
X0024140Y0339645D01*
X0024273Y0339731D01*
X0024408Y0339815D01*
X0024544Y0339894D01*
X0024683Y0339971D01*
X0024824Y0340043D01*
X0024966Y0340113D01*
X0025110Y0340178D01*
X0025256Y0340240D01*
X0025403Y0340298D01*
X0025552Y0340353D01*
X0025702Y0340404D01*
X0025853Y0340451D01*
X0026005Y0340494D01*
X0026158Y0340533D01*
X0026313Y0340569D01*
X0026468Y0340600D01*
X0026624Y0340628D01*
X0026780Y0340652D01*
X0026937Y0340672D01*
X0027095Y0340688D01*
X0027252Y0340700D01*
X0027411Y0340708D01*
X0027569Y0340712D01*
X0027727Y0340712D01*
X0027885Y0340708D01*
X0028044Y0340700D01*
X0028201Y0340688D01*
X0028359Y0340672D01*
X0028516Y0340652D01*
X0028672Y0340628D01*
X0028828Y0340600D01*
X0028983Y0340569D01*
X0029138Y0340533D01*
X0029291Y0340494D01*
X0029443Y0340451D01*
X0029594Y0340404D01*
X0029744Y0340353D01*
X0029893Y0340298D01*
X0030040Y0340240D01*
X0030186Y0340178D01*
X0030330Y0340113D01*
X0030472Y0340043D01*
X0030613Y0339971D01*
X0030752Y0339894D01*
X0030888Y0339815D01*
X0031023Y0339731D01*
X0031156Y0339645D01*
X0031286Y0339555D01*
X0031414Y0339462D01*
X0031540Y0339366D01*
X0031663Y0339266D01*
X0031784Y0339164D01*
X0031902Y0339059D01*
X0032017Y0338950D01*
X0032130Y0338839D01*
X0032240Y0338725D01*
X0032347Y0338608D01*
X0032451Y0338489D01*
X0032552Y0338367D01*
X0032649Y0338242D01*
X0032744Y0338115D01*
X0032835Y0337986D01*
X0032924Y0337855D01*
X0033008Y0337721D01*
X0033090Y0337585D01*
X0033168Y0337448D01*
X0033242Y0337308D01*
X0033313Y0337166D01*
X0033381Y0337023D01*
X0033445Y0336878D01*
X0033505Y0336732D01*
X0033561Y0336584D01*
X0033614Y0336435D01*
X0033663Y0336284D01*
X0033708Y0336132D01*
X0033749Y0335979D01*
X0033787Y0335826D01*
X0033820Y0335671D01*
X0033850Y0335515D01*
X0033876Y0335359D01*
X0033897Y0335202D01*
X0033915Y0335045D01*
X0033929Y0334887D01*
X0033939Y0334729D01*
X0033945Y0334571D01*
X0033947Y0334413D01*
X0033945Y0334255D01*
X0033939Y0334097D01*
X0033929Y0333939D01*
X0033915Y0333781D01*
X0033897Y0333624D01*
X0033876Y0333467D01*
X0033850Y0333311D01*
X0033820Y0333155D01*
X0033787Y0333000D01*
X0033749Y0332847D01*
X0033708Y0332694D01*
X0033663Y0332542D01*
X0033614Y0332391D01*
X0033561Y0332242D01*
X0033505Y0332094D01*
X0033445Y0331948D01*
X0033381Y0331803D01*
X0033313Y0331660D01*
X0033242Y0331518D01*
X0033168Y0331378D01*
X0033090Y0331241D01*
X0033008Y0331105D01*
X0032924Y0330971D01*
X0032835Y0330840D01*
X0032744Y0330711D01*
X0032649Y0330584D01*
X0032552Y0330459D01*
X0032451Y0330337D01*
X0032347Y0330218D01*
X0032240Y0330101D01*
X0032130Y0329987D01*
X0032017Y0329876D01*
X0031902Y0329767D01*
X0031784Y0329662D01*
X0031663Y0329560D01*
X0031540Y0329460D01*
X0031414Y0329364D01*
X0031286Y0329271D01*
X0031156Y0329181D01*
X0031023Y0329095D01*
X0030888Y0329011D01*
X0030752Y0328932D01*
X0030613Y0328855D01*
X0030472Y0328783D01*
X0030330Y0328713D01*
X0030186Y0328648D01*
X0030040Y0328586D01*
X0029893Y0328528D01*
X0029744Y0328473D01*
X0029594Y0328422D01*
X0029443Y0328375D01*
X0029291Y0328332D01*
X0029138Y0328293D01*
X0028983Y0328257D01*
X0028828Y0328226D01*
X0028672Y0328198D01*
X0028516Y0328174D01*
X0028359Y0328154D01*
X0028201Y0328138D01*
X0028044Y0328126D01*
X0027885Y0328118D01*
X0027727Y0328114D01*
X0027569Y0328114D01*
X0027411Y0328118D01*
X0027252Y0328126D01*
X0027095Y0328138D01*
X0026937Y0328154D01*
X0026780Y0328174D01*
X0026624Y0328198D01*
X0026468Y0328226D01*
X0026313Y0328257D01*
X0026158Y0328293D01*
X0026005Y0328332D01*
X0025853Y0328375D01*
X0025702Y0328422D01*
X0025552Y0328473D01*
X0025403Y0328528D01*
X0025256Y0328586D01*
X0025110Y0328648D01*
X0024966Y0328713D01*
X0024824Y0328783D01*
X0024683Y0328855D01*
X0024544Y0328932D01*
X0024408Y0329011D01*
X0024273Y0329095D01*
X0024140Y0329181D01*
X0024010Y0329271D01*
X0023882Y0329364D01*
X0023756Y0329460D01*
X0023633Y0329560D01*
X0023512Y0329662D01*
X0023394Y0329767D01*
X0023279Y0329876D01*
X0023166Y0329987D01*
X0023056Y0330101D01*
X0022949Y0330218D01*
X0022845Y0330337D01*
X0022744Y0330459D01*
X0022647Y0330584D01*
X0022552Y0330711D01*
X0022461Y0330840D01*
X0022372Y0330971D01*
X0022288Y0331105D01*
X0022206Y0331241D01*
X0022128Y0331378D01*
X0022054Y0331518D01*
X0021983Y0331660D01*
X0021915Y0331803D01*
X0021851Y0331948D01*
X0021791Y0332094D01*
X0021735Y0332242D01*
X0021682Y0332391D01*
X0021633Y0332542D01*
X0021588Y0332694D01*
X0021547Y0332847D01*
X0021509Y0333000D01*
X0021476Y0333155D01*
X0021446Y0333311D01*
X0021420Y0333467D01*
X0021399Y0333624D01*
X0021381Y0333781D01*
X0021367Y0333939D01*
X0021357Y0334097D01*
X0021351Y0334255D01*
X0021349Y0334413D01*
X0304814Y0334413D02*
X0304816Y0334571D01*
X0304822Y0334729D01*
X0304832Y0334887D01*
X0304846Y0335045D01*
X0304864Y0335202D01*
X0304885Y0335359D01*
X0304911Y0335515D01*
X0304941Y0335671D01*
X0304974Y0335826D01*
X0305012Y0335979D01*
X0305053Y0336132D01*
X0305098Y0336284D01*
X0305147Y0336435D01*
X0305200Y0336584D01*
X0305256Y0336732D01*
X0305316Y0336878D01*
X0305380Y0337023D01*
X0305448Y0337166D01*
X0305519Y0337308D01*
X0305593Y0337448D01*
X0305671Y0337585D01*
X0305753Y0337721D01*
X0305837Y0337855D01*
X0305926Y0337986D01*
X0306017Y0338115D01*
X0306112Y0338242D01*
X0306209Y0338367D01*
X0306310Y0338489D01*
X0306414Y0338608D01*
X0306521Y0338725D01*
X0306631Y0338839D01*
X0306744Y0338950D01*
X0306859Y0339059D01*
X0306977Y0339164D01*
X0307098Y0339266D01*
X0307221Y0339366D01*
X0307347Y0339462D01*
X0307475Y0339555D01*
X0307605Y0339645D01*
X0307738Y0339731D01*
X0307873Y0339815D01*
X0308009Y0339894D01*
X0308148Y0339971D01*
X0308289Y0340043D01*
X0308431Y0340113D01*
X0308575Y0340178D01*
X0308721Y0340240D01*
X0308868Y0340298D01*
X0309017Y0340353D01*
X0309167Y0340404D01*
X0309318Y0340451D01*
X0309470Y0340494D01*
X0309623Y0340533D01*
X0309778Y0340569D01*
X0309933Y0340600D01*
X0310089Y0340628D01*
X0310245Y0340652D01*
X0310402Y0340672D01*
X0310560Y0340688D01*
X0310717Y0340700D01*
X0310876Y0340708D01*
X0311034Y0340712D01*
X0311192Y0340712D01*
X0311350Y0340708D01*
X0311509Y0340700D01*
X0311666Y0340688D01*
X0311824Y0340672D01*
X0311981Y0340652D01*
X0312137Y0340628D01*
X0312293Y0340600D01*
X0312448Y0340569D01*
X0312603Y0340533D01*
X0312756Y0340494D01*
X0312908Y0340451D01*
X0313059Y0340404D01*
X0313209Y0340353D01*
X0313358Y0340298D01*
X0313505Y0340240D01*
X0313651Y0340178D01*
X0313795Y0340113D01*
X0313937Y0340043D01*
X0314078Y0339971D01*
X0314217Y0339894D01*
X0314353Y0339815D01*
X0314488Y0339731D01*
X0314621Y0339645D01*
X0314751Y0339555D01*
X0314879Y0339462D01*
X0315005Y0339366D01*
X0315128Y0339266D01*
X0315249Y0339164D01*
X0315367Y0339059D01*
X0315482Y0338950D01*
X0315595Y0338839D01*
X0315705Y0338725D01*
X0315812Y0338608D01*
X0315916Y0338489D01*
X0316017Y0338367D01*
X0316114Y0338242D01*
X0316209Y0338115D01*
X0316300Y0337986D01*
X0316389Y0337855D01*
X0316473Y0337721D01*
X0316555Y0337585D01*
X0316633Y0337448D01*
X0316707Y0337308D01*
X0316778Y0337166D01*
X0316846Y0337023D01*
X0316910Y0336878D01*
X0316970Y0336732D01*
X0317026Y0336584D01*
X0317079Y0336435D01*
X0317128Y0336284D01*
X0317173Y0336132D01*
X0317214Y0335979D01*
X0317252Y0335826D01*
X0317285Y0335671D01*
X0317315Y0335515D01*
X0317341Y0335359D01*
X0317362Y0335202D01*
X0317380Y0335045D01*
X0317394Y0334887D01*
X0317404Y0334729D01*
X0317410Y0334571D01*
X0317412Y0334413D01*
X0317410Y0334255D01*
X0317404Y0334097D01*
X0317394Y0333939D01*
X0317380Y0333781D01*
X0317362Y0333624D01*
X0317341Y0333467D01*
X0317315Y0333311D01*
X0317285Y0333155D01*
X0317252Y0333000D01*
X0317214Y0332847D01*
X0317173Y0332694D01*
X0317128Y0332542D01*
X0317079Y0332391D01*
X0317026Y0332242D01*
X0316970Y0332094D01*
X0316910Y0331948D01*
X0316846Y0331803D01*
X0316778Y0331660D01*
X0316707Y0331518D01*
X0316633Y0331378D01*
X0316555Y0331241D01*
X0316473Y0331105D01*
X0316389Y0330971D01*
X0316300Y0330840D01*
X0316209Y0330711D01*
X0316114Y0330584D01*
X0316017Y0330459D01*
X0315916Y0330337D01*
X0315812Y0330218D01*
X0315705Y0330101D01*
X0315595Y0329987D01*
X0315482Y0329876D01*
X0315367Y0329767D01*
X0315249Y0329662D01*
X0315128Y0329560D01*
X0315005Y0329460D01*
X0314879Y0329364D01*
X0314751Y0329271D01*
X0314621Y0329181D01*
X0314488Y0329095D01*
X0314353Y0329011D01*
X0314217Y0328932D01*
X0314078Y0328855D01*
X0313937Y0328783D01*
X0313795Y0328713D01*
X0313651Y0328648D01*
X0313505Y0328586D01*
X0313358Y0328528D01*
X0313209Y0328473D01*
X0313059Y0328422D01*
X0312908Y0328375D01*
X0312756Y0328332D01*
X0312603Y0328293D01*
X0312448Y0328257D01*
X0312293Y0328226D01*
X0312137Y0328198D01*
X0311981Y0328174D01*
X0311824Y0328154D01*
X0311666Y0328138D01*
X0311509Y0328126D01*
X0311350Y0328118D01*
X0311192Y0328114D01*
X0311034Y0328114D01*
X0310876Y0328118D01*
X0310717Y0328126D01*
X0310560Y0328138D01*
X0310402Y0328154D01*
X0310245Y0328174D01*
X0310089Y0328198D01*
X0309933Y0328226D01*
X0309778Y0328257D01*
X0309623Y0328293D01*
X0309470Y0328332D01*
X0309318Y0328375D01*
X0309167Y0328422D01*
X0309017Y0328473D01*
X0308868Y0328528D01*
X0308721Y0328586D01*
X0308575Y0328648D01*
X0308431Y0328713D01*
X0308289Y0328783D01*
X0308148Y0328855D01*
X0308009Y0328932D01*
X0307873Y0329011D01*
X0307738Y0329095D01*
X0307605Y0329181D01*
X0307475Y0329271D01*
X0307347Y0329364D01*
X0307221Y0329460D01*
X0307098Y0329560D01*
X0306977Y0329662D01*
X0306859Y0329767D01*
X0306744Y0329876D01*
X0306631Y0329987D01*
X0306521Y0330101D01*
X0306414Y0330218D01*
X0306310Y0330337D01*
X0306209Y0330459D01*
X0306112Y0330584D01*
X0306017Y0330711D01*
X0305926Y0330840D01*
X0305837Y0330971D01*
X0305753Y0331105D01*
X0305671Y0331241D01*
X0305593Y0331378D01*
X0305519Y0331518D01*
X0305448Y0331660D01*
X0305380Y0331803D01*
X0305316Y0331948D01*
X0305256Y0332094D01*
X0305200Y0332242D01*
X0305147Y0332391D01*
X0305098Y0332542D01*
X0305053Y0332694D01*
X0305012Y0332847D01*
X0304974Y0333000D01*
X0304941Y0333155D01*
X0304911Y0333311D01*
X0304885Y0333467D01*
X0304864Y0333624D01*
X0304846Y0333781D01*
X0304832Y0333939D01*
X0304822Y0334097D01*
X0304816Y0334255D01*
X0304814Y0334413D01*
X0304814Y0050948D02*
X0304816Y0051106D01*
X0304822Y0051264D01*
X0304832Y0051422D01*
X0304846Y0051580D01*
X0304864Y0051737D01*
X0304885Y0051894D01*
X0304911Y0052050D01*
X0304941Y0052206D01*
X0304974Y0052361D01*
X0305012Y0052514D01*
X0305053Y0052667D01*
X0305098Y0052819D01*
X0305147Y0052970D01*
X0305200Y0053119D01*
X0305256Y0053267D01*
X0305316Y0053413D01*
X0305380Y0053558D01*
X0305448Y0053701D01*
X0305519Y0053843D01*
X0305593Y0053983D01*
X0305671Y0054120D01*
X0305753Y0054256D01*
X0305837Y0054390D01*
X0305926Y0054521D01*
X0306017Y0054650D01*
X0306112Y0054777D01*
X0306209Y0054902D01*
X0306310Y0055024D01*
X0306414Y0055143D01*
X0306521Y0055260D01*
X0306631Y0055374D01*
X0306744Y0055485D01*
X0306859Y0055594D01*
X0306977Y0055699D01*
X0307098Y0055801D01*
X0307221Y0055901D01*
X0307347Y0055997D01*
X0307475Y0056090D01*
X0307605Y0056180D01*
X0307738Y0056266D01*
X0307873Y0056350D01*
X0308009Y0056429D01*
X0308148Y0056506D01*
X0308289Y0056578D01*
X0308431Y0056648D01*
X0308575Y0056713D01*
X0308721Y0056775D01*
X0308868Y0056833D01*
X0309017Y0056888D01*
X0309167Y0056939D01*
X0309318Y0056986D01*
X0309470Y0057029D01*
X0309623Y0057068D01*
X0309778Y0057104D01*
X0309933Y0057135D01*
X0310089Y0057163D01*
X0310245Y0057187D01*
X0310402Y0057207D01*
X0310560Y0057223D01*
X0310717Y0057235D01*
X0310876Y0057243D01*
X0311034Y0057247D01*
X0311192Y0057247D01*
X0311350Y0057243D01*
X0311509Y0057235D01*
X0311666Y0057223D01*
X0311824Y0057207D01*
X0311981Y0057187D01*
X0312137Y0057163D01*
X0312293Y0057135D01*
X0312448Y0057104D01*
X0312603Y0057068D01*
X0312756Y0057029D01*
X0312908Y0056986D01*
X0313059Y0056939D01*
X0313209Y0056888D01*
X0313358Y0056833D01*
X0313505Y0056775D01*
X0313651Y0056713D01*
X0313795Y0056648D01*
X0313937Y0056578D01*
X0314078Y0056506D01*
X0314217Y0056429D01*
X0314353Y0056350D01*
X0314488Y0056266D01*
X0314621Y0056180D01*
X0314751Y0056090D01*
X0314879Y0055997D01*
X0315005Y0055901D01*
X0315128Y0055801D01*
X0315249Y0055699D01*
X0315367Y0055594D01*
X0315482Y0055485D01*
X0315595Y0055374D01*
X0315705Y0055260D01*
X0315812Y0055143D01*
X0315916Y0055024D01*
X0316017Y0054902D01*
X0316114Y0054777D01*
X0316209Y0054650D01*
X0316300Y0054521D01*
X0316389Y0054390D01*
X0316473Y0054256D01*
X0316555Y0054120D01*
X0316633Y0053983D01*
X0316707Y0053843D01*
X0316778Y0053701D01*
X0316846Y0053558D01*
X0316910Y0053413D01*
X0316970Y0053267D01*
X0317026Y0053119D01*
X0317079Y0052970D01*
X0317128Y0052819D01*
X0317173Y0052667D01*
X0317214Y0052514D01*
X0317252Y0052361D01*
X0317285Y0052206D01*
X0317315Y0052050D01*
X0317341Y0051894D01*
X0317362Y0051737D01*
X0317380Y0051580D01*
X0317394Y0051422D01*
X0317404Y0051264D01*
X0317410Y0051106D01*
X0317412Y0050948D01*
X0317410Y0050790D01*
X0317404Y0050632D01*
X0317394Y0050474D01*
X0317380Y0050316D01*
X0317362Y0050159D01*
X0317341Y0050002D01*
X0317315Y0049846D01*
X0317285Y0049690D01*
X0317252Y0049535D01*
X0317214Y0049382D01*
X0317173Y0049229D01*
X0317128Y0049077D01*
X0317079Y0048926D01*
X0317026Y0048777D01*
X0316970Y0048629D01*
X0316910Y0048483D01*
X0316846Y0048338D01*
X0316778Y0048195D01*
X0316707Y0048053D01*
X0316633Y0047913D01*
X0316555Y0047776D01*
X0316473Y0047640D01*
X0316389Y0047506D01*
X0316300Y0047375D01*
X0316209Y0047246D01*
X0316114Y0047119D01*
X0316017Y0046994D01*
X0315916Y0046872D01*
X0315812Y0046753D01*
X0315705Y0046636D01*
X0315595Y0046522D01*
X0315482Y0046411D01*
X0315367Y0046302D01*
X0315249Y0046197D01*
X0315128Y0046095D01*
X0315005Y0045995D01*
X0314879Y0045899D01*
X0314751Y0045806D01*
X0314621Y0045716D01*
X0314488Y0045630D01*
X0314353Y0045546D01*
X0314217Y0045467D01*
X0314078Y0045390D01*
X0313937Y0045318D01*
X0313795Y0045248D01*
X0313651Y0045183D01*
X0313505Y0045121D01*
X0313358Y0045063D01*
X0313209Y0045008D01*
X0313059Y0044957D01*
X0312908Y0044910D01*
X0312756Y0044867D01*
X0312603Y0044828D01*
X0312448Y0044792D01*
X0312293Y0044761D01*
X0312137Y0044733D01*
X0311981Y0044709D01*
X0311824Y0044689D01*
X0311666Y0044673D01*
X0311509Y0044661D01*
X0311350Y0044653D01*
X0311192Y0044649D01*
X0311034Y0044649D01*
X0310876Y0044653D01*
X0310717Y0044661D01*
X0310560Y0044673D01*
X0310402Y0044689D01*
X0310245Y0044709D01*
X0310089Y0044733D01*
X0309933Y0044761D01*
X0309778Y0044792D01*
X0309623Y0044828D01*
X0309470Y0044867D01*
X0309318Y0044910D01*
X0309167Y0044957D01*
X0309017Y0045008D01*
X0308868Y0045063D01*
X0308721Y0045121D01*
X0308575Y0045183D01*
X0308431Y0045248D01*
X0308289Y0045318D01*
X0308148Y0045390D01*
X0308009Y0045467D01*
X0307873Y0045546D01*
X0307738Y0045630D01*
X0307605Y0045716D01*
X0307475Y0045806D01*
X0307347Y0045899D01*
X0307221Y0045995D01*
X0307098Y0046095D01*
X0306977Y0046197D01*
X0306859Y0046302D01*
X0306744Y0046411D01*
X0306631Y0046522D01*
X0306521Y0046636D01*
X0306414Y0046753D01*
X0306310Y0046872D01*
X0306209Y0046994D01*
X0306112Y0047119D01*
X0306017Y0047246D01*
X0305926Y0047375D01*
X0305837Y0047506D01*
X0305753Y0047640D01*
X0305671Y0047776D01*
X0305593Y0047913D01*
X0305519Y0048053D01*
X0305448Y0048195D01*
X0305380Y0048338D01*
X0305316Y0048483D01*
X0305256Y0048629D01*
X0305200Y0048777D01*
X0305147Y0048926D01*
X0305098Y0049077D01*
X0305053Y0049229D01*
X0305012Y0049382D01*
X0304974Y0049535D01*
X0304941Y0049690D01*
X0304911Y0049846D01*
X0304885Y0050002D01*
X0304864Y0050159D01*
X0304846Y0050316D01*
X0304832Y0050474D01*
X0304822Y0050632D01*
X0304816Y0050790D01*
X0304814Y0050948D01*
D11*
X0209400Y0055000D03*
X0199400Y0055000D03*
X0199400Y0065000D03*
X0189400Y0065000D03*
X0189400Y0055000D03*
X0189400Y0045000D03*
X0179400Y0045000D03*
X0179400Y0055000D03*
X0179400Y0065000D03*
X0169400Y0065000D03*
X0169400Y0055000D03*
X0159400Y0055000D03*
X0159400Y0065000D03*
X0149400Y0065000D03*
X0149400Y0055000D03*
X0149400Y0045000D03*
X0139400Y0045000D03*
X0139400Y0055000D03*
X0139400Y0065000D03*
X0129400Y0065000D03*
X0129400Y0055000D03*
X0129400Y0045000D03*
X0159400Y0045000D03*
X0169400Y0045000D03*
X0199400Y0045000D03*
X0209400Y0045000D03*
X0252200Y0172800D03*
X0259700Y0180300D03*
X0252200Y0187800D03*
X0259800Y0195200D03*
X0252200Y0202600D03*
X0259700Y0210100D03*
X0296861Y0192680D03*
X0306861Y0192680D03*
X0306861Y0202680D03*
X0316861Y0202680D03*
X0316861Y0192680D03*
X0316861Y0182680D03*
X0306861Y0182680D03*
X0296861Y0182680D03*
X0184400Y0262200D03*
X0176900Y0269700D03*
X0169400Y0262200D03*
X0161900Y0269700D03*
X0154400Y0262200D03*
X0146900Y0269700D03*
X0139400Y0262200D03*
X0090600Y0267400D03*
X0090600Y0252900D03*
X0031861Y0252661D03*
X0021861Y0252661D03*
X0021861Y0262661D03*
X0021861Y0272661D03*
X0031861Y0272661D03*
X0031861Y0262661D03*
X0031861Y0282661D03*
X0031861Y0292661D03*
X0021861Y0292661D03*
X0021861Y0282661D03*
X0021861Y0242661D03*
X0031861Y0242661D03*
X0031861Y0232661D03*
X0021861Y0232661D03*
X0021861Y0222661D03*
X0031861Y0222661D03*
X0031861Y0212661D03*
X0021861Y0212661D03*
X0021861Y0202661D03*
X0021861Y0182661D03*
X0031861Y0182661D03*
X0031861Y0172661D03*
X0031861Y0162661D03*
X0021861Y0162661D03*
X0021861Y0172661D03*
X0021861Y0152661D03*
X0031861Y0152661D03*
X0031861Y0142661D03*
X0021861Y0142661D03*
X0021861Y0132661D03*
X0031861Y0132661D03*
X0031861Y0122661D03*
X0031861Y0112661D03*
X0021861Y0112661D03*
X0021861Y0122661D03*
X0021861Y0102661D03*
X0031861Y0102661D03*
X0021861Y0092661D03*
X0159350Y0320330D03*
X0169350Y0320330D03*
X0169350Y0330330D03*
X0159350Y0330330D03*
X0159350Y0340330D03*
X0169350Y0340330D03*
X0179350Y0340330D03*
X0189350Y0340330D03*
X0189350Y0330330D03*
X0189350Y0320330D03*
X0179350Y0320330D03*
X0179350Y0330330D03*
X0149350Y0330330D03*
X0149350Y0340330D03*
D12*
X0149350Y0320330D03*
X0031861Y0202661D03*
X0031861Y0092661D03*
X0209400Y0065000D03*
X0296861Y0202680D03*
D13*
X0074000Y0201500D02*
X0068000Y0201500D01*
X0068000Y0211500D02*
X0074000Y0211500D01*
X0074000Y0221500D02*
X0068000Y0221500D01*
D14*
X0070955Y0291106D03*
X0070955Y0094255D03*
X0267806Y0094255D03*
X0267806Y0291106D03*
D15*
X0225300Y0237500D03*
X0221300Y0233500D03*
X0227400Y0227400D03*
X0231400Y0231400D03*
X0148100Y0235900D03*
X0141300Y0229100D03*
X0054800Y0253300D03*
X0054800Y0266300D03*
D16*
X0056900Y0266225D02*
X0086700Y0266225D01*
X0086700Y0265785D02*
X0086700Y0269015D01*
X0088985Y0271300D01*
X0092215Y0271300D01*
X0094500Y0269015D01*
X0094500Y0265785D01*
X0092215Y0263500D01*
X0088985Y0263500D01*
X0086700Y0265785D01*
X0086858Y0265627D02*
X0056900Y0265627D01*
X0056900Y0265430D02*
X0056200Y0264730D01*
X0056200Y0254870D01*
X0056900Y0254170D01*
X0056900Y0252430D01*
X0055670Y0251200D01*
X0053930Y0251200D01*
X0052700Y0252430D01*
X0052700Y0254170D01*
X0053400Y0254870D01*
X0053400Y0264730D01*
X0052700Y0265430D01*
X0052700Y0267170D01*
X0053930Y0268400D01*
X0055670Y0268400D01*
X0056900Y0267170D01*
X0056900Y0265430D01*
X0056498Y0265028D02*
X0087456Y0265028D01*
X0088055Y0264430D02*
X0056200Y0264430D01*
X0056200Y0263831D02*
X0088653Y0263831D01*
X0086700Y0266824D02*
X0056900Y0266824D01*
X0056647Y0267422D02*
X0086700Y0267422D01*
X0086700Y0268021D02*
X0056049Y0268021D01*
X0053551Y0268021D02*
X0013200Y0268021D01*
X0013200Y0268619D02*
X0086700Y0268619D01*
X0086903Y0269218D02*
X0033933Y0269218D01*
X0033476Y0268761D02*
X0035761Y0271045D01*
X0035761Y0274276D01*
X0033476Y0276561D01*
X0030245Y0276561D01*
X0027961Y0274276D01*
X0027961Y0271045D01*
X0030245Y0268761D01*
X0033476Y0268761D01*
X0034532Y0269816D02*
X0087501Y0269816D01*
X0088100Y0270415D02*
X0035130Y0270415D01*
X0035729Y0271013D02*
X0088698Y0271013D01*
X0092502Y0271013D02*
X0143000Y0271013D01*
X0143000Y0271315D02*
X0143000Y0268085D01*
X0145285Y0265800D01*
X0148515Y0265800D01*
X0150800Y0268085D01*
X0150800Y0271315D01*
X0148515Y0273600D01*
X0145285Y0273600D01*
X0143000Y0271315D01*
X0143297Y0271612D02*
X0035761Y0271612D01*
X0035761Y0272210D02*
X0143895Y0272210D01*
X0144494Y0272809D02*
X0035761Y0272809D01*
X0035761Y0273408D02*
X0145092Y0273408D01*
X0148708Y0273408D02*
X0160092Y0273408D01*
X0160285Y0273600D02*
X0158000Y0271315D01*
X0158000Y0268085D01*
X0160285Y0265800D01*
X0163515Y0265800D01*
X0165800Y0268085D01*
X0165800Y0271315D01*
X0163515Y0273600D01*
X0160285Y0273600D01*
X0159494Y0272809D02*
X0149306Y0272809D01*
X0149905Y0272210D02*
X0158895Y0272210D01*
X0158297Y0271612D02*
X0150503Y0271612D01*
X0150800Y0271013D02*
X0158000Y0271013D01*
X0158000Y0270415D02*
X0150800Y0270415D01*
X0150800Y0269816D02*
X0158000Y0269816D01*
X0158000Y0269218D02*
X0150800Y0269218D01*
X0150800Y0268619D02*
X0158000Y0268619D01*
X0158064Y0268021D02*
X0150736Y0268021D01*
X0150138Y0267422D02*
X0158662Y0267422D01*
X0159261Y0266824D02*
X0149539Y0266824D01*
X0148941Y0266225D02*
X0159859Y0266225D01*
X0157686Y0264430D02*
X0166114Y0264430D01*
X0165516Y0263831D02*
X0158284Y0263831D01*
X0158300Y0263815D02*
X0156015Y0266100D01*
X0152785Y0266100D01*
X0150500Y0263815D01*
X0150500Y0260585D01*
X0152785Y0258300D01*
X0156015Y0258300D01*
X0158300Y0260585D01*
X0158300Y0263815D01*
X0158300Y0263233D02*
X0165500Y0263233D01*
X0165500Y0263815D02*
X0165500Y0260585D01*
X0167785Y0258300D01*
X0171015Y0258300D01*
X0173300Y0260585D01*
X0173300Y0263815D01*
X0171015Y0266100D01*
X0167785Y0266100D01*
X0165500Y0263815D01*
X0165500Y0262634D02*
X0158300Y0262634D01*
X0158300Y0262036D02*
X0165500Y0262036D01*
X0165500Y0261437D02*
X0158300Y0261437D01*
X0158300Y0260839D02*
X0165500Y0260839D01*
X0165844Y0260240D02*
X0157956Y0260240D01*
X0157357Y0259642D02*
X0166443Y0259642D01*
X0167041Y0259043D02*
X0156759Y0259043D01*
X0156160Y0258445D02*
X0167640Y0258445D01*
X0171160Y0258445D02*
X0182640Y0258445D01*
X0182785Y0258300D02*
X0186015Y0258300D01*
X0188300Y0260585D01*
X0188300Y0263815D01*
X0186015Y0266100D01*
X0182785Y0266100D01*
X0180500Y0263815D01*
X0180500Y0260585D01*
X0182785Y0258300D01*
X0182041Y0259043D02*
X0171759Y0259043D01*
X0172357Y0259642D02*
X0181443Y0259642D01*
X0180844Y0260240D02*
X0172956Y0260240D01*
X0173300Y0260839D02*
X0180500Y0260839D01*
X0180500Y0261437D02*
X0173300Y0261437D01*
X0173300Y0262036D02*
X0180500Y0262036D01*
X0180500Y0262634D02*
X0173300Y0262634D01*
X0173300Y0263233D02*
X0180500Y0263233D01*
X0180516Y0263831D02*
X0173284Y0263831D01*
X0172686Y0264430D02*
X0181114Y0264430D01*
X0181713Y0265028D02*
X0172087Y0265028D01*
X0171489Y0265627D02*
X0182311Y0265627D01*
X0180138Y0267422D02*
X0325561Y0267422D01*
X0325561Y0266824D02*
X0179539Y0266824D01*
X0178941Y0266225D02*
X0325561Y0266225D01*
X0325561Y0265627D02*
X0186489Y0265627D01*
X0187087Y0265028D02*
X0325561Y0265028D01*
X0325561Y0264430D02*
X0187686Y0264430D01*
X0188284Y0263831D02*
X0325561Y0263831D01*
X0325561Y0263233D02*
X0188300Y0263233D01*
X0188300Y0262634D02*
X0325561Y0262634D01*
X0325561Y0262036D02*
X0188300Y0262036D01*
X0188300Y0261437D02*
X0325561Y0261437D01*
X0325561Y0260839D02*
X0188300Y0260839D01*
X0187956Y0260240D02*
X0325561Y0260240D01*
X0325561Y0259642D02*
X0187357Y0259642D01*
X0186759Y0259043D02*
X0325561Y0259043D01*
X0325561Y0258445D02*
X0186160Y0258445D01*
X0178515Y0265800D02*
X0180800Y0268085D01*
X0180800Y0271315D01*
X0178515Y0273600D01*
X0175285Y0273600D01*
X0173000Y0271315D01*
X0173000Y0268085D01*
X0175285Y0265800D01*
X0178515Y0265800D01*
X0180736Y0268021D02*
X0325561Y0268021D01*
X0325561Y0268619D02*
X0180800Y0268619D01*
X0180800Y0269218D02*
X0325561Y0269218D01*
X0325561Y0269816D02*
X0180800Y0269816D01*
X0180800Y0270415D02*
X0325561Y0270415D01*
X0325561Y0271013D02*
X0180800Y0271013D01*
X0180503Y0271612D02*
X0325561Y0271612D01*
X0325561Y0272210D02*
X0179905Y0272210D01*
X0179306Y0272809D02*
X0325561Y0272809D01*
X0325561Y0273408D02*
X0178708Y0273408D01*
X0175092Y0273408D02*
X0163708Y0273408D01*
X0164306Y0272809D02*
X0174494Y0272809D01*
X0173895Y0272210D02*
X0164905Y0272210D01*
X0165503Y0271612D02*
X0173297Y0271612D01*
X0173000Y0271013D02*
X0165800Y0271013D01*
X0165800Y0270415D02*
X0173000Y0270415D01*
X0173000Y0269816D02*
X0165800Y0269816D01*
X0165800Y0269218D02*
X0173000Y0269218D01*
X0173000Y0268619D02*
X0165800Y0268619D01*
X0165736Y0268021D02*
X0173064Y0268021D01*
X0173662Y0267422D02*
X0165138Y0267422D01*
X0164539Y0266824D02*
X0174261Y0266824D01*
X0174859Y0266225D02*
X0163941Y0266225D01*
X0166713Y0265028D02*
X0157087Y0265028D01*
X0156489Y0265627D02*
X0167311Y0265627D01*
X0152311Y0265627D02*
X0141489Y0265627D01*
X0141015Y0266100D02*
X0143300Y0263815D01*
X0143300Y0260585D01*
X0141015Y0258300D01*
X0137785Y0258300D01*
X0135500Y0260585D01*
X0135500Y0263815D01*
X0137785Y0266100D01*
X0141015Y0266100D01*
X0142087Y0265028D02*
X0151713Y0265028D01*
X0151114Y0264430D02*
X0142686Y0264430D01*
X0143284Y0263831D02*
X0150516Y0263831D01*
X0150500Y0263233D02*
X0143300Y0263233D01*
X0143300Y0262634D02*
X0150500Y0262634D01*
X0150500Y0262036D02*
X0143300Y0262036D01*
X0143300Y0261437D02*
X0150500Y0261437D01*
X0150500Y0260839D02*
X0143300Y0260839D01*
X0142956Y0260240D02*
X0150844Y0260240D01*
X0151443Y0259642D02*
X0142357Y0259642D01*
X0141759Y0259043D02*
X0152041Y0259043D01*
X0152640Y0258445D02*
X0141160Y0258445D01*
X0137640Y0258445D02*
X0056200Y0258445D01*
X0056200Y0259043D02*
X0137041Y0259043D01*
X0136443Y0259642D02*
X0056200Y0259642D01*
X0056200Y0260240D02*
X0135844Y0260240D01*
X0135500Y0260839D02*
X0056200Y0260839D01*
X0056200Y0261437D02*
X0135500Y0261437D01*
X0135500Y0262036D02*
X0056200Y0262036D01*
X0056200Y0262634D02*
X0135500Y0262634D01*
X0135500Y0263233D02*
X0056200Y0263233D01*
X0053400Y0263233D02*
X0035761Y0263233D01*
X0035761Y0263831D02*
X0053400Y0263831D01*
X0053400Y0264430D02*
X0035607Y0264430D01*
X0035761Y0264276D02*
X0033476Y0266561D01*
X0030245Y0266561D01*
X0027961Y0264276D01*
X0027961Y0261045D01*
X0030245Y0258761D01*
X0033476Y0258761D01*
X0035761Y0261045D01*
X0035761Y0264276D01*
X0035008Y0265028D02*
X0053102Y0265028D01*
X0052700Y0265627D02*
X0034410Y0265627D01*
X0033811Y0266225D02*
X0052700Y0266225D01*
X0052700Y0266824D02*
X0013200Y0266824D01*
X0013200Y0267422D02*
X0052953Y0267422D01*
X0053400Y0262634D02*
X0035761Y0262634D01*
X0035761Y0262036D02*
X0053400Y0262036D01*
X0053400Y0261437D02*
X0035761Y0261437D01*
X0035554Y0260839D02*
X0053400Y0260839D01*
X0053400Y0260240D02*
X0034956Y0260240D01*
X0034357Y0259642D02*
X0053400Y0259642D01*
X0053400Y0259043D02*
X0033759Y0259043D01*
X0033476Y0256561D02*
X0030245Y0256561D01*
X0027961Y0254276D01*
X0027961Y0251045D01*
X0030245Y0248761D01*
X0033476Y0248761D01*
X0035761Y0251045D01*
X0035761Y0254276D01*
X0033476Y0256561D01*
X0033986Y0256051D02*
X0053400Y0256051D01*
X0053400Y0256649D02*
X0013200Y0256649D01*
X0013200Y0256051D02*
X0019735Y0256051D01*
X0020245Y0256561D02*
X0017961Y0254276D01*
X0017961Y0251045D01*
X0020245Y0248761D01*
X0023476Y0248761D01*
X0025761Y0251045D01*
X0025761Y0254276D01*
X0023476Y0256561D01*
X0020245Y0256561D01*
X0019137Y0255452D02*
X0013200Y0255452D01*
X0013200Y0254854D02*
X0018538Y0254854D01*
X0017961Y0254255D02*
X0013200Y0254255D01*
X0013200Y0253657D02*
X0017961Y0253657D01*
X0017961Y0253058D02*
X0013200Y0253058D01*
X0013200Y0252460D02*
X0017961Y0252460D01*
X0017961Y0251861D02*
X0013200Y0251861D01*
X0013200Y0251263D02*
X0017961Y0251263D01*
X0018342Y0250664D02*
X0013200Y0250664D01*
X0013200Y0250066D02*
X0018940Y0250066D01*
X0019539Y0249467D02*
X0013200Y0249467D01*
X0013200Y0248869D02*
X0020137Y0248869D01*
X0020245Y0246561D02*
X0017961Y0244276D01*
X0017961Y0241045D01*
X0020245Y0238761D01*
X0023476Y0238761D01*
X0025761Y0241045D01*
X0025761Y0244276D01*
X0023476Y0246561D01*
X0020245Y0246561D01*
X0020159Y0246474D02*
X0013200Y0246474D01*
X0013200Y0245876D02*
X0019561Y0245876D01*
X0018962Y0245277D02*
X0013200Y0245277D01*
X0013200Y0244679D02*
X0018364Y0244679D01*
X0017961Y0244080D02*
X0013200Y0244080D01*
X0013200Y0243482D02*
X0017961Y0243482D01*
X0017961Y0242883D02*
X0013200Y0242883D01*
X0013200Y0242285D02*
X0017961Y0242285D01*
X0017961Y0241686D02*
X0013200Y0241686D01*
X0013200Y0241088D02*
X0017961Y0241088D01*
X0018516Y0240489D02*
X0013200Y0240489D01*
X0013200Y0239891D02*
X0019115Y0239891D01*
X0019713Y0239292D02*
X0013200Y0239292D01*
X0013200Y0238694D02*
X0223524Y0238694D01*
X0223200Y0238370D02*
X0223200Y0236630D01*
X0224430Y0235400D01*
X0225703Y0235400D01*
X0229300Y0231803D01*
X0229300Y0230530D01*
X0230530Y0229300D01*
X0232270Y0229300D01*
X0233500Y0230530D01*
X0233500Y0232270D01*
X0232270Y0233500D01*
X0230997Y0233500D01*
X0227400Y0237097D01*
X0227400Y0238370D01*
X0226170Y0239600D01*
X0224430Y0239600D01*
X0223200Y0238370D01*
X0223200Y0238095D02*
X0013200Y0238095D01*
X0013200Y0237497D02*
X0146727Y0237497D01*
X0147230Y0238000D02*
X0146000Y0236770D01*
X0146000Y0235497D01*
X0141703Y0231200D01*
X0140430Y0231200D01*
X0139200Y0229970D01*
X0139200Y0228230D01*
X0140430Y0227000D01*
X0142170Y0227000D01*
X0143400Y0228230D01*
X0143400Y0229503D01*
X0147697Y0233800D01*
X0148970Y0233800D01*
X0150200Y0235030D01*
X0150200Y0236770D01*
X0148970Y0238000D01*
X0147230Y0238000D01*
X0146128Y0236898D02*
X0013200Y0236898D01*
X0013200Y0236300D02*
X0019984Y0236300D01*
X0020245Y0236561D02*
X0017961Y0234276D01*
X0017961Y0231045D01*
X0020245Y0228761D01*
X0023476Y0228761D01*
X0025761Y0231045D01*
X0025761Y0234276D01*
X0023476Y0236561D01*
X0020245Y0236561D01*
X0019386Y0235701D02*
X0013200Y0235701D01*
X0013200Y0235103D02*
X0018787Y0235103D01*
X0018189Y0234504D02*
X0013200Y0234504D01*
X0013200Y0233906D02*
X0017961Y0233906D01*
X0017961Y0233307D02*
X0013200Y0233307D01*
X0013200Y0232709D02*
X0017961Y0232709D01*
X0017961Y0232110D02*
X0013200Y0232110D01*
X0013200Y0231512D02*
X0017961Y0231512D01*
X0018093Y0230913D02*
X0013200Y0230913D01*
X0013200Y0230315D02*
X0018691Y0230315D01*
X0019290Y0229716D02*
X0013200Y0229716D01*
X0013200Y0229118D02*
X0019888Y0229118D01*
X0020245Y0226561D02*
X0017961Y0224276D01*
X0017961Y0221045D01*
X0020245Y0218761D01*
X0023476Y0218761D01*
X0025761Y0221045D01*
X0025761Y0224276D01*
X0023476Y0226561D01*
X0020245Y0226561D01*
X0019810Y0226125D02*
X0013200Y0226125D01*
X0013200Y0225527D02*
X0019211Y0225527D01*
X0018613Y0224928D02*
X0013200Y0224928D01*
X0013200Y0224330D02*
X0018014Y0224330D01*
X0017961Y0223731D02*
X0013200Y0223731D01*
X0013200Y0223133D02*
X0017961Y0223133D01*
X0017961Y0222534D02*
X0013200Y0222534D01*
X0013200Y0221936D02*
X0017961Y0221936D01*
X0017961Y0221337D02*
X0013200Y0221337D01*
X0013200Y0220739D02*
X0018267Y0220739D01*
X0018866Y0220140D02*
X0013200Y0220140D01*
X0013200Y0219541D02*
X0019464Y0219541D01*
X0020063Y0218943D02*
X0013200Y0218943D01*
X0013200Y0218344D02*
X0037719Y0218344D01*
X0037719Y0217746D02*
X0013200Y0217746D01*
X0013200Y0217147D02*
X0037719Y0217147D01*
X0037719Y0216549D02*
X0033488Y0216549D01*
X0033476Y0216561D02*
X0030245Y0216561D01*
X0027961Y0214276D01*
X0027961Y0211045D01*
X0030245Y0208761D01*
X0033476Y0208761D01*
X0035761Y0211045D01*
X0035761Y0214276D01*
X0033476Y0216561D01*
X0034086Y0215950D02*
X0037719Y0215950D01*
X0037719Y0215546D02*
X0038246Y0215019D01*
X0038300Y0215019D01*
X0038300Y0206962D01*
X0038246Y0206962D01*
X0037719Y0206435D01*
X0037719Y0202127D01*
X0038246Y0201600D01*
X0042554Y0201600D01*
X0043081Y0202127D01*
X0043081Y0206435D01*
X0042554Y0206962D01*
X0042500Y0206962D01*
X0042500Y0215019D01*
X0042554Y0215019D01*
X0043081Y0215546D01*
X0043081Y0219854D01*
X0042554Y0220381D01*
X0038246Y0220381D01*
X0037719Y0219854D01*
X0037719Y0215546D01*
X0037913Y0215352D02*
X0034685Y0215352D01*
X0035283Y0214753D02*
X0038300Y0214753D01*
X0038300Y0214155D02*
X0035761Y0214155D01*
X0035761Y0213556D02*
X0038300Y0213556D01*
X0038300Y0212958D02*
X0035761Y0212958D01*
X0035761Y0212359D02*
X0038300Y0212359D01*
X0038300Y0211761D02*
X0035761Y0211761D01*
X0035761Y0211162D02*
X0038300Y0211162D01*
X0038300Y0210564D02*
X0035279Y0210564D01*
X0034681Y0209965D02*
X0038300Y0209965D01*
X0038300Y0209367D02*
X0034082Y0209367D01*
X0033484Y0208768D02*
X0038300Y0208768D01*
X0038300Y0208170D02*
X0013200Y0208170D01*
X0013200Y0208768D02*
X0020238Y0208768D01*
X0020245Y0208761D02*
X0023476Y0208761D01*
X0025761Y0211045D01*
X0025761Y0214276D01*
X0023476Y0216561D01*
X0020245Y0216561D01*
X0017961Y0214276D01*
X0017961Y0211045D01*
X0020245Y0208761D01*
X0019639Y0209367D02*
X0013200Y0209367D01*
X0013200Y0209965D02*
X0019041Y0209965D01*
X0018442Y0210564D02*
X0013200Y0210564D01*
X0013200Y0211162D02*
X0017961Y0211162D01*
X0017961Y0211761D02*
X0013200Y0211761D01*
X0013200Y0212359D02*
X0017961Y0212359D01*
X0017961Y0212958D02*
X0013200Y0212958D01*
X0013200Y0213556D02*
X0017961Y0213556D01*
X0017961Y0214155D02*
X0013200Y0214155D01*
X0013200Y0214753D02*
X0018438Y0214753D01*
X0019036Y0215352D02*
X0013200Y0215352D01*
X0013200Y0215950D02*
X0019635Y0215950D01*
X0020234Y0216549D02*
X0013200Y0216549D01*
X0013200Y0226724D02*
X0225300Y0226724D01*
X0225300Y0226530D02*
X0226530Y0225300D01*
X0228270Y0225300D01*
X0229500Y0226530D01*
X0229500Y0228270D01*
X0228270Y0229500D01*
X0226997Y0229500D01*
X0223400Y0233097D01*
X0223400Y0234370D01*
X0222170Y0235600D01*
X0220430Y0235600D01*
X0219200Y0234370D01*
X0219200Y0232630D01*
X0220430Y0231400D01*
X0221703Y0231400D01*
X0225300Y0227803D01*
X0225300Y0226530D01*
X0225705Y0226125D02*
X0033912Y0226125D01*
X0033476Y0226561D02*
X0030245Y0226561D01*
X0027961Y0224276D01*
X0027961Y0221045D01*
X0030245Y0218761D01*
X0033476Y0218761D01*
X0035761Y0221045D01*
X0035761Y0224276D01*
X0033476Y0226561D01*
X0034510Y0225527D02*
X0226304Y0225527D01*
X0225300Y0227322D02*
X0142492Y0227322D01*
X0143090Y0227921D02*
X0225182Y0227921D01*
X0224584Y0228519D02*
X0143400Y0228519D01*
X0143400Y0229118D02*
X0223985Y0229118D01*
X0223387Y0229716D02*
X0143613Y0229716D01*
X0144212Y0230315D02*
X0222788Y0230315D01*
X0222190Y0230913D02*
X0144810Y0230913D01*
X0145409Y0231512D02*
X0220318Y0231512D01*
X0219720Y0232110D02*
X0146007Y0232110D01*
X0146606Y0232709D02*
X0219200Y0232709D01*
X0219200Y0233307D02*
X0147204Y0233307D01*
X0149076Y0233906D02*
X0219200Y0233906D01*
X0219334Y0234504D02*
X0149674Y0234504D01*
X0150200Y0235103D02*
X0219933Y0235103D01*
X0221300Y0233500D02*
X0227400Y0227400D01*
X0229500Y0227322D02*
X0325561Y0227322D01*
X0325561Y0226724D02*
X0229500Y0226724D01*
X0229095Y0226125D02*
X0325561Y0226125D01*
X0325561Y0225527D02*
X0228496Y0225527D01*
X0229500Y0227921D02*
X0325561Y0227921D01*
X0325561Y0228519D02*
X0229251Y0228519D01*
X0228652Y0229118D02*
X0325561Y0229118D01*
X0325561Y0229716D02*
X0232686Y0229716D01*
X0233285Y0230315D02*
X0325561Y0230315D01*
X0325561Y0230913D02*
X0233500Y0230913D01*
X0233500Y0231512D02*
X0325561Y0231512D01*
X0325561Y0232110D02*
X0233500Y0232110D01*
X0233061Y0232709D02*
X0325561Y0232709D01*
X0325561Y0233307D02*
X0232463Y0233307D01*
X0230591Y0233906D02*
X0325561Y0233906D01*
X0325561Y0234504D02*
X0229993Y0234504D01*
X0229394Y0235103D02*
X0325561Y0235103D01*
X0325561Y0235701D02*
X0228796Y0235701D01*
X0228197Y0236300D02*
X0325561Y0236300D01*
X0325561Y0236898D02*
X0227599Y0236898D01*
X0227400Y0237497D02*
X0325561Y0237497D01*
X0325561Y0238095D02*
X0227400Y0238095D01*
X0227076Y0238694D02*
X0325561Y0238694D01*
X0325561Y0239292D02*
X0226477Y0239292D01*
X0225300Y0237500D02*
X0231400Y0231400D01*
X0229300Y0231512D02*
X0224985Y0231512D01*
X0224387Y0232110D02*
X0228993Y0232110D01*
X0228394Y0232709D02*
X0223788Y0232709D01*
X0223400Y0233307D02*
X0227796Y0233307D01*
X0227197Y0233906D02*
X0223400Y0233906D01*
X0223266Y0234504D02*
X0226599Y0234504D01*
X0226000Y0235103D02*
X0222667Y0235103D01*
X0223530Y0236300D02*
X0150200Y0236300D01*
X0150200Y0235701D02*
X0224129Y0235701D01*
X0223200Y0236898D02*
X0150072Y0236898D01*
X0149473Y0237497D02*
X0223200Y0237497D01*
X0224123Y0239292D02*
X0034008Y0239292D01*
X0033476Y0238761D02*
X0035761Y0241045D01*
X0035761Y0244276D01*
X0033476Y0246561D01*
X0030245Y0246561D01*
X0027961Y0244276D01*
X0027961Y0241045D01*
X0030245Y0238761D01*
X0033476Y0238761D01*
X0034606Y0239891D02*
X0325561Y0239891D01*
X0325561Y0240489D02*
X0035205Y0240489D01*
X0035761Y0241088D02*
X0325561Y0241088D01*
X0325561Y0241686D02*
X0035761Y0241686D01*
X0035761Y0242285D02*
X0325561Y0242285D01*
X0325561Y0242883D02*
X0035761Y0242883D01*
X0035761Y0243482D02*
X0325561Y0243482D01*
X0325561Y0244080D02*
X0035761Y0244080D01*
X0035358Y0244679D02*
X0325561Y0244679D01*
X0325561Y0245277D02*
X0034759Y0245277D01*
X0034161Y0245876D02*
X0325561Y0245876D01*
X0325561Y0246474D02*
X0033562Y0246474D01*
X0033584Y0248869D02*
X0325561Y0248869D01*
X0325561Y0249467D02*
X0092682Y0249467D01*
X0092215Y0249000D02*
X0094500Y0251285D01*
X0094500Y0254515D01*
X0092215Y0256800D01*
X0088985Y0256800D01*
X0086700Y0254515D01*
X0086700Y0251285D01*
X0088985Y0249000D01*
X0092215Y0249000D01*
X0093281Y0250066D02*
X0325561Y0250066D01*
X0325561Y0250664D02*
X0093879Y0250664D01*
X0094478Y0251263D02*
X0325561Y0251263D01*
X0325561Y0251861D02*
X0094500Y0251861D01*
X0094500Y0252460D02*
X0325561Y0252460D01*
X0325561Y0253058D02*
X0094500Y0253058D01*
X0094500Y0253657D02*
X0325561Y0253657D01*
X0325561Y0254255D02*
X0094500Y0254255D01*
X0094162Y0254854D02*
X0325561Y0254854D01*
X0325561Y0255452D02*
X0093563Y0255452D01*
X0092965Y0256051D02*
X0325561Y0256051D01*
X0325561Y0256649D02*
X0092366Y0256649D01*
X0088834Y0256649D02*
X0056200Y0256649D01*
X0056200Y0256051D02*
X0088235Y0256051D01*
X0087637Y0255452D02*
X0056200Y0255452D01*
X0056216Y0254854D02*
X0087038Y0254854D01*
X0086700Y0254255D02*
X0056815Y0254255D01*
X0056900Y0253657D02*
X0086700Y0253657D01*
X0086700Y0253058D02*
X0056900Y0253058D01*
X0056900Y0252460D02*
X0086700Y0252460D01*
X0086700Y0251861D02*
X0056331Y0251861D01*
X0055732Y0251263D02*
X0086722Y0251263D01*
X0087320Y0250664D02*
X0035379Y0250664D01*
X0035761Y0251263D02*
X0053868Y0251263D01*
X0053269Y0251861D02*
X0035761Y0251861D01*
X0035761Y0252460D02*
X0052700Y0252460D01*
X0052700Y0253058D02*
X0035761Y0253058D01*
X0035761Y0253657D02*
X0052700Y0253657D01*
X0052785Y0254255D02*
X0035761Y0254255D01*
X0035183Y0254854D02*
X0053384Y0254854D01*
X0053400Y0255452D02*
X0034584Y0255452D01*
X0029735Y0256051D02*
X0023986Y0256051D01*
X0024584Y0255452D02*
X0029137Y0255452D01*
X0028538Y0254854D02*
X0025183Y0254854D01*
X0025761Y0254255D02*
X0027961Y0254255D01*
X0027961Y0253657D02*
X0025761Y0253657D01*
X0025761Y0253058D02*
X0027961Y0253058D01*
X0027961Y0252460D02*
X0025761Y0252460D01*
X0025761Y0251861D02*
X0027961Y0251861D01*
X0027961Y0251263D02*
X0025761Y0251263D01*
X0025379Y0250664D02*
X0028342Y0250664D01*
X0028940Y0250066D02*
X0024781Y0250066D01*
X0024182Y0249467D02*
X0029539Y0249467D01*
X0030137Y0248869D02*
X0023584Y0248869D01*
X0023562Y0246474D02*
X0030159Y0246474D01*
X0029561Y0245876D02*
X0024161Y0245876D01*
X0024759Y0245277D02*
X0028962Y0245277D01*
X0028364Y0244679D02*
X0025358Y0244679D01*
X0025761Y0244080D02*
X0027961Y0244080D01*
X0027961Y0243482D02*
X0025761Y0243482D01*
X0025761Y0242883D02*
X0027961Y0242883D01*
X0027961Y0242285D02*
X0025761Y0242285D01*
X0025761Y0241686D02*
X0027961Y0241686D01*
X0027961Y0241088D02*
X0025761Y0241088D01*
X0025205Y0240489D02*
X0028516Y0240489D01*
X0029115Y0239891D02*
X0024606Y0239891D01*
X0024008Y0239292D02*
X0029713Y0239292D01*
X0030245Y0236561D02*
X0027961Y0234276D01*
X0027961Y0231045D01*
X0030245Y0228761D01*
X0033476Y0228761D01*
X0035761Y0231045D01*
X0035761Y0234276D01*
X0033476Y0236561D01*
X0030245Y0236561D01*
X0029984Y0236300D02*
X0023737Y0236300D01*
X0024335Y0235701D02*
X0029386Y0235701D01*
X0028787Y0235103D02*
X0024934Y0235103D01*
X0025532Y0234504D02*
X0028189Y0234504D01*
X0027961Y0233906D02*
X0025761Y0233906D01*
X0025761Y0233307D02*
X0027961Y0233307D01*
X0027961Y0232709D02*
X0025761Y0232709D01*
X0025761Y0232110D02*
X0027961Y0232110D01*
X0027961Y0231512D02*
X0025761Y0231512D01*
X0025629Y0230913D02*
X0028093Y0230913D01*
X0028691Y0230315D02*
X0025030Y0230315D01*
X0024432Y0229716D02*
X0029290Y0229716D01*
X0029888Y0229118D02*
X0023833Y0229118D01*
X0023912Y0226125D02*
X0029810Y0226125D01*
X0029211Y0225527D02*
X0024510Y0225527D01*
X0025109Y0224928D02*
X0028613Y0224928D01*
X0028014Y0224330D02*
X0025707Y0224330D01*
X0025761Y0223731D02*
X0027961Y0223731D01*
X0027961Y0223133D02*
X0025761Y0223133D01*
X0025761Y0222534D02*
X0027961Y0222534D01*
X0027961Y0221936D02*
X0025761Y0221936D01*
X0025761Y0221337D02*
X0027961Y0221337D01*
X0028267Y0220739D02*
X0025454Y0220739D01*
X0024855Y0220140D02*
X0028866Y0220140D01*
X0029464Y0219541D02*
X0024257Y0219541D01*
X0023658Y0218943D02*
X0030063Y0218943D01*
X0030234Y0216549D02*
X0023488Y0216549D01*
X0024086Y0215950D02*
X0029635Y0215950D01*
X0029036Y0215352D02*
X0024685Y0215352D01*
X0025283Y0214753D02*
X0028438Y0214753D01*
X0027961Y0214155D02*
X0025761Y0214155D01*
X0025761Y0213556D02*
X0027961Y0213556D01*
X0027961Y0212958D02*
X0025761Y0212958D01*
X0025761Y0212359D02*
X0027961Y0212359D01*
X0027961Y0211761D02*
X0025761Y0211761D01*
X0025761Y0211162D02*
X0027961Y0211162D01*
X0028442Y0210564D02*
X0025279Y0210564D01*
X0024681Y0209965D02*
X0029041Y0209965D01*
X0029639Y0209367D02*
X0024082Y0209367D01*
X0023484Y0208768D02*
X0030238Y0208768D01*
X0028488Y0206561D02*
X0027961Y0206033D01*
X0027961Y0199288D01*
X0028488Y0198761D01*
X0035233Y0198761D01*
X0035761Y0199288D01*
X0035761Y0206033D01*
X0035233Y0206561D01*
X0028488Y0206561D01*
X0028301Y0206374D02*
X0023662Y0206374D01*
X0023476Y0206561D02*
X0020245Y0206561D01*
X0017961Y0204276D01*
X0017961Y0201045D01*
X0020245Y0198761D01*
X0023476Y0198761D01*
X0025761Y0201045D01*
X0025761Y0204276D01*
X0023476Y0206561D01*
X0024261Y0205776D02*
X0027961Y0205776D01*
X0027961Y0205177D02*
X0024859Y0205177D01*
X0025458Y0204579D02*
X0027961Y0204579D01*
X0027961Y0203980D02*
X0025761Y0203980D01*
X0025761Y0203382D02*
X0027961Y0203382D01*
X0027961Y0202783D02*
X0025761Y0202783D01*
X0025761Y0202185D02*
X0027961Y0202185D01*
X0027961Y0201586D02*
X0025761Y0201586D01*
X0025703Y0200988D02*
X0027961Y0200988D01*
X0027961Y0200389D02*
X0025105Y0200389D01*
X0024506Y0199791D02*
X0027961Y0199791D01*
X0028056Y0199192D02*
X0023908Y0199192D01*
X0019814Y0199192D02*
X0013200Y0199192D01*
X0013200Y0198594D02*
X0065391Y0198594D01*
X0065791Y0198194D02*
X0067224Y0197600D01*
X0074776Y0197600D01*
X0076209Y0198194D01*
X0077306Y0199291D01*
X0077900Y0200724D01*
X0077900Y0202276D01*
X0077306Y0203709D01*
X0076209Y0204806D01*
X0074776Y0205400D01*
X0067224Y0205400D01*
X0065791Y0204806D01*
X0064694Y0203709D01*
X0064100Y0202276D01*
X0064100Y0200724D01*
X0064694Y0199291D01*
X0065791Y0198194D01*
X0066270Y0197995D02*
X0013200Y0197995D01*
X0013200Y0197397D02*
X0256481Y0197397D01*
X0255900Y0196815D02*
X0255900Y0193585D01*
X0258185Y0191300D01*
X0261415Y0191300D01*
X0263700Y0193585D01*
X0263700Y0196815D01*
X0261415Y0199100D01*
X0258185Y0199100D01*
X0255900Y0196815D01*
X0255900Y0196798D02*
X0013200Y0196798D01*
X0013200Y0196200D02*
X0255900Y0196200D01*
X0255900Y0195601D02*
X0013200Y0195601D01*
X0013200Y0195003D02*
X0255900Y0195003D01*
X0255900Y0194404D02*
X0013200Y0194404D01*
X0013200Y0193805D02*
X0255900Y0193805D01*
X0256278Y0193207D02*
X0013200Y0193207D01*
X0013200Y0192608D02*
X0256876Y0192608D01*
X0257475Y0192010D02*
X0013200Y0192010D01*
X0013200Y0191411D02*
X0250296Y0191411D01*
X0250585Y0191700D02*
X0248300Y0189415D01*
X0248300Y0186185D01*
X0250585Y0183900D01*
X0253815Y0183900D01*
X0256100Y0186185D01*
X0256100Y0189415D01*
X0253815Y0191700D01*
X0250585Y0191700D01*
X0249698Y0190813D02*
X0013200Y0190813D01*
X0013200Y0190214D02*
X0249099Y0190214D01*
X0248501Y0189616D02*
X0013200Y0189616D01*
X0013200Y0189017D02*
X0248300Y0189017D01*
X0248300Y0188419D02*
X0013200Y0188419D01*
X0013200Y0187820D02*
X0248300Y0187820D01*
X0248300Y0187222D02*
X0013200Y0187222D01*
X0013200Y0186623D02*
X0248300Y0186623D01*
X0248460Y0186025D02*
X0034012Y0186025D01*
X0033476Y0186561D02*
X0030245Y0186561D01*
X0027961Y0184276D01*
X0027961Y0181045D01*
X0030245Y0178761D01*
X0033476Y0178761D01*
X0035761Y0181045D01*
X0035761Y0184276D01*
X0033476Y0186561D01*
X0034610Y0185426D02*
X0249058Y0185426D01*
X0249657Y0184828D02*
X0035209Y0184828D01*
X0035761Y0184229D02*
X0250255Y0184229D01*
X0254145Y0184229D02*
X0292961Y0184229D01*
X0292961Y0184296D02*
X0292961Y0181065D01*
X0295245Y0178780D01*
X0298476Y0178780D01*
X0300761Y0181065D01*
X0300761Y0184296D01*
X0298476Y0186580D01*
X0295245Y0186580D01*
X0292961Y0184296D01*
X0292961Y0183631D02*
X0261885Y0183631D01*
X0261315Y0184200D02*
X0258085Y0184200D01*
X0255800Y0181915D01*
X0255800Y0178685D01*
X0258085Y0176400D01*
X0261315Y0176400D01*
X0263600Y0178685D01*
X0263600Y0181915D01*
X0261315Y0184200D01*
X0262483Y0183032D02*
X0292961Y0183032D01*
X0292961Y0182434D02*
X0263082Y0182434D01*
X0263600Y0181835D02*
X0292961Y0181835D01*
X0292961Y0181237D02*
X0263600Y0181237D01*
X0263600Y0180638D02*
X0293387Y0180638D01*
X0293986Y0180040D02*
X0263600Y0180040D01*
X0263600Y0179441D02*
X0294584Y0179441D01*
X0295183Y0178843D02*
X0263600Y0178843D01*
X0263160Y0178244D02*
X0325561Y0178244D01*
X0325561Y0177646D02*
X0262561Y0177646D01*
X0261963Y0177047D02*
X0325561Y0177047D01*
X0325561Y0176449D02*
X0261364Y0176449D01*
X0258036Y0176449D02*
X0254067Y0176449D01*
X0253815Y0176700D02*
X0250585Y0176700D01*
X0248300Y0174415D01*
X0248300Y0171185D01*
X0250585Y0168900D01*
X0253815Y0168900D01*
X0256100Y0171185D01*
X0256100Y0174415D01*
X0253815Y0176700D01*
X0254665Y0175850D02*
X0325561Y0175850D01*
X0325561Y0175252D02*
X0255264Y0175252D01*
X0255862Y0174653D02*
X0325561Y0174653D01*
X0325561Y0174055D02*
X0256100Y0174055D01*
X0256100Y0173456D02*
X0325561Y0173456D01*
X0325561Y0172858D02*
X0256100Y0172858D01*
X0256100Y0172259D02*
X0325561Y0172259D01*
X0325561Y0171661D02*
X0256100Y0171661D01*
X0255977Y0171062D02*
X0325561Y0171062D01*
X0325561Y0170464D02*
X0255379Y0170464D01*
X0254780Y0169865D02*
X0325561Y0169865D01*
X0325561Y0169267D02*
X0254182Y0169267D01*
X0250218Y0169267D02*
X0033982Y0169267D01*
X0033476Y0168761D02*
X0035761Y0171045D01*
X0035761Y0174276D01*
X0033476Y0176561D01*
X0030245Y0176561D01*
X0027961Y0174276D01*
X0027961Y0171045D01*
X0030245Y0168761D01*
X0033476Y0168761D01*
X0034580Y0169865D02*
X0249620Y0169865D01*
X0249021Y0170464D02*
X0035179Y0170464D01*
X0035761Y0171062D02*
X0248423Y0171062D01*
X0248300Y0171661D02*
X0035761Y0171661D01*
X0035761Y0172259D02*
X0248300Y0172259D01*
X0248300Y0172858D02*
X0035761Y0172858D01*
X0035761Y0173456D02*
X0248300Y0173456D01*
X0248300Y0174055D02*
X0035761Y0174055D01*
X0035384Y0174653D02*
X0248538Y0174653D01*
X0249136Y0175252D02*
X0034785Y0175252D01*
X0034187Y0175850D02*
X0249735Y0175850D01*
X0250333Y0176449D02*
X0033588Y0176449D01*
X0033558Y0178843D02*
X0255800Y0178843D01*
X0255800Y0179441D02*
X0034157Y0179441D01*
X0034755Y0180040D02*
X0255800Y0180040D01*
X0255800Y0180638D02*
X0035354Y0180638D01*
X0035761Y0181237D02*
X0255800Y0181237D01*
X0255800Y0181835D02*
X0035761Y0181835D01*
X0035761Y0182434D02*
X0256318Y0182434D01*
X0256917Y0183032D02*
X0035761Y0183032D01*
X0035761Y0183631D02*
X0257515Y0183631D01*
X0255342Y0185426D02*
X0294091Y0185426D01*
X0293493Y0184828D02*
X0254743Y0184828D01*
X0255940Y0186025D02*
X0294690Y0186025D01*
X0295245Y0188780D02*
X0298476Y0188780D01*
X0300761Y0191065D01*
X0300761Y0194296D01*
X0298476Y0196580D01*
X0295245Y0196580D01*
X0292961Y0194296D01*
X0292961Y0191065D01*
X0295245Y0188780D01*
X0295008Y0189017D02*
X0256100Y0189017D01*
X0256100Y0188419D02*
X0305041Y0188419D01*
X0305080Y0188380D02*
X0302561Y0190899D01*
X0302561Y0192380D01*
X0306561Y0192380D01*
X0307161Y0192380D01*
X0307161Y0192980D01*
X0311161Y0192980D01*
X0311161Y0194461D01*
X0308642Y0196980D01*
X0307161Y0196980D01*
X0307161Y0192980D01*
X0306561Y0192980D01*
X0306561Y0192380D01*
X0306561Y0188380D01*
X0305080Y0188380D01*
X0304442Y0189017D02*
X0298713Y0189017D01*
X0299312Y0189616D02*
X0303844Y0189616D01*
X0303245Y0190214D02*
X0299910Y0190214D01*
X0300509Y0190813D02*
X0302647Y0190813D01*
X0302561Y0191411D02*
X0300761Y0191411D01*
X0300761Y0192010D02*
X0302561Y0192010D01*
X0302561Y0192980D02*
X0306561Y0192980D01*
X0306561Y0196980D01*
X0305080Y0196980D01*
X0302561Y0194461D01*
X0302561Y0192980D01*
X0302561Y0193207D02*
X0300761Y0193207D01*
X0300761Y0193805D02*
X0302561Y0193805D01*
X0302561Y0194404D02*
X0300652Y0194404D01*
X0300054Y0195003D02*
X0303102Y0195003D01*
X0303700Y0195601D02*
X0299455Y0195601D01*
X0298857Y0196200D02*
X0304299Y0196200D01*
X0304897Y0196798D02*
X0263700Y0196798D01*
X0263700Y0196200D02*
X0294864Y0196200D01*
X0294266Y0195601D02*
X0263700Y0195601D01*
X0263700Y0195003D02*
X0293667Y0195003D01*
X0293069Y0194404D02*
X0263700Y0194404D01*
X0263700Y0193805D02*
X0292961Y0193805D01*
X0292961Y0193207D02*
X0263322Y0193207D01*
X0262724Y0192608D02*
X0292961Y0192608D01*
X0292961Y0192010D02*
X0262125Y0192010D01*
X0261527Y0191411D02*
X0292961Y0191411D01*
X0293213Y0190813D02*
X0254702Y0190813D01*
X0254104Y0191411D02*
X0258073Y0191411D01*
X0255899Y0189616D02*
X0294410Y0189616D01*
X0293811Y0190214D02*
X0255301Y0190214D01*
X0256100Y0187820D02*
X0325561Y0187820D01*
X0325561Y0187222D02*
X0256100Y0187222D01*
X0256100Y0186623D02*
X0304723Y0186623D01*
X0305080Y0186980D02*
X0302561Y0184461D01*
X0302561Y0182980D01*
X0306561Y0182980D01*
X0306561Y0182380D01*
X0307161Y0182380D01*
X0307161Y0182980D01*
X0311161Y0182980D01*
X0311161Y0184461D01*
X0308642Y0186980D01*
X0307161Y0186980D01*
X0307161Y0182980D01*
X0306561Y0182980D01*
X0306561Y0186980D01*
X0305080Y0186980D01*
X0304124Y0186025D02*
X0299031Y0186025D01*
X0299630Y0185426D02*
X0303526Y0185426D01*
X0302927Y0184828D02*
X0300229Y0184828D01*
X0300761Y0184229D02*
X0302561Y0184229D01*
X0302561Y0183631D02*
X0300761Y0183631D01*
X0300761Y0183032D02*
X0302561Y0183032D01*
X0302561Y0182380D02*
X0302561Y0180899D01*
X0305080Y0178380D01*
X0306561Y0178380D01*
X0306561Y0182380D01*
X0302561Y0182380D01*
X0302561Y0181835D02*
X0300761Y0181835D01*
X0300761Y0181237D02*
X0302561Y0181237D01*
X0302822Y0180638D02*
X0300334Y0180638D01*
X0299735Y0180040D02*
X0303420Y0180040D01*
X0304019Y0179441D02*
X0299137Y0179441D01*
X0298538Y0178843D02*
X0304617Y0178843D01*
X0306561Y0178843D02*
X0307161Y0178843D01*
X0307161Y0178380D02*
X0308642Y0178380D01*
X0311161Y0180899D01*
X0311161Y0182380D01*
X0307161Y0182380D01*
X0307161Y0178380D01*
X0307161Y0179441D02*
X0306561Y0179441D01*
X0306561Y0180040D02*
X0307161Y0180040D01*
X0307161Y0180638D02*
X0306561Y0180638D01*
X0306561Y0181237D02*
X0307161Y0181237D01*
X0307161Y0181835D02*
X0306561Y0181835D01*
X0306561Y0182434D02*
X0300761Y0182434D01*
X0306561Y0183032D02*
X0307161Y0183032D01*
X0307161Y0182434D02*
X0312961Y0182434D01*
X0312961Y0183032D02*
X0311161Y0183032D01*
X0311161Y0183631D02*
X0312961Y0183631D01*
X0312961Y0184229D02*
X0311161Y0184229D01*
X0310794Y0184828D02*
X0313493Y0184828D01*
X0312961Y0184296D02*
X0312961Y0181065D01*
X0315245Y0178780D01*
X0318476Y0178780D01*
X0320761Y0181065D01*
X0320761Y0184296D01*
X0318476Y0186580D01*
X0315245Y0186580D01*
X0312961Y0184296D01*
X0314091Y0185426D02*
X0310196Y0185426D01*
X0309597Y0186025D02*
X0314690Y0186025D01*
X0315245Y0188780D02*
X0312961Y0191065D01*
X0312961Y0194296D01*
X0315245Y0196580D01*
X0318476Y0196580D01*
X0320761Y0194296D01*
X0320761Y0191065D01*
X0318476Y0188780D01*
X0315245Y0188780D01*
X0315008Y0189017D02*
X0309279Y0189017D01*
X0308680Y0188419D02*
X0325561Y0188419D01*
X0325561Y0189017D02*
X0318713Y0189017D01*
X0319312Y0189616D02*
X0325561Y0189616D01*
X0325561Y0190214D02*
X0319910Y0190214D01*
X0320509Y0190813D02*
X0325561Y0190813D01*
X0325561Y0191411D02*
X0320761Y0191411D01*
X0320761Y0192010D02*
X0325561Y0192010D01*
X0325561Y0192608D02*
X0320761Y0192608D01*
X0320761Y0193207D02*
X0325561Y0193207D01*
X0325561Y0193805D02*
X0320761Y0193805D01*
X0320652Y0194404D02*
X0325561Y0194404D01*
X0325561Y0195003D02*
X0320054Y0195003D01*
X0319455Y0195601D02*
X0325561Y0195601D01*
X0325561Y0196200D02*
X0318857Y0196200D01*
X0318476Y0198780D02*
X0315245Y0198780D01*
X0312961Y0201065D01*
X0312961Y0204296D01*
X0315245Y0206580D01*
X0318476Y0206580D01*
X0320761Y0204296D01*
X0320761Y0201065D01*
X0318476Y0198780D01*
X0318888Y0199192D02*
X0325561Y0199192D01*
X0325561Y0198594D02*
X0308855Y0198594D01*
X0308642Y0198380D02*
X0311161Y0200899D01*
X0311161Y0202380D01*
X0307161Y0202380D01*
X0307161Y0202980D01*
X0311161Y0202980D01*
X0311161Y0204461D01*
X0308642Y0206980D01*
X0307161Y0206980D01*
X0307161Y0202980D01*
X0306561Y0202980D01*
X0306561Y0202380D01*
X0307161Y0202380D01*
X0307161Y0198380D01*
X0308642Y0198380D01*
X0309454Y0199192D02*
X0314833Y0199192D01*
X0314235Y0199791D02*
X0310052Y0199791D01*
X0310651Y0200389D02*
X0313636Y0200389D01*
X0313038Y0200988D02*
X0311161Y0200988D01*
X0311161Y0201586D02*
X0312961Y0201586D01*
X0312961Y0202185D02*
X0311161Y0202185D01*
X0311161Y0203382D02*
X0312961Y0203382D01*
X0312961Y0203980D02*
X0311161Y0203980D01*
X0311043Y0204579D02*
X0313244Y0204579D01*
X0313842Y0205177D02*
X0310445Y0205177D01*
X0309846Y0205776D02*
X0314441Y0205776D01*
X0315039Y0206374D02*
X0309248Y0206374D01*
X0308649Y0206973D02*
X0325561Y0206973D01*
X0325561Y0207571D02*
X0262687Y0207571D01*
X0263285Y0208170D02*
X0325561Y0208170D01*
X0325561Y0208768D02*
X0263600Y0208768D01*
X0263600Y0208485D02*
X0261315Y0206200D01*
X0258085Y0206200D01*
X0255800Y0208485D01*
X0255800Y0211715D01*
X0258085Y0214000D01*
X0261315Y0214000D01*
X0263600Y0211715D01*
X0263600Y0208485D01*
X0263600Y0209367D02*
X0325561Y0209367D01*
X0325561Y0209965D02*
X0263600Y0209965D01*
X0263600Y0210564D02*
X0325561Y0210564D01*
X0325561Y0211162D02*
X0263600Y0211162D01*
X0263555Y0211761D02*
X0325561Y0211761D01*
X0325561Y0212359D02*
X0262956Y0212359D01*
X0262358Y0212958D02*
X0325561Y0212958D01*
X0325561Y0213556D02*
X0261759Y0213556D01*
X0257641Y0213556D02*
X0077370Y0213556D01*
X0077306Y0213709D02*
X0076209Y0214806D01*
X0074776Y0215400D01*
X0067224Y0215400D01*
X0065791Y0214806D01*
X0064694Y0213709D01*
X0064100Y0212276D01*
X0064100Y0210724D01*
X0064694Y0209291D01*
X0065791Y0208194D01*
X0067224Y0207600D01*
X0074776Y0207600D01*
X0076209Y0208194D01*
X0077306Y0209291D01*
X0077900Y0210724D01*
X0077900Y0212276D01*
X0077306Y0213709D01*
X0076861Y0214155D02*
X0325561Y0214155D01*
X0325561Y0214753D02*
X0076262Y0214753D01*
X0074892Y0215352D02*
X0325561Y0215352D01*
X0325561Y0215950D02*
X0043081Y0215950D01*
X0043081Y0216549D02*
X0325561Y0216549D01*
X0325561Y0217147D02*
X0043081Y0217147D01*
X0043081Y0217746D02*
X0066872Y0217746D01*
X0067224Y0217600D02*
X0065791Y0218194D01*
X0064694Y0219291D01*
X0064100Y0220724D01*
X0064100Y0222276D01*
X0064694Y0223709D01*
X0065791Y0224806D01*
X0067224Y0225400D01*
X0074776Y0225400D01*
X0076209Y0224806D01*
X0077306Y0223709D01*
X0077900Y0222276D01*
X0077900Y0220724D01*
X0077306Y0219291D01*
X0076209Y0218194D01*
X0074776Y0217600D01*
X0067224Y0217600D01*
X0065640Y0218344D02*
X0043081Y0218344D01*
X0043081Y0218943D02*
X0065042Y0218943D01*
X0064590Y0219541D02*
X0043081Y0219541D01*
X0042795Y0220140D02*
X0064342Y0220140D01*
X0064100Y0220739D02*
X0035454Y0220739D01*
X0035761Y0221337D02*
X0064100Y0221337D01*
X0064100Y0221936D02*
X0035761Y0221936D01*
X0035761Y0222534D02*
X0064207Y0222534D01*
X0064455Y0223133D02*
X0035761Y0223133D01*
X0035761Y0223731D02*
X0064716Y0223731D01*
X0065314Y0224330D02*
X0035707Y0224330D01*
X0035109Y0224928D02*
X0066085Y0224928D01*
X0075915Y0224928D02*
X0325561Y0224928D01*
X0325561Y0224330D02*
X0076686Y0224330D01*
X0077284Y0223731D02*
X0325561Y0223731D01*
X0325561Y0223133D02*
X0077545Y0223133D01*
X0077793Y0222534D02*
X0325561Y0222534D01*
X0325561Y0221936D02*
X0077900Y0221936D01*
X0077900Y0221337D02*
X0325561Y0221337D01*
X0325561Y0220739D02*
X0077900Y0220739D01*
X0077658Y0220140D02*
X0325561Y0220140D01*
X0325561Y0219541D02*
X0077410Y0219541D01*
X0076958Y0218943D02*
X0325561Y0218943D01*
X0325561Y0218344D02*
X0076360Y0218344D01*
X0075128Y0217746D02*
X0325561Y0217746D01*
X0325561Y0206374D02*
X0318682Y0206374D01*
X0319281Y0205776D02*
X0325561Y0205776D01*
X0325561Y0205177D02*
X0319879Y0205177D01*
X0320478Y0204579D02*
X0325561Y0204579D01*
X0325561Y0203980D02*
X0320761Y0203980D01*
X0320761Y0203382D02*
X0325561Y0203382D01*
X0325561Y0202783D02*
X0320761Y0202783D01*
X0320761Y0202185D02*
X0325561Y0202185D01*
X0325561Y0201586D02*
X0320761Y0201586D01*
X0320683Y0200988D02*
X0325561Y0200988D01*
X0325561Y0200389D02*
X0320085Y0200389D01*
X0319486Y0199791D02*
X0325561Y0199791D01*
X0325561Y0197995D02*
X0262520Y0197995D01*
X0261922Y0198594D02*
X0304866Y0198594D01*
X0305080Y0198380D02*
X0302561Y0200899D01*
X0302561Y0202380D01*
X0306561Y0202380D01*
X0306561Y0198380D01*
X0305080Y0198380D01*
X0304268Y0199192D02*
X0300645Y0199192D01*
X0300761Y0199308D02*
X0300761Y0206053D01*
X0300233Y0206580D01*
X0293488Y0206580D01*
X0292961Y0206053D01*
X0292961Y0199308D01*
X0293488Y0198780D01*
X0300233Y0198780D01*
X0300761Y0199308D01*
X0300761Y0199791D02*
X0303669Y0199791D01*
X0303071Y0200389D02*
X0300761Y0200389D01*
X0300761Y0200988D02*
X0302561Y0200988D01*
X0302561Y0201586D02*
X0300761Y0201586D01*
X0300761Y0202185D02*
X0302561Y0202185D01*
X0302561Y0202980D02*
X0306561Y0202980D01*
X0306561Y0206980D01*
X0305080Y0206980D01*
X0302561Y0204461D01*
X0302561Y0202980D01*
X0302561Y0203382D02*
X0300761Y0203382D01*
X0300761Y0203980D02*
X0302561Y0203980D01*
X0302678Y0204579D02*
X0300761Y0204579D01*
X0300761Y0205177D02*
X0303276Y0205177D01*
X0303875Y0205776D02*
X0300761Y0205776D01*
X0300439Y0206374D02*
X0304473Y0206374D01*
X0305072Y0206973D02*
X0262088Y0206973D01*
X0261490Y0206374D02*
X0293282Y0206374D01*
X0292961Y0205776D02*
X0254540Y0205776D01*
X0255138Y0205177D02*
X0292961Y0205177D01*
X0292961Y0204579D02*
X0255737Y0204579D01*
X0256100Y0204215D02*
X0253815Y0206500D01*
X0250585Y0206500D01*
X0248300Y0204215D01*
X0248300Y0200985D01*
X0250585Y0198700D01*
X0253815Y0198700D01*
X0256100Y0200985D01*
X0256100Y0204215D01*
X0256100Y0203980D02*
X0292961Y0203980D01*
X0292961Y0203382D02*
X0256100Y0203382D01*
X0256100Y0202783D02*
X0292961Y0202783D01*
X0292961Y0202185D02*
X0256100Y0202185D01*
X0256100Y0201586D02*
X0292961Y0201586D01*
X0292961Y0200988D02*
X0256100Y0200988D01*
X0255505Y0200389D02*
X0292961Y0200389D01*
X0292961Y0199791D02*
X0254906Y0199791D01*
X0254308Y0199192D02*
X0293076Y0199192D01*
X0300761Y0202783D02*
X0306561Y0202783D01*
X0306561Y0202185D02*
X0307161Y0202185D01*
X0307161Y0202783D02*
X0312961Y0202783D01*
X0308824Y0196798D02*
X0325561Y0196798D01*
X0325561Y0197397D02*
X0263119Y0197397D01*
X0257678Y0198594D02*
X0076609Y0198594D01*
X0077208Y0199192D02*
X0250092Y0199192D01*
X0249494Y0199791D02*
X0077513Y0199791D01*
X0077761Y0200389D02*
X0248895Y0200389D01*
X0248300Y0200988D02*
X0077900Y0200988D01*
X0077900Y0201586D02*
X0248300Y0201586D01*
X0248300Y0202185D02*
X0077900Y0202185D01*
X0077690Y0202783D02*
X0248300Y0202783D01*
X0248300Y0203382D02*
X0077442Y0203382D01*
X0077035Y0203980D02*
X0248300Y0203980D01*
X0248663Y0204579D02*
X0076437Y0204579D01*
X0075314Y0205177D02*
X0249262Y0205177D01*
X0249860Y0205776D02*
X0043081Y0205776D01*
X0043081Y0206374D02*
X0250459Y0206374D01*
X0253941Y0206374D02*
X0257910Y0206374D01*
X0257312Y0206973D02*
X0042500Y0206973D01*
X0042500Y0207571D02*
X0256713Y0207571D01*
X0256115Y0208170D02*
X0076151Y0208170D01*
X0076784Y0208768D02*
X0255800Y0208768D01*
X0255800Y0209367D02*
X0077338Y0209367D01*
X0077586Y0209965D02*
X0255800Y0209965D01*
X0255800Y0210564D02*
X0077834Y0210564D01*
X0077900Y0211162D02*
X0255800Y0211162D01*
X0255845Y0211761D02*
X0077900Y0211761D01*
X0077865Y0212359D02*
X0256444Y0212359D01*
X0257042Y0212958D02*
X0077617Y0212958D01*
X0067108Y0215352D02*
X0042887Y0215352D01*
X0042500Y0214753D02*
X0065738Y0214753D01*
X0065139Y0214155D02*
X0042500Y0214155D01*
X0042500Y0213556D02*
X0064630Y0213556D01*
X0064383Y0212958D02*
X0042500Y0212958D01*
X0042500Y0212359D02*
X0064135Y0212359D01*
X0064100Y0211761D02*
X0042500Y0211761D01*
X0042500Y0211162D02*
X0064100Y0211162D01*
X0064166Y0210564D02*
X0042500Y0210564D01*
X0042500Y0209965D02*
X0064414Y0209965D01*
X0064662Y0209367D02*
X0042500Y0209367D01*
X0042500Y0208768D02*
X0065216Y0208768D01*
X0065849Y0208170D02*
X0042500Y0208170D01*
X0043081Y0205177D02*
X0066686Y0205177D01*
X0065563Y0204579D02*
X0043081Y0204579D01*
X0043081Y0203980D02*
X0064965Y0203980D01*
X0064558Y0203382D02*
X0043081Y0203382D01*
X0043081Y0202783D02*
X0064310Y0202783D01*
X0064100Y0202185D02*
X0043081Y0202185D01*
X0037719Y0202185D02*
X0035761Y0202185D01*
X0035761Y0202783D02*
X0037719Y0202783D01*
X0037719Y0203382D02*
X0035761Y0203382D01*
X0035761Y0203980D02*
X0037719Y0203980D01*
X0037719Y0204579D02*
X0035761Y0204579D01*
X0035761Y0205177D02*
X0037719Y0205177D01*
X0037719Y0205776D02*
X0035761Y0205776D01*
X0035420Y0206374D02*
X0037719Y0206374D01*
X0038300Y0206973D02*
X0013200Y0206973D01*
X0013200Y0207571D02*
X0038300Y0207571D01*
X0035761Y0201586D02*
X0064100Y0201586D01*
X0064100Y0200988D02*
X0035761Y0200988D01*
X0035761Y0200389D02*
X0064239Y0200389D01*
X0064487Y0199791D02*
X0035761Y0199791D01*
X0035665Y0199192D02*
X0064792Y0199192D01*
X0075730Y0197995D02*
X0257080Y0197995D01*
X0256240Y0178244D02*
X0013200Y0178244D01*
X0013200Y0177646D02*
X0256839Y0177646D01*
X0257437Y0177047D02*
X0013200Y0177047D01*
X0013200Y0176449D02*
X0019568Y0176449D01*
X0020080Y0176961D02*
X0017561Y0174442D01*
X0017561Y0172961D01*
X0021561Y0172961D01*
X0021561Y0176961D01*
X0020080Y0176961D01*
X0021561Y0176449D02*
X0022161Y0176449D01*
X0022161Y0176961D02*
X0022161Y0172961D01*
X0021561Y0172961D01*
X0021561Y0172361D01*
X0017561Y0172361D01*
X0017561Y0170880D01*
X0020080Y0168361D01*
X0021561Y0168361D01*
X0021561Y0172361D01*
X0022161Y0172361D01*
X0022161Y0172961D01*
X0026161Y0172961D01*
X0026161Y0174442D01*
X0023642Y0176961D01*
X0022161Y0176961D01*
X0022161Y0175850D02*
X0021561Y0175850D01*
X0021561Y0175252D02*
X0022161Y0175252D01*
X0022161Y0174653D02*
X0021561Y0174653D01*
X0021561Y0174055D02*
X0022161Y0174055D01*
X0022161Y0173456D02*
X0021561Y0173456D01*
X0021561Y0172858D02*
X0013200Y0172858D01*
X0013200Y0173456D02*
X0017561Y0173456D01*
X0017561Y0174055D02*
X0013200Y0174055D01*
X0013200Y0174653D02*
X0017772Y0174653D01*
X0018371Y0175252D02*
X0013200Y0175252D01*
X0013200Y0175850D02*
X0018969Y0175850D01*
X0020245Y0178761D02*
X0017961Y0181045D01*
X0017961Y0184276D01*
X0020245Y0186561D01*
X0023476Y0186561D01*
X0025761Y0184276D01*
X0025761Y0181045D01*
X0023476Y0178761D01*
X0020245Y0178761D01*
X0020163Y0178843D02*
X0013200Y0178843D01*
X0013200Y0179441D02*
X0019565Y0179441D01*
X0018966Y0180040D02*
X0013200Y0180040D01*
X0013200Y0180638D02*
X0018368Y0180638D01*
X0017961Y0181237D02*
X0013200Y0181237D01*
X0013200Y0181835D02*
X0017961Y0181835D01*
X0017961Y0182434D02*
X0013200Y0182434D01*
X0013200Y0183032D02*
X0017961Y0183032D01*
X0017961Y0183631D02*
X0013200Y0183631D01*
X0013200Y0184229D02*
X0017961Y0184229D01*
X0018512Y0184828D02*
X0013200Y0184828D01*
X0013200Y0185426D02*
X0019111Y0185426D01*
X0019709Y0186025D02*
X0013200Y0186025D01*
X0024012Y0186025D02*
X0029709Y0186025D01*
X0029111Y0185426D02*
X0024610Y0185426D01*
X0025209Y0184828D02*
X0028512Y0184828D01*
X0027961Y0184229D02*
X0025761Y0184229D01*
X0025761Y0183631D02*
X0027961Y0183631D01*
X0027961Y0183032D02*
X0025761Y0183032D01*
X0025761Y0182434D02*
X0027961Y0182434D01*
X0027961Y0181835D02*
X0025761Y0181835D01*
X0025761Y0181237D02*
X0027961Y0181237D01*
X0028368Y0180638D02*
X0025354Y0180638D01*
X0024755Y0180040D02*
X0028966Y0180040D01*
X0029565Y0179441D02*
X0024157Y0179441D01*
X0023558Y0178843D02*
X0030163Y0178843D01*
X0030133Y0176449D02*
X0024154Y0176449D01*
X0024752Y0175850D02*
X0029535Y0175850D01*
X0028936Y0175252D02*
X0025351Y0175252D01*
X0025949Y0174653D02*
X0028338Y0174653D01*
X0027961Y0174055D02*
X0026161Y0174055D01*
X0026161Y0173456D02*
X0027961Y0173456D01*
X0027961Y0172858D02*
X0022161Y0172858D01*
X0022161Y0172361D02*
X0026161Y0172361D01*
X0026161Y0170880D01*
X0023642Y0168361D01*
X0022161Y0168361D01*
X0022161Y0172361D01*
X0022161Y0172259D02*
X0021561Y0172259D01*
X0021561Y0171661D02*
X0022161Y0171661D01*
X0022161Y0171062D02*
X0021561Y0171062D01*
X0021561Y0170464D02*
X0022161Y0170464D01*
X0022161Y0169865D02*
X0021561Y0169865D01*
X0021561Y0169267D02*
X0022161Y0169267D01*
X0022161Y0168668D02*
X0021561Y0168668D01*
X0019772Y0168668D02*
X0013200Y0168668D01*
X0013200Y0168070D02*
X0325561Y0168070D01*
X0325561Y0168668D02*
X0023949Y0168668D01*
X0024548Y0169267D02*
X0029739Y0169267D01*
X0029141Y0169865D02*
X0025146Y0169865D01*
X0025745Y0170464D02*
X0028542Y0170464D01*
X0027961Y0171062D02*
X0026161Y0171062D01*
X0026161Y0171661D02*
X0027961Y0171661D01*
X0027961Y0172259D02*
X0026161Y0172259D01*
X0023476Y0166561D02*
X0020245Y0166561D01*
X0017961Y0164276D01*
X0017961Y0161045D01*
X0020245Y0158761D01*
X0023476Y0158761D01*
X0025761Y0161045D01*
X0025761Y0164276D01*
X0023476Y0166561D01*
X0023763Y0166274D02*
X0029959Y0166274D01*
X0030245Y0166561D02*
X0027961Y0164276D01*
X0027961Y0161045D01*
X0030245Y0158761D01*
X0033476Y0158761D01*
X0035761Y0161045D01*
X0035761Y0164276D01*
X0033476Y0166561D01*
X0030245Y0166561D01*
X0029360Y0165675D02*
X0024361Y0165675D01*
X0024960Y0165077D02*
X0028762Y0165077D01*
X0028163Y0164478D02*
X0025558Y0164478D01*
X0025761Y0163880D02*
X0027961Y0163880D01*
X0027961Y0163281D02*
X0025761Y0163281D01*
X0025761Y0162683D02*
X0027961Y0162683D01*
X0027961Y0162084D02*
X0025761Y0162084D01*
X0025761Y0161486D02*
X0027961Y0161486D01*
X0028118Y0160887D02*
X0025603Y0160887D01*
X0025004Y0160289D02*
X0028717Y0160289D01*
X0029315Y0159690D02*
X0024406Y0159690D01*
X0023807Y0159092D02*
X0029914Y0159092D01*
X0030245Y0156561D02*
X0027961Y0154276D01*
X0027961Y0151045D01*
X0030245Y0148761D01*
X0033476Y0148761D01*
X0035761Y0151045D01*
X0035761Y0154276D01*
X0033476Y0156561D01*
X0030245Y0156561D01*
X0029784Y0156099D02*
X0023937Y0156099D01*
X0023476Y0156561D02*
X0020245Y0156561D01*
X0017961Y0154276D01*
X0017961Y0151045D01*
X0020245Y0148761D01*
X0023476Y0148761D01*
X0025761Y0151045D01*
X0025761Y0154276D01*
X0023476Y0156561D01*
X0024536Y0155501D02*
X0029185Y0155501D01*
X0028587Y0154902D02*
X0025134Y0154902D01*
X0025733Y0154304D02*
X0027988Y0154304D01*
X0027961Y0153705D02*
X0025761Y0153705D01*
X0025761Y0153107D02*
X0027961Y0153107D01*
X0027961Y0152508D02*
X0025761Y0152508D01*
X0025761Y0151910D02*
X0027961Y0151910D01*
X0027961Y0151311D02*
X0025761Y0151311D01*
X0025428Y0150713D02*
X0028293Y0150713D01*
X0028892Y0150114D02*
X0024830Y0150114D01*
X0024231Y0149516D02*
X0029490Y0149516D01*
X0030089Y0148917D02*
X0023633Y0148917D01*
X0023476Y0146561D02*
X0020245Y0146561D01*
X0017961Y0144276D01*
X0017961Y0141045D01*
X0020245Y0138761D01*
X0023476Y0138761D01*
X0025761Y0141045D01*
X0025761Y0144276D01*
X0023476Y0146561D01*
X0023514Y0146523D02*
X0030208Y0146523D01*
X0030245Y0146561D02*
X0027961Y0144276D01*
X0027961Y0141045D01*
X0030245Y0138761D01*
X0033476Y0138761D01*
X0035761Y0141045D01*
X0035761Y0144276D01*
X0033476Y0146561D01*
X0030245Y0146561D01*
X0029609Y0145925D02*
X0024112Y0145925D01*
X0024711Y0145326D02*
X0029011Y0145326D01*
X0028412Y0144728D02*
X0025309Y0144728D01*
X0025761Y0144129D02*
X0027961Y0144129D01*
X0027961Y0143531D02*
X0025761Y0143531D01*
X0025761Y0142932D02*
X0027961Y0142932D01*
X0027961Y0142334D02*
X0025761Y0142334D01*
X0025761Y0141735D02*
X0027961Y0141735D01*
X0027961Y0141137D02*
X0025761Y0141137D01*
X0025253Y0140538D02*
X0028468Y0140538D01*
X0029066Y0139939D02*
X0024655Y0139939D01*
X0024056Y0139341D02*
X0029665Y0139341D01*
X0030245Y0136561D02*
X0027961Y0134276D01*
X0027961Y0131045D01*
X0030245Y0128761D01*
X0033476Y0128761D01*
X0035761Y0131045D01*
X0035761Y0134276D01*
X0033476Y0136561D01*
X0030245Y0136561D01*
X0030033Y0136348D02*
X0023688Y0136348D01*
X0023476Y0136561D02*
X0020245Y0136561D01*
X0017961Y0134276D01*
X0017961Y0131045D01*
X0020245Y0128761D01*
X0023476Y0128761D01*
X0025761Y0131045D01*
X0025761Y0134276D01*
X0023476Y0136561D01*
X0024287Y0135750D02*
X0029434Y0135750D01*
X0028836Y0135151D02*
X0024885Y0135151D01*
X0025484Y0134553D02*
X0028237Y0134553D01*
X0027961Y0133954D02*
X0025761Y0133954D01*
X0025761Y0133356D02*
X0027961Y0133356D01*
X0027961Y0132757D02*
X0025761Y0132757D01*
X0025761Y0132159D02*
X0027961Y0132159D01*
X0027961Y0131560D02*
X0025761Y0131560D01*
X0025677Y0130962D02*
X0028044Y0130962D01*
X0028643Y0130363D02*
X0025079Y0130363D01*
X0024480Y0129765D02*
X0029241Y0129765D01*
X0029840Y0129166D02*
X0023882Y0129166D01*
X0023476Y0126561D02*
X0020245Y0126561D01*
X0017961Y0124276D01*
X0017961Y0121045D01*
X0020245Y0118761D01*
X0023476Y0118761D01*
X0025761Y0121045D01*
X0025761Y0124276D01*
X0023476Y0126561D01*
X0023863Y0126174D02*
X0029858Y0126174D01*
X0030245Y0126561D02*
X0027961Y0124276D01*
X0027961Y0121045D01*
X0030245Y0118761D01*
X0033476Y0118761D01*
X0035761Y0121045D01*
X0035761Y0124276D01*
X0033476Y0126561D01*
X0030245Y0126561D01*
X0029260Y0125575D02*
X0024461Y0125575D01*
X0025060Y0124977D02*
X0028661Y0124977D01*
X0028063Y0124378D02*
X0025658Y0124378D01*
X0025761Y0123780D02*
X0027961Y0123780D01*
X0027961Y0123181D02*
X0025761Y0123181D01*
X0025761Y0122583D02*
X0027961Y0122583D01*
X0027961Y0121984D02*
X0025761Y0121984D01*
X0025761Y0121386D02*
X0027961Y0121386D01*
X0028219Y0120787D02*
X0025503Y0120787D01*
X0024904Y0120189D02*
X0028817Y0120189D01*
X0029416Y0119590D02*
X0024306Y0119590D01*
X0023707Y0118992D02*
X0030014Y0118992D01*
X0030245Y0116561D02*
X0027961Y0114276D01*
X0027961Y0111045D01*
X0030245Y0108761D01*
X0033476Y0108761D01*
X0035761Y0111045D01*
X0035761Y0114276D01*
X0033476Y0116561D01*
X0030245Y0116561D01*
X0029684Y0115999D02*
X0024038Y0115999D01*
X0023476Y0116561D02*
X0020245Y0116561D01*
X0017961Y0114276D01*
X0017961Y0111045D01*
X0020245Y0108761D01*
X0023476Y0108761D01*
X0025761Y0111045D01*
X0025761Y0114276D01*
X0023476Y0116561D01*
X0024636Y0115401D02*
X0029085Y0115401D01*
X0028487Y0114802D02*
X0025235Y0114802D01*
X0025761Y0114203D02*
X0027961Y0114203D01*
X0027961Y0113605D02*
X0025761Y0113605D01*
X0025761Y0113006D02*
X0027961Y0113006D01*
X0027961Y0112408D02*
X0025761Y0112408D01*
X0025761Y0111809D02*
X0027961Y0111809D01*
X0027961Y0111211D02*
X0025761Y0111211D01*
X0025328Y0110612D02*
X0028393Y0110612D01*
X0028992Y0110014D02*
X0024729Y0110014D01*
X0024131Y0109415D02*
X0029590Y0109415D01*
X0030189Y0108817D02*
X0023532Y0108817D01*
X0023476Y0106561D02*
X0020245Y0106561D01*
X0017961Y0104276D01*
X0017961Y0101045D01*
X0020245Y0098761D01*
X0023476Y0098761D01*
X0025761Y0101045D01*
X0025761Y0104276D01*
X0023476Y0106561D01*
X0023614Y0106423D02*
X0030107Y0106423D01*
X0030245Y0106561D02*
X0027961Y0104276D01*
X0027961Y0101045D01*
X0030245Y0098761D01*
X0033476Y0098761D01*
X0035761Y0101045D01*
X0035761Y0104276D01*
X0033476Y0106561D01*
X0030245Y0106561D01*
X0029509Y0105824D02*
X0024212Y0105824D01*
X0024811Y0105226D02*
X0028910Y0105226D01*
X0028312Y0104627D02*
X0025409Y0104627D01*
X0025761Y0104029D02*
X0027961Y0104029D01*
X0027961Y0103430D02*
X0025761Y0103430D01*
X0025761Y0102832D02*
X0027961Y0102832D01*
X0027961Y0102233D02*
X0025761Y0102233D01*
X0025761Y0101635D02*
X0027961Y0101635D01*
X0027970Y0101036D02*
X0025752Y0101036D01*
X0025153Y0100438D02*
X0028568Y0100438D01*
X0029167Y0099839D02*
X0024555Y0099839D01*
X0023956Y0099241D02*
X0029765Y0099241D01*
X0028488Y0096561D02*
X0027961Y0096033D01*
X0027961Y0089288D01*
X0028488Y0088761D01*
X0035233Y0088761D01*
X0035761Y0089288D01*
X0035761Y0096033D01*
X0035233Y0096561D01*
X0028488Y0096561D01*
X0028175Y0096248D02*
X0023789Y0096248D01*
X0023476Y0096561D02*
X0020245Y0096561D01*
X0017961Y0094276D01*
X0017961Y0091045D01*
X0020245Y0088761D01*
X0023476Y0088761D01*
X0025761Y0091045D01*
X0025761Y0094276D01*
X0023476Y0096561D01*
X0024387Y0095650D02*
X0027961Y0095650D01*
X0027961Y0095051D02*
X0024986Y0095051D01*
X0025584Y0094453D02*
X0027961Y0094453D01*
X0027961Y0093854D02*
X0025761Y0093854D01*
X0025761Y0093256D02*
X0027961Y0093256D01*
X0027961Y0092657D02*
X0025761Y0092657D01*
X0025761Y0092059D02*
X0027961Y0092059D01*
X0027961Y0091460D02*
X0025761Y0091460D01*
X0025577Y0090862D02*
X0027961Y0090862D01*
X0027961Y0090263D02*
X0024978Y0090263D01*
X0024380Y0089665D02*
X0027961Y0089665D01*
X0028182Y0089066D02*
X0023781Y0089066D01*
X0019940Y0089066D02*
X0013200Y0089066D01*
X0013200Y0088468D02*
X0325561Y0088468D01*
X0325561Y0089066D02*
X0035539Y0089066D01*
X0035761Y0089665D02*
X0068731Y0089665D01*
X0068997Y0089529D02*
X0068282Y0089893D01*
X0067633Y0090365D01*
X0067065Y0090933D01*
X0066593Y0091582D01*
X0066229Y0092297D01*
X0065981Y0093061D01*
X0065855Y0093854D01*
X0035761Y0093854D01*
X0035761Y0093256D02*
X0065950Y0093256D01*
X0065855Y0093854D02*
X0065855Y0093955D01*
X0070655Y0093955D01*
X0071255Y0093955D01*
X0071255Y0089155D01*
X0071356Y0089155D01*
X0072149Y0089281D01*
X0072913Y0089529D01*
X0073628Y0089893D01*
X0074278Y0090365D01*
X0074845Y0090933D01*
X0075317Y0091582D01*
X0075681Y0092297D01*
X0075930Y0093061D01*
X0076055Y0093854D01*
X0262706Y0093854D01*
X0262831Y0093061D01*
X0263079Y0092297D01*
X0263444Y0091582D01*
X0263915Y0090933D01*
X0264483Y0090365D01*
X0265133Y0089893D01*
X0265848Y0089529D01*
X0266611Y0089281D01*
X0267404Y0089155D01*
X0267506Y0089155D01*
X0267506Y0093955D01*
X0268105Y0093955D01*
X0268105Y0089155D01*
X0268207Y0089155D01*
X0269000Y0089281D01*
X0269763Y0089529D01*
X0270478Y0089893D01*
X0271128Y0090365D01*
X0271696Y0090933D01*
X0272167Y0091582D01*
X0272532Y0092297D01*
X0272780Y0093061D01*
X0272905Y0093854D01*
X0325561Y0093854D01*
X0325561Y0093256D02*
X0272811Y0093256D01*
X0272905Y0093854D02*
X0272905Y0093955D01*
X0268106Y0093955D01*
X0268106Y0094555D01*
X0272905Y0094555D01*
X0272905Y0094656D01*
X0272780Y0095449D01*
X0272532Y0096213D01*
X0272167Y0096928D01*
X0271696Y0097578D01*
X0271128Y0098145D01*
X0270478Y0098617D01*
X0269763Y0098981D01*
X0269000Y0099230D01*
X0268207Y0099355D01*
X0268105Y0099355D01*
X0268105Y0094555D01*
X0267506Y0094555D01*
X0267506Y0099355D01*
X0267404Y0099355D01*
X0266611Y0099230D01*
X0265848Y0098981D01*
X0265133Y0098617D01*
X0264483Y0098145D01*
X0263915Y0097578D01*
X0263444Y0096928D01*
X0263079Y0096213D01*
X0262831Y0095449D01*
X0262706Y0094656D01*
X0262706Y0094555D01*
X0267505Y0094555D01*
X0267505Y0093955D01*
X0262706Y0093955D01*
X0262706Y0093854D01*
X0262800Y0093256D02*
X0075960Y0093256D01*
X0076055Y0093854D02*
X0076055Y0093955D01*
X0071255Y0093955D01*
X0071255Y0094555D01*
X0076055Y0094555D01*
X0076055Y0094656D01*
X0075930Y0095449D01*
X0075681Y0096213D01*
X0075317Y0096928D01*
X0074845Y0097578D01*
X0074278Y0098145D01*
X0073628Y0098617D01*
X0072913Y0098981D01*
X0072149Y0099230D01*
X0071356Y0099355D01*
X0071255Y0099355D01*
X0071255Y0094555D01*
X0070655Y0094555D01*
X0070655Y0093955D01*
X0070655Y0089155D01*
X0070554Y0089155D01*
X0069761Y0089281D01*
X0068997Y0089529D01*
X0067773Y0090263D02*
X0035761Y0090263D01*
X0035761Y0090862D02*
X0067136Y0090862D01*
X0066682Y0091460D02*
X0035761Y0091460D01*
X0035761Y0092059D02*
X0066350Y0092059D01*
X0066112Y0092657D02*
X0035761Y0092657D01*
X0035761Y0094453D02*
X0070655Y0094453D01*
X0070655Y0094555D02*
X0065855Y0094555D01*
X0065855Y0094656D01*
X0065981Y0095449D01*
X0066229Y0096213D01*
X0066593Y0096928D01*
X0067065Y0097578D01*
X0067633Y0098145D01*
X0068282Y0098617D01*
X0068997Y0098981D01*
X0069761Y0099230D01*
X0070554Y0099355D01*
X0070655Y0099355D01*
X0070655Y0094555D01*
X0070655Y0095051D02*
X0071255Y0095051D01*
X0071255Y0094453D02*
X0267505Y0094453D01*
X0267506Y0095051D02*
X0268105Y0095051D01*
X0268106Y0094453D02*
X0325561Y0094453D01*
X0325561Y0095051D02*
X0272843Y0095051D01*
X0272715Y0095650D02*
X0325561Y0095650D01*
X0325561Y0096248D02*
X0272514Y0096248D01*
X0272209Y0096847D02*
X0325561Y0096847D01*
X0325561Y0097445D02*
X0271792Y0097445D01*
X0271229Y0098044D02*
X0325561Y0098044D01*
X0325561Y0098642D02*
X0270429Y0098642D01*
X0268929Y0099241D02*
X0325561Y0099241D01*
X0325561Y0099839D02*
X0034555Y0099839D01*
X0035153Y0100438D02*
X0325561Y0100438D01*
X0325561Y0101036D02*
X0035752Y0101036D01*
X0035761Y0101635D02*
X0325561Y0101635D01*
X0325561Y0102233D02*
X0035761Y0102233D01*
X0035761Y0102832D02*
X0325561Y0102832D01*
X0325561Y0103430D02*
X0035761Y0103430D01*
X0035761Y0104029D02*
X0325561Y0104029D01*
X0325561Y0104627D02*
X0035409Y0104627D01*
X0034811Y0105226D02*
X0325561Y0105226D01*
X0325561Y0105824D02*
X0034212Y0105824D01*
X0033614Y0106423D02*
X0325561Y0106423D01*
X0325561Y0107021D02*
X0013200Y0107021D01*
X0013200Y0106423D02*
X0020107Y0106423D01*
X0019509Y0105824D02*
X0013200Y0105824D01*
X0013200Y0105226D02*
X0018910Y0105226D01*
X0018312Y0104627D02*
X0013200Y0104627D01*
X0013200Y0104029D02*
X0017961Y0104029D01*
X0017961Y0103430D02*
X0013200Y0103430D01*
X0013200Y0102832D02*
X0017961Y0102832D01*
X0017961Y0102233D02*
X0013200Y0102233D01*
X0013200Y0101635D02*
X0017961Y0101635D01*
X0017970Y0101036D02*
X0013200Y0101036D01*
X0013200Y0100438D02*
X0018568Y0100438D01*
X0019167Y0099839D02*
X0013200Y0099839D01*
X0013200Y0099241D02*
X0019765Y0099241D01*
X0019933Y0096248D02*
X0013200Y0096248D01*
X0013200Y0095650D02*
X0019334Y0095650D01*
X0018736Y0095051D02*
X0013200Y0095051D01*
X0013200Y0094453D02*
X0018137Y0094453D01*
X0017961Y0093854D02*
X0013200Y0093854D01*
X0013200Y0093256D02*
X0017961Y0093256D01*
X0017961Y0092657D02*
X0013200Y0092657D01*
X0013200Y0092059D02*
X0017961Y0092059D01*
X0017961Y0091460D02*
X0013200Y0091460D01*
X0013200Y0090862D02*
X0018144Y0090862D01*
X0018743Y0090263D02*
X0013200Y0090263D01*
X0013200Y0089665D02*
X0019341Y0089665D01*
X0013200Y0087869D02*
X0325561Y0087869D01*
X0325561Y0087270D02*
X0013200Y0087270D01*
X0013200Y0086672D02*
X0325561Y0086672D01*
X0325561Y0086073D02*
X0013200Y0086073D01*
X0013200Y0085475D02*
X0325561Y0085475D01*
X0325561Y0084876D02*
X0013200Y0084876D01*
X0013200Y0084278D02*
X0325561Y0084278D01*
X0325561Y0083679D02*
X0013200Y0083679D01*
X0013200Y0083081D02*
X0325561Y0083081D01*
X0325561Y0082482D02*
X0013200Y0082482D01*
X0013200Y0081884D02*
X0325561Y0081884D01*
X0325561Y0081285D02*
X0013200Y0081285D01*
X0013200Y0080687D02*
X0325561Y0080687D01*
X0325561Y0080088D02*
X0013200Y0080088D01*
X0013200Y0079490D02*
X0325561Y0079490D01*
X0325561Y0078891D02*
X0013200Y0078891D01*
X0013200Y0078293D02*
X0325561Y0078293D01*
X0325561Y0077694D02*
X0013200Y0077694D01*
X0013200Y0077096D02*
X0325561Y0077096D01*
X0325561Y0076497D02*
X0013200Y0076497D01*
X0013200Y0075899D02*
X0325561Y0075899D01*
X0325561Y0075300D02*
X0013200Y0075300D01*
X0013200Y0074702D02*
X0325561Y0074702D01*
X0325561Y0074103D02*
X0013200Y0074103D01*
X0013200Y0073505D02*
X0325561Y0073505D01*
X0325561Y0072906D02*
X0013200Y0072906D01*
X0013200Y0072308D02*
X0325561Y0072308D01*
X0325561Y0071709D02*
X0013200Y0071709D01*
X0013200Y0071111D02*
X0325561Y0071111D01*
X0325561Y0070512D02*
X0013200Y0070512D01*
X0013200Y0069914D02*
X0325561Y0069914D01*
X0325561Y0069315D02*
X0013200Y0069315D01*
X0013200Y0068717D02*
X0127601Y0068717D01*
X0127785Y0068900D02*
X0125500Y0066615D01*
X0125500Y0063385D01*
X0127785Y0061100D01*
X0131015Y0061100D01*
X0133300Y0063385D01*
X0133300Y0066615D01*
X0131015Y0068900D01*
X0127785Y0068900D01*
X0127003Y0068118D02*
X0013200Y0068118D01*
X0013200Y0067520D02*
X0126404Y0067520D01*
X0125806Y0066921D02*
X0013200Y0066921D01*
X0013200Y0066323D02*
X0125500Y0066323D01*
X0125500Y0065724D02*
X0013200Y0065724D01*
X0013200Y0065126D02*
X0125500Y0065126D01*
X0125500Y0064527D02*
X0013200Y0064527D01*
X0013200Y0063929D02*
X0125500Y0063929D01*
X0125555Y0063330D02*
X0013200Y0063330D01*
X0013200Y0062732D02*
X0126153Y0062732D01*
X0126752Y0062133D02*
X0013200Y0062133D01*
X0013200Y0061534D02*
X0127350Y0061534D01*
X0127619Y0059300D02*
X0125100Y0056781D01*
X0125100Y0055300D01*
X0129100Y0055300D01*
X0129100Y0059300D01*
X0127619Y0059300D01*
X0127459Y0059140D02*
X0013200Y0059140D01*
X0013200Y0058542D02*
X0026124Y0058542D01*
X0026136Y0058547D02*
X0023343Y0057390D01*
X0021206Y0055253D01*
X0020049Y0052460D01*
X0020049Y0049436D01*
X0021206Y0046643D01*
X0023343Y0044506D01*
X0026136Y0043349D01*
X0029160Y0043349D01*
X0031953Y0044506D01*
X0034090Y0046643D01*
X0035247Y0049436D01*
X0035247Y0052460D01*
X0034090Y0055253D01*
X0031953Y0057390D01*
X0029160Y0058547D01*
X0026136Y0058547D01*
X0024679Y0057943D02*
X0013200Y0057943D01*
X0013200Y0057345D02*
X0023298Y0057345D01*
X0022700Y0056746D02*
X0013200Y0056746D01*
X0013200Y0056148D02*
X0022101Y0056148D01*
X0021502Y0055549D02*
X0013200Y0055549D01*
X0013200Y0054951D02*
X0021081Y0054951D01*
X0020833Y0054352D02*
X0013200Y0054352D01*
X0013200Y0053754D02*
X0020585Y0053754D01*
X0020337Y0053155D02*
X0013200Y0053155D01*
X0013200Y0052557D02*
X0020089Y0052557D01*
X0020049Y0051958D02*
X0013200Y0051958D01*
X0013200Y0051360D02*
X0020049Y0051360D01*
X0020049Y0050761D02*
X0013200Y0050761D01*
X0013200Y0050163D02*
X0020049Y0050163D01*
X0020049Y0049564D02*
X0013200Y0049564D01*
X0013200Y0048966D02*
X0020244Y0048966D01*
X0020492Y0048367D02*
X0013200Y0048367D01*
X0013200Y0047769D02*
X0020740Y0047769D01*
X0020988Y0047170D02*
X0013579Y0047170D01*
X0013200Y0047549D02*
X0013200Y0337811D01*
X0024249Y0348861D01*
X0314511Y0348861D01*
X0325561Y0337811D01*
X0325561Y0047549D01*
X0314511Y0036500D01*
X0024249Y0036500D01*
X0013200Y0047549D01*
X0014178Y0046572D02*
X0021277Y0046572D01*
X0021876Y0045973D02*
X0014776Y0045973D01*
X0015375Y0045375D02*
X0022474Y0045375D01*
X0023073Y0044776D02*
X0015973Y0044776D01*
X0016572Y0044178D02*
X0024135Y0044178D01*
X0025580Y0043579D02*
X0017170Y0043579D01*
X0017769Y0042981D02*
X0125904Y0042981D01*
X0125500Y0043385D02*
X0127785Y0041100D01*
X0131015Y0041100D01*
X0133300Y0043385D01*
X0133300Y0046615D01*
X0131015Y0048900D01*
X0127785Y0048900D01*
X0125500Y0046615D01*
X0125500Y0043385D01*
X0125500Y0043579D02*
X0029716Y0043579D01*
X0031161Y0044178D02*
X0125500Y0044178D01*
X0125500Y0044776D02*
X0032223Y0044776D01*
X0032822Y0045375D02*
X0125500Y0045375D01*
X0125500Y0045973D02*
X0033420Y0045973D01*
X0034019Y0046572D02*
X0125500Y0046572D01*
X0126055Y0047170D02*
X0034309Y0047170D01*
X0034556Y0047769D02*
X0126653Y0047769D01*
X0127252Y0048367D02*
X0034804Y0048367D01*
X0035052Y0048966D02*
X0303708Y0048966D01*
X0303513Y0049436D02*
X0304670Y0046643D01*
X0306808Y0044506D01*
X0309601Y0043349D01*
X0312624Y0043349D01*
X0315417Y0044506D01*
X0317555Y0046643D01*
X0318712Y0049436D01*
X0318712Y0052460D01*
X0317555Y0055253D01*
X0315417Y0057390D01*
X0312624Y0058547D01*
X0309601Y0058547D01*
X0306808Y0057390D01*
X0304670Y0055253D01*
X0303513Y0052460D01*
X0303513Y0049436D01*
X0303513Y0049564D02*
X0035247Y0049564D01*
X0035247Y0050163D02*
X0303513Y0050163D01*
X0303513Y0050761D02*
X0211242Y0050761D01*
X0211181Y0050700D02*
X0213700Y0053219D01*
X0213700Y0054700D01*
X0209700Y0054700D01*
X0209700Y0055300D01*
X0213700Y0055300D01*
X0213700Y0056781D01*
X0211181Y0059300D01*
X0209700Y0059300D01*
X0209700Y0055300D01*
X0209100Y0055300D01*
X0209100Y0059300D01*
X0207619Y0059300D01*
X0205100Y0056781D01*
X0205100Y0055300D01*
X0209100Y0055300D01*
X0209100Y0054700D01*
X0209700Y0054700D01*
X0209700Y0050700D01*
X0211181Y0050700D01*
X0211841Y0051360D02*
X0303513Y0051360D01*
X0303513Y0051958D02*
X0212439Y0051958D01*
X0213038Y0052557D02*
X0303554Y0052557D01*
X0303802Y0053155D02*
X0213636Y0053155D01*
X0213700Y0053754D02*
X0304049Y0053754D01*
X0304297Y0054352D02*
X0213700Y0054352D01*
X0213700Y0055549D02*
X0304967Y0055549D01*
X0304545Y0054951D02*
X0209700Y0054951D01*
X0209700Y0055549D02*
X0209100Y0055549D01*
X0209100Y0054951D02*
X0199700Y0054951D01*
X0199700Y0054700D02*
X0199700Y0055300D01*
X0203700Y0055300D01*
X0203700Y0056781D01*
X0201181Y0059300D01*
X0199700Y0059300D01*
X0199700Y0055300D01*
X0199100Y0055300D01*
X0199100Y0059300D01*
X0197619Y0059300D01*
X0195100Y0056781D01*
X0195100Y0055300D01*
X0199100Y0055300D01*
X0199100Y0054700D01*
X0199700Y0054700D01*
X0203700Y0054700D01*
X0203700Y0053219D01*
X0201181Y0050700D01*
X0199700Y0050700D01*
X0199700Y0054700D01*
X0199700Y0054352D02*
X0199100Y0054352D01*
X0199100Y0054700D02*
X0199100Y0050700D01*
X0197619Y0050700D01*
X0195100Y0053219D01*
X0195100Y0054700D01*
X0199100Y0054700D01*
X0199100Y0054951D02*
X0189700Y0054951D01*
X0189700Y0054700D02*
X0189700Y0055300D01*
X0193700Y0055300D01*
X0193700Y0056781D01*
X0191181Y0059300D01*
X0189700Y0059300D01*
X0189700Y0055300D01*
X0189100Y0055300D01*
X0189100Y0059300D01*
X0187619Y0059300D01*
X0185100Y0056781D01*
X0185100Y0055300D01*
X0189100Y0055300D01*
X0189100Y0054700D01*
X0189700Y0054700D01*
X0193700Y0054700D01*
X0193700Y0053219D01*
X0191181Y0050700D01*
X0189700Y0050700D01*
X0189700Y0054700D01*
X0189700Y0054352D02*
X0189100Y0054352D01*
X0189100Y0054700D02*
X0189100Y0050700D01*
X0187619Y0050700D01*
X0185100Y0053219D01*
X0185100Y0054700D01*
X0189100Y0054700D01*
X0189100Y0054951D02*
X0179700Y0054951D01*
X0179700Y0054700D02*
X0179700Y0055300D01*
X0183700Y0055300D01*
X0183700Y0056781D01*
X0181181Y0059300D01*
X0179700Y0059300D01*
X0179700Y0055300D01*
X0179100Y0055300D01*
X0179100Y0059300D01*
X0177619Y0059300D01*
X0175100Y0056781D01*
X0175100Y0055300D01*
X0179100Y0055300D01*
X0179100Y0054700D01*
X0179700Y0054700D01*
X0183700Y0054700D01*
X0183700Y0053219D01*
X0181181Y0050700D01*
X0179700Y0050700D01*
X0179700Y0054700D01*
X0179700Y0054352D02*
X0179100Y0054352D01*
X0179100Y0054700D02*
X0179100Y0050700D01*
X0177619Y0050700D01*
X0175100Y0053219D01*
X0175100Y0054700D01*
X0179100Y0054700D01*
X0179100Y0054951D02*
X0169700Y0054951D01*
X0169700Y0054700D02*
X0169700Y0055300D01*
X0173700Y0055300D01*
X0173700Y0056781D01*
X0171181Y0059300D01*
X0169700Y0059300D01*
X0169700Y0055300D01*
X0169100Y0055300D01*
X0169100Y0059300D01*
X0167619Y0059300D01*
X0165100Y0056781D01*
X0165100Y0055300D01*
X0169100Y0055300D01*
X0169100Y0054700D01*
X0169700Y0054700D01*
X0173700Y0054700D01*
X0173700Y0053219D01*
X0171181Y0050700D01*
X0169700Y0050700D01*
X0169700Y0054700D01*
X0169700Y0054352D02*
X0169100Y0054352D01*
X0169100Y0054700D02*
X0169100Y0050700D01*
X0167619Y0050700D01*
X0165100Y0053219D01*
X0165100Y0054700D01*
X0169100Y0054700D01*
X0169100Y0054951D02*
X0159700Y0054951D01*
X0159700Y0054700D02*
X0159700Y0055300D01*
X0163700Y0055300D01*
X0163700Y0056781D01*
X0161181Y0059300D01*
X0159700Y0059300D01*
X0159700Y0055300D01*
X0159100Y0055300D01*
X0159100Y0059300D01*
X0157619Y0059300D01*
X0155100Y0056781D01*
X0155100Y0055300D01*
X0159100Y0055300D01*
X0159100Y0054700D01*
X0159700Y0054700D01*
X0163700Y0054700D01*
X0163700Y0053219D01*
X0161181Y0050700D01*
X0159700Y0050700D01*
X0159700Y0054700D01*
X0159700Y0054352D02*
X0159100Y0054352D01*
X0159100Y0054700D02*
X0159100Y0050700D01*
X0157619Y0050700D01*
X0155100Y0053219D01*
X0155100Y0054700D01*
X0159100Y0054700D01*
X0159100Y0054951D02*
X0149700Y0054951D01*
X0149700Y0054700D02*
X0149700Y0055300D01*
X0153700Y0055300D01*
X0153700Y0056781D01*
X0151181Y0059300D01*
X0149700Y0059300D01*
X0149700Y0055300D01*
X0149100Y0055300D01*
X0149100Y0059300D01*
X0147619Y0059300D01*
X0145100Y0056781D01*
X0145100Y0055300D01*
X0149100Y0055300D01*
X0149100Y0054700D01*
X0149700Y0054700D01*
X0153700Y0054700D01*
X0153700Y0053219D01*
X0151181Y0050700D01*
X0149700Y0050700D01*
X0149700Y0054700D01*
X0149700Y0054352D02*
X0149100Y0054352D01*
X0149100Y0054700D02*
X0149100Y0050700D01*
X0147619Y0050700D01*
X0145100Y0053219D01*
X0145100Y0054700D01*
X0149100Y0054700D01*
X0149100Y0054951D02*
X0139700Y0054951D01*
X0139700Y0054700D02*
X0139700Y0055300D01*
X0143700Y0055300D01*
X0143700Y0056781D01*
X0141181Y0059300D01*
X0139700Y0059300D01*
X0139700Y0055300D01*
X0139100Y0055300D01*
X0139100Y0059300D01*
X0137619Y0059300D01*
X0135100Y0056781D01*
X0135100Y0055300D01*
X0139100Y0055300D01*
X0139100Y0054700D01*
X0139700Y0054700D01*
X0143700Y0054700D01*
X0143700Y0053219D01*
X0141181Y0050700D01*
X0139700Y0050700D01*
X0139700Y0054700D01*
X0139700Y0054352D02*
X0139100Y0054352D01*
X0139100Y0054700D02*
X0139100Y0050700D01*
X0137619Y0050700D01*
X0135100Y0053219D01*
X0135100Y0054700D01*
X0139100Y0054700D01*
X0139100Y0054951D02*
X0129700Y0054951D01*
X0129700Y0054700D02*
X0129700Y0055300D01*
X0133700Y0055300D01*
X0133700Y0056781D01*
X0131181Y0059300D01*
X0129700Y0059300D01*
X0129700Y0055300D01*
X0129100Y0055300D01*
X0129100Y0054700D01*
X0129700Y0054700D01*
X0133700Y0054700D01*
X0133700Y0053219D01*
X0131181Y0050700D01*
X0129700Y0050700D01*
X0129700Y0054700D01*
X0129700Y0054352D02*
X0129100Y0054352D01*
X0129100Y0054700D02*
X0129100Y0050700D01*
X0127619Y0050700D01*
X0125100Y0053219D01*
X0125100Y0054700D01*
X0129100Y0054700D01*
X0129100Y0054951D02*
X0034215Y0054951D01*
X0034463Y0054352D02*
X0125100Y0054352D01*
X0125100Y0053754D02*
X0034711Y0053754D01*
X0034959Y0053155D02*
X0125164Y0053155D01*
X0125762Y0052557D02*
X0035207Y0052557D01*
X0035247Y0051958D02*
X0126361Y0051958D01*
X0126959Y0051360D02*
X0035247Y0051360D01*
X0035247Y0050761D02*
X0127558Y0050761D01*
X0129100Y0050761D02*
X0129700Y0050761D01*
X0129700Y0051360D02*
X0129100Y0051360D01*
X0129100Y0051958D02*
X0129700Y0051958D01*
X0129700Y0052557D02*
X0129100Y0052557D01*
X0129100Y0053155D02*
X0129700Y0053155D01*
X0129700Y0053754D02*
X0129100Y0053754D01*
X0129100Y0055549D02*
X0129700Y0055549D01*
X0129700Y0056148D02*
X0129100Y0056148D01*
X0129100Y0056746D02*
X0129700Y0056746D01*
X0129700Y0057345D02*
X0129100Y0057345D01*
X0129100Y0057943D02*
X0129700Y0057943D01*
X0129700Y0058542D02*
X0129100Y0058542D01*
X0129100Y0059140D02*
X0129700Y0059140D01*
X0131341Y0059140D02*
X0137459Y0059140D01*
X0136861Y0058542D02*
X0131939Y0058542D01*
X0132538Y0057943D02*
X0136262Y0057943D01*
X0135664Y0057345D02*
X0133136Y0057345D01*
X0133700Y0056746D02*
X0135100Y0056746D01*
X0135100Y0056148D02*
X0133700Y0056148D01*
X0133700Y0055549D02*
X0135100Y0055549D01*
X0135100Y0054352D02*
X0133700Y0054352D01*
X0133700Y0053754D02*
X0135100Y0053754D01*
X0135164Y0053155D02*
X0133636Y0053155D01*
X0133038Y0052557D02*
X0135762Y0052557D01*
X0136361Y0051958D02*
X0132439Y0051958D01*
X0131841Y0051360D02*
X0136959Y0051360D01*
X0137558Y0050761D02*
X0131242Y0050761D01*
X0131548Y0048367D02*
X0137252Y0048367D01*
X0137785Y0048900D02*
X0135500Y0046615D01*
X0135500Y0043385D01*
X0137785Y0041100D01*
X0141015Y0041100D01*
X0143300Y0043385D01*
X0143300Y0046615D01*
X0141015Y0048900D01*
X0137785Y0048900D01*
X0136653Y0047769D02*
X0132147Y0047769D01*
X0132745Y0047170D02*
X0136055Y0047170D01*
X0135500Y0046572D02*
X0133300Y0046572D01*
X0133300Y0045973D02*
X0135500Y0045973D01*
X0135500Y0045375D02*
X0133300Y0045375D01*
X0133300Y0044776D02*
X0135500Y0044776D01*
X0135500Y0044178D02*
X0133300Y0044178D01*
X0133300Y0043579D02*
X0135500Y0043579D01*
X0135904Y0042981D02*
X0132896Y0042981D01*
X0132298Y0042382D02*
X0136502Y0042382D01*
X0137101Y0041784D02*
X0131699Y0041784D01*
X0131101Y0041185D02*
X0137699Y0041185D01*
X0141101Y0041185D02*
X0147699Y0041185D01*
X0147785Y0041100D02*
X0151015Y0041100D01*
X0153300Y0043385D01*
X0153300Y0046615D01*
X0151015Y0048900D01*
X0147785Y0048900D01*
X0145500Y0046615D01*
X0145500Y0043385D01*
X0147785Y0041100D01*
X0147101Y0041784D02*
X0141699Y0041784D01*
X0142298Y0042382D02*
X0146502Y0042382D01*
X0145904Y0042981D02*
X0142896Y0042981D01*
X0143300Y0043579D02*
X0145500Y0043579D01*
X0145500Y0044178D02*
X0143300Y0044178D01*
X0143300Y0044776D02*
X0145500Y0044776D01*
X0145500Y0045375D02*
X0143300Y0045375D01*
X0143300Y0045973D02*
X0145500Y0045973D01*
X0145500Y0046572D02*
X0143300Y0046572D01*
X0142745Y0047170D02*
X0146055Y0047170D01*
X0146653Y0047769D02*
X0142147Y0047769D01*
X0141548Y0048367D02*
X0147252Y0048367D01*
X0147558Y0050761D02*
X0141242Y0050761D01*
X0141841Y0051360D02*
X0146959Y0051360D01*
X0146361Y0051958D02*
X0142439Y0051958D01*
X0143038Y0052557D02*
X0145762Y0052557D01*
X0145164Y0053155D02*
X0143636Y0053155D01*
X0143700Y0053754D02*
X0145100Y0053754D01*
X0145100Y0054352D02*
X0143700Y0054352D01*
X0143700Y0055549D02*
X0145100Y0055549D01*
X0145100Y0056148D02*
X0143700Y0056148D01*
X0143700Y0056746D02*
X0145100Y0056746D01*
X0145664Y0057345D02*
X0143136Y0057345D01*
X0142538Y0057943D02*
X0146262Y0057943D01*
X0146861Y0058542D02*
X0141939Y0058542D01*
X0141341Y0059140D02*
X0147459Y0059140D01*
X0149100Y0059140D02*
X0149700Y0059140D01*
X0149700Y0058542D02*
X0149100Y0058542D01*
X0149100Y0057943D02*
X0149700Y0057943D01*
X0149700Y0057345D02*
X0149100Y0057345D01*
X0149100Y0056746D02*
X0149700Y0056746D01*
X0149700Y0056148D02*
X0149100Y0056148D01*
X0149100Y0055549D02*
X0149700Y0055549D01*
X0149700Y0053754D02*
X0149100Y0053754D01*
X0149100Y0053155D02*
X0149700Y0053155D01*
X0149700Y0052557D02*
X0149100Y0052557D01*
X0149100Y0051958D02*
X0149700Y0051958D01*
X0149700Y0051360D02*
X0149100Y0051360D01*
X0149100Y0050761D02*
X0149700Y0050761D01*
X0151242Y0050761D02*
X0157558Y0050761D01*
X0156959Y0051360D02*
X0151841Y0051360D01*
X0152439Y0051958D02*
X0156361Y0051958D01*
X0155762Y0052557D02*
X0153038Y0052557D01*
X0153636Y0053155D02*
X0155164Y0053155D01*
X0155100Y0053754D02*
X0153700Y0053754D01*
X0153700Y0054352D02*
X0155100Y0054352D01*
X0155100Y0055549D02*
X0153700Y0055549D01*
X0153700Y0056148D02*
X0155100Y0056148D01*
X0155100Y0056746D02*
X0153700Y0056746D01*
X0153136Y0057345D02*
X0155664Y0057345D01*
X0156262Y0057943D02*
X0152538Y0057943D01*
X0151939Y0058542D02*
X0156861Y0058542D01*
X0157459Y0059140D02*
X0151341Y0059140D01*
X0151015Y0061100D02*
X0153300Y0063385D01*
X0153300Y0066615D01*
X0151015Y0068900D01*
X0147785Y0068900D01*
X0145500Y0066615D01*
X0145500Y0063385D01*
X0147785Y0061100D01*
X0151015Y0061100D01*
X0151450Y0061534D02*
X0157350Y0061534D01*
X0157785Y0061100D02*
X0161015Y0061100D01*
X0163300Y0063385D01*
X0163300Y0066615D01*
X0161015Y0068900D01*
X0157785Y0068900D01*
X0155500Y0066615D01*
X0155500Y0063385D01*
X0157785Y0061100D01*
X0156752Y0062133D02*
X0152048Y0062133D01*
X0152647Y0062732D02*
X0156153Y0062732D01*
X0155555Y0063330D02*
X0153245Y0063330D01*
X0153300Y0063929D02*
X0155500Y0063929D01*
X0155500Y0064527D02*
X0153300Y0064527D01*
X0153300Y0065126D02*
X0155500Y0065126D01*
X0155500Y0065724D02*
X0153300Y0065724D01*
X0153300Y0066323D02*
X0155500Y0066323D01*
X0155806Y0066921D02*
X0152994Y0066921D01*
X0152396Y0067520D02*
X0156404Y0067520D01*
X0157003Y0068118D02*
X0151797Y0068118D01*
X0151199Y0068717D02*
X0157601Y0068717D01*
X0161199Y0068717D02*
X0167601Y0068717D01*
X0167785Y0068900D02*
X0165500Y0066615D01*
X0165500Y0063385D01*
X0167785Y0061100D01*
X0171015Y0061100D01*
X0173300Y0063385D01*
X0173300Y0066615D01*
X0171015Y0068900D01*
X0167785Y0068900D01*
X0167003Y0068118D02*
X0161797Y0068118D01*
X0162396Y0067520D02*
X0166404Y0067520D01*
X0165806Y0066921D02*
X0162994Y0066921D01*
X0163300Y0066323D02*
X0165500Y0066323D01*
X0165500Y0065724D02*
X0163300Y0065724D01*
X0163300Y0065126D02*
X0165500Y0065126D01*
X0165500Y0064527D02*
X0163300Y0064527D01*
X0163300Y0063929D02*
X0165500Y0063929D01*
X0165555Y0063330D02*
X0163245Y0063330D01*
X0162647Y0062732D02*
X0166153Y0062732D01*
X0166752Y0062133D02*
X0162048Y0062133D01*
X0161450Y0061534D02*
X0167350Y0061534D01*
X0167459Y0059140D02*
X0161341Y0059140D01*
X0161939Y0058542D02*
X0166861Y0058542D01*
X0166262Y0057943D02*
X0162538Y0057943D01*
X0163136Y0057345D02*
X0165664Y0057345D01*
X0165100Y0056746D02*
X0163700Y0056746D01*
X0163700Y0056148D02*
X0165100Y0056148D01*
X0165100Y0055549D02*
X0163700Y0055549D01*
X0163700Y0054352D02*
X0165100Y0054352D01*
X0165100Y0053754D02*
X0163700Y0053754D01*
X0163636Y0053155D02*
X0165164Y0053155D01*
X0165762Y0052557D02*
X0163038Y0052557D01*
X0162439Y0051958D02*
X0166361Y0051958D01*
X0166959Y0051360D02*
X0161841Y0051360D01*
X0161242Y0050761D02*
X0167558Y0050761D01*
X0169100Y0050761D02*
X0169700Y0050761D01*
X0169700Y0051360D02*
X0169100Y0051360D01*
X0169100Y0051958D02*
X0169700Y0051958D01*
X0169700Y0052557D02*
X0169100Y0052557D01*
X0169100Y0053155D02*
X0169700Y0053155D01*
X0169700Y0053754D02*
X0169100Y0053754D01*
X0169100Y0055549D02*
X0169700Y0055549D01*
X0169700Y0056148D02*
X0169100Y0056148D01*
X0169100Y0056746D02*
X0169700Y0056746D01*
X0169700Y0057345D02*
X0169100Y0057345D01*
X0169100Y0057943D02*
X0169700Y0057943D01*
X0169700Y0058542D02*
X0169100Y0058542D01*
X0169100Y0059140D02*
X0169700Y0059140D01*
X0171341Y0059140D02*
X0177459Y0059140D01*
X0176861Y0058542D02*
X0171939Y0058542D01*
X0172538Y0057943D02*
X0176262Y0057943D01*
X0175664Y0057345D02*
X0173136Y0057345D01*
X0173700Y0056746D02*
X0175100Y0056746D01*
X0175100Y0056148D02*
X0173700Y0056148D01*
X0173700Y0055549D02*
X0175100Y0055549D01*
X0175100Y0054352D02*
X0173700Y0054352D01*
X0173700Y0053754D02*
X0175100Y0053754D01*
X0175164Y0053155D02*
X0173636Y0053155D01*
X0173038Y0052557D02*
X0175762Y0052557D01*
X0176361Y0051958D02*
X0172439Y0051958D01*
X0171841Y0051360D02*
X0176959Y0051360D01*
X0177558Y0050761D02*
X0171242Y0050761D01*
X0171015Y0048900D02*
X0167785Y0048900D01*
X0165500Y0046615D01*
X0165500Y0043385D01*
X0167785Y0041100D01*
X0171015Y0041100D01*
X0173300Y0043385D01*
X0173300Y0046615D01*
X0171015Y0048900D01*
X0171548Y0048367D02*
X0177252Y0048367D01*
X0177785Y0048900D02*
X0175500Y0046615D01*
X0175500Y0043385D01*
X0177785Y0041100D01*
X0181015Y0041100D01*
X0183300Y0043385D01*
X0183300Y0046615D01*
X0181015Y0048900D01*
X0177785Y0048900D01*
X0176653Y0047769D02*
X0172147Y0047769D01*
X0172745Y0047170D02*
X0176055Y0047170D01*
X0175500Y0046572D02*
X0173300Y0046572D01*
X0173300Y0045973D02*
X0175500Y0045973D01*
X0175500Y0045375D02*
X0173300Y0045375D01*
X0173300Y0044776D02*
X0175500Y0044776D01*
X0175500Y0044178D02*
X0173300Y0044178D01*
X0173300Y0043579D02*
X0175500Y0043579D01*
X0175904Y0042981D02*
X0172896Y0042981D01*
X0172298Y0042382D02*
X0176502Y0042382D01*
X0177101Y0041784D02*
X0171699Y0041784D01*
X0171101Y0041185D02*
X0177699Y0041185D01*
X0181101Y0041185D02*
X0187699Y0041185D01*
X0187785Y0041100D02*
X0191015Y0041100D01*
X0193300Y0043385D01*
X0193300Y0046615D01*
X0191015Y0048900D01*
X0187785Y0048900D01*
X0185500Y0046615D01*
X0185500Y0043385D01*
X0187785Y0041100D01*
X0187101Y0041784D02*
X0181699Y0041784D01*
X0182298Y0042382D02*
X0186502Y0042382D01*
X0185904Y0042981D02*
X0182896Y0042981D01*
X0183300Y0043579D02*
X0185500Y0043579D01*
X0185500Y0044178D02*
X0183300Y0044178D01*
X0183300Y0044776D02*
X0185500Y0044776D01*
X0185500Y0045375D02*
X0183300Y0045375D01*
X0183300Y0045973D02*
X0185500Y0045973D01*
X0185500Y0046572D02*
X0183300Y0046572D01*
X0182745Y0047170D02*
X0186055Y0047170D01*
X0186653Y0047769D02*
X0182147Y0047769D01*
X0181548Y0048367D02*
X0187252Y0048367D01*
X0187558Y0050761D02*
X0181242Y0050761D01*
X0181841Y0051360D02*
X0186959Y0051360D01*
X0186361Y0051958D02*
X0182439Y0051958D01*
X0183038Y0052557D02*
X0185762Y0052557D01*
X0185164Y0053155D02*
X0183636Y0053155D01*
X0183700Y0053754D02*
X0185100Y0053754D01*
X0185100Y0054352D02*
X0183700Y0054352D01*
X0183700Y0055549D02*
X0185100Y0055549D01*
X0185100Y0056148D02*
X0183700Y0056148D01*
X0183700Y0056746D02*
X0185100Y0056746D01*
X0185664Y0057345D02*
X0183136Y0057345D01*
X0182538Y0057943D02*
X0186262Y0057943D01*
X0186861Y0058542D02*
X0181939Y0058542D01*
X0181341Y0059140D02*
X0187459Y0059140D01*
X0189100Y0059140D02*
X0189700Y0059140D01*
X0189700Y0058542D02*
X0189100Y0058542D01*
X0189100Y0057943D02*
X0189700Y0057943D01*
X0189700Y0057345D02*
X0189100Y0057345D01*
X0189100Y0056746D02*
X0189700Y0056746D01*
X0189700Y0056148D02*
X0189100Y0056148D01*
X0189100Y0055549D02*
X0189700Y0055549D01*
X0189700Y0053754D02*
X0189100Y0053754D01*
X0189100Y0053155D02*
X0189700Y0053155D01*
X0189700Y0052557D02*
X0189100Y0052557D01*
X0189100Y0051958D02*
X0189700Y0051958D01*
X0189700Y0051360D02*
X0189100Y0051360D01*
X0189100Y0050761D02*
X0189700Y0050761D01*
X0191242Y0050761D02*
X0197558Y0050761D01*
X0196959Y0051360D02*
X0191841Y0051360D01*
X0192439Y0051958D02*
X0196361Y0051958D01*
X0195762Y0052557D02*
X0193038Y0052557D01*
X0193636Y0053155D02*
X0195164Y0053155D01*
X0195100Y0053754D02*
X0193700Y0053754D01*
X0193700Y0054352D02*
X0195100Y0054352D01*
X0195100Y0055549D02*
X0193700Y0055549D01*
X0193700Y0056148D02*
X0195100Y0056148D01*
X0195100Y0056746D02*
X0193700Y0056746D01*
X0193136Y0057345D02*
X0195664Y0057345D01*
X0196262Y0057943D02*
X0192538Y0057943D01*
X0191939Y0058542D02*
X0196861Y0058542D01*
X0197459Y0059140D02*
X0191341Y0059140D01*
X0191015Y0061100D02*
X0193300Y0063385D01*
X0193300Y0066615D01*
X0191015Y0068900D01*
X0187785Y0068900D01*
X0185500Y0066615D01*
X0185500Y0063385D01*
X0187785Y0061100D01*
X0191015Y0061100D01*
X0191450Y0061534D02*
X0197350Y0061534D01*
X0197785Y0061100D02*
X0201015Y0061100D01*
X0203300Y0063385D01*
X0203300Y0066615D01*
X0201015Y0068900D01*
X0197785Y0068900D01*
X0195500Y0066615D01*
X0195500Y0063385D01*
X0197785Y0061100D01*
X0196752Y0062133D02*
X0192048Y0062133D01*
X0192647Y0062732D02*
X0196153Y0062732D01*
X0195555Y0063330D02*
X0193245Y0063330D01*
X0193300Y0063929D02*
X0195500Y0063929D01*
X0195500Y0064527D02*
X0193300Y0064527D01*
X0193300Y0065126D02*
X0195500Y0065126D01*
X0195500Y0065724D02*
X0193300Y0065724D01*
X0193300Y0066323D02*
X0195500Y0066323D01*
X0195806Y0066921D02*
X0192994Y0066921D01*
X0192396Y0067520D02*
X0196404Y0067520D01*
X0197003Y0068118D02*
X0191797Y0068118D01*
X0191199Y0068717D02*
X0197601Y0068717D01*
X0201199Y0068717D02*
X0205844Y0068717D01*
X0206027Y0068900D02*
X0205500Y0068373D01*
X0205500Y0061627D01*
X0206027Y0061100D01*
X0212773Y0061100D01*
X0213300Y0061627D01*
X0213300Y0068373D01*
X0212773Y0068900D01*
X0206027Y0068900D01*
X0205500Y0068118D02*
X0201797Y0068118D01*
X0202396Y0067520D02*
X0205500Y0067520D01*
X0205500Y0066921D02*
X0202994Y0066921D01*
X0203300Y0066323D02*
X0205500Y0066323D01*
X0205500Y0065724D02*
X0203300Y0065724D01*
X0203300Y0065126D02*
X0205500Y0065126D01*
X0205500Y0064527D02*
X0203300Y0064527D01*
X0203300Y0063929D02*
X0205500Y0063929D01*
X0205500Y0063330D02*
X0203245Y0063330D01*
X0202647Y0062732D02*
X0205500Y0062732D01*
X0205500Y0062133D02*
X0202048Y0062133D01*
X0201450Y0061534D02*
X0205593Y0061534D01*
X0207459Y0059140D02*
X0201341Y0059140D01*
X0201939Y0058542D02*
X0206861Y0058542D01*
X0206262Y0057943D02*
X0202538Y0057943D01*
X0203136Y0057345D02*
X0205664Y0057345D01*
X0205100Y0056746D02*
X0203700Y0056746D01*
X0203700Y0056148D02*
X0205100Y0056148D01*
X0205100Y0055549D02*
X0203700Y0055549D01*
X0203700Y0054352D02*
X0205100Y0054352D01*
X0205100Y0054700D02*
X0205100Y0053219D01*
X0207619Y0050700D01*
X0209100Y0050700D01*
X0209100Y0054700D01*
X0205100Y0054700D01*
X0205100Y0053754D02*
X0203700Y0053754D01*
X0203636Y0053155D02*
X0205164Y0053155D01*
X0205762Y0052557D02*
X0203038Y0052557D01*
X0202439Y0051958D02*
X0206361Y0051958D01*
X0206959Y0051360D02*
X0201841Y0051360D01*
X0201242Y0050761D02*
X0207558Y0050761D01*
X0209100Y0050761D02*
X0209700Y0050761D01*
X0209700Y0051360D02*
X0209100Y0051360D01*
X0209100Y0051958D02*
X0209700Y0051958D01*
X0209700Y0052557D02*
X0209100Y0052557D01*
X0209100Y0053155D02*
X0209700Y0053155D01*
X0209700Y0053754D02*
X0209100Y0053754D01*
X0209100Y0054352D02*
X0209700Y0054352D01*
X0209700Y0056148D02*
X0209100Y0056148D01*
X0209100Y0056746D02*
X0209700Y0056746D01*
X0209700Y0057345D02*
X0209100Y0057345D01*
X0209100Y0057943D02*
X0209700Y0057943D01*
X0209700Y0058542D02*
X0209100Y0058542D01*
X0209100Y0059140D02*
X0209700Y0059140D01*
X0211341Y0059140D02*
X0325561Y0059140D01*
X0325561Y0058542D02*
X0312637Y0058542D01*
X0314082Y0057943D02*
X0325561Y0057943D01*
X0325561Y0057345D02*
X0315463Y0057345D01*
X0316061Y0056746D02*
X0325561Y0056746D01*
X0325561Y0056148D02*
X0316660Y0056148D01*
X0317258Y0055549D02*
X0325561Y0055549D01*
X0325561Y0054951D02*
X0317680Y0054951D01*
X0317928Y0054352D02*
X0325561Y0054352D01*
X0325561Y0053754D02*
X0318176Y0053754D01*
X0318424Y0053155D02*
X0325561Y0053155D01*
X0325561Y0052557D02*
X0318672Y0052557D01*
X0318712Y0051958D02*
X0325561Y0051958D01*
X0325561Y0051360D02*
X0318712Y0051360D01*
X0318712Y0050761D02*
X0325561Y0050761D01*
X0325561Y0050163D02*
X0318712Y0050163D01*
X0318712Y0049564D02*
X0325561Y0049564D01*
X0325561Y0048966D02*
X0318517Y0048966D01*
X0318269Y0048367D02*
X0325561Y0048367D01*
X0325561Y0047769D02*
X0318021Y0047769D01*
X0317773Y0047170D02*
X0325181Y0047170D01*
X0324583Y0046572D02*
X0317483Y0046572D01*
X0316885Y0045973D02*
X0323984Y0045973D01*
X0323386Y0045375D02*
X0316286Y0045375D01*
X0315688Y0044776D02*
X0322787Y0044776D01*
X0322189Y0044178D02*
X0314625Y0044178D01*
X0313180Y0043579D02*
X0321590Y0043579D01*
X0320992Y0042981D02*
X0212896Y0042981D01*
X0213300Y0043385D02*
X0211015Y0041100D01*
X0207785Y0041100D01*
X0205500Y0043385D01*
X0205500Y0046615D01*
X0207785Y0048900D01*
X0211015Y0048900D01*
X0213300Y0046615D01*
X0213300Y0043385D01*
X0213300Y0043579D02*
X0309045Y0043579D01*
X0307600Y0044178D02*
X0213300Y0044178D01*
X0213300Y0044776D02*
X0306538Y0044776D01*
X0305939Y0045375D02*
X0213300Y0045375D01*
X0213300Y0045973D02*
X0305341Y0045973D01*
X0304742Y0046572D02*
X0213300Y0046572D01*
X0212745Y0047170D02*
X0304452Y0047170D01*
X0304204Y0047769D02*
X0212147Y0047769D01*
X0211548Y0048367D02*
X0303956Y0048367D01*
X0305566Y0056148D02*
X0213700Y0056148D01*
X0213700Y0056746D02*
X0306164Y0056746D01*
X0306763Y0057345D02*
X0213136Y0057345D01*
X0212538Y0057943D02*
X0308143Y0057943D01*
X0309588Y0058542D02*
X0211939Y0058542D01*
X0213207Y0061534D02*
X0325561Y0061534D01*
X0325561Y0060936D02*
X0013200Y0060936D01*
X0013200Y0060337D02*
X0325561Y0060337D01*
X0325561Y0059739D02*
X0013200Y0059739D01*
X0029172Y0058542D02*
X0126861Y0058542D01*
X0126262Y0057943D02*
X0030617Y0057943D01*
X0031998Y0057345D02*
X0125664Y0057345D01*
X0125100Y0056746D02*
X0032597Y0056746D01*
X0033195Y0056148D02*
X0125100Y0056148D01*
X0125100Y0055549D02*
X0033794Y0055549D01*
X0019564Y0041185D02*
X0127699Y0041185D01*
X0127101Y0041784D02*
X0018966Y0041784D01*
X0018367Y0042382D02*
X0126502Y0042382D01*
X0139100Y0050761D02*
X0139700Y0050761D01*
X0139700Y0051360D02*
X0139100Y0051360D01*
X0139100Y0051958D02*
X0139700Y0051958D01*
X0139700Y0052557D02*
X0139100Y0052557D01*
X0139100Y0053155D02*
X0139700Y0053155D01*
X0139700Y0053754D02*
X0139100Y0053754D01*
X0139100Y0055549D02*
X0139700Y0055549D01*
X0139700Y0056148D02*
X0139100Y0056148D01*
X0139100Y0056746D02*
X0139700Y0056746D01*
X0139700Y0057345D02*
X0139100Y0057345D01*
X0139100Y0057943D02*
X0139700Y0057943D01*
X0139700Y0058542D02*
X0139100Y0058542D01*
X0139100Y0059140D02*
X0139700Y0059140D01*
X0141015Y0061100D02*
X0143300Y0063385D01*
X0143300Y0066615D01*
X0141015Y0068900D01*
X0137785Y0068900D01*
X0135500Y0066615D01*
X0135500Y0063385D01*
X0137785Y0061100D01*
X0141015Y0061100D01*
X0141450Y0061534D02*
X0147350Y0061534D01*
X0146752Y0062133D02*
X0142048Y0062133D01*
X0142647Y0062732D02*
X0146153Y0062732D01*
X0145555Y0063330D02*
X0143245Y0063330D01*
X0143300Y0063929D02*
X0145500Y0063929D01*
X0145500Y0064527D02*
X0143300Y0064527D01*
X0143300Y0065126D02*
X0145500Y0065126D01*
X0145500Y0065724D02*
X0143300Y0065724D01*
X0143300Y0066323D02*
X0145500Y0066323D01*
X0145806Y0066921D02*
X0142994Y0066921D01*
X0142396Y0067520D02*
X0146404Y0067520D01*
X0147003Y0068118D02*
X0141797Y0068118D01*
X0141199Y0068717D02*
X0147601Y0068717D01*
X0137601Y0068717D02*
X0131199Y0068717D01*
X0131797Y0068118D02*
X0137003Y0068118D01*
X0136404Y0067520D02*
X0132396Y0067520D01*
X0132994Y0066921D02*
X0135806Y0066921D01*
X0135500Y0066323D02*
X0133300Y0066323D01*
X0133300Y0065724D02*
X0135500Y0065724D01*
X0135500Y0065126D02*
X0133300Y0065126D01*
X0133300Y0064527D02*
X0135500Y0064527D01*
X0135500Y0063929D02*
X0133300Y0063929D01*
X0133245Y0063330D02*
X0135555Y0063330D01*
X0136153Y0062732D02*
X0132647Y0062732D01*
X0132048Y0062133D02*
X0136752Y0062133D01*
X0137350Y0061534D02*
X0131450Y0061534D01*
X0151548Y0048367D02*
X0157252Y0048367D01*
X0157785Y0048900D02*
X0155500Y0046615D01*
X0155500Y0043385D01*
X0157785Y0041100D01*
X0161015Y0041100D01*
X0163300Y0043385D01*
X0163300Y0046615D01*
X0161015Y0048900D01*
X0157785Y0048900D01*
X0156653Y0047769D02*
X0152147Y0047769D01*
X0152745Y0047170D02*
X0156055Y0047170D01*
X0155500Y0046572D02*
X0153300Y0046572D01*
X0153300Y0045973D02*
X0155500Y0045973D01*
X0155500Y0045375D02*
X0153300Y0045375D01*
X0153300Y0044776D02*
X0155500Y0044776D01*
X0155500Y0044178D02*
X0153300Y0044178D01*
X0153300Y0043579D02*
X0155500Y0043579D01*
X0155904Y0042981D02*
X0152896Y0042981D01*
X0152298Y0042382D02*
X0156502Y0042382D01*
X0157101Y0041784D02*
X0151699Y0041784D01*
X0151101Y0041185D02*
X0157699Y0041185D01*
X0161101Y0041185D02*
X0167699Y0041185D01*
X0167101Y0041784D02*
X0161699Y0041784D01*
X0162298Y0042382D02*
X0166502Y0042382D01*
X0165904Y0042981D02*
X0162896Y0042981D01*
X0163300Y0043579D02*
X0165500Y0043579D01*
X0165500Y0044178D02*
X0163300Y0044178D01*
X0163300Y0044776D02*
X0165500Y0044776D01*
X0165500Y0045375D02*
X0163300Y0045375D01*
X0163300Y0045973D02*
X0165500Y0045973D01*
X0165500Y0046572D02*
X0163300Y0046572D01*
X0162745Y0047170D02*
X0166055Y0047170D01*
X0166653Y0047769D02*
X0162147Y0047769D01*
X0161548Y0048367D02*
X0167252Y0048367D01*
X0159700Y0050761D02*
X0159100Y0050761D01*
X0159100Y0051360D02*
X0159700Y0051360D01*
X0159700Y0051958D02*
X0159100Y0051958D01*
X0159100Y0052557D02*
X0159700Y0052557D01*
X0159700Y0053155D02*
X0159100Y0053155D01*
X0159100Y0053754D02*
X0159700Y0053754D01*
X0159700Y0055549D02*
X0159100Y0055549D01*
X0159100Y0056148D02*
X0159700Y0056148D01*
X0159700Y0056746D02*
X0159100Y0056746D01*
X0159100Y0057345D02*
X0159700Y0057345D01*
X0159700Y0057943D02*
X0159100Y0057943D01*
X0159100Y0058542D02*
X0159700Y0058542D01*
X0159700Y0059140D02*
X0159100Y0059140D01*
X0171450Y0061534D02*
X0177350Y0061534D01*
X0177785Y0061100D02*
X0181015Y0061100D01*
X0183300Y0063385D01*
X0183300Y0066615D01*
X0181015Y0068900D01*
X0177785Y0068900D01*
X0175500Y0066615D01*
X0175500Y0063385D01*
X0177785Y0061100D01*
X0176752Y0062133D02*
X0172048Y0062133D01*
X0172647Y0062732D02*
X0176153Y0062732D01*
X0175555Y0063330D02*
X0173245Y0063330D01*
X0173300Y0063929D02*
X0175500Y0063929D01*
X0175500Y0064527D02*
X0173300Y0064527D01*
X0173300Y0065126D02*
X0175500Y0065126D01*
X0175500Y0065724D02*
X0173300Y0065724D01*
X0173300Y0066323D02*
X0175500Y0066323D01*
X0175806Y0066921D02*
X0172994Y0066921D01*
X0172396Y0067520D02*
X0176404Y0067520D01*
X0177003Y0068118D02*
X0171797Y0068118D01*
X0171199Y0068717D02*
X0177601Y0068717D01*
X0181199Y0068717D02*
X0187601Y0068717D01*
X0187003Y0068118D02*
X0181797Y0068118D01*
X0182396Y0067520D02*
X0186404Y0067520D01*
X0185806Y0066921D02*
X0182994Y0066921D01*
X0183300Y0066323D02*
X0185500Y0066323D01*
X0185500Y0065724D02*
X0183300Y0065724D01*
X0183300Y0065126D02*
X0185500Y0065126D01*
X0185500Y0064527D02*
X0183300Y0064527D01*
X0183300Y0063929D02*
X0185500Y0063929D01*
X0185555Y0063330D02*
X0183245Y0063330D01*
X0182647Y0062732D02*
X0186153Y0062732D01*
X0186752Y0062133D02*
X0182048Y0062133D01*
X0181450Y0061534D02*
X0187350Y0061534D01*
X0179700Y0059140D02*
X0179100Y0059140D01*
X0179100Y0058542D02*
X0179700Y0058542D01*
X0179700Y0057943D02*
X0179100Y0057943D01*
X0179100Y0057345D02*
X0179700Y0057345D01*
X0179700Y0056746D02*
X0179100Y0056746D01*
X0179100Y0056148D02*
X0179700Y0056148D01*
X0179700Y0055549D02*
X0179100Y0055549D01*
X0179100Y0053754D02*
X0179700Y0053754D01*
X0179700Y0053155D02*
X0179100Y0053155D01*
X0179100Y0052557D02*
X0179700Y0052557D01*
X0179700Y0051958D02*
X0179100Y0051958D01*
X0179100Y0051360D02*
X0179700Y0051360D01*
X0179700Y0050761D02*
X0179100Y0050761D01*
X0191548Y0048367D02*
X0197252Y0048367D01*
X0197785Y0048900D02*
X0195500Y0046615D01*
X0195500Y0043385D01*
X0197785Y0041100D01*
X0201015Y0041100D01*
X0203300Y0043385D01*
X0203300Y0046615D01*
X0201015Y0048900D01*
X0197785Y0048900D01*
X0196653Y0047769D02*
X0192147Y0047769D01*
X0192745Y0047170D02*
X0196055Y0047170D01*
X0195500Y0046572D02*
X0193300Y0046572D01*
X0193300Y0045973D02*
X0195500Y0045973D01*
X0195500Y0045375D02*
X0193300Y0045375D01*
X0193300Y0044776D02*
X0195500Y0044776D01*
X0195500Y0044178D02*
X0193300Y0044178D01*
X0193300Y0043579D02*
X0195500Y0043579D01*
X0195904Y0042981D02*
X0192896Y0042981D01*
X0192298Y0042382D02*
X0196502Y0042382D01*
X0197101Y0041784D02*
X0191699Y0041784D01*
X0191101Y0041185D02*
X0197699Y0041185D01*
X0201101Y0041185D02*
X0207699Y0041185D01*
X0207101Y0041784D02*
X0201699Y0041784D01*
X0202298Y0042382D02*
X0206502Y0042382D01*
X0205904Y0042981D02*
X0202896Y0042981D01*
X0203300Y0043579D02*
X0205500Y0043579D01*
X0205500Y0044178D02*
X0203300Y0044178D01*
X0203300Y0044776D02*
X0205500Y0044776D01*
X0205500Y0045375D02*
X0203300Y0045375D01*
X0203300Y0045973D02*
X0205500Y0045973D01*
X0205500Y0046572D02*
X0203300Y0046572D01*
X0202745Y0047170D02*
X0206055Y0047170D01*
X0206653Y0047769D02*
X0202147Y0047769D01*
X0201548Y0048367D02*
X0207252Y0048367D01*
X0212298Y0042382D02*
X0320393Y0042382D01*
X0319795Y0041784D02*
X0211699Y0041784D01*
X0211101Y0041185D02*
X0319196Y0041185D01*
X0318598Y0040587D02*
X0020163Y0040587D01*
X0020761Y0039988D02*
X0317999Y0039988D01*
X0317401Y0039390D02*
X0021360Y0039390D01*
X0021958Y0038791D02*
X0316802Y0038791D01*
X0316204Y0038193D02*
X0022557Y0038193D01*
X0023155Y0037594D02*
X0315605Y0037594D01*
X0315007Y0036996D02*
X0023754Y0036996D01*
X0070655Y0089665D02*
X0071255Y0089665D01*
X0071255Y0090263D02*
X0070655Y0090263D01*
X0070655Y0090862D02*
X0071255Y0090862D01*
X0071255Y0091460D02*
X0070655Y0091460D01*
X0070655Y0092059D02*
X0071255Y0092059D01*
X0071255Y0092657D02*
X0070655Y0092657D01*
X0070655Y0093256D02*
X0071255Y0093256D01*
X0071255Y0093854D02*
X0070655Y0093854D01*
X0070655Y0095650D02*
X0071255Y0095650D01*
X0071255Y0096248D02*
X0070655Y0096248D01*
X0070655Y0096847D02*
X0071255Y0096847D01*
X0071255Y0097445D02*
X0070655Y0097445D01*
X0070655Y0098044D02*
X0071255Y0098044D01*
X0071255Y0098642D02*
X0070655Y0098642D01*
X0070655Y0099241D02*
X0071255Y0099241D01*
X0072079Y0099241D02*
X0266682Y0099241D01*
X0267506Y0099241D02*
X0268105Y0099241D01*
X0268105Y0098642D02*
X0267506Y0098642D01*
X0267506Y0098044D02*
X0268105Y0098044D01*
X0268105Y0097445D02*
X0267506Y0097445D01*
X0267506Y0096847D02*
X0268105Y0096847D01*
X0268105Y0096248D02*
X0267506Y0096248D01*
X0267506Y0095650D02*
X0268105Y0095650D01*
X0268105Y0093854D02*
X0267506Y0093854D01*
X0267506Y0093256D02*
X0268105Y0093256D01*
X0268105Y0092657D02*
X0267506Y0092657D01*
X0267506Y0092059D02*
X0268105Y0092059D01*
X0268105Y0091460D02*
X0267506Y0091460D01*
X0267506Y0090862D02*
X0268105Y0090862D01*
X0268105Y0090263D02*
X0267506Y0090263D01*
X0267506Y0089665D02*
X0268105Y0089665D01*
X0270030Y0089665D02*
X0325561Y0089665D01*
X0325561Y0090263D02*
X0270988Y0090263D01*
X0271624Y0090862D02*
X0325561Y0090862D01*
X0325561Y0091460D02*
X0272079Y0091460D01*
X0272410Y0092059D02*
X0325561Y0092059D01*
X0325561Y0092657D02*
X0272649Y0092657D01*
X0265581Y0089665D02*
X0073179Y0089665D01*
X0074137Y0090263D02*
X0264623Y0090263D01*
X0263987Y0090862D02*
X0074774Y0090862D01*
X0075228Y0091460D02*
X0263532Y0091460D01*
X0263201Y0092059D02*
X0075560Y0092059D01*
X0075798Y0092657D02*
X0262962Y0092657D01*
X0262768Y0095051D02*
X0075993Y0095051D01*
X0075864Y0095650D02*
X0262896Y0095650D01*
X0263097Y0096248D02*
X0075663Y0096248D01*
X0075359Y0096847D02*
X0263402Y0096847D01*
X0263819Y0097445D02*
X0074941Y0097445D01*
X0074379Y0098044D02*
X0264382Y0098044D01*
X0265182Y0098642D02*
X0073579Y0098642D01*
X0069831Y0099241D02*
X0033956Y0099241D01*
X0035546Y0096248D02*
X0066247Y0096248D01*
X0066046Y0095650D02*
X0035761Y0095650D01*
X0035761Y0095051D02*
X0065918Y0095051D01*
X0066552Y0096847D02*
X0013200Y0096847D01*
X0013200Y0097445D02*
X0066969Y0097445D01*
X0067531Y0098044D02*
X0013200Y0098044D01*
X0013200Y0098642D02*
X0068332Y0098642D01*
X0035761Y0111211D02*
X0325561Y0111211D01*
X0325561Y0111809D02*
X0035761Y0111809D01*
X0035761Y0112408D02*
X0325561Y0112408D01*
X0325561Y0113006D02*
X0035761Y0113006D01*
X0035761Y0113605D02*
X0325561Y0113605D01*
X0325561Y0114203D02*
X0035761Y0114203D01*
X0035235Y0114802D02*
X0325561Y0114802D01*
X0325561Y0115401D02*
X0034636Y0115401D01*
X0034038Y0115999D02*
X0325561Y0115999D01*
X0325561Y0116598D02*
X0013200Y0116598D01*
X0013200Y0117196D02*
X0325561Y0117196D01*
X0325561Y0117795D02*
X0013200Y0117795D01*
X0013200Y0118393D02*
X0325561Y0118393D01*
X0325561Y0118992D02*
X0033707Y0118992D01*
X0034306Y0119590D02*
X0325561Y0119590D01*
X0325561Y0120189D02*
X0034904Y0120189D01*
X0035503Y0120787D02*
X0325561Y0120787D01*
X0325561Y0121386D02*
X0035761Y0121386D01*
X0035761Y0121984D02*
X0325561Y0121984D01*
X0325561Y0122583D02*
X0035761Y0122583D01*
X0035761Y0123181D02*
X0325561Y0123181D01*
X0325561Y0123780D02*
X0035761Y0123780D01*
X0035658Y0124378D02*
X0325561Y0124378D01*
X0325561Y0124977D02*
X0035060Y0124977D01*
X0034461Y0125575D02*
X0325561Y0125575D01*
X0325561Y0126174D02*
X0033863Y0126174D01*
X0033882Y0129166D02*
X0325561Y0129166D01*
X0325561Y0128568D02*
X0013200Y0128568D01*
X0013200Y0129166D02*
X0019840Y0129166D01*
X0019241Y0129765D02*
X0013200Y0129765D01*
X0013200Y0130363D02*
X0018643Y0130363D01*
X0018044Y0130962D02*
X0013200Y0130962D01*
X0013200Y0131560D02*
X0017961Y0131560D01*
X0017961Y0132159D02*
X0013200Y0132159D01*
X0013200Y0132757D02*
X0017961Y0132757D01*
X0017961Y0133356D02*
X0013200Y0133356D01*
X0013200Y0133954D02*
X0017961Y0133954D01*
X0018237Y0134553D02*
X0013200Y0134553D01*
X0013200Y0135151D02*
X0018836Y0135151D01*
X0019434Y0135750D02*
X0013200Y0135750D01*
X0013200Y0136348D02*
X0020033Y0136348D01*
X0019665Y0139341D02*
X0013200Y0139341D01*
X0013200Y0139939D02*
X0019066Y0139939D01*
X0018468Y0140538D02*
X0013200Y0140538D01*
X0013200Y0141137D02*
X0017961Y0141137D01*
X0017961Y0141735D02*
X0013200Y0141735D01*
X0013200Y0142334D02*
X0017961Y0142334D01*
X0017961Y0142932D02*
X0013200Y0142932D01*
X0013200Y0143531D02*
X0017961Y0143531D01*
X0017961Y0144129D02*
X0013200Y0144129D01*
X0013200Y0144728D02*
X0018412Y0144728D01*
X0019011Y0145326D02*
X0013200Y0145326D01*
X0013200Y0145925D02*
X0019609Y0145925D01*
X0020208Y0146523D02*
X0013200Y0146523D01*
X0013200Y0147122D02*
X0325561Y0147122D01*
X0325561Y0147720D02*
X0013200Y0147720D01*
X0013200Y0148319D02*
X0325561Y0148319D01*
X0325561Y0148917D02*
X0033633Y0148917D01*
X0034231Y0149516D02*
X0325561Y0149516D01*
X0325561Y0150114D02*
X0034830Y0150114D01*
X0035428Y0150713D02*
X0325561Y0150713D01*
X0325561Y0151311D02*
X0035761Y0151311D01*
X0035761Y0151910D02*
X0325561Y0151910D01*
X0325561Y0152508D02*
X0035761Y0152508D01*
X0035761Y0153107D02*
X0325561Y0153107D01*
X0325561Y0153705D02*
X0035761Y0153705D01*
X0035733Y0154304D02*
X0325561Y0154304D01*
X0325561Y0154902D02*
X0035134Y0154902D01*
X0034536Y0155501D02*
X0325561Y0155501D01*
X0325561Y0156099D02*
X0033937Y0156099D01*
X0033807Y0159092D02*
X0325561Y0159092D01*
X0325561Y0159690D02*
X0034406Y0159690D01*
X0035004Y0160289D02*
X0325561Y0160289D01*
X0325561Y0160887D02*
X0035603Y0160887D01*
X0035761Y0161486D02*
X0325561Y0161486D01*
X0325561Y0162084D02*
X0035761Y0162084D01*
X0035761Y0162683D02*
X0325561Y0162683D01*
X0325561Y0163281D02*
X0035761Y0163281D01*
X0035761Y0163880D02*
X0325561Y0163880D01*
X0325561Y0164478D02*
X0035558Y0164478D01*
X0034960Y0165077D02*
X0325561Y0165077D01*
X0325561Y0165675D02*
X0034361Y0165675D01*
X0033763Y0166274D02*
X0325561Y0166274D01*
X0325561Y0166872D02*
X0013200Y0166872D01*
X0013200Y0166274D02*
X0019959Y0166274D01*
X0019360Y0165675D02*
X0013200Y0165675D01*
X0013200Y0165077D02*
X0018762Y0165077D01*
X0018163Y0164478D02*
X0013200Y0164478D01*
X0013200Y0163880D02*
X0017961Y0163880D01*
X0017961Y0163281D02*
X0013200Y0163281D01*
X0013200Y0162683D02*
X0017961Y0162683D01*
X0017961Y0162084D02*
X0013200Y0162084D01*
X0013200Y0161486D02*
X0017961Y0161486D01*
X0018118Y0160887D02*
X0013200Y0160887D01*
X0013200Y0160289D02*
X0018717Y0160289D01*
X0019315Y0159690D02*
X0013200Y0159690D01*
X0013200Y0159092D02*
X0019914Y0159092D01*
X0019784Y0156099D02*
X0013200Y0156099D01*
X0013200Y0155501D02*
X0019185Y0155501D01*
X0018587Y0154902D02*
X0013200Y0154902D01*
X0013200Y0154304D02*
X0017988Y0154304D01*
X0017961Y0153705D02*
X0013200Y0153705D01*
X0013200Y0153107D02*
X0017961Y0153107D01*
X0017961Y0152508D02*
X0013200Y0152508D01*
X0013200Y0151910D02*
X0017961Y0151910D01*
X0017961Y0151311D02*
X0013200Y0151311D01*
X0013200Y0150713D02*
X0018293Y0150713D01*
X0018892Y0150114D02*
X0013200Y0150114D01*
X0013200Y0149516D02*
X0019490Y0149516D01*
X0020089Y0148917D02*
X0013200Y0148917D01*
X0013200Y0156698D02*
X0325561Y0156698D01*
X0325561Y0157296D02*
X0013200Y0157296D01*
X0013200Y0157895D02*
X0325561Y0157895D01*
X0325561Y0158493D02*
X0013200Y0158493D01*
X0013200Y0167471D02*
X0325561Y0167471D01*
X0325561Y0178843D02*
X0318538Y0178843D01*
X0319137Y0179441D02*
X0325561Y0179441D01*
X0325561Y0180040D02*
X0319735Y0180040D01*
X0320334Y0180638D02*
X0325561Y0180638D01*
X0325561Y0181237D02*
X0320761Y0181237D01*
X0320761Y0181835D02*
X0325561Y0181835D01*
X0325561Y0182434D02*
X0320761Y0182434D01*
X0320761Y0183032D02*
X0325561Y0183032D01*
X0325561Y0183631D02*
X0320761Y0183631D01*
X0320761Y0184229D02*
X0325561Y0184229D01*
X0325561Y0184828D02*
X0320229Y0184828D01*
X0319630Y0185426D02*
X0325561Y0185426D01*
X0325561Y0186025D02*
X0319031Y0186025D01*
X0325561Y0186623D02*
X0308999Y0186623D01*
X0308642Y0188380D02*
X0311161Y0190899D01*
X0311161Y0192380D01*
X0307161Y0192380D01*
X0307161Y0188380D01*
X0308642Y0188380D01*
X0307161Y0188419D02*
X0306561Y0188419D01*
X0306561Y0189017D02*
X0307161Y0189017D01*
X0307161Y0189616D02*
X0306561Y0189616D01*
X0306561Y0190214D02*
X0307161Y0190214D01*
X0307161Y0190813D02*
X0306561Y0190813D01*
X0306561Y0191411D02*
X0307161Y0191411D01*
X0307161Y0192010D02*
X0306561Y0192010D01*
X0306561Y0192608D02*
X0300761Y0192608D01*
X0306561Y0193207D02*
X0307161Y0193207D01*
X0307161Y0193805D02*
X0306561Y0193805D01*
X0306561Y0194404D02*
X0307161Y0194404D01*
X0307161Y0195003D02*
X0306561Y0195003D01*
X0306561Y0195601D02*
X0307161Y0195601D01*
X0307161Y0196200D02*
X0306561Y0196200D01*
X0306561Y0196798D02*
X0307161Y0196798D01*
X0307161Y0198594D02*
X0306561Y0198594D01*
X0306561Y0199192D02*
X0307161Y0199192D01*
X0307161Y0199791D02*
X0306561Y0199791D01*
X0306561Y0200389D02*
X0307161Y0200389D01*
X0307161Y0200988D02*
X0306561Y0200988D01*
X0306561Y0201586D02*
X0307161Y0201586D01*
X0307161Y0203382D02*
X0306561Y0203382D01*
X0306561Y0203980D02*
X0307161Y0203980D01*
X0307161Y0204579D02*
X0306561Y0204579D01*
X0306561Y0205177D02*
X0307161Y0205177D01*
X0307161Y0205776D02*
X0306561Y0205776D01*
X0306561Y0206374D02*
X0307161Y0206374D01*
X0307161Y0206973D02*
X0306561Y0206973D01*
X0309422Y0196200D02*
X0314864Y0196200D01*
X0314266Y0195601D02*
X0310021Y0195601D01*
X0310620Y0195003D02*
X0313667Y0195003D01*
X0313069Y0194404D02*
X0311161Y0194404D01*
X0311161Y0193805D02*
X0312961Y0193805D01*
X0312961Y0193207D02*
X0311161Y0193207D01*
X0311161Y0192010D02*
X0312961Y0192010D01*
X0312961Y0192608D02*
X0307161Y0192608D01*
X0309877Y0189616D02*
X0314410Y0189616D01*
X0313811Y0190214D02*
X0310476Y0190214D01*
X0311074Y0190813D02*
X0313213Y0190813D01*
X0312961Y0191411D02*
X0311161Y0191411D01*
X0307161Y0186623D02*
X0306561Y0186623D01*
X0306561Y0186025D02*
X0307161Y0186025D01*
X0307161Y0185426D02*
X0306561Y0185426D01*
X0306561Y0184828D02*
X0307161Y0184828D01*
X0307161Y0184229D02*
X0306561Y0184229D01*
X0306561Y0183631D02*
X0307161Y0183631D01*
X0311161Y0181835D02*
X0312961Y0181835D01*
X0312961Y0181237D02*
X0311161Y0181237D01*
X0310900Y0180638D02*
X0313387Y0180638D01*
X0313986Y0180040D02*
X0310301Y0180040D01*
X0309703Y0179441D02*
X0314584Y0179441D01*
X0315183Y0178843D02*
X0309104Y0178843D01*
X0325561Y0146523D02*
X0033514Y0146523D01*
X0034112Y0145925D02*
X0325561Y0145925D01*
X0325561Y0145326D02*
X0034711Y0145326D01*
X0035309Y0144728D02*
X0325561Y0144728D01*
X0325561Y0144129D02*
X0035761Y0144129D01*
X0035761Y0143531D02*
X0325561Y0143531D01*
X0325561Y0142932D02*
X0035761Y0142932D01*
X0035761Y0142334D02*
X0325561Y0142334D01*
X0325561Y0141735D02*
X0035761Y0141735D01*
X0035761Y0141137D02*
X0325561Y0141137D01*
X0325561Y0140538D02*
X0035253Y0140538D01*
X0034655Y0139939D02*
X0325561Y0139939D01*
X0325561Y0139341D02*
X0034056Y0139341D01*
X0033688Y0136348D02*
X0325561Y0136348D01*
X0325561Y0135750D02*
X0034287Y0135750D01*
X0034885Y0135151D02*
X0325561Y0135151D01*
X0325561Y0134553D02*
X0035484Y0134553D01*
X0035761Y0133954D02*
X0325561Y0133954D01*
X0325561Y0133356D02*
X0035761Y0133356D01*
X0035761Y0132757D02*
X0325561Y0132757D01*
X0325561Y0132159D02*
X0035761Y0132159D01*
X0035761Y0131560D02*
X0325561Y0131560D01*
X0325561Y0130962D02*
X0035677Y0130962D01*
X0035079Y0130363D02*
X0325561Y0130363D01*
X0325561Y0129765D02*
X0034480Y0129765D01*
X0019858Y0126174D02*
X0013200Y0126174D01*
X0013200Y0126772D02*
X0325561Y0126772D01*
X0325561Y0127371D02*
X0013200Y0127371D01*
X0013200Y0127969D02*
X0325561Y0127969D01*
X0325561Y0136947D02*
X0013200Y0136947D01*
X0013200Y0137545D02*
X0325561Y0137545D01*
X0325561Y0138144D02*
X0013200Y0138144D01*
X0013200Y0138742D02*
X0325561Y0138742D01*
X0325561Y0110612D02*
X0035328Y0110612D01*
X0034729Y0110014D02*
X0325561Y0110014D01*
X0325561Y0109415D02*
X0034131Y0109415D01*
X0033532Y0108817D02*
X0325561Y0108817D01*
X0325561Y0108218D02*
X0013200Y0108218D01*
X0013200Y0107620D02*
X0325561Y0107620D01*
X0325561Y0068717D02*
X0212956Y0068717D01*
X0213300Y0068118D02*
X0325561Y0068118D01*
X0325561Y0067520D02*
X0213300Y0067520D01*
X0213300Y0066921D02*
X0325561Y0066921D01*
X0325561Y0066323D02*
X0213300Y0066323D01*
X0213300Y0065724D02*
X0325561Y0065724D01*
X0325561Y0065126D02*
X0213300Y0065126D01*
X0213300Y0064527D02*
X0325561Y0064527D01*
X0325561Y0063929D02*
X0213300Y0063929D01*
X0213300Y0063330D02*
X0325561Y0063330D01*
X0325561Y0062732D02*
X0213300Y0062732D01*
X0213300Y0062133D02*
X0325561Y0062133D01*
X0199700Y0059140D02*
X0199100Y0059140D01*
X0199100Y0058542D02*
X0199700Y0058542D01*
X0199700Y0057943D02*
X0199100Y0057943D01*
X0199100Y0057345D02*
X0199700Y0057345D01*
X0199700Y0056746D02*
X0199100Y0056746D01*
X0199100Y0056148D02*
X0199700Y0056148D01*
X0199700Y0055549D02*
X0199100Y0055549D01*
X0199100Y0053754D02*
X0199700Y0053754D01*
X0199700Y0053155D02*
X0199100Y0053155D01*
X0199100Y0052557D02*
X0199700Y0052557D01*
X0199700Y0051958D02*
X0199100Y0051958D01*
X0199100Y0051360D02*
X0199700Y0051360D01*
X0199700Y0050761D02*
X0199100Y0050761D01*
X0140108Y0227322D02*
X0013200Y0227322D01*
X0013200Y0227921D02*
X0139509Y0227921D01*
X0139200Y0228519D02*
X0013200Y0228519D01*
X0013200Y0247073D02*
X0325561Y0247073D01*
X0325561Y0247672D02*
X0013200Y0247672D01*
X0013200Y0248270D02*
X0325561Y0248270D01*
X0325561Y0257248D02*
X0056200Y0257248D01*
X0056200Y0257846D02*
X0325561Y0257846D01*
X0325561Y0274006D02*
X0035761Y0274006D01*
X0035432Y0274605D02*
X0325561Y0274605D01*
X0325561Y0275203D02*
X0034834Y0275203D01*
X0034235Y0275802D02*
X0325561Y0275802D01*
X0325561Y0276400D02*
X0033637Y0276400D01*
X0033476Y0278761D02*
X0030245Y0278761D01*
X0027961Y0281045D01*
X0027961Y0284276D01*
X0030245Y0286561D01*
X0033476Y0286561D01*
X0035761Y0284276D01*
X0035761Y0281045D01*
X0033476Y0278761D01*
X0033510Y0278794D02*
X0325561Y0278794D01*
X0325561Y0278196D02*
X0013200Y0278196D01*
X0013200Y0278794D02*
X0020212Y0278794D01*
X0020245Y0278761D02*
X0023476Y0278761D01*
X0025761Y0281045D01*
X0025761Y0284276D01*
X0023476Y0286561D01*
X0020245Y0286561D01*
X0017961Y0284276D01*
X0017961Y0281045D01*
X0020245Y0278761D01*
X0019613Y0279393D02*
X0013200Y0279393D01*
X0013200Y0279991D02*
X0019015Y0279991D01*
X0018416Y0280590D02*
X0013200Y0280590D01*
X0013200Y0281188D02*
X0017961Y0281188D01*
X0017961Y0281787D02*
X0013200Y0281787D01*
X0013200Y0282385D02*
X0017961Y0282385D01*
X0017961Y0282984D02*
X0013200Y0282984D01*
X0013200Y0283582D02*
X0017961Y0283582D01*
X0017961Y0284181D02*
X0013200Y0284181D01*
X0013200Y0284779D02*
X0018464Y0284779D01*
X0019062Y0285378D02*
X0013200Y0285378D01*
X0013200Y0285976D02*
X0019661Y0285976D01*
X0020245Y0288761D02*
X0023476Y0288761D01*
X0025761Y0291045D01*
X0025761Y0294276D01*
X0023476Y0296561D01*
X0020245Y0296561D01*
X0017961Y0294276D01*
X0017961Y0291045D01*
X0020245Y0288761D01*
X0020037Y0288969D02*
X0013200Y0288969D01*
X0013200Y0289567D02*
X0019439Y0289567D01*
X0018840Y0290166D02*
X0013200Y0290166D01*
X0013200Y0290764D02*
X0018241Y0290764D01*
X0017961Y0291363D02*
X0013200Y0291363D01*
X0013200Y0291961D02*
X0017961Y0291961D01*
X0017961Y0292560D02*
X0013200Y0292560D01*
X0013200Y0293158D02*
X0017961Y0293158D01*
X0017961Y0293757D02*
X0013200Y0293757D01*
X0013200Y0294355D02*
X0018040Y0294355D01*
X0018638Y0294954D02*
X0013200Y0294954D01*
X0013200Y0295552D02*
X0019237Y0295552D01*
X0019836Y0296151D02*
X0013200Y0296151D01*
X0013200Y0296749D02*
X0325561Y0296749D01*
X0325561Y0296151D02*
X0268551Y0296151D01*
X0268207Y0296205D02*
X0268105Y0296205D01*
X0268105Y0291406D01*
X0267506Y0291406D01*
X0267506Y0296205D01*
X0267404Y0296205D01*
X0266611Y0296080D01*
X0265848Y0295832D01*
X0265133Y0295467D01*
X0264483Y0294996D01*
X0263915Y0294428D01*
X0263444Y0293778D01*
X0263079Y0293063D01*
X0262831Y0292300D01*
X0262706Y0291507D01*
X0262706Y0291405D01*
X0267505Y0291405D01*
X0267505Y0290806D01*
X0262706Y0290806D01*
X0262706Y0290704D01*
X0262831Y0289911D01*
X0263079Y0289148D01*
X0263444Y0288433D01*
X0263915Y0287783D01*
X0264483Y0287215D01*
X0265133Y0286744D01*
X0265848Y0286379D01*
X0266611Y0286131D01*
X0267404Y0286006D01*
X0267506Y0286006D01*
X0267506Y0290805D01*
X0268105Y0290805D01*
X0268105Y0286006D01*
X0268207Y0286006D01*
X0269000Y0286131D01*
X0269763Y0286379D01*
X0270478Y0286744D01*
X0271128Y0287215D01*
X0271696Y0287783D01*
X0272167Y0288433D01*
X0272532Y0289148D01*
X0272780Y0289911D01*
X0272905Y0290704D01*
X0272905Y0290806D01*
X0268106Y0290806D01*
X0268106Y0291405D01*
X0272905Y0291405D01*
X0272905Y0291507D01*
X0272780Y0292300D01*
X0272532Y0293063D01*
X0272167Y0293778D01*
X0271696Y0294428D01*
X0271128Y0294996D01*
X0270478Y0295467D01*
X0269763Y0295832D01*
X0269000Y0296080D01*
X0268207Y0296205D01*
X0268105Y0296151D02*
X0267506Y0296151D01*
X0267060Y0296151D02*
X0071701Y0296151D01*
X0071356Y0296205D02*
X0071255Y0296205D01*
X0071255Y0291406D01*
X0070655Y0291406D01*
X0070655Y0296205D01*
X0070554Y0296205D01*
X0069761Y0296080D01*
X0068997Y0295832D01*
X0068282Y0295467D01*
X0067633Y0294996D01*
X0067065Y0294428D01*
X0066593Y0293778D01*
X0066229Y0293063D01*
X0065981Y0292300D01*
X0065855Y0291507D01*
X0065855Y0291405D01*
X0070655Y0291405D01*
X0070655Y0290806D01*
X0065855Y0290806D01*
X0065855Y0290704D01*
X0065981Y0289911D01*
X0066229Y0289148D01*
X0066593Y0288433D01*
X0067065Y0287783D01*
X0067633Y0287215D01*
X0068282Y0286744D01*
X0068997Y0286379D01*
X0069761Y0286131D01*
X0070554Y0286006D01*
X0070655Y0286006D01*
X0070655Y0290805D01*
X0071255Y0290805D01*
X0071255Y0286006D01*
X0071356Y0286006D01*
X0072149Y0286131D01*
X0072913Y0286379D01*
X0073628Y0286744D01*
X0074278Y0287215D01*
X0074845Y0287783D01*
X0075317Y0288433D01*
X0075681Y0289148D01*
X0075930Y0289911D01*
X0076055Y0290704D01*
X0076055Y0290806D01*
X0071255Y0290806D01*
X0071255Y0291405D01*
X0076055Y0291405D01*
X0076055Y0291507D01*
X0075930Y0292300D01*
X0075681Y0293063D01*
X0075317Y0293778D01*
X0074845Y0294428D01*
X0074278Y0294996D01*
X0073628Y0295467D01*
X0072913Y0295832D01*
X0072149Y0296080D01*
X0071356Y0296205D01*
X0071255Y0296151D02*
X0070655Y0296151D01*
X0070209Y0296151D02*
X0033886Y0296151D01*
X0033476Y0296561D02*
X0030245Y0296561D01*
X0027961Y0294276D01*
X0027961Y0291045D01*
X0030245Y0288761D01*
X0033476Y0288761D01*
X0035761Y0291045D01*
X0035761Y0294276D01*
X0033476Y0296561D01*
X0034484Y0295552D02*
X0068449Y0295552D01*
X0067591Y0294954D02*
X0035083Y0294954D01*
X0035681Y0294355D02*
X0067012Y0294355D01*
X0066582Y0293757D02*
X0035761Y0293757D01*
X0035761Y0293158D02*
X0066277Y0293158D01*
X0066065Y0292560D02*
X0035761Y0292560D01*
X0035761Y0291961D02*
X0065927Y0291961D01*
X0065855Y0290764D02*
X0035480Y0290764D01*
X0035761Y0291363D02*
X0070655Y0291363D01*
X0070655Y0291961D02*
X0071255Y0291961D01*
X0071255Y0291363D02*
X0267505Y0291363D01*
X0267506Y0291961D02*
X0268105Y0291961D01*
X0268106Y0291363D02*
X0325561Y0291363D01*
X0325561Y0291961D02*
X0272834Y0291961D01*
X0272695Y0292560D02*
X0325561Y0292560D01*
X0325561Y0293158D02*
X0272483Y0293158D01*
X0272178Y0293757D02*
X0325561Y0293757D01*
X0325561Y0294355D02*
X0271748Y0294355D01*
X0271170Y0294954D02*
X0325561Y0294954D01*
X0325561Y0295552D02*
X0270312Y0295552D01*
X0268105Y0295552D02*
X0267506Y0295552D01*
X0267506Y0294954D02*
X0268105Y0294954D01*
X0268105Y0294355D02*
X0267506Y0294355D01*
X0267506Y0293757D02*
X0268105Y0293757D01*
X0268105Y0293158D02*
X0267506Y0293158D01*
X0267506Y0292560D02*
X0268105Y0292560D01*
X0268105Y0290764D02*
X0267506Y0290764D01*
X0267506Y0290166D02*
X0268105Y0290166D01*
X0268105Y0289567D02*
X0267506Y0289567D01*
X0267506Y0288969D02*
X0268105Y0288969D01*
X0268105Y0288370D02*
X0267506Y0288370D01*
X0267506Y0287772D02*
X0268105Y0287772D01*
X0268105Y0287173D02*
X0267506Y0287173D01*
X0267506Y0286575D02*
X0268105Y0286575D01*
X0270147Y0286575D02*
X0325561Y0286575D01*
X0325561Y0287173D02*
X0271070Y0287173D01*
X0271684Y0287772D02*
X0325561Y0287772D01*
X0325561Y0288370D02*
X0272122Y0288370D01*
X0272441Y0288969D02*
X0325561Y0288969D01*
X0325561Y0289567D02*
X0272668Y0289567D01*
X0272820Y0290166D02*
X0325561Y0290166D01*
X0325561Y0290764D02*
X0272905Y0290764D01*
X0265464Y0286575D02*
X0073297Y0286575D01*
X0074219Y0287173D02*
X0264541Y0287173D01*
X0263927Y0287772D02*
X0074834Y0287772D01*
X0075272Y0288370D02*
X0263489Y0288370D01*
X0263170Y0288969D02*
X0075590Y0288969D01*
X0075818Y0289567D02*
X0262943Y0289567D01*
X0262791Y0290166D02*
X0075970Y0290166D01*
X0076055Y0290764D02*
X0262706Y0290764D01*
X0262777Y0291961D02*
X0075983Y0291961D01*
X0075845Y0292560D02*
X0262916Y0292560D01*
X0263128Y0293158D02*
X0075633Y0293158D01*
X0075328Y0293757D02*
X0263433Y0293757D01*
X0263863Y0294355D02*
X0074898Y0294355D01*
X0074319Y0294954D02*
X0264441Y0294954D01*
X0265299Y0295552D02*
X0073461Y0295552D01*
X0071255Y0295552D02*
X0070655Y0295552D01*
X0070655Y0294954D02*
X0071255Y0294954D01*
X0071255Y0294355D02*
X0070655Y0294355D01*
X0070655Y0293757D02*
X0071255Y0293757D01*
X0071255Y0293158D02*
X0070655Y0293158D01*
X0070655Y0292560D02*
X0071255Y0292560D01*
X0071255Y0290764D02*
X0070655Y0290764D01*
X0070655Y0290166D02*
X0071255Y0290166D01*
X0071255Y0289567D02*
X0070655Y0289567D01*
X0070655Y0288969D02*
X0071255Y0288969D01*
X0071255Y0288370D02*
X0070655Y0288370D01*
X0070655Y0287772D02*
X0071255Y0287772D01*
X0071255Y0287173D02*
X0070655Y0287173D01*
X0070655Y0286575D02*
X0071255Y0286575D01*
X0068614Y0286575D02*
X0013200Y0286575D01*
X0013200Y0287173D02*
X0067691Y0287173D01*
X0067076Y0287772D02*
X0013200Y0287772D01*
X0013200Y0288370D02*
X0066638Y0288370D01*
X0066320Y0288969D02*
X0033684Y0288969D01*
X0034283Y0289567D02*
X0066092Y0289567D01*
X0065940Y0290166D02*
X0034881Y0290166D01*
X0034060Y0285976D02*
X0325561Y0285976D01*
X0325561Y0285378D02*
X0034659Y0285378D01*
X0035257Y0284779D02*
X0325561Y0284779D01*
X0325561Y0284181D02*
X0035761Y0284181D01*
X0035761Y0283582D02*
X0325561Y0283582D01*
X0325561Y0282984D02*
X0035761Y0282984D01*
X0035761Y0282385D02*
X0325561Y0282385D01*
X0325561Y0281787D02*
X0035761Y0281787D01*
X0035761Y0281188D02*
X0325561Y0281188D01*
X0325561Y0280590D02*
X0035305Y0280590D01*
X0034707Y0279991D02*
X0325561Y0279991D01*
X0325561Y0279393D02*
X0034108Y0279393D01*
X0030212Y0278794D02*
X0023510Y0278794D01*
X0024108Y0279393D02*
X0029613Y0279393D01*
X0029015Y0279991D02*
X0024707Y0279991D01*
X0025305Y0280590D02*
X0028416Y0280590D01*
X0027961Y0281188D02*
X0025761Y0281188D01*
X0025761Y0281787D02*
X0027961Y0281787D01*
X0027961Y0282385D02*
X0025761Y0282385D01*
X0025761Y0282984D02*
X0027961Y0282984D01*
X0027961Y0283582D02*
X0025761Y0283582D01*
X0025761Y0284181D02*
X0027961Y0284181D01*
X0028464Y0284779D02*
X0025257Y0284779D01*
X0024659Y0285378D02*
X0029062Y0285378D01*
X0029661Y0285976D02*
X0024060Y0285976D01*
X0023684Y0288969D02*
X0030037Y0288969D01*
X0029439Y0289567D02*
X0024283Y0289567D01*
X0024881Y0290166D02*
X0028840Y0290166D01*
X0028241Y0290764D02*
X0025480Y0290764D01*
X0025761Y0291363D02*
X0027961Y0291363D01*
X0027961Y0291961D02*
X0025761Y0291961D01*
X0025761Y0292560D02*
X0027961Y0292560D01*
X0027961Y0293158D02*
X0025761Y0293158D01*
X0025761Y0293757D02*
X0027961Y0293757D01*
X0028040Y0294355D02*
X0025681Y0294355D01*
X0025083Y0294954D02*
X0028638Y0294954D01*
X0029237Y0295552D02*
X0024484Y0295552D01*
X0023886Y0296151D02*
X0029836Y0296151D01*
X0013200Y0297348D02*
X0325561Y0297348D01*
X0325561Y0297946D02*
X0013200Y0297946D01*
X0013200Y0298545D02*
X0325561Y0298545D01*
X0325561Y0299143D02*
X0013200Y0299143D01*
X0013200Y0299742D02*
X0325561Y0299742D01*
X0325561Y0300341D02*
X0013200Y0300341D01*
X0013200Y0300939D02*
X0325561Y0300939D01*
X0325561Y0301538D02*
X0013200Y0301538D01*
X0013200Y0302136D02*
X0325561Y0302136D01*
X0325561Y0302735D02*
X0013200Y0302735D01*
X0013200Y0303333D02*
X0325561Y0303333D01*
X0325561Y0303932D02*
X0013200Y0303932D01*
X0013200Y0304530D02*
X0325561Y0304530D01*
X0325561Y0305129D02*
X0013200Y0305129D01*
X0013200Y0305727D02*
X0325561Y0305727D01*
X0325561Y0306326D02*
X0013200Y0306326D01*
X0013200Y0306924D02*
X0325561Y0306924D01*
X0325561Y0307523D02*
X0013200Y0307523D01*
X0013200Y0308121D02*
X0325561Y0308121D01*
X0325561Y0308720D02*
X0013200Y0308720D01*
X0013200Y0309318D02*
X0325561Y0309318D01*
X0325561Y0309917D02*
X0013200Y0309917D01*
X0013200Y0310515D02*
X0325561Y0310515D01*
X0325561Y0311114D02*
X0013200Y0311114D01*
X0013200Y0311712D02*
X0325561Y0311712D01*
X0325561Y0312311D02*
X0013200Y0312311D01*
X0013200Y0312909D02*
X0325561Y0312909D01*
X0325561Y0313508D02*
X0013200Y0313508D01*
X0013200Y0314106D02*
X0325561Y0314106D01*
X0325561Y0314705D02*
X0013200Y0314705D01*
X0013200Y0315303D02*
X0325561Y0315303D01*
X0325561Y0315902D02*
X0013200Y0315902D01*
X0013200Y0316500D02*
X0145906Y0316500D01*
X0145977Y0316430D02*
X0152722Y0316430D01*
X0153250Y0316957D01*
X0153250Y0323703D01*
X0152722Y0324230D01*
X0145977Y0324230D01*
X0145450Y0323703D01*
X0145450Y0316957D01*
X0145977Y0316430D01*
X0145450Y0317099D02*
X0013200Y0317099D01*
X0013200Y0317697D02*
X0145450Y0317697D01*
X0145450Y0318296D02*
X0013200Y0318296D01*
X0013200Y0318894D02*
X0145450Y0318894D01*
X0145450Y0319493D02*
X0013200Y0319493D01*
X0013200Y0320091D02*
X0145450Y0320091D01*
X0145450Y0320690D02*
X0013200Y0320690D01*
X0013200Y0321288D02*
X0145450Y0321288D01*
X0145450Y0321887D02*
X0013200Y0321887D01*
X0013200Y0322485D02*
X0145450Y0322485D01*
X0145450Y0323084D02*
X0013200Y0323084D01*
X0013200Y0323682D02*
X0145450Y0323682D01*
X0147568Y0326030D02*
X0149050Y0326030D01*
X0149050Y0330030D01*
X0149650Y0330030D01*
X0149650Y0330630D01*
X0153650Y0330630D01*
X0153650Y0332111D01*
X0151131Y0334630D01*
X0149650Y0334630D01*
X0149650Y0330630D01*
X0149050Y0330630D01*
X0149050Y0334630D01*
X0147568Y0334630D01*
X0145050Y0332111D01*
X0145050Y0330630D01*
X0149050Y0330630D01*
X0149050Y0330030D01*
X0145050Y0330030D01*
X0145050Y0328549D01*
X0147568Y0326030D01*
X0147522Y0326077D02*
X0013200Y0326077D01*
X0013200Y0326675D02*
X0146923Y0326675D01*
X0146325Y0327274D02*
X0030270Y0327274D01*
X0029160Y0326813D02*
X0031953Y0327970D01*
X0034090Y0330108D01*
X0035247Y0332901D01*
X0035247Y0335924D01*
X0034090Y0338717D01*
X0031953Y0340855D01*
X0029160Y0342012D01*
X0026136Y0342012D01*
X0023343Y0340855D01*
X0021206Y0338717D01*
X0020049Y0335924D01*
X0020049Y0332901D01*
X0021206Y0330108D01*
X0023343Y0327970D01*
X0026136Y0326813D01*
X0029160Y0326813D01*
X0031715Y0327872D02*
X0145726Y0327872D01*
X0145128Y0328471D02*
X0032453Y0328471D01*
X0033051Y0329069D02*
X0145050Y0329069D01*
X0145050Y0329668D02*
X0033650Y0329668D01*
X0034156Y0330266D02*
X0149050Y0330266D01*
X0149050Y0329668D02*
X0149650Y0329668D01*
X0149650Y0330030D02*
X0149650Y0326030D01*
X0151131Y0326030D01*
X0153650Y0328549D01*
X0153650Y0330030D01*
X0149650Y0330030D01*
X0149650Y0330266D02*
X0159050Y0330266D01*
X0159050Y0330030D02*
X0155050Y0330030D01*
X0155050Y0328549D01*
X0157568Y0326030D01*
X0159050Y0326030D01*
X0159050Y0330030D01*
X0159650Y0330030D01*
X0159650Y0330630D01*
X0163650Y0330630D01*
X0163650Y0332111D01*
X0161131Y0334630D01*
X0159650Y0334630D01*
X0159650Y0330630D01*
X0159050Y0330630D01*
X0159050Y0334630D01*
X0157568Y0334630D01*
X0155050Y0332111D01*
X0155050Y0330630D01*
X0159050Y0330630D01*
X0159050Y0330030D01*
X0159050Y0329668D02*
X0159650Y0329668D01*
X0159650Y0330030D02*
X0159650Y0326030D01*
X0161131Y0326030D01*
X0163650Y0328549D01*
X0163650Y0330030D01*
X0159650Y0330030D01*
X0159650Y0330266D02*
X0169050Y0330266D01*
X0169050Y0330030D02*
X0165050Y0330030D01*
X0165050Y0328549D01*
X0167568Y0326030D01*
X0169050Y0326030D01*
X0169050Y0330030D01*
X0169650Y0330030D01*
X0169650Y0330630D01*
X0173650Y0330630D01*
X0173650Y0332111D01*
X0171131Y0334630D01*
X0169650Y0334630D01*
X0169650Y0330630D01*
X0169050Y0330630D01*
X0169050Y0334630D01*
X0167568Y0334630D01*
X0165050Y0332111D01*
X0165050Y0330630D01*
X0169050Y0330630D01*
X0169050Y0330030D01*
X0169050Y0329668D02*
X0169650Y0329668D01*
X0169650Y0330030D02*
X0169650Y0326030D01*
X0171131Y0326030D01*
X0173650Y0328549D01*
X0173650Y0330030D01*
X0169650Y0330030D01*
X0169650Y0330266D02*
X0179050Y0330266D01*
X0179050Y0330030D02*
X0175050Y0330030D01*
X0175050Y0328549D01*
X0177568Y0326030D01*
X0179050Y0326030D01*
X0179050Y0330030D01*
X0179650Y0330030D01*
X0179650Y0330630D01*
X0183650Y0330630D01*
X0183650Y0332111D01*
X0181131Y0334630D01*
X0179650Y0334630D01*
X0179650Y0330630D01*
X0179050Y0330630D01*
X0179050Y0334630D01*
X0177568Y0334630D01*
X0175050Y0332111D01*
X0175050Y0330630D01*
X0179050Y0330630D01*
X0179050Y0330030D01*
X0179050Y0329668D02*
X0179650Y0329668D01*
X0179650Y0330030D02*
X0179650Y0326030D01*
X0181131Y0326030D01*
X0183650Y0328549D01*
X0183650Y0330030D01*
X0179650Y0330030D01*
X0179650Y0330266D02*
X0189050Y0330266D01*
X0189050Y0330030D02*
X0185050Y0330030D01*
X0185050Y0328549D01*
X0187568Y0326030D01*
X0189050Y0326030D01*
X0189050Y0330030D01*
X0189650Y0330030D01*
X0189650Y0330630D01*
X0193650Y0330630D01*
X0193650Y0332111D01*
X0191131Y0334630D01*
X0189650Y0334630D01*
X0189650Y0330630D01*
X0189050Y0330630D01*
X0189050Y0334630D01*
X0187568Y0334630D01*
X0185050Y0332111D01*
X0185050Y0330630D01*
X0189050Y0330630D01*
X0189050Y0330030D01*
X0189050Y0329668D02*
X0189650Y0329668D01*
X0189650Y0330030D02*
X0189650Y0326030D01*
X0191131Y0326030D01*
X0193650Y0328549D01*
X0193650Y0330030D01*
X0189650Y0330030D01*
X0189650Y0330266D02*
X0304605Y0330266D01*
X0304670Y0330108D02*
X0306808Y0327970D01*
X0309601Y0326813D01*
X0312624Y0326813D01*
X0315417Y0327970D01*
X0317555Y0330108D01*
X0318712Y0332901D01*
X0318712Y0335924D01*
X0317555Y0338717D01*
X0315417Y0340855D01*
X0312624Y0342012D01*
X0309601Y0342012D01*
X0306808Y0340855D01*
X0304670Y0338717D01*
X0303513Y0335924D01*
X0303513Y0332901D01*
X0304670Y0330108D01*
X0305111Y0329668D02*
X0193650Y0329668D01*
X0193650Y0329069D02*
X0305709Y0329069D01*
X0306308Y0328471D02*
X0193571Y0328471D01*
X0192973Y0327872D02*
X0307045Y0327872D01*
X0308490Y0327274D02*
X0192374Y0327274D01*
X0191776Y0326675D02*
X0325561Y0326675D01*
X0325561Y0326077D02*
X0191177Y0326077D01*
X0189650Y0326077D02*
X0189050Y0326077D01*
X0189050Y0326675D02*
X0189650Y0326675D01*
X0189650Y0327274D02*
X0189050Y0327274D01*
X0189050Y0327872D02*
X0189650Y0327872D01*
X0189650Y0328471D02*
X0189050Y0328471D01*
X0189050Y0329069D02*
X0189650Y0329069D01*
X0189650Y0330865D02*
X0189050Y0330865D01*
X0189050Y0331463D02*
X0189650Y0331463D01*
X0189650Y0332062D02*
X0189050Y0332062D01*
X0189050Y0332660D02*
X0189650Y0332660D01*
X0189650Y0333259D02*
X0189050Y0333259D01*
X0189050Y0333857D02*
X0189650Y0333857D01*
X0189650Y0334456D02*
X0189050Y0334456D01*
X0187394Y0334456D02*
X0181305Y0334456D01*
X0181903Y0333857D02*
X0186796Y0333857D01*
X0186197Y0333259D02*
X0182502Y0333259D01*
X0183100Y0332660D02*
X0185599Y0332660D01*
X0185050Y0332062D02*
X0183650Y0332062D01*
X0183650Y0331463D02*
X0185050Y0331463D01*
X0185050Y0330865D02*
X0183650Y0330865D01*
X0183650Y0329668D02*
X0185050Y0329668D01*
X0185050Y0329069D02*
X0183650Y0329069D01*
X0183571Y0328471D02*
X0185128Y0328471D01*
X0185726Y0327872D02*
X0182973Y0327872D01*
X0182374Y0327274D02*
X0186325Y0327274D01*
X0186923Y0326675D02*
X0181776Y0326675D01*
X0181177Y0326077D02*
X0187522Y0326077D01*
X0187734Y0324230D02*
X0185450Y0321945D01*
X0185450Y0318714D01*
X0187734Y0316430D01*
X0190965Y0316430D01*
X0193250Y0318714D01*
X0193250Y0321945D01*
X0190965Y0324230D01*
X0187734Y0324230D01*
X0187187Y0323682D02*
X0181512Y0323682D01*
X0180965Y0324230D02*
X0177734Y0324230D01*
X0175450Y0321945D01*
X0175450Y0318714D01*
X0177734Y0316430D01*
X0180965Y0316430D01*
X0183250Y0318714D01*
X0183250Y0321945D01*
X0180965Y0324230D01*
X0182111Y0323084D02*
X0186588Y0323084D01*
X0185990Y0322485D02*
X0182709Y0322485D01*
X0183250Y0321887D02*
X0185450Y0321887D01*
X0185450Y0321288D02*
X0183250Y0321288D01*
X0183250Y0320690D02*
X0185450Y0320690D01*
X0185450Y0320091D02*
X0183250Y0320091D01*
X0183250Y0319493D02*
X0185450Y0319493D01*
X0185450Y0318894D02*
X0183250Y0318894D01*
X0182831Y0318296D02*
X0185868Y0318296D01*
X0186467Y0317697D02*
X0182232Y0317697D01*
X0181634Y0317099D02*
X0187065Y0317099D01*
X0187664Y0316500D02*
X0181035Y0316500D01*
X0177664Y0316500D02*
X0171035Y0316500D01*
X0170965Y0316430D02*
X0173250Y0318714D01*
X0173250Y0321945D01*
X0170965Y0324230D01*
X0167734Y0324230D01*
X0165450Y0321945D01*
X0165450Y0318714D01*
X0167734Y0316430D01*
X0170965Y0316430D01*
X0171634Y0317099D02*
X0177065Y0317099D01*
X0176467Y0317697D02*
X0172232Y0317697D01*
X0172831Y0318296D02*
X0175868Y0318296D01*
X0175450Y0318894D02*
X0173250Y0318894D01*
X0173250Y0319493D02*
X0175450Y0319493D01*
X0175450Y0320091D02*
X0173250Y0320091D01*
X0173250Y0320690D02*
X0175450Y0320690D01*
X0175450Y0321288D02*
X0173250Y0321288D01*
X0173250Y0321887D02*
X0175450Y0321887D01*
X0175990Y0322485D02*
X0172709Y0322485D01*
X0172111Y0323084D02*
X0176588Y0323084D01*
X0177187Y0323682D02*
X0171512Y0323682D01*
X0171177Y0326077D02*
X0177522Y0326077D01*
X0176923Y0326675D02*
X0171776Y0326675D01*
X0172374Y0327274D02*
X0176325Y0327274D01*
X0175726Y0327872D02*
X0172973Y0327872D01*
X0173571Y0328471D02*
X0175128Y0328471D01*
X0175050Y0329069D02*
X0173650Y0329069D01*
X0173650Y0329668D02*
X0175050Y0329668D01*
X0175050Y0330865D02*
X0173650Y0330865D01*
X0173650Y0331463D02*
X0175050Y0331463D01*
X0175050Y0332062D02*
X0173650Y0332062D01*
X0173100Y0332660D02*
X0175599Y0332660D01*
X0176197Y0333259D02*
X0172502Y0333259D01*
X0171903Y0333857D02*
X0176796Y0333857D01*
X0177394Y0334456D02*
X0171305Y0334456D01*
X0169650Y0334456D02*
X0169050Y0334456D01*
X0169050Y0333857D02*
X0169650Y0333857D01*
X0169650Y0333259D02*
X0169050Y0333259D01*
X0169050Y0332660D02*
X0169650Y0332660D01*
X0169650Y0332062D02*
X0169050Y0332062D01*
X0169050Y0331463D02*
X0169650Y0331463D01*
X0169650Y0330865D02*
X0169050Y0330865D01*
X0169050Y0329069D02*
X0169650Y0329069D01*
X0169650Y0328471D02*
X0169050Y0328471D01*
X0169050Y0327872D02*
X0169650Y0327872D01*
X0169650Y0327274D02*
X0169050Y0327274D01*
X0169050Y0326675D02*
X0169650Y0326675D01*
X0169650Y0326077D02*
X0169050Y0326077D01*
X0167522Y0326077D02*
X0161177Y0326077D01*
X0161776Y0326675D02*
X0166923Y0326675D01*
X0166325Y0327274D02*
X0162374Y0327274D01*
X0162973Y0327872D02*
X0165726Y0327872D01*
X0165128Y0328471D02*
X0163571Y0328471D01*
X0163650Y0329069D02*
X0165050Y0329069D01*
X0165050Y0329668D02*
X0163650Y0329668D01*
X0163650Y0330865D02*
X0165050Y0330865D01*
X0165050Y0331463D02*
X0163650Y0331463D01*
X0163650Y0332062D02*
X0165050Y0332062D01*
X0165599Y0332660D02*
X0163100Y0332660D01*
X0162502Y0333259D02*
X0166197Y0333259D01*
X0166796Y0333857D02*
X0161903Y0333857D01*
X0161305Y0334456D02*
X0167394Y0334456D01*
X0167734Y0336430D02*
X0165450Y0338714D01*
X0165450Y0341945D01*
X0167734Y0344230D01*
X0170965Y0344230D01*
X0173250Y0341945D01*
X0173250Y0338714D01*
X0170965Y0336430D01*
X0167734Y0336430D01*
X0167314Y0336850D02*
X0161385Y0336850D01*
X0160965Y0336430D02*
X0163250Y0338714D01*
X0163250Y0341945D01*
X0160965Y0344230D01*
X0157734Y0344230D01*
X0155450Y0341945D01*
X0155450Y0338714D01*
X0157734Y0336430D01*
X0160965Y0336430D01*
X0161983Y0337448D02*
X0166716Y0337448D01*
X0166117Y0338047D02*
X0162582Y0338047D01*
X0163180Y0338645D02*
X0165519Y0338645D01*
X0165450Y0339244D02*
X0163250Y0339244D01*
X0163250Y0339842D02*
X0165450Y0339842D01*
X0165450Y0340441D02*
X0163250Y0340441D01*
X0163250Y0341039D02*
X0165450Y0341039D01*
X0165450Y0341638D02*
X0163250Y0341638D01*
X0162959Y0342236D02*
X0165741Y0342236D01*
X0166339Y0342835D02*
X0162360Y0342835D01*
X0161762Y0343433D02*
X0166938Y0343433D01*
X0167536Y0344032D02*
X0161163Y0344032D01*
X0157536Y0344032D02*
X0151163Y0344032D01*
X0150965Y0344230D02*
X0147734Y0344230D01*
X0145450Y0341945D01*
X0145450Y0338714D01*
X0147734Y0336430D01*
X0150965Y0336430D01*
X0153250Y0338714D01*
X0153250Y0341945D01*
X0150965Y0344230D01*
X0151762Y0343433D02*
X0156938Y0343433D01*
X0156339Y0342835D02*
X0152360Y0342835D01*
X0152959Y0342236D02*
X0155741Y0342236D01*
X0155450Y0341638D02*
X0153250Y0341638D01*
X0153250Y0341039D02*
X0155450Y0341039D01*
X0155450Y0340441D02*
X0153250Y0340441D01*
X0153250Y0339842D02*
X0155450Y0339842D01*
X0155450Y0339244D02*
X0153250Y0339244D01*
X0153180Y0338645D02*
X0155519Y0338645D01*
X0156117Y0338047D02*
X0152582Y0338047D01*
X0151983Y0337448D02*
X0156716Y0337448D01*
X0157314Y0336850D02*
X0151385Y0336850D01*
X0151305Y0334456D02*
X0157394Y0334456D01*
X0156796Y0333857D02*
X0151903Y0333857D01*
X0152502Y0333259D02*
X0156197Y0333259D01*
X0155599Y0332660D02*
X0153100Y0332660D01*
X0153650Y0332062D02*
X0155050Y0332062D01*
X0155050Y0331463D02*
X0153650Y0331463D01*
X0153650Y0330865D02*
X0155050Y0330865D01*
X0155050Y0329668D02*
X0153650Y0329668D01*
X0153650Y0329069D02*
X0155050Y0329069D01*
X0155128Y0328471D02*
X0153571Y0328471D01*
X0152973Y0327872D02*
X0155726Y0327872D01*
X0156325Y0327274D02*
X0152374Y0327274D01*
X0151776Y0326675D02*
X0156923Y0326675D01*
X0157522Y0326077D02*
X0151177Y0326077D01*
X0149650Y0326077D02*
X0149050Y0326077D01*
X0149050Y0326675D02*
X0149650Y0326675D01*
X0149650Y0327274D02*
X0149050Y0327274D01*
X0149050Y0327872D02*
X0149650Y0327872D01*
X0149650Y0328471D02*
X0149050Y0328471D01*
X0149050Y0329069D02*
X0149650Y0329069D01*
X0149650Y0330865D02*
X0149050Y0330865D01*
X0149050Y0331463D02*
X0149650Y0331463D01*
X0149650Y0332062D02*
X0149050Y0332062D01*
X0149050Y0332660D02*
X0149650Y0332660D01*
X0149650Y0333259D02*
X0149050Y0333259D01*
X0149050Y0333857D02*
X0149650Y0333857D01*
X0149650Y0334456D02*
X0149050Y0334456D01*
X0147394Y0334456D02*
X0035247Y0334456D01*
X0035247Y0335054D02*
X0303513Y0335054D01*
X0303513Y0334456D02*
X0191305Y0334456D01*
X0191903Y0333857D02*
X0303513Y0333857D01*
X0303513Y0333259D02*
X0192502Y0333259D01*
X0193100Y0332660D02*
X0303613Y0332660D01*
X0303861Y0332062D02*
X0193650Y0332062D01*
X0193650Y0331463D02*
X0304109Y0331463D01*
X0304357Y0330865D02*
X0193650Y0330865D01*
X0191512Y0323682D02*
X0325561Y0323682D01*
X0325561Y0323084D02*
X0192111Y0323084D01*
X0192709Y0322485D02*
X0325561Y0322485D01*
X0325561Y0321887D02*
X0193250Y0321887D01*
X0193250Y0321288D02*
X0325561Y0321288D01*
X0325561Y0320690D02*
X0193250Y0320690D01*
X0193250Y0320091D02*
X0325561Y0320091D01*
X0325561Y0319493D02*
X0193250Y0319493D01*
X0193250Y0318894D02*
X0325561Y0318894D01*
X0325561Y0318296D02*
X0192831Y0318296D01*
X0192232Y0317697D02*
X0325561Y0317697D01*
X0325561Y0317099D02*
X0191634Y0317099D01*
X0191035Y0316500D02*
X0325561Y0316500D01*
X0325561Y0324281D02*
X0013200Y0324281D01*
X0013200Y0324879D02*
X0325561Y0324879D01*
X0325561Y0325478D02*
X0013200Y0325478D01*
X0013200Y0327274D02*
X0025026Y0327274D01*
X0023581Y0327872D02*
X0013200Y0327872D01*
X0013200Y0328471D02*
X0022843Y0328471D01*
X0022245Y0329069D02*
X0013200Y0329069D01*
X0013200Y0329668D02*
X0021646Y0329668D01*
X0021140Y0330266D02*
X0013200Y0330266D01*
X0013200Y0330865D02*
X0020892Y0330865D01*
X0020644Y0331463D02*
X0013200Y0331463D01*
X0013200Y0332062D02*
X0020397Y0332062D01*
X0020149Y0332660D02*
X0013200Y0332660D01*
X0013200Y0333259D02*
X0020049Y0333259D01*
X0020049Y0333857D02*
X0013200Y0333857D01*
X0013200Y0334456D02*
X0020049Y0334456D01*
X0020049Y0335054D02*
X0013200Y0335054D01*
X0013200Y0335653D02*
X0020049Y0335653D01*
X0020184Y0336251D02*
X0013200Y0336251D01*
X0013200Y0336850D02*
X0020432Y0336850D01*
X0020680Y0337448D02*
X0013200Y0337448D01*
X0013436Y0338047D02*
X0020928Y0338047D01*
X0021176Y0338645D02*
X0014034Y0338645D01*
X0014633Y0339244D02*
X0021732Y0339244D01*
X0022331Y0339842D02*
X0015231Y0339842D01*
X0015830Y0340441D02*
X0022929Y0340441D01*
X0023789Y0341039D02*
X0016428Y0341039D01*
X0017027Y0341638D02*
X0025234Y0341638D01*
X0021216Y0345827D02*
X0317544Y0345827D01*
X0316946Y0346426D02*
X0021815Y0346426D01*
X0022413Y0347024D02*
X0316347Y0347024D01*
X0315749Y0347623D02*
X0023012Y0347623D01*
X0023610Y0348221D02*
X0315150Y0348221D01*
X0314552Y0348820D02*
X0024209Y0348820D01*
X0020618Y0345229D02*
X0318143Y0345229D01*
X0318741Y0344630D02*
X0020019Y0344630D01*
X0019421Y0344032D02*
X0147536Y0344032D01*
X0146938Y0343433D02*
X0018822Y0343433D01*
X0018224Y0342835D02*
X0146339Y0342835D01*
X0145741Y0342236D02*
X0017625Y0342236D01*
X0030063Y0341638D02*
X0145450Y0341638D01*
X0145450Y0341039D02*
X0031507Y0341039D01*
X0032367Y0340441D02*
X0145450Y0340441D01*
X0145450Y0339842D02*
X0032965Y0339842D01*
X0033564Y0339244D02*
X0145450Y0339244D01*
X0145519Y0338645D02*
X0034120Y0338645D01*
X0034368Y0338047D02*
X0146117Y0338047D01*
X0146716Y0337448D02*
X0034616Y0337448D01*
X0034864Y0336850D02*
X0147314Y0336850D01*
X0146796Y0333857D02*
X0035247Y0333857D01*
X0035247Y0333259D02*
X0146197Y0333259D01*
X0145599Y0332660D02*
X0035147Y0332660D01*
X0034900Y0332062D02*
X0145050Y0332062D01*
X0145050Y0331463D02*
X0034652Y0331463D01*
X0034404Y0330865D02*
X0145050Y0330865D01*
X0153250Y0323682D02*
X0157187Y0323682D01*
X0157734Y0324230D02*
X0155450Y0321945D01*
X0155450Y0318714D01*
X0157734Y0316430D01*
X0160965Y0316430D01*
X0163250Y0318714D01*
X0163250Y0321945D01*
X0160965Y0324230D01*
X0157734Y0324230D01*
X0156588Y0323084D02*
X0153250Y0323084D01*
X0153250Y0322485D02*
X0155990Y0322485D01*
X0155450Y0321887D02*
X0153250Y0321887D01*
X0153250Y0321288D02*
X0155450Y0321288D01*
X0155450Y0320690D02*
X0153250Y0320690D01*
X0153250Y0320091D02*
X0155450Y0320091D01*
X0155450Y0319493D02*
X0153250Y0319493D01*
X0153250Y0318894D02*
X0155450Y0318894D01*
X0155868Y0318296D02*
X0153250Y0318296D01*
X0153250Y0317697D02*
X0156467Y0317697D01*
X0157065Y0317099D02*
X0153250Y0317099D01*
X0152793Y0316500D02*
X0157664Y0316500D01*
X0161035Y0316500D02*
X0167664Y0316500D01*
X0167065Y0317099D02*
X0161634Y0317099D01*
X0162232Y0317697D02*
X0166467Y0317697D01*
X0165868Y0318296D02*
X0162831Y0318296D01*
X0163250Y0318894D02*
X0165450Y0318894D01*
X0165450Y0319493D02*
X0163250Y0319493D01*
X0163250Y0320091D02*
X0165450Y0320091D01*
X0165450Y0320690D02*
X0163250Y0320690D01*
X0163250Y0321288D02*
X0165450Y0321288D01*
X0165450Y0321887D02*
X0163250Y0321887D01*
X0162709Y0322485D02*
X0165990Y0322485D01*
X0166588Y0323084D02*
X0162111Y0323084D01*
X0161512Y0323682D02*
X0167187Y0323682D01*
X0159650Y0326077D02*
X0159050Y0326077D01*
X0159050Y0326675D02*
X0159650Y0326675D01*
X0159650Y0327274D02*
X0159050Y0327274D01*
X0159050Y0327872D02*
X0159650Y0327872D01*
X0159650Y0328471D02*
X0159050Y0328471D01*
X0159050Y0329069D02*
X0159650Y0329069D01*
X0159650Y0330865D02*
X0159050Y0330865D01*
X0159050Y0331463D02*
X0159650Y0331463D01*
X0159650Y0332062D02*
X0159050Y0332062D01*
X0159050Y0332660D02*
X0159650Y0332660D01*
X0159650Y0333259D02*
X0159050Y0333259D01*
X0159050Y0333857D02*
X0159650Y0333857D01*
X0159650Y0334456D02*
X0159050Y0334456D01*
X0171385Y0336850D02*
X0177314Y0336850D01*
X0177734Y0336430D02*
X0180965Y0336430D01*
X0183250Y0338714D01*
X0183250Y0341945D01*
X0180965Y0344230D01*
X0177734Y0344230D01*
X0175450Y0341945D01*
X0175450Y0338714D01*
X0177734Y0336430D01*
X0176716Y0337448D02*
X0171983Y0337448D01*
X0172582Y0338047D02*
X0176117Y0338047D01*
X0175519Y0338645D02*
X0173180Y0338645D01*
X0173250Y0339244D02*
X0175450Y0339244D01*
X0175450Y0339842D02*
X0173250Y0339842D01*
X0173250Y0340441D02*
X0175450Y0340441D01*
X0175450Y0341039D02*
X0173250Y0341039D01*
X0173250Y0341638D02*
X0175450Y0341638D01*
X0175741Y0342236D02*
X0172959Y0342236D01*
X0172360Y0342835D02*
X0176339Y0342835D01*
X0176938Y0343433D02*
X0171762Y0343433D01*
X0171163Y0344032D02*
X0177536Y0344032D01*
X0181163Y0344032D02*
X0187536Y0344032D01*
X0187734Y0344230D02*
X0185450Y0341945D01*
X0185450Y0338714D01*
X0187734Y0336430D01*
X0190965Y0336430D01*
X0193250Y0338714D01*
X0193250Y0341945D01*
X0190965Y0344230D01*
X0187734Y0344230D01*
X0186938Y0343433D02*
X0181762Y0343433D01*
X0182360Y0342835D02*
X0186339Y0342835D01*
X0185741Y0342236D02*
X0182959Y0342236D01*
X0183250Y0341638D02*
X0185450Y0341638D01*
X0185450Y0341039D02*
X0183250Y0341039D01*
X0183250Y0340441D02*
X0185450Y0340441D01*
X0185450Y0339842D02*
X0183250Y0339842D01*
X0183250Y0339244D02*
X0185450Y0339244D01*
X0185519Y0338645D02*
X0183180Y0338645D01*
X0182582Y0338047D02*
X0186117Y0338047D01*
X0186716Y0337448D02*
X0181983Y0337448D01*
X0181385Y0336850D02*
X0187314Y0336850D01*
X0191385Y0336850D02*
X0303897Y0336850D01*
X0304145Y0337448D02*
X0191983Y0337448D01*
X0192582Y0338047D02*
X0304393Y0338047D01*
X0304641Y0338645D02*
X0193180Y0338645D01*
X0193250Y0339244D02*
X0305197Y0339244D01*
X0305795Y0339842D02*
X0193250Y0339842D01*
X0193250Y0340441D02*
X0306394Y0340441D01*
X0307253Y0341039D02*
X0193250Y0341039D01*
X0193250Y0341638D02*
X0308698Y0341638D01*
X0313527Y0341638D02*
X0321734Y0341638D01*
X0321135Y0342236D02*
X0192959Y0342236D01*
X0192360Y0342835D02*
X0320537Y0342835D01*
X0319938Y0343433D02*
X0191762Y0343433D01*
X0191163Y0344032D02*
X0319340Y0344032D01*
X0322332Y0341039D02*
X0314972Y0341039D01*
X0315831Y0340441D02*
X0322931Y0340441D01*
X0323529Y0339842D02*
X0316430Y0339842D01*
X0317028Y0339244D02*
X0324128Y0339244D01*
X0324727Y0338645D02*
X0317585Y0338645D01*
X0317833Y0338047D02*
X0325325Y0338047D01*
X0325561Y0337448D02*
X0318081Y0337448D01*
X0318328Y0336850D02*
X0325561Y0336850D01*
X0325561Y0336251D02*
X0318576Y0336251D01*
X0318712Y0335653D02*
X0325561Y0335653D01*
X0325561Y0335054D02*
X0318712Y0335054D01*
X0318712Y0334456D02*
X0325561Y0334456D01*
X0325561Y0333857D02*
X0318712Y0333857D01*
X0318712Y0333259D02*
X0325561Y0333259D01*
X0325561Y0332660D02*
X0318612Y0332660D01*
X0318364Y0332062D02*
X0325561Y0332062D01*
X0325561Y0331463D02*
X0318116Y0331463D01*
X0317868Y0330865D02*
X0325561Y0330865D01*
X0325561Y0330266D02*
X0317620Y0330266D01*
X0317114Y0329668D02*
X0325561Y0329668D01*
X0325561Y0329069D02*
X0316516Y0329069D01*
X0315917Y0328471D02*
X0325561Y0328471D01*
X0325561Y0327872D02*
X0315180Y0327872D01*
X0313735Y0327274D02*
X0325561Y0327274D01*
X0303513Y0335653D02*
X0035247Y0335653D01*
X0035112Y0336251D02*
X0303649Y0336251D01*
X0325561Y0277597D02*
X0013200Y0277597D01*
X0013200Y0276999D02*
X0325561Y0276999D01*
X0230114Y0229716D02*
X0226781Y0229716D01*
X0226182Y0230315D02*
X0229515Y0230315D01*
X0229300Y0230913D02*
X0225584Y0230913D01*
X0148100Y0235900D02*
X0141300Y0229100D01*
X0139200Y0229118D02*
X0033833Y0229118D01*
X0034432Y0229716D02*
X0139200Y0229716D01*
X0139545Y0230315D02*
X0035030Y0230315D01*
X0035629Y0230913D02*
X0140143Y0230913D01*
X0142015Y0231512D02*
X0035761Y0231512D01*
X0035761Y0232110D02*
X0142613Y0232110D01*
X0143212Y0232709D02*
X0035761Y0232709D01*
X0035761Y0233307D02*
X0143810Y0233307D01*
X0144409Y0233906D02*
X0035761Y0233906D01*
X0035532Y0234504D02*
X0145007Y0234504D01*
X0145606Y0235103D02*
X0034934Y0235103D01*
X0034335Y0235701D02*
X0146000Y0235701D01*
X0146000Y0236300D02*
X0033737Y0236300D01*
X0034182Y0249467D02*
X0088518Y0249467D01*
X0087919Y0250066D02*
X0034781Y0250066D01*
X0029963Y0259043D02*
X0023759Y0259043D01*
X0023476Y0258761D02*
X0025761Y0261045D01*
X0025761Y0264276D01*
X0023476Y0266561D01*
X0020245Y0266561D01*
X0017961Y0264276D01*
X0017961Y0261045D01*
X0020245Y0258761D01*
X0023476Y0258761D01*
X0024357Y0259642D02*
X0029364Y0259642D01*
X0028766Y0260240D02*
X0024956Y0260240D01*
X0025554Y0260839D02*
X0028167Y0260839D01*
X0027961Y0261437D02*
X0025761Y0261437D01*
X0025761Y0262036D02*
X0027961Y0262036D01*
X0027961Y0262634D02*
X0025761Y0262634D01*
X0025761Y0263233D02*
X0027961Y0263233D01*
X0027961Y0263831D02*
X0025761Y0263831D01*
X0025607Y0264430D02*
X0028114Y0264430D01*
X0028713Y0265028D02*
X0025008Y0265028D01*
X0024410Y0265627D02*
X0029311Y0265627D01*
X0029910Y0266225D02*
X0023811Y0266225D01*
X0023476Y0268761D02*
X0025761Y0271045D01*
X0025761Y0274276D01*
X0023476Y0276561D01*
X0020245Y0276561D01*
X0017961Y0274276D01*
X0017961Y0271045D01*
X0020245Y0268761D01*
X0023476Y0268761D01*
X0023933Y0269218D02*
X0029788Y0269218D01*
X0029189Y0269816D02*
X0024532Y0269816D01*
X0025130Y0270415D02*
X0028591Y0270415D01*
X0027992Y0271013D02*
X0025729Y0271013D01*
X0025761Y0271612D02*
X0027961Y0271612D01*
X0027961Y0272210D02*
X0025761Y0272210D01*
X0025761Y0272809D02*
X0027961Y0272809D01*
X0027961Y0273408D02*
X0025761Y0273408D01*
X0025761Y0274006D02*
X0027961Y0274006D01*
X0028289Y0274605D02*
X0025432Y0274605D01*
X0024834Y0275203D02*
X0028888Y0275203D01*
X0029486Y0275802D02*
X0024235Y0275802D01*
X0023637Y0276400D02*
X0030085Y0276400D01*
X0020085Y0276400D02*
X0013200Y0276400D01*
X0013200Y0275802D02*
X0019486Y0275802D01*
X0018888Y0275203D02*
X0013200Y0275203D01*
X0013200Y0274605D02*
X0018289Y0274605D01*
X0017961Y0274006D02*
X0013200Y0274006D01*
X0013200Y0273408D02*
X0017961Y0273408D01*
X0017961Y0272809D02*
X0013200Y0272809D01*
X0013200Y0272210D02*
X0017961Y0272210D01*
X0017961Y0271612D02*
X0013200Y0271612D01*
X0013200Y0271013D02*
X0017992Y0271013D01*
X0018591Y0270415D02*
X0013200Y0270415D01*
X0013200Y0269816D02*
X0019189Y0269816D01*
X0019788Y0269218D02*
X0013200Y0269218D01*
X0013200Y0266225D02*
X0019910Y0266225D01*
X0019311Y0265627D02*
X0013200Y0265627D01*
X0013200Y0265028D02*
X0018713Y0265028D01*
X0018114Y0264430D02*
X0013200Y0264430D01*
X0013200Y0263831D02*
X0017961Y0263831D01*
X0017961Y0263233D02*
X0013200Y0263233D01*
X0013200Y0262634D02*
X0017961Y0262634D01*
X0017961Y0262036D02*
X0013200Y0262036D01*
X0013200Y0261437D02*
X0017961Y0261437D01*
X0018167Y0260839D02*
X0013200Y0260839D01*
X0013200Y0260240D02*
X0018766Y0260240D01*
X0019364Y0259642D02*
X0013200Y0259642D01*
X0013200Y0259043D02*
X0019963Y0259043D01*
X0013200Y0258445D02*
X0053400Y0258445D01*
X0053400Y0257846D02*
X0013200Y0257846D01*
X0013200Y0257248D02*
X0053400Y0257248D01*
X0038005Y0220140D02*
X0034855Y0220140D01*
X0034257Y0219541D02*
X0037719Y0219541D01*
X0037719Y0218943D02*
X0033658Y0218943D01*
X0020059Y0206374D02*
X0013200Y0206374D01*
X0013200Y0205776D02*
X0019460Y0205776D01*
X0018862Y0205177D02*
X0013200Y0205177D01*
X0013200Y0204579D02*
X0018263Y0204579D01*
X0017961Y0203980D02*
X0013200Y0203980D01*
X0013200Y0203382D02*
X0017961Y0203382D01*
X0017961Y0202783D02*
X0013200Y0202783D01*
X0013200Y0202185D02*
X0017961Y0202185D01*
X0017961Y0201586D02*
X0013200Y0201586D01*
X0013200Y0200988D02*
X0018018Y0200988D01*
X0018617Y0200389D02*
X0013200Y0200389D01*
X0013200Y0199791D02*
X0019215Y0199791D01*
X0017561Y0172259D02*
X0013200Y0172259D01*
X0013200Y0171661D02*
X0017561Y0171661D01*
X0017561Y0171062D02*
X0013200Y0171062D01*
X0013200Y0170464D02*
X0017977Y0170464D01*
X0018575Y0169865D02*
X0013200Y0169865D01*
X0013200Y0169267D02*
X0019174Y0169267D01*
X0019260Y0125575D02*
X0013200Y0125575D01*
X0013200Y0124977D02*
X0018661Y0124977D01*
X0018063Y0124378D02*
X0013200Y0124378D01*
X0013200Y0123780D02*
X0017961Y0123780D01*
X0017961Y0123181D02*
X0013200Y0123181D01*
X0013200Y0122583D02*
X0017961Y0122583D01*
X0017961Y0121984D02*
X0013200Y0121984D01*
X0013200Y0121386D02*
X0017961Y0121386D01*
X0018219Y0120787D02*
X0013200Y0120787D01*
X0013200Y0120189D02*
X0018817Y0120189D01*
X0019416Y0119590D02*
X0013200Y0119590D01*
X0013200Y0118992D02*
X0020014Y0118992D01*
X0019684Y0115999D02*
X0013200Y0115999D01*
X0013200Y0115401D02*
X0019085Y0115401D01*
X0018487Y0114802D02*
X0013200Y0114802D01*
X0013200Y0114203D02*
X0017961Y0114203D01*
X0017961Y0113605D02*
X0013200Y0113605D01*
X0013200Y0113006D02*
X0017961Y0113006D01*
X0017961Y0112408D02*
X0013200Y0112408D01*
X0013200Y0111809D02*
X0017961Y0111809D01*
X0017961Y0111211D02*
X0013200Y0111211D01*
X0013200Y0110612D02*
X0018393Y0110612D01*
X0018992Y0110014D02*
X0013200Y0110014D01*
X0013200Y0109415D02*
X0019590Y0109415D01*
X0020189Y0108817D02*
X0013200Y0108817D01*
X0092547Y0263831D02*
X0135516Y0263831D01*
X0136114Y0264430D02*
X0093145Y0264430D01*
X0093744Y0265028D02*
X0136713Y0265028D01*
X0137311Y0265627D02*
X0094342Y0265627D01*
X0094500Y0266225D02*
X0144859Y0266225D01*
X0144261Y0266824D02*
X0094500Y0266824D01*
X0094500Y0267422D02*
X0143662Y0267422D01*
X0143064Y0268021D02*
X0094500Y0268021D01*
X0094500Y0268619D02*
X0143000Y0268619D01*
X0143000Y0269218D02*
X0094297Y0269218D01*
X0093699Y0269816D02*
X0143000Y0269816D01*
X0143000Y0270415D02*
X0093100Y0270415D01*
X0179050Y0326077D02*
X0179650Y0326077D01*
X0179650Y0326675D02*
X0179050Y0326675D01*
X0179050Y0327274D02*
X0179650Y0327274D01*
X0179650Y0327872D02*
X0179050Y0327872D01*
X0179050Y0328471D02*
X0179650Y0328471D01*
X0179650Y0329069D02*
X0179050Y0329069D01*
X0179050Y0330865D02*
X0179650Y0330865D01*
X0179650Y0331463D02*
X0179050Y0331463D01*
X0179050Y0332062D02*
X0179650Y0332062D01*
X0179650Y0332660D02*
X0179050Y0332660D01*
X0179050Y0333259D02*
X0179650Y0333259D01*
X0179650Y0333857D02*
X0179050Y0333857D01*
X0179050Y0334456D02*
X0179650Y0334456D01*
D17*
X0099800Y0231300D03*
X0105200Y0226300D03*
X0099800Y0221200D03*
X0087800Y0223800D03*
X0086100Y0185300D03*
X0080800Y0179900D03*
X0091500Y0179800D03*
X0064700Y0179600D03*
X0059300Y0185200D03*
X0053900Y0179600D03*
X0040400Y0204281D03*
X0040400Y0217700D03*
X0080900Y0131600D03*
X0090800Y0131600D03*
X0086000Y0119900D03*
X0129000Y0187600D03*
X0129000Y0195500D03*
X0148300Y0196700D03*
X0151500Y0210700D03*
X0160700Y0201400D03*
X0167000Y0195000D03*
X0171800Y0195000D03*
X0171900Y0190200D03*
X0167000Y0190100D03*
X0160600Y0183900D03*
X0161500Y0171400D03*
X0177200Y0171500D03*
X0178100Y0183900D03*
X0178000Y0201400D03*
X0178300Y0214300D03*
X0160200Y0230900D03*
X0156400Y0226600D03*
X0204900Y0204200D03*
X0204700Y0181300D03*
D18*
X0190000Y0188100D03*
X0190000Y0199900D03*
X0160200Y0213100D03*
X0162000Y0315400D03*
X0167000Y0315400D03*
X0172000Y0315400D03*
X0177000Y0315400D03*
X0182000Y0315400D03*
X0187000Y0315400D03*
X0186900Y0076300D03*
X0191900Y0076300D03*
X0196900Y0076300D03*
X0176900Y0076300D03*
X0166900Y0076300D03*
X0156900Y0076300D03*
X0146900Y0076300D03*
X0141900Y0076300D03*
X0136900Y0076300D03*
X0131900Y0076300D03*
X0114900Y0076300D03*
D19*
X0040400Y0204281D02*
X0040400Y0217700D01*
D20*
X0054800Y0253300D02*
X0054800Y0266300D01*
M02*
