%
M48
M72
T01C0.01200
T02C0.02362
T03C0.03937
T04C0.04000
T05C0.12598
%
T01
X114900Y76300
X131900Y76300
X136900Y76300
X141900Y76300
X146900Y76300
X156900Y76300
X166900Y76300
X176900Y76300
X186900Y76300
X191900Y76300
X196900Y76300
X190000Y188100
X190000Y199900
X160200Y213100
X141300Y229100
X148100Y235900
X162000Y315400
X167000Y315400
X172000Y315400
X177000Y315400
X182000Y315400
X187000Y315400
X225300Y237500
X221300Y233500
X227400Y227400
X231400Y231400
X54800Y266300
X54800Y253300
T02
X86000Y119900
X90800Y131600
X80900Y131600
X80800Y179900
X86100Y185300
X91500Y179800
X64700Y179600
X59300Y185200
X53900Y179600
X40400Y204281
X40400Y217700
X87800Y223800
X99800Y221200
X105200Y226300
X99800Y231300
X129000Y195500
X129000Y187600
X148300Y196700
X151500Y210700
X160700Y201400
X167000Y195000
X171800Y195000
X171900Y190200
X167000Y190100
X160600Y183900
X161500Y171400
X177200Y171500
X178100Y183900
X178000Y201400
X178300Y214300
X160200Y230900
X156400Y226600
X204900Y204200
X204700Y181300
T03
X70955Y94255
X70955Y291106
X267806Y291106
X267806Y94255
T04
X21861Y92661
X21861Y102661
X31861Y102661
X31861Y92661
X31861Y112661
X31861Y122661
X21861Y122661
X21861Y112661
X21861Y132661
X31861Y132661
X31861Y142661
X31861Y152661
X21861Y152661
X21861Y142661
X21861Y162661
X21861Y172661
X31861Y172661
X31861Y162661
X31861Y182661
X21861Y182661
X21861Y202661
X31861Y202661
X31861Y212661
X31861Y222661
X21861Y222661
X21861Y212661
X21861Y232661
X21861Y242661
X31861Y242661
X31861Y232661
X31861Y252661
X21861Y252661
X21861Y262661
X21861Y272661
X31861Y272661
X31861Y262661
X31861Y282661
X31861Y292661
X21861Y292661
X21861Y282661
X90600Y267400
X90600Y252900
X71000Y221500
X71000Y211500
X71000Y201500
X139400Y262200
X146900Y269700
X154400Y262200
X161900Y269700
X169400Y262200
X176900Y269700
X184400Y262200
X189350Y320330
X189350Y330330
X189350Y340330
X179350Y340330
X179350Y330330
X179350Y320330
X169350Y320330
X169350Y330330
X159350Y330330
X159350Y320330
X149350Y320330
X149350Y330330
X149350Y340330
X159350Y340330
X169350Y340330
X259700Y210100
X252200Y202600
X259800Y195200
X252200Y187800
X259700Y180300
X252200Y172800
X296861Y182680
X306861Y182680
X316861Y182680
X316861Y192680
X316861Y202680
X306861Y202680
X306861Y192680
X296861Y192680
X296861Y202680
X209400Y65000
X209400Y55000
X199400Y55000
X199400Y65000
X189400Y65000
X189400Y55000
X189400Y45000
X179400Y45000
X179400Y55000
X179400Y65000
X169400Y65000
X169400Y55000
X159400Y55000
X159400Y65000
X149400Y65000
X149400Y55000
X149400Y45000
X139400Y45000
X139400Y55000
X139400Y65000
X129400Y65000
X129400Y55000
X129400Y45000
X159400Y45000
X169400Y45000
X199400Y45000
X209400Y45000
T05
X27648Y50948
X27648Y334413
X311113Y334413
X311113Y50948
M30
