G75*
%MOIN*%
%OFA0B0*%
%FSLAX25Y25*%
%IPPOS*%
%LPD*%
%AMOC8*
5,1,8,0,0,1.08239X$1,22.5*
%
%ADD10R,0.04652X0.04534*%
%ADD11R,0.04731X0.04337*%
%ADD12R,0.03400X0.16400*%
%ADD13R,0.03943X0.03943*%
%ADD14C,0.00000*%
%ADD15C,0.12998*%
%ADD16OC8,0.06400*%
%ADD17R,0.06400X0.06400*%
%ADD18C,0.06400*%
%ADD19R,0.04337X0.04731*%
%ADD20R,0.01384X0.04337*%
%ADD21R,0.22054X0.22054*%
%ADD22R,0.04337X0.01384*%
%ADD23R,0.02600X0.05400*%
%ADD24C,0.05912*%
%ADD25C,0.08000*%
D10*
X0059300Y0172655D03*
X0059300Y0179545D03*
X0086100Y0179845D03*
X0086100Y0172955D03*
D11*
X0134254Y0187600D03*
X0140946Y0187600D03*
X0140946Y0195600D03*
X0134254Y0195600D03*
X0099846Y0226200D03*
X0093154Y0226200D03*
X0068500Y0245954D03*
X0068500Y0252646D03*
X0068500Y0266854D03*
X0068500Y0273546D03*
X0194600Y0283654D03*
X0194600Y0290346D03*
X0207600Y0290346D03*
X0207600Y0283654D03*
X0200600Y0226146D03*
X0200600Y0219454D03*
X0192600Y0219454D03*
X0192600Y0226146D03*
X0195854Y0199000D03*
X0202546Y0199000D03*
X0202746Y0186400D03*
X0196054Y0186400D03*
D12*
X0085900Y0154100D03*
X0085900Y0131500D03*
D13*
X0073950Y0172700D03*
X0067650Y0172700D03*
D14*
X0011900Y0047011D02*
X0023711Y0035200D01*
X0315050Y0035200D01*
X0326861Y0047011D01*
X0326861Y0338350D01*
X0315050Y0350161D01*
X0023711Y0350161D01*
X0011900Y0338350D01*
X0011900Y0047011D01*
X0021349Y0050948D02*
X0021351Y0051106D01*
X0021357Y0051264D01*
X0021367Y0051422D01*
X0021381Y0051580D01*
X0021399Y0051737D01*
X0021420Y0051894D01*
X0021446Y0052050D01*
X0021476Y0052206D01*
X0021509Y0052361D01*
X0021547Y0052514D01*
X0021588Y0052667D01*
X0021633Y0052819D01*
X0021682Y0052970D01*
X0021735Y0053119D01*
X0021791Y0053267D01*
X0021851Y0053413D01*
X0021915Y0053558D01*
X0021983Y0053701D01*
X0022054Y0053843D01*
X0022128Y0053983D01*
X0022206Y0054120D01*
X0022288Y0054256D01*
X0022372Y0054390D01*
X0022461Y0054521D01*
X0022552Y0054650D01*
X0022647Y0054777D01*
X0022744Y0054902D01*
X0022845Y0055024D01*
X0022949Y0055143D01*
X0023056Y0055260D01*
X0023166Y0055374D01*
X0023279Y0055485D01*
X0023394Y0055594D01*
X0023512Y0055699D01*
X0023633Y0055801D01*
X0023756Y0055901D01*
X0023882Y0055997D01*
X0024010Y0056090D01*
X0024140Y0056180D01*
X0024273Y0056266D01*
X0024408Y0056350D01*
X0024544Y0056429D01*
X0024683Y0056506D01*
X0024824Y0056578D01*
X0024966Y0056648D01*
X0025110Y0056713D01*
X0025256Y0056775D01*
X0025403Y0056833D01*
X0025552Y0056888D01*
X0025702Y0056939D01*
X0025853Y0056986D01*
X0026005Y0057029D01*
X0026158Y0057068D01*
X0026313Y0057104D01*
X0026468Y0057135D01*
X0026624Y0057163D01*
X0026780Y0057187D01*
X0026937Y0057207D01*
X0027095Y0057223D01*
X0027252Y0057235D01*
X0027411Y0057243D01*
X0027569Y0057247D01*
X0027727Y0057247D01*
X0027885Y0057243D01*
X0028044Y0057235D01*
X0028201Y0057223D01*
X0028359Y0057207D01*
X0028516Y0057187D01*
X0028672Y0057163D01*
X0028828Y0057135D01*
X0028983Y0057104D01*
X0029138Y0057068D01*
X0029291Y0057029D01*
X0029443Y0056986D01*
X0029594Y0056939D01*
X0029744Y0056888D01*
X0029893Y0056833D01*
X0030040Y0056775D01*
X0030186Y0056713D01*
X0030330Y0056648D01*
X0030472Y0056578D01*
X0030613Y0056506D01*
X0030752Y0056429D01*
X0030888Y0056350D01*
X0031023Y0056266D01*
X0031156Y0056180D01*
X0031286Y0056090D01*
X0031414Y0055997D01*
X0031540Y0055901D01*
X0031663Y0055801D01*
X0031784Y0055699D01*
X0031902Y0055594D01*
X0032017Y0055485D01*
X0032130Y0055374D01*
X0032240Y0055260D01*
X0032347Y0055143D01*
X0032451Y0055024D01*
X0032552Y0054902D01*
X0032649Y0054777D01*
X0032744Y0054650D01*
X0032835Y0054521D01*
X0032924Y0054390D01*
X0033008Y0054256D01*
X0033090Y0054120D01*
X0033168Y0053983D01*
X0033242Y0053843D01*
X0033313Y0053701D01*
X0033381Y0053558D01*
X0033445Y0053413D01*
X0033505Y0053267D01*
X0033561Y0053119D01*
X0033614Y0052970D01*
X0033663Y0052819D01*
X0033708Y0052667D01*
X0033749Y0052514D01*
X0033787Y0052361D01*
X0033820Y0052206D01*
X0033850Y0052050D01*
X0033876Y0051894D01*
X0033897Y0051737D01*
X0033915Y0051580D01*
X0033929Y0051422D01*
X0033939Y0051264D01*
X0033945Y0051106D01*
X0033947Y0050948D01*
X0033945Y0050790D01*
X0033939Y0050632D01*
X0033929Y0050474D01*
X0033915Y0050316D01*
X0033897Y0050159D01*
X0033876Y0050002D01*
X0033850Y0049846D01*
X0033820Y0049690D01*
X0033787Y0049535D01*
X0033749Y0049382D01*
X0033708Y0049229D01*
X0033663Y0049077D01*
X0033614Y0048926D01*
X0033561Y0048777D01*
X0033505Y0048629D01*
X0033445Y0048483D01*
X0033381Y0048338D01*
X0033313Y0048195D01*
X0033242Y0048053D01*
X0033168Y0047913D01*
X0033090Y0047776D01*
X0033008Y0047640D01*
X0032924Y0047506D01*
X0032835Y0047375D01*
X0032744Y0047246D01*
X0032649Y0047119D01*
X0032552Y0046994D01*
X0032451Y0046872D01*
X0032347Y0046753D01*
X0032240Y0046636D01*
X0032130Y0046522D01*
X0032017Y0046411D01*
X0031902Y0046302D01*
X0031784Y0046197D01*
X0031663Y0046095D01*
X0031540Y0045995D01*
X0031414Y0045899D01*
X0031286Y0045806D01*
X0031156Y0045716D01*
X0031023Y0045630D01*
X0030888Y0045546D01*
X0030752Y0045467D01*
X0030613Y0045390D01*
X0030472Y0045318D01*
X0030330Y0045248D01*
X0030186Y0045183D01*
X0030040Y0045121D01*
X0029893Y0045063D01*
X0029744Y0045008D01*
X0029594Y0044957D01*
X0029443Y0044910D01*
X0029291Y0044867D01*
X0029138Y0044828D01*
X0028983Y0044792D01*
X0028828Y0044761D01*
X0028672Y0044733D01*
X0028516Y0044709D01*
X0028359Y0044689D01*
X0028201Y0044673D01*
X0028044Y0044661D01*
X0027885Y0044653D01*
X0027727Y0044649D01*
X0027569Y0044649D01*
X0027411Y0044653D01*
X0027252Y0044661D01*
X0027095Y0044673D01*
X0026937Y0044689D01*
X0026780Y0044709D01*
X0026624Y0044733D01*
X0026468Y0044761D01*
X0026313Y0044792D01*
X0026158Y0044828D01*
X0026005Y0044867D01*
X0025853Y0044910D01*
X0025702Y0044957D01*
X0025552Y0045008D01*
X0025403Y0045063D01*
X0025256Y0045121D01*
X0025110Y0045183D01*
X0024966Y0045248D01*
X0024824Y0045318D01*
X0024683Y0045390D01*
X0024544Y0045467D01*
X0024408Y0045546D01*
X0024273Y0045630D01*
X0024140Y0045716D01*
X0024010Y0045806D01*
X0023882Y0045899D01*
X0023756Y0045995D01*
X0023633Y0046095D01*
X0023512Y0046197D01*
X0023394Y0046302D01*
X0023279Y0046411D01*
X0023166Y0046522D01*
X0023056Y0046636D01*
X0022949Y0046753D01*
X0022845Y0046872D01*
X0022744Y0046994D01*
X0022647Y0047119D01*
X0022552Y0047246D01*
X0022461Y0047375D01*
X0022372Y0047506D01*
X0022288Y0047640D01*
X0022206Y0047776D01*
X0022128Y0047913D01*
X0022054Y0048053D01*
X0021983Y0048195D01*
X0021915Y0048338D01*
X0021851Y0048483D01*
X0021791Y0048629D01*
X0021735Y0048777D01*
X0021682Y0048926D01*
X0021633Y0049077D01*
X0021588Y0049229D01*
X0021547Y0049382D01*
X0021509Y0049535D01*
X0021476Y0049690D01*
X0021446Y0049846D01*
X0021420Y0050002D01*
X0021399Y0050159D01*
X0021381Y0050316D01*
X0021367Y0050474D01*
X0021357Y0050632D01*
X0021351Y0050790D01*
X0021349Y0050948D01*
X0021349Y0334413D02*
X0021351Y0334571D01*
X0021357Y0334729D01*
X0021367Y0334887D01*
X0021381Y0335045D01*
X0021399Y0335202D01*
X0021420Y0335359D01*
X0021446Y0335515D01*
X0021476Y0335671D01*
X0021509Y0335826D01*
X0021547Y0335979D01*
X0021588Y0336132D01*
X0021633Y0336284D01*
X0021682Y0336435D01*
X0021735Y0336584D01*
X0021791Y0336732D01*
X0021851Y0336878D01*
X0021915Y0337023D01*
X0021983Y0337166D01*
X0022054Y0337308D01*
X0022128Y0337448D01*
X0022206Y0337585D01*
X0022288Y0337721D01*
X0022372Y0337855D01*
X0022461Y0337986D01*
X0022552Y0338115D01*
X0022647Y0338242D01*
X0022744Y0338367D01*
X0022845Y0338489D01*
X0022949Y0338608D01*
X0023056Y0338725D01*
X0023166Y0338839D01*
X0023279Y0338950D01*
X0023394Y0339059D01*
X0023512Y0339164D01*
X0023633Y0339266D01*
X0023756Y0339366D01*
X0023882Y0339462D01*
X0024010Y0339555D01*
X0024140Y0339645D01*
X0024273Y0339731D01*
X0024408Y0339815D01*
X0024544Y0339894D01*
X0024683Y0339971D01*
X0024824Y0340043D01*
X0024966Y0340113D01*
X0025110Y0340178D01*
X0025256Y0340240D01*
X0025403Y0340298D01*
X0025552Y0340353D01*
X0025702Y0340404D01*
X0025853Y0340451D01*
X0026005Y0340494D01*
X0026158Y0340533D01*
X0026313Y0340569D01*
X0026468Y0340600D01*
X0026624Y0340628D01*
X0026780Y0340652D01*
X0026937Y0340672D01*
X0027095Y0340688D01*
X0027252Y0340700D01*
X0027411Y0340708D01*
X0027569Y0340712D01*
X0027727Y0340712D01*
X0027885Y0340708D01*
X0028044Y0340700D01*
X0028201Y0340688D01*
X0028359Y0340672D01*
X0028516Y0340652D01*
X0028672Y0340628D01*
X0028828Y0340600D01*
X0028983Y0340569D01*
X0029138Y0340533D01*
X0029291Y0340494D01*
X0029443Y0340451D01*
X0029594Y0340404D01*
X0029744Y0340353D01*
X0029893Y0340298D01*
X0030040Y0340240D01*
X0030186Y0340178D01*
X0030330Y0340113D01*
X0030472Y0340043D01*
X0030613Y0339971D01*
X0030752Y0339894D01*
X0030888Y0339815D01*
X0031023Y0339731D01*
X0031156Y0339645D01*
X0031286Y0339555D01*
X0031414Y0339462D01*
X0031540Y0339366D01*
X0031663Y0339266D01*
X0031784Y0339164D01*
X0031902Y0339059D01*
X0032017Y0338950D01*
X0032130Y0338839D01*
X0032240Y0338725D01*
X0032347Y0338608D01*
X0032451Y0338489D01*
X0032552Y0338367D01*
X0032649Y0338242D01*
X0032744Y0338115D01*
X0032835Y0337986D01*
X0032924Y0337855D01*
X0033008Y0337721D01*
X0033090Y0337585D01*
X0033168Y0337448D01*
X0033242Y0337308D01*
X0033313Y0337166D01*
X0033381Y0337023D01*
X0033445Y0336878D01*
X0033505Y0336732D01*
X0033561Y0336584D01*
X0033614Y0336435D01*
X0033663Y0336284D01*
X0033708Y0336132D01*
X0033749Y0335979D01*
X0033787Y0335826D01*
X0033820Y0335671D01*
X0033850Y0335515D01*
X0033876Y0335359D01*
X0033897Y0335202D01*
X0033915Y0335045D01*
X0033929Y0334887D01*
X0033939Y0334729D01*
X0033945Y0334571D01*
X0033947Y0334413D01*
X0033945Y0334255D01*
X0033939Y0334097D01*
X0033929Y0333939D01*
X0033915Y0333781D01*
X0033897Y0333624D01*
X0033876Y0333467D01*
X0033850Y0333311D01*
X0033820Y0333155D01*
X0033787Y0333000D01*
X0033749Y0332847D01*
X0033708Y0332694D01*
X0033663Y0332542D01*
X0033614Y0332391D01*
X0033561Y0332242D01*
X0033505Y0332094D01*
X0033445Y0331948D01*
X0033381Y0331803D01*
X0033313Y0331660D01*
X0033242Y0331518D01*
X0033168Y0331378D01*
X0033090Y0331241D01*
X0033008Y0331105D01*
X0032924Y0330971D01*
X0032835Y0330840D01*
X0032744Y0330711D01*
X0032649Y0330584D01*
X0032552Y0330459D01*
X0032451Y0330337D01*
X0032347Y0330218D01*
X0032240Y0330101D01*
X0032130Y0329987D01*
X0032017Y0329876D01*
X0031902Y0329767D01*
X0031784Y0329662D01*
X0031663Y0329560D01*
X0031540Y0329460D01*
X0031414Y0329364D01*
X0031286Y0329271D01*
X0031156Y0329181D01*
X0031023Y0329095D01*
X0030888Y0329011D01*
X0030752Y0328932D01*
X0030613Y0328855D01*
X0030472Y0328783D01*
X0030330Y0328713D01*
X0030186Y0328648D01*
X0030040Y0328586D01*
X0029893Y0328528D01*
X0029744Y0328473D01*
X0029594Y0328422D01*
X0029443Y0328375D01*
X0029291Y0328332D01*
X0029138Y0328293D01*
X0028983Y0328257D01*
X0028828Y0328226D01*
X0028672Y0328198D01*
X0028516Y0328174D01*
X0028359Y0328154D01*
X0028201Y0328138D01*
X0028044Y0328126D01*
X0027885Y0328118D01*
X0027727Y0328114D01*
X0027569Y0328114D01*
X0027411Y0328118D01*
X0027252Y0328126D01*
X0027095Y0328138D01*
X0026937Y0328154D01*
X0026780Y0328174D01*
X0026624Y0328198D01*
X0026468Y0328226D01*
X0026313Y0328257D01*
X0026158Y0328293D01*
X0026005Y0328332D01*
X0025853Y0328375D01*
X0025702Y0328422D01*
X0025552Y0328473D01*
X0025403Y0328528D01*
X0025256Y0328586D01*
X0025110Y0328648D01*
X0024966Y0328713D01*
X0024824Y0328783D01*
X0024683Y0328855D01*
X0024544Y0328932D01*
X0024408Y0329011D01*
X0024273Y0329095D01*
X0024140Y0329181D01*
X0024010Y0329271D01*
X0023882Y0329364D01*
X0023756Y0329460D01*
X0023633Y0329560D01*
X0023512Y0329662D01*
X0023394Y0329767D01*
X0023279Y0329876D01*
X0023166Y0329987D01*
X0023056Y0330101D01*
X0022949Y0330218D01*
X0022845Y0330337D01*
X0022744Y0330459D01*
X0022647Y0330584D01*
X0022552Y0330711D01*
X0022461Y0330840D01*
X0022372Y0330971D01*
X0022288Y0331105D01*
X0022206Y0331241D01*
X0022128Y0331378D01*
X0022054Y0331518D01*
X0021983Y0331660D01*
X0021915Y0331803D01*
X0021851Y0331948D01*
X0021791Y0332094D01*
X0021735Y0332242D01*
X0021682Y0332391D01*
X0021633Y0332542D01*
X0021588Y0332694D01*
X0021547Y0332847D01*
X0021509Y0333000D01*
X0021476Y0333155D01*
X0021446Y0333311D01*
X0021420Y0333467D01*
X0021399Y0333624D01*
X0021381Y0333781D01*
X0021367Y0333939D01*
X0021357Y0334097D01*
X0021351Y0334255D01*
X0021349Y0334413D01*
X0304814Y0334413D02*
X0304816Y0334571D01*
X0304822Y0334729D01*
X0304832Y0334887D01*
X0304846Y0335045D01*
X0304864Y0335202D01*
X0304885Y0335359D01*
X0304911Y0335515D01*
X0304941Y0335671D01*
X0304974Y0335826D01*
X0305012Y0335979D01*
X0305053Y0336132D01*
X0305098Y0336284D01*
X0305147Y0336435D01*
X0305200Y0336584D01*
X0305256Y0336732D01*
X0305316Y0336878D01*
X0305380Y0337023D01*
X0305448Y0337166D01*
X0305519Y0337308D01*
X0305593Y0337448D01*
X0305671Y0337585D01*
X0305753Y0337721D01*
X0305837Y0337855D01*
X0305926Y0337986D01*
X0306017Y0338115D01*
X0306112Y0338242D01*
X0306209Y0338367D01*
X0306310Y0338489D01*
X0306414Y0338608D01*
X0306521Y0338725D01*
X0306631Y0338839D01*
X0306744Y0338950D01*
X0306859Y0339059D01*
X0306977Y0339164D01*
X0307098Y0339266D01*
X0307221Y0339366D01*
X0307347Y0339462D01*
X0307475Y0339555D01*
X0307605Y0339645D01*
X0307738Y0339731D01*
X0307873Y0339815D01*
X0308009Y0339894D01*
X0308148Y0339971D01*
X0308289Y0340043D01*
X0308431Y0340113D01*
X0308575Y0340178D01*
X0308721Y0340240D01*
X0308868Y0340298D01*
X0309017Y0340353D01*
X0309167Y0340404D01*
X0309318Y0340451D01*
X0309470Y0340494D01*
X0309623Y0340533D01*
X0309778Y0340569D01*
X0309933Y0340600D01*
X0310089Y0340628D01*
X0310245Y0340652D01*
X0310402Y0340672D01*
X0310560Y0340688D01*
X0310717Y0340700D01*
X0310876Y0340708D01*
X0311034Y0340712D01*
X0311192Y0340712D01*
X0311350Y0340708D01*
X0311509Y0340700D01*
X0311666Y0340688D01*
X0311824Y0340672D01*
X0311981Y0340652D01*
X0312137Y0340628D01*
X0312293Y0340600D01*
X0312448Y0340569D01*
X0312603Y0340533D01*
X0312756Y0340494D01*
X0312908Y0340451D01*
X0313059Y0340404D01*
X0313209Y0340353D01*
X0313358Y0340298D01*
X0313505Y0340240D01*
X0313651Y0340178D01*
X0313795Y0340113D01*
X0313937Y0340043D01*
X0314078Y0339971D01*
X0314217Y0339894D01*
X0314353Y0339815D01*
X0314488Y0339731D01*
X0314621Y0339645D01*
X0314751Y0339555D01*
X0314879Y0339462D01*
X0315005Y0339366D01*
X0315128Y0339266D01*
X0315249Y0339164D01*
X0315367Y0339059D01*
X0315482Y0338950D01*
X0315595Y0338839D01*
X0315705Y0338725D01*
X0315812Y0338608D01*
X0315916Y0338489D01*
X0316017Y0338367D01*
X0316114Y0338242D01*
X0316209Y0338115D01*
X0316300Y0337986D01*
X0316389Y0337855D01*
X0316473Y0337721D01*
X0316555Y0337585D01*
X0316633Y0337448D01*
X0316707Y0337308D01*
X0316778Y0337166D01*
X0316846Y0337023D01*
X0316910Y0336878D01*
X0316970Y0336732D01*
X0317026Y0336584D01*
X0317079Y0336435D01*
X0317128Y0336284D01*
X0317173Y0336132D01*
X0317214Y0335979D01*
X0317252Y0335826D01*
X0317285Y0335671D01*
X0317315Y0335515D01*
X0317341Y0335359D01*
X0317362Y0335202D01*
X0317380Y0335045D01*
X0317394Y0334887D01*
X0317404Y0334729D01*
X0317410Y0334571D01*
X0317412Y0334413D01*
X0317410Y0334255D01*
X0317404Y0334097D01*
X0317394Y0333939D01*
X0317380Y0333781D01*
X0317362Y0333624D01*
X0317341Y0333467D01*
X0317315Y0333311D01*
X0317285Y0333155D01*
X0317252Y0333000D01*
X0317214Y0332847D01*
X0317173Y0332694D01*
X0317128Y0332542D01*
X0317079Y0332391D01*
X0317026Y0332242D01*
X0316970Y0332094D01*
X0316910Y0331948D01*
X0316846Y0331803D01*
X0316778Y0331660D01*
X0316707Y0331518D01*
X0316633Y0331378D01*
X0316555Y0331241D01*
X0316473Y0331105D01*
X0316389Y0330971D01*
X0316300Y0330840D01*
X0316209Y0330711D01*
X0316114Y0330584D01*
X0316017Y0330459D01*
X0315916Y0330337D01*
X0315812Y0330218D01*
X0315705Y0330101D01*
X0315595Y0329987D01*
X0315482Y0329876D01*
X0315367Y0329767D01*
X0315249Y0329662D01*
X0315128Y0329560D01*
X0315005Y0329460D01*
X0314879Y0329364D01*
X0314751Y0329271D01*
X0314621Y0329181D01*
X0314488Y0329095D01*
X0314353Y0329011D01*
X0314217Y0328932D01*
X0314078Y0328855D01*
X0313937Y0328783D01*
X0313795Y0328713D01*
X0313651Y0328648D01*
X0313505Y0328586D01*
X0313358Y0328528D01*
X0313209Y0328473D01*
X0313059Y0328422D01*
X0312908Y0328375D01*
X0312756Y0328332D01*
X0312603Y0328293D01*
X0312448Y0328257D01*
X0312293Y0328226D01*
X0312137Y0328198D01*
X0311981Y0328174D01*
X0311824Y0328154D01*
X0311666Y0328138D01*
X0311509Y0328126D01*
X0311350Y0328118D01*
X0311192Y0328114D01*
X0311034Y0328114D01*
X0310876Y0328118D01*
X0310717Y0328126D01*
X0310560Y0328138D01*
X0310402Y0328154D01*
X0310245Y0328174D01*
X0310089Y0328198D01*
X0309933Y0328226D01*
X0309778Y0328257D01*
X0309623Y0328293D01*
X0309470Y0328332D01*
X0309318Y0328375D01*
X0309167Y0328422D01*
X0309017Y0328473D01*
X0308868Y0328528D01*
X0308721Y0328586D01*
X0308575Y0328648D01*
X0308431Y0328713D01*
X0308289Y0328783D01*
X0308148Y0328855D01*
X0308009Y0328932D01*
X0307873Y0329011D01*
X0307738Y0329095D01*
X0307605Y0329181D01*
X0307475Y0329271D01*
X0307347Y0329364D01*
X0307221Y0329460D01*
X0307098Y0329560D01*
X0306977Y0329662D01*
X0306859Y0329767D01*
X0306744Y0329876D01*
X0306631Y0329987D01*
X0306521Y0330101D01*
X0306414Y0330218D01*
X0306310Y0330337D01*
X0306209Y0330459D01*
X0306112Y0330584D01*
X0306017Y0330711D01*
X0305926Y0330840D01*
X0305837Y0330971D01*
X0305753Y0331105D01*
X0305671Y0331241D01*
X0305593Y0331378D01*
X0305519Y0331518D01*
X0305448Y0331660D01*
X0305380Y0331803D01*
X0305316Y0331948D01*
X0305256Y0332094D01*
X0305200Y0332242D01*
X0305147Y0332391D01*
X0305098Y0332542D01*
X0305053Y0332694D01*
X0305012Y0332847D01*
X0304974Y0333000D01*
X0304941Y0333155D01*
X0304911Y0333311D01*
X0304885Y0333467D01*
X0304864Y0333624D01*
X0304846Y0333781D01*
X0304832Y0333939D01*
X0304822Y0334097D01*
X0304816Y0334255D01*
X0304814Y0334413D01*
X0304814Y0050948D02*
X0304816Y0051106D01*
X0304822Y0051264D01*
X0304832Y0051422D01*
X0304846Y0051580D01*
X0304864Y0051737D01*
X0304885Y0051894D01*
X0304911Y0052050D01*
X0304941Y0052206D01*
X0304974Y0052361D01*
X0305012Y0052514D01*
X0305053Y0052667D01*
X0305098Y0052819D01*
X0305147Y0052970D01*
X0305200Y0053119D01*
X0305256Y0053267D01*
X0305316Y0053413D01*
X0305380Y0053558D01*
X0305448Y0053701D01*
X0305519Y0053843D01*
X0305593Y0053983D01*
X0305671Y0054120D01*
X0305753Y0054256D01*
X0305837Y0054390D01*
X0305926Y0054521D01*
X0306017Y0054650D01*
X0306112Y0054777D01*
X0306209Y0054902D01*
X0306310Y0055024D01*
X0306414Y0055143D01*
X0306521Y0055260D01*
X0306631Y0055374D01*
X0306744Y0055485D01*
X0306859Y0055594D01*
X0306977Y0055699D01*
X0307098Y0055801D01*
X0307221Y0055901D01*
X0307347Y0055997D01*
X0307475Y0056090D01*
X0307605Y0056180D01*
X0307738Y0056266D01*
X0307873Y0056350D01*
X0308009Y0056429D01*
X0308148Y0056506D01*
X0308289Y0056578D01*
X0308431Y0056648D01*
X0308575Y0056713D01*
X0308721Y0056775D01*
X0308868Y0056833D01*
X0309017Y0056888D01*
X0309167Y0056939D01*
X0309318Y0056986D01*
X0309470Y0057029D01*
X0309623Y0057068D01*
X0309778Y0057104D01*
X0309933Y0057135D01*
X0310089Y0057163D01*
X0310245Y0057187D01*
X0310402Y0057207D01*
X0310560Y0057223D01*
X0310717Y0057235D01*
X0310876Y0057243D01*
X0311034Y0057247D01*
X0311192Y0057247D01*
X0311350Y0057243D01*
X0311509Y0057235D01*
X0311666Y0057223D01*
X0311824Y0057207D01*
X0311981Y0057187D01*
X0312137Y0057163D01*
X0312293Y0057135D01*
X0312448Y0057104D01*
X0312603Y0057068D01*
X0312756Y0057029D01*
X0312908Y0056986D01*
X0313059Y0056939D01*
X0313209Y0056888D01*
X0313358Y0056833D01*
X0313505Y0056775D01*
X0313651Y0056713D01*
X0313795Y0056648D01*
X0313937Y0056578D01*
X0314078Y0056506D01*
X0314217Y0056429D01*
X0314353Y0056350D01*
X0314488Y0056266D01*
X0314621Y0056180D01*
X0314751Y0056090D01*
X0314879Y0055997D01*
X0315005Y0055901D01*
X0315128Y0055801D01*
X0315249Y0055699D01*
X0315367Y0055594D01*
X0315482Y0055485D01*
X0315595Y0055374D01*
X0315705Y0055260D01*
X0315812Y0055143D01*
X0315916Y0055024D01*
X0316017Y0054902D01*
X0316114Y0054777D01*
X0316209Y0054650D01*
X0316300Y0054521D01*
X0316389Y0054390D01*
X0316473Y0054256D01*
X0316555Y0054120D01*
X0316633Y0053983D01*
X0316707Y0053843D01*
X0316778Y0053701D01*
X0316846Y0053558D01*
X0316910Y0053413D01*
X0316970Y0053267D01*
X0317026Y0053119D01*
X0317079Y0052970D01*
X0317128Y0052819D01*
X0317173Y0052667D01*
X0317214Y0052514D01*
X0317252Y0052361D01*
X0317285Y0052206D01*
X0317315Y0052050D01*
X0317341Y0051894D01*
X0317362Y0051737D01*
X0317380Y0051580D01*
X0317394Y0051422D01*
X0317404Y0051264D01*
X0317410Y0051106D01*
X0317412Y0050948D01*
X0317410Y0050790D01*
X0317404Y0050632D01*
X0317394Y0050474D01*
X0317380Y0050316D01*
X0317362Y0050159D01*
X0317341Y0050002D01*
X0317315Y0049846D01*
X0317285Y0049690D01*
X0317252Y0049535D01*
X0317214Y0049382D01*
X0317173Y0049229D01*
X0317128Y0049077D01*
X0317079Y0048926D01*
X0317026Y0048777D01*
X0316970Y0048629D01*
X0316910Y0048483D01*
X0316846Y0048338D01*
X0316778Y0048195D01*
X0316707Y0048053D01*
X0316633Y0047913D01*
X0316555Y0047776D01*
X0316473Y0047640D01*
X0316389Y0047506D01*
X0316300Y0047375D01*
X0316209Y0047246D01*
X0316114Y0047119D01*
X0316017Y0046994D01*
X0315916Y0046872D01*
X0315812Y0046753D01*
X0315705Y0046636D01*
X0315595Y0046522D01*
X0315482Y0046411D01*
X0315367Y0046302D01*
X0315249Y0046197D01*
X0315128Y0046095D01*
X0315005Y0045995D01*
X0314879Y0045899D01*
X0314751Y0045806D01*
X0314621Y0045716D01*
X0314488Y0045630D01*
X0314353Y0045546D01*
X0314217Y0045467D01*
X0314078Y0045390D01*
X0313937Y0045318D01*
X0313795Y0045248D01*
X0313651Y0045183D01*
X0313505Y0045121D01*
X0313358Y0045063D01*
X0313209Y0045008D01*
X0313059Y0044957D01*
X0312908Y0044910D01*
X0312756Y0044867D01*
X0312603Y0044828D01*
X0312448Y0044792D01*
X0312293Y0044761D01*
X0312137Y0044733D01*
X0311981Y0044709D01*
X0311824Y0044689D01*
X0311666Y0044673D01*
X0311509Y0044661D01*
X0311350Y0044653D01*
X0311192Y0044649D01*
X0311034Y0044649D01*
X0310876Y0044653D01*
X0310717Y0044661D01*
X0310560Y0044673D01*
X0310402Y0044689D01*
X0310245Y0044709D01*
X0310089Y0044733D01*
X0309933Y0044761D01*
X0309778Y0044792D01*
X0309623Y0044828D01*
X0309470Y0044867D01*
X0309318Y0044910D01*
X0309167Y0044957D01*
X0309017Y0045008D01*
X0308868Y0045063D01*
X0308721Y0045121D01*
X0308575Y0045183D01*
X0308431Y0045248D01*
X0308289Y0045318D01*
X0308148Y0045390D01*
X0308009Y0045467D01*
X0307873Y0045546D01*
X0307738Y0045630D01*
X0307605Y0045716D01*
X0307475Y0045806D01*
X0307347Y0045899D01*
X0307221Y0045995D01*
X0307098Y0046095D01*
X0306977Y0046197D01*
X0306859Y0046302D01*
X0306744Y0046411D01*
X0306631Y0046522D01*
X0306521Y0046636D01*
X0306414Y0046753D01*
X0306310Y0046872D01*
X0306209Y0046994D01*
X0306112Y0047119D01*
X0306017Y0047246D01*
X0305926Y0047375D01*
X0305837Y0047506D01*
X0305753Y0047640D01*
X0305671Y0047776D01*
X0305593Y0047913D01*
X0305519Y0048053D01*
X0305448Y0048195D01*
X0305380Y0048338D01*
X0305316Y0048483D01*
X0305256Y0048629D01*
X0305200Y0048777D01*
X0305147Y0048926D01*
X0305098Y0049077D01*
X0305053Y0049229D01*
X0305012Y0049382D01*
X0304974Y0049535D01*
X0304941Y0049690D01*
X0304911Y0049846D01*
X0304885Y0050002D01*
X0304864Y0050159D01*
X0304846Y0050316D01*
X0304832Y0050474D01*
X0304822Y0050632D01*
X0304816Y0050790D01*
X0304814Y0050948D01*
D15*
X0311113Y0050948D03*
X0311113Y0334413D03*
X0027648Y0334413D03*
X0027648Y0050948D03*
D16*
X0021861Y0092661D03*
X0021861Y0102661D03*
X0031861Y0102661D03*
X0031861Y0112661D03*
X0031861Y0122661D03*
X0021861Y0122661D03*
X0021861Y0112661D03*
X0021861Y0132661D03*
X0031861Y0132661D03*
X0031861Y0142661D03*
X0031861Y0152661D03*
X0021861Y0152661D03*
X0021861Y0142661D03*
X0021861Y0162661D03*
X0021861Y0172661D03*
X0031861Y0172661D03*
X0031861Y0162661D03*
X0031861Y0182661D03*
X0021861Y0182661D03*
X0021861Y0202661D03*
X0021861Y0212661D03*
X0021861Y0222661D03*
X0031861Y0222661D03*
X0031861Y0212661D03*
X0031861Y0232661D03*
X0031861Y0242661D03*
X0021861Y0242661D03*
X0021861Y0232661D03*
X0021861Y0252661D03*
X0031861Y0252661D03*
X0031861Y0262661D03*
X0031861Y0272661D03*
X0021861Y0272661D03*
X0021861Y0262661D03*
X0021861Y0282661D03*
X0021861Y0292661D03*
X0031861Y0292661D03*
X0031861Y0282661D03*
X0090600Y0267400D03*
X0090600Y0252900D03*
X0139400Y0262200D03*
X0146900Y0269700D03*
X0154400Y0262200D03*
X0161900Y0269700D03*
X0169400Y0262200D03*
X0176900Y0269700D03*
X0184400Y0262200D03*
X0189350Y0320330D03*
X0189350Y0330330D03*
X0189350Y0340330D03*
X0179350Y0340330D03*
X0179350Y0330330D03*
X0179350Y0320330D03*
X0169350Y0320330D03*
X0169350Y0330330D03*
X0159350Y0330330D03*
X0159350Y0320330D03*
X0149350Y0330330D03*
X0149350Y0340330D03*
X0159350Y0340330D03*
X0169350Y0340330D03*
X0259700Y0210100D03*
X0252200Y0202600D03*
X0259800Y0195200D03*
X0252200Y0187800D03*
X0259700Y0180300D03*
X0252200Y0172800D03*
X0296861Y0182680D03*
X0306861Y0182680D03*
X0316861Y0182680D03*
X0316861Y0192680D03*
X0316861Y0202680D03*
X0306861Y0202680D03*
X0306861Y0192680D03*
X0296861Y0192680D03*
X0199400Y0065000D03*
X0199400Y0055000D03*
X0209400Y0055000D03*
X0209400Y0045000D03*
X0199400Y0045000D03*
X0189400Y0045000D03*
X0189400Y0055000D03*
X0189400Y0065000D03*
X0179400Y0065000D03*
X0179400Y0055000D03*
X0179400Y0045000D03*
X0169400Y0045000D03*
X0159400Y0045000D03*
X0159400Y0055000D03*
X0159400Y0065000D03*
X0169400Y0065000D03*
X0169400Y0055000D03*
X0149400Y0055000D03*
X0149400Y0065000D03*
X0139400Y0065000D03*
X0139400Y0055000D03*
X0139400Y0045000D03*
X0129400Y0045000D03*
X0129400Y0055000D03*
X0129400Y0065000D03*
X0149400Y0045000D03*
D17*
X0209400Y0065000D03*
X0296861Y0202680D03*
X0149350Y0320330D03*
X0031861Y0202661D03*
X0031861Y0092661D03*
D18*
X0068000Y0201500D02*
X0074000Y0201500D01*
X0074000Y0211500D02*
X0068000Y0211500D01*
X0068000Y0221500D02*
X0074000Y0221500D01*
D19*
X0102854Y0207400D03*
X0109546Y0207400D03*
X0161400Y0218954D03*
X0161400Y0225646D03*
X0211154Y0201700D03*
X0217846Y0201700D03*
X0217846Y0193700D03*
X0211154Y0193700D03*
X0211154Y0185700D03*
X0217846Y0185700D03*
X0217846Y0177700D03*
X0211154Y0177700D03*
D20*
X0182176Y0176539D03*
X0180207Y0176539D03*
X0178239Y0176539D03*
X0176270Y0176539D03*
X0174302Y0176539D03*
X0172333Y0176539D03*
X0170365Y0176539D03*
X0168396Y0176539D03*
X0166428Y0176539D03*
X0164459Y0176539D03*
X0162491Y0176539D03*
X0160522Y0176539D03*
X0158554Y0176539D03*
X0156585Y0176539D03*
X0156585Y0208822D03*
X0158554Y0208822D03*
X0160522Y0208822D03*
X0162491Y0208822D03*
X0164459Y0208822D03*
X0166428Y0208822D03*
X0168396Y0208822D03*
X0170365Y0208822D03*
X0172333Y0208822D03*
X0174302Y0208822D03*
X0176270Y0208822D03*
X0178239Y0208822D03*
X0180207Y0208822D03*
X0182176Y0208822D03*
D21*
X0169380Y0192680D03*
D22*
X0153239Y0191696D03*
X0153239Y0189728D03*
X0153239Y0187759D03*
X0153239Y0185791D03*
X0153239Y0183822D03*
X0153239Y0181854D03*
X0153239Y0179885D03*
X0153239Y0193665D03*
X0153239Y0195633D03*
X0153239Y0197602D03*
X0153239Y0199570D03*
X0153239Y0201539D03*
X0153239Y0203507D03*
X0153239Y0205476D03*
X0185522Y0205476D03*
X0185522Y0203507D03*
X0185522Y0201539D03*
X0185522Y0199570D03*
X0185522Y0197602D03*
X0185522Y0195633D03*
X0185522Y0193665D03*
X0185522Y0191696D03*
X0185522Y0189728D03*
X0185522Y0187759D03*
X0185522Y0185791D03*
X0185522Y0183822D03*
X0185522Y0181854D03*
X0185522Y0179885D03*
D23*
X0093200Y0207400D03*
X0085800Y0207400D03*
X0085800Y0217600D03*
X0089500Y0217600D03*
X0093200Y0217600D03*
D24*
X0121200Y0192200D03*
X0194600Y0273200D03*
X0207600Y0273200D03*
D25*
X0267806Y0291106D03*
X0267806Y0094255D03*
X0070955Y0094255D03*
X0070955Y0291106D03*
M02*
