G75*
%MOIN*%
%OFA0B0*%
%FSLAX25Y25*%
%IPPOS*%
%LPD*%
%AMOC8*
5,1,8,0,0,1.08239X$1,22.5*
%
%ADD10C,0.00000*%
%ADD11C,0.12998*%
%ADD12OC8,0.06400*%
%ADD13R,0.06400X0.06400*%
%ADD14R,0.05124X0.01581*%
%ADD15R,0.01581X0.05124*%
%ADD16R,0.02600X0.05400*%
%ADD17R,0.04534X0.04652*%
%ADD18C,0.06400*%
%ADD19R,0.04731X0.04337*%
%ADD20R,0.10100X0.03400*%
%ADD21R,0.04652X0.04534*%
%ADD22R,0.03943X0.03943*%
%ADD23C,0.05912*%
%ADD24R,0.04337X0.04731*%
%ADD25R,0.13200X0.03400*%
%ADD26R,0.05400X0.02600*%
D10*
X0024111Y0035100D02*
X0012300Y0046911D01*
X0012300Y0338250D01*
X0024111Y0350061D01*
X0315450Y0350061D01*
X0327261Y0338250D01*
X0327261Y0046911D01*
X0315450Y0035100D01*
X0024111Y0035100D01*
X0021749Y0050848D02*
X0021751Y0051006D01*
X0021757Y0051164D01*
X0021767Y0051322D01*
X0021781Y0051480D01*
X0021799Y0051637D01*
X0021820Y0051794D01*
X0021846Y0051950D01*
X0021876Y0052106D01*
X0021909Y0052261D01*
X0021947Y0052414D01*
X0021988Y0052567D01*
X0022033Y0052719D01*
X0022082Y0052870D01*
X0022135Y0053019D01*
X0022191Y0053167D01*
X0022251Y0053313D01*
X0022315Y0053458D01*
X0022383Y0053601D01*
X0022454Y0053743D01*
X0022528Y0053883D01*
X0022606Y0054020D01*
X0022688Y0054156D01*
X0022772Y0054290D01*
X0022861Y0054421D01*
X0022952Y0054550D01*
X0023047Y0054677D01*
X0023144Y0054802D01*
X0023245Y0054924D01*
X0023349Y0055043D01*
X0023456Y0055160D01*
X0023566Y0055274D01*
X0023679Y0055385D01*
X0023794Y0055494D01*
X0023912Y0055599D01*
X0024033Y0055701D01*
X0024156Y0055801D01*
X0024282Y0055897D01*
X0024410Y0055990D01*
X0024540Y0056080D01*
X0024673Y0056166D01*
X0024808Y0056250D01*
X0024944Y0056329D01*
X0025083Y0056406D01*
X0025224Y0056478D01*
X0025366Y0056548D01*
X0025510Y0056613D01*
X0025656Y0056675D01*
X0025803Y0056733D01*
X0025952Y0056788D01*
X0026102Y0056839D01*
X0026253Y0056886D01*
X0026405Y0056929D01*
X0026558Y0056968D01*
X0026713Y0057004D01*
X0026868Y0057035D01*
X0027024Y0057063D01*
X0027180Y0057087D01*
X0027337Y0057107D01*
X0027495Y0057123D01*
X0027652Y0057135D01*
X0027811Y0057143D01*
X0027969Y0057147D01*
X0028127Y0057147D01*
X0028285Y0057143D01*
X0028444Y0057135D01*
X0028601Y0057123D01*
X0028759Y0057107D01*
X0028916Y0057087D01*
X0029072Y0057063D01*
X0029228Y0057035D01*
X0029383Y0057004D01*
X0029538Y0056968D01*
X0029691Y0056929D01*
X0029843Y0056886D01*
X0029994Y0056839D01*
X0030144Y0056788D01*
X0030293Y0056733D01*
X0030440Y0056675D01*
X0030586Y0056613D01*
X0030730Y0056548D01*
X0030872Y0056478D01*
X0031013Y0056406D01*
X0031152Y0056329D01*
X0031288Y0056250D01*
X0031423Y0056166D01*
X0031556Y0056080D01*
X0031686Y0055990D01*
X0031814Y0055897D01*
X0031940Y0055801D01*
X0032063Y0055701D01*
X0032184Y0055599D01*
X0032302Y0055494D01*
X0032417Y0055385D01*
X0032530Y0055274D01*
X0032640Y0055160D01*
X0032747Y0055043D01*
X0032851Y0054924D01*
X0032952Y0054802D01*
X0033049Y0054677D01*
X0033144Y0054550D01*
X0033235Y0054421D01*
X0033324Y0054290D01*
X0033408Y0054156D01*
X0033490Y0054020D01*
X0033568Y0053883D01*
X0033642Y0053743D01*
X0033713Y0053601D01*
X0033781Y0053458D01*
X0033845Y0053313D01*
X0033905Y0053167D01*
X0033961Y0053019D01*
X0034014Y0052870D01*
X0034063Y0052719D01*
X0034108Y0052567D01*
X0034149Y0052414D01*
X0034187Y0052261D01*
X0034220Y0052106D01*
X0034250Y0051950D01*
X0034276Y0051794D01*
X0034297Y0051637D01*
X0034315Y0051480D01*
X0034329Y0051322D01*
X0034339Y0051164D01*
X0034345Y0051006D01*
X0034347Y0050848D01*
X0034345Y0050690D01*
X0034339Y0050532D01*
X0034329Y0050374D01*
X0034315Y0050216D01*
X0034297Y0050059D01*
X0034276Y0049902D01*
X0034250Y0049746D01*
X0034220Y0049590D01*
X0034187Y0049435D01*
X0034149Y0049282D01*
X0034108Y0049129D01*
X0034063Y0048977D01*
X0034014Y0048826D01*
X0033961Y0048677D01*
X0033905Y0048529D01*
X0033845Y0048383D01*
X0033781Y0048238D01*
X0033713Y0048095D01*
X0033642Y0047953D01*
X0033568Y0047813D01*
X0033490Y0047676D01*
X0033408Y0047540D01*
X0033324Y0047406D01*
X0033235Y0047275D01*
X0033144Y0047146D01*
X0033049Y0047019D01*
X0032952Y0046894D01*
X0032851Y0046772D01*
X0032747Y0046653D01*
X0032640Y0046536D01*
X0032530Y0046422D01*
X0032417Y0046311D01*
X0032302Y0046202D01*
X0032184Y0046097D01*
X0032063Y0045995D01*
X0031940Y0045895D01*
X0031814Y0045799D01*
X0031686Y0045706D01*
X0031556Y0045616D01*
X0031423Y0045530D01*
X0031288Y0045446D01*
X0031152Y0045367D01*
X0031013Y0045290D01*
X0030872Y0045218D01*
X0030730Y0045148D01*
X0030586Y0045083D01*
X0030440Y0045021D01*
X0030293Y0044963D01*
X0030144Y0044908D01*
X0029994Y0044857D01*
X0029843Y0044810D01*
X0029691Y0044767D01*
X0029538Y0044728D01*
X0029383Y0044692D01*
X0029228Y0044661D01*
X0029072Y0044633D01*
X0028916Y0044609D01*
X0028759Y0044589D01*
X0028601Y0044573D01*
X0028444Y0044561D01*
X0028285Y0044553D01*
X0028127Y0044549D01*
X0027969Y0044549D01*
X0027811Y0044553D01*
X0027652Y0044561D01*
X0027495Y0044573D01*
X0027337Y0044589D01*
X0027180Y0044609D01*
X0027024Y0044633D01*
X0026868Y0044661D01*
X0026713Y0044692D01*
X0026558Y0044728D01*
X0026405Y0044767D01*
X0026253Y0044810D01*
X0026102Y0044857D01*
X0025952Y0044908D01*
X0025803Y0044963D01*
X0025656Y0045021D01*
X0025510Y0045083D01*
X0025366Y0045148D01*
X0025224Y0045218D01*
X0025083Y0045290D01*
X0024944Y0045367D01*
X0024808Y0045446D01*
X0024673Y0045530D01*
X0024540Y0045616D01*
X0024410Y0045706D01*
X0024282Y0045799D01*
X0024156Y0045895D01*
X0024033Y0045995D01*
X0023912Y0046097D01*
X0023794Y0046202D01*
X0023679Y0046311D01*
X0023566Y0046422D01*
X0023456Y0046536D01*
X0023349Y0046653D01*
X0023245Y0046772D01*
X0023144Y0046894D01*
X0023047Y0047019D01*
X0022952Y0047146D01*
X0022861Y0047275D01*
X0022772Y0047406D01*
X0022688Y0047540D01*
X0022606Y0047676D01*
X0022528Y0047813D01*
X0022454Y0047953D01*
X0022383Y0048095D01*
X0022315Y0048238D01*
X0022251Y0048383D01*
X0022191Y0048529D01*
X0022135Y0048677D01*
X0022082Y0048826D01*
X0022033Y0048977D01*
X0021988Y0049129D01*
X0021947Y0049282D01*
X0021909Y0049435D01*
X0021876Y0049590D01*
X0021846Y0049746D01*
X0021820Y0049902D01*
X0021799Y0050059D01*
X0021781Y0050216D01*
X0021767Y0050374D01*
X0021757Y0050532D01*
X0021751Y0050690D01*
X0021749Y0050848D01*
X0021749Y0334313D02*
X0021751Y0334471D01*
X0021757Y0334629D01*
X0021767Y0334787D01*
X0021781Y0334945D01*
X0021799Y0335102D01*
X0021820Y0335259D01*
X0021846Y0335415D01*
X0021876Y0335571D01*
X0021909Y0335726D01*
X0021947Y0335879D01*
X0021988Y0336032D01*
X0022033Y0336184D01*
X0022082Y0336335D01*
X0022135Y0336484D01*
X0022191Y0336632D01*
X0022251Y0336778D01*
X0022315Y0336923D01*
X0022383Y0337066D01*
X0022454Y0337208D01*
X0022528Y0337348D01*
X0022606Y0337485D01*
X0022688Y0337621D01*
X0022772Y0337755D01*
X0022861Y0337886D01*
X0022952Y0338015D01*
X0023047Y0338142D01*
X0023144Y0338267D01*
X0023245Y0338389D01*
X0023349Y0338508D01*
X0023456Y0338625D01*
X0023566Y0338739D01*
X0023679Y0338850D01*
X0023794Y0338959D01*
X0023912Y0339064D01*
X0024033Y0339166D01*
X0024156Y0339266D01*
X0024282Y0339362D01*
X0024410Y0339455D01*
X0024540Y0339545D01*
X0024673Y0339631D01*
X0024808Y0339715D01*
X0024944Y0339794D01*
X0025083Y0339871D01*
X0025224Y0339943D01*
X0025366Y0340013D01*
X0025510Y0340078D01*
X0025656Y0340140D01*
X0025803Y0340198D01*
X0025952Y0340253D01*
X0026102Y0340304D01*
X0026253Y0340351D01*
X0026405Y0340394D01*
X0026558Y0340433D01*
X0026713Y0340469D01*
X0026868Y0340500D01*
X0027024Y0340528D01*
X0027180Y0340552D01*
X0027337Y0340572D01*
X0027495Y0340588D01*
X0027652Y0340600D01*
X0027811Y0340608D01*
X0027969Y0340612D01*
X0028127Y0340612D01*
X0028285Y0340608D01*
X0028444Y0340600D01*
X0028601Y0340588D01*
X0028759Y0340572D01*
X0028916Y0340552D01*
X0029072Y0340528D01*
X0029228Y0340500D01*
X0029383Y0340469D01*
X0029538Y0340433D01*
X0029691Y0340394D01*
X0029843Y0340351D01*
X0029994Y0340304D01*
X0030144Y0340253D01*
X0030293Y0340198D01*
X0030440Y0340140D01*
X0030586Y0340078D01*
X0030730Y0340013D01*
X0030872Y0339943D01*
X0031013Y0339871D01*
X0031152Y0339794D01*
X0031288Y0339715D01*
X0031423Y0339631D01*
X0031556Y0339545D01*
X0031686Y0339455D01*
X0031814Y0339362D01*
X0031940Y0339266D01*
X0032063Y0339166D01*
X0032184Y0339064D01*
X0032302Y0338959D01*
X0032417Y0338850D01*
X0032530Y0338739D01*
X0032640Y0338625D01*
X0032747Y0338508D01*
X0032851Y0338389D01*
X0032952Y0338267D01*
X0033049Y0338142D01*
X0033144Y0338015D01*
X0033235Y0337886D01*
X0033324Y0337755D01*
X0033408Y0337621D01*
X0033490Y0337485D01*
X0033568Y0337348D01*
X0033642Y0337208D01*
X0033713Y0337066D01*
X0033781Y0336923D01*
X0033845Y0336778D01*
X0033905Y0336632D01*
X0033961Y0336484D01*
X0034014Y0336335D01*
X0034063Y0336184D01*
X0034108Y0336032D01*
X0034149Y0335879D01*
X0034187Y0335726D01*
X0034220Y0335571D01*
X0034250Y0335415D01*
X0034276Y0335259D01*
X0034297Y0335102D01*
X0034315Y0334945D01*
X0034329Y0334787D01*
X0034339Y0334629D01*
X0034345Y0334471D01*
X0034347Y0334313D01*
X0034345Y0334155D01*
X0034339Y0333997D01*
X0034329Y0333839D01*
X0034315Y0333681D01*
X0034297Y0333524D01*
X0034276Y0333367D01*
X0034250Y0333211D01*
X0034220Y0333055D01*
X0034187Y0332900D01*
X0034149Y0332747D01*
X0034108Y0332594D01*
X0034063Y0332442D01*
X0034014Y0332291D01*
X0033961Y0332142D01*
X0033905Y0331994D01*
X0033845Y0331848D01*
X0033781Y0331703D01*
X0033713Y0331560D01*
X0033642Y0331418D01*
X0033568Y0331278D01*
X0033490Y0331141D01*
X0033408Y0331005D01*
X0033324Y0330871D01*
X0033235Y0330740D01*
X0033144Y0330611D01*
X0033049Y0330484D01*
X0032952Y0330359D01*
X0032851Y0330237D01*
X0032747Y0330118D01*
X0032640Y0330001D01*
X0032530Y0329887D01*
X0032417Y0329776D01*
X0032302Y0329667D01*
X0032184Y0329562D01*
X0032063Y0329460D01*
X0031940Y0329360D01*
X0031814Y0329264D01*
X0031686Y0329171D01*
X0031556Y0329081D01*
X0031423Y0328995D01*
X0031288Y0328911D01*
X0031152Y0328832D01*
X0031013Y0328755D01*
X0030872Y0328683D01*
X0030730Y0328613D01*
X0030586Y0328548D01*
X0030440Y0328486D01*
X0030293Y0328428D01*
X0030144Y0328373D01*
X0029994Y0328322D01*
X0029843Y0328275D01*
X0029691Y0328232D01*
X0029538Y0328193D01*
X0029383Y0328157D01*
X0029228Y0328126D01*
X0029072Y0328098D01*
X0028916Y0328074D01*
X0028759Y0328054D01*
X0028601Y0328038D01*
X0028444Y0328026D01*
X0028285Y0328018D01*
X0028127Y0328014D01*
X0027969Y0328014D01*
X0027811Y0328018D01*
X0027652Y0328026D01*
X0027495Y0328038D01*
X0027337Y0328054D01*
X0027180Y0328074D01*
X0027024Y0328098D01*
X0026868Y0328126D01*
X0026713Y0328157D01*
X0026558Y0328193D01*
X0026405Y0328232D01*
X0026253Y0328275D01*
X0026102Y0328322D01*
X0025952Y0328373D01*
X0025803Y0328428D01*
X0025656Y0328486D01*
X0025510Y0328548D01*
X0025366Y0328613D01*
X0025224Y0328683D01*
X0025083Y0328755D01*
X0024944Y0328832D01*
X0024808Y0328911D01*
X0024673Y0328995D01*
X0024540Y0329081D01*
X0024410Y0329171D01*
X0024282Y0329264D01*
X0024156Y0329360D01*
X0024033Y0329460D01*
X0023912Y0329562D01*
X0023794Y0329667D01*
X0023679Y0329776D01*
X0023566Y0329887D01*
X0023456Y0330001D01*
X0023349Y0330118D01*
X0023245Y0330237D01*
X0023144Y0330359D01*
X0023047Y0330484D01*
X0022952Y0330611D01*
X0022861Y0330740D01*
X0022772Y0330871D01*
X0022688Y0331005D01*
X0022606Y0331141D01*
X0022528Y0331278D01*
X0022454Y0331418D01*
X0022383Y0331560D01*
X0022315Y0331703D01*
X0022251Y0331848D01*
X0022191Y0331994D01*
X0022135Y0332142D01*
X0022082Y0332291D01*
X0022033Y0332442D01*
X0021988Y0332594D01*
X0021947Y0332747D01*
X0021909Y0332900D01*
X0021876Y0333055D01*
X0021846Y0333211D01*
X0021820Y0333367D01*
X0021799Y0333524D01*
X0021781Y0333681D01*
X0021767Y0333839D01*
X0021757Y0333997D01*
X0021751Y0334155D01*
X0021749Y0334313D01*
X0305214Y0334313D02*
X0305216Y0334471D01*
X0305222Y0334629D01*
X0305232Y0334787D01*
X0305246Y0334945D01*
X0305264Y0335102D01*
X0305285Y0335259D01*
X0305311Y0335415D01*
X0305341Y0335571D01*
X0305374Y0335726D01*
X0305412Y0335879D01*
X0305453Y0336032D01*
X0305498Y0336184D01*
X0305547Y0336335D01*
X0305600Y0336484D01*
X0305656Y0336632D01*
X0305716Y0336778D01*
X0305780Y0336923D01*
X0305848Y0337066D01*
X0305919Y0337208D01*
X0305993Y0337348D01*
X0306071Y0337485D01*
X0306153Y0337621D01*
X0306237Y0337755D01*
X0306326Y0337886D01*
X0306417Y0338015D01*
X0306512Y0338142D01*
X0306609Y0338267D01*
X0306710Y0338389D01*
X0306814Y0338508D01*
X0306921Y0338625D01*
X0307031Y0338739D01*
X0307144Y0338850D01*
X0307259Y0338959D01*
X0307377Y0339064D01*
X0307498Y0339166D01*
X0307621Y0339266D01*
X0307747Y0339362D01*
X0307875Y0339455D01*
X0308005Y0339545D01*
X0308138Y0339631D01*
X0308273Y0339715D01*
X0308409Y0339794D01*
X0308548Y0339871D01*
X0308689Y0339943D01*
X0308831Y0340013D01*
X0308975Y0340078D01*
X0309121Y0340140D01*
X0309268Y0340198D01*
X0309417Y0340253D01*
X0309567Y0340304D01*
X0309718Y0340351D01*
X0309870Y0340394D01*
X0310023Y0340433D01*
X0310178Y0340469D01*
X0310333Y0340500D01*
X0310489Y0340528D01*
X0310645Y0340552D01*
X0310802Y0340572D01*
X0310960Y0340588D01*
X0311117Y0340600D01*
X0311276Y0340608D01*
X0311434Y0340612D01*
X0311592Y0340612D01*
X0311750Y0340608D01*
X0311909Y0340600D01*
X0312066Y0340588D01*
X0312224Y0340572D01*
X0312381Y0340552D01*
X0312537Y0340528D01*
X0312693Y0340500D01*
X0312848Y0340469D01*
X0313003Y0340433D01*
X0313156Y0340394D01*
X0313308Y0340351D01*
X0313459Y0340304D01*
X0313609Y0340253D01*
X0313758Y0340198D01*
X0313905Y0340140D01*
X0314051Y0340078D01*
X0314195Y0340013D01*
X0314337Y0339943D01*
X0314478Y0339871D01*
X0314617Y0339794D01*
X0314753Y0339715D01*
X0314888Y0339631D01*
X0315021Y0339545D01*
X0315151Y0339455D01*
X0315279Y0339362D01*
X0315405Y0339266D01*
X0315528Y0339166D01*
X0315649Y0339064D01*
X0315767Y0338959D01*
X0315882Y0338850D01*
X0315995Y0338739D01*
X0316105Y0338625D01*
X0316212Y0338508D01*
X0316316Y0338389D01*
X0316417Y0338267D01*
X0316514Y0338142D01*
X0316609Y0338015D01*
X0316700Y0337886D01*
X0316789Y0337755D01*
X0316873Y0337621D01*
X0316955Y0337485D01*
X0317033Y0337348D01*
X0317107Y0337208D01*
X0317178Y0337066D01*
X0317246Y0336923D01*
X0317310Y0336778D01*
X0317370Y0336632D01*
X0317426Y0336484D01*
X0317479Y0336335D01*
X0317528Y0336184D01*
X0317573Y0336032D01*
X0317614Y0335879D01*
X0317652Y0335726D01*
X0317685Y0335571D01*
X0317715Y0335415D01*
X0317741Y0335259D01*
X0317762Y0335102D01*
X0317780Y0334945D01*
X0317794Y0334787D01*
X0317804Y0334629D01*
X0317810Y0334471D01*
X0317812Y0334313D01*
X0317810Y0334155D01*
X0317804Y0333997D01*
X0317794Y0333839D01*
X0317780Y0333681D01*
X0317762Y0333524D01*
X0317741Y0333367D01*
X0317715Y0333211D01*
X0317685Y0333055D01*
X0317652Y0332900D01*
X0317614Y0332747D01*
X0317573Y0332594D01*
X0317528Y0332442D01*
X0317479Y0332291D01*
X0317426Y0332142D01*
X0317370Y0331994D01*
X0317310Y0331848D01*
X0317246Y0331703D01*
X0317178Y0331560D01*
X0317107Y0331418D01*
X0317033Y0331278D01*
X0316955Y0331141D01*
X0316873Y0331005D01*
X0316789Y0330871D01*
X0316700Y0330740D01*
X0316609Y0330611D01*
X0316514Y0330484D01*
X0316417Y0330359D01*
X0316316Y0330237D01*
X0316212Y0330118D01*
X0316105Y0330001D01*
X0315995Y0329887D01*
X0315882Y0329776D01*
X0315767Y0329667D01*
X0315649Y0329562D01*
X0315528Y0329460D01*
X0315405Y0329360D01*
X0315279Y0329264D01*
X0315151Y0329171D01*
X0315021Y0329081D01*
X0314888Y0328995D01*
X0314753Y0328911D01*
X0314617Y0328832D01*
X0314478Y0328755D01*
X0314337Y0328683D01*
X0314195Y0328613D01*
X0314051Y0328548D01*
X0313905Y0328486D01*
X0313758Y0328428D01*
X0313609Y0328373D01*
X0313459Y0328322D01*
X0313308Y0328275D01*
X0313156Y0328232D01*
X0313003Y0328193D01*
X0312848Y0328157D01*
X0312693Y0328126D01*
X0312537Y0328098D01*
X0312381Y0328074D01*
X0312224Y0328054D01*
X0312066Y0328038D01*
X0311909Y0328026D01*
X0311750Y0328018D01*
X0311592Y0328014D01*
X0311434Y0328014D01*
X0311276Y0328018D01*
X0311117Y0328026D01*
X0310960Y0328038D01*
X0310802Y0328054D01*
X0310645Y0328074D01*
X0310489Y0328098D01*
X0310333Y0328126D01*
X0310178Y0328157D01*
X0310023Y0328193D01*
X0309870Y0328232D01*
X0309718Y0328275D01*
X0309567Y0328322D01*
X0309417Y0328373D01*
X0309268Y0328428D01*
X0309121Y0328486D01*
X0308975Y0328548D01*
X0308831Y0328613D01*
X0308689Y0328683D01*
X0308548Y0328755D01*
X0308409Y0328832D01*
X0308273Y0328911D01*
X0308138Y0328995D01*
X0308005Y0329081D01*
X0307875Y0329171D01*
X0307747Y0329264D01*
X0307621Y0329360D01*
X0307498Y0329460D01*
X0307377Y0329562D01*
X0307259Y0329667D01*
X0307144Y0329776D01*
X0307031Y0329887D01*
X0306921Y0330001D01*
X0306814Y0330118D01*
X0306710Y0330237D01*
X0306609Y0330359D01*
X0306512Y0330484D01*
X0306417Y0330611D01*
X0306326Y0330740D01*
X0306237Y0330871D01*
X0306153Y0331005D01*
X0306071Y0331141D01*
X0305993Y0331278D01*
X0305919Y0331418D01*
X0305848Y0331560D01*
X0305780Y0331703D01*
X0305716Y0331848D01*
X0305656Y0331994D01*
X0305600Y0332142D01*
X0305547Y0332291D01*
X0305498Y0332442D01*
X0305453Y0332594D01*
X0305412Y0332747D01*
X0305374Y0332900D01*
X0305341Y0333055D01*
X0305311Y0333211D01*
X0305285Y0333367D01*
X0305264Y0333524D01*
X0305246Y0333681D01*
X0305232Y0333839D01*
X0305222Y0333997D01*
X0305216Y0334155D01*
X0305214Y0334313D01*
X0305214Y0050848D02*
X0305216Y0051006D01*
X0305222Y0051164D01*
X0305232Y0051322D01*
X0305246Y0051480D01*
X0305264Y0051637D01*
X0305285Y0051794D01*
X0305311Y0051950D01*
X0305341Y0052106D01*
X0305374Y0052261D01*
X0305412Y0052414D01*
X0305453Y0052567D01*
X0305498Y0052719D01*
X0305547Y0052870D01*
X0305600Y0053019D01*
X0305656Y0053167D01*
X0305716Y0053313D01*
X0305780Y0053458D01*
X0305848Y0053601D01*
X0305919Y0053743D01*
X0305993Y0053883D01*
X0306071Y0054020D01*
X0306153Y0054156D01*
X0306237Y0054290D01*
X0306326Y0054421D01*
X0306417Y0054550D01*
X0306512Y0054677D01*
X0306609Y0054802D01*
X0306710Y0054924D01*
X0306814Y0055043D01*
X0306921Y0055160D01*
X0307031Y0055274D01*
X0307144Y0055385D01*
X0307259Y0055494D01*
X0307377Y0055599D01*
X0307498Y0055701D01*
X0307621Y0055801D01*
X0307747Y0055897D01*
X0307875Y0055990D01*
X0308005Y0056080D01*
X0308138Y0056166D01*
X0308273Y0056250D01*
X0308409Y0056329D01*
X0308548Y0056406D01*
X0308689Y0056478D01*
X0308831Y0056548D01*
X0308975Y0056613D01*
X0309121Y0056675D01*
X0309268Y0056733D01*
X0309417Y0056788D01*
X0309567Y0056839D01*
X0309718Y0056886D01*
X0309870Y0056929D01*
X0310023Y0056968D01*
X0310178Y0057004D01*
X0310333Y0057035D01*
X0310489Y0057063D01*
X0310645Y0057087D01*
X0310802Y0057107D01*
X0310960Y0057123D01*
X0311117Y0057135D01*
X0311276Y0057143D01*
X0311434Y0057147D01*
X0311592Y0057147D01*
X0311750Y0057143D01*
X0311909Y0057135D01*
X0312066Y0057123D01*
X0312224Y0057107D01*
X0312381Y0057087D01*
X0312537Y0057063D01*
X0312693Y0057035D01*
X0312848Y0057004D01*
X0313003Y0056968D01*
X0313156Y0056929D01*
X0313308Y0056886D01*
X0313459Y0056839D01*
X0313609Y0056788D01*
X0313758Y0056733D01*
X0313905Y0056675D01*
X0314051Y0056613D01*
X0314195Y0056548D01*
X0314337Y0056478D01*
X0314478Y0056406D01*
X0314617Y0056329D01*
X0314753Y0056250D01*
X0314888Y0056166D01*
X0315021Y0056080D01*
X0315151Y0055990D01*
X0315279Y0055897D01*
X0315405Y0055801D01*
X0315528Y0055701D01*
X0315649Y0055599D01*
X0315767Y0055494D01*
X0315882Y0055385D01*
X0315995Y0055274D01*
X0316105Y0055160D01*
X0316212Y0055043D01*
X0316316Y0054924D01*
X0316417Y0054802D01*
X0316514Y0054677D01*
X0316609Y0054550D01*
X0316700Y0054421D01*
X0316789Y0054290D01*
X0316873Y0054156D01*
X0316955Y0054020D01*
X0317033Y0053883D01*
X0317107Y0053743D01*
X0317178Y0053601D01*
X0317246Y0053458D01*
X0317310Y0053313D01*
X0317370Y0053167D01*
X0317426Y0053019D01*
X0317479Y0052870D01*
X0317528Y0052719D01*
X0317573Y0052567D01*
X0317614Y0052414D01*
X0317652Y0052261D01*
X0317685Y0052106D01*
X0317715Y0051950D01*
X0317741Y0051794D01*
X0317762Y0051637D01*
X0317780Y0051480D01*
X0317794Y0051322D01*
X0317804Y0051164D01*
X0317810Y0051006D01*
X0317812Y0050848D01*
X0317810Y0050690D01*
X0317804Y0050532D01*
X0317794Y0050374D01*
X0317780Y0050216D01*
X0317762Y0050059D01*
X0317741Y0049902D01*
X0317715Y0049746D01*
X0317685Y0049590D01*
X0317652Y0049435D01*
X0317614Y0049282D01*
X0317573Y0049129D01*
X0317528Y0048977D01*
X0317479Y0048826D01*
X0317426Y0048677D01*
X0317370Y0048529D01*
X0317310Y0048383D01*
X0317246Y0048238D01*
X0317178Y0048095D01*
X0317107Y0047953D01*
X0317033Y0047813D01*
X0316955Y0047676D01*
X0316873Y0047540D01*
X0316789Y0047406D01*
X0316700Y0047275D01*
X0316609Y0047146D01*
X0316514Y0047019D01*
X0316417Y0046894D01*
X0316316Y0046772D01*
X0316212Y0046653D01*
X0316105Y0046536D01*
X0315995Y0046422D01*
X0315882Y0046311D01*
X0315767Y0046202D01*
X0315649Y0046097D01*
X0315528Y0045995D01*
X0315405Y0045895D01*
X0315279Y0045799D01*
X0315151Y0045706D01*
X0315021Y0045616D01*
X0314888Y0045530D01*
X0314753Y0045446D01*
X0314617Y0045367D01*
X0314478Y0045290D01*
X0314337Y0045218D01*
X0314195Y0045148D01*
X0314051Y0045083D01*
X0313905Y0045021D01*
X0313758Y0044963D01*
X0313609Y0044908D01*
X0313459Y0044857D01*
X0313308Y0044810D01*
X0313156Y0044767D01*
X0313003Y0044728D01*
X0312848Y0044692D01*
X0312693Y0044661D01*
X0312537Y0044633D01*
X0312381Y0044609D01*
X0312224Y0044589D01*
X0312066Y0044573D01*
X0311909Y0044561D01*
X0311750Y0044553D01*
X0311592Y0044549D01*
X0311434Y0044549D01*
X0311276Y0044553D01*
X0311117Y0044561D01*
X0310960Y0044573D01*
X0310802Y0044589D01*
X0310645Y0044609D01*
X0310489Y0044633D01*
X0310333Y0044661D01*
X0310178Y0044692D01*
X0310023Y0044728D01*
X0309870Y0044767D01*
X0309718Y0044810D01*
X0309567Y0044857D01*
X0309417Y0044908D01*
X0309268Y0044963D01*
X0309121Y0045021D01*
X0308975Y0045083D01*
X0308831Y0045148D01*
X0308689Y0045218D01*
X0308548Y0045290D01*
X0308409Y0045367D01*
X0308273Y0045446D01*
X0308138Y0045530D01*
X0308005Y0045616D01*
X0307875Y0045706D01*
X0307747Y0045799D01*
X0307621Y0045895D01*
X0307498Y0045995D01*
X0307377Y0046097D01*
X0307259Y0046202D01*
X0307144Y0046311D01*
X0307031Y0046422D01*
X0306921Y0046536D01*
X0306814Y0046653D01*
X0306710Y0046772D01*
X0306609Y0046894D01*
X0306512Y0047019D01*
X0306417Y0047146D01*
X0306326Y0047275D01*
X0306237Y0047406D01*
X0306153Y0047540D01*
X0306071Y0047676D01*
X0305993Y0047813D01*
X0305919Y0047953D01*
X0305848Y0048095D01*
X0305780Y0048238D01*
X0305716Y0048383D01*
X0305656Y0048529D01*
X0305600Y0048677D01*
X0305547Y0048826D01*
X0305498Y0048977D01*
X0305453Y0049129D01*
X0305412Y0049282D01*
X0305374Y0049435D01*
X0305341Y0049590D01*
X0305311Y0049746D01*
X0305285Y0049902D01*
X0305264Y0050059D01*
X0305246Y0050216D01*
X0305232Y0050374D01*
X0305222Y0050532D01*
X0305216Y0050690D01*
X0305214Y0050848D01*
D11*
X0311513Y0050848D03*
X0311513Y0334313D03*
X0028048Y0334313D03*
X0028048Y0050848D03*
D12*
X0051800Y0092100D03*
X0032261Y0102561D03*
X0022261Y0102561D03*
X0022261Y0092561D03*
X0022261Y0112561D03*
X0022261Y0122561D03*
X0032261Y0122561D03*
X0032261Y0112561D03*
X0032261Y0132561D03*
X0022261Y0132561D03*
X0022261Y0142561D03*
X0022261Y0152561D03*
X0032261Y0152561D03*
X0032261Y0142561D03*
X0032261Y0162561D03*
X0032261Y0172561D03*
X0022261Y0172561D03*
X0022261Y0162561D03*
X0022261Y0182561D03*
X0032261Y0182561D03*
X0022261Y0202561D03*
X0022261Y0212561D03*
X0022261Y0222561D03*
X0032261Y0222561D03*
X0032261Y0212561D03*
X0032261Y0232561D03*
X0032261Y0242561D03*
X0022261Y0242561D03*
X0022261Y0232561D03*
X0022261Y0252561D03*
X0032261Y0252561D03*
X0032261Y0262561D03*
X0032261Y0272561D03*
X0022261Y0272561D03*
X0022261Y0262561D03*
X0022261Y0282561D03*
X0022261Y0292561D03*
X0032261Y0292561D03*
X0032261Y0282561D03*
X0093800Y0292000D03*
X0103800Y0292000D03*
X0113800Y0292000D03*
X0123800Y0292000D03*
X0133800Y0292000D03*
X0139820Y0320161D03*
X0139820Y0330161D03*
X0139820Y0340161D03*
X0149820Y0340161D03*
X0159820Y0340161D03*
X0169820Y0340161D03*
X0179820Y0340161D03*
X0189820Y0340161D03*
X0199820Y0340161D03*
X0209820Y0340161D03*
X0209820Y0330161D03*
X0199820Y0330161D03*
X0199820Y0320161D03*
X0209820Y0320161D03*
X0189820Y0320161D03*
X0189820Y0330161D03*
X0179820Y0330161D03*
X0179820Y0320161D03*
X0169820Y0320161D03*
X0169820Y0330161D03*
X0159820Y0330161D03*
X0159820Y0320161D03*
X0149820Y0320161D03*
X0149820Y0330161D03*
X0129820Y0330161D03*
X0129820Y0340161D03*
X0146700Y0216700D03*
X0067300Y0166600D03*
X0092300Y0080000D03*
X0155800Y0105200D03*
X0155800Y0115200D03*
X0165800Y0115200D03*
X0165800Y0105200D03*
X0175800Y0105200D03*
X0175800Y0115200D03*
X0185800Y0115200D03*
X0185800Y0105200D03*
X0169700Y0065000D03*
X0169700Y0055000D03*
X0159700Y0055000D03*
X0159700Y0065000D03*
X0159700Y0045000D03*
X0169700Y0045000D03*
X0179700Y0045000D03*
X0179700Y0055000D03*
X0252300Y0080100D03*
X0277300Y0080100D03*
X0261220Y0131980D03*
X0261220Y0141980D03*
X0251220Y0141980D03*
X0251220Y0131980D03*
X0251220Y0151980D03*
X0251220Y0161980D03*
X0251220Y0171980D03*
X0251220Y0181980D03*
X0251220Y0191980D03*
X0251220Y0201980D03*
X0251220Y0211980D03*
X0251220Y0221980D03*
X0251220Y0231980D03*
X0251220Y0241980D03*
X0251220Y0251980D03*
X0261220Y0251980D03*
X0261220Y0241980D03*
X0261220Y0231980D03*
X0261220Y0221980D03*
X0261220Y0211980D03*
X0261220Y0201980D03*
X0261220Y0191980D03*
X0261220Y0181980D03*
X0261220Y0171980D03*
X0261220Y0161980D03*
X0261220Y0151980D03*
X0297300Y0162600D03*
X0297300Y0172600D03*
X0307300Y0172600D03*
X0307300Y0162600D03*
X0317300Y0162600D03*
X0317300Y0172600D03*
X0317300Y0182600D03*
X0317300Y0192600D03*
X0317300Y0202600D03*
X0317300Y0212600D03*
X0317300Y0222600D03*
X0307300Y0222600D03*
X0307300Y0212600D03*
X0297300Y0212600D03*
X0297300Y0202600D03*
X0297300Y0192600D03*
X0307300Y0192600D03*
X0307300Y0202600D03*
X0307300Y0182600D03*
X0297300Y0182600D03*
X0277300Y0291000D03*
X0252300Y0291000D03*
D13*
X0297300Y0222600D03*
X0179700Y0065000D03*
X0032261Y0092561D03*
X0032261Y0202561D03*
X0129820Y0320161D03*
D14*
G36*
X0177718Y0220279D02*
X0174096Y0216657D01*
X0172978Y0217775D01*
X0176600Y0221397D01*
X0177718Y0220279D01*
G37*
G36*
X0179110Y0218887D02*
X0175488Y0215265D01*
X0174370Y0216383D01*
X0177992Y0220005D01*
X0179110Y0218887D01*
G37*
G36*
X0180502Y0217495D02*
X0176880Y0213873D01*
X0175762Y0214991D01*
X0179384Y0218613D01*
X0180502Y0217495D01*
G37*
G36*
X0181894Y0216103D02*
X0178272Y0212481D01*
X0177154Y0213599D01*
X0180776Y0217221D01*
X0181894Y0216103D01*
G37*
G36*
X0183286Y0214711D02*
X0179664Y0211089D01*
X0178546Y0212207D01*
X0182168Y0215829D01*
X0183286Y0214711D01*
G37*
G36*
X0184678Y0213320D02*
X0181056Y0209698D01*
X0179938Y0210816D01*
X0183560Y0214438D01*
X0184678Y0213320D01*
G37*
G36*
X0186070Y0211928D02*
X0182448Y0208306D01*
X0181330Y0209424D01*
X0184952Y0213046D01*
X0186070Y0211928D01*
G37*
G36*
X0187462Y0210536D02*
X0183840Y0206914D01*
X0182722Y0208032D01*
X0186344Y0211654D01*
X0187462Y0210536D01*
G37*
G36*
X0188854Y0209144D02*
X0185232Y0205522D01*
X0184114Y0206640D01*
X0187736Y0210262D01*
X0188854Y0209144D01*
G37*
G36*
X0190246Y0207752D02*
X0186624Y0204130D01*
X0185506Y0205248D01*
X0189128Y0208870D01*
X0190246Y0207752D01*
G37*
G36*
X0191638Y0206360D02*
X0188016Y0202738D01*
X0186898Y0203856D01*
X0190520Y0207478D01*
X0191638Y0206360D01*
G37*
G36*
X0193029Y0204968D02*
X0189407Y0201346D01*
X0188289Y0202464D01*
X0191911Y0206086D01*
X0193029Y0204968D01*
G37*
G36*
X0194421Y0203576D02*
X0190799Y0199954D01*
X0189681Y0201072D01*
X0193303Y0204694D01*
X0194421Y0203576D01*
G37*
G36*
X0195813Y0202184D02*
X0192191Y0198562D01*
X0191073Y0199680D01*
X0194695Y0203302D01*
X0195813Y0202184D01*
G37*
G36*
X0197205Y0200792D02*
X0193583Y0197170D01*
X0192465Y0198288D01*
X0196087Y0201910D01*
X0197205Y0200792D01*
G37*
G36*
X0198597Y0199400D02*
X0194975Y0195778D01*
X0193857Y0196896D01*
X0197479Y0200518D01*
X0198597Y0199400D01*
G37*
G36*
X0166583Y0167385D02*
X0162961Y0163763D01*
X0161843Y0164881D01*
X0165465Y0168503D01*
X0166583Y0167385D01*
G37*
G36*
X0165191Y0168777D02*
X0161569Y0165155D01*
X0160451Y0166273D01*
X0164073Y0169895D01*
X0165191Y0168777D01*
G37*
G36*
X0163799Y0170169D02*
X0160177Y0166547D01*
X0159059Y0167665D01*
X0162681Y0171287D01*
X0163799Y0170169D01*
G37*
G36*
X0162407Y0171561D02*
X0158785Y0167939D01*
X0157667Y0169057D01*
X0161289Y0172679D01*
X0162407Y0171561D01*
G37*
G36*
X0161015Y0172953D02*
X0157393Y0169331D01*
X0156275Y0170449D01*
X0159897Y0174071D01*
X0161015Y0172953D01*
G37*
G36*
X0159623Y0174345D02*
X0156001Y0170723D01*
X0154883Y0171841D01*
X0158505Y0175463D01*
X0159623Y0174345D01*
G37*
G36*
X0158231Y0175737D02*
X0154609Y0172115D01*
X0153491Y0173233D01*
X0157113Y0176855D01*
X0158231Y0175737D01*
G37*
G36*
X0156839Y0177129D02*
X0153217Y0173507D01*
X0152099Y0174625D01*
X0155721Y0178247D01*
X0156839Y0177129D01*
G37*
G36*
X0155447Y0178521D02*
X0151825Y0174899D01*
X0150707Y0176017D01*
X0154329Y0179639D01*
X0155447Y0178521D01*
G37*
G36*
X0154055Y0179913D02*
X0150433Y0176291D01*
X0149315Y0177409D01*
X0152937Y0181031D01*
X0154055Y0179913D01*
G37*
G36*
X0152663Y0181305D02*
X0149041Y0177683D01*
X0147923Y0178801D01*
X0151545Y0182423D01*
X0152663Y0181305D01*
G37*
G36*
X0151271Y0182697D02*
X0147649Y0179075D01*
X0146531Y0180193D01*
X0150153Y0183815D01*
X0151271Y0182697D01*
G37*
G36*
X0149879Y0184089D02*
X0146257Y0180467D01*
X0145139Y0181585D01*
X0148761Y0185207D01*
X0149879Y0184089D01*
G37*
G36*
X0148487Y0185481D02*
X0144865Y0181859D01*
X0143747Y0182977D01*
X0147369Y0186599D01*
X0148487Y0185481D01*
G37*
G36*
X0147095Y0186873D02*
X0143473Y0183251D01*
X0142355Y0184369D01*
X0145977Y0187991D01*
X0147095Y0186873D01*
G37*
G36*
X0145703Y0188265D02*
X0142081Y0184643D01*
X0140963Y0185761D01*
X0144585Y0189383D01*
X0145703Y0188265D01*
G37*
D15*
G36*
X0145703Y0196896D02*
X0144585Y0195778D01*
X0140963Y0199400D01*
X0142081Y0200518D01*
X0145703Y0196896D01*
G37*
G36*
X0147095Y0198288D02*
X0145977Y0197170D01*
X0142355Y0200792D01*
X0143473Y0201910D01*
X0147095Y0198288D01*
G37*
G36*
X0148487Y0199680D02*
X0147369Y0198562D01*
X0143747Y0202184D01*
X0144865Y0203302D01*
X0148487Y0199680D01*
G37*
G36*
X0149879Y0201072D02*
X0148761Y0199954D01*
X0145139Y0203576D01*
X0146257Y0204694D01*
X0149879Y0201072D01*
G37*
G36*
X0151271Y0202464D02*
X0150153Y0201346D01*
X0146531Y0204968D01*
X0147649Y0206086D01*
X0151271Y0202464D01*
G37*
G36*
X0152663Y0203856D02*
X0151545Y0202738D01*
X0147923Y0206360D01*
X0149041Y0207478D01*
X0152663Y0203856D01*
G37*
G36*
X0154055Y0205248D02*
X0152937Y0204130D01*
X0149315Y0207752D01*
X0150433Y0208870D01*
X0154055Y0205248D01*
G37*
G36*
X0155447Y0206640D02*
X0154329Y0205522D01*
X0150707Y0209144D01*
X0151825Y0210262D01*
X0155447Y0206640D01*
G37*
G36*
X0156839Y0208032D02*
X0155721Y0206914D01*
X0152099Y0210536D01*
X0153217Y0211654D01*
X0156839Y0208032D01*
G37*
G36*
X0158231Y0209424D02*
X0157113Y0208306D01*
X0153491Y0211928D01*
X0154609Y0213046D01*
X0158231Y0209424D01*
G37*
G36*
X0159623Y0210816D02*
X0158505Y0209698D01*
X0154883Y0213320D01*
X0156001Y0214438D01*
X0159623Y0210816D01*
G37*
G36*
X0161015Y0212207D02*
X0159897Y0211089D01*
X0156275Y0214711D01*
X0157393Y0215829D01*
X0161015Y0212207D01*
G37*
G36*
X0162407Y0213599D02*
X0161289Y0212481D01*
X0157667Y0216103D01*
X0158785Y0217221D01*
X0162407Y0213599D01*
G37*
G36*
X0163799Y0214991D02*
X0162681Y0213873D01*
X0159059Y0217495D01*
X0160177Y0218613D01*
X0163799Y0214991D01*
G37*
G36*
X0165191Y0216383D02*
X0164073Y0215265D01*
X0160451Y0218887D01*
X0161569Y0220005D01*
X0165191Y0216383D01*
G37*
G36*
X0166583Y0217775D02*
X0165465Y0216657D01*
X0161843Y0220279D01*
X0162961Y0221397D01*
X0166583Y0217775D01*
G37*
G36*
X0197205Y0184369D02*
X0196087Y0183251D01*
X0192465Y0186873D01*
X0193583Y0187991D01*
X0197205Y0184369D01*
G37*
G36*
X0198597Y0185761D02*
X0197479Y0184643D01*
X0193857Y0188265D01*
X0194975Y0189383D01*
X0198597Y0185761D01*
G37*
G36*
X0195813Y0182977D02*
X0194695Y0181859D01*
X0191073Y0185481D01*
X0192191Y0186599D01*
X0195813Y0182977D01*
G37*
G36*
X0194421Y0181585D02*
X0193303Y0180467D01*
X0189681Y0184089D01*
X0190799Y0185207D01*
X0194421Y0181585D01*
G37*
G36*
X0193029Y0180193D02*
X0191911Y0179075D01*
X0188289Y0182697D01*
X0189407Y0183815D01*
X0193029Y0180193D01*
G37*
G36*
X0191638Y0178801D02*
X0190520Y0177683D01*
X0186898Y0181305D01*
X0188016Y0182423D01*
X0191638Y0178801D01*
G37*
G36*
X0190246Y0177409D02*
X0189128Y0176291D01*
X0185506Y0179913D01*
X0186624Y0181031D01*
X0190246Y0177409D01*
G37*
G36*
X0188854Y0176017D02*
X0187736Y0174899D01*
X0184114Y0178521D01*
X0185232Y0179639D01*
X0188854Y0176017D01*
G37*
G36*
X0187462Y0174625D02*
X0186344Y0173507D01*
X0182722Y0177129D01*
X0183840Y0178247D01*
X0187462Y0174625D01*
G37*
G36*
X0186070Y0173233D02*
X0184952Y0172115D01*
X0181330Y0175737D01*
X0182448Y0176855D01*
X0186070Y0173233D01*
G37*
G36*
X0184678Y0171841D02*
X0183560Y0170723D01*
X0179938Y0174345D01*
X0181056Y0175463D01*
X0184678Y0171841D01*
G37*
G36*
X0183286Y0170449D02*
X0182168Y0169331D01*
X0178546Y0172953D01*
X0179664Y0174071D01*
X0183286Y0170449D01*
G37*
G36*
X0181894Y0169057D02*
X0180776Y0167939D01*
X0177154Y0171561D01*
X0178272Y0172679D01*
X0181894Y0169057D01*
G37*
G36*
X0180502Y0167665D02*
X0179384Y0166547D01*
X0175762Y0170169D01*
X0176880Y0171287D01*
X0180502Y0167665D01*
G37*
G36*
X0179110Y0166273D02*
X0177992Y0165155D01*
X0174370Y0168777D01*
X0175488Y0169895D01*
X0179110Y0166273D01*
G37*
G36*
X0177718Y0164881D02*
X0176600Y0163763D01*
X0172978Y0167385D01*
X0174096Y0168503D01*
X0177718Y0164881D01*
G37*
D16*
X0086000Y0202800D03*
X0078600Y0202800D03*
X0078600Y0213000D03*
X0082300Y0213000D03*
X0086000Y0213000D03*
D17*
X0085945Y0223000D03*
X0079055Y0223000D03*
X0128955Y0178500D03*
X0128955Y0172900D03*
X0135845Y0172900D03*
X0135845Y0178500D03*
X0168555Y0157600D03*
X0175445Y0157600D03*
X0195855Y0152600D03*
X0202745Y0152600D03*
X0206255Y0221800D03*
X0213145Y0221800D03*
D18*
X0093400Y0260800D02*
X0087400Y0260800D01*
X0087400Y0270800D02*
X0093400Y0270800D01*
X0067900Y0218900D02*
X0061900Y0218900D01*
X0061900Y0208900D02*
X0067900Y0208900D01*
X0067900Y0198900D02*
X0061900Y0198900D01*
D19*
X0097900Y0206754D03*
X0097900Y0213446D03*
X0174700Y0236254D03*
X0174700Y0242946D03*
X0180500Y0275554D03*
X0180500Y0282246D03*
D20*
X0157500Y0275100D03*
X0144300Y0275100D03*
X0144300Y0254500D03*
X0157500Y0254500D03*
X0201900Y0239600D03*
X0215100Y0239600D03*
X0220800Y0163400D03*
X0207600Y0163400D03*
X0181700Y0142000D03*
X0168500Y0142000D03*
X0118100Y0154400D03*
X0104900Y0154400D03*
X0104900Y0174900D03*
X0118100Y0174900D03*
D21*
X0136000Y0165945D03*
X0142200Y0165955D03*
X0142200Y0172845D03*
X0136000Y0159055D03*
X0139600Y0140645D03*
X0146100Y0140645D03*
X0152600Y0140645D03*
X0159100Y0140645D03*
X0159100Y0133755D03*
X0152600Y0133755D03*
X0146100Y0133755D03*
X0139600Y0133755D03*
X0192300Y0162755D03*
X0198400Y0162755D03*
X0198400Y0169645D03*
X0192300Y0169645D03*
X0219000Y0214855D03*
X0219000Y0221745D03*
X0198000Y0222655D03*
X0191700Y0222655D03*
X0191700Y0229545D03*
X0198000Y0229545D03*
X0198700Y0258855D03*
X0192500Y0258855D03*
X0192500Y0265745D03*
X0198700Y0265745D03*
X0204800Y0265745D03*
X0204800Y0258855D03*
X0211000Y0258855D03*
X0211000Y0265745D03*
X0217700Y0265745D03*
X0217700Y0258855D03*
X0200300Y0290355D03*
X0200300Y0297245D03*
X0186400Y0265745D03*
X0186400Y0258855D03*
X0180200Y0258855D03*
X0174100Y0258855D03*
X0174100Y0265745D03*
X0180200Y0265745D03*
X0164900Y0237645D03*
X0164900Y0230755D03*
X0158200Y0231845D03*
X0158200Y0224955D03*
X0150900Y0224955D03*
X0150900Y0231845D03*
X0144200Y0230755D03*
X0144200Y0237645D03*
D22*
X0052950Y0166500D03*
X0046650Y0166500D03*
X0048750Y0182500D03*
X0042450Y0182500D03*
D23*
X0042472Y0189870D03*
X0053172Y0154100D03*
D24*
X0128054Y0107800D03*
X0134746Y0107800D03*
X0135246Y0206200D03*
X0128554Y0206200D03*
X0128554Y0214300D03*
X0135246Y0214300D03*
X0135246Y0223200D03*
X0128554Y0223200D03*
X0072846Y0246200D03*
X0066154Y0246200D03*
X0066154Y0254200D03*
X0072846Y0254200D03*
X0072846Y0262200D03*
X0066154Y0262200D03*
X0066154Y0270200D03*
X0072846Y0270200D03*
X0072846Y0278200D03*
X0066154Y0278200D03*
X0066154Y0286200D03*
X0072846Y0286200D03*
X0206554Y0214500D03*
X0213246Y0214500D03*
D25*
X0214800Y0135000D03*
X0195800Y0135000D03*
D26*
X0190900Y0290400D03*
X0190900Y0294100D03*
X0190900Y0297800D03*
X0180700Y0297800D03*
X0180700Y0290400D03*
M02*
