%
M48
M72
T01C0.01200
T02C0.01575
T03C0.02362
T04C0.04000
T05C0.12598
%
T01
X83800Y139600
X90300Y139600
X90300Y149600
X83800Y149600
X83800Y180100
X90300Y180100
X90300Y190100
X83800Y190100
X82300Y218200
X103300Y218600
X124400Y218600
X151400Y171400
X49100Y198900
X49100Y218900
X147400Y314100
X152300Y314100
X157500Y314100
X172300Y314100
X177400Y314100
X182300Y314100
X185800Y294100
X195800Y294100
T02
X125500Y196000
T03
X27400Y74500
X94900Y128500
X102200Y149600
X107400Y149600
X107400Y159100
X102200Y159100
X96600Y154400
X102100Y170300
X107700Y170300
X107700Y179800
X102100Y179800
X96500Y174900
X106900Y192000
X123700Y179200
X129200Y184200
X130700Y162300
X130700Y157800
X141600Y160600
X161200Y179700
X154200Y186700
X151200Y195700
X165200Y209700
X182200Y202700
X197700Y216800
X198000Y234800
X191700Y234800
X212400Y234700
X218100Y234700
X223600Y239500
X218800Y227200
X224300Y221700
X213200Y227200
X223300Y265700
X195300Y303400
X186000Y303400
X202800Y313200
X209900Y313200
X160500Y259200
X154500Y259200
X154500Y249800
X160500Y249800
X164700Y243100
X158500Y237700
X154400Y237700
X150300Y237700
X144200Y243100
X127000Y237600
X102681Y237600
X79000Y228500
X73600Y223100
X60300Y232881
X60300Y242319
X43900Y233000
X44400Y209500
X46600Y172400
X77400Y166500
X123000Y210300
X173200Y173700
X181200Y182700
X187200Y162700
X195200Y157700
X202700Y157700
X208200Y152700
X217700Y158700
X223700Y158700
X223700Y168200
X217700Y168200
X218000Y139700
X211000Y139700
X211000Y130200
X218100Y130200
X170900Y137100
X165900Y137100
X165800Y146800
X171300Y146800
X163200Y157700
X99900Y266000
X136100Y273600
X141800Y270400
X147300Y270400
X147300Y279800
X142300Y279800
X140400Y306000
X121900Y306500
X110900Y310500
T04
X51800Y92100
X32261Y92561
X32261Y102561
X22261Y102561
X22261Y92561
X22261Y112561
X22261Y122561
X32261Y122561
X32261Y112561
X32261Y132561
X22261Y132561
X22261Y142561
X22261Y152561
X32261Y152561
X32261Y142561
X32261Y162561
X32261Y172561
X22261Y172561
X22261Y162561
X22261Y182561
X32261Y182561
X32261Y202561
X22261Y202561
X22261Y212561
X22261Y222561
X32261Y222561
X32261Y212561
X32261Y232561
X32261Y242561
X22261Y242561
X22261Y232561
X22261Y252561
X32261Y252561
X32261Y262561
X32261Y272561
X22261Y272561
X22261Y262561
X22261Y282561
X22261Y292561
X32261Y292561
X32261Y282561
X90400Y270800
X90400Y260800
X93800Y292000
X103800Y292000
X113800Y292000
X123800Y292000
X133800Y292000
X129820Y320161
X129820Y330161
X129820Y340161
X139820Y340161
X149820Y340161
X159820Y340161
X169820Y340161
X179820Y340161
X189820Y340161
X199820Y340161
X209820Y340161
X209820Y330161
X199820Y330161
X199820Y320161
X209820Y320161
X189820Y320161
X189820Y330161
X179820Y330161
X179820Y320161
X169820Y320161
X169820Y330161
X159820Y330161
X159820Y320161
X149820Y320161
X149820Y330161
X139820Y330161
X139820Y320161
X146700Y216700
X67300Y166600
X64900Y198900
X64900Y208900
X64900Y218900
X155800Y115200
X155800Y105200
X165800Y105200
X165800Y115200
X175800Y115200
X175800Y105200
X185800Y105200
X185800Y115200
X179700Y65000
X179700Y55000
X179700Y45000
X169700Y45000
X159700Y45000
X159700Y55000
X159700Y65000
X169700Y65000
X169700Y55000
X92300Y80000
X252300Y80100
X277300Y80100
X261220Y131980
X261220Y141980
X251220Y141980
X251220Y131980
X251220Y151980
X251220Y161980
X251220Y171980
X251220Y181980
X251220Y191980
X251220Y201980
X251220Y211980
X251220Y221980
X251220Y231980
X251220Y241980
X251220Y251980
X261220Y251980
X261220Y241980
X261220Y231980
X261220Y221980
X261220Y211980
X261220Y201980
X261220Y191980
X261220Y181980
X261220Y171980
X261220Y161980
X261220Y151980
X297300Y162600
X297300Y172600
X307300Y172600
X307300Y162600
X317300Y162600
X317300Y172600
X317300Y182600
X317300Y192600
X317300Y202600
X317300Y212600
X317300Y222600
X307300Y222600
X307300Y212600
X297300Y212600
X297300Y222600
X297300Y202600
X297300Y192600
X307300Y192600
X307300Y202600
X307300Y182600
X297300Y182600
X277300Y291000
X252300Y291000
T05
X28048Y50848
X28048Y334313
X311513Y334313
X311513Y50848
M30
