G75*
%MOIN*%
%OFA0B0*%
%FSLAX25Y25*%
%IPPOS*%
%LPD*%
%AMOC8*
5,1,8,0,0,1.08239X$1,22.5*
%
%ADD10C,0.00000*%
D10*
X0024111Y0035100D02*
X0012300Y0046911D01*
X0012300Y0338250D01*
X0024111Y0350061D01*
X0315450Y0350061D01*
X0327261Y0338250D01*
X0327261Y0046911D01*
X0315450Y0035100D01*
X0024111Y0035100D01*
X0021749Y0050848D02*
X0021751Y0051006D01*
X0021757Y0051164D01*
X0021767Y0051322D01*
X0021781Y0051480D01*
X0021799Y0051637D01*
X0021820Y0051794D01*
X0021846Y0051950D01*
X0021876Y0052106D01*
X0021909Y0052261D01*
X0021947Y0052414D01*
X0021988Y0052567D01*
X0022033Y0052719D01*
X0022082Y0052870D01*
X0022135Y0053019D01*
X0022191Y0053167D01*
X0022251Y0053313D01*
X0022315Y0053458D01*
X0022383Y0053601D01*
X0022454Y0053743D01*
X0022528Y0053883D01*
X0022606Y0054020D01*
X0022688Y0054156D01*
X0022772Y0054290D01*
X0022861Y0054421D01*
X0022952Y0054550D01*
X0023047Y0054677D01*
X0023144Y0054802D01*
X0023245Y0054924D01*
X0023349Y0055043D01*
X0023456Y0055160D01*
X0023566Y0055274D01*
X0023679Y0055385D01*
X0023794Y0055494D01*
X0023912Y0055599D01*
X0024033Y0055701D01*
X0024156Y0055801D01*
X0024282Y0055897D01*
X0024410Y0055990D01*
X0024540Y0056080D01*
X0024673Y0056166D01*
X0024808Y0056250D01*
X0024944Y0056329D01*
X0025083Y0056406D01*
X0025224Y0056478D01*
X0025366Y0056548D01*
X0025510Y0056613D01*
X0025656Y0056675D01*
X0025803Y0056733D01*
X0025952Y0056788D01*
X0026102Y0056839D01*
X0026253Y0056886D01*
X0026405Y0056929D01*
X0026558Y0056968D01*
X0026713Y0057004D01*
X0026868Y0057035D01*
X0027024Y0057063D01*
X0027180Y0057087D01*
X0027337Y0057107D01*
X0027495Y0057123D01*
X0027652Y0057135D01*
X0027811Y0057143D01*
X0027969Y0057147D01*
X0028127Y0057147D01*
X0028285Y0057143D01*
X0028444Y0057135D01*
X0028601Y0057123D01*
X0028759Y0057107D01*
X0028916Y0057087D01*
X0029072Y0057063D01*
X0029228Y0057035D01*
X0029383Y0057004D01*
X0029538Y0056968D01*
X0029691Y0056929D01*
X0029843Y0056886D01*
X0029994Y0056839D01*
X0030144Y0056788D01*
X0030293Y0056733D01*
X0030440Y0056675D01*
X0030586Y0056613D01*
X0030730Y0056548D01*
X0030872Y0056478D01*
X0031013Y0056406D01*
X0031152Y0056329D01*
X0031288Y0056250D01*
X0031423Y0056166D01*
X0031556Y0056080D01*
X0031686Y0055990D01*
X0031814Y0055897D01*
X0031940Y0055801D01*
X0032063Y0055701D01*
X0032184Y0055599D01*
X0032302Y0055494D01*
X0032417Y0055385D01*
X0032530Y0055274D01*
X0032640Y0055160D01*
X0032747Y0055043D01*
X0032851Y0054924D01*
X0032952Y0054802D01*
X0033049Y0054677D01*
X0033144Y0054550D01*
X0033235Y0054421D01*
X0033324Y0054290D01*
X0033408Y0054156D01*
X0033490Y0054020D01*
X0033568Y0053883D01*
X0033642Y0053743D01*
X0033713Y0053601D01*
X0033781Y0053458D01*
X0033845Y0053313D01*
X0033905Y0053167D01*
X0033961Y0053019D01*
X0034014Y0052870D01*
X0034063Y0052719D01*
X0034108Y0052567D01*
X0034149Y0052414D01*
X0034187Y0052261D01*
X0034220Y0052106D01*
X0034250Y0051950D01*
X0034276Y0051794D01*
X0034297Y0051637D01*
X0034315Y0051480D01*
X0034329Y0051322D01*
X0034339Y0051164D01*
X0034345Y0051006D01*
X0034347Y0050848D01*
X0034345Y0050690D01*
X0034339Y0050532D01*
X0034329Y0050374D01*
X0034315Y0050216D01*
X0034297Y0050059D01*
X0034276Y0049902D01*
X0034250Y0049746D01*
X0034220Y0049590D01*
X0034187Y0049435D01*
X0034149Y0049282D01*
X0034108Y0049129D01*
X0034063Y0048977D01*
X0034014Y0048826D01*
X0033961Y0048677D01*
X0033905Y0048529D01*
X0033845Y0048383D01*
X0033781Y0048238D01*
X0033713Y0048095D01*
X0033642Y0047953D01*
X0033568Y0047813D01*
X0033490Y0047676D01*
X0033408Y0047540D01*
X0033324Y0047406D01*
X0033235Y0047275D01*
X0033144Y0047146D01*
X0033049Y0047019D01*
X0032952Y0046894D01*
X0032851Y0046772D01*
X0032747Y0046653D01*
X0032640Y0046536D01*
X0032530Y0046422D01*
X0032417Y0046311D01*
X0032302Y0046202D01*
X0032184Y0046097D01*
X0032063Y0045995D01*
X0031940Y0045895D01*
X0031814Y0045799D01*
X0031686Y0045706D01*
X0031556Y0045616D01*
X0031423Y0045530D01*
X0031288Y0045446D01*
X0031152Y0045367D01*
X0031013Y0045290D01*
X0030872Y0045218D01*
X0030730Y0045148D01*
X0030586Y0045083D01*
X0030440Y0045021D01*
X0030293Y0044963D01*
X0030144Y0044908D01*
X0029994Y0044857D01*
X0029843Y0044810D01*
X0029691Y0044767D01*
X0029538Y0044728D01*
X0029383Y0044692D01*
X0029228Y0044661D01*
X0029072Y0044633D01*
X0028916Y0044609D01*
X0028759Y0044589D01*
X0028601Y0044573D01*
X0028444Y0044561D01*
X0028285Y0044553D01*
X0028127Y0044549D01*
X0027969Y0044549D01*
X0027811Y0044553D01*
X0027652Y0044561D01*
X0027495Y0044573D01*
X0027337Y0044589D01*
X0027180Y0044609D01*
X0027024Y0044633D01*
X0026868Y0044661D01*
X0026713Y0044692D01*
X0026558Y0044728D01*
X0026405Y0044767D01*
X0026253Y0044810D01*
X0026102Y0044857D01*
X0025952Y0044908D01*
X0025803Y0044963D01*
X0025656Y0045021D01*
X0025510Y0045083D01*
X0025366Y0045148D01*
X0025224Y0045218D01*
X0025083Y0045290D01*
X0024944Y0045367D01*
X0024808Y0045446D01*
X0024673Y0045530D01*
X0024540Y0045616D01*
X0024410Y0045706D01*
X0024282Y0045799D01*
X0024156Y0045895D01*
X0024033Y0045995D01*
X0023912Y0046097D01*
X0023794Y0046202D01*
X0023679Y0046311D01*
X0023566Y0046422D01*
X0023456Y0046536D01*
X0023349Y0046653D01*
X0023245Y0046772D01*
X0023144Y0046894D01*
X0023047Y0047019D01*
X0022952Y0047146D01*
X0022861Y0047275D01*
X0022772Y0047406D01*
X0022688Y0047540D01*
X0022606Y0047676D01*
X0022528Y0047813D01*
X0022454Y0047953D01*
X0022383Y0048095D01*
X0022315Y0048238D01*
X0022251Y0048383D01*
X0022191Y0048529D01*
X0022135Y0048677D01*
X0022082Y0048826D01*
X0022033Y0048977D01*
X0021988Y0049129D01*
X0021947Y0049282D01*
X0021909Y0049435D01*
X0021876Y0049590D01*
X0021846Y0049746D01*
X0021820Y0049902D01*
X0021799Y0050059D01*
X0021781Y0050216D01*
X0021767Y0050374D01*
X0021757Y0050532D01*
X0021751Y0050690D01*
X0021749Y0050848D01*
X0021749Y0334313D02*
X0021751Y0334471D01*
X0021757Y0334629D01*
X0021767Y0334787D01*
X0021781Y0334945D01*
X0021799Y0335102D01*
X0021820Y0335259D01*
X0021846Y0335415D01*
X0021876Y0335571D01*
X0021909Y0335726D01*
X0021947Y0335879D01*
X0021988Y0336032D01*
X0022033Y0336184D01*
X0022082Y0336335D01*
X0022135Y0336484D01*
X0022191Y0336632D01*
X0022251Y0336778D01*
X0022315Y0336923D01*
X0022383Y0337066D01*
X0022454Y0337208D01*
X0022528Y0337348D01*
X0022606Y0337485D01*
X0022688Y0337621D01*
X0022772Y0337755D01*
X0022861Y0337886D01*
X0022952Y0338015D01*
X0023047Y0338142D01*
X0023144Y0338267D01*
X0023245Y0338389D01*
X0023349Y0338508D01*
X0023456Y0338625D01*
X0023566Y0338739D01*
X0023679Y0338850D01*
X0023794Y0338959D01*
X0023912Y0339064D01*
X0024033Y0339166D01*
X0024156Y0339266D01*
X0024282Y0339362D01*
X0024410Y0339455D01*
X0024540Y0339545D01*
X0024673Y0339631D01*
X0024808Y0339715D01*
X0024944Y0339794D01*
X0025083Y0339871D01*
X0025224Y0339943D01*
X0025366Y0340013D01*
X0025510Y0340078D01*
X0025656Y0340140D01*
X0025803Y0340198D01*
X0025952Y0340253D01*
X0026102Y0340304D01*
X0026253Y0340351D01*
X0026405Y0340394D01*
X0026558Y0340433D01*
X0026713Y0340469D01*
X0026868Y0340500D01*
X0027024Y0340528D01*
X0027180Y0340552D01*
X0027337Y0340572D01*
X0027495Y0340588D01*
X0027652Y0340600D01*
X0027811Y0340608D01*
X0027969Y0340612D01*
X0028127Y0340612D01*
X0028285Y0340608D01*
X0028444Y0340600D01*
X0028601Y0340588D01*
X0028759Y0340572D01*
X0028916Y0340552D01*
X0029072Y0340528D01*
X0029228Y0340500D01*
X0029383Y0340469D01*
X0029538Y0340433D01*
X0029691Y0340394D01*
X0029843Y0340351D01*
X0029994Y0340304D01*
X0030144Y0340253D01*
X0030293Y0340198D01*
X0030440Y0340140D01*
X0030586Y0340078D01*
X0030730Y0340013D01*
X0030872Y0339943D01*
X0031013Y0339871D01*
X0031152Y0339794D01*
X0031288Y0339715D01*
X0031423Y0339631D01*
X0031556Y0339545D01*
X0031686Y0339455D01*
X0031814Y0339362D01*
X0031940Y0339266D01*
X0032063Y0339166D01*
X0032184Y0339064D01*
X0032302Y0338959D01*
X0032417Y0338850D01*
X0032530Y0338739D01*
X0032640Y0338625D01*
X0032747Y0338508D01*
X0032851Y0338389D01*
X0032952Y0338267D01*
X0033049Y0338142D01*
X0033144Y0338015D01*
X0033235Y0337886D01*
X0033324Y0337755D01*
X0033408Y0337621D01*
X0033490Y0337485D01*
X0033568Y0337348D01*
X0033642Y0337208D01*
X0033713Y0337066D01*
X0033781Y0336923D01*
X0033845Y0336778D01*
X0033905Y0336632D01*
X0033961Y0336484D01*
X0034014Y0336335D01*
X0034063Y0336184D01*
X0034108Y0336032D01*
X0034149Y0335879D01*
X0034187Y0335726D01*
X0034220Y0335571D01*
X0034250Y0335415D01*
X0034276Y0335259D01*
X0034297Y0335102D01*
X0034315Y0334945D01*
X0034329Y0334787D01*
X0034339Y0334629D01*
X0034345Y0334471D01*
X0034347Y0334313D01*
X0034345Y0334155D01*
X0034339Y0333997D01*
X0034329Y0333839D01*
X0034315Y0333681D01*
X0034297Y0333524D01*
X0034276Y0333367D01*
X0034250Y0333211D01*
X0034220Y0333055D01*
X0034187Y0332900D01*
X0034149Y0332747D01*
X0034108Y0332594D01*
X0034063Y0332442D01*
X0034014Y0332291D01*
X0033961Y0332142D01*
X0033905Y0331994D01*
X0033845Y0331848D01*
X0033781Y0331703D01*
X0033713Y0331560D01*
X0033642Y0331418D01*
X0033568Y0331278D01*
X0033490Y0331141D01*
X0033408Y0331005D01*
X0033324Y0330871D01*
X0033235Y0330740D01*
X0033144Y0330611D01*
X0033049Y0330484D01*
X0032952Y0330359D01*
X0032851Y0330237D01*
X0032747Y0330118D01*
X0032640Y0330001D01*
X0032530Y0329887D01*
X0032417Y0329776D01*
X0032302Y0329667D01*
X0032184Y0329562D01*
X0032063Y0329460D01*
X0031940Y0329360D01*
X0031814Y0329264D01*
X0031686Y0329171D01*
X0031556Y0329081D01*
X0031423Y0328995D01*
X0031288Y0328911D01*
X0031152Y0328832D01*
X0031013Y0328755D01*
X0030872Y0328683D01*
X0030730Y0328613D01*
X0030586Y0328548D01*
X0030440Y0328486D01*
X0030293Y0328428D01*
X0030144Y0328373D01*
X0029994Y0328322D01*
X0029843Y0328275D01*
X0029691Y0328232D01*
X0029538Y0328193D01*
X0029383Y0328157D01*
X0029228Y0328126D01*
X0029072Y0328098D01*
X0028916Y0328074D01*
X0028759Y0328054D01*
X0028601Y0328038D01*
X0028444Y0328026D01*
X0028285Y0328018D01*
X0028127Y0328014D01*
X0027969Y0328014D01*
X0027811Y0328018D01*
X0027652Y0328026D01*
X0027495Y0328038D01*
X0027337Y0328054D01*
X0027180Y0328074D01*
X0027024Y0328098D01*
X0026868Y0328126D01*
X0026713Y0328157D01*
X0026558Y0328193D01*
X0026405Y0328232D01*
X0026253Y0328275D01*
X0026102Y0328322D01*
X0025952Y0328373D01*
X0025803Y0328428D01*
X0025656Y0328486D01*
X0025510Y0328548D01*
X0025366Y0328613D01*
X0025224Y0328683D01*
X0025083Y0328755D01*
X0024944Y0328832D01*
X0024808Y0328911D01*
X0024673Y0328995D01*
X0024540Y0329081D01*
X0024410Y0329171D01*
X0024282Y0329264D01*
X0024156Y0329360D01*
X0024033Y0329460D01*
X0023912Y0329562D01*
X0023794Y0329667D01*
X0023679Y0329776D01*
X0023566Y0329887D01*
X0023456Y0330001D01*
X0023349Y0330118D01*
X0023245Y0330237D01*
X0023144Y0330359D01*
X0023047Y0330484D01*
X0022952Y0330611D01*
X0022861Y0330740D01*
X0022772Y0330871D01*
X0022688Y0331005D01*
X0022606Y0331141D01*
X0022528Y0331278D01*
X0022454Y0331418D01*
X0022383Y0331560D01*
X0022315Y0331703D01*
X0022251Y0331848D01*
X0022191Y0331994D01*
X0022135Y0332142D01*
X0022082Y0332291D01*
X0022033Y0332442D01*
X0021988Y0332594D01*
X0021947Y0332747D01*
X0021909Y0332900D01*
X0021876Y0333055D01*
X0021846Y0333211D01*
X0021820Y0333367D01*
X0021799Y0333524D01*
X0021781Y0333681D01*
X0021767Y0333839D01*
X0021757Y0333997D01*
X0021751Y0334155D01*
X0021749Y0334313D01*
X0305214Y0334313D02*
X0305216Y0334471D01*
X0305222Y0334629D01*
X0305232Y0334787D01*
X0305246Y0334945D01*
X0305264Y0335102D01*
X0305285Y0335259D01*
X0305311Y0335415D01*
X0305341Y0335571D01*
X0305374Y0335726D01*
X0305412Y0335879D01*
X0305453Y0336032D01*
X0305498Y0336184D01*
X0305547Y0336335D01*
X0305600Y0336484D01*
X0305656Y0336632D01*
X0305716Y0336778D01*
X0305780Y0336923D01*
X0305848Y0337066D01*
X0305919Y0337208D01*
X0305993Y0337348D01*
X0306071Y0337485D01*
X0306153Y0337621D01*
X0306237Y0337755D01*
X0306326Y0337886D01*
X0306417Y0338015D01*
X0306512Y0338142D01*
X0306609Y0338267D01*
X0306710Y0338389D01*
X0306814Y0338508D01*
X0306921Y0338625D01*
X0307031Y0338739D01*
X0307144Y0338850D01*
X0307259Y0338959D01*
X0307377Y0339064D01*
X0307498Y0339166D01*
X0307621Y0339266D01*
X0307747Y0339362D01*
X0307875Y0339455D01*
X0308005Y0339545D01*
X0308138Y0339631D01*
X0308273Y0339715D01*
X0308409Y0339794D01*
X0308548Y0339871D01*
X0308689Y0339943D01*
X0308831Y0340013D01*
X0308975Y0340078D01*
X0309121Y0340140D01*
X0309268Y0340198D01*
X0309417Y0340253D01*
X0309567Y0340304D01*
X0309718Y0340351D01*
X0309870Y0340394D01*
X0310023Y0340433D01*
X0310178Y0340469D01*
X0310333Y0340500D01*
X0310489Y0340528D01*
X0310645Y0340552D01*
X0310802Y0340572D01*
X0310960Y0340588D01*
X0311117Y0340600D01*
X0311276Y0340608D01*
X0311434Y0340612D01*
X0311592Y0340612D01*
X0311750Y0340608D01*
X0311909Y0340600D01*
X0312066Y0340588D01*
X0312224Y0340572D01*
X0312381Y0340552D01*
X0312537Y0340528D01*
X0312693Y0340500D01*
X0312848Y0340469D01*
X0313003Y0340433D01*
X0313156Y0340394D01*
X0313308Y0340351D01*
X0313459Y0340304D01*
X0313609Y0340253D01*
X0313758Y0340198D01*
X0313905Y0340140D01*
X0314051Y0340078D01*
X0314195Y0340013D01*
X0314337Y0339943D01*
X0314478Y0339871D01*
X0314617Y0339794D01*
X0314753Y0339715D01*
X0314888Y0339631D01*
X0315021Y0339545D01*
X0315151Y0339455D01*
X0315279Y0339362D01*
X0315405Y0339266D01*
X0315528Y0339166D01*
X0315649Y0339064D01*
X0315767Y0338959D01*
X0315882Y0338850D01*
X0315995Y0338739D01*
X0316105Y0338625D01*
X0316212Y0338508D01*
X0316316Y0338389D01*
X0316417Y0338267D01*
X0316514Y0338142D01*
X0316609Y0338015D01*
X0316700Y0337886D01*
X0316789Y0337755D01*
X0316873Y0337621D01*
X0316955Y0337485D01*
X0317033Y0337348D01*
X0317107Y0337208D01*
X0317178Y0337066D01*
X0317246Y0336923D01*
X0317310Y0336778D01*
X0317370Y0336632D01*
X0317426Y0336484D01*
X0317479Y0336335D01*
X0317528Y0336184D01*
X0317573Y0336032D01*
X0317614Y0335879D01*
X0317652Y0335726D01*
X0317685Y0335571D01*
X0317715Y0335415D01*
X0317741Y0335259D01*
X0317762Y0335102D01*
X0317780Y0334945D01*
X0317794Y0334787D01*
X0317804Y0334629D01*
X0317810Y0334471D01*
X0317812Y0334313D01*
X0317810Y0334155D01*
X0317804Y0333997D01*
X0317794Y0333839D01*
X0317780Y0333681D01*
X0317762Y0333524D01*
X0317741Y0333367D01*
X0317715Y0333211D01*
X0317685Y0333055D01*
X0317652Y0332900D01*
X0317614Y0332747D01*
X0317573Y0332594D01*
X0317528Y0332442D01*
X0317479Y0332291D01*
X0317426Y0332142D01*
X0317370Y0331994D01*
X0317310Y0331848D01*
X0317246Y0331703D01*
X0317178Y0331560D01*
X0317107Y0331418D01*
X0317033Y0331278D01*
X0316955Y0331141D01*
X0316873Y0331005D01*
X0316789Y0330871D01*
X0316700Y0330740D01*
X0316609Y0330611D01*
X0316514Y0330484D01*
X0316417Y0330359D01*
X0316316Y0330237D01*
X0316212Y0330118D01*
X0316105Y0330001D01*
X0315995Y0329887D01*
X0315882Y0329776D01*
X0315767Y0329667D01*
X0315649Y0329562D01*
X0315528Y0329460D01*
X0315405Y0329360D01*
X0315279Y0329264D01*
X0315151Y0329171D01*
X0315021Y0329081D01*
X0314888Y0328995D01*
X0314753Y0328911D01*
X0314617Y0328832D01*
X0314478Y0328755D01*
X0314337Y0328683D01*
X0314195Y0328613D01*
X0314051Y0328548D01*
X0313905Y0328486D01*
X0313758Y0328428D01*
X0313609Y0328373D01*
X0313459Y0328322D01*
X0313308Y0328275D01*
X0313156Y0328232D01*
X0313003Y0328193D01*
X0312848Y0328157D01*
X0312693Y0328126D01*
X0312537Y0328098D01*
X0312381Y0328074D01*
X0312224Y0328054D01*
X0312066Y0328038D01*
X0311909Y0328026D01*
X0311750Y0328018D01*
X0311592Y0328014D01*
X0311434Y0328014D01*
X0311276Y0328018D01*
X0311117Y0328026D01*
X0310960Y0328038D01*
X0310802Y0328054D01*
X0310645Y0328074D01*
X0310489Y0328098D01*
X0310333Y0328126D01*
X0310178Y0328157D01*
X0310023Y0328193D01*
X0309870Y0328232D01*
X0309718Y0328275D01*
X0309567Y0328322D01*
X0309417Y0328373D01*
X0309268Y0328428D01*
X0309121Y0328486D01*
X0308975Y0328548D01*
X0308831Y0328613D01*
X0308689Y0328683D01*
X0308548Y0328755D01*
X0308409Y0328832D01*
X0308273Y0328911D01*
X0308138Y0328995D01*
X0308005Y0329081D01*
X0307875Y0329171D01*
X0307747Y0329264D01*
X0307621Y0329360D01*
X0307498Y0329460D01*
X0307377Y0329562D01*
X0307259Y0329667D01*
X0307144Y0329776D01*
X0307031Y0329887D01*
X0306921Y0330001D01*
X0306814Y0330118D01*
X0306710Y0330237D01*
X0306609Y0330359D01*
X0306512Y0330484D01*
X0306417Y0330611D01*
X0306326Y0330740D01*
X0306237Y0330871D01*
X0306153Y0331005D01*
X0306071Y0331141D01*
X0305993Y0331278D01*
X0305919Y0331418D01*
X0305848Y0331560D01*
X0305780Y0331703D01*
X0305716Y0331848D01*
X0305656Y0331994D01*
X0305600Y0332142D01*
X0305547Y0332291D01*
X0305498Y0332442D01*
X0305453Y0332594D01*
X0305412Y0332747D01*
X0305374Y0332900D01*
X0305341Y0333055D01*
X0305311Y0333211D01*
X0305285Y0333367D01*
X0305264Y0333524D01*
X0305246Y0333681D01*
X0305232Y0333839D01*
X0305222Y0333997D01*
X0305216Y0334155D01*
X0305214Y0334313D01*
X0305214Y0050848D02*
X0305216Y0051006D01*
X0305222Y0051164D01*
X0305232Y0051322D01*
X0305246Y0051480D01*
X0305264Y0051637D01*
X0305285Y0051794D01*
X0305311Y0051950D01*
X0305341Y0052106D01*
X0305374Y0052261D01*
X0305412Y0052414D01*
X0305453Y0052567D01*
X0305498Y0052719D01*
X0305547Y0052870D01*
X0305600Y0053019D01*
X0305656Y0053167D01*
X0305716Y0053313D01*
X0305780Y0053458D01*
X0305848Y0053601D01*
X0305919Y0053743D01*
X0305993Y0053883D01*
X0306071Y0054020D01*
X0306153Y0054156D01*
X0306237Y0054290D01*
X0306326Y0054421D01*
X0306417Y0054550D01*
X0306512Y0054677D01*
X0306609Y0054802D01*
X0306710Y0054924D01*
X0306814Y0055043D01*
X0306921Y0055160D01*
X0307031Y0055274D01*
X0307144Y0055385D01*
X0307259Y0055494D01*
X0307377Y0055599D01*
X0307498Y0055701D01*
X0307621Y0055801D01*
X0307747Y0055897D01*
X0307875Y0055990D01*
X0308005Y0056080D01*
X0308138Y0056166D01*
X0308273Y0056250D01*
X0308409Y0056329D01*
X0308548Y0056406D01*
X0308689Y0056478D01*
X0308831Y0056548D01*
X0308975Y0056613D01*
X0309121Y0056675D01*
X0309268Y0056733D01*
X0309417Y0056788D01*
X0309567Y0056839D01*
X0309718Y0056886D01*
X0309870Y0056929D01*
X0310023Y0056968D01*
X0310178Y0057004D01*
X0310333Y0057035D01*
X0310489Y0057063D01*
X0310645Y0057087D01*
X0310802Y0057107D01*
X0310960Y0057123D01*
X0311117Y0057135D01*
X0311276Y0057143D01*
X0311434Y0057147D01*
X0311592Y0057147D01*
X0311750Y0057143D01*
X0311909Y0057135D01*
X0312066Y0057123D01*
X0312224Y0057107D01*
X0312381Y0057087D01*
X0312537Y0057063D01*
X0312693Y0057035D01*
X0312848Y0057004D01*
X0313003Y0056968D01*
X0313156Y0056929D01*
X0313308Y0056886D01*
X0313459Y0056839D01*
X0313609Y0056788D01*
X0313758Y0056733D01*
X0313905Y0056675D01*
X0314051Y0056613D01*
X0314195Y0056548D01*
X0314337Y0056478D01*
X0314478Y0056406D01*
X0314617Y0056329D01*
X0314753Y0056250D01*
X0314888Y0056166D01*
X0315021Y0056080D01*
X0315151Y0055990D01*
X0315279Y0055897D01*
X0315405Y0055801D01*
X0315528Y0055701D01*
X0315649Y0055599D01*
X0315767Y0055494D01*
X0315882Y0055385D01*
X0315995Y0055274D01*
X0316105Y0055160D01*
X0316212Y0055043D01*
X0316316Y0054924D01*
X0316417Y0054802D01*
X0316514Y0054677D01*
X0316609Y0054550D01*
X0316700Y0054421D01*
X0316789Y0054290D01*
X0316873Y0054156D01*
X0316955Y0054020D01*
X0317033Y0053883D01*
X0317107Y0053743D01*
X0317178Y0053601D01*
X0317246Y0053458D01*
X0317310Y0053313D01*
X0317370Y0053167D01*
X0317426Y0053019D01*
X0317479Y0052870D01*
X0317528Y0052719D01*
X0317573Y0052567D01*
X0317614Y0052414D01*
X0317652Y0052261D01*
X0317685Y0052106D01*
X0317715Y0051950D01*
X0317741Y0051794D01*
X0317762Y0051637D01*
X0317780Y0051480D01*
X0317794Y0051322D01*
X0317804Y0051164D01*
X0317810Y0051006D01*
X0317812Y0050848D01*
X0317810Y0050690D01*
X0317804Y0050532D01*
X0317794Y0050374D01*
X0317780Y0050216D01*
X0317762Y0050059D01*
X0317741Y0049902D01*
X0317715Y0049746D01*
X0317685Y0049590D01*
X0317652Y0049435D01*
X0317614Y0049282D01*
X0317573Y0049129D01*
X0317528Y0048977D01*
X0317479Y0048826D01*
X0317426Y0048677D01*
X0317370Y0048529D01*
X0317310Y0048383D01*
X0317246Y0048238D01*
X0317178Y0048095D01*
X0317107Y0047953D01*
X0317033Y0047813D01*
X0316955Y0047676D01*
X0316873Y0047540D01*
X0316789Y0047406D01*
X0316700Y0047275D01*
X0316609Y0047146D01*
X0316514Y0047019D01*
X0316417Y0046894D01*
X0316316Y0046772D01*
X0316212Y0046653D01*
X0316105Y0046536D01*
X0315995Y0046422D01*
X0315882Y0046311D01*
X0315767Y0046202D01*
X0315649Y0046097D01*
X0315528Y0045995D01*
X0315405Y0045895D01*
X0315279Y0045799D01*
X0315151Y0045706D01*
X0315021Y0045616D01*
X0314888Y0045530D01*
X0314753Y0045446D01*
X0314617Y0045367D01*
X0314478Y0045290D01*
X0314337Y0045218D01*
X0314195Y0045148D01*
X0314051Y0045083D01*
X0313905Y0045021D01*
X0313758Y0044963D01*
X0313609Y0044908D01*
X0313459Y0044857D01*
X0313308Y0044810D01*
X0313156Y0044767D01*
X0313003Y0044728D01*
X0312848Y0044692D01*
X0312693Y0044661D01*
X0312537Y0044633D01*
X0312381Y0044609D01*
X0312224Y0044589D01*
X0312066Y0044573D01*
X0311909Y0044561D01*
X0311750Y0044553D01*
X0311592Y0044549D01*
X0311434Y0044549D01*
X0311276Y0044553D01*
X0311117Y0044561D01*
X0310960Y0044573D01*
X0310802Y0044589D01*
X0310645Y0044609D01*
X0310489Y0044633D01*
X0310333Y0044661D01*
X0310178Y0044692D01*
X0310023Y0044728D01*
X0309870Y0044767D01*
X0309718Y0044810D01*
X0309567Y0044857D01*
X0309417Y0044908D01*
X0309268Y0044963D01*
X0309121Y0045021D01*
X0308975Y0045083D01*
X0308831Y0045148D01*
X0308689Y0045218D01*
X0308548Y0045290D01*
X0308409Y0045367D01*
X0308273Y0045446D01*
X0308138Y0045530D01*
X0308005Y0045616D01*
X0307875Y0045706D01*
X0307747Y0045799D01*
X0307621Y0045895D01*
X0307498Y0045995D01*
X0307377Y0046097D01*
X0307259Y0046202D01*
X0307144Y0046311D01*
X0307031Y0046422D01*
X0306921Y0046536D01*
X0306814Y0046653D01*
X0306710Y0046772D01*
X0306609Y0046894D01*
X0306512Y0047019D01*
X0306417Y0047146D01*
X0306326Y0047275D01*
X0306237Y0047406D01*
X0306153Y0047540D01*
X0306071Y0047676D01*
X0305993Y0047813D01*
X0305919Y0047953D01*
X0305848Y0048095D01*
X0305780Y0048238D01*
X0305716Y0048383D01*
X0305656Y0048529D01*
X0305600Y0048677D01*
X0305547Y0048826D01*
X0305498Y0048977D01*
X0305453Y0049129D01*
X0305412Y0049282D01*
X0305374Y0049435D01*
X0305341Y0049590D01*
X0305311Y0049746D01*
X0305285Y0049902D01*
X0305264Y0050059D01*
X0305246Y0050216D01*
X0305232Y0050374D01*
X0305222Y0050532D01*
X0305216Y0050690D01*
X0305214Y0050848D01*
M02*
