G75*
%MOIN*%
%OFA0B0*%
%FSLAX25Y25*%
%IPPOS*%
%LPD*%
%AMOC8*
5,1,8,0,0,1.08239X$1,22.5*
%
%ADD10C,0.00600*%
%ADD11C,0.01200*%
%ADD12C,0.01600*%
%ADD13C,0.00500*%
%ADD14C,0.00000*%
%ADD15C,0.01000*%
D10*
X0028461Y0069461D02*
X0043461Y0069461D01*
X0045961Y0071961D01*
X0045961Y0076961D01*
X0043461Y0079461D01*
X0028461Y0079461D01*
X0025961Y0076961D01*
X0025961Y0071961D01*
X0028461Y0069461D01*
X0028461Y0079461D02*
X0025961Y0081961D01*
X0025961Y0086961D01*
X0028461Y0089461D01*
X0043461Y0089461D01*
X0045961Y0086961D01*
X0045961Y0081961D01*
X0043461Y0079461D01*
X0043461Y0089461D02*
X0045961Y0091961D01*
X0045961Y0096961D01*
X0043461Y0099461D01*
X0028461Y0099461D01*
X0025961Y0101961D01*
X0025961Y0106961D01*
X0028461Y0109461D01*
X0043461Y0109461D01*
X0045961Y0106961D01*
X0045961Y0101961D01*
X0043461Y0099461D01*
X0043461Y0109461D02*
X0045961Y0111961D01*
X0045961Y0116961D01*
X0043461Y0119461D01*
X0028461Y0119461D01*
X0025961Y0116961D01*
X0025961Y0111961D01*
X0028461Y0109461D01*
X0028461Y0099461D02*
X0025961Y0096961D01*
X0025961Y0091961D01*
X0028461Y0089461D01*
X0028461Y0119461D02*
X0025961Y0121961D01*
X0025961Y0126961D01*
X0028461Y0129461D01*
X0043461Y0129461D01*
X0045961Y0126961D01*
X0045961Y0121961D01*
X0043461Y0119461D01*
X0043461Y0129461D02*
X0045961Y0131961D01*
X0045961Y0136961D01*
X0043461Y0139461D01*
X0028461Y0139461D01*
X0025961Y0136961D01*
X0025961Y0131961D01*
X0028461Y0129461D01*
X0028461Y0139461D02*
X0025961Y0141961D01*
X0025961Y0146961D01*
X0028461Y0149461D01*
X0043461Y0149461D01*
X0045961Y0146961D01*
X0045961Y0141961D01*
X0043461Y0139461D01*
X0048400Y0142800D02*
X0050669Y0145069D01*
X0050669Y0145636D01*
X0050101Y0146203D01*
X0048967Y0146203D01*
X0048400Y0145636D01*
X0048400Y0142800D02*
X0050669Y0142800D01*
X0052083Y0143934D02*
X0053217Y0142800D01*
X0054352Y0143934D01*
X0054352Y0146203D01*
X0055766Y0146203D02*
X0055766Y0144501D01*
X0056901Y0145069D01*
X0057468Y0145069D01*
X0058035Y0144501D01*
X0058035Y0143367D01*
X0057468Y0142800D01*
X0056333Y0142800D01*
X0055766Y0143367D01*
X0055766Y0146203D02*
X0058035Y0146203D01*
X0057268Y0152500D02*
X0056133Y0152500D01*
X0055566Y0153067D01*
X0054152Y0153634D02*
X0054152Y0155903D01*
X0055566Y0155336D02*
X0056133Y0155903D01*
X0057268Y0155903D01*
X0057835Y0155336D01*
X0057835Y0154769D01*
X0057268Y0154201D01*
X0057835Y0153634D01*
X0057835Y0153067D01*
X0057268Y0152500D01*
X0057268Y0154201D02*
X0056701Y0154201D01*
X0054152Y0153634D02*
X0053017Y0152500D01*
X0051883Y0153634D01*
X0051883Y0155903D01*
X0050469Y0155336D02*
X0050469Y0154769D01*
X0049901Y0154201D01*
X0050469Y0153634D01*
X0050469Y0153067D01*
X0049901Y0152500D01*
X0048767Y0152500D01*
X0048200Y0153067D01*
X0049334Y0154201D02*
X0049901Y0154201D01*
X0050469Y0155336D02*
X0049901Y0155903D01*
X0048767Y0155903D01*
X0048200Y0155336D01*
X0045961Y0156961D02*
X0045961Y0151961D01*
X0043461Y0149461D01*
X0045961Y0156961D02*
X0043461Y0159461D01*
X0028461Y0159461D01*
X0025961Y0156961D01*
X0025961Y0151961D01*
X0028461Y0149461D01*
X0028461Y0159461D02*
X0025961Y0161961D01*
X0025961Y0166961D01*
X0028461Y0169461D01*
X0043461Y0169461D01*
X0045961Y0166961D01*
X0045961Y0161961D01*
X0043461Y0159461D01*
X0048200Y0163367D02*
X0048767Y0162800D01*
X0049901Y0162800D01*
X0050469Y0163367D01*
X0050469Y0164501D01*
X0049901Y0165069D01*
X0049334Y0165069D01*
X0048200Y0164501D01*
X0048200Y0166203D01*
X0050469Y0166203D01*
X0051883Y0166203D02*
X0051883Y0163934D01*
X0053017Y0162800D01*
X0054152Y0163934D01*
X0054152Y0166203D01*
X0055566Y0165636D02*
X0056133Y0166203D01*
X0057268Y0166203D01*
X0057835Y0165636D01*
X0055566Y0163367D01*
X0056133Y0162800D01*
X0057268Y0162800D01*
X0057835Y0163367D01*
X0057835Y0165636D01*
X0055566Y0165636D02*
X0055566Y0163367D01*
X0043461Y0179461D02*
X0028461Y0179461D01*
X0025961Y0181961D01*
X0025961Y0186961D01*
X0028461Y0189461D01*
X0043461Y0189461D01*
X0045961Y0186961D01*
X0045961Y0181961D01*
X0043461Y0179461D01*
X0043461Y0189461D02*
X0045961Y0191961D01*
X0045961Y0196961D01*
X0043461Y0199461D01*
X0028461Y0199461D01*
X0025961Y0201961D01*
X0025961Y0206961D01*
X0028461Y0209461D01*
X0043461Y0209461D01*
X0045961Y0206961D01*
X0045961Y0201961D01*
X0043461Y0199461D01*
X0043461Y0209461D02*
X0045961Y0211961D01*
X0045961Y0216961D01*
X0043461Y0219461D01*
X0028461Y0219461D01*
X0025961Y0216961D01*
X0025961Y0211961D01*
X0028461Y0209461D01*
X0028461Y0219461D02*
X0025961Y0221961D01*
X0025961Y0226961D01*
X0028461Y0229461D01*
X0043461Y0229461D01*
X0045961Y0226961D01*
X0045961Y0221961D01*
X0043461Y0219461D01*
X0043461Y0229461D02*
X0045961Y0231961D01*
X0045961Y0236961D01*
X0043461Y0239461D01*
X0028461Y0239461D01*
X0025961Y0236961D01*
X0025961Y0231961D01*
X0028461Y0229461D01*
X0028461Y0239461D02*
X0025961Y0241961D01*
X0025961Y0246961D01*
X0028461Y0249461D01*
X0043461Y0249461D01*
X0045961Y0246961D01*
X0045961Y0241961D01*
X0043461Y0239461D01*
X0048800Y0236203D02*
X0050501Y0236203D01*
X0051069Y0235636D01*
X0051069Y0233367D01*
X0050501Y0232800D01*
X0048800Y0232800D01*
X0048800Y0236203D01*
X0052483Y0232233D02*
X0054752Y0232233D01*
X0056166Y0232800D02*
X0056166Y0236203D01*
X0057868Y0236203D01*
X0058435Y0235636D01*
X0058435Y0234501D01*
X0057868Y0233934D01*
X0056166Y0233934D01*
X0062900Y0232700D02*
X0064601Y0232700D01*
X0065169Y0233267D01*
X0065169Y0235536D01*
X0064601Y0236103D01*
X0062900Y0236103D01*
X0062900Y0232700D01*
X0066583Y0232133D02*
X0068852Y0232133D01*
X0070266Y0232700D02*
X0070266Y0236103D01*
X0072535Y0232700D01*
X0072535Y0236103D01*
X0071968Y0227103D02*
X0070266Y0227103D01*
X0070266Y0223700D01*
X0070266Y0224834D02*
X0071968Y0224834D01*
X0072535Y0225401D01*
X0072535Y0226536D01*
X0071968Y0227103D01*
X0071401Y0224834D02*
X0072535Y0223700D01*
X0068852Y0224267D02*
X0068852Y0226536D01*
X0068285Y0227103D01*
X0067150Y0227103D01*
X0066583Y0226536D01*
X0066583Y0224267D01*
X0067150Y0223700D01*
X0068285Y0223700D01*
X0068852Y0224267D01*
X0065169Y0225401D02*
X0064601Y0224834D01*
X0062900Y0224834D01*
X0062900Y0223700D02*
X0062900Y0227103D01*
X0064601Y0227103D01*
X0065169Y0226536D01*
X0065169Y0225401D01*
X0043461Y0249461D02*
X0045961Y0251961D01*
X0045961Y0256961D01*
X0043461Y0259461D01*
X0028461Y0259461D01*
X0025961Y0256961D01*
X0025961Y0251961D01*
X0028461Y0249461D01*
X0028461Y0259461D02*
X0025961Y0261961D01*
X0025961Y0266961D01*
X0028461Y0269461D01*
X0043461Y0269461D01*
X0045961Y0266961D01*
X0045961Y0261961D01*
X0043461Y0259461D01*
X0043461Y0269461D02*
X0045961Y0271961D01*
X0045961Y0276961D01*
X0043461Y0279461D01*
X0028461Y0279461D01*
X0025961Y0276961D01*
X0025961Y0271961D01*
X0028461Y0269461D01*
X0028461Y0199461D02*
X0025961Y0196961D01*
X0025961Y0191961D01*
X0028461Y0189461D01*
X0052083Y0146203D02*
X0052083Y0143934D01*
X0052183Y0136003D02*
X0052183Y0133734D01*
X0053317Y0132600D01*
X0054452Y0133734D01*
X0054452Y0136003D01*
X0055866Y0135436D02*
X0056433Y0136003D01*
X0057568Y0136003D01*
X0058135Y0135436D01*
X0055866Y0133167D01*
X0056433Y0132600D01*
X0057568Y0132600D01*
X0058135Y0133167D01*
X0058135Y0135436D01*
X0055866Y0135436D02*
X0055866Y0133167D01*
X0050769Y0132600D02*
X0048500Y0132600D01*
X0049634Y0132600D02*
X0049634Y0136003D01*
X0048500Y0134869D01*
X0106500Y0127236D02*
X0106500Y0124967D01*
X0107067Y0124400D01*
X0108201Y0124400D01*
X0108769Y0124967D01*
X0110183Y0124400D02*
X0112452Y0124400D01*
X0111317Y0124400D02*
X0111317Y0127803D01*
X0110183Y0126669D01*
X0108769Y0127236D02*
X0108201Y0127803D01*
X0107067Y0127803D01*
X0106500Y0127236D01*
X0113866Y0127236D02*
X0114433Y0127803D01*
X0115568Y0127803D01*
X0116135Y0127236D01*
X0113866Y0124967D01*
X0114433Y0124400D01*
X0115568Y0124400D01*
X0116135Y0124967D01*
X0116135Y0127236D01*
X0113866Y0127236D02*
X0113866Y0124967D01*
X0113511Y0114156D02*
X0114646Y0114156D01*
X0115213Y0113589D01*
X0115213Y0113022D01*
X0114646Y0112455D01*
X0115213Y0111887D01*
X0115213Y0111320D01*
X0114646Y0110753D01*
X0113511Y0110753D01*
X0112944Y0111320D01*
X0114078Y0112455D02*
X0114646Y0112455D01*
X0113511Y0114156D02*
X0112944Y0113589D01*
X0116627Y0114156D02*
X0116627Y0111887D01*
X0117762Y0110753D01*
X0118896Y0111887D01*
X0118896Y0114156D01*
X0120310Y0113589D02*
X0120878Y0114156D01*
X0122012Y0114156D01*
X0122579Y0113589D01*
X0122579Y0113022D01*
X0122012Y0112455D01*
X0122579Y0111887D01*
X0122579Y0111320D01*
X0122012Y0110753D01*
X0120878Y0110753D01*
X0120310Y0111320D01*
X0121445Y0112455D02*
X0122012Y0112455D01*
X0125300Y0098103D02*
X0125300Y0095267D01*
X0125867Y0094700D01*
X0127001Y0094700D01*
X0127569Y0095267D01*
X0127569Y0098103D01*
X0128983Y0097536D02*
X0129550Y0098103D01*
X0130685Y0098103D01*
X0131252Y0097536D01*
X0131252Y0096969D01*
X0128983Y0094700D01*
X0131252Y0094700D01*
X0131650Y0093012D02*
X0125350Y0093012D01*
X0125350Y0089555D02*
X0125350Y0085445D01*
X0125350Y0081988D02*
X0131650Y0081988D01*
X0131650Y0085445D02*
X0131650Y0085815D01*
X0131650Y0089185D02*
X0131650Y0089555D01*
X0142000Y0079036D02*
X0142000Y0076767D01*
X0142567Y0076200D01*
X0143701Y0076200D01*
X0144269Y0076767D01*
X0145683Y0076200D02*
X0147952Y0076200D01*
X0146817Y0076200D02*
X0146817Y0079603D01*
X0145683Y0078469D01*
X0144269Y0079036D02*
X0143701Y0079603D01*
X0142567Y0079603D01*
X0142000Y0079036D01*
X0131079Y0072656D02*
X0128810Y0072656D01*
X0128810Y0070955D01*
X0129945Y0071522D01*
X0130512Y0071522D01*
X0131079Y0070955D01*
X0131079Y0069820D01*
X0130512Y0069253D01*
X0129378Y0069253D01*
X0128810Y0069820D01*
X0127396Y0070387D02*
X0127396Y0072656D01*
X0127396Y0070387D02*
X0126262Y0069253D01*
X0125127Y0070387D01*
X0125127Y0072656D01*
X0123713Y0072089D02*
X0123146Y0072656D01*
X0122011Y0072656D01*
X0121444Y0072089D01*
X0123713Y0072089D02*
X0123713Y0071522D01*
X0121444Y0069253D01*
X0123713Y0069253D01*
X0116152Y0076000D02*
X0113883Y0076000D01*
X0116152Y0078269D01*
X0116152Y0078836D01*
X0115585Y0079403D01*
X0114450Y0079403D01*
X0113883Y0078836D01*
X0112469Y0078836D02*
X0111901Y0079403D01*
X0110767Y0079403D01*
X0110200Y0078836D01*
X0110200Y0076567D01*
X0110767Y0076000D01*
X0111901Y0076000D01*
X0112469Y0076567D01*
X0140667Y0124300D02*
X0141801Y0124300D01*
X0142369Y0124867D01*
X0143783Y0124867D02*
X0143783Y0124300D01*
X0143783Y0124867D02*
X0146052Y0127136D01*
X0146052Y0127703D01*
X0143783Y0127703D01*
X0142369Y0127136D02*
X0141801Y0127703D01*
X0140667Y0127703D01*
X0140100Y0127136D01*
X0140100Y0124867D01*
X0140667Y0124300D01*
X0131150Y0129488D02*
X0124850Y0129488D01*
X0124850Y0132945D02*
X0124850Y0137055D01*
X0124850Y0140512D02*
X0131150Y0140512D01*
X0131252Y0143800D02*
X0128983Y0143800D01*
X0130117Y0143800D02*
X0130117Y0147203D01*
X0128983Y0146069D01*
X0127569Y0147203D02*
X0127569Y0144367D01*
X0127001Y0143800D01*
X0125867Y0143800D01*
X0125300Y0144367D01*
X0125300Y0147203D01*
X0131150Y0137055D02*
X0131150Y0136685D01*
X0131150Y0133315D02*
X0131150Y0132945D01*
X0159800Y0156167D02*
X0160367Y0155600D01*
X0160934Y0155600D01*
X0161501Y0156167D01*
X0161501Y0159003D01*
X0160934Y0159003D02*
X0162069Y0159003D01*
X0163483Y0159003D02*
X0165185Y0159003D01*
X0165752Y0158436D01*
X0165752Y0157301D01*
X0165185Y0156734D01*
X0163483Y0156734D01*
X0163483Y0155600D02*
X0163483Y0159003D01*
X0167166Y0155033D02*
X0169435Y0155033D01*
X0170849Y0156167D02*
X0171417Y0155600D01*
X0172551Y0155600D01*
X0173118Y0156167D01*
X0173118Y0156734D01*
X0172551Y0157301D01*
X0171984Y0157301D01*
X0172551Y0157301D02*
X0173118Y0157869D01*
X0173118Y0158436D01*
X0172551Y0159003D01*
X0171417Y0159003D01*
X0170849Y0158436D01*
X0174533Y0159003D02*
X0174533Y0156734D01*
X0175667Y0155600D01*
X0176801Y0156734D01*
X0176801Y0159003D01*
X0178216Y0158436D02*
X0178783Y0159003D01*
X0179917Y0159003D01*
X0180484Y0158436D01*
X0180484Y0157869D01*
X0179917Y0157301D01*
X0180484Y0156734D01*
X0180484Y0156167D01*
X0179917Y0155600D01*
X0178783Y0155600D01*
X0178216Y0156167D01*
X0179350Y0157301D02*
X0179917Y0157301D01*
X0181899Y0155033D02*
X0184167Y0155033D01*
X0185582Y0155600D02*
X0186716Y0155600D01*
X0186149Y0155600D02*
X0186149Y0159003D01*
X0185582Y0159003D02*
X0186716Y0159003D01*
X0188037Y0159003D02*
X0190306Y0155600D01*
X0190306Y0159003D01*
X0188037Y0159003D02*
X0188037Y0155600D01*
X0178800Y0149700D02*
X0177500Y0151000D01*
X0172500Y0151000D01*
X0171200Y0149700D01*
X0171200Y0142300D02*
X0172500Y0141000D01*
X0177500Y0141000D01*
X0178800Y0142300D01*
X0177500Y0141000D02*
X0178800Y0139700D01*
X0172500Y0141000D02*
X0171200Y0139700D01*
X0171300Y0132300D02*
X0172500Y0131000D01*
X0177500Y0131000D01*
X0178900Y0132300D01*
X0193800Y0125267D02*
X0194367Y0124700D01*
X0194934Y0124700D01*
X0195501Y0125267D01*
X0195501Y0128103D01*
X0194934Y0128103D02*
X0196069Y0128103D01*
X0197483Y0128103D02*
X0199185Y0128103D01*
X0199752Y0127536D01*
X0199752Y0126401D01*
X0199185Y0125834D01*
X0197483Y0125834D01*
X0197483Y0124700D02*
X0197483Y0128103D01*
X0201166Y0124133D02*
X0203435Y0124133D01*
X0204849Y0124700D02*
X0207118Y0126969D01*
X0207118Y0127536D01*
X0206551Y0128103D01*
X0205417Y0128103D01*
X0204849Y0127536D01*
X0204849Y0124700D02*
X0207118Y0124700D01*
X0208533Y0125834D02*
X0209667Y0124700D01*
X0210801Y0125834D01*
X0210801Y0128103D01*
X0212216Y0128103D02*
X0212216Y0126401D01*
X0213350Y0126969D01*
X0213917Y0126969D01*
X0214484Y0126401D01*
X0214484Y0125267D01*
X0213917Y0124700D01*
X0212783Y0124700D01*
X0212216Y0125267D01*
X0212216Y0128103D02*
X0214484Y0128103D01*
X0219582Y0128103D02*
X0220716Y0128103D01*
X0220149Y0128103D02*
X0220149Y0124700D01*
X0219582Y0124700D02*
X0220716Y0124700D01*
X0222037Y0124700D02*
X0222037Y0128103D01*
X0224306Y0124700D01*
X0224306Y0128103D01*
X0218167Y0124133D02*
X0215899Y0124133D01*
X0208533Y0125834D02*
X0208533Y0128103D01*
X0209500Y0131000D02*
X0210900Y0132300D01*
X0209500Y0131000D02*
X0204500Y0131000D01*
X0203300Y0132300D01*
X0203200Y0139700D02*
X0204500Y0141000D01*
X0203200Y0142300D01*
X0204500Y0141000D02*
X0209500Y0141000D01*
X0210800Y0142300D01*
X0209500Y0141000D02*
X0210800Y0139700D01*
X0210800Y0149700D02*
X0209500Y0151000D01*
X0204500Y0151000D01*
X0203200Y0149700D01*
X0226700Y0156167D02*
X0227267Y0155600D01*
X0227834Y0155600D01*
X0228401Y0156167D01*
X0228401Y0159003D01*
X0227834Y0159003D02*
X0228969Y0159003D01*
X0230383Y0159003D02*
X0232085Y0159003D01*
X0232652Y0158436D01*
X0232652Y0157301D01*
X0232085Y0156734D01*
X0230383Y0156734D01*
X0230383Y0155600D02*
X0230383Y0159003D01*
X0234066Y0155033D02*
X0236335Y0155033D01*
X0237749Y0155600D02*
X0240018Y0155600D01*
X0238884Y0155600D02*
X0238884Y0159003D01*
X0237749Y0157869D01*
X0241433Y0159003D02*
X0241433Y0156734D01*
X0242567Y0155600D01*
X0243701Y0156734D01*
X0243701Y0159003D01*
X0245116Y0158436D02*
X0245683Y0159003D01*
X0246817Y0159003D01*
X0247384Y0158436D01*
X0245116Y0156167D01*
X0245683Y0155600D01*
X0246817Y0155600D01*
X0247384Y0156167D01*
X0247384Y0158436D01*
X0245116Y0158436D02*
X0245116Y0156167D01*
X0248799Y0155033D02*
X0251067Y0155033D01*
X0252482Y0155600D02*
X0253616Y0155600D01*
X0253049Y0155600D02*
X0253049Y0159003D01*
X0252482Y0159003D02*
X0253616Y0159003D01*
X0254937Y0159003D02*
X0257206Y0155600D01*
X0257206Y0159003D01*
X0254937Y0159003D02*
X0254937Y0155600D01*
X0244800Y0149700D02*
X0243500Y0151000D01*
X0238500Y0151000D01*
X0237200Y0149700D01*
X0237200Y0142300D02*
X0238500Y0141000D01*
X0243500Y0141000D01*
X0244800Y0142300D01*
X0243500Y0141000D02*
X0244800Y0139700D01*
X0238500Y0141000D02*
X0237200Y0139700D01*
X0237300Y0132300D02*
X0238500Y0131000D01*
X0243500Y0131000D01*
X0244900Y0132300D01*
X0245385Y0103803D02*
X0245952Y0103236D01*
X0245952Y0102669D01*
X0245385Y0102101D01*
X0245952Y0101534D01*
X0245952Y0100967D01*
X0245385Y0100400D01*
X0244250Y0100400D01*
X0243683Y0100967D01*
X0242269Y0100967D02*
X0241701Y0100400D01*
X0240567Y0100400D01*
X0240000Y0100967D01*
X0240000Y0103236D01*
X0240567Y0103803D01*
X0241701Y0103803D01*
X0242269Y0103236D01*
X0243683Y0103236D02*
X0244250Y0103803D01*
X0245385Y0103803D01*
X0245385Y0102101D02*
X0244817Y0102101D01*
X0244817Y0094803D02*
X0244817Y0091400D01*
X0243683Y0091400D02*
X0245952Y0091400D01*
X0243683Y0093669D02*
X0244817Y0094803D01*
X0242269Y0094236D02*
X0242269Y0093101D01*
X0241701Y0092534D01*
X0240000Y0092534D01*
X0240000Y0091400D02*
X0240000Y0094803D01*
X0241701Y0094803D01*
X0242269Y0094236D01*
X0241134Y0092534D02*
X0242269Y0091400D01*
X0231585Y0077903D02*
X0230450Y0077903D01*
X0229883Y0077336D01*
X0228469Y0077336D02*
X0228469Y0076201D01*
X0227901Y0075634D01*
X0226200Y0075634D01*
X0226200Y0074500D02*
X0226200Y0077903D01*
X0227901Y0077903D01*
X0228469Y0077336D01*
X0227334Y0075634D02*
X0228469Y0074500D01*
X0229883Y0075067D02*
X0230450Y0074500D01*
X0231585Y0074500D01*
X0232152Y0075067D01*
X0232152Y0075634D01*
X0231585Y0076201D01*
X0231017Y0076201D01*
X0231585Y0076201D02*
X0232152Y0076769D01*
X0232152Y0077336D01*
X0231585Y0077903D01*
X0247000Y0071303D02*
X0247000Y0067900D01*
X0249269Y0067900D01*
X0250683Y0067900D02*
X0252952Y0067900D01*
X0251817Y0067900D02*
X0251817Y0071303D01*
X0250683Y0070169D01*
X0249817Y0058303D02*
X0248683Y0057169D01*
X0247269Y0057736D02*
X0246701Y0058303D01*
X0245567Y0058303D01*
X0245000Y0057736D01*
X0245000Y0055467D01*
X0245567Y0054900D01*
X0246701Y0054900D01*
X0247269Y0055467D01*
X0248683Y0054900D02*
X0250952Y0054900D01*
X0249817Y0054900D02*
X0249817Y0058303D01*
X0252366Y0056601D02*
X0254635Y0056601D01*
X0254068Y0054900D02*
X0254068Y0058303D01*
X0252366Y0056601D01*
X0244179Y0050789D02*
X0244179Y0048520D01*
X0243612Y0047953D01*
X0242478Y0047953D01*
X0241910Y0048520D01*
X0244179Y0050789D01*
X0243612Y0051356D01*
X0242478Y0051356D01*
X0241910Y0050789D01*
X0241910Y0048520D01*
X0240496Y0049087D02*
X0240496Y0051356D01*
X0240496Y0049087D02*
X0239362Y0047953D01*
X0238227Y0049087D01*
X0238227Y0051356D01*
X0235678Y0051356D02*
X0235678Y0047953D01*
X0234544Y0047953D02*
X0236813Y0047953D01*
X0234544Y0050222D02*
X0235678Y0051356D01*
X0266550Y0072088D02*
X0272850Y0072088D01*
X0272850Y0075545D02*
X0272850Y0075915D01*
X0272850Y0079285D02*
X0272850Y0079655D01*
X0272850Y0083112D02*
X0266550Y0083112D01*
X0266550Y0079655D02*
X0266550Y0075545D01*
X0277500Y0071803D02*
X0277500Y0068967D01*
X0278067Y0068400D01*
X0279201Y0068400D01*
X0279769Y0068967D01*
X0279769Y0071803D01*
X0281183Y0071803D02*
X0281183Y0070101D01*
X0282317Y0070669D01*
X0282885Y0070669D01*
X0283452Y0070101D01*
X0283452Y0068967D01*
X0282885Y0068400D01*
X0281750Y0068400D01*
X0281183Y0068967D01*
X0281183Y0071803D02*
X0283452Y0071803D01*
X0283068Y0058303D02*
X0283635Y0057736D01*
X0283635Y0057169D01*
X0283068Y0056601D01*
X0283635Y0056034D01*
X0283635Y0055467D01*
X0283068Y0054900D01*
X0281933Y0054900D01*
X0281366Y0055467D01*
X0279952Y0054900D02*
X0277683Y0054900D01*
X0278817Y0054900D02*
X0278817Y0058303D01*
X0277683Y0057169D01*
X0276269Y0057736D02*
X0275701Y0058303D01*
X0274567Y0058303D01*
X0274000Y0057736D01*
X0274000Y0055467D01*
X0274567Y0054900D01*
X0275701Y0054900D01*
X0276269Y0055467D01*
X0281366Y0057736D02*
X0281933Y0058303D01*
X0283068Y0058303D01*
X0283068Y0056601D02*
X0282501Y0056601D01*
X0275452Y0097900D02*
X0273183Y0097900D01*
X0275452Y0100169D01*
X0275452Y0100736D01*
X0274885Y0101303D01*
X0273750Y0101303D01*
X0273183Y0100736D01*
X0271769Y0100736D02*
X0271769Y0099601D01*
X0271201Y0099034D01*
X0269500Y0099034D01*
X0269500Y0097900D02*
X0269500Y0101303D01*
X0271201Y0101303D01*
X0271769Y0100736D01*
X0270634Y0099034D02*
X0271769Y0097900D01*
X0251100Y0174800D02*
X0246100Y0174800D01*
X0244800Y0176100D01*
X0251100Y0174800D02*
X0252400Y0176100D01*
X0252400Y0183500D02*
X0251100Y0184800D01*
X0246100Y0184800D01*
X0244800Y0183500D01*
X0246100Y0184800D02*
X0244800Y0186100D01*
X0251100Y0184800D02*
X0252400Y0186100D01*
X0252300Y0193500D02*
X0251100Y0194800D01*
X0246100Y0194800D01*
X0244700Y0193500D01*
X0245349Y0195833D02*
X0247618Y0195833D01*
X0249033Y0196967D02*
X0249600Y0196400D01*
X0250734Y0196400D01*
X0251301Y0196967D01*
X0251301Y0197534D01*
X0250734Y0198101D01*
X0250167Y0198101D01*
X0250734Y0198101D02*
X0251301Y0198669D01*
X0251301Y0199236D01*
X0250734Y0199803D01*
X0249600Y0199803D01*
X0249033Y0199236D01*
X0252716Y0199803D02*
X0252716Y0197534D01*
X0253850Y0196400D01*
X0254984Y0197534D01*
X0254984Y0199803D01*
X0256399Y0199236D02*
X0256966Y0199803D01*
X0258100Y0199803D01*
X0258667Y0199236D01*
X0258667Y0198669D01*
X0258100Y0198101D01*
X0258667Y0197534D01*
X0258667Y0196967D01*
X0258100Y0196400D01*
X0256966Y0196400D01*
X0256399Y0196967D01*
X0257533Y0198101D02*
X0258100Y0198101D01*
X0243935Y0198101D02*
X0242801Y0198101D01*
X0243935Y0198101D02*
X0243935Y0196967D01*
X0243368Y0196400D01*
X0242233Y0196400D01*
X0241666Y0196967D01*
X0241666Y0199236D01*
X0242233Y0199803D01*
X0243368Y0199803D01*
X0243935Y0199236D01*
X0240252Y0199236D02*
X0240252Y0198101D01*
X0239685Y0197534D01*
X0237983Y0197534D01*
X0237983Y0196400D02*
X0237983Y0199803D01*
X0239685Y0199803D01*
X0240252Y0199236D01*
X0236569Y0199803D02*
X0235434Y0199803D01*
X0236001Y0199803D02*
X0236001Y0196967D01*
X0235434Y0196400D01*
X0234867Y0196400D01*
X0234300Y0196967D01*
X0218217Y0199803D02*
X0215948Y0199803D01*
X0217083Y0199803D02*
X0217083Y0196400D01*
X0214534Y0196967D02*
X0214534Y0199803D01*
X0212265Y0199803D02*
X0212265Y0196967D01*
X0212832Y0196400D01*
X0213967Y0196400D01*
X0214534Y0196967D01*
X0210851Y0196967D02*
X0210851Y0199236D01*
X0210283Y0199803D01*
X0209149Y0199803D01*
X0208582Y0199236D01*
X0208582Y0196967D01*
X0209149Y0196400D01*
X0210283Y0196400D01*
X0210851Y0196967D01*
X0207167Y0195833D02*
X0204899Y0195833D01*
X0203484Y0196967D02*
X0202917Y0196400D01*
X0201783Y0196400D01*
X0201216Y0196967D01*
X0203484Y0199236D01*
X0203484Y0196967D01*
X0203300Y0194900D02*
X0204600Y0193600D01*
X0203300Y0194900D02*
X0198300Y0194900D01*
X0197000Y0193600D01*
X0196118Y0196400D02*
X0193849Y0196400D01*
X0194984Y0196400D02*
X0194984Y0199803D01*
X0193849Y0198669D01*
X0192435Y0195833D02*
X0190166Y0195833D01*
X0188185Y0197534D02*
X0188752Y0198101D01*
X0188752Y0199236D01*
X0188185Y0199803D01*
X0186483Y0199803D01*
X0186483Y0196400D01*
X0186483Y0197534D02*
X0188185Y0197534D01*
X0184501Y0196967D02*
X0184501Y0199803D01*
X0183934Y0199803D02*
X0185069Y0199803D01*
X0184501Y0196967D02*
X0183934Y0196400D01*
X0183367Y0196400D01*
X0182800Y0196967D01*
X0197533Y0197534D02*
X0198667Y0196400D01*
X0199801Y0197534D01*
X0199801Y0199803D01*
X0201216Y0199236D02*
X0201783Y0199803D01*
X0202917Y0199803D01*
X0203484Y0199236D01*
X0201216Y0199236D02*
X0201216Y0196967D01*
X0197533Y0197534D02*
X0197533Y0199803D01*
X0197000Y0186200D02*
X0198300Y0184900D01*
X0203300Y0184900D01*
X0204600Y0186200D01*
X0203300Y0184900D02*
X0204600Y0183600D01*
X0198300Y0184900D02*
X0197000Y0183600D01*
X0197100Y0176200D02*
X0198300Y0174900D01*
X0203300Y0174900D01*
X0204700Y0176200D01*
X0164817Y0199803D02*
X0162548Y0199803D01*
X0163683Y0199803D02*
X0163683Y0196400D01*
X0161134Y0196967D02*
X0161134Y0199803D01*
X0158865Y0199803D02*
X0158865Y0196967D01*
X0159432Y0196400D01*
X0160567Y0196400D01*
X0161134Y0196967D01*
X0157451Y0196967D02*
X0157451Y0199236D01*
X0156883Y0199803D01*
X0155749Y0199803D01*
X0155182Y0199236D01*
X0155182Y0196967D01*
X0155749Y0196400D01*
X0156883Y0196400D01*
X0157451Y0196967D01*
X0153767Y0195833D02*
X0151499Y0195833D01*
X0151600Y0195000D02*
X0146600Y0195000D01*
X0145300Y0193700D01*
X0145267Y0196400D02*
X0146401Y0197534D01*
X0146401Y0199803D01*
X0147816Y0199236D02*
X0148383Y0199803D01*
X0149517Y0199803D01*
X0150084Y0199236D01*
X0150084Y0198669D01*
X0149517Y0198101D01*
X0150084Y0197534D01*
X0150084Y0196967D01*
X0149517Y0196400D01*
X0148383Y0196400D01*
X0147816Y0196967D01*
X0148950Y0198101D02*
X0149517Y0198101D01*
X0151600Y0195000D02*
X0152900Y0193700D01*
X0152900Y0186300D02*
X0151600Y0185000D01*
X0152900Y0183700D01*
X0151600Y0185000D02*
X0146600Y0185000D01*
X0145300Y0186300D01*
X0146600Y0185000D02*
X0145300Y0183700D01*
X0145400Y0176300D02*
X0146600Y0175000D01*
X0151600Y0175000D01*
X0153000Y0176300D01*
X0145267Y0196400D02*
X0144133Y0197534D01*
X0144133Y0199803D01*
X0142718Y0199236D02*
X0142718Y0198669D01*
X0142151Y0198101D01*
X0142718Y0197534D01*
X0142718Y0196967D01*
X0142151Y0196400D01*
X0141017Y0196400D01*
X0140449Y0196967D01*
X0141584Y0198101D02*
X0142151Y0198101D01*
X0142718Y0199236D02*
X0142151Y0199803D01*
X0141017Y0199803D01*
X0140449Y0199236D01*
X0139035Y0195833D02*
X0136766Y0195833D01*
X0134785Y0197534D02*
X0135352Y0198101D01*
X0135352Y0199236D01*
X0134785Y0199803D01*
X0133083Y0199803D01*
X0133083Y0196400D01*
X0133083Y0197534D02*
X0134785Y0197534D01*
X0131101Y0196967D02*
X0131101Y0199803D01*
X0130534Y0199803D02*
X0131669Y0199803D01*
X0131101Y0196967D02*
X0130534Y0196400D01*
X0129967Y0196400D01*
X0129400Y0196967D01*
X0118083Y0212400D02*
X0118083Y0212967D01*
X0120352Y0215236D01*
X0120352Y0215803D01*
X0118083Y0215803D01*
X0116669Y0215236D02*
X0116669Y0214101D01*
X0116101Y0213534D01*
X0114400Y0213534D01*
X0114400Y0212400D02*
X0114400Y0215803D01*
X0116101Y0215803D01*
X0116669Y0215236D01*
X0115534Y0213534D02*
X0116669Y0212400D01*
X0134000Y0226700D02*
X0134000Y0230103D01*
X0135701Y0230103D01*
X0136269Y0229536D01*
X0136269Y0228401D01*
X0135701Y0227834D01*
X0134000Y0227834D01*
X0135134Y0227834D02*
X0136269Y0226700D01*
X0137683Y0227267D02*
X0138250Y0226700D01*
X0139385Y0226700D01*
X0139952Y0227267D01*
X0139952Y0228401D01*
X0139385Y0228969D01*
X0138817Y0228969D01*
X0137683Y0228401D01*
X0137683Y0230103D01*
X0139952Y0230103D01*
X0128079Y0234153D02*
X0126945Y0235287D01*
X0127512Y0235287D02*
X0125810Y0235287D01*
X0125810Y0234153D02*
X0125810Y0237556D01*
X0127512Y0237556D01*
X0128079Y0236989D01*
X0128079Y0235855D01*
X0127512Y0235287D01*
X0124396Y0234720D02*
X0123829Y0234153D01*
X0122694Y0234153D01*
X0122127Y0234720D01*
X0122127Y0236989D01*
X0122694Y0237556D01*
X0123829Y0237556D01*
X0124396Y0236989D01*
X0124396Y0234720D01*
X0120713Y0235855D02*
X0120146Y0235287D01*
X0118444Y0235287D01*
X0118444Y0234153D02*
X0118444Y0237556D01*
X0120146Y0237556D01*
X0120713Y0236989D01*
X0120713Y0235855D01*
X0134100Y0242800D02*
X0134100Y0246203D01*
X0135801Y0246203D01*
X0136369Y0245636D01*
X0136369Y0244501D01*
X0135801Y0243934D01*
X0134100Y0243934D01*
X0135234Y0243934D02*
X0136369Y0242800D01*
X0137783Y0243367D02*
X0138350Y0242800D01*
X0139485Y0242800D01*
X0140052Y0243367D01*
X0140052Y0243934D01*
X0139485Y0244501D01*
X0137783Y0244501D01*
X0137783Y0243367D01*
X0137783Y0244501D02*
X0138917Y0245636D01*
X0140052Y0246203D01*
X0160700Y0225636D02*
X0160700Y0223367D01*
X0161267Y0222800D01*
X0162401Y0222800D01*
X0162969Y0223367D01*
X0164383Y0222800D02*
X0166652Y0222800D01*
X0165517Y0222800D02*
X0165517Y0226203D01*
X0164383Y0225069D01*
X0162969Y0225636D02*
X0162401Y0226203D01*
X0161267Y0226203D01*
X0160700Y0225636D01*
X0168066Y0225636D02*
X0168633Y0226203D01*
X0169768Y0226203D01*
X0170335Y0225636D01*
X0170335Y0225069D01*
X0168066Y0222800D01*
X0170335Y0222800D01*
X0174200Y0238900D02*
X0174200Y0241100D01*
X0182800Y0241100D02*
X0182800Y0238900D01*
X0181700Y0239500D02*
X0181673Y0239563D01*
X0181650Y0239628D01*
X0181630Y0239694D01*
X0181615Y0239761D01*
X0181603Y0239829D01*
X0181595Y0239897D01*
X0181591Y0239966D01*
X0181591Y0240034D01*
X0181595Y0240103D01*
X0181603Y0240171D01*
X0181615Y0240239D01*
X0181630Y0240306D01*
X0181650Y0240372D01*
X0181673Y0240437D01*
X0181700Y0240500D01*
X0183267Y0242831D02*
X0185536Y0245100D01*
X0185536Y0243966D02*
X0183267Y0243966D01*
X0183267Y0245100D02*
X0185536Y0242831D01*
X0184401Y0242831D02*
X0184401Y0245100D01*
X0184901Y0248800D02*
X0185469Y0249367D01*
X0185469Y0252203D01*
X0186883Y0250501D02*
X0188585Y0252203D01*
X0188585Y0248800D01*
X0189152Y0250501D02*
X0186883Y0250501D01*
X0184901Y0248800D02*
X0183767Y0248800D01*
X0183200Y0249367D01*
X0183200Y0252203D01*
X0193767Y0228203D02*
X0193200Y0227636D01*
X0193200Y0225367D01*
X0193767Y0224800D01*
X0194901Y0224800D01*
X0195469Y0225367D01*
X0196883Y0226501D02*
X0198585Y0228203D01*
X0198585Y0224800D01*
X0199152Y0226501D02*
X0196883Y0226501D01*
X0195469Y0227636D02*
X0194901Y0228203D01*
X0193767Y0228203D01*
X0212800Y0228367D02*
X0213367Y0227800D01*
X0214501Y0227800D01*
X0215069Y0228367D01*
X0216483Y0227800D02*
X0218752Y0227800D01*
X0217617Y0227800D02*
X0217617Y0231203D01*
X0216483Y0230069D01*
X0215069Y0230636D02*
X0214501Y0231203D01*
X0213367Y0231203D01*
X0212800Y0230636D01*
X0212800Y0228367D01*
X0220166Y0227800D02*
X0222435Y0227800D01*
X0221301Y0227800D02*
X0221301Y0231203D01*
X0220166Y0230069D01*
X0227300Y0231203D02*
X0227300Y0228367D01*
X0227867Y0227800D01*
X0229001Y0227800D01*
X0229569Y0228367D01*
X0229569Y0231203D01*
X0230983Y0230636D02*
X0231550Y0231203D01*
X0232685Y0231203D01*
X0233252Y0230636D01*
X0233252Y0230069D01*
X0232685Y0229501D01*
X0233252Y0228934D01*
X0233252Y0228367D01*
X0232685Y0227800D01*
X0231550Y0227800D01*
X0230983Y0228367D01*
X0232117Y0229501D02*
X0232685Y0229501D01*
X0239800Y0228934D02*
X0241501Y0228934D01*
X0242069Y0229501D01*
X0242069Y0230636D01*
X0241501Y0231203D01*
X0239800Y0231203D01*
X0239800Y0227800D01*
X0240934Y0228934D02*
X0242069Y0227800D01*
X0243483Y0229501D02*
X0245185Y0231203D01*
X0245185Y0227800D01*
X0245752Y0229501D02*
X0243483Y0229501D01*
X0235512Y0236850D02*
X0231772Y0236850D01*
X0228228Y0236850D02*
X0224488Y0236850D01*
X0224488Y0243150D01*
X0228031Y0243150D02*
X0231969Y0243150D01*
X0235512Y0243150D02*
X0235512Y0236850D01*
X0238310Y0257086D02*
X0240579Y0257086D01*
X0241994Y0258220D02*
X0242561Y0257653D01*
X0243695Y0257653D01*
X0244262Y0258220D01*
X0244262Y0258787D01*
X0243695Y0259355D01*
X0243128Y0259355D01*
X0243695Y0259355D02*
X0244262Y0259922D01*
X0244262Y0260489D01*
X0243695Y0261056D01*
X0242561Y0261056D01*
X0241994Y0260489D01*
X0236896Y0260489D02*
X0236329Y0261056D01*
X0235194Y0261056D01*
X0234627Y0260489D01*
X0234627Y0258220D01*
X0235194Y0257653D01*
X0236329Y0257653D01*
X0236896Y0258220D01*
X0236896Y0259355D01*
X0235762Y0259355D01*
X0233213Y0259355D02*
X0232646Y0258787D01*
X0230944Y0258787D01*
X0230944Y0257653D02*
X0230944Y0261056D01*
X0232646Y0261056D01*
X0233213Y0260489D01*
X0233213Y0259355D01*
X0245677Y0258787D02*
X0246811Y0257653D01*
X0247945Y0258787D01*
X0247945Y0261056D01*
X0249360Y0260489D02*
X0249927Y0261056D01*
X0251061Y0261056D01*
X0251628Y0260489D01*
X0251628Y0259922D01*
X0251061Y0259355D01*
X0251628Y0258787D01*
X0251628Y0258220D01*
X0251061Y0257653D01*
X0249927Y0257653D01*
X0249360Y0258220D01*
X0250494Y0259355D02*
X0251061Y0259355D01*
X0245677Y0258787D02*
X0245677Y0261056D01*
X0211069Y0287867D02*
X0210501Y0287300D01*
X0209367Y0287300D01*
X0208800Y0287867D01*
X0207385Y0287300D02*
X0205117Y0287300D01*
X0205117Y0290703D01*
X0208800Y0290136D02*
X0209367Y0290703D01*
X0210501Y0290703D01*
X0211069Y0290136D01*
X0211069Y0289569D01*
X0210501Y0289001D01*
X0211069Y0288434D01*
X0211069Y0287867D01*
X0210501Y0289001D02*
X0209934Y0289001D01*
X0206685Y0301300D02*
X0205550Y0301300D01*
X0204983Y0301867D01*
X0204983Y0303001D01*
X0206685Y0303001D01*
X0207252Y0302434D01*
X0207252Y0301867D01*
X0206685Y0301300D01*
X0204983Y0303001D02*
X0206117Y0304136D01*
X0207252Y0304703D01*
X0203569Y0304136D02*
X0203001Y0304703D01*
X0201867Y0304703D01*
X0201300Y0304136D01*
X0201300Y0301867D01*
X0201867Y0301300D01*
X0203001Y0301300D01*
X0203569Y0301867D01*
X0225800Y0301867D02*
X0226367Y0301300D01*
X0227501Y0301300D01*
X0228069Y0301867D01*
X0229483Y0301300D02*
X0231752Y0301300D01*
X0230617Y0301300D02*
X0230617Y0304703D01*
X0229483Y0303569D01*
X0228069Y0304136D02*
X0227501Y0304703D01*
X0226367Y0304703D01*
X0225800Y0304136D01*
X0225800Y0301867D01*
X0233166Y0301867D02*
X0233733Y0301300D01*
X0234868Y0301300D01*
X0235435Y0301867D01*
X0235435Y0303001D01*
X0234868Y0303569D01*
X0234301Y0303569D01*
X0233166Y0303001D01*
X0233166Y0304703D01*
X0235435Y0304703D01*
X0230685Y0315300D02*
X0229550Y0315300D01*
X0228983Y0315867D01*
X0228983Y0316434D01*
X0229550Y0317001D01*
X0230685Y0317001D01*
X0231252Y0316434D01*
X0231252Y0315867D01*
X0230685Y0315300D01*
X0230685Y0317001D02*
X0231252Y0317569D01*
X0231252Y0318136D01*
X0230685Y0318703D01*
X0229550Y0318703D01*
X0228983Y0318136D01*
X0228983Y0317569D01*
X0229550Y0317001D01*
X0227569Y0317001D02*
X0227001Y0316434D01*
X0225300Y0316434D01*
X0225300Y0315300D02*
X0225300Y0318703D01*
X0227001Y0318703D01*
X0227569Y0318136D01*
X0227569Y0317001D01*
X0226434Y0316434D02*
X0227569Y0315300D01*
X0227001Y0323800D02*
X0227569Y0324367D01*
X0227001Y0323800D02*
X0225867Y0323800D01*
X0225300Y0324367D01*
X0225300Y0326636D01*
X0225867Y0327203D01*
X0227001Y0327203D01*
X0227569Y0326636D01*
X0228983Y0326636D02*
X0228983Y0326069D01*
X0229550Y0325501D01*
X0231252Y0325501D01*
X0231252Y0324367D02*
X0231252Y0326636D01*
X0230685Y0327203D01*
X0229550Y0327203D01*
X0228983Y0326636D01*
X0228983Y0324367D02*
X0229550Y0323800D01*
X0230685Y0323800D01*
X0231252Y0324367D01*
X0257300Y0322001D02*
X0259569Y0322001D01*
X0258434Y0320867D02*
X0258434Y0323136D01*
X0261500Y0324500D02*
X0261500Y0319500D01*
X0262800Y0318200D01*
X0261500Y0324500D02*
X0262800Y0325800D01*
X0270200Y0325800D02*
X0271500Y0324500D01*
X0272800Y0325800D01*
X0271500Y0324500D02*
X0271500Y0319500D01*
X0270200Y0318200D01*
X0271500Y0319500D02*
X0272800Y0318200D01*
X0273252Y0313303D02*
X0273252Y0311034D01*
X0272117Y0309900D01*
X0270983Y0311034D01*
X0270983Y0313303D01*
X0269569Y0313303D02*
X0267300Y0313303D01*
X0267300Y0311601D01*
X0268434Y0312169D01*
X0269001Y0312169D01*
X0269569Y0311601D01*
X0269569Y0310467D01*
X0269001Y0309900D01*
X0267867Y0309900D01*
X0267300Y0310467D01*
X0274666Y0310467D02*
X0276935Y0312736D01*
X0276935Y0310467D01*
X0276368Y0309900D01*
X0275233Y0309900D01*
X0274666Y0310467D01*
X0274666Y0312736D01*
X0275233Y0313303D01*
X0276368Y0313303D01*
X0276935Y0312736D01*
X0280200Y0318300D02*
X0281500Y0319500D01*
X0281500Y0324500D01*
X0280200Y0325900D01*
X0284134Y0323903D02*
X0285269Y0323903D01*
X0284701Y0323903D02*
X0284701Y0321067D01*
X0284134Y0320500D01*
X0283567Y0320500D01*
X0283000Y0321067D01*
X0286683Y0320500D02*
X0286683Y0323903D01*
X0288385Y0323903D01*
X0288952Y0323336D01*
X0288952Y0322201D01*
X0288385Y0321634D01*
X0286683Y0321634D01*
X0290366Y0320500D02*
X0292635Y0320500D01*
X0291501Y0320500D02*
X0291501Y0323903D01*
X0290366Y0322769D01*
X0293044Y0297656D02*
X0293044Y0295955D01*
X0294178Y0296522D01*
X0294746Y0296522D01*
X0295313Y0295955D01*
X0295313Y0294820D01*
X0294746Y0294253D01*
X0293611Y0294253D01*
X0293044Y0294820D01*
X0293044Y0297656D02*
X0295313Y0297656D01*
X0296727Y0297656D02*
X0296727Y0295387D01*
X0297862Y0294253D01*
X0298996Y0295387D01*
X0298996Y0297656D01*
X0300410Y0297089D02*
X0300978Y0297656D01*
X0302112Y0297656D01*
X0302679Y0297089D01*
X0300410Y0294820D01*
X0300978Y0294253D01*
X0302112Y0294253D01*
X0302679Y0294820D01*
X0302679Y0297089D01*
X0300410Y0297089D02*
X0300410Y0294820D01*
X0173579Y0041500D02*
X0173581Y0041640D01*
X0173587Y0041780D01*
X0173597Y0041919D01*
X0173611Y0042058D01*
X0173629Y0042197D01*
X0173650Y0042335D01*
X0173676Y0042473D01*
X0173706Y0042610D01*
X0173739Y0042745D01*
X0173777Y0042880D01*
X0173818Y0043014D01*
X0173863Y0043147D01*
X0173911Y0043278D01*
X0173964Y0043407D01*
X0174020Y0043536D01*
X0174079Y0043662D01*
X0174143Y0043787D01*
X0174209Y0043910D01*
X0174280Y0044031D01*
X0174353Y0044150D01*
X0174430Y0044267D01*
X0174511Y0044381D01*
X0174594Y0044493D01*
X0174681Y0044603D01*
X0174771Y0044711D01*
X0174863Y0044815D01*
X0174959Y0044917D01*
X0175058Y0045017D01*
X0175159Y0045113D01*
X0175263Y0045207D01*
X0175370Y0045297D01*
X0175479Y0045384D01*
X0175591Y0045469D01*
X0175705Y0045550D01*
X0175821Y0045628D01*
X0175939Y0045702D01*
X0176060Y0045773D01*
X0176182Y0045841D01*
X0176307Y0045905D01*
X0176433Y0045966D01*
X0176560Y0046023D01*
X0176690Y0046076D01*
X0176821Y0046126D01*
X0176953Y0046171D01*
X0177086Y0046214D01*
X0177221Y0046252D01*
X0177356Y0046286D01*
X0177493Y0046317D01*
X0177630Y0046344D01*
X0177768Y0046366D01*
X0177907Y0046385D01*
X0178046Y0046400D01*
X0178185Y0046411D01*
X0178325Y0046418D01*
X0178465Y0046421D01*
X0178605Y0046420D01*
X0178745Y0046415D01*
X0178884Y0046406D01*
X0179024Y0046393D01*
X0179163Y0046376D01*
X0179301Y0046355D01*
X0179439Y0046331D01*
X0179576Y0046302D01*
X0179712Y0046270D01*
X0179847Y0046233D01*
X0179981Y0046193D01*
X0180114Y0046149D01*
X0180245Y0046101D01*
X0180375Y0046050D01*
X0180504Y0045995D01*
X0180631Y0045936D01*
X0180756Y0045873D01*
X0180879Y0045808D01*
X0181001Y0045738D01*
X0181120Y0045665D01*
X0181238Y0045589D01*
X0181353Y0045510D01*
X0181466Y0045427D01*
X0181576Y0045341D01*
X0181684Y0045252D01*
X0181789Y0045160D01*
X0181892Y0045065D01*
X0181992Y0044967D01*
X0182089Y0044867D01*
X0182183Y0044763D01*
X0182275Y0044657D01*
X0182363Y0044549D01*
X0182448Y0044438D01*
X0182530Y0044324D01*
X0182609Y0044208D01*
X0182684Y0044091D01*
X0182756Y0043971D01*
X0182824Y0043849D01*
X0182889Y0043725D01*
X0182951Y0043599D01*
X0183009Y0043472D01*
X0183063Y0043343D01*
X0183114Y0043212D01*
X0183160Y0043080D01*
X0183203Y0042947D01*
X0183243Y0042813D01*
X0183278Y0042678D01*
X0183310Y0042541D01*
X0183337Y0042404D01*
X0183361Y0042266D01*
X0183381Y0042128D01*
X0183397Y0041989D01*
X0183409Y0041849D01*
X0183417Y0041710D01*
X0183421Y0041570D01*
X0183421Y0041430D01*
X0183417Y0041290D01*
X0183409Y0041151D01*
X0183397Y0041011D01*
X0183381Y0040872D01*
X0183361Y0040734D01*
X0183337Y0040596D01*
X0183310Y0040459D01*
X0183278Y0040322D01*
X0183243Y0040187D01*
X0183203Y0040053D01*
X0183160Y0039920D01*
X0183114Y0039788D01*
X0183063Y0039657D01*
X0183009Y0039528D01*
X0182951Y0039401D01*
X0182889Y0039275D01*
X0182824Y0039151D01*
X0182756Y0039029D01*
X0182684Y0038909D01*
X0182609Y0038792D01*
X0182530Y0038676D01*
X0182448Y0038562D01*
X0182363Y0038451D01*
X0182275Y0038343D01*
X0182183Y0038237D01*
X0182089Y0038133D01*
X0181992Y0038033D01*
X0181892Y0037935D01*
X0181789Y0037840D01*
X0181684Y0037748D01*
X0181576Y0037659D01*
X0181466Y0037573D01*
X0181353Y0037490D01*
X0181238Y0037411D01*
X0181120Y0037335D01*
X0181001Y0037262D01*
X0180879Y0037192D01*
X0180756Y0037127D01*
X0180631Y0037064D01*
X0180504Y0037005D01*
X0180375Y0036950D01*
X0180245Y0036899D01*
X0180114Y0036851D01*
X0179981Y0036807D01*
X0179847Y0036767D01*
X0179712Y0036730D01*
X0179576Y0036698D01*
X0179439Y0036669D01*
X0179301Y0036645D01*
X0179163Y0036624D01*
X0179024Y0036607D01*
X0178884Y0036594D01*
X0178745Y0036585D01*
X0178605Y0036580D01*
X0178465Y0036579D01*
X0178325Y0036582D01*
X0178185Y0036589D01*
X0178046Y0036600D01*
X0177907Y0036615D01*
X0177768Y0036634D01*
X0177630Y0036656D01*
X0177493Y0036683D01*
X0177356Y0036714D01*
X0177221Y0036748D01*
X0177086Y0036786D01*
X0176953Y0036829D01*
X0176821Y0036874D01*
X0176690Y0036924D01*
X0176560Y0036977D01*
X0176433Y0037034D01*
X0176307Y0037095D01*
X0176182Y0037159D01*
X0176060Y0037227D01*
X0175939Y0037298D01*
X0175821Y0037372D01*
X0175705Y0037450D01*
X0175591Y0037531D01*
X0175479Y0037616D01*
X0175370Y0037703D01*
X0175263Y0037793D01*
X0175159Y0037887D01*
X0175058Y0037983D01*
X0174959Y0038083D01*
X0174863Y0038185D01*
X0174771Y0038289D01*
X0174681Y0038397D01*
X0174594Y0038507D01*
X0174511Y0038619D01*
X0174430Y0038733D01*
X0174353Y0038850D01*
X0174280Y0038969D01*
X0174209Y0039090D01*
X0174143Y0039213D01*
X0174079Y0039338D01*
X0174020Y0039464D01*
X0173964Y0039593D01*
X0173911Y0039722D01*
X0173863Y0039853D01*
X0173818Y0039986D01*
X0173777Y0040120D01*
X0173739Y0040255D01*
X0173706Y0040390D01*
X0173676Y0040527D01*
X0173650Y0040665D01*
X0173629Y0040803D01*
X0173611Y0040942D01*
X0173597Y0041081D01*
X0173587Y0041220D01*
X0173581Y0041360D01*
X0173579Y0041500D01*
X0173842Y0035103D02*
X0173275Y0034536D01*
X0173275Y0032267D01*
X0173842Y0031700D01*
X0174977Y0031700D01*
X0175544Y0032267D01*
X0175544Y0033401D01*
X0174410Y0033401D01*
X0175544Y0034536D02*
X0174977Y0035103D01*
X0173842Y0035103D01*
X0176958Y0035103D02*
X0176958Y0031700D01*
X0179227Y0031700D02*
X0176958Y0035103D01*
X0179227Y0035103D02*
X0179227Y0031700D01*
X0180642Y0031700D02*
X0182343Y0031700D01*
X0182910Y0032267D01*
X0182910Y0034536D01*
X0182343Y0035103D01*
X0180642Y0035103D01*
X0180642Y0031700D01*
D11*
X0213793Y0024637D02*
X0216062Y0026906D01*
X0216062Y0020100D01*
X0218330Y0020100D02*
X0213793Y0020100D01*
X0221160Y0021234D02*
X0222294Y0020100D01*
X0224562Y0020100D01*
X0225697Y0021234D01*
X0225697Y0022369D01*
X0224562Y0023503D01*
X0221160Y0023503D01*
X0221160Y0021234D01*
X0221160Y0023503D02*
X0223428Y0025772D01*
X0225697Y0026906D01*
X0228526Y0021234D02*
X0229660Y0021234D01*
X0229660Y0020100D01*
X0228526Y0020100D01*
X0228526Y0021234D01*
X0232209Y0020100D02*
X0236746Y0020100D01*
X0234478Y0020100D02*
X0234478Y0026906D01*
X0232209Y0024637D01*
X0239575Y0025772D02*
X0239575Y0021234D01*
X0244112Y0025772D01*
X0244112Y0021234D01*
X0242978Y0020100D01*
X0240710Y0020100D01*
X0239575Y0021234D01*
X0239575Y0025772D02*
X0240710Y0026906D01*
X0242978Y0026906D01*
X0244112Y0025772D01*
X0246942Y0021234D02*
X0248076Y0021234D01*
X0248076Y0020100D01*
X0246942Y0020100D01*
X0246942Y0021234D01*
X0250625Y0020100D02*
X0255162Y0024637D01*
X0255162Y0025772D01*
X0254028Y0026906D01*
X0251759Y0026906D01*
X0250625Y0025772D01*
X0250625Y0020100D02*
X0255162Y0020100D01*
X0257991Y0020100D02*
X0262528Y0024637D01*
X0262528Y0025772D01*
X0261394Y0026906D01*
X0259125Y0026906D01*
X0257991Y0025772D01*
X0257991Y0020100D02*
X0262528Y0020100D01*
X0265357Y0020100D02*
X0266492Y0020100D01*
X0266492Y0021234D01*
X0265357Y0021234D01*
X0265357Y0020100D01*
X0269040Y0020100D02*
X0272443Y0020100D01*
X0273578Y0021234D01*
X0273578Y0022369D01*
X0272443Y0023503D01*
X0269040Y0023503D01*
X0269040Y0020100D02*
X0269040Y0026906D01*
X0272443Y0026906D01*
X0273578Y0025772D01*
X0273578Y0024637D01*
X0272443Y0023503D01*
X0100503Y0023003D02*
X0100503Y0020734D01*
X0099369Y0019600D01*
X0097101Y0019600D01*
X0095966Y0020734D01*
X0095966Y0023003D02*
X0098235Y0024137D01*
X0099369Y0024137D01*
X0100503Y0023003D01*
X0100503Y0026406D02*
X0095966Y0026406D01*
X0095966Y0023003D01*
X0093137Y0024137D02*
X0093137Y0025272D01*
X0092003Y0026406D01*
X0089734Y0026406D01*
X0088600Y0025272D01*
X0093137Y0024137D02*
X0088600Y0019600D01*
X0093137Y0019600D01*
D12*
X0103800Y0019300D02*
X0110400Y0019300D01*
X0110400Y0025700D01*
X0103800Y0025700D01*
X0103800Y0019300D01*
X0103800Y0020197D02*
X0110400Y0020197D01*
X0110400Y0021796D02*
X0103800Y0021796D01*
X0103800Y0023394D02*
X0110400Y0023394D01*
X0110400Y0024993D02*
X0103800Y0024993D01*
D13*
X0246700Y0072500D02*
X0252700Y0072500D01*
X0252700Y0084700D02*
X0246700Y0084700D01*
X0194150Y0314600D02*
X0190450Y0314600D01*
X0194248Y0314776D02*
X0194248Y0321820D01*
X0194200Y0330776D02*
X0194200Y0337120D01*
X0194150Y0337118D02*
X0162850Y0337118D01*
X0162800Y0337120D02*
X0162800Y0330776D01*
X0164484Y0332000D02*
X0160390Y0332000D01*
X0168421Y0332000D02*
X0172516Y0332000D01*
X0176453Y0332000D02*
X0180547Y0332000D01*
X0184484Y0332000D02*
X0188579Y0332000D01*
X0192516Y0332000D02*
X0196610Y0332000D01*
X0166550Y0314600D02*
X0162850Y0314600D01*
X0162800Y0314676D02*
X0162800Y0321820D01*
D14*
X0021000Y0028811D02*
X0032811Y0017000D01*
X0324150Y0017000D01*
X0335961Y0028811D01*
X0335961Y0320150D01*
X0324150Y0331961D01*
X0032811Y0331961D01*
X0021000Y0320150D01*
X0021000Y0028811D01*
X0030449Y0032748D02*
X0030451Y0032906D01*
X0030457Y0033064D01*
X0030467Y0033222D01*
X0030481Y0033380D01*
X0030499Y0033537D01*
X0030520Y0033694D01*
X0030546Y0033850D01*
X0030576Y0034006D01*
X0030609Y0034161D01*
X0030647Y0034314D01*
X0030688Y0034467D01*
X0030733Y0034619D01*
X0030782Y0034770D01*
X0030835Y0034919D01*
X0030891Y0035067D01*
X0030951Y0035213D01*
X0031015Y0035358D01*
X0031083Y0035501D01*
X0031154Y0035643D01*
X0031228Y0035783D01*
X0031306Y0035920D01*
X0031388Y0036056D01*
X0031472Y0036190D01*
X0031561Y0036321D01*
X0031652Y0036450D01*
X0031747Y0036577D01*
X0031844Y0036702D01*
X0031945Y0036824D01*
X0032049Y0036943D01*
X0032156Y0037060D01*
X0032266Y0037174D01*
X0032379Y0037285D01*
X0032494Y0037394D01*
X0032612Y0037499D01*
X0032733Y0037601D01*
X0032856Y0037701D01*
X0032982Y0037797D01*
X0033110Y0037890D01*
X0033240Y0037980D01*
X0033373Y0038066D01*
X0033508Y0038150D01*
X0033644Y0038229D01*
X0033783Y0038306D01*
X0033924Y0038378D01*
X0034066Y0038448D01*
X0034210Y0038513D01*
X0034356Y0038575D01*
X0034503Y0038633D01*
X0034652Y0038688D01*
X0034802Y0038739D01*
X0034953Y0038786D01*
X0035105Y0038829D01*
X0035258Y0038868D01*
X0035413Y0038904D01*
X0035568Y0038935D01*
X0035724Y0038963D01*
X0035880Y0038987D01*
X0036037Y0039007D01*
X0036195Y0039023D01*
X0036352Y0039035D01*
X0036511Y0039043D01*
X0036669Y0039047D01*
X0036827Y0039047D01*
X0036985Y0039043D01*
X0037144Y0039035D01*
X0037301Y0039023D01*
X0037459Y0039007D01*
X0037616Y0038987D01*
X0037772Y0038963D01*
X0037928Y0038935D01*
X0038083Y0038904D01*
X0038238Y0038868D01*
X0038391Y0038829D01*
X0038543Y0038786D01*
X0038694Y0038739D01*
X0038844Y0038688D01*
X0038993Y0038633D01*
X0039140Y0038575D01*
X0039286Y0038513D01*
X0039430Y0038448D01*
X0039572Y0038378D01*
X0039713Y0038306D01*
X0039852Y0038229D01*
X0039988Y0038150D01*
X0040123Y0038066D01*
X0040256Y0037980D01*
X0040386Y0037890D01*
X0040514Y0037797D01*
X0040640Y0037701D01*
X0040763Y0037601D01*
X0040884Y0037499D01*
X0041002Y0037394D01*
X0041117Y0037285D01*
X0041230Y0037174D01*
X0041340Y0037060D01*
X0041447Y0036943D01*
X0041551Y0036824D01*
X0041652Y0036702D01*
X0041749Y0036577D01*
X0041844Y0036450D01*
X0041935Y0036321D01*
X0042024Y0036190D01*
X0042108Y0036056D01*
X0042190Y0035920D01*
X0042268Y0035783D01*
X0042342Y0035643D01*
X0042413Y0035501D01*
X0042481Y0035358D01*
X0042545Y0035213D01*
X0042605Y0035067D01*
X0042661Y0034919D01*
X0042714Y0034770D01*
X0042763Y0034619D01*
X0042808Y0034467D01*
X0042849Y0034314D01*
X0042887Y0034161D01*
X0042920Y0034006D01*
X0042950Y0033850D01*
X0042976Y0033694D01*
X0042997Y0033537D01*
X0043015Y0033380D01*
X0043029Y0033222D01*
X0043039Y0033064D01*
X0043045Y0032906D01*
X0043047Y0032748D01*
X0043045Y0032590D01*
X0043039Y0032432D01*
X0043029Y0032274D01*
X0043015Y0032116D01*
X0042997Y0031959D01*
X0042976Y0031802D01*
X0042950Y0031646D01*
X0042920Y0031490D01*
X0042887Y0031335D01*
X0042849Y0031182D01*
X0042808Y0031029D01*
X0042763Y0030877D01*
X0042714Y0030726D01*
X0042661Y0030577D01*
X0042605Y0030429D01*
X0042545Y0030283D01*
X0042481Y0030138D01*
X0042413Y0029995D01*
X0042342Y0029853D01*
X0042268Y0029713D01*
X0042190Y0029576D01*
X0042108Y0029440D01*
X0042024Y0029306D01*
X0041935Y0029175D01*
X0041844Y0029046D01*
X0041749Y0028919D01*
X0041652Y0028794D01*
X0041551Y0028672D01*
X0041447Y0028553D01*
X0041340Y0028436D01*
X0041230Y0028322D01*
X0041117Y0028211D01*
X0041002Y0028102D01*
X0040884Y0027997D01*
X0040763Y0027895D01*
X0040640Y0027795D01*
X0040514Y0027699D01*
X0040386Y0027606D01*
X0040256Y0027516D01*
X0040123Y0027430D01*
X0039988Y0027346D01*
X0039852Y0027267D01*
X0039713Y0027190D01*
X0039572Y0027118D01*
X0039430Y0027048D01*
X0039286Y0026983D01*
X0039140Y0026921D01*
X0038993Y0026863D01*
X0038844Y0026808D01*
X0038694Y0026757D01*
X0038543Y0026710D01*
X0038391Y0026667D01*
X0038238Y0026628D01*
X0038083Y0026592D01*
X0037928Y0026561D01*
X0037772Y0026533D01*
X0037616Y0026509D01*
X0037459Y0026489D01*
X0037301Y0026473D01*
X0037144Y0026461D01*
X0036985Y0026453D01*
X0036827Y0026449D01*
X0036669Y0026449D01*
X0036511Y0026453D01*
X0036352Y0026461D01*
X0036195Y0026473D01*
X0036037Y0026489D01*
X0035880Y0026509D01*
X0035724Y0026533D01*
X0035568Y0026561D01*
X0035413Y0026592D01*
X0035258Y0026628D01*
X0035105Y0026667D01*
X0034953Y0026710D01*
X0034802Y0026757D01*
X0034652Y0026808D01*
X0034503Y0026863D01*
X0034356Y0026921D01*
X0034210Y0026983D01*
X0034066Y0027048D01*
X0033924Y0027118D01*
X0033783Y0027190D01*
X0033644Y0027267D01*
X0033508Y0027346D01*
X0033373Y0027430D01*
X0033240Y0027516D01*
X0033110Y0027606D01*
X0032982Y0027699D01*
X0032856Y0027795D01*
X0032733Y0027895D01*
X0032612Y0027997D01*
X0032494Y0028102D01*
X0032379Y0028211D01*
X0032266Y0028322D01*
X0032156Y0028436D01*
X0032049Y0028553D01*
X0031945Y0028672D01*
X0031844Y0028794D01*
X0031747Y0028919D01*
X0031652Y0029046D01*
X0031561Y0029175D01*
X0031472Y0029306D01*
X0031388Y0029440D01*
X0031306Y0029576D01*
X0031228Y0029713D01*
X0031154Y0029853D01*
X0031083Y0029995D01*
X0031015Y0030138D01*
X0030951Y0030283D01*
X0030891Y0030429D01*
X0030835Y0030577D01*
X0030782Y0030726D01*
X0030733Y0030877D01*
X0030688Y0031029D01*
X0030647Y0031182D01*
X0030609Y0031335D01*
X0030576Y0031490D01*
X0030546Y0031646D01*
X0030520Y0031802D01*
X0030499Y0031959D01*
X0030481Y0032116D01*
X0030467Y0032274D01*
X0030457Y0032432D01*
X0030451Y0032590D01*
X0030449Y0032748D01*
X0195803Y0091803D02*
X0195805Y0091961D01*
X0195811Y0092119D01*
X0195821Y0092277D01*
X0195835Y0092435D01*
X0195853Y0092592D01*
X0195874Y0092749D01*
X0195900Y0092905D01*
X0195930Y0093061D01*
X0195963Y0093216D01*
X0196001Y0093369D01*
X0196042Y0093522D01*
X0196087Y0093674D01*
X0196136Y0093825D01*
X0196189Y0093974D01*
X0196245Y0094122D01*
X0196305Y0094268D01*
X0196369Y0094413D01*
X0196437Y0094556D01*
X0196508Y0094698D01*
X0196582Y0094838D01*
X0196660Y0094975D01*
X0196742Y0095111D01*
X0196826Y0095245D01*
X0196915Y0095376D01*
X0197006Y0095505D01*
X0197101Y0095632D01*
X0197198Y0095757D01*
X0197299Y0095879D01*
X0197403Y0095998D01*
X0197510Y0096115D01*
X0197620Y0096229D01*
X0197733Y0096340D01*
X0197848Y0096449D01*
X0197966Y0096554D01*
X0198087Y0096656D01*
X0198210Y0096756D01*
X0198336Y0096852D01*
X0198464Y0096945D01*
X0198594Y0097035D01*
X0198727Y0097121D01*
X0198862Y0097205D01*
X0198998Y0097284D01*
X0199137Y0097361D01*
X0199278Y0097433D01*
X0199420Y0097503D01*
X0199564Y0097568D01*
X0199710Y0097630D01*
X0199857Y0097688D01*
X0200006Y0097743D01*
X0200156Y0097794D01*
X0200307Y0097841D01*
X0200459Y0097884D01*
X0200612Y0097923D01*
X0200767Y0097959D01*
X0200922Y0097990D01*
X0201078Y0098018D01*
X0201234Y0098042D01*
X0201391Y0098062D01*
X0201549Y0098078D01*
X0201706Y0098090D01*
X0201865Y0098098D01*
X0202023Y0098102D01*
X0202181Y0098102D01*
X0202339Y0098098D01*
X0202498Y0098090D01*
X0202655Y0098078D01*
X0202813Y0098062D01*
X0202970Y0098042D01*
X0203126Y0098018D01*
X0203282Y0097990D01*
X0203437Y0097959D01*
X0203592Y0097923D01*
X0203745Y0097884D01*
X0203897Y0097841D01*
X0204048Y0097794D01*
X0204198Y0097743D01*
X0204347Y0097688D01*
X0204494Y0097630D01*
X0204640Y0097568D01*
X0204784Y0097503D01*
X0204926Y0097433D01*
X0205067Y0097361D01*
X0205206Y0097284D01*
X0205342Y0097205D01*
X0205477Y0097121D01*
X0205610Y0097035D01*
X0205740Y0096945D01*
X0205868Y0096852D01*
X0205994Y0096756D01*
X0206117Y0096656D01*
X0206238Y0096554D01*
X0206356Y0096449D01*
X0206471Y0096340D01*
X0206584Y0096229D01*
X0206694Y0096115D01*
X0206801Y0095998D01*
X0206905Y0095879D01*
X0207006Y0095757D01*
X0207103Y0095632D01*
X0207198Y0095505D01*
X0207289Y0095376D01*
X0207378Y0095245D01*
X0207462Y0095111D01*
X0207544Y0094975D01*
X0207622Y0094838D01*
X0207696Y0094698D01*
X0207767Y0094556D01*
X0207835Y0094413D01*
X0207899Y0094268D01*
X0207959Y0094122D01*
X0208015Y0093974D01*
X0208068Y0093825D01*
X0208117Y0093674D01*
X0208162Y0093522D01*
X0208203Y0093369D01*
X0208241Y0093216D01*
X0208274Y0093061D01*
X0208304Y0092905D01*
X0208330Y0092749D01*
X0208351Y0092592D01*
X0208369Y0092435D01*
X0208383Y0092277D01*
X0208393Y0092119D01*
X0208399Y0091961D01*
X0208401Y0091803D01*
X0208399Y0091645D01*
X0208393Y0091487D01*
X0208383Y0091329D01*
X0208369Y0091171D01*
X0208351Y0091014D01*
X0208330Y0090857D01*
X0208304Y0090701D01*
X0208274Y0090545D01*
X0208241Y0090390D01*
X0208203Y0090237D01*
X0208162Y0090084D01*
X0208117Y0089932D01*
X0208068Y0089781D01*
X0208015Y0089632D01*
X0207959Y0089484D01*
X0207899Y0089338D01*
X0207835Y0089193D01*
X0207767Y0089050D01*
X0207696Y0088908D01*
X0207622Y0088768D01*
X0207544Y0088631D01*
X0207462Y0088495D01*
X0207378Y0088361D01*
X0207289Y0088230D01*
X0207198Y0088101D01*
X0207103Y0087974D01*
X0207006Y0087849D01*
X0206905Y0087727D01*
X0206801Y0087608D01*
X0206694Y0087491D01*
X0206584Y0087377D01*
X0206471Y0087266D01*
X0206356Y0087157D01*
X0206238Y0087052D01*
X0206117Y0086950D01*
X0205994Y0086850D01*
X0205868Y0086754D01*
X0205740Y0086661D01*
X0205610Y0086571D01*
X0205477Y0086485D01*
X0205342Y0086401D01*
X0205206Y0086322D01*
X0205067Y0086245D01*
X0204926Y0086173D01*
X0204784Y0086103D01*
X0204640Y0086038D01*
X0204494Y0085976D01*
X0204347Y0085918D01*
X0204198Y0085863D01*
X0204048Y0085812D01*
X0203897Y0085765D01*
X0203745Y0085722D01*
X0203592Y0085683D01*
X0203437Y0085647D01*
X0203282Y0085616D01*
X0203126Y0085588D01*
X0202970Y0085564D01*
X0202813Y0085544D01*
X0202655Y0085528D01*
X0202498Y0085516D01*
X0202339Y0085508D01*
X0202181Y0085504D01*
X0202023Y0085504D01*
X0201865Y0085508D01*
X0201706Y0085516D01*
X0201549Y0085528D01*
X0201391Y0085544D01*
X0201234Y0085564D01*
X0201078Y0085588D01*
X0200922Y0085616D01*
X0200767Y0085647D01*
X0200612Y0085683D01*
X0200459Y0085722D01*
X0200307Y0085765D01*
X0200156Y0085812D01*
X0200006Y0085863D01*
X0199857Y0085918D01*
X0199710Y0085976D01*
X0199564Y0086038D01*
X0199420Y0086103D01*
X0199278Y0086173D01*
X0199137Y0086245D01*
X0198998Y0086322D01*
X0198862Y0086401D01*
X0198727Y0086485D01*
X0198594Y0086571D01*
X0198464Y0086661D01*
X0198336Y0086754D01*
X0198210Y0086850D01*
X0198087Y0086950D01*
X0197966Y0087052D01*
X0197848Y0087157D01*
X0197733Y0087266D01*
X0197620Y0087377D01*
X0197510Y0087491D01*
X0197403Y0087608D01*
X0197299Y0087727D01*
X0197198Y0087849D01*
X0197101Y0087974D01*
X0197006Y0088101D01*
X0196915Y0088230D01*
X0196826Y0088361D01*
X0196742Y0088495D01*
X0196660Y0088631D01*
X0196582Y0088768D01*
X0196508Y0088908D01*
X0196437Y0089050D01*
X0196369Y0089193D01*
X0196305Y0089338D01*
X0196245Y0089484D01*
X0196189Y0089632D01*
X0196136Y0089781D01*
X0196087Y0089932D01*
X0196042Y0090084D01*
X0196001Y0090237D01*
X0195963Y0090390D01*
X0195930Y0090545D01*
X0195900Y0090701D01*
X0195874Y0090857D01*
X0195853Y0091014D01*
X0195835Y0091171D01*
X0195821Y0091329D01*
X0195811Y0091487D01*
X0195805Y0091645D01*
X0195803Y0091803D01*
X0313914Y0032748D02*
X0313916Y0032906D01*
X0313922Y0033064D01*
X0313932Y0033222D01*
X0313946Y0033380D01*
X0313964Y0033537D01*
X0313985Y0033694D01*
X0314011Y0033850D01*
X0314041Y0034006D01*
X0314074Y0034161D01*
X0314112Y0034314D01*
X0314153Y0034467D01*
X0314198Y0034619D01*
X0314247Y0034770D01*
X0314300Y0034919D01*
X0314356Y0035067D01*
X0314416Y0035213D01*
X0314480Y0035358D01*
X0314548Y0035501D01*
X0314619Y0035643D01*
X0314693Y0035783D01*
X0314771Y0035920D01*
X0314853Y0036056D01*
X0314937Y0036190D01*
X0315026Y0036321D01*
X0315117Y0036450D01*
X0315212Y0036577D01*
X0315309Y0036702D01*
X0315410Y0036824D01*
X0315514Y0036943D01*
X0315621Y0037060D01*
X0315731Y0037174D01*
X0315844Y0037285D01*
X0315959Y0037394D01*
X0316077Y0037499D01*
X0316198Y0037601D01*
X0316321Y0037701D01*
X0316447Y0037797D01*
X0316575Y0037890D01*
X0316705Y0037980D01*
X0316838Y0038066D01*
X0316973Y0038150D01*
X0317109Y0038229D01*
X0317248Y0038306D01*
X0317389Y0038378D01*
X0317531Y0038448D01*
X0317675Y0038513D01*
X0317821Y0038575D01*
X0317968Y0038633D01*
X0318117Y0038688D01*
X0318267Y0038739D01*
X0318418Y0038786D01*
X0318570Y0038829D01*
X0318723Y0038868D01*
X0318878Y0038904D01*
X0319033Y0038935D01*
X0319189Y0038963D01*
X0319345Y0038987D01*
X0319502Y0039007D01*
X0319660Y0039023D01*
X0319817Y0039035D01*
X0319976Y0039043D01*
X0320134Y0039047D01*
X0320292Y0039047D01*
X0320450Y0039043D01*
X0320609Y0039035D01*
X0320766Y0039023D01*
X0320924Y0039007D01*
X0321081Y0038987D01*
X0321237Y0038963D01*
X0321393Y0038935D01*
X0321548Y0038904D01*
X0321703Y0038868D01*
X0321856Y0038829D01*
X0322008Y0038786D01*
X0322159Y0038739D01*
X0322309Y0038688D01*
X0322458Y0038633D01*
X0322605Y0038575D01*
X0322751Y0038513D01*
X0322895Y0038448D01*
X0323037Y0038378D01*
X0323178Y0038306D01*
X0323317Y0038229D01*
X0323453Y0038150D01*
X0323588Y0038066D01*
X0323721Y0037980D01*
X0323851Y0037890D01*
X0323979Y0037797D01*
X0324105Y0037701D01*
X0324228Y0037601D01*
X0324349Y0037499D01*
X0324467Y0037394D01*
X0324582Y0037285D01*
X0324695Y0037174D01*
X0324805Y0037060D01*
X0324912Y0036943D01*
X0325016Y0036824D01*
X0325117Y0036702D01*
X0325214Y0036577D01*
X0325309Y0036450D01*
X0325400Y0036321D01*
X0325489Y0036190D01*
X0325573Y0036056D01*
X0325655Y0035920D01*
X0325733Y0035783D01*
X0325807Y0035643D01*
X0325878Y0035501D01*
X0325946Y0035358D01*
X0326010Y0035213D01*
X0326070Y0035067D01*
X0326126Y0034919D01*
X0326179Y0034770D01*
X0326228Y0034619D01*
X0326273Y0034467D01*
X0326314Y0034314D01*
X0326352Y0034161D01*
X0326385Y0034006D01*
X0326415Y0033850D01*
X0326441Y0033694D01*
X0326462Y0033537D01*
X0326480Y0033380D01*
X0326494Y0033222D01*
X0326504Y0033064D01*
X0326510Y0032906D01*
X0326512Y0032748D01*
X0326510Y0032590D01*
X0326504Y0032432D01*
X0326494Y0032274D01*
X0326480Y0032116D01*
X0326462Y0031959D01*
X0326441Y0031802D01*
X0326415Y0031646D01*
X0326385Y0031490D01*
X0326352Y0031335D01*
X0326314Y0031182D01*
X0326273Y0031029D01*
X0326228Y0030877D01*
X0326179Y0030726D01*
X0326126Y0030577D01*
X0326070Y0030429D01*
X0326010Y0030283D01*
X0325946Y0030138D01*
X0325878Y0029995D01*
X0325807Y0029853D01*
X0325733Y0029713D01*
X0325655Y0029576D01*
X0325573Y0029440D01*
X0325489Y0029306D01*
X0325400Y0029175D01*
X0325309Y0029046D01*
X0325214Y0028919D01*
X0325117Y0028794D01*
X0325016Y0028672D01*
X0324912Y0028553D01*
X0324805Y0028436D01*
X0324695Y0028322D01*
X0324582Y0028211D01*
X0324467Y0028102D01*
X0324349Y0027997D01*
X0324228Y0027895D01*
X0324105Y0027795D01*
X0323979Y0027699D01*
X0323851Y0027606D01*
X0323721Y0027516D01*
X0323588Y0027430D01*
X0323453Y0027346D01*
X0323317Y0027267D01*
X0323178Y0027190D01*
X0323037Y0027118D01*
X0322895Y0027048D01*
X0322751Y0026983D01*
X0322605Y0026921D01*
X0322458Y0026863D01*
X0322309Y0026808D01*
X0322159Y0026757D01*
X0322008Y0026710D01*
X0321856Y0026667D01*
X0321703Y0026628D01*
X0321548Y0026592D01*
X0321393Y0026561D01*
X0321237Y0026533D01*
X0321081Y0026509D01*
X0320924Y0026489D01*
X0320766Y0026473D01*
X0320609Y0026461D01*
X0320450Y0026453D01*
X0320292Y0026449D01*
X0320134Y0026449D01*
X0319976Y0026453D01*
X0319817Y0026461D01*
X0319660Y0026473D01*
X0319502Y0026489D01*
X0319345Y0026509D01*
X0319189Y0026533D01*
X0319033Y0026561D01*
X0318878Y0026592D01*
X0318723Y0026628D01*
X0318570Y0026667D01*
X0318418Y0026710D01*
X0318267Y0026757D01*
X0318117Y0026808D01*
X0317968Y0026863D01*
X0317821Y0026921D01*
X0317675Y0026983D01*
X0317531Y0027048D01*
X0317389Y0027118D01*
X0317248Y0027190D01*
X0317109Y0027267D01*
X0316973Y0027346D01*
X0316838Y0027430D01*
X0316705Y0027516D01*
X0316575Y0027606D01*
X0316447Y0027699D01*
X0316321Y0027795D01*
X0316198Y0027895D01*
X0316077Y0027997D01*
X0315959Y0028102D01*
X0315844Y0028211D01*
X0315731Y0028322D01*
X0315621Y0028436D01*
X0315514Y0028553D01*
X0315410Y0028672D01*
X0315309Y0028794D01*
X0315212Y0028919D01*
X0315117Y0029046D01*
X0315026Y0029175D01*
X0314937Y0029306D01*
X0314853Y0029440D01*
X0314771Y0029576D01*
X0314693Y0029713D01*
X0314619Y0029853D01*
X0314548Y0029995D01*
X0314480Y0030138D01*
X0314416Y0030283D01*
X0314356Y0030429D01*
X0314300Y0030577D01*
X0314247Y0030726D01*
X0314198Y0030877D01*
X0314153Y0031029D01*
X0314112Y0031182D01*
X0314074Y0031335D01*
X0314041Y0031490D01*
X0314011Y0031646D01*
X0313985Y0031802D01*
X0313964Y0031959D01*
X0313946Y0032116D01*
X0313932Y0032274D01*
X0313922Y0032432D01*
X0313916Y0032590D01*
X0313914Y0032748D01*
X0195803Y0257157D02*
X0195805Y0257315D01*
X0195811Y0257473D01*
X0195821Y0257631D01*
X0195835Y0257789D01*
X0195853Y0257946D01*
X0195874Y0258103D01*
X0195900Y0258259D01*
X0195930Y0258415D01*
X0195963Y0258570D01*
X0196001Y0258723D01*
X0196042Y0258876D01*
X0196087Y0259028D01*
X0196136Y0259179D01*
X0196189Y0259328D01*
X0196245Y0259476D01*
X0196305Y0259622D01*
X0196369Y0259767D01*
X0196437Y0259910D01*
X0196508Y0260052D01*
X0196582Y0260192D01*
X0196660Y0260329D01*
X0196742Y0260465D01*
X0196826Y0260599D01*
X0196915Y0260730D01*
X0197006Y0260859D01*
X0197101Y0260986D01*
X0197198Y0261111D01*
X0197299Y0261233D01*
X0197403Y0261352D01*
X0197510Y0261469D01*
X0197620Y0261583D01*
X0197733Y0261694D01*
X0197848Y0261803D01*
X0197966Y0261908D01*
X0198087Y0262010D01*
X0198210Y0262110D01*
X0198336Y0262206D01*
X0198464Y0262299D01*
X0198594Y0262389D01*
X0198727Y0262475D01*
X0198862Y0262559D01*
X0198998Y0262638D01*
X0199137Y0262715D01*
X0199278Y0262787D01*
X0199420Y0262857D01*
X0199564Y0262922D01*
X0199710Y0262984D01*
X0199857Y0263042D01*
X0200006Y0263097D01*
X0200156Y0263148D01*
X0200307Y0263195D01*
X0200459Y0263238D01*
X0200612Y0263277D01*
X0200767Y0263313D01*
X0200922Y0263344D01*
X0201078Y0263372D01*
X0201234Y0263396D01*
X0201391Y0263416D01*
X0201549Y0263432D01*
X0201706Y0263444D01*
X0201865Y0263452D01*
X0202023Y0263456D01*
X0202181Y0263456D01*
X0202339Y0263452D01*
X0202498Y0263444D01*
X0202655Y0263432D01*
X0202813Y0263416D01*
X0202970Y0263396D01*
X0203126Y0263372D01*
X0203282Y0263344D01*
X0203437Y0263313D01*
X0203592Y0263277D01*
X0203745Y0263238D01*
X0203897Y0263195D01*
X0204048Y0263148D01*
X0204198Y0263097D01*
X0204347Y0263042D01*
X0204494Y0262984D01*
X0204640Y0262922D01*
X0204784Y0262857D01*
X0204926Y0262787D01*
X0205067Y0262715D01*
X0205206Y0262638D01*
X0205342Y0262559D01*
X0205477Y0262475D01*
X0205610Y0262389D01*
X0205740Y0262299D01*
X0205868Y0262206D01*
X0205994Y0262110D01*
X0206117Y0262010D01*
X0206238Y0261908D01*
X0206356Y0261803D01*
X0206471Y0261694D01*
X0206584Y0261583D01*
X0206694Y0261469D01*
X0206801Y0261352D01*
X0206905Y0261233D01*
X0207006Y0261111D01*
X0207103Y0260986D01*
X0207198Y0260859D01*
X0207289Y0260730D01*
X0207378Y0260599D01*
X0207462Y0260465D01*
X0207544Y0260329D01*
X0207622Y0260192D01*
X0207696Y0260052D01*
X0207767Y0259910D01*
X0207835Y0259767D01*
X0207899Y0259622D01*
X0207959Y0259476D01*
X0208015Y0259328D01*
X0208068Y0259179D01*
X0208117Y0259028D01*
X0208162Y0258876D01*
X0208203Y0258723D01*
X0208241Y0258570D01*
X0208274Y0258415D01*
X0208304Y0258259D01*
X0208330Y0258103D01*
X0208351Y0257946D01*
X0208369Y0257789D01*
X0208383Y0257631D01*
X0208393Y0257473D01*
X0208399Y0257315D01*
X0208401Y0257157D01*
X0208399Y0256999D01*
X0208393Y0256841D01*
X0208383Y0256683D01*
X0208369Y0256525D01*
X0208351Y0256368D01*
X0208330Y0256211D01*
X0208304Y0256055D01*
X0208274Y0255899D01*
X0208241Y0255744D01*
X0208203Y0255591D01*
X0208162Y0255438D01*
X0208117Y0255286D01*
X0208068Y0255135D01*
X0208015Y0254986D01*
X0207959Y0254838D01*
X0207899Y0254692D01*
X0207835Y0254547D01*
X0207767Y0254404D01*
X0207696Y0254262D01*
X0207622Y0254122D01*
X0207544Y0253985D01*
X0207462Y0253849D01*
X0207378Y0253715D01*
X0207289Y0253584D01*
X0207198Y0253455D01*
X0207103Y0253328D01*
X0207006Y0253203D01*
X0206905Y0253081D01*
X0206801Y0252962D01*
X0206694Y0252845D01*
X0206584Y0252731D01*
X0206471Y0252620D01*
X0206356Y0252511D01*
X0206238Y0252406D01*
X0206117Y0252304D01*
X0205994Y0252204D01*
X0205868Y0252108D01*
X0205740Y0252015D01*
X0205610Y0251925D01*
X0205477Y0251839D01*
X0205342Y0251755D01*
X0205206Y0251676D01*
X0205067Y0251599D01*
X0204926Y0251527D01*
X0204784Y0251457D01*
X0204640Y0251392D01*
X0204494Y0251330D01*
X0204347Y0251272D01*
X0204198Y0251217D01*
X0204048Y0251166D01*
X0203897Y0251119D01*
X0203745Y0251076D01*
X0203592Y0251037D01*
X0203437Y0251001D01*
X0203282Y0250970D01*
X0203126Y0250942D01*
X0202970Y0250918D01*
X0202813Y0250898D01*
X0202655Y0250882D01*
X0202498Y0250870D01*
X0202339Y0250862D01*
X0202181Y0250858D01*
X0202023Y0250858D01*
X0201865Y0250862D01*
X0201706Y0250870D01*
X0201549Y0250882D01*
X0201391Y0250898D01*
X0201234Y0250918D01*
X0201078Y0250942D01*
X0200922Y0250970D01*
X0200767Y0251001D01*
X0200612Y0251037D01*
X0200459Y0251076D01*
X0200307Y0251119D01*
X0200156Y0251166D01*
X0200006Y0251217D01*
X0199857Y0251272D01*
X0199710Y0251330D01*
X0199564Y0251392D01*
X0199420Y0251457D01*
X0199278Y0251527D01*
X0199137Y0251599D01*
X0198998Y0251676D01*
X0198862Y0251755D01*
X0198727Y0251839D01*
X0198594Y0251925D01*
X0198464Y0252015D01*
X0198336Y0252108D01*
X0198210Y0252204D01*
X0198087Y0252304D01*
X0197966Y0252406D01*
X0197848Y0252511D01*
X0197733Y0252620D01*
X0197620Y0252731D01*
X0197510Y0252845D01*
X0197403Y0252962D01*
X0197299Y0253081D01*
X0197198Y0253203D01*
X0197101Y0253328D01*
X0197006Y0253455D01*
X0196915Y0253584D01*
X0196826Y0253715D01*
X0196742Y0253849D01*
X0196660Y0253985D01*
X0196582Y0254122D01*
X0196508Y0254262D01*
X0196437Y0254404D01*
X0196369Y0254547D01*
X0196305Y0254692D01*
X0196245Y0254838D01*
X0196189Y0254986D01*
X0196136Y0255135D01*
X0196087Y0255286D01*
X0196042Y0255438D01*
X0196001Y0255591D01*
X0195963Y0255744D01*
X0195930Y0255899D01*
X0195900Y0256055D01*
X0195874Y0256211D01*
X0195853Y0256368D01*
X0195835Y0256525D01*
X0195821Y0256683D01*
X0195811Y0256841D01*
X0195805Y0256999D01*
X0195803Y0257157D01*
X0313914Y0316213D02*
X0313916Y0316371D01*
X0313922Y0316529D01*
X0313932Y0316687D01*
X0313946Y0316845D01*
X0313964Y0317002D01*
X0313985Y0317159D01*
X0314011Y0317315D01*
X0314041Y0317471D01*
X0314074Y0317626D01*
X0314112Y0317779D01*
X0314153Y0317932D01*
X0314198Y0318084D01*
X0314247Y0318235D01*
X0314300Y0318384D01*
X0314356Y0318532D01*
X0314416Y0318678D01*
X0314480Y0318823D01*
X0314548Y0318966D01*
X0314619Y0319108D01*
X0314693Y0319248D01*
X0314771Y0319385D01*
X0314853Y0319521D01*
X0314937Y0319655D01*
X0315026Y0319786D01*
X0315117Y0319915D01*
X0315212Y0320042D01*
X0315309Y0320167D01*
X0315410Y0320289D01*
X0315514Y0320408D01*
X0315621Y0320525D01*
X0315731Y0320639D01*
X0315844Y0320750D01*
X0315959Y0320859D01*
X0316077Y0320964D01*
X0316198Y0321066D01*
X0316321Y0321166D01*
X0316447Y0321262D01*
X0316575Y0321355D01*
X0316705Y0321445D01*
X0316838Y0321531D01*
X0316973Y0321615D01*
X0317109Y0321694D01*
X0317248Y0321771D01*
X0317389Y0321843D01*
X0317531Y0321913D01*
X0317675Y0321978D01*
X0317821Y0322040D01*
X0317968Y0322098D01*
X0318117Y0322153D01*
X0318267Y0322204D01*
X0318418Y0322251D01*
X0318570Y0322294D01*
X0318723Y0322333D01*
X0318878Y0322369D01*
X0319033Y0322400D01*
X0319189Y0322428D01*
X0319345Y0322452D01*
X0319502Y0322472D01*
X0319660Y0322488D01*
X0319817Y0322500D01*
X0319976Y0322508D01*
X0320134Y0322512D01*
X0320292Y0322512D01*
X0320450Y0322508D01*
X0320609Y0322500D01*
X0320766Y0322488D01*
X0320924Y0322472D01*
X0321081Y0322452D01*
X0321237Y0322428D01*
X0321393Y0322400D01*
X0321548Y0322369D01*
X0321703Y0322333D01*
X0321856Y0322294D01*
X0322008Y0322251D01*
X0322159Y0322204D01*
X0322309Y0322153D01*
X0322458Y0322098D01*
X0322605Y0322040D01*
X0322751Y0321978D01*
X0322895Y0321913D01*
X0323037Y0321843D01*
X0323178Y0321771D01*
X0323317Y0321694D01*
X0323453Y0321615D01*
X0323588Y0321531D01*
X0323721Y0321445D01*
X0323851Y0321355D01*
X0323979Y0321262D01*
X0324105Y0321166D01*
X0324228Y0321066D01*
X0324349Y0320964D01*
X0324467Y0320859D01*
X0324582Y0320750D01*
X0324695Y0320639D01*
X0324805Y0320525D01*
X0324912Y0320408D01*
X0325016Y0320289D01*
X0325117Y0320167D01*
X0325214Y0320042D01*
X0325309Y0319915D01*
X0325400Y0319786D01*
X0325489Y0319655D01*
X0325573Y0319521D01*
X0325655Y0319385D01*
X0325733Y0319248D01*
X0325807Y0319108D01*
X0325878Y0318966D01*
X0325946Y0318823D01*
X0326010Y0318678D01*
X0326070Y0318532D01*
X0326126Y0318384D01*
X0326179Y0318235D01*
X0326228Y0318084D01*
X0326273Y0317932D01*
X0326314Y0317779D01*
X0326352Y0317626D01*
X0326385Y0317471D01*
X0326415Y0317315D01*
X0326441Y0317159D01*
X0326462Y0317002D01*
X0326480Y0316845D01*
X0326494Y0316687D01*
X0326504Y0316529D01*
X0326510Y0316371D01*
X0326512Y0316213D01*
X0326510Y0316055D01*
X0326504Y0315897D01*
X0326494Y0315739D01*
X0326480Y0315581D01*
X0326462Y0315424D01*
X0326441Y0315267D01*
X0326415Y0315111D01*
X0326385Y0314955D01*
X0326352Y0314800D01*
X0326314Y0314647D01*
X0326273Y0314494D01*
X0326228Y0314342D01*
X0326179Y0314191D01*
X0326126Y0314042D01*
X0326070Y0313894D01*
X0326010Y0313748D01*
X0325946Y0313603D01*
X0325878Y0313460D01*
X0325807Y0313318D01*
X0325733Y0313178D01*
X0325655Y0313041D01*
X0325573Y0312905D01*
X0325489Y0312771D01*
X0325400Y0312640D01*
X0325309Y0312511D01*
X0325214Y0312384D01*
X0325117Y0312259D01*
X0325016Y0312137D01*
X0324912Y0312018D01*
X0324805Y0311901D01*
X0324695Y0311787D01*
X0324582Y0311676D01*
X0324467Y0311567D01*
X0324349Y0311462D01*
X0324228Y0311360D01*
X0324105Y0311260D01*
X0323979Y0311164D01*
X0323851Y0311071D01*
X0323721Y0310981D01*
X0323588Y0310895D01*
X0323453Y0310811D01*
X0323317Y0310732D01*
X0323178Y0310655D01*
X0323037Y0310583D01*
X0322895Y0310513D01*
X0322751Y0310448D01*
X0322605Y0310386D01*
X0322458Y0310328D01*
X0322309Y0310273D01*
X0322159Y0310222D01*
X0322008Y0310175D01*
X0321856Y0310132D01*
X0321703Y0310093D01*
X0321548Y0310057D01*
X0321393Y0310026D01*
X0321237Y0309998D01*
X0321081Y0309974D01*
X0320924Y0309954D01*
X0320766Y0309938D01*
X0320609Y0309926D01*
X0320450Y0309918D01*
X0320292Y0309914D01*
X0320134Y0309914D01*
X0319976Y0309918D01*
X0319817Y0309926D01*
X0319660Y0309938D01*
X0319502Y0309954D01*
X0319345Y0309974D01*
X0319189Y0309998D01*
X0319033Y0310026D01*
X0318878Y0310057D01*
X0318723Y0310093D01*
X0318570Y0310132D01*
X0318418Y0310175D01*
X0318267Y0310222D01*
X0318117Y0310273D01*
X0317968Y0310328D01*
X0317821Y0310386D01*
X0317675Y0310448D01*
X0317531Y0310513D01*
X0317389Y0310583D01*
X0317248Y0310655D01*
X0317109Y0310732D01*
X0316973Y0310811D01*
X0316838Y0310895D01*
X0316705Y0310981D01*
X0316575Y0311071D01*
X0316447Y0311164D01*
X0316321Y0311260D01*
X0316198Y0311360D01*
X0316077Y0311462D01*
X0315959Y0311567D01*
X0315844Y0311676D01*
X0315731Y0311787D01*
X0315621Y0311901D01*
X0315514Y0312018D01*
X0315410Y0312137D01*
X0315309Y0312259D01*
X0315212Y0312384D01*
X0315117Y0312511D01*
X0315026Y0312640D01*
X0314937Y0312771D01*
X0314853Y0312905D01*
X0314771Y0313041D01*
X0314693Y0313178D01*
X0314619Y0313318D01*
X0314548Y0313460D01*
X0314480Y0313603D01*
X0314416Y0313748D01*
X0314356Y0313894D01*
X0314300Y0314042D01*
X0314247Y0314191D01*
X0314198Y0314342D01*
X0314153Y0314494D01*
X0314112Y0314647D01*
X0314074Y0314800D01*
X0314041Y0314955D01*
X0314011Y0315111D01*
X0313985Y0315267D01*
X0313964Y0315424D01*
X0313946Y0315581D01*
X0313932Y0315739D01*
X0313922Y0315897D01*
X0313916Y0316055D01*
X0313914Y0316213D01*
X0030449Y0316213D02*
X0030451Y0316371D01*
X0030457Y0316529D01*
X0030467Y0316687D01*
X0030481Y0316845D01*
X0030499Y0317002D01*
X0030520Y0317159D01*
X0030546Y0317315D01*
X0030576Y0317471D01*
X0030609Y0317626D01*
X0030647Y0317779D01*
X0030688Y0317932D01*
X0030733Y0318084D01*
X0030782Y0318235D01*
X0030835Y0318384D01*
X0030891Y0318532D01*
X0030951Y0318678D01*
X0031015Y0318823D01*
X0031083Y0318966D01*
X0031154Y0319108D01*
X0031228Y0319248D01*
X0031306Y0319385D01*
X0031388Y0319521D01*
X0031472Y0319655D01*
X0031561Y0319786D01*
X0031652Y0319915D01*
X0031747Y0320042D01*
X0031844Y0320167D01*
X0031945Y0320289D01*
X0032049Y0320408D01*
X0032156Y0320525D01*
X0032266Y0320639D01*
X0032379Y0320750D01*
X0032494Y0320859D01*
X0032612Y0320964D01*
X0032733Y0321066D01*
X0032856Y0321166D01*
X0032982Y0321262D01*
X0033110Y0321355D01*
X0033240Y0321445D01*
X0033373Y0321531D01*
X0033508Y0321615D01*
X0033644Y0321694D01*
X0033783Y0321771D01*
X0033924Y0321843D01*
X0034066Y0321913D01*
X0034210Y0321978D01*
X0034356Y0322040D01*
X0034503Y0322098D01*
X0034652Y0322153D01*
X0034802Y0322204D01*
X0034953Y0322251D01*
X0035105Y0322294D01*
X0035258Y0322333D01*
X0035413Y0322369D01*
X0035568Y0322400D01*
X0035724Y0322428D01*
X0035880Y0322452D01*
X0036037Y0322472D01*
X0036195Y0322488D01*
X0036352Y0322500D01*
X0036511Y0322508D01*
X0036669Y0322512D01*
X0036827Y0322512D01*
X0036985Y0322508D01*
X0037144Y0322500D01*
X0037301Y0322488D01*
X0037459Y0322472D01*
X0037616Y0322452D01*
X0037772Y0322428D01*
X0037928Y0322400D01*
X0038083Y0322369D01*
X0038238Y0322333D01*
X0038391Y0322294D01*
X0038543Y0322251D01*
X0038694Y0322204D01*
X0038844Y0322153D01*
X0038993Y0322098D01*
X0039140Y0322040D01*
X0039286Y0321978D01*
X0039430Y0321913D01*
X0039572Y0321843D01*
X0039713Y0321771D01*
X0039852Y0321694D01*
X0039988Y0321615D01*
X0040123Y0321531D01*
X0040256Y0321445D01*
X0040386Y0321355D01*
X0040514Y0321262D01*
X0040640Y0321166D01*
X0040763Y0321066D01*
X0040884Y0320964D01*
X0041002Y0320859D01*
X0041117Y0320750D01*
X0041230Y0320639D01*
X0041340Y0320525D01*
X0041447Y0320408D01*
X0041551Y0320289D01*
X0041652Y0320167D01*
X0041749Y0320042D01*
X0041844Y0319915D01*
X0041935Y0319786D01*
X0042024Y0319655D01*
X0042108Y0319521D01*
X0042190Y0319385D01*
X0042268Y0319248D01*
X0042342Y0319108D01*
X0042413Y0318966D01*
X0042481Y0318823D01*
X0042545Y0318678D01*
X0042605Y0318532D01*
X0042661Y0318384D01*
X0042714Y0318235D01*
X0042763Y0318084D01*
X0042808Y0317932D01*
X0042849Y0317779D01*
X0042887Y0317626D01*
X0042920Y0317471D01*
X0042950Y0317315D01*
X0042976Y0317159D01*
X0042997Y0317002D01*
X0043015Y0316845D01*
X0043029Y0316687D01*
X0043039Y0316529D01*
X0043045Y0316371D01*
X0043047Y0316213D01*
X0043045Y0316055D01*
X0043039Y0315897D01*
X0043029Y0315739D01*
X0043015Y0315581D01*
X0042997Y0315424D01*
X0042976Y0315267D01*
X0042950Y0315111D01*
X0042920Y0314955D01*
X0042887Y0314800D01*
X0042849Y0314647D01*
X0042808Y0314494D01*
X0042763Y0314342D01*
X0042714Y0314191D01*
X0042661Y0314042D01*
X0042605Y0313894D01*
X0042545Y0313748D01*
X0042481Y0313603D01*
X0042413Y0313460D01*
X0042342Y0313318D01*
X0042268Y0313178D01*
X0042190Y0313041D01*
X0042108Y0312905D01*
X0042024Y0312771D01*
X0041935Y0312640D01*
X0041844Y0312511D01*
X0041749Y0312384D01*
X0041652Y0312259D01*
X0041551Y0312137D01*
X0041447Y0312018D01*
X0041340Y0311901D01*
X0041230Y0311787D01*
X0041117Y0311676D01*
X0041002Y0311567D01*
X0040884Y0311462D01*
X0040763Y0311360D01*
X0040640Y0311260D01*
X0040514Y0311164D01*
X0040386Y0311071D01*
X0040256Y0310981D01*
X0040123Y0310895D01*
X0039988Y0310811D01*
X0039852Y0310732D01*
X0039713Y0310655D01*
X0039572Y0310583D01*
X0039430Y0310513D01*
X0039286Y0310448D01*
X0039140Y0310386D01*
X0038993Y0310328D01*
X0038844Y0310273D01*
X0038694Y0310222D01*
X0038543Y0310175D01*
X0038391Y0310132D01*
X0038238Y0310093D01*
X0038083Y0310057D01*
X0037928Y0310026D01*
X0037772Y0309998D01*
X0037616Y0309974D01*
X0037459Y0309954D01*
X0037301Y0309938D01*
X0037144Y0309926D01*
X0036985Y0309918D01*
X0036827Y0309914D01*
X0036669Y0309914D01*
X0036511Y0309918D01*
X0036352Y0309926D01*
X0036195Y0309938D01*
X0036037Y0309954D01*
X0035880Y0309974D01*
X0035724Y0309998D01*
X0035568Y0310026D01*
X0035413Y0310057D01*
X0035258Y0310093D01*
X0035105Y0310132D01*
X0034953Y0310175D01*
X0034802Y0310222D01*
X0034652Y0310273D01*
X0034503Y0310328D01*
X0034356Y0310386D01*
X0034210Y0310448D01*
X0034066Y0310513D01*
X0033924Y0310583D01*
X0033783Y0310655D01*
X0033644Y0310732D01*
X0033508Y0310811D01*
X0033373Y0310895D01*
X0033240Y0310981D01*
X0033110Y0311071D01*
X0032982Y0311164D01*
X0032856Y0311260D01*
X0032733Y0311360D01*
X0032612Y0311462D01*
X0032494Y0311567D01*
X0032379Y0311676D01*
X0032266Y0311787D01*
X0032156Y0311901D01*
X0032049Y0312018D01*
X0031945Y0312137D01*
X0031844Y0312259D01*
X0031747Y0312384D01*
X0031652Y0312511D01*
X0031561Y0312640D01*
X0031472Y0312771D01*
X0031388Y0312905D01*
X0031306Y0313041D01*
X0031228Y0313178D01*
X0031154Y0313318D01*
X0031083Y0313460D01*
X0031015Y0313603D01*
X0030951Y0313748D01*
X0030891Y0313894D01*
X0030835Y0314042D01*
X0030782Y0314191D01*
X0030733Y0314342D01*
X0030688Y0314494D01*
X0030647Y0314647D01*
X0030609Y0314800D01*
X0030576Y0314955D01*
X0030546Y0315111D01*
X0030520Y0315267D01*
X0030499Y0315424D01*
X0030481Y0315581D01*
X0030467Y0315739D01*
X0030457Y0315897D01*
X0030451Y0316055D01*
X0030449Y0316213D01*
D15*
X0024956Y0316194D02*
X0024960Y0316484D01*
X0024970Y0316774D01*
X0024988Y0317063D01*
X0025013Y0317352D01*
X0025045Y0317640D01*
X0025084Y0317927D01*
X0025130Y0318213D01*
X0025183Y0318498D01*
X0025243Y0318782D01*
X0025310Y0319064D01*
X0025384Y0319344D01*
X0025465Y0319623D01*
X0025552Y0319899D01*
X0025646Y0320173D01*
X0025747Y0320445D01*
X0025855Y0320714D01*
X0025969Y0320980D01*
X0026090Y0321244D01*
X0026217Y0321504D01*
X0026351Y0321762D01*
X0026490Y0322016D01*
X0026636Y0322266D01*
X0026788Y0322513D01*
X0026947Y0322756D01*
X0027111Y0322995D01*
X0027280Y0323230D01*
X0027456Y0323461D01*
X0027637Y0323687D01*
X0027824Y0323909D01*
X0028016Y0324126D01*
X0028213Y0324338D01*
X0028415Y0324546D01*
X0028623Y0324748D01*
X0028835Y0324945D01*
X0029052Y0325137D01*
X0029274Y0325324D01*
X0029500Y0325505D01*
X0029731Y0325681D01*
X0029966Y0325850D01*
X0030205Y0326014D01*
X0030448Y0326173D01*
X0030695Y0326325D01*
X0030945Y0326471D01*
X0031199Y0326610D01*
X0031457Y0326744D01*
X0031717Y0326871D01*
X0031981Y0326992D01*
X0032247Y0327106D01*
X0032516Y0327214D01*
X0032788Y0327315D01*
X0033062Y0327409D01*
X0033338Y0327496D01*
X0033617Y0327577D01*
X0033897Y0327651D01*
X0034179Y0327718D01*
X0034463Y0327778D01*
X0034748Y0327831D01*
X0035034Y0327877D01*
X0035321Y0327916D01*
X0035609Y0327948D01*
X0035898Y0327973D01*
X0036187Y0327991D01*
X0036477Y0328001D01*
X0036767Y0328005D01*
X0037057Y0328001D01*
X0037347Y0327991D01*
X0037636Y0327973D01*
X0037925Y0327948D01*
X0038213Y0327916D01*
X0038500Y0327877D01*
X0038786Y0327831D01*
X0039071Y0327778D01*
X0039355Y0327718D01*
X0039637Y0327651D01*
X0039917Y0327577D01*
X0040196Y0327496D01*
X0040472Y0327409D01*
X0040746Y0327315D01*
X0041018Y0327214D01*
X0041287Y0327106D01*
X0041553Y0326992D01*
X0041817Y0326871D01*
X0042077Y0326744D01*
X0042335Y0326610D01*
X0042589Y0326471D01*
X0042839Y0326325D01*
X0043086Y0326173D01*
X0043329Y0326014D01*
X0043568Y0325850D01*
X0043803Y0325681D01*
X0044034Y0325505D01*
X0044260Y0325324D01*
X0044482Y0325137D01*
X0044699Y0324945D01*
X0044911Y0324748D01*
X0045119Y0324546D01*
X0045321Y0324338D01*
X0045518Y0324126D01*
X0045710Y0323909D01*
X0045897Y0323687D01*
X0046078Y0323461D01*
X0046254Y0323230D01*
X0046423Y0322995D01*
X0046587Y0322756D01*
X0046746Y0322513D01*
X0046898Y0322266D01*
X0047044Y0322016D01*
X0047183Y0321762D01*
X0047317Y0321504D01*
X0047444Y0321244D01*
X0047565Y0320980D01*
X0047679Y0320714D01*
X0047787Y0320445D01*
X0047888Y0320173D01*
X0047982Y0319899D01*
X0048069Y0319623D01*
X0048150Y0319344D01*
X0048224Y0319064D01*
X0048291Y0318782D01*
X0048351Y0318498D01*
X0048404Y0318213D01*
X0048450Y0317927D01*
X0048489Y0317640D01*
X0048521Y0317352D01*
X0048546Y0317063D01*
X0048564Y0316774D01*
X0048574Y0316484D01*
X0048578Y0316194D01*
X0048574Y0315904D01*
X0048564Y0315614D01*
X0048546Y0315325D01*
X0048521Y0315036D01*
X0048489Y0314748D01*
X0048450Y0314461D01*
X0048404Y0314175D01*
X0048351Y0313890D01*
X0048291Y0313606D01*
X0048224Y0313324D01*
X0048150Y0313044D01*
X0048069Y0312765D01*
X0047982Y0312489D01*
X0047888Y0312215D01*
X0047787Y0311943D01*
X0047679Y0311674D01*
X0047565Y0311408D01*
X0047444Y0311144D01*
X0047317Y0310884D01*
X0047183Y0310626D01*
X0047044Y0310372D01*
X0046898Y0310122D01*
X0046746Y0309875D01*
X0046587Y0309632D01*
X0046423Y0309393D01*
X0046254Y0309158D01*
X0046078Y0308927D01*
X0045897Y0308701D01*
X0045710Y0308479D01*
X0045518Y0308262D01*
X0045321Y0308050D01*
X0045119Y0307842D01*
X0044911Y0307640D01*
X0044699Y0307443D01*
X0044482Y0307251D01*
X0044260Y0307064D01*
X0044034Y0306883D01*
X0043803Y0306707D01*
X0043568Y0306538D01*
X0043329Y0306374D01*
X0043086Y0306215D01*
X0042839Y0306063D01*
X0042589Y0305917D01*
X0042335Y0305778D01*
X0042077Y0305644D01*
X0041817Y0305517D01*
X0041553Y0305396D01*
X0041287Y0305282D01*
X0041018Y0305174D01*
X0040746Y0305073D01*
X0040472Y0304979D01*
X0040196Y0304892D01*
X0039917Y0304811D01*
X0039637Y0304737D01*
X0039355Y0304670D01*
X0039071Y0304610D01*
X0038786Y0304557D01*
X0038500Y0304511D01*
X0038213Y0304472D01*
X0037925Y0304440D01*
X0037636Y0304415D01*
X0037347Y0304397D01*
X0037057Y0304387D01*
X0036767Y0304383D01*
X0036477Y0304387D01*
X0036187Y0304397D01*
X0035898Y0304415D01*
X0035609Y0304440D01*
X0035321Y0304472D01*
X0035034Y0304511D01*
X0034748Y0304557D01*
X0034463Y0304610D01*
X0034179Y0304670D01*
X0033897Y0304737D01*
X0033617Y0304811D01*
X0033338Y0304892D01*
X0033062Y0304979D01*
X0032788Y0305073D01*
X0032516Y0305174D01*
X0032247Y0305282D01*
X0031981Y0305396D01*
X0031717Y0305517D01*
X0031457Y0305644D01*
X0031199Y0305778D01*
X0030945Y0305917D01*
X0030695Y0306063D01*
X0030448Y0306215D01*
X0030205Y0306374D01*
X0029966Y0306538D01*
X0029731Y0306707D01*
X0029500Y0306883D01*
X0029274Y0307064D01*
X0029052Y0307251D01*
X0028835Y0307443D01*
X0028623Y0307640D01*
X0028415Y0307842D01*
X0028213Y0308050D01*
X0028016Y0308262D01*
X0027824Y0308479D01*
X0027637Y0308701D01*
X0027456Y0308927D01*
X0027280Y0309158D01*
X0027111Y0309393D01*
X0026947Y0309632D01*
X0026788Y0309875D01*
X0026636Y0310122D01*
X0026490Y0310372D01*
X0026351Y0310626D01*
X0026217Y0310884D01*
X0026090Y0311144D01*
X0025969Y0311408D01*
X0025855Y0311674D01*
X0025747Y0311943D01*
X0025646Y0312215D01*
X0025552Y0312489D01*
X0025465Y0312765D01*
X0025384Y0313044D01*
X0025310Y0313324D01*
X0025243Y0313606D01*
X0025183Y0313890D01*
X0025130Y0314175D01*
X0025084Y0314461D01*
X0025045Y0314748D01*
X0025013Y0315036D01*
X0024988Y0315325D01*
X0024970Y0315614D01*
X0024960Y0315904D01*
X0024956Y0316194D01*
X0190310Y0257139D02*
X0190314Y0257429D01*
X0190324Y0257719D01*
X0190342Y0258008D01*
X0190367Y0258297D01*
X0190399Y0258585D01*
X0190438Y0258872D01*
X0190484Y0259158D01*
X0190537Y0259443D01*
X0190597Y0259727D01*
X0190664Y0260009D01*
X0190738Y0260289D01*
X0190819Y0260568D01*
X0190906Y0260844D01*
X0191000Y0261118D01*
X0191101Y0261390D01*
X0191209Y0261659D01*
X0191323Y0261925D01*
X0191444Y0262189D01*
X0191571Y0262449D01*
X0191705Y0262707D01*
X0191844Y0262961D01*
X0191990Y0263211D01*
X0192142Y0263458D01*
X0192301Y0263701D01*
X0192465Y0263940D01*
X0192634Y0264175D01*
X0192810Y0264406D01*
X0192991Y0264632D01*
X0193178Y0264854D01*
X0193370Y0265071D01*
X0193567Y0265283D01*
X0193769Y0265491D01*
X0193977Y0265693D01*
X0194189Y0265890D01*
X0194406Y0266082D01*
X0194628Y0266269D01*
X0194854Y0266450D01*
X0195085Y0266626D01*
X0195320Y0266795D01*
X0195559Y0266959D01*
X0195802Y0267118D01*
X0196049Y0267270D01*
X0196299Y0267416D01*
X0196553Y0267555D01*
X0196811Y0267689D01*
X0197071Y0267816D01*
X0197335Y0267937D01*
X0197601Y0268051D01*
X0197870Y0268159D01*
X0198142Y0268260D01*
X0198416Y0268354D01*
X0198692Y0268441D01*
X0198971Y0268522D01*
X0199251Y0268596D01*
X0199533Y0268663D01*
X0199817Y0268723D01*
X0200102Y0268776D01*
X0200388Y0268822D01*
X0200675Y0268861D01*
X0200963Y0268893D01*
X0201252Y0268918D01*
X0201541Y0268936D01*
X0201831Y0268946D01*
X0202121Y0268950D01*
X0202411Y0268946D01*
X0202701Y0268936D01*
X0202990Y0268918D01*
X0203279Y0268893D01*
X0203567Y0268861D01*
X0203854Y0268822D01*
X0204140Y0268776D01*
X0204425Y0268723D01*
X0204709Y0268663D01*
X0204991Y0268596D01*
X0205271Y0268522D01*
X0205550Y0268441D01*
X0205826Y0268354D01*
X0206100Y0268260D01*
X0206372Y0268159D01*
X0206641Y0268051D01*
X0206907Y0267937D01*
X0207171Y0267816D01*
X0207431Y0267689D01*
X0207689Y0267555D01*
X0207943Y0267416D01*
X0208193Y0267270D01*
X0208440Y0267118D01*
X0208683Y0266959D01*
X0208922Y0266795D01*
X0209157Y0266626D01*
X0209388Y0266450D01*
X0209614Y0266269D01*
X0209836Y0266082D01*
X0210053Y0265890D01*
X0210265Y0265693D01*
X0210473Y0265491D01*
X0210675Y0265283D01*
X0210872Y0265071D01*
X0211064Y0264854D01*
X0211251Y0264632D01*
X0211432Y0264406D01*
X0211608Y0264175D01*
X0211777Y0263940D01*
X0211941Y0263701D01*
X0212100Y0263458D01*
X0212252Y0263211D01*
X0212398Y0262961D01*
X0212537Y0262707D01*
X0212671Y0262449D01*
X0212798Y0262189D01*
X0212919Y0261925D01*
X0213033Y0261659D01*
X0213141Y0261390D01*
X0213242Y0261118D01*
X0213336Y0260844D01*
X0213423Y0260568D01*
X0213504Y0260289D01*
X0213578Y0260009D01*
X0213645Y0259727D01*
X0213705Y0259443D01*
X0213758Y0259158D01*
X0213804Y0258872D01*
X0213843Y0258585D01*
X0213875Y0258297D01*
X0213900Y0258008D01*
X0213918Y0257719D01*
X0213928Y0257429D01*
X0213932Y0257139D01*
X0213928Y0256849D01*
X0213918Y0256559D01*
X0213900Y0256270D01*
X0213875Y0255981D01*
X0213843Y0255693D01*
X0213804Y0255406D01*
X0213758Y0255120D01*
X0213705Y0254835D01*
X0213645Y0254551D01*
X0213578Y0254269D01*
X0213504Y0253989D01*
X0213423Y0253710D01*
X0213336Y0253434D01*
X0213242Y0253160D01*
X0213141Y0252888D01*
X0213033Y0252619D01*
X0212919Y0252353D01*
X0212798Y0252089D01*
X0212671Y0251829D01*
X0212537Y0251571D01*
X0212398Y0251317D01*
X0212252Y0251067D01*
X0212100Y0250820D01*
X0211941Y0250577D01*
X0211777Y0250338D01*
X0211608Y0250103D01*
X0211432Y0249872D01*
X0211251Y0249646D01*
X0211064Y0249424D01*
X0210872Y0249207D01*
X0210675Y0248995D01*
X0210473Y0248787D01*
X0210265Y0248585D01*
X0210053Y0248388D01*
X0209836Y0248196D01*
X0209614Y0248009D01*
X0209388Y0247828D01*
X0209157Y0247652D01*
X0208922Y0247483D01*
X0208683Y0247319D01*
X0208440Y0247160D01*
X0208193Y0247008D01*
X0207943Y0246862D01*
X0207689Y0246723D01*
X0207431Y0246589D01*
X0207171Y0246462D01*
X0206907Y0246341D01*
X0206641Y0246227D01*
X0206372Y0246119D01*
X0206100Y0246018D01*
X0205826Y0245924D01*
X0205550Y0245837D01*
X0205271Y0245756D01*
X0204991Y0245682D01*
X0204709Y0245615D01*
X0204425Y0245555D01*
X0204140Y0245502D01*
X0203854Y0245456D01*
X0203567Y0245417D01*
X0203279Y0245385D01*
X0202990Y0245360D01*
X0202701Y0245342D01*
X0202411Y0245332D01*
X0202121Y0245328D01*
X0201831Y0245332D01*
X0201541Y0245342D01*
X0201252Y0245360D01*
X0200963Y0245385D01*
X0200675Y0245417D01*
X0200388Y0245456D01*
X0200102Y0245502D01*
X0199817Y0245555D01*
X0199533Y0245615D01*
X0199251Y0245682D01*
X0198971Y0245756D01*
X0198692Y0245837D01*
X0198416Y0245924D01*
X0198142Y0246018D01*
X0197870Y0246119D01*
X0197601Y0246227D01*
X0197335Y0246341D01*
X0197071Y0246462D01*
X0196811Y0246589D01*
X0196553Y0246723D01*
X0196299Y0246862D01*
X0196049Y0247008D01*
X0195802Y0247160D01*
X0195559Y0247319D01*
X0195320Y0247483D01*
X0195085Y0247652D01*
X0194854Y0247828D01*
X0194628Y0248009D01*
X0194406Y0248196D01*
X0194189Y0248388D01*
X0193977Y0248585D01*
X0193769Y0248787D01*
X0193567Y0248995D01*
X0193370Y0249207D01*
X0193178Y0249424D01*
X0192991Y0249646D01*
X0192810Y0249872D01*
X0192634Y0250103D01*
X0192465Y0250338D01*
X0192301Y0250577D01*
X0192142Y0250820D01*
X0191990Y0251067D01*
X0191844Y0251317D01*
X0191705Y0251571D01*
X0191571Y0251829D01*
X0191444Y0252089D01*
X0191323Y0252353D01*
X0191209Y0252619D01*
X0191101Y0252888D01*
X0191000Y0253160D01*
X0190906Y0253434D01*
X0190819Y0253710D01*
X0190738Y0253989D01*
X0190664Y0254269D01*
X0190597Y0254551D01*
X0190537Y0254835D01*
X0190484Y0255120D01*
X0190438Y0255406D01*
X0190399Y0255693D01*
X0190367Y0255981D01*
X0190342Y0256270D01*
X0190324Y0256559D01*
X0190314Y0256849D01*
X0190310Y0257139D01*
X0308420Y0316194D02*
X0308424Y0316484D01*
X0308434Y0316774D01*
X0308452Y0317063D01*
X0308477Y0317352D01*
X0308509Y0317640D01*
X0308548Y0317927D01*
X0308594Y0318213D01*
X0308647Y0318498D01*
X0308707Y0318782D01*
X0308774Y0319064D01*
X0308848Y0319344D01*
X0308929Y0319623D01*
X0309016Y0319899D01*
X0309110Y0320173D01*
X0309211Y0320445D01*
X0309319Y0320714D01*
X0309433Y0320980D01*
X0309554Y0321244D01*
X0309681Y0321504D01*
X0309815Y0321762D01*
X0309954Y0322016D01*
X0310100Y0322266D01*
X0310252Y0322513D01*
X0310411Y0322756D01*
X0310575Y0322995D01*
X0310744Y0323230D01*
X0310920Y0323461D01*
X0311101Y0323687D01*
X0311288Y0323909D01*
X0311480Y0324126D01*
X0311677Y0324338D01*
X0311879Y0324546D01*
X0312087Y0324748D01*
X0312299Y0324945D01*
X0312516Y0325137D01*
X0312738Y0325324D01*
X0312964Y0325505D01*
X0313195Y0325681D01*
X0313430Y0325850D01*
X0313669Y0326014D01*
X0313912Y0326173D01*
X0314159Y0326325D01*
X0314409Y0326471D01*
X0314663Y0326610D01*
X0314921Y0326744D01*
X0315181Y0326871D01*
X0315445Y0326992D01*
X0315711Y0327106D01*
X0315980Y0327214D01*
X0316252Y0327315D01*
X0316526Y0327409D01*
X0316802Y0327496D01*
X0317081Y0327577D01*
X0317361Y0327651D01*
X0317643Y0327718D01*
X0317927Y0327778D01*
X0318212Y0327831D01*
X0318498Y0327877D01*
X0318785Y0327916D01*
X0319073Y0327948D01*
X0319362Y0327973D01*
X0319651Y0327991D01*
X0319941Y0328001D01*
X0320231Y0328005D01*
X0320521Y0328001D01*
X0320811Y0327991D01*
X0321100Y0327973D01*
X0321389Y0327948D01*
X0321677Y0327916D01*
X0321964Y0327877D01*
X0322250Y0327831D01*
X0322535Y0327778D01*
X0322819Y0327718D01*
X0323101Y0327651D01*
X0323381Y0327577D01*
X0323660Y0327496D01*
X0323936Y0327409D01*
X0324210Y0327315D01*
X0324482Y0327214D01*
X0324751Y0327106D01*
X0325017Y0326992D01*
X0325281Y0326871D01*
X0325541Y0326744D01*
X0325799Y0326610D01*
X0326053Y0326471D01*
X0326303Y0326325D01*
X0326550Y0326173D01*
X0326793Y0326014D01*
X0327032Y0325850D01*
X0327267Y0325681D01*
X0327498Y0325505D01*
X0327724Y0325324D01*
X0327946Y0325137D01*
X0328163Y0324945D01*
X0328375Y0324748D01*
X0328583Y0324546D01*
X0328785Y0324338D01*
X0328982Y0324126D01*
X0329174Y0323909D01*
X0329361Y0323687D01*
X0329542Y0323461D01*
X0329718Y0323230D01*
X0329887Y0322995D01*
X0330051Y0322756D01*
X0330210Y0322513D01*
X0330362Y0322266D01*
X0330508Y0322016D01*
X0330647Y0321762D01*
X0330781Y0321504D01*
X0330908Y0321244D01*
X0331029Y0320980D01*
X0331143Y0320714D01*
X0331251Y0320445D01*
X0331352Y0320173D01*
X0331446Y0319899D01*
X0331533Y0319623D01*
X0331614Y0319344D01*
X0331688Y0319064D01*
X0331755Y0318782D01*
X0331815Y0318498D01*
X0331868Y0318213D01*
X0331914Y0317927D01*
X0331953Y0317640D01*
X0331985Y0317352D01*
X0332010Y0317063D01*
X0332028Y0316774D01*
X0332038Y0316484D01*
X0332042Y0316194D01*
X0332038Y0315904D01*
X0332028Y0315614D01*
X0332010Y0315325D01*
X0331985Y0315036D01*
X0331953Y0314748D01*
X0331914Y0314461D01*
X0331868Y0314175D01*
X0331815Y0313890D01*
X0331755Y0313606D01*
X0331688Y0313324D01*
X0331614Y0313044D01*
X0331533Y0312765D01*
X0331446Y0312489D01*
X0331352Y0312215D01*
X0331251Y0311943D01*
X0331143Y0311674D01*
X0331029Y0311408D01*
X0330908Y0311144D01*
X0330781Y0310884D01*
X0330647Y0310626D01*
X0330508Y0310372D01*
X0330362Y0310122D01*
X0330210Y0309875D01*
X0330051Y0309632D01*
X0329887Y0309393D01*
X0329718Y0309158D01*
X0329542Y0308927D01*
X0329361Y0308701D01*
X0329174Y0308479D01*
X0328982Y0308262D01*
X0328785Y0308050D01*
X0328583Y0307842D01*
X0328375Y0307640D01*
X0328163Y0307443D01*
X0327946Y0307251D01*
X0327724Y0307064D01*
X0327498Y0306883D01*
X0327267Y0306707D01*
X0327032Y0306538D01*
X0326793Y0306374D01*
X0326550Y0306215D01*
X0326303Y0306063D01*
X0326053Y0305917D01*
X0325799Y0305778D01*
X0325541Y0305644D01*
X0325281Y0305517D01*
X0325017Y0305396D01*
X0324751Y0305282D01*
X0324482Y0305174D01*
X0324210Y0305073D01*
X0323936Y0304979D01*
X0323660Y0304892D01*
X0323381Y0304811D01*
X0323101Y0304737D01*
X0322819Y0304670D01*
X0322535Y0304610D01*
X0322250Y0304557D01*
X0321964Y0304511D01*
X0321677Y0304472D01*
X0321389Y0304440D01*
X0321100Y0304415D01*
X0320811Y0304397D01*
X0320521Y0304387D01*
X0320231Y0304383D01*
X0319941Y0304387D01*
X0319651Y0304397D01*
X0319362Y0304415D01*
X0319073Y0304440D01*
X0318785Y0304472D01*
X0318498Y0304511D01*
X0318212Y0304557D01*
X0317927Y0304610D01*
X0317643Y0304670D01*
X0317361Y0304737D01*
X0317081Y0304811D01*
X0316802Y0304892D01*
X0316526Y0304979D01*
X0316252Y0305073D01*
X0315980Y0305174D01*
X0315711Y0305282D01*
X0315445Y0305396D01*
X0315181Y0305517D01*
X0314921Y0305644D01*
X0314663Y0305778D01*
X0314409Y0305917D01*
X0314159Y0306063D01*
X0313912Y0306215D01*
X0313669Y0306374D01*
X0313430Y0306538D01*
X0313195Y0306707D01*
X0312964Y0306883D01*
X0312738Y0307064D01*
X0312516Y0307251D01*
X0312299Y0307443D01*
X0312087Y0307640D01*
X0311879Y0307842D01*
X0311677Y0308050D01*
X0311480Y0308262D01*
X0311288Y0308479D01*
X0311101Y0308701D01*
X0310920Y0308927D01*
X0310744Y0309158D01*
X0310575Y0309393D01*
X0310411Y0309632D01*
X0310252Y0309875D01*
X0310100Y0310122D01*
X0309954Y0310372D01*
X0309815Y0310626D01*
X0309681Y0310884D01*
X0309554Y0311144D01*
X0309433Y0311408D01*
X0309319Y0311674D01*
X0309211Y0311943D01*
X0309110Y0312215D01*
X0309016Y0312489D01*
X0308929Y0312765D01*
X0308848Y0313044D01*
X0308774Y0313324D01*
X0308707Y0313606D01*
X0308647Y0313890D01*
X0308594Y0314175D01*
X0308548Y0314461D01*
X0308509Y0314748D01*
X0308477Y0315036D01*
X0308452Y0315325D01*
X0308434Y0315614D01*
X0308424Y0315904D01*
X0308420Y0316194D01*
X0190310Y0091784D02*
X0190314Y0092074D01*
X0190324Y0092364D01*
X0190342Y0092653D01*
X0190367Y0092942D01*
X0190399Y0093230D01*
X0190438Y0093517D01*
X0190484Y0093803D01*
X0190537Y0094088D01*
X0190597Y0094372D01*
X0190664Y0094654D01*
X0190738Y0094934D01*
X0190819Y0095213D01*
X0190906Y0095489D01*
X0191000Y0095763D01*
X0191101Y0096035D01*
X0191209Y0096304D01*
X0191323Y0096570D01*
X0191444Y0096834D01*
X0191571Y0097094D01*
X0191705Y0097352D01*
X0191844Y0097606D01*
X0191990Y0097856D01*
X0192142Y0098103D01*
X0192301Y0098346D01*
X0192465Y0098585D01*
X0192634Y0098820D01*
X0192810Y0099051D01*
X0192991Y0099277D01*
X0193178Y0099499D01*
X0193370Y0099716D01*
X0193567Y0099928D01*
X0193769Y0100136D01*
X0193977Y0100338D01*
X0194189Y0100535D01*
X0194406Y0100727D01*
X0194628Y0100914D01*
X0194854Y0101095D01*
X0195085Y0101271D01*
X0195320Y0101440D01*
X0195559Y0101604D01*
X0195802Y0101763D01*
X0196049Y0101915D01*
X0196299Y0102061D01*
X0196553Y0102200D01*
X0196811Y0102334D01*
X0197071Y0102461D01*
X0197335Y0102582D01*
X0197601Y0102696D01*
X0197870Y0102804D01*
X0198142Y0102905D01*
X0198416Y0102999D01*
X0198692Y0103086D01*
X0198971Y0103167D01*
X0199251Y0103241D01*
X0199533Y0103308D01*
X0199817Y0103368D01*
X0200102Y0103421D01*
X0200388Y0103467D01*
X0200675Y0103506D01*
X0200963Y0103538D01*
X0201252Y0103563D01*
X0201541Y0103581D01*
X0201831Y0103591D01*
X0202121Y0103595D01*
X0202411Y0103591D01*
X0202701Y0103581D01*
X0202990Y0103563D01*
X0203279Y0103538D01*
X0203567Y0103506D01*
X0203854Y0103467D01*
X0204140Y0103421D01*
X0204425Y0103368D01*
X0204709Y0103308D01*
X0204991Y0103241D01*
X0205271Y0103167D01*
X0205550Y0103086D01*
X0205826Y0102999D01*
X0206100Y0102905D01*
X0206372Y0102804D01*
X0206641Y0102696D01*
X0206907Y0102582D01*
X0207171Y0102461D01*
X0207431Y0102334D01*
X0207689Y0102200D01*
X0207943Y0102061D01*
X0208193Y0101915D01*
X0208440Y0101763D01*
X0208683Y0101604D01*
X0208922Y0101440D01*
X0209157Y0101271D01*
X0209388Y0101095D01*
X0209614Y0100914D01*
X0209836Y0100727D01*
X0210053Y0100535D01*
X0210265Y0100338D01*
X0210473Y0100136D01*
X0210675Y0099928D01*
X0210872Y0099716D01*
X0211064Y0099499D01*
X0211251Y0099277D01*
X0211432Y0099051D01*
X0211608Y0098820D01*
X0211777Y0098585D01*
X0211941Y0098346D01*
X0212100Y0098103D01*
X0212252Y0097856D01*
X0212398Y0097606D01*
X0212537Y0097352D01*
X0212671Y0097094D01*
X0212798Y0096834D01*
X0212919Y0096570D01*
X0213033Y0096304D01*
X0213141Y0096035D01*
X0213242Y0095763D01*
X0213336Y0095489D01*
X0213423Y0095213D01*
X0213504Y0094934D01*
X0213578Y0094654D01*
X0213645Y0094372D01*
X0213705Y0094088D01*
X0213758Y0093803D01*
X0213804Y0093517D01*
X0213843Y0093230D01*
X0213875Y0092942D01*
X0213900Y0092653D01*
X0213918Y0092364D01*
X0213928Y0092074D01*
X0213932Y0091784D01*
X0213928Y0091494D01*
X0213918Y0091204D01*
X0213900Y0090915D01*
X0213875Y0090626D01*
X0213843Y0090338D01*
X0213804Y0090051D01*
X0213758Y0089765D01*
X0213705Y0089480D01*
X0213645Y0089196D01*
X0213578Y0088914D01*
X0213504Y0088634D01*
X0213423Y0088355D01*
X0213336Y0088079D01*
X0213242Y0087805D01*
X0213141Y0087533D01*
X0213033Y0087264D01*
X0212919Y0086998D01*
X0212798Y0086734D01*
X0212671Y0086474D01*
X0212537Y0086216D01*
X0212398Y0085962D01*
X0212252Y0085712D01*
X0212100Y0085465D01*
X0211941Y0085222D01*
X0211777Y0084983D01*
X0211608Y0084748D01*
X0211432Y0084517D01*
X0211251Y0084291D01*
X0211064Y0084069D01*
X0210872Y0083852D01*
X0210675Y0083640D01*
X0210473Y0083432D01*
X0210265Y0083230D01*
X0210053Y0083033D01*
X0209836Y0082841D01*
X0209614Y0082654D01*
X0209388Y0082473D01*
X0209157Y0082297D01*
X0208922Y0082128D01*
X0208683Y0081964D01*
X0208440Y0081805D01*
X0208193Y0081653D01*
X0207943Y0081507D01*
X0207689Y0081368D01*
X0207431Y0081234D01*
X0207171Y0081107D01*
X0206907Y0080986D01*
X0206641Y0080872D01*
X0206372Y0080764D01*
X0206100Y0080663D01*
X0205826Y0080569D01*
X0205550Y0080482D01*
X0205271Y0080401D01*
X0204991Y0080327D01*
X0204709Y0080260D01*
X0204425Y0080200D01*
X0204140Y0080147D01*
X0203854Y0080101D01*
X0203567Y0080062D01*
X0203279Y0080030D01*
X0202990Y0080005D01*
X0202701Y0079987D01*
X0202411Y0079977D01*
X0202121Y0079973D01*
X0201831Y0079977D01*
X0201541Y0079987D01*
X0201252Y0080005D01*
X0200963Y0080030D01*
X0200675Y0080062D01*
X0200388Y0080101D01*
X0200102Y0080147D01*
X0199817Y0080200D01*
X0199533Y0080260D01*
X0199251Y0080327D01*
X0198971Y0080401D01*
X0198692Y0080482D01*
X0198416Y0080569D01*
X0198142Y0080663D01*
X0197870Y0080764D01*
X0197601Y0080872D01*
X0197335Y0080986D01*
X0197071Y0081107D01*
X0196811Y0081234D01*
X0196553Y0081368D01*
X0196299Y0081507D01*
X0196049Y0081653D01*
X0195802Y0081805D01*
X0195559Y0081964D01*
X0195320Y0082128D01*
X0195085Y0082297D01*
X0194854Y0082473D01*
X0194628Y0082654D01*
X0194406Y0082841D01*
X0194189Y0083033D01*
X0193977Y0083230D01*
X0193769Y0083432D01*
X0193567Y0083640D01*
X0193370Y0083852D01*
X0193178Y0084069D01*
X0192991Y0084291D01*
X0192810Y0084517D01*
X0192634Y0084748D01*
X0192465Y0084983D01*
X0192301Y0085222D01*
X0192142Y0085465D01*
X0191990Y0085712D01*
X0191844Y0085962D01*
X0191705Y0086216D01*
X0191571Y0086474D01*
X0191444Y0086734D01*
X0191323Y0086998D01*
X0191209Y0087264D01*
X0191101Y0087533D01*
X0191000Y0087805D01*
X0190906Y0088079D01*
X0190819Y0088355D01*
X0190738Y0088634D01*
X0190664Y0088914D01*
X0190597Y0089196D01*
X0190537Y0089480D01*
X0190484Y0089765D01*
X0190438Y0090051D01*
X0190399Y0090338D01*
X0190367Y0090626D01*
X0190342Y0090915D01*
X0190324Y0091204D01*
X0190314Y0091494D01*
X0190310Y0091784D01*
X0308420Y0032729D02*
X0308424Y0033019D01*
X0308434Y0033309D01*
X0308452Y0033598D01*
X0308477Y0033887D01*
X0308509Y0034175D01*
X0308548Y0034462D01*
X0308594Y0034748D01*
X0308647Y0035033D01*
X0308707Y0035317D01*
X0308774Y0035599D01*
X0308848Y0035879D01*
X0308929Y0036158D01*
X0309016Y0036434D01*
X0309110Y0036708D01*
X0309211Y0036980D01*
X0309319Y0037249D01*
X0309433Y0037515D01*
X0309554Y0037779D01*
X0309681Y0038039D01*
X0309815Y0038297D01*
X0309954Y0038551D01*
X0310100Y0038801D01*
X0310252Y0039048D01*
X0310411Y0039291D01*
X0310575Y0039530D01*
X0310744Y0039765D01*
X0310920Y0039996D01*
X0311101Y0040222D01*
X0311288Y0040444D01*
X0311480Y0040661D01*
X0311677Y0040873D01*
X0311879Y0041081D01*
X0312087Y0041283D01*
X0312299Y0041480D01*
X0312516Y0041672D01*
X0312738Y0041859D01*
X0312964Y0042040D01*
X0313195Y0042216D01*
X0313430Y0042385D01*
X0313669Y0042549D01*
X0313912Y0042708D01*
X0314159Y0042860D01*
X0314409Y0043006D01*
X0314663Y0043145D01*
X0314921Y0043279D01*
X0315181Y0043406D01*
X0315445Y0043527D01*
X0315711Y0043641D01*
X0315980Y0043749D01*
X0316252Y0043850D01*
X0316526Y0043944D01*
X0316802Y0044031D01*
X0317081Y0044112D01*
X0317361Y0044186D01*
X0317643Y0044253D01*
X0317927Y0044313D01*
X0318212Y0044366D01*
X0318498Y0044412D01*
X0318785Y0044451D01*
X0319073Y0044483D01*
X0319362Y0044508D01*
X0319651Y0044526D01*
X0319941Y0044536D01*
X0320231Y0044540D01*
X0320521Y0044536D01*
X0320811Y0044526D01*
X0321100Y0044508D01*
X0321389Y0044483D01*
X0321677Y0044451D01*
X0321964Y0044412D01*
X0322250Y0044366D01*
X0322535Y0044313D01*
X0322819Y0044253D01*
X0323101Y0044186D01*
X0323381Y0044112D01*
X0323660Y0044031D01*
X0323936Y0043944D01*
X0324210Y0043850D01*
X0324482Y0043749D01*
X0324751Y0043641D01*
X0325017Y0043527D01*
X0325281Y0043406D01*
X0325541Y0043279D01*
X0325799Y0043145D01*
X0326053Y0043006D01*
X0326303Y0042860D01*
X0326550Y0042708D01*
X0326793Y0042549D01*
X0327032Y0042385D01*
X0327267Y0042216D01*
X0327498Y0042040D01*
X0327724Y0041859D01*
X0327946Y0041672D01*
X0328163Y0041480D01*
X0328375Y0041283D01*
X0328583Y0041081D01*
X0328785Y0040873D01*
X0328982Y0040661D01*
X0329174Y0040444D01*
X0329361Y0040222D01*
X0329542Y0039996D01*
X0329718Y0039765D01*
X0329887Y0039530D01*
X0330051Y0039291D01*
X0330210Y0039048D01*
X0330362Y0038801D01*
X0330508Y0038551D01*
X0330647Y0038297D01*
X0330781Y0038039D01*
X0330908Y0037779D01*
X0331029Y0037515D01*
X0331143Y0037249D01*
X0331251Y0036980D01*
X0331352Y0036708D01*
X0331446Y0036434D01*
X0331533Y0036158D01*
X0331614Y0035879D01*
X0331688Y0035599D01*
X0331755Y0035317D01*
X0331815Y0035033D01*
X0331868Y0034748D01*
X0331914Y0034462D01*
X0331953Y0034175D01*
X0331985Y0033887D01*
X0332010Y0033598D01*
X0332028Y0033309D01*
X0332038Y0033019D01*
X0332042Y0032729D01*
X0332038Y0032439D01*
X0332028Y0032149D01*
X0332010Y0031860D01*
X0331985Y0031571D01*
X0331953Y0031283D01*
X0331914Y0030996D01*
X0331868Y0030710D01*
X0331815Y0030425D01*
X0331755Y0030141D01*
X0331688Y0029859D01*
X0331614Y0029579D01*
X0331533Y0029300D01*
X0331446Y0029024D01*
X0331352Y0028750D01*
X0331251Y0028478D01*
X0331143Y0028209D01*
X0331029Y0027943D01*
X0330908Y0027679D01*
X0330781Y0027419D01*
X0330647Y0027161D01*
X0330508Y0026907D01*
X0330362Y0026657D01*
X0330210Y0026410D01*
X0330051Y0026167D01*
X0329887Y0025928D01*
X0329718Y0025693D01*
X0329542Y0025462D01*
X0329361Y0025236D01*
X0329174Y0025014D01*
X0328982Y0024797D01*
X0328785Y0024585D01*
X0328583Y0024377D01*
X0328375Y0024175D01*
X0328163Y0023978D01*
X0327946Y0023786D01*
X0327724Y0023599D01*
X0327498Y0023418D01*
X0327267Y0023242D01*
X0327032Y0023073D01*
X0326793Y0022909D01*
X0326550Y0022750D01*
X0326303Y0022598D01*
X0326053Y0022452D01*
X0325799Y0022313D01*
X0325541Y0022179D01*
X0325281Y0022052D01*
X0325017Y0021931D01*
X0324751Y0021817D01*
X0324482Y0021709D01*
X0324210Y0021608D01*
X0323936Y0021514D01*
X0323660Y0021427D01*
X0323381Y0021346D01*
X0323101Y0021272D01*
X0322819Y0021205D01*
X0322535Y0021145D01*
X0322250Y0021092D01*
X0321964Y0021046D01*
X0321677Y0021007D01*
X0321389Y0020975D01*
X0321100Y0020950D01*
X0320811Y0020932D01*
X0320521Y0020922D01*
X0320231Y0020918D01*
X0319941Y0020922D01*
X0319651Y0020932D01*
X0319362Y0020950D01*
X0319073Y0020975D01*
X0318785Y0021007D01*
X0318498Y0021046D01*
X0318212Y0021092D01*
X0317927Y0021145D01*
X0317643Y0021205D01*
X0317361Y0021272D01*
X0317081Y0021346D01*
X0316802Y0021427D01*
X0316526Y0021514D01*
X0316252Y0021608D01*
X0315980Y0021709D01*
X0315711Y0021817D01*
X0315445Y0021931D01*
X0315181Y0022052D01*
X0314921Y0022179D01*
X0314663Y0022313D01*
X0314409Y0022452D01*
X0314159Y0022598D01*
X0313912Y0022750D01*
X0313669Y0022909D01*
X0313430Y0023073D01*
X0313195Y0023242D01*
X0312964Y0023418D01*
X0312738Y0023599D01*
X0312516Y0023786D01*
X0312299Y0023978D01*
X0312087Y0024175D01*
X0311879Y0024377D01*
X0311677Y0024585D01*
X0311480Y0024797D01*
X0311288Y0025014D01*
X0311101Y0025236D01*
X0310920Y0025462D01*
X0310744Y0025693D01*
X0310575Y0025928D01*
X0310411Y0026167D01*
X0310252Y0026410D01*
X0310100Y0026657D01*
X0309954Y0026907D01*
X0309815Y0027161D01*
X0309681Y0027419D01*
X0309554Y0027679D01*
X0309433Y0027943D01*
X0309319Y0028209D01*
X0309211Y0028478D01*
X0309110Y0028750D01*
X0309016Y0029024D01*
X0308929Y0029300D01*
X0308848Y0029579D01*
X0308774Y0029859D01*
X0308707Y0030141D01*
X0308647Y0030425D01*
X0308594Y0030710D01*
X0308548Y0030996D01*
X0308509Y0031283D01*
X0308477Y0031571D01*
X0308452Y0031860D01*
X0308434Y0032149D01*
X0308424Y0032439D01*
X0308420Y0032729D01*
X0024956Y0032729D02*
X0024960Y0033019D01*
X0024970Y0033309D01*
X0024988Y0033598D01*
X0025013Y0033887D01*
X0025045Y0034175D01*
X0025084Y0034462D01*
X0025130Y0034748D01*
X0025183Y0035033D01*
X0025243Y0035317D01*
X0025310Y0035599D01*
X0025384Y0035879D01*
X0025465Y0036158D01*
X0025552Y0036434D01*
X0025646Y0036708D01*
X0025747Y0036980D01*
X0025855Y0037249D01*
X0025969Y0037515D01*
X0026090Y0037779D01*
X0026217Y0038039D01*
X0026351Y0038297D01*
X0026490Y0038551D01*
X0026636Y0038801D01*
X0026788Y0039048D01*
X0026947Y0039291D01*
X0027111Y0039530D01*
X0027280Y0039765D01*
X0027456Y0039996D01*
X0027637Y0040222D01*
X0027824Y0040444D01*
X0028016Y0040661D01*
X0028213Y0040873D01*
X0028415Y0041081D01*
X0028623Y0041283D01*
X0028835Y0041480D01*
X0029052Y0041672D01*
X0029274Y0041859D01*
X0029500Y0042040D01*
X0029731Y0042216D01*
X0029966Y0042385D01*
X0030205Y0042549D01*
X0030448Y0042708D01*
X0030695Y0042860D01*
X0030945Y0043006D01*
X0031199Y0043145D01*
X0031457Y0043279D01*
X0031717Y0043406D01*
X0031981Y0043527D01*
X0032247Y0043641D01*
X0032516Y0043749D01*
X0032788Y0043850D01*
X0033062Y0043944D01*
X0033338Y0044031D01*
X0033617Y0044112D01*
X0033897Y0044186D01*
X0034179Y0044253D01*
X0034463Y0044313D01*
X0034748Y0044366D01*
X0035034Y0044412D01*
X0035321Y0044451D01*
X0035609Y0044483D01*
X0035898Y0044508D01*
X0036187Y0044526D01*
X0036477Y0044536D01*
X0036767Y0044540D01*
X0037057Y0044536D01*
X0037347Y0044526D01*
X0037636Y0044508D01*
X0037925Y0044483D01*
X0038213Y0044451D01*
X0038500Y0044412D01*
X0038786Y0044366D01*
X0039071Y0044313D01*
X0039355Y0044253D01*
X0039637Y0044186D01*
X0039917Y0044112D01*
X0040196Y0044031D01*
X0040472Y0043944D01*
X0040746Y0043850D01*
X0041018Y0043749D01*
X0041287Y0043641D01*
X0041553Y0043527D01*
X0041817Y0043406D01*
X0042077Y0043279D01*
X0042335Y0043145D01*
X0042589Y0043006D01*
X0042839Y0042860D01*
X0043086Y0042708D01*
X0043329Y0042549D01*
X0043568Y0042385D01*
X0043803Y0042216D01*
X0044034Y0042040D01*
X0044260Y0041859D01*
X0044482Y0041672D01*
X0044699Y0041480D01*
X0044911Y0041283D01*
X0045119Y0041081D01*
X0045321Y0040873D01*
X0045518Y0040661D01*
X0045710Y0040444D01*
X0045897Y0040222D01*
X0046078Y0039996D01*
X0046254Y0039765D01*
X0046423Y0039530D01*
X0046587Y0039291D01*
X0046746Y0039048D01*
X0046898Y0038801D01*
X0047044Y0038551D01*
X0047183Y0038297D01*
X0047317Y0038039D01*
X0047444Y0037779D01*
X0047565Y0037515D01*
X0047679Y0037249D01*
X0047787Y0036980D01*
X0047888Y0036708D01*
X0047982Y0036434D01*
X0048069Y0036158D01*
X0048150Y0035879D01*
X0048224Y0035599D01*
X0048291Y0035317D01*
X0048351Y0035033D01*
X0048404Y0034748D01*
X0048450Y0034462D01*
X0048489Y0034175D01*
X0048521Y0033887D01*
X0048546Y0033598D01*
X0048564Y0033309D01*
X0048574Y0033019D01*
X0048578Y0032729D01*
X0048574Y0032439D01*
X0048564Y0032149D01*
X0048546Y0031860D01*
X0048521Y0031571D01*
X0048489Y0031283D01*
X0048450Y0030996D01*
X0048404Y0030710D01*
X0048351Y0030425D01*
X0048291Y0030141D01*
X0048224Y0029859D01*
X0048150Y0029579D01*
X0048069Y0029300D01*
X0047982Y0029024D01*
X0047888Y0028750D01*
X0047787Y0028478D01*
X0047679Y0028209D01*
X0047565Y0027943D01*
X0047444Y0027679D01*
X0047317Y0027419D01*
X0047183Y0027161D01*
X0047044Y0026907D01*
X0046898Y0026657D01*
X0046746Y0026410D01*
X0046587Y0026167D01*
X0046423Y0025928D01*
X0046254Y0025693D01*
X0046078Y0025462D01*
X0045897Y0025236D01*
X0045710Y0025014D01*
X0045518Y0024797D01*
X0045321Y0024585D01*
X0045119Y0024377D01*
X0044911Y0024175D01*
X0044699Y0023978D01*
X0044482Y0023786D01*
X0044260Y0023599D01*
X0044034Y0023418D01*
X0043803Y0023242D01*
X0043568Y0023073D01*
X0043329Y0022909D01*
X0043086Y0022750D01*
X0042839Y0022598D01*
X0042589Y0022452D01*
X0042335Y0022313D01*
X0042077Y0022179D01*
X0041817Y0022052D01*
X0041553Y0021931D01*
X0041287Y0021817D01*
X0041018Y0021709D01*
X0040746Y0021608D01*
X0040472Y0021514D01*
X0040196Y0021427D01*
X0039917Y0021346D01*
X0039637Y0021272D01*
X0039355Y0021205D01*
X0039071Y0021145D01*
X0038786Y0021092D01*
X0038500Y0021046D01*
X0038213Y0021007D01*
X0037925Y0020975D01*
X0037636Y0020950D01*
X0037347Y0020932D01*
X0037057Y0020922D01*
X0036767Y0020918D01*
X0036477Y0020922D01*
X0036187Y0020932D01*
X0035898Y0020950D01*
X0035609Y0020975D01*
X0035321Y0021007D01*
X0035034Y0021046D01*
X0034748Y0021092D01*
X0034463Y0021145D01*
X0034179Y0021205D01*
X0033897Y0021272D01*
X0033617Y0021346D01*
X0033338Y0021427D01*
X0033062Y0021514D01*
X0032788Y0021608D01*
X0032516Y0021709D01*
X0032247Y0021817D01*
X0031981Y0021931D01*
X0031717Y0022052D01*
X0031457Y0022179D01*
X0031199Y0022313D01*
X0030945Y0022452D01*
X0030695Y0022598D01*
X0030448Y0022750D01*
X0030205Y0022909D01*
X0029966Y0023073D01*
X0029731Y0023242D01*
X0029500Y0023418D01*
X0029274Y0023599D01*
X0029052Y0023786D01*
X0028835Y0023978D01*
X0028623Y0024175D01*
X0028415Y0024377D01*
X0028213Y0024585D01*
X0028016Y0024797D01*
X0027824Y0025014D01*
X0027637Y0025236D01*
X0027456Y0025462D01*
X0027280Y0025693D01*
X0027111Y0025928D01*
X0026947Y0026167D01*
X0026788Y0026410D01*
X0026636Y0026657D01*
X0026490Y0026907D01*
X0026351Y0027161D01*
X0026217Y0027419D01*
X0026090Y0027679D01*
X0025969Y0027943D01*
X0025855Y0028209D01*
X0025747Y0028478D01*
X0025646Y0028750D01*
X0025552Y0029024D01*
X0025465Y0029300D01*
X0025384Y0029579D01*
X0025310Y0029859D01*
X0025243Y0030141D01*
X0025183Y0030425D01*
X0025130Y0030710D01*
X0025084Y0030996D01*
X0025045Y0031283D01*
X0025013Y0031571D01*
X0024988Y0031860D01*
X0024970Y0032149D01*
X0024960Y0032439D01*
X0024956Y0032729D01*
M02*
