%
M48
M72
T01C0.01772
T02C0.02362
T03C0.03937
T04C0.04000
T05C0.12598
%
T01
X188047Y314874
X168953Y314874
T02
X112400Y96300
X117300Y96300
X122400Y96300
X128200Y87300
X139500Y97500
X144500Y97500
X149500Y97500
X128000Y135000
X122400Y144600
X117000Y144600
X111600Y144600
X92500Y158500
X92500Y170800
X138000Y145500
X143000Y145500
X148000Y145500
X223700Y70300
X234300Y70100
X258200Y56600
X263200Y56600
X268200Y56600
X263200Y70100
X281200Y75100
X281200Y80100
X286200Y80100
X286200Y75100
X280800Y93000
X223200Y158800
X215800Y158800
X215800Y170600
X223200Y170600
X174400Y216100
X178500Y250000
X216900Y247800
X226250Y250700
X172000Y302000
X172000Y307000
X167000Y307000
X167000Y302000
X194100Y308300
X199000Y308300
X218300Y308400
X222700Y308400
X222500Y317000
X222500Y325500
X143400Y255900
T03
X178500Y41500
X192673Y326291
X164327Y326291
T04
X30961Y74461
X30961Y84461
X30961Y94461
X30961Y104461
X30961Y114461
X30961Y124461
X30961Y134461
X30961Y144461
X30961Y154461
X30961Y164461
X40961Y164461
X40961Y154461
X40961Y144461
X40961Y134461
X40961Y124461
X40961Y114461
X40961Y104461
X40961Y94461
X40961Y84461
X40961Y74461
X149100Y180000
X149100Y190000
X175000Y146000
X175000Y136000
X207000Y136000
X207000Y146000
X241000Y146000
X241000Y136000
X248600Y179800
X248600Y189800
X200800Y189900
X200800Y179900
X266500Y322000
X276500Y322000
X40961Y184461
X40961Y194461
X40961Y204461
X40961Y214461
X40961Y224461
X40961Y234461
X40961Y244461
X40961Y254461
X40961Y264461
X40961Y274461
X30961Y274461
X30961Y264461
X30961Y254461
X30961Y244461
X30961Y234461
X30961Y224461
X30961Y214461
X30961Y204461
X30961Y194461
X30961Y184461
T05
X36748Y32748
X202102Y91803
X320213Y32748
X202102Y257157
X320213Y316213
X36748Y316213
M30
