G75*
%MOIN*%
%OFA0B0*%
%FSLAX25Y25*%
%IPPOS*%
%LPD*%
%AMOC8*
5,1,8,0,0,1.08239X$1,22.5*
%
%ADD10C,0.00000*%
D10*
X0021000Y0028811D02*
X0032811Y0017000D01*
X0324150Y0017000D01*
X0335961Y0028811D01*
X0335961Y0320150D01*
X0324150Y0331961D01*
X0032811Y0331961D01*
X0021000Y0320150D01*
X0021000Y0028811D01*
X0030449Y0032748D02*
X0030451Y0032906D01*
X0030457Y0033064D01*
X0030467Y0033222D01*
X0030481Y0033380D01*
X0030499Y0033537D01*
X0030520Y0033694D01*
X0030546Y0033850D01*
X0030576Y0034006D01*
X0030609Y0034161D01*
X0030647Y0034314D01*
X0030688Y0034467D01*
X0030733Y0034619D01*
X0030782Y0034770D01*
X0030835Y0034919D01*
X0030891Y0035067D01*
X0030951Y0035213D01*
X0031015Y0035358D01*
X0031083Y0035501D01*
X0031154Y0035643D01*
X0031228Y0035783D01*
X0031306Y0035920D01*
X0031388Y0036056D01*
X0031472Y0036190D01*
X0031561Y0036321D01*
X0031652Y0036450D01*
X0031747Y0036577D01*
X0031844Y0036702D01*
X0031945Y0036824D01*
X0032049Y0036943D01*
X0032156Y0037060D01*
X0032266Y0037174D01*
X0032379Y0037285D01*
X0032494Y0037394D01*
X0032612Y0037499D01*
X0032733Y0037601D01*
X0032856Y0037701D01*
X0032982Y0037797D01*
X0033110Y0037890D01*
X0033240Y0037980D01*
X0033373Y0038066D01*
X0033508Y0038150D01*
X0033644Y0038229D01*
X0033783Y0038306D01*
X0033924Y0038378D01*
X0034066Y0038448D01*
X0034210Y0038513D01*
X0034356Y0038575D01*
X0034503Y0038633D01*
X0034652Y0038688D01*
X0034802Y0038739D01*
X0034953Y0038786D01*
X0035105Y0038829D01*
X0035258Y0038868D01*
X0035413Y0038904D01*
X0035568Y0038935D01*
X0035724Y0038963D01*
X0035880Y0038987D01*
X0036037Y0039007D01*
X0036195Y0039023D01*
X0036352Y0039035D01*
X0036511Y0039043D01*
X0036669Y0039047D01*
X0036827Y0039047D01*
X0036985Y0039043D01*
X0037144Y0039035D01*
X0037301Y0039023D01*
X0037459Y0039007D01*
X0037616Y0038987D01*
X0037772Y0038963D01*
X0037928Y0038935D01*
X0038083Y0038904D01*
X0038238Y0038868D01*
X0038391Y0038829D01*
X0038543Y0038786D01*
X0038694Y0038739D01*
X0038844Y0038688D01*
X0038993Y0038633D01*
X0039140Y0038575D01*
X0039286Y0038513D01*
X0039430Y0038448D01*
X0039572Y0038378D01*
X0039713Y0038306D01*
X0039852Y0038229D01*
X0039988Y0038150D01*
X0040123Y0038066D01*
X0040256Y0037980D01*
X0040386Y0037890D01*
X0040514Y0037797D01*
X0040640Y0037701D01*
X0040763Y0037601D01*
X0040884Y0037499D01*
X0041002Y0037394D01*
X0041117Y0037285D01*
X0041230Y0037174D01*
X0041340Y0037060D01*
X0041447Y0036943D01*
X0041551Y0036824D01*
X0041652Y0036702D01*
X0041749Y0036577D01*
X0041844Y0036450D01*
X0041935Y0036321D01*
X0042024Y0036190D01*
X0042108Y0036056D01*
X0042190Y0035920D01*
X0042268Y0035783D01*
X0042342Y0035643D01*
X0042413Y0035501D01*
X0042481Y0035358D01*
X0042545Y0035213D01*
X0042605Y0035067D01*
X0042661Y0034919D01*
X0042714Y0034770D01*
X0042763Y0034619D01*
X0042808Y0034467D01*
X0042849Y0034314D01*
X0042887Y0034161D01*
X0042920Y0034006D01*
X0042950Y0033850D01*
X0042976Y0033694D01*
X0042997Y0033537D01*
X0043015Y0033380D01*
X0043029Y0033222D01*
X0043039Y0033064D01*
X0043045Y0032906D01*
X0043047Y0032748D01*
X0043045Y0032590D01*
X0043039Y0032432D01*
X0043029Y0032274D01*
X0043015Y0032116D01*
X0042997Y0031959D01*
X0042976Y0031802D01*
X0042950Y0031646D01*
X0042920Y0031490D01*
X0042887Y0031335D01*
X0042849Y0031182D01*
X0042808Y0031029D01*
X0042763Y0030877D01*
X0042714Y0030726D01*
X0042661Y0030577D01*
X0042605Y0030429D01*
X0042545Y0030283D01*
X0042481Y0030138D01*
X0042413Y0029995D01*
X0042342Y0029853D01*
X0042268Y0029713D01*
X0042190Y0029576D01*
X0042108Y0029440D01*
X0042024Y0029306D01*
X0041935Y0029175D01*
X0041844Y0029046D01*
X0041749Y0028919D01*
X0041652Y0028794D01*
X0041551Y0028672D01*
X0041447Y0028553D01*
X0041340Y0028436D01*
X0041230Y0028322D01*
X0041117Y0028211D01*
X0041002Y0028102D01*
X0040884Y0027997D01*
X0040763Y0027895D01*
X0040640Y0027795D01*
X0040514Y0027699D01*
X0040386Y0027606D01*
X0040256Y0027516D01*
X0040123Y0027430D01*
X0039988Y0027346D01*
X0039852Y0027267D01*
X0039713Y0027190D01*
X0039572Y0027118D01*
X0039430Y0027048D01*
X0039286Y0026983D01*
X0039140Y0026921D01*
X0038993Y0026863D01*
X0038844Y0026808D01*
X0038694Y0026757D01*
X0038543Y0026710D01*
X0038391Y0026667D01*
X0038238Y0026628D01*
X0038083Y0026592D01*
X0037928Y0026561D01*
X0037772Y0026533D01*
X0037616Y0026509D01*
X0037459Y0026489D01*
X0037301Y0026473D01*
X0037144Y0026461D01*
X0036985Y0026453D01*
X0036827Y0026449D01*
X0036669Y0026449D01*
X0036511Y0026453D01*
X0036352Y0026461D01*
X0036195Y0026473D01*
X0036037Y0026489D01*
X0035880Y0026509D01*
X0035724Y0026533D01*
X0035568Y0026561D01*
X0035413Y0026592D01*
X0035258Y0026628D01*
X0035105Y0026667D01*
X0034953Y0026710D01*
X0034802Y0026757D01*
X0034652Y0026808D01*
X0034503Y0026863D01*
X0034356Y0026921D01*
X0034210Y0026983D01*
X0034066Y0027048D01*
X0033924Y0027118D01*
X0033783Y0027190D01*
X0033644Y0027267D01*
X0033508Y0027346D01*
X0033373Y0027430D01*
X0033240Y0027516D01*
X0033110Y0027606D01*
X0032982Y0027699D01*
X0032856Y0027795D01*
X0032733Y0027895D01*
X0032612Y0027997D01*
X0032494Y0028102D01*
X0032379Y0028211D01*
X0032266Y0028322D01*
X0032156Y0028436D01*
X0032049Y0028553D01*
X0031945Y0028672D01*
X0031844Y0028794D01*
X0031747Y0028919D01*
X0031652Y0029046D01*
X0031561Y0029175D01*
X0031472Y0029306D01*
X0031388Y0029440D01*
X0031306Y0029576D01*
X0031228Y0029713D01*
X0031154Y0029853D01*
X0031083Y0029995D01*
X0031015Y0030138D01*
X0030951Y0030283D01*
X0030891Y0030429D01*
X0030835Y0030577D01*
X0030782Y0030726D01*
X0030733Y0030877D01*
X0030688Y0031029D01*
X0030647Y0031182D01*
X0030609Y0031335D01*
X0030576Y0031490D01*
X0030546Y0031646D01*
X0030520Y0031802D01*
X0030499Y0031959D01*
X0030481Y0032116D01*
X0030467Y0032274D01*
X0030457Y0032432D01*
X0030451Y0032590D01*
X0030449Y0032748D01*
X0195803Y0091803D02*
X0195805Y0091961D01*
X0195811Y0092119D01*
X0195821Y0092277D01*
X0195835Y0092435D01*
X0195853Y0092592D01*
X0195874Y0092749D01*
X0195900Y0092905D01*
X0195930Y0093061D01*
X0195963Y0093216D01*
X0196001Y0093369D01*
X0196042Y0093522D01*
X0196087Y0093674D01*
X0196136Y0093825D01*
X0196189Y0093974D01*
X0196245Y0094122D01*
X0196305Y0094268D01*
X0196369Y0094413D01*
X0196437Y0094556D01*
X0196508Y0094698D01*
X0196582Y0094838D01*
X0196660Y0094975D01*
X0196742Y0095111D01*
X0196826Y0095245D01*
X0196915Y0095376D01*
X0197006Y0095505D01*
X0197101Y0095632D01*
X0197198Y0095757D01*
X0197299Y0095879D01*
X0197403Y0095998D01*
X0197510Y0096115D01*
X0197620Y0096229D01*
X0197733Y0096340D01*
X0197848Y0096449D01*
X0197966Y0096554D01*
X0198087Y0096656D01*
X0198210Y0096756D01*
X0198336Y0096852D01*
X0198464Y0096945D01*
X0198594Y0097035D01*
X0198727Y0097121D01*
X0198862Y0097205D01*
X0198998Y0097284D01*
X0199137Y0097361D01*
X0199278Y0097433D01*
X0199420Y0097503D01*
X0199564Y0097568D01*
X0199710Y0097630D01*
X0199857Y0097688D01*
X0200006Y0097743D01*
X0200156Y0097794D01*
X0200307Y0097841D01*
X0200459Y0097884D01*
X0200612Y0097923D01*
X0200767Y0097959D01*
X0200922Y0097990D01*
X0201078Y0098018D01*
X0201234Y0098042D01*
X0201391Y0098062D01*
X0201549Y0098078D01*
X0201706Y0098090D01*
X0201865Y0098098D01*
X0202023Y0098102D01*
X0202181Y0098102D01*
X0202339Y0098098D01*
X0202498Y0098090D01*
X0202655Y0098078D01*
X0202813Y0098062D01*
X0202970Y0098042D01*
X0203126Y0098018D01*
X0203282Y0097990D01*
X0203437Y0097959D01*
X0203592Y0097923D01*
X0203745Y0097884D01*
X0203897Y0097841D01*
X0204048Y0097794D01*
X0204198Y0097743D01*
X0204347Y0097688D01*
X0204494Y0097630D01*
X0204640Y0097568D01*
X0204784Y0097503D01*
X0204926Y0097433D01*
X0205067Y0097361D01*
X0205206Y0097284D01*
X0205342Y0097205D01*
X0205477Y0097121D01*
X0205610Y0097035D01*
X0205740Y0096945D01*
X0205868Y0096852D01*
X0205994Y0096756D01*
X0206117Y0096656D01*
X0206238Y0096554D01*
X0206356Y0096449D01*
X0206471Y0096340D01*
X0206584Y0096229D01*
X0206694Y0096115D01*
X0206801Y0095998D01*
X0206905Y0095879D01*
X0207006Y0095757D01*
X0207103Y0095632D01*
X0207198Y0095505D01*
X0207289Y0095376D01*
X0207378Y0095245D01*
X0207462Y0095111D01*
X0207544Y0094975D01*
X0207622Y0094838D01*
X0207696Y0094698D01*
X0207767Y0094556D01*
X0207835Y0094413D01*
X0207899Y0094268D01*
X0207959Y0094122D01*
X0208015Y0093974D01*
X0208068Y0093825D01*
X0208117Y0093674D01*
X0208162Y0093522D01*
X0208203Y0093369D01*
X0208241Y0093216D01*
X0208274Y0093061D01*
X0208304Y0092905D01*
X0208330Y0092749D01*
X0208351Y0092592D01*
X0208369Y0092435D01*
X0208383Y0092277D01*
X0208393Y0092119D01*
X0208399Y0091961D01*
X0208401Y0091803D01*
X0208399Y0091645D01*
X0208393Y0091487D01*
X0208383Y0091329D01*
X0208369Y0091171D01*
X0208351Y0091014D01*
X0208330Y0090857D01*
X0208304Y0090701D01*
X0208274Y0090545D01*
X0208241Y0090390D01*
X0208203Y0090237D01*
X0208162Y0090084D01*
X0208117Y0089932D01*
X0208068Y0089781D01*
X0208015Y0089632D01*
X0207959Y0089484D01*
X0207899Y0089338D01*
X0207835Y0089193D01*
X0207767Y0089050D01*
X0207696Y0088908D01*
X0207622Y0088768D01*
X0207544Y0088631D01*
X0207462Y0088495D01*
X0207378Y0088361D01*
X0207289Y0088230D01*
X0207198Y0088101D01*
X0207103Y0087974D01*
X0207006Y0087849D01*
X0206905Y0087727D01*
X0206801Y0087608D01*
X0206694Y0087491D01*
X0206584Y0087377D01*
X0206471Y0087266D01*
X0206356Y0087157D01*
X0206238Y0087052D01*
X0206117Y0086950D01*
X0205994Y0086850D01*
X0205868Y0086754D01*
X0205740Y0086661D01*
X0205610Y0086571D01*
X0205477Y0086485D01*
X0205342Y0086401D01*
X0205206Y0086322D01*
X0205067Y0086245D01*
X0204926Y0086173D01*
X0204784Y0086103D01*
X0204640Y0086038D01*
X0204494Y0085976D01*
X0204347Y0085918D01*
X0204198Y0085863D01*
X0204048Y0085812D01*
X0203897Y0085765D01*
X0203745Y0085722D01*
X0203592Y0085683D01*
X0203437Y0085647D01*
X0203282Y0085616D01*
X0203126Y0085588D01*
X0202970Y0085564D01*
X0202813Y0085544D01*
X0202655Y0085528D01*
X0202498Y0085516D01*
X0202339Y0085508D01*
X0202181Y0085504D01*
X0202023Y0085504D01*
X0201865Y0085508D01*
X0201706Y0085516D01*
X0201549Y0085528D01*
X0201391Y0085544D01*
X0201234Y0085564D01*
X0201078Y0085588D01*
X0200922Y0085616D01*
X0200767Y0085647D01*
X0200612Y0085683D01*
X0200459Y0085722D01*
X0200307Y0085765D01*
X0200156Y0085812D01*
X0200006Y0085863D01*
X0199857Y0085918D01*
X0199710Y0085976D01*
X0199564Y0086038D01*
X0199420Y0086103D01*
X0199278Y0086173D01*
X0199137Y0086245D01*
X0198998Y0086322D01*
X0198862Y0086401D01*
X0198727Y0086485D01*
X0198594Y0086571D01*
X0198464Y0086661D01*
X0198336Y0086754D01*
X0198210Y0086850D01*
X0198087Y0086950D01*
X0197966Y0087052D01*
X0197848Y0087157D01*
X0197733Y0087266D01*
X0197620Y0087377D01*
X0197510Y0087491D01*
X0197403Y0087608D01*
X0197299Y0087727D01*
X0197198Y0087849D01*
X0197101Y0087974D01*
X0197006Y0088101D01*
X0196915Y0088230D01*
X0196826Y0088361D01*
X0196742Y0088495D01*
X0196660Y0088631D01*
X0196582Y0088768D01*
X0196508Y0088908D01*
X0196437Y0089050D01*
X0196369Y0089193D01*
X0196305Y0089338D01*
X0196245Y0089484D01*
X0196189Y0089632D01*
X0196136Y0089781D01*
X0196087Y0089932D01*
X0196042Y0090084D01*
X0196001Y0090237D01*
X0195963Y0090390D01*
X0195930Y0090545D01*
X0195900Y0090701D01*
X0195874Y0090857D01*
X0195853Y0091014D01*
X0195835Y0091171D01*
X0195821Y0091329D01*
X0195811Y0091487D01*
X0195805Y0091645D01*
X0195803Y0091803D01*
X0313914Y0032748D02*
X0313916Y0032906D01*
X0313922Y0033064D01*
X0313932Y0033222D01*
X0313946Y0033380D01*
X0313964Y0033537D01*
X0313985Y0033694D01*
X0314011Y0033850D01*
X0314041Y0034006D01*
X0314074Y0034161D01*
X0314112Y0034314D01*
X0314153Y0034467D01*
X0314198Y0034619D01*
X0314247Y0034770D01*
X0314300Y0034919D01*
X0314356Y0035067D01*
X0314416Y0035213D01*
X0314480Y0035358D01*
X0314548Y0035501D01*
X0314619Y0035643D01*
X0314693Y0035783D01*
X0314771Y0035920D01*
X0314853Y0036056D01*
X0314937Y0036190D01*
X0315026Y0036321D01*
X0315117Y0036450D01*
X0315212Y0036577D01*
X0315309Y0036702D01*
X0315410Y0036824D01*
X0315514Y0036943D01*
X0315621Y0037060D01*
X0315731Y0037174D01*
X0315844Y0037285D01*
X0315959Y0037394D01*
X0316077Y0037499D01*
X0316198Y0037601D01*
X0316321Y0037701D01*
X0316447Y0037797D01*
X0316575Y0037890D01*
X0316705Y0037980D01*
X0316838Y0038066D01*
X0316973Y0038150D01*
X0317109Y0038229D01*
X0317248Y0038306D01*
X0317389Y0038378D01*
X0317531Y0038448D01*
X0317675Y0038513D01*
X0317821Y0038575D01*
X0317968Y0038633D01*
X0318117Y0038688D01*
X0318267Y0038739D01*
X0318418Y0038786D01*
X0318570Y0038829D01*
X0318723Y0038868D01*
X0318878Y0038904D01*
X0319033Y0038935D01*
X0319189Y0038963D01*
X0319345Y0038987D01*
X0319502Y0039007D01*
X0319660Y0039023D01*
X0319817Y0039035D01*
X0319976Y0039043D01*
X0320134Y0039047D01*
X0320292Y0039047D01*
X0320450Y0039043D01*
X0320609Y0039035D01*
X0320766Y0039023D01*
X0320924Y0039007D01*
X0321081Y0038987D01*
X0321237Y0038963D01*
X0321393Y0038935D01*
X0321548Y0038904D01*
X0321703Y0038868D01*
X0321856Y0038829D01*
X0322008Y0038786D01*
X0322159Y0038739D01*
X0322309Y0038688D01*
X0322458Y0038633D01*
X0322605Y0038575D01*
X0322751Y0038513D01*
X0322895Y0038448D01*
X0323037Y0038378D01*
X0323178Y0038306D01*
X0323317Y0038229D01*
X0323453Y0038150D01*
X0323588Y0038066D01*
X0323721Y0037980D01*
X0323851Y0037890D01*
X0323979Y0037797D01*
X0324105Y0037701D01*
X0324228Y0037601D01*
X0324349Y0037499D01*
X0324467Y0037394D01*
X0324582Y0037285D01*
X0324695Y0037174D01*
X0324805Y0037060D01*
X0324912Y0036943D01*
X0325016Y0036824D01*
X0325117Y0036702D01*
X0325214Y0036577D01*
X0325309Y0036450D01*
X0325400Y0036321D01*
X0325489Y0036190D01*
X0325573Y0036056D01*
X0325655Y0035920D01*
X0325733Y0035783D01*
X0325807Y0035643D01*
X0325878Y0035501D01*
X0325946Y0035358D01*
X0326010Y0035213D01*
X0326070Y0035067D01*
X0326126Y0034919D01*
X0326179Y0034770D01*
X0326228Y0034619D01*
X0326273Y0034467D01*
X0326314Y0034314D01*
X0326352Y0034161D01*
X0326385Y0034006D01*
X0326415Y0033850D01*
X0326441Y0033694D01*
X0326462Y0033537D01*
X0326480Y0033380D01*
X0326494Y0033222D01*
X0326504Y0033064D01*
X0326510Y0032906D01*
X0326512Y0032748D01*
X0326510Y0032590D01*
X0326504Y0032432D01*
X0326494Y0032274D01*
X0326480Y0032116D01*
X0326462Y0031959D01*
X0326441Y0031802D01*
X0326415Y0031646D01*
X0326385Y0031490D01*
X0326352Y0031335D01*
X0326314Y0031182D01*
X0326273Y0031029D01*
X0326228Y0030877D01*
X0326179Y0030726D01*
X0326126Y0030577D01*
X0326070Y0030429D01*
X0326010Y0030283D01*
X0325946Y0030138D01*
X0325878Y0029995D01*
X0325807Y0029853D01*
X0325733Y0029713D01*
X0325655Y0029576D01*
X0325573Y0029440D01*
X0325489Y0029306D01*
X0325400Y0029175D01*
X0325309Y0029046D01*
X0325214Y0028919D01*
X0325117Y0028794D01*
X0325016Y0028672D01*
X0324912Y0028553D01*
X0324805Y0028436D01*
X0324695Y0028322D01*
X0324582Y0028211D01*
X0324467Y0028102D01*
X0324349Y0027997D01*
X0324228Y0027895D01*
X0324105Y0027795D01*
X0323979Y0027699D01*
X0323851Y0027606D01*
X0323721Y0027516D01*
X0323588Y0027430D01*
X0323453Y0027346D01*
X0323317Y0027267D01*
X0323178Y0027190D01*
X0323037Y0027118D01*
X0322895Y0027048D01*
X0322751Y0026983D01*
X0322605Y0026921D01*
X0322458Y0026863D01*
X0322309Y0026808D01*
X0322159Y0026757D01*
X0322008Y0026710D01*
X0321856Y0026667D01*
X0321703Y0026628D01*
X0321548Y0026592D01*
X0321393Y0026561D01*
X0321237Y0026533D01*
X0321081Y0026509D01*
X0320924Y0026489D01*
X0320766Y0026473D01*
X0320609Y0026461D01*
X0320450Y0026453D01*
X0320292Y0026449D01*
X0320134Y0026449D01*
X0319976Y0026453D01*
X0319817Y0026461D01*
X0319660Y0026473D01*
X0319502Y0026489D01*
X0319345Y0026509D01*
X0319189Y0026533D01*
X0319033Y0026561D01*
X0318878Y0026592D01*
X0318723Y0026628D01*
X0318570Y0026667D01*
X0318418Y0026710D01*
X0318267Y0026757D01*
X0318117Y0026808D01*
X0317968Y0026863D01*
X0317821Y0026921D01*
X0317675Y0026983D01*
X0317531Y0027048D01*
X0317389Y0027118D01*
X0317248Y0027190D01*
X0317109Y0027267D01*
X0316973Y0027346D01*
X0316838Y0027430D01*
X0316705Y0027516D01*
X0316575Y0027606D01*
X0316447Y0027699D01*
X0316321Y0027795D01*
X0316198Y0027895D01*
X0316077Y0027997D01*
X0315959Y0028102D01*
X0315844Y0028211D01*
X0315731Y0028322D01*
X0315621Y0028436D01*
X0315514Y0028553D01*
X0315410Y0028672D01*
X0315309Y0028794D01*
X0315212Y0028919D01*
X0315117Y0029046D01*
X0315026Y0029175D01*
X0314937Y0029306D01*
X0314853Y0029440D01*
X0314771Y0029576D01*
X0314693Y0029713D01*
X0314619Y0029853D01*
X0314548Y0029995D01*
X0314480Y0030138D01*
X0314416Y0030283D01*
X0314356Y0030429D01*
X0314300Y0030577D01*
X0314247Y0030726D01*
X0314198Y0030877D01*
X0314153Y0031029D01*
X0314112Y0031182D01*
X0314074Y0031335D01*
X0314041Y0031490D01*
X0314011Y0031646D01*
X0313985Y0031802D01*
X0313964Y0031959D01*
X0313946Y0032116D01*
X0313932Y0032274D01*
X0313922Y0032432D01*
X0313916Y0032590D01*
X0313914Y0032748D01*
X0195803Y0257157D02*
X0195805Y0257315D01*
X0195811Y0257473D01*
X0195821Y0257631D01*
X0195835Y0257789D01*
X0195853Y0257946D01*
X0195874Y0258103D01*
X0195900Y0258259D01*
X0195930Y0258415D01*
X0195963Y0258570D01*
X0196001Y0258723D01*
X0196042Y0258876D01*
X0196087Y0259028D01*
X0196136Y0259179D01*
X0196189Y0259328D01*
X0196245Y0259476D01*
X0196305Y0259622D01*
X0196369Y0259767D01*
X0196437Y0259910D01*
X0196508Y0260052D01*
X0196582Y0260192D01*
X0196660Y0260329D01*
X0196742Y0260465D01*
X0196826Y0260599D01*
X0196915Y0260730D01*
X0197006Y0260859D01*
X0197101Y0260986D01*
X0197198Y0261111D01*
X0197299Y0261233D01*
X0197403Y0261352D01*
X0197510Y0261469D01*
X0197620Y0261583D01*
X0197733Y0261694D01*
X0197848Y0261803D01*
X0197966Y0261908D01*
X0198087Y0262010D01*
X0198210Y0262110D01*
X0198336Y0262206D01*
X0198464Y0262299D01*
X0198594Y0262389D01*
X0198727Y0262475D01*
X0198862Y0262559D01*
X0198998Y0262638D01*
X0199137Y0262715D01*
X0199278Y0262787D01*
X0199420Y0262857D01*
X0199564Y0262922D01*
X0199710Y0262984D01*
X0199857Y0263042D01*
X0200006Y0263097D01*
X0200156Y0263148D01*
X0200307Y0263195D01*
X0200459Y0263238D01*
X0200612Y0263277D01*
X0200767Y0263313D01*
X0200922Y0263344D01*
X0201078Y0263372D01*
X0201234Y0263396D01*
X0201391Y0263416D01*
X0201549Y0263432D01*
X0201706Y0263444D01*
X0201865Y0263452D01*
X0202023Y0263456D01*
X0202181Y0263456D01*
X0202339Y0263452D01*
X0202498Y0263444D01*
X0202655Y0263432D01*
X0202813Y0263416D01*
X0202970Y0263396D01*
X0203126Y0263372D01*
X0203282Y0263344D01*
X0203437Y0263313D01*
X0203592Y0263277D01*
X0203745Y0263238D01*
X0203897Y0263195D01*
X0204048Y0263148D01*
X0204198Y0263097D01*
X0204347Y0263042D01*
X0204494Y0262984D01*
X0204640Y0262922D01*
X0204784Y0262857D01*
X0204926Y0262787D01*
X0205067Y0262715D01*
X0205206Y0262638D01*
X0205342Y0262559D01*
X0205477Y0262475D01*
X0205610Y0262389D01*
X0205740Y0262299D01*
X0205868Y0262206D01*
X0205994Y0262110D01*
X0206117Y0262010D01*
X0206238Y0261908D01*
X0206356Y0261803D01*
X0206471Y0261694D01*
X0206584Y0261583D01*
X0206694Y0261469D01*
X0206801Y0261352D01*
X0206905Y0261233D01*
X0207006Y0261111D01*
X0207103Y0260986D01*
X0207198Y0260859D01*
X0207289Y0260730D01*
X0207378Y0260599D01*
X0207462Y0260465D01*
X0207544Y0260329D01*
X0207622Y0260192D01*
X0207696Y0260052D01*
X0207767Y0259910D01*
X0207835Y0259767D01*
X0207899Y0259622D01*
X0207959Y0259476D01*
X0208015Y0259328D01*
X0208068Y0259179D01*
X0208117Y0259028D01*
X0208162Y0258876D01*
X0208203Y0258723D01*
X0208241Y0258570D01*
X0208274Y0258415D01*
X0208304Y0258259D01*
X0208330Y0258103D01*
X0208351Y0257946D01*
X0208369Y0257789D01*
X0208383Y0257631D01*
X0208393Y0257473D01*
X0208399Y0257315D01*
X0208401Y0257157D01*
X0208399Y0256999D01*
X0208393Y0256841D01*
X0208383Y0256683D01*
X0208369Y0256525D01*
X0208351Y0256368D01*
X0208330Y0256211D01*
X0208304Y0256055D01*
X0208274Y0255899D01*
X0208241Y0255744D01*
X0208203Y0255591D01*
X0208162Y0255438D01*
X0208117Y0255286D01*
X0208068Y0255135D01*
X0208015Y0254986D01*
X0207959Y0254838D01*
X0207899Y0254692D01*
X0207835Y0254547D01*
X0207767Y0254404D01*
X0207696Y0254262D01*
X0207622Y0254122D01*
X0207544Y0253985D01*
X0207462Y0253849D01*
X0207378Y0253715D01*
X0207289Y0253584D01*
X0207198Y0253455D01*
X0207103Y0253328D01*
X0207006Y0253203D01*
X0206905Y0253081D01*
X0206801Y0252962D01*
X0206694Y0252845D01*
X0206584Y0252731D01*
X0206471Y0252620D01*
X0206356Y0252511D01*
X0206238Y0252406D01*
X0206117Y0252304D01*
X0205994Y0252204D01*
X0205868Y0252108D01*
X0205740Y0252015D01*
X0205610Y0251925D01*
X0205477Y0251839D01*
X0205342Y0251755D01*
X0205206Y0251676D01*
X0205067Y0251599D01*
X0204926Y0251527D01*
X0204784Y0251457D01*
X0204640Y0251392D01*
X0204494Y0251330D01*
X0204347Y0251272D01*
X0204198Y0251217D01*
X0204048Y0251166D01*
X0203897Y0251119D01*
X0203745Y0251076D01*
X0203592Y0251037D01*
X0203437Y0251001D01*
X0203282Y0250970D01*
X0203126Y0250942D01*
X0202970Y0250918D01*
X0202813Y0250898D01*
X0202655Y0250882D01*
X0202498Y0250870D01*
X0202339Y0250862D01*
X0202181Y0250858D01*
X0202023Y0250858D01*
X0201865Y0250862D01*
X0201706Y0250870D01*
X0201549Y0250882D01*
X0201391Y0250898D01*
X0201234Y0250918D01*
X0201078Y0250942D01*
X0200922Y0250970D01*
X0200767Y0251001D01*
X0200612Y0251037D01*
X0200459Y0251076D01*
X0200307Y0251119D01*
X0200156Y0251166D01*
X0200006Y0251217D01*
X0199857Y0251272D01*
X0199710Y0251330D01*
X0199564Y0251392D01*
X0199420Y0251457D01*
X0199278Y0251527D01*
X0199137Y0251599D01*
X0198998Y0251676D01*
X0198862Y0251755D01*
X0198727Y0251839D01*
X0198594Y0251925D01*
X0198464Y0252015D01*
X0198336Y0252108D01*
X0198210Y0252204D01*
X0198087Y0252304D01*
X0197966Y0252406D01*
X0197848Y0252511D01*
X0197733Y0252620D01*
X0197620Y0252731D01*
X0197510Y0252845D01*
X0197403Y0252962D01*
X0197299Y0253081D01*
X0197198Y0253203D01*
X0197101Y0253328D01*
X0197006Y0253455D01*
X0196915Y0253584D01*
X0196826Y0253715D01*
X0196742Y0253849D01*
X0196660Y0253985D01*
X0196582Y0254122D01*
X0196508Y0254262D01*
X0196437Y0254404D01*
X0196369Y0254547D01*
X0196305Y0254692D01*
X0196245Y0254838D01*
X0196189Y0254986D01*
X0196136Y0255135D01*
X0196087Y0255286D01*
X0196042Y0255438D01*
X0196001Y0255591D01*
X0195963Y0255744D01*
X0195930Y0255899D01*
X0195900Y0256055D01*
X0195874Y0256211D01*
X0195853Y0256368D01*
X0195835Y0256525D01*
X0195821Y0256683D01*
X0195811Y0256841D01*
X0195805Y0256999D01*
X0195803Y0257157D01*
X0313914Y0316213D02*
X0313916Y0316371D01*
X0313922Y0316529D01*
X0313932Y0316687D01*
X0313946Y0316845D01*
X0313964Y0317002D01*
X0313985Y0317159D01*
X0314011Y0317315D01*
X0314041Y0317471D01*
X0314074Y0317626D01*
X0314112Y0317779D01*
X0314153Y0317932D01*
X0314198Y0318084D01*
X0314247Y0318235D01*
X0314300Y0318384D01*
X0314356Y0318532D01*
X0314416Y0318678D01*
X0314480Y0318823D01*
X0314548Y0318966D01*
X0314619Y0319108D01*
X0314693Y0319248D01*
X0314771Y0319385D01*
X0314853Y0319521D01*
X0314937Y0319655D01*
X0315026Y0319786D01*
X0315117Y0319915D01*
X0315212Y0320042D01*
X0315309Y0320167D01*
X0315410Y0320289D01*
X0315514Y0320408D01*
X0315621Y0320525D01*
X0315731Y0320639D01*
X0315844Y0320750D01*
X0315959Y0320859D01*
X0316077Y0320964D01*
X0316198Y0321066D01*
X0316321Y0321166D01*
X0316447Y0321262D01*
X0316575Y0321355D01*
X0316705Y0321445D01*
X0316838Y0321531D01*
X0316973Y0321615D01*
X0317109Y0321694D01*
X0317248Y0321771D01*
X0317389Y0321843D01*
X0317531Y0321913D01*
X0317675Y0321978D01*
X0317821Y0322040D01*
X0317968Y0322098D01*
X0318117Y0322153D01*
X0318267Y0322204D01*
X0318418Y0322251D01*
X0318570Y0322294D01*
X0318723Y0322333D01*
X0318878Y0322369D01*
X0319033Y0322400D01*
X0319189Y0322428D01*
X0319345Y0322452D01*
X0319502Y0322472D01*
X0319660Y0322488D01*
X0319817Y0322500D01*
X0319976Y0322508D01*
X0320134Y0322512D01*
X0320292Y0322512D01*
X0320450Y0322508D01*
X0320609Y0322500D01*
X0320766Y0322488D01*
X0320924Y0322472D01*
X0321081Y0322452D01*
X0321237Y0322428D01*
X0321393Y0322400D01*
X0321548Y0322369D01*
X0321703Y0322333D01*
X0321856Y0322294D01*
X0322008Y0322251D01*
X0322159Y0322204D01*
X0322309Y0322153D01*
X0322458Y0322098D01*
X0322605Y0322040D01*
X0322751Y0321978D01*
X0322895Y0321913D01*
X0323037Y0321843D01*
X0323178Y0321771D01*
X0323317Y0321694D01*
X0323453Y0321615D01*
X0323588Y0321531D01*
X0323721Y0321445D01*
X0323851Y0321355D01*
X0323979Y0321262D01*
X0324105Y0321166D01*
X0324228Y0321066D01*
X0324349Y0320964D01*
X0324467Y0320859D01*
X0324582Y0320750D01*
X0324695Y0320639D01*
X0324805Y0320525D01*
X0324912Y0320408D01*
X0325016Y0320289D01*
X0325117Y0320167D01*
X0325214Y0320042D01*
X0325309Y0319915D01*
X0325400Y0319786D01*
X0325489Y0319655D01*
X0325573Y0319521D01*
X0325655Y0319385D01*
X0325733Y0319248D01*
X0325807Y0319108D01*
X0325878Y0318966D01*
X0325946Y0318823D01*
X0326010Y0318678D01*
X0326070Y0318532D01*
X0326126Y0318384D01*
X0326179Y0318235D01*
X0326228Y0318084D01*
X0326273Y0317932D01*
X0326314Y0317779D01*
X0326352Y0317626D01*
X0326385Y0317471D01*
X0326415Y0317315D01*
X0326441Y0317159D01*
X0326462Y0317002D01*
X0326480Y0316845D01*
X0326494Y0316687D01*
X0326504Y0316529D01*
X0326510Y0316371D01*
X0326512Y0316213D01*
X0326510Y0316055D01*
X0326504Y0315897D01*
X0326494Y0315739D01*
X0326480Y0315581D01*
X0326462Y0315424D01*
X0326441Y0315267D01*
X0326415Y0315111D01*
X0326385Y0314955D01*
X0326352Y0314800D01*
X0326314Y0314647D01*
X0326273Y0314494D01*
X0326228Y0314342D01*
X0326179Y0314191D01*
X0326126Y0314042D01*
X0326070Y0313894D01*
X0326010Y0313748D01*
X0325946Y0313603D01*
X0325878Y0313460D01*
X0325807Y0313318D01*
X0325733Y0313178D01*
X0325655Y0313041D01*
X0325573Y0312905D01*
X0325489Y0312771D01*
X0325400Y0312640D01*
X0325309Y0312511D01*
X0325214Y0312384D01*
X0325117Y0312259D01*
X0325016Y0312137D01*
X0324912Y0312018D01*
X0324805Y0311901D01*
X0324695Y0311787D01*
X0324582Y0311676D01*
X0324467Y0311567D01*
X0324349Y0311462D01*
X0324228Y0311360D01*
X0324105Y0311260D01*
X0323979Y0311164D01*
X0323851Y0311071D01*
X0323721Y0310981D01*
X0323588Y0310895D01*
X0323453Y0310811D01*
X0323317Y0310732D01*
X0323178Y0310655D01*
X0323037Y0310583D01*
X0322895Y0310513D01*
X0322751Y0310448D01*
X0322605Y0310386D01*
X0322458Y0310328D01*
X0322309Y0310273D01*
X0322159Y0310222D01*
X0322008Y0310175D01*
X0321856Y0310132D01*
X0321703Y0310093D01*
X0321548Y0310057D01*
X0321393Y0310026D01*
X0321237Y0309998D01*
X0321081Y0309974D01*
X0320924Y0309954D01*
X0320766Y0309938D01*
X0320609Y0309926D01*
X0320450Y0309918D01*
X0320292Y0309914D01*
X0320134Y0309914D01*
X0319976Y0309918D01*
X0319817Y0309926D01*
X0319660Y0309938D01*
X0319502Y0309954D01*
X0319345Y0309974D01*
X0319189Y0309998D01*
X0319033Y0310026D01*
X0318878Y0310057D01*
X0318723Y0310093D01*
X0318570Y0310132D01*
X0318418Y0310175D01*
X0318267Y0310222D01*
X0318117Y0310273D01*
X0317968Y0310328D01*
X0317821Y0310386D01*
X0317675Y0310448D01*
X0317531Y0310513D01*
X0317389Y0310583D01*
X0317248Y0310655D01*
X0317109Y0310732D01*
X0316973Y0310811D01*
X0316838Y0310895D01*
X0316705Y0310981D01*
X0316575Y0311071D01*
X0316447Y0311164D01*
X0316321Y0311260D01*
X0316198Y0311360D01*
X0316077Y0311462D01*
X0315959Y0311567D01*
X0315844Y0311676D01*
X0315731Y0311787D01*
X0315621Y0311901D01*
X0315514Y0312018D01*
X0315410Y0312137D01*
X0315309Y0312259D01*
X0315212Y0312384D01*
X0315117Y0312511D01*
X0315026Y0312640D01*
X0314937Y0312771D01*
X0314853Y0312905D01*
X0314771Y0313041D01*
X0314693Y0313178D01*
X0314619Y0313318D01*
X0314548Y0313460D01*
X0314480Y0313603D01*
X0314416Y0313748D01*
X0314356Y0313894D01*
X0314300Y0314042D01*
X0314247Y0314191D01*
X0314198Y0314342D01*
X0314153Y0314494D01*
X0314112Y0314647D01*
X0314074Y0314800D01*
X0314041Y0314955D01*
X0314011Y0315111D01*
X0313985Y0315267D01*
X0313964Y0315424D01*
X0313946Y0315581D01*
X0313932Y0315739D01*
X0313922Y0315897D01*
X0313916Y0316055D01*
X0313914Y0316213D01*
X0030449Y0316213D02*
X0030451Y0316371D01*
X0030457Y0316529D01*
X0030467Y0316687D01*
X0030481Y0316845D01*
X0030499Y0317002D01*
X0030520Y0317159D01*
X0030546Y0317315D01*
X0030576Y0317471D01*
X0030609Y0317626D01*
X0030647Y0317779D01*
X0030688Y0317932D01*
X0030733Y0318084D01*
X0030782Y0318235D01*
X0030835Y0318384D01*
X0030891Y0318532D01*
X0030951Y0318678D01*
X0031015Y0318823D01*
X0031083Y0318966D01*
X0031154Y0319108D01*
X0031228Y0319248D01*
X0031306Y0319385D01*
X0031388Y0319521D01*
X0031472Y0319655D01*
X0031561Y0319786D01*
X0031652Y0319915D01*
X0031747Y0320042D01*
X0031844Y0320167D01*
X0031945Y0320289D01*
X0032049Y0320408D01*
X0032156Y0320525D01*
X0032266Y0320639D01*
X0032379Y0320750D01*
X0032494Y0320859D01*
X0032612Y0320964D01*
X0032733Y0321066D01*
X0032856Y0321166D01*
X0032982Y0321262D01*
X0033110Y0321355D01*
X0033240Y0321445D01*
X0033373Y0321531D01*
X0033508Y0321615D01*
X0033644Y0321694D01*
X0033783Y0321771D01*
X0033924Y0321843D01*
X0034066Y0321913D01*
X0034210Y0321978D01*
X0034356Y0322040D01*
X0034503Y0322098D01*
X0034652Y0322153D01*
X0034802Y0322204D01*
X0034953Y0322251D01*
X0035105Y0322294D01*
X0035258Y0322333D01*
X0035413Y0322369D01*
X0035568Y0322400D01*
X0035724Y0322428D01*
X0035880Y0322452D01*
X0036037Y0322472D01*
X0036195Y0322488D01*
X0036352Y0322500D01*
X0036511Y0322508D01*
X0036669Y0322512D01*
X0036827Y0322512D01*
X0036985Y0322508D01*
X0037144Y0322500D01*
X0037301Y0322488D01*
X0037459Y0322472D01*
X0037616Y0322452D01*
X0037772Y0322428D01*
X0037928Y0322400D01*
X0038083Y0322369D01*
X0038238Y0322333D01*
X0038391Y0322294D01*
X0038543Y0322251D01*
X0038694Y0322204D01*
X0038844Y0322153D01*
X0038993Y0322098D01*
X0039140Y0322040D01*
X0039286Y0321978D01*
X0039430Y0321913D01*
X0039572Y0321843D01*
X0039713Y0321771D01*
X0039852Y0321694D01*
X0039988Y0321615D01*
X0040123Y0321531D01*
X0040256Y0321445D01*
X0040386Y0321355D01*
X0040514Y0321262D01*
X0040640Y0321166D01*
X0040763Y0321066D01*
X0040884Y0320964D01*
X0041002Y0320859D01*
X0041117Y0320750D01*
X0041230Y0320639D01*
X0041340Y0320525D01*
X0041447Y0320408D01*
X0041551Y0320289D01*
X0041652Y0320167D01*
X0041749Y0320042D01*
X0041844Y0319915D01*
X0041935Y0319786D01*
X0042024Y0319655D01*
X0042108Y0319521D01*
X0042190Y0319385D01*
X0042268Y0319248D01*
X0042342Y0319108D01*
X0042413Y0318966D01*
X0042481Y0318823D01*
X0042545Y0318678D01*
X0042605Y0318532D01*
X0042661Y0318384D01*
X0042714Y0318235D01*
X0042763Y0318084D01*
X0042808Y0317932D01*
X0042849Y0317779D01*
X0042887Y0317626D01*
X0042920Y0317471D01*
X0042950Y0317315D01*
X0042976Y0317159D01*
X0042997Y0317002D01*
X0043015Y0316845D01*
X0043029Y0316687D01*
X0043039Y0316529D01*
X0043045Y0316371D01*
X0043047Y0316213D01*
X0043045Y0316055D01*
X0043039Y0315897D01*
X0043029Y0315739D01*
X0043015Y0315581D01*
X0042997Y0315424D01*
X0042976Y0315267D01*
X0042950Y0315111D01*
X0042920Y0314955D01*
X0042887Y0314800D01*
X0042849Y0314647D01*
X0042808Y0314494D01*
X0042763Y0314342D01*
X0042714Y0314191D01*
X0042661Y0314042D01*
X0042605Y0313894D01*
X0042545Y0313748D01*
X0042481Y0313603D01*
X0042413Y0313460D01*
X0042342Y0313318D01*
X0042268Y0313178D01*
X0042190Y0313041D01*
X0042108Y0312905D01*
X0042024Y0312771D01*
X0041935Y0312640D01*
X0041844Y0312511D01*
X0041749Y0312384D01*
X0041652Y0312259D01*
X0041551Y0312137D01*
X0041447Y0312018D01*
X0041340Y0311901D01*
X0041230Y0311787D01*
X0041117Y0311676D01*
X0041002Y0311567D01*
X0040884Y0311462D01*
X0040763Y0311360D01*
X0040640Y0311260D01*
X0040514Y0311164D01*
X0040386Y0311071D01*
X0040256Y0310981D01*
X0040123Y0310895D01*
X0039988Y0310811D01*
X0039852Y0310732D01*
X0039713Y0310655D01*
X0039572Y0310583D01*
X0039430Y0310513D01*
X0039286Y0310448D01*
X0039140Y0310386D01*
X0038993Y0310328D01*
X0038844Y0310273D01*
X0038694Y0310222D01*
X0038543Y0310175D01*
X0038391Y0310132D01*
X0038238Y0310093D01*
X0038083Y0310057D01*
X0037928Y0310026D01*
X0037772Y0309998D01*
X0037616Y0309974D01*
X0037459Y0309954D01*
X0037301Y0309938D01*
X0037144Y0309926D01*
X0036985Y0309918D01*
X0036827Y0309914D01*
X0036669Y0309914D01*
X0036511Y0309918D01*
X0036352Y0309926D01*
X0036195Y0309938D01*
X0036037Y0309954D01*
X0035880Y0309974D01*
X0035724Y0309998D01*
X0035568Y0310026D01*
X0035413Y0310057D01*
X0035258Y0310093D01*
X0035105Y0310132D01*
X0034953Y0310175D01*
X0034802Y0310222D01*
X0034652Y0310273D01*
X0034503Y0310328D01*
X0034356Y0310386D01*
X0034210Y0310448D01*
X0034066Y0310513D01*
X0033924Y0310583D01*
X0033783Y0310655D01*
X0033644Y0310732D01*
X0033508Y0310811D01*
X0033373Y0310895D01*
X0033240Y0310981D01*
X0033110Y0311071D01*
X0032982Y0311164D01*
X0032856Y0311260D01*
X0032733Y0311360D01*
X0032612Y0311462D01*
X0032494Y0311567D01*
X0032379Y0311676D01*
X0032266Y0311787D01*
X0032156Y0311901D01*
X0032049Y0312018D01*
X0031945Y0312137D01*
X0031844Y0312259D01*
X0031747Y0312384D01*
X0031652Y0312511D01*
X0031561Y0312640D01*
X0031472Y0312771D01*
X0031388Y0312905D01*
X0031306Y0313041D01*
X0031228Y0313178D01*
X0031154Y0313318D01*
X0031083Y0313460D01*
X0031015Y0313603D01*
X0030951Y0313748D01*
X0030891Y0313894D01*
X0030835Y0314042D01*
X0030782Y0314191D01*
X0030733Y0314342D01*
X0030688Y0314494D01*
X0030647Y0314647D01*
X0030609Y0314800D01*
X0030576Y0314955D01*
X0030546Y0315111D01*
X0030520Y0315267D01*
X0030499Y0315424D01*
X0030481Y0315581D01*
X0030467Y0315739D01*
X0030457Y0315897D01*
X0030451Y0316055D01*
X0030449Y0316213D01*
M02*
