G75*
%MOIN*%
%OFA0B0*%
%FSLAX25Y25*%
%IPPOS*%
%LPD*%
%AMOC8*
5,1,8,0,0,1.08239X$1,22.5*
%
%ADD10C,0.07600*%
%ADD11R,0.03772X0.03772*%
%ADD12R,0.07600X0.07600*%
%ADD13C,0.06000*%
%ADD14C,0.00000*%
%ADD15OC8,0.06000*%
%ADD16R,0.06000X0.06000*%
%ADD17R,0.03562X0.03562*%
%ADD18C,0.01600*%
%ADD19C,0.01000*%
D10*
X0178500Y0041500D03*
D11*
X0168953Y0314874D03*
X0188047Y0314874D03*
D12*
X0192673Y0326291D03*
X0164327Y0326291D03*
D13*
X0266500Y0325000D02*
X0266500Y0319000D01*
X0276500Y0319000D02*
X0276500Y0325000D01*
X0251600Y0189800D02*
X0245600Y0189800D01*
X0245600Y0179800D02*
X0251600Y0179800D01*
X0244000Y0146000D02*
X0238000Y0146000D01*
X0238000Y0136000D02*
X0244000Y0136000D01*
X0210000Y0136000D02*
X0204000Y0136000D01*
X0204000Y0146000D02*
X0210000Y0146000D01*
X0178000Y0146000D02*
X0172000Y0146000D01*
X0172000Y0136000D02*
X0178000Y0136000D01*
X0197800Y0179900D02*
X0203800Y0179900D01*
X0203800Y0189900D02*
X0197800Y0189900D01*
X0152100Y0190000D02*
X0146100Y0190000D01*
X0146100Y0180000D02*
X0152100Y0180000D01*
D14*
X0195803Y0257157D02*
X0195805Y0257315D01*
X0195811Y0257473D01*
X0195821Y0257631D01*
X0195835Y0257789D01*
X0195853Y0257946D01*
X0195874Y0258103D01*
X0195900Y0258259D01*
X0195930Y0258415D01*
X0195963Y0258570D01*
X0196001Y0258723D01*
X0196042Y0258876D01*
X0196087Y0259028D01*
X0196136Y0259179D01*
X0196189Y0259328D01*
X0196245Y0259476D01*
X0196305Y0259622D01*
X0196369Y0259767D01*
X0196437Y0259910D01*
X0196508Y0260052D01*
X0196582Y0260192D01*
X0196660Y0260329D01*
X0196742Y0260465D01*
X0196826Y0260599D01*
X0196915Y0260730D01*
X0197006Y0260859D01*
X0197101Y0260986D01*
X0197198Y0261111D01*
X0197299Y0261233D01*
X0197403Y0261352D01*
X0197510Y0261469D01*
X0197620Y0261583D01*
X0197733Y0261694D01*
X0197848Y0261803D01*
X0197966Y0261908D01*
X0198087Y0262010D01*
X0198210Y0262110D01*
X0198336Y0262206D01*
X0198464Y0262299D01*
X0198594Y0262389D01*
X0198727Y0262475D01*
X0198862Y0262559D01*
X0198998Y0262638D01*
X0199137Y0262715D01*
X0199278Y0262787D01*
X0199420Y0262857D01*
X0199564Y0262922D01*
X0199710Y0262984D01*
X0199857Y0263042D01*
X0200006Y0263097D01*
X0200156Y0263148D01*
X0200307Y0263195D01*
X0200459Y0263238D01*
X0200612Y0263277D01*
X0200767Y0263313D01*
X0200922Y0263344D01*
X0201078Y0263372D01*
X0201234Y0263396D01*
X0201391Y0263416D01*
X0201549Y0263432D01*
X0201706Y0263444D01*
X0201865Y0263452D01*
X0202023Y0263456D01*
X0202181Y0263456D01*
X0202339Y0263452D01*
X0202498Y0263444D01*
X0202655Y0263432D01*
X0202813Y0263416D01*
X0202970Y0263396D01*
X0203126Y0263372D01*
X0203282Y0263344D01*
X0203437Y0263313D01*
X0203592Y0263277D01*
X0203745Y0263238D01*
X0203897Y0263195D01*
X0204048Y0263148D01*
X0204198Y0263097D01*
X0204347Y0263042D01*
X0204494Y0262984D01*
X0204640Y0262922D01*
X0204784Y0262857D01*
X0204926Y0262787D01*
X0205067Y0262715D01*
X0205206Y0262638D01*
X0205342Y0262559D01*
X0205477Y0262475D01*
X0205610Y0262389D01*
X0205740Y0262299D01*
X0205868Y0262206D01*
X0205994Y0262110D01*
X0206117Y0262010D01*
X0206238Y0261908D01*
X0206356Y0261803D01*
X0206471Y0261694D01*
X0206584Y0261583D01*
X0206694Y0261469D01*
X0206801Y0261352D01*
X0206905Y0261233D01*
X0207006Y0261111D01*
X0207103Y0260986D01*
X0207198Y0260859D01*
X0207289Y0260730D01*
X0207378Y0260599D01*
X0207462Y0260465D01*
X0207544Y0260329D01*
X0207622Y0260192D01*
X0207696Y0260052D01*
X0207767Y0259910D01*
X0207835Y0259767D01*
X0207899Y0259622D01*
X0207959Y0259476D01*
X0208015Y0259328D01*
X0208068Y0259179D01*
X0208117Y0259028D01*
X0208162Y0258876D01*
X0208203Y0258723D01*
X0208241Y0258570D01*
X0208274Y0258415D01*
X0208304Y0258259D01*
X0208330Y0258103D01*
X0208351Y0257946D01*
X0208369Y0257789D01*
X0208383Y0257631D01*
X0208393Y0257473D01*
X0208399Y0257315D01*
X0208401Y0257157D01*
X0208399Y0256999D01*
X0208393Y0256841D01*
X0208383Y0256683D01*
X0208369Y0256525D01*
X0208351Y0256368D01*
X0208330Y0256211D01*
X0208304Y0256055D01*
X0208274Y0255899D01*
X0208241Y0255744D01*
X0208203Y0255591D01*
X0208162Y0255438D01*
X0208117Y0255286D01*
X0208068Y0255135D01*
X0208015Y0254986D01*
X0207959Y0254838D01*
X0207899Y0254692D01*
X0207835Y0254547D01*
X0207767Y0254404D01*
X0207696Y0254262D01*
X0207622Y0254122D01*
X0207544Y0253985D01*
X0207462Y0253849D01*
X0207378Y0253715D01*
X0207289Y0253584D01*
X0207198Y0253455D01*
X0207103Y0253328D01*
X0207006Y0253203D01*
X0206905Y0253081D01*
X0206801Y0252962D01*
X0206694Y0252845D01*
X0206584Y0252731D01*
X0206471Y0252620D01*
X0206356Y0252511D01*
X0206238Y0252406D01*
X0206117Y0252304D01*
X0205994Y0252204D01*
X0205868Y0252108D01*
X0205740Y0252015D01*
X0205610Y0251925D01*
X0205477Y0251839D01*
X0205342Y0251755D01*
X0205206Y0251676D01*
X0205067Y0251599D01*
X0204926Y0251527D01*
X0204784Y0251457D01*
X0204640Y0251392D01*
X0204494Y0251330D01*
X0204347Y0251272D01*
X0204198Y0251217D01*
X0204048Y0251166D01*
X0203897Y0251119D01*
X0203745Y0251076D01*
X0203592Y0251037D01*
X0203437Y0251001D01*
X0203282Y0250970D01*
X0203126Y0250942D01*
X0202970Y0250918D01*
X0202813Y0250898D01*
X0202655Y0250882D01*
X0202498Y0250870D01*
X0202339Y0250862D01*
X0202181Y0250858D01*
X0202023Y0250858D01*
X0201865Y0250862D01*
X0201706Y0250870D01*
X0201549Y0250882D01*
X0201391Y0250898D01*
X0201234Y0250918D01*
X0201078Y0250942D01*
X0200922Y0250970D01*
X0200767Y0251001D01*
X0200612Y0251037D01*
X0200459Y0251076D01*
X0200307Y0251119D01*
X0200156Y0251166D01*
X0200006Y0251217D01*
X0199857Y0251272D01*
X0199710Y0251330D01*
X0199564Y0251392D01*
X0199420Y0251457D01*
X0199278Y0251527D01*
X0199137Y0251599D01*
X0198998Y0251676D01*
X0198862Y0251755D01*
X0198727Y0251839D01*
X0198594Y0251925D01*
X0198464Y0252015D01*
X0198336Y0252108D01*
X0198210Y0252204D01*
X0198087Y0252304D01*
X0197966Y0252406D01*
X0197848Y0252511D01*
X0197733Y0252620D01*
X0197620Y0252731D01*
X0197510Y0252845D01*
X0197403Y0252962D01*
X0197299Y0253081D01*
X0197198Y0253203D01*
X0197101Y0253328D01*
X0197006Y0253455D01*
X0196915Y0253584D01*
X0196826Y0253715D01*
X0196742Y0253849D01*
X0196660Y0253985D01*
X0196582Y0254122D01*
X0196508Y0254262D01*
X0196437Y0254404D01*
X0196369Y0254547D01*
X0196305Y0254692D01*
X0196245Y0254838D01*
X0196189Y0254986D01*
X0196136Y0255135D01*
X0196087Y0255286D01*
X0196042Y0255438D01*
X0196001Y0255591D01*
X0195963Y0255744D01*
X0195930Y0255899D01*
X0195900Y0256055D01*
X0195874Y0256211D01*
X0195853Y0256368D01*
X0195835Y0256525D01*
X0195821Y0256683D01*
X0195811Y0256841D01*
X0195805Y0256999D01*
X0195803Y0257157D01*
X0313914Y0316213D02*
X0313916Y0316371D01*
X0313922Y0316529D01*
X0313932Y0316687D01*
X0313946Y0316845D01*
X0313964Y0317002D01*
X0313985Y0317159D01*
X0314011Y0317315D01*
X0314041Y0317471D01*
X0314074Y0317626D01*
X0314112Y0317779D01*
X0314153Y0317932D01*
X0314198Y0318084D01*
X0314247Y0318235D01*
X0314300Y0318384D01*
X0314356Y0318532D01*
X0314416Y0318678D01*
X0314480Y0318823D01*
X0314548Y0318966D01*
X0314619Y0319108D01*
X0314693Y0319248D01*
X0314771Y0319385D01*
X0314853Y0319521D01*
X0314937Y0319655D01*
X0315026Y0319786D01*
X0315117Y0319915D01*
X0315212Y0320042D01*
X0315309Y0320167D01*
X0315410Y0320289D01*
X0315514Y0320408D01*
X0315621Y0320525D01*
X0315731Y0320639D01*
X0315844Y0320750D01*
X0315959Y0320859D01*
X0316077Y0320964D01*
X0316198Y0321066D01*
X0316321Y0321166D01*
X0316447Y0321262D01*
X0316575Y0321355D01*
X0316705Y0321445D01*
X0316838Y0321531D01*
X0316973Y0321615D01*
X0317109Y0321694D01*
X0317248Y0321771D01*
X0317389Y0321843D01*
X0317531Y0321913D01*
X0317675Y0321978D01*
X0317821Y0322040D01*
X0317968Y0322098D01*
X0318117Y0322153D01*
X0318267Y0322204D01*
X0318418Y0322251D01*
X0318570Y0322294D01*
X0318723Y0322333D01*
X0318878Y0322369D01*
X0319033Y0322400D01*
X0319189Y0322428D01*
X0319345Y0322452D01*
X0319502Y0322472D01*
X0319660Y0322488D01*
X0319817Y0322500D01*
X0319976Y0322508D01*
X0320134Y0322512D01*
X0320292Y0322512D01*
X0320450Y0322508D01*
X0320609Y0322500D01*
X0320766Y0322488D01*
X0320924Y0322472D01*
X0321081Y0322452D01*
X0321237Y0322428D01*
X0321393Y0322400D01*
X0321548Y0322369D01*
X0321703Y0322333D01*
X0321856Y0322294D01*
X0322008Y0322251D01*
X0322159Y0322204D01*
X0322309Y0322153D01*
X0322458Y0322098D01*
X0322605Y0322040D01*
X0322751Y0321978D01*
X0322895Y0321913D01*
X0323037Y0321843D01*
X0323178Y0321771D01*
X0323317Y0321694D01*
X0323453Y0321615D01*
X0323588Y0321531D01*
X0323721Y0321445D01*
X0323851Y0321355D01*
X0323979Y0321262D01*
X0324105Y0321166D01*
X0324228Y0321066D01*
X0324349Y0320964D01*
X0324467Y0320859D01*
X0324582Y0320750D01*
X0324695Y0320639D01*
X0324805Y0320525D01*
X0324912Y0320408D01*
X0325016Y0320289D01*
X0325117Y0320167D01*
X0325214Y0320042D01*
X0325309Y0319915D01*
X0325400Y0319786D01*
X0325489Y0319655D01*
X0325573Y0319521D01*
X0325655Y0319385D01*
X0325733Y0319248D01*
X0325807Y0319108D01*
X0325878Y0318966D01*
X0325946Y0318823D01*
X0326010Y0318678D01*
X0326070Y0318532D01*
X0326126Y0318384D01*
X0326179Y0318235D01*
X0326228Y0318084D01*
X0326273Y0317932D01*
X0326314Y0317779D01*
X0326352Y0317626D01*
X0326385Y0317471D01*
X0326415Y0317315D01*
X0326441Y0317159D01*
X0326462Y0317002D01*
X0326480Y0316845D01*
X0326494Y0316687D01*
X0326504Y0316529D01*
X0326510Y0316371D01*
X0326512Y0316213D01*
X0326510Y0316055D01*
X0326504Y0315897D01*
X0326494Y0315739D01*
X0326480Y0315581D01*
X0326462Y0315424D01*
X0326441Y0315267D01*
X0326415Y0315111D01*
X0326385Y0314955D01*
X0326352Y0314800D01*
X0326314Y0314647D01*
X0326273Y0314494D01*
X0326228Y0314342D01*
X0326179Y0314191D01*
X0326126Y0314042D01*
X0326070Y0313894D01*
X0326010Y0313748D01*
X0325946Y0313603D01*
X0325878Y0313460D01*
X0325807Y0313318D01*
X0325733Y0313178D01*
X0325655Y0313041D01*
X0325573Y0312905D01*
X0325489Y0312771D01*
X0325400Y0312640D01*
X0325309Y0312511D01*
X0325214Y0312384D01*
X0325117Y0312259D01*
X0325016Y0312137D01*
X0324912Y0312018D01*
X0324805Y0311901D01*
X0324695Y0311787D01*
X0324582Y0311676D01*
X0324467Y0311567D01*
X0324349Y0311462D01*
X0324228Y0311360D01*
X0324105Y0311260D01*
X0323979Y0311164D01*
X0323851Y0311071D01*
X0323721Y0310981D01*
X0323588Y0310895D01*
X0323453Y0310811D01*
X0323317Y0310732D01*
X0323178Y0310655D01*
X0323037Y0310583D01*
X0322895Y0310513D01*
X0322751Y0310448D01*
X0322605Y0310386D01*
X0322458Y0310328D01*
X0322309Y0310273D01*
X0322159Y0310222D01*
X0322008Y0310175D01*
X0321856Y0310132D01*
X0321703Y0310093D01*
X0321548Y0310057D01*
X0321393Y0310026D01*
X0321237Y0309998D01*
X0321081Y0309974D01*
X0320924Y0309954D01*
X0320766Y0309938D01*
X0320609Y0309926D01*
X0320450Y0309918D01*
X0320292Y0309914D01*
X0320134Y0309914D01*
X0319976Y0309918D01*
X0319817Y0309926D01*
X0319660Y0309938D01*
X0319502Y0309954D01*
X0319345Y0309974D01*
X0319189Y0309998D01*
X0319033Y0310026D01*
X0318878Y0310057D01*
X0318723Y0310093D01*
X0318570Y0310132D01*
X0318418Y0310175D01*
X0318267Y0310222D01*
X0318117Y0310273D01*
X0317968Y0310328D01*
X0317821Y0310386D01*
X0317675Y0310448D01*
X0317531Y0310513D01*
X0317389Y0310583D01*
X0317248Y0310655D01*
X0317109Y0310732D01*
X0316973Y0310811D01*
X0316838Y0310895D01*
X0316705Y0310981D01*
X0316575Y0311071D01*
X0316447Y0311164D01*
X0316321Y0311260D01*
X0316198Y0311360D01*
X0316077Y0311462D01*
X0315959Y0311567D01*
X0315844Y0311676D01*
X0315731Y0311787D01*
X0315621Y0311901D01*
X0315514Y0312018D01*
X0315410Y0312137D01*
X0315309Y0312259D01*
X0315212Y0312384D01*
X0315117Y0312511D01*
X0315026Y0312640D01*
X0314937Y0312771D01*
X0314853Y0312905D01*
X0314771Y0313041D01*
X0314693Y0313178D01*
X0314619Y0313318D01*
X0314548Y0313460D01*
X0314480Y0313603D01*
X0314416Y0313748D01*
X0314356Y0313894D01*
X0314300Y0314042D01*
X0314247Y0314191D01*
X0314198Y0314342D01*
X0314153Y0314494D01*
X0314112Y0314647D01*
X0314074Y0314800D01*
X0314041Y0314955D01*
X0314011Y0315111D01*
X0313985Y0315267D01*
X0313964Y0315424D01*
X0313946Y0315581D01*
X0313932Y0315739D01*
X0313922Y0315897D01*
X0313916Y0316055D01*
X0313914Y0316213D01*
X0324150Y0331961D02*
X0335961Y0320150D01*
X0335961Y0028811D01*
X0324150Y0017000D01*
X0032811Y0017000D01*
X0021000Y0028811D01*
X0021000Y0320150D01*
X0032811Y0331961D01*
X0324150Y0331961D01*
X0195803Y0091803D02*
X0195805Y0091961D01*
X0195811Y0092119D01*
X0195821Y0092277D01*
X0195835Y0092435D01*
X0195853Y0092592D01*
X0195874Y0092749D01*
X0195900Y0092905D01*
X0195930Y0093061D01*
X0195963Y0093216D01*
X0196001Y0093369D01*
X0196042Y0093522D01*
X0196087Y0093674D01*
X0196136Y0093825D01*
X0196189Y0093974D01*
X0196245Y0094122D01*
X0196305Y0094268D01*
X0196369Y0094413D01*
X0196437Y0094556D01*
X0196508Y0094698D01*
X0196582Y0094838D01*
X0196660Y0094975D01*
X0196742Y0095111D01*
X0196826Y0095245D01*
X0196915Y0095376D01*
X0197006Y0095505D01*
X0197101Y0095632D01*
X0197198Y0095757D01*
X0197299Y0095879D01*
X0197403Y0095998D01*
X0197510Y0096115D01*
X0197620Y0096229D01*
X0197733Y0096340D01*
X0197848Y0096449D01*
X0197966Y0096554D01*
X0198087Y0096656D01*
X0198210Y0096756D01*
X0198336Y0096852D01*
X0198464Y0096945D01*
X0198594Y0097035D01*
X0198727Y0097121D01*
X0198862Y0097205D01*
X0198998Y0097284D01*
X0199137Y0097361D01*
X0199278Y0097433D01*
X0199420Y0097503D01*
X0199564Y0097568D01*
X0199710Y0097630D01*
X0199857Y0097688D01*
X0200006Y0097743D01*
X0200156Y0097794D01*
X0200307Y0097841D01*
X0200459Y0097884D01*
X0200612Y0097923D01*
X0200767Y0097959D01*
X0200922Y0097990D01*
X0201078Y0098018D01*
X0201234Y0098042D01*
X0201391Y0098062D01*
X0201549Y0098078D01*
X0201706Y0098090D01*
X0201865Y0098098D01*
X0202023Y0098102D01*
X0202181Y0098102D01*
X0202339Y0098098D01*
X0202498Y0098090D01*
X0202655Y0098078D01*
X0202813Y0098062D01*
X0202970Y0098042D01*
X0203126Y0098018D01*
X0203282Y0097990D01*
X0203437Y0097959D01*
X0203592Y0097923D01*
X0203745Y0097884D01*
X0203897Y0097841D01*
X0204048Y0097794D01*
X0204198Y0097743D01*
X0204347Y0097688D01*
X0204494Y0097630D01*
X0204640Y0097568D01*
X0204784Y0097503D01*
X0204926Y0097433D01*
X0205067Y0097361D01*
X0205206Y0097284D01*
X0205342Y0097205D01*
X0205477Y0097121D01*
X0205610Y0097035D01*
X0205740Y0096945D01*
X0205868Y0096852D01*
X0205994Y0096756D01*
X0206117Y0096656D01*
X0206238Y0096554D01*
X0206356Y0096449D01*
X0206471Y0096340D01*
X0206584Y0096229D01*
X0206694Y0096115D01*
X0206801Y0095998D01*
X0206905Y0095879D01*
X0207006Y0095757D01*
X0207103Y0095632D01*
X0207198Y0095505D01*
X0207289Y0095376D01*
X0207378Y0095245D01*
X0207462Y0095111D01*
X0207544Y0094975D01*
X0207622Y0094838D01*
X0207696Y0094698D01*
X0207767Y0094556D01*
X0207835Y0094413D01*
X0207899Y0094268D01*
X0207959Y0094122D01*
X0208015Y0093974D01*
X0208068Y0093825D01*
X0208117Y0093674D01*
X0208162Y0093522D01*
X0208203Y0093369D01*
X0208241Y0093216D01*
X0208274Y0093061D01*
X0208304Y0092905D01*
X0208330Y0092749D01*
X0208351Y0092592D01*
X0208369Y0092435D01*
X0208383Y0092277D01*
X0208393Y0092119D01*
X0208399Y0091961D01*
X0208401Y0091803D01*
X0208399Y0091645D01*
X0208393Y0091487D01*
X0208383Y0091329D01*
X0208369Y0091171D01*
X0208351Y0091014D01*
X0208330Y0090857D01*
X0208304Y0090701D01*
X0208274Y0090545D01*
X0208241Y0090390D01*
X0208203Y0090237D01*
X0208162Y0090084D01*
X0208117Y0089932D01*
X0208068Y0089781D01*
X0208015Y0089632D01*
X0207959Y0089484D01*
X0207899Y0089338D01*
X0207835Y0089193D01*
X0207767Y0089050D01*
X0207696Y0088908D01*
X0207622Y0088768D01*
X0207544Y0088631D01*
X0207462Y0088495D01*
X0207378Y0088361D01*
X0207289Y0088230D01*
X0207198Y0088101D01*
X0207103Y0087974D01*
X0207006Y0087849D01*
X0206905Y0087727D01*
X0206801Y0087608D01*
X0206694Y0087491D01*
X0206584Y0087377D01*
X0206471Y0087266D01*
X0206356Y0087157D01*
X0206238Y0087052D01*
X0206117Y0086950D01*
X0205994Y0086850D01*
X0205868Y0086754D01*
X0205740Y0086661D01*
X0205610Y0086571D01*
X0205477Y0086485D01*
X0205342Y0086401D01*
X0205206Y0086322D01*
X0205067Y0086245D01*
X0204926Y0086173D01*
X0204784Y0086103D01*
X0204640Y0086038D01*
X0204494Y0085976D01*
X0204347Y0085918D01*
X0204198Y0085863D01*
X0204048Y0085812D01*
X0203897Y0085765D01*
X0203745Y0085722D01*
X0203592Y0085683D01*
X0203437Y0085647D01*
X0203282Y0085616D01*
X0203126Y0085588D01*
X0202970Y0085564D01*
X0202813Y0085544D01*
X0202655Y0085528D01*
X0202498Y0085516D01*
X0202339Y0085508D01*
X0202181Y0085504D01*
X0202023Y0085504D01*
X0201865Y0085508D01*
X0201706Y0085516D01*
X0201549Y0085528D01*
X0201391Y0085544D01*
X0201234Y0085564D01*
X0201078Y0085588D01*
X0200922Y0085616D01*
X0200767Y0085647D01*
X0200612Y0085683D01*
X0200459Y0085722D01*
X0200307Y0085765D01*
X0200156Y0085812D01*
X0200006Y0085863D01*
X0199857Y0085918D01*
X0199710Y0085976D01*
X0199564Y0086038D01*
X0199420Y0086103D01*
X0199278Y0086173D01*
X0199137Y0086245D01*
X0198998Y0086322D01*
X0198862Y0086401D01*
X0198727Y0086485D01*
X0198594Y0086571D01*
X0198464Y0086661D01*
X0198336Y0086754D01*
X0198210Y0086850D01*
X0198087Y0086950D01*
X0197966Y0087052D01*
X0197848Y0087157D01*
X0197733Y0087266D01*
X0197620Y0087377D01*
X0197510Y0087491D01*
X0197403Y0087608D01*
X0197299Y0087727D01*
X0197198Y0087849D01*
X0197101Y0087974D01*
X0197006Y0088101D01*
X0196915Y0088230D01*
X0196826Y0088361D01*
X0196742Y0088495D01*
X0196660Y0088631D01*
X0196582Y0088768D01*
X0196508Y0088908D01*
X0196437Y0089050D01*
X0196369Y0089193D01*
X0196305Y0089338D01*
X0196245Y0089484D01*
X0196189Y0089632D01*
X0196136Y0089781D01*
X0196087Y0089932D01*
X0196042Y0090084D01*
X0196001Y0090237D01*
X0195963Y0090390D01*
X0195930Y0090545D01*
X0195900Y0090701D01*
X0195874Y0090857D01*
X0195853Y0091014D01*
X0195835Y0091171D01*
X0195821Y0091329D01*
X0195811Y0091487D01*
X0195805Y0091645D01*
X0195803Y0091803D01*
X0313914Y0032748D02*
X0313916Y0032906D01*
X0313922Y0033064D01*
X0313932Y0033222D01*
X0313946Y0033380D01*
X0313964Y0033537D01*
X0313985Y0033694D01*
X0314011Y0033850D01*
X0314041Y0034006D01*
X0314074Y0034161D01*
X0314112Y0034314D01*
X0314153Y0034467D01*
X0314198Y0034619D01*
X0314247Y0034770D01*
X0314300Y0034919D01*
X0314356Y0035067D01*
X0314416Y0035213D01*
X0314480Y0035358D01*
X0314548Y0035501D01*
X0314619Y0035643D01*
X0314693Y0035783D01*
X0314771Y0035920D01*
X0314853Y0036056D01*
X0314937Y0036190D01*
X0315026Y0036321D01*
X0315117Y0036450D01*
X0315212Y0036577D01*
X0315309Y0036702D01*
X0315410Y0036824D01*
X0315514Y0036943D01*
X0315621Y0037060D01*
X0315731Y0037174D01*
X0315844Y0037285D01*
X0315959Y0037394D01*
X0316077Y0037499D01*
X0316198Y0037601D01*
X0316321Y0037701D01*
X0316447Y0037797D01*
X0316575Y0037890D01*
X0316705Y0037980D01*
X0316838Y0038066D01*
X0316973Y0038150D01*
X0317109Y0038229D01*
X0317248Y0038306D01*
X0317389Y0038378D01*
X0317531Y0038448D01*
X0317675Y0038513D01*
X0317821Y0038575D01*
X0317968Y0038633D01*
X0318117Y0038688D01*
X0318267Y0038739D01*
X0318418Y0038786D01*
X0318570Y0038829D01*
X0318723Y0038868D01*
X0318878Y0038904D01*
X0319033Y0038935D01*
X0319189Y0038963D01*
X0319345Y0038987D01*
X0319502Y0039007D01*
X0319660Y0039023D01*
X0319817Y0039035D01*
X0319976Y0039043D01*
X0320134Y0039047D01*
X0320292Y0039047D01*
X0320450Y0039043D01*
X0320609Y0039035D01*
X0320766Y0039023D01*
X0320924Y0039007D01*
X0321081Y0038987D01*
X0321237Y0038963D01*
X0321393Y0038935D01*
X0321548Y0038904D01*
X0321703Y0038868D01*
X0321856Y0038829D01*
X0322008Y0038786D01*
X0322159Y0038739D01*
X0322309Y0038688D01*
X0322458Y0038633D01*
X0322605Y0038575D01*
X0322751Y0038513D01*
X0322895Y0038448D01*
X0323037Y0038378D01*
X0323178Y0038306D01*
X0323317Y0038229D01*
X0323453Y0038150D01*
X0323588Y0038066D01*
X0323721Y0037980D01*
X0323851Y0037890D01*
X0323979Y0037797D01*
X0324105Y0037701D01*
X0324228Y0037601D01*
X0324349Y0037499D01*
X0324467Y0037394D01*
X0324582Y0037285D01*
X0324695Y0037174D01*
X0324805Y0037060D01*
X0324912Y0036943D01*
X0325016Y0036824D01*
X0325117Y0036702D01*
X0325214Y0036577D01*
X0325309Y0036450D01*
X0325400Y0036321D01*
X0325489Y0036190D01*
X0325573Y0036056D01*
X0325655Y0035920D01*
X0325733Y0035783D01*
X0325807Y0035643D01*
X0325878Y0035501D01*
X0325946Y0035358D01*
X0326010Y0035213D01*
X0326070Y0035067D01*
X0326126Y0034919D01*
X0326179Y0034770D01*
X0326228Y0034619D01*
X0326273Y0034467D01*
X0326314Y0034314D01*
X0326352Y0034161D01*
X0326385Y0034006D01*
X0326415Y0033850D01*
X0326441Y0033694D01*
X0326462Y0033537D01*
X0326480Y0033380D01*
X0326494Y0033222D01*
X0326504Y0033064D01*
X0326510Y0032906D01*
X0326512Y0032748D01*
X0326510Y0032590D01*
X0326504Y0032432D01*
X0326494Y0032274D01*
X0326480Y0032116D01*
X0326462Y0031959D01*
X0326441Y0031802D01*
X0326415Y0031646D01*
X0326385Y0031490D01*
X0326352Y0031335D01*
X0326314Y0031182D01*
X0326273Y0031029D01*
X0326228Y0030877D01*
X0326179Y0030726D01*
X0326126Y0030577D01*
X0326070Y0030429D01*
X0326010Y0030283D01*
X0325946Y0030138D01*
X0325878Y0029995D01*
X0325807Y0029853D01*
X0325733Y0029713D01*
X0325655Y0029576D01*
X0325573Y0029440D01*
X0325489Y0029306D01*
X0325400Y0029175D01*
X0325309Y0029046D01*
X0325214Y0028919D01*
X0325117Y0028794D01*
X0325016Y0028672D01*
X0324912Y0028553D01*
X0324805Y0028436D01*
X0324695Y0028322D01*
X0324582Y0028211D01*
X0324467Y0028102D01*
X0324349Y0027997D01*
X0324228Y0027895D01*
X0324105Y0027795D01*
X0323979Y0027699D01*
X0323851Y0027606D01*
X0323721Y0027516D01*
X0323588Y0027430D01*
X0323453Y0027346D01*
X0323317Y0027267D01*
X0323178Y0027190D01*
X0323037Y0027118D01*
X0322895Y0027048D01*
X0322751Y0026983D01*
X0322605Y0026921D01*
X0322458Y0026863D01*
X0322309Y0026808D01*
X0322159Y0026757D01*
X0322008Y0026710D01*
X0321856Y0026667D01*
X0321703Y0026628D01*
X0321548Y0026592D01*
X0321393Y0026561D01*
X0321237Y0026533D01*
X0321081Y0026509D01*
X0320924Y0026489D01*
X0320766Y0026473D01*
X0320609Y0026461D01*
X0320450Y0026453D01*
X0320292Y0026449D01*
X0320134Y0026449D01*
X0319976Y0026453D01*
X0319817Y0026461D01*
X0319660Y0026473D01*
X0319502Y0026489D01*
X0319345Y0026509D01*
X0319189Y0026533D01*
X0319033Y0026561D01*
X0318878Y0026592D01*
X0318723Y0026628D01*
X0318570Y0026667D01*
X0318418Y0026710D01*
X0318267Y0026757D01*
X0318117Y0026808D01*
X0317968Y0026863D01*
X0317821Y0026921D01*
X0317675Y0026983D01*
X0317531Y0027048D01*
X0317389Y0027118D01*
X0317248Y0027190D01*
X0317109Y0027267D01*
X0316973Y0027346D01*
X0316838Y0027430D01*
X0316705Y0027516D01*
X0316575Y0027606D01*
X0316447Y0027699D01*
X0316321Y0027795D01*
X0316198Y0027895D01*
X0316077Y0027997D01*
X0315959Y0028102D01*
X0315844Y0028211D01*
X0315731Y0028322D01*
X0315621Y0028436D01*
X0315514Y0028553D01*
X0315410Y0028672D01*
X0315309Y0028794D01*
X0315212Y0028919D01*
X0315117Y0029046D01*
X0315026Y0029175D01*
X0314937Y0029306D01*
X0314853Y0029440D01*
X0314771Y0029576D01*
X0314693Y0029713D01*
X0314619Y0029853D01*
X0314548Y0029995D01*
X0314480Y0030138D01*
X0314416Y0030283D01*
X0314356Y0030429D01*
X0314300Y0030577D01*
X0314247Y0030726D01*
X0314198Y0030877D01*
X0314153Y0031029D01*
X0314112Y0031182D01*
X0314074Y0031335D01*
X0314041Y0031490D01*
X0314011Y0031646D01*
X0313985Y0031802D01*
X0313964Y0031959D01*
X0313946Y0032116D01*
X0313932Y0032274D01*
X0313922Y0032432D01*
X0313916Y0032590D01*
X0313914Y0032748D01*
X0030449Y0032748D02*
X0030451Y0032906D01*
X0030457Y0033064D01*
X0030467Y0033222D01*
X0030481Y0033380D01*
X0030499Y0033537D01*
X0030520Y0033694D01*
X0030546Y0033850D01*
X0030576Y0034006D01*
X0030609Y0034161D01*
X0030647Y0034314D01*
X0030688Y0034467D01*
X0030733Y0034619D01*
X0030782Y0034770D01*
X0030835Y0034919D01*
X0030891Y0035067D01*
X0030951Y0035213D01*
X0031015Y0035358D01*
X0031083Y0035501D01*
X0031154Y0035643D01*
X0031228Y0035783D01*
X0031306Y0035920D01*
X0031388Y0036056D01*
X0031472Y0036190D01*
X0031561Y0036321D01*
X0031652Y0036450D01*
X0031747Y0036577D01*
X0031844Y0036702D01*
X0031945Y0036824D01*
X0032049Y0036943D01*
X0032156Y0037060D01*
X0032266Y0037174D01*
X0032379Y0037285D01*
X0032494Y0037394D01*
X0032612Y0037499D01*
X0032733Y0037601D01*
X0032856Y0037701D01*
X0032982Y0037797D01*
X0033110Y0037890D01*
X0033240Y0037980D01*
X0033373Y0038066D01*
X0033508Y0038150D01*
X0033644Y0038229D01*
X0033783Y0038306D01*
X0033924Y0038378D01*
X0034066Y0038448D01*
X0034210Y0038513D01*
X0034356Y0038575D01*
X0034503Y0038633D01*
X0034652Y0038688D01*
X0034802Y0038739D01*
X0034953Y0038786D01*
X0035105Y0038829D01*
X0035258Y0038868D01*
X0035413Y0038904D01*
X0035568Y0038935D01*
X0035724Y0038963D01*
X0035880Y0038987D01*
X0036037Y0039007D01*
X0036195Y0039023D01*
X0036352Y0039035D01*
X0036511Y0039043D01*
X0036669Y0039047D01*
X0036827Y0039047D01*
X0036985Y0039043D01*
X0037144Y0039035D01*
X0037301Y0039023D01*
X0037459Y0039007D01*
X0037616Y0038987D01*
X0037772Y0038963D01*
X0037928Y0038935D01*
X0038083Y0038904D01*
X0038238Y0038868D01*
X0038391Y0038829D01*
X0038543Y0038786D01*
X0038694Y0038739D01*
X0038844Y0038688D01*
X0038993Y0038633D01*
X0039140Y0038575D01*
X0039286Y0038513D01*
X0039430Y0038448D01*
X0039572Y0038378D01*
X0039713Y0038306D01*
X0039852Y0038229D01*
X0039988Y0038150D01*
X0040123Y0038066D01*
X0040256Y0037980D01*
X0040386Y0037890D01*
X0040514Y0037797D01*
X0040640Y0037701D01*
X0040763Y0037601D01*
X0040884Y0037499D01*
X0041002Y0037394D01*
X0041117Y0037285D01*
X0041230Y0037174D01*
X0041340Y0037060D01*
X0041447Y0036943D01*
X0041551Y0036824D01*
X0041652Y0036702D01*
X0041749Y0036577D01*
X0041844Y0036450D01*
X0041935Y0036321D01*
X0042024Y0036190D01*
X0042108Y0036056D01*
X0042190Y0035920D01*
X0042268Y0035783D01*
X0042342Y0035643D01*
X0042413Y0035501D01*
X0042481Y0035358D01*
X0042545Y0035213D01*
X0042605Y0035067D01*
X0042661Y0034919D01*
X0042714Y0034770D01*
X0042763Y0034619D01*
X0042808Y0034467D01*
X0042849Y0034314D01*
X0042887Y0034161D01*
X0042920Y0034006D01*
X0042950Y0033850D01*
X0042976Y0033694D01*
X0042997Y0033537D01*
X0043015Y0033380D01*
X0043029Y0033222D01*
X0043039Y0033064D01*
X0043045Y0032906D01*
X0043047Y0032748D01*
X0043045Y0032590D01*
X0043039Y0032432D01*
X0043029Y0032274D01*
X0043015Y0032116D01*
X0042997Y0031959D01*
X0042976Y0031802D01*
X0042950Y0031646D01*
X0042920Y0031490D01*
X0042887Y0031335D01*
X0042849Y0031182D01*
X0042808Y0031029D01*
X0042763Y0030877D01*
X0042714Y0030726D01*
X0042661Y0030577D01*
X0042605Y0030429D01*
X0042545Y0030283D01*
X0042481Y0030138D01*
X0042413Y0029995D01*
X0042342Y0029853D01*
X0042268Y0029713D01*
X0042190Y0029576D01*
X0042108Y0029440D01*
X0042024Y0029306D01*
X0041935Y0029175D01*
X0041844Y0029046D01*
X0041749Y0028919D01*
X0041652Y0028794D01*
X0041551Y0028672D01*
X0041447Y0028553D01*
X0041340Y0028436D01*
X0041230Y0028322D01*
X0041117Y0028211D01*
X0041002Y0028102D01*
X0040884Y0027997D01*
X0040763Y0027895D01*
X0040640Y0027795D01*
X0040514Y0027699D01*
X0040386Y0027606D01*
X0040256Y0027516D01*
X0040123Y0027430D01*
X0039988Y0027346D01*
X0039852Y0027267D01*
X0039713Y0027190D01*
X0039572Y0027118D01*
X0039430Y0027048D01*
X0039286Y0026983D01*
X0039140Y0026921D01*
X0038993Y0026863D01*
X0038844Y0026808D01*
X0038694Y0026757D01*
X0038543Y0026710D01*
X0038391Y0026667D01*
X0038238Y0026628D01*
X0038083Y0026592D01*
X0037928Y0026561D01*
X0037772Y0026533D01*
X0037616Y0026509D01*
X0037459Y0026489D01*
X0037301Y0026473D01*
X0037144Y0026461D01*
X0036985Y0026453D01*
X0036827Y0026449D01*
X0036669Y0026449D01*
X0036511Y0026453D01*
X0036352Y0026461D01*
X0036195Y0026473D01*
X0036037Y0026489D01*
X0035880Y0026509D01*
X0035724Y0026533D01*
X0035568Y0026561D01*
X0035413Y0026592D01*
X0035258Y0026628D01*
X0035105Y0026667D01*
X0034953Y0026710D01*
X0034802Y0026757D01*
X0034652Y0026808D01*
X0034503Y0026863D01*
X0034356Y0026921D01*
X0034210Y0026983D01*
X0034066Y0027048D01*
X0033924Y0027118D01*
X0033783Y0027190D01*
X0033644Y0027267D01*
X0033508Y0027346D01*
X0033373Y0027430D01*
X0033240Y0027516D01*
X0033110Y0027606D01*
X0032982Y0027699D01*
X0032856Y0027795D01*
X0032733Y0027895D01*
X0032612Y0027997D01*
X0032494Y0028102D01*
X0032379Y0028211D01*
X0032266Y0028322D01*
X0032156Y0028436D01*
X0032049Y0028553D01*
X0031945Y0028672D01*
X0031844Y0028794D01*
X0031747Y0028919D01*
X0031652Y0029046D01*
X0031561Y0029175D01*
X0031472Y0029306D01*
X0031388Y0029440D01*
X0031306Y0029576D01*
X0031228Y0029713D01*
X0031154Y0029853D01*
X0031083Y0029995D01*
X0031015Y0030138D01*
X0030951Y0030283D01*
X0030891Y0030429D01*
X0030835Y0030577D01*
X0030782Y0030726D01*
X0030733Y0030877D01*
X0030688Y0031029D01*
X0030647Y0031182D01*
X0030609Y0031335D01*
X0030576Y0031490D01*
X0030546Y0031646D01*
X0030520Y0031802D01*
X0030499Y0031959D01*
X0030481Y0032116D01*
X0030467Y0032274D01*
X0030457Y0032432D01*
X0030451Y0032590D01*
X0030449Y0032748D01*
X0030449Y0316213D02*
X0030451Y0316371D01*
X0030457Y0316529D01*
X0030467Y0316687D01*
X0030481Y0316845D01*
X0030499Y0317002D01*
X0030520Y0317159D01*
X0030546Y0317315D01*
X0030576Y0317471D01*
X0030609Y0317626D01*
X0030647Y0317779D01*
X0030688Y0317932D01*
X0030733Y0318084D01*
X0030782Y0318235D01*
X0030835Y0318384D01*
X0030891Y0318532D01*
X0030951Y0318678D01*
X0031015Y0318823D01*
X0031083Y0318966D01*
X0031154Y0319108D01*
X0031228Y0319248D01*
X0031306Y0319385D01*
X0031388Y0319521D01*
X0031472Y0319655D01*
X0031561Y0319786D01*
X0031652Y0319915D01*
X0031747Y0320042D01*
X0031844Y0320167D01*
X0031945Y0320289D01*
X0032049Y0320408D01*
X0032156Y0320525D01*
X0032266Y0320639D01*
X0032379Y0320750D01*
X0032494Y0320859D01*
X0032612Y0320964D01*
X0032733Y0321066D01*
X0032856Y0321166D01*
X0032982Y0321262D01*
X0033110Y0321355D01*
X0033240Y0321445D01*
X0033373Y0321531D01*
X0033508Y0321615D01*
X0033644Y0321694D01*
X0033783Y0321771D01*
X0033924Y0321843D01*
X0034066Y0321913D01*
X0034210Y0321978D01*
X0034356Y0322040D01*
X0034503Y0322098D01*
X0034652Y0322153D01*
X0034802Y0322204D01*
X0034953Y0322251D01*
X0035105Y0322294D01*
X0035258Y0322333D01*
X0035413Y0322369D01*
X0035568Y0322400D01*
X0035724Y0322428D01*
X0035880Y0322452D01*
X0036037Y0322472D01*
X0036195Y0322488D01*
X0036352Y0322500D01*
X0036511Y0322508D01*
X0036669Y0322512D01*
X0036827Y0322512D01*
X0036985Y0322508D01*
X0037144Y0322500D01*
X0037301Y0322488D01*
X0037459Y0322472D01*
X0037616Y0322452D01*
X0037772Y0322428D01*
X0037928Y0322400D01*
X0038083Y0322369D01*
X0038238Y0322333D01*
X0038391Y0322294D01*
X0038543Y0322251D01*
X0038694Y0322204D01*
X0038844Y0322153D01*
X0038993Y0322098D01*
X0039140Y0322040D01*
X0039286Y0321978D01*
X0039430Y0321913D01*
X0039572Y0321843D01*
X0039713Y0321771D01*
X0039852Y0321694D01*
X0039988Y0321615D01*
X0040123Y0321531D01*
X0040256Y0321445D01*
X0040386Y0321355D01*
X0040514Y0321262D01*
X0040640Y0321166D01*
X0040763Y0321066D01*
X0040884Y0320964D01*
X0041002Y0320859D01*
X0041117Y0320750D01*
X0041230Y0320639D01*
X0041340Y0320525D01*
X0041447Y0320408D01*
X0041551Y0320289D01*
X0041652Y0320167D01*
X0041749Y0320042D01*
X0041844Y0319915D01*
X0041935Y0319786D01*
X0042024Y0319655D01*
X0042108Y0319521D01*
X0042190Y0319385D01*
X0042268Y0319248D01*
X0042342Y0319108D01*
X0042413Y0318966D01*
X0042481Y0318823D01*
X0042545Y0318678D01*
X0042605Y0318532D01*
X0042661Y0318384D01*
X0042714Y0318235D01*
X0042763Y0318084D01*
X0042808Y0317932D01*
X0042849Y0317779D01*
X0042887Y0317626D01*
X0042920Y0317471D01*
X0042950Y0317315D01*
X0042976Y0317159D01*
X0042997Y0317002D01*
X0043015Y0316845D01*
X0043029Y0316687D01*
X0043039Y0316529D01*
X0043045Y0316371D01*
X0043047Y0316213D01*
X0043045Y0316055D01*
X0043039Y0315897D01*
X0043029Y0315739D01*
X0043015Y0315581D01*
X0042997Y0315424D01*
X0042976Y0315267D01*
X0042950Y0315111D01*
X0042920Y0314955D01*
X0042887Y0314800D01*
X0042849Y0314647D01*
X0042808Y0314494D01*
X0042763Y0314342D01*
X0042714Y0314191D01*
X0042661Y0314042D01*
X0042605Y0313894D01*
X0042545Y0313748D01*
X0042481Y0313603D01*
X0042413Y0313460D01*
X0042342Y0313318D01*
X0042268Y0313178D01*
X0042190Y0313041D01*
X0042108Y0312905D01*
X0042024Y0312771D01*
X0041935Y0312640D01*
X0041844Y0312511D01*
X0041749Y0312384D01*
X0041652Y0312259D01*
X0041551Y0312137D01*
X0041447Y0312018D01*
X0041340Y0311901D01*
X0041230Y0311787D01*
X0041117Y0311676D01*
X0041002Y0311567D01*
X0040884Y0311462D01*
X0040763Y0311360D01*
X0040640Y0311260D01*
X0040514Y0311164D01*
X0040386Y0311071D01*
X0040256Y0310981D01*
X0040123Y0310895D01*
X0039988Y0310811D01*
X0039852Y0310732D01*
X0039713Y0310655D01*
X0039572Y0310583D01*
X0039430Y0310513D01*
X0039286Y0310448D01*
X0039140Y0310386D01*
X0038993Y0310328D01*
X0038844Y0310273D01*
X0038694Y0310222D01*
X0038543Y0310175D01*
X0038391Y0310132D01*
X0038238Y0310093D01*
X0038083Y0310057D01*
X0037928Y0310026D01*
X0037772Y0309998D01*
X0037616Y0309974D01*
X0037459Y0309954D01*
X0037301Y0309938D01*
X0037144Y0309926D01*
X0036985Y0309918D01*
X0036827Y0309914D01*
X0036669Y0309914D01*
X0036511Y0309918D01*
X0036352Y0309926D01*
X0036195Y0309938D01*
X0036037Y0309954D01*
X0035880Y0309974D01*
X0035724Y0309998D01*
X0035568Y0310026D01*
X0035413Y0310057D01*
X0035258Y0310093D01*
X0035105Y0310132D01*
X0034953Y0310175D01*
X0034802Y0310222D01*
X0034652Y0310273D01*
X0034503Y0310328D01*
X0034356Y0310386D01*
X0034210Y0310448D01*
X0034066Y0310513D01*
X0033924Y0310583D01*
X0033783Y0310655D01*
X0033644Y0310732D01*
X0033508Y0310811D01*
X0033373Y0310895D01*
X0033240Y0310981D01*
X0033110Y0311071D01*
X0032982Y0311164D01*
X0032856Y0311260D01*
X0032733Y0311360D01*
X0032612Y0311462D01*
X0032494Y0311567D01*
X0032379Y0311676D01*
X0032266Y0311787D01*
X0032156Y0311901D01*
X0032049Y0312018D01*
X0031945Y0312137D01*
X0031844Y0312259D01*
X0031747Y0312384D01*
X0031652Y0312511D01*
X0031561Y0312640D01*
X0031472Y0312771D01*
X0031388Y0312905D01*
X0031306Y0313041D01*
X0031228Y0313178D01*
X0031154Y0313318D01*
X0031083Y0313460D01*
X0031015Y0313603D01*
X0030951Y0313748D01*
X0030891Y0313894D01*
X0030835Y0314042D01*
X0030782Y0314191D01*
X0030733Y0314342D01*
X0030688Y0314494D01*
X0030647Y0314647D01*
X0030609Y0314800D01*
X0030576Y0314955D01*
X0030546Y0315111D01*
X0030520Y0315267D01*
X0030499Y0315424D01*
X0030481Y0315581D01*
X0030467Y0315739D01*
X0030457Y0315897D01*
X0030451Y0316055D01*
X0030449Y0316213D01*
D15*
X0030961Y0274461D03*
X0040961Y0274461D03*
X0040961Y0264461D03*
X0040961Y0254461D03*
X0040961Y0244461D03*
X0040961Y0234461D03*
X0040961Y0224461D03*
X0040961Y0214461D03*
X0040961Y0204461D03*
X0040961Y0194461D03*
X0030961Y0194461D03*
X0030961Y0204461D03*
X0030961Y0214461D03*
X0030961Y0224461D03*
X0030961Y0234461D03*
X0030961Y0244461D03*
X0030961Y0254461D03*
X0030961Y0264461D03*
X0030961Y0184461D03*
X0030961Y0164461D03*
X0040961Y0164461D03*
X0040961Y0154461D03*
X0040961Y0144461D03*
X0040961Y0134461D03*
X0040961Y0124461D03*
X0040961Y0114461D03*
X0040961Y0104461D03*
X0040961Y0094461D03*
X0040961Y0084461D03*
X0030961Y0084461D03*
X0030961Y0094461D03*
X0030961Y0104461D03*
X0030961Y0114461D03*
X0030961Y0124461D03*
X0030961Y0134461D03*
X0030961Y0144461D03*
X0030961Y0154461D03*
X0030961Y0074461D03*
D16*
X0040961Y0074461D03*
X0040961Y0184461D03*
D17*
X0092500Y0170800D03*
X0092500Y0158500D03*
X0107500Y0145500D03*
X0112500Y0145500D03*
X0117500Y0145500D03*
X0138000Y0145500D03*
X0143000Y0145500D03*
X0148000Y0145500D03*
X0149500Y0097500D03*
X0144500Y0097500D03*
X0139500Y0097500D03*
X0128200Y0087300D03*
X0118500Y0097500D03*
X0113500Y0097500D03*
X0108500Y0097500D03*
X0215800Y0158800D03*
X0223200Y0158800D03*
X0223200Y0170600D03*
X0215800Y0170600D03*
X0174400Y0216100D03*
X0178500Y0250000D03*
X0143400Y0255900D03*
X0167000Y0302000D03*
X0167000Y0307000D03*
X0172000Y0307000D03*
X0172000Y0302000D03*
X0194000Y0310000D03*
X0199000Y0310000D03*
X0218000Y0310000D03*
X0223000Y0310000D03*
X0222500Y0317000D03*
X0222500Y0325500D03*
X0226250Y0250700D03*
X0216900Y0247800D03*
X0280800Y0093000D03*
X0281200Y0080100D03*
X0281200Y0075100D03*
X0286200Y0075100D03*
X0286200Y0080100D03*
X0263200Y0070100D03*
X0263200Y0056600D03*
X0258200Y0056600D03*
X0268200Y0056600D03*
X0234300Y0070100D03*
X0223700Y0070300D03*
D18*
X0031451Y0026591D02*
X0025766Y0026591D01*
X0027364Y0024993D02*
X0034307Y0024993D01*
X0035137Y0024649D02*
X0032160Y0025882D01*
X0029882Y0028160D01*
X0028649Y0031137D01*
X0028649Y0034359D01*
X0029882Y0037336D01*
X0032160Y0039614D01*
X0035137Y0040847D01*
X0038359Y0040847D01*
X0041336Y0039614D01*
X0043614Y0037336D01*
X0044847Y0034359D01*
X0044847Y0031137D01*
X0043614Y0028160D01*
X0041336Y0025882D01*
X0038359Y0024649D01*
X0035137Y0024649D01*
X0032160Y0020197D02*
X0324801Y0020197D01*
X0323404Y0018800D02*
X0033557Y0018800D01*
X0022800Y0029557D01*
X0022800Y0319404D01*
X0033557Y0330161D01*
X0159127Y0330161D01*
X0159127Y0321911D01*
X0159947Y0321091D01*
X0168707Y0321091D01*
X0169527Y0321911D01*
X0169527Y0330161D01*
X0187473Y0330161D01*
X0187473Y0321911D01*
X0188293Y0321091D01*
X0197053Y0321091D01*
X0197873Y0321911D01*
X0197873Y0330161D01*
X0323404Y0330161D01*
X0334161Y0319404D01*
X0334161Y0029557D01*
X0323404Y0018800D01*
X0326400Y0021796D02*
X0030561Y0021796D01*
X0028963Y0023394D02*
X0327998Y0023394D01*
X0329597Y0024993D02*
X0322653Y0024993D01*
X0321824Y0024649D02*
X0318602Y0024649D01*
X0315625Y0025882D01*
X0313346Y0028160D01*
X0312113Y0031137D01*
X0312113Y0034359D01*
X0313346Y0037336D01*
X0315625Y0039614D01*
X0318602Y0040847D01*
X0321824Y0040847D01*
X0324800Y0039614D01*
X0327079Y0037336D01*
X0328312Y0034359D01*
X0328312Y0031137D01*
X0327079Y0028160D01*
X0324800Y0025882D01*
X0321824Y0024649D01*
X0317772Y0024993D02*
X0039189Y0024993D01*
X0042045Y0026591D02*
X0314916Y0026591D01*
X0313334Y0028190D02*
X0043626Y0028190D01*
X0044288Y0029788D02*
X0312672Y0029788D01*
X0312113Y0031387D02*
X0044847Y0031387D01*
X0044847Y0032985D02*
X0312113Y0032985D01*
X0312206Y0034584D02*
X0044754Y0034584D01*
X0044092Y0036182D02*
X0176745Y0036182D01*
X0176350Y0036310D02*
X0177189Y0036038D01*
X0178059Y0035900D01*
X0178316Y0035900D01*
X0178316Y0041316D01*
X0178684Y0041316D01*
X0178684Y0035900D01*
X0178941Y0035900D01*
X0179811Y0036038D01*
X0180650Y0036310D01*
X0181435Y0036710D01*
X0182148Y0037229D01*
X0182771Y0037852D01*
X0183290Y0038565D01*
X0183690Y0039350D01*
X0183962Y0040189D01*
X0184100Y0041059D01*
X0184100Y0041316D01*
X0178684Y0041316D01*
X0178684Y0041684D01*
X0184100Y0041684D01*
X0184100Y0041941D01*
X0183962Y0042811D01*
X0183690Y0043650D01*
X0183290Y0044435D01*
X0182771Y0045148D01*
X0182148Y0045771D01*
X0181435Y0046290D01*
X0180650Y0046690D01*
X0179811Y0046962D01*
X0178941Y0047100D01*
X0178684Y0047100D01*
X0178684Y0041684D01*
X0178316Y0041684D01*
X0178316Y0041316D01*
X0172900Y0041316D01*
X0172900Y0041059D01*
X0173038Y0040189D01*
X0173310Y0039350D01*
X0173710Y0038565D01*
X0174229Y0037852D01*
X0174852Y0037229D01*
X0175565Y0036710D01*
X0176350Y0036310D01*
X0178316Y0036182D02*
X0178684Y0036182D01*
X0180255Y0036182D02*
X0312869Y0036182D01*
X0313791Y0037781D02*
X0182700Y0037781D01*
X0183699Y0039379D02*
X0315390Y0039379D01*
X0325035Y0039379D02*
X0334161Y0039379D01*
X0334161Y0037781D02*
X0326634Y0037781D01*
X0327557Y0036182D02*
X0334161Y0036182D01*
X0334161Y0034584D02*
X0328219Y0034584D01*
X0328312Y0032985D02*
X0334161Y0032985D01*
X0334161Y0031387D02*
X0328312Y0031387D01*
X0327753Y0029788D02*
X0334161Y0029788D01*
X0332794Y0028190D02*
X0327091Y0028190D01*
X0325510Y0026591D02*
X0331195Y0026591D01*
X0334161Y0040978D02*
X0184087Y0040978D01*
X0183999Y0042576D02*
X0334161Y0042576D01*
X0334161Y0044175D02*
X0183422Y0044175D01*
X0182146Y0045773D02*
X0334161Y0045773D01*
X0334161Y0047372D02*
X0022800Y0047372D01*
X0022800Y0048970D02*
X0334161Y0048970D01*
X0334161Y0050569D02*
X0022800Y0050569D01*
X0022800Y0052167D02*
X0334161Y0052167D01*
X0334161Y0053766D02*
X0022800Y0053766D01*
X0022800Y0055364D02*
X0334161Y0055364D01*
X0334161Y0056963D02*
X0022800Y0056963D01*
X0022800Y0058561D02*
X0334161Y0058561D01*
X0334161Y0060160D02*
X0022800Y0060160D01*
X0022800Y0061758D02*
X0334161Y0061758D01*
X0334161Y0063357D02*
X0022800Y0063357D01*
X0022800Y0064955D02*
X0243006Y0064955D01*
X0243162Y0064800D02*
X0244238Y0064800D01*
X0256238Y0064800D01*
X0257000Y0065562D01*
X0257000Y0071300D01*
X0267738Y0071300D01*
X0268500Y0072062D01*
X0268500Y0075562D01*
X0271738Y0078800D01*
X0275238Y0078800D01*
X0276000Y0079562D01*
X0276000Y0083638D01*
X0275238Y0084400D01*
X0265500Y0084400D01*
X0265500Y0089638D01*
X0264738Y0090400D01*
X0238162Y0090400D01*
X0237400Y0089638D01*
X0237400Y0070562D01*
X0243162Y0064800D01*
X0241408Y0066554D02*
X0022800Y0066554D01*
X0022800Y0068152D02*
X0239809Y0068152D01*
X0238211Y0069751D02*
X0022800Y0069751D01*
X0022800Y0071349D02*
X0027849Y0071349D01*
X0026561Y0072638D02*
X0029138Y0070061D01*
X0032783Y0070061D01*
X0035361Y0072638D01*
X0035361Y0076283D01*
X0032783Y0078861D01*
X0029138Y0078861D01*
X0026561Y0076283D01*
X0026561Y0072638D01*
X0026561Y0072948D02*
X0022800Y0072948D01*
X0022800Y0074546D02*
X0026561Y0074546D01*
X0026561Y0076145D02*
X0022800Y0076145D01*
X0022800Y0077743D02*
X0028021Y0077743D01*
X0029138Y0080061D02*
X0032783Y0080061D01*
X0035361Y0082638D01*
X0035361Y0086283D01*
X0032783Y0088861D01*
X0029138Y0088861D01*
X0026561Y0086283D01*
X0026561Y0082638D01*
X0029138Y0080061D01*
X0028258Y0080940D02*
X0022800Y0080940D01*
X0022800Y0079342D02*
X0237400Y0079342D01*
X0237400Y0080940D02*
X0043663Y0080940D01*
X0042783Y0080061D02*
X0045361Y0082638D01*
X0045361Y0086283D01*
X0042783Y0088861D01*
X0039138Y0088861D01*
X0036561Y0086283D01*
X0036561Y0082638D01*
X0039138Y0080061D01*
X0042783Y0080061D01*
X0044541Y0078861D02*
X0037381Y0078861D01*
X0036561Y0078041D01*
X0036561Y0070881D01*
X0037381Y0070061D01*
X0044541Y0070061D01*
X0045361Y0070881D01*
X0045361Y0078041D01*
X0044541Y0078861D01*
X0045361Y0077743D02*
X0237400Y0077743D01*
X0237400Y0076145D02*
X0045361Y0076145D01*
X0045361Y0074546D02*
X0237400Y0074546D01*
X0237400Y0072948D02*
X0045361Y0072948D01*
X0045361Y0071349D02*
X0237400Y0071349D01*
X0237400Y0082539D02*
X0045261Y0082539D01*
X0045361Y0084137D02*
X0199445Y0084137D01*
X0200491Y0083704D02*
X0203713Y0083704D01*
X0206690Y0084937D01*
X0208969Y0087215D01*
X0210202Y0090192D01*
X0210202Y0093414D01*
X0208969Y0096391D01*
X0206690Y0098669D01*
X0203713Y0099902D01*
X0200491Y0099902D01*
X0197515Y0098669D01*
X0195236Y0096391D01*
X0194003Y0093414D01*
X0194003Y0090192D01*
X0195236Y0087215D01*
X0197515Y0084937D01*
X0200491Y0083704D01*
X0196716Y0085736D02*
X0045361Y0085736D01*
X0044309Y0087334D02*
X0195187Y0087334D01*
X0194525Y0088933D02*
X0022800Y0088933D01*
X0022800Y0087334D02*
X0027612Y0087334D01*
X0026561Y0085736D02*
X0022800Y0085736D01*
X0022800Y0084137D02*
X0026561Y0084137D01*
X0026660Y0082539D02*
X0022800Y0082539D01*
X0022800Y0090532D02*
X0028667Y0090532D01*
X0029138Y0090061D02*
X0032783Y0090061D01*
X0035361Y0092638D01*
X0035361Y0096283D01*
X0032783Y0098861D01*
X0029138Y0098861D01*
X0026561Y0096283D01*
X0026561Y0092638D01*
X0029138Y0090061D01*
X0027069Y0092130D02*
X0022800Y0092130D01*
X0022800Y0093729D02*
X0026561Y0093729D01*
X0026561Y0095327D02*
X0022800Y0095327D01*
X0022800Y0096926D02*
X0027203Y0096926D01*
X0028802Y0098524D02*
X0022800Y0098524D01*
X0022800Y0100123D02*
X0029076Y0100123D01*
X0029138Y0100061D02*
X0032783Y0100061D01*
X0035361Y0102638D01*
X0035361Y0106283D01*
X0032783Y0108861D01*
X0029138Y0108861D01*
X0026561Y0106283D01*
X0026561Y0102638D01*
X0029138Y0100061D01*
X0027478Y0101721D02*
X0022800Y0101721D01*
X0022800Y0103320D02*
X0026561Y0103320D01*
X0026561Y0104918D02*
X0022800Y0104918D01*
X0022800Y0106517D02*
X0026794Y0106517D01*
X0028393Y0108115D02*
X0022800Y0108115D01*
X0022800Y0109714D02*
X0334161Y0109714D01*
X0334161Y0111312D02*
X0044035Y0111312D01*
X0042783Y0110061D02*
X0045361Y0112638D01*
X0045361Y0116283D01*
X0042783Y0118861D01*
X0039138Y0118861D01*
X0036561Y0116283D01*
X0036561Y0112638D01*
X0039138Y0110061D01*
X0042783Y0110061D01*
X0042783Y0108861D02*
X0039138Y0108861D01*
X0036561Y0106283D01*
X0036561Y0102638D01*
X0039138Y0100061D01*
X0042783Y0100061D01*
X0045361Y0102638D01*
X0045361Y0106283D01*
X0042783Y0108861D01*
X0043529Y0108115D02*
X0334161Y0108115D01*
X0334161Y0106517D02*
X0045127Y0106517D01*
X0045361Y0104918D02*
X0334161Y0104918D01*
X0334161Y0103320D02*
X0045361Y0103320D01*
X0044444Y0101721D02*
X0334161Y0101721D01*
X0334161Y0100123D02*
X0042845Y0100123D01*
X0042783Y0098861D02*
X0039138Y0098861D01*
X0036561Y0096283D01*
X0036561Y0092638D01*
X0039138Y0090061D01*
X0042783Y0090061D01*
X0045361Y0092638D01*
X0045361Y0096283D01*
X0042783Y0098861D01*
X0043120Y0098524D02*
X0197369Y0098524D01*
X0195771Y0096926D02*
X0044718Y0096926D01*
X0045361Y0095327D02*
X0194795Y0095327D01*
X0194133Y0093729D02*
X0045361Y0093729D01*
X0044853Y0092130D02*
X0194003Y0092130D01*
X0194003Y0090532D02*
X0043254Y0090532D01*
X0038667Y0090532D02*
X0033254Y0090532D01*
X0034853Y0092130D02*
X0037069Y0092130D01*
X0036561Y0093729D02*
X0035361Y0093729D01*
X0035361Y0095327D02*
X0036561Y0095327D01*
X0037203Y0096926D02*
X0034718Y0096926D01*
X0033120Y0098524D02*
X0038802Y0098524D01*
X0039076Y0100123D02*
X0032845Y0100123D01*
X0034444Y0101721D02*
X0037478Y0101721D01*
X0036561Y0103320D02*
X0035361Y0103320D01*
X0035361Y0104918D02*
X0036561Y0104918D01*
X0036794Y0106517D02*
X0035127Y0106517D01*
X0033529Y0108115D02*
X0038393Y0108115D01*
X0037887Y0111312D02*
X0034035Y0111312D01*
X0032783Y0110061D02*
X0035361Y0112638D01*
X0035361Y0116283D01*
X0032783Y0118861D01*
X0029138Y0118861D01*
X0026561Y0116283D01*
X0026561Y0112638D01*
X0029138Y0110061D01*
X0032783Y0110061D01*
X0035361Y0112911D02*
X0036561Y0112911D01*
X0036561Y0114509D02*
X0035361Y0114509D01*
X0035361Y0116108D02*
X0036561Y0116108D01*
X0037984Y0117706D02*
X0033938Y0117706D01*
X0032783Y0120061D02*
X0035361Y0122638D01*
X0035361Y0126283D01*
X0032783Y0128861D01*
X0029138Y0128861D01*
X0026561Y0126283D01*
X0026561Y0122638D01*
X0029138Y0120061D01*
X0032783Y0120061D01*
X0033626Y0120903D02*
X0038295Y0120903D01*
X0039138Y0120061D02*
X0036561Y0122638D01*
X0036561Y0126283D01*
X0039138Y0128861D01*
X0042783Y0128861D01*
X0045361Y0126283D01*
X0045361Y0122638D01*
X0042783Y0120061D01*
X0039138Y0120061D01*
X0036697Y0122502D02*
X0035224Y0122502D01*
X0035361Y0124100D02*
X0036561Y0124100D01*
X0036561Y0125699D02*
X0035361Y0125699D01*
X0034346Y0127297D02*
X0037575Y0127297D01*
X0039138Y0130061D02*
X0042783Y0130061D01*
X0045361Y0132638D01*
X0045361Y0136283D01*
X0042783Y0138861D01*
X0039138Y0138861D01*
X0036561Y0136283D01*
X0036561Y0132638D01*
X0039138Y0130061D01*
X0038704Y0130494D02*
X0033783Y0130494D01*
X0032949Y0129661D02*
X0035761Y0132472D01*
X0035761Y0134261D01*
X0031161Y0134261D01*
X0031161Y0134661D01*
X0030761Y0134661D01*
X0030761Y0139261D01*
X0028972Y0139261D01*
X0026161Y0136449D01*
X0026161Y0134661D01*
X0030761Y0134661D01*
X0030761Y0134261D01*
X0026161Y0134261D01*
X0026161Y0132472D01*
X0028972Y0129661D01*
X0030761Y0129661D01*
X0030761Y0134261D01*
X0031161Y0134261D01*
X0031161Y0129661D01*
X0032949Y0129661D01*
X0031161Y0130494D02*
X0030761Y0130494D01*
X0030761Y0132093D02*
X0031161Y0132093D01*
X0031161Y0133691D02*
X0030761Y0133691D01*
X0031161Y0134661D02*
X0035761Y0134661D01*
X0035761Y0136449D01*
X0032949Y0139261D01*
X0031161Y0139261D01*
X0031161Y0134661D01*
X0031161Y0135290D02*
X0030761Y0135290D01*
X0030761Y0136888D02*
X0031161Y0136888D01*
X0031161Y0138487D02*
X0030761Y0138487D01*
X0030761Y0139661D02*
X0030761Y0144261D01*
X0026161Y0144261D01*
X0026161Y0142472D01*
X0028972Y0139661D01*
X0030761Y0139661D01*
X0031161Y0139661D02*
X0032949Y0139661D01*
X0035761Y0142472D01*
X0035761Y0144261D01*
X0031161Y0144261D01*
X0031161Y0144661D01*
X0030761Y0144661D01*
X0030761Y0149261D01*
X0028972Y0149261D01*
X0026161Y0146449D01*
X0026161Y0144661D01*
X0030761Y0144661D01*
X0030761Y0144261D01*
X0031161Y0144261D01*
X0031161Y0139661D01*
X0031161Y0140085D02*
X0030761Y0140085D01*
X0030761Y0141684D02*
X0031161Y0141684D01*
X0031161Y0143282D02*
X0030761Y0143282D01*
X0031161Y0144661D02*
X0035761Y0144661D01*
X0035761Y0146449D01*
X0032949Y0149261D01*
X0031161Y0149261D01*
X0031161Y0144661D01*
X0031161Y0144881D02*
X0030761Y0144881D01*
X0030761Y0146479D02*
X0031161Y0146479D01*
X0031161Y0148078D02*
X0030761Y0148078D01*
X0030761Y0149661D02*
X0030761Y0154261D01*
X0026161Y0154261D01*
X0026161Y0152472D01*
X0028972Y0149661D01*
X0030761Y0149661D01*
X0030761Y0149676D02*
X0031161Y0149676D01*
X0031161Y0149661D02*
X0032949Y0149661D01*
X0035761Y0152472D01*
X0035761Y0154261D01*
X0031161Y0154261D01*
X0031161Y0154661D01*
X0030761Y0154661D01*
X0030761Y0159261D01*
X0028972Y0159261D01*
X0026161Y0156449D01*
X0026161Y0154661D01*
X0030761Y0154661D01*
X0030761Y0154261D01*
X0031161Y0154261D01*
X0031161Y0149661D01*
X0031161Y0151275D02*
X0030761Y0151275D01*
X0030761Y0152873D02*
X0031161Y0152873D01*
X0031161Y0154472D02*
X0036561Y0154472D01*
X0035761Y0154661D02*
X0035761Y0156449D01*
X0032949Y0159261D01*
X0031161Y0159261D01*
X0031161Y0154661D01*
X0035761Y0154661D01*
X0035761Y0156070D02*
X0036561Y0156070D01*
X0036561Y0156283D02*
X0036561Y0152638D01*
X0039138Y0150061D01*
X0042783Y0150061D01*
X0045361Y0152638D01*
X0045361Y0156283D01*
X0042783Y0158861D01*
X0039138Y0158861D01*
X0036561Y0156283D01*
X0037946Y0157669D02*
X0034540Y0157669D01*
X0032949Y0159661D02*
X0035761Y0162472D01*
X0035761Y0164261D01*
X0031161Y0164261D01*
X0031161Y0164661D01*
X0030761Y0164661D01*
X0030761Y0169261D01*
X0028972Y0169261D01*
X0026161Y0166449D01*
X0026161Y0164661D01*
X0030761Y0164661D01*
X0030761Y0164261D01*
X0026161Y0164261D01*
X0026161Y0162472D01*
X0028972Y0159661D01*
X0030761Y0159661D01*
X0030761Y0164261D01*
X0031161Y0164261D01*
X0031161Y0159661D01*
X0032949Y0159661D01*
X0034154Y0160866D02*
X0038333Y0160866D01*
X0039138Y0160061D02*
X0042783Y0160061D01*
X0045361Y0162638D01*
X0045361Y0166283D01*
X0042783Y0168861D01*
X0039138Y0168861D01*
X0036561Y0166283D01*
X0036561Y0162638D01*
X0039138Y0160061D01*
X0036734Y0162465D02*
X0035753Y0162465D01*
X0035761Y0164063D02*
X0036561Y0164063D01*
X0035761Y0164661D02*
X0035761Y0166449D01*
X0032949Y0169261D01*
X0031161Y0169261D01*
X0031161Y0164661D01*
X0035761Y0164661D01*
X0035761Y0165662D02*
X0036561Y0165662D01*
X0037538Y0167260D02*
X0034949Y0167260D01*
X0033351Y0168859D02*
X0039136Y0168859D01*
X0042785Y0168859D02*
X0089319Y0168859D01*
X0089319Y0168439D02*
X0090139Y0167619D01*
X0090600Y0167619D01*
X0090600Y0161681D01*
X0090139Y0161681D01*
X0089319Y0160861D01*
X0089319Y0156139D01*
X0090139Y0155319D01*
X0094861Y0155319D01*
X0095681Y0156139D01*
X0095681Y0160861D01*
X0094861Y0161681D01*
X0094400Y0161681D01*
X0094400Y0167619D01*
X0094861Y0167619D01*
X0095681Y0168439D01*
X0095681Y0173161D01*
X0094861Y0173981D01*
X0090139Y0173981D01*
X0089319Y0173161D01*
X0089319Y0168439D01*
X0090600Y0167260D02*
X0044384Y0167260D01*
X0045361Y0165662D02*
X0090600Y0165662D01*
X0090600Y0164063D02*
X0045361Y0164063D01*
X0045187Y0162465D02*
X0090600Y0162465D01*
X0089324Y0160866D02*
X0043589Y0160866D01*
X0043975Y0157669D02*
X0089319Y0157669D01*
X0089319Y0159268D02*
X0022800Y0159268D01*
X0022800Y0160866D02*
X0027767Y0160866D01*
X0026169Y0162465D02*
X0022800Y0162465D01*
X0022800Y0164063D02*
X0026161Y0164063D01*
X0026161Y0165662D02*
X0022800Y0165662D01*
X0022800Y0167260D02*
X0026972Y0167260D01*
X0028570Y0168859D02*
X0022800Y0168859D01*
X0022800Y0170457D02*
X0089319Y0170457D01*
X0089319Y0172056D02*
X0022800Y0172056D01*
X0022800Y0173654D02*
X0089812Y0173654D01*
X0095188Y0173654D02*
X0213312Y0173654D01*
X0213439Y0173781D02*
X0212619Y0172961D01*
X0212619Y0168239D01*
X0213439Y0167419D01*
X0213900Y0167419D01*
X0213900Y0161981D01*
X0213439Y0161981D01*
X0212619Y0161161D01*
X0212619Y0156439D01*
X0213439Y0155619D01*
X0218161Y0155619D01*
X0218981Y0156439D01*
X0218981Y0161161D01*
X0218161Y0161981D01*
X0217700Y0161981D01*
X0217700Y0167419D01*
X0218161Y0167419D01*
X0218981Y0168239D01*
X0218981Y0172961D01*
X0218161Y0173781D01*
X0213439Y0173781D01*
X0212619Y0172056D02*
X0095681Y0172056D01*
X0095681Y0170457D02*
X0212619Y0170457D01*
X0212619Y0168859D02*
X0095681Y0168859D01*
X0094400Y0167260D02*
X0213900Y0167260D01*
X0213900Y0165662D02*
X0094400Y0165662D01*
X0094400Y0164063D02*
X0213900Y0164063D01*
X0213900Y0162465D02*
X0094400Y0162465D01*
X0095676Y0160866D02*
X0212619Y0160866D01*
X0212619Y0159268D02*
X0095681Y0159268D01*
X0095681Y0157669D02*
X0212619Y0157669D01*
X0212987Y0156070D02*
X0095613Y0156070D01*
X0089387Y0156070D02*
X0045361Y0156070D01*
X0045361Y0154472D02*
X0334161Y0154472D01*
X0334161Y0156070D02*
X0226013Y0156070D01*
X0226381Y0156439D02*
X0225561Y0155619D01*
X0220839Y0155619D01*
X0220019Y0156439D01*
X0220019Y0161161D01*
X0220839Y0161981D01*
X0221300Y0161981D01*
X0221300Y0167419D01*
X0220839Y0167419D01*
X0220019Y0168239D01*
X0220019Y0172961D01*
X0220839Y0173781D01*
X0225561Y0173781D01*
X0226381Y0172961D01*
X0226381Y0168239D01*
X0225561Y0167419D01*
X0225100Y0167419D01*
X0225100Y0161981D01*
X0225561Y0161981D01*
X0226381Y0161161D01*
X0226381Y0156439D01*
X0226381Y0157669D02*
X0334161Y0157669D01*
X0334161Y0159268D02*
X0226381Y0159268D01*
X0226381Y0160866D02*
X0334161Y0160866D01*
X0334161Y0162465D02*
X0225100Y0162465D01*
X0225100Y0164063D02*
X0334161Y0164063D01*
X0334161Y0165662D02*
X0225100Y0165662D01*
X0225100Y0167260D02*
X0334161Y0167260D01*
X0334161Y0168859D02*
X0226381Y0168859D01*
X0226381Y0170457D02*
X0334161Y0170457D01*
X0334161Y0172056D02*
X0226381Y0172056D01*
X0225688Y0173654D02*
X0334161Y0173654D01*
X0334161Y0175253D02*
X0022800Y0175253D01*
X0022800Y0176851D02*
X0143026Y0176851D01*
X0143608Y0176270D02*
X0145225Y0175600D01*
X0152975Y0175600D01*
X0154592Y0176270D01*
X0155830Y0177508D01*
X0156500Y0179125D01*
X0156500Y0180875D01*
X0155830Y0182492D01*
X0154592Y0183730D01*
X0152975Y0184400D01*
X0145225Y0184400D01*
X0143608Y0183730D01*
X0142370Y0182492D01*
X0141700Y0180875D01*
X0141700Y0179125D01*
X0142370Y0177508D01*
X0143608Y0176270D01*
X0141980Y0178450D02*
X0022800Y0178450D01*
X0022800Y0180048D02*
X0141700Y0180048D01*
X0142020Y0181647D02*
X0045361Y0181647D01*
X0045361Y0180881D02*
X0045361Y0188041D01*
X0044541Y0188861D01*
X0037381Y0188861D01*
X0036561Y0188041D01*
X0033603Y0188041D01*
X0032783Y0188861D02*
X0035361Y0186283D01*
X0035361Y0182638D01*
X0032783Y0180061D01*
X0029138Y0180061D01*
X0026561Y0182638D01*
X0026561Y0186283D01*
X0029138Y0188861D01*
X0032783Y0188861D01*
X0032783Y0190061D02*
X0035361Y0192638D01*
X0035361Y0196283D01*
X0032783Y0198861D01*
X0029138Y0198861D01*
X0026561Y0196283D01*
X0026561Y0192638D01*
X0029138Y0190061D01*
X0032783Y0190061D01*
X0033960Y0191238D02*
X0037961Y0191238D01*
X0039138Y0190061D02*
X0042783Y0190061D01*
X0045361Y0192638D01*
X0045361Y0196283D01*
X0042783Y0198861D01*
X0039138Y0198861D01*
X0036561Y0196283D01*
X0036561Y0192638D01*
X0039138Y0190061D01*
X0036561Y0188041D02*
X0036561Y0180881D01*
X0037381Y0180061D01*
X0044541Y0180061D01*
X0045361Y0180881D01*
X0045361Y0183245D02*
X0143123Y0183245D01*
X0143608Y0186270D02*
X0142370Y0187508D01*
X0141700Y0189125D01*
X0141700Y0190875D01*
X0142370Y0192492D01*
X0143608Y0193730D01*
X0145225Y0194400D01*
X0152975Y0194400D01*
X0154592Y0193730D01*
X0155830Y0192492D01*
X0156500Y0190875D01*
X0156500Y0189125D01*
X0155830Y0187508D01*
X0154592Y0186270D01*
X0152975Y0185600D01*
X0145225Y0185600D01*
X0143608Y0186270D01*
X0143435Y0186442D02*
X0045361Y0186442D01*
X0045361Y0184844D02*
X0334161Y0184844D01*
X0334161Y0186442D02*
X0254465Y0186442D01*
X0254092Y0186070D02*
X0255330Y0187308D01*
X0256000Y0188925D01*
X0256000Y0190675D01*
X0255330Y0192292D01*
X0254092Y0193530D01*
X0252475Y0194200D01*
X0244725Y0194200D01*
X0243108Y0193530D01*
X0241870Y0192292D01*
X0241200Y0190675D01*
X0241200Y0188925D01*
X0241870Y0187308D01*
X0243108Y0186070D01*
X0244725Y0185400D01*
X0252475Y0185400D01*
X0254092Y0186070D01*
X0252475Y0184200D02*
X0254092Y0183530D01*
X0255330Y0182292D01*
X0256000Y0180675D01*
X0256000Y0178925D01*
X0255330Y0177308D01*
X0254092Y0176070D01*
X0252475Y0175400D01*
X0244725Y0175400D01*
X0243108Y0176070D01*
X0241870Y0177308D01*
X0241200Y0178925D01*
X0241200Y0180675D01*
X0241870Y0182292D01*
X0243108Y0183530D01*
X0244725Y0184200D01*
X0252475Y0184200D01*
X0254377Y0183245D02*
X0334161Y0183245D01*
X0334161Y0181647D02*
X0255598Y0181647D01*
X0256000Y0180048D02*
X0334161Y0180048D01*
X0334161Y0178450D02*
X0255803Y0178450D01*
X0254874Y0176851D02*
X0334161Y0176851D01*
X0334161Y0188041D02*
X0255634Y0188041D01*
X0256000Y0189639D02*
X0334161Y0189639D01*
X0334161Y0191238D02*
X0255767Y0191238D01*
X0254786Y0192836D02*
X0334161Y0192836D01*
X0334161Y0194435D02*
X0045361Y0194435D01*
X0045361Y0196033D02*
X0334161Y0196033D01*
X0334161Y0197632D02*
X0044012Y0197632D01*
X0042783Y0200061D02*
X0045361Y0202638D01*
X0045361Y0206283D01*
X0042783Y0208861D01*
X0039138Y0208861D01*
X0036561Y0206283D01*
X0036561Y0202638D01*
X0039138Y0200061D01*
X0042783Y0200061D01*
X0043551Y0200829D02*
X0334161Y0200829D01*
X0334161Y0202427D02*
X0045150Y0202427D01*
X0045361Y0204026D02*
X0334161Y0204026D01*
X0334161Y0205624D02*
X0045361Y0205624D01*
X0044421Y0207223D02*
X0334161Y0207223D01*
X0334161Y0208821D02*
X0042822Y0208821D01*
X0042783Y0210061D02*
X0045361Y0212638D01*
X0045361Y0216283D01*
X0042783Y0218861D01*
X0039138Y0218861D01*
X0036561Y0216283D01*
X0036561Y0212638D01*
X0039138Y0210061D01*
X0042783Y0210061D01*
X0043142Y0210420D02*
X0334161Y0210420D01*
X0334161Y0212018D02*
X0044741Y0212018D01*
X0045361Y0213617D02*
X0334161Y0213617D01*
X0334161Y0215215D02*
X0045361Y0215215D01*
X0044830Y0216814D02*
X0334161Y0216814D01*
X0334161Y0218412D02*
X0043231Y0218412D01*
X0042783Y0220061D02*
X0045361Y0222638D01*
X0045361Y0226283D01*
X0042783Y0228861D01*
X0039138Y0228861D01*
X0036561Y0226283D01*
X0036561Y0222638D01*
X0039138Y0220061D01*
X0042783Y0220061D01*
X0044332Y0221609D02*
X0334161Y0221609D01*
X0334161Y0220011D02*
X0022800Y0220011D01*
X0022800Y0221609D02*
X0027589Y0221609D01*
X0026561Y0222638D02*
X0029138Y0220061D01*
X0032783Y0220061D01*
X0035361Y0222638D01*
X0035361Y0226283D01*
X0032783Y0228861D01*
X0029138Y0228861D01*
X0026561Y0226283D01*
X0026561Y0222638D01*
X0026561Y0223208D02*
X0022800Y0223208D01*
X0022800Y0224806D02*
X0026561Y0224806D01*
X0026682Y0226405D02*
X0022800Y0226405D01*
X0022800Y0228003D02*
X0028281Y0228003D01*
X0029138Y0230061D02*
X0026561Y0232638D01*
X0026561Y0236283D01*
X0029138Y0238861D01*
X0032783Y0238861D01*
X0035361Y0236283D01*
X0035361Y0232638D01*
X0032783Y0230061D01*
X0029138Y0230061D01*
X0027998Y0231201D02*
X0022800Y0231201D01*
X0022800Y0232799D02*
X0026561Y0232799D01*
X0026561Y0234398D02*
X0022800Y0234398D01*
X0022800Y0235996D02*
X0026561Y0235996D01*
X0027872Y0237595D02*
X0022800Y0237595D01*
X0022800Y0239193D02*
X0334161Y0239193D01*
X0334161Y0237595D02*
X0044049Y0237595D01*
X0042783Y0238861D02*
X0045361Y0236283D01*
X0045361Y0232638D01*
X0042783Y0230061D01*
X0039138Y0230061D01*
X0036561Y0232638D01*
X0036561Y0236283D01*
X0039138Y0238861D01*
X0042783Y0238861D01*
X0042783Y0240061D02*
X0045361Y0242638D01*
X0045361Y0246283D01*
X0042783Y0248861D01*
X0039138Y0248861D01*
X0036561Y0246283D01*
X0036561Y0242638D01*
X0039138Y0240061D01*
X0042783Y0240061D01*
X0043514Y0240792D02*
X0334161Y0240792D01*
X0334161Y0242390D02*
X0045113Y0242390D01*
X0045361Y0243989D02*
X0334161Y0243989D01*
X0334161Y0245587D02*
X0045361Y0245587D01*
X0044458Y0247186D02*
X0334161Y0247186D01*
X0334161Y0248784D02*
X0042860Y0248784D01*
X0042783Y0250061D02*
X0045361Y0252638D01*
X0045361Y0256283D01*
X0042783Y0258861D01*
X0039138Y0258861D01*
X0036561Y0256283D01*
X0036561Y0252638D01*
X0039138Y0250061D01*
X0042783Y0250061D01*
X0043105Y0250383D02*
X0197423Y0250383D01*
X0197515Y0250291D02*
X0200491Y0249058D01*
X0203713Y0249058D01*
X0206690Y0250291D01*
X0208969Y0252570D01*
X0210202Y0255546D01*
X0210202Y0258769D01*
X0208969Y0261745D01*
X0206690Y0264024D01*
X0203713Y0265257D01*
X0200491Y0265257D01*
X0197515Y0264024D01*
X0195236Y0261745D01*
X0194003Y0258769D01*
X0194003Y0255546D01*
X0195236Y0252570D01*
X0197515Y0250291D01*
X0195825Y0251981D02*
X0044704Y0251981D01*
X0045361Y0253580D02*
X0194818Y0253580D01*
X0194156Y0255178D02*
X0045361Y0255178D01*
X0044867Y0256777D02*
X0194003Y0256777D01*
X0194003Y0258375D02*
X0043269Y0258375D01*
X0042783Y0260061D02*
X0045361Y0262638D01*
X0045361Y0266283D01*
X0042783Y0268861D01*
X0039138Y0268861D01*
X0036561Y0266283D01*
X0036561Y0262638D01*
X0039138Y0260061D01*
X0042783Y0260061D01*
X0044295Y0261572D02*
X0195164Y0261572D01*
X0194502Y0259974D02*
X0022800Y0259974D01*
X0022800Y0261572D02*
X0027626Y0261572D01*
X0026561Y0262638D02*
X0029138Y0260061D01*
X0032783Y0260061D01*
X0035361Y0262638D01*
X0035361Y0266283D01*
X0032783Y0268861D01*
X0029138Y0268861D01*
X0026561Y0266283D01*
X0026561Y0262638D01*
X0026561Y0263171D02*
X0022800Y0263171D01*
X0022800Y0264769D02*
X0026561Y0264769D01*
X0026645Y0266368D02*
X0022800Y0266368D01*
X0022800Y0267966D02*
X0028244Y0267966D01*
X0029138Y0270061D02*
X0026561Y0272638D01*
X0026561Y0276283D01*
X0029138Y0278861D01*
X0032783Y0278861D01*
X0035361Y0276283D01*
X0035361Y0272638D01*
X0032783Y0270061D01*
X0029138Y0270061D01*
X0028035Y0271163D02*
X0022800Y0271163D01*
X0022800Y0269565D02*
X0334161Y0269565D01*
X0334161Y0271163D02*
X0043886Y0271163D01*
X0042783Y0270061D02*
X0045361Y0272638D01*
X0045361Y0276283D01*
X0042783Y0278861D01*
X0039138Y0278861D01*
X0036561Y0276283D01*
X0036561Y0272638D01*
X0039138Y0270061D01*
X0042783Y0270061D01*
X0043677Y0267966D02*
X0334161Y0267966D01*
X0334161Y0266368D02*
X0045276Y0266368D01*
X0045361Y0264769D02*
X0199315Y0264769D01*
X0196662Y0263171D02*
X0045361Y0263171D01*
X0037626Y0261572D02*
X0034295Y0261572D01*
X0035361Y0263171D02*
X0036561Y0263171D01*
X0036561Y0264769D02*
X0035361Y0264769D01*
X0035276Y0266368D02*
X0036645Y0266368D01*
X0038244Y0267966D02*
X0033677Y0267966D01*
X0033886Y0271163D02*
X0038035Y0271163D01*
X0036561Y0272762D02*
X0035361Y0272762D01*
X0035361Y0274360D02*
X0036561Y0274360D01*
X0036561Y0275959D02*
X0035361Y0275959D01*
X0034086Y0277557D02*
X0037835Y0277557D01*
X0044086Y0277557D02*
X0334161Y0277557D01*
X0334161Y0275959D02*
X0045361Y0275959D01*
X0045361Y0274360D02*
X0334161Y0274360D01*
X0334161Y0272762D02*
X0045361Y0272762D01*
X0038653Y0258375D02*
X0033269Y0258375D01*
X0032783Y0258861D02*
X0029138Y0258861D01*
X0026561Y0256283D01*
X0026561Y0252638D01*
X0029138Y0250061D01*
X0032783Y0250061D01*
X0035361Y0252638D01*
X0035361Y0256283D01*
X0032783Y0258861D01*
X0034867Y0256777D02*
X0037054Y0256777D01*
X0036561Y0255178D02*
X0035361Y0255178D01*
X0035361Y0253580D02*
X0036561Y0253580D01*
X0037218Y0251981D02*
X0034704Y0251981D01*
X0033105Y0250383D02*
X0038816Y0250383D01*
X0039062Y0248784D02*
X0032860Y0248784D01*
X0032783Y0248861D02*
X0029138Y0248861D01*
X0026561Y0246283D01*
X0026561Y0242638D01*
X0029138Y0240061D01*
X0032783Y0240061D01*
X0035361Y0242638D01*
X0035361Y0246283D01*
X0032783Y0248861D01*
X0034458Y0247186D02*
X0037463Y0247186D01*
X0036561Y0245587D02*
X0035361Y0245587D01*
X0035361Y0243989D02*
X0036561Y0243989D01*
X0036809Y0242390D02*
X0035113Y0242390D01*
X0033514Y0240792D02*
X0038407Y0240792D01*
X0037872Y0237595D02*
X0034049Y0237595D01*
X0035361Y0235996D02*
X0036561Y0235996D01*
X0036561Y0234398D02*
X0035361Y0234398D01*
X0035361Y0232799D02*
X0036561Y0232799D01*
X0037998Y0231201D02*
X0033923Y0231201D01*
X0033640Y0228003D02*
X0038281Y0228003D01*
X0036682Y0226405D02*
X0035239Y0226405D01*
X0035361Y0224806D02*
X0036561Y0224806D01*
X0036561Y0223208D02*
X0035361Y0223208D01*
X0034332Y0221609D02*
X0037589Y0221609D01*
X0038690Y0218412D02*
X0033231Y0218412D01*
X0032783Y0218861D02*
X0029138Y0218861D01*
X0026561Y0216283D01*
X0026561Y0212638D01*
X0029138Y0210061D01*
X0032783Y0210061D01*
X0035361Y0212638D01*
X0035361Y0216283D01*
X0032783Y0218861D01*
X0034830Y0216814D02*
X0037091Y0216814D01*
X0036561Y0215215D02*
X0035361Y0215215D01*
X0035361Y0213617D02*
X0036561Y0213617D01*
X0037180Y0212018D02*
X0034741Y0212018D01*
X0033142Y0210420D02*
X0038779Y0210420D01*
X0039099Y0208821D02*
X0032822Y0208821D01*
X0032783Y0208861D02*
X0029138Y0208861D01*
X0026561Y0206283D01*
X0026561Y0202638D01*
X0029138Y0200061D01*
X0032783Y0200061D01*
X0035361Y0202638D01*
X0035361Y0206283D01*
X0032783Y0208861D01*
X0034421Y0207223D02*
X0037500Y0207223D01*
X0036561Y0205624D02*
X0035361Y0205624D01*
X0035361Y0204026D02*
X0036561Y0204026D01*
X0036771Y0202427D02*
X0035150Y0202427D01*
X0033551Y0200829D02*
X0038370Y0200829D01*
X0037909Y0197632D02*
X0034012Y0197632D01*
X0035361Y0196033D02*
X0036561Y0196033D01*
X0036561Y0194435D02*
X0035361Y0194435D01*
X0035361Y0192836D02*
X0036561Y0192836D01*
X0036561Y0186442D02*
X0035202Y0186442D01*
X0035361Y0184844D02*
X0036561Y0184844D01*
X0036561Y0183245D02*
X0035361Y0183245D01*
X0034369Y0181647D02*
X0036561Y0181647D01*
X0045360Y0188041D02*
X0142149Y0188041D01*
X0141700Y0189639D02*
X0022800Y0189639D01*
X0022800Y0188041D02*
X0028318Y0188041D01*
X0026720Y0186442D02*
X0022800Y0186442D01*
X0022800Y0184844D02*
X0026561Y0184844D01*
X0026561Y0183245D02*
X0022800Y0183245D01*
X0022800Y0181647D02*
X0027552Y0181647D01*
X0027961Y0191238D02*
X0022800Y0191238D01*
X0022800Y0192836D02*
X0026561Y0192836D01*
X0026561Y0194435D02*
X0022800Y0194435D01*
X0022800Y0196033D02*
X0026561Y0196033D01*
X0027909Y0197632D02*
X0022800Y0197632D01*
X0022800Y0199230D02*
X0334161Y0199230D01*
X0334161Y0223208D02*
X0045361Y0223208D01*
X0045361Y0224806D02*
X0334161Y0224806D01*
X0334161Y0226405D02*
X0045239Y0226405D01*
X0043640Y0228003D02*
X0334161Y0228003D01*
X0334161Y0229602D02*
X0022800Y0229602D01*
X0022800Y0218412D02*
X0028690Y0218412D01*
X0027091Y0216814D02*
X0022800Y0216814D01*
X0022800Y0215215D02*
X0026561Y0215215D01*
X0026561Y0213617D02*
X0022800Y0213617D01*
X0022800Y0212018D02*
X0027180Y0212018D01*
X0028779Y0210420D02*
X0022800Y0210420D01*
X0022800Y0208821D02*
X0029099Y0208821D01*
X0027500Y0207223D02*
X0022800Y0207223D01*
X0022800Y0205624D02*
X0026561Y0205624D01*
X0026561Y0204026D02*
X0022800Y0204026D01*
X0022800Y0202427D02*
X0026771Y0202427D01*
X0028370Y0200829D02*
X0022800Y0200829D01*
X0043960Y0191238D02*
X0141850Y0191238D01*
X0142714Y0192836D02*
X0045361Y0192836D01*
X0031161Y0168859D02*
X0030761Y0168859D01*
X0030761Y0167260D02*
X0031161Y0167260D01*
X0031161Y0165662D02*
X0030761Y0165662D01*
X0030761Y0164063D02*
X0031161Y0164063D01*
X0031161Y0162465D02*
X0030761Y0162465D01*
X0030761Y0160866D02*
X0031161Y0160866D01*
X0031161Y0157669D02*
X0030761Y0157669D01*
X0030761Y0156070D02*
X0031161Y0156070D01*
X0030761Y0154472D02*
X0022800Y0154472D01*
X0022800Y0156070D02*
X0026161Y0156070D01*
X0027381Y0157669D02*
X0022800Y0157669D01*
X0022800Y0152873D02*
X0026161Y0152873D01*
X0027358Y0151275D02*
X0022800Y0151275D01*
X0022800Y0149676D02*
X0028957Y0149676D01*
X0027790Y0148078D02*
X0022800Y0148078D01*
X0022800Y0146479D02*
X0026191Y0146479D01*
X0026161Y0144881D02*
X0022800Y0144881D01*
X0022800Y0143282D02*
X0026161Y0143282D01*
X0026949Y0141684D02*
X0022800Y0141684D01*
X0022800Y0140085D02*
X0028548Y0140085D01*
X0028199Y0138487D02*
X0022800Y0138487D01*
X0022800Y0136888D02*
X0026600Y0136888D01*
X0026161Y0135290D02*
X0022800Y0135290D01*
X0022800Y0133691D02*
X0026161Y0133691D01*
X0026540Y0132093D02*
X0022800Y0132093D01*
X0022800Y0130494D02*
X0028139Y0130494D01*
X0027575Y0127297D02*
X0022800Y0127297D01*
X0022800Y0125699D02*
X0026561Y0125699D01*
X0026561Y0124100D02*
X0022800Y0124100D01*
X0022800Y0122502D02*
X0026697Y0122502D01*
X0028295Y0120903D02*
X0022800Y0120903D01*
X0022800Y0119305D02*
X0334161Y0119305D01*
X0334161Y0120903D02*
X0043626Y0120903D01*
X0045224Y0122502D02*
X0334161Y0122502D01*
X0334161Y0124100D02*
X0045361Y0124100D01*
X0045361Y0125699D02*
X0334161Y0125699D01*
X0334161Y0127297D02*
X0044346Y0127297D01*
X0043217Y0130494D02*
X0334161Y0130494D01*
X0334161Y0128896D02*
X0022800Y0128896D01*
X0022800Y0117706D02*
X0027984Y0117706D01*
X0026561Y0116108D02*
X0022800Y0116108D01*
X0022800Y0114509D02*
X0026561Y0114509D01*
X0026561Y0112911D02*
X0022800Y0112911D01*
X0022800Y0111312D02*
X0027887Y0111312D01*
X0043938Y0117706D02*
X0334161Y0117706D01*
X0334161Y0116108D02*
X0045361Y0116108D01*
X0045361Y0114509D02*
X0334161Y0114509D01*
X0334161Y0112911D02*
X0045361Y0112911D01*
X0044815Y0132093D02*
X0169935Y0132093D01*
X0169508Y0132270D02*
X0171125Y0131600D01*
X0178875Y0131600D01*
X0180492Y0132270D01*
X0181730Y0133508D01*
X0182400Y0135125D01*
X0182400Y0136875D01*
X0181730Y0138492D01*
X0180492Y0139730D01*
X0178875Y0140400D01*
X0171125Y0140400D01*
X0169508Y0139730D01*
X0168270Y0138492D01*
X0167600Y0136875D01*
X0167600Y0135125D01*
X0168270Y0133508D01*
X0169508Y0132270D01*
X0168194Y0133691D02*
X0045361Y0133691D01*
X0045361Y0135290D02*
X0167600Y0135290D01*
X0167605Y0136888D02*
X0044755Y0136888D01*
X0043157Y0138487D02*
X0168268Y0138487D01*
X0170365Y0140085D02*
X0042808Y0140085D01*
X0042783Y0140061D02*
X0045361Y0142638D01*
X0045361Y0146283D01*
X0042783Y0148861D01*
X0039138Y0148861D01*
X0036561Y0146283D01*
X0036561Y0142638D01*
X0039138Y0140061D01*
X0042783Y0140061D01*
X0044406Y0141684D02*
X0170922Y0141684D01*
X0171125Y0141600D02*
X0169508Y0142270D01*
X0168270Y0143508D01*
X0167600Y0145125D01*
X0167600Y0146875D01*
X0168270Y0148492D01*
X0169508Y0149730D01*
X0171125Y0150400D01*
X0178875Y0150400D01*
X0180492Y0149730D01*
X0181730Y0148492D01*
X0182400Y0146875D01*
X0182400Y0145125D01*
X0181730Y0143508D01*
X0180492Y0142270D01*
X0178875Y0141600D01*
X0171125Y0141600D01*
X0168495Y0143282D02*
X0045361Y0143282D01*
X0045361Y0144881D02*
X0167701Y0144881D01*
X0167600Y0146479D02*
X0045164Y0146479D01*
X0043566Y0148078D02*
X0168098Y0148078D01*
X0169454Y0149676D02*
X0032965Y0149676D01*
X0034132Y0148078D02*
X0038355Y0148078D01*
X0036757Y0146479D02*
X0035730Y0146479D01*
X0035761Y0144881D02*
X0036561Y0144881D01*
X0036561Y0143282D02*
X0035761Y0143282D01*
X0034972Y0141684D02*
X0037515Y0141684D01*
X0039113Y0140085D02*
X0033374Y0140085D01*
X0033723Y0138487D02*
X0038764Y0138487D01*
X0037166Y0136888D02*
X0035321Y0136888D01*
X0035761Y0135290D02*
X0036561Y0135290D01*
X0036561Y0133691D02*
X0035761Y0133691D01*
X0035381Y0132093D02*
X0037106Y0132093D01*
X0037924Y0151275D02*
X0034563Y0151275D01*
X0035761Y0152873D02*
X0036561Y0152873D01*
X0043997Y0151275D02*
X0334161Y0151275D01*
X0334161Y0152873D02*
X0045361Y0152873D01*
X0037612Y0087334D02*
X0034309Y0087334D01*
X0035361Y0085736D02*
X0036561Y0085736D01*
X0036561Y0084137D02*
X0035361Y0084137D01*
X0035261Y0082539D02*
X0036660Y0082539D01*
X0038258Y0080940D02*
X0033663Y0080940D01*
X0033900Y0077743D02*
X0036561Y0077743D01*
X0036561Y0076145D02*
X0035361Y0076145D01*
X0035361Y0074546D02*
X0036561Y0074546D01*
X0036561Y0072948D02*
X0035361Y0072948D01*
X0036561Y0071349D02*
X0034072Y0071349D01*
X0022800Y0045773D02*
X0174854Y0045773D01*
X0174852Y0045771D02*
X0174229Y0045148D01*
X0173710Y0044435D01*
X0173310Y0043650D01*
X0173038Y0042811D01*
X0172900Y0041941D01*
X0172900Y0041684D01*
X0178316Y0041684D01*
X0178316Y0047100D01*
X0178059Y0047100D01*
X0177189Y0046962D01*
X0176350Y0046690D01*
X0175565Y0046290D01*
X0174852Y0045771D01*
X0173578Y0044175D02*
X0022800Y0044175D01*
X0022800Y0042576D02*
X0173001Y0042576D01*
X0172913Y0040978D02*
X0022800Y0040978D01*
X0022800Y0039379D02*
X0031925Y0039379D01*
X0030327Y0037781D02*
X0022800Y0037781D01*
X0022800Y0036182D02*
X0029404Y0036182D01*
X0028742Y0034584D02*
X0022800Y0034584D01*
X0022800Y0032985D02*
X0028649Y0032985D01*
X0028649Y0031387D02*
X0022800Y0031387D01*
X0022800Y0029788D02*
X0029208Y0029788D01*
X0029870Y0028190D02*
X0024167Y0028190D01*
X0041571Y0039379D02*
X0173301Y0039379D01*
X0174300Y0037781D02*
X0043169Y0037781D01*
X0178316Y0037781D02*
X0178684Y0037781D01*
X0178684Y0039379D02*
X0178316Y0039379D01*
X0178316Y0040978D02*
X0178684Y0040978D01*
X0178684Y0042576D02*
X0178316Y0042576D01*
X0178316Y0044175D02*
X0178684Y0044175D01*
X0178684Y0045773D02*
X0178316Y0045773D01*
X0204760Y0084137D02*
X0237400Y0084137D01*
X0237400Y0085736D02*
X0207489Y0085736D01*
X0209018Y0087334D02*
X0237400Y0087334D01*
X0237400Y0088933D02*
X0209680Y0088933D01*
X0210202Y0090532D02*
X0334161Y0090532D01*
X0334161Y0092130D02*
X0210202Y0092130D01*
X0210071Y0093729D02*
X0334161Y0093729D01*
X0334161Y0095327D02*
X0209409Y0095327D01*
X0208434Y0096926D02*
X0334161Y0096926D01*
X0334161Y0098524D02*
X0206835Y0098524D01*
X0203125Y0131600D02*
X0201508Y0132270D01*
X0200270Y0133508D01*
X0199600Y0135125D01*
X0199600Y0136875D01*
X0200270Y0138492D01*
X0201508Y0139730D01*
X0203125Y0140400D01*
X0210875Y0140400D01*
X0212492Y0139730D01*
X0213730Y0138492D01*
X0214400Y0136875D01*
X0214400Y0135125D01*
X0213730Y0133508D01*
X0212492Y0132270D01*
X0210875Y0131600D01*
X0203125Y0131600D01*
X0201935Y0132093D02*
X0180065Y0132093D01*
X0181806Y0133691D02*
X0200194Y0133691D01*
X0199600Y0135290D02*
X0182400Y0135290D01*
X0182395Y0136888D02*
X0199605Y0136888D01*
X0200268Y0138487D02*
X0181732Y0138487D01*
X0179635Y0140085D02*
X0202365Y0140085D01*
X0202922Y0141684D02*
X0179078Y0141684D01*
X0181505Y0143282D02*
X0200495Y0143282D01*
X0200270Y0143508D02*
X0201508Y0142270D01*
X0203125Y0141600D01*
X0210875Y0141600D01*
X0212492Y0142270D01*
X0213730Y0143508D01*
X0214400Y0145125D01*
X0214400Y0146875D01*
X0213730Y0148492D01*
X0212492Y0149730D01*
X0210875Y0150400D01*
X0203125Y0150400D01*
X0201508Y0149730D01*
X0200270Y0148492D01*
X0199600Y0146875D01*
X0199600Y0145125D01*
X0200270Y0143508D01*
X0199701Y0144881D02*
X0182299Y0144881D01*
X0182400Y0146479D02*
X0199600Y0146479D01*
X0200098Y0148078D02*
X0181902Y0148078D01*
X0180546Y0149676D02*
X0201454Y0149676D01*
X0212546Y0149676D02*
X0235454Y0149676D01*
X0235508Y0149730D02*
X0234270Y0148492D01*
X0233600Y0146875D01*
X0233600Y0145125D01*
X0234270Y0143508D01*
X0235508Y0142270D01*
X0237125Y0141600D01*
X0244875Y0141600D01*
X0246492Y0142270D01*
X0247730Y0143508D01*
X0248400Y0145125D01*
X0248400Y0146875D01*
X0247730Y0148492D01*
X0246492Y0149730D01*
X0244875Y0150400D01*
X0237125Y0150400D01*
X0235508Y0149730D01*
X0234098Y0148078D02*
X0213902Y0148078D01*
X0214400Y0146479D02*
X0233600Y0146479D01*
X0233701Y0144881D02*
X0214299Y0144881D01*
X0213505Y0143282D02*
X0234495Y0143282D01*
X0236922Y0141684D02*
X0211078Y0141684D01*
X0211635Y0140085D02*
X0236365Y0140085D01*
X0237125Y0140400D02*
X0235508Y0139730D01*
X0234270Y0138492D01*
X0233600Y0136875D01*
X0233600Y0135125D01*
X0234270Y0133508D01*
X0235508Y0132270D01*
X0237125Y0131600D01*
X0244875Y0131600D01*
X0246492Y0132270D01*
X0247730Y0133508D01*
X0248400Y0135125D01*
X0248400Y0136875D01*
X0247730Y0138492D01*
X0246492Y0139730D01*
X0244875Y0140400D01*
X0237125Y0140400D01*
X0234268Y0138487D02*
X0213732Y0138487D01*
X0214395Y0136888D02*
X0233605Y0136888D01*
X0233600Y0135290D02*
X0214400Y0135290D01*
X0213806Y0133691D02*
X0234194Y0133691D01*
X0235935Y0132093D02*
X0212065Y0132093D01*
X0218613Y0156070D02*
X0220387Y0156070D01*
X0220019Y0157669D02*
X0218981Y0157669D01*
X0218981Y0159268D02*
X0220019Y0159268D01*
X0220019Y0160866D02*
X0218981Y0160866D01*
X0217700Y0162465D02*
X0221300Y0162465D01*
X0221300Y0164063D02*
X0217700Y0164063D01*
X0217700Y0165662D02*
X0221300Y0165662D01*
X0221300Y0167260D02*
X0217700Y0167260D01*
X0218981Y0168859D02*
X0220019Y0168859D01*
X0220019Y0170457D02*
X0218981Y0170457D01*
X0218981Y0172056D02*
X0220019Y0172056D01*
X0220712Y0173654D02*
X0218288Y0173654D01*
X0207962Y0178450D02*
X0241397Y0178450D01*
X0241200Y0180048D02*
X0208200Y0180048D01*
X0208200Y0180775D02*
X0207530Y0182392D01*
X0206292Y0183630D01*
X0204675Y0184300D01*
X0196925Y0184300D01*
X0195308Y0183630D01*
X0194070Y0182392D01*
X0193400Y0180775D01*
X0193400Y0179025D01*
X0194070Y0177408D01*
X0195308Y0176170D01*
X0196925Y0175500D01*
X0204675Y0175500D01*
X0206292Y0176170D01*
X0207530Y0177408D01*
X0208200Y0179025D01*
X0208200Y0180775D01*
X0207839Y0181647D02*
X0241602Y0181647D01*
X0242823Y0183245D02*
X0206677Y0183245D01*
X0206292Y0186170D02*
X0207530Y0187408D01*
X0208200Y0189025D01*
X0208200Y0190775D01*
X0207530Y0192392D01*
X0206292Y0193630D01*
X0204675Y0194300D01*
X0196925Y0194300D01*
X0195308Y0193630D01*
X0194070Y0192392D01*
X0193400Y0190775D01*
X0193400Y0189025D01*
X0194070Y0187408D01*
X0195308Y0186170D01*
X0196925Y0185500D01*
X0204675Y0185500D01*
X0206292Y0186170D01*
X0206565Y0186442D02*
X0242735Y0186442D01*
X0241566Y0188041D02*
X0207792Y0188041D01*
X0208200Y0189639D02*
X0241200Y0189639D01*
X0241433Y0191238D02*
X0208008Y0191238D01*
X0207086Y0192836D02*
X0242414Y0192836D01*
X0242326Y0176851D02*
X0206974Y0176851D01*
X0194626Y0176851D02*
X0155174Y0176851D01*
X0156220Y0178450D02*
X0193638Y0178450D01*
X0193400Y0180048D02*
X0156500Y0180048D01*
X0156180Y0181647D02*
X0193761Y0181647D01*
X0194923Y0183245D02*
X0155077Y0183245D01*
X0154765Y0186442D02*
X0195035Y0186442D01*
X0193808Y0188041D02*
X0156051Y0188041D01*
X0156500Y0189639D02*
X0193400Y0189639D01*
X0193592Y0191238D02*
X0156350Y0191238D01*
X0155486Y0192836D02*
X0194514Y0192836D01*
X0246546Y0149676D02*
X0334161Y0149676D01*
X0334161Y0148078D02*
X0247902Y0148078D01*
X0248400Y0146479D02*
X0334161Y0146479D01*
X0334161Y0144881D02*
X0248299Y0144881D01*
X0247505Y0143282D02*
X0334161Y0143282D01*
X0334161Y0141684D02*
X0245078Y0141684D01*
X0245635Y0140085D02*
X0334161Y0140085D01*
X0334161Y0138487D02*
X0247732Y0138487D01*
X0248395Y0136888D02*
X0334161Y0136888D01*
X0334161Y0135290D02*
X0248400Y0135290D01*
X0247806Y0133691D02*
X0334161Y0133691D01*
X0334161Y0132093D02*
X0246065Y0132093D01*
X0265500Y0088933D02*
X0334161Y0088933D01*
X0334161Y0087334D02*
X0265500Y0087334D01*
X0265500Y0085736D02*
X0334161Y0085736D01*
X0334161Y0084137D02*
X0275501Y0084137D01*
X0276000Y0082539D02*
X0334161Y0082539D01*
X0334161Y0080940D02*
X0276000Y0080940D01*
X0275780Y0079342D02*
X0334161Y0079342D01*
X0334161Y0077743D02*
X0270682Y0077743D01*
X0269083Y0076145D02*
X0334161Y0076145D01*
X0334161Y0074546D02*
X0268500Y0074546D01*
X0268500Y0072948D02*
X0334161Y0072948D01*
X0334161Y0071349D02*
X0267788Y0071349D01*
X0257000Y0069751D02*
X0334161Y0069751D01*
X0334161Y0068152D02*
X0257000Y0068152D01*
X0257000Y0066554D02*
X0334161Y0066554D01*
X0334161Y0064955D02*
X0256394Y0064955D01*
X0334161Y0231201D02*
X0043923Y0231201D01*
X0045361Y0232799D02*
X0334161Y0232799D01*
X0334161Y0234398D02*
X0045361Y0234398D01*
X0045361Y0235996D02*
X0334161Y0235996D01*
X0334161Y0250383D02*
X0206782Y0250383D01*
X0208380Y0251981D02*
X0334161Y0251981D01*
X0334161Y0253580D02*
X0209387Y0253580D01*
X0210049Y0255178D02*
X0334161Y0255178D01*
X0334161Y0256777D02*
X0210202Y0256777D01*
X0210202Y0258375D02*
X0334161Y0258375D01*
X0334161Y0259974D02*
X0209702Y0259974D01*
X0209040Y0261572D02*
X0334161Y0261572D01*
X0334161Y0263171D02*
X0207543Y0263171D01*
X0204890Y0264769D02*
X0334161Y0264769D01*
X0334161Y0279156D02*
X0022800Y0279156D01*
X0022800Y0280754D02*
X0334161Y0280754D01*
X0334161Y0282353D02*
X0022800Y0282353D01*
X0022800Y0283951D02*
X0334161Y0283951D01*
X0334161Y0285550D02*
X0022800Y0285550D01*
X0022800Y0287148D02*
X0334161Y0287148D01*
X0334161Y0288747D02*
X0022800Y0288747D01*
X0022800Y0290345D02*
X0334161Y0290345D01*
X0334161Y0291944D02*
X0022800Y0291944D01*
X0022800Y0293542D02*
X0334161Y0293542D01*
X0334161Y0295141D02*
X0022800Y0295141D01*
X0022800Y0296739D02*
X0334161Y0296739D01*
X0334161Y0298338D02*
X0022800Y0298338D01*
X0022800Y0299937D02*
X0334161Y0299937D01*
X0334161Y0301535D02*
X0022800Y0301535D01*
X0022800Y0303134D02*
X0334161Y0303134D01*
X0334161Y0304732D02*
X0022800Y0304732D01*
X0022800Y0306331D02*
X0334161Y0306331D01*
X0334161Y0307929D02*
X0022800Y0307929D01*
X0022800Y0309528D02*
X0031979Y0309528D01*
X0032160Y0309346D02*
X0029882Y0311625D01*
X0028649Y0314602D01*
X0028649Y0317824D01*
X0029882Y0320800D01*
X0032160Y0323079D01*
X0035137Y0324312D01*
X0038359Y0324312D01*
X0041336Y0323079D01*
X0043614Y0320800D01*
X0044847Y0317824D01*
X0044847Y0314602D01*
X0043614Y0311625D01*
X0041336Y0309346D01*
X0038359Y0308113D01*
X0035137Y0308113D01*
X0032160Y0309346D01*
X0030381Y0311126D02*
X0022800Y0311126D01*
X0022800Y0312725D02*
X0029426Y0312725D01*
X0028764Y0314323D02*
X0022800Y0314323D01*
X0022800Y0315922D02*
X0028649Y0315922D01*
X0028649Y0317520D02*
X0022800Y0317520D01*
X0022800Y0319119D02*
X0029185Y0319119D01*
X0029847Y0320717D02*
X0024113Y0320717D01*
X0025712Y0322316D02*
X0031397Y0322316D01*
X0034177Y0323914D02*
X0027310Y0323914D01*
X0028909Y0325513D02*
X0159127Y0325513D01*
X0159127Y0327111D02*
X0030507Y0327111D01*
X0032106Y0328710D02*
X0159127Y0328710D01*
X0159127Y0323914D02*
X0039319Y0323914D01*
X0042099Y0322316D02*
X0159127Y0322316D01*
X0165667Y0317340D02*
X0165667Y0312408D01*
X0166487Y0311588D01*
X0171418Y0311588D01*
X0172239Y0312408D01*
X0172239Y0317340D01*
X0171418Y0318160D01*
X0166487Y0318160D01*
X0165667Y0317340D01*
X0165847Y0317520D02*
X0044847Y0317520D01*
X0044847Y0315922D02*
X0165667Y0315922D01*
X0165667Y0314323D02*
X0044732Y0314323D01*
X0044070Y0312725D02*
X0165667Y0312725D01*
X0172239Y0312725D02*
X0184761Y0312725D01*
X0184761Y0312408D02*
X0185582Y0311588D01*
X0190513Y0311588D01*
X0191333Y0312408D01*
X0191333Y0317340D01*
X0190513Y0318160D01*
X0185582Y0318160D01*
X0184761Y0317340D01*
X0184761Y0312408D01*
X0184761Y0314323D02*
X0172239Y0314323D01*
X0172239Y0315922D02*
X0184761Y0315922D01*
X0184942Y0317520D02*
X0172058Y0317520D01*
X0169527Y0322316D02*
X0187473Y0322316D01*
X0187473Y0323914D02*
X0169527Y0323914D01*
X0169527Y0325513D02*
X0187473Y0325513D01*
X0187473Y0327111D02*
X0169527Y0327111D01*
X0169527Y0328710D02*
X0187473Y0328710D01*
X0197873Y0328710D02*
X0263987Y0328710D01*
X0264008Y0328730D02*
X0262770Y0327492D01*
X0262100Y0325875D01*
X0262100Y0318125D01*
X0262770Y0316508D01*
X0264008Y0315270D01*
X0265625Y0314600D01*
X0267375Y0314600D01*
X0268992Y0315270D01*
X0270230Y0316508D01*
X0270900Y0318125D01*
X0270900Y0325875D01*
X0270230Y0327492D01*
X0268992Y0328730D01*
X0267375Y0329400D01*
X0265625Y0329400D01*
X0264008Y0328730D01*
X0262612Y0327111D02*
X0197873Y0327111D01*
X0197873Y0325513D02*
X0262100Y0325513D01*
X0262100Y0323914D02*
X0197873Y0323914D01*
X0197873Y0322316D02*
X0262100Y0322316D01*
X0262100Y0320717D02*
X0043649Y0320717D01*
X0044311Y0319119D02*
X0262100Y0319119D01*
X0262350Y0317520D02*
X0191153Y0317520D01*
X0191333Y0315922D02*
X0263356Y0315922D01*
X0269644Y0315922D02*
X0272803Y0315922D01*
X0272839Y0315873D02*
X0273373Y0315339D01*
X0273984Y0314895D01*
X0274657Y0314552D01*
X0275376Y0314318D01*
X0276122Y0314200D01*
X0276300Y0314200D01*
X0276300Y0321800D01*
X0271700Y0321800D01*
X0271700Y0318622D01*
X0271818Y0317876D01*
X0272052Y0317157D01*
X0272395Y0316484D01*
X0272839Y0315873D01*
X0271934Y0317520D02*
X0270650Y0317520D01*
X0270900Y0319119D02*
X0271700Y0319119D01*
X0271700Y0320717D02*
X0270900Y0320717D01*
X0270900Y0322316D02*
X0271700Y0322316D01*
X0271700Y0322200D02*
X0276300Y0322200D01*
X0276300Y0329800D01*
X0276122Y0329800D01*
X0275376Y0329682D01*
X0274657Y0329448D01*
X0273984Y0329105D01*
X0273373Y0328661D01*
X0272839Y0328127D01*
X0272395Y0327516D01*
X0272052Y0326843D01*
X0271818Y0326124D01*
X0271700Y0325378D01*
X0271700Y0322200D01*
X0271700Y0323914D02*
X0270900Y0323914D01*
X0270900Y0325513D02*
X0271721Y0325513D01*
X0272189Y0327111D02*
X0270388Y0327111D01*
X0269013Y0328710D02*
X0273440Y0328710D01*
X0276300Y0328710D02*
X0276700Y0328710D01*
X0276700Y0329800D02*
X0276700Y0322200D01*
X0276300Y0322200D01*
X0276300Y0321800D01*
X0276700Y0321800D01*
X0276700Y0322200D01*
X0281300Y0322200D01*
X0281300Y0325378D01*
X0281182Y0326124D01*
X0280948Y0326843D01*
X0280605Y0327516D01*
X0280161Y0328127D01*
X0279627Y0328661D01*
X0279016Y0329105D01*
X0278343Y0329448D01*
X0277624Y0329682D01*
X0276878Y0329800D01*
X0276700Y0329800D01*
X0276700Y0327111D02*
X0276300Y0327111D01*
X0276300Y0325513D02*
X0276700Y0325513D01*
X0276700Y0323914D02*
X0276300Y0323914D01*
X0276300Y0322316D02*
X0276700Y0322316D01*
X0276700Y0321800D02*
X0281300Y0321800D01*
X0281300Y0318622D01*
X0281182Y0317876D01*
X0280948Y0317157D01*
X0280605Y0316484D01*
X0280161Y0315873D01*
X0279627Y0315339D01*
X0279016Y0314895D01*
X0278343Y0314552D01*
X0277624Y0314318D01*
X0276878Y0314200D01*
X0276700Y0314200D01*
X0276700Y0321800D01*
X0276700Y0320717D02*
X0276300Y0320717D01*
X0276300Y0319119D02*
X0276700Y0319119D01*
X0276700Y0317520D02*
X0276300Y0317520D01*
X0276300Y0315922D02*
X0276700Y0315922D01*
X0276700Y0314323D02*
X0276300Y0314323D01*
X0275361Y0314323D02*
X0191333Y0314323D01*
X0191333Y0312725D02*
X0312891Y0312725D01*
X0313346Y0311625D02*
X0312113Y0314602D01*
X0312113Y0317824D01*
X0313346Y0320800D01*
X0315625Y0323079D01*
X0318602Y0324312D01*
X0321824Y0324312D01*
X0324800Y0323079D01*
X0327079Y0320800D01*
X0328312Y0317824D01*
X0328312Y0314602D01*
X0327079Y0311625D01*
X0324800Y0309346D01*
X0321824Y0308113D01*
X0318602Y0308113D01*
X0315625Y0309346D01*
X0313346Y0311625D01*
X0313845Y0311126D02*
X0043116Y0311126D01*
X0041517Y0309528D02*
X0315444Y0309528D01*
X0312229Y0314323D02*
X0277639Y0314323D01*
X0280197Y0315922D02*
X0312113Y0315922D01*
X0312113Y0317520D02*
X0281066Y0317520D01*
X0281300Y0319119D02*
X0312650Y0319119D01*
X0313312Y0320717D02*
X0281300Y0320717D01*
X0281300Y0322316D02*
X0314862Y0322316D01*
X0317642Y0323914D02*
X0281300Y0323914D01*
X0281279Y0325513D02*
X0328052Y0325513D01*
X0326453Y0327111D02*
X0280811Y0327111D01*
X0279560Y0328710D02*
X0324855Y0328710D01*
X0322784Y0323914D02*
X0329650Y0323914D01*
X0331249Y0322316D02*
X0325564Y0322316D01*
X0327113Y0320717D02*
X0332848Y0320717D01*
X0334161Y0319119D02*
X0327775Y0319119D01*
X0328312Y0317520D02*
X0334161Y0317520D01*
X0334161Y0315922D02*
X0328312Y0315922D01*
X0328196Y0314323D02*
X0334161Y0314323D01*
X0334161Y0312725D02*
X0327534Y0312725D01*
X0326580Y0311126D02*
X0334161Y0311126D01*
X0334161Y0309528D02*
X0324982Y0309528D01*
X0028653Y0258375D02*
X0022800Y0258375D01*
X0022800Y0256777D02*
X0027054Y0256777D01*
X0026561Y0255178D02*
X0022800Y0255178D01*
X0022800Y0253580D02*
X0026561Y0253580D01*
X0027218Y0251981D02*
X0022800Y0251981D01*
X0022800Y0250383D02*
X0028816Y0250383D01*
X0029062Y0248784D02*
X0022800Y0248784D01*
X0022800Y0247186D02*
X0027463Y0247186D01*
X0026561Y0245587D02*
X0022800Y0245587D01*
X0022800Y0243989D02*
X0026561Y0243989D01*
X0026809Y0242390D02*
X0022800Y0242390D01*
X0022800Y0240792D02*
X0028407Y0240792D01*
X0026561Y0272762D02*
X0022800Y0272762D01*
X0022800Y0274360D02*
X0026561Y0274360D01*
X0026561Y0275959D02*
X0022800Y0275959D01*
X0022800Y0277557D02*
X0027835Y0277557D01*
D19*
X0092500Y0170800D02*
X0092500Y0158500D01*
X0215800Y0158800D02*
X0215800Y0170600D01*
X0223200Y0170600D02*
X0223200Y0158800D01*
M02*
